<svg xmlns="http://www.w3.org/2000/svg" viewBox="0 0 180 60"><g transform="translate(0,20)"><path class="area" fill="rgba(0, 0, 0, 0.2)" d="M0,24.492234169653525C1.0169491525423728,24.336917562724015,2.0338983050847457,24.181600955794508,3.0508474576271185,24.014336917562726C4.067796610169491,23.847072879330945,5.084745762711864,23.488649940262842,6.101694915254237,23.488649940262842C7.11864406779661,23.488649940262842,8.135593220338983,23.735563520509757,9.152542372881356,23.847072879330945C10.169491525423728,23.958582238152133,11.186440677966102,24.157706093189965,12.203389830508474,24.157706093189965C13.220338983050846,24.157706093189965,14.23728813559322,22.700119474313027,15.254237288135592,22.700119474313027C16.271186440677965,22.700119474313027,17.28813559322034,24.635603345280764,18.305084745762713,24.635603345280764C19.322033898305087,24.635603345280764,20.338983050847457,24.03823178016726,21.35593220338983,23.67980884109916C22.372881355932204,23.32138590203106,23.389830508474574,22.485065710872163,24.406779661016948,22.485065710872163C25.423728813559322,22.485065710872163,26.440677966101696,27.26403823178017,27.45762711864407,27.26403823178017C28.47457627118644,27.26403823178017,29.491525423728813,22.054958183990443,30.508474576271183,22.054958183990443C31.525423728813557,22.054958183990443,32.54237288135593,23.178016726403822,33.559322033898304,23.178016726403822C34.57627118644068,23.178016726403822,35.59322033898305,23.07447232178415,36.610169491525426,22.867383512544805C37.6271186440678,22.66029470330546,38.644067796610166,21.003584229390682,39.66101694915254,21.003584229390682C40.67796610169491,21.003584229390682,41.69491525423729,21.95937873357228,42.71186440677966,21.95937873357228C43.728813559322035,21.95937873357228,44.7457627118644,21.696535244922337,45.762711864406775,21.696535244922337C46.77966101694915,21.696535244922337,47.79661016949152,22.1505376344086,48.813559322033896,22.1505376344086C49.83050847457627,22.1505376344086,50.847457627118644,21.93548387096774,51.86440677966102,21.93548387096774C52.88135593220339,21.93548387096774,53.898305084745765,22.1505376344086,54.91525423728814,22.1505376344086C55.93220338983051,22.1505376344086,56.94915254237288,22.12664277180406,57.96610169491525,22.078853046594983C58.983050847457626,22.031063321385904,59.99999999999999,21.6726403823178,61.01694915254237,21.6726403823178C62.03389830508474,21.6726403823178,63.05084745762712,22.867383512544805,64.0677966101695,22.867383512544805C65.08474576271186,22.867383512544805,66.10169491525424,21.983273596176822,67.11864406779661,21.983273596176822C68.13559322033899,21.983273596176822,69.15254237288136,22.44922341696535,70.16949152542374,22.65232974910394C71.1864406779661,22.85543608124253,72.20338983050848,23.201911589008365,73.22033898305085,23.201911589008365C74.23728813559322,23.201911589008365,75.2542372881356,20.605336519315014,76.27118644067797,19.4026284348865C77.28813559322033,18.199920350457983,78.30508474576271,15.985663082437277,79.32203389830508,15.985663082437277C80.33898305084746,15.985663082437277,81.35593220338983,16.917562724014335,82.37288135593221,17.371565113500598C83.38983050847457,17.825567502986857,84.40677966101696,18.518518518518523,85.42372881355932,18.70967741935484C86.4406779661017,18.900836320191157,87.45762711864407,18.996415770609318,88.47457627118645,18.996415770609318C89.49152542372882,18.996415770609318,90.50847457627118,15.364396654719235,91.52542372881355,15.364396654719235C92.54237288135593,15.364396654719235,93.55932203389831,17.204301075268816,94.57627118644069,17.204301075268816C95.59322033898306,17.204301075268816,96.61016949152543,14.241338112305852,97.62711864406779,14.241338112305852C98.64406779661016,14.241338112305852,99.66101694915254,15.667064914376747,100.6779661016949,17.204301075268816C101.69491525423729,18.741537236160895,102.71186440677965,23.464755077658303,103.72881355932203,23.464755077658303C104.7457627118644,23.464755077658303,105.76271186440678,15.531660692951018,106.77966101694915,15.531660692951018C107.79661016949153,15.531660692951018,108.8135593220339,16.248506571087216,109.83050847457628,16.248506571087216C110.84745762711864,16.248506571087216,111.86440677966102,5.925925925925926,112.88135593220339,5.925925925925926C113.89830508474576,5.925925925925926,114.91525423728814,26.18080446037438,115.9322033898305,31.708482676224612C116.94915254237289,37.23616089207487,117.96610169491525,40,118.98305084745763,40C120,40,121.01694915254237,16.025487853444844,122.03389830508473,15.961768219832738C123.05084745762711,15.89804858622063,124.0677966101695,15.929908403026685,125.08474576271188,15.866188769414578C126.10169491525424,15.802469135802472,127.11864406779662,10.82437275985663,128.135593220339,10.82437275985663C129.15254237288136,10.82437275985663,130.16949152542372,15.603345280764636,131.1864406779661,15.603345280764636C132.20338983050846,15.603345280764636,133.22033898305085,13.671843886897651,134.23728813559322,11.660692951015532C135.25423728813558,9.649542015133413,136.27118644067798,3.5364396654719243,137.28813559322035,3.5364396654719243C138.3050847457627,3.5364396654719243,139.3220338983051,15.412186379928317,140.33898305084747,15.412186379928317C141.35593220338984,15.412186379928317,142.3728813559322,7.287933094384709,143.38983050847457,7.287933094384709C144.40677966101694,7.287933094384709,145.42372881355934,10.203106332138589,146.4406779661017,10.203106332138589C147.45762711864407,10.203106332138589,148.47457627118644,2.1505376344086002,149.4915254237288,2.1505376344086002C150.50847457627117,2.1505376344086002,151.52542372881356,15.292712066905615,152.54237288135593,15.292712066905615C153.5593220338983,15.292712066905615,154.5762711864407,3.584229390681002,155.59322033898306,3.584229390681002C156.61016949152543,3.584229390681002,157.6271186440678,7.694145758661888,158.64406779661016,7.694145758661888C159.66101694915253,7.694145758661888,160.67796610169492,2.4611708482676242,161.6949152542373,2.4611708482676242C162.71186440677965,2.4611708482676242,163.72881355932205,5.4958183990442055,164.74576271186442,5.4958183990442055C165.76271186440678,5.4958183990442055,166.77966101694915,5.471923536439665,167.79661016949152,5.471923536439665C168.81355932203388,5.471923536439665,169.83050847457628,14.050179211469533,170.84745762711864,17.921146953405017C171.864406779661,21.7921146953405,172.8813559322034,28.69772998805257,173.89830508474577,28.69772998805257C174.91525423728814,28.69772998805257,175.93220338983053,18.841099163679814,176.9491525423729,15.364396654719235C177.96610169491527,11.887694145758687,178.98305084745763,9.86260454002391,180,7.837514934289129L180,40C178.98305084745763,40,177.96610169491527,40,176.9491525423729,40C175.93220338983053,40,174.91525423728814,40,173.89830508474577,40C172.8813559322034,40,171.864406779661,40,170.84745762711864,40C169.83050847457628,40,168.81355932203388,40,167.79661016949152,40C166.77966101694915,40,165.76271186440678,40,164.74576271186442,40C163.72881355932205,40,162.71186440677965,40,161.6949152542373,40C160.67796610169492,40,159.66101694915253,40,158.64406779661016,40C157.6271186440678,40,156.61016949152543,40,155.59322033898306,40C154.5762711864407,40,153.5593220338983,40,152.54237288135593,40C151.52542372881356,40,150.50847457627117,40,149.4915254237288,40C148.47457627118644,40,147.45762711864407,40,146.4406779661017,40C145.42372881355934,40,144.40677966101694,40,143.38983050847457,40C142.3728813559322,40,141.35593220338984,40,140.33898305084747,40C139.3220338983051,40,138.3050847457627,40,137.28813559322035,40C136.27118644067798,40,135.25423728813558,40,134.23728813559322,40C133.22033898305085,40,132.20338983050846,40,131.1864406779661,40C130.16949152542372,40,129.15254237288136,40,128.135593220339,40C127.11864406779662,40,126.10169491525424,40,125.08474576271188,40C124.0677966101695,40,123.05084745762711,40,122.03389830508473,40C121.01694915254237,40,120,40,118.98305084745763,40C117.96610169491525,40,116.94915254237289,40,115.9322033898305,40C114.91525423728814,40,113.89830508474576,40,112.88135593220339,40C111.86440677966102,40,110.84745762711864,40,109.83050847457628,40C108.8135593220339,40,107.79661016949153,40,106.77966101694915,40C105.76271186440678,40,104.7457627118644,40,103.72881355932203,40C102.71186440677965,40,101.69491525423729,40,100.6779661016949,40C99.66101694915254,40,98.64406779661016,40,97.62711864406779,40C96.61016949152543,40,95.59322033898306,40,94.57627118644069,40C93.55932203389831,40,92.54237288135593,40,91.52542372881355,40C90.50847457627118,40,89.49152542372882,40,88.47457627118645,40C87.45762711864407,40,86.4406779661017,40,85.42372881355932,40C84.40677966101696,40,83.38983050847457,40,82.37288135593221,40C81.35593220338983,40,80.33898305084746,40,79.32203389830508,40C78.30508474576271,40,77.28813559322033,40,76.27118644067797,40C75.2542372881356,40,74.23728813559322,40,73.22033898305085,40C72.20338983050848,40,71.1864406779661,40,70.16949152542374,40C69.15254237288136,40,68.13559322033899,40,67.11864406779661,40C66.10169491525424,40,65.08474576271186,40,64.0677966101695,40C63.05084745762712,40,62.03389830508474,40,61.01694915254237,40C59.99999999999999,40,58.983050847457626,40,57.96610169491525,40C56.94915254237288,40,55.93220338983051,40,54.91525423728814,40C53.898305084745765,40,52.88135593220339,40,51.86440677966102,40C50.847457627118644,40,49.83050847457627,40,48.813559322033896,40C47.79661016949152,40,46.77966101694915,40,45.762711864406775,40C44.7457627118644,40,43.728813559322035,40,42.71186440677966,40C41.69491525423729,40,40.67796610169491,40,39.66101694915254,40C38.644067796610166,40,37.6271186440678,40,36.610169491525426,40C35.59322033898305,40,34.57627118644068,40,33.559322033898304,40C32.54237288135593,40,31.525423728813557,40,30.508474576271183,40C29.491525423728813,40,28.47457627118644,40,27.45762711864407,40C26.440677966101696,40,25.423728813559322,40,24.406779661016948,40C23.389830508474574,40,22.372881355932204,40,21.35593220338983,40C20.338983050847457,40,19.322033898305087,40,18.305084745762713,40C17.28813559322034,40,16.271186440677965,40,15.254237288135592,40C14.23728813559322,40,13.220338983050846,40,12.203389830508474,40C11.186440677966102,40,10.169491525423728,40,9.152542372881356,40C8.135593220338983,40,7.11864406779661,40,6.101694915254237,40C5.084745762711864,40,4.067796610169491,40,3.0508474576271185,40C2.0338983050847457,40,1.0169491525423728,40,0,40Z"></path><path class="line" stroke="black" fill="none" d="M0,24.492234169653525C1.0169491525423728,24.336917562724015,2.0338983050847457,24.181600955794508,3.0508474576271185,24.014336917562726C4.067796610169491,23.847072879330945,5.084745762711864,23.488649940262842,6.101694915254237,23.488649940262842C7.11864406779661,23.488649940262842,8.135593220338983,23.735563520509757,9.152542372881356,23.847072879330945C10.169491525423728,23.958582238152133,11.186440677966102,24.157706093189965,12.203389830508474,24.157706093189965C13.220338983050846,24.157706093189965,14.23728813559322,22.700119474313027,15.254237288135592,22.700119474313027C16.271186440677965,22.700119474313027,17.28813559322034,24.635603345280764,18.305084745762713,24.635603345280764C19.322033898305087,24.635603345280764,20.338983050847457,24.03823178016726,21.35593220338983,23.67980884109916C22.372881355932204,23.32138590203106,23.389830508474574,22.485065710872163,24.406779661016948,22.485065710872163C25.423728813559322,22.485065710872163,26.440677966101696,27.26403823178017,27.45762711864407,27.26403823178017C28.47457627118644,27.26403823178017,29.491525423728813,22.054958183990443,30.508474576271183,22.054958183990443C31.525423728813557,22.054958183990443,32.54237288135593,23.178016726403822,33.559322033898304,23.178016726403822C34.57627118644068,23.178016726403822,35.59322033898305,23.07447232178415,36.610169491525426,22.867383512544805C37.6271186440678,22.66029470330546,38.644067796610166,21.003584229390682,39.66101694915254,21.003584229390682C40.67796610169491,21.003584229390682,41.69491525423729,21.95937873357228,42.71186440677966,21.95937873357228C43.728813559322035,21.95937873357228,44.7457627118644,21.696535244922337,45.762711864406775,21.696535244922337C46.77966101694915,21.696535244922337,47.79661016949152,22.1505376344086,48.813559322033896,22.1505376344086C49.83050847457627,22.1505376344086,50.847457627118644,21.93548387096774,51.86440677966102,21.93548387096774C52.88135593220339,21.93548387096774,53.898305084745765,22.1505376344086,54.91525423728814,22.1505376344086C55.93220338983051,22.1505376344086,56.94915254237288,22.12664277180406,57.96610169491525,22.078853046594983C58.983050847457626,22.031063321385904,59.99999999999999,21.6726403823178,61.01694915254237,21.6726403823178C62.03389830508474,21.6726403823178,63.05084745762712,22.867383512544805,64.0677966101695,22.867383512544805C65.08474576271186,22.867383512544805,66.10169491525424,21.983273596176822,67.11864406779661,21.983273596176822C68.13559322033899,21.983273596176822,69.15254237288136,22.44922341696535,70.16949152542374,22.65232974910394C71.1864406779661,22.85543608124253,72.20338983050848,23.201911589008365,73.22033898305085,23.201911589008365C74.23728813559322,23.201911589008365,75.2542372881356,20.605336519315014,76.27118644067797,19.4026284348865C77.28813559322033,18.199920350457983,78.30508474576271,15.985663082437277,79.32203389830508,15.985663082437277C80.33898305084746,15.985663082437277,81.35593220338983,16.917562724014335,82.37288135593221,17.371565113500598C83.38983050847457,17.825567502986857,84.40677966101696,18.518518518518523,85.42372881355932,18.70967741935484C86.4406779661017,18.900836320191157,87.45762711864407,18.996415770609318,88.47457627118645,18.996415770609318C89.49152542372882,18.996415770609318,90.50847457627118,15.364396654719235,91.52542372881355,15.364396654719235C92.54237288135593,15.364396654719235,93.55932203389831,17.204301075268816,94.57627118644069,17.204301075268816C95.59322033898306,17.204301075268816,96.61016949152543,14.241338112305852,97.62711864406779,14.241338112305852C98.64406779661016,14.241338112305852,99.66101694915254,15.667064914376747,100.6779661016949,17.204301075268816C101.69491525423729,18.741537236160895,102.71186440677965,23.464755077658303,103.72881355932203,23.464755077658303C104.7457627118644,23.464755077658303,105.76271186440678,15.531660692951018,106.77966101694915,15.531660692951018C107.79661016949153,15.531660692951018,108.8135593220339,16.248506571087216,109.83050847457628,16.248506571087216C110.84745762711864,16.248506571087216,111.86440677966102,5.925925925925926,112.88135593220339,5.925925925925926C113.89830508474576,5.925925925925926,114.91525423728814,26.18080446037438,115.9322033898305,31.708482676224612C116.94915254237289,37.23616089207487,117.96610169491525,40,118.98305084745763,40C120,40,121.01694915254237,16.025487853444844,122.03389830508473,15.961768219832738C123.05084745762711,15.89804858622063,124.0677966101695,15.929908403026685,125.08474576271188,15.866188769414578C126.10169491525424,15.802469135802472,127.11864406779662,10.82437275985663,128.135593220339,10.82437275985663C129.15254237288136,10.82437275985663,130.16949152542372,15.603345280764636,131.1864406779661,15.603345280764636C132.20338983050846,15.603345280764636,133.22033898305085,13.671843886897651,134.23728813559322,11.660692951015532C135.25423728813558,9.649542015133413,136.27118644067798,3.5364396654719243,137.28813559322035,3.5364396654719243C138.3050847457627,3.5364396654719243,139.3220338983051,15.412186379928317,140.33898305084747,15.412186379928317C141.35593220338984,15.412186379928317,142.3728813559322,7.287933094384709,143.38983050847457,7.287933094384709C144.40677966101694,7.287933094384709,145.42372881355934,10.203106332138589,146.4406779661017,10.203106332138589C147.45762711864407,10.203106332138589,148.47457627118644,2.1505376344086002,149.4915254237288,2.1505376344086002C150.50847457627117,2.1505376344086002,151.52542372881356,15.292712066905615,152.54237288135593,15.292712066905615C153.5593220338983,15.292712066905615,154.5762711864407,3.584229390681002,155.59322033898306,3.584229390681002C156.61016949152543,3.584229390681002,157.6271186440678,7.694145758661888,158.64406779661016,7.694145758661888C159.66101694915253,7.694145758661888,160.67796610169492,2.4611708482676242,161.6949152542373,2.4611708482676242C162.71186440677965,2.4611708482676242,163.72881355932205,5.4958183990442055,164.74576271186442,5.4958183990442055C165.76271186440678,5.4958183990442055,166.77966101694915,5.471923536439665,167.79661016949152,5.471923536439665C168.81355932203388,5.471923536439665,169.83050847457628,14.050179211469533,170.84745762711864,17.921146953405017C171.864406779661,21.7921146953405,172.8813559322034,28.69772998805257,173.89830508474577,28.69772998805257C174.91525423728814,28.69772998805257,175.93220338983053,18.841099163679814,176.9491525423729,15.364396654719235C177.96610169491527,11.887694145758687,178.98305084745763,9.86260454002391,180,7.837514934289129"></path><path class="axis-ceiling" stroke-width="1" stroke="black" fill="none" d="M175,0L180,0"></path><text class="axis-ceiling-label" font-family="sans-serif" text-anchor="end" font-size="10px" x="170" y="2.5">1000</text></g></svg>