<svg xmlns="http://www.w3.org/2000/svg" viewBox="0 0 180 60"><g transform="translate(0,20)"><path class="area" fill="rgba(0, 0, 0, 0.2)" d="M0,19.900277008310248C1.0169491525423728,19.87072945521699,2.0338983050847457,19.84118190212373,3.0508474576271185,19.722991689750693C4.067796610169491,19.604801477377656,5.084745762711864,18.995383194829174,6.101694915254237,18.725761772853183C7.11864406779661,18.45614035087719,8.135593220338983,18.164358264081258,9.152542372881356,18.105263157894736C10.169491525423728,18.046168051708214,11.186440677966102,18.016620498614955,12.203389830508474,18.016620498614955C13.220338983050846,18.016620498614955,14.23728813559322,18.770083102493075,15.254237288135592,18.770083102493075C16.271186440677965,18.770083102493075,17.28813559322034,16.210526315789473,18.305084745762713,15.047091412742382C19.322033898305087,13.883656509695292,20.338983050847457,12.524469067405356,21.35593220338983,11.789473684210527C22.372881355932204,11.054478301015699,23.389830508474574,10.954755309325948,24.406779661016948,10.637119113573409C25.423728813559322,10.319482917820869,26.440677966101696,10.201292705447829,27.45762711864407,9.883656509695289C28.47457627118644,9.566020313942749,29.491525423728813,8.760849492151435,30.508474576271183,8.731301939058174C31.525423728813557,8.701754385964913,32.54237288135593,8.716528162511542,33.559322033898304,8.686980609418281C34.57627118644068,8.65743305632502,35.59322033898305,7.623268698060941,36.610169491525426,7.623268698060941C37.6271186440678,7.623268698060941,38.644067796610166,8.177285318559555,39.66101694915254,8.177285318559555C40.67796610169491,8.177285318559555,41.69491525423729,6.596491228070174,42.71186440677966,6.448753462603878C43.728813559322035,6.301015697137582,44.7457627118644,6.371191135734073,45.762711864406775,6.227146814404434C46.77966101694915,6.083102493074794,47.79661016949152,5.584487534626037,48.813559322033896,5.584487534626037C49.83050847457627,5.584487534626037,50.847457627118644,7.043397968605725,51.86440677966102,7.689750692520776C52.88135593220339,8.336103416435828,53.898305084745765,8.908587257617729,54.91525423728814,9.462603878116344C55.93220338983051,10.016620498614959,56.94915254237288,10.999076638965837,57.96610169491525,11.013850415512465C58.983050847457626,11.028624192059093,59.99999999999999,11.02123730378578,61.01694915254237,11.036011080332408C62.03389830508474,11.050784856879035,63.05084745762712,12.369344413665743,64.0677966101695,12.853185595567869C65.08474576271186,13.33702677746999,66.10169491525424,13.488457987072948,67.11864406779661,13.939058171745152C68.13559322033899,14.38965835641736,69.15254237288136,15.364727608494922,70.16949152542374,15.556786703601109C71.1864406779661,15.748845798707295,72.20338983050848,15.734072022160666,73.22033898305085,15.844875346260388C74.23728813559322,15.95567867036011,75.2542372881356,15.970452446906739,76.27118644067797,16.221606648199444C77.28813559322033,16.472760849492147,78.30508474576271,17.74699907663897,79.32203389830508,18.59279778393352C80.33898305084746,19.438596491228076,81.35593220338983,20.317636195752538,82.37288135593221,21.29639889196676C83.38983050847457,22.27516158818098,84.40677966101696,23.41643582640813,85.42372881355932,24.465373961218837C86.4406779661017,25.514312096029553,87.45762711864407,26.59279778393352,88.47457627118645,27.59002770083103C89.49152542372882,28.587257617728532,90.50847457627118,29.577100646352726,91.52542372881355,30.448753462603875C92.54237288135593,31.320406278855035,93.55932203389831,32.24746075715605,94.57627118644069,32.819944598337955C95.59322033898306,33.39242843951985,96.61016949152543,33.333333333333336,97.62711864406779,33.88365650969529C98.64406779661016,34.43397968605725,99.66101694915254,35.32040627885503,100.6779661016949,36.121883656509695C101.69491525423729,36.92336103416436,102.71186440677965,38.10526315789473,103.72881355932203,38.692520775623265C104.7457627118644,39.2797783933518,105.76271186440678,39.64542936288089,106.77966101694915,39.64542936288089C107.79661016949153,39.64542936288089,108.8135593220339,39.578947368421055,109.83050847457628,39.578947368421055C110.84745762711864,39.578947368421055,111.86440677966102,39.73037857802401,112.88135593220339,39.8005540166205C113.89830508474576,39.870729455216996,114.91525423728814,40,115.9322033898305,40C116.94915254237289,40,117.96610169491525,39.87442289935365,118.98305084745763,39.62326869806094C120,39.37211449676823,121.01694915254237,38.49676823638042,122.03389830508473,37.82825484764543C123.05084745762711,37.15974145891043,124.0677966101695,36.33979686057249,125.08474576271188,35.61218836565097C126.10169491525424,34.88457987072946,127.11864406779662,34.0387811634349,128.135593220339,33.46260387811634C129.15254237288136,32.88642659279778,130.16949152542372,32.73499538319483,131.1864406779661,32.15512465373961C132.20338983050846,31.575253924284393,133.22033898305085,30.710987996306557,134.23728813559322,29.98337950138504C135.25423728813558,29.255771006463526,136.27118644067798,28.55401662049861,137.28813559322035,27.789473684210524C138.3050847457627,27.024930747922436,139.3220338983051,26.090489381348114,140.33898305084747,25.396121883656512C141.35593220338984,24.701754385964918,142.3728813559322,24.07017543859649,143.38983050847457,23.62326869806094C144.40677966101694,23.176361957525387,145.42372881355934,23.032317636195756,146.4406779661017,22.714681440443215C147.45762711864407,22.397045244690677,148.47457627118644,22.32317636195752,149.4915254237288,21.717451523545705C150.50847457627117,21.111726685133885,151.52542372881356,19.55309325946445,152.54237288135593,19.0803324099723C153.5593220338983,18.60757156048015,154.5762711864407,18.699907663896585,155.59322033898306,18.371191135734072C156.61016949152543,18.042474607571563,157.6271186440678,17.16712834718375,158.64406779661016,17.10803324099723C159.66101694915253,17.04893813481071,160.67796610169492,17.07848568790397,161.6949152542373,17.019390581717452C162.71186440677965,16.960295475530934,163.72881355932205,16.11819021237304,164.74576271186442,15.645429362880886C165.76271186440678,15.172668513388736,166.77966101694915,14.674053554939977,167.79661016949152,14.18282548476454C168.81355932203388,13.6915974145891,169.83050847457628,12.698060941828256,170.84745762711864,12.698060941828256C171.864406779661,12.698060941828256,172.8813559322034,13.828254847645432,173.89830508474577,13.828254847645432C174.91525423728814,13.828254847645432,175.93220338983053,13.09695290858726,176.9491525423729,12.542936288088642C177.96610169491527,11.988919667590029,178.98305084745763,11.246537396121884,180,10.504155124653739L180,40C178.98305084745763,40,177.96610169491527,40,176.9491525423729,40C175.93220338983053,40,174.91525423728814,40,173.89830508474577,40C172.8813559322034,40,171.864406779661,40,170.84745762711864,40C169.83050847457628,40,168.81355932203388,40,167.79661016949152,40C166.77966101694915,40,165.76271186440678,40,164.74576271186442,40C163.72881355932205,40,162.71186440677965,40,161.6949152542373,40C160.67796610169492,40,159.66101694915253,40,158.64406779661016,40C157.6271186440678,40,156.61016949152543,40,155.59322033898306,40C154.5762711864407,40,153.5593220338983,40,152.54237288135593,40C151.52542372881356,40,150.50847457627117,40,149.4915254237288,40C148.47457627118644,40,147.45762711864407,40,146.4406779661017,40C145.42372881355934,40,144.40677966101694,40,143.38983050847457,40C142.3728813559322,40,141.35593220338984,40,140.33898305084747,40C139.3220338983051,40,138.3050847457627,40,137.28813559322035,40C136.27118644067798,40,135.25423728813558,40,134.23728813559322,40C133.22033898305085,40,132.20338983050846,40,131.1864406779661,40C130.16949152542372,40,129.15254237288136,40,128.135593220339,40C127.11864406779662,40,126.10169491525424,40,125.08474576271188,40C124.0677966101695,40,123.05084745762711,40,122.03389830508473,40C121.01694915254237,40,120,40,118.98305084745763,40C117.96610169491525,40,116.94915254237289,40,115.9322033898305,40C114.91525423728814,40,113.89830508474576,40,112.88135593220339,40C111.86440677966102,40,110.84745762711864,40,109.83050847457628,40C108.8135593220339,40,107.79661016949153,40,106.77966101694915,40C105.76271186440678,40,104.7457627118644,40,103.72881355932203,40C102.71186440677965,40,101.69491525423729,40,100.6779661016949,40C99.66101694915254,40,98.64406779661016,40,97.62711864406779,40C96.61016949152543,40,95.59322033898306,40,94.57627118644069,40C93.55932203389831,40,92.54237288135593,40,91.52542372881355,40C90.50847457627118,40,89.49152542372882,40,88.47457627118645,40C87.45762711864407,40,86.4406779661017,40,85.42372881355932,40C84.40677966101696,40,83.38983050847457,40,82.37288135593221,40C81.35593220338983,40,80.33898305084746,40,79.32203389830508,40C78.30508474576271,40,77.28813559322033,40,76.27118644067797,40C75.2542372881356,40,74.23728813559322,40,73.22033898305085,40C72.20338983050848,40,71.1864406779661,40,70.16949152542374,40C69.15254237288136,40,68.13559322033899,40,67.11864406779661,40C66.10169491525424,40,65.08474576271186,40,64.0677966101695,40C63.05084745762712,40,62.03389830508474,40,61.01694915254237,40C59.99999999999999,40,58.983050847457626,40,57.96610169491525,40C56.94915254237288,40,55.93220338983051,40,54.91525423728814,40C53.898305084745765,40,52.88135593220339,40,51.86440677966102,40C50.847457627118644,40,49.83050847457627,40,48.813559322033896,40C47.79661016949152,40,46.77966101694915,40,45.762711864406775,40C44.7457627118644,40,43.728813559322035,40,42.71186440677966,40C41.69491525423729,40,40.67796610169491,40,39.66101694915254,40C38.644067796610166,40,37.6271186440678,40,36.610169491525426,40C35.59322033898305,40,34.57627118644068,40,33.559322033898304,40C32.54237288135593,40,31.525423728813557,40,30.508474576271183,40C29.491525423728813,40,28.47457627118644,40,27.45762711864407,40C26.440677966101696,40,25.423728813559322,40,24.406779661016948,40C23.389830508474574,40,22.372881355932204,40,21.35593220338983,40C20.338983050847457,40,19.322033898305087,40,18.305084745762713,40C17.28813559322034,40,16.271186440677965,40,15.254237288135592,40C14.23728813559322,40,13.220338983050846,40,12.203389830508474,40C11.186440677966102,40,10.169491525423728,40,9.152542372881356,40C8.135593220338983,40,7.11864406779661,40,6.101694915254237,40C5.084745762711864,40,4.067796610169491,40,3.0508474576271185,40C2.0338983050847457,40,1.0169491525423728,40,0,40Z"></path><path class="line" stroke="black" fill="none" d="M0,19.900277008310248C1.0169491525423728,19.87072945521699,2.0338983050847457,19.84118190212373,3.0508474576271185,19.722991689750693C4.067796610169491,19.604801477377656,5.084745762711864,18.995383194829174,6.101694915254237,18.725761772853183C7.11864406779661,18.45614035087719,8.135593220338983,18.164358264081258,9.152542372881356,18.105263157894736C10.169491525423728,18.046168051708214,11.186440677966102,18.016620498614955,12.203389830508474,18.016620498614955C13.220338983050846,18.016620498614955,14.23728813559322,18.770083102493075,15.254237288135592,18.770083102493075C16.271186440677965,18.770083102493075,17.28813559322034,16.210526315789473,18.305084745762713,15.047091412742382C19.322033898305087,13.883656509695292,20.338983050847457,12.524469067405356,21.35593220338983,11.789473684210527C22.372881355932204,11.054478301015699,23.389830508474574,10.954755309325948,24.406779661016948,10.637119113573409C25.423728813559322,10.319482917820869,26.440677966101696,10.201292705447829,27.45762711864407,9.883656509695289C28.47457627118644,9.566020313942749,29.491525423728813,8.760849492151435,30.508474576271183,8.731301939058174C31.525423728813557,8.701754385964913,32.54237288135593,8.716528162511542,33.559322033898304,8.686980609418281C34.57627118644068,8.65743305632502,35.59322033898305,7.623268698060941,36.610169491525426,7.623268698060941C37.6271186440678,7.623268698060941,38.644067796610166,8.177285318559555,39.66101694915254,8.177285318559555C40.67796610169491,8.177285318559555,41.69491525423729,6.596491228070174,42.71186440677966,6.448753462603878C43.728813559322035,6.301015697137582,44.7457627118644,6.371191135734073,45.762711864406775,6.227146814404434C46.77966101694915,6.083102493074794,47.79661016949152,5.584487534626037,48.813559322033896,5.584487534626037C49.83050847457627,5.584487534626037,50.847457627118644,7.043397968605725,51.86440677966102,7.689750692520776C52.88135593220339,8.336103416435828,53.898305084745765,8.908587257617729,54.91525423728814,9.462603878116344C55.93220338983051,10.016620498614959,56.94915254237288,10.999076638965837,57.96610169491525,11.013850415512465C58.983050847457626,11.028624192059093,59.99999999999999,11.02123730378578,61.01694915254237,11.036011080332408C62.03389830508474,11.050784856879035,63.05084745762712,12.369344413665743,64.0677966101695,12.853185595567869C65.08474576271186,13.33702677746999,66.10169491525424,13.488457987072948,67.11864406779661,13.939058171745152C68.13559322033899,14.38965835641736,69.15254237288136,15.364727608494922,70.16949152542374,15.556786703601109C71.1864406779661,15.748845798707295,72.20338983050848,15.734072022160666,73.22033898305085,15.844875346260388C74.23728813559322,15.95567867036011,75.2542372881356,15.970452446906739,76.27118644067797,16.221606648199444C77.28813559322033,16.472760849492147,78.30508474576271,17.74699907663897,79.32203389830508,18.59279778393352C80.33898305084746,19.438596491228076,81.35593220338983,20.317636195752538,82.37288135593221,21.29639889196676C83.38983050847457,22.27516158818098,84.40677966101696,23.41643582640813,85.42372881355932,24.465373961218837C86.4406779661017,25.514312096029553,87.45762711864407,26.59279778393352,88.47457627118645,27.59002770083103C89.49152542372882,28.587257617728532,90.50847457627118,29.577100646352726,91.52542372881355,30.448753462603875C92.54237288135593,31.320406278855035,93.55932203389831,32.24746075715605,94.57627118644069,32.819944598337955C95.59322033898306,33.39242843951985,96.61016949152543,33.333333333333336,97.62711864406779,33.88365650969529C98.64406779661016,34.43397968605725,99.66101694915254,35.32040627885503,100.6779661016949,36.121883656509695C101.69491525423729,36.92336103416436,102.71186440677965,38.10526315789473,103.72881355932203,38.692520775623265C104.7457627118644,39.2797783933518,105.76271186440678,39.64542936288089,106.77966101694915,39.64542936288089C107.79661016949153,39.64542936288089,108.8135593220339,39.578947368421055,109.83050847457628,39.578947368421055C110.84745762711864,39.578947368421055,111.86440677966102,39.73037857802401,112.88135593220339,39.8005540166205C113.89830508474576,39.870729455216996,114.91525423728814,40,115.9322033898305,40C116.94915254237289,40,117.96610169491525,39.87442289935365,118.98305084745763,39.62326869806094C120,39.37211449676823,121.01694915254237,38.49676823638042,122.03389830508473,37.82825484764543C123.05084745762711,37.15974145891043,124.0677966101695,36.33979686057249,125.08474576271188,35.61218836565097C126.10169491525424,34.88457987072946,127.11864406779662,34.0387811634349,128.135593220339,33.46260387811634C129.15254237288136,32.88642659279778,130.16949152542372,32.73499538319483,131.1864406779661,32.15512465373961C132.20338983050846,31.575253924284393,133.22033898305085,30.710987996306557,134.23728813559322,29.98337950138504C135.25423728813558,29.255771006463526,136.27118644067798,28.55401662049861,137.28813559322035,27.789473684210524C138.3050847457627,27.024930747922436,139.3220338983051,26.090489381348114,140.33898305084747,25.396121883656512C141.35593220338984,24.701754385964918,142.3728813559322,24.07017543859649,143.38983050847457,23.62326869806094C144.40677966101694,23.176361957525387,145.42372881355934,23.032317636195756,146.4406779661017,22.714681440443215C147.45762711864407,22.397045244690677,148.47457627118644,22.32317636195752,149.4915254237288,21.717451523545705C150.50847457627117,21.111726685133885,151.52542372881356,19.55309325946445,152.54237288135593,19.0803324099723C153.5593220338983,18.60757156048015,154.5762711864407,18.699907663896585,155.59322033898306,18.371191135734072C156.61016949152543,18.042474607571563,157.6271186440678,17.16712834718375,158.64406779661016,17.10803324099723C159.66101694915253,17.04893813481071,160.67796610169492,17.07848568790397,161.6949152542373,17.019390581717452C162.71186440677965,16.960295475530934,163.72881355932205,16.11819021237304,164.74576271186442,15.645429362880886C165.76271186440678,15.172668513388736,166.77966101694915,14.674053554939977,167.79661016949152,14.18282548476454C168.81355932203388,13.6915974145891,169.83050847457628,12.698060941828256,170.84745762711864,12.698060941828256C171.864406779661,12.698060941828256,172.8813559322034,13.828254847645432,173.89830508474577,13.828254847645432C174.91525423728814,13.828254847645432,175.93220338983053,13.09695290858726,176.9491525423729,12.542936288088642C177.96610169491527,11.988919667590029,178.98305084745763,11.246537396121884,180,10.504155124653739"></path><path class="axis-ceiling" stroke-width="1" stroke="black" fill="none" d="M175,0L180,0"></path><text class="axis-ceiling-label" font-family="sans-serif" text-anchor="end" font-size="10px" x="170" y="2.5">1000</text></g></svg>