<svg xmlns="http://www.w3.org/2000/svg" viewBox="0 0 180 60"><g transform="translate(0,20)"><path class="area" fill="rgba(0, 0, 0, 0.2)" d="M0,16.206896551724135C0.8571428571428571,15.517241379310343,1.714285714285714,14.827586206896552,2.571428571428571,14.827586206896552C3.4285714285714284,14.827586206896552,4.285714285714286,14.827586206896552,5.142857142857142,14.827586206896552C9.428571428571427,14.827586206896552,13.714285714285715,14.482758620689653,18,14.482758620689653C19.71428571428571,14.482758620689653,21.428571428571427,15.172413793103448,23.14285714285714,15.172413793103448C23.999999999999996,15.172413793103448,24.857142857142854,15.172413793103448,25.71428571428571,15.172413793103448C26.57142857142857,15.172413793103448,27.428571428571427,15.172413793103448,28.285714285714285,15.172413793103448C30,15.172413793103448,31.714285714285715,12.413793103448274,33.42857142857143,12.413793103448274C34.285714285714285,12.413793103448274,35.142857142857146,15.172413793103448,36,15.172413793103448C36.857142857142854,15.172413793103448,37.714285714285715,15.172413793103448,38.57142857142857,15.172413793103448C39.42857142857142,15.172413793103448,40.285714285714285,15.172413793103448,41.14285714285714,15.172413793103448C44.57142857142857,15.172413793103448,47.99999999999999,13.448275862068964,51.42857142857142,13.448275862068964C53.14285714285714,13.448275862068964,54.857142857142854,14.521072796934865,56.57142857142857,14.827586206896552C57.42857142857143,14.980842911877394,58.285714285714285,15.172413793103448,59.142857142857146,15.172413793103448C60,15.172413793103448,60.85714285714286,14.827586206896552,61.714285714285715,14.827586206896552C62.57142857142858,14.827586206896552,63.42857142857143,15.517241379310347,64.28571428571429,15.517241379310347C65.14285714285715,15.517241379310347,66,14.137931034482758,66.85714285714286,14.137931034482758C67.71428571428572,14.137931034482758,68.57142857142857,15.172413793103448,69.42857142857143,15.172413793103448C71.14285714285714,15.172413793103448,72.85714285714286,11.724137931034484,74.57142857142857,11.724137931034484C75.42857142857143,11.724137931034484,76.28571428571428,12.528735632183912,77.14285714285714,12.758620689655174C78,12.988505747126437,78.85714285714285,13.103448275862068,79.71428571428571,13.103448275862068C80.57142857142857,13.103448275862068,81.42857142857142,8.620689655172416,82.28571428571428,8.620689655172416C83.14285714285714,8.620689655172416,84,12.988505747126434,84.85714285714286,13.448275862068964C85.71428571428572,13.908045977011493,86.57142857142857,13.850574712643677,87.42857142857143,14.137931034482758C88.28571428571429,14.425287356321839,89.14285714285714,15.172413793103448,90,15.172413793103448C90.85714285714285,15.172413793103448,91.71428571428571,14.655172413793101,92.57142857142856,14.482758620689653C93.42857142857142,14.310344827586203,94.28571428571428,14.36781609195402,95.14285714285714,14.137931034482758C96,13.908045977011495,96.85714285714285,2.98850574712643,97.71428571428571,2.068965517241379C98.57142857142857,1.1494252873563227,99.42857142857143,0.6896551724137945,100.28571428571429,0.6896551724137945C101.14285714285714,0.6896551724137945,102,3.103448275862073,102.85714285714285,4.137931034482758C103.71428571428571,5.172413793103455,104.57142857142857,6.8965517241379315,105.42857142857143,6.8965517241379315C106.28571428571429,6.8965517241379315,107.14285714285714,0,108,0C108.85714285714286,0,109.71428571428572,11.724137931034484,110.57142857142858,11.724137931034484C111.42857142857143,11.724137931034484,112.28571428571429,5.517241379310347,113.14285714285714,5.517241379310347C114,5.517241379310347,114.85714285714286,5.977011494252875,115.71428571428572,6.8965517241379315C116.57142857142858,7.8160919540229825,117.42857142857143,11.03448275862069,118.28571428571429,11.03448275862069C119.14285714285714,11.03448275862069,120,7.586206896551726,120.85714285714285,7.586206896551726C121.71428571428571,7.586206896551726,122.57142857142857,8.275862068965518,123.42857142857143,8.620689655172416C124.28571428571428,8.965517241379311,125.14285714285714,8.965517241379313,125.99999999999999,9.655172413793105C126.85714285714285,10.34482758620691,127.71428571428572,13.448275862068964,128.57142857142858,13.448275862068964C129.42857142857144,13.448275862068964,130.28571428571428,13.448275862068964,131.14285714285714,13.448275862068964C132,13.448275862068964,132.85714285714286,11.724137931034484,133.71428571428572,11.724137931034484C134.57142857142858,11.724137931034484,135.42857142857142,15.172413793103448,136.28571428571428,15.172413793103448C137.14285714285714,15.172413793103448,138,11.379310344827584,138.85714285714286,11.379310344827584C139.71428571428572,11.379310344827584,140.57142857142856,11.839080459770114,141.42857142857142,12.758620689655174C142.28571428571428,13.678160919540245,143.14285714285714,18.620689655172416,144,18.620689655172416C144.85714285714286,18.620689655172416,145.71428571428572,2.413793103448274,146.57142857142858,2.413793103448274C147.42857142857144,2.413793103448274,148.28571428571428,15.172413793103448,149.14285714285714,15.172413793103448C150,15.172413793103448,150.85714285714286,13.793103448275863,151.71428571428572,13.793103448275863C152.57142857142858,13.793103448275863,153.42857142857142,13.793103448275863,154.28571428571428,13.793103448275863C155.14285714285714,13.793103448275863,156,13.103448275862068,156.85714285714286,13.103448275862068C157.71428571428572,13.103448275862068,158.57142857142856,15.172413793103448,159.42857142857142,15.172413793103448C160.28571428571428,15.172413793103448,161.14285714285714,15.172413793103448,162,15.172413793103448C162.85714285714286,15.172413793103448,163.7142857142857,13.793103448275863,164.57142857142856,13.793103448275863C165.42857142857142,13.793103448275863,166.28571428571428,13.793103448275863,167.14285714285714,13.793103448275863C168,13.793103448275863,168.85714285714286,15.172413793103448,169.71428571428572,15.172413793103448C170.57142857142858,15.172413793103448,171.42857142857144,13.793103448275863,172.2857142857143,13.793103448275863C173.14285714285717,13.793103448275863,174,40,174.85714285714286,40C175.71428571428572,40,176.57142857142858,28.33333333333335,177.42857142857144,23.793103448275865C178.2857142857143,19.25287356321843,179.14285714285714,16.005747126436802,180,12.758620689655174L180,40C179.14285714285714,40,178.2857142857143,40,177.42857142857144,40C176.57142857142858,40,175.71428571428572,40,174.85714285714286,40C174,40,173.14285714285717,40,172.2857142857143,40C171.42857142857144,40,170.57142857142858,40,169.71428571428572,40C168.85714285714286,40,168,40,167.14285714285714,40C166.28571428571428,40,165.42857142857142,40,164.57142857142856,40C163.7142857142857,40,162.85714285714286,40,162,40C161.14285714285714,40,160.28571428571428,40,159.42857142857142,40C158.57142857142856,40,157.71428571428572,40,156.85714285714286,40C156,40,155.14285714285714,40,154.28571428571428,40C153.42857142857142,40,152.57142857142858,40,151.71428571428572,40C150.85714285714286,40,150,40,149.14285714285714,40C148.28571428571428,40,147.42857142857144,40,146.57142857142858,40C145.71428571428572,40,144.85714285714286,40,144,40C143.14285714285714,40,142.28571428571428,40,141.42857142857142,40C140.57142857142856,40,139.71428571428572,40,138.85714285714286,40C138,40,137.14285714285714,40,136.28571428571428,40C135.42857142857142,40,134.57142857142858,40,133.71428571428572,40C132.85714285714286,40,132,40,131.14285714285714,40C130.28571428571428,40,129.42857142857144,40,128.57142857142858,40C127.71428571428572,40,126.85714285714285,40,125.99999999999999,40C125.14285714285714,40,124.28571428571428,40,123.42857142857143,40C122.57142857142857,40,121.71428571428571,40,120.85714285714285,40C120,40,119.14285714285714,40,118.28571428571429,40C117.42857142857143,40,116.57142857142858,40,115.71428571428572,40C114.85714285714286,40,114,40,113.14285714285714,40C112.28571428571429,40,111.42857142857143,40,110.57142857142858,40C109.71428571428572,40,108.85714285714286,40,108,40C107.14285714285714,40,106.28571428571429,40,105.42857142857143,40C104.57142857142857,40,103.71428571428571,40,102.85714285714285,40C102,40,101.14285714285714,40,100.28571428571429,40C99.42857142857143,40,98.57142857142857,40,97.71428571428571,40C96.85714285714285,40,96,40,95.14285714285714,40C94.28571428571428,40,93.42857142857142,40,92.57142857142856,40C91.71428571428571,40,90.85714285714285,40,90,40C89.14285714285714,40,88.28571428571429,40,87.42857142857143,40C86.57142857142857,40,85.71428571428572,40,84.85714285714286,40C84,40,83.14285714285714,40,82.28571428571428,40C81.42857142857142,40,80.57142857142857,40,79.71428571428571,40C78.85714285714285,40,78,40,77.14285714285714,40C76.28571428571428,40,75.42857142857143,40,74.57142857142857,40C72.85714285714286,40,71.14285714285714,40,69.42857142857143,40C68.57142857142857,40,67.71428571428572,40,66.85714285714286,40C66,40,65.14285714285715,40,64.28571428571429,40C63.42857142857143,40,62.57142857142858,40,61.714285714285715,40C60.85714285714286,40,60,40,59.142857142857146,40C58.285714285714285,40,57.42857142857143,40,56.57142857142857,40C54.857142857142854,40,53.14285714285714,40,51.42857142857142,40C47.99999999999999,40,44.57142857142857,40,41.14285714285714,40C40.285714285714285,40,39.42857142857142,40,38.57142857142857,40C37.714285714285715,40,36.857142857142854,40,36,40C35.142857142857146,40,34.285714285714285,40,33.42857142857143,40C31.714285714285715,40,30,40,28.285714285714285,40C27.428571428571427,40,26.57142857142857,40,25.71428571428571,40C24.857142857142854,40,23.999999999999996,40,23.14285714285714,40C21.428571428571427,40,19.71428571428571,40,18,40C13.714285714285715,40,9.428571428571427,40,5.142857142857142,40C4.285714285714286,40,3.4285714285714284,40,2.571428571428571,40C1.714285714285714,40,0.8571428571428571,40,0,40Z"></path><path class="line" stroke="black" fill="none" d="M0,16.206896551724135C0.8571428571428571,15.517241379310343,1.714285714285714,14.827586206896552,2.571428571428571,14.827586206896552C3.4285714285714284,14.827586206896552,4.285714285714286,14.827586206896552,5.142857142857142,14.827586206896552C9.428571428571427,14.827586206896552,13.714285714285715,14.482758620689653,18,14.482758620689653C19.71428571428571,14.482758620689653,21.428571428571427,15.172413793103448,23.14285714285714,15.172413793103448C23.999999999999996,15.172413793103448,24.857142857142854,15.172413793103448,25.71428571428571,15.172413793103448C26.57142857142857,15.172413793103448,27.428571428571427,15.172413793103448,28.285714285714285,15.172413793103448C30,15.172413793103448,31.714285714285715,12.413793103448274,33.42857142857143,12.413793103448274C34.285714285714285,12.413793103448274,35.142857142857146,15.172413793103448,36,15.172413793103448C36.857142857142854,15.172413793103448,37.714285714285715,15.172413793103448,38.57142857142857,15.172413793103448C39.42857142857142,15.172413793103448,40.285714285714285,15.172413793103448,41.14285714285714,15.172413793103448C44.57142857142857,15.172413793103448,47.99999999999999,13.448275862068964,51.42857142857142,13.448275862068964C53.14285714285714,13.448275862068964,54.857142857142854,14.521072796934865,56.57142857142857,14.827586206896552C57.42857142857143,14.980842911877394,58.285714285714285,15.172413793103448,59.142857142857146,15.172413793103448C60,15.172413793103448,60.85714285714286,14.827586206896552,61.714285714285715,14.827586206896552C62.57142857142858,14.827586206896552,63.42857142857143,15.517241379310347,64.28571428571429,15.517241379310347C65.14285714285715,15.517241379310347,66,14.137931034482758,66.85714285714286,14.137931034482758C67.71428571428572,14.137931034482758,68.57142857142857,15.172413793103448,69.42857142857143,15.172413793103448C71.14285714285714,15.172413793103448,72.85714285714286,11.724137931034484,74.57142857142857,11.724137931034484C75.42857142857143,11.724137931034484,76.28571428571428,12.528735632183912,77.14285714285714,12.758620689655174C78,12.988505747126437,78.85714285714285,13.103448275862068,79.71428571428571,13.103448275862068C80.57142857142857,13.103448275862068,81.42857142857142,8.620689655172416,82.28571428571428,8.620689655172416C83.14285714285714,8.620689655172416,84,12.988505747126434,84.85714285714286,13.448275862068964C85.71428571428572,13.908045977011493,86.57142857142857,13.850574712643677,87.42857142857143,14.137931034482758C88.28571428571429,14.425287356321839,89.14285714285714,15.172413793103448,90,15.172413793103448C90.85714285714285,15.172413793103448,91.71428571428571,14.655172413793101,92.57142857142856,14.482758620689653C93.42857142857142,14.310344827586203,94.28571428571428,14.36781609195402,95.14285714285714,14.137931034482758C96,13.908045977011495,96.85714285714285,2.98850574712643,97.71428571428571,2.068965517241379C98.57142857142857,1.1494252873563227,99.42857142857143,0.6896551724137945,100.28571428571429,0.6896551724137945C101.14285714285714,0.6896551724137945,102,3.103448275862073,102.85714285714285,4.137931034482758C103.71428571428571,5.172413793103455,104.57142857142857,6.8965517241379315,105.42857142857143,6.8965517241379315C106.28571428571429,6.8965517241379315,107.14285714285714,0,108,0C108.85714285714286,0,109.71428571428572,11.724137931034484,110.57142857142858,11.724137931034484C111.42857142857143,11.724137931034484,112.28571428571429,5.517241379310347,113.14285714285714,5.517241379310347C114,5.517241379310347,114.85714285714286,5.977011494252875,115.71428571428572,6.8965517241379315C116.57142857142858,7.8160919540229825,117.42857142857143,11.03448275862069,118.28571428571429,11.03448275862069C119.14285714285714,11.03448275862069,120,7.586206896551726,120.85714285714285,7.586206896551726C121.71428571428571,7.586206896551726,122.57142857142857,8.275862068965518,123.42857142857143,8.620689655172416C124.28571428571428,8.965517241379311,125.14285714285714,8.965517241379313,125.99999999999999,9.655172413793105C126.85714285714285,10.34482758620691,127.71428571428572,13.448275862068964,128.57142857142858,13.448275862068964C129.42857142857144,13.448275862068964,130.28571428571428,13.448275862068964,131.14285714285714,13.448275862068964C132,13.448275862068964,132.85714285714286,11.724137931034484,133.71428571428572,11.724137931034484C134.57142857142858,11.724137931034484,135.42857142857142,15.172413793103448,136.28571428571428,15.172413793103448C137.14285714285714,15.172413793103448,138,11.379310344827584,138.85714285714286,11.379310344827584C139.71428571428572,11.379310344827584,140.57142857142856,11.839080459770114,141.42857142857142,12.758620689655174C142.28571428571428,13.678160919540245,143.14285714285714,18.620689655172416,144,18.620689655172416C144.85714285714286,18.620689655172416,145.71428571428572,2.413793103448274,146.57142857142858,2.413793103448274C147.42857142857144,2.413793103448274,148.28571428571428,15.172413793103448,149.14285714285714,15.172413793103448C150,15.172413793103448,150.85714285714286,13.793103448275863,151.71428571428572,13.793103448275863C152.57142857142858,13.793103448275863,153.42857142857142,13.793103448275863,154.28571428571428,13.793103448275863C155.14285714285714,13.793103448275863,156,13.103448275862068,156.85714285714286,13.103448275862068C157.71428571428572,13.103448275862068,158.57142857142856,15.172413793103448,159.42857142857142,15.172413793103448C160.28571428571428,15.172413793103448,161.14285714285714,15.172413793103448,162,15.172413793103448C162.85714285714286,15.172413793103448,163.7142857142857,13.793103448275863,164.57142857142856,13.793103448275863C165.42857142857142,13.793103448275863,166.28571428571428,13.793103448275863,167.14285714285714,13.793103448275863C168,13.793103448275863,168.85714285714286,15.172413793103448,169.71428571428572,15.172413793103448C170.57142857142858,15.172413793103448,171.42857142857144,13.793103448275863,172.2857142857143,13.793103448275863C173.14285714285717,13.793103448275863,174,40,174.85714285714286,40C175.71428571428572,40,176.57142857142858,28.33333333333335,177.42857142857144,23.793103448275865C178.2857142857143,19.25287356321843,179.14285714285714,16.005747126436802,180,12.758620689655174"></path><path class="axis-ceiling" stroke-width="1" stroke="black" fill="none" d="M175,0L180,0"></path><text class="axis-ceiling-label" font-family="sans-serif" text-anchor="end" font-size="10px" x="170" y="2.5">45</text></g></svg>