<svg xmlns="http://www.w3.org/2000/svg" viewBox="0 0 180 60"><g transform="translate(0,20)"><path class="area" fill="rgba(0, 0, 0, 0.2)" d="M0,38.66273352999017C1.0169491525423728,38.72173058013766,2.0338983050847457,38.780727630285156,3.0508474576271185,38.780727630285156C4.067796610169491,38.780727630285156,5.084745762711864,38.780727630285156,6.101694915254237,38.780727630285156C7.11864406779661,38.780727630285156,8.135593220338983,38.82661422484431,9.152542372881356,38.859390363815145C10.169491525423728,38.892166502785976,11.186440677966102,38.911832186168475,12.203389830508474,38.97738446411013C13.220338983050846,39.042936742051786,14.23728813559322,39.226483120288435,15.254237288135592,39.25270403146509C16.271186440677965,39.27892494264175,17.28813559322034,39.265814487053426,18.305084745762713,39.292035398230084C19.322033898305087,39.31825630940674,20.338983050847457,39.64601769911504,21.35593220338983,39.64601769911504C22.372881355932204,39.64601769911504,23.389830508474574,39.64601769911504,24.406779661016948,39.64601769911504C25.423728813559322,39.64601769911504,26.440677966101696,40,27.45762711864407,40C28.47457627118644,40,29.491525423728813,39.98688954441167,30.508474576271183,39.960668633235C31.525423728813557,39.93444772205834,32.54237288135593,39.69845952146837,33.559322033898304,39.60668633235005C34.57627118644068,39.51491314323173,35.59322033898305,39.41002949852508,36.610169491525426,39.41002949852508C37.6271186440678,39.41002949852508,38.644067796610166,39.567354965585054,39.66101694915254,39.567354965585054C40.67796610169491,39.567354965585054,41.69491525423729,39.174041297935105,42.71186440677966,39.174041297935105C43.728813559322035,39.174041297935105,44.7457627118644,39.37069813176008,45.762711864406775,39.37069813176008C46.77966101694915,39.37069813176008,47.79661016949152,39.265814487053426,48.813559322033896,39.174041297935105C49.83050847457627,39.082268108816784,50.847457627118644,38.82005899705015,51.86440677966102,38.82005899705015C52.88135593220339,38.82005899705015,53.898305084745765,39.68534906588004,54.91525423728814,39.68534906588004C55.93220338983051,39.68534906588004,56.94915254237288,39.39691904293674,57.96610169491525,39.292035398230084C58.983050847457626,39.18715175352343,59.99999999999999,39.05604719764012,61.01694915254237,39.05604719764012C62.03389830508474,39.05604719764012,63.05084745762712,39.09537856440511,64.0677966101695,39.09537856440511C65.08474576271186,39.09537856440511,66.10169491525424,38.43985578498853,67.11864406779661,38.230088495575224C68.13559322033899,38.02032120616192,69.15254237288136,37.93510324483776,70.16949152542374,37.836774827925275C71.1864406779661,37.73844641101279,72.20338983050848,37.77122254998361,73.22033898305085,37.640117994100294C74.23728813559322,37.509013438216975,75.2542372881356,36.4863979023271,76.27118644067797,36.46017699115044C77.28813559322033,36.43395607997378,78.30508474576271,36.44706653556211,79.32203389830508,36.42084562438545C80.33898305084746,36.39462471320879,81.35593220338983,36.2569649295313,82.37288135593221,36.18485742379548C83.38983050847457,36.112749918059656,84.40677966101696,35.9882005899705,85.42372881355932,35.9882005899705C86.4406779661017,35.9882005899705,87.45762711864407,36.086529006882984,88.47457627118645,36.14552605703048C89.49152542372882,36.20452310717797,90.50847457627118,36.2962962962963,91.52542372881355,36.34218289085546C92.54237288135593,36.388069485414626,93.55932203389831,36.38806948541462,94.57627118644069,36.42084562438545C95.59322033898306,36.45362176335628,96.61016949152543,36.466732218944614,97.62711864406779,36.538839724680436C98.64406779661016,36.61094723041626,99.66101694915254,36.85349065880039,100.6779661016949,36.85349065880039C101.69491525423729,36.85349065880039,102.71186440677965,36.53228449688627,103.72881355932203,36.18485742379548C104.7457627118644,35.837430350704686,105.76271186440678,35.175352343493934,106.77966101694915,34.76892822025565C107.79661016949153,34.36250409701737,108.8135593220339,34.08062930186824,109.83050847457628,33.74631268436578C110.84745762711864,33.411996066863324,111.86440677966102,33.04490331039003,112.88135593220339,32.763028515240904C113.89830508474576,32.481153720091775,114.91525423728814,32.45493280891511,115.9322033898305,32.055063913470995C116.94915254237289,31.655195018026877,117.96610169491525,30.88167813831531,118.98305084745763,30.363815142576204C120,29.845952146837103,121.01694915254237,29.38708620124549,122.03389830508473,28.947885939036382C123.05084745762711,28.508685676827266,124.0677966101695,27.728613569321535,125.08474576271188,27.728613569321535C126.10169491525424,27.728613569321535,127.11864406779662,27.820386758439856,128.135593220339,28.003933136676498C129.15254237288136,28.18747951491314,130.16949152542372,29.459193706981317,131.1864406779661,29.459193706981317C132.20338983050846,29.459193706981317,133.22033898305085,28.947885939036382,134.23728813559322,28.71189773844641C135.25423728813558,28.475909537856438,136.27118644067798,28.48901999344477,137.28813559322035,28.043264503441492C138.3050847457627,27.597509013438213,139.3220338983051,25.84070796460177,140.33898305084747,25.84070796460177C141.35593220338984,25.84070796460177,142.3728813559322,27.682726974762385,143.38983050847457,29.262536873156343C144.40677966101694,30.842346771550314,145.42372881355934,35.319567354965585,146.4406779661017,35.319567354965585C147.45762711864407,35.319567354965585,148.47457627118644,35.21468371025893,149.4915254237288,35.004916420845625C150.50847457627117,34.79514913143232,151.52542372881356,33.71353654539496,152.54237288135593,33.23500491642085C153.5593220338983,32.75647328744674,154.5762711864407,32.23861029170764,155.59322033898306,32.133726647000984C156.61016949152543,32.02884300229433,157.6271186440678,31.976401179941007,158.64406779661016,31.976401179941007C159.66101694915253,31.976401179941007,160.67796610169492,33.31366764995083,161.6949152542373,33.31366764995083C162.71186440677965,33.31366764995083,163.72881355932205,28.77089478859391,164.74576271186442,26.705998033431662C165.76271186440678,24.64110127826943,166.77966101694915,22.228777450016388,167.79661016949152,20.924287118977386C168.81355932203388,19.61979678793837,169.83050847457628,19.4428056374959,170.84745762711864,18.87905604719764C171.864406779661,18.31530645689938,172.8813559322034,18.105539167486068,173.89830508474577,17.541789577187807C174.91525423728814,16.978039986889545,175.93220338983053,15.549000327761389,176.9491525423729,15.496558505408062C177.96610169491527,15.444116683054737,178.98305084745763,15.431006227466405,180,15.417895771878074L180,40C178.98305084745763,40,177.96610169491527,40,176.9491525423729,40C175.93220338983053,40,174.91525423728814,40,173.89830508474577,40C172.8813559322034,40,171.864406779661,40,170.84745762711864,40C169.83050847457628,40,168.81355932203388,40,167.79661016949152,40C166.77966101694915,40,165.76271186440678,40,164.74576271186442,40C163.72881355932205,40,162.71186440677965,40,161.6949152542373,40C160.67796610169492,40,159.66101694915253,40,158.64406779661016,40C157.6271186440678,40,156.61016949152543,40,155.59322033898306,40C154.5762711864407,40,153.5593220338983,40,152.54237288135593,40C151.52542372881356,40,150.50847457627117,40,149.4915254237288,40C148.47457627118644,40,147.45762711864407,40,146.4406779661017,40C145.42372881355934,40,144.40677966101694,40,143.38983050847457,40C142.3728813559322,40,141.35593220338984,40,140.33898305084747,40C139.3220338983051,40,138.3050847457627,40,137.28813559322035,40C136.27118644067798,40,135.25423728813558,40,134.23728813559322,40C133.22033898305085,40,132.20338983050846,40,131.1864406779661,40C130.16949152542372,40,129.15254237288136,40,128.135593220339,40C127.11864406779662,40,126.10169491525424,40,125.08474576271188,40C124.0677966101695,40,123.05084745762711,40,122.03389830508473,40C121.01694915254237,40,120,40,118.98305084745763,40C117.96610169491525,40,116.94915254237289,40,115.9322033898305,40C114.91525423728814,40,113.89830508474576,40,112.88135593220339,40C111.86440677966102,40,110.84745762711864,40,109.83050847457628,40C108.8135593220339,40,107.79661016949153,40,106.77966101694915,40C105.76271186440678,40,104.7457627118644,40,103.72881355932203,40C102.71186440677965,40,101.69491525423729,40,100.6779661016949,40C99.66101694915254,40,98.64406779661016,40,97.62711864406779,40C96.61016949152543,40,95.59322033898306,40,94.57627118644069,40C93.55932203389831,40,92.54237288135593,40,91.52542372881355,40C90.50847457627118,40,89.49152542372882,40,88.47457627118645,40C87.45762711864407,40,86.4406779661017,40,85.42372881355932,40C84.40677966101696,40,83.38983050847457,40,82.37288135593221,40C81.35593220338983,40,80.33898305084746,40,79.32203389830508,40C78.30508474576271,40,77.28813559322033,40,76.27118644067797,40C75.2542372881356,40,74.23728813559322,40,73.22033898305085,40C72.20338983050848,40,71.1864406779661,40,70.16949152542374,40C69.15254237288136,40,68.13559322033899,40,67.11864406779661,40C66.10169491525424,40,65.08474576271186,40,64.0677966101695,40C63.05084745762712,40,62.03389830508474,40,61.01694915254237,40C59.99999999999999,40,58.983050847457626,40,57.96610169491525,40C56.94915254237288,40,55.93220338983051,40,54.91525423728814,40C53.898305084745765,40,52.88135593220339,40,51.86440677966102,40C50.847457627118644,40,49.83050847457627,40,48.813559322033896,40C47.79661016949152,40,46.77966101694915,40,45.762711864406775,40C44.7457627118644,40,43.728813559322035,40,42.71186440677966,40C41.69491525423729,40,40.67796610169491,40,39.66101694915254,40C38.644067796610166,40,37.6271186440678,40,36.610169491525426,40C35.59322033898305,40,34.57627118644068,40,33.559322033898304,40C32.54237288135593,40,31.525423728813557,40,30.508474576271183,40C29.491525423728813,40,28.47457627118644,40,27.45762711864407,40C26.440677966101696,40,25.423728813559322,40,24.406779661016948,40C23.389830508474574,40,22.372881355932204,40,21.35593220338983,40C20.338983050847457,40,19.322033898305087,40,18.305084745762713,40C17.28813559322034,40,16.271186440677965,40,15.254237288135592,40C14.23728813559322,40,13.220338983050846,40,12.203389830508474,40C11.186440677966102,40,10.169491525423728,40,9.152542372881356,40C8.135593220338983,40,7.11864406779661,40,6.101694915254237,40C5.084745762711864,40,4.067796610169491,40,3.0508474576271185,40C2.0338983050847457,40,1.0169491525423728,40,0,40Z"></path><path class="line" stroke="black" fill="none" d="M0,38.66273352999017C1.0169491525423728,38.72173058013766,2.0338983050847457,38.780727630285156,3.0508474576271185,38.780727630285156C4.067796610169491,38.780727630285156,5.084745762711864,38.780727630285156,6.101694915254237,38.780727630285156C7.11864406779661,38.780727630285156,8.135593220338983,38.82661422484431,9.152542372881356,38.859390363815145C10.169491525423728,38.892166502785976,11.186440677966102,38.911832186168475,12.203389830508474,38.97738446411013C13.220338983050846,39.042936742051786,14.23728813559322,39.226483120288435,15.254237288135592,39.25270403146509C16.271186440677965,39.27892494264175,17.28813559322034,39.265814487053426,18.305084745762713,39.292035398230084C19.322033898305087,39.31825630940674,20.338983050847457,39.64601769911504,21.35593220338983,39.64601769911504C22.372881355932204,39.64601769911504,23.389830508474574,39.64601769911504,24.406779661016948,39.64601769911504C25.423728813559322,39.64601769911504,26.440677966101696,40,27.45762711864407,40C28.47457627118644,40,29.491525423728813,39.98688954441167,30.508474576271183,39.960668633235C31.525423728813557,39.93444772205834,32.54237288135593,39.69845952146837,33.559322033898304,39.60668633235005C34.57627118644068,39.51491314323173,35.59322033898305,39.41002949852508,36.610169491525426,39.41002949852508C37.6271186440678,39.41002949852508,38.644067796610166,39.567354965585054,39.66101694915254,39.567354965585054C40.67796610169491,39.567354965585054,41.69491525423729,39.174041297935105,42.71186440677966,39.174041297935105C43.728813559322035,39.174041297935105,44.7457627118644,39.37069813176008,45.762711864406775,39.37069813176008C46.77966101694915,39.37069813176008,47.79661016949152,39.265814487053426,48.813559322033896,39.174041297935105C49.83050847457627,39.082268108816784,50.847457627118644,38.82005899705015,51.86440677966102,38.82005899705015C52.88135593220339,38.82005899705015,53.898305084745765,39.68534906588004,54.91525423728814,39.68534906588004C55.93220338983051,39.68534906588004,56.94915254237288,39.39691904293674,57.96610169491525,39.292035398230084C58.983050847457626,39.18715175352343,59.99999999999999,39.05604719764012,61.01694915254237,39.05604719764012C62.03389830508474,39.05604719764012,63.05084745762712,39.09537856440511,64.0677966101695,39.09537856440511C65.08474576271186,39.09537856440511,66.10169491525424,38.43985578498853,67.11864406779661,38.230088495575224C68.13559322033899,38.02032120616192,69.15254237288136,37.93510324483776,70.16949152542374,37.836774827925275C71.1864406779661,37.73844641101279,72.20338983050848,37.77122254998361,73.22033898305085,37.640117994100294C74.23728813559322,37.509013438216975,75.2542372881356,36.4863979023271,76.27118644067797,36.46017699115044C77.28813559322033,36.43395607997378,78.30508474576271,36.44706653556211,79.32203389830508,36.42084562438545C80.33898305084746,36.39462471320879,81.35593220338983,36.2569649295313,82.37288135593221,36.18485742379548C83.38983050847457,36.112749918059656,84.40677966101696,35.9882005899705,85.42372881355932,35.9882005899705C86.4406779661017,35.9882005899705,87.45762711864407,36.086529006882984,88.47457627118645,36.14552605703048C89.49152542372882,36.20452310717797,90.50847457627118,36.2962962962963,91.52542372881355,36.34218289085546C92.54237288135593,36.388069485414626,93.55932203389831,36.38806948541462,94.57627118644069,36.42084562438545C95.59322033898306,36.45362176335628,96.61016949152543,36.466732218944614,97.62711864406779,36.538839724680436C98.64406779661016,36.61094723041626,99.66101694915254,36.85349065880039,100.6779661016949,36.85349065880039C101.69491525423729,36.85349065880039,102.71186440677965,36.53228449688627,103.72881355932203,36.18485742379548C104.7457627118644,35.837430350704686,105.76271186440678,35.175352343493934,106.77966101694915,34.76892822025565C107.79661016949153,34.36250409701737,108.8135593220339,34.08062930186824,109.83050847457628,33.74631268436578C110.84745762711864,33.411996066863324,111.86440677966102,33.04490331039003,112.88135593220339,32.763028515240904C113.89830508474576,32.481153720091775,114.91525423728814,32.45493280891511,115.9322033898305,32.055063913470995C116.94915254237289,31.655195018026877,117.96610169491525,30.88167813831531,118.98305084745763,30.363815142576204C120,29.845952146837103,121.01694915254237,29.38708620124549,122.03389830508473,28.947885939036382C123.05084745762711,28.508685676827266,124.0677966101695,27.728613569321535,125.08474576271188,27.728613569321535C126.10169491525424,27.728613569321535,127.11864406779662,27.820386758439856,128.135593220339,28.003933136676498C129.15254237288136,28.18747951491314,130.16949152542372,29.459193706981317,131.1864406779661,29.459193706981317C132.20338983050846,29.459193706981317,133.22033898305085,28.947885939036382,134.23728813559322,28.71189773844641C135.25423728813558,28.475909537856438,136.27118644067798,28.48901999344477,137.28813559322035,28.043264503441492C138.3050847457627,27.597509013438213,139.3220338983051,25.84070796460177,140.33898305084747,25.84070796460177C141.35593220338984,25.84070796460177,142.3728813559322,27.682726974762385,143.38983050847457,29.262536873156343C144.40677966101694,30.842346771550314,145.42372881355934,35.319567354965585,146.4406779661017,35.319567354965585C147.45762711864407,35.319567354965585,148.47457627118644,35.21468371025893,149.4915254237288,35.004916420845625C150.50847457627117,34.79514913143232,151.52542372881356,33.71353654539496,152.54237288135593,33.23500491642085C153.5593220338983,32.75647328744674,154.5762711864407,32.23861029170764,155.59322033898306,32.133726647000984C156.61016949152543,32.02884300229433,157.6271186440678,31.976401179941007,158.64406779661016,31.976401179941007C159.66101694915253,31.976401179941007,160.67796610169492,33.31366764995083,161.6949152542373,33.31366764995083C162.71186440677965,33.31366764995083,163.72881355932205,28.77089478859391,164.74576271186442,26.705998033431662C165.76271186440678,24.64110127826943,166.77966101694915,22.228777450016388,167.79661016949152,20.924287118977386C168.81355932203388,19.61979678793837,169.83050847457628,19.4428056374959,170.84745762711864,18.87905604719764C171.864406779661,18.31530645689938,172.8813559322034,18.105539167486068,173.89830508474577,17.541789577187807C174.91525423728814,16.978039986889545,175.93220338983053,15.549000327761389,176.9491525423729,15.496558505408062C177.96610169491527,15.444116683054737,178.98305084745763,15.431006227466405,180,15.417895771878074"></path><path class="axis-ceiling" stroke-width="1" stroke="black" fill="none" d="M175,0L180,0"></path><text class="axis-ceiling-label" font-family="sans-serif" text-anchor="end" font-size="10px" x="170" y="2.5">1000</text></g></svg>