<svg xmlns="http://www.w3.org/2000/svg" viewBox="0 0 180 60"><g transform="translate(0,20)"><path class="area" fill="rgba(0, 0, 0, 0.2)" d="M0,19.64912280701754C1.0169491525423728,19.29824561403509,2.0338983050847457,18.947368421052634,3.0508474576271185,18.947368421052634C4.067796610169491,18.947368421052634,5.084745762711864,18.947368421052634,6.101694915254237,18.947368421052634C7.11864406779661,18.947368421052634,8.135593220338983,18.947368421052634,9.152542372881356,18.947368421052634C10.169491525423728,18.947368421052634,11.186440677966102,20.35087719298246,12.203389830508474,20.35087719298246C13.220338983050846,20.35087719298246,14.23728813559322,20.35087719298246,15.254237288135592,20.35087719298246C16.271186440677965,20.35087719298246,17.28813559322034,18.479532163742693,18.305084745762713,17.54385964912281C19.322033898305087,16.608187134502927,20.338983050847457,15.672514619883042,21.35593220338983,14.73684210526316C22.372881355932204,13.801169590643276,23.389830508474574,12.748538011695908,24.406779661016948,11.92982456140351C25.423728813559322,11.11111111111111,26.440677966101696,10.87719298245614,27.45762711864407,9.82456140350877C28.47457627118644,8.771929824561402,29.491525423728813,6.081871345029237,30.508474576271183,5.614035087719298C31.525423728813557,5.146198830409358,32.54237288135593,5.380116959064328,33.559322033898304,4.912280701754388C34.57627118644068,4.444444444444448,35.59322033898305,2.105263157894739,36.610169491525426,2.105263157894739C37.6271186440678,2.105263157894739,38.644067796610166,2.6900584795321683,39.66101694915254,3.5087719298245634C40.67796610169491,4.32748538011696,41.69491525423729,6.549707602339178,42.71186440677966,7.017543859649122C43.728813559322035,7.485380116959066,44.7457627118644,7.485380116959067,45.762711864406775,7.719298245614037C46.77966101694915,7.953216374269008,47.79661016949152,7.953216374269007,48.813559322033896,8.421052631578947C49.83050847457627,8.888888888888888,50.847457627118644,11.228070175438596,51.86440677966102,11.228070175438596C52.88135593220339,11.228070175438596,53.898305084745765,11.228070175438596,54.91525423728814,11.228070175438596C55.93220338983051,11.228070175438596,56.94915254237288,13.333333333333332,57.96610169491525,14.035087719298245C58.983050847457626,14.736842105263158,59.99999999999999,15.087719298245613,61.01694915254237,15.438596491228068C62.03389830508474,15.789473684210526,63.05084745762712,15.789473684210524,64.0677966101695,16.140350877192983C65.08474576271186,16.49122807017544,66.10169491525424,17.076023391812868,67.11864406779661,17.54385964912281C68.13559322033899,18.011695906432752,69.15254237288136,18.362573099415204,70.16949152542374,18.947368421052634C71.1864406779661,19.53216374269006,72.20338983050848,21.05263157894737,73.22033898305085,21.05263157894737C74.23728813559322,21.05263157894737,75.2542372881356,18.24561403508772,76.27118644067797,18.24561403508772C77.28813559322033,18.24561403508772,78.30508474576271,18.947368421052634,79.32203389830508,18.947368421052634C80.33898305084746,18.947368421052634,81.35593220338983,18.947368421052634,82.37288135593221,18.947368421052634C83.38983050847457,18.947368421052634,84.40677966101696,18.947368421052634,85.42372881355932,18.947368421052634C86.4406779661017,18.947368421052634,87.45762711864407,19.41520467836257,88.47457627118645,19.64912280701754C89.49152542372882,19.88304093567251,90.50847457627118,20.35087719298246,91.52542372881355,20.35087719298246C92.54237288135593,20.35087719298246,93.55932203389831,18.947368421052634,94.57627118644069,18.947368421052634C95.59322033898306,18.947368421052634,96.61016949152543,22.45614035087719,97.62711864406779,22.45614035087719C98.64406779661016,22.45614035087719,99.66101694915254,21.75438596491228,100.6779661016949,21.75438596491228C101.69491525423729,21.75438596491228,102.71186440677965,22.45614035087719,103.72881355932203,22.45614035087719C104.7457627118644,22.45614035087719,105.76271186440678,22.45614035087719,106.77966101694915,22.45614035087719C107.79661016949153,22.45614035087719,108.8135593220339,28.42105263157895,109.83050847457628,30.17543859649123C110.84745762711864,31.929824561403503,111.86440677966102,32.98245614035088,112.88135593220339,32.98245614035088C113.89830508474576,32.98245614035088,114.91525423728814,32.748538011695906,115.9322033898305,32.280701754385966C116.94915254237289,31.81286549707602,117.96610169491525,29.47368421052632,118.98305084745763,29.47368421052632C120,29.47368421052632,121.01694915254237,31.578947368421055,122.03389830508473,31.578947368421055C123.05084745762711,31.578947368421055,124.0677966101695,25.964912280701753,125.08474576271188,25.964912280701753C126.10169491525424,25.964912280701753,127.11864406779662,30.17543859649123,128.135593220339,30.17543859649123C129.15254237288136,30.17543859649123,130.16949152542372,22.45614035087719,131.1864406779661,22.45614035087719C132.20338983050846,22.45614035087719,133.22033898305085,32.280701754385966,134.23728813559322,32.280701754385966C135.25423728813558,32.280701754385966,136.27118644067798,28.771929824561404,137.28813559322035,28.771929824561404C138.3050847457627,28.771929824561404,139.3220338983051,30.877192982456137,140.33898305084747,30.877192982456137C141.35593220338984,30.877192982456137,142.3728813559322,28.07017543859649,143.38983050847457,28.07017543859649C144.40677966101694,28.07017543859649,145.42372881355934,40,146.4406779661017,40C147.45762711864407,40,148.47457627118644,35.08771929824562,149.4915254237288,35.08771929824562C150.50847457627117,35.08771929824562,151.52542372881356,35.78947368421053,152.54237288135593,35.78947368421053C153.5593220338983,35.78947368421053,154.5762711864407,23.157894736842106,155.59322033898306,23.157894736842106C156.61016949152543,23.157894736842106,157.6271186440678,26.66666666666667,158.64406779661016,26.66666666666667C159.66101694915253,26.66666666666667,160.67796610169492,26.66666666666667,161.6949152542373,26.66666666666667C162.71186440677965,26.66666666666667,163.72881355932205,26.198830409356727,164.74576271186442,25.263157894736842C165.76271186440678,24.327485380116965,166.77966101694915,15.438596491228068,167.79661016949152,15.438596491228068C168.81355932203388,15.438596491228068,169.83050847457628,16.140350877192983,170.84745762711864,16.140350877192983C171.864406779661,16.140350877192983,172.8813559322034,13.801169590643278,173.89830508474577,13.333333333333336C174.91525423728814,12.865497076023393,175.93220338983053,12.98245614035088,176.9491525423729,12.631578947368421C177.96610169491527,12.280701754385966,178.98305084745763,11.75438596491228,180,11.228070175438596L180,40C178.98305084745763,40,177.96610169491527,40,176.9491525423729,40C175.93220338983053,40,174.91525423728814,40,173.89830508474577,40C172.8813559322034,40,171.864406779661,40,170.84745762711864,40C169.83050847457628,40,168.81355932203388,40,167.79661016949152,40C166.77966101694915,40,165.76271186440678,40,164.74576271186442,40C163.72881355932205,40,162.71186440677965,40,161.6949152542373,40C160.67796610169492,40,159.66101694915253,40,158.64406779661016,40C157.6271186440678,40,156.61016949152543,40,155.59322033898306,40C154.5762711864407,40,153.5593220338983,40,152.54237288135593,40C151.52542372881356,40,150.50847457627117,40,149.4915254237288,40C148.47457627118644,40,147.45762711864407,40,146.4406779661017,40C145.42372881355934,40,144.40677966101694,40,143.38983050847457,40C142.3728813559322,40,141.35593220338984,40,140.33898305084747,40C139.3220338983051,40,138.3050847457627,40,137.28813559322035,40C136.27118644067798,40,135.25423728813558,40,134.23728813559322,40C133.22033898305085,40,132.20338983050846,40,131.1864406779661,40C130.16949152542372,40,129.15254237288136,40,128.135593220339,40C127.11864406779662,40,126.10169491525424,40,125.08474576271188,40C124.0677966101695,40,123.05084745762711,40,122.03389830508473,40C121.01694915254237,40,120,40,118.98305084745763,40C117.96610169491525,40,116.94915254237289,40,115.9322033898305,40C114.91525423728814,40,113.89830508474576,40,112.88135593220339,40C111.86440677966102,40,110.84745762711864,40,109.83050847457628,40C108.8135593220339,40,107.79661016949153,40,106.77966101694915,40C105.76271186440678,40,104.7457627118644,40,103.72881355932203,40C102.71186440677965,40,101.69491525423729,40,100.6779661016949,40C99.66101694915254,40,98.64406779661016,40,97.62711864406779,40C96.61016949152543,40,95.59322033898306,40,94.57627118644069,40C93.55932203389831,40,92.54237288135593,40,91.52542372881355,40C90.50847457627118,40,89.49152542372882,40,88.47457627118645,40C87.45762711864407,40,86.4406779661017,40,85.42372881355932,40C84.40677966101696,40,83.38983050847457,40,82.37288135593221,40C81.35593220338983,40,80.33898305084746,40,79.32203389830508,40C78.30508474576271,40,77.28813559322033,40,76.27118644067797,40C75.2542372881356,40,74.23728813559322,40,73.22033898305085,40C72.20338983050848,40,71.1864406779661,40,70.16949152542374,40C69.15254237288136,40,68.13559322033899,40,67.11864406779661,40C66.10169491525424,40,65.08474576271186,40,64.0677966101695,40C63.05084745762712,40,62.03389830508474,40,61.01694915254237,40C59.99999999999999,40,58.983050847457626,40,57.96610169491525,40C56.94915254237288,40,55.93220338983051,40,54.91525423728814,40C53.898305084745765,40,52.88135593220339,40,51.86440677966102,40C50.847457627118644,40,49.83050847457627,40,48.813559322033896,40C47.79661016949152,40,46.77966101694915,40,45.762711864406775,40C44.7457627118644,40,43.728813559322035,40,42.71186440677966,40C41.69491525423729,40,40.67796610169491,40,39.66101694915254,40C38.644067796610166,40,37.6271186440678,40,36.610169491525426,40C35.59322033898305,40,34.57627118644068,40,33.559322033898304,40C32.54237288135593,40,31.525423728813557,40,30.508474576271183,40C29.491525423728813,40,28.47457627118644,40,27.45762711864407,40C26.440677966101696,40,25.423728813559322,40,24.406779661016948,40C23.389830508474574,40,22.372881355932204,40,21.35593220338983,40C20.338983050847457,40,19.322033898305087,40,18.305084745762713,40C17.28813559322034,40,16.271186440677965,40,15.254237288135592,40C14.23728813559322,40,13.220338983050846,40,12.203389830508474,40C11.186440677966102,40,10.169491525423728,40,9.152542372881356,40C8.135593220338983,40,7.11864406779661,40,6.101694915254237,40C5.084745762711864,40,4.067796610169491,40,3.0508474576271185,40C2.0338983050847457,40,1.0169491525423728,40,0,40Z"></path><path class="line" stroke="black" fill="none" d="M0,19.64912280701754C1.0169491525423728,19.29824561403509,2.0338983050847457,18.947368421052634,3.0508474576271185,18.947368421052634C4.067796610169491,18.947368421052634,5.084745762711864,18.947368421052634,6.101694915254237,18.947368421052634C7.11864406779661,18.947368421052634,8.135593220338983,18.947368421052634,9.152542372881356,18.947368421052634C10.169491525423728,18.947368421052634,11.186440677966102,20.35087719298246,12.203389830508474,20.35087719298246C13.220338983050846,20.35087719298246,14.23728813559322,20.35087719298246,15.254237288135592,20.35087719298246C16.271186440677965,20.35087719298246,17.28813559322034,18.479532163742693,18.305084745762713,17.54385964912281C19.322033898305087,16.608187134502927,20.338983050847457,15.672514619883042,21.35593220338983,14.73684210526316C22.372881355932204,13.801169590643276,23.389830508474574,12.748538011695908,24.406779661016948,11.92982456140351C25.423728813559322,11.11111111111111,26.440677966101696,10.87719298245614,27.45762711864407,9.82456140350877C28.47457627118644,8.771929824561402,29.491525423728813,6.081871345029237,30.508474576271183,5.614035087719298C31.525423728813557,5.146198830409358,32.54237288135593,5.380116959064328,33.559322033898304,4.912280701754388C34.57627118644068,4.444444444444448,35.59322033898305,2.105263157894739,36.610169491525426,2.105263157894739C37.6271186440678,2.105263157894739,38.644067796610166,2.6900584795321683,39.66101694915254,3.5087719298245634C40.67796610169491,4.32748538011696,41.69491525423729,6.549707602339178,42.71186440677966,7.017543859649122C43.728813559322035,7.485380116959066,44.7457627118644,7.485380116959067,45.762711864406775,7.719298245614037C46.77966101694915,7.953216374269008,47.79661016949152,7.953216374269007,48.813559322033896,8.421052631578947C49.83050847457627,8.888888888888888,50.847457627118644,11.228070175438596,51.86440677966102,11.228070175438596C52.88135593220339,11.228070175438596,53.898305084745765,11.228070175438596,54.91525423728814,11.228070175438596C55.93220338983051,11.228070175438596,56.94915254237288,13.333333333333332,57.96610169491525,14.035087719298245C58.983050847457626,14.736842105263158,59.99999999999999,15.087719298245613,61.01694915254237,15.438596491228068C62.03389830508474,15.789473684210526,63.05084745762712,15.789473684210524,64.0677966101695,16.140350877192983C65.08474576271186,16.49122807017544,66.10169491525424,17.076023391812868,67.11864406779661,17.54385964912281C68.13559322033899,18.011695906432752,69.15254237288136,18.362573099415204,70.16949152542374,18.947368421052634C71.1864406779661,19.53216374269006,72.20338983050848,21.05263157894737,73.22033898305085,21.05263157894737C74.23728813559322,21.05263157894737,75.2542372881356,18.24561403508772,76.27118644067797,18.24561403508772C77.28813559322033,18.24561403508772,78.30508474576271,18.947368421052634,79.32203389830508,18.947368421052634C80.33898305084746,18.947368421052634,81.35593220338983,18.947368421052634,82.37288135593221,18.947368421052634C83.38983050847457,18.947368421052634,84.40677966101696,18.947368421052634,85.42372881355932,18.947368421052634C86.4406779661017,18.947368421052634,87.45762711864407,19.41520467836257,88.47457627118645,19.64912280701754C89.49152542372882,19.88304093567251,90.50847457627118,20.35087719298246,91.52542372881355,20.35087719298246C92.54237288135593,20.35087719298246,93.55932203389831,18.947368421052634,94.57627118644069,18.947368421052634C95.59322033898306,18.947368421052634,96.61016949152543,22.45614035087719,97.62711864406779,22.45614035087719C98.64406779661016,22.45614035087719,99.66101694915254,21.75438596491228,100.6779661016949,21.75438596491228C101.69491525423729,21.75438596491228,102.71186440677965,22.45614035087719,103.72881355932203,22.45614035087719C104.7457627118644,22.45614035087719,105.76271186440678,22.45614035087719,106.77966101694915,22.45614035087719C107.79661016949153,22.45614035087719,108.8135593220339,28.42105263157895,109.83050847457628,30.17543859649123C110.84745762711864,31.929824561403503,111.86440677966102,32.98245614035088,112.88135593220339,32.98245614035088C113.89830508474576,32.98245614035088,114.91525423728814,32.748538011695906,115.9322033898305,32.280701754385966C116.94915254237289,31.81286549707602,117.96610169491525,29.47368421052632,118.98305084745763,29.47368421052632C120,29.47368421052632,121.01694915254237,31.578947368421055,122.03389830508473,31.578947368421055C123.05084745762711,31.578947368421055,124.0677966101695,25.964912280701753,125.08474576271188,25.964912280701753C126.10169491525424,25.964912280701753,127.11864406779662,30.17543859649123,128.135593220339,30.17543859649123C129.15254237288136,30.17543859649123,130.16949152542372,22.45614035087719,131.1864406779661,22.45614035087719C132.20338983050846,22.45614035087719,133.22033898305085,32.280701754385966,134.23728813559322,32.280701754385966C135.25423728813558,32.280701754385966,136.27118644067798,28.771929824561404,137.28813559322035,28.771929824561404C138.3050847457627,28.771929824561404,139.3220338983051,30.877192982456137,140.33898305084747,30.877192982456137C141.35593220338984,30.877192982456137,142.3728813559322,28.07017543859649,143.38983050847457,28.07017543859649C144.40677966101694,28.07017543859649,145.42372881355934,40,146.4406779661017,40C147.45762711864407,40,148.47457627118644,35.08771929824562,149.4915254237288,35.08771929824562C150.50847457627117,35.08771929824562,151.52542372881356,35.78947368421053,152.54237288135593,35.78947368421053C153.5593220338983,35.78947368421053,154.5762711864407,23.157894736842106,155.59322033898306,23.157894736842106C156.61016949152543,23.157894736842106,157.6271186440678,26.66666666666667,158.64406779661016,26.66666666666667C159.66101694915253,26.66666666666667,160.67796610169492,26.66666666666667,161.6949152542373,26.66666666666667C162.71186440677965,26.66666666666667,163.72881355932205,26.198830409356727,164.74576271186442,25.263157894736842C165.76271186440678,24.327485380116965,166.77966101694915,15.438596491228068,167.79661016949152,15.438596491228068C168.81355932203388,15.438596491228068,169.83050847457628,16.140350877192983,170.84745762711864,16.140350877192983C171.864406779661,16.140350877192983,172.8813559322034,13.801169590643278,173.89830508474577,13.333333333333336C174.91525423728814,12.865497076023393,175.93220338983053,12.98245614035088,176.9491525423729,12.631578947368421C177.96610169491527,12.280701754385966,178.98305084745763,11.75438596491228,180,11.228070175438596"></path><path class="axis-ceiling" stroke-width="1" stroke="black" fill="none" d="M175,0L180,0"></path><text class="axis-ceiling-label" font-family="sans-serif" text-anchor="end" font-size="10px" x="170" y="2.5">35</text></g></svg>