<svg xmlns="http://www.w3.org/2000/svg" viewBox="0 0 180 60"><g transform="translate(0,20)"><path class="area" fill="rgba(0, 0, 0, 0.2)" d="M0,39.68C1.8181818181818183,39.66,3.6363636363636367,39.64,5.454545454545455,39.64C6.363636363636364,39.64,7.2727272727272725,39.64,8.181818181818182,39.64C9.090909090909092,39.64,10,39.61555555555556,10.90909090909091,39.6C12.727272727272728,39.56888888888889,14.545454545454545,39.54666666666666,16.363636363636363,39.48C17.272727272727273,39.446666666666665,18.18181818181818,39.39333333333333,19.09090909090909,39.36C20,39.32666666666667,20.90909090909091,39.306666666666665,21.81818181818182,39.28C22.727272727272727,39.25333333333334,23.636363636363637,39.220000000000006,24.545454545454543,39.2C28.18181818181818,39.12,31.818181818181817,39.14666666666666,35.45454545454545,39.08C37.27272727272727,39.04666666666667,39.090909090909086,39.02666666666667,40.90909090909091,38.96C41.81818181818182,38.92666666666667,42.72727272727273,38.87333333333333,43.63636363636364,38.839999999999996C44.54545454545455,38.806666666666665,45.45454545454545,38.78666666666666,46.36363636363636,38.76C47.272727272727266,38.733333333333334,48.18181818181818,38.70666666666666,49.090909090909086,38.68C50,38.653333333333336,50.90909090909091,38.62666666666667,51.81818181818182,38.6C52.72727272727273,38.57333333333334,53.63636363636364,38.544444444444444,54.54545454545455,38.519999999999996C56.36363636363637,38.47111111111111,58.18181818181818,38.48,60,38.4C60.909090909090914,38.36,61.81818181818182,38.3,62.727272727272734,38.239999999999995C63.63636363636364,38.17999999999999,64.54545454545455,38.12,65.45454545454545,38.04C66.36363636363636,37.96,67.27272727272728,37.86,68.18181818181819,37.76C69.0909090909091,37.66,70,37.55333333333333,70.9090909090909,37.44C71.81818181818181,37.32666666666666,72.72727272727273,37.19333333333333,73.63636363636364,37.08C74.54545454545455,36.96666666666667,75.45454545454545,36.86000000000001,76.36363636363636,36.760000000000005C77.27272727272727,36.660000000000004,78.18181818181819,36.56666666666667,79.0909090909091,36.480000000000004C80,36.39333333333334,80.9090909090909,36.35333333333334,81.81818181818181,36.24C82.72727272727272,36.126666666666665,83.63636363636364,35.96666666666666,84.54545454545455,35.8C85.45454545454545,35.63333333333333,86.36363636363637,35.46,87.27272727272728,35.24C88.18181818181819,35.02,89.0909090909091,34.74666666666666,90,34.48C90.9090909090909,34.21333333333333,91.81818181818181,33.96,92.72727272727272,33.64C93.63636363636363,33.32,94.54545454545455,32.92666666666667,95.45454545454545,32.56C96.36363636363636,32.193333333333335,97.27272727272727,31.84,98.18181818181817,31.44C99.09090909090908,31.04,100,30.573333333333334,100.9090909090909,30.16C101.81818181818181,29.746666666666666,102.72727272727273,29.333333333333336,103.63636363636364,28.96C104.54545454545455,28.586666666666666,105.45454545454547,28.253333333333334,106.36363636363637,27.919999999999998C107.27272727272728,27.586666666666666,108.18181818181819,27.279999999999998,109.0909090909091,26.959999999999997C110,26.639999999999997,110.9090909090909,26.293333333333333,111.81818181818181,26C112.72727272727272,25.706666666666667,113.63636363636364,25.46,114.54545454545455,25.2C115.45454545454545,24.94,116.36363636363636,24.666666666666664,117.27272727272727,24.439999999999998C118.18181818181817,24.21333333333333,119.0909090909091,24.03333333333333,120,23.84C120.9090909090909,23.64666666666667,121.81818181818181,23.453333333333333,122.72727272727272,23.28C123.63636363636364,23.10666666666667,124.54545454545455,22.95333333333334,125.45454545454547,22.800000000000004C126.36363636363637,22.646666666666672,127.27272727272728,22.486666666666668,128.1818181818182,22.36C129.0909090909091,22.23333333333333,130,22.126666666666665,130.9090909090909,22.04C131.8181818181818,21.953333333333333,132.72727272727272,21.94,133.63636363636363,21.840000000000003C134.54545454545453,21.740000000000002,135.45454545454547,21.56666666666667,136.36363636363637,21.44C137.27272727272728,21.313333333333336,138.1818181818182,21.193333333333335,139.0909090909091,21.080000000000002C140,20.96666666666667,140.9090909090909,20.866666666666667,141.8181818181818,20.76C142.72727272727272,20.653333333333336,143.63636363636363,20.546666666666667,144.54545454545453,20.44C145.45454545454544,20.333333333333336,146.36363636363637,20.220000000000002,147.27272727272728,20.12C148.1818181818182,20.020000000000003,149.0909090909091,19.94,150,19.84C150.9090909090909,19.74,151.8181818181818,19.599999999999998,152.72727272727272,19.52C153.63636363636363,19.439999999999998,154.54545454545456,19.413333333333334,155.45454545454547,19.36C156.36363636363637,19.306666666666665,157.27272727272728,19.253333333333334,158.1818181818182,19.2C159.0909090909091,19.146666666666665,160,19.086666666666666,160.9090909090909,19.04C161.8181818181818,18.993333333333332,162.72727272727272,18.919999999999998,163.63636363636363,18.919999999999998C164.54545454545453,18.919999999999998,165.45454545454544,19.073333333333334,166.36363636363635,19.2C167.27272727272725,19.326666666666668,168.1818181818182,19.53333333333333,169.0909090909091,19.68C170,19.826666666666664,170.9090909090909,19.973333333333333,171.8181818181818,20.08C172.72727272727272,20.186666666666667,173.63636363636365,20.21333333333333,174.54545454545456,20.32C175.45454545454547,20.426666666666666,176.36363636363637,20.69333333333333,177.27272727272728,20.72C178.1818181818182,20.746666666666666,179.0909090909091,20.753333333333334,180,20.76L180,40C179.0909090909091,40,178.1818181818182,40,177.27272727272728,40C176.36363636363637,40,175.45454545454547,40,174.54545454545456,40C173.63636363636365,40,172.72727272727272,40,171.8181818181818,40C170.9090909090909,40,170,40,169.0909090909091,40C168.1818181818182,40,167.27272727272725,40,166.36363636363635,40C165.45454545454544,40,164.54545454545453,40,163.63636363636363,40C162.72727272727272,40,161.8181818181818,40,160.9090909090909,40C160,40,159.0909090909091,40,158.1818181818182,40C157.27272727272728,40,156.36363636363637,40,155.45454545454547,40C154.54545454545456,40,153.63636363636363,40,152.72727272727272,40C151.8181818181818,40,150.9090909090909,40,150,40C149.0909090909091,40,148.1818181818182,40,147.27272727272728,40C146.36363636363637,40,145.45454545454544,40,144.54545454545453,40C143.63636363636363,40,142.72727272727272,40,141.8181818181818,40C140.9090909090909,40,140,40,139.0909090909091,40C138.1818181818182,40,137.27272727272728,40,136.36363636363637,40C135.45454545454547,40,134.54545454545453,40,133.63636363636363,40C132.72727272727272,40,131.8181818181818,40,130.9090909090909,40C130,40,129.0909090909091,40,128.1818181818182,40C127.27272727272728,40,126.36363636363637,40,125.45454545454547,40C124.54545454545455,40,123.63636363636364,40,122.72727272727272,40C121.81818181818181,40,120.9090909090909,40,120,40C119.0909090909091,40,118.18181818181817,40,117.27272727272727,40C116.36363636363636,40,115.45454545454545,40,114.54545454545455,40C113.63636363636364,40,112.72727272727272,40,111.81818181818181,40C110.9090909090909,40,110,40,109.0909090909091,40C108.18181818181819,40,107.27272727272728,40,106.36363636363637,40C105.45454545454547,40,104.54545454545455,40,103.63636363636364,40C102.72727272727273,40,101.81818181818181,40,100.9090909090909,40C100,40,99.09090909090908,40,98.18181818181817,40C97.27272727272727,40,96.36363636363636,40,95.45454545454545,40C94.54545454545455,40,93.63636363636363,40,92.72727272727272,40C91.81818181818181,40,90.9090909090909,40,90,40C89.0909090909091,40,88.18181818181819,40,87.27272727272728,40C86.36363636363637,40,85.45454545454545,40,84.54545454545455,40C83.63636363636364,40,82.72727272727272,40,81.81818181818181,40C80.9090909090909,40,80,40,79.0909090909091,40C78.18181818181819,40,77.27272727272727,40,76.36363636363636,40C75.45454545454545,40,74.54545454545455,40,73.63636363636364,40C72.72727272727273,40,71.81818181818181,40,70.9090909090909,40C70,40,69.0909090909091,40,68.18181818181819,40C67.27272727272728,40,66.36363636363636,40,65.45454545454545,40C64.54545454545455,40,63.63636363636364,40,62.727272727272734,40C61.81818181818182,40,60.909090909090914,40,60,40C58.18181818181818,40,56.36363636363637,40,54.54545454545455,40C53.63636363636364,40,52.72727272727273,40,51.81818181818182,40C50.90909090909091,40,50,40,49.090909090909086,40C48.18181818181818,40,47.272727272727266,40,46.36363636363636,40C45.45454545454545,40,44.54545454545455,40,43.63636363636364,40C42.72727272727273,40,41.81818181818182,40,40.90909090909091,40C39.090909090909086,40,37.27272727272727,40,35.45454545454545,40C31.818181818181817,40,28.18181818181818,40,24.545454545454543,40C23.636363636363637,40,22.727272727272727,40,21.81818181818182,40C20.90909090909091,40,20,40,19.09090909090909,40C18.18181818181818,40,17.272727272727273,40,16.363636363636363,40C14.545454545454545,40,12.727272727272728,40,10.90909090909091,40C10,40,9.090909090909092,40,8.181818181818182,40C7.2727272727272725,40,6.363636363636364,40,5.454545454545455,40C3.6363636363636367,40,1.8181818181818183,40,0,40Z"></path><path class="line" stroke="black" fill="none" d="M0,39.68C1.8181818181818183,39.66,3.6363636363636367,39.64,5.454545454545455,39.64C6.363636363636364,39.64,7.2727272727272725,39.64,8.181818181818182,39.64C9.090909090909092,39.64,10,39.61555555555556,10.90909090909091,39.6C12.727272727272728,39.56888888888889,14.545454545454545,39.54666666666666,16.363636363636363,39.48C17.272727272727273,39.446666666666665,18.18181818181818,39.39333333333333,19.09090909090909,39.36C20,39.32666666666667,20.90909090909091,39.306666666666665,21.81818181818182,39.28C22.727272727272727,39.25333333333334,23.636363636363637,39.220000000000006,24.545454545454543,39.2C28.18181818181818,39.12,31.818181818181817,39.14666666666666,35.45454545454545,39.08C37.27272727272727,39.04666666666667,39.090909090909086,39.02666666666667,40.90909090909091,38.96C41.81818181818182,38.92666666666667,42.72727272727273,38.87333333333333,43.63636363636364,38.839999999999996C44.54545454545455,38.806666666666665,45.45454545454545,38.78666666666666,46.36363636363636,38.76C47.272727272727266,38.733333333333334,48.18181818181818,38.70666666666666,49.090909090909086,38.68C50,38.653333333333336,50.90909090909091,38.62666666666667,51.81818181818182,38.6C52.72727272727273,38.57333333333334,53.63636363636364,38.544444444444444,54.54545454545455,38.519999999999996C56.36363636363637,38.47111111111111,58.18181818181818,38.48,60,38.4C60.909090909090914,38.36,61.81818181818182,38.3,62.727272727272734,38.239999999999995C63.63636363636364,38.17999999999999,64.54545454545455,38.12,65.45454545454545,38.04C66.36363636363636,37.96,67.27272727272728,37.86,68.18181818181819,37.76C69.0909090909091,37.66,70,37.55333333333333,70.9090909090909,37.44C71.81818181818181,37.32666666666666,72.72727272727273,37.19333333333333,73.63636363636364,37.08C74.54545454545455,36.96666666666667,75.45454545454545,36.86000000000001,76.36363636363636,36.760000000000005C77.27272727272727,36.660000000000004,78.18181818181819,36.56666666666667,79.0909090909091,36.480000000000004C80,36.39333333333334,80.9090909090909,36.35333333333334,81.81818181818181,36.24C82.72727272727272,36.126666666666665,83.63636363636364,35.96666666666666,84.54545454545455,35.8C85.45454545454545,35.63333333333333,86.36363636363637,35.46,87.27272727272728,35.24C88.18181818181819,35.02,89.0909090909091,34.74666666666666,90,34.48C90.9090909090909,34.21333333333333,91.81818181818181,33.96,92.72727272727272,33.64C93.63636363636363,33.32,94.54545454545455,32.92666666666667,95.45454545454545,32.56C96.36363636363636,32.193333333333335,97.27272727272727,31.84,98.18181818181817,31.44C99.09090909090908,31.04,100,30.573333333333334,100.9090909090909,30.16C101.81818181818181,29.746666666666666,102.72727272727273,29.333333333333336,103.63636363636364,28.96C104.54545454545455,28.586666666666666,105.45454545454547,28.253333333333334,106.36363636363637,27.919999999999998C107.27272727272728,27.586666666666666,108.18181818181819,27.279999999999998,109.0909090909091,26.959999999999997C110,26.639999999999997,110.9090909090909,26.293333333333333,111.81818181818181,26C112.72727272727272,25.706666666666667,113.63636363636364,25.46,114.54545454545455,25.2C115.45454545454545,24.94,116.36363636363636,24.666666666666664,117.27272727272727,24.439999999999998C118.18181818181817,24.21333333333333,119.0909090909091,24.03333333333333,120,23.84C120.9090909090909,23.64666666666667,121.81818181818181,23.453333333333333,122.72727272727272,23.28C123.63636363636364,23.10666666666667,124.54545454545455,22.95333333333334,125.45454545454547,22.800000000000004C126.36363636363637,22.646666666666672,127.27272727272728,22.486666666666668,128.1818181818182,22.36C129.0909090909091,22.23333333333333,130,22.126666666666665,130.9090909090909,22.04C131.8181818181818,21.953333333333333,132.72727272727272,21.94,133.63636363636363,21.840000000000003C134.54545454545453,21.740000000000002,135.45454545454547,21.56666666666667,136.36363636363637,21.44C137.27272727272728,21.313333333333336,138.1818181818182,21.193333333333335,139.0909090909091,21.080000000000002C140,20.96666666666667,140.9090909090909,20.866666666666667,141.8181818181818,20.76C142.72727272727272,20.653333333333336,143.63636363636363,20.546666666666667,144.54545454545453,20.44C145.45454545454544,20.333333333333336,146.36363636363637,20.220000000000002,147.27272727272728,20.12C148.1818181818182,20.020000000000003,149.0909090909091,19.94,150,19.84C150.9090909090909,19.74,151.8181818181818,19.599999999999998,152.72727272727272,19.52C153.63636363636363,19.439999999999998,154.54545454545456,19.413333333333334,155.45454545454547,19.36C156.36363636363637,19.306666666666665,157.27272727272728,19.253333333333334,158.1818181818182,19.2C159.0909090909091,19.146666666666665,160,19.086666666666666,160.9090909090909,19.04C161.8181818181818,18.993333333333332,162.72727272727272,18.919999999999998,163.63636363636363,18.919999999999998C164.54545454545453,18.919999999999998,165.45454545454544,19.073333333333334,166.36363636363635,19.2C167.27272727272725,19.326666666666668,168.1818181818182,19.53333333333333,169.0909090909091,19.68C170,19.826666666666664,170.9090909090909,19.973333333333333,171.8181818181818,20.08C172.72727272727272,20.186666666666667,173.63636363636365,20.21333333333333,174.54545454545456,20.32C175.45454545454547,20.426666666666666,176.36363636363637,20.69333333333333,177.27272727272728,20.72C178.1818181818182,20.746666666666666,179.0909090909091,20.753333333333334,180,20.76"></path><path class="axis-ceiling" stroke-width="1" stroke="black" fill="none" d="M175,0L180,0"></path><text class="axis-ceiling-label" font-family="sans-serif" text-anchor="end" font-size="10px" x="170" y="2.5">1000</text></g></svg>