<svg xmlns="http://www.w3.org/2000/svg" viewBox="0 0 180 60"><g transform="translate(0,20)"><path class="area" fill="rgba(0, 0, 0, 0.2)" d="M0,39.6C1.846153846153846,39.57333333333333,3.6923076923076925,39.54666666666666,5.538461538461538,39.48C6.461538461538462,39.446666666666665,7.384615384615385,39.39333333333333,8.307692307692308,39.36C9.230769230769232,39.32666666666667,10.153846153846153,39.306666666666665,11.076923076923077,39.28C12,39.25333333333334,12.923076923076923,39.220000000000006,13.846153846153847,39.2C17.53846153846154,39.12,21.23076923076923,39.14666666666666,24.923076923076923,39.08C26.76923076923077,39.04666666666667,28.615384615384617,39.02666666666667,30.461538461538463,38.96C31.384615384615387,38.92666666666667,32.30769230769231,38.87333333333333,33.23076923076923,38.839999999999996C34.15384615384615,38.806666666666665,35.07692307692308,38.78666666666666,36,38.76C36.92307692307693,38.733333333333334,37.84615384615385,38.70666666666666,38.769230769230774,38.68C39.69230769230769,38.653333333333336,40.61538461538462,38.626666666666665,41.53846153846154,38.6C42.46153846153846,38.57333333333334,43.38461538461539,38.544444444444444,44.30769230769231,38.519999999999996C46.15384615384615,38.47111111111111,48,38.48,49.84615384615385,38.4C50.769230769230774,38.36,51.69230769230769,38.3,52.61538461538462,38.239999999999995C53.53846153846154,38.17999999999999,54.46153846153847,38.12,55.38461538461539,38.04C56.307692307692314,37.96,57.23076923076923,37.86,58.15384615384616,37.76C59.07692307692308,37.66,60.00000000000001,37.55333333333333,60.92307692307693,37.44C61.84615384615385,37.32666666666667,62.769230769230774,37.19333333333333,63.69230769230769,37.08C64.61538461538461,36.96666666666667,65.53846153846155,36.86000000000001,66.46153846153847,36.760000000000005C67.38461538461539,36.660000000000004,68.30769230769232,36.56666666666667,69.23076923076924,36.480000000000004C70.15384615384616,36.39333333333334,71.07692307692308,36.35333333333334,72,36.24C72.92307692307692,36.126666666666665,73.84615384615385,35.96666666666666,74.76923076923077,35.8C75.6923076923077,35.63333333333333,76.61538461538463,35.46,77.53846153846155,35.24C78.46153846153847,35.02,79.38461538461539,34.74666666666666,80.3076923076923,34.48C81.23076923076923,34.21333333333333,82.15384615384616,33.96,83.07692307692308,33.64C84,33.32,84.92307692307693,32.93333333333334,85.84615384615385,32.56C86.76923076923077,32.18666666666667,87.6923076923077,31.80666666666667,88.61538461538461,31.400000000000002C89.53846153846153,30.993333333333336,90.46153846153847,30.533333333333335,91.38461538461539,30.12C92.3076923076923,29.706666666666667,93.23076923076924,29.293333333333333,94.15384615384616,28.919999999999998C95.07692307692308,28.546666666666667,96,28.213333333333335,96.92307692307692,27.880000000000003C97.84615384615384,27.54666666666667,98.76923076923077,27.240000000000002,99.6923076923077,26.92C100.61538461538461,26.6,101.53846153846153,26.253333333333334,102.46153846153845,25.96C103.38461538461539,25.666666666666664,104.3076923076923,25.42,105.23076923076924,25.16C106.15384615384616,24.900000000000002,107.07692307692308,24.626666666666665,108,24.4C108.92307692307692,24.173333333333332,109.84615384615385,23.993333333333332,110.76923076923077,23.799999999999997C111.6923076923077,23.606666666666666,112.61538461538461,23.41333333333333,113.53846153846153,23.24C114.46153846153847,23.066666666666663,115.38461538461539,22.91333333333333,116.30769230769232,22.759999999999998C117.23076923076924,22.606666666666666,118.15384615384616,22.446666666666665,119.07692307692308,22.32C120,22.193333333333335,120.92307692307693,22.086666666666666,121.84615384615385,22C122.76923076923077,21.913333333333334,123.6923076923077,21.9,124.61538461538461,21.799999999999997C125.53846153846153,21.699999999999996,126.46153846153847,21.526666666666664,127.38461538461539,21.4C128.30769230769232,21.273333333333333,129.23076923076923,21.153333333333332,130.15384615384616,21.04C131.0769230769231,20.926666666666666,132,20.826666666666664,132.92307692307693,20.72C133.84615384615384,20.613333333333333,134.76923076923077,20.506666666666664,135.69230769230768,20.4C136.6153846153846,20.29333333333333,137.53846153846155,20.18,138.46153846153848,20.08C139.3846153846154,19.98,140.30769230769232,19.9,141.23076923076923,19.8C142.15384615384616,19.7,143.07692307692307,19.560000000000002,144,19.48C144.92307692307693,19.4,145.84615384615384,19.373333333333335,146.76923076923077,19.32C147.6923076923077,19.266666666666666,148.6153846153846,19.213333333333335,149.53846153846155,19.16C150.46153846153845,19.106666666666666,151.3846153846154,19.046666666666667,152.3076923076923,19C153.23076923076923,18.953333333333333,154.15384615384616,18.88,155.0769230769231,18.88C156,18.88,156.92307692307693,19.033333333333335,157.84615384615384,19.16C158.76923076923077,19.28666666666667,159.69230769230768,19.493333333333332,160.6153846153846,19.64C161.53846153846155,19.78666666666667,162.46153846153845,19.933333333333334,163.3846153846154,20.04C164.30769230769232,20.146666666666665,165.23076923076923,20.173333333333336,166.15384615384616,20.28C167.0769230769231,20.386666666666667,168,20.653333333333332,168.92307692307693,20.68C169.84615384615387,20.706666666666667,170.76923076923077,20.69333333333333,171.6923076923077,20.72C172.6153846153846,20.746666666666666,173.53846153846155,21.04,174.46153846153845,21.04C175.3846153846154,21.04,176.3076923076923,20.92,177.23076923076923,20.92C178.15384615384616,20.92,179.07692307692307,21.119999999999997,180,21.319999999999997L180,40C179.07692307692307,40,178.15384615384616,40,177.23076923076923,40C176.3076923076923,40,175.3846153846154,40,174.46153846153845,40C173.53846153846155,40,172.6153846153846,40,171.6923076923077,40C170.76923076923077,40,169.84615384615387,40,168.92307692307693,40C168,40,167.0769230769231,40,166.15384615384616,40C165.23076923076923,40,164.30769230769232,40,163.3846153846154,40C162.46153846153845,40,161.53846153846155,40,160.6153846153846,40C159.69230769230768,40,158.76923076923077,40,157.84615384615384,40C156.92307692307693,40,156,40,155.0769230769231,40C154.15384615384616,40,153.23076923076923,40,152.3076923076923,40C151.3846153846154,40,150.46153846153845,40,149.53846153846155,40C148.6153846153846,40,147.6923076923077,40,146.76923076923077,40C145.84615384615384,40,144.92307692307693,40,144,40C143.07692307692307,40,142.15384615384616,40,141.23076923076923,40C140.30769230769232,40,139.3846153846154,40,138.46153846153848,40C137.53846153846155,40,136.6153846153846,40,135.69230769230768,40C134.76923076923077,40,133.84615384615384,40,132.92307692307693,40C132,40,131.0769230769231,40,130.15384615384616,40C129.23076923076923,40,128.30769230769232,40,127.38461538461539,40C126.46153846153847,40,125.53846153846153,40,124.61538461538461,40C123.6923076923077,40,122.76923076923077,40,121.84615384615385,40C120.92307692307693,40,120,40,119.07692307692308,40C118.15384615384616,40,117.23076923076924,40,116.30769230769232,40C115.38461538461539,40,114.46153846153847,40,113.53846153846153,40C112.61538461538461,40,111.6923076923077,40,110.76923076923077,40C109.84615384615385,40,108.92307692307692,40,108,40C107.07692307692308,40,106.15384615384616,40,105.23076923076924,40C104.3076923076923,40,103.38461538461539,40,102.46153846153845,40C101.53846153846153,40,100.61538461538461,40,99.6923076923077,40C98.76923076923077,40,97.84615384615384,40,96.92307692307692,40C96,40,95.07692307692308,40,94.15384615384616,40C93.23076923076924,40,92.3076923076923,40,91.38461538461539,40C90.46153846153847,40,89.53846153846153,40,88.61538461538461,40C87.6923076923077,40,86.76923076923077,40,85.84615384615385,40C84.92307692307693,40,84,40,83.07692307692308,40C82.15384615384616,40,81.23076923076923,40,80.3076923076923,40C79.38461538461539,40,78.46153846153847,40,77.53846153846155,40C76.61538461538463,40,75.6923076923077,40,74.76923076923077,40C73.84615384615385,40,72.92307692307692,40,72,40C71.07692307692308,40,70.15384615384616,40,69.23076923076924,40C68.30769230769232,40,67.38461538461539,40,66.46153846153847,40C65.53846153846155,40,64.61538461538461,40,63.69230769230769,40C62.769230769230774,40,61.84615384615385,40,60.92307692307693,40C60.00000000000001,40,59.07692307692308,40,58.15384615384616,40C57.23076923076923,40,56.307692307692314,40,55.38461538461539,40C54.46153846153847,40,53.53846153846154,40,52.61538461538462,40C51.69230769230769,40,50.769230769230774,40,49.84615384615385,40C48,40,46.15384615384615,40,44.30769230769231,40C43.38461538461539,40,42.46153846153846,40,41.53846153846154,40C40.61538461538462,40,39.69230769230769,40,38.769230769230774,40C37.84615384615385,40,36.92307692307693,40,36,40C35.07692307692308,40,34.15384615384615,40,33.23076923076923,40C32.30769230769231,40,31.384615384615387,40,30.461538461538463,40C28.615384615384617,40,26.76923076923077,40,24.923076923076923,40C21.23076923076923,40,17.53846153846154,40,13.846153846153847,40C12.923076923076923,40,12,40,11.076923076923077,40C10.153846153846153,40,9.230769230769232,40,8.307692307692308,40C7.384615384615385,40,6.461538461538462,40,5.538461538461538,40C3.6923076923076925,40,1.846153846153846,40,0,40Z"></path><path class="line" stroke="black" fill="none" d="M0,39.6C1.846153846153846,39.57333333333333,3.6923076923076925,39.54666666666666,5.538461538461538,39.48C6.461538461538462,39.446666666666665,7.384615384615385,39.39333333333333,8.307692307692308,39.36C9.230769230769232,39.32666666666667,10.153846153846153,39.306666666666665,11.076923076923077,39.28C12,39.25333333333334,12.923076923076923,39.220000000000006,13.846153846153847,39.2C17.53846153846154,39.12,21.23076923076923,39.14666666666666,24.923076923076923,39.08C26.76923076923077,39.04666666666667,28.615384615384617,39.02666666666667,30.461538461538463,38.96C31.384615384615387,38.92666666666667,32.30769230769231,38.87333333333333,33.23076923076923,38.839999999999996C34.15384615384615,38.806666666666665,35.07692307692308,38.78666666666666,36,38.76C36.92307692307693,38.733333333333334,37.84615384615385,38.70666666666666,38.769230769230774,38.68C39.69230769230769,38.653333333333336,40.61538461538462,38.626666666666665,41.53846153846154,38.6C42.46153846153846,38.57333333333334,43.38461538461539,38.544444444444444,44.30769230769231,38.519999999999996C46.15384615384615,38.47111111111111,48,38.48,49.84615384615385,38.4C50.769230769230774,38.36,51.69230769230769,38.3,52.61538461538462,38.239999999999995C53.53846153846154,38.17999999999999,54.46153846153847,38.12,55.38461538461539,38.04C56.307692307692314,37.96,57.23076923076923,37.86,58.15384615384616,37.76C59.07692307692308,37.66,60.00000000000001,37.55333333333333,60.92307692307693,37.44C61.84615384615385,37.32666666666667,62.769230769230774,37.19333333333333,63.69230769230769,37.08C64.61538461538461,36.96666666666667,65.53846153846155,36.86000000000001,66.46153846153847,36.760000000000005C67.38461538461539,36.660000000000004,68.30769230769232,36.56666666666667,69.23076923076924,36.480000000000004C70.15384615384616,36.39333333333334,71.07692307692308,36.35333333333334,72,36.24C72.92307692307692,36.126666666666665,73.84615384615385,35.96666666666666,74.76923076923077,35.8C75.6923076923077,35.63333333333333,76.61538461538463,35.46,77.53846153846155,35.24C78.46153846153847,35.02,79.38461538461539,34.74666666666666,80.3076923076923,34.48C81.23076923076923,34.21333333333333,82.15384615384616,33.96,83.07692307692308,33.64C84,33.32,84.92307692307693,32.93333333333334,85.84615384615385,32.56C86.76923076923077,32.18666666666667,87.6923076923077,31.80666666666667,88.61538461538461,31.400000000000002C89.53846153846153,30.993333333333336,90.46153846153847,30.533333333333335,91.38461538461539,30.12C92.3076923076923,29.706666666666667,93.23076923076924,29.293333333333333,94.15384615384616,28.919999999999998C95.07692307692308,28.546666666666667,96,28.213333333333335,96.92307692307692,27.880000000000003C97.84615384615384,27.54666666666667,98.76923076923077,27.240000000000002,99.6923076923077,26.92C100.61538461538461,26.6,101.53846153846153,26.253333333333334,102.46153846153845,25.96C103.38461538461539,25.666666666666664,104.3076923076923,25.42,105.23076923076924,25.16C106.15384615384616,24.900000000000002,107.07692307692308,24.626666666666665,108,24.4C108.92307692307692,24.173333333333332,109.84615384615385,23.993333333333332,110.76923076923077,23.799999999999997C111.6923076923077,23.606666666666666,112.61538461538461,23.41333333333333,113.53846153846153,23.24C114.46153846153847,23.066666666666663,115.38461538461539,22.91333333333333,116.30769230769232,22.759999999999998C117.23076923076924,22.606666666666666,118.15384615384616,22.446666666666665,119.07692307692308,22.32C120,22.193333333333335,120.92307692307693,22.086666666666666,121.84615384615385,22C122.76923076923077,21.913333333333334,123.6923076923077,21.9,124.61538461538461,21.799999999999997C125.53846153846153,21.699999999999996,126.46153846153847,21.526666666666664,127.38461538461539,21.4C128.30769230769232,21.273333333333333,129.23076923076923,21.153333333333332,130.15384615384616,21.04C131.0769230769231,20.926666666666666,132,20.826666666666664,132.92307692307693,20.72C133.84615384615384,20.613333333333333,134.76923076923077,20.506666666666664,135.69230769230768,20.4C136.6153846153846,20.29333333333333,137.53846153846155,20.18,138.46153846153848,20.08C139.3846153846154,19.98,140.30769230769232,19.9,141.23076923076923,19.8C142.15384615384616,19.7,143.07692307692307,19.560000000000002,144,19.48C144.92307692307693,19.4,145.84615384615384,19.373333333333335,146.76923076923077,19.32C147.6923076923077,19.266666666666666,148.6153846153846,19.213333333333335,149.53846153846155,19.16C150.46153846153845,19.106666666666666,151.3846153846154,19.046666666666667,152.3076923076923,19C153.23076923076923,18.953333333333333,154.15384615384616,18.88,155.0769230769231,18.88C156,18.88,156.92307692307693,19.033333333333335,157.84615384615384,19.16C158.76923076923077,19.28666666666667,159.69230769230768,19.493333333333332,160.6153846153846,19.64C161.53846153846155,19.78666666666667,162.46153846153845,19.933333333333334,163.3846153846154,20.04C164.30769230769232,20.146666666666665,165.23076923076923,20.173333333333336,166.15384615384616,20.28C167.0769230769231,20.386666666666667,168,20.653333333333332,168.92307692307693,20.68C169.84615384615387,20.706666666666667,170.76923076923077,20.69333333333333,171.6923076923077,20.72C172.6153846153846,20.746666666666666,173.53846153846155,21.04,174.46153846153845,21.04C175.3846153846154,21.04,176.3076923076923,20.92,177.23076923076923,20.92C178.15384615384616,20.92,179.07692307692307,21.119999999999997,180,21.319999999999997"></path><path class="axis-ceiling" stroke-width="1" stroke="black" fill="none" d="M175,0L180,0"></path><text class="axis-ceiling-label" font-family="sans-serif" text-anchor="end" font-size="10px" x="170" y="2.5">1000</text></g></svg>