<svg xmlns="http://www.w3.org/2000/svg" viewBox="0 0 180 60"><g transform="translate(0,20)"><path class="area" fill="rgba(0, 0, 0, 0.2)" d="M0,29.779999999999998C1.0169491525423728,29.856666666666662,2.0338983050847457,29.93333333333333,3.0508474576271185,30.019999999999996C4.067796610169491,30.106666666666662,5.084745762711864,30.203333333333337,6.101694915254237,30.300000000000004C7.11864406779661,30.396666666666672,8.135593220338983,30.506666666666668,9.152542372881356,30.6C10.169491525423728,30.693333333333335,11.186440677966102,30.773333333333333,12.203389830508474,30.86C13.220338983050846,30.946666666666665,14.23728813559322,31.046666666666667,15.254237288135592,31.12C16.271186440677965,31.193333333333335,17.28813559322034,31.256666666666664,18.305084745762713,31.299999999999997C19.322033898305087,31.34333333333333,20.338983050847457,31.36,21.35593220338983,31.38C22.372881355932204,31.4,23.389830508474574,31.419999999999998,24.406779661016948,31.419999999999998C25.423728813559322,31.419999999999998,26.440677966101696,31.39,27.45762711864407,31.36C28.47457627118644,31.330000000000002,29.491525423728813,31.283333333333335,30.508474576271183,31.240000000000002C31.525423728813557,31.19666666666667,32.54237288135593,31.166666666666664,33.559322033898304,31.099999999999998C34.57627118644068,31.03333333333333,35.59322033898305,30.94333333333333,36.610169491525426,30.84C37.6271186440678,30.736666666666668,38.644067796610166,30.593333333333334,39.66101694915254,30.48C40.67796610169491,30.366666666666667,41.69491525423729,30.273333333333333,42.71186440677966,30.16C43.728813559322035,30.046666666666667,44.7457627118644,29.916666666666668,45.762711864406775,29.8C46.77966101694915,29.683333333333334,47.79661016949152,29.57333333333333,48.813559322033896,29.459999999999997C49.83050847457627,29.346666666666664,50.847457627118644,29.22333333333333,51.86440677966102,29.119999999999997C52.88135593220339,29.016666666666666,53.898305084745765,28.939999999999998,54.91525423728814,28.84C55.93220338983051,28.740000000000002,56.94915254237288,28.61666666666667,57.96610169491525,28.520000000000003C58.983050847457626,28.423333333333336,59.99999999999999,28.353333333333335,61.01694915254237,28.26C62.03389830508474,28.166666666666668,63.05084745762712,28.053333333333335,64.0677966101695,27.96C65.08474576271186,27.866666666666667,66.10169491525424,27.779999999999998,67.11864406779661,27.7C68.13559322033899,27.62,69.15254237288136,27.550000000000004,70.16949152542374,27.480000000000004C71.1864406779661,27.410000000000004,72.20338983050848,27.36,73.22033898305085,27.279999999999998C74.23728813559322,27.199999999999996,75.2542372881356,27.10333333333333,76.27118644067797,27C77.28813559322033,26.89666666666667,78.30508474576271,26.763333333333332,79.32203389830508,26.66C80.33898305084746,26.556666666666665,81.35593220338983,26.473333333333333,82.37288135593221,26.38C83.38983050847457,26.286666666666665,84.40677966101696,26.19,85.42372881355932,26.1C86.4406779661017,26.01,87.45762711864407,25.913333333333334,88.47457627118645,25.84C89.49152542372882,25.766666666666666,90.50847457627118,25.686666666666657,91.52542372881355,25.659999999999997C92.54237288135593,25.633333333333336,93.55932203389831,25.633333333333336,94.57627118644069,25.620000000000005C95.59322033898306,25.606666666666673,96.61016949152543,25.58,97.62711864406779,25.58C98.64406779661016,25.58,99.66101694915254,25.669999999999998,100.6779661016949,25.72C101.69491525423729,25.77,102.71186440677965,25.8,103.72881355932203,25.880000000000003C104.7457627118644,25.960000000000004,105.76271186440678,26.09666666666667,106.77966101694915,26.200000000000003C107.79661016949153,26.303333333333335,108.8135593220339,26.426666666666666,109.83050847457628,26.5C110.84745762711864,26.57333333333333,111.86440677966102,26.61333333333333,112.88135593220339,26.639999999999997C113.89830508474576,26.666666666666664,114.91525423728814,26.653333333333332,115.9322033898305,26.68C116.94915254237289,26.706666666666667,117.96610169491525,26.799999999999997,118.98305084745763,26.799999999999997C120,26.799999999999997,121.01694915254237,26.72,122.03389830508473,26.72C123.05084745762711,26.72,124.0677966101695,26.72,125.08474576271188,26.72C126.10169491525424,26.72,127.11864406779662,26.69333333333333,128.135593220339,26.639999999999997C129.15254237288136,26.586666666666662,130.16949152542372,26.36,131.1864406779661,26.36C132.20338983050846,26.36,133.22033898305085,26.54,134.23728813559322,26.54C135.25423728813558,26.54,136.27118644067798,26.533333333333335,137.28813559322035,26.520000000000003C138.3050847457627,26.50666666666667,139.3220338983051,26.41,140.33898305084747,26.36C141.35593220338984,26.31,142.3728813559322,26.313333333333333,143.38983050847457,26.22C144.40677966101694,26.126666666666665,145.42372881355934,25.883333333333333,146.4406779661017,25.659999999999997C147.45762711864407,25.436666666666664,148.47457627118644,25.15333333333333,149.4915254237288,24.88C150.50847457627117,24.606666666666666,151.52542372881356,24.410000000000004,152.54237288135593,24.020000000000003C153.5593220338983,23.630000000000003,154.5762711864407,23.03666666666667,155.59322033898306,22.54C156.61016949152543,22.043333333333333,157.6271186440678,21.56333333333333,158.64406779661016,21.04C159.66101694915253,20.516666666666662,160.67796610169492,19.959999999999997,161.6949152542373,19.4C162.71186440677965,18.84,163.72881355932205,18.240000000000002,164.74576271186442,17.68C165.76271186440678,17.12,166.77966101694915,16.569999999999997,167.79661016949152,16.04C168.81355932203388,15.509999999999996,169.83050847457628,15.010000000000002,170.84745762711864,14.500000000000002C171.864406779661,13.990000000000002,172.8813559322034,13.473333333333334,173.89830508474577,12.98C174.91525423728814,12.486666666666666,175.93220338983053,12.063333333333336,176.9491525423729,11.54C177.96610169491527,11.016666666666667,178.98305084745763,10.428333333333335,180,9.84L180,40C178.98305084745763,40,177.96610169491527,40,176.9491525423729,40C175.93220338983053,40,174.91525423728814,40,173.89830508474577,40C172.8813559322034,40,171.864406779661,40,170.84745762711864,40C169.83050847457628,40,168.81355932203388,40,167.79661016949152,40C166.77966101694915,40,165.76271186440678,40,164.74576271186442,40C163.72881355932205,40,162.71186440677965,40,161.6949152542373,40C160.67796610169492,40,159.66101694915253,40,158.64406779661016,40C157.6271186440678,40,156.61016949152543,40,155.59322033898306,40C154.5762711864407,40,153.5593220338983,40,152.54237288135593,40C151.52542372881356,40,150.50847457627117,40,149.4915254237288,40C148.47457627118644,40,147.45762711864407,40,146.4406779661017,40C145.42372881355934,40,144.40677966101694,40,143.38983050847457,40C142.3728813559322,40,141.35593220338984,40,140.33898305084747,40C139.3220338983051,40,138.3050847457627,40,137.28813559322035,40C136.27118644067798,40,135.25423728813558,40,134.23728813559322,40C133.22033898305085,40,132.20338983050846,40,131.1864406779661,40C130.16949152542372,40,129.15254237288136,40,128.135593220339,40C127.11864406779662,40,126.10169491525424,40,125.08474576271188,40C124.0677966101695,40,123.05084745762711,40,122.03389830508473,40C121.01694915254237,40,120,40,118.98305084745763,40C117.96610169491525,40,116.94915254237289,40,115.9322033898305,40C114.91525423728814,40,113.89830508474576,40,112.88135593220339,40C111.86440677966102,40,110.84745762711864,40,109.83050847457628,40C108.8135593220339,40,107.79661016949153,40,106.77966101694915,40C105.76271186440678,40,104.7457627118644,40,103.72881355932203,40C102.71186440677965,40,101.69491525423729,40,100.6779661016949,40C99.66101694915254,40,98.64406779661016,40,97.62711864406779,40C96.61016949152543,40,95.59322033898306,40,94.57627118644069,40C93.55932203389831,40,92.54237288135593,40,91.52542372881355,40C90.50847457627118,40,89.49152542372882,40,88.47457627118645,40C87.45762711864407,40,86.4406779661017,40,85.42372881355932,40C84.40677966101696,40,83.38983050847457,40,82.37288135593221,40C81.35593220338983,40,80.33898305084746,40,79.32203389830508,40C78.30508474576271,40,77.28813559322033,40,76.27118644067797,40C75.2542372881356,40,74.23728813559322,40,73.22033898305085,40C72.20338983050848,40,71.1864406779661,40,70.16949152542374,40C69.15254237288136,40,68.13559322033899,40,67.11864406779661,40C66.10169491525424,40,65.08474576271186,40,64.0677966101695,40C63.05084745762712,40,62.03389830508474,40,61.01694915254237,40C59.99999999999999,40,58.983050847457626,40,57.96610169491525,40C56.94915254237288,40,55.93220338983051,40,54.91525423728814,40C53.898305084745765,40,52.88135593220339,40,51.86440677966102,40C50.847457627118644,40,49.83050847457627,40,48.813559322033896,40C47.79661016949152,40,46.77966101694915,40,45.762711864406775,40C44.7457627118644,40,43.728813559322035,40,42.71186440677966,40C41.69491525423729,40,40.67796610169491,40,39.66101694915254,40C38.644067796610166,40,37.6271186440678,40,36.610169491525426,40C35.59322033898305,40,34.57627118644068,40,33.559322033898304,40C32.54237288135593,40,31.525423728813557,40,30.508474576271183,40C29.491525423728813,40,28.47457627118644,40,27.45762711864407,40C26.440677966101696,40,25.423728813559322,40,24.406779661016948,40C23.389830508474574,40,22.372881355932204,40,21.35593220338983,40C20.338983050847457,40,19.322033898305087,40,18.305084745762713,40C17.28813559322034,40,16.271186440677965,40,15.254237288135592,40C14.23728813559322,40,13.220338983050846,40,12.203389830508474,40C11.186440677966102,40,10.169491525423728,40,9.152542372881356,40C8.135593220338983,40,7.11864406779661,40,6.101694915254237,40C5.084745762711864,40,4.067796610169491,40,3.0508474576271185,40C2.0338983050847457,40,1.0169491525423728,40,0,40Z"></path><path class="line" stroke="black" fill="none" d="M0,29.779999999999998C1.0169491525423728,29.856666666666662,2.0338983050847457,29.93333333333333,3.0508474576271185,30.019999999999996C4.067796610169491,30.106666666666662,5.084745762711864,30.203333333333337,6.101694915254237,30.300000000000004C7.11864406779661,30.396666666666672,8.135593220338983,30.506666666666668,9.152542372881356,30.6C10.169491525423728,30.693333333333335,11.186440677966102,30.773333333333333,12.203389830508474,30.86C13.220338983050846,30.946666666666665,14.23728813559322,31.046666666666667,15.254237288135592,31.12C16.271186440677965,31.193333333333335,17.28813559322034,31.256666666666664,18.305084745762713,31.299999999999997C19.322033898305087,31.34333333333333,20.338983050847457,31.36,21.35593220338983,31.38C22.372881355932204,31.4,23.389830508474574,31.419999999999998,24.406779661016948,31.419999999999998C25.423728813559322,31.419999999999998,26.440677966101696,31.39,27.45762711864407,31.36C28.47457627118644,31.330000000000002,29.491525423728813,31.283333333333335,30.508474576271183,31.240000000000002C31.525423728813557,31.19666666666667,32.54237288135593,31.166666666666664,33.559322033898304,31.099999999999998C34.57627118644068,31.03333333333333,35.59322033898305,30.94333333333333,36.610169491525426,30.84C37.6271186440678,30.736666666666668,38.644067796610166,30.593333333333334,39.66101694915254,30.48C40.67796610169491,30.366666666666667,41.69491525423729,30.273333333333333,42.71186440677966,30.16C43.728813559322035,30.046666666666667,44.7457627118644,29.916666666666668,45.762711864406775,29.8C46.77966101694915,29.683333333333334,47.79661016949152,29.57333333333333,48.813559322033896,29.459999999999997C49.83050847457627,29.346666666666664,50.847457627118644,29.22333333333333,51.86440677966102,29.119999999999997C52.88135593220339,29.016666666666666,53.898305084745765,28.939999999999998,54.91525423728814,28.84C55.93220338983051,28.740000000000002,56.94915254237288,28.61666666666667,57.96610169491525,28.520000000000003C58.983050847457626,28.423333333333336,59.99999999999999,28.353333333333335,61.01694915254237,28.26C62.03389830508474,28.166666666666668,63.05084745762712,28.053333333333335,64.0677966101695,27.96C65.08474576271186,27.866666666666667,66.10169491525424,27.779999999999998,67.11864406779661,27.7C68.13559322033899,27.62,69.15254237288136,27.550000000000004,70.16949152542374,27.480000000000004C71.1864406779661,27.410000000000004,72.20338983050848,27.36,73.22033898305085,27.279999999999998C74.23728813559322,27.199999999999996,75.2542372881356,27.10333333333333,76.27118644067797,27C77.28813559322033,26.89666666666667,78.30508474576271,26.763333333333332,79.32203389830508,26.66C80.33898305084746,26.556666666666665,81.35593220338983,26.473333333333333,82.37288135593221,26.38C83.38983050847457,26.286666666666665,84.40677966101696,26.19,85.42372881355932,26.1C86.4406779661017,26.01,87.45762711864407,25.913333333333334,88.47457627118645,25.84C89.49152542372882,25.766666666666666,90.50847457627118,25.686666666666657,91.52542372881355,25.659999999999997C92.54237288135593,25.633333333333336,93.55932203389831,25.633333333333336,94.57627118644069,25.620000000000005C95.59322033898306,25.606666666666673,96.61016949152543,25.58,97.62711864406779,25.58C98.64406779661016,25.58,99.66101694915254,25.669999999999998,100.6779661016949,25.72C101.69491525423729,25.77,102.71186440677965,25.8,103.72881355932203,25.880000000000003C104.7457627118644,25.960000000000004,105.76271186440678,26.09666666666667,106.77966101694915,26.200000000000003C107.79661016949153,26.303333333333335,108.8135593220339,26.426666666666666,109.83050847457628,26.5C110.84745762711864,26.57333333333333,111.86440677966102,26.61333333333333,112.88135593220339,26.639999999999997C113.89830508474576,26.666666666666664,114.91525423728814,26.653333333333332,115.9322033898305,26.68C116.94915254237289,26.706666666666667,117.96610169491525,26.799999999999997,118.98305084745763,26.799999999999997C120,26.799999999999997,121.01694915254237,26.72,122.03389830508473,26.72C123.05084745762711,26.72,124.0677966101695,26.72,125.08474576271188,26.72C126.10169491525424,26.72,127.11864406779662,26.69333333333333,128.135593220339,26.639999999999997C129.15254237288136,26.586666666666662,130.16949152542372,26.36,131.1864406779661,26.36C132.20338983050846,26.36,133.22033898305085,26.54,134.23728813559322,26.54C135.25423728813558,26.54,136.27118644067798,26.533333333333335,137.28813559322035,26.520000000000003C138.3050847457627,26.50666666666667,139.3220338983051,26.41,140.33898305084747,26.36C141.35593220338984,26.31,142.3728813559322,26.313333333333333,143.38983050847457,26.22C144.40677966101694,26.126666666666665,145.42372881355934,25.883333333333333,146.4406779661017,25.659999999999997C147.45762711864407,25.436666666666664,148.47457627118644,25.15333333333333,149.4915254237288,24.88C150.50847457627117,24.606666666666666,151.52542372881356,24.410000000000004,152.54237288135593,24.020000000000003C153.5593220338983,23.630000000000003,154.5762711864407,23.03666666666667,155.59322033898306,22.54C156.61016949152543,22.043333333333333,157.6271186440678,21.56333333333333,158.64406779661016,21.04C159.66101694915253,20.516666666666662,160.67796610169492,19.959999999999997,161.6949152542373,19.4C162.71186440677965,18.84,163.72881355932205,18.240000000000002,164.74576271186442,17.68C165.76271186440678,17.12,166.77966101694915,16.569999999999997,167.79661016949152,16.04C168.81355932203388,15.509999999999996,169.83050847457628,15.010000000000002,170.84745762711864,14.500000000000002C171.864406779661,13.990000000000002,172.8813559322034,13.473333333333334,173.89830508474577,12.98C174.91525423728814,12.486666666666666,175.93220338983053,12.063333333333336,176.9491525423729,11.54C177.96610169491527,11.016666666666667,178.98305084745763,10.428333333333335,180,9.84"></path><path class="axis-ceiling" stroke-width="1" stroke="black" fill="none" d="M175,0L180,0"></path><text class="axis-ceiling-label" font-family="sans-serif" text-anchor="end" font-size="10px" x="170" y="2.5">2000</text></g></svg>