<svg xmlns="http://www.w3.org/2000/svg" viewBox="0 0 180 60"><g transform="translate(0,20)"><path class="area" fill="rgba(0, 0, 0, 0.2)" d="M0,17.27272727272727C1.0169491525423728,17.09090909090909,2.0338983050847457,16.90909090909091,3.0508474576271185,16.90909090909091C4.067796610169491,16.90909090909091,5.084745762711864,18,6.101694915254237,18C7.11864406779661,18,8.135593220338983,18,9.152542372881356,18C10.169491525423728,18,11.186440677966102,17.27272727272727,12.203389830508474,17.27272727272727C13.220338983050846,17.27272727272727,14.23728813559322,17.27272727272727,15.254237288135592,17.27272727272727C16.271186440677965,17.27272727272727,17.28813559322034,18,18.305084745762713,18C19.322033898305087,18,20.338983050847457,17.27272727272727,21.35593220338983,17.27272727272727C22.372881355932204,17.27272727272727,23.389830508474574,31.090909090909093,24.406779661016948,31.090909090909093C25.423728813559322,31.090909090909093,26.440677966101696,24.939393939393945,27.45762711864407,22.545454545454547C28.47457627118644,20.151515151515156,29.491525423728813,18.424242424242422,30.508474576271183,16.727272727272727C31.525423728813557,15.030303030303028,32.54237288135593,12.363636363636363,33.559322033898304,12.363636363636363C34.57627118644068,12.363636363636363,35.59322033898305,21.636363636363637,36.610169491525426,21.636363636363637C37.6271186440678,21.636363636363637,38.644067796610166,7.8181818181818175,39.66101694915254,7.8181818181818175C40.67796610169491,7.8181818181818175,41.69491525423729,24.909090909090914,42.71186440677966,24.909090909090914C43.728813559322035,24.909090909090914,44.7457627118644,17.09090909090909,45.762711864406775,17.09090909090909C46.77966101694915,17.09090909090909,47.79661016949152,40,48.813559322033896,40C49.83050847457627,40,50.847457627118644,10.909090909090908,51.86440677966102,10.909090909090908C52.88135593220339,10.909090909090908,53.898305084745765,14.151515151515152,54.91525423728814,15.272727272727273C55.93220338983051,16.39393939393939,56.94915254237288,16.060606060606062,57.96610169491525,17.636363636363637C58.983050847457626,19.21212121212121,59.99999999999999,28.909090909090907,61.01694915254237,28.909090909090907C62.03389830508474,28.909090909090907,63.05084745762712,15.636363636363635,64.0677966101695,15.636363636363635C65.08474576271186,15.636363636363635,66.10169491525424,18.545454545454547,67.11864406779661,18.545454545454547C68.13559322033899,18.545454545454547,69.15254237288136,17.72727272727273,70.16949152542374,17.454545454545457C71.1864406779661,17.181818181818183,72.20338983050848,17.212121212121215,73.22033898305085,16.90909090909091C74.23728813559322,16.606060606060606,75.2542372881356,15.757575757575756,76.27118644067797,15.636363636363635C77.28813559322033,15.515151515151514,78.30508474576271,15.575757575757574,79.32203389830508,15.454545454545453C80.33898305084746,15.333333333333332,81.35593220338983,11.272727272727273,82.37288135593221,11.272727272727273C83.38983050847457,11.272727272727273,84.40677966101696,16.18181818181818,85.42372881355932,16.18181818181818C86.4406779661017,16.18181818181818,87.45762711864407,13.454545454545453,88.47457627118645,13.454545454545453C89.49152542372882,13.454545454545453,90.50847457627118,15.81818181818182,91.52542372881355,15.81818181818182C92.54237288135593,15.81818181818182,93.55932203389831,14.363636363636365,94.57627118644069,14.363636363636365C95.59322033898306,14.363636363636365,96.61016949152543,15.81818181818182,97.62711864406779,15.81818181818182C98.64406779661016,15.81818181818182,99.66101694915254,15.81818181818182,100.6779661016949,15.81818181818182C101.69491525423729,15.81818181818182,102.71186440677965,18.181818181818183,103.72881355932203,18.181818181818183C104.7457627118644,18.181818181818183,105.76271186440678,16.606060606060606,106.77966101694915,16.363636363636363C107.79661016949153,16.12121212121212,108.8135593220339,16.242424242424242,109.83050847457628,16C110.84745762711864,15.75757575757576,111.86440677966102,14.363636363636365,112.88135593220339,14.363636363636365C113.89830508474576,14.363636363636365,114.91525423728814,24.18181818181818,115.9322033898305,24.18181818181818C116.94915254237289,24.18181818181818,117.96610169491525,20.18181818181818,118.98305084745763,20.18181818181818C120,20.18181818181818,121.01694915254237,21.454545454545453,122.03389830508473,21.454545454545453C123.05084745762711,21.454545454545453,124.0677966101695,19.90909090909091,125.08474576271188,19.272727272727273C126.10169491525424,18.63636363636364,127.11864406779662,17.636363636363637,128.135593220339,17.636363636363637C129.15254237288136,17.636363636363637,130.16949152542372,26.18181818181818,131.1864406779661,26.18181818181818C132.20338983050846,26.18181818181818,133.22033898305085,19.93939393939394,134.23728813559322,19.81818181818182C135.25423728813558,19.6969696969697,136.27118644067798,19.75757575757576,137.28813559322035,19.63636363636364C138.3050847457627,19.51515151515152,139.3220338983051,18.90909090909091,140.33898305084747,18.90909090909091C141.35593220338984,18.90909090909091,142.3728813559322,23.454545454545457,143.38983050847457,23.454545454545457C144.40677966101694,23.454545454545457,145.42372881355934,22.12121212121213,146.4406779661017,20.727272727272727C147.45762711864407,19.333333333333336,148.47457627118644,15.090909090909093,149.4915254237288,15.090909090909093C150.50847457627117,15.090909090909093,151.52542372881356,25.636363636363633,152.54237288135593,25.636363636363633C153.5593220338983,25.636363636363633,154.5762711864407,16.4848484848485,155.59322033898306,15.272727272727273C156.61016949152543,14.06060606060606,157.6271186440678,13.454545454545453,158.64406779661016,13.454545454545453C159.66101694915253,13.454545454545453,160.67796610169492,15.75757575757576,161.6949152542373,16.363636363636363C162.71186440677965,16.96969696969697,163.72881355932205,17.27272727272727,164.74576271186442,17.27272727272727C165.76271186440678,17.27272727272727,166.77966101694915,17.030303030303028,167.79661016949152,16.545454545454547C168.81355932203388,16.06060606060606,169.83050847457628,13.818181818181818,170.84745762711864,13.818181818181818C171.864406779661,13.818181818181818,172.8813559322034,17.09090909090909,173.89830508474577,17.09090909090909C174.91525423728814,17.09090909090909,175.93220338983053,10.545454545454547,176.9491525423729,10.545454545454547C177.96610169491527,10.545454545454547,178.98305084745763,12.545454545454547,180,14.545454545454547L180,40C178.98305084745763,40,177.96610169491527,40,176.9491525423729,40C175.93220338983053,40,174.91525423728814,40,173.89830508474577,40C172.8813559322034,40,171.864406779661,40,170.84745762711864,40C169.83050847457628,40,168.81355932203388,40,167.79661016949152,40C166.77966101694915,40,165.76271186440678,40,164.74576271186442,40C163.72881355932205,40,162.71186440677965,40,161.6949152542373,40C160.67796610169492,40,159.66101694915253,40,158.64406779661016,40C157.6271186440678,40,156.61016949152543,40,155.59322033898306,40C154.5762711864407,40,153.5593220338983,40,152.54237288135593,40C151.52542372881356,40,150.50847457627117,40,149.4915254237288,40C148.47457627118644,40,147.45762711864407,40,146.4406779661017,40C145.42372881355934,40,144.40677966101694,40,143.38983050847457,40C142.3728813559322,40,141.35593220338984,40,140.33898305084747,40C139.3220338983051,40,138.3050847457627,40,137.28813559322035,40C136.27118644067798,40,135.25423728813558,40,134.23728813559322,40C133.22033898305085,40,132.20338983050846,40,131.1864406779661,40C130.16949152542372,40,129.15254237288136,40,128.135593220339,40C127.11864406779662,40,126.10169491525424,40,125.08474576271188,40C124.0677966101695,40,123.05084745762711,40,122.03389830508473,40C121.01694915254237,40,120,40,118.98305084745763,40C117.96610169491525,40,116.94915254237289,40,115.9322033898305,40C114.91525423728814,40,113.89830508474576,40,112.88135593220339,40C111.86440677966102,40,110.84745762711864,40,109.83050847457628,40C108.8135593220339,40,107.79661016949153,40,106.77966101694915,40C105.76271186440678,40,104.7457627118644,40,103.72881355932203,40C102.71186440677965,40,101.69491525423729,40,100.6779661016949,40C99.66101694915254,40,98.64406779661016,40,97.62711864406779,40C96.61016949152543,40,95.59322033898306,40,94.57627118644069,40C93.55932203389831,40,92.54237288135593,40,91.52542372881355,40C90.50847457627118,40,89.49152542372882,40,88.47457627118645,40C87.45762711864407,40,86.4406779661017,40,85.42372881355932,40C84.40677966101696,40,83.38983050847457,40,82.37288135593221,40C81.35593220338983,40,80.33898305084746,40,79.32203389830508,40C78.30508474576271,40,77.28813559322033,40,76.27118644067797,40C75.2542372881356,40,74.23728813559322,40,73.22033898305085,40C72.20338983050848,40,71.1864406779661,40,70.16949152542374,40C69.15254237288136,40,68.13559322033899,40,67.11864406779661,40C66.10169491525424,40,65.08474576271186,40,64.0677966101695,40C63.05084745762712,40,62.03389830508474,40,61.01694915254237,40C59.99999999999999,40,58.983050847457626,40,57.96610169491525,40C56.94915254237288,40,55.93220338983051,40,54.91525423728814,40C53.898305084745765,40,52.88135593220339,40,51.86440677966102,40C50.847457627118644,40,49.83050847457627,40,48.813559322033896,40C47.79661016949152,40,46.77966101694915,40,45.762711864406775,40C44.7457627118644,40,43.728813559322035,40,42.71186440677966,40C41.69491525423729,40,40.67796610169491,40,39.66101694915254,40C38.644067796610166,40,37.6271186440678,40,36.610169491525426,40C35.59322033898305,40,34.57627118644068,40,33.559322033898304,40C32.54237288135593,40,31.525423728813557,40,30.508474576271183,40C29.491525423728813,40,28.47457627118644,40,27.45762711864407,40C26.440677966101696,40,25.423728813559322,40,24.406779661016948,40C23.389830508474574,40,22.372881355932204,40,21.35593220338983,40C20.338983050847457,40,19.322033898305087,40,18.305084745762713,40C17.28813559322034,40,16.271186440677965,40,15.254237288135592,40C14.23728813559322,40,13.220338983050846,40,12.203389830508474,40C11.186440677966102,40,10.169491525423728,40,9.152542372881356,40C8.135593220338983,40,7.11864406779661,40,6.101694915254237,40C5.084745762711864,40,4.067796610169491,40,3.0508474576271185,40C2.0338983050847457,40,1.0169491525423728,40,0,40Z"></path><path class="line" stroke="black" fill="none" d="M0,17.27272727272727C1.0169491525423728,17.09090909090909,2.0338983050847457,16.90909090909091,3.0508474576271185,16.90909090909091C4.067796610169491,16.90909090909091,5.084745762711864,18,6.101694915254237,18C7.11864406779661,18,8.135593220338983,18,9.152542372881356,18C10.169491525423728,18,11.186440677966102,17.27272727272727,12.203389830508474,17.27272727272727C13.220338983050846,17.27272727272727,14.23728813559322,17.27272727272727,15.254237288135592,17.27272727272727C16.271186440677965,17.27272727272727,17.28813559322034,18,18.305084745762713,18C19.322033898305087,18,20.338983050847457,17.27272727272727,21.35593220338983,17.27272727272727C22.372881355932204,17.27272727272727,23.389830508474574,31.090909090909093,24.406779661016948,31.090909090909093C25.423728813559322,31.090909090909093,26.440677966101696,24.939393939393945,27.45762711864407,22.545454545454547C28.47457627118644,20.151515151515156,29.491525423728813,18.424242424242422,30.508474576271183,16.727272727272727C31.525423728813557,15.030303030303028,32.54237288135593,12.363636363636363,33.559322033898304,12.363636363636363C34.57627118644068,12.363636363636363,35.59322033898305,21.636363636363637,36.610169491525426,21.636363636363637C37.6271186440678,21.636363636363637,38.644067796610166,7.8181818181818175,39.66101694915254,7.8181818181818175C40.67796610169491,7.8181818181818175,41.69491525423729,24.909090909090914,42.71186440677966,24.909090909090914C43.728813559322035,24.909090909090914,44.7457627118644,17.09090909090909,45.762711864406775,17.09090909090909C46.77966101694915,17.09090909090909,47.79661016949152,40,48.813559322033896,40C49.83050847457627,40,50.847457627118644,10.909090909090908,51.86440677966102,10.909090909090908C52.88135593220339,10.909090909090908,53.898305084745765,14.151515151515152,54.91525423728814,15.272727272727273C55.93220338983051,16.39393939393939,56.94915254237288,16.060606060606062,57.96610169491525,17.636363636363637C58.983050847457626,19.21212121212121,59.99999999999999,28.909090909090907,61.01694915254237,28.909090909090907C62.03389830508474,28.909090909090907,63.05084745762712,15.636363636363635,64.0677966101695,15.636363636363635C65.08474576271186,15.636363636363635,66.10169491525424,18.545454545454547,67.11864406779661,18.545454545454547C68.13559322033899,18.545454545454547,69.15254237288136,17.72727272727273,70.16949152542374,17.454545454545457C71.1864406779661,17.181818181818183,72.20338983050848,17.212121212121215,73.22033898305085,16.90909090909091C74.23728813559322,16.606060606060606,75.2542372881356,15.757575757575756,76.27118644067797,15.636363636363635C77.28813559322033,15.515151515151514,78.30508474576271,15.575757575757574,79.32203389830508,15.454545454545453C80.33898305084746,15.333333333333332,81.35593220338983,11.272727272727273,82.37288135593221,11.272727272727273C83.38983050847457,11.272727272727273,84.40677966101696,16.18181818181818,85.42372881355932,16.18181818181818C86.4406779661017,16.18181818181818,87.45762711864407,13.454545454545453,88.47457627118645,13.454545454545453C89.49152542372882,13.454545454545453,90.50847457627118,15.81818181818182,91.52542372881355,15.81818181818182C92.54237288135593,15.81818181818182,93.55932203389831,14.363636363636365,94.57627118644069,14.363636363636365C95.59322033898306,14.363636363636365,96.61016949152543,15.81818181818182,97.62711864406779,15.81818181818182C98.64406779661016,15.81818181818182,99.66101694915254,15.81818181818182,100.6779661016949,15.81818181818182C101.69491525423729,15.81818181818182,102.71186440677965,18.181818181818183,103.72881355932203,18.181818181818183C104.7457627118644,18.181818181818183,105.76271186440678,16.606060606060606,106.77966101694915,16.363636363636363C107.79661016949153,16.12121212121212,108.8135593220339,16.242424242424242,109.83050847457628,16C110.84745762711864,15.75757575757576,111.86440677966102,14.363636363636365,112.88135593220339,14.363636363636365C113.89830508474576,14.363636363636365,114.91525423728814,24.18181818181818,115.9322033898305,24.18181818181818C116.94915254237289,24.18181818181818,117.96610169491525,20.18181818181818,118.98305084745763,20.18181818181818C120,20.18181818181818,121.01694915254237,21.454545454545453,122.03389830508473,21.454545454545453C123.05084745762711,21.454545454545453,124.0677966101695,19.90909090909091,125.08474576271188,19.272727272727273C126.10169491525424,18.63636363636364,127.11864406779662,17.636363636363637,128.135593220339,17.636363636363637C129.15254237288136,17.636363636363637,130.16949152542372,26.18181818181818,131.1864406779661,26.18181818181818C132.20338983050846,26.18181818181818,133.22033898305085,19.93939393939394,134.23728813559322,19.81818181818182C135.25423728813558,19.6969696969697,136.27118644067798,19.75757575757576,137.28813559322035,19.63636363636364C138.3050847457627,19.51515151515152,139.3220338983051,18.90909090909091,140.33898305084747,18.90909090909091C141.35593220338984,18.90909090909091,142.3728813559322,23.454545454545457,143.38983050847457,23.454545454545457C144.40677966101694,23.454545454545457,145.42372881355934,22.12121212121213,146.4406779661017,20.727272727272727C147.45762711864407,19.333333333333336,148.47457627118644,15.090909090909093,149.4915254237288,15.090909090909093C150.50847457627117,15.090909090909093,151.52542372881356,25.636363636363633,152.54237288135593,25.636363636363633C153.5593220338983,25.636363636363633,154.5762711864407,16.4848484848485,155.59322033898306,15.272727272727273C156.61016949152543,14.06060606060606,157.6271186440678,13.454545454545453,158.64406779661016,13.454545454545453C159.66101694915253,13.454545454545453,160.67796610169492,15.75757575757576,161.6949152542373,16.363636363636363C162.71186440677965,16.96969696969697,163.72881355932205,17.27272727272727,164.74576271186442,17.27272727272727C165.76271186440678,17.27272727272727,166.77966101694915,17.030303030303028,167.79661016949152,16.545454545454547C168.81355932203388,16.06060606060606,169.83050847457628,13.818181818181818,170.84745762711864,13.818181818181818C171.864406779661,13.818181818181818,172.8813559322034,17.09090909090909,173.89830508474577,17.09090909090909C174.91525423728814,17.09090909090909,175.93220338983053,10.545454545454547,176.9491525423729,10.545454545454547C177.96610169491527,10.545454545454547,178.98305084745763,12.545454545454547,180,14.545454545454547"></path><path class="axis-ceiling" stroke-width="1" stroke="black" fill="none" d="M175,0L180,0"></path><text class="axis-ceiling-label" font-family="sans-serif" text-anchor="end" font-size="10px" x="170" y="2.5">100</text></g></svg>