<svg xmlns="http://www.w3.org/2000/svg" viewBox="0 0 180 60"><g transform="translate(0,20)"><path class="area" fill="rgba(0, 0, 0, 0.2)" d="M0,23.847072879330945C1.0169491525423728,24.002389486260455,2.0338983050847457,24.157706093189965,3.0508474576271185,24.157706093189965C4.067796610169491,24.157706093189965,5.084745762711864,22.700119474313027,6.101694915254237,22.700119474313027C7.11864406779661,22.700119474313027,8.135593220338983,24.635603345280764,9.152542372881356,24.635603345280764C10.169491525423728,24.635603345280764,11.186440677966102,24.03823178016726,12.203389830508474,23.67980884109916C13.220338983050846,23.32138590203106,14.23728813559322,22.485065710872163,15.254237288135592,22.485065710872163C16.271186440677965,22.485065710872163,17.28813559322034,27.26403823178017,18.305084745762713,27.26403823178017C19.322033898305087,27.26403823178017,20.338983050847457,22.054958183990443,21.35593220338983,22.054958183990443C22.372881355932204,22.054958183990443,23.389830508474574,23.178016726403822,24.406779661016948,23.178016726403822C25.423728813559322,23.178016726403822,26.440677966101696,23.07447232178415,27.45762711864407,22.867383512544805C28.47457627118644,22.66029470330546,29.491525423728813,21.003584229390682,30.508474576271183,21.003584229390682C31.525423728813557,21.003584229390682,32.54237288135593,21.95937873357228,33.559322033898304,21.95937873357228C34.57627118644068,21.95937873357228,35.59322033898305,21.696535244922337,36.610169491525426,21.696535244922337C37.6271186440678,21.696535244922337,38.644067796610166,22.1505376344086,39.66101694915254,22.1505376344086C40.67796610169491,22.1505376344086,41.69491525423729,21.93548387096774,42.71186440677966,21.93548387096774C43.728813559322035,21.93548387096774,44.7457627118644,22.1505376344086,45.762711864406775,22.1505376344086C46.77966101694915,22.1505376344086,47.79661016949152,22.12664277180406,48.813559322033896,22.078853046594983C49.83050847457627,22.031063321385904,50.847457627118644,21.6726403823178,51.86440677966102,21.6726403823178C52.88135593220339,21.6726403823178,53.898305084745765,22.867383512544805,54.91525423728814,22.867383512544805C55.93220338983051,22.867383512544805,56.94915254237288,21.983273596176822,57.96610169491525,21.983273596176822C58.983050847457626,21.983273596176822,59.99999999999999,22.449223416965353,61.01694915254237,22.65232974910394C62.03389830508474,22.855436081242534,63.05084745762712,23.201911589008365,64.0677966101695,23.201911589008365C65.08474576271186,23.201911589008365,66.10169491525424,20.60533651931501,67.11864406779661,19.4026284348865C68.13559322033899,18.19992035045798,69.15254237288136,15.985663082437277,70.16949152542374,15.985663082437277C71.1864406779661,15.985663082437277,72.20338983050848,16.91756272401434,73.22033898305085,17.371565113500598C74.23728813559322,17.825567502986857,75.2542372881356,18.518518518518523,76.27118644067797,18.70967741935484C77.28813559322033,18.900836320191157,78.30508474576271,18.996415770609318,79.32203389830508,18.996415770609318C80.33898305084746,18.996415770609318,81.35593220338983,15.364396654719235,82.37288135593221,15.364396654719235C83.38983050847457,15.364396654719235,84.40677966101696,17.204301075268816,85.42372881355932,17.204301075268816C86.4406779661017,17.204301075268816,87.45762711864407,14.241338112305852,88.47457627118645,14.241338112305852C89.49152542372882,14.241338112305852,90.50847457627118,15.667064914376759,91.52542372881355,17.204301075268816C92.54237288135593,18.741537236160895,93.55932203389831,23.464755077658303,94.57627118644069,23.464755077658303C95.59322033898306,23.464755077658303,96.61016949152543,15.531660692951018,97.62711864406779,15.531660692951018C98.64406779661016,15.531660692951018,99.66101694915254,16.248506571087216,100.6779661016949,16.248506571087216C101.69491525423729,16.248506571087216,102.71186440677965,5.925925925925926,103.72881355932203,5.925925925925926C104.7457627118644,5.925925925925926,105.76271186440678,26.18080446037438,106.77966101694915,31.708482676224612C107.79661016949153,37.23616089207487,108.8135593220339,40,109.83050847457628,40C110.84745762711864,40,111.86440677966102,16.025487853444844,112.88135593220339,15.961768219832738C113.89830508474576,15.89804858622063,114.91525423728814,15.929908403026685,115.9322033898305,15.866188769414578C116.94915254237289,15.80246913580247,117.96610169491525,10.82437275985663,118.98305084745763,10.82437275985663C120,10.82437275985663,121.01694915254237,15.603345280764636,122.03389830508473,15.603345280764636C123.05084745762711,15.603345280764636,124.0677966101695,13.671843886897665,125.08474576271188,11.660692951015532C126.10169491525424,9.649542015133417,127.11864406779662,3.5364396654719243,128.135593220339,3.5364396654719243C129.15254237288136,3.5364396654719243,130.16949152542372,15.412186379928317,131.1864406779661,15.412186379928317C132.20338983050846,15.412186379928317,133.22033898305085,7.287933094384709,134.23728813559322,7.287933094384709C135.25423728813558,7.287933094384709,136.27118644067798,10.203106332138589,137.28813559322035,10.203106332138589C138.3050847457627,10.203106332138589,139.3220338983051,2.1505376344086002,140.33898305084747,2.1505376344086002C141.35593220338984,2.1505376344086002,142.3728813559322,15.292712066905615,143.38983050847457,15.292712066905615C144.40677966101694,15.292712066905615,145.42372881355934,3.584229390681002,146.4406779661017,3.584229390681002C147.45762711864407,3.584229390681002,148.47457627118644,7.694145758661888,149.4915254237288,7.694145758661888C150.50847457627117,7.694145758661888,151.52542372881356,2.4611708482676242,152.54237288135593,2.4611708482676242C153.5593220338983,2.4611708482676242,154.5762711864407,5.4958183990442055,155.59322033898306,5.4958183990442055C156.61016949152543,5.4958183990442055,157.6271186440678,5.471923536439665,158.64406779661016,5.471923536439665C159.66101694915253,5.471923536439665,160.67796610169492,14.050179211469533,161.6949152542373,17.921146953405017C162.71186440677965,21.7921146953405,163.72881355932205,28.69772998805257,164.74576271186442,28.69772998805257C165.76271186440678,28.69772998805257,166.77966101694915,18.8410991636798,167.79661016949152,15.364396654719235C168.81355932203388,11.887694145758637,169.83050847457628,7.837514934289129,170.84745762711864,7.837514934289129C171.864406779661,7.837514934289129,172.8813559322034,16.152927120669055,173.89830508474577,16.152927120669055C174.91525423728814,16.152927120669055,175.93220338983053,13.739545997610513,176.9491525423729,13.739545997610513C177.96610169491527,13.739545997610513,178.98305084745763,15.686977299880526,180,17.63440860215054L180,40C178.98305084745763,40,177.96610169491527,40,176.9491525423729,40C175.93220338983053,40,174.91525423728814,40,173.89830508474577,40C172.8813559322034,40,171.864406779661,40,170.84745762711864,40C169.83050847457628,40,168.81355932203388,40,167.79661016949152,40C166.77966101694915,40,165.76271186440678,40,164.74576271186442,40C163.72881355932205,40,162.71186440677965,40,161.6949152542373,40C160.67796610169492,40,159.66101694915253,40,158.64406779661016,40C157.6271186440678,40,156.61016949152543,40,155.59322033898306,40C154.5762711864407,40,153.5593220338983,40,152.54237288135593,40C151.52542372881356,40,150.50847457627117,40,149.4915254237288,40C148.47457627118644,40,147.45762711864407,40,146.4406779661017,40C145.42372881355934,40,144.40677966101694,40,143.38983050847457,40C142.3728813559322,40,141.35593220338984,40,140.33898305084747,40C139.3220338983051,40,138.3050847457627,40,137.28813559322035,40C136.27118644067798,40,135.25423728813558,40,134.23728813559322,40C133.22033898305085,40,132.20338983050846,40,131.1864406779661,40C130.16949152542372,40,129.15254237288136,40,128.135593220339,40C127.11864406779662,40,126.10169491525424,40,125.08474576271188,40C124.0677966101695,40,123.05084745762711,40,122.03389830508473,40C121.01694915254237,40,120,40,118.98305084745763,40C117.96610169491525,40,116.94915254237289,40,115.9322033898305,40C114.91525423728814,40,113.89830508474576,40,112.88135593220339,40C111.86440677966102,40,110.84745762711864,40,109.83050847457628,40C108.8135593220339,40,107.79661016949153,40,106.77966101694915,40C105.76271186440678,40,104.7457627118644,40,103.72881355932203,40C102.71186440677965,40,101.69491525423729,40,100.6779661016949,40C99.66101694915254,40,98.64406779661016,40,97.62711864406779,40C96.61016949152543,40,95.59322033898306,40,94.57627118644069,40C93.55932203389831,40,92.54237288135593,40,91.52542372881355,40C90.50847457627118,40,89.49152542372882,40,88.47457627118645,40C87.45762711864407,40,86.4406779661017,40,85.42372881355932,40C84.40677966101696,40,83.38983050847457,40,82.37288135593221,40C81.35593220338983,40,80.33898305084746,40,79.32203389830508,40C78.30508474576271,40,77.28813559322033,40,76.27118644067797,40C75.2542372881356,40,74.23728813559322,40,73.22033898305085,40C72.20338983050848,40,71.1864406779661,40,70.16949152542374,40C69.15254237288136,40,68.13559322033899,40,67.11864406779661,40C66.10169491525424,40,65.08474576271186,40,64.0677966101695,40C63.05084745762712,40,62.03389830508474,40,61.01694915254237,40C59.99999999999999,40,58.983050847457626,40,57.96610169491525,40C56.94915254237288,40,55.93220338983051,40,54.91525423728814,40C53.898305084745765,40,52.88135593220339,40,51.86440677966102,40C50.847457627118644,40,49.83050847457627,40,48.813559322033896,40C47.79661016949152,40,46.77966101694915,40,45.762711864406775,40C44.7457627118644,40,43.728813559322035,40,42.71186440677966,40C41.69491525423729,40,40.67796610169491,40,39.66101694915254,40C38.644067796610166,40,37.6271186440678,40,36.610169491525426,40C35.59322033898305,40,34.57627118644068,40,33.559322033898304,40C32.54237288135593,40,31.525423728813557,40,30.508474576271183,40C29.491525423728813,40,28.47457627118644,40,27.45762711864407,40C26.440677966101696,40,25.423728813559322,40,24.406779661016948,40C23.389830508474574,40,22.372881355932204,40,21.35593220338983,40C20.338983050847457,40,19.322033898305087,40,18.305084745762713,40C17.28813559322034,40,16.271186440677965,40,15.254237288135592,40C14.23728813559322,40,13.220338983050846,40,12.203389830508474,40C11.186440677966102,40,10.169491525423728,40,9.152542372881356,40C8.135593220338983,40,7.11864406779661,40,6.101694915254237,40C5.084745762711864,40,4.067796610169491,40,3.0508474576271185,40C2.0338983050847457,40,1.0169491525423728,40,0,40Z"></path><path class="line" stroke="black" fill="none" d="M0,23.847072879330945C1.0169491525423728,24.002389486260455,2.0338983050847457,24.157706093189965,3.0508474576271185,24.157706093189965C4.067796610169491,24.157706093189965,5.084745762711864,22.700119474313027,6.101694915254237,22.700119474313027C7.11864406779661,22.700119474313027,8.135593220338983,24.635603345280764,9.152542372881356,24.635603345280764C10.169491525423728,24.635603345280764,11.186440677966102,24.03823178016726,12.203389830508474,23.67980884109916C13.220338983050846,23.32138590203106,14.23728813559322,22.485065710872163,15.254237288135592,22.485065710872163C16.271186440677965,22.485065710872163,17.28813559322034,27.26403823178017,18.305084745762713,27.26403823178017C19.322033898305087,27.26403823178017,20.338983050847457,22.054958183990443,21.35593220338983,22.054958183990443C22.372881355932204,22.054958183990443,23.389830508474574,23.178016726403822,24.406779661016948,23.178016726403822C25.423728813559322,23.178016726403822,26.440677966101696,23.07447232178415,27.45762711864407,22.867383512544805C28.47457627118644,22.66029470330546,29.491525423728813,21.003584229390682,30.508474576271183,21.003584229390682C31.525423728813557,21.003584229390682,32.54237288135593,21.95937873357228,33.559322033898304,21.95937873357228C34.57627118644068,21.95937873357228,35.59322033898305,21.696535244922337,36.610169491525426,21.696535244922337C37.6271186440678,21.696535244922337,38.644067796610166,22.1505376344086,39.66101694915254,22.1505376344086C40.67796610169491,22.1505376344086,41.69491525423729,21.93548387096774,42.71186440677966,21.93548387096774C43.728813559322035,21.93548387096774,44.7457627118644,22.1505376344086,45.762711864406775,22.1505376344086C46.77966101694915,22.1505376344086,47.79661016949152,22.12664277180406,48.813559322033896,22.078853046594983C49.83050847457627,22.031063321385904,50.847457627118644,21.6726403823178,51.86440677966102,21.6726403823178C52.88135593220339,21.6726403823178,53.898305084745765,22.867383512544805,54.91525423728814,22.867383512544805C55.93220338983051,22.867383512544805,56.94915254237288,21.983273596176822,57.96610169491525,21.983273596176822C58.983050847457626,21.983273596176822,59.99999999999999,22.449223416965353,61.01694915254237,22.65232974910394C62.03389830508474,22.855436081242534,63.05084745762712,23.201911589008365,64.0677966101695,23.201911589008365C65.08474576271186,23.201911589008365,66.10169491525424,20.60533651931501,67.11864406779661,19.4026284348865C68.13559322033899,18.19992035045798,69.15254237288136,15.985663082437277,70.16949152542374,15.985663082437277C71.1864406779661,15.985663082437277,72.20338983050848,16.91756272401434,73.22033898305085,17.371565113500598C74.23728813559322,17.825567502986857,75.2542372881356,18.518518518518523,76.27118644067797,18.70967741935484C77.28813559322033,18.900836320191157,78.30508474576271,18.996415770609318,79.32203389830508,18.996415770609318C80.33898305084746,18.996415770609318,81.35593220338983,15.364396654719235,82.37288135593221,15.364396654719235C83.38983050847457,15.364396654719235,84.40677966101696,17.204301075268816,85.42372881355932,17.204301075268816C86.4406779661017,17.204301075268816,87.45762711864407,14.241338112305852,88.47457627118645,14.241338112305852C89.49152542372882,14.241338112305852,90.50847457627118,15.667064914376759,91.52542372881355,17.204301075268816C92.54237288135593,18.741537236160895,93.55932203389831,23.464755077658303,94.57627118644069,23.464755077658303C95.59322033898306,23.464755077658303,96.61016949152543,15.531660692951018,97.62711864406779,15.531660692951018C98.64406779661016,15.531660692951018,99.66101694915254,16.248506571087216,100.6779661016949,16.248506571087216C101.69491525423729,16.248506571087216,102.71186440677965,5.925925925925926,103.72881355932203,5.925925925925926C104.7457627118644,5.925925925925926,105.76271186440678,26.18080446037438,106.77966101694915,31.708482676224612C107.79661016949153,37.23616089207487,108.8135593220339,40,109.83050847457628,40C110.84745762711864,40,111.86440677966102,16.025487853444844,112.88135593220339,15.961768219832738C113.89830508474576,15.89804858622063,114.91525423728814,15.929908403026685,115.9322033898305,15.866188769414578C116.94915254237289,15.80246913580247,117.96610169491525,10.82437275985663,118.98305084745763,10.82437275985663C120,10.82437275985663,121.01694915254237,15.603345280764636,122.03389830508473,15.603345280764636C123.05084745762711,15.603345280764636,124.0677966101695,13.671843886897665,125.08474576271188,11.660692951015532C126.10169491525424,9.649542015133417,127.11864406779662,3.5364396654719243,128.135593220339,3.5364396654719243C129.15254237288136,3.5364396654719243,130.16949152542372,15.412186379928317,131.1864406779661,15.412186379928317C132.20338983050846,15.412186379928317,133.22033898305085,7.287933094384709,134.23728813559322,7.287933094384709C135.25423728813558,7.287933094384709,136.27118644067798,10.203106332138589,137.28813559322035,10.203106332138589C138.3050847457627,10.203106332138589,139.3220338983051,2.1505376344086002,140.33898305084747,2.1505376344086002C141.35593220338984,2.1505376344086002,142.3728813559322,15.292712066905615,143.38983050847457,15.292712066905615C144.40677966101694,15.292712066905615,145.42372881355934,3.584229390681002,146.4406779661017,3.584229390681002C147.45762711864407,3.584229390681002,148.47457627118644,7.694145758661888,149.4915254237288,7.694145758661888C150.50847457627117,7.694145758661888,151.52542372881356,2.4611708482676242,152.54237288135593,2.4611708482676242C153.5593220338983,2.4611708482676242,154.5762711864407,5.4958183990442055,155.59322033898306,5.4958183990442055C156.61016949152543,5.4958183990442055,157.6271186440678,5.471923536439665,158.64406779661016,5.471923536439665C159.66101694915253,5.471923536439665,160.67796610169492,14.050179211469533,161.6949152542373,17.921146953405017C162.71186440677965,21.7921146953405,163.72881355932205,28.69772998805257,164.74576271186442,28.69772998805257C165.76271186440678,28.69772998805257,166.77966101694915,18.8410991636798,167.79661016949152,15.364396654719235C168.81355932203388,11.887694145758637,169.83050847457628,7.837514934289129,170.84745762711864,7.837514934289129C171.864406779661,7.837514934289129,172.8813559322034,16.152927120669055,173.89830508474577,16.152927120669055C174.91525423728814,16.152927120669055,175.93220338983053,13.739545997610513,176.9491525423729,13.739545997610513C177.96610169491527,13.739545997610513,178.98305084745763,15.686977299880526,180,17.63440860215054"></path><path class="axis-ceiling" stroke-width="1" stroke="black" fill="none" d="M175,0L180,0"></path><text class="axis-ceiling-label" font-family="sans-serif" text-anchor="end" font-size="10px" x="170" y="2.5">1000</text></g></svg>