<svg xmlns="http://www.w3.org/2000/svg" viewBox="0 0 180 60"><g transform="translate(0,20)"><path class="area" fill="rgba(0, 0, 0, 0.2)" d="M0,38C58.31325301204819,37,116.62650602409639,36,174.93975903614458,32C175.18072289156626,31.983471074380166,175.42168674698797,28.00000000000004,175.66265060240966,26C175.90361445783134,24.00000000000004,176.14457831325302,22,176.3855421686747,20C176.6265060240964,18,176.86746987951807,15.333333333333332,177.10843373493975,14C177.34939759036143,12.666666666666668,177.59036144578312,12.833333333333323,177.8313253012048,12.000000000000002C178.55421686746988,9.499999999999973,179.27710843373492,4.749999999999988,180,0L180,40C179.27710843373492,40,178.55421686746988,40,177.8313253012048,40C177.59036144578312,40,177.34939759036143,40,177.10843373493975,40C176.86746987951807,40,176.6265060240964,40,176.3855421686747,40C176.14457831325302,40,175.90361445783134,40,175.66265060240966,40C175.42168674698797,40,175.18072289156626,40,174.93975903614458,40C116.62650602409639,40,58.31325301204819,40,0,40Z"></path><path class="line" stroke="black" fill="none" d="M0,38C58.31325301204819,37,116.62650602409639,36,174.93975903614458,32C175.18072289156626,31.983471074380166,175.42168674698797,28.00000000000004,175.66265060240966,26C175.90361445783134,24.00000000000004,176.14457831325302,22,176.3855421686747,20C176.6265060240964,18,176.86746987951807,15.333333333333332,177.10843373493975,14C177.34939759036143,12.666666666666668,177.59036144578312,12.833333333333323,177.8313253012048,12.000000000000002C178.55421686746988,9.499999999999973,179.27710843373492,4.749999999999988,180,0"></path><path class="axis-ceiling" stroke-width="1" stroke="black" fill="none" d="M175,0L180,0"></path><text class="axis-ceiling-label" font-family="sans-serif" text-anchor="end" font-size="10px" x="170" y="2.5">20</text></g></svg>