<svg xmlns="http://www.w3.org/2000/svg" viewBox="0 0 180 60"><g transform="translate(0,20)"><path class="area" fill="rgba(0, 0, 0, 0.2)" d="M0,30.644444444444442C1.0169491525423728,30.96437037037037,2.0338983050847457,31.284296296296297,3.0508474576271185,31.508444444444446C4.067796610169491,31.732592592592596,5.084745762711864,31.80311111111111,6.101694915254237,31.98933333333333C7.11864406779661,32.175555555555555,8.135593220338983,32.424,9.152542372881356,32.62577777777778C10.169491525423728,32.827555555555556,11.186440677966102,33.02444444444444,12.203389830508474,33.199999999999996C13.220338983050846,33.37555555555555,14.23728813559322,33.52,15.254237288135592,33.67911111111111C16.271186440677965,33.83822222222222,17.28813559322034,34.03155555555555,18.305084745762713,34.154666666666664C19.322033898305087,34.27777777777777,20.338983050847457,34.330370370370375,21.35593220338983,34.41777777777778C22.372881355932204,34.505185185185184,23.389830508474574,34.6162962962963,24.406779661016948,34.67911111111111C25.423728813559322,34.741925925925926,26.440677966101696,34.77807407407407,27.45762711864407,34.794666666666664C28.47457627118644,34.81125925925926,29.491525423728813,34.81955555555555,30.508474576271183,34.81955555555555C31.525423728813557,34.81955555555555,32.54237288135593,34.80474074074074,33.559322033898304,34.775111111111116C34.57627118644068,34.74548148148149,35.59322033898305,34.598222222222226,36.610169491525426,34.584C37.6271186440678,34.56977777777778,38.644067796610166,34.562666666666665,39.66101694915254,34.562666666666665C40.67796610169491,34.562666666666665,41.69491525423729,34.56888888888889,42.71186440677966,34.56888888888889C43.728813559322035,34.56888888888889,44.7457627118644,34.56355555555556,45.762711864406775,34.55288888888889C46.77966101694915,34.542222222222215,47.79661016949152,34.03970370370371,48.813559322033896,33.925333333333334C49.83050847457627,33.81096296296296,50.847457627118644,33.84948148148148,51.86440677966102,33.75377777777778C52.88135593220339,33.65807407407407,53.898305084745765,33.45392592592592,54.91525423728814,33.35111111111111C55.93220338983051,33.248296296296296,56.94915254237288,33.24014814814815,57.96610169491525,33.13688888888889C58.983050847457626,33.03362962962963,59.99999999999999,32.86651851851852,61.01694915254237,32.73155555555555C62.03389830508474,32.596592592592586,63.05084745762712,32.46666666666666,64.0677966101695,32.32711111111111C65.08474576271186,32.187555555555555,66.10169491525424,32.01777777777778,67.11864406779661,31.894222222222226C68.13559322033899,31.77066666666667,69.15254237288136,31.726666666666667,70.16949152542374,31.58577777777778C71.1864406779661,31.44488888888889,72.20338983050848,31.301037037037037,73.22033898305085,31.04888888888889C74.23728813559322,30.79674074074074,75.2542372881356,30.365185185185183,76.27118644067797,30.072888888888887C77.28813559322033,29.78059259259259,78.30508474576271,29.518074074074075,79.32203389830508,29.29511111111111C80.33898305084746,29.07214814814815,81.35593220338983,28.95614814814815,82.37288135593221,28.73511111111111C83.38983050847457,28.514074074074074,84.40677966101696,28.250370370370366,85.42372881355932,27.968888888888888C86.4406779661017,27.687407407407406,87.45762711864407,27.337777777777784,88.47457627118645,27.046222222222227C89.49152542372882,26.754666666666672,90.50847457627118,26.592148148148144,91.52542372881355,26.219555555555555C92.54237288135593,25.846962962962962,93.55932203389831,25.294666666666675,94.57627118644069,24.81066666666667C95.59322033898306,24.32666666666667,96.61016949152543,23.887407407407405,97.62711864406779,23.315555555555555C98.64406779661016,22.7437037037037,99.66101694915254,21.936,100.6779661016949,21.379555555555555C101.69491525423729,20.82311111111111,102.71186440677965,20.441629629629627,103.72881355932203,19.976888888888887C104.7457627118644,19.512148148148146,105.76271186440678,19.128,106.77966101694915,18.59111111111111C107.79661016949153,18.054222222222222,108.8135593220339,16.891851851851847,109.83050847457628,16.755555555555553C110.84745762711864,16.61925925925926,111.86440677966102,16.687407407407406,112.88135593220339,16.551111111111112C113.89830508474576,16.414814814814818,114.91525423728814,15.421925925925924,115.9322033898305,14.885333333333332C116.94915254237289,14.348740740740737,117.96610169491525,13.872296296296296,118.98305084745763,13.331555555555553C120,12.790814814814816,121.01694915254237,12.120148148148145,122.03389830508473,11.640888888888888C123.05084745762711,11.161629629629624,124.0677966101695,10.803703703703704,125.08474576271188,10.456C126.10169491525424,10.108296296296299,127.11864406779662,9.896592592592592,128.135593220339,9.554666666666666C129.15254237288136,9.212740740740742,130.16949152542372,8.786222222222221,131.1864406779661,8.404444444444445C132.20338983050846,8.022666666666666,133.22033898305085,7.628592592592592,134.23728813559322,7.263999999999999C135.25423728813558,6.8994074074074065,136.27118644067798,6.570962962962963,137.28813559322035,6.21688888888889C138.3050847457627,5.862814814814816,139.3220338983051,5.4616296296296305,140.33898305084747,5.139555555555555C141.35593220338984,4.817481481481483,142.3728813559322,4.284444444444446,143.38983050847457,4.284444444444446C144.40677966101694,4.284444444444446,145.42372881355934,5.177925925925925,146.4406779661017,5.462222222222222C147.45762711864407,5.746518518518515,148.47457627118644,5.911999999999999,149.4915254237288,5.990222222222221C150.50847457627117,6.068444444444443,151.52542372881356,6.107555555555555,152.54237288135593,6.107555555555555C153.5593220338983,6.107555555555555,154.5762711864407,6.052148148148147,155.59322033898306,5.941333333333332C156.61016949152543,5.8305185185185175,157.6271186440678,5.38074074074074,158.64406779661016,5.157333333333334C159.66101694915253,4.933925925925926,160.67796610169492,4.60088888888889,161.6949152542373,4.60088888888889C162.71186440677965,4.60088888888889,163.72881355932205,5.046222222222221,164.74576271186442,5.300444444444445C165.76271186440678,5.554666666666667,166.77966101694915,5.901037037037039,167.79661016949152,6.126222222222224C168.81355932203388,6.351407407407411,169.83050847457628,6.627851851851855,170.84745762711864,6.651555555555557C171.864406779661,6.675259259259259,172.8813559322034,6.6634074074074086,173.89830508474577,6.68711111111111C174.91525423728814,6.710814814814812,175.93220338983053,6.7967407407407405,176.9491525423729,7.016C177.96610169491527,7.235259259259258,178.98305084745763,8.183407407407406,180,9.131555555555554L180,40C178.98305084745763,40,177.96610169491527,40,176.9491525423729,40C175.93220338983053,40,174.91525423728814,40,173.89830508474577,40C172.8813559322034,40,171.864406779661,40,170.84745762711864,40C169.83050847457628,40,168.81355932203388,40,167.79661016949152,40C166.77966101694915,40,165.76271186440678,40,164.74576271186442,40C163.72881355932205,40,162.71186440677965,40,161.6949152542373,40C160.67796610169492,40,159.66101694915253,40,158.64406779661016,40C157.6271186440678,40,156.61016949152543,40,155.59322033898306,40C154.5762711864407,40,153.5593220338983,40,152.54237288135593,40C151.52542372881356,40,150.50847457627117,40,149.4915254237288,40C148.47457627118644,40,147.45762711864407,40,146.4406779661017,40C145.42372881355934,40,144.40677966101694,40,143.38983050847457,40C142.3728813559322,40,141.35593220338984,40,140.33898305084747,40C139.3220338983051,40,138.3050847457627,40,137.28813559322035,40C136.27118644067798,40,135.25423728813558,40,134.23728813559322,40C133.22033898305085,40,132.20338983050846,40,131.1864406779661,40C130.16949152542372,40,129.15254237288136,40,128.135593220339,40C127.11864406779662,40,126.10169491525424,40,125.08474576271188,40C124.0677966101695,40,123.05084745762711,40,122.03389830508473,40C121.01694915254237,40,120,40,118.98305084745763,40C117.96610169491525,40,116.94915254237289,40,115.9322033898305,40C114.91525423728814,40,113.89830508474576,40,112.88135593220339,40C111.86440677966102,40,110.84745762711864,40,109.83050847457628,40C108.8135593220339,40,107.79661016949153,40,106.77966101694915,40C105.76271186440678,40,104.7457627118644,40,103.72881355932203,40C102.71186440677965,40,101.69491525423729,40,100.6779661016949,40C99.66101694915254,40,98.64406779661016,40,97.62711864406779,40C96.61016949152543,40,95.59322033898306,40,94.57627118644069,40C93.55932203389831,40,92.54237288135593,40,91.52542372881355,40C90.50847457627118,40,89.49152542372882,40,88.47457627118645,40C87.45762711864407,40,86.4406779661017,40,85.42372881355932,40C84.40677966101696,40,83.38983050847457,40,82.37288135593221,40C81.35593220338983,40,80.33898305084746,40,79.32203389830508,40C78.30508474576271,40,77.28813559322033,40,76.27118644067797,40C75.2542372881356,40,74.23728813559322,40,73.22033898305085,40C72.20338983050848,40,71.1864406779661,40,70.16949152542374,40C69.15254237288136,40,68.13559322033899,40,67.11864406779661,40C66.10169491525424,40,65.08474576271186,40,64.0677966101695,40C63.05084745762712,40,62.03389830508474,40,61.01694915254237,40C59.99999999999999,40,58.983050847457626,40,57.96610169491525,40C56.94915254237288,40,55.93220338983051,40,54.91525423728814,40C53.898305084745765,40,52.88135593220339,40,51.86440677966102,40C50.847457627118644,40,49.83050847457627,40,48.813559322033896,40C47.79661016949152,40,46.77966101694915,40,45.762711864406775,40C44.7457627118644,40,43.728813559322035,40,42.71186440677966,40C41.69491525423729,40,40.67796610169491,40,39.66101694915254,40C38.644067796610166,40,37.6271186440678,40,36.610169491525426,40C35.59322033898305,40,34.57627118644068,40,33.559322033898304,40C32.54237288135593,40,31.525423728813557,40,30.508474576271183,40C29.491525423728813,40,28.47457627118644,40,27.45762711864407,40C26.440677966101696,40,25.423728813559322,40,24.406779661016948,40C23.389830508474574,40,22.372881355932204,40,21.35593220338983,40C20.338983050847457,40,19.322033898305087,40,18.305084745762713,40C17.28813559322034,40,16.271186440677965,40,15.254237288135592,40C14.23728813559322,40,13.220338983050846,40,12.203389830508474,40C11.186440677966102,40,10.169491525423728,40,9.152542372881356,40C8.135593220338983,40,7.11864406779661,40,6.101694915254237,40C5.084745762711864,40,4.067796610169491,40,3.0508474576271185,40C2.0338983050847457,40,1.0169491525423728,40,0,40Z"></path><path class="line" stroke="black" fill="none" d="M0,30.644444444444442C1.0169491525423728,30.96437037037037,2.0338983050847457,31.284296296296297,3.0508474576271185,31.508444444444446C4.067796610169491,31.732592592592596,5.084745762711864,31.80311111111111,6.101694915254237,31.98933333333333C7.11864406779661,32.175555555555555,8.135593220338983,32.424,9.152542372881356,32.62577777777778C10.169491525423728,32.827555555555556,11.186440677966102,33.02444444444444,12.203389830508474,33.199999999999996C13.220338983050846,33.37555555555555,14.23728813559322,33.52,15.254237288135592,33.67911111111111C16.271186440677965,33.83822222222222,17.28813559322034,34.03155555555555,18.305084745762713,34.154666666666664C19.322033898305087,34.27777777777777,20.338983050847457,34.330370370370375,21.35593220338983,34.41777777777778C22.372881355932204,34.505185185185184,23.389830508474574,34.6162962962963,24.406779661016948,34.67911111111111C25.423728813559322,34.741925925925926,26.440677966101696,34.77807407407407,27.45762711864407,34.794666666666664C28.47457627118644,34.81125925925926,29.491525423728813,34.81955555555555,30.508474576271183,34.81955555555555C31.525423728813557,34.81955555555555,32.54237288135593,34.80474074074074,33.559322033898304,34.775111111111116C34.57627118644068,34.74548148148149,35.59322033898305,34.598222222222226,36.610169491525426,34.584C37.6271186440678,34.56977777777778,38.644067796610166,34.562666666666665,39.66101694915254,34.562666666666665C40.67796610169491,34.562666666666665,41.69491525423729,34.56888888888889,42.71186440677966,34.56888888888889C43.728813559322035,34.56888888888889,44.7457627118644,34.56355555555556,45.762711864406775,34.55288888888889C46.77966101694915,34.542222222222215,47.79661016949152,34.03970370370371,48.813559322033896,33.925333333333334C49.83050847457627,33.81096296296296,50.847457627118644,33.84948148148148,51.86440677966102,33.75377777777778C52.88135593220339,33.65807407407407,53.898305084745765,33.45392592592592,54.91525423728814,33.35111111111111C55.93220338983051,33.248296296296296,56.94915254237288,33.24014814814815,57.96610169491525,33.13688888888889C58.983050847457626,33.03362962962963,59.99999999999999,32.86651851851852,61.01694915254237,32.73155555555555C62.03389830508474,32.596592592592586,63.05084745762712,32.46666666666666,64.0677966101695,32.32711111111111C65.08474576271186,32.187555555555555,66.10169491525424,32.01777777777778,67.11864406779661,31.894222222222226C68.13559322033899,31.77066666666667,69.15254237288136,31.726666666666667,70.16949152542374,31.58577777777778C71.1864406779661,31.44488888888889,72.20338983050848,31.301037037037037,73.22033898305085,31.04888888888889C74.23728813559322,30.79674074074074,75.2542372881356,30.365185185185183,76.27118644067797,30.072888888888887C77.28813559322033,29.78059259259259,78.30508474576271,29.518074074074075,79.32203389830508,29.29511111111111C80.33898305084746,29.07214814814815,81.35593220338983,28.95614814814815,82.37288135593221,28.73511111111111C83.38983050847457,28.514074074074074,84.40677966101696,28.250370370370366,85.42372881355932,27.968888888888888C86.4406779661017,27.687407407407406,87.45762711864407,27.337777777777784,88.47457627118645,27.046222222222227C89.49152542372882,26.754666666666672,90.50847457627118,26.592148148148144,91.52542372881355,26.219555555555555C92.54237288135593,25.846962962962962,93.55932203389831,25.294666666666675,94.57627118644069,24.81066666666667C95.59322033898306,24.32666666666667,96.61016949152543,23.887407407407405,97.62711864406779,23.315555555555555C98.64406779661016,22.7437037037037,99.66101694915254,21.936,100.6779661016949,21.379555555555555C101.69491525423729,20.82311111111111,102.71186440677965,20.441629629629627,103.72881355932203,19.976888888888887C104.7457627118644,19.512148148148146,105.76271186440678,19.128,106.77966101694915,18.59111111111111C107.79661016949153,18.054222222222222,108.8135593220339,16.891851851851847,109.83050847457628,16.755555555555553C110.84745762711864,16.61925925925926,111.86440677966102,16.687407407407406,112.88135593220339,16.551111111111112C113.89830508474576,16.414814814814818,114.91525423728814,15.421925925925924,115.9322033898305,14.885333333333332C116.94915254237289,14.348740740740737,117.96610169491525,13.872296296296296,118.98305084745763,13.331555555555553C120,12.790814814814816,121.01694915254237,12.120148148148145,122.03389830508473,11.640888888888888C123.05084745762711,11.161629629629624,124.0677966101695,10.803703703703704,125.08474576271188,10.456C126.10169491525424,10.108296296296299,127.11864406779662,9.896592592592592,128.135593220339,9.554666666666666C129.15254237288136,9.212740740740742,130.16949152542372,8.786222222222221,131.1864406779661,8.404444444444445C132.20338983050846,8.022666666666666,133.22033898305085,7.628592592592592,134.23728813559322,7.263999999999999C135.25423728813558,6.8994074074074065,136.27118644067798,6.570962962962963,137.28813559322035,6.21688888888889C138.3050847457627,5.862814814814816,139.3220338983051,5.4616296296296305,140.33898305084747,5.139555555555555C141.35593220338984,4.817481481481483,142.3728813559322,4.284444444444446,143.38983050847457,4.284444444444446C144.40677966101694,4.284444444444446,145.42372881355934,5.177925925925925,146.4406779661017,5.462222222222222C147.45762711864407,5.746518518518515,148.47457627118644,5.911999999999999,149.4915254237288,5.990222222222221C150.50847457627117,6.068444444444443,151.52542372881356,6.107555555555555,152.54237288135593,6.107555555555555C153.5593220338983,6.107555555555555,154.5762711864407,6.052148148148147,155.59322033898306,5.941333333333332C156.61016949152543,5.8305185185185175,157.6271186440678,5.38074074074074,158.64406779661016,5.157333333333334C159.66101694915253,4.933925925925926,160.67796610169492,4.60088888888889,161.6949152542373,4.60088888888889C162.71186440677965,4.60088888888889,163.72881355932205,5.046222222222221,164.74576271186442,5.300444444444445C165.76271186440678,5.554666666666667,166.77966101694915,5.901037037037039,167.79661016949152,6.126222222222224C168.81355932203388,6.351407407407411,169.83050847457628,6.627851851851855,170.84745762711864,6.651555555555557C171.864406779661,6.675259259259259,172.8813559322034,6.6634074074074086,173.89830508474577,6.68711111111111C174.91525423728814,6.710814814814812,175.93220338983053,6.7967407407407405,176.9491525423729,7.016C177.96610169491527,7.235259259259258,178.98305084745763,8.183407407407406,180,9.131555555555554"></path><path class="axis-ceiling" stroke-width="1" stroke="black" fill="none" d="M175,0L180,0"></path><text class="axis-ceiling-label" font-family="sans-serif" text-anchor="end" font-size="10px" x="170" y="2.5">45000</text></g></svg>