<svg xmlns="http://www.w3.org/2000/svg" viewBox="0 0 180 60"><g transform="translate(0,20)"><path class="area" fill="rgba(0, 0, 0, 0.2)" d="M0,29.956C1.0169491525423728,29.833833333333335,2.0338983050847457,29.711666666666666,3.0508474576271185,29.588C4.067796610169491,29.464333333333336,5.084745762711864,29.32766666666667,6.101694915254237,29.214000000000002C7.11864406779661,29.100333333333335,8.135593220338983,29.064333333333334,9.152542372881356,28.906C10.169491525423728,28.747666666666664,11.186440677966102,28.52733333333333,12.203389830508474,28.264C13.220338983050846,28.000666666666667,14.23728813559322,27.655999999999995,15.254237288135592,27.325999999999997C16.271186440677965,26.995999999999995,17.28813559322034,26.642333333333333,18.305084745762713,26.284C19.322033898305087,25.925666666666665,20.338983050847457,25.562666666666665,21.35593220338983,25.176C22.372881355932204,24.78933333333333,23.389830508474574,24.369,24.406779661016948,23.964C25.423728813559322,23.558999999999997,26.440677966101696,23.167666666666666,27.45762711864407,22.746C28.47457627118644,22.324333333333332,29.491525423728813,21.86333333333333,30.508474576271183,21.433999999999997C31.525423728813557,21.004666666666665,32.54237288135593,20.616999999999997,33.559322033898304,20.169999999999998C34.57627118644068,19.723,35.59322033898305,19.227999999999998,36.610169491525426,18.752C37.6271186440678,18.276,38.644067796610166,17.803,39.66101694915254,17.314C40.67796610169491,16.825,41.69491525423729,16.28533333333333,42.71186440677966,15.817999999999998C43.728813559322035,15.350666666666665,44.7457627118644,14.919333333333334,45.762711864406775,14.510000000000002C46.77966101694915,14.100666666666667,47.79661016949152,13.720999999999998,48.813559322033896,13.361999999999998C49.83050847457627,13.002999999999998,50.847457627118644,12.690999999999997,51.86440677966102,12.355999999999998C52.88135593220339,12.020999999999999,53.898305084745765,11.659333333333336,54.91525423728814,11.352000000000002C55.93220338983051,11.04466666666667,56.94915254237288,10.776000000000002,57.96610169491525,10.512C58.983050847457626,10.248,59.99999999999999,9.991333333333332,61.01694915254237,9.767999999999999C62.03389830508474,9.544666666666664,63.05084745762712,9.366333333333332,64.0677966101695,9.171999999999997C65.08474576271186,8.977666666666664,66.10169491525424,8.786666666666664,67.11864406779661,8.601999999999999C68.13559322033899,8.417333333333332,69.15254237288136,8.207333333333333,70.16949152542374,8.064C71.1864406779661,7.920666666666667,72.20338983050848,7.795333333333334,73.22033898305085,7.742C74.23728813559322,7.688666666666666,75.2542372881356,7.662,76.27118644067797,7.662C77.28813559322033,7.662,78.30508474576271,7.752,79.32203389830508,7.867999999999999C80.33898305084746,7.983999999999999,81.35593220338983,8.151666666666664,82.37288135593221,8.357999999999999C83.38983050847457,8.564333333333332,84.40677966101696,8.821333333333335,85.42372881355932,9.106000000000002C86.4406779661017,9.39066666666667,87.45762711864407,9.729666666666668,88.47457627118645,10.066000000000003C89.49152542372882,10.402333333333335,90.50847457627118,10.737666666666671,91.52542372881355,11.124C92.54237288135593,11.510333333333335,93.55932203389831,11.925333333333331,94.57627118644069,12.384C95.59322033898306,12.842666666666664,96.61016949152543,13.364666666666668,97.62711864406779,13.876C98.64406779661016,14.387333333333334,99.66101694915254,14.927333333333333,100.6779661016949,15.451999999999998C101.69491525423729,15.976666666666667,102.71186440677965,16.497,103.72881355932203,17.024C104.7457627118644,17.551000000000002,105.76271186440678,18.08066666666667,106.77966101694915,18.614C107.79661016949153,19.147333333333336,108.8135593220339,19.693333333333335,109.83050847457628,20.224000000000004C110.84745762711864,20.75466666666667,111.86440677966102,21.300333333333338,112.88135593220339,21.798000000000002C113.89830508474576,22.295666666666666,114.91525423728814,22.772333333333332,115.9322033898305,23.209999999999997C116.94915254237289,23.647666666666666,117.96610169491525,24.051999999999996,118.98305084745763,24.424C120,24.796,121.01694915254237,25.122000000000003,122.03389830508473,25.442C123.05084745762711,25.762000000000004,124.0677966101695,26.076,125.08474576271188,26.344C126.10169491525424,26.612,127.11864406779662,26.848,128.135593220339,27.05C129.15254237288136,27.252,130.16949152542372,27.42333333333334,131.1864406779661,27.556000000000004C132.20338983050846,27.688666666666673,133.22033898305085,27.77566666666667,134.23728813559322,27.846000000000004C135.25423728813558,27.916333333333338,136.27118644067798,27.948,137.28813559322035,27.978C138.3050847457627,28.008000000000003,139.3220338983051,28.026,140.33898305084747,28.026C141.35593220338984,28.026,142.3728813559322,28.012666666666668,143.38983050847457,27.986C144.40677966101694,27.959333333333333,145.42372881355934,27.80966666666667,146.4406779661017,27.706C147.45762711864407,27.602333333333334,148.47457627118644,27.49733333333333,149.4915254237288,27.363999999999997C150.50847457627117,27.230666666666664,151.52542372881356,27.059666666666665,152.54237288135593,26.906C153.5593220338983,26.752333333333333,154.5762711864407,26.61766666666667,155.59322033898306,26.442C156.61016949152543,26.266333333333336,157.6271186440678,26.07033333333333,158.64406779661016,25.852C159.66101694915253,25.633666666666667,160.67796610169492,25.39433333333334,161.6949152542373,25.132000000000005C162.71186440677965,24.86966666666667,163.72881355932205,24.54566666666667,164.74576271186442,24.278C165.76271186440678,24.01033333333333,166.77966101694915,23.79633333333333,167.79661016949152,23.525999999999996C168.81355932203388,23.255666666666663,169.83050847457628,22.976666666666667,170.84745762711864,22.656C171.864406779661,22.33533333333333,172.8813559322034,21.98333333333333,173.89830508474577,21.601999999999997C174.91525423728814,21.220666666666663,175.93220338983053,20.788,176.9491525423729,20.368C177.96610169491527,19.948,178.98305084745763,19.515,180,19.082L180,40C178.98305084745763,40,177.96610169491527,40,176.9491525423729,40C175.93220338983053,40,174.91525423728814,40,173.89830508474577,40C172.8813559322034,40,171.864406779661,40,170.84745762711864,40C169.83050847457628,40,168.81355932203388,40,167.79661016949152,40C166.77966101694915,40,165.76271186440678,40,164.74576271186442,40C163.72881355932205,40,162.71186440677965,40,161.6949152542373,40C160.67796610169492,40,159.66101694915253,40,158.64406779661016,40C157.6271186440678,40,156.61016949152543,40,155.59322033898306,40C154.5762711864407,40,153.5593220338983,40,152.54237288135593,40C151.52542372881356,40,150.50847457627117,40,149.4915254237288,40C148.47457627118644,40,147.45762711864407,40,146.4406779661017,40C145.42372881355934,40,144.40677966101694,40,143.38983050847457,40C142.3728813559322,40,141.35593220338984,40,140.33898305084747,40C139.3220338983051,40,138.3050847457627,40,137.28813559322035,40C136.27118644067798,40,135.25423728813558,40,134.23728813559322,40C133.22033898305085,40,132.20338983050846,40,131.1864406779661,40C130.16949152542372,40,129.15254237288136,40,128.135593220339,40C127.11864406779662,40,126.10169491525424,40,125.08474576271188,40C124.0677966101695,40,123.05084745762711,40,122.03389830508473,40C121.01694915254237,40,120,40,118.98305084745763,40C117.96610169491525,40,116.94915254237289,40,115.9322033898305,40C114.91525423728814,40,113.89830508474576,40,112.88135593220339,40C111.86440677966102,40,110.84745762711864,40,109.83050847457628,40C108.8135593220339,40,107.79661016949153,40,106.77966101694915,40C105.76271186440678,40,104.7457627118644,40,103.72881355932203,40C102.71186440677965,40,101.69491525423729,40,100.6779661016949,40C99.66101694915254,40,98.64406779661016,40,97.62711864406779,40C96.61016949152543,40,95.59322033898306,40,94.57627118644069,40C93.55932203389831,40,92.54237288135593,40,91.52542372881355,40C90.50847457627118,40,89.49152542372882,40,88.47457627118645,40C87.45762711864407,40,86.4406779661017,40,85.42372881355932,40C84.40677966101696,40,83.38983050847457,40,82.37288135593221,40C81.35593220338983,40,80.33898305084746,40,79.32203389830508,40C78.30508474576271,40,77.28813559322033,40,76.27118644067797,40C75.2542372881356,40,74.23728813559322,40,73.22033898305085,40C72.20338983050848,40,71.1864406779661,40,70.16949152542374,40C69.15254237288136,40,68.13559322033899,40,67.11864406779661,40C66.10169491525424,40,65.08474576271186,40,64.0677966101695,40C63.05084745762712,40,62.03389830508474,40,61.01694915254237,40C59.99999999999999,40,58.983050847457626,40,57.96610169491525,40C56.94915254237288,40,55.93220338983051,40,54.91525423728814,40C53.898305084745765,40,52.88135593220339,40,51.86440677966102,40C50.847457627118644,40,49.83050847457627,40,48.813559322033896,40C47.79661016949152,40,46.77966101694915,40,45.762711864406775,40C44.7457627118644,40,43.728813559322035,40,42.71186440677966,40C41.69491525423729,40,40.67796610169491,40,39.66101694915254,40C38.644067796610166,40,37.6271186440678,40,36.610169491525426,40C35.59322033898305,40,34.57627118644068,40,33.559322033898304,40C32.54237288135593,40,31.525423728813557,40,30.508474576271183,40C29.491525423728813,40,28.47457627118644,40,27.45762711864407,40C26.440677966101696,40,25.423728813559322,40,24.406779661016948,40C23.389830508474574,40,22.372881355932204,40,21.35593220338983,40C20.338983050847457,40,19.322033898305087,40,18.305084745762713,40C17.28813559322034,40,16.271186440677965,40,15.254237288135592,40C14.23728813559322,40,13.220338983050846,40,12.203389830508474,40C11.186440677966102,40,10.169491525423728,40,9.152542372881356,40C8.135593220338983,40,7.11864406779661,40,6.101694915254237,40C5.084745762711864,40,4.067796610169491,40,3.0508474576271185,40C2.0338983050847457,40,1.0169491525423728,40,0,40Z"></path><path class="line" stroke="black" fill="none" d="M0,29.956C1.0169491525423728,29.833833333333335,2.0338983050847457,29.711666666666666,3.0508474576271185,29.588C4.067796610169491,29.464333333333336,5.084745762711864,29.32766666666667,6.101694915254237,29.214000000000002C7.11864406779661,29.100333333333335,8.135593220338983,29.064333333333334,9.152542372881356,28.906C10.169491525423728,28.747666666666664,11.186440677966102,28.52733333333333,12.203389830508474,28.264C13.220338983050846,28.000666666666667,14.23728813559322,27.655999999999995,15.254237288135592,27.325999999999997C16.271186440677965,26.995999999999995,17.28813559322034,26.642333333333333,18.305084745762713,26.284C19.322033898305087,25.925666666666665,20.338983050847457,25.562666666666665,21.35593220338983,25.176C22.372881355932204,24.78933333333333,23.389830508474574,24.369,24.406779661016948,23.964C25.423728813559322,23.558999999999997,26.440677966101696,23.167666666666666,27.45762711864407,22.746C28.47457627118644,22.324333333333332,29.491525423728813,21.86333333333333,30.508474576271183,21.433999999999997C31.525423728813557,21.004666666666665,32.54237288135593,20.616999999999997,33.559322033898304,20.169999999999998C34.57627118644068,19.723,35.59322033898305,19.227999999999998,36.610169491525426,18.752C37.6271186440678,18.276,38.644067796610166,17.803,39.66101694915254,17.314C40.67796610169491,16.825,41.69491525423729,16.28533333333333,42.71186440677966,15.817999999999998C43.728813559322035,15.350666666666665,44.7457627118644,14.919333333333334,45.762711864406775,14.510000000000002C46.77966101694915,14.100666666666667,47.79661016949152,13.720999999999998,48.813559322033896,13.361999999999998C49.83050847457627,13.002999999999998,50.847457627118644,12.690999999999997,51.86440677966102,12.355999999999998C52.88135593220339,12.020999999999999,53.898305084745765,11.659333333333336,54.91525423728814,11.352000000000002C55.93220338983051,11.04466666666667,56.94915254237288,10.776000000000002,57.96610169491525,10.512C58.983050847457626,10.248,59.99999999999999,9.991333333333332,61.01694915254237,9.767999999999999C62.03389830508474,9.544666666666664,63.05084745762712,9.366333333333332,64.0677966101695,9.171999999999997C65.08474576271186,8.977666666666664,66.10169491525424,8.786666666666664,67.11864406779661,8.601999999999999C68.13559322033899,8.417333333333332,69.15254237288136,8.207333333333333,70.16949152542374,8.064C71.1864406779661,7.920666666666667,72.20338983050848,7.795333333333334,73.22033898305085,7.742C74.23728813559322,7.688666666666666,75.2542372881356,7.662,76.27118644067797,7.662C77.28813559322033,7.662,78.30508474576271,7.752,79.32203389830508,7.867999999999999C80.33898305084746,7.983999999999999,81.35593220338983,8.151666666666664,82.37288135593221,8.357999999999999C83.38983050847457,8.564333333333332,84.40677966101696,8.821333333333335,85.42372881355932,9.106000000000002C86.4406779661017,9.39066666666667,87.45762711864407,9.729666666666668,88.47457627118645,10.066000000000003C89.49152542372882,10.402333333333335,90.50847457627118,10.737666666666671,91.52542372881355,11.124C92.54237288135593,11.510333333333335,93.55932203389831,11.925333333333331,94.57627118644069,12.384C95.59322033898306,12.842666666666664,96.61016949152543,13.364666666666668,97.62711864406779,13.876C98.64406779661016,14.387333333333334,99.66101694915254,14.927333333333333,100.6779661016949,15.451999999999998C101.69491525423729,15.976666666666667,102.71186440677965,16.497,103.72881355932203,17.024C104.7457627118644,17.551000000000002,105.76271186440678,18.08066666666667,106.77966101694915,18.614C107.79661016949153,19.147333333333336,108.8135593220339,19.693333333333335,109.83050847457628,20.224000000000004C110.84745762711864,20.75466666666667,111.86440677966102,21.300333333333338,112.88135593220339,21.798000000000002C113.89830508474576,22.295666666666666,114.91525423728814,22.772333333333332,115.9322033898305,23.209999999999997C116.94915254237289,23.647666666666666,117.96610169491525,24.051999999999996,118.98305084745763,24.424C120,24.796,121.01694915254237,25.122000000000003,122.03389830508473,25.442C123.05084745762711,25.762000000000004,124.0677966101695,26.076,125.08474576271188,26.344C126.10169491525424,26.612,127.11864406779662,26.848,128.135593220339,27.05C129.15254237288136,27.252,130.16949152542372,27.42333333333334,131.1864406779661,27.556000000000004C132.20338983050846,27.688666666666673,133.22033898305085,27.77566666666667,134.23728813559322,27.846000000000004C135.25423728813558,27.916333333333338,136.27118644067798,27.948,137.28813559322035,27.978C138.3050847457627,28.008000000000003,139.3220338983051,28.026,140.33898305084747,28.026C141.35593220338984,28.026,142.3728813559322,28.012666666666668,143.38983050847457,27.986C144.40677966101694,27.959333333333333,145.42372881355934,27.80966666666667,146.4406779661017,27.706C147.45762711864407,27.602333333333334,148.47457627118644,27.49733333333333,149.4915254237288,27.363999999999997C150.50847457627117,27.230666666666664,151.52542372881356,27.059666666666665,152.54237288135593,26.906C153.5593220338983,26.752333333333333,154.5762711864407,26.61766666666667,155.59322033898306,26.442C156.61016949152543,26.266333333333336,157.6271186440678,26.07033333333333,158.64406779661016,25.852C159.66101694915253,25.633666666666667,160.67796610169492,25.39433333333334,161.6949152542373,25.132000000000005C162.71186440677965,24.86966666666667,163.72881355932205,24.54566666666667,164.74576271186442,24.278C165.76271186440678,24.01033333333333,166.77966101694915,23.79633333333333,167.79661016949152,23.525999999999996C168.81355932203388,23.255666666666663,169.83050847457628,22.976666666666667,170.84745762711864,22.656C171.864406779661,22.33533333333333,172.8813559322034,21.98333333333333,173.89830508474577,21.601999999999997C174.91525423728814,21.220666666666663,175.93220338983053,20.788,176.9491525423729,20.368C177.96610169491527,19.948,178.98305084745763,19.515,180,19.082"></path><path class="axis-ceiling" stroke-width="1" stroke="black" fill="none" d="M175,0L180,0"></path><text class="axis-ceiling-label" font-family="sans-serif" text-anchor="end" font-size="10px" x="170" y="2.5">20000</text></g></svg>