<svg xmlns="http://www.w3.org/2000/svg" viewBox="0 0 180 60"><g transform="translate(0,20)"><path class="area" fill="rgba(0, 0, 0, 0.2)" d="M0,16.48753462603878C1.0169491525423728,18.193905817174514,2.0338983050847457,19.900277008310248,3.0508474576271185,19.900277008310248C4.067796610169491,19.900277008310248,5.084745762711864,19.84118190212373,6.101694915254237,19.722991689750693C7.11864406779661,19.604801477377656,8.135593220338983,18.995383194829174,9.152542372881356,18.725761772853183C10.169491525423728,18.45614035087719,11.186440677966102,18.164358264081258,12.203389830508474,18.105263157894736C13.220338983050846,18.046168051708214,14.23728813559322,18.016620498614955,15.254237288135592,18.016620498614955C16.271186440677965,18.016620498614955,17.28813559322034,18.770083102493075,18.305084745762713,18.770083102493075C19.322033898305087,18.770083102493075,20.338983050847457,16.210526315789473,21.35593220338983,15.047091412742382C22.372881355932204,13.88365650969529,23.389830508474574,12.524469067405356,24.406779661016948,11.789473684210527C25.423728813559322,11.054478301015697,26.440677966101696,10.954755309325948,27.45762711864407,10.637119113573409C28.47457627118644,10.319482917820869,29.491525423728813,10.201292705447827,30.508474576271183,9.883656509695289C31.525423728813557,9.566020313942749,32.54237288135593,8.760849492151435,33.559322033898304,8.731301939058174C34.57627118644068,8.701754385964913,35.59322033898305,8.716528162511542,36.610169491525426,8.686980609418281C37.6271186440678,8.65743305632502,38.644067796610166,7.623268698060941,39.66101694915254,7.623268698060941C40.67796610169491,7.623268698060941,41.69491525423729,8.177285318559555,42.71186440677966,8.177285318559555C43.728813559322035,8.177285318559555,44.7457627118644,6.596491228070174,45.762711864406775,6.448753462603878C46.77966101694915,6.301015697137582,47.79661016949152,6.371191135734074,48.813559322033896,6.227146814404434C49.83050847457627,6.083102493074794,50.847457627118644,5.584487534626037,51.86440677966102,5.584487534626037C52.88135593220339,5.584487534626037,53.898305084745765,7.043397968605724,54.91525423728814,7.689750692520776C55.93220338983051,8.336103416435826,56.94915254237288,8.908587257617729,57.96610169491525,9.462603878116344C58.983050847457626,10.016620498614959,59.99999999999999,10.999076638965837,61.01694915254237,11.013850415512465C62.03389830508474,11.028624192059093,63.05084745762712,11.02123730378578,64.0677966101695,11.036011080332408C65.08474576271186,11.050784856879035,66.10169491525424,12.369344413665745,67.11864406779661,12.853185595567869C68.13559322033899,13.337026777469994,69.15254237288136,13.488457987072945,70.16949152542374,13.939058171745152C71.1864406779661,14.389658356417359,72.20338983050848,15.364727608494922,73.22033898305085,15.556786703601109C74.23728813559322,15.748845798707295,75.2542372881356,15.734072022160666,76.27118644067797,15.844875346260388C77.28813559322033,15.95567867036011,78.30508474576271,15.970452446906739,79.32203389830508,16.221606648199444C80.33898305084746,16.47276084949215,81.35593220338983,17.746999076638964,82.37288135593221,18.59279778393352C83.38983050847457,19.438596491228072,84.40677966101696,20.31763619575254,85.42372881355932,21.29639889196676C86.4406779661017,22.275161588180982,87.45762711864407,23.416435826408122,88.47457627118645,24.465373961218837C89.49152542372882,25.514312096029546,90.50847457627118,26.59279778393353,91.52542372881355,27.59002770083103C92.54237288135593,28.587257617728543,93.55932203389831,29.577100646352715,94.57627118644069,30.448753462603875C95.59322033898306,31.32040627885502,96.61016949152543,32.247460757156055,97.62711864406779,32.819944598337955C98.64406779661016,33.39242843951986,99.66101694915254,33.333333333333336,100.6779661016949,33.88365650969529C101.69491525423729,34.43397968605725,102.71186440677965,35.32040627885503,103.72881355932203,36.121883656509695C104.7457627118644,36.92336103416436,105.76271186440678,38.10526315789473,106.77966101694915,38.692520775623265C107.79661016949153,39.2797783933518,108.8135593220339,39.64542936288089,109.83050847457628,39.64542936288089C110.84745762711864,39.64542936288089,111.86440677966102,39.578947368421055,112.88135593220339,39.578947368421055C113.89830508474576,39.578947368421055,114.91525423728814,39.73037857802401,115.9322033898305,39.8005540166205C116.94915254237289,39.870729455216996,117.96610169491525,40,118.98305084745763,40C120,40,121.01694915254237,39.87442289935365,122.03389830508473,39.62326869806094C123.05084745762711,39.37211449676823,124.0677966101695,38.49676823638043,125.08474576271188,37.82825484764543C126.10169491525424,37.15974145891044,127.11864406779662,36.33979686057249,128.135593220339,35.61218836565097C129.15254237288136,34.88457987072946,130.16949152542372,34.0387811634349,131.1864406779661,33.46260387811634C132.20338983050846,32.886426592797775,133.22033898305085,32.73499538319483,134.23728813559322,32.15512465373961C135.25423728813558,31.575253924284397,136.27118644067798,30.710987996306557,137.28813559322035,29.98337950138504C138.3050847457627,29.255771006463526,139.3220338983051,28.554016620498615,140.33898305084747,27.789473684210524C141.35593220338984,27.02493074792244,142.3728813559322,26.090489381348107,143.38983050847457,25.396121883656512C144.40677966101694,24.70175438596491,145.42372881355934,24.07017543859649,146.4406779661017,23.62326869806094C147.45762711864407,23.176361957525394,148.47457627118644,23.032317636195753,149.4915254237288,22.714681440443215C150.50847457627117,22.397045244690673,151.52542372881356,22.323176361957525,152.54237288135593,21.717451523545705C153.5593220338983,21.111726685133885,154.5762711864407,19.553093259464458,155.59322033898306,19.0803324099723C156.61016949152543,18.60757156048015,157.6271186440678,18.69990766389658,158.64406779661016,18.371191135734072C159.66101694915253,18.04247460757156,160.67796610169492,17.16712834718375,161.6949152542373,17.10803324099723C162.71186440677965,17.04893813481071,163.72881355932205,17.07848568790397,164.74576271186442,17.019390581717452C165.76271186440678,16.960295475530934,166.77966101694915,16.118190212373037,167.79661016949152,15.645429362880886C168.81355932203388,15.172668513388732,169.83050847457628,14.674053554939979,170.84745762711864,14.18282548476454C171.864406779661,13.691597414589102,172.8813559322034,12.698060941828256,173.89830508474577,12.698060941828256C174.91525423728814,12.698060941828256,175.93220338983053,13.828254847645432,176.9491525423729,13.828254847645432C177.96610169491527,13.828254847645432,178.98305084745763,13.185595567867036,180,12.542936288088642L180,40C178.98305084745763,40,177.96610169491527,40,176.9491525423729,40C175.93220338983053,40,174.91525423728814,40,173.89830508474577,40C172.8813559322034,40,171.864406779661,40,170.84745762711864,40C169.83050847457628,40,168.81355932203388,40,167.79661016949152,40C166.77966101694915,40,165.76271186440678,40,164.74576271186442,40C163.72881355932205,40,162.71186440677965,40,161.6949152542373,40C160.67796610169492,40,159.66101694915253,40,158.64406779661016,40C157.6271186440678,40,156.61016949152543,40,155.59322033898306,40C154.5762711864407,40,153.5593220338983,40,152.54237288135593,40C151.52542372881356,40,150.50847457627117,40,149.4915254237288,40C148.47457627118644,40,147.45762711864407,40,146.4406779661017,40C145.42372881355934,40,144.40677966101694,40,143.38983050847457,40C142.3728813559322,40,141.35593220338984,40,140.33898305084747,40C139.3220338983051,40,138.3050847457627,40,137.28813559322035,40C136.27118644067798,40,135.25423728813558,40,134.23728813559322,40C133.22033898305085,40,132.20338983050846,40,131.1864406779661,40C130.16949152542372,40,129.15254237288136,40,128.135593220339,40C127.11864406779662,40,126.10169491525424,40,125.08474576271188,40C124.0677966101695,40,123.05084745762711,40,122.03389830508473,40C121.01694915254237,40,120,40,118.98305084745763,40C117.96610169491525,40,116.94915254237289,40,115.9322033898305,40C114.91525423728814,40,113.89830508474576,40,112.88135593220339,40C111.86440677966102,40,110.84745762711864,40,109.83050847457628,40C108.8135593220339,40,107.79661016949153,40,106.77966101694915,40C105.76271186440678,40,104.7457627118644,40,103.72881355932203,40C102.71186440677965,40,101.69491525423729,40,100.6779661016949,40C99.66101694915254,40,98.64406779661016,40,97.62711864406779,40C96.61016949152543,40,95.59322033898306,40,94.57627118644069,40C93.55932203389831,40,92.54237288135593,40,91.52542372881355,40C90.50847457627118,40,89.49152542372882,40,88.47457627118645,40C87.45762711864407,40,86.4406779661017,40,85.42372881355932,40C84.40677966101696,40,83.38983050847457,40,82.37288135593221,40C81.35593220338983,40,80.33898305084746,40,79.32203389830508,40C78.30508474576271,40,77.28813559322033,40,76.27118644067797,40C75.2542372881356,40,74.23728813559322,40,73.22033898305085,40C72.20338983050848,40,71.1864406779661,40,70.16949152542374,40C69.15254237288136,40,68.13559322033899,40,67.11864406779661,40C66.10169491525424,40,65.08474576271186,40,64.0677966101695,40C63.05084745762712,40,62.03389830508474,40,61.01694915254237,40C59.99999999999999,40,58.983050847457626,40,57.96610169491525,40C56.94915254237288,40,55.93220338983051,40,54.91525423728814,40C53.898305084745765,40,52.88135593220339,40,51.86440677966102,40C50.847457627118644,40,49.83050847457627,40,48.813559322033896,40C47.79661016949152,40,46.77966101694915,40,45.762711864406775,40C44.7457627118644,40,43.728813559322035,40,42.71186440677966,40C41.69491525423729,40,40.67796610169491,40,39.66101694915254,40C38.644067796610166,40,37.6271186440678,40,36.610169491525426,40C35.59322033898305,40,34.57627118644068,40,33.559322033898304,40C32.54237288135593,40,31.525423728813557,40,30.508474576271183,40C29.491525423728813,40,28.47457627118644,40,27.45762711864407,40C26.440677966101696,40,25.423728813559322,40,24.406779661016948,40C23.389830508474574,40,22.372881355932204,40,21.35593220338983,40C20.338983050847457,40,19.322033898305087,40,18.305084745762713,40C17.28813559322034,40,16.271186440677965,40,15.254237288135592,40C14.23728813559322,40,13.220338983050846,40,12.203389830508474,40C11.186440677966102,40,10.169491525423728,40,9.152542372881356,40C8.135593220338983,40,7.11864406779661,40,6.101694915254237,40C5.084745762711864,40,4.067796610169491,40,3.0508474576271185,40C2.0338983050847457,40,1.0169491525423728,40,0,40Z"></path><path class="line" stroke="black" fill="none" d="M0,16.48753462603878C1.0169491525423728,18.193905817174514,2.0338983050847457,19.900277008310248,3.0508474576271185,19.900277008310248C4.067796610169491,19.900277008310248,5.084745762711864,19.84118190212373,6.101694915254237,19.722991689750693C7.11864406779661,19.604801477377656,8.135593220338983,18.995383194829174,9.152542372881356,18.725761772853183C10.169491525423728,18.45614035087719,11.186440677966102,18.164358264081258,12.203389830508474,18.105263157894736C13.220338983050846,18.046168051708214,14.23728813559322,18.016620498614955,15.254237288135592,18.016620498614955C16.271186440677965,18.016620498614955,17.28813559322034,18.770083102493075,18.305084745762713,18.770083102493075C19.322033898305087,18.770083102493075,20.338983050847457,16.210526315789473,21.35593220338983,15.047091412742382C22.372881355932204,13.88365650969529,23.389830508474574,12.524469067405356,24.406779661016948,11.789473684210527C25.423728813559322,11.054478301015697,26.440677966101696,10.954755309325948,27.45762711864407,10.637119113573409C28.47457627118644,10.319482917820869,29.491525423728813,10.201292705447827,30.508474576271183,9.883656509695289C31.525423728813557,9.566020313942749,32.54237288135593,8.760849492151435,33.559322033898304,8.731301939058174C34.57627118644068,8.701754385964913,35.59322033898305,8.716528162511542,36.610169491525426,8.686980609418281C37.6271186440678,8.65743305632502,38.644067796610166,7.623268698060941,39.66101694915254,7.623268698060941C40.67796610169491,7.623268698060941,41.69491525423729,8.177285318559555,42.71186440677966,8.177285318559555C43.728813559322035,8.177285318559555,44.7457627118644,6.596491228070174,45.762711864406775,6.448753462603878C46.77966101694915,6.301015697137582,47.79661016949152,6.371191135734074,48.813559322033896,6.227146814404434C49.83050847457627,6.083102493074794,50.847457627118644,5.584487534626037,51.86440677966102,5.584487534626037C52.88135593220339,5.584487534626037,53.898305084745765,7.043397968605724,54.91525423728814,7.689750692520776C55.93220338983051,8.336103416435826,56.94915254237288,8.908587257617729,57.96610169491525,9.462603878116344C58.983050847457626,10.016620498614959,59.99999999999999,10.999076638965837,61.01694915254237,11.013850415512465C62.03389830508474,11.028624192059093,63.05084745762712,11.02123730378578,64.0677966101695,11.036011080332408C65.08474576271186,11.050784856879035,66.10169491525424,12.369344413665745,67.11864406779661,12.853185595567869C68.13559322033899,13.337026777469994,69.15254237288136,13.488457987072945,70.16949152542374,13.939058171745152C71.1864406779661,14.389658356417359,72.20338983050848,15.364727608494922,73.22033898305085,15.556786703601109C74.23728813559322,15.748845798707295,75.2542372881356,15.734072022160666,76.27118644067797,15.844875346260388C77.28813559322033,15.95567867036011,78.30508474576271,15.970452446906739,79.32203389830508,16.221606648199444C80.33898305084746,16.47276084949215,81.35593220338983,17.746999076638964,82.37288135593221,18.59279778393352C83.38983050847457,19.438596491228072,84.40677966101696,20.31763619575254,85.42372881355932,21.29639889196676C86.4406779661017,22.275161588180982,87.45762711864407,23.416435826408122,88.47457627118645,24.465373961218837C89.49152542372882,25.514312096029546,90.50847457627118,26.59279778393353,91.52542372881355,27.59002770083103C92.54237288135593,28.587257617728543,93.55932203389831,29.577100646352715,94.57627118644069,30.448753462603875C95.59322033898306,31.32040627885502,96.61016949152543,32.247460757156055,97.62711864406779,32.819944598337955C98.64406779661016,33.39242843951986,99.66101694915254,33.333333333333336,100.6779661016949,33.88365650969529C101.69491525423729,34.43397968605725,102.71186440677965,35.32040627885503,103.72881355932203,36.121883656509695C104.7457627118644,36.92336103416436,105.76271186440678,38.10526315789473,106.77966101694915,38.692520775623265C107.79661016949153,39.2797783933518,108.8135593220339,39.64542936288089,109.83050847457628,39.64542936288089C110.84745762711864,39.64542936288089,111.86440677966102,39.578947368421055,112.88135593220339,39.578947368421055C113.89830508474576,39.578947368421055,114.91525423728814,39.73037857802401,115.9322033898305,39.8005540166205C116.94915254237289,39.870729455216996,117.96610169491525,40,118.98305084745763,40C120,40,121.01694915254237,39.87442289935365,122.03389830508473,39.62326869806094C123.05084745762711,39.37211449676823,124.0677966101695,38.49676823638043,125.08474576271188,37.82825484764543C126.10169491525424,37.15974145891044,127.11864406779662,36.33979686057249,128.135593220339,35.61218836565097C129.15254237288136,34.88457987072946,130.16949152542372,34.0387811634349,131.1864406779661,33.46260387811634C132.20338983050846,32.886426592797775,133.22033898305085,32.73499538319483,134.23728813559322,32.15512465373961C135.25423728813558,31.575253924284397,136.27118644067798,30.710987996306557,137.28813559322035,29.98337950138504C138.3050847457627,29.255771006463526,139.3220338983051,28.554016620498615,140.33898305084747,27.789473684210524C141.35593220338984,27.02493074792244,142.3728813559322,26.090489381348107,143.38983050847457,25.396121883656512C144.40677966101694,24.70175438596491,145.42372881355934,24.07017543859649,146.4406779661017,23.62326869806094C147.45762711864407,23.176361957525394,148.47457627118644,23.032317636195753,149.4915254237288,22.714681440443215C150.50847457627117,22.397045244690673,151.52542372881356,22.323176361957525,152.54237288135593,21.717451523545705C153.5593220338983,21.111726685133885,154.5762711864407,19.553093259464458,155.59322033898306,19.0803324099723C156.61016949152543,18.60757156048015,157.6271186440678,18.69990766389658,158.64406779661016,18.371191135734072C159.66101694915253,18.04247460757156,160.67796610169492,17.16712834718375,161.6949152542373,17.10803324099723C162.71186440677965,17.04893813481071,163.72881355932205,17.07848568790397,164.74576271186442,17.019390581717452C165.76271186440678,16.960295475530934,166.77966101694915,16.118190212373037,167.79661016949152,15.645429362880886C168.81355932203388,15.172668513388732,169.83050847457628,14.674053554939979,170.84745762711864,14.18282548476454C171.864406779661,13.691597414589102,172.8813559322034,12.698060941828256,173.89830508474577,12.698060941828256C174.91525423728814,12.698060941828256,175.93220338983053,13.828254847645432,176.9491525423729,13.828254847645432C177.96610169491527,13.828254847645432,178.98305084745763,13.185595567867036,180,12.542936288088642"></path><path class="axis-ceiling" stroke-width="1" stroke="black" fill="none" d="M175,0L180,0"></path><text class="axis-ceiling-label" font-family="sans-serif" text-anchor="end" font-size="10px" x="170" y="2.5">1000</text></g></svg>