<svg xmlns="http://www.w3.org/2000/svg" viewBox="0 0 180 60"><g transform="translate(0,20)"><path class="area" fill="rgba(0, 0, 0, 0.2)" d="M0,36.44444444444444C0.8571428571428571,36.44444444444444,1.714285714285714,36.44444444444444,2.571428571428571,36.44444444444444C3,36.44444444444444,3.4285714285714284,36.04938271604938,3.857142857142857,36C6.428571428571428,35.7037037037037,8.999999999999998,35.74814814814815,11.57142857142857,35.55555555555556C13.285714285714285,35.42716049382716,15,35.40740740740741,16.714285714285715,35.111111111111114C17.142857142857142,35.03703703703704,17.571428571428573,34.62222222222222,18,34.577777777777776C19.71428571428571,34.4,21.428571428571427,34.31111111111111,23.14285714285714,34.31111111111111C27.857142857142854,34.31111111111111,32.57142857142857,34.42962962962963,37.285714285714285,34.66666666666667C38.14285714285714,34.70976430976432,39,34.925252525252525,39.857142857142854,35.02222222222222C44.57142857142857,35.55555555555556,49.285714285714285,35.288888888888884,54,35.82222222222222C54.42857142857143,35.87070707070707,54.85714285714286,36.5274074074074,55.28571428571429,36.62222222222222C57.42857142857143,37.096296296296295,59.57142857142858,36.85925925925926,61.714285714285715,37.333333333333336C62.14285714285714,37.42814814814815,62.57142857142857,37.851851851851855,62.99999999999999,38.044444444444444C63.857142857142854,38.42962962962963,64.71428571428571,38.632804232804226,65.57142857142857,38.666666666666664C68.57142857142857,38.785185185185185,71.57142857142857,38.790946502057615,74.57142857142857,38.84444444444445C78.42857142857143,38.91322751322752,82.28571428571429,39.02222222222222,86.14285714285715,39.02222222222222C87.00000000000001,39.02222222222222,87.85714285714286,39.02222222222222,88.71428571428572,39.02222222222222C94.28571428571429,39.02222222222222,99.85714285714286,39.11111111111111,105.42857142857143,39.11111111111111C108,39.11111111111111,110.57142857142857,39.11111111111111,113.14285714285714,39.11111111111111C113.57142857142857,39.11111111111111,113.99999999999999,39.17037037037037,114.42857142857142,39.2C114.85714285714285,39.229629629629635,115.28571428571429,39.28888888888889,115.71428571428572,39.28888888888889C117.85714285714286,39.28888888888889,120.00000000000001,39.28888888888889,122.14285714285715,39.28888888888889C123,39.28888888888889,123.85714285714286,39.2,124.71428571428571,39.2C125.14285714285714,39.2,125.57142857142856,39.2,125.99999999999999,39.2C126.42857142857142,39.2,126.85714285714286,39.145679012345674,127.28571428571429,39.11111111111111C128.14285714285714,39.04197530864197,129,38.9925925925926,129.85714285714286,38.84444444444445C130.28571428571428,38.77037037037037,130.71428571428572,38.65185185185185,131.14285714285714,38.577777777777776C131.57142857142858,38.5037037037037,132,38.459259259259255,132.42857142857144,38.4C132.85714285714286,38.34074074074074,133.2857142857143,38.266666666666666,133.71428571428572,38.22222222222222C135.42857142857144,38.044444444444444,137.14285714285714,38.1037037037037,138.85714285714286,37.955555555555556C139.71428571428572,37.88148148148148,140.57142857142856,37.837037037037035,141.42857142857142,37.68888888888889C141.85714285714283,37.614814814814814,142.28571428571428,37.4962962962963,142.7142857142857,37.422222222222224C143.14285714285714,37.34814814814815,143.57142857142856,37.30370370370371,144,37.24444444444445C144.42857142857142,37.18518518518519,144.85714285714286,37.12592592592592,145.28571428571428,37.06666666666666C145.71428571428572,37.007407407407406,146.14285714285714,36.94814814814815,146.57142857142858,36.88888888888889C147,36.829629629629636,147.42857142857144,36.76543209876543,147.85714285714286,36.71111111111111C148.71428571428572,36.602469135802465,149.57142857142858,36.62222222222222,150.42857142857144,36.44444444444444C150.85714285714286,36.355555555555554,151.2857142857143,36.22222222222222,151.71428571428572,36.08888888888889C152.14285714285714,35.955555555555556,152.57142857142858,35.82222222222222,153,35.644444444444446C153.42857142857142,35.46666666666667,153.85714285714286,35.24444444444444,154.28571428571428,35.02222222222222C154.71428571428572,34.8,155.14285714285714,34.56296296296296,155.57142857142858,34.31111111111111C156,34.059259259259264,156.42857142857144,33.76296296296296,156.85714285714286,33.511111111111106C157.28571428571428,33.25925925925925,157.71428571428572,33.022222222222226,158.14285714285714,32.800000000000004C158.57142857142856,32.57777777777778,159,32.37037037037037,159.42857142857142,32.17777777777778C159.85714285714286,31.98518518518518,160.28571428571428,31.896296296296303,160.71428571428572,31.644444444444446C161.14285714285714,31.392592592592596,161.57142857142858,31.037037037037035,162,30.666666666666664C162.42857142857142,30.296296296296294,162.85714285714286,29.911111111111108,163.28571428571428,29.42222222222222C163.7142857142857,28.933333333333334,164.14285714285714,28.32592592592592,164.57142857142856,27.733333333333334C165,27.140740740740736,165.42857142857142,26.577777777777786,165.85714285714286,25.866666666666667C166.28571428571428,25.155555555555562,166.71428571428572,24.296296296296298,167.14285714285714,23.46666666666667C167.57142857142856,22.63703703703704,168,21.79259259259258,168.42857142857142,20.888888888888886C168.85714285714286,19.985185185185173,169.28571428571428,18.962962962962973,169.71428571428572,18.044444444444444C170.14285714285714,17.125925925925937,170.57142857142858,16.207407407407402,171,15.37777777777778C171.42857142857144,14.54814814814814,171.85714285714286,13.807407407407416,172.2857142857143,13.066666666666666C172.71428571428572,12.325925925925935,173.14285714285717,11.644444444444446,173.57142857142858,10.933333333333334C174,10.222222222222221,174.42857142857144,9.45185185185185,174.85714285714286,8.799999999999999C175.28571428571428,8.148148148148147,175.71428571428572,7.599999999999994,176.14285714285714,7.022222222222223C176.57142857142858,6.444444444444438,177,5.851851851851856,177.42857142857144,5.333333333333332C177.85714285714286,4.81481481481482,178.2857142857143,4.355555555555554,178.71428571428572,3.9111111111111097C179.14285714285714,3.4666666666666655,179.57142857142858,3.0666666666666655,180,2.666666666666666L180,40C179.57142857142858,40,179.14285714285714,40,178.71428571428572,40C178.2857142857143,40,177.85714285714286,40,177.42857142857144,40C177,40,176.57142857142858,40,176.14285714285714,40C175.71428571428572,40,175.28571428571428,40,174.85714285714286,40C174.42857142857144,40,174,40,173.57142857142858,40C173.14285714285717,40,172.71428571428572,40,172.2857142857143,40C171.85714285714286,40,171.42857142857144,40,171,40C170.57142857142858,40,170.14285714285714,40,169.71428571428572,40C169.28571428571428,40,168.85714285714286,40,168.42857142857142,40C168,40,167.57142857142856,40,167.14285714285714,40C166.71428571428572,40,166.28571428571428,40,165.85714285714286,40C165.42857142857142,40,165,40,164.57142857142856,40C164.14285714285714,40,163.7142857142857,40,163.28571428571428,40C162.85714285714286,40,162.42857142857142,40,162,40C161.57142857142858,40,161.14285714285714,40,160.71428571428572,40C160.28571428571428,40,159.85714285714286,40,159.42857142857142,40C159,40,158.57142857142856,40,158.14285714285714,40C157.71428571428572,40,157.28571428571428,40,156.85714285714286,40C156.42857142857144,40,156,40,155.57142857142858,40C155.14285714285714,40,154.71428571428572,40,154.28571428571428,40C153.85714285714286,40,153.42857142857142,40,153,40C152.57142857142858,40,152.14285714285714,40,151.71428571428572,40C151.2857142857143,40,150.85714285714286,40,150.42857142857144,40C149.57142857142858,40,148.71428571428572,40,147.85714285714286,40C147.42857142857144,40,147,40,146.57142857142858,40C146.14285714285714,40,145.71428571428572,40,145.28571428571428,40C144.85714285714286,40,144.42857142857142,40,144,40C143.57142857142856,40,143.14285714285714,40,142.7142857142857,40C142.28571428571428,40,141.85714285714283,40,141.42857142857142,40C140.57142857142856,40,139.71428571428572,40,138.85714285714286,40C137.14285714285714,40,135.42857142857144,40,133.71428571428572,40C133.2857142857143,40,132.85714285714286,40,132.42857142857144,40C132,40,131.57142857142858,40,131.14285714285714,40C130.71428571428572,40,130.28571428571428,40,129.85714285714286,40C129,40,128.14285714285714,40,127.28571428571429,40C126.85714285714286,40,126.42857142857142,40,125.99999999999999,40C125.57142857142856,40,125.14285714285714,40,124.71428571428571,40C123.85714285714286,40,123,40,122.14285714285715,40C120.00000000000001,40,117.85714285714286,40,115.71428571428572,40C115.28571428571429,40,114.85714285714285,40,114.42857142857142,40C113.99999999999999,40,113.57142857142857,40,113.14285714285714,40C110.57142857142857,40,108,40,105.42857142857143,40C99.85714285714286,40,94.28571428571429,40,88.71428571428572,40C87.85714285714286,40,87.00000000000001,40,86.14285714285715,40C82.28571428571429,40,78.42857142857143,40,74.57142857142857,40C71.57142857142857,40,68.57142857142857,40,65.57142857142857,40C64.71428571428571,40,63.857142857142854,40,62.99999999999999,40C62.57142857142857,40,62.14285714285714,40,61.714285714285715,40C59.57142857142858,40,57.42857142857143,40,55.28571428571429,40C54.85714285714286,40,54.42857142857143,40,54,40C49.285714285714285,40,44.57142857142857,40,39.857142857142854,40C39,40,38.14285714285714,40,37.285714285714285,40C32.57142857142857,40,27.857142857142854,40,23.14285714285714,40C21.428571428571427,40,19.71428571428571,40,18,40C17.571428571428573,40,17.142857142857142,40,16.714285714285715,40C15,40,13.285714285714285,40,11.57142857142857,40C8.999999999999998,40,6.428571428571428,40,3.857142857142857,40C3.4285714285714284,40,3,40,2.571428571428571,40C1.714285714285714,40,0.8571428571428571,40,0,40Z"></path><path class="line" stroke="black" fill="none" d="M0,36.44444444444444C0.8571428571428571,36.44444444444444,1.714285714285714,36.44444444444444,2.571428571428571,36.44444444444444C3,36.44444444444444,3.4285714285714284,36.04938271604938,3.857142857142857,36C6.428571428571428,35.7037037037037,8.999999999999998,35.74814814814815,11.57142857142857,35.55555555555556C13.285714285714285,35.42716049382716,15,35.40740740740741,16.714285714285715,35.111111111111114C17.142857142857142,35.03703703703704,17.571428571428573,34.62222222222222,18,34.577777777777776C19.71428571428571,34.4,21.428571428571427,34.31111111111111,23.14285714285714,34.31111111111111C27.857142857142854,34.31111111111111,32.57142857142857,34.42962962962963,37.285714285714285,34.66666666666667C38.14285714285714,34.70976430976432,39,34.925252525252525,39.857142857142854,35.02222222222222C44.57142857142857,35.55555555555556,49.285714285714285,35.288888888888884,54,35.82222222222222C54.42857142857143,35.87070707070707,54.85714285714286,36.5274074074074,55.28571428571429,36.62222222222222C57.42857142857143,37.096296296296295,59.57142857142858,36.85925925925926,61.714285714285715,37.333333333333336C62.14285714285714,37.42814814814815,62.57142857142857,37.851851851851855,62.99999999999999,38.044444444444444C63.857142857142854,38.42962962962963,64.71428571428571,38.632804232804226,65.57142857142857,38.666666666666664C68.57142857142857,38.785185185185185,71.57142857142857,38.790946502057615,74.57142857142857,38.84444444444445C78.42857142857143,38.91322751322752,82.28571428571429,39.02222222222222,86.14285714285715,39.02222222222222C87.00000000000001,39.02222222222222,87.85714285714286,39.02222222222222,88.71428571428572,39.02222222222222C94.28571428571429,39.02222222222222,99.85714285714286,39.11111111111111,105.42857142857143,39.11111111111111C108,39.11111111111111,110.57142857142857,39.11111111111111,113.14285714285714,39.11111111111111C113.57142857142857,39.11111111111111,113.99999999999999,39.17037037037037,114.42857142857142,39.2C114.85714285714285,39.229629629629635,115.28571428571429,39.28888888888889,115.71428571428572,39.28888888888889C117.85714285714286,39.28888888888889,120.00000000000001,39.28888888888889,122.14285714285715,39.28888888888889C123,39.28888888888889,123.85714285714286,39.2,124.71428571428571,39.2C125.14285714285714,39.2,125.57142857142856,39.2,125.99999999999999,39.2C126.42857142857142,39.2,126.85714285714286,39.145679012345674,127.28571428571429,39.11111111111111C128.14285714285714,39.04197530864197,129,38.9925925925926,129.85714285714286,38.84444444444445C130.28571428571428,38.77037037037037,130.71428571428572,38.65185185185185,131.14285714285714,38.577777777777776C131.57142857142858,38.5037037037037,132,38.459259259259255,132.42857142857144,38.4C132.85714285714286,38.34074074074074,133.2857142857143,38.266666666666666,133.71428571428572,38.22222222222222C135.42857142857144,38.044444444444444,137.14285714285714,38.1037037037037,138.85714285714286,37.955555555555556C139.71428571428572,37.88148148148148,140.57142857142856,37.837037037037035,141.42857142857142,37.68888888888889C141.85714285714283,37.614814814814814,142.28571428571428,37.4962962962963,142.7142857142857,37.422222222222224C143.14285714285714,37.34814814814815,143.57142857142856,37.30370370370371,144,37.24444444444445C144.42857142857142,37.18518518518519,144.85714285714286,37.12592592592592,145.28571428571428,37.06666666666666C145.71428571428572,37.007407407407406,146.14285714285714,36.94814814814815,146.57142857142858,36.88888888888889C147,36.829629629629636,147.42857142857144,36.76543209876543,147.85714285714286,36.71111111111111C148.71428571428572,36.602469135802465,149.57142857142858,36.62222222222222,150.42857142857144,36.44444444444444C150.85714285714286,36.355555555555554,151.2857142857143,36.22222222222222,151.71428571428572,36.08888888888889C152.14285714285714,35.955555555555556,152.57142857142858,35.82222222222222,153,35.644444444444446C153.42857142857142,35.46666666666667,153.85714285714286,35.24444444444444,154.28571428571428,35.02222222222222C154.71428571428572,34.8,155.14285714285714,34.56296296296296,155.57142857142858,34.31111111111111C156,34.059259259259264,156.42857142857144,33.76296296296296,156.85714285714286,33.511111111111106C157.28571428571428,33.25925925925925,157.71428571428572,33.022222222222226,158.14285714285714,32.800000000000004C158.57142857142856,32.57777777777778,159,32.37037037037037,159.42857142857142,32.17777777777778C159.85714285714286,31.98518518518518,160.28571428571428,31.896296296296303,160.71428571428572,31.644444444444446C161.14285714285714,31.392592592592596,161.57142857142858,31.037037037037035,162,30.666666666666664C162.42857142857142,30.296296296296294,162.85714285714286,29.911111111111108,163.28571428571428,29.42222222222222C163.7142857142857,28.933333333333334,164.14285714285714,28.32592592592592,164.57142857142856,27.733333333333334C165,27.140740740740736,165.42857142857142,26.577777777777786,165.85714285714286,25.866666666666667C166.28571428571428,25.155555555555562,166.71428571428572,24.296296296296298,167.14285714285714,23.46666666666667C167.57142857142856,22.63703703703704,168,21.79259259259258,168.42857142857142,20.888888888888886C168.85714285714286,19.985185185185173,169.28571428571428,18.962962962962973,169.71428571428572,18.044444444444444C170.14285714285714,17.125925925925937,170.57142857142858,16.207407407407402,171,15.37777777777778C171.42857142857144,14.54814814814814,171.85714285714286,13.807407407407416,172.2857142857143,13.066666666666666C172.71428571428572,12.325925925925935,173.14285714285717,11.644444444444446,173.57142857142858,10.933333333333334C174,10.222222222222221,174.42857142857144,9.45185185185185,174.85714285714286,8.799999999999999C175.28571428571428,8.148148148148147,175.71428571428572,7.599999999999994,176.14285714285714,7.022222222222223C176.57142857142858,6.444444444444438,177,5.851851851851856,177.42857142857144,5.333333333333332C177.85714285714286,4.81481481481482,178.2857142857143,4.355555555555554,178.71428571428572,3.9111111111111097C179.14285714285714,3.4666666666666655,179.57142857142858,3.0666666666666655,180,2.666666666666666"></path><path class="axis-ceiling" stroke-width="1" stroke="black" fill="none" d="M175,0L180,0"></path><text class="axis-ceiling-label" font-family="sans-serif" text-anchor="end" font-size="10px" x="170" y="2.5">450</text></g></svg>