<svg xmlns="http://www.w3.org/2000/svg" viewBox="0 0 180 60"><g transform="translate(0,20)"><path class="area" fill="rgba(0, 0, 0, 0.2)" d="M0,25.185185185185187C0.5825242718446602,32.592592592592595,1.1650485436893203,40,1.7475728155339805,40C2.3300970873786406,40,2.9126213592233006,0.7407407407407396,3.495145631067961,0.7407407407407396C4.660194174757281,0.7407407407407396,5.825242718446601,0.7407407407407396,6.990291262135922,0.7407407407407396C8.155339805825243,0.7407407407407396,9.320388349514563,0.7407407407407396,10.485436893203884,0.7407407407407396C11.650485436893204,0.7407407407407396,12.815533980582524,0.7407407407407396,13.980582524271844,0.7407407407407396C15.145631067961164,0.7407407407407396,16.310679611650485,0.7407407407407396,17.475728155339805,0.7407407407407396C18.640776699029125,0.7407407407407396,19.80582524271845,0.7407407407407396,20.97087378640777,0.7407407407407396C23.300970873786408,0.7407407407407396,25.631067961165048,0.7407407407407396,27.961165048543688,0.7407407407407396C32.03883495145631,0.7407407407407396,36.116504854368934,0.7407407407407396,40.19417475728156,0.7407407407407396C40.77669902912622,0.7407407407407396,41.359223300970875,0.7407407407407396,41.94174757281554,0.7407407407407396C44.271844660194176,0.7407407407407396,46.601941747572816,0.7407407407407396,48.932038834951456,0.7407407407407396C50.679611650485434,0.7407407407407396,52.42718446601942,0.7407407407407396,54.1747572815534,0.7407407407407396C54.75728155339806,0.7407407407407396,55.33980582524271,0.7407407407407396,55.922330097087375,0.7407407407407396C56.50485436893204,0.7407407407407396,57.0873786407767,0.7407407407407396,57.66990291262136,0.7407407407407396C58.834951456310684,0.7407407407407396,60,0.7407407407407396,61.16504854368932,0.7407407407407396C65.8252427184466,0.7407407407407396,70.48543689320388,0.7407407407407396,75.14563106796116,0.7407407407407396C76.31067961165049,0.7407407407407396,77.4757281553398,0.7407407407407396,78.64077669902912,0.7407407407407396C83.3009708737864,0.7407407407407396,87.96116504854369,0.7407407407407396,92.62135922330097,0.7407407407407396C93.7864077669903,0.7407407407407396,94.9514563106796,0.7407407407407396,96.11650485436893,0.7407407407407396C98.44660194174757,0.7407407407407396,100.7766990291262,0.7407407407407396,103.10679611650485,0.7407407407407396C103.68932038834951,0.7407407407407396,104.27184466019416,0.7407407407407396,104.85436893203882,0.7407407407407396C105.43689320388349,0.7407407407407396,106.01941747572815,0.7407407407407396,106.60194174757281,0.7407407407407396C108.93203883495146,0.7407407407407396,111.2621359223301,0.7407407407407396,113.59223300970875,0.7407407407407396C114.75728155339807,0.7407407407407396,115.92233009708738,0.7407407407407396,117.0873786407767,0.7407407407407396C117.66990291262137,0.7407407407407396,118.25242718446603,0.7407407407407396,118.83495145631069,0.7407407407407396C119.41747572815535,0.7407407407407396,120,0.7407407407407396,120.58252427184466,0.7407407407407396C121.16504854368932,0.7407407407407396,121.74757281553399,0.7407407407407396,122.33009708737865,0.7407407407407396C122.91262135922331,0.7407407407407396,123.49514563106797,0.7407407407407396,124.07766990291263,0.7407407407407396C124.6601941747573,0.7407407407407396,125.24271844660194,0.7407407407407396,125.8252427184466,0.7407407407407396C126.40776699029126,0.7407407407407396,126.99029126213593,0.7407407407407396,127.57281553398059,0.7407407407407396C128.7378640776699,0.7407407407407396,129.90291262135923,0.7407407407407396,131.06796116504856,0.7407407407407396C131.6504854368932,0.7407407407407396,132.23300970873788,0.7407407407407396,132.81553398058253,0.7407407407407396C133.39805825242718,0.7407407407407396,133.98058252427185,0.7407407407407396,134.5631067961165,0.7407407407407396C135.14563106796115,0.7407407407407396,135.72815533980582,0.7407407407407396,136.31067961165047,0.7407407407407396C136.89320388349515,0.7407407407407396,137.4757281553398,0.7407407407407396,138.05825242718447,0.7407407407407396C139.2233009708738,0.7407407407407396,140.3883495145631,0.7407407407407396,141.5533980582524,0.7407407407407396C142.1359223300971,0.7407407407407396,142.71844660194174,0.7407407407407396,143.3009708737864,0.7407407407407396C143.88349514563106,0.7407407407407396,144.46601941747574,0.7407407407407396,145.04854368932038,0.7407407407407396C145.63106796116503,0.7407407407407396,146.2135922330097,0.7407407407407396,146.79611650485435,0.7407407407407396C147.37864077669903,0.7407407407407396,147.96116504854368,0.7407407407407396,148.54368932038835,0.7407407407407396C149.126213592233,0.7407407407407396,149.70873786407768,0.7407407407407396,150.29126213592232,0.7407407407407396C150.87378640776697,0.7407407407407396,151.45631067961165,0.7407407407407396,152.0388349514563,0.7407407407407396C152.62135922330097,0.7407407407407396,153.20388349514562,0.7407407407407396,153.7864077669903,0.7407407407407396C154.36893203883494,0.7407407407407396,154.95145631067962,0.7407407407407396,155.53398058252426,0.7407407407407396C156.1165048543689,0.7407407407407396,156.6990291262136,0.7407407407407396,157.28155339805824,0.7407407407407396C157.8640776699029,0.7407407407407396,158.44660194174756,0.7407407407407396,159.02912621359224,0.7407407407407396C159.6116504854369,0.7407407407407396,160.19417475728156,0.7407407407407396,160.77669902912623,0.7407407407407396C161.35922330097088,0.7407407407407396,161.94174757281556,0.7407407407407396,162.5242718446602,0.7407407407407396C163.10679611650485,0.7407407407407396,163.68932038834953,0.7407407407407396,164.27184466019418,0.7407407407407396C164.85436893203885,0.7407407407407396,165.4368932038835,0.7407407407407396,166.01941747572818,0.7407407407407396C166.60194174757282,0.7407407407407396,167.1844660194175,0.7407407407407396,167.76699029126215,0.7407407407407396C168.3495145631068,0.7407407407407396,168.93203883495147,0.7407407407407396,169.51456310679612,0.7407407407407396C170.09708737864077,0.7407407407407396,170.67961165048544,0.7407407407407396,171.2621359223301,0.7407407407407396C171.84466019417476,0.7407407407407396,172.4271844660194,0.7407407407407396,173.0097087378641,0.7407407407407396C173.59223300970874,0.7407407407407396,174.1747572815534,0.7407407407407396,174.75728155339806,0.7407407407407396C175.3398058252427,0.7407407407407396,175.92233009708738,0.7407407407407396,176.50485436893203,0.7407407407407396C177.0873786407767,0.7407407407407396,177.66990291262135,0.7407407407407396,178.25242718446603,0.7407407407407396C178.83495145631068,0.7407407407407396,179.41747572815535,0.7407407407407396,180,0.7407407407407396L180,40C179.41747572815535,40,178.83495145631068,40,178.25242718446603,40C177.66990291262135,40,177.0873786407767,40,176.50485436893203,40C175.92233009708738,40,175.3398058252427,40,174.75728155339806,40C174.1747572815534,40,173.59223300970874,40,173.0097087378641,40C172.4271844660194,40,171.84466019417476,40,171.2621359223301,40C170.67961165048544,40,170.09708737864077,40,169.51456310679612,40C168.93203883495147,40,168.3495145631068,40,167.76699029126215,40C167.1844660194175,40,166.60194174757282,40,166.01941747572818,40C165.4368932038835,40,164.85436893203885,40,164.27184466019418,40C163.68932038834953,40,163.10679611650485,40,162.5242718446602,40C161.94174757281556,40,161.35922330097088,40,160.77669902912623,40C160.19417475728156,40,159.6116504854369,40,159.02912621359224,40C158.44660194174756,40,157.8640776699029,40,157.28155339805824,40C156.6990291262136,40,156.1165048543689,40,155.53398058252426,40C154.95145631067962,40,154.36893203883494,40,153.7864077669903,40C153.20388349514562,40,152.62135922330097,40,152.0388349514563,40C151.45631067961165,40,150.87378640776697,40,150.29126213592232,40C149.70873786407768,40,149.126213592233,40,148.54368932038835,40C147.96116504854368,40,147.37864077669903,40,146.79611650485435,40C146.2135922330097,40,145.63106796116503,40,145.04854368932038,40C144.46601941747574,40,143.88349514563106,40,143.3009708737864,40C142.71844660194174,40,142.1359223300971,40,141.5533980582524,40C140.3883495145631,40,139.2233009708738,40,138.05825242718447,40C137.4757281553398,40,136.89320388349515,40,136.31067961165047,40C135.72815533980582,40,135.14563106796115,40,134.5631067961165,40C133.98058252427185,40,133.39805825242718,40,132.81553398058253,40C132.23300970873788,40,131.6504854368932,40,131.06796116504856,40C129.90291262135923,40,128.7378640776699,40,127.57281553398059,40C126.99029126213593,40,126.40776699029126,40,125.8252427184466,40C125.24271844660194,40,124.6601941747573,40,124.07766990291263,40C123.49514563106797,40,122.91262135922331,40,122.33009708737865,40C121.74757281553399,40,121.16504854368932,40,120.58252427184466,40C120,40,119.41747572815535,40,118.83495145631069,40C118.25242718446603,40,117.66990291262137,40,117.0873786407767,40C115.92233009708738,40,114.75728155339807,40,113.59223300970875,40C111.2621359223301,40,108.93203883495146,40,106.60194174757281,40C106.01941747572815,40,105.43689320388349,40,104.85436893203882,40C104.27184466019416,40,103.68932038834951,40,103.10679611650485,40C100.7766990291262,40,98.44660194174757,40,96.11650485436893,40C94.9514563106796,40,93.7864077669903,40,92.62135922330097,40C87.96116504854369,40,83.3009708737864,40,78.64077669902912,40C77.4757281553398,40,76.31067961165049,40,75.14563106796116,40C70.48543689320388,40,65.8252427184466,40,61.16504854368932,40C60,40,58.834951456310684,40,57.66990291262136,40C57.0873786407767,40,56.50485436893204,40,55.922330097087375,40C55.33980582524271,40,54.75728155339806,40,54.1747572815534,40C52.42718446601942,40,50.679611650485434,40,48.932038834951456,40C46.601941747572816,40,44.271844660194176,40,41.94174757281554,40C41.359223300970875,40,40.77669902912622,40,40.19417475728156,40C36.116504854368934,40,32.03883495145631,40,27.961165048543688,40C25.631067961165048,40,23.300970873786408,40,20.97087378640777,40C19.80582524271845,40,18.640776699029125,40,17.475728155339805,40C16.310679611650485,40,15.145631067961164,40,13.980582524271844,40C12.815533980582524,40,11.650485436893204,40,10.485436893203884,40C9.320388349514563,40,8.155339805825243,40,6.990291262135922,40C5.825242718446601,40,4.660194174757281,40,3.495145631067961,40C2.9126213592233006,40,2.3300970873786406,40,1.7475728155339805,40C1.1650485436893203,40,0.5825242718446602,40,0,40Z"></path><path class="line" stroke="black" fill="none" d="M0,25.185185185185187C0.5825242718446602,32.592592592592595,1.1650485436893203,40,1.7475728155339805,40C2.3300970873786406,40,2.9126213592233006,0.7407407407407396,3.495145631067961,0.7407407407407396C4.660194174757281,0.7407407407407396,5.825242718446601,0.7407407407407396,6.990291262135922,0.7407407407407396C8.155339805825243,0.7407407407407396,9.320388349514563,0.7407407407407396,10.485436893203884,0.7407407407407396C11.650485436893204,0.7407407407407396,12.815533980582524,0.7407407407407396,13.980582524271844,0.7407407407407396C15.145631067961164,0.7407407407407396,16.310679611650485,0.7407407407407396,17.475728155339805,0.7407407407407396C18.640776699029125,0.7407407407407396,19.80582524271845,0.7407407407407396,20.97087378640777,0.7407407407407396C23.300970873786408,0.7407407407407396,25.631067961165048,0.7407407407407396,27.961165048543688,0.7407407407407396C32.03883495145631,0.7407407407407396,36.116504854368934,0.7407407407407396,40.19417475728156,0.7407407407407396C40.77669902912622,0.7407407407407396,41.359223300970875,0.7407407407407396,41.94174757281554,0.7407407407407396C44.271844660194176,0.7407407407407396,46.601941747572816,0.7407407407407396,48.932038834951456,0.7407407407407396C50.679611650485434,0.7407407407407396,52.42718446601942,0.7407407407407396,54.1747572815534,0.7407407407407396C54.75728155339806,0.7407407407407396,55.33980582524271,0.7407407407407396,55.922330097087375,0.7407407407407396C56.50485436893204,0.7407407407407396,57.0873786407767,0.7407407407407396,57.66990291262136,0.7407407407407396C58.834951456310684,0.7407407407407396,60,0.7407407407407396,61.16504854368932,0.7407407407407396C65.8252427184466,0.7407407407407396,70.48543689320388,0.7407407407407396,75.14563106796116,0.7407407407407396C76.31067961165049,0.7407407407407396,77.4757281553398,0.7407407407407396,78.64077669902912,0.7407407407407396C83.3009708737864,0.7407407407407396,87.96116504854369,0.7407407407407396,92.62135922330097,0.7407407407407396C93.7864077669903,0.7407407407407396,94.9514563106796,0.7407407407407396,96.11650485436893,0.7407407407407396C98.44660194174757,0.7407407407407396,100.7766990291262,0.7407407407407396,103.10679611650485,0.7407407407407396C103.68932038834951,0.7407407407407396,104.27184466019416,0.7407407407407396,104.85436893203882,0.7407407407407396C105.43689320388349,0.7407407407407396,106.01941747572815,0.7407407407407396,106.60194174757281,0.7407407407407396C108.93203883495146,0.7407407407407396,111.2621359223301,0.7407407407407396,113.59223300970875,0.7407407407407396C114.75728155339807,0.7407407407407396,115.92233009708738,0.7407407407407396,117.0873786407767,0.7407407407407396C117.66990291262137,0.7407407407407396,118.25242718446603,0.7407407407407396,118.83495145631069,0.7407407407407396C119.41747572815535,0.7407407407407396,120,0.7407407407407396,120.58252427184466,0.7407407407407396C121.16504854368932,0.7407407407407396,121.74757281553399,0.7407407407407396,122.33009708737865,0.7407407407407396C122.91262135922331,0.7407407407407396,123.49514563106797,0.7407407407407396,124.07766990291263,0.7407407407407396C124.6601941747573,0.7407407407407396,125.24271844660194,0.7407407407407396,125.8252427184466,0.7407407407407396C126.40776699029126,0.7407407407407396,126.99029126213593,0.7407407407407396,127.57281553398059,0.7407407407407396C128.7378640776699,0.7407407407407396,129.90291262135923,0.7407407407407396,131.06796116504856,0.7407407407407396C131.6504854368932,0.7407407407407396,132.23300970873788,0.7407407407407396,132.81553398058253,0.7407407407407396C133.39805825242718,0.7407407407407396,133.98058252427185,0.7407407407407396,134.5631067961165,0.7407407407407396C135.14563106796115,0.7407407407407396,135.72815533980582,0.7407407407407396,136.31067961165047,0.7407407407407396C136.89320388349515,0.7407407407407396,137.4757281553398,0.7407407407407396,138.05825242718447,0.7407407407407396C139.2233009708738,0.7407407407407396,140.3883495145631,0.7407407407407396,141.5533980582524,0.7407407407407396C142.1359223300971,0.7407407407407396,142.71844660194174,0.7407407407407396,143.3009708737864,0.7407407407407396C143.88349514563106,0.7407407407407396,144.46601941747574,0.7407407407407396,145.04854368932038,0.7407407407407396C145.63106796116503,0.7407407407407396,146.2135922330097,0.7407407407407396,146.79611650485435,0.7407407407407396C147.37864077669903,0.7407407407407396,147.96116504854368,0.7407407407407396,148.54368932038835,0.7407407407407396C149.126213592233,0.7407407407407396,149.70873786407768,0.7407407407407396,150.29126213592232,0.7407407407407396C150.87378640776697,0.7407407407407396,151.45631067961165,0.7407407407407396,152.0388349514563,0.7407407407407396C152.62135922330097,0.7407407407407396,153.20388349514562,0.7407407407407396,153.7864077669903,0.7407407407407396C154.36893203883494,0.7407407407407396,154.95145631067962,0.7407407407407396,155.53398058252426,0.7407407407407396C156.1165048543689,0.7407407407407396,156.6990291262136,0.7407407407407396,157.28155339805824,0.7407407407407396C157.8640776699029,0.7407407407407396,158.44660194174756,0.7407407407407396,159.02912621359224,0.7407407407407396C159.6116504854369,0.7407407407407396,160.19417475728156,0.7407407407407396,160.77669902912623,0.7407407407407396C161.35922330097088,0.7407407407407396,161.94174757281556,0.7407407407407396,162.5242718446602,0.7407407407407396C163.10679611650485,0.7407407407407396,163.68932038834953,0.7407407407407396,164.27184466019418,0.7407407407407396C164.85436893203885,0.7407407407407396,165.4368932038835,0.7407407407407396,166.01941747572818,0.7407407407407396C166.60194174757282,0.7407407407407396,167.1844660194175,0.7407407407407396,167.76699029126215,0.7407407407407396C168.3495145631068,0.7407407407407396,168.93203883495147,0.7407407407407396,169.51456310679612,0.7407407407407396C170.09708737864077,0.7407407407407396,170.67961165048544,0.7407407407407396,171.2621359223301,0.7407407407407396C171.84466019417476,0.7407407407407396,172.4271844660194,0.7407407407407396,173.0097087378641,0.7407407407407396C173.59223300970874,0.7407407407407396,174.1747572815534,0.7407407407407396,174.75728155339806,0.7407407407407396C175.3398058252427,0.7407407407407396,175.92233009708738,0.7407407407407396,176.50485436893203,0.7407407407407396C177.0873786407767,0.7407407407407396,177.66990291262135,0.7407407407407396,178.25242718446603,0.7407407407407396C178.83495145631068,0.7407407407407396,179.41747572815535,0.7407407407407396,180,0.7407407407407396"></path><path class="axis-ceiling" stroke-width="1" stroke="black" fill="none" d="M175,0L180,0"></path><text class="axis-ceiling-label" font-family="sans-serif" text-anchor="end" font-size="10px" x="170" y="2.5">1</text></g></svg>