<svg xmlns="http://www.w3.org/2000/svg" viewBox="0 0 180 60"><g transform="translate(0,20)"><path class="area" fill="rgba(0, 0, 0, 0.2)" d="M0,38.519999999999996C2,38.5,4,38.48,6,38.4C7,38.36,8,38.3,9,38.239999999999995C10,38.17999999999999,11,38.12,12,38.04C13,37.96,14,37.86,15,37.76C16,37.66,17,37.55333333333333,18,37.44C19,37.32666666666667,20,37.19333333333333,21,37.08C22,36.96666666666667,23,36.86000000000001,24,36.760000000000005C25,36.660000000000004,26,36.56666666666667,27,36.480000000000004C28,36.39333333333334,29,36.35333333333334,30,36.24C31,36.126666666666665,32,35.96666666666666,33,35.8C34,35.63333333333333,35,35.46,36,35.24C37,35.02,38,34.74666666666666,39,34.48C40,34.21333333333333,41,33.96,42,33.64C43,33.32,44,32.93333333333334,45,32.56C46,32.18666666666667,47,31.80666666666667,48,31.400000000000002C49,30.993333333333336,50,30.533333333333335,51,30.12C52,29.706666666666667,53,29.29333333333333,54,28.919999999999998C55,28.546666666666667,56,28.213333333333335,57,27.880000000000003C58,27.54666666666667,59,27.240000000000002,60,26.92C61,26.6,61.99999999999999,26.253333333333334,62.99999999999999,25.96C63.99999999999999,25.666666666666668,65,25.42,66,25.16C67,24.9,68,24.626666666666665,69,24.4C70,24.173333333333332,71,23.993333333333332,72,23.799999999999997C73,23.606666666666662,74,23.41333333333333,75,23.24C76,23.066666666666666,77,22.91333333333333,78,22.759999999999998C79,22.606666666666666,80,22.446666666666665,81,22.32C82,22.193333333333335,83,22.086666666666666,84,22C85,21.913333333333334,86,21.9,87,21.799999999999997C88,21.699999999999996,89,21.526666666666664,90,21.4C91,21.273333333333333,92.00000000000001,21.153333333333332,93.00000000000001,21.04C94.00000000000001,20.926666666666666,95,20.826666666666664,96,20.72C97,20.613333333333333,98.00000000000001,20.506666666666664,99.00000000000001,20.4C100.00000000000001,20.293333333333333,101,20.179999999999996,102,20.08C103,19.979999999999997,104,19.9,105,19.8C106,19.700000000000003,107,19.560000000000002,108,19.48C109,19.4,110,19.373333333333335,111,19.32C112,19.266666666666666,113,19.213333333333335,114,19.16C115,19.106666666666666,116,19.046666666666667,117,19C118,18.953333333333333,119,18.88,120,18.88C121,18.88,122,19.03333333333333,123,19.16C124,19.286666666666665,124.99999999999999,19.493333333333336,125.99999999999999,19.64C126.99999999999999,19.78666666666667,128,19.933333333333334,129,20.04C130,20.146666666666665,131,20.173333333333336,132,20.28C133,20.386666666666667,134,20.653333333333332,135,20.68C136,20.706666666666667,137,20.69333333333333,138,20.72C139,20.746666666666666,140,21.04,141,21.04C142,21.04,143,20.92,144,20.92C145,20.92,146,21.21333333333333,147,21.319999999999997C148,21.426666666666662,149,21.46666666666666,150,21.559999999999995C151,21.65333333333333,152,21.79333333333333,153,21.879999999999995C154,21.96666666666666,155,21.946666666666665,156,22.080000000000002C157,22.21333333333334,158,22.72,159,22.96C160,23.200000000000003,161,23.320000000000004,162,23.520000000000003C163,23.720000000000002,164,24.16,165,24.16C166,24.16,167,24.04,168,24.04C169,24.04,170,24.126666666666665,171,24.16C172,24.193333333333335,173,24.22,174,24.24C175,24.259999999999998,176,24.28,177,24.28C178,24.28,179,24.02,180,23.759999999999998L180,40C179,40,178,40,177,40C176,40,175,40,174,40C173,40,172,40,171,40C170,40,169,40,168,40C167,40,166,40,165,40C164,40,163,40,162,40C161,40,160,40,159,40C158,40,157,40,156,40C155,40,154,40,153,40C152,40,151,40,150,40C149,40,148,40,147,40C146,40,145,40,144,40C143,40,142,40,141,40C140,40,139,40,138,40C137,40,136,40,135,40C134,40,133,40,132,40C131,40,130,40,129,40C128,40,126.99999999999999,40,125.99999999999999,40C124.99999999999999,40,124,40,123,40C122,40,121,40,120,40C119,40,118,40,117,40C116,40,115,40,114,40C113,40,112,40,111,40C110,40,109,40,108,40C107,40,106,40,105,40C104,40,103,40,102,40C101,40,100.00000000000001,40,99.00000000000001,40C98.00000000000001,40,97,40,96,40C95,40,94.00000000000001,40,93.00000000000001,40C92.00000000000001,40,91,40,90,40C89,40,88,40,87,40C86,40,85,40,84,40C83,40,82,40,81,40C80,40,79,40,78,40C77,40,76,40,75,40C74,40,73,40,72,40C71,40,70,40,69,40C68,40,67,40,66,40C65,40,63.99999999999999,40,62.99999999999999,40C61.99999999999999,40,61,40,60,40C59,40,58,40,57,40C56,40,55,40,54,40C53,40,52,40,51,40C50,40,49,40,48,40C47,40,46,40,45,40C44,40,43,40,42,40C41,40,40,40,39,40C38,40,37,40,36,40C35,40,34,40,33,40C32,40,31,40,30,40C29,40,28,40,27,40C26,40,25,40,24,40C23,40,22,40,21,40C20,40,19,40,18,40C17,40,16,40,15,40C14,40,13,40,12,40C11,40,10,40,9,40C8,40,7,40,6,40C4,40,2,40,0,40Z"></path><path class="line" stroke="black" fill="none" d="M0,38.519999999999996C2,38.5,4,38.48,6,38.4C7,38.36,8,38.3,9,38.239999999999995C10,38.17999999999999,11,38.12,12,38.04C13,37.96,14,37.86,15,37.76C16,37.66,17,37.55333333333333,18,37.44C19,37.32666666666667,20,37.19333333333333,21,37.08C22,36.96666666666667,23,36.86000000000001,24,36.760000000000005C25,36.660000000000004,26,36.56666666666667,27,36.480000000000004C28,36.39333333333334,29,36.35333333333334,30,36.24C31,36.126666666666665,32,35.96666666666666,33,35.8C34,35.63333333333333,35,35.46,36,35.24C37,35.02,38,34.74666666666666,39,34.48C40,34.21333333333333,41,33.96,42,33.64C43,33.32,44,32.93333333333334,45,32.56C46,32.18666666666667,47,31.80666666666667,48,31.400000000000002C49,30.993333333333336,50,30.533333333333335,51,30.12C52,29.706666666666667,53,29.29333333333333,54,28.919999999999998C55,28.546666666666667,56,28.213333333333335,57,27.880000000000003C58,27.54666666666667,59,27.240000000000002,60,26.92C61,26.6,61.99999999999999,26.253333333333334,62.99999999999999,25.96C63.99999999999999,25.666666666666668,65,25.42,66,25.16C67,24.9,68,24.626666666666665,69,24.4C70,24.173333333333332,71,23.993333333333332,72,23.799999999999997C73,23.606666666666662,74,23.41333333333333,75,23.24C76,23.066666666666666,77,22.91333333333333,78,22.759999999999998C79,22.606666666666666,80,22.446666666666665,81,22.32C82,22.193333333333335,83,22.086666666666666,84,22C85,21.913333333333334,86,21.9,87,21.799999999999997C88,21.699999999999996,89,21.526666666666664,90,21.4C91,21.273333333333333,92.00000000000001,21.153333333333332,93.00000000000001,21.04C94.00000000000001,20.926666666666666,95,20.826666666666664,96,20.72C97,20.613333333333333,98.00000000000001,20.506666666666664,99.00000000000001,20.4C100.00000000000001,20.293333333333333,101,20.179999999999996,102,20.08C103,19.979999999999997,104,19.9,105,19.8C106,19.700000000000003,107,19.560000000000002,108,19.48C109,19.4,110,19.373333333333335,111,19.32C112,19.266666666666666,113,19.213333333333335,114,19.16C115,19.106666666666666,116,19.046666666666667,117,19C118,18.953333333333333,119,18.88,120,18.88C121,18.88,122,19.03333333333333,123,19.16C124,19.286666666666665,124.99999999999999,19.493333333333336,125.99999999999999,19.64C126.99999999999999,19.78666666666667,128,19.933333333333334,129,20.04C130,20.146666666666665,131,20.173333333333336,132,20.28C133,20.386666666666667,134,20.653333333333332,135,20.68C136,20.706666666666667,137,20.69333333333333,138,20.72C139,20.746666666666666,140,21.04,141,21.04C142,21.04,143,20.92,144,20.92C145,20.92,146,21.21333333333333,147,21.319999999999997C148,21.426666666666662,149,21.46666666666666,150,21.559999999999995C151,21.65333333333333,152,21.79333333333333,153,21.879999999999995C154,21.96666666666666,155,21.946666666666665,156,22.080000000000002C157,22.21333333333334,158,22.72,159,22.96C160,23.200000000000003,161,23.320000000000004,162,23.520000000000003C163,23.720000000000002,164,24.16,165,24.16C166,24.16,167,24.04,168,24.04C169,24.04,170,24.126666666666665,171,24.16C172,24.193333333333335,173,24.22,174,24.24C175,24.259999999999998,176,24.28,177,24.28C178,24.28,179,24.02,180,23.759999999999998"></path><path class="axis-ceiling" stroke-width="1" stroke="black" fill="none" d="M175,0L180,0"></path><text class="axis-ceiling-label" font-family="sans-serif" text-anchor="end" font-size="10px" x="170" y="2.5">1000</text></g></svg>