<svg xmlns="http://www.w3.org/2000/svg" viewBox="0 0 180 60"><g transform="translate(0,20)"><path class="area" fill="rgba(0, 0, 0, 0.2)" d="M0,32.5864C1.0169491525423728,32.43553333333333,2.0338983050847457,32.284666666666666,3.0508474576271185,32.146C4.067796610169491,32.007333333333335,5.084745762711864,31.9088,6.101694915254237,31.7544C7.11864406779661,31.6,8.135593220338983,31.36766666666667,9.152542372881356,31.2196C10.169491525423728,31.071533333333335,11.186440677966102,31.0122,12.203389830508474,30.866C13.220338983050846,30.7198,14.23728813559322,30.507266666666666,15.254237288135592,30.3424C16.271186440677965,30.177533333333336,17.28813559322034,30.042600000000004,18.305084745762713,29.876800000000003C19.322033898305087,29.711000000000002,20.338983050847457,29.519533333333335,21.35593220338983,29.3476C22.372881355932204,29.175666666666665,23.389830508474574,29.012800000000002,24.406779661016948,28.845200000000002C25.423728813559322,28.6776,26.440677966101696,28.509866666666667,27.45762711864407,28.342C28.47457627118644,28.174133333333334,29.491525423728813,27.978933333333334,30.508474576271183,27.838C31.525423728813557,27.697066666666668,32.54237288135593,27.626,33.559322033898304,27.4964C34.57627118644068,27.3668,35.59322033898305,27.21053333333333,36.610169491525426,27.060399999999998C37.6271186440678,26.910266666666665,38.644067796610166,26.740399999999998,39.66101694915254,26.595599999999997C40.67796610169491,26.450799999999997,41.69491525423729,26.3488,42.71186440677966,26.1916C43.728813559322035,26.0344,44.7457627118644,25.829,45.762711864406775,25.6524C46.77966101694915,25.4758,47.79661016949152,25.297600000000003,48.813559322033896,25.132000000000005C49.83050847457627,24.966400000000007,50.847457627118644,24.79826666666667,51.86440677966102,24.658800000000003C52.88135593220339,24.519333333333336,53.898305084745765,24.423000000000002,54.91525423728814,24.2952C55.93220338983051,24.1674,56.94915254237288,24.03413333333333,57.96610169491525,23.891999999999996C58.983050847457626,23.749866666666662,59.99999999999999,23.579199999999997,61.01694915254237,23.4424C62.03389830508474,23.305600000000002,63.05084745762712,23.181466666666672,64.0677966101695,23.071200000000005C65.08474576271186,22.960933333333337,66.10169491525424,22.883066666666668,67.11864406779661,22.7808C68.13559322033899,22.67853333333333,69.15254237288136,22.564933333333332,70.16949152542374,22.4576C71.1864406779661,22.350266666666666,72.20338983050848,22.232333333333333,73.22033898305085,22.1368C74.23728813559322,22.04126666666667,75.2542372881356,21.957666666666668,76.27118644067797,21.8844C77.28813559322033,21.81113333333333,78.30508474576271,21.762199999999996,79.32203389830508,21.6972C80.33898305084746,21.632199999999997,81.35593220338983,21.5666,82.37288135593221,21.494400000000002C83.38983050847457,21.422200000000004,84.40677966101696,21.33626666666667,85.42372881355932,21.264000000000003C86.4406779661017,21.191733333333335,87.45762711864407,21.1312,88.47457627118645,21.0608C89.49152542372882,20.9904,90.50847457627118,20.914066666666667,91.52542372881355,20.8416C92.54237288135593,20.769133333333333,93.55932203389831,20.697,94.57627118644069,20.625999999999998C95.59322033898306,20.555,96.61016949152543,20.473466666666667,97.62711864406779,20.4156C98.64406779661016,20.357733333333336,99.66101694915254,20.339533333333332,100.6779661016949,20.278799999999997C101.69491525423729,20.21806666666666,102.71186440677965,20.123199999999997,103.72881355932203,20.051199999999998C104.7457627118644,19.9792,105.76271186440678,19.92246666666667,106.77966101694915,19.8468C107.79661016949153,19.771133333333335,108.8135593220339,19.684133333333335,109.83050847457628,19.5972C110.84745762711864,19.510266666666666,111.86440677966102,19.4062,112.88135593220339,19.3252C113.89830508474576,19.2442,114.91525423728814,19.188533333333332,115.9322033898305,19.1112C116.94915254237289,19.03386666666667,117.96610169491525,18.945,118.98305084745763,18.8612C120,18.7774,121.01694915254237,18.695733333333333,122.03389830508473,18.6084C123.05084745762711,18.521066666666666,124.0677966101695,18.4258,125.08474576271188,18.3372C126.10169491525424,18.2486,127.11864406779662,18.172266666666665,128.135593220339,18.0768C129.15254237288136,17.981333333333332,130.16949152542372,17.8674,131.1864406779661,17.764400000000002C132.20338983050846,17.6614,133.22033898305085,17.56886666666667,134.23728813559322,17.4588C135.25423728813558,17.348733333333332,136.27118644067798,17.224666666666664,137.28813559322035,17.104C138.3050847457627,16.983333333333334,139.3220338983051,16.848533333333332,140.33898305084747,16.7348C141.35593220338984,16.621066666666668,142.3728813559322,16.5498,143.38983050847457,16.4216C144.40677966101694,16.293400000000002,145.42372881355934,16.109733333333335,146.4406779661017,15.965600000000002C147.45762711864407,15.82146666666667,148.47457627118644,15.703333333333335,149.4915254237288,15.556800000000003C150.50847457627117,15.410266666666669,151.52542372881356,15.257266666666668,152.54237288135593,15.086400000000001C153.5593220338983,14.915533333333334,154.5762711864407,14.709666666666669,155.59322033898306,14.531600000000001C156.61016949152543,14.353533333333335,157.6271186440678,14.181933333333333,158.64406779661016,14.018C159.66101694915253,13.854066666666666,160.67796610169492,13.710466666666667,161.6949152542373,13.548C162.71186440677965,13.385533333333333,163.72881355932205,13.214400000000003,164.74576271186442,13.043200000000002C165.76271186440678,12.872000000000003,166.77966101694915,12.70453333333333,167.79661016949152,12.520799999999998C168.81355932203388,12.337066666666663,169.83050847457628,12.145066666666667,170.84745762711864,11.9408C171.864406779661,11.736533333333332,172.8813559322034,11.521666666666665,173.89830508474577,11.295199999999998C174.91525423728814,11.06873333333333,175.93220338983053,10.846066666666665,176.9491525423729,10.581999999999997C177.96610169491527,10.317933333333333,178.98305084745763,10.014366666666668,180,9.710800000000003L180,40C178.98305084745763,40,177.96610169491527,40,176.9491525423729,40C175.93220338983053,40,174.91525423728814,40,173.89830508474577,40C172.8813559322034,40,171.864406779661,40,170.84745762711864,40C169.83050847457628,40,168.81355932203388,40,167.79661016949152,40C166.77966101694915,40,165.76271186440678,40,164.74576271186442,40C163.72881355932205,40,162.71186440677965,40,161.6949152542373,40C160.67796610169492,40,159.66101694915253,40,158.64406779661016,40C157.6271186440678,40,156.61016949152543,40,155.59322033898306,40C154.5762711864407,40,153.5593220338983,40,152.54237288135593,40C151.52542372881356,40,150.50847457627117,40,149.4915254237288,40C148.47457627118644,40,147.45762711864407,40,146.4406779661017,40C145.42372881355934,40,144.40677966101694,40,143.38983050847457,40C142.3728813559322,40,141.35593220338984,40,140.33898305084747,40C139.3220338983051,40,138.3050847457627,40,137.28813559322035,40C136.27118644067798,40,135.25423728813558,40,134.23728813559322,40C133.22033898305085,40,132.20338983050846,40,131.1864406779661,40C130.16949152542372,40,129.15254237288136,40,128.135593220339,40C127.11864406779662,40,126.10169491525424,40,125.08474576271188,40C124.0677966101695,40,123.05084745762711,40,122.03389830508473,40C121.01694915254237,40,120,40,118.98305084745763,40C117.96610169491525,40,116.94915254237289,40,115.9322033898305,40C114.91525423728814,40,113.89830508474576,40,112.88135593220339,40C111.86440677966102,40,110.84745762711864,40,109.83050847457628,40C108.8135593220339,40,107.79661016949153,40,106.77966101694915,40C105.76271186440678,40,104.7457627118644,40,103.72881355932203,40C102.71186440677965,40,101.69491525423729,40,100.6779661016949,40C99.66101694915254,40,98.64406779661016,40,97.62711864406779,40C96.61016949152543,40,95.59322033898306,40,94.57627118644069,40C93.55932203389831,40,92.54237288135593,40,91.52542372881355,40C90.50847457627118,40,89.49152542372882,40,88.47457627118645,40C87.45762711864407,40,86.4406779661017,40,85.42372881355932,40C84.40677966101696,40,83.38983050847457,40,82.37288135593221,40C81.35593220338983,40,80.33898305084746,40,79.32203389830508,40C78.30508474576271,40,77.28813559322033,40,76.27118644067797,40C75.2542372881356,40,74.23728813559322,40,73.22033898305085,40C72.20338983050848,40,71.1864406779661,40,70.16949152542374,40C69.15254237288136,40,68.13559322033899,40,67.11864406779661,40C66.10169491525424,40,65.08474576271186,40,64.0677966101695,40C63.05084745762712,40,62.03389830508474,40,61.01694915254237,40C59.99999999999999,40,58.983050847457626,40,57.96610169491525,40C56.94915254237288,40,55.93220338983051,40,54.91525423728814,40C53.898305084745765,40,52.88135593220339,40,51.86440677966102,40C50.847457627118644,40,49.83050847457627,40,48.813559322033896,40C47.79661016949152,40,46.77966101694915,40,45.762711864406775,40C44.7457627118644,40,43.728813559322035,40,42.71186440677966,40C41.69491525423729,40,40.67796610169491,40,39.66101694915254,40C38.644067796610166,40,37.6271186440678,40,36.610169491525426,40C35.59322033898305,40,34.57627118644068,40,33.559322033898304,40C32.54237288135593,40,31.525423728813557,40,30.508474576271183,40C29.491525423728813,40,28.47457627118644,40,27.45762711864407,40C26.440677966101696,40,25.423728813559322,40,24.406779661016948,40C23.389830508474574,40,22.372881355932204,40,21.35593220338983,40C20.338983050847457,40,19.322033898305087,40,18.305084745762713,40C17.28813559322034,40,16.271186440677965,40,15.254237288135592,40C14.23728813559322,40,13.220338983050846,40,12.203389830508474,40C11.186440677966102,40,10.169491525423728,40,9.152542372881356,40C8.135593220338983,40,7.11864406779661,40,6.101694915254237,40C5.084745762711864,40,4.067796610169491,40,3.0508474576271185,40C2.0338983050847457,40,1.0169491525423728,40,0,40Z"></path><path class="line" stroke="black" fill="none" d="M0,32.5864C1.0169491525423728,32.43553333333333,2.0338983050847457,32.284666666666666,3.0508474576271185,32.146C4.067796610169491,32.007333333333335,5.084745762711864,31.9088,6.101694915254237,31.7544C7.11864406779661,31.6,8.135593220338983,31.36766666666667,9.152542372881356,31.2196C10.169491525423728,31.071533333333335,11.186440677966102,31.0122,12.203389830508474,30.866C13.220338983050846,30.7198,14.23728813559322,30.507266666666666,15.254237288135592,30.3424C16.271186440677965,30.177533333333336,17.28813559322034,30.042600000000004,18.305084745762713,29.876800000000003C19.322033898305087,29.711000000000002,20.338983050847457,29.519533333333335,21.35593220338983,29.3476C22.372881355932204,29.175666666666665,23.389830508474574,29.012800000000002,24.406779661016948,28.845200000000002C25.423728813559322,28.6776,26.440677966101696,28.509866666666667,27.45762711864407,28.342C28.47457627118644,28.174133333333334,29.491525423728813,27.978933333333334,30.508474576271183,27.838C31.525423728813557,27.697066666666668,32.54237288135593,27.626,33.559322033898304,27.4964C34.57627118644068,27.3668,35.59322033898305,27.21053333333333,36.610169491525426,27.060399999999998C37.6271186440678,26.910266666666665,38.644067796610166,26.740399999999998,39.66101694915254,26.595599999999997C40.67796610169491,26.450799999999997,41.69491525423729,26.3488,42.71186440677966,26.1916C43.728813559322035,26.0344,44.7457627118644,25.829,45.762711864406775,25.6524C46.77966101694915,25.4758,47.79661016949152,25.297600000000003,48.813559322033896,25.132000000000005C49.83050847457627,24.966400000000007,50.847457627118644,24.79826666666667,51.86440677966102,24.658800000000003C52.88135593220339,24.519333333333336,53.898305084745765,24.423000000000002,54.91525423728814,24.2952C55.93220338983051,24.1674,56.94915254237288,24.03413333333333,57.96610169491525,23.891999999999996C58.983050847457626,23.749866666666662,59.99999999999999,23.579199999999997,61.01694915254237,23.4424C62.03389830508474,23.305600000000002,63.05084745762712,23.181466666666672,64.0677966101695,23.071200000000005C65.08474576271186,22.960933333333337,66.10169491525424,22.883066666666668,67.11864406779661,22.7808C68.13559322033899,22.67853333333333,69.15254237288136,22.564933333333332,70.16949152542374,22.4576C71.1864406779661,22.350266666666666,72.20338983050848,22.232333333333333,73.22033898305085,22.1368C74.23728813559322,22.04126666666667,75.2542372881356,21.957666666666668,76.27118644067797,21.8844C77.28813559322033,21.81113333333333,78.30508474576271,21.762199999999996,79.32203389830508,21.6972C80.33898305084746,21.632199999999997,81.35593220338983,21.5666,82.37288135593221,21.494400000000002C83.38983050847457,21.422200000000004,84.40677966101696,21.33626666666667,85.42372881355932,21.264000000000003C86.4406779661017,21.191733333333335,87.45762711864407,21.1312,88.47457627118645,21.0608C89.49152542372882,20.9904,90.50847457627118,20.914066666666667,91.52542372881355,20.8416C92.54237288135593,20.769133333333333,93.55932203389831,20.697,94.57627118644069,20.625999999999998C95.59322033898306,20.555,96.61016949152543,20.473466666666667,97.62711864406779,20.4156C98.64406779661016,20.357733333333336,99.66101694915254,20.339533333333332,100.6779661016949,20.278799999999997C101.69491525423729,20.21806666666666,102.71186440677965,20.123199999999997,103.72881355932203,20.051199999999998C104.7457627118644,19.9792,105.76271186440678,19.92246666666667,106.77966101694915,19.8468C107.79661016949153,19.771133333333335,108.8135593220339,19.684133333333335,109.83050847457628,19.5972C110.84745762711864,19.510266666666666,111.86440677966102,19.4062,112.88135593220339,19.3252C113.89830508474576,19.2442,114.91525423728814,19.188533333333332,115.9322033898305,19.1112C116.94915254237289,19.03386666666667,117.96610169491525,18.945,118.98305084745763,18.8612C120,18.7774,121.01694915254237,18.695733333333333,122.03389830508473,18.6084C123.05084745762711,18.521066666666666,124.0677966101695,18.4258,125.08474576271188,18.3372C126.10169491525424,18.2486,127.11864406779662,18.172266666666665,128.135593220339,18.0768C129.15254237288136,17.981333333333332,130.16949152542372,17.8674,131.1864406779661,17.764400000000002C132.20338983050846,17.6614,133.22033898305085,17.56886666666667,134.23728813559322,17.4588C135.25423728813558,17.348733333333332,136.27118644067798,17.224666666666664,137.28813559322035,17.104C138.3050847457627,16.983333333333334,139.3220338983051,16.848533333333332,140.33898305084747,16.7348C141.35593220338984,16.621066666666668,142.3728813559322,16.5498,143.38983050847457,16.4216C144.40677966101694,16.293400000000002,145.42372881355934,16.109733333333335,146.4406779661017,15.965600000000002C147.45762711864407,15.82146666666667,148.47457627118644,15.703333333333335,149.4915254237288,15.556800000000003C150.50847457627117,15.410266666666669,151.52542372881356,15.257266666666668,152.54237288135593,15.086400000000001C153.5593220338983,14.915533333333334,154.5762711864407,14.709666666666669,155.59322033898306,14.531600000000001C156.61016949152543,14.353533333333335,157.6271186440678,14.181933333333333,158.64406779661016,14.018C159.66101694915253,13.854066666666666,160.67796610169492,13.710466666666667,161.6949152542373,13.548C162.71186440677965,13.385533333333333,163.72881355932205,13.214400000000003,164.74576271186442,13.043200000000002C165.76271186440678,12.872000000000003,166.77966101694915,12.70453333333333,167.79661016949152,12.520799999999998C168.81355932203388,12.337066666666663,169.83050847457628,12.145066666666667,170.84745762711864,11.9408C171.864406779661,11.736533333333332,172.8813559322034,11.521666666666665,173.89830508474577,11.295199999999998C174.91525423728814,11.06873333333333,175.93220338983053,10.846066666666665,176.9491525423729,10.581999999999997C177.96610169491527,10.317933333333333,178.98305084745763,10.014366666666668,180,9.710800000000003"></path><path class="axis-ceiling" stroke-width="1" stroke="black" fill="none" d="M175,0L180,0"></path><text class="axis-ceiling-label" font-family="sans-serif" text-anchor="end" font-size="10px" x="170" y="2.5">100000</text></g></svg>