<svg xmlns="http://www.w3.org/2000/svg" viewBox="0 0 180 60"><g transform="translate(0,20)"><path class="area" fill="rgba(0, 0, 0, 0.2)" d="M0,40C1.686746987951807,40,3.3734939759036147,40,5.0602409638554215,40C5.301204819277108,40,5.542168674698795,40,5.783132530120481,40C62.168674698795186,40,118.55421686746988,32,174.93975903614458,32C175.18072289156626,32,175.42168674698797,32,175.66265060240966,32C175.90361445783134,32,176.14457831325302,24,176.3855421686747,24C176.6265060240964,24,176.86746987951807,24,177.10843373493975,24C178.0722891566265,24,179.03614457831324,24,180,24L180,40C179.03614457831324,40,178.0722891566265,40,177.10843373493975,40C176.86746987951807,40,176.6265060240964,40,176.3855421686747,40C176.14457831325302,40,175.90361445783134,40,175.66265060240966,40C175.42168674698797,40,175.18072289156626,40,174.93975903614458,40C118.55421686746988,40,62.168674698795186,40,5.783132530120481,40C5.542168674698795,40,5.301204819277108,40,5.0602409638554215,40C3.3734939759036147,40,1.686746987951807,40,0,40Z"></path><path class="line" stroke="black" fill="none" d="M0,40C1.686746987951807,40,3.3734939759036147,40,5.0602409638554215,40C5.301204819277108,40,5.542168674698795,40,5.783132530120481,40C62.168674698795186,40,118.55421686746988,32,174.93975903614458,32C175.18072289156626,32,175.42168674698797,32,175.66265060240966,32C175.90361445783134,32,176.14457831325302,24,176.3855421686747,24C176.6265060240964,24,176.86746987951807,24,177.10843373493975,24C178.0722891566265,24,179.03614457831324,24,180,24"></path><path class="axis-ceiling" stroke-width="1" stroke="black" fill="none" d="M175,0L180,0"></path><text class="axis-ceiling-label" font-family="sans-serif" text-anchor="end" font-size="10px" x="170" y="2.5">5</text></g></svg>