<svg xmlns="http://www.w3.org/2000/svg" viewBox="0 0 180 60"><g transform="translate(0,20)"><path class="area" fill="rgba(0, 0, 0, 0.2)" d="M0,30.087466666666668C1.0169491525423728,29.97711111111111,2.0338983050847457,29.866755555555553,3.0508474576271185,29.77413333333333C4.067796610169491,29.68151111111111,5.084745762711864,29.616933333333336,6.101694915254237,29.531733333333335C7.11864406779661,29.446533333333335,8.135593220338983,29.35768888888889,9.152542372881356,29.262933333333336C10.169491525423728,29.16817777777778,11.186440677966102,29.0544,12.203389830508474,28.9632C13.220338983050846,28.872,14.23728813559322,28.789244444444442,15.254237288135592,28.715733333333333C16.271186440677965,28.64222222222222,17.28813559322034,28.59031111111111,18.305084745762713,28.522133333333333C19.322033898305087,28.453955555555556,20.338983050847457,28.37822222222222,21.35593220338983,28.306666666666665C22.372881355932204,28.23511111111111,23.389830508474574,28.15648888888889,24.406779661016948,28.092800000000004C25.423728813559322,28.029111111111117,26.440677966101696,27.97337777777778,27.45762711864407,27.924533333333336C28.47457627118644,27.87568888888889,29.491525423728813,27.84306666666667,30.508474576271183,27.799733333333336C31.525423728813557,27.756400000000003,32.54237288135593,27.71266666666667,33.559322033898304,27.66453333333334C34.57627118644068,27.616400000000006,35.59322033898305,27.55911111111111,36.610169491525426,27.510933333333334C37.6271186440678,27.462755555555557,38.644067796610166,27.4224,39.66101694915254,27.375466666666668C40.67796610169491,27.328533333333336,41.69491525423729,27.277644444444448,42.71186440677966,27.229333333333336C43.728813559322035,27.181022222222225,44.7457627118644,27.132933333333337,45.762711864406775,27.085600000000003C46.77966101694915,27.03826666666667,47.79661016949152,26.98391111111111,48.813559322033896,26.94533333333333C49.83050847457627,26.906755555555552,50.847457627118644,26.89462222222222,51.86440677966102,26.854133333333333C52.88135593220339,26.813644444444446,53.898305084745765,26.7504,54.91525423728814,26.702399999999997C55.93220338983051,26.6544,56.94915254237288,26.616577777777778,57.96610169491525,26.566133333333333C58.983050847457626,26.51568888888889,59.99999999999999,26.45768888888889,61.01694915254237,26.399733333333334C62.03389830508474,26.34177777777778,63.05084745762712,26.272399999999998,64.0677966101695,26.218399999999995C65.08474576271186,26.164399999999997,66.10169491525424,26.127288888888888,67.11864406779661,26.075733333333332C68.13559322033899,26.024177777777776,69.15254237288136,25.964933333333335,70.16949152542374,25.909066666666668C71.1864406779661,25.8532,72.20338983050848,25.79875555555556,73.22033898305085,25.740533333333335C74.23728813559322,25.68231111111111,75.2542372881356,25.6188,76.27118644067797,25.559733333333334C77.28813559322033,25.500666666666667,78.30508474576271,25.44977777777778,79.32203389830508,25.386133333333333C80.33898305084746,25.322488888888888,81.35593220338983,25.246533333333332,82.37288135593221,25.177866666666667C83.38983050847457,25.1092,84.40677966101696,25.047511111111113,85.42372881355932,24.974133333333334C86.4406779661017,24.900755555555556,87.45762711864407,24.818044444444446,88.47457627118645,24.7376C89.49152542372882,24.657155555555555,90.50847457627118,24.56728888888889,91.52542372881355,24.491466666666668C92.54237288135593,24.415644444444442,93.55932203389831,24.368133333333333,94.57627118644069,24.282666666666664C95.59322033898306,24.197199999999995,96.61016949152543,24.07475555555555,97.62711864406779,23.978666666666662C98.64406779661016,23.882577777777772,99.66101694915254,23.803822222222216,100.6779661016949,23.70613333333333C101.69491525423729,23.60844444444444,102.71186440677965,23.506444444444448,103.72881355932203,23.392533333333336C104.7457627118644,23.278622222222225,105.76271186440678,23.141377777777777,106.77966101694915,23.022666666666666C107.79661016949153,22.903955555555555,108.8135593220339,22.78955555555556,109.83050847457628,22.680266666666668C110.84745762711864,22.57097777777778,111.86440677966102,22.475244444444442,112.88135593220339,22.366933333333332C113.89830508474576,22.258622222222222,114.91525423728814,22.14453333333333,115.9322033898305,22.0304C116.94915254237289,21.916266666666665,117.96610169491525,21.80462222222222,118.98305084745763,21.682133333333333C120,21.559644444444444,121.01694915254237,21.431644444444444,122.03389830508473,21.295466666666666C123.05084745762711,21.159288888888888,124.0677966101695,21.016044444444447,125.08474576271188,20.865066666666667C126.10169491525424,20.71408888888889,127.11864406779662,20.565644444444448,128.135593220339,20.3896C129.15254237288136,20.21355555555556,130.16949152542372,20.005866666666662,131.1864406779661,19.808799999999998C132.20338983050846,19.61173333333333,133.22033898305085,19.41302222222222,134.23728813559322,19.2072C135.25423728813558,19.00137777777778,136.27118644067798,18.785466666666668,137.28813559322035,18.573866666666667C138.3050847457627,18.362266666666667,139.3220338983051,18.1608,140.33898305084747,17.937599999999996C141.35593220338984,17.714399999999998,142.3728813559322,17.473377777777774,143.38983050847457,17.234666666666666C144.40677966101694,16.995955555555554,145.42372881355934,16.743377777777777,146.4406779661017,16.505333333333333C147.45762711864407,16.26728888888889,148.47457627118644,16.029066666666665,149.4915254237288,15.806399999999998C150.50847457627117,15.583733333333331,151.52542372881356,15.37582222222222,152.54237288135593,15.169333333333332C153.5593220338983,14.962844444444444,154.5762711864407,14.7664,155.59322033898306,14.567466666666666C156.61016949152543,14.368533333333334,157.6271186440678,14.172266666666665,158.64406779661016,13.975733333333334C159.66101694915253,13.7792,160.67796610169492,13.590755555555557,161.6949152542373,13.388266666666668C162.71186440677965,13.18577777777778,163.72881355932205,12.965822222222224,164.74576271186442,12.7608C165.76271186440678,12.555777777777777,166.77966101694915,12.36302222222222,167.79661016949152,12.158133333333332C168.81355932203388,11.953244444444442,169.83050847457628,11.743422222222222,170.84745762711864,11.531466666666667C171.864406779661,11.319511111111112,172.8813559322034,11.073733333333331,173.89830508474577,10.886399999999998C174.91525423728814,10.699066666666665,175.93220338983053,10.563377777777779,176.9491525423729,10.407466666666668C177.96610169491527,10.251555555555557,178.98305084745763,10.101244444444445,180,9.950933333333332L180,40C178.98305084745763,40,177.96610169491527,40,176.9491525423729,40C175.93220338983053,40,174.91525423728814,40,173.89830508474577,40C172.8813559322034,40,171.864406779661,40,170.84745762711864,40C169.83050847457628,40,168.81355932203388,40,167.79661016949152,40C166.77966101694915,40,165.76271186440678,40,164.74576271186442,40C163.72881355932205,40,162.71186440677965,40,161.6949152542373,40C160.67796610169492,40,159.66101694915253,40,158.64406779661016,40C157.6271186440678,40,156.61016949152543,40,155.59322033898306,40C154.5762711864407,40,153.5593220338983,40,152.54237288135593,40C151.52542372881356,40,150.50847457627117,40,149.4915254237288,40C148.47457627118644,40,147.45762711864407,40,146.4406779661017,40C145.42372881355934,40,144.40677966101694,40,143.38983050847457,40C142.3728813559322,40,141.35593220338984,40,140.33898305084747,40C139.3220338983051,40,138.3050847457627,40,137.28813559322035,40C136.27118644067798,40,135.25423728813558,40,134.23728813559322,40C133.22033898305085,40,132.20338983050846,40,131.1864406779661,40C130.16949152542372,40,129.15254237288136,40,128.135593220339,40C127.11864406779662,40,126.10169491525424,40,125.08474576271188,40C124.0677966101695,40,123.05084745762711,40,122.03389830508473,40C121.01694915254237,40,120,40,118.98305084745763,40C117.96610169491525,40,116.94915254237289,40,115.9322033898305,40C114.91525423728814,40,113.89830508474576,40,112.88135593220339,40C111.86440677966102,40,110.84745762711864,40,109.83050847457628,40C108.8135593220339,40,107.79661016949153,40,106.77966101694915,40C105.76271186440678,40,104.7457627118644,40,103.72881355932203,40C102.71186440677965,40,101.69491525423729,40,100.6779661016949,40C99.66101694915254,40,98.64406779661016,40,97.62711864406779,40C96.61016949152543,40,95.59322033898306,40,94.57627118644069,40C93.55932203389831,40,92.54237288135593,40,91.52542372881355,40C90.50847457627118,40,89.49152542372882,40,88.47457627118645,40C87.45762711864407,40,86.4406779661017,40,85.42372881355932,40C84.40677966101696,40,83.38983050847457,40,82.37288135593221,40C81.35593220338983,40,80.33898305084746,40,79.32203389830508,40C78.30508474576271,40,77.28813559322033,40,76.27118644067797,40C75.2542372881356,40,74.23728813559322,40,73.22033898305085,40C72.20338983050848,40,71.1864406779661,40,70.16949152542374,40C69.15254237288136,40,68.13559322033899,40,67.11864406779661,40C66.10169491525424,40,65.08474576271186,40,64.0677966101695,40C63.05084745762712,40,62.03389830508474,40,61.01694915254237,40C59.99999999999999,40,58.983050847457626,40,57.96610169491525,40C56.94915254237288,40,55.93220338983051,40,54.91525423728814,40C53.898305084745765,40,52.88135593220339,40,51.86440677966102,40C50.847457627118644,40,49.83050847457627,40,48.813559322033896,40C47.79661016949152,40,46.77966101694915,40,45.762711864406775,40C44.7457627118644,40,43.728813559322035,40,42.71186440677966,40C41.69491525423729,40,40.67796610169491,40,39.66101694915254,40C38.644067796610166,40,37.6271186440678,40,36.610169491525426,40C35.59322033898305,40,34.57627118644068,40,33.559322033898304,40C32.54237288135593,40,31.525423728813557,40,30.508474576271183,40C29.491525423728813,40,28.47457627118644,40,27.45762711864407,40C26.440677966101696,40,25.423728813559322,40,24.406779661016948,40C23.389830508474574,40,22.372881355932204,40,21.35593220338983,40C20.338983050847457,40,19.322033898305087,40,18.305084745762713,40C17.28813559322034,40,16.271186440677965,40,15.254237288135592,40C14.23728813559322,40,13.220338983050846,40,12.203389830508474,40C11.186440677966102,40,10.169491525423728,40,9.152542372881356,40C8.135593220338983,40,7.11864406779661,40,6.101694915254237,40C5.084745762711864,40,4.067796610169491,40,3.0508474576271185,40C2.0338983050847457,40,1.0169491525423728,40,0,40Z"></path><path class="line" stroke="black" fill="none" d="M0,30.087466666666668C1.0169491525423728,29.97711111111111,2.0338983050847457,29.866755555555553,3.0508474576271185,29.77413333333333C4.067796610169491,29.68151111111111,5.084745762711864,29.616933333333336,6.101694915254237,29.531733333333335C7.11864406779661,29.446533333333335,8.135593220338983,29.35768888888889,9.152542372881356,29.262933333333336C10.169491525423728,29.16817777777778,11.186440677966102,29.0544,12.203389830508474,28.9632C13.220338983050846,28.872,14.23728813559322,28.789244444444442,15.254237288135592,28.715733333333333C16.271186440677965,28.64222222222222,17.28813559322034,28.59031111111111,18.305084745762713,28.522133333333333C19.322033898305087,28.453955555555556,20.338983050847457,28.37822222222222,21.35593220338983,28.306666666666665C22.372881355932204,28.23511111111111,23.389830508474574,28.15648888888889,24.406779661016948,28.092800000000004C25.423728813559322,28.029111111111117,26.440677966101696,27.97337777777778,27.45762711864407,27.924533333333336C28.47457627118644,27.87568888888889,29.491525423728813,27.84306666666667,30.508474576271183,27.799733333333336C31.525423728813557,27.756400000000003,32.54237288135593,27.71266666666667,33.559322033898304,27.66453333333334C34.57627118644068,27.616400000000006,35.59322033898305,27.55911111111111,36.610169491525426,27.510933333333334C37.6271186440678,27.462755555555557,38.644067796610166,27.4224,39.66101694915254,27.375466666666668C40.67796610169491,27.328533333333336,41.69491525423729,27.277644444444448,42.71186440677966,27.229333333333336C43.728813559322035,27.181022222222225,44.7457627118644,27.132933333333337,45.762711864406775,27.085600000000003C46.77966101694915,27.03826666666667,47.79661016949152,26.98391111111111,48.813559322033896,26.94533333333333C49.83050847457627,26.906755555555552,50.847457627118644,26.89462222222222,51.86440677966102,26.854133333333333C52.88135593220339,26.813644444444446,53.898305084745765,26.7504,54.91525423728814,26.702399999999997C55.93220338983051,26.6544,56.94915254237288,26.616577777777778,57.96610169491525,26.566133333333333C58.983050847457626,26.51568888888889,59.99999999999999,26.45768888888889,61.01694915254237,26.399733333333334C62.03389830508474,26.34177777777778,63.05084745762712,26.272399999999998,64.0677966101695,26.218399999999995C65.08474576271186,26.164399999999997,66.10169491525424,26.127288888888888,67.11864406779661,26.075733333333332C68.13559322033899,26.024177777777776,69.15254237288136,25.964933333333335,70.16949152542374,25.909066666666668C71.1864406779661,25.8532,72.20338983050848,25.79875555555556,73.22033898305085,25.740533333333335C74.23728813559322,25.68231111111111,75.2542372881356,25.6188,76.27118644067797,25.559733333333334C77.28813559322033,25.500666666666667,78.30508474576271,25.44977777777778,79.32203389830508,25.386133333333333C80.33898305084746,25.322488888888888,81.35593220338983,25.246533333333332,82.37288135593221,25.177866666666667C83.38983050847457,25.1092,84.40677966101696,25.047511111111113,85.42372881355932,24.974133333333334C86.4406779661017,24.900755555555556,87.45762711864407,24.818044444444446,88.47457627118645,24.7376C89.49152542372882,24.657155555555555,90.50847457627118,24.56728888888889,91.52542372881355,24.491466666666668C92.54237288135593,24.415644444444442,93.55932203389831,24.368133333333333,94.57627118644069,24.282666666666664C95.59322033898306,24.197199999999995,96.61016949152543,24.07475555555555,97.62711864406779,23.978666666666662C98.64406779661016,23.882577777777772,99.66101694915254,23.803822222222216,100.6779661016949,23.70613333333333C101.69491525423729,23.60844444444444,102.71186440677965,23.506444444444448,103.72881355932203,23.392533333333336C104.7457627118644,23.278622222222225,105.76271186440678,23.141377777777777,106.77966101694915,23.022666666666666C107.79661016949153,22.903955555555555,108.8135593220339,22.78955555555556,109.83050847457628,22.680266666666668C110.84745762711864,22.57097777777778,111.86440677966102,22.475244444444442,112.88135593220339,22.366933333333332C113.89830508474576,22.258622222222222,114.91525423728814,22.14453333333333,115.9322033898305,22.0304C116.94915254237289,21.916266666666665,117.96610169491525,21.80462222222222,118.98305084745763,21.682133333333333C120,21.559644444444444,121.01694915254237,21.431644444444444,122.03389830508473,21.295466666666666C123.05084745762711,21.159288888888888,124.0677966101695,21.016044444444447,125.08474576271188,20.865066666666667C126.10169491525424,20.71408888888889,127.11864406779662,20.565644444444448,128.135593220339,20.3896C129.15254237288136,20.21355555555556,130.16949152542372,20.005866666666662,131.1864406779661,19.808799999999998C132.20338983050846,19.61173333333333,133.22033898305085,19.41302222222222,134.23728813559322,19.2072C135.25423728813558,19.00137777777778,136.27118644067798,18.785466666666668,137.28813559322035,18.573866666666667C138.3050847457627,18.362266666666667,139.3220338983051,18.1608,140.33898305084747,17.937599999999996C141.35593220338984,17.714399999999998,142.3728813559322,17.473377777777774,143.38983050847457,17.234666666666666C144.40677966101694,16.995955555555554,145.42372881355934,16.743377777777777,146.4406779661017,16.505333333333333C147.45762711864407,16.26728888888889,148.47457627118644,16.029066666666665,149.4915254237288,15.806399999999998C150.50847457627117,15.583733333333331,151.52542372881356,15.37582222222222,152.54237288135593,15.169333333333332C153.5593220338983,14.962844444444444,154.5762711864407,14.7664,155.59322033898306,14.567466666666666C156.61016949152543,14.368533333333334,157.6271186440678,14.172266666666665,158.64406779661016,13.975733333333334C159.66101694915253,13.7792,160.67796610169492,13.590755555555557,161.6949152542373,13.388266666666668C162.71186440677965,13.18577777777778,163.72881355932205,12.965822222222224,164.74576271186442,12.7608C165.76271186440678,12.555777777777777,166.77966101694915,12.36302222222222,167.79661016949152,12.158133333333332C168.81355932203388,11.953244444444442,169.83050847457628,11.743422222222222,170.84745762711864,11.531466666666667C171.864406779661,11.319511111111112,172.8813559322034,11.073733333333331,173.89830508474577,10.886399999999998C174.91525423728814,10.699066666666665,175.93220338983053,10.563377777777779,176.9491525423729,10.407466666666668C177.96610169491527,10.251555555555557,178.98305084745763,10.101244444444445,180,9.950933333333332"></path><path class="axis-ceiling" stroke-width="1" stroke="black" fill="none" d="M175,0L180,0"></path><text class="axis-ceiling-label" font-family="sans-serif" text-anchor="end" font-size="10px" x="170" y="2.5">150000</text></g></svg>