<svg xmlns="http://www.w3.org/2000/svg" viewBox="0 0 180 60"><g transform="translate(0,20)"><path class="area" fill="rgba(0, 0, 0, 0.2)" d="M0,33.884177368548585C1.0169491525423728,33.84540828689121,2.0338983050847457,33.80663920523383,3.0508474576271185,33.65156287860431C4.067796610169491,33.49648655197479,5.084745762711864,29.47419433002181,6.101694915254237,29.47419433002181C7.11864406779661,29.47419433002181,8.135593220338983,31.170341652532105,9.152542372881356,31.170341652532105C10.169491525423728,31.170341652532105,11.186440677966102,30.77780470075115,12.203389830508474,30.491882723527986C13.220338983050846,30.20596074630482,14.23728813559322,29.480655843631368,15.254237288135592,29.454809789193117C16.271186440677965,29.428963734754866,17.28813559322034,29.44188676197399,18.305084745762713,29.41604070753574C19.322033898305087,29.39019465309749,20.338983050847457,27.112511105726515,21.35593220338983,27.09958807850739C22.372881355932204,27.086665051288268,23.389830508474574,27.09312656489783,24.406779661016948,27.080203537678706C25.423728813559322,27.067280510459582,26.440677966101696,25.920361844762134,27.45762711864407,25.490671189726193C28.47457627118644,25.060980534690252,29.491525423728813,24.79282771989339,30.508474576271183,24.502059607463053C31.525423728813557,24.211291495032718,32.54237288135593,24.13859946692513,33.559322033898304,23.746062515144175C34.57627118644068,23.35352556336322,35.59322033898305,22.14683789677732,36.610169491525426,22.14683789677732C37.6271186440678,22.14683789677732,38.644067796610166,23.79775462402068,39.66101694915254,23.998061545917132C40.67796610169491,24.198368467813584,41.69491525423729,24.29852192876181,42.71186440677966,24.29852192876181C43.728813559322035,24.29852192876181,44.7457627118644,24.217753008642273,45.762711864406775,24.0562151684032C46.77966101694915,23.894677328164125,47.79661016949152,17.38793312333414,48.813559322033896,17.38793312333414C49.83050847457627,17.38793312333414,50.847457627118644,22.3600678458929,51.86440677966102,22.3600678458929C52.88135593220339,22.3600678458929,53.898305084745765,19.840077538163317,54.91525423728814,19.840077538163317C55.93220338983051,19.840077538163317,56.94915254237288,21.894838866004363,57.96610169491525,21.894838866004363C58.983050847457626,21.894838866004363,59.99999999999999,19.81100072692028,61.01694915254237,19.81100072692028C62.03389830508474,19.81100072692028,63.05084745762712,19.820692997334625,64.0677966101695,19.820692997334625C65.08474576271186,19.820692997334625,66.10169491525424,19.5105403440756,67.11864406779661,19.5105403440756C68.13559322033899,19.5105403440756,69.15254237288136,20.867458202083835,70.16949152542374,20.867458202083835C71.1864406779661,20.867458202083835,72.20338983050848,19.589693885792748,73.22033898305085,18.376544705597286C74.23728813559322,17.163395525401825,75.2542372881356,13.588563120911076,76.27118644067797,13.588563120911076C77.28813559322033,13.588563120911076,78.30508474576271,14.993942330991038,79.32203389830508,15.749939423309911C80.33898305084746,16.50593651562879,81.35593220338983,18.12454567482433,82.37288135593221,18.12454567482433C83.38983050847457,18.12454567482433,84.40677966101696,16.535013326871816,85.42372881355932,15.875938938696388C86.4406779661017,15.216864550520956,87.45762711864407,14.170099345771746,88.47457627118645,14.170099345771746C89.49152542372882,14.170099345771746,90.50847457627118,15.21686455052096,91.52542372881355,15.21686455052096C92.54237288135593,15.21686455052096,93.55932203389831,9.495194249252897,94.57627118644069,8.868427429125273C95.59322033898306,8.241660608997657,96.61016949152543,8.555044019061464,97.62711864406779,7.9282771989338485C98.64406779661016,7.301510378806229,99.66101694915254,3.1209110734189505,100.6779661016949,3.1209110734189505C101.69491525423729,3.1209110734189505,102.71186440677965,8.813504563443987,103.72881355932203,8.936273322025684C104.7457627118644,9.059042080607382,105.76271186440678,9.12042645989823,106.77966101694915,9.12042645989823C107.79661016949153,9.12042645989823,108.8135593220339,4.216137630239882,109.83050847457628,4.216137630239882C110.84745762711864,4.216137630239882,111.86440677966102,22.001453840562153,112.88135593220339,22.001453840562153C113.89830508474576,22.001453840562153,114.91525423728814,6.067361279379693,115.9322033898305,6.067361279379693C116.94915254237289,6.067361279379693,117.96610169491525,7.28858735158711,118.98305084745763,7.28858735158711C120,7.28858735158711,121.01694915254237,5.795977707778048,122.03389830508473,5.795977707778048C123.05084745762711,5.795977707778048,124.0677966101695,9.876423552217105,125.08474576271188,11.310879573540102C126.10169491525424,12.745335594863086,127.11864406779662,14.402713835716018,128.135593220339,14.402713835716018C129.15254237288136,14.402713835716018,130.16949152542372,11.688878119699542,131.1864406779661,11.688878119699542C132.20338983050846,11.688878119699542,133.22033898305085,11.724416444552137,134.23728813559322,11.795493094257328C135.25423728813558,11.866569743962518,136.27118644067798,12.81318148776351,137.28813559322035,12.81318148776351C138.3050847457627,12.81318148776351,139.3220338983051,12.483644293675793,140.33898305084747,12.483644293675793C141.35593220338984,12.483644293675793,142.3728813559322,13.291333494871173,143.38983050847457,14.906711897261932C144.40677966101694,16.522090299652707,145.42372881355934,37.072934334867945,146.4406779661017,37.072934334867945C147.45762711864407,37.072934334867945,148.47457627118644,31.91503109603424,149.4915254237288,29.98788466198207C150.50847457627117,28.06073822792988,151.52542372881356,26.771666262822066,152.54237288135593,25.510055730554882C153.5593220338983,24.248445198287698,154.5762711864407,24.05621516840321,155.59322033898306,22.418221468378967C156.61016949152543,20.780227768354738,157.6271186440678,15.682093530409498,158.64406779661016,15.682093530409498C159.66101694915253,15.682093530409498,160.67796610169492,16.509167272433565,161.6949152542373,18.163314756481704C162.71186440677965,19.817462240529842,163.72881355932205,30.940957919392613,164.74576271186442,31.858492851950572C165.76271186440678,32.77602778450852,166.77966101694915,33.2347952507875,167.79661016949152,33.2347952507875C168.81355932203388,33.2347952507875,169.83050847457628,31.39487925046442,170.84745762711864,29.958807850739035C171.864406779661,28.52273645101365,172.8813559322034,24.618366852435184,173.89830508474577,24.618366852435184C174.91525423728814,24.618366852435184,175.93220338983053,25.684516598013087,176.9491525423729,27.81681608916889C177.96610169491527,29.949115580324673,178.98305084745763,34.974557790162336,180,40L180,40C178.98305084745763,40,177.96610169491527,40,176.9491525423729,40C175.93220338983053,40,174.91525423728814,40,173.89830508474577,40C172.8813559322034,40,171.864406779661,40,170.84745762711864,40C169.83050847457628,40,168.81355932203388,40,167.79661016949152,40C166.77966101694915,40,165.76271186440678,40,164.74576271186442,40C163.72881355932205,40,162.71186440677965,40,161.6949152542373,40C160.67796610169492,40,159.66101694915253,40,158.64406779661016,40C157.6271186440678,40,156.61016949152543,40,155.59322033898306,40C154.5762711864407,40,153.5593220338983,40,152.54237288135593,40C151.52542372881356,40,150.50847457627117,40,149.4915254237288,40C148.47457627118644,40,147.45762711864407,40,146.4406779661017,40C145.42372881355934,40,144.40677966101694,40,143.38983050847457,40C142.3728813559322,40,141.35593220338984,40,140.33898305084747,40C139.3220338983051,40,138.3050847457627,40,137.28813559322035,40C136.27118644067798,40,135.25423728813558,40,134.23728813559322,40C133.22033898305085,40,132.20338983050846,40,131.1864406779661,40C130.16949152542372,40,129.15254237288136,40,128.135593220339,40C127.11864406779662,40,126.10169491525424,40,125.08474576271188,40C124.0677966101695,40,123.05084745762711,40,122.03389830508473,40C121.01694915254237,40,120,40,118.98305084745763,40C117.96610169491525,40,116.94915254237289,40,115.9322033898305,40C114.91525423728814,40,113.89830508474576,40,112.88135593220339,40C111.86440677966102,40,110.84745762711864,40,109.83050847457628,40C108.8135593220339,40,107.79661016949153,40,106.77966101694915,40C105.76271186440678,40,104.7457627118644,40,103.72881355932203,40C102.71186440677965,40,101.69491525423729,40,100.6779661016949,40C99.66101694915254,40,98.64406779661016,40,97.62711864406779,40C96.61016949152543,40,95.59322033898306,40,94.57627118644069,40C93.55932203389831,40,92.54237288135593,40,91.52542372881355,40C90.50847457627118,40,89.49152542372882,40,88.47457627118645,40C87.45762711864407,40,86.4406779661017,40,85.42372881355932,40C84.40677966101696,40,83.38983050847457,40,82.37288135593221,40C81.35593220338983,40,80.33898305084746,40,79.32203389830508,40C78.30508474576271,40,77.28813559322033,40,76.27118644067797,40C75.2542372881356,40,74.23728813559322,40,73.22033898305085,40C72.20338983050848,40,71.1864406779661,40,70.16949152542374,40C69.15254237288136,40,68.13559322033899,40,67.11864406779661,40C66.10169491525424,40,65.08474576271186,40,64.0677966101695,40C63.05084745762712,40,62.03389830508474,40,61.01694915254237,40C59.99999999999999,40,58.983050847457626,40,57.96610169491525,40C56.94915254237288,40,55.93220338983051,40,54.91525423728814,40C53.898305084745765,40,52.88135593220339,40,51.86440677966102,40C50.847457627118644,40,49.83050847457627,40,48.813559322033896,40C47.79661016949152,40,46.77966101694915,40,45.762711864406775,40C44.7457627118644,40,43.728813559322035,40,42.71186440677966,40C41.69491525423729,40,40.67796610169491,40,39.66101694915254,40C38.644067796610166,40,37.6271186440678,40,36.610169491525426,40C35.59322033898305,40,34.57627118644068,40,33.559322033898304,40C32.54237288135593,40,31.525423728813557,40,30.508474576271183,40C29.491525423728813,40,28.47457627118644,40,27.45762711864407,40C26.440677966101696,40,25.423728813559322,40,24.406779661016948,40C23.389830508474574,40,22.372881355932204,40,21.35593220338983,40C20.338983050847457,40,19.322033898305087,40,18.305084745762713,40C17.28813559322034,40,16.271186440677965,40,15.254237288135592,40C14.23728813559322,40,13.220338983050846,40,12.203389830508474,40C11.186440677966102,40,10.169491525423728,40,9.152542372881356,40C8.135593220338983,40,7.11864406779661,40,6.101694915254237,40C5.084745762711864,40,4.067796610169491,40,3.0508474576271185,40C2.0338983050847457,40,1.0169491525423728,40,0,40Z"></path><path class="line" stroke="black" fill="none" d="M0,33.884177368548585C1.0169491525423728,33.84540828689121,2.0338983050847457,33.80663920523383,3.0508474576271185,33.65156287860431C4.067796610169491,33.49648655197479,5.084745762711864,29.47419433002181,6.101694915254237,29.47419433002181C7.11864406779661,29.47419433002181,8.135593220338983,31.170341652532105,9.152542372881356,31.170341652532105C10.169491525423728,31.170341652532105,11.186440677966102,30.77780470075115,12.203389830508474,30.491882723527986C13.220338983050846,30.20596074630482,14.23728813559322,29.480655843631368,15.254237288135592,29.454809789193117C16.271186440677965,29.428963734754866,17.28813559322034,29.44188676197399,18.305084745762713,29.41604070753574C19.322033898305087,29.39019465309749,20.338983050847457,27.112511105726515,21.35593220338983,27.09958807850739C22.372881355932204,27.086665051288268,23.389830508474574,27.09312656489783,24.406779661016948,27.080203537678706C25.423728813559322,27.067280510459582,26.440677966101696,25.920361844762134,27.45762711864407,25.490671189726193C28.47457627118644,25.060980534690252,29.491525423728813,24.79282771989339,30.508474576271183,24.502059607463053C31.525423728813557,24.211291495032718,32.54237288135593,24.13859946692513,33.559322033898304,23.746062515144175C34.57627118644068,23.35352556336322,35.59322033898305,22.14683789677732,36.610169491525426,22.14683789677732C37.6271186440678,22.14683789677732,38.644067796610166,23.79775462402068,39.66101694915254,23.998061545917132C40.67796610169491,24.198368467813584,41.69491525423729,24.29852192876181,42.71186440677966,24.29852192876181C43.728813559322035,24.29852192876181,44.7457627118644,24.217753008642273,45.762711864406775,24.0562151684032C46.77966101694915,23.894677328164125,47.79661016949152,17.38793312333414,48.813559322033896,17.38793312333414C49.83050847457627,17.38793312333414,50.847457627118644,22.3600678458929,51.86440677966102,22.3600678458929C52.88135593220339,22.3600678458929,53.898305084745765,19.840077538163317,54.91525423728814,19.840077538163317C55.93220338983051,19.840077538163317,56.94915254237288,21.894838866004363,57.96610169491525,21.894838866004363C58.983050847457626,21.894838866004363,59.99999999999999,19.81100072692028,61.01694915254237,19.81100072692028C62.03389830508474,19.81100072692028,63.05084745762712,19.820692997334625,64.0677966101695,19.820692997334625C65.08474576271186,19.820692997334625,66.10169491525424,19.5105403440756,67.11864406779661,19.5105403440756C68.13559322033899,19.5105403440756,69.15254237288136,20.867458202083835,70.16949152542374,20.867458202083835C71.1864406779661,20.867458202083835,72.20338983050848,19.589693885792748,73.22033898305085,18.376544705597286C74.23728813559322,17.163395525401825,75.2542372881356,13.588563120911076,76.27118644067797,13.588563120911076C77.28813559322033,13.588563120911076,78.30508474576271,14.993942330991038,79.32203389830508,15.749939423309911C80.33898305084746,16.50593651562879,81.35593220338983,18.12454567482433,82.37288135593221,18.12454567482433C83.38983050847457,18.12454567482433,84.40677966101696,16.535013326871816,85.42372881355932,15.875938938696388C86.4406779661017,15.216864550520956,87.45762711864407,14.170099345771746,88.47457627118645,14.170099345771746C89.49152542372882,14.170099345771746,90.50847457627118,15.21686455052096,91.52542372881355,15.21686455052096C92.54237288135593,15.21686455052096,93.55932203389831,9.495194249252897,94.57627118644069,8.868427429125273C95.59322033898306,8.241660608997657,96.61016949152543,8.555044019061464,97.62711864406779,7.9282771989338485C98.64406779661016,7.301510378806229,99.66101694915254,3.1209110734189505,100.6779661016949,3.1209110734189505C101.69491525423729,3.1209110734189505,102.71186440677965,8.813504563443987,103.72881355932203,8.936273322025684C104.7457627118644,9.059042080607382,105.76271186440678,9.12042645989823,106.77966101694915,9.12042645989823C107.79661016949153,9.12042645989823,108.8135593220339,4.216137630239882,109.83050847457628,4.216137630239882C110.84745762711864,4.216137630239882,111.86440677966102,22.001453840562153,112.88135593220339,22.001453840562153C113.89830508474576,22.001453840562153,114.91525423728814,6.067361279379693,115.9322033898305,6.067361279379693C116.94915254237289,6.067361279379693,117.96610169491525,7.28858735158711,118.98305084745763,7.28858735158711C120,7.28858735158711,121.01694915254237,5.795977707778048,122.03389830508473,5.795977707778048C123.05084745762711,5.795977707778048,124.0677966101695,9.876423552217105,125.08474576271188,11.310879573540102C126.10169491525424,12.745335594863086,127.11864406779662,14.402713835716018,128.135593220339,14.402713835716018C129.15254237288136,14.402713835716018,130.16949152542372,11.688878119699542,131.1864406779661,11.688878119699542C132.20338983050846,11.688878119699542,133.22033898305085,11.724416444552137,134.23728813559322,11.795493094257328C135.25423728813558,11.866569743962518,136.27118644067798,12.81318148776351,137.28813559322035,12.81318148776351C138.3050847457627,12.81318148776351,139.3220338983051,12.483644293675793,140.33898305084747,12.483644293675793C141.35593220338984,12.483644293675793,142.3728813559322,13.291333494871173,143.38983050847457,14.906711897261932C144.40677966101694,16.522090299652707,145.42372881355934,37.072934334867945,146.4406779661017,37.072934334867945C147.45762711864407,37.072934334867945,148.47457627118644,31.91503109603424,149.4915254237288,29.98788466198207C150.50847457627117,28.06073822792988,151.52542372881356,26.771666262822066,152.54237288135593,25.510055730554882C153.5593220338983,24.248445198287698,154.5762711864407,24.05621516840321,155.59322033898306,22.418221468378967C156.61016949152543,20.780227768354738,157.6271186440678,15.682093530409498,158.64406779661016,15.682093530409498C159.66101694915253,15.682093530409498,160.67796610169492,16.509167272433565,161.6949152542373,18.163314756481704C162.71186440677965,19.817462240529842,163.72881355932205,30.940957919392613,164.74576271186442,31.858492851950572C165.76271186440678,32.77602778450852,166.77966101694915,33.2347952507875,167.79661016949152,33.2347952507875C168.81355932203388,33.2347952507875,169.83050847457628,31.39487925046442,170.84745762711864,29.958807850739035C171.864406779661,28.52273645101365,172.8813559322034,24.618366852435184,173.89830508474577,24.618366852435184C174.91525423728814,24.618366852435184,175.93220338983053,25.684516598013087,176.9491525423729,27.81681608916889C177.96610169491527,29.949115580324673,178.98305084745763,34.974557790162336,180,40"></path><path class="axis-ceiling" stroke-width="1" stroke="black" fill="none" d="M175,0L180,0"></path><text class="axis-ceiling-label" font-family="sans-serif" text-anchor="end" font-size="10px" x="170" y="2.5">2500</text></g></svg>