<svg xmlns="http://www.w3.org/2000/svg" viewBox="0 0 180 60"><g transform="translate(0,20)"><path class="area" fill="rgba(0, 0, 0, 0.2)" d="M0,37.36C1.8320610687022898,37.38270707070707,3.66412213740458,37.40541414141414,5.49618320610687,37.480000000000004C10.534351145038167,37.68511111111112,15.572519083969464,38.68410256410255,20.610687022900763,38.879999999999995C21.526717557251906,38.915617715617714,22.442748091603054,38.93184149184149,23.358778625954198,38.96C28.396946564885496,39.1148717948718,33.43511450381679,39.408888888888896,38.47328244274809,39.56C38.93129770992367,39.57373737373737,39.38931297709924,39.59466666666667,39.84732824427481,39.6C42.137404580152676,39.626666666666665,44.42748091603053,39.64,46.717557251908396,39.64C47.17557251908397,39.64,47.63358778625954,39.61777777777778,48.091603053435115,39.6C49.00763358778626,39.56444444444445,49.92366412213741,39.44,50.839694656488554,39.44C54.04580152671756,39.44,57.25190839694657,39.458888888888886,60.458015267175576,39.48C64.58015267175573,39.50714285714285,68.70229007633588,39.6,72.82442748091603,39.6C73.74045801526718,39.6,74.65648854961832,39.56,75.57251908396947,39.56C81.52671755725191,39.56,87.48091603053435,39.663625730994156,93.43511450381679,39.72C96.18320610687023,39.746018893387316,98.93129770992367,39.8,101.67938931297711,39.8C102.13740458015268,39.8,102.59541984732824,39.74666666666666,103.05343511450381,39.72C103.51145038167938,39.693333333333335,103.96946564885496,39.656,104.42748091603053,39.64C106.7175572519084,39.559999999999995,109.00763358778626,39.55523809523809,111.29770992366413,39.519999999999996C112.21374045801527,39.50590476190476,113.12977099236642,39.502222222222215,114.04580152671755,39.48C114.50381679389312,39.468888888888884,114.9618320610687,39.45333333333333,115.41984732824427,39.44C115.87786259541984,39.42666666666666,116.33587786259542,39.42666666666666,116.79389312977099,39.4C117.70992366412214,39.346666666666664,118.62595419847328,39.093333333333334,119.54198473282443,39.04C120,39.013333333333335,120.45801526717558,39.013333333333335,120.91603053435115,39C121.37404580152672,38.986666666666665,121.8320610687023,38.973333333333336,122.29007633587787,38.96C122.74809160305344,38.946666666666665,123.20610687022902,38.934666666666665,123.66412213740459,38.92C125.49618320610688,38.861333333333334,127.32824427480917,38.742222222222225,129.16030534351145,38.68C130.0763358778626,38.64888888888889,130.99236641221376,38.626666666666665,131.9083969465649,38.6C132.36641221374046,38.586666666666666,132.82442748091603,38.580000000000005,133.2824427480916,38.56C133.74045801526717,38.54,134.19847328244276,38.48,134.65648854961833,38.48C135.1145038167939,38.48,135.57251908396947,38.48,136.03053435114504,38.48C136.4885496183206,38.48,136.9465648854962,38.346666666666664,137.40458015267177,38.32C137.86259541984734,38.29333333333334,138.3206106870229,38.306666666666665,138.77862595419847,38.28C139.6946564885496,38.22666666666667,140.61068702290078,38.03111111111111,141.5267175572519,37.839999999999996C141.98473282442748,37.74444444444444,142.44274809160305,37.62,142.90076335877862,37.519999999999996C143.3587786259542,37.419999999999995,143.81679389312978,37.42000000000001,144.27480916030535,37.24C144.73282442748092,37.06,145.1908396946565,36.599999999999994,145.64885496183206,36.44C146.10687022900763,36.28,146.56488549618322,36.26666666666667,147.0229007633588,36.2C147.48091603053436,36.13333333333334,147.93893129770993,36.06666666666666,148.3969465648855,36.04C148.85496183206106,36.013333333333335,149.31297709923666,36.026666666666664,149.77099236641223,36C150.2290076335878,35.973333333333336,150.68702290076337,35.92666666666667,151.14503816793894,35.88C151.6030534351145,35.833333333333336,152.06106870229007,35.82666666666667,152.51908396946564,35.72C152.9770992366412,35.61333333333333,153.4351145038168,34.70666666666667,153.89312977099237,34.16C154.35114503816794,33.61333333333334,154.8091603053435,32.94666666666666,155.26717557251908,32.44C155.72519083969465,31.933333333333326,156.18320610687024,31.50666666666667,156.6412213740458,31.12C157.09923664122138,30.73333333333334,157.55725190839695,30.58666666666666,158.01526717557252,30.12C158.4732824427481,29.653333333333332,158.93129770992368,28.613333333333337,159.38931297709925,28.32C159.84732824427482,28.026666666666667,160.3053435114504,28.14666666666667,160.76335877862596,27.880000000000003C161.22137404580153,27.613333333333337,161.6793893129771,27.079999999999995,162.13740458015266,26.72C162.59541984732823,26.359999999999992,163.05343511450383,25.973333333333333,163.5114503816794,25.72C163.96946564885496,25.46666666666667,164.42748091603053,25.439999999999994,164.8854961832061,25.2C165.34351145038167,24.959999999999997,165.80152671755727,24.56666666666667,166.25954198473283,24.28C166.7175572519084,23.993333333333336,167.17557251908397,23.72666666666666,167.63358778625954,23.479999999999997C168.0916030534351,23.233333333333327,168.5496183206107,22.953333333333337,169.00763358778627,22.800000000000004C169.46564885496184,22.646666666666675,169.9236641221374,22.64,170.38167938931298,22.560000000000002C170.83969465648855,22.48,171.29770992366414,22.433333333333337,171.7557251908397,22.32C172.21374045801528,22.206666666666667,172.67175572519085,21.906666666666656,173.12977099236642,21.879999999999995C173.58778625954199,21.853333333333335,174.04580152671755,21.866666666666664,174.50381679389312,21.840000000000003C174.9618320610687,21.813333333333343,175.41984732824426,21.493333333333332,175.87786259541983,21.36C176.3358778625954,21.226666666666663,176.793893129771,21.04,177.25190839694656,21.04C177.70992366412213,21.04,178.1679389312977,21.4,178.62595419847327,21.4C179.08396946564883,21.4,179.54198473282443,20.64,180,19.88L180,40C179.54198473282443,40,179.08396946564883,40,178.62595419847327,40C178.1679389312977,40,177.70992366412213,40,177.25190839694656,40C176.793893129771,40,176.3358778625954,40,175.87786259541983,40C175.41984732824426,40,174.9618320610687,40,174.50381679389312,40C174.04580152671755,40,173.58778625954199,40,173.12977099236642,40C172.67175572519085,40,172.21374045801528,40,171.7557251908397,40C171.29770992366414,40,170.83969465648855,40,170.38167938931298,40C169.9236641221374,40,169.46564885496184,40,169.00763358778627,40C168.5496183206107,40,168.0916030534351,40,167.63358778625954,40C167.17557251908397,40,166.7175572519084,40,166.25954198473283,40C165.80152671755727,40,165.34351145038167,40,164.8854961832061,40C164.42748091603053,40,163.96946564885496,40,163.5114503816794,40C163.05343511450383,40,162.59541984732823,40,162.13740458015266,40C161.6793893129771,40,161.22137404580153,40,160.76335877862596,40C160.3053435114504,40,159.84732824427482,40,159.38931297709925,40C158.93129770992368,40,158.4732824427481,40,158.01526717557252,40C157.55725190839695,40,157.09923664122138,40,156.6412213740458,40C156.18320610687024,40,155.72519083969465,40,155.26717557251908,40C154.8091603053435,40,154.35114503816794,40,153.89312977099237,40C153.4351145038168,40,152.9770992366412,40,152.51908396946564,40C152.06106870229007,40,151.6030534351145,40,151.14503816793894,40C150.68702290076337,40,150.2290076335878,40,149.77099236641223,40C149.31297709923666,40,148.85496183206106,40,148.3969465648855,40C147.93893129770993,40,147.48091603053436,40,147.0229007633588,40C146.56488549618322,40,146.10687022900763,40,145.64885496183206,40C145.1908396946565,40,144.73282442748092,40,144.27480916030535,40C143.81679389312978,40,143.3587786259542,40,142.90076335877862,40C142.44274809160305,40,141.98473282442748,40,141.5267175572519,40C140.61068702290078,40,139.6946564885496,40,138.77862595419847,40C138.3206106870229,40,137.86259541984734,40,137.40458015267177,40C136.9465648854962,40,136.4885496183206,40,136.03053435114504,40C135.57251908396947,40,135.1145038167939,40,134.65648854961833,40C134.19847328244276,40,133.74045801526717,40,133.2824427480916,40C132.82442748091603,40,132.36641221374046,40,131.9083969465649,40C130.99236641221376,40,130.0763358778626,40,129.16030534351145,40C127.32824427480917,40,125.49618320610688,40,123.66412213740459,40C123.20610687022902,40,122.74809160305344,40,122.29007633587787,40C121.8320610687023,40,121.37404580152672,40,120.91603053435115,40C120.45801526717558,40,120,40,119.54198473282443,40C118.62595419847328,40,117.70992366412214,40,116.79389312977099,40C116.33587786259542,40,115.87786259541984,40,115.41984732824427,40C114.9618320610687,40,114.50381679389312,40,114.04580152671755,40C113.12977099236642,40,112.21374045801527,40,111.29770992366413,40C109.00763358778626,40,106.7175572519084,40,104.42748091603053,40C103.96946564885496,40,103.51145038167938,40,103.05343511450381,40C102.59541984732824,40,102.13740458015268,40,101.67938931297711,40C98.93129770992367,40,96.18320610687023,40,93.43511450381679,40C87.48091603053435,40,81.52671755725191,40,75.57251908396947,40C74.65648854961832,40,73.74045801526718,40,72.82442748091603,40C68.70229007633588,40,64.58015267175573,40,60.458015267175576,40C57.25190839694657,40,54.04580152671756,40,50.839694656488554,40C49.92366412213741,40,49.00763358778626,40,48.091603053435115,40C47.63358778625954,40,47.17557251908397,40,46.717557251908396,40C44.42748091603053,40,42.137404580152676,40,39.84732824427481,40C39.38931297709924,40,38.93129770992367,40,38.47328244274809,40C33.43511450381679,40,28.396946564885496,40,23.358778625954198,40C22.442748091603054,40,21.526717557251906,40,20.610687022900763,40C15.572519083969464,40,10.534351145038167,40,5.49618320610687,40C3.66412213740458,40,1.8320610687022898,40,0,40Z"></path><path class="line" stroke="black" fill="none" d="M0,37.36C1.8320610687022898,37.38270707070707,3.66412213740458,37.40541414141414,5.49618320610687,37.480000000000004C10.534351145038167,37.68511111111112,15.572519083969464,38.68410256410255,20.610687022900763,38.879999999999995C21.526717557251906,38.915617715617714,22.442748091603054,38.93184149184149,23.358778625954198,38.96C28.396946564885496,39.1148717948718,33.43511450381679,39.408888888888896,38.47328244274809,39.56C38.93129770992367,39.57373737373737,39.38931297709924,39.59466666666667,39.84732824427481,39.6C42.137404580152676,39.626666666666665,44.42748091603053,39.64,46.717557251908396,39.64C47.17557251908397,39.64,47.63358778625954,39.61777777777778,48.091603053435115,39.6C49.00763358778626,39.56444444444445,49.92366412213741,39.44,50.839694656488554,39.44C54.04580152671756,39.44,57.25190839694657,39.458888888888886,60.458015267175576,39.48C64.58015267175573,39.50714285714285,68.70229007633588,39.6,72.82442748091603,39.6C73.74045801526718,39.6,74.65648854961832,39.56,75.57251908396947,39.56C81.52671755725191,39.56,87.48091603053435,39.663625730994156,93.43511450381679,39.72C96.18320610687023,39.746018893387316,98.93129770992367,39.8,101.67938931297711,39.8C102.13740458015268,39.8,102.59541984732824,39.74666666666666,103.05343511450381,39.72C103.51145038167938,39.693333333333335,103.96946564885496,39.656,104.42748091603053,39.64C106.7175572519084,39.559999999999995,109.00763358778626,39.55523809523809,111.29770992366413,39.519999999999996C112.21374045801527,39.50590476190476,113.12977099236642,39.502222222222215,114.04580152671755,39.48C114.50381679389312,39.468888888888884,114.9618320610687,39.45333333333333,115.41984732824427,39.44C115.87786259541984,39.42666666666666,116.33587786259542,39.42666666666666,116.79389312977099,39.4C117.70992366412214,39.346666666666664,118.62595419847328,39.093333333333334,119.54198473282443,39.04C120,39.013333333333335,120.45801526717558,39.013333333333335,120.91603053435115,39C121.37404580152672,38.986666666666665,121.8320610687023,38.973333333333336,122.29007633587787,38.96C122.74809160305344,38.946666666666665,123.20610687022902,38.934666666666665,123.66412213740459,38.92C125.49618320610688,38.861333333333334,127.32824427480917,38.742222222222225,129.16030534351145,38.68C130.0763358778626,38.64888888888889,130.99236641221376,38.626666666666665,131.9083969465649,38.6C132.36641221374046,38.586666666666666,132.82442748091603,38.580000000000005,133.2824427480916,38.56C133.74045801526717,38.54,134.19847328244276,38.48,134.65648854961833,38.48C135.1145038167939,38.48,135.57251908396947,38.48,136.03053435114504,38.48C136.4885496183206,38.48,136.9465648854962,38.346666666666664,137.40458015267177,38.32C137.86259541984734,38.29333333333334,138.3206106870229,38.306666666666665,138.77862595419847,38.28C139.6946564885496,38.22666666666667,140.61068702290078,38.03111111111111,141.5267175572519,37.839999999999996C141.98473282442748,37.74444444444444,142.44274809160305,37.62,142.90076335877862,37.519999999999996C143.3587786259542,37.419999999999995,143.81679389312978,37.42000000000001,144.27480916030535,37.24C144.73282442748092,37.06,145.1908396946565,36.599999999999994,145.64885496183206,36.44C146.10687022900763,36.28,146.56488549618322,36.26666666666667,147.0229007633588,36.2C147.48091603053436,36.13333333333334,147.93893129770993,36.06666666666666,148.3969465648855,36.04C148.85496183206106,36.013333333333335,149.31297709923666,36.026666666666664,149.77099236641223,36C150.2290076335878,35.973333333333336,150.68702290076337,35.92666666666667,151.14503816793894,35.88C151.6030534351145,35.833333333333336,152.06106870229007,35.82666666666667,152.51908396946564,35.72C152.9770992366412,35.61333333333333,153.4351145038168,34.70666666666667,153.89312977099237,34.16C154.35114503816794,33.61333333333334,154.8091603053435,32.94666666666666,155.26717557251908,32.44C155.72519083969465,31.933333333333326,156.18320610687024,31.50666666666667,156.6412213740458,31.12C157.09923664122138,30.73333333333334,157.55725190839695,30.58666666666666,158.01526717557252,30.12C158.4732824427481,29.653333333333332,158.93129770992368,28.613333333333337,159.38931297709925,28.32C159.84732824427482,28.026666666666667,160.3053435114504,28.14666666666667,160.76335877862596,27.880000000000003C161.22137404580153,27.613333333333337,161.6793893129771,27.079999999999995,162.13740458015266,26.72C162.59541984732823,26.359999999999992,163.05343511450383,25.973333333333333,163.5114503816794,25.72C163.96946564885496,25.46666666666667,164.42748091603053,25.439999999999994,164.8854961832061,25.2C165.34351145038167,24.959999999999997,165.80152671755727,24.56666666666667,166.25954198473283,24.28C166.7175572519084,23.993333333333336,167.17557251908397,23.72666666666666,167.63358778625954,23.479999999999997C168.0916030534351,23.233333333333327,168.5496183206107,22.953333333333337,169.00763358778627,22.800000000000004C169.46564885496184,22.646666666666675,169.9236641221374,22.64,170.38167938931298,22.560000000000002C170.83969465648855,22.48,171.29770992366414,22.433333333333337,171.7557251908397,22.32C172.21374045801528,22.206666666666667,172.67175572519085,21.906666666666656,173.12977099236642,21.879999999999995C173.58778625954199,21.853333333333335,174.04580152671755,21.866666666666664,174.50381679389312,21.840000000000003C174.9618320610687,21.813333333333343,175.41984732824426,21.493333333333332,175.87786259541983,21.36C176.3358778625954,21.226666666666663,176.793893129771,21.04,177.25190839694656,21.04C177.70992366412213,21.04,178.1679389312977,21.4,178.62595419847327,21.4C179.08396946564883,21.4,179.54198473282443,20.64,180,19.88"></path><path class="axis-ceiling" stroke-width="1" stroke="black" fill="none" d="M175,0L180,0"></path><text class="axis-ceiling-label" font-family="sans-serif" text-anchor="end" font-size="10px" x="170" y="2.5">1000</text></g></svg>