<svg xmlns="http://www.w3.org/2000/svg" viewBox="0 0 180 60"><g transform="translate(0,20)"><path class="area" fill="rgba(0, 0, 0, 0.2)" d="M0,16.310249307479225C1.0169491525423728,15.966759002770084,2.0338983050847457,15.623268698060944,3.0508474576271185,15.623268698060944C4.067796610169491,15.623268698060944,5.084745762711864,15.674976915974147,6.101694915254237,15.778393351800553C7.11864406779661,15.881809787626958,8.135593220338983,16.5983379501385,9.152542372881356,16.5983379501385C10.169491525423728,16.5983379501385,11.186440677966102,16.310249307479225,12.203389830508474,16.17728531855956C13.220338983050846,16.044321329639892,14.23728813559322,16.051708217913205,15.254237288135592,15.8005540166205C16.271186440677965,15.549399815327796,17.28813559322034,14.559556786703602,18.305084745762713,14.559556786703602C19.322033898305087,14.559556786703602,20.338983050847457,15.59741458910434,21.35593220338983,16.48753462603878C22.372881355932204,17.37765466297322,23.389830508474574,19.900277008310248,24.406779661016948,19.900277008310248C25.423728813559322,19.900277008310248,26.440677966101696,19.84118190212373,27.45762711864407,19.722991689750693C28.47457627118644,19.604801477377656,29.491525423728813,18.995383194829174,30.508474576271183,18.725761772853183C31.525423728813557,18.456140350877188,32.54237288135593,18.164358264081258,33.559322033898304,18.105263157894736C34.57627118644068,18.046168051708214,35.59322033898305,18.016620498614955,36.610169491525426,18.016620498614955C37.6271186440678,18.016620498614955,38.644067796610166,18.770083102493075,39.66101694915254,18.770083102493075C40.67796610169491,18.770083102493075,41.69491525423729,16.210526315789476,42.71186440677966,15.047091412742382C43.728813559322035,13.883656509695292,44.7457627118644,12.524469067405356,45.762711864406775,11.789473684210527C46.77966101694915,11.054478301015697,47.79661016949152,10.954755309325948,48.813559322033896,10.637119113573409C49.83050847457627,10.319482917820869,50.847457627118644,10.201292705447829,51.86440677966102,9.883656509695289C52.88135593220339,9.566020313942749,53.898305084745765,8.760849492151435,54.91525423728814,8.731301939058174C55.93220338983051,8.701754385964913,56.94915254237288,8.716528162511542,57.96610169491525,8.686980609418281C58.983050847457626,8.65743305632502,59.99999999999999,7.623268698060941,61.01694915254237,7.623268698060941C62.03389830508474,7.623268698060941,63.05084745762712,8.177285318559555,64.0677966101695,8.177285318559555C65.08474576271186,8.177285318559555,66.10169491525424,6.596491228070173,67.11864406779661,6.448753462603878C68.13559322033899,6.301015697137582,69.15254237288136,6.371191135734075,70.16949152542374,6.227146814404434C71.1864406779661,6.083102493074794,72.20338983050848,5.584487534626037,73.22033898305085,5.584487534626037C74.23728813559322,5.584487534626037,75.2542372881356,7.043397968605725,76.27118644067797,7.689750692520776C77.28813559322033,8.336103416435828,78.30508474576271,8.90858725761773,79.32203389830508,9.462603878116344C80.33898305084746,10.01662049861496,81.35593220338983,10.999076638965837,82.37288135593221,11.013850415512465C83.38983050847457,11.028624192059093,84.40677966101696,11.02123730378578,85.42372881355932,11.036011080332408C86.4406779661017,11.050784856879035,87.45762711864407,12.369344413665743,88.47457627118645,12.853185595567869C89.49152542372882,13.337026777469989,90.50847457627118,13.48845798707295,91.52542372881355,13.939058171745152C92.54237288135593,14.38965835641736,93.55932203389831,15.36472760849492,94.57627118644069,15.556786703601109C95.59322033898306,15.748845798707295,96.61016949152543,15.734072022160666,97.62711864406779,15.844875346260388C98.64406779661016,15.95567867036011,99.66101694915254,15.970452446906739,100.6779661016949,16.221606648199444C101.69491525423729,16.47276084949215,102.71186440677965,17.746999076638964,103.72881355932203,18.59279778393352C104.7457627118644,19.438596491228072,105.76271186440678,20.31763619575254,106.77966101694915,21.29639889196676C107.79661016949153,22.275161588180982,108.8135593220339,23.416435826408122,109.83050847457628,24.465373961218837C110.84745762711864,25.514312096029546,111.86440677966102,26.592797783933523,112.88135593220339,27.59002770083103C113.89830508474576,28.587257617728536,114.91525423728814,29.577100646352722,115.9322033898305,30.448753462603875C116.94915254237289,31.32040627885503,117.96610169491525,32.24746075715605,118.98305084745763,32.819944598337955C120,33.392428439519854,121.01694915254237,33.33333333333334,122.03389830508473,33.88365650969529C123.05084745762711,34.43397968605725,124.0677966101695,35.32040627885503,125.08474576271188,36.121883656509695C126.10169491525424,36.92336103416435,127.11864406779662,38.10526315789473,128.135593220339,38.692520775623265C129.15254237288136,39.2797783933518,130.16949152542372,39.64542936288089,131.1864406779661,39.64542936288089C132.20338983050846,39.64542936288089,133.22033898305085,39.578947368421055,134.23728813559322,39.578947368421055C135.25423728813558,39.578947368421055,136.27118644067798,39.73037857802401,137.28813559322035,39.8005540166205C138.3050847457627,39.870729455216996,139.3220338983051,40,140.33898305084747,40C141.35593220338984,40,142.3728813559322,39.87442289935365,143.38983050847457,39.62326869806094C144.40677966101694,39.37211449676823,145.42372881355934,38.49676823638043,146.4406779661017,37.82825484764543C147.45762711864407,37.15974145891044,148.47457627118644,36.339796860572484,149.4915254237288,35.61218836565097C150.50847457627117,34.88457987072945,151.52542372881356,34.0387811634349,152.54237288135593,33.46260387811634C153.5593220338983,32.88642659279778,154.5762711864407,32.734995383194835,155.59322033898306,32.15512465373961C156.61016949152543,31.575253924284397,157.6271186440678,30.710987996306553,158.64406779661016,29.98337950138504C159.66101694915253,29.255771006463522,160.67796610169492,28.55401662049861,161.6949152542373,27.789473684210524C162.71186440677965,27.024930747922436,163.72881355932205,26.090489381348114,164.74576271186442,25.396121883656512C165.76271186440678,24.701754385964918,166.77966101694915,24.07017543859649,167.79661016949152,23.62326869806094C168.81355932203388,23.176361957525387,169.83050847457628,23.032317636195753,170.84745762711864,22.714681440443215C171.864406779661,22.397045244690677,172.8813559322034,22.323176361957525,173.89830508474577,21.717451523545705C174.91525423728814,21.111726685133885,175.93220338983053,19.553093259464458,176.9491525423729,19.0803324099723C177.96610169491527,18.60757156048015,178.98305084745763,18.48938134810711,180,18.371191135734072L180,40C178.98305084745763,40,177.96610169491527,40,176.9491525423729,40C175.93220338983053,40,174.91525423728814,40,173.89830508474577,40C172.8813559322034,40,171.864406779661,40,170.84745762711864,40C169.83050847457628,40,168.81355932203388,40,167.79661016949152,40C166.77966101694915,40,165.76271186440678,40,164.74576271186442,40C163.72881355932205,40,162.71186440677965,40,161.6949152542373,40C160.67796610169492,40,159.66101694915253,40,158.64406779661016,40C157.6271186440678,40,156.61016949152543,40,155.59322033898306,40C154.5762711864407,40,153.5593220338983,40,152.54237288135593,40C151.52542372881356,40,150.50847457627117,40,149.4915254237288,40C148.47457627118644,40,147.45762711864407,40,146.4406779661017,40C145.42372881355934,40,144.40677966101694,40,143.38983050847457,40C142.3728813559322,40,141.35593220338984,40,140.33898305084747,40C139.3220338983051,40,138.3050847457627,40,137.28813559322035,40C136.27118644067798,40,135.25423728813558,40,134.23728813559322,40C133.22033898305085,40,132.20338983050846,40,131.1864406779661,40C130.16949152542372,40,129.15254237288136,40,128.135593220339,40C127.11864406779662,40,126.10169491525424,40,125.08474576271188,40C124.0677966101695,40,123.05084745762711,40,122.03389830508473,40C121.01694915254237,40,120,40,118.98305084745763,40C117.96610169491525,40,116.94915254237289,40,115.9322033898305,40C114.91525423728814,40,113.89830508474576,40,112.88135593220339,40C111.86440677966102,40,110.84745762711864,40,109.83050847457628,40C108.8135593220339,40,107.79661016949153,40,106.77966101694915,40C105.76271186440678,40,104.7457627118644,40,103.72881355932203,40C102.71186440677965,40,101.69491525423729,40,100.6779661016949,40C99.66101694915254,40,98.64406779661016,40,97.62711864406779,40C96.61016949152543,40,95.59322033898306,40,94.57627118644069,40C93.55932203389831,40,92.54237288135593,40,91.52542372881355,40C90.50847457627118,40,89.49152542372882,40,88.47457627118645,40C87.45762711864407,40,86.4406779661017,40,85.42372881355932,40C84.40677966101696,40,83.38983050847457,40,82.37288135593221,40C81.35593220338983,40,80.33898305084746,40,79.32203389830508,40C78.30508474576271,40,77.28813559322033,40,76.27118644067797,40C75.2542372881356,40,74.23728813559322,40,73.22033898305085,40C72.20338983050848,40,71.1864406779661,40,70.16949152542374,40C69.15254237288136,40,68.13559322033899,40,67.11864406779661,40C66.10169491525424,40,65.08474576271186,40,64.0677966101695,40C63.05084745762712,40,62.03389830508474,40,61.01694915254237,40C59.99999999999999,40,58.983050847457626,40,57.96610169491525,40C56.94915254237288,40,55.93220338983051,40,54.91525423728814,40C53.898305084745765,40,52.88135593220339,40,51.86440677966102,40C50.847457627118644,40,49.83050847457627,40,48.813559322033896,40C47.79661016949152,40,46.77966101694915,40,45.762711864406775,40C44.7457627118644,40,43.728813559322035,40,42.71186440677966,40C41.69491525423729,40,40.67796610169491,40,39.66101694915254,40C38.644067796610166,40,37.6271186440678,40,36.610169491525426,40C35.59322033898305,40,34.57627118644068,40,33.559322033898304,40C32.54237288135593,40,31.525423728813557,40,30.508474576271183,40C29.491525423728813,40,28.47457627118644,40,27.45762711864407,40C26.440677966101696,40,25.423728813559322,40,24.406779661016948,40C23.389830508474574,40,22.372881355932204,40,21.35593220338983,40C20.338983050847457,40,19.322033898305087,40,18.305084745762713,40C17.28813559322034,40,16.271186440677965,40,15.254237288135592,40C14.23728813559322,40,13.220338983050846,40,12.203389830508474,40C11.186440677966102,40,10.169491525423728,40,9.152542372881356,40C8.135593220338983,40,7.11864406779661,40,6.101694915254237,40C5.084745762711864,40,4.067796610169491,40,3.0508474576271185,40C2.0338983050847457,40,1.0169491525423728,40,0,40Z"></path><path class="line" stroke="black" fill="none" d="M0,16.310249307479225C1.0169491525423728,15.966759002770084,2.0338983050847457,15.623268698060944,3.0508474576271185,15.623268698060944C4.067796610169491,15.623268698060944,5.084745762711864,15.674976915974147,6.101694915254237,15.778393351800553C7.11864406779661,15.881809787626958,8.135593220338983,16.5983379501385,9.152542372881356,16.5983379501385C10.169491525423728,16.5983379501385,11.186440677966102,16.310249307479225,12.203389830508474,16.17728531855956C13.220338983050846,16.044321329639892,14.23728813559322,16.051708217913205,15.254237288135592,15.8005540166205C16.271186440677965,15.549399815327796,17.28813559322034,14.559556786703602,18.305084745762713,14.559556786703602C19.322033898305087,14.559556786703602,20.338983050847457,15.59741458910434,21.35593220338983,16.48753462603878C22.372881355932204,17.37765466297322,23.389830508474574,19.900277008310248,24.406779661016948,19.900277008310248C25.423728813559322,19.900277008310248,26.440677966101696,19.84118190212373,27.45762711864407,19.722991689750693C28.47457627118644,19.604801477377656,29.491525423728813,18.995383194829174,30.508474576271183,18.725761772853183C31.525423728813557,18.456140350877188,32.54237288135593,18.164358264081258,33.559322033898304,18.105263157894736C34.57627118644068,18.046168051708214,35.59322033898305,18.016620498614955,36.610169491525426,18.016620498614955C37.6271186440678,18.016620498614955,38.644067796610166,18.770083102493075,39.66101694915254,18.770083102493075C40.67796610169491,18.770083102493075,41.69491525423729,16.210526315789476,42.71186440677966,15.047091412742382C43.728813559322035,13.883656509695292,44.7457627118644,12.524469067405356,45.762711864406775,11.789473684210527C46.77966101694915,11.054478301015697,47.79661016949152,10.954755309325948,48.813559322033896,10.637119113573409C49.83050847457627,10.319482917820869,50.847457627118644,10.201292705447829,51.86440677966102,9.883656509695289C52.88135593220339,9.566020313942749,53.898305084745765,8.760849492151435,54.91525423728814,8.731301939058174C55.93220338983051,8.701754385964913,56.94915254237288,8.716528162511542,57.96610169491525,8.686980609418281C58.983050847457626,8.65743305632502,59.99999999999999,7.623268698060941,61.01694915254237,7.623268698060941C62.03389830508474,7.623268698060941,63.05084745762712,8.177285318559555,64.0677966101695,8.177285318559555C65.08474576271186,8.177285318559555,66.10169491525424,6.596491228070173,67.11864406779661,6.448753462603878C68.13559322033899,6.301015697137582,69.15254237288136,6.371191135734075,70.16949152542374,6.227146814404434C71.1864406779661,6.083102493074794,72.20338983050848,5.584487534626037,73.22033898305085,5.584487534626037C74.23728813559322,5.584487534626037,75.2542372881356,7.043397968605725,76.27118644067797,7.689750692520776C77.28813559322033,8.336103416435828,78.30508474576271,8.90858725761773,79.32203389830508,9.462603878116344C80.33898305084746,10.01662049861496,81.35593220338983,10.999076638965837,82.37288135593221,11.013850415512465C83.38983050847457,11.028624192059093,84.40677966101696,11.02123730378578,85.42372881355932,11.036011080332408C86.4406779661017,11.050784856879035,87.45762711864407,12.369344413665743,88.47457627118645,12.853185595567869C89.49152542372882,13.337026777469989,90.50847457627118,13.48845798707295,91.52542372881355,13.939058171745152C92.54237288135593,14.38965835641736,93.55932203389831,15.36472760849492,94.57627118644069,15.556786703601109C95.59322033898306,15.748845798707295,96.61016949152543,15.734072022160666,97.62711864406779,15.844875346260388C98.64406779661016,15.95567867036011,99.66101694915254,15.970452446906739,100.6779661016949,16.221606648199444C101.69491525423729,16.47276084949215,102.71186440677965,17.746999076638964,103.72881355932203,18.59279778393352C104.7457627118644,19.438596491228072,105.76271186440678,20.31763619575254,106.77966101694915,21.29639889196676C107.79661016949153,22.275161588180982,108.8135593220339,23.416435826408122,109.83050847457628,24.465373961218837C110.84745762711864,25.514312096029546,111.86440677966102,26.592797783933523,112.88135593220339,27.59002770083103C113.89830508474576,28.587257617728536,114.91525423728814,29.577100646352722,115.9322033898305,30.448753462603875C116.94915254237289,31.32040627885503,117.96610169491525,32.24746075715605,118.98305084745763,32.819944598337955C120,33.392428439519854,121.01694915254237,33.33333333333334,122.03389830508473,33.88365650969529C123.05084745762711,34.43397968605725,124.0677966101695,35.32040627885503,125.08474576271188,36.121883656509695C126.10169491525424,36.92336103416435,127.11864406779662,38.10526315789473,128.135593220339,38.692520775623265C129.15254237288136,39.2797783933518,130.16949152542372,39.64542936288089,131.1864406779661,39.64542936288089C132.20338983050846,39.64542936288089,133.22033898305085,39.578947368421055,134.23728813559322,39.578947368421055C135.25423728813558,39.578947368421055,136.27118644067798,39.73037857802401,137.28813559322035,39.8005540166205C138.3050847457627,39.870729455216996,139.3220338983051,40,140.33898305084747,40C141.35593220338984,40,142.3728813559322,39.87442289935365,143.38983050847457,39.62326869806094C144.40677966101694,39.37211449676823,145.42372881355934,38.49676823638043,146.4406779661017,37.82825484764543C147.45762711864407,37.15974145891044,148.47457627118644,36.339796860572484,149.4915254237288,35.61218836565097C150.50847457627117,34.88457987072945,151.52542372881356,34.0387811634349,152.54237288135593,33.46260387811634C153.5593220338983,32.88642659279778,154.5762711864407,32.734995383194835,155.59322033898306,32.15512465373961C156.61016949152543,31.575253924284397,157.6271186440678,30.710987996306553,158.64406779661016,29.98337950138504C159.66101694915253,29.255771006463522,160.67796610169492,28.55401662049861,161.6949152542373,27.789473684210524C162.71186440677965,27.024930747922436,163.72881355932205,26.090489381348114,164.74576271186442,25.396121883656512C165.76271186440678,24.701754385964918,166.77966101694915,24.07017543859649,167.79661016949152,23.62326869806094C168.81355932203388,23.176361957525387,169.83050847457628,23.032317636195753,170.84745762711864,22.714681440443215C171.864406779661,22.397045244690677,172.8813559322034,22.323176361957525,173.89830508474577,21.717451523545705C174.91525423728814,21.111726685133885,175.93220338983053,19.553093259464458,176.9491525423729,19.0803324099723C177.96610169491527,18.60757156048015,178.98305084745763,18.48938134810711,180,18.371191135734072"></path><path class="axis-ceiling" stroke-width="1" stroke="black" fill="none" d="M175,0L180,0"></path><text class="axis-ceiling-label" font-family="sans-serif" text-anchor="end" font-size="10px" x="170" y="2.5">1000</text></g></svg>