<svg xmlns="http://www.w3.org/2000/svg" viewBox="0 0 180 60"><g transform="translate(0,20)"><path class="area" fill="rgba(0, 0, 0, 0.2)" d="M0,34.70569915914045C1.0169491525423728,34.74826118550815,2.0338983050847457,34.790823211875846,3.0508474576271185,34.83027094363127C4.067796610169491,34.86971867538669,5.084745762711864,34.942385549673,6.101694915254237,34.942385549673C7.11864406779661,34.942385549673,8.135593220338983,34.87179487179487,9.152542372881356,34.730613516038616C10.169491525423728,34.589432160282364,11.186440677966102,34.09737361154365,12.203389830508474,33.721582061663035C13.220338983050846,33.34579051178242,14.23728813559322,32.884874909166406,15.254237288135592,32.47586421675491C16.271186440677965,32.0668535243434,17.28813559322034,31.591404546870134,18.305084745762713,31.26751790719402C19.322033898305087,30.943631267517905,20.338983050847457,30.85850721478252,21.35593220338983,30.532544378698226C22.372881355932204,30.206581542613932,23.389830508474574,29.72075158309976,24.406779661016948,29.311740890688256C25.423728813559322,28.902730198276753,26.440677966101696,28.508252880722516,27.45762711864407,28.07848022422921C28.47457627118644,27.648707567735904,29.491525423728813,27.123429876466307,30.508474576271183,26.73310495172843C31.525423728813557,26.342780026990546,32.54237288135593,25.987750441191736,33.559322033898304,25.73653067580193C34.57627118644068,25.485310910412124,35.59322033898305,25.404339250493095,36.610169491525426,25.2257863593896C37.6271186440678,25.0472334682861,38.644067796610166,25.0057095401225,39.66101694915254,24.665213329180943C40.67796610169491,24.324717118239388,41.69491525423729,23.44856223398734,42.71186440677966,23.182809093740268C43.728813559322035,22.9170559534932,44.7457627118644,22.968960863697703,45.762711864406775,22.784179383369665C46.77966101694915,22.599397903041627,47.79661016949152,22.10733935430292,48.813559322033896,22.074120211772033C49.83050847457627,22.040901069241148,50.847457627118644,22.057510640506592,51.86440677966102,22.024291497975707C52.88135593220339,21.99107235544482,53.898305084745765,21.517699574379737,54.91525423728814,21.25194643413267C55.93220338983051,20.986193293885602,56.94915254237288,20.705906778781273,57.96610169491525,20.429772656493306C58.983050847457626,20.15363853420534,59.99999999999999,19.595141700404856,61.01694915254237,19.595141700404856C62.03389830508474,19.595141700404856,63.05084745762712,20.230457801308006,64.0677966101695,20.230457801308006C65.08474576271186,20.230457801308006,66.10169491525424,19.81937091248832,67.11864406779661,19.50794145126129C68.13559322033899,19.196511990034256,69.15254237288136,18.741824976642793,70.16949152542374,18.361881033945814C71.1864406779661,17.981937091248835,72.20338983050848,17.435897435897434,73.22033898305085,17.228277795079414C74.23728813559322,17.020658154261394,75.2542372881356,17.08917263573134,76.27118644067797,16.916848333852382C77.28813559322033,16.744524031973423,78.30508474576271,16.478770891726356,79.32203389830508,16.194331983805668C80.33898305084746,15.909893075884979,81.35593220338983,15.54655870445344,82.37288135593221,15.210214886328245C83.38983050847457,14.873871068203051,84.40677966101696,14.639260874078689,85.42372881355932,14.176269075054503C86.4406779661017,13.713277276030315,87.45762711864407,12.89733208761549,88.47457627118645,12.432264092183122C89.49152542372882,11.967196096750756,90.50847457627118,11.946434132668944,91.52542372881355,11.385861102460293C92.54237288135593,10.825288072251634,93.55932203389831,9.735284957957026,94.57627118644069,9.068825910931174C95.59322033898306,8.402366863905332,96.61016949152543,7.875012976227552,97.62711864406779,7.387106820305203C98.64406779661016,6.8992006643828505,99.66101694915254,6.652133291809402,100.6779661016949,6.141388975397071C101.69491525423729,5.630644658984737,102.71186440677965,4.322640921831207,103.72881355932203,4.322640921831207C104.7457627118644,4.322640921831207,105.76271186440678,5.568358766739334,106.77966101694915,5.568358766739334C107.79661016949153,5.568358766739334,108.8135593220339,5.119900342572405,109.83050847457628,5.045157271877918C110.84745762711864,4.9704142011834325,111.86440677966102,4.933042665836189,112.88135593220339,4.933042665836189C113.89830508474576,4.933042665836189,114.91525423728814,5.2652340911450235,115.9322033898305,5.418872625350359C116.94915254237289,5.572511159555695,117.96610169491525,5.620263676943838,118.98305084745763,5.854873871068205C120,6.089484065192568,121.01694915254237,6.436208865358669,122.03389830508473,6.826533790096545C123.05084745762711,7.2168587148344265,124.0677966101695,8.196823419495484,125.08474576271188,8.196823419495484C126.10169491525424,8.196823419495484,127.11864406779662,6.328246652133291,128.135593220339,6.328246652133291C129.15254237288136,6.328246652133291,130.16949152542372,7.1960967507526234,131.1864406779661,7.56150731859234C132.20338983050846,7.92691788643206,133.22033898305085,8.082632617045572,134.23728813559322,8.520710059171597C135.25423728813558,8.958787501297621,136.27118644067798,9.122807017543861,137.28813559322035,10.189971971348491C138.3050847457627,11.257136925153121,139.3220338983051,13.657219973009441,140.33898305084747,14.923699781999375C141.35593220338984,16.190179590989295,142.3728813559322,16.889857780546045,143.38983050847457,17.788850825288073C144.40677966101694,18.68784387003011,145.42372881355934,19.570227343506694,146.4406779661017,20.317658050451573C147.45762711864407,21.065088757396445,148.47457627118644,21.924634070383068,149.4915254237288,22.273435066957337C150.50847457627117,22.62223606353161,151.52542372881356,22.535035814388042,152.54237288135593,22.796636561818747C153.5593220338983,23.058237309249453,154.5762711864407,23.14958995120938,155.59322033898306,23.843039551541576C156.61016949152543,24.536489151873766,157.6271186440678,26.957334163811897,158.64406779661016,26.957334163811897C159.66101694915253,26.957334163811897,160.67796610169492,26.247274992214265,161.6949152542373,26.247274992214265C162.71186440677965,26.247274992214265,163.72881355932205,26.247274992214265,164.74576271186442,26.247274992214265C165.76271186440678,26.247274992214265,166.77966101694915,26.085331672376206,167.79661016949152,26.085331672376206C168.81355932203388,26.085331672376206,169.83050847457628,26.41337070486868,170.84745762711864,27.069448769853626C171.864406779661,27.725526834838572,172.8813559322034,30.00934288383681,173.89830508474577,31.541575833073807C174.91525423728814,33.073808782310806,175.93220338983053,34.853109104121245,176.9491525423729,36.262846465275615C177.96610169491527,37.67258382642997,178.98305084745763,38.836291913214986,180,40L180,40C178.98305084745763,40,177.96610169491527,40,176.9491525423729,40C175.93220338983053,40,174.91525423728814,40,173.89830508474577,40C172.8813559322034,40,171.864406779661,40,170.84745762711864,40C169.83050847457628,40,168.81355932203388,40,167.79661016949152,40C166.77966101694915,40,165.76271186440678,40,164.74576271186442,40C163.72881355932205,40,162.71186440677965,40,161.6949152542373,40C160.67796610169492,40,159.66101694915253,40,158.64406779661016,40C157.6271186440678,40,156.61016949152543,40,155.59322033898306,40C154.5762711864407,40,153.5593220338983,40,152.54237288135593,40C151.52542372881356,40,150.50847457627117,40,149.4915254237288,40C148.47457627118644,40,147.45762711864407,40,146.4406779661017,40C145.42372881355934,40,144.40677966101694,40,143.38983050847457,40C142.3728813559322,40,141.35593220338984,40,140.33898305084747,40C139.3220338983051,40,138.3050847457627,40,137.28813559322035,40C136.27118644067798,40,135.25423728813558,40,134.23728813559322,40C133.22033898305085,40,132.20338983050846,40,131.1864406779661,40C130.16949152542372,40,129.15254237288136,40,128.135593220339,40C127.11864406779662,40,126.10169491525424,40,125.08474576271188,40C124.0677966101695,40,123.05084745762711,40,122.03389830508473,40C121.01694915254237,40,120,40,118.98305084745763,40C117.96610169491525,40,116.94915254237289,40,115.9322033898305,40C114.91525423728814,40,113.89830508474576,40,112.88135593220339,40C111.86440677966102,40,110.84745762711864,40,109.83050847457628,40C108.8135593220339,40,107.79661016949153,40,106.77966101694915,40C105.76271186440678,40,104.7457627118644,40,103.72881355932203,40C102.71186440677965,40,101.69491525423729,40,100.6779661016949,40C99.66101694915254,40,98.64406779661016,40,97.62711864406779,40C96.61016949152543,40,95.59322033898306,40,94.57627118644069,40C93.55932203389831,40,92.54237288135593,40,91.52542372881355,40C90.50847457627118,40,89.49152542372882,40,88.47457627118645,40C87.45762711864407,40,86.4406779661017,40,85.42372881355932,40C84.40677966101696,40,83.38983050847457,40,82.37288135593221,40C81.35593220338983,40,80.33898305084746,40,79.32203389830508,40C78.30508474576271,40,77.28813559322033,40,76.27118644067797,40C75.2542372881356,40,74.23728813559322,40,73.22033898305085,40C72.20338983050848,40,71.1864406779661,40,70.16949152542374,40C69.15254237288136,40,68.13559322033899,40,67.11864406779661,40C66.10169491525424,40,65.08474576271186,40,64.0677966101695,40C63.05084745762712,40,62.03389830508474,40,61.01694915254237,40C59.99999999999999,40,58.983050847457626,40,57.96610169491525,40C56.94915254237288,40,55.93220338983051,40,54.91525423728814,40C53.898305084745765,40,52.88135593220339,40,51.86440677966102,40C50.847457627118644,40,49.83050847457627,40,48.813559322033896,40C47.79661016949152,40,46.77966101694915,40,45.762711864406775,40C44.7457627118644,40,43.728813559322035,40,42.71186440677966,40C41.69491525423729,40,40.67796610169491,40,39.66101694915254,40C38.644067796610166,40,37.6271186440678,40,36.610169491525426,40C35.59322033898305,40,34.57627118644068,40,33.559322033898304,40C32.54237288135593,40,31.525423728813557,40,30.508474576271183,40C29.491525423728813,40,28.47457627118644,40,27.45762711864407,40C26.440677966101696,40,25.423728813559322,40,24.406779661016948,40C23.389830508474574,40,22.372881355932204,40,21.35593220338983,40C20.338983050847457,40,19.322033898305087,40,18.305084745762713,40C17.28813559322034,40,16.271186440677965,40,15.254237288135592,40C14.23728813559322,40,13.220338983050846,40,12.203389830508474,40C11.186440677966102,40,10.169491525423728,40,9.152542372881356,40C8.135593220338983,40,7.11864406779661,40,6.101694915254237,40C5.084745762711864,40,4.067796610169491,40,3.0508474576271185,40C2.0338983050847457,40,1.0169491525423728,40,0,40Z"></path><path class="line" stroke="black" fill="none" d="M0,34.70569915914045C1.0169491525423728,34.74826118550815,2.0338983050847457,34.790823211875846,3.0508474576271185,34.83027094363127C4.067796610169491,34.86971867538669,5.084745762711864,34.942385549673,6.101694915254237,34.942385549673C7.11864406779661,34.942385549673,8.135593220338983,34.87179487179487,9.152542372881356,34.730613516038616C10.169491525423728,34.589432160282364,11.186440677966102,34.09737361154365,12.203389830508474,33.721582061663035C13.220338983050846,33.34579051178242,14.23728813559322,32.884874909166406,15.254237288135592,32.47586421675491C16.271186440677965,32.0668535243434,17.28813559322034,31.591404546870134,18.305084745762713,31.26751790719402C19.322033898305087,30.943631267517905,20.338983050847457,30.85850721478252,21.35593220338983,30.532544378698226C22.372881355932204,30.206581542613932,23.389830508474574,29.72075158309976,24.406779661016948,29.311740890688256C25.423728813559322,28.902730198276753,26.440677966101696,28.508252880722516,27.45762711864407,28.07848022422921C28.47457627118644,27.648707567735904,29.491525423728813,27.123429876466307,30.508474576271183,26.73310495172843C31.525423728813557,26.342780026990546,32.54237288135593,25.987750441191736,33.559322033898304,25.73653067580193C34.57627118644068,25.485310910412124,35.59322033898305,25.404339250493095,36.610169491525426,25.2257863593896C37.6271186440678,25.0472334682861,38.644067796610166,25.0057095401225,39.66101694915254,24.665213329180943C40.67796610169491,24.324717118239388,41.69491525423729,23.44856223398734,42.71186440677966,23.182809093740268C43.728813559322035,22.9170559534932,44.7457627118644,22.968960863697703,45.762711864406775,22.784179383369665C46.77966101694915,22.599397903041627,47.79661016949152,22.10733935430292,48.813559322033896,22.074120211772033C49.83050847457627,22.040901069241148,50.847457627118644,22.057510640506592,51.86440677966102,22.024291497975707C52.88135593220339,21.99107235544482,53.898305084745765,21.517699574379737,54.91525423728814,21.25194643413267C55.93220338983051,20.986193293885602,56.94915254237288,20.705906778781273,57.96610169491525,20.429772656493306C58.983050847457626,20.15363853420534,59.99999999999999,19.595141700404856,61.01694915254237,19.595141700404856C62.03389830508474,19.595141700404856,63.05084745762712,20.230457801308006,64.0677966101695,20.230457801308006C65.08474576271186,20.230457801308006,66.10169491525424,19.81937091248832,67.11864406779661,19.50794145126129C68.13559322033899,19.196511990034256,69.15254237288136,18.741824976642793,70.16949152542374,18.361881033945814C71.1864406779661,17.981937091248835,72.20338983050848,17.435897435897434,73.22033898305085,17.228277795079414C74.23728813559322,17.020658154261394,75.2542372881356,17.08917263573134,76.27118644067797,16.916848333852382C77.28813559322033,16.744524031973423,78.30508474576271,16.478770891726356,79.32203389830508,16.194331983805668C80.33898305084746,15.909893075884979,81.35593220338983,15.54655870445344,82.37288135593221,15.210214886328245C83.38983050847457,14.873871068203051,84.40677966101696,14.639260874078689,85.42372881355932,14.176269075054503C86.4406779661017,13.713277276030315,87.45762711864407,12.89733208761549,88.47457627118645,12.432264092183122C89.49152542372882,11.967196096750756,90.50847457627118,11.946434132668944,91.52542372881355,11.385861102460293C92.54237288135593,10.825288072251634,93.55932203389831,9.735284957957026,94.57627118644069,9.068825910931174C95.59322033898306,8.402366863905332,96.61016949152543,7.875012976227552,97.62711864406779,7.387106820305203C98.64406779661016,6.8992006643828505,99.66101694915254,6.652133291809402,100.6779661016949,6.141388975397071C101.69491525423729,5.630644658984737,102.71186440677965,4.322640921831207,103.72881355932203,4.322640921831207C104.7457627118644,4.322640921831207,105.76271186440678,5.568358766739334,106.77966101694915,5.568358766739334C107.79661016949153,5.568358766739334,108.8135593220339,5.119900342572405,109.83050847457628,5.045157271877918C110.84745762711864,4.9704142011834325,111.86440677966102,4.933042665836189,112.88135593220339,4.933042665836189C113.89830508474576,4.933042665836189,114.91525423728814,5.2652340911450235,115.9322033898305,5.418872625350359C116.94915254237289,5.572511159555695,117.96610169491525,5.620263676943838,118.98305084745763,5.854873871068205C120,6.089484065192568,121.01694915254237,6.436208865358669,122.03389830508473,6.826533790096545C123.05084745762711,7.2168587148344265,124.0677966101695,8.196823419495484,125.08474576271188,8.196823419495484C126.10169491525424,8.196823419495484,127.11864406779662,6.328246652133291,128.135593220339,6.328246652133291C129.15254237288136,6.328246652133291,130.16949152542372,7.1960967507526234,131.1864406779661,7.56150731859234C132.20338983050846,7.92691788643206,133.22033898305085,8.082632617045572,134.23728813559322,8.520710059171597C135.25423728813558,8.958787501297621,136.27118644067798,9.122807017543861,137.28813559322035,10.189971971348491C138.3050847457627,11.257136925153121,139.3220338983051,13.657219973009441,140.33898305084747,14.923699781999375C141.35593220338984,16.190179590989295,142.3728813559322,16.889857780546045,143.38983050847457,17.788850825288073C144.40677966101694,18.68784387003011,145.42372881355934,19.570227343506694,146.4406779661017,20.317658050451573C147.45762711864407,21.065088757396445,148.47457627118644,21.924634070383068,149.4915254237288,22.273435066957337C150.50847457627117,22.62223606353161,151.52542372881356,22.535035814388042,152.54237288135593,22.796636561818747C153.5593220338983,23.058237309249453,154.5762711864407,23.14958995120938,155.59322033898306,23.843039551541576C156.61016949152543,24.536489151873766,157.6271186440678,26.957334163811897,158.64406779661016,26.957334163811897C159.66101694915253,26.957334163811897,160.67796610169492,26.247274992214265,161.6949152542373,26.247274992214265C162.71186440677965,26.247274992214265,163.72881355932205,26.247274992214265,164.74576271186442,26.247274992214265C165.76271186440678,26.247274992214265,166.77966101694915,26.085331672376206,167.79661016949152,26.085331672376206C168.81355932203388,26.085331672376206,169.83050847457628,26.41337070486868,170.84745762711864,27.069448769853626C171.864406779661,27.725526834838572,172.8813559322034,30.00934288383681,173.89830508474577,31.541575833073807C174.91525423728814,33.073808782310806,175.93220338983053,34.853109104121245,176.9491525423729,36.262846465275615C177.96610169491527,37.67258382642997,178.98305084745763,38.836291913214986,180,40"></path><path class="axis-ceiling" stroke-width="1" stroke="black" fill="none" d="M175,0L180,0"></path><text class="axis-ceiling-label" font-family="sans-serif" text-anchor="end" font-size="10px" x="170" y="2.5">2000</text></g></svg>