<svg xmlns="http://www.w3.org/2000/svg" viewBox="0 0 180 60"><g transform="translate(0,20)"><path class="area" fill="rgba(0, 0, 0, 0.2)" d="M0,27.96C2.803738317757009,27.94,5.607476635514018,27.919999999999998,8.411214953271028,27.839999999999996C8.97196261682243,27.823999999999995,9.532710280373832,27.786666666666665,10.093457943925234,27.759999999999998C11.214953271028037,27.706666666666667,12.336448598130842,27.607619047619046,13.457943925233645,27.599999999999998C17.38317757009346,27.573333333333334,21.30841121495327,27.57203703703704,25.233644859813083,27.560000000000002C30.2803738317757,27.544523809523813,35.32710280373832,27.546666666666667,40.373831775700936,27.519999999999996C41.49532710280374,27.51407407407407,42.61682242990654,27.484102564102567,43.73831775700935,27.480000000000004C51.02803738317757,27.453333333333333,58.3177570093458,27.46397660818713,65.60747663551402,27.439999999999998C68.97196261682242,27.4289338731444,72.33644859813084,27.426666666666666,75.70093457943925,27.400000000000002C76.26168224299064,27.395555555555557,76.82242990654206,27.346666666666668,77.38317757009345,27.32C77.94392523364486,27.293333333333333,78.50467289719626,27.261333333333337,79.06542056074767,27.240000000000002C81.86915887850468,27.133333333333336,84.67289719626169,27.142857142857146,87.4766355140187,27.080000000000002C88.59813084112149,27.054857142857145,89.7196261682243,27.026666666666667,90.84112149532709,27C91.4018691588785,26.986666666666665,91.9626168224299,26.97333333333333,92.5233644859813,26.959999999999997C93.0841121495327,26.946666666666665,93.64485981308411,26.946666666666665,94.2056074766355,26.92C95.32710280373831,26.866666666666674,96.4485981308411,26.61333333333332,97.57009345794391,26.559999999999995C98.13084112149532,26.533333333333335,98.69158878504672,26.533333333333335,99.25233644859813,26.520000000000003C99.81308411214953,26.50666666666667,100.37383177570094,26.493333333333332,100.93457943925233,26.479999999999997C101.49532710280373,26.46666666666666,102.05607476635514,26.454666666666668,102.61682242990653,26.44C104.85981308411215,26.38133333333334,107.10280373831775,26.280000000000005,109.34579439252336,26.200000000000003C110.46728971962617,26.160000000000004,111.58878504672896,26.111111111111114,112.71028037383176,26.080000000000002C113.27102803738316,26.064444444444447,113.83177570093457,26.06,114.39252336448597,26.04C114.95327102803738,26.02,115.51401869158877,25.98,116.07476635514018,25.96C116.63551401869158,25.94,117.19626168224299,25.94666666666667,117.75700934579439,25.92C118.31775700934578,25.893333333333334,118.8785046728972,25.78666666666667,119.43925233644859,25.76C119.99999999999999,25.733333333333334,120.5607476635514,25.746666666666666,121.12149532710279,25.72C122.2429906542056,25.66666666666666,123.3644859813084,25.471111111111114,124.48598130841121,25.28C125.04672897196261,25.184444444444445,125.60747663551402,25.080000000000002,126.16822429906541,24.96C126.72897196261681,24.84,127.28971962616822,24.759999999999998,127.85046728971962,24.56C128.411214953271,24.36,128.97196261682242,23.919999999999995,129.53271028037383,23.759999999999998C130.09345794392524,23.6,130.65420560747663,23.58666666666667,131.21495327102804,23.520000000000003C131.77570093457945,23.453333333333337,132.33644859813083,23.46666666666667,132.89719626168224,23.360000000000003C133.45794392523365,23.253333333333337,134.01869158878503,22.960000000000004,134.57943925233644,22.880000000000003C135.14018691588785,22.8,135.70093457943923,22.806666666666665,136.26168224299064,22.759999999999998C136.82242990654206,22.71333333333333,137.38317757009344,22.706666666666663,137.94392523364485,22.599999999999998C138.50467289719626,22.493333333333332,139.06542056074764,21.593333333333334,139.62616822429905,21.04C140.18691588785046,20.486666666666665,140.74766355140184,19.833333333333332,141.30841121495325,19.28C141.86915887850466,18.726666666666663,142.42990654205607,18.14666666666667,142.99065420560748,17.72C143.5514018691589,17.293333333333337,144.11214953271028,17.200000000000003,144.6728971962617,16.720000000000002C145.2336448598131,16.240000000000002,145.79439252336448,15.133333333333335,146.3551401869159,14.84C146.9158878504673,14.546666666666665,147.47663551401868,14.686666666666666,148.0373831775701,14.399999999999999C148.5981308411215,14.113333333333332,149.15887850467288,13.51333333333333,149.7196261682243,13.119999999999997C150.2803738317757,12.726666666666665,150.8411214953271,12.306666666666668,151.4018691588785,12.040000000000003C151.9626168224299,11.773333333333337,152.5233644859813,11.780000000000001,153.0841121495327,11.520000000000001C153.6448598130841,11.260000000000002,154.2056074766355,10.8,154.7663551401869,10.48C155.3271028037383,10.16,155.8878504672897,9.906666666666665,156.4485981308411,9.6C157.00934579439252,9.29333333333333,157.57009345794393,8.800000000000002,158.13084112149534,8.639999999999999C158.69158878504675,8.479999999999999,159.25233644859813,8.506666666666666,159.81308411214954,8.399999999999999C160.37383177570095,8.293333333333331,160.93457943925233,8.139999999999999,161.49532710280374,7.999999999999998C162.05607476635515,7.859999999999998,162.61682242990653,7.686666666666664,163.17757009345794,7.559999999999998C163.73831775700936,7.433333333333332,164.29906542056074,7.373333333333335,164.85981308411215,7.240000000000002C165.42056074766356,7.106666666666669,165.98130841121494,6.913333333333335,166.54205607476635,6.760000000000002C167.10280373831776,6.606666666666668,167.66355140186914,6.440000000000001,168.22429906542055,6.320000000000001C168.78504672897196,6.200000000000001,169.34579439252335,6.2266666666666675,169.90654205607476,6.040000000000001C170.46728971962617,5.853333333333334,171.02803738317755,4.546666666666666,171.58878504672896,4.52C172.14953271028037,4.493333333333333,172.71028037383178,4.506666666666666,173.2710280373832,4.4799999999999995C173.8317757009346,4.453333333333333,174.39252336448598,4.346666666666666,174.9532710280374,4.279999999999999C175.5140186915888,4.213333333333333,176.07476635514018,4.159999999999999,176.6355140186916,4.079999999999999C177.196261682243,3.999999999999999,177.7570093457944,3.8266666666666658,178.3177570093458,3.799999999999999C178.8785046728972,3.773333333333332,179.4392523364486,3.7666666666666657,180,3.759999999999999L180,40C179.4392523364486,40,178.8785046728972,40,178.3177570093458,40C177.7570093457944,40,177.196261682243,40,176.6355140186916,40C176.07476635514018,40,175.5140186915888,40,174.9532710280374,40C174.39252336448598,40,173.8317757009346,40,173.2710280373832,40C172.71028037383178,40,172.14953271028037,40,171.58878504672896,40C171.02803738317755,40,170.46728971962617,40,169.90654205607476,40C169.34579439252335,40,168.78504672897196,40,168.22429906542055,40C167.66355140186914,40,167.10280373831776,40,166.54205607476635,40C165.98130841121494,40,165.42056074766356,40,164.85981308411215,40C164.29906542056074,40,163.73831775700936,40,163.17757009345794,40C162.61682242990653,40,162.05607476635515,40,161.49532710280374,40C160.93457943925233,40,160.37383177570095,40,159.81308411214954,40C159.25233644859813,40,158.69158878504675,40,158.13084112149534,40C157.57009345794393,40,157.00934579439252,40,156.4485981308411,40C155.8878504672897,40,155.3271028037383,40,154.7663551401869,40C154.2056074766355,40,153.6448598130841,40,153.0841121495327,40C152.5233644859813,40,151.9626168224299,40,151.4018691588785,40C150.8411214953271,40,150.2803738317757,40,149.7196261682243,40C149.15887850467288,40,148.5981308411215,40,148.0373831775701,40C147.47663551401868,40,146.9158878504673,40,146.3551401869159,40C145.79439252336448,40,145.2336448598131,40,144.6728971962617,40C144.11214953271028,40,143.5514018691589,40,142.99065420560748,40C142.42990654205607,40,141.86915887850466,40,141.30841121495325,40C140.74766355140184,40,140.18691588785046,40,139.62616822429905,40C139.06542056074764,40,138.50467289719626,40,137.94392523364485,40C137.38317757009344,40,136.82242990654206,40,136.26168224299064,40C135.70093457943923,40,135.14018691588785,40,134.57943925233644,40C134.01869158878503,40,133.45794392523365,40,132.89719626168224,40C132.33644859813083,40,131.77570093457945,40,131.21495327102804,40C130.65420560747663,40,130.09345794392524,40,129.53271028037383,40C128.97196261682242,40,128.411214953271,40,127.85046728971962,40C127.28971962616822,40,126.72897196261681,40,126.16822429906541,40C125.60747663551402,40,125.04672897196261,40,124.48598130841121,40C123.3644859813084,40,122.2429906542056,40,121.12149532710279,40C120.5607476635514,40,119.99999999999999,40,119.43925233644859,40C118.8785046728972,40,118.31775700934578,40,117.75700934579439,40C117.19626168224299,40,116.63551401869158,40,116.07476635514018,40C115.51401869158877,40,114.95327102803738,40,114.39252336448597,40C113.83177570093457,40,113.27102803738316,40,112.71028037383176,40C111.58878504672896,40,110.46728971962617,40,109.34579439252336,40C107.10280373831775,40,104.85981308411215,40,102.61682242990653,40C102.05607476635514,40,101.49532710280373,40,100.93457943925233,40C100.37383177570094,40,99.81308411214953,40,99.25233644859813,40C98.69158878504672,40,98.13084112149532,40,97.57009345794391,40C96.4485981308411,40,95.32710280373831,40,94.2056074766355,40C93.64485981308411,40,93.0841121495327,40,92.5233644859813,40C91.9626168224299,40,91.4018691588785,40,90.84112149532709,40C89.7196261682243,40,88.59813084112149,40,87.4766355140187,40C84.67289719626169,40,81.86915887850468,40,79.06542056074767,40C78.50467289719626,40,77.94392523364486,40,77.38317757009345,40C76.82242990654206,40,76.26168224299064,40,75.70093457943925,40C72.33644859813084,40,68.97196261682242,40,65.60747663551402,40C58.3177570093458,40,51.02803738317757,40,43.73831775700935,40C42.61682242990654,40,41.49532710280374,40,40.373831775700936,40C35.32710280373832,40,30.2803738317757,40,25.233644859813083,40C21.30841121495327,40,17.38317757009346,40,13.457943925233645,40C12.336448598130842,40,11.214953271028037,40,10.093457943925234,40C9.532710280373832,40,8.97196261682243,40,8.411214953271028,40C5.607476635514018,40,2.803738317757009,40,0,40Z"></path><path class="line" stroke="black" fill="none" d="M0,27.96C2.803738317757009,27.94,5.607476635514018,27.919999999999998,8.411214953271028,27.839999999999996C8.97196261682243,27.823999999999995,9.532710280373832,27.786666666666665,10.093457943925234,27.759999999999998C11.214953271028037,27.706666666666667,12.336448598130842,27.607619047619046,13.457943925233645,27.599999999999998C17.38317757009346,27.573333333333334,21.30841121495327,27.57203703703704,25.233644859813083,27.560000000000002C30.2803738317757,27.544523809523813,35.32710280373832,27.546666666666667,40.373831775700936,27.519999999999996C41.49532710280374,27.51407407407407,42.61682242990654,27.484102564102567,43.73831775700935,27.480000000000004C51.02803738317757,27.453333333333333,58.3177570093458,27.46397660818713,65.60747663551402,27.439999999999998C68.97196261682242,27.4289338731444,72.33644859813084,27.426666666666666,75.70093457943925,27.400000000000002C76.26168224299064,27.395555555555557,76.82242990654206,27.346666666666668,77.38317757009345,27.32C77.94392523364486,27.293333333333333,78.50467289719626,27.261333333333337,79.06542056074767,27.240000000000002C81.86915887850468,27.133333333333336,84.67289719626169,27.142857142857146,87.4766355140187,27.080000000000002C88.59813084112149,27.054857142857145,89.7196261682243,27.026666666666667,90.84112149532709,27C91.4018691588785,26.986666666666665,91.9626168224299,26.97333333333333,92.5233644859813,26.959999999999997C93.0841121495327,26.946666666666665,93.64485981308411,26.946666666666665,94.2056074766355,26.92C95.32710280373831,26.866666666666674,96.4485981308411,26.61333333333332,97.57009345794391,26.559999999999995C98.13084112149532,26.533333333333335,98.69158878504672,26.533333333333335,99.25233644859813,26.520000000000003C99.81308411214953,26.50666666666667,100.37383177570094,26.493333333333332,100.93457943925233,26.479999999999997C101.49532710280373,26.46666666666666,102.05607476635514,26.454666666666668,102.61682242990653,26.44C104.85981308411215,26.38133333333334,107.10280373831775,26.280000000000005,109.34579439252336,26.200000000000003C110.46728971962617,26.160000000000004,111.58878504672896,26.111111111111114,112.71028037383176,26.080000000000002C113.27102803738316,26.064444444444447,113.83177570093457,26.06,114.39252336448597,26.04C114.95327102803738,26.02,115.51401869158877,25.98,116.07476635514018,25.96C116.63551401869158,25.94,117.19626168224299,25.94666666666667,117.75700934579439,25.92C118.31775700934578,25.893333333333334,118.8785046728972,25.78666666666667,119.43925233644859,25.76C119.99999999999999,25.733333333333334,120.5607476635514,25.746666666666666,121.12149532710279,25.72C122.2429906542056,25.66666666666666,123.3644859813084,25.471111111111114,124.48598130841121,25.28C125.04672897196261,25.184444444444445,125.60747663551402,25.080000000000002,126.16822429906541,24.96C126.72897196261681,24.84,127.28971962616822,24.759999999999998,127.85046728971962,24.56C128.411214953271,24.36,128.97196261682242,23.919999999999995,129.53271028037383,23.759999999999998C130.09345794392524,23.6,130.65420560747663,23.58666666666667,131.21495327102804,23.520000000000003C131.77570093457945,23.453333333333337,132.33644859813083,23.46666666666667,132.89719626168224,23.360000000000003C133.45794392523365,23.253333333333337,134.01869158878503,22.960000000000004,134.57943925233644,22.880000000000003C135.14018691588785,22.8,135.70093457943923,22.806666666666665,136.26168224299064,22.759999999999998C136.82242990654206,22.71333333333333,137.38317757009344,22.706666666666663,137.94392523364485,22.599999999999998C138.50467289719626,22.493333333333332,139.06542056074764,21.593333333333334,139.62616822429905,21.04C140.18691588785046,20.486666666666665,140.74766355140184,19.833333333333332,141.30841121495325,19.28C141.86915887850466,18.726666666666663,142.42990654205607,18.14666666666667,142.99065420560748,17.72C143.5514018691589,17.293333333333337,144.11214953271028,17.200000000000003,144.6728971962617,16.720000000000002C145.2336448598131,16.240000000000002,145.79439252336448,15.133333333333335,146.3551401869159,14.84C146.9158878504673,14.546666666666665,147.47663551401868,14.686666666666666,148.0373831775701,14.399999999999999C148.5981308411215,14.113333333333332,149.15887850467288,13.51333333333333,149.7196261682243,13.119999999999997C150.2803738317757,12.726666666666665,150.8411214953271,12.306666666666668,151.4018691588785,12.040000000000003C151.9626168224299,11.773333333333337,152.5233644859813,11.780000000000001,153.0841121495327,11.520000000000001C153.6448598130841,11.260000000000002,154.2056074766355,10.8,154.7663551401869,10.48C155.3271028037383,10.16,155.8878504672897,9.906666666666665,156.4485981308411,9.6C157.00934579439252,9.29333333333333,157.57009345794393,8.800000000000002,158.13084112149534,8.639999999999999C158.69158878504675,8.479999999999999,159.25233644859813,8.506666666666666,159.81308411214954,8.399999999999999C160.37383177570095,8.293333333333331,160.93457943925233,8.139999999999999,161.49532710280374,7.999999999999998C162.05607476635515,7.859999999999998,162.61682242990653,7.686666666666664,163.17757009345794,7.559999999999998C163.73831775700936,7.433333333333332,164.29906542056074,7.373333333333335,164.85981308411215,7.240000000000002C165.42056074766356,7.106666666666669,165.98130841121494,6.913333333333335,166.54205607476635,6.760000000000002C167.10280373831776,6.606666666666668,167.66355140186914,6.440000000000001,168.22429906542055,6.320000000000001C168.78504672897196,6.200000000000001,169.34579439252335,6.2266666666666675,169.90654205607476,6.040000000000001C170.46728971962617,5.853333333333334,171.02803738317755,4.546666666666666,171.58878504672896,4.52C172.14953271028037,4.493333333333333,172.71028037383178,4.506666666666666,173.2710280373832,4.4799999999999995C173.8317757009346,4.453333333333333,174.39252336448598,4.346666666666666,174.9532710280374,4.279999999999999C175.5140186915888,4.213333333333333,176.07476635514018,4.159999999999999,176.6355140186916,4.079999999999999C177.196261682243,3.999999999999999,177.7570093457944,3.8266666666666658,178.3177570093458,3.799999999999999C178.8785046728972,3.773333333333332,179.4392523364486,3.7666666666666657,180,3.759999999999999"></path><path class="axis-ceiling" stroke-width="1" stroke="black" fill="none" d="M175,0L180,0"></path><text class="axis-ceiling-label" font-family="sans-serif" text-anchor="end" font-size="10px" x="170" y="2.5">1000</text></g></svg>