<svg xmlns="http://www.w3.org/2000/svg" viewBox="0 0 180 60"><g transform="translate(0,20)"><path class="area" fill="rgba(0, 0, 0, 0.2)" d="M0,36.06417112299465C1.0169491525423728,36.52644087938206,2.0338983050847457,36.988710635769465,3.0508474576271185,37.50445632798574C4.067796610169491,38.02020202020202,5.084745762711864,38.780748663101605,6.101694915254237,39.15864527629233C7.11864406779661,39.53654188948306,8.135593220338983,39.771836007130126,9.152542372881356,39.771836007130126C10.169491525423728,39.771836007130126,11.186440677966102,39.72905525846703,12.203389830508474,39.72905525846703C13.220338983050846,39.72905525846703,14.23728813559322,39.826500297088536,15.254237288135592,39.8716577540107C16.271186440677965,39.91681521093286,17.28813559322034,40,18.305084745762713,40C19.322033898305087,40,20.338983050847457,39.91919191919192,21.35593220338983,39.75757575757576C22.372881355932204,39.5959595959596,23.389830508474574,39.03267973856209,24.406779661016948,38.60249554367201C25.423728813559322,38.17231134878194,26.440677966101696,37.644682115270356,27.45762711864407,37.1764705882353C28.47457627118644,36.70825906120024,29.491525423728813,36.163992869875216,30.508474576271183,35.79322638146167C31.525423728813557,35.42245989304812,32.54237288135593,35.32501485442662,33.559322033898304,34.95187165775401C34.57627118644068,34.578728461081404,35.59322033898305,34.022578728461085,36.610169491525426,33.554367201426025C37.6271186440678,33.086155674390966,38.644067796610166,32.63458110516934,39.66101694915254,32.14260249554367C40.67796610169491,31.650623885918,41.69491525423729,31.049316696375524,42.71186440677966,30.602495543672017C43.728813559322035,30.155674390968514,44.7457627118644,29.74925727866904,45.762711864406775,29.461675579322637C46.77966101694915,29.17409387997623,47.79661016949152,29.081402257872845,48.813559322033896,28.87700534759358C49.83050847457627,28.672608437314317,50.847457627118644,28.625074272133094,51.86440677966102,28.235294117647058C52.88135593220339,27.84551396316102,53.898305084745765,26.842543077837195,54.91525423728814,26.538324420677363C55.93220338983051,26.23410576351753,56.94915254237288,26.29352346999406,57.96610169491525,26.081996434937615C58.983050847457626,25.87046939988117,59.99999999999999,25.30718954248366,61.01694915254237,25.26916221033868C62.03389830508474,25.231134878193703,63.05084745762712,25.250148544266192,64.0677966101695,25.212121212121215C65.08474576271186,25.174093879976237,66.10169491525424,24.63220439691028,67.11864406779661,24.327985739750446C68.13559322033899,24.023767082590613,69.15254237288136,23.702911467617355,70.16949152542374,23.386809269162214C71.1864406779661,23.070707070707076,72.20338983050848,22.431372549019606,73.22033898305085,22.431372549019606C74.23728813559322,22.431372549019606,75.2542372881356,23.158645276292336,76.27118644067797,23.158645276292336C77.28813559322033,23.158645276292336,78.30508474576271,22.68805704099822,79.32203389830508,22.33155080213904C80.33898305084746,21.975044563279862,81.35593220338983,21.454545454545457,82.37288135593221,21.019607843137255C83.38983050847457,20.584670231729056,84.40677966101696,19.95959595959596,85.42372881355932,19.72192513368984C86.4406779661017,19.484254307783722,87.45762711864407,19.56268568033274,88.47457627118645,19.36541889483066C89.49152542372882,19.16815210932858,90.50847457627118,18.863933452168745,91.52542372881355,18.538324420677363C92.54237288135593,18.212715389185977,93.55932203389831,17.79679144385027,94.57627118644069,17.411764705882355C95.59322033898306,17.026737967914443,96.61016949152543,16.758169934640524,97.62711864406779,16.228163992869877C98.64406779661016,15.69815805109923,99.66101694915254,14.764111705288178,100.6779661016949,14.23172905525847C101.69491525423729,13.699346405228757,102.71186440677965,13.675579322638146,103.72881355932203,13.03386809269162C104.7457627118644,12.392156862745095,105.76271186440678,11.144385026737966,106.77966101694915,10.381461675579322C107.79661016949153,9.618538324420674,108.8135593220339,9.014854426619134,109.83050847457628,8.456327985739751C110.84745762711864,7.897801544860371,111.86440677966102,7.614973262032087,112.88135593220339,7.030303030303031C113.89830508474576,6.445632798573976,114.91525423728814,4.948306595365417,115.9322033898305,4.948306595365417C116.94915254237289,4.948306595365417,117.96610169491525,6.374331550802137,118.98305084745763,6.374331550802137C120,6.374331550802137,121.01694915254237,5.860962566844918,122.03389830508473,5.7754010695187175C123.05084745762711,5.689839572192515,124.0677966101695,5.647058823529414,125.08474576271188,5.647058823529414C126.10169491525424,5.647058823529414,127.11864406779662,6.0273321449792014,128.135593220339,6.203208556149731C129.15254237288136,6.379084967320259,130.16949152542372,6.433749257278673,131.1864406779661,6.702317290552586C132.20338983050846,6.9708853238265025,133.22033898305085,7.367795603089719,134.23728813559322,7.8146167557932245C135.25423728813558,8.26143790849673,136.27118644067798,9.38324420677362,137.28813559322035,9.38324420677362C138.3050847457627,9.38324420677362,139.3220338983051,7.24420677361854,140.33898305084747,7.24420677361854C141.35593220338984,7.24420677361854,142.3728813559322,8.237670825906122,143.38983050847457,8.655971479500892C144.40677966101694,9.074272133095665,145.42372881355934,9.25252525252525,146.4406779661017,9.754010695187167C147.45762711864407,10.255496137849079,148.47457627118644,10.443256090314923,149.4915254237288,11.66488413547237C150.50847457627117,12.886512180629827,151.52542372881356,15.633986928104578,152.54237288135593,17.08377896613191C153.5593220338983,18.533571004159242,154.5762711864407,19.334521687462857,155.59322033898306,20.36363636363636C156.61016949152543,21.392751039809855,157.6271186440678,22.40285204991088,158.64406779661016,23.25846702317291C159.66101694915253,24.114081996434948,160.67796610169492,25.09803921568628,161.6949152542373,25.49732620320856C162.71186440677965,25.896613190730836,163.72881355932205,25.796791443850264,164.74576271186442,26.096256684491976C165.76271186440678,26.39572192513369,166.77966101694915,26.500297088532392,167.79661016949152,27.294117647058826C168.81355932203388,28.087938205585267,169.83050847457628,30.859180035650624,170.84745762711864,30.859180035650624C171.864406779661,30.859180035650624,172.8813559322034,30.046345811051694,173.89830508474577,30.046345811051694C174.91525423728814,30.046345811051694,175.93220338983053,30.046345811051694,176.9491525423729,30.046345811051694C177.96610169491527,30.046345811051694,178.98305084745763,30.16042780748663,180,30.274509803921568L180,40C178.98305084745763,40,177.96610169491527,40,176.9491525423729,40C175.93220338983053,40,174.91525423728814,40,173.89830508474577,40C172.8813559322034,40,171.864406779661,40,170.84745762711864,40C169.83050847457628,40,168.81355932203388,40,167.79661016949152,40C166.77966101694915,40,165.76271186440678,40,164.74576271186442,40C163.72881355932205,40,162.71186440677965,40,161.6949152542373,40C160.67796610169492,40,159.66101694915253,40,158.64406779661016,40C157.6271186440678,40,156.61016949152543,40,155.59322033898306,40C154.5762711864407,40,153.5593220338983,40,152.54237288135593,40C151.52542372881356,40,150.50847457627117,40,149.4915254237288,40C148.47457627118644,40,147.45762711864407,40,146.4406779661017,40C145.42372881355934,40,144.40677966101694,40,143.38983050847457,40C142.3728813559322,40,141.35593220338984,40,140.33898305084747,40C139.3220338983051,40,138.3050847457627,40,137.28813559322035,40C136.27118644067798,40,135.25423728813558,40,134.23728813559322,40C133.22033898305085,40,132.20338983050846,40,131.1864406779661,40C130.16949152542372,40,129.15254237288136,40,128.135593220339,40C127.11864406779662,40,126.10169491525424,40,125.08474576271188,40C124.0677966101695,40,123.05084745762711,40,122.03389830508473,40C121.01694915254237,40,120,40,118.98305084745763,40C117.96610169491525,40,116.94915254237289,40,115.9322033898305,40C114.91525423728814,40,113.89830508474576,40,112.88135593220339,40C111.86440677966102,40,110.84745762711864,40,109.83050847457628,40C108.8135593220339,40,107.79661016949153,40,106.77966101694915,40C105.76271186440678,40,104.7457627118644,40,103.72881355932203,40C102.71186440677965,40,101.69491525423729,40,100.6779661016949,40C99.66101694915254,40,98.64406779661016,40,97.62711864406779,40C96.61016949152543,40,95.59322033898306,40,94.57627118644069,40C93.55932203389831,40,92.54237288135593,40,91.52542372881355,40C90.50847457627118,40,89.49152542372882,40,88.47457627118645,40C87.45762711864407,40,86.4406779661017,40,85.42372881355932,40C84.40677966101696,40,83.38983050847457,40,82.37288135593221,40C81.35593220338983,40,80.33898305084746,40,79.32203389830508,40C78.30508474576271,40,77.28813559322033,40,76.27118644067797,40C75.2542372881356,40,74.23728813559322,40,73.22033898305085,40C72.20338983050848,40,71.1864406779661,40,70.16949152542374,40C69.15254237288136,40,68.13559322033899,40,67.11864406779661,40C66.10169491525424,40,65.08474576271186,40,64.0677966101695,40C63.05084745762712,40,62.03389830508474,40,61.01694915254237,40C59.99999999999999,40,58.983050847457626,40,57.96610169491525,40C56.94915254237288,40,55.93220338983051,40,54.91525423728814,40C53.898305084745765,40,52.88135593220339,40,51.86440677966102,40C50.847457627118644,40,49.83050847457627,40,48.813559322033896,40C47.79661016949152,40,46.77966101694915,40,45.762711864406775,40C44.7457627118644,40,43.728813559322035,40,42.71186440677966,40C41.69491525423729,40,40.67796610169491,40,39.66101694915254,40C38.644067796610166,40,37.6271186440678,40,36.610169491525426,40C35.59322033898305,40,34.57627118644068,40,33.559322033898304,40C32.54237288135593,40,31.525423728813557,40,30.508474576271183,40C29.491525423728813,40,28.47457627118644,40,27.45762711864407,40C26.440677966101696,40,25.423728813559322,40,24.406779661016948,40C23.389830508474574,40,22.372881355932204,40,21.35593220338983,40C20.338983050847457,40,19.322033898305087,40,18.305084745762713,40C17.28813559322034,40,16.271186440677965,40,15.254237288135592,40C14.23728813559322,40,13.220338983050846,40,12.203389830508474,40C11.186440677966102,40,10.169491525423728,40,9.152542372881356,40C8.135593220338983,40,7.11864406779661,40,6.101694915254237,40C5.084745762711864,40,4.067796610169491,40,3.0508474576271185,40C2.0338983050847457,40,1.0169491525423728,40,0,40Z"></path><path class="line" stroke="black" fill="none" d="M0,36.06417112299465C1.0169491525423728,36.52644087938206,2.0338983050847457,36.988710635769465,3.0508474576271185,37.50445632798574C4.067796610169491,38.02020202020202,5.084745762711864,38.780748663101605,6.101694915254237,39.15864527629233C7.11864406779661,39.53654188948306,8.135593220338983,39.771836007130126,9.152542372881356,39.771836007130126C10.169491525423728,39.771836007130126,11.186440677966102,39.72905525846703,12.203389830508474,39.72905525846703C13.220338983050846,39.72905525846703,14.23728813559322,39.826500297088536,15.254237288135592,39.8716577540107C16.271186440677965,39.91681521093286,17.28813559322034,40,18.305084745762713,40C19.322033898305087,40,20.338983050847457,39.91919191919192,21.35593220338983,39.75757575757576C22.372881355932204,39.5959595959596,23.389830508474574,39.03267973856209,24.406779661016948,38.60249554367201C25.423728813559322,38.17231134878194,26.440677966101696,37.644682115270356,27.45762711864407,37.1764705882353C28.47457627118644,36.70825906120024,29.491525423728813,36.163992869875216,30.508474576271183,35.79322638146167C31.525423728813557,35.42245989304812,32.54237288135593,35.32501485442662,33.559322033898304,34.95187165775401C34.57627118644068,34.578728461081404,35.59322033898305,34.022578728461085,36.610169491525426,33.554367201426025C37.6271186440678,33.086155674390966,38.644067796610166,32.63458110516934,39.66101694915254,32.14260249554367C40.67796610169491,31.650623885918,41.69491525423729,31.049316696375524,42.71186440677966,30.602495543672017C43.728813559322035,30.155674390968514,44.7457627118644,29.74925727866904,45.762711864406775,29.461675579322637C46.77966101694915,29.17409387997623,47.79661016949152,29.081402257872845,48.813559322033896,28.87700534759358C49.83050847457627,28.672608437314317,50.847457627118644,28.625074272133094,51.86440677966102,28.235294117647058C52.88135593220339,27.84551396316102,53.898305084745765,26.842543077837195,54.91525423728814,26.538324420677363C55.93220338983051,26.23410576351753,56.94915254237288,26.29352346999406,57.96610169491525,26.081996434937615C58.983050847457626,25.87046939988117,59.99999999999999,25.30718954248366,61.01694915254237,25.26916221033868C62.03389830508474,25.231134878193703,63.05084745762712,25.250148544266192,64.0677966101695,25.212121212121215C65.08474576271186,25.174093879976237,66.10169491525424,24.63220439691028,67.11864406779661,24.327985739750446C68.13559322033899,24.023767082590613,69.15254237288136,23.702911467617355,70.16949152542374,23.386809269162214C71.1864406779661,23.070707070707076,72.20338983050848,22.431372549019606,73.22033898305085,22.431372549019606C74.23728813559322,22.431372549019606,75.2542372881356,23.158645276292336,76.27118644067797,23.158645276292336C77.28813559322033,23.158645276292336,78.30508474576271,22.68805704099822,79.32203389830508,22.33155080213904C80.33898305084746,21.975044563279862,81.35593220338983,21.454545454545457,82.37288135593221,21.019607843137255C83.38983050847457,20.584670231729056,84.40677966101696,19.95959595959596,85.42372881355932,19.72192513368984C86.4406779661017,19.484254307783722,87.45762711864407,19.56268568033274,88.47457627118645,19.36541889483066C89.49152542372882,19.16815210932858,90.50847457627118,18.863933452168745,91.52542372881355,18.538324420677363C92.54237288135593,18.212715389185977,93.55932203389831,17.79679144385027,94.57627118644069,17.411764705882355C95.59322033898306,17.026737967914443,96.61016949152543,16.758169934640524,97.62711864406779,16.228163992869877C98.64406779661016,15.69815805109923,99.66101694915254,14.764111705288178,100.6779661016949,14.23172905525847C101.69491525423729,13.699346405228757,102.71186440677965,13.675579322638146,103.72881355932203,13.03386809269162C104.7457627118644,12.392156862745095,105.76271186440678,11.144385026737966,106.77966101694915,10.381461675579322C107.79661016949153,9.618538324420674,108.8135593220339,9.014854426619134,109.83050847457628,8.456327985739751C110.84745762711864,7.897801544860371,111.86440677966102,7.614973262032087,112.88135593220339,7.030303030303031C113.89830508474576,6.445632798573976,114.91525423728814,4.948306595365417,115.9322033898305,4.948306595365417C116.94915254237289,4.948306595365417,117.96610169491525,6.374331550802137,118.98305084745763,6.374331550802137C120,6.374331550802137,121.01694915254237,5.860962566844918,122.03389830508473,5.7754010695187175C123.05084745762711,5.689839572192515,124.0677966101695,5.647058823529414,125.08474576271188,5.647058823529414C126.10169491525424,5.647058823529414,127.11864406779662,6.0273321449792014,128.135593220339,6.203208556149731C129.15254237288136,6.379084967320259,130.16949152542372,6.433749257278673,131.1864406779661,6.702317290552586C132.20338983050846,6.9708853238265025,133.22033898305085,7.367795603089719,134.23728813559322,7.8146167557932245C135.25423728813558,8.26143790849673,136.27118644067798,9.38324420677362,137.28813559322035,9.38324420677362C138.3050847457627,9.38324420677362,139.3220338983051,7.24420677361854,140.33898305084747,7.24420677361854C141.35593220338984,7.24420677361854,142.3728813559322,8.237670825906122,143.38983050847457,8.655971479500892C144.40677966101694,9.074272133095665,145.42372881355934,9.25252525252525,146.4406779661017,9.754010695187167C147.45762711864407,10.255496137849079,148.47457627118644,10.443256090314923,149.4915254237288,11.66488413547237C150.50847457627117,12.886512180629827,151.52542372881356,15.633986928104578,152.54237288135593,17.08377896613191C153.5593220338983,18.533571004159242,154.5762711864407,19.334521687462857,155.59322033898306,20.36363636363636C156.61016949152543,21.392751039809855,157.6271186440678,22.40285204991088,158.64406779661016,23.25846702317291C159.66101694915253,24.114081996434948,160.67796610169492,25.09803921568628,161.6949152542373,25.49732620320856C162.71186440677965,25.896613190730836,163.72881355932205,25.796791443850264,164.74576271186442,26.096256684491976C165.76271186440678,26.39572192513369,166.77966101694915,26.500297088532392,167.79661016949152,27.294117647058826C168.81355932203388,28.087938205585267,169.83050847457628,30.859180035650624,170.84745762711864,30.859180035650624C171.864406779661,30.859180035650624,172.8813559322034,30.046345811051694,173.89830508474577,30.046345811051694C174.91525423728814,30.046345811051694,175.93220338983053,30.046345811051694,176.9491525423729,30.046345811051694C177.96610169491527,30.046345811051694,178.98305084745763,30.16042780748663,180,30.274509803921568"></path><path class="axis-ceiling" stroke-width="1" stroke="black" fill="none" d="M175,0L180,0"></path><text class="axis-ceiling-label" font-family="sans-serif" text-anchor="end" font-size="10px" x="170" y="2.5">2000</text></g></svg>