<svg xmlns="http://www.w3.org/2000/svg" viewBox="0 0 180 60"><g transform="translate(0,20)"><path class="area" fill="rgba(0, 0, 0, 0.2)" d="M0,40C1.3636363636363635,40,2.7272727272727275,40,4.090909090909091,40C4.318181818181818,40,4.545454545454545,40,4.7727272727272725,40C5,40,5.2272727272727275,40,5.454545454545455,40C58.63636363636363,40,111.81818181818181,36,165,36C165.22727272727272,36,165.45454545454547,36,165.6818181818182,36C165.9090909090909,36,166.13636363636363,32,166.36363636363635,32C166.59090909090907,32,166.8181818181818,32,167.04545454545453,32C167.27272727272725,32,167.5,36,167.72727272727272,36C171.5909090909091,36,175.45454545454544,32,179.3181818181818,24C179.54545454545453,23.52941176470588,179.77272727272728,19.76470588235294,180,16L180,40C179.77272727272728,40,179.54545454545453,40,179.3181818181818,40C175.45454545454544,40,171.5909090909091,40,167.72727272727272,40C167.5,40,167.27272727272725,40,167.04545454545453,40C166.8181818181818,40,166.59090909090907,40,166.36363636363635,40C166.13636363636363,40,165.9090909090909,40,165.6818181818182,40C165.45454545454547,40,165.22727272727272,40,165,40C111.81818181818181,40,58.63636363636363,40,5.454545454545455,40C5.2272727272727275,40,5,40,4.7727272727272725,40C4.545454545454545,40,4.318181818181818,40,4.090909090909091,40C2.7272727272727275,40,1.3636363636363635,40,0,40Z"></path><path class="line" stroke="black" fill="none" d="M0,40C1.3636363636363635,40,2.7272727272727275,40,4.090909090909091,40C4.318181818181818,40,4.545454545454545,40,4.7727272727272725,40C5,40,5.2272727272727275,40,5.454545454545455,40C58.63636363636363,40,111.81818181818181,36,165,36C165.22727272727272,36,165.45454545454547,36,165.6818181818182,36C165.9090909090909,36,166.13636363636363,32,166.36363636363635,32C166.59090909090907,32,166.8181818181818,32,167.04545454545453,32C167.27272727272725,32,167.5,36,167.72727272727272,36C171.5909090909091,36,175.45454545454544,32,179.3181818181818,24C179.54545454545453,23.52941176470588,179.77272727272728,19.76470588235294,180,16"></path><path class="axis-ceiling" stroke-width="1" stroke="black" fill="none" d="M175,0L180,0"></path><text class="axis-ceiling-label" font-family="sans-serif" text-anchor="end" font-size="10px" x="170" y="2.5">10</text></g></svg>