<svg xmlns="http://www.w3.org/2000/svg" viewBox="0 0 180 60"><g transform="translate(0,20)"><path class="area" fill="rgba(0, 0, 0, 0.2)" d="M0,20.365650969529085C1.0169491525423728,20.408125577100645,2.0338983050847457,20.450600184672204,3.0508474576271185,20.47645429362881C4.067796610169491,20.502308402585413,5.084745762711864,20.502308402585413,6.101694915254237,20.5207756232687C7.11864406779661,20.53924284395199,8.135593220338983,20.546629732225302,9.152542372881356,20.587257617728532C10.169491525423728,20.627885503231763,11.186440677966102,20.764542936288088,12.203389830508474,20.764542936288088C13.220338983050846,20.764542936288088,14.23728813559322,20.583564173591874,15.254237288135592,20.38781163434903C16.271186440677965,20.19205909510619,17.28813559322034,19.819021237303787,18.305084745762713,19.590027700831026C19.322033898305087,19.361034164358266,20.338983050847457,19.202216066481995,21.35593220338983,19.013850415512465C22.372881355932204,18.825484764542935,23.389830508474574,18.61865189289012,24.406779661016948,18.45983379501385C25.423728813559322,18.30101569713758,26.440677966101696,18.28624192059095,27.45762711864407,18.060941828254848C28.47457627118644,17.835641735918745,29.491525423728813,17.399815327793167,30.508474576271183,17.10803324099723C31.525423728813557,16.816251154201293,32.54237288135593,16.557710064635273,33.559322033898304,16.310249307479225C34.57627118644068,16.062788550323177,35.59322033898305,15.623268698060944,36.610169491525426,15.623268698060944C37.6271186440678,15.623268698060944,38.644067796610166,15.674976915974147,39.66101694915254,15.778393351800553C40.67796610169491,15.881809787626958,41.69491525423729,16.5983379501385,42.71186440677966,16.5983379501385C43.728813559322035,16.5983379501385,44.7457627118644,16.310249307479225,45.762711864406775,16.17728531855956C46.77966101694915,16.044321329639892,47.79661016949152,16.051708217913205,48.813559322033896,15.8005540166205C49.83050847457627,15.549399815327796,50.847457627118644,14.559556786703602,51.86440677966102,14.559556786703602C52.88135593220339,14.559556786703602,53.898305084745765,15.597414589104337,54.91525423728814,16.48753462603878C55.93220338983051,17.37765466297322,56.94915254237288,19.900277008310248,57.96610169491525,19.900277008310248C58.983050847457626,19.900277008310248,59.99999999999999,19.84118190212373,61.01694915254237,19.722991689750693C62.03389830508474,19.604801477377656,63.05084745762712,18.995383194829177,64.0677966101695,18.725761772853183C65.08474576271186,18.45614035087719,66.10169491525424,18.164358264081258,67.11864406779661,18.105263157894736C68.13559322033899,18.046168051708214,69.15254237288136,18.016620498614955,70.16949152542374,18.016620498614955C71.1864406779661,18.016620498614955,72.20338983050848,18.770083102493075,73.22033898305085,18.770083102493075C74.23728813559322,18.770083102493075,75.2542372881356,16.210526315789473,76.27118644067797,15.047091412742382C77.28813559322033,13.88365650969529,78.30508474576271,12.524469067405356,79.32203389830508,11.789473684210527C80.33898305084746,11.054478301015696,81.35593220338983,10.954755309325948,82.37288135593221,10.637119113573409C83.38983050847457,10.31948291782087,84.40677966101696,10.201292705447827,85.42372881355932,9.883656509695289C86.4406779661017,9.566020313942749,87.45762711864407,8.760849492151435,88.47457627118645,8.731301939058174C89.49152542372882,8.701754385964913,90.50847457627118,8.716528162511542,91.52542372881355,8.686980609418281C92.54237288135593,8.657433056325019,93.55932203389831,7.623268698060941,94.57627118644069,7.623268698060941C95.59322033898306,7.623268698060941,96.61016949152543,8.177285318559555,97.62711864406779,8.177285318559555C98.64406779661016,8.177285318559555,99.66101694915254,6.596491228070173,100.6779661016949,6.448753462603878C101.69491525423729,6.301015697137582,102.71186440677965,6.371191135734075,103.72881355932203,6.227146814404434C104.7457627118644,6.083102493074794,105.76271186440678,5.584487534626037,106.77966101694915,5.584487534626037C107.79661016949153,5.584487534626037,108.8135593220339,7.043397968605723,109.83050847457628,7.689750692520776C110.84745762711864,8.336103416435826,111.86440677966102,8.908587257617729,112.88135593220339,9.462603878116344C113.89830508474576,10.016620498614959,114.91525423728814,10.999076638965837,115.9322033898305,11.013850415512465C116.94915254237289,11.028624192059093,117.96610169491525,11.02123730378578,118.98305084745763,11.036011080332408C120,11.050784856879035,121.01694915254237,12.369344413665747,122.03389830508473,12.853185595567869C123.05084745762711,13.337026777469998,124.0677966101695,13.488457987072943,125.08474576271188,13.939058171745152C126.10169491525424,14.389658356417359,127.11864406779662,15.364727608494922,128.135593220339,15.556786703601109C129.15254237288136,15.748845798707295,130.16949152542372,15.734072022160666,131.1864406779661,15.844875346260388C132.20338983050846,15.955678670360111,133.22033898305085,15.970452446906739,134.23728813559322,16.221606648199444C135.25423728813558,16.472760849492147,136.27118644067798,17.746999076638968,137.28813559322035,18.59279778393352C138.3050847457627,19.438596491228072,139.3220338983051,20.317636195752534,140.33898305084747,21.29639889196676C141.35593220338984,22.275161588180975,142.3728813559322,23.41643582640813,143.38983050847457,24.465373961218837C144.40677966101694,25.514312096029553,145.42372881355934,26.59279778393352,146.4406779661017,27.59002770083103C147.45762711864407,28.587257617728532,148.47457627118644,29.577100646352726,149.4915254237288,30.448753462603875C150.50847457627117,31.320406278855035,151.52542372881356,32.24746075715605,152.54237288135593,32.819944598337955C153.5593220338983,33.39242843951986,154.5762711864407,33.33333333333333,155.59322033898306,33.88365650969529C156.61016949152543,34.43397968605725,157.6271186440678,35.32040627885504,158.64406779661016,36.121883656509695C159.66101694915253,36.92336103416436,160.67796610169492,38.10526315789473,161.6949152542373,38.692520775623265C162.71186440677965,39.2797783933518,163.72881355932205,39.64542936288089,164.74576271186442,39.64542936288089C165.76271186440678,39.64542936288089,166.77966101694915,39.578947368421055,167.79661016949152,39.578947368421055C168.81355932203388,39.578947368421055,169.83050847457628,39.73037857802401,170.84745762711864,39.8005540166205C171.864406779661,39.870729455216996,172.8813559322034,40,173.89830508474577,40C174.91525423728814,40,175.93220338983053,39.87442289935365,176.9491525423729,39.62326869806094C177.96610169491527,39.37211449676823,178.98305084745763,38.60018467220684,180,37.82825484764543L180,40C178.98305084745763,40,177.96610169491527,40,176.9491525423729,40C175.93220338983053,40,174.91525423728814,40,173.89830508474577,40C172.8813559322034,40,171.864406779661,40,170.84745762711864,40C169.83050847457628,40,168.81355932203388,40,167.79661016949152,40C166.77966101694915,40,165.76271186440678,40,164.74576271186442,40C163.72881355932205,40,162.71186440677965,40,161.6949152542373,40C160.67796610169492,40,159.66101694915253,40,158.64406779661016,40C157.6271186440678,40,156.61016949152543,40,155.59322033898306,40C154.5762711864407,40,153.5593220338983,40,152.54237288135593,40C151.52542372881356,40,150.50847457627117,40,149.4915254237288,40C148.47457627118644,40,147.45762711864407,40,146.4406779661017,40C145.42372881355934,40,144.40677966101694,40,143.38983050847457,40C142.3728813559322,40,141.35593220338984,40,140.33898305084747,40C139.3220338983051,40,138.3050847457627,40,137.28813559322035,40C136.27118644067798,40,135.25423728813558,40,134.23728813559322,40C133.22033898305085,40,132.20338983050846,40,131.1864406779661,40C130.16949152542372,40,129.15254237288136,40,128.135593220339,40C127.11864406779662,40,126.10169491525424,40,125.08474576271188,40C124.0677966101695,40,123.05084745762711,40,122.03389830508473,40C121.01694915254237,40,120,40,118.98305084745763,40C117.96610169491525,40,116.94915254237289,40,115.9322033898305,40C114.91525423728814,40,113.89830508474576,40,112.88135593220339,40C111.86440677966102,40,110.84745762711864,40,109.83050847457628,40C108.8135593220339,40,107.79661016949153,40,106.77966101694915,40C105.76271186440678,40,104.7457627118644,40,103.72881355932203,40C102.71186440677965,40,101.69491525423729,40,100.6779661016949,40C99.66101694915254,40,98.64406779661016,40,97.62711864406779,40C96.61016949152543,40,95.59322033898306,40,94.57627118644069,40C93.55932203389831,40,92.54237288135593,40,91.52542372881355,40C90.50847457627118,40,89.49152542372882,40,88.47457627118645,40C87.45762711864407,40,86.4406779661017,40,85.42372881355932,40C84.40677966101696,40,83.38983050847457,40,82.37288135593221,40C81.35593220338983,40,80.33898305084746,40,79.32203389830508,40C78.30508474576271,40,77.28813559322033,40,76.27118644067797,40C75.2542372881356,40,74.23728813559322,40,73.22033898305085,40C72.20338983050848,40,71.1864406779661,40,70.16949152542374,40C69.15254237288136,40,68.13559322033899,40,67.11864406779661,40C66.10169491525424,40,65.08474576271186,40,64.0677966101695,40C63.05084745762712,40,62.03389830508474,40,61.01694915254237,40C59.99999999999999,40,58.983050847457626,40,57.96610169491525,40C56.94915254237288,40,55.93220338983051,40,54.91525423728814,40C53.898305084745765,40,52.88135593220339,40,51.86440677966102,40C50.847457627118644,40,49.83050847457627,40,48.813559322033896,40C47.79661016949152,40,46.77966101694915,40,45.762711864406775,40C44.7457627118644,40,43.728813559322035,40,42.71186440677966,40C41.69491525423729,40,40.67796610169491,40,39.66101694915254,40C38.644067796610166,40,37.6271186440678,40,36.610169491525426,40C35.59322033898305,40,34.57627118644068,40,33.559322033898304,40C32.54237288135593,40,31.525423728813557,40,30.508474576271183,40C29.491525423728813,40,28.47457627118644,40,27.45762711864407,40C26.440677966101696,40,25.423728813559322,40,24.406779661016948,40C23.389830508474574,40,22.372881355932204,40,21.35593220338983,40C20.338983050847457,40,19.322033898305087,40,18.305084745762713,40C17.28813559322034,40,16.271186440677965,40,15.254237288135592,40C14.23728813559322,40,13.220338983050846,40,12.203389830508474,40C11.186440677966102,40,10.169491525423728,40,9.152542372881356,40C8.135593220338983,40,7.11864406779661,40,6.101694915254237,40C5.084745762711864,40,4.067796610169491,40,3.0508474576271185,40C2.0338983050847457,40,1.0169491525423728,40,0,40Z"></path><path class="line" stroke="black" fill="none" d="M0,20.365650969529085C1.0169491525423728,20.408125577100645,2.0338983050847457,20.450600184672204,3.0508474576271185,20.47645429362881C4.067796610169491,20.502308402585413,5.084745762711864,20.502308402585413,6.101694915254237,20.5207756232687C7.11864406779661,20.53924284395199,8.135593220338983,20.546629732225302,9.152542372881356,20.587257617728532C10.169491525423728,20.627885503231763,11.186440677966102,20.764542936288088,12.203389830508474,20.764542936288088C13.220338983050846,20.764542936288088,14.23728813559322,20.583564173591874,15.254237288135592,20.38781163434903C16.271186440677965,20.19205909510619,17.28813559322034,19.819021237303787,18.305084745762713,19.590027700831026C19.322033898305087,19.361034164358266,20.338983050847457,19.202216066481995,21.35593220338983,19.013850415512465C22.372881355932204,18.825484764542935,23.389830508474574,18.61865189289012,24.406779661016948,18.45983379501385C25.423728813559322,18.30101569713758,26.440677966101696,18.28624192059095,27.45762711864407,18.060941828254848C28.47457627118644,17.835641735918745,29.491525423728813,17.399815327793167,30.508474576271183,17.10803324099723C31.525423728813557,16.816251154201293,32.54237288135593,16.557710064635273,33.559322033898304,16.310249307479225C34.57627118644068,16.062788550323177,35.59322033898305,15.623268698060944,36.610169491525426,15.623268698060944C37.6271186440678,15.623268698060944,38.644067796610166,15.674976915974147,39.66101694915254,15.778393351800553C40.67796610169491,15.881809787626958,41.69491525423729,16.5983379501385,42.71186440677966,16.5983379501385C43.728813559322035,16.5983379501385,44.7457627118644,16.310249307479225,45.762711864406775,16.17728531855956C46.77966101694915,16.044321329639892,47.79661016949152,16.051708217913205,48.813559322033896,15.8005540166205C49.83050847457627,15.549399815327796,50.847457627118644,14.559556786703602,51.86440677966102,14.559556786703602C52.88135593220339,14.559556786703602,53.898305084745765,15.597414589104337,54.91525423728814,16.48753462603878C55.93220338983051,17.37765466297322,56.94915254237288,19.900277008310248,57.96610169491525,19.900277008310248C58.983050847457626,19.900277008310248,59.99999999999999,19.84118190212373,61.01694915254237,19.722991689750693C62.03389830508474,19.604801477377656,63.05084745762712,18.995383194829177,64.0677966101695,18.725761772853183C65.08474576271186,18.45614035087719,66.10169491525424,18.164358264081258,67.11864406779661,18.105263157894736C68.13559322033899,18.046168051708214,69.15254237288136,18.016620498614955,70.16949152542374,18.016620498614955C71.1864406779661,18.016620498614955,72.20338983050848,18.770083102493075,73.22033898305085,18.770083102493075C74.23728813559322,18.770083102493075,75.2542372881356,16.210526315789473,76.27118644067797,15.047091412742382C77.28813559322033,13.88365650969529,78.30508474576271,12.524469067405356,79.32203389830508,11.789473684210527C80.33898305084746,11.054478301015696,81.35593220338983,10.954755309325948,82.37288135593221,10.637119113573409C83.38983050847457,10.31948291782087,84.40677966101696,10.201292705447827,85.42372881355932,9.883656509695289C86.4406779661017,9.566020313942749,87.45762711864407,8.760849492151435,88.47457627118645,8.731301939058174C89.49152542372882,8.701754385964913,90.50847457627118,8.716528162511542,91.52542372881355,8.686980609418281C92.54237288135593,8.657433056325019,93.55932203389831,7.623268698060941,94.57627118644069,7.623268698060941C95.59322033898306,7.623268698060941,96.61016949152543,8.177285318559555,97.62711864406779,8.177285318559555C98.64406779661016,8.177285318559555,99.66101694915254,6.596491228070173,100.6779661016949,6.448753462603878C101.69491525423729,6.301015697137582,102.71186440677965,6.371191135734075,103.72881355932203,6.227146814404434C104.7457627118644,6.083102493074794,105.76271186440678,5.584487534626037,106.77966101694915,5.584487534626037C107.79661016949153,5.584487534626037,108.8135593220339,7.043397968605723,109.83050847457628,7.689750692520776C110.84745762711864,8.336103416435826,111.86440677966102,8.908587257617729,112.88135593220339,9.462603878116344C113.89830508474576,10.016620498614959,114.91525423728814,10.999076638965837,115.9322033898305,11.013850415512465C116.94915254237289,11.028624192059093,117.96610169491525,11.02123730378578,118.98305084745763,11.036011080332408C120,11.050784856879035,121.01694915254237,12.369344413665747,122.03389830508473,12.853185595567869C123.05084745762711,13.337026777469998,124.0677966101695,13.488457987072943,125.08474576271188,13.939058171745152C126.10169491525424,14.389658356417359,127.11864406779662,15.364727608494922,128.135593220339,15.556786703601109C129.15254237288136,15.748845798707295,130.16949152542372,15.734072022160666,131.1864406779661,15.844875346260388C132.20338983050846,15.955678670360111,133.22033898305085,15.970452446906739,134.23728813559322,16.221606648199444C135.25423728813558,16.472760849492147,136.27118644067798,17.746999076638968,137.28813559322035,18.59279778393352C138.3050847457627,19.438596491228072,139.3220338983051,20.317636195752534,140.33898305084747,21.29639889196676C141.35593220338984,22.275161588180975,142.3728813559322,23.41643582640813,143.38983050847457,24.465373961218837C144.40677966101694,25.514312096029553,145.42372881355934,26.59279778393352,146.4406779661017,27.59002770083103C147.45762711864407,28.587257617728532,148.47457627118644,29.577100646352726,149.4915254237288,30.448753462603875C150.50847457627117,31.320406278855035,151.52542372881356,32.24746075715605,152.54237288135593,32.819944598337955C153.5593220338983,33.39242843951986,154.5762711864407,33.33333333333333,155.59322033898306,33.88365650969529C156.61016949152543,34.43397968605725,157.6271186440678,35.32040627885504,158.64406779661016,36.121883656509695C159.66101694915253,36.92336103416436,160.67796610169492,38.10526315789473,161.6949152542373,38.692520775623265C162.71186440677965,39.2797783933518,163.72881355932205,39.64542936288089,164.74576271186442,39.64542936288089C165.76271186440678,39.64542936288089,166.77966101694915,39.578947368421055,167.79661016949152,39.578947368421055C168.81355932203388,39.578947368421055,169.83050847457628,39.73037857802401,170.84745762711864,39.8005540166205C171.864406779661,39.870729455216996,172.8813559322034,40,173.89830508474577,40C174.91525423728814,40,175.93220338983053,39.87442289935365,176.9491525423729,39.62326869806094C177.96610169491527,39.37211449676823,178.98305084745763,38.60018467220684,180,37.82825484764543"></path><path class="axis-ceiling" stroke-width="1" stroke="black" fill="none" d="M175,0L180,0"></path><text class="axis-ceiling-label" font-family="sans-serif" text-anchor="end" font-size="10px" x="170" y="2.5">1000</text></g></svg>