<svg xmlns="http://www.w3.org/2000/svg" viewBox="0 0 180 60"><g transform="translate(0,20)"><path class="area" fill="rgba(0, 0, 0, 0.2)" d="M0,38.68C1.9672131147540985,38.653333333333336,3.9344262295081966,38.626666666666665,5.901639344262295,38.6C6.885245901639345,38.586666666666666,7.868852459016393,38.580000000000005,8.852459016393443,38.56C9.836065573770492,38.54,10.819672131147541,38.48,11.80327868852459,38.48C12.78688524590164,38.48,13.770491803278688,38.48,14.754098360655737,38.48C15.737704918032787,38.48,16.721311475409834,38.346666666666664,17.704918032786885,38.32C18.688524590163933,38.29333333333334,19.672131147540984,38.306666666666665,20.65573770491803,38.28C22.62295081967213,38.22666666666667,24.59016393442623,38.03111111111111,26.557377049180328,37.839999999999996C27.540983606557376,37.74444444444444,28.524590163934427,37.62,29.508196721311474,37.519999999999996C30.491803278688526,37.419999999999995,31.475409836065573,37.42,32.459016393442624,37.24C33.442622950819676,37.06,34.42622950819672,36.599999999999994,35.40983606557377,36.44C36.39344262295082,36.28,37.377049180327866,36.266666666666666,38.36065573770492,36.2C39.34426229508197,36.13333333333334,40.32786885245901,36.06666666666666,41.31147540983606,36.04C42.295081967213115,36.013333333333335,43.27868852459016,36.026666666666664,44.26229508196721,36C45.24590163934426,35.973333333333336,46.22950819672131,35.92666666666667,47.21311475409836,35.88C48.19672131147541,35.833333333333336,49.18032786885246,35.82666666666667,50.1639344262295,35.72C51.147540983606554,35.61333333333333,52.131147540983605,34.70666666666666,53.114754098360656,34.16C54.09836065573771,33.61333333333333,55.08196721311475,32.946666666666665,56.0655737704918,32.44C57.049180327868854,31.93333333333333,58.0327868852459,31.506666666666668,59.01639344262295,31.12C60,30.733333333333334,60.983606557377044,30.586666666666666,61.967213114754095,30.12C62.950819672131146,29.653333333333332,63.9344262295082,28.613333333333333,64.91803278688525,28.32C65.90163934426229,28.026666666666667,66.88524590163935,28.14666666666667,67.8688524590164,27.880000000000003C68.85245901639344,27.613333333333337,69.8360655737705,27.08,70.81967213114754,26.72C71.80327868852459,26.36,72.78688524590164,25.973333333333333,73.77049180327869,25.72C74.75409836065573,25.466666666666665,75.73770491803279,25.439999999999998,76.72131147540983,25.2C77.70491803278688,24.96,78.68852459016394,24.56666666666667,79.67213114754098,24.28C80.65573770491802,23.993333333333332,81.63934426229508,23.726666666666663,82.62295081967213,23.479999999999997C83.60655737704917,23.23333333333333,84.59016393442623,22.953333333333337,85.57377049180327,22.800000000000004C86.55737704918032,22.646666666666672,87.54098360655738,22.640000000000004,88.52459016393442,22.560000000000002C89.50819672131148,22.48,90.49180327868852,22.433333333333334,91.47540983606558,22.32C92.45901639344262,22.206666666666667,93.44262295081968,21.906666666666656,94.42622950819673,21.879999999999995C95.40983606557377,21.853333333333335,96.39344262295083,21.866666666666664,97.37704918032787,21.840000000000003C98.36065573770492,21.813333333333343,99.34426229508196,21.493333333333332,100.327868852459,21.36C101.31147540983606,21.226666666666663,102.29508196721311,21.04,103.27868852459017,21.04C104.26229508196721,21.04,105.24590163934427,21.4,106.22950819672131,21.4C107.21311475409836,21.4,108.19672131147541,19.906666666666666,109.18032786885246,19.88C110.1639344262295,19.85333333333333,111.14754098360656,19.866666666666667,112.1311475409836,19.84C113.11475409836066,19.813333333333333,114.09836065573771,19.706666666666667,115.08196721311477,19.64C116.06557377049181,19.573333333333334,117.04918032786885,19.519999999999996,118.0327868852459,19.439999999999998C119.01639344262294,19.359999999999996,120,19.186666666666667,120.98360655737704,19.16C121.96721311475409,19.133333333333333,122.95081967213115,19.13333333333333,123.93442622950819,19.119999999999997C124.91803278688525,19.106666666666662,125.90163934426229,19.106666666666666,126.88524590163935,19.08C127.8688524590164,19.05333333333333,128.85245901639345,18.946666666666665,129.8360655737705,18.88C130.81967213114754,18.813333333333333,131.8032786885246,18.706666666666667,132.78688524590166,18.68C133.7704918032787,18.653333333333332,134.75409836065575,18.666666666666668,135.7377049180328,18.64C136.72131147540983,18.613333333333333,137.70491803278688,18.439999999999998,138.68852459016392,18.439999999999998C139.67213114754097,18.439999999999998,140.65573770491804,20.64666666666667,141.63934426229508,21.28C142.62295081967213,21.913333333333334,143.6065573770492,22.240000000000002,144.59016393442624,22.240000000000002C145.5737704918033,22.240000000000002,146.55737704918033,22.133333333333336,147.54098360655738,21.92C148.52459016393442,21.706666666666667,149.5081967213115,20.64,150.49180327868854,20.64C151.47540983606558,20.64,152.45901639344262,21.4,153.44262295081967,21.4C154.4262295081967,21.4,155.40983606557376,19.119999999999997,156.3934426229508,19.119999999999997C157.37704918032784,19.119999999999997,158.36065573770492,20.6,159.34426229508196,20.6C160.327868852459,20.6,161.31147540983608,20.36,162.29508196721312,20.36C163.27868852459017,20.36,164.2622950819672,25.16,165.24590163934425,25.16C166.2295081967213,25.16,167.21311475409837,23.933333333333334,168.19672131147541,23.56C169.18032786885246,23.186666666666667,170.1639344262295,22.999999999999993,171.14754098360655,22.919999999999998C172.1311475409836,22.840000000000003,173.11475409836066,22.800000000000004,174.0983606557377,22.800000000000004C175.08196721311475,22.800000000000004,176.0655737704918,25.053333333333335,177.04918032786884,25.16C178.03278688524588,25.266666666666666,179.01639344262296,25.293333333333333,180,25.32L180,40C179.01639344262296,40,178.03278688524588,40,177.04918032786884,40C176.0655737704918,40,175.08196721311475,40,174.0983606557377,40C173.11475409836066,40,172.1311475409836,40,171.14754098360655,40C170.1639344262295,40,169.18032786885246,40,168.19672131147541,40C167.21311475409837,40,166.2295081967213,40,165.24590163934425,40C164.2622950819672,40,163.27868852459017,40,162.29508196721312,40C161.31147540983608,40,160.327868852459,40,159.34426229508196,40C158.36065573770492,40,157.37704918032784,40,156.3934426229508,40C155.40983606557376,40,154.4262295081967,40,153.44262295081967,40C152.45901639344262,40,151.47540983606558,40,150.49180327868854,40C149.5081967213115,40,148.52459016393442,40,147.54098360655738,40C146.55737704918033,40,145.5737704918033,40,144.59016393442624,40C143.6065573770492,40,142.62295081967213,40,141.63934426229508,40C140.65573770491804,40,139.67213114754097,40,138.68852459016392,40C137.70491803278688,40,136.72131147540983,40,135.7377049180328,40C134.75409836065575,40,133.7704918032787,40,132.78688524590166,40C131.8032786885246,40,130.81967213114754,40,129.8360655737705,40C128.85245901639345,40,127.8688524590164,40,126.88524590163935,40C125.90163934426229,40,124.91803278688525,40,123.93442622950819,40C122.95081967213115,40,121.96721311475409,40,120.98360655737704,40C120,40,119.01639344262294,40,118.0327868852459,40C117.04918032786885,40,116.06557377049181,40,115.08196721311477,40C114.09836065573771,40,113.11475409836066,40,112.1311475409836,40C111.14754098360656,40,110.1639344262295,40,109.18032786885246,40C108.19672131147541,40,107.21311475409836,40,106.22950819672131,40C105.24590163934427,40,104.26229508196721,40,103.27868852459017,40C102.29508196721311,40,101.31147540983606,40,100.327868852459,40C99.34426229508196,40,98.36065573770492,40,97.37704918032787,40C96.39344262295083,40,95.40983606557377,40,94.42622950819673,40C93.44262295081968,40,92.45901639344262,40,91.47540983606558,40C90.49180327868852,40,89.50819672131148,40,88.52459016393442,40C87.54098360655738,40,86.55737704918032,40,85.57377049180327,40C84.59016393442623,40,83.60655737704917,40,82.62295081967213,40C81.63934426229508,40,80.65573770491802,40,79.67213114754098,40C78.68852459016394,40,77.70491803278688,40,76.72131147540983,40C75.73770491803279,40,74.75409836065573,40,73.77049180327869,40C72.78688524590164,40,71.80327868852459,40,70.81967213114754,40C69.8360655737705,40,68.85245901639344,40,67.8688524590164,40C66.88524590163935,40,65.90163934426229,40,64.91803278688525,40C63.9344262295082,40,62.950819672131146,40,61.967213114754095,40C60.983606557377044,40,60,40,59.01639344262295,40C58.0327868852459,40,57.049180327868854,40,56.0655737704918,40C55.08196721311475,40,54.09836065573771,40,53.114754098360656,40C52.131147540983605,40,51.147540983606554,40,50.1639344262295,40C49.18032786885246,40,48.19672131147541,40,47.21311475409836,40C46.22950819672131,40,45.24590163934426,40,44.26229508196721,40C43.27868852459016,40,42.295081967213115,40,41.31147540983606,40C40.32786885245901,40,39.34426229508197,40,38.36065573770492,40C37.377049180327866,40,36.39344262295082,40,35.40983606557377,40C34.42622950819672,40,33.442622950819676,40,32.459016393442624,40C31.475409836065573,40,30.491803278688526,40,29.508196721311474,40C28.524590163934427,40,27.540983606557376,40,26.557377049180328,40C24.59016393442623,40,22.62295081967213,40,20.65573770491803,40C19.672131147540984,40,18.688524590163933,40,17.704918032786885,40C16.721311475409834,40,15.737704918032787,40,14.754098360655737,40C13.770491803278688,40,12.78688524590164,40,11.80327868852459,40C10.819672131147541,40,9.836065573770492,40,8.852459016393443,40C7.868852459016393,40,6.885245901639345,40,5.901639344262295,40C3.9344262295081966,40,1.9672131147540985,40,0,40Z"></path><path class="line" stroke="black" fill="none" d="M0,38.68C1.9672131147540985,38.653333333333336,3.9344262295081966,38.626666666666665,5.901639344262295,38.6C6.885245901639345,38.586666666666666,7.868852459016393,38.580000000000005,8.852459016393443,38.56C9.836065573770492,38.54,10.819672131147541,38.48,11.80327868852459,38.48C12.78688524590164,38.48,13.770491803278688,38.48,14.754098360655737,38.48C15.737704918032787,38.48,16.721311475409834,38.346666666666664,17.704918032786885,38.32C18.688524590163933,38.29333333333334,19.672131147540984,38.306666666666665,20.65573770491803,38.28C22.62295081967213,38.22666666666667,24.59016393442623,38.03111111111111,26.557377049180328,37.839999999999996C27.540983606557376,37.74444444444444,28.524590163934427,37.62,29.508196721311474,37.519999999999996C30.491803278688526,37.419999999999995,31.475409836065573,37.42,32.459016393442624,37.24C33.442622950819676,37.06,34.42622950819672,36.599999999999994,35.40983606557377,36.44C36.39344262295082,36.28,37.377049180327866,36.266666666666666,38.36065573770492,36.2C39.34426229508197,36.13333333333334,40.32786885245901,36.06666666666666,41.31147540983606,36.04C42.295081967213115,36.013333333333335,43.27868852459016,36.026666666666664,44.26229508196721,36C45.24590163934426,35.973333333333336,46.22950819672131,35.92666666666667,47.21311475409836,35.88C48.19672131147541,35.833333333333336,49.18032786885246,35.82666666666667,50.1639344262295,35.72C51.147540983606554,35.61333333333333,52.131147540983605,34.70666666666666,53.114754098360656,34.16C54.09836065573771,33.61333333333333,55.08196721311475,32.946666666666665,56.0655737704918,32.44C57.049180327868854,31.93333333333333,58.0327868852459,31.506666666666668,59.01639344262295,31.12C60,30.733333333333334,60.983606557377044,30.586666666666666,61.967213114754095,30.12C62.950819672131146,29.653333333333332,63.9344262295082,28.613333333333333,64.91803278688525,28.32C65.90163934426229,28.026666666666667,66.88524590163935,28.14666666666667,67.8688524590164,27.880000000000003C68.85245901639344,27.613333333333337,69.8360655737705,27.08,70.81967213114754,26.72C71.80327868852459,26.36,72.78688524590164,25.973333333333333,73.77049180327869,25.72C74.75409836065573,25.466666666666665,75.73770491803279,25.439999999999998,76.72131147540983,25.2C77.70491803278688,24.96,78.68852459016394,24.56666666666667,79.67213114754098,24.28C80.65573770491802,23.993333333333332,81.63934426229508,23.726666666666663,82.62295081967213,23.479999999999997C83.60655737704917,23.23333333333333,84.59016393442623,22.953333333333337,85.57377049180327,22.800000000000004C86.55737704918032,22.646666666666672,87.54098360655738,22.640000000000004,88.52459016393442,22.560000000000002C89.50819672131148,22.48,90.49180327868852,22.433333333333334,91.47540983606558,22.32C92.45901639344262,22.206666666666667,93.44262295081968,21.906666666666656,94.42622950819673,21.879999999999995C95.40983606557377,21.853333333333335,96.39344262295083,21.866666666666664,97.37704918032787,21.840000000000003C98.36065573770492,21.813333333333343,99.34426229508196,21.493333333333332,100.327868852459,21.36C101.31147540983606,21.226666666666663,102.29508196721311,21.04,103.27868852459017,21.04C104.26229508196721,21.04,105.24590163934427,21.4,106.22950819672131,21.4C107.21311475409836,21.4,108.19672131147541,19.906666666666666,109.18032786885246,19.88C110.1639344262295,19.85333333333333,111.14754098360656,19.866666666666667,112.1311475409836,19.84C113.11475409836066,19.813333333333333,114.09836065573771,19.706666666666667,115.08196721311477,19.64C116.06557377049181,19.573333333333334,117.04918032786885,19.519999999999996,118.0327868852459,19.439999999999998C119.01639344262294,19.359999999999996,120,19.186666666666667,120.98360655737704,19.16C121.96721311475409,19.133333333333333,122.95081967213115,19.13333333333333,123.93442622950819,19.119999999999997C124.91803278688525,19.106666666666662,125.90163934426229,19.106666666666666,126.88524590163935,19.08C127.8688524590164,19.05333333333333,128.85245901639345,18.946666666666665,129.8360655737705,18.88C130.81967213114754,18.813333333333333,131.8032786885246,18.706666666666667,132.78688524590166,18.68C133.7704918032787,18.653333333333332,134.75409836065575,18.666666666666668,135.7377049180328,18.64C136.72131147540983,18.613333333333333,137.70491803278688,18.439999999999998,138.68852459016392,18.439999999999998C139.67213114754097,18.439999999999998,140.65573770491804,20.64666666666667,141.63934426229508,21.28C142.62295081967213,21.913333333333334,143.6065573770492,22.240000000000002,144.59016393442624,22.240000000000002C145.5737704918033,22.240000000000002,146.55737704918033,22.133333333333336,147.54098360655738,21.92C148.52459016393442,21.706666666666667,149.5081967213115,20.64,150.49180327868854,20.64C151.47540983606558,20.64,152.45901639344262,21.4,153.44262295081967,21.4C154.4262295081967,21.4,155.40983606557376,19.119999999999997,156.3934426229508,19.119999999999997C157.37704918032784,19.119999999999997,158.36065573770492,20.6,159.34426229508196,20.6C160.327868852459,20.6,161.31147540983608,20.36,162.29508196721312,20.36C163.27868852459017,20.36,164.2622950819672,25.16,165.24590163934425,25.16C166.2295081967213,25.16,167.21311475409837,23.933333333333334,168.19672131147541,23.56C169.18032786885246,23.186666666666667,170.1639344262295,22.999999999999993,171.14754098360655,22.919999999999998C172.1311475409836,22.840000000000003,173.11475409836066,22.800000000000004,174.0983606557377,22.800000000000004C175.08196721311475,22.800000000000004,176.0655737704918,25.053333333333335,177.04918032786884,25.16C178.03278688524588,25.266666666666666,179.01639344262296,25.293333333333333,180,25.32"></path><path class="axis-ceiling" stroke-width="1" stroke="black" fill="none" d="M175,0L180,0"></path><text class="axis-ceiling-label" font-family="sans-serif" text-anchor="end" font-size="10px" x="170" y="2.5">1000</text></g></svg>