<svg xmlns="http://www.w3.org/2000/svg" viewBox="0 0 180 60"><g transform="translate(0,20)"><path class="area" fill="rgba(0, 0, 0, 0.2)" d="M0,19.013850415512465C1.0169491525423728,18.816251154201293,2.0338983050847457,18.61865189289012,3.0508474576271185,18.45983379501385C4.067796610169491,18.30101569713758,5.084745762711864,18.28624192059095,6.101694915254237,18.060941828254848C7.11864406779661,17.835641735918745,8.135593220338983,17.399815327793167,9.152542372881356,17.10803324099723C10.169491525423728,16.816251154201293,11.186440677966102,16.557710064635273,12.203389830508474,16.310249307479225C13.220338983050846,16.062788550323177,14.23728813559322,15.623268698060944,15.254237288135592,15.623268698060944C16.271186440677965,15.623268698060944,17.28813559322034,15.674976915974147,18.305084745762713,15.778393351800553C19.322033898305087,15.881809787626958,20.338983050847457,16.5983379501385,21.35593220338983,16.5983379501385C22.372881355932204,16.5983379501385,23.389830508474574,16.310249307479225,24.406779661016948,16.17728531855956C25.423728813559322,16.044321329639892,26.440677966101696,16.051708217913205,27.45762711864407,15.8005540166205C28.47457627118644,15.549399815327796,29.491525423728813,14.559556786703602,30.508474576271183,14.559556786703602C31.525423728813557,14.559556786703602,32.54237288135593,15.59741458910434,33.559322033898304,16.48753462603878C34.57627118644068,17.37765466297322,35.59322033898305,19.900277008310248,36.610169491525426,19.900277008310248C37.6271186440678,19.900277008310248,38.644067796610166,19.84118190212373,39.66101694915254,19.722991689750693C40.67796610169491,19.604801477377656,41.69491525423729,18.995383194829177,42.71186440677966,18.725761772853183C43.728813559322035,18.45614035087719,44.7457627118644,18.164358264081258,45.762711864406775,18.105263157894736C46.77966101694915,18.046168051708214,47.79661016949152,18.016620498614955,48.813559322033896,18.016620498614955C49.83050847457627,18.016620498614955,50.847457627118644,18.770083102493075,51.86440677966102,18.770083102493075C52.88135593220339,18.770083102493075,53.898305084745765,16.210526315789476,54.91525423728814,15.047091412742382C55.93220338983051,13.883656509695292,56.94915254237288,12.524469067405356,57.96610169491525,11.789473684210527C58.983050847457626,11.054478301015699,59.99999999999999,10.954755309325948,61.01694915254237,10.637119113573409C62.03389830508474,10.319482917820867,63.05084745762712,10.201292705447829,64.0677966101695,9.883656509695289C65.08474576271186,9.56602031394275,66.10169491525424,8.760849492151435,67.11864406779661,8.731301939058174C68.13559322033899,8.701754385964913,69.15254237288136,8.716528162511542,70.16949152542374,8.686980609418281C71.1864406779661,8.65743305632502,72.20338983050848,7.623268698060941,73.22033898305085,7.623268698060941C74.23728813559322,7.623268698060941,75.2542372881356,8.177285318559555,76.27118644067797,8.177285318559555C77.28813559322033,8.177285318559555,78.30508474576271,6.596491228070173,79.32203389830508,6.448753462603878C80.33898305084746,6.301015697137582,81.35593220338983,6.371191135734075,82.37288135593221,6.227146814404434C83.38983050847457,6.083102493074794,84.40677966101696,5.584487534626037,85.42372881355932,5.584487534626037C86.4406779661017,5.584487534626037,87.45762711864407,7.043397968605722,88.47457627118645,7.689750692520776C89.49152542372882,8.336103416435824,90.50847457627118,8.908587257617732,91.52542372881355,9.462603878116344C92.54237288135593,10.016620498614962,93.55932203389831,10.999076638965837,94.57627118644069,11.013850415512465C95.59322033898306,11.028624192059093,96.61016949152543,11.02123730378578,97.62711864406779,11.036011080332408C98.64406779661016,11.050784856879035,99.66101694915254,12.369344413665745,100.6779661016949,12.853185595567869C101.69491525423729,13.337026777469994,102.71186440677965,13.488457987072945,103.72881355932203,13.939058171745152C104.7457627118644,14.389658356417359,105.76271186440678,15.364727608494924,106.77966101694915,15.556786703601109C107.79661016949153,15.748845798707295,108.8135593220339,15.734072022160664,109.83050847457628,15.844875346260388C110.84745762711864,15.95567867036011,111.86440677966102,15.970452446906739,112.88135593220339,16.221606648199444C113.89830508474576,16.472760849492147,114.91525423728814,17.74699907663897,115.9322033898305,18.59279778393352C116.94915254237289,19.438596491228076,117.96610169491525,20.317636195752534,118.98305084745763,21.29639889196676C120,22.275161588180975,121.01694915254237,23.416435826408133,122.03389830508473,24.465373961218837C123.05084745762711,25.514312096029556,124.0677966101695,26.59279778393352,125.08474576271188,27.59002770083103C126.10169491525424,28.587257617728532,127.11864406779662,29.57710064635272,128.135593220339,30.448753462603875C129.15254237288136,31.320406278855028,130.16949152542372,32.247460757156055,131.1864406779661,32.819944598337955C132.20338983050846,33.39242843951986,133.22033898305085,33.333333333333336,134.23728813559322,33.88365650969529C135.25423728813558,34.43397968605725,136.27118644067798,35.32040627885503,137.28813559322035,36.121883656509695C138.3050847457627,36.92336103416436,139.3220338983051,38.10526315789473,140.33898305084747,38.692520775623265C141.35593220338984,39.27977839335179,142.3728813559322,39.64542936288089,143.38983050847457,39.64542936288089C144.40677966101694,39.64542936288089,145.42372881355934,39.578947368421055,146.4406779661017,39.578947368421055C147.45762711864407,39.578947368421055,148.47457627118644,39.73037857802401,149.4915254237288,39.8005540166205C150.50847457627117,39.870729455216996,151.52542372881356,40,152.54237288135593,40C153.5593220338983,40,154.5762711864407,39.87442289935365,155.59322033898306,39.62326869806094C156.61016949152543,39.37211449676823,157.6271186440678,38.496768236380426,158.64406779661016,37.82825484764543C159.66101694915253,37.15974145891043,160.67796610169492,36.33979686057249,161.6949152542373,35.61218836565097C162.71186440677965,34.88457987072945,163.72881355932205,34.038781163434905,164.74576271186442,33.46260387811634C165.76271186440678,32.88642659279778,166.77966101694915,32.73499538319483,167.79661016949152,32.15512465373961C168.81355932203388,31.575253924284393,169.83050847457628,30.710987996306557,170.84745762711864,29.98337950138504C171.864406779661,29.255771006463526,172.8813559322034,28.55401662049861,173.89830508474577,27.789473684210524C174.91525423728814,27.024930747922436,175.93220338983053,26.090489381348114,176.9491525423729,25.396121883656512C177.96610169491527,24.701754385964918,178.98305084745763,24.16251154201293,180,23.62326869806094L180,40C178.98305084745763,40,177.96610169491527,40,176.9491525423729,40C175.93220338983053,40,174.91525423728814,40,173.89830508474577,40C172.8813559322034,40,171.864406779661,40,170.84745762711864,40C169.83050847457628,40,168.81355932203388,40,167.79661016949152,40C166.77966101694915,40,165.76271186440678,40,164.74576271186442,40C163.72881355932205,40,162.71186440677965,40,161.6949152542373,40C160.67796610169492,40,159.66101694915253,40,158.64406779661016,40C157.6271186440678,40,156.61016949152543,40,155.59322033898306,40C154.5762711864407,40,153.5593220338983,40,152.54237288135593,40C151.52542372881356,40,150.50847457627117,40,149.4915254237288,40C148.47457627118644,40,147.45762711864407,40,146.4406779661017,40C145.42372881355934,40,144.40677966101694,40,143.38983050847457,40C142.3728813559322,40,141.35593220338984,40,140.33898305084747,40C139.3220338983051,40,138.3050847457627,40,137.28813559322035,40C136.27118644067798,40,135.25423728813558,40,134.23728813559322,40C133.22033898305085,40,132.20338983050846,40,131.1864406779661,40C130.16949152542372,40,129.15254237288136,40,128.135593220339,40C127.11864406779662,40,126.10169491525424,40,125.08474576271188,40C124.0677966101695,40,123.05084745762711,40,122.03389830508473,40C121.01694915254237,40,120,40,118.98305084745763,40C117.96610169491525,40,116.94915254237289,40,115.9322033898305,40C114.91525423728814,40,113.89830508474576,40,112.88135593220339,40C111.86440677966102,40,110.84745762711864,40,109.83050847457628,40C108.8135593220339,40,107.79661016949153,40,106.77966101694915,40C105.76271186440678,40,104.7457627118644,40,103.72881355932203,40C102.71186440677965,40,101.69491525423729,40,100.6779661016949,40C99.66101694915254,40,98.64406779661016,40,97.62711864406779,40C96.61016949152543,40,95.59322033898306,40,94.57627118644069,40C93.55932203389831,40,92.54237288135593,40,91.52542372881355,40C90.50847457627118,40,89.49152542372882,40,88.47457627118645,40C87.45762711864407,40,86.4406779661017,40,85.42372881355932,40C84.40677966101696,40,83.38983050847457,40,82.37288135593221,40C81.35593220338983,40,80.33898305084746,40,79.32203389830508,40C78.30508474576271,40,77.28813559322033,40,76.27118644067797,40C75.2542372881356,40,74.23728813559322,40,73.22033898305085,40C72.20338983050848,40,71.1864406779661,40,70.16949152542374,40C69.15254237288136,40,68.13559322033899,40,67.11864406779661,40C66.10169491525424,40,65.08474576271186,40,64.0677966101695,40C63.05084745762712,40,62.03389830508474,40,61.01694915254237,40C59.99999999999999,40,58.983050847457626,40,57.96610169491525,40C56.94915254237288,40,55.93220338983051,40,54.91525423728814,40C53.898305084745765,40,52.88135593220339,40,51.86440677966102,40C50.847457627118644,40,49.83050847457627,40,48.813559322033896,40C47.79661016949152,40,46.77966101694915,40,45.762711864406775,40C44.7457627118644,40,43.728813559322035,40,42.71186440677966,40C41.69491525423729,40,40.67796610169491,40,39.66101694915254,40C38.644067796610166,40,37.6271186440678,40,36.610169491525426,40C35.59322033898305,40,34.57627118644068,40,33.559322033898304,40C32.54237288135593,40,31.525423728813557,40,30.508474576271183,40C29.491525423728813,40,28.47457627118644,40,27.45762711864407,40C26.440677966101696,40,25.423728813559322,40,24.406779661016948,40C23.389830508474574,40,22.372881355932204,40,21.35593220338983,40C20.338983050847457,40,19.322033898305087,40,18.305084745762713,40C17.28813559322034,40,16.271186440677965,40,15.254237288135592,40C14.23728813559322,40,13.220338983050846,40,12.203389830508474,40C11.186440677966102,40,10.169491525423728,40,9.152542372881356,40C8.135593220338983,40,7.11864406779661,40,6.101694915254237,40C5.084745762711864,40,4.067796610169491,40,3.0508474576271185,40C2.0338983050847457,40,1.0169491525423728,40,0,40Z"></path><path class="line" stroke="black" fill="none" d="M0,19.013850415512465C1.0169491525423728,18.816251154201293,2.0338983050847457,18.61865189289012,3.0508474576271185,18.45983379501385C4.067796610169491,18.30101569713758,5.084745762711864,18.28624192059095,6.101694915254237,18.060941828254848C7.11864406779661,17.835641735918745,8.135593220338983,17.399815327793167,9.152542372881356,17.10803324099723C10.169491525423728,16.816251154201293,11.186440677966102,16.557710064635273,12.203389830508474,16.310249307479225C13.220338983050846,16.062788550323177,14.23728813559322,15.623268698060944,15.254237288135592,15.623268698060944C16.271186440677965,15.623268698060944,17.28813559322034,15.674976915974147,18.305084745762713,15.778393351800553C19.322033898305087,15.881809787626958,20.338983050847457,16.5983379501385,21.35593220338983,16.5983379501385C22.372881355932204,16.5983379501385,23.389830508474574,16.310249307479225,24.406779661016948,16.17728531855956C25.423728813559322,16.044321329639892,26.440677966101696,16.051708217913205,27.45762711864407,15.8005540166205C28.47457627118644,15.549399815327796,29.491525423728813,14.559556786703602,30.508474576271183,14.559556786703602C31.525423728813557,14.559556786703602,32.54237288135593,15.59741458910434,33.559322033898304,16.48753462603878C34.57627118644068,17.37765466297322,35.59322033898305,19.900277008310248,36.610169491525426,19.900277008310248C37.6271186440678,19.900277008310248,38.644067796610166,19.84118190212373,39.66101694915254,19.722991689750693C40.67796610169491,19.604801477377656,41.69491525423729,18.995383194829177,42.71186440677966,18.725761772853183C43.728813559322035,18.45614035087719,44.7457627118644,18.164358264081258,45.762711864406775,18.105263157894736C46.77966101694915,18.046168051708214,47.79661016949152,18.016620498614955,48.813559322033896,18.016620498614955C49.83050847457627,18.016620498614955,50.847457627118644,18.770083102493075,51.86440677966102,18.770083102493075C52.88135593220339,18.770083102493075,53.898305084745765,16.210526315789476,54.91525423728814,15.047091412742382C55.93220338983051,13.883656509695292,56.94915254237288,12.524469067405356,57.96610169491525,11.789473684210527C58.983050847457626,11.054478301015699,59.99999999999999,10.954755309325948,61.01694915254237,10.637119113573409C62.03389830508474,10.319482917820867,63.05084745762712,10.201292705447829,64.0677966101695,9.883656509695289C65.08474576271186,9.56602031394275,66.10169491525424,8.760849492151435,67.11864406779661,8.731301939058174C68.13559322033899,8.701754385964913,69.15254237288136,8.716528162511542,70.16949152542374,8.686980609418281C71.1864406779661,8.65743305632502,72.20338983050848,7.623268698060941,73.22033898305085,7.623268698060941C74.23728813559322,7.623268698060941,75.2542372881356,8.177285318559555,76.27118644067797,8.177285318559555C77.28813559322033,8.177285318559555,78.30508474576271,6.596491228070173,79.32203389830508,6.448753462603878C80.33898305084746,6.301015697137582,81.35593220338983,6.371191135734075,82.37288135593221,6.227146814404434C83.38983050847457,6.083102493074794,84.40677966101696,5.584487534626037,85.42372881355932,5.584487534626037C86.4406779661017,5.584487534626037,87.45762711864407,7.043397968605722,88.47457627118645,7.689750692520776C89.49152542372882,8.336103416435824,90.50847457627118,8.908587257617732,91.52542372881355,9.462603878116344C92.54237288135593,10.016620498614962,93.55932203389831,10.999076638965837,94.57627118644069,11.013850415512465C95.59322033898306,11.028624192059093,96.61016949152543,11.02123730378578,97.62711864406779,11.036011080332408C98.64406779661016,11.050784856879035,99.66101694915254,12.369344413665745,100.6779661016949,12.853185595567869C101.69491525423729,13.337026777469994,102.71186440677965,13.488457987072945,103.72881355932203,13.939058171745152C104.7457627118644,14.389658356417359,105.76271186440678,15.364727608494924,106.77966101694915,15.556786703601109C107.79661016949153,15.748845798707295,108.8135593220339,15.734072022160664,109.83050847457628,15.844875346260388C110.84745762711864,15.95567867036011,111.86440677966102,15.970452446906739,112.88135593220339,16.221606648199444C113.89830508474576,16.472760849492147,114.91525423728814,17.74699907663897,115.9322033898305,18.59279778393352C116.94915254237289,19.438596491228076,117.96610169491525,20.317636195752534,118.98305084745763,21.29639889196676C120,22.275161588180975,121.01694915254237,23.416435826408133,122.03389830508473,24.465373961218837C123.05084745762711,25.514312096029556,124.0677966101695,26.59279778393352,125.08474576271188,27.59002770083103C126.10169491525424,28.587257617728532,127.11864406779662,29.57710064635272,128.135593220339,30.448753462603875C129.15254237288136,31.320406278855028,130.16949152542372,32.247460757156055,131.1864406779661,32.819944598337955C132.20338983050846,33.39242843951986,133.22033898305085,33.333333333333336,134.23728813559322,33.88365650969529C135.25423728813558,34.43397968605725,136.27118644067798,35.32040627885503,137.28813559322035,36.121883656509695C138.3050847457627,36.92336103416436,139.3220338983051,38.10526315789473,140.33898305084747,38.692520775623265C141.35593220338984,39.27977839335179,142.3728813559322,39.64542936288089,143.38983050847457,39.64542936288089C144.40677966101694,39.64542936288089,145.42372881355934,39.578947368421055,146.4406779661017,39.578947368421055C147.45762711864407,39.578947368421055,148.47457627118644,39.73037857802401,149.4915254237288,39.8005540166205C150.50847457627117,39.870729455216996,151.52542372881356,40,152.54237288135593,40C153.5593220338983,40,154.5762711864407,39.87442289935365,155.59322033898306,39.62326869806094C156.61016949152543,39.37211449676823,157.6271186440678,38.496768236380426,158.64406779661016,37.82825484764543C159.66101694915253,37.15974145891043,160.67796610169492,36.33979686057249,161.6949152542373,35.61218836565097C162.71186440677965,34.88457987072945,163.72881355932205,34.038781163434905,164.74576271186442,33.46260387811634C165.76271186440678,32.88642659279778,166.77966101694915,32.73499538319483,167.79661016949152,32.15512465373961C168.81355932203388,31.575253924284393,169.83050847457628,30.710987996306557,170.84745762711864,29.98337950138504C171.864406779661,29.255771006463526,172.8813559322034,28.55401662049861,173.89830508474577,27.789473684210524C174.91525423728814,27.024930747922436,175.93220338983053,26.090489381348114,176.9491525423729,25.396121883656512C177.96610169491527,24.701754385964918,178.98305084745763,24.16251154201293,180,23.62326869806094"></path><path class="axis-ceiling" stroke-width="1" stroke="black" fill="none" d="M175,0L180,0"></path><text class="axis-ceiling-label" font-family="sans-serif" text-anchor="end" font-size="10px" x="170" y="2.5">1000</text></g></svg>