<svg xmlns="http://www.w3.org/2000/svg" viewBox="0 0 180 60"><g transform="translate(0,20)"><path class="area" fill="rgba(0, 0, 0, 0.2)" d="M0,26.092C1.0169491525423728,25.69511111111111,2.0338983050847457,25.298222222222222,3.0508474576271185,24.958666666666666C4.067796610169491,24.61911111111111,5.084745762711864,24.40466666666666,6.101694915254237,24.054666666666662C7.11864406779661,23.70466666666666,8.135593220338983,23.229111111111113,9.152542372881356,22.858666666666668C10.169491525423728,22.488222222222223,11.186440677966102,22.174444444444447,12.203389830508474,21.832C13.220338983050846,21.489555555555555,14.23728813559322,21.026222222222227,15.254237288135592,20.804000000000002C16.271186440677965,20.581777777777777,17.28813559322034,20.470666666666666,18.305084745762713,20.470666666666666C19.322033898305087,20.470666666666666,20.338983050847457,20.738666666666667,21.35593220338983,20.738666666666667C22.372881355932204,20.738666666666667,23.389830508474574,20.49133333333333,24.406779661016948,20.262666666666664C25.423728813559322,20.034,26.440677966101696,19.588,27.45762711864407,19.366666666666667C28.47457627118644,19.145333333333333,29.491525423728813,19.101111111111113,30.508474576271183,18.93466666666667C31.525423728813557,18.768222222222224,32.54237288135593,18.52066666666667,33.559322033898304,18.368000000000002C34.57627118644068,18.215333333333334,35.59322033898305,18.110000000000003,36.610169491525426,18.018666666666668C37.6271186440678,17.927333333333333,38.644067796610166,17.82,39.66101694915254,17.82C40.67796610169491,17.82,41.69491525423729,18.083777777777776,42.71186440677966,18.24133333333333C43.728813559322035,18.398888888888884,44.7457627118644,18.637111111111107,45.762711864406775,18.76533333333333C46.77966101694915,18.893555555555555,47.79661016949152,18.847111111111108,48.813559322033896,19.010666666666665C49.83050847457627,19.174222222222223,50.847457627118644,19.63288888888889,51.86440677966102,19.908C52.88135593220339,20.183111111111113,53.898305084745765,20.392888888888887,54.91525423728814,20.66133333333333C55.93220338983051,20.929777777777776,56.94915254237288,21.245333333333335,57.96610169491525,21.518666666666668C58.983050847457626,21.792,59.99999999999999,22.025111111111112,61.01694915254237,22.301333333333332C62.03389830508474,22.577555555555556,63.05084745762712,22.785333333333334,64.0677966101695,23.176000000000002C65.08474576271186,23.56666666666667,66.10169491525424,24.179111111111112,67.11864406779661,24.645333333333333C68.13559322033899,25.111555555555558,69.15254237288136,25.535999999999998,70.16949152542374,25.973333333333333C71.1864406779661,26.410666666666664,72.20338983050848,26.93311111111111,73.22033898305085,27.269333333333332C74.23728813559322,27.605555555555554,75.2542372881356,27.711333333333332,76.27118644067797,27.990666666666666C77.28813559322033,28.27,78.30508474576271,28.642666666666667,79.32203389830508,28.945333333333334C80.33898305084746,29.248,81.35593220338983,29.543333333333333,82.37288135593221,29.806666666666665C83.38983050847457,30.069999999999997,84.40677966101696,30.286666666666665,85.42372881355932,30.525333333333332C86.4406779661017,30.764,87.45762711864407,31.054,88.47457627118645,31.238666666666667C89.49152542372882,31.423333333333332,90.50847457627118,31.502222222222223,91.52542372881355,31.633333333333333C92.54237288135593,31.764444444444447,93.55932203389831,31.931111111111115,94.57627118644069,32.025333333333336C95.59322033898306,32.11955555555556,96.61016949152543,32.17377777777778,97.62711864406779,32.19866666666667C98.64406779661016,32.223555555555556,99.66101694915254,32.236000000000004,100.6779661016949,32.236000000000004C101.69491525423729,32.236000000000004,102.71186440677965,32.21377777777778,103.72881355932203,32.169333333333334C104.7457627118644,32.12488888888889,105.76271186440678,31.904000000000003,106.77966101694915,31.88266666666667C107.79661016949153,31.861333333333334,108.8135593220339,31.85066666666667,109.83050847457628,31.85066666666667C110.84745762711864,31.85066666666667,111.86440677966102,31.86,112.88135593220339,31.86C113.89830508474576,31.86,114.91525423728814,31.852,115.9322033898305,31.836000000000002C116.94915254237289,31.820000000000004,117.96610169491525,31.066222222222223,118.98305084745763,30.894666666666666C120,30.723111111111113,121.01694915254237,30.78088888888889,122.03389830508473,30.637333333333334C123.05084745762711,30.49377777777778,124.0677966101695,30.18755555555556,125.08474576271188,30.033333333333335C126.10169491525424,29.879111111111115,127.11864406779662,29.86688888888889,128.135593220339,29.712C129.15254237288136,29.557111111111112,130.16949152542372,29.306444444444445,131.1864406779661,29.104C132.20338983050846,28.901555555555554,133.22033898305085,28.706666666666663,134.23728813559322,28.49733333333333C135.25423728813558,28.287999999999997,136.27118644067798,28.03333333333333,137.28813559322035,27.848C138.3050847457627,27.662666666666667,139.3220338983051,27.596666666666668,140.33898305084747,27.38533333333333C141.35593220338984,27.174,142.3728813559322,26.95822222222222,143.38983050847457,26.58C144.40677966101694,26.201777777777775,145.42372881355934,25.554444444444446,146.4406779661017,25.116C147.45762711864407,24.677555555555557,148.47457627118644,24.28377777777778,149.4915254237288,23.949333333333335C150.50847457627117,23.61488888888889,151.52542372881356,23.44088888888889,152.54237288135593,23.109333333333332C153.5593220338983,22.777777777777775,154.5762711864407,22.38222222222222,155.59322033898306,21.959999999999997C156.61016949152543,21.537777777777777,157.6271186440678,21.013333333333332,158.64406779661016,20.576C159.66101694915253,20.138666666666666,160.67796610169492,19.894888888888893,161.6949152542373,19.336000000000002C162.71186440677965,18.77711111111111,163.72881355932205,17.948666666666668,164.74576271186442,17.222666666666665C165.76271186440678,16.49666666666667,166.77966101694915,15.837555555555552,167.79661016949152,14.980000000000002C168.81355932203388,14.122444444444444,169.83050847457628,12.91177777777778,170.84745762711864,12.077333333333335C171.864406779661,11.24288888888889,172.8813559322034,10.670444444444444,173.89830508474577,9.973333333333333C174.91525423728814,9.276222222222222,175.93220338983053,8.701111111111118,176.9491525423729,7.894666666666668C177.96610169491527,7.0882222222222255,178.98305084745763,6.111444444444445,180,5.134666666666665L180,40C178.98305084745763,40,177.96610169491527,40,176.9491525423729,40C175.93220338983053,40,174.91525423728814,40,173.89830508474577,40C172.8813559322034,40,171.864406779661,40,170.84745762711864,40C169.83050847457628,40,168.81355932203388,40,167.79661016949152,40C166.77966101694915,40,165.76271186440678,40,164.74576271186442,40C163.72881355932205,40,162.71186440677965,40,161.6949152542373,40C160.67796610169492,40,159.66101694915253,40,158.64406779661016,40C157.6271186440678,40,156.61016949152543,40,155.59322033898306,40C154.5762711864407,40,153.5593220338983,40,152.54237288135593,40C151.52542372881356,40,150.50847457627117,40,149.4915254237288,40C148.47457627118644,40,147.45762711864407,40,146.4406779661017,40C145.42372881355934,40,144.40677966101694,40,143.38983050847457,40C142.3728813559322,40,141.35593220338984,40,140.33898305084747,40C139.3220338983051,40,138.3050847457627,40,137.28813559322035,40C136.27118644067798,40,135.25423728813558,40,134.23728813559322,40C133.22033898305085,40,132.20338983050846,40,131.1864406779661,40C130.16949152542372,40,129.15254237288136,40,128.135593220339,40C127.11864406779662,40,126.10169491525424,40,125.08474576271188,40C124.0677966101695,40,123.05084745762711,40,122.03389830508473,40C121.01694915254237,40,120,40,118.98305084745763,40C117.96610169491525,40,116.94915254237289,40,115.9322033898305,40C114.91525423728814,40,113.89830508474576,40,112.88135593220339,40C111.86440677966102,40,110.84745762711864,40,109.83050847457628,40C108.8135593220339,40,107.79661016949153,40,106.77966101694915,40C105.76271186440678,40,104.7457627118644,40,103.72881355932203,40C102.71186440677965,40,101.69491525423729,40,100.6779661016949,40C99.66101694915254,40,98.64406779661016,40,97.62711864406779,40C96.61016949152543,40,95.59322033898306,40,94.57627118644069,40C93.55932203389831,40,92.54237288135593,40,91.52542372881355,40C90.50847457627118,40,89.49152542372882,40,88.47457627118645,40C87.45762711864407,40,86.4406779661017,40,85.42372881355932,40C84.40677966101696,40,83.38983050847457,40,82.37288135593221,40C81.35593220338983,40,80.33898305084746,40,79.32203389830508,40C78.30508474576271,40,77.28813559322033,40,76.27118644067797,40C75.2542372881356,40,74.23728813559322,40,73.22033898305085,40C72.20338983050848,40,71.1864406779661,40,70.16949152542374,40C69.15254237288136,40,68.13559322033899,40,67.11864406779661,40C66.10169491525424,40,65.08474576271186,40,64.0677966101695,40C63.05084745762712,40,62.03389830508474,40,61.01694915254237,40C59.99999999999999,40,58.983050847457626,40,57.96610169491525,40C56.94915254237288,40,55.93220338983051,40,54.91525423728814,40C53.898305084745765,40,52.88135593220339,40,51.86440677966102,40C50.847457627118644,40,49.83050847457627,40,48.813559322033896,40C47.79661016949152,40,46.77966101694915,40,45.762711864406775,40C44.7457627118644,40,43.728813559322035,40,42.71186440677966,40C41.69491525423729,40,40.67796610169491,40,39.66101694915254,40C38.644067796610166,40,37.6271186440678,40,36.610169491525426,40C35.59322033898305,40,34.57627118644068,40,33.559322033898304,40C32.54237288135593,40,31.525423728813557,40,30.508474576271183,40C29.491525423728813,40,28.47457627118644,40,27.45762711864407,40C26.440677966101696,40,25.423728813559322,40,24.406779661016948,40C23.389830508474574,40,22.372881355932204,40,21.35593220338983,40C20.338983050847457,40,19.322033898305087,40,18.305084745762713,40C17.28813559322034,40,16.271186440677965,40,15.254237288135592,40C14.23728813559322,40,13.220338983050846,40,12.203389830508474,40C11.186440677966102,40,10.169491525423728,40,9.152542372881356,40C8.135593220338983,40,7.11864406779661,40,6.101694915254237,40C5.084745762711864,40,4.067796610169491,40,3.0508474576271185,40C2.0338983050847457,40,1.0169491525423728,40,0,40Z"></path><path class="line" stroke="black" fill="none" d="M0,26.092C1.0169491525423728,25.69511111111111,2.0338983050847457,25.298222222222222,3.0508474576271185,24.958666666666666C4.067796610169491,24.61911111111111,5.084745762711864,24.40466666666666,6.101694915254237,24.054666666666662C7.11864406779661,23.70466666666666,8.135593220338983,23.229111111111113,9.152542372881356,22.858666666666668C10.169491525423728,22.488222222222223,11.186440677966102,22.174444444444447,12.203389830508474,21.832C13.220338983050846,21.489555555555555,14.23728813559322,21.026222222222227,15.254237288135592,20.804000000000002C16.271186440677965,20.581777777777777,17.28813559322034,20.470666666666666,18.305084745762713,20.470666666666666C19.322033898305087,20.470666666666666,20.338983050847457,20.738666666666667,21.35593220338983,20.738666666666667C22.372881355932204,20.738666666666667,23.389830508474574,20.49133333333333,24.406779661016948,20.262666666666664C25.423728813559322,20.034,26.440677966101696,19.588,27.45762711864407,19.366666666666667C28.47457627118644,19.145333333333333,29.491525423728813,19.101111111111113,30.508474576271183,18.93466666666667C31.525423728813557,18.768222222222224,32.54237288135593,18.52066666666667,33.559322033898304,18.368000000000002C34.57627118644068,18.215333333333334,35.59322033898305,18.110000000000003,36.610169491525426,18.018666666666668C37.6271186440678,17.927333333333333,38.644067796610166,17.82,39.66101694915254,17.82C40.67796610169491,17.82,41.69491525423729,18.083777777777776,42.71186440677966,18.24133333333333C43.728813559322035,18.398888888888884,44.7457627118644,18.637111111111107,45.762711864406775,18.76533333333333C46.77966101694915,18.893555555555555,47.79661016949152,18.847111111111108,48.813559322033896,19.010666666666665C49.83050847457627,19.174222222222223,50.847457627118644,19.63288888888889,51.86440677966102,19.908C52.88135593220339,20.183111111111113,53.898305084745765,20.392888888888887,54.91525423728814,20.66133333333333C55.93220338983051,20.929777777777776,56.94915254237288,21.245333333333335,57.96610169491525,21.518666666666668C58.983050847457626,21.792,59.99999999999999,22.025111111111112,61.01694915254237,22.301333333333332C62.03389830508474,22.577555555555556,63.05084745762712,22.785333333333334,64.0677966101695,23.176000000000002C65.08474576271186,23.56666666666667,66.10169491525424,24.179111111111112,67.11864406779661,24.645333333333333C68.13559322033899,25.111555555555558,69.15254237288136,25.535999999999998,70.16949152542374,25.973333333333333C71.1864406779661,26.410666666666664,72.20338983050848,26.93311111111111,73.22033898305085,27.269333333333332C74.23728813559322,27.605555555555554,75.2542372881356,27.711333333333332,76.27118644067797,27.990666666666666C77.28813559322033,28.27,78.30508474576271,28.642666666666667,79.32203389830508,28.945333333333334C80.33898305084746,29.248,81.35593220338983,29.543333333333333,82.37288135593221,29.806666666666665C83.38983050847457,30.069999999999997,84.40677966101696,30.286666666666665,85.42372881355932,30.525333333333332C86.4406779661017,30.764,87.45762711864407,31.054,88.47457627118645,31.238666666666667C89.49152542372882,31.423333333333332,90.50847457627118,31.502222222222223,91.52542372881355,31.633333333333333C92.54237288135593,31.764444444444447,93.55932203389831,31.931111111111115,94.57627118644069,32.025333333333336C95.59322033898306,32.11955555555556,96.61016949152543,32.17377777777778,97.62711864406779,32.19866666666667C98.64406779661016,32.223555555555556,99.66101694915254,32.236000000000004,100.6779661016949,32.236000000000004C101.69491525423729,32.236000000000004,102.71186440677965,32.21377777777778,103.72881355932203,32.169333333333334C104.7457627118644,32.12488888888889,105.76271186440678,31.904000000000003,106.77966101694915,31.88266666666667C107.79661016949153,31.861333333333334,108.8135593220339,31.85066666666667,109.83050847457628,31.85066666666667C110.84745762711864,31.85066666666667,111.86440677966102,31.86,112.88135593220339,31.86C113.89830508474576,31.86,114.91525423728814,31.852,115.9322033898305,31.836000000000002C116.94915254237289,31.820000000000004,117.96610169491525,31.066222222222223,118.98305084745763,30.894666666666666C120,30.723111111111113,121.01694915254237,30.78088888888889,122.03389830508473,30.637333333333334C123.05084745762711,30.49377777777778,124.0677966101695,30.18755555555556,125.08474576271188,30.033333333333335C126.10169491525424,29.879111111111115,127.11864406779662,29.86688888888889,128.135593220339,29.712C129.15254237288136,29.557111111111112,130.16949152542372,29.306444444444445,131.1864406779661,29.104C132.20338983050846,28.901555555555554,133.22033898305085,28.706666666666663,134.23728813559322,28.49733333333333C135.25423728813558,28.287999999999997,136.27118644067798,28.03333333333333,137.28813559322035,27.848C138.3050847457627,27.662666666666667,139.3220338983051,27.596666666666668,140.33898305084747,27.38533333333333C141.35593220338984,27.174,142.3728813559322,26.95822222222222,143.38983050847457,26.58C144.40677966101694,26.201777777777775,145.42372881355934,25.554444444444446,146.4406779661017,25.116C147.45762711864407,24.677555555555557,148.47457627118644,24.28377777777778,149.4915254237288,23.949333333333335C150.50847457627117,23.61488888888889,151.52542372881356,23.44088888888889,152.54237288135593,23.109333333333332C153.5593220338983,22.777777777777775,154.5762711864407,22.38222222222222,155.59322033898306,21.959999999999997C156.61016949152543,21.537777777777777,157.6271186440678,21.013333333333332,158.64406779661016,20.576C159.66101694915253,20.138666666666666,160.67796610169492,19.894888888888893,161.6949152542373,19.336000000000002C162.71186440677965,18.77711111111111,163.72881355932205,17.948666666666668,164.74576271186442,17.222666666666665C165.76271186440678,16.49666666666667,166.77966101694915,15.837555555555552,167.79661016949152,14.980000000000002C168.81355932203388,14.122444444444444,169.83050847457628,12.91177777777778,170.84745762711864,12.077333333333335C171.864406779661,11.24288888888889,172.8813559322034,10.670444444444444,173.89830508474577,9.973333333333333C174.91525423728814,9.276222222222222,175.93220338983053,8.701111111111118,176.9491525423729,7.894666666666668C177.96610169491527,7.0882222222222255,178.98305084745763,6.111444444444445,180,5.134666666666665"></path><path class="axis-ceiling" stroke-width="1" stroke="black" fill="none" d="M175,0L180,0"></path><text class="axis-ceiling-label" font-family="sans-serif" text-anchor="end" font-size="10px" x="170" y="2.5">30000</text></g></svg>