<svg xmlns="http://www.w3.org/2000/svg" viewBox="0 0 180 60"><g transform="translate(0,20)"><path class="area" fill="rgba(0, 0, 0, 0.2)" d="M0,26.002666666666666C1.0169491525423728,26.210074074074075,2.0338983050847457,26.41748148148148,3.0508474576271185,26.60088888888889C4.067796610169491,26.784296296296297,5.084745762711864,26.92414814814815,6.101694915254237,27.10311111111111C7.11864406779661,27.282074074074075,8.135593220338983,27.492444444444445,9.152542372881356,27.674666666666667C10.169491525423728,27.85688888888889,11.186440677966102,28.012296296296295,12.203389830508474,28.19644444444444C13.220338983050846,28.38059259259259,14.23728813559322,28.51911111111111,15.254237288135592,28.779555555555554C16.271186440677965,29.04,17.28813559322034,29.4482962962963,18.305084745762713,29.759111111111114C19.322033898305087,30.06992592592593,20.338983050847457,30.352888888888888,21.35593220338983,30.644444444444442C22.372881355932204,30.935999999999996,23.389830508474574,31.284296296296297,24.406779661016948,31.508444444444446C25.423728813559322,31.732592592592596,26.440677966101696,31.803111111111107,27.45762711864407,31.98933333333333C28.47457627118644,32.175555555555555,29.491525423728813,32.424,30.508474576271183,32.62577777777778C31.525423728813557,32.827555555555556,32.54237288135593,33.02444444444444,33.559322033898304,33.199999999999996C34.57627118644068,33.37555555555555,35.59322033898305,33.52,36.610169491525426,33.67911111111111C37.6271186440678,33.83822222222222,38.644067796610166,34.031555555555556,39.66101694915254,34.154666666666664C40.67796610169491,34.27777777777778,41.69491525423729,34.33037037037037,42.71186440677966,34.41777777777778C43.728813559322035,34.505185185185184,44.7457627118644,34.6162962962963,45.762711864406775,34.67911111111111C46.77966101694915,34.741925925925926,47.79661016949152,34.77807407407407,48.813559322033896,34.794666666666664C49.83050847457627,34.81125925925926,50.847457627118644,34.81955555555555,51.86440677966102,34.81955555555555C52.88135593220339,34.81955555555555,53.898305084745765,34.80474074074074,54.91525423728814,34.775111111111116C55.93220338983051,34.74548148148149,56.94915254237288,34.598222222222226,57.96610169491525,34.584C58.983050847457626,34.56977777777778,59.99999999999999,34.562666666666665,61.01694915254237,34.562666666666665C62.03389830508474,34.562666666666665,63.05084745762712,34.56888888888889,64.0677966101695,34.56888888888889C65.08474576271186,34.56888888888889,66.10169491525424,34.56355555555556,67.11864406779661,34.55288888888889C68.13559322033899,34.542222222222215,69.15254237288136,34.03970370370371,70.16949152542374,33.925333333333334C71.1864406779661,33.81096296296296,72.20338983050848,33.84948148148148,73.22033898305085,33.75377777777778C74.23728813559322,33.65807407407407,75.2542372881356,33.45392592592592,76.27118644067797,33.35111111111111C77.28813559322033,33.248296296296296,78.30508474576271,33.24014814814815,79.32203389830508,33.13688888888889C80.33898305084746,33.03362962962963,81.35593220338983,32.86651851851852,82.37288135593221,32.73155555555555C83.38983050847457,32.596592592592586,84.40677966101696,32.46666666666666,85.42372881355932,32.32711111111111C86.4406779661017,32.187555555555555,87.45762711864407,32.01777777777778,88.47457627118645,31.894222222222226C89.49152542372882,31.77066666666667,90.50847457627118,31.726666666666667,91.52542372881355,31.58577777777778C92.54237288135593,31.44488888888889,93.55932203389831,31.30103703703704,94.57627118644069,31.04888888888889C95.59322033898306,30.79674074074074,96.61016949152543,30.365185185185183,97.62711864406779,30.072888888888887C98.64406779661016,29.78059259259259,99.66101694915254,29.518074074074075,100.6779661016949,29.29511111111111C101.69491525423729,29.07214814814815,102.71186440677965,28.95614814814815,103.72881355932203,28.73511111111111C104.7457627118644,28.514074074074074,105.76271186440678,28.250370370370366,106.77966101694915,27.968888888888888C107.79661016949153,27.687407407407406,108.8135593220339,27.33777777777778,109.83050847457628,27.046222222222227C110.84745762711864,26.754666666666672,111.86440677966102,26.592148148148148,112.88135593220339,26.219555555555555C113.89830508474576,25.846962962962962,114.91525423728814,25.294666666666668,115.9322033898305,24.81066666666667C116.94915254237289,24.326666666666668,117.96610169491525,23.887407407407412,118.98305084745763,23.315555555555555C120,22.743703703703705,121.01694915254237,21.935999999999996,122.03389830508473,21.379555555555555C123.05084745762711,20.823111111111107,124.0677966101695,20.44162962962963,125.08474576271188,19.976888888888887C126.10169491525424,19.51214814814815,127.11864406779662,19.128,128.135593220339,18.59111111111111C129.15254237288136,18.054222222222222,130.16949152542372,16.891851851851847,131.1864406779661,16.755555555555553C132.20338983050846,16.61925925925926,133.22033898305085,16.687407407407406,134.23728813559322,16.551111111111112C135.25423728813558,16.414814814814818,136.27118644067798,15.421925925925924,137.28813559322035,14.885333333333332C138.3050847457627,14.34874074074074,139.3220338983051,13.872296296296296,140.33898305084747,13.331555555555553C141.35593220338984,12.790814814814816,142.3728813559322,12.120148148148147,143.38983050847457,11.640888888888888C144.40677966101694,11.161629629629626,145.42372881355934,10.803703703703704,146.4406779661017,10.456C147.45762711864407,10.108296296296297,148.47457627118644,9.89659259259259,149.4915254237288,9.554666666666666C150.50847457627117,9.212740740740738,151.52542372881356,8.786222222222223,152.54237288135593,8.404444444444445C153.5593220338983,8.022666666666668,154.5762711864407,7.628592592592594,155.59322033898306,7.263999999999999C156.61016949152543,6.899407407407408,157.6271186440678,6.570962962962962,158.64406779661016,6.21688888888889C159.66101694915253,5.862814814814814,160.67796610169492,5.461629629629629,161.6949152542373,5.139555555555555C162.71186440677965,4.817481481481481,163.72881355932205,4.284444444444446,164.74576271186442,4.284444444444446C165.76271186440678,4.284444444444446,166.77966101694915,5.177925925925926,167.79661016949152,5.462222222222222C168.81355932203388,5.74651851851852,169.83050847457628,5.911999999999999,170.84745762711864,5.990222222222221C171.864406779661,6.068444444444443,172.8813559322034,6.107555555555555,173.89830508474577,6.107555555555555C174.91525423728814,6.107555555555555,175.93220338983053,5.941333333333332,176.9491525423729,5.941333333333332C177.96610169491527,5.941333333333332,178.98305084745763,5.979999999999999,180,6.0186666666666655L180,40C178.98305084745763,40,177.96610169491527,40,176.9491525423729,40C175.93220338983053,40,174.91525423728814,40,173.89830508474577,40C172.8813559322034,40,171.864406779661,40,170.84745762711864,40C169.83050847457628,40,168.81355932203388,40,167.79661016949152,40C166.77966101694915,40,165.76271186440678,40,164.74576271186442,40C163.72881355932205,40,162.71186440677965,40,161.6949152542373,40C160.67796610169492,40,159.66101694915253,40,158.64406779661016,40C157.6271186440678,40,156.61016949152543,40,155.59322033898306,40C154.5762711864407,40,153.5593220338983,40,152.54237288135593,40C151.52542372881356,40,150.50847457627117,40,149.4915254237288,40C148.47457627118644,40,147.45762711864407,40,146.4406779661017,40C145.42372881355934,40,144.40677966101694,40,143.38983050847457,40C142.3728813559322,40,141.35593220338984,40,140.33898305084747,40C139.3220338983051,40,138.3050847457627,40,137.28813559322035,40C136.27118644067798,40,135.25423728813558,40,134.23728813559322,40C133.22033898305085,40,132.20338983050846,40,131.1864406779661,40C130.16949152542372,40,129.15254237288136,40,128.135593220339,40C127.11864406779662,40,126.10169491525424,40,125.08474576271188,40C124.0677966101695,40,123.05084745762711,40,122.03389830508473,40C121.01694915254237,40,120,40,118.98305084745763,40C117.96610169491525,40,116.94915254237289,40,115.9322033898305,40C114.91525423728814,40,113.89830508474576,40,112.88135593220339,40C111.86440677966102,40,110.84745762711864,40,109.83050847457628,40C108.8135593220339,40,107.79661016949153,40,106.77966101694915,40C105.76271186440678,40,104.7457627118644,40,103.72881355932203,40C102.71186440677965,40,101.69491525423729,40,100.6779661016949,40C99.66101694915254,40,98.64406779661016,40,97.62711864406779,40C96.61016949152543,40,95.59322033898306,40,94.57627118644069,40C93.55932203389831,40,92.54237288135593,40,91.52542372881355,40C90.50847457627118,40,89.49152542372882,40,88.47457627118645,40C87.45762711864407,40,86.4406779661017,40,85.42372881355932,40C84.40677966101696,40,83.38983050847457,40,82.37288135593221,40C81.35593220338983,40,80.33898305084746,40,79.32203389830508,40C78.30508474576271,40,77.28813559322033,40,76.27118644067797,40C75.2542372881356,40,74.23728813559322,40,73.22033898305085,40C72.20338983050848,40,71.1864406779661,40,70.16949152542374,40C69.15254237288136,40,68.13559322033899,40,67.11864406779661,40C66.10169491525424,40,65.08474576271186,40,64.0677966101695,40C63.05084745762712,40,62.03389830508474,40,61.01694915254237,40C59.99999999999999,40,58.983050847457626,40,57.96610169491525,40C56.94915254237288,40,55.93220338983051,40,54.91525423728814,40C53.898305084745765,40,52.88135593220339,40,51.86440677966102,40C50.847457627118644,40,49.83050847457627,40,48.813559322033896,40C47.79661016949152,40,46.77966101694915,40,45.762711864406775,40C44.7457627118644,40,43.728813559322035,40,42.71186440677966,40C41.69491525423729,40,40.67796610169491,40,39.66101694915254,40C38.644067796610166,40,37.6271186440678,40,36.610169491525426,40C35.59322033898305,40,34.57627118644068,40,33.559322033898304,40C32.54237288135593,40,31.525423728813557,40,30.508474576271183,40C29.491525423728813,40,28.47457627118644,40,27.45762711864407,40C26.440677966101696,40,25.423728813559322,40,24.406779661016948,40C23.389830508474574,40,22.372881355932204,40,21.35593220338983,40C20.338983050847457,40,19.322033898305087,40,18.305084745762713,40C17.28813559322034,40,16.271186440677965,40,15.254237288135592,40C14.23728813559322,40,13.220338983050846,40,12.203389830508474,40C11.186440677966102,40,10.169491525423728,40,9.152542372881356,40C8.135593220338983,40,7.11864406779661,40,6.101694915254237,40C5.084745762711864,40,4.067796610169491,40,3.0508474576271185,40C2.0338983050847457,40,1.0169491525423728,40,0,40Z"></path><path class="line" stroke="black" fill="none" d="M0,26.002666666666666C1.0169491525423728,26.210074074074075,2.0338983050847457,26.41748148148148,3.0508474576271185,26.60088888888889C4.067796610169491,26.784296296296297,5.084745762711864,26.92414814814815,6.101694915254237,27.10311111111111C7.11864406779661,27.282074074074075,8.135593220338983,27.492444444444445,9.152542372881356,27.674666666666667C10.169491525423728,27.85688888888889,11.186440677966102,28.012296296296295,12.203389830508474,28.19644444444444C13.220338983050846,28.38059259259259,14.23728813559322,28.51911111111111,15.254237288135592,28.779555555555554C16.271186440677965,29.04,17.28813559322034,29.4482962962963,18.305084745762713,29.759111111111114C19.322033898305087,30.06992592592593,20.338983050847457,30.352888888888888,21.35593220338983,30.644444444444442C22.372881355932204,30.935999999999996,23.389830508474574,31.284296296296297,24.406779661016948,31.508444444444446C25.423728813559322,31.732592592592596,26.440677966101696,31.803111111111107,27.45762711864407,31.98933333333333C28.47457627118644,32.175555555555555,29.491525423728813,32.424,30.508474576271183,32.62577777777778C31.525423728813557,32.827555555555556,32.54237288135593,33.02444444444444,33.559322033898304,33.199999999999996C34.57627118644068,33.37555555555555,35.59322033898305,33.52,36.610169491525426,33.67911111111111C37.6271186440678,33.83822222222222,38.644067796610166,34.031555555555556,39.66101694915254,34.154666666666664C40.67796610169491,34.27777777777778,41.69491525423729,34.33037037037037,42.71186440677966,34.41777777777778C43.728813559322035,34.505185185185184,44.7457627118644,34.6162962962963,45.762711864406775,34.67911111111111C46.77966101694915,34.741925925925926,47.79661016949152,34.77807407407407,48.813559322033896,34.794666666666664C49.83050847457627,34.81125925925926,50.847457627118644,34.81955555555555,51.86440677966102,34.81955555555555C52.88135593220339,34.81955555555555,53.898305084745765,34.80474074074074,54.91525423728814,34.775111111111116C55.93220338983051,34.74548148148149,56.94915254237288,34.598222222222226,57.96610169491525,34.584C58.983050847457626,34.56977777777778,59.99999999999999,34.562666666666665,61.01694915254237,34.562666666666665C62.03389830508474,34.562666666666665,63.05084745762712,34.56888888888889,64.0677966101695,34.56888888888889C65.08474576271186,34.56888888888889,66.10169491525424,34.56355555555556,67.11864406779661,34.55288888888889C68.13559322033899,34.542222222222215,69.15254237288136,34.03970370370371,70.16949152542374,33.925333333333334C71.1864406779661,33.81096296296296,72.20338983050848,33.84948148148148,73.22033898305085,33.75377777777778C74.23728813559322,33.65807407407407,75.2542372881356,33.45392592592592,76.27118644067797,33.35111111111111C77.28813559322033,33.248296296296296,78.30508474576271,33.24014814814815,79.32203389830508,33.13688888888889C80.33898305084746,33.03362962962963,81.35593220338983,32.86651851851852,82.37288135593221,32.73155555555555C83.38983050847457,32.596592592592586,84.40677966101696,32.46666666666666,85.42372881355932,32.32711111111111C86.4406779661017,32.187555555555555,87.45762711864407,32.01777777777778,88.47457627118645,31.894222222222226C89.49152542372882,31.77066666666667,90.50847457627118,31.726666666666667,91.52542372881355,31.58577777777778C92.54237288135593,31.44488888888889,93.55932203389831,31.30103703703704,94.57627118644069,31.04888888888889C95.59322033898306,30.79674074074074,96.61016949152543,30.365185185185183,97.62711864406779,30.072888888888887C98.64406779661016,29.78059259259259,99.66101694915254,29.518074074074075,100.6779661016949,29.29511111111111C101.69491525423729,29.07214814814815,102.71186440677965,28.95614814814815,103.72881355932203,28.73511111111111C104.7457627118644,28.514074074074074,105.76271186440678,28.250370370370366,106.77966101694915,27.968888888888888C107.79661016949153,27.687407407407406,108.8135593220339,27.33777777777778,109.83050847457628,27.046222222222227C110.84745762711864,26.754666666666672,111.86440677966102,26.592148148148148,112.88135593220339,26.219555555555555C113.89830508474576,25.846962962962962,114.91525423728814,25.294666666666668,115.9322033898305,24.81066666666667C116.94915254237289,24.326666666666668,117.96610169491525,23.887407407407412,118.98305084745763,23.315555555555555C120,22.743703703703705,121.01694915254237,21.935999999999996,122.03389830508473,21.379555555555555C123.05084745762711,20.823111111111107,124.0677966101695,20.44162962962963,125.08474576271188,19.976888888888887C126.10169491525424,19.51214814814815,127.11864406779662,19.128,128.135593220339,18.59111111111111C129.15254237288136,18.054222222222222,130.16949152542372,16.891851851851847,131.1864406779661,16.755555555555553C132.20338983050846,16.61925925925926,133.22033898305085,16.687407407407406,134.23728813559322,16.551111111111112C135.25423728813558,16.414814814814818,136.27118644067798,15.421925925925924,137.28813559322035,14.885333333333332C138.3050847457627,14.34874074074074,139.3220338983051,13.872296296296296,140.33898305084747,13.331555555555553C141.35593220338984,12.790814814814816,142.3728813559322,12.120148148148147,143.38983050847457,11.640888888888888C144.40677966101694,11.161629629629626,145.42372881355934,10.803703703703704,146.4406779661017,10.456C147.45762711864407,10.108296296296297,148.47457627118644,9.89659259259259,149.4915254237288,9.554666666666666C150.50847457627117,9.212740740740738,151.52542372881356,8.786222222222223,152.54237288135593,8.404444444444445C153.5593220338983,8.022666666666668,154.5762711864407,7.628592592592594,155.59322033898306,7.263999999999999C156.61016949152543,6.899407407407408,157.6271186440678,6.570962962962962,158.64406779661016,6.21688888888889C159.66101694915253,5.862814814814814,160.67796610169492,5.461629629629629,161.6949152542373,5.139555555555555C162.71186440677965,4.817481481481481,163.72881355932205,4.284444444444446,164.74576271186442,4.284444444444446C165.76271186440678,4.284444444444446,166.77966101694915,5.177925925925926,167.79661016949152,5.462222222222222C168.81355932203388,5.74651851851852,169.83050847457628,5.911999999999999,170.84745762711864,5.990222222222221C171.864406779661,6.068444444444443,172.8813559322034,6.107555555555555,173.89830508474577,6.107555555555555C174.91525423728814,6.107555555555555,175.93220338983053,5.941333333333332,176.9491525423729,5.941333333333332C177.96610169491527,5.941333333333332,178.98305084745763,5.979999999999999,180,6.0186666666666655"></path><path class="axis-ceiling" stroke-width="1" stroke="black" fill="none" d="M175,0L180,0"></path><text class="axis-ceiling-label" font-family="sans-serif" text-anchor="end" font-size="10px" x="170" y="2.5">45000</text></g></svg>