<svg xmlns="http://www.w3.org/2000/svg" viewBox="0 0 180 60"><g transform="translate(0,20)"><path class="area" fill="rgba(0, 0, 0, 0.2)" d="M0,28.06797385620915C1.0169491525423728,30.62483660130719,2.0338983050847457,33.18169934640523,3.0508474576271185,33.18169934640523C4.067796610169491,33.18169934640523,5.084745762711864,32.052287581699346,6.101694915254237,32.052287581699346C7.11864406779661,32.052287581699346,8.135593220338983,32.867973856209154,9.152542372881356,32.867973856209154C10.169491525423728,32.867973856209154,11.186440677966102,32.28235294117647,12.203389830508474,32.28235294117647C13.220338983050846,32.28235294117647,14.23728813559322,32.52287581699346,15.254237288135592,33.00392156862745C16.271186440677965,33.48496732026143,17.28813559322034,37.66797385620915,18.305084745762713,37.66797385620915C19.322033898305087,37.66797385620915,20.338983050847457,36.72679738562091,21.35593220338983,36.559477124183005C22.372881355932204,36.3921568627451,23.389830508474574,36.47581699346405,24.406779661016948,36.30849673202614C25.423728813559322,36.141176470588235,26.440677966101696,31.801307189542484,27.45762711864407,31.801307189542484C28.47457627118644,31.801307189542484,29.491525423728813,33.63137254901961,30.508474576271183,33.63137254901961C31.525423728813557,33.63137254901961,32.54237288135593,33.2078431372549,33.559322033898304,32.899346405228755C34.57627118644068,32.59084967320261,35.59322033898305,31.80827886710239,36.610169491525426,31.780392156862742C37.6271186440678,31.752505446623093,38.644067796610166,31.766448801742918,39.66101694915254,31.73856209150327C40.67796610169491,31.71067538126362,41.69491525423729,29.253159041394337,42.71186440677966,29.23921568627451C43.728813559322035,29.22527233115468,44.7457627118644,29.232244008714595,45.762711864406775,29.218300653594767C46.77966101694915,29.20435729847494,47.79661016949152,27.966884531590416,48.813559322033896,27.50326797385621C49.83050847457627,27.039651416122005,50.847457627118644,26.750326797385625,51.86440677966102,26.436601307189544C52.88135593220339,26.122875816993464,53.898305084745765,26.044444444444444,54.91525423728814,25.620915032679736C55.93220338983051,25.197385620915032,56.94915254237288,23.895424836601308,57.96610169491525,23.895424836601308C58.983050847457626,23.895424836601308,59.99999999999999,25.676688453159045,61.01694915254237,25.89281045751634C62.03389830508474,26.10893246187364,63.05084745762712,26.216993464052287,64.0677966101695,26.216993464052287C65.08474576271186,26.216993464052287,66.10169491525424,26.129847494553378,67.11864406779661,25.955555555555556C68.13559322033899,25.781263616557734,69.15254237288136,18.760784313725487,70.16949152542374,18.760784313725487C71.1864406779661,18.760784313725487,72.20338983050848,24.12549019607843,73.22033898305085,24.12549019607843C74.23728813559322,24.12549019607843,75.2542372881356,21.406535947712413,76.27118644067797,21.406535947712413C77.28813559322033,21.406535947712413,78.30508474576271,23.623529411764707,79.32203389830508,23.623529411764707C80.33898305084746,23.623529411764707,81.35593220338983,21.37516339869281,82.37288135593221,21.37516339869281C83.38983050847457,21.37516339869281,84.40677966101696,21.38562091503268,85.42372881355932,21.38562091503268C86.4406779661017,21.38562091503268,87.45762711864407,21.050980392156863,88.47457627118645,21.050980392156863C89.49152542372882,21.050980392156863,90.50847457627118,22.51503267973856,91.52542372881355,22.51503267973856C92.54237288135593,22.51503267973856,93.55932203389831,21.13638344226581,94.57627118644069,19.827450980392157C95.59322033898306,18.518518518518523,96.61016949152543,14.66143790849673,97.62711864406779,14.66143790849673C98.64406779661016,14.66143790849673,99.66101694915254,16.177777777777784,100.6779661016949,16.993464052287585C101.69491525423729,17.80915032679739,102.71186440677965,19.555555555555557,103.72881355932203,19.555555555555557C104.7457627118644,19.555555555555557,105.76271186440678,17.84052287581699,106.77966101694915,17.129411764705882C107.79661016949153,16.41830065359477,108.8135593220339,15.28888888888889,109.83050847457628,15.28888888888889C110.84745762711864,15.28888888888889,111.86440677966102,16.41830065359477,112.88135593220339,16.41830065359477C113.89830508474576,16.41830065359477,114.91525423728814,10.24488017429194,115.9322033898305,9.568627450980394C116.94915254237289,8.892374727668845,117.96610169491525,9.230501089324619,118.98305084745763,8.55424836601307C120,7.877995642701527,121.01694915254237,3.367320261437907,122.03389830508473,3.367320261437907C123.05084745762711,3.367320261437907,124.0677966101695,9.509368191721128,125.08474576271188,9.641830065359475C126.10169491525424,9.774291938997822,127.11864406779662,9.840522875816994,128.135593220339,9.840522875816994C129.15254237288136,9.840522875816994,130.16949152542372,4.549019607843139,131.1864406779661,4.549019607843139C132.20338983050846,4.549019607843139,133.22033898305085,23.73856209150327,134.23728813559322,23.73856209150327C135.25423728813558,23.73856209150327,136.27118644067798,6.54640522875817,137.28813559322035,6.54640522875817C138.3050847457627,6.54640522875817,139.3220338983051,7.8640522875817,140.33898305084747,7.8640522875817C141.35593220338984,7.8640522875817,142.3728813559322,6.253594771241828,143.38983050847457,6.253594771241828C144.40677966101694,6.253594771241828,145.42372881355934,10.656209150326793,146.4406779661017,12.20392156862745C147.45762711864407,13.751633986928093,148.47457627118644,15.53986928104575,149.4915254237288,15.53986928104575C150.50847457627117,15.53986928104575,151.52542372881356,12.611764705882354,152.54237288135593,12.611764705882354C153.5593220338983,12.611764705882354,154.5762711864407,12.650108932461874,155.59322033898306,12.726797385620916C156.61016949152543,12.803485838779956,157.6271186440678,13.82483660130719,158.64406779661016,13.82483660130719C159.66101694915253,13.82483660130719,160.67796610169492,13.469281045751632,161.6949152542373,13.469281045751632C162.71186440677965,13.469281045751632,163.72881355932205,14.34074074074074,164.74576271186442,16.083660130718954C165.76271186440678,17.826579520697152,166.77966101694915,40,167.79661016949152,40C168.81355932203388,40,169.83050847457628,34.434858387799565,170.84745762711864,32.355555555555554C171.864406779661,30.276252723311547,172.8813559322034,28.885403050108934,173.89830508474577,27.52418300653595C174.91525423728814,26.162962962962965,175.93220338983053,25.95555555555557,176.9491525423729,24.188235294117646C177.96610169491527,22.42091503267974,178.98305084745763,19.67058823529412,180,16.920261437908497L180,40C178.98305084745763,40,177.96610169491527,40,176.9491525423729,40C175.93220338983053,40,174.91525423728814,40,173.89830508474577,40C172.8813559322034,40,171.864406779661,40,170.84745762711864,40C169.83050847457628,40,168.81355932203388,40,167.79661016949152,40C166.77966101694915,40,165.76271186440678,40,164.74576271186442,40C163.72881355932205,40,162.71186440677965,40,161.6949152542373,40C160.67796610169492,40,159.66101694915253,40,158.64406779661016,40C157.6271186440678,40,156.61016949152543,40,155.59322033898306,40C154.5762711864407,40,153.5593220338983,40,152.54237288135593,40C151.52542372881356,40,150.50847457627117,40,149.4915254237288,40C148.47457627118644,40,147.45762711864407,40,146.4406779661017,40C145.42372881355934,40,144.40677966101694,40,143.38983050847457,40C142.3728813559322,40,141.35593220338984,40,140.33898305084747,40C139.3220338983051,40,138.3050847457627,40,137.28813559322035,40C136.27118644067798,40,135.25423728813558,40,134.23728813559322,40C133.22033898305085,40,132.20338983050846,40,131.1864406779661,40C130.16949152542372,40,129.15254237288136,40,128.135593220339,40C127.11864406779662,40,126.10169491525424,40,125.08474576271188,40C124.0677966101695,40,123.05084745762711,40,122.03389830508473,40C121.01694915254237,40,120,40,118.98305084745763,40C117.96610169491525,40,116.94915254237289,40,115.9322033898305,40C114.91525423728814,40,113.89830508474576,40,112.88135593220339,40C111.86440677966102,40,110.84745762711864,40,109.83050847457628,40C108.8135593220339,40,107.79661016949153,40,106.77966101694915,40C105.76271186440678,40,104.7457627118644,40,103.72881355932203,40C102.71186440677965,40,101.69491525423729,40,100.6779661016949,40C99.66101694915254,40,98.64406779661016,40,97.62711864406779,40C96.61016949152543,40,95.59322033898306,40,94.57627118644069,40C93.55932203389831,40,92.54237288135593,40,91.52542372881355,40C90.50847457627118,40,89.49152542372882,40,88.47457627118645,40C87.45762711864407,40,86.4406779661017,40,85.42372881355932,40C84.40677966101696,40,83.38983050847457,40,82.37288135593221,40C81.35593220338983,40,80.33898305084746,40,79.32203389830508,40C78.30508474576271,40,77.28813559322033,40,76.27118644067797,40C75.2542372881356,40,74.23728813559322,40,73.22033898305085,40C72.20338983050848,40,71.1864406779661,40,70.16949152542374,40C69.15254237288136,40,68.13559322033899,40,67.11864406779661,40C66.10169491525424,40,65.08474576271186,40,64.0677966101695,40C63.05084745762712,40,62.03389830508474,40,61.01694915254237,40C59.99999999999999,40,58.983050847457626,40,57.96610169491525,40C56.94915254237288,40,55.93220338983051,40,54.91525423728814,40C53.898305084745765,40,52.88135593220339,40,51.86440677966102,40C50.847457627118644,40,49.83050847457627,40,48.813559322033896,40C47.79661016949152,40,46.77966101694915,40,45.762711864406775,40C44.7457627118644,40,43.728813559322035,40,42.71186440677966,40C41.69491525423729,40,40.67796610169491,40,39.66101694915254,40C38.644067796610166,40,37.6271186440678,40,36.610169491525426,40C35.59322033898305,40,34.57627118644068,40,33.559322033898304,40C32.54237288135593,40,31.525423728813557,40,30.508474576271183,40C29.491525423728813,40,28.47457627118644,40,27.45762711864407,40C26.440677966101696,40,25.423728813559322,40,24.406779661016948,40C23.389830508474574,40,22.372881355932204,40,21.35593220338983,40C20.338983050847457,40,19.322033898305087,40,18.305084745762713,40C17.28813559322034,40,16.271186440677965,40,15.254237288135592,40C14.23728813559322,40,13.220338983050846,40,12.203389830508474,40C11.186440677966102,40,10.169491525423728,40,9.152542372881356,40C8.135593220338983,40,7.11864406779661,40,6.101694915254237,40C5.084745762711864,40,4.067796610169491,40,3.0508474576271185,40C2.0338983050847457,40,1.0169491525423728,40,0,40Z"></path><path class="line" stroke="black" fill="none" d="M0,28.06797385620915C1.0169491525423728,30.62483660130719,2.0338983050847457,33.18169934640523,3.0508474576271185,33.18169934640523C4.067796610169491,33.18169934640523,5.084745762711864,32.052287581699346,6.101694915254237,32.052287581699346C7.11864406779661,32.052287581699346,8.135593220338983,32.867973856209154,9.152542372881356,32.867973856209154C10.169491525423728,32.867973856209154,11.186440677966102,32.28235294117647,12.203389830508474,32.28235294117647C13.220338983050846,32.28235294117647,14.23728813559322,32.52287581699346,15.254237288135592,33.00392156862745C16.271186440677965,33.48496732026143,17.28813559322034,37.66797385620915,18.305084745762713,37.66797385620915C19.322033898305087,37.66797385620915,20.338983050847457,36.72679738562091,21.35593220338983,36.559477124183005C22.372881355932204,36.3921568627451,23.389830508474574,36.47581699346405,24.406779661016948,36.30849673202614C25.423728813559322,36.141176470588235,26.440677966101696,31.801307189542484,27.45762711864407,31.801307189542484C28.47457627118644,31.801307189542484,29.491525423728813,33.63137254901961,30.508474576271183,33.63137254901961C31.525423728813557,33.63137254901961,32.54237288135593,33.2078431372549,33.559322033898304,32.899346405228755C34.57627118644068,32.59084967320261,35.59322033898305,31.80827886710239,36.610169491525426,31.780392156862742C37.6271186440678,31.752505446623093,38.644067796610166,31.766448801742918,39.66101694915254,31.73856209150327C40.67796610169491,31.71067538126362,41.69491525423729,29.253159041394337,42.71186440677966,29.23921568627451C43.728813559322035,29.22527233115468,44.7457627118644,29.232244008714595,45.762711864406775,29.218300653594767C46.77966101694915,29.20435729847494,47.79661016949152,27.966884531590416,48.813559322033896,27.50326797385621C49.83050847457627,27.039651416122005,50.847457627118644,26.750326797385625,51.86440677966102,26.436601307189544C52.88135593220339,26.122875816993464,53.898305084745765,26.044444444444444,54.91525423728814,25.620915032679736C55.93220338983051,25.197385620915032,56.94915254237288,23.895424836601308,57.96610169491525,23.895424836601308C58.983050847457626,23.895424836601308,59.99999999999999,25.676688453159045,61.01694915254237,25.89281045751634C62.03389830508474,26.10893246187364,63.05084745762712,26.216993464052287,64.0677966101695,26.216993464052287C65.08474576271186,26.216993464052287,66.10169491525424,26.129847494553378,67.11864406779661,25.955555555555556C68.13559322033899,25.781263616557734,69.15254237288136,18.760784313725487,70.16949152542374,18.760784313725487C71.1864406779661,18.760784313725487,72.20338983050848,24.12549019607843,73.22033898305085,24.12549019607843C74.23728813559322,24.12549019607843,75.2542372881356,21.406535947712413,76.27118644067797,21.406535947712413C77.28813559322033,21.406535947712413,78.30508474576271,23.623529411764707,79.32203389830508,23.623529411764707C80.33898305084746,23.623529411764707,81.35593220338983,21.37516339869281,82.37288135593221,21.37516339869281C83.38983050847457,21.37516339869281,84.40677966101696,21.38562091503268,85.42372881355932,21.38562091503268C86.4406779661017,21.38562091503268,87.45762711864407,21.050980392156863,88.47457627118645,21.050980392156863C89.49152542372882,21.050980392156863,90.50847457627118,22.51503267973856,91.52542372881355,22.51503267973856C92.54237288135593,22.51503267973856,93.55932203389831,21.13638344226581,94.57627118644069,19.827450980392157C95.59322033898306,18.518518518518523,96.61016949152543,14.66143790849673,97.62711864406779,14.66143790849673C98.64406779661016,14.66143790849673,99.66101694915254,16.177777777777784,100.6779661016949,16.993464052287585C101.69491525423729,17.80915032679739,102.71186440677965,19.555555555555557,103.72881355932203,19.555555555555557C104.7457627118644,19.555555555555557,105.76271186440678,17.84052287581699,106.77966101694915,17.129411764705882C107.79661016949153,16.41830065359477,108.8135593220339,15.28888888888889,109.83050847457628,15.28888888888889C110.84745762711864,15.28888888888889,111.86440677966102,16.41830065359477,112.88135593220339,16.41830065359477C113.89830508474576,16.41830065359477,114.91525423728814,10.24488017429194,115.9322033898305,9.568627450980394C116.94915254237289,8.892374727668845,117.96610169491525,9.230501089324619,118.98305084745763,8.55424836601307C120,7.877995642701527,121.01694915254237,3.367320261437907,122.03389830508473,3.367320261437907C123.05084745762711,3.367320261437907,124.0677966101695,9.509368191721128,125.08474576271188,9.641830065359475C126.10169491525424,9.774291938997822,127.11864406779662,9.840522875816994,128.135593220339,9.840522875816994C129.15254237288136,9.840522875816994,130.16949152542372,4.549019607843139,131.1864406779661,4.549019607843139C132.20338983050846,4.549019607843139,133.22033898305085,23.73856209150327,134.23728813559322,23.73856209150327C135.25423728813558,23.73856209150327,136.27118644067798,6.54640522875817,137.28813559322035,6.54640522875817C138.3050847457627,6.54640522875817,139.3220338983051,7.8640522875817,140.33898305084747,7.8640522875817C141.35593220338984,7.8640522875817,142.3728813559322,6.253594771241828,143.38983050847457,6.253594771241828C144.40677966101694,6.253594771241828,145.42372881355934,10.656209150326793,146.4406779661017,12.20392156862745C147.45762711864407,13.751633986928093,148.47457627118644,15.53986928104575,149.4915254237288,15.53986928104575C150.50847457627117,15.53986928104575,151.52542372881356,12.611764705882354,152.54237288135593,12.611764705882354C153.5593220338983,12.611764705882354,154.5762711864407,12.650108932461874,155.59322033898306,12.726797385620916C156.61016949152543,12.803485838779956,157.6271186440678,13.82483660130719,158.64406779661016,13.82483660130719C159.66101694915253,13.82483660130719,160.67796610169492,13.469281045751632,161.6949152542373,13.469281045751632C162.71186440677965,13.469281045751632,163.72881355932205,14.34074074074074,164.74576271186442,16.083660130718954C165.76271186440678,17.826579520697152,166.77966101694915,40,167.79661016949152,40C168.81355932203388,40,169.83050847457628,34.434858387799565,170.84745762711864,32.355555555555554C171.864406779661,30.276252723311547,172.8813559322034,28.885403050108934,173.89830508474577,27.52418300653595C174.91525423728814,26.162962962962965,175.93220338983053,25.95555555555557,176.9491525423729,24.188235294117646C177.96610169491527,22.42091503267974,178.98305084745763,19.67058823529412,180,16.920261437908497"></path><path class="axis-ceiling" stroke-width="1" stroke="black" fill="none" d="M175,0L180,0"></path><text class="axis-ceiling-label" font-family="sans-serif" text-anchor="end" font-size="10px" x="170" y="2.5">2500</text></g></svg>