<svg xmlns="http://www.w3.org/2000/svg" viewBox="0 0 180 60"><g transform="translate(0,20)"><path class="area" fill="rgba(0, 0, 0, 0.2)" d="M0,23.229946524064175C1.0169491525423728,23.68389780154486,2.0338983050847457,24.13784907902554,3.0508474576271185,24.270944741532972C4.067796610169491,24.404040404040405,5.084745762711864,24.39691027926322,6.101694915254237,24.47058823529412C7.11864406779661,24.54426619132502,8.135593220338983,24.5513963161022,9.152542372881356,24.713012477718358C10.169491525423728,24.874628639334517,11.186440677966102,25.69459298871064,12.203389830508474,26.238859180035654C13.220338983050846,26.78312537136067,14.23728813559322,27.34878193701723,15.254237288135592,27.978609625668447C16.271186440677965,28.608437314319666,17.28813559322034,29.34284016636958,18.305084745762713,30.01782531194296C19.322033898305087,30.69281045751634,20.338983050847457,31.386809269162214,21.35593220338983,32.02852049910874C22.372881355932204,32.67023172905526,23.389830508474574,33.30956625074272,24.406779661016948,33.8680926916221C25.423728813559322,34.426619132501486,26.440677966101696,35.013666072489606,27.45762711864407,35.37967914438503C28.47457627118644,35.74569221628045,29.491525423728813,35.71004159239453,30.508474576271183,36.06417112299465C31.525423728813557,36.41830065359477,32.54237288135593,36.988710635769465,33.559322033898304,37.50445632798574C34.57627118644068,38.02020202020202,35.59322033898305,38.780748663101605,36.610169491525426,39.15864527629233C37.6271186440678,39.53654188948306,38.644067796610166,39.771836007130126,39.66101694915254,39.771836007130126C40.67796610169491,39.771836007130126,41.69491525423729,39.72905525846703,42.71186440677966,39.72905525846703C43.728813559322035,39.72905525846703,44.7457627118644,39.826500297088536,45.762711864406775,39.8716577540107C46.77966101694915,39.91681521093286,47.79661016949152,40,48.813559322033896,40C49.83050847457627,40,50.847457627118644,39.91919191919192,51.86440677966102,39.75757575757576C52.88135593220339,39.5959595959596,53.898305084745765,39.03267973856209,54.91525423728814,38.60249554367201C55.93220338983051,38.17231134878194,56.94915254237288,37.644682115270356,57.96610169491525,37.1764705882353C58.983050847457626,36.70825906120024,59.99999999999999,36.163992869875216,61.01694915254237,35.79322638146167C62.03389830508474,35.42245989304812,63.05084745762712,35.32501485442662,64.0677966101695,34.95187165775401C65.08474576271186,34.578728461081404,66.10169491525424,34.022578728461085,67.11864406779661,33.554367201426025C68.13559322033899,33.086155674390966,69.15254237288136,32.63458110516934,70.16949152542374,32.14260249554367C71.1864406779661,31.650623885918,72.20338983050848,31.049316696375524,73.22033898305085,30.602495543672017C74.23728813559322,30.15567439096851,75.2542372881356,29.74925727866904,76.27118644067797,29.461675579322637C77.28813559322033,29.174093879976233,78.30508474576271,29.081402257872845,79.32203389830508,28.87700534759358C80.33898305084746,28.672608437314317,81.35593220338983,28.625074272133098,82.37288135593221,28.235294117647058C83.38983050847457,27.84551396316102,84.40677966101696,26.842543077837192,85.42372881355932,26.538324420677363C86.4406779661017,26.23410576351753,87.45762711864407,26.293523469994064,88.47457627118645,26.081996434937615C89.49152542372882,25.87046939988117,90.50847457627118,25.30718954248366,91.52542372881355,25.26916221033868C92.54237288135593,25.231134878193703,93.55932203389831,25.250148544266192,94.57627118644069,25.212121212121215C95.59322033898306,25.174093879976237,96.61016949152543,24.63220439691028,97.62711864406779,24.327985739750446C98.64406779661016,24.023767082590613,99.66101694915254,23.70291146761735,100.6779661016949,23.386809269162214C101.69491525423729,23.070707070707073,102.71186440677965,22.431372549019606,103.72881355932203,22.431372549019606C104.7457627118644,22.431372549019606,105.76271186440678,23.158645276292336,106.77966101694915,23.158645276292336C107.79661016949153,23.158645276292336,108.8135593220339,22.688057040998224,109.83050847457628,22.33155080213904C110.84745762711864,21.975044563279862,111.86440677966102,21.454545454545453,112.88135593220339,21.019607843137255C113.89830508474576,20.584670231729056,114.91525423728814,19.95959595959596,115.9322033898305,19.72192513368984C116.94915254237289,19.484254307783722,117.96610169491525,19.56268568033274,118.98305084745763,19.36541889483066C120,19.16815210932858,121.01694915254237,18.863933452168745,122.03389830508473,18.538324420677363C123.05084745762711,18.212715389185977,124.0677966101695,17.79679144385027,125.08474576271188,17.411764705882355C126.10169491525424,17.026737967914443,127.11864406779662,16.758169934640527,128.135593220339,16.228163992869877C129.15254237288136,15.698158051099231,130.16949152542372,14.764111705288178,131.1864406779661,14.23172905525847C132.20338983050846,13.699346405228756,133.22033898305085,13.675579322638145,134.23728813559322,13.03386809269162C135.25423728813558,12.392156862745095,136.27118644067798,11.144385026737966,137.28813559322035,10.381461675579322C138.3050847457627,9.618538324420678,139.3220338983051,9.014854426619134,140.33898305084747,8.456327985739751C141.35593220338984,7.897801544860373,142.3728813559322,7.614973262032083,143.38983050847457,7.030303030303031C144.40677966101694,6.445632798573974,145.42372881355934,4.948306595365417,146.4406779661017,4.948306595365417C147.45762711864407,4.948306595365417,148.47457627118644,6.374331550802137,149.4915254237288,6.374331550802137C150.50847457627117,6.374331550802137,151.52542372881356,5.86096256684492,152.54237288135593,5.7754010695187175C153.5593220338983,5.689839572192515,154.5762711864407,5.647058823529414,155.59322033898306,5.647058823529414C156.61016949152543,5.647058823529414,157.6271186440678,6.027332144979203,158.64406779661016,6.203208556149731C159.66101694915253,6.37908496732026,160.67796610169492,6.433749257278671,161.6949152542373,6.702317290552586C162.71186440677965,6.970885323826502,163.72881355932205,7.367795603089716,164.74576271186442,7.8146167557932245C165.76271186440678,8.26143790849673,166.77966101694915,9.38324420677362,167.79661016949152,9.38324420677362C168.81355932203388,9.38324420677362,169.83050847457628,7.24420677361854,170.84745762711864,7.24420677361854C171.864406779661,7.24420677361854,172.8813559322034,8.23767082590612,173.89830508474577,8.655971479500892C174.91525423728814,9.074272133095663,175.93220338983053,9.25252525252525,176.9491525423729,9.754010695187167C177.96610169491527,10.255496137849079,178.98305084745763,10.960190136660724,180,11.66488413547237L180,40C178.98305084745763,40,177.96610169491527,40,176.9491525423729,40C175.93220338983053,40,174.91525423728814,40,173.89830508474577,40C172.8813559322034,40,171.864406779661,40,170.84745762711864,40C169.83050847457628,40,168.81355932203388,40,167.79661016949152,40C166.77966101694915,40,165.76271186440678,40,164.74576271186442,40C163.72881355932205,40,162.71186440677965,40,161.6949152542373,40C160.67796610169492,40,159.66101694915253,40,158.64406779661016,40C157.6271186440678,40,156.61016949152543,40,155.59322033898306,40C154.5762711864407,40,153.5593220338983,40,152.54237288135593,40C151.52542372881356,40,150.50847457627117,40,149.4915254237288,40C148.47457627118644,40,147.45762711864407,40,146.4406779661017,40C145.42372881355934,40,144.40677966101694,40,143.38983050847457,40C142.3728813559322,40,141.35593220338984,40,140.33898305084747,40C139.3220338983051,40,138.3050847457627,40,137.28813559322035,40C136.27118644067798,40,135.25423728813558,40,134.23728813559322,40C133.22033898305085,40,132.20338983050846,40,131.1864406779661,40C130.16949152542372,40,129.15254237288136,40,128.135593220339,40C127.11864406779662,40,126.10169491525424,40,125.08474576271188,40C124.0677966101695,40,123.05084745762711,40,122.03389830508473,40C121.01694915254237,40,120,40,118.98305084745763,40C117.96610169491525,40,116.94915254237289,40,115.9322033898305,40C114.91525423728814,40,113.89830508474576,40,112.88135593220339,40C111.86440677966102,40,110.84745762711864,40,109.83050847457628,40C108.8135593220339,40,107.79661016949153,40,106.77966101694915,40C105.76271186440678,40,104.7457627118644,40,103.72881355932203,40C102.71186440677965,40,101.69491525423729,40,100.6779661016949,40C99.66101694915254,40,98.64406779661016,40,97.62711864406779,40C96.61016949152543,40,95.59322033898306,40,94.57627118644069,40C93.55932203389831,40,92.54237288135593,40,91.52542372881355,40C90.50847457627118,40,89.49152542372882,40,88.47457627118645,40C87.45762711864407,40,86.4406779661017,40,85.42372881355932,40C84.40677966101696,40,83.38983050847457,40,82.37288135593221,40C81.35593220338983,40,80.33898305084746,40,79.32203389830508,40C78.30508474576271,40,77.28813559322033,40,76.27118644067797,40C75.2542372881356,40,74.23728813559322,40,73.22033898305085,40C72.20338983050848,40,71.1864406779661,40,70.16949152542374,40C69.15254237288136,40,68.13559322033899,40,67.11864406779661,40C66.10169491525424,40,65.08474576271186,40,64.0677966101695,40C63.05084745762712,40,62.03389830508474,40,61.01694915254237,40C59.99999999999999,40,58.983050847457626,40,57.96610169491525,40C56.94915254237288,40,55.93220338983051,40,54.91525423728814,40C53.898305084745765,40,52.88135593220339,40,51.86440677966102,40C50.847457627118644,40,49.83050847457627,40,48.813559322033896,40C47.79661016949152,40,46.77966101694915,40,45.762711864406775,40C44.7457627118644,40,43.728813559322035,40,42.71186440677966,40C41.69491525423729,40,40.67796610169491,40,39.66101694915254,40C38.644067796610166,40,37.6271186440678,40,36.610169491525426,40C35.59322033898305,40,34.57627118644068,40,33.559322033898304,40C32.54237288135593,40,31.525423728813557,40,30.508474576271183,40C29.491525423728813,40,28.47457627118644,40,27.45762711864407,40C26.440677966101696,40,25.423728813559322,40,24.406779661016948,40C23.389830508474574,40,22.372881355932204,40,21.35593220338983,40C20.338983050847457,40,19.322033898305087,40,18.305084745762713,40C17.28813559322034,40,16.271186440677965,40,15.254237288135592,40C14.23728813559322,40,13.220338983050846,40,12.203389830508474,40C11.186440677966102,40,10.169491525423728,40,9.152542372881356,40C8.135593220338983,40,7.11864406779661,40,6.101694915254237,40C5.084745762711864,40,4.067796610169491,40,3.0508474576271185,40C2.0338983050847457,40,1.0169491525423728,40,0,40Z"></path><path class="line" stroke="black" fill="none" d="M0,23.229946524064175C1.0169491525423728,23.68389780154486,2.0338983050847457,24.13784907902554,3.0508474576271185,24.270944741532972C4.067796610169491,24.404040404040405,5.084745762711864,24.39691027926322,6.101694915254237,24.47058823529412C7.11864406779661,24.54426619132502,8.135593220338983,24.5513963161022,9.152542372881356,24.713012477718358C10.169491525423728,24.874628639334517,11.186440677966102,25.69459298871064,12.203389830508474,26.238859180035654C13.220338983050846,26.78312537136067,14.23728813559322,27.34878193701723,15.254237288135592,27.978609625668447C16.271186440677965,28.608437314319666,17.28813559322034,29.34284016636958,18.305084745762713,30.01782531194296C19.322033898305087,30.69281045751634,20.338983050847457,31.386809269162214,21.35593220338983,32.02852049910874C22.372881355932204,32.67023172905526,23.389830508474574,33.30956625074272,24.406779661016948,33.8680926916221C25.423728813559322,34.426619132501486,26.440677966101696,35.013666072489606,27.45762711864407,35.37967914438503C28.47457627118644,35.74569221628045,29.491525423728813,35.71004159239453,30.508474576271183,36.06417112299465C31.525423728813557,36.41830065359477,32.54237288135593,36.988710635769465,33.559322033898304,37.50445632798574C34.57627118644068,38.02020202020202,35.59322033898305,38.780748663101605,36.610169491525426,39.15864527629233C37.6271186440678,39.53654188948306,38.644067796610166,39.771836007130126,39.66101694915254,39.771836007130126C40.67796610169491,39.771836007130126,41.69491525423729,39.72905525846703,42.71186440677966,39.72905525846703C43.728813559322035,39.72905525846703,44.7457627118644,39.826500297088536,45.762711864406775,39.8716577540107C46.77966101694915,39.91681521093286,47.79661016949152,40,48.813559322033896,40C49.83050847457627,40,50.847457627118644,39.91919191919192,51.86440677966102,39.75757575757576C52.88135593220339,39.5959595959596,53.898305084745765,39.03267973856209,54.91525423728814,38.60249554367201C55.93220338983051,38.17231134878194,56.94915254237288,37.644682115270356,57.96610169491525,37.1764705882353C58.983050847457626,36.70825906120024,59.99999999999999,36.163992869875216,61.01694915254237,35.79322638146167C62.03389830508474,35.42245989304812,63.05084745762712,35.32501485442662,64.0677966101695,34.95187165775401C65.08474576271186,34.578728461081404,66.10169491525424,34.022578728461085,67.11864406779661,33.554367201426025C68.13559322033899,33.086155674390966,69.15254237288136,32.63458110516934,70.16949152542374,32.14260249554367C71.1864406779661,31.650623885918,72.20338983050848,31.049316696375524,73.22033898305085,30.602495543672017C74.23728813559322,30.15567439096851,75.2542372881356,29.74925727866904,76.27118644067797,29.461675579322637C77.28813559322033,29.174093879976233,78.30508474576271,29.081402257872845,79.32203389830508,28.87700534759358C80.33898305084746,28.672608437314317,81.35593220338983,28.625074272133098,82.37288135593221,28.235294117647058C83.38983050847457,27.84551396316102,84.40677966101696,26.842543077837192,85.42372881355932,26.538324420677363C86.4406779661017,26.23410576351753,87.45762711864407,26.293523469994064,88.47457627118645,26.081996434937615C89.49152542372882,25.87046939988117,90.50847457627118,25.30718954248366,91.52542372881355,25.26916221033868C92.54237288135593,25.231134878193703,93.55932203389831,25.250148544266192,94.57627118644069,25.212121212121215C95.59322033898306,25.174093879976237,96.61016949152543,24.63220439691028,97.62711864406779,24.327985739750446C98.64406779661016,24.023767082590613,99.66101694915254,23.70291146761735,100.6779661016949,23.386809269162214C101.69491525423729,23.070707070707073,102.71186440677965,22.431372549019606,103.72881355932203,22.431372549019606C104.7457627118644,22.431372549019606,105.76271186440678,23.158645276292336,106.77966101694915,23.158645276292336C107.79661016949153,23.158645276292336,108.8135593220339,22.688057040998224,109.83050847457628,22.33155080213904C110.84745762711864,21.975044563279862,111.86440677966102,21.454545454545453,112.88135593220339,21.019607843137255C113.89830508474576,20.584670231729056,114.91525423728814,19.95959595959596,115.9322033898305,19.72192513368984C116.94915254237289,19.484254307783722,117.96610169491525,19.56268568033274,118.98305084745763,19.36541889483066C120,19.16815210932858,121.01694915254237,18.863933452168745,122.03389830508473,18.538324420677363C123.05084745762711,18.212715389185977,124.0677966101695,17.79679144385027,125.08474576271188,17.411764705882355C126.10169491525424,17.026737967914443,127.11864406779662,16.758169934640527,128.135593220339,16.228163992869877C129.15254237288136,15.698158051099231,130.16949152542372,14.764111705288178,131.1864406779661,14.23172905525847C132.20338983050846,13.699346405228756,133.22033898305085,13.675579322638145,134.23728813559322,13.03386809269162C135.25423728813558,12.392156862745095,136.27118644067798,11.144385026737966,137.28813559322035,10.381461675579322C138.3050847457627,9.618538324420678,139.3220338983051,9.014854426619134,140.33898305084747,8.456327985739751C141.35593220338984,7.897801544860373,142.3728813559322,7.614973262032083,143.38983050847457,7.030303030303031C144.40677966101694,6.445632798573974,145.42372881355934,4.948306595365417,146.4406779661017,4.948306595365417C147.45762711864407,4.948306595365417,148.47457627118644,6.374331550802137,149.4915254237288,6.374331550802137C150.50847457627117,6.374331550802137,151.52542372881356,5.86096256684492,152.54237288135593,5.7754010695187175C153.5593220338983,5.689839572192515,154.5762711864407,5.647058823529414,155.59322033898306,5.647058823529414C156.61016949152543,5.647058823529414,157.6271186440678,6.027332144979203,158.64406779661016,6.203208556149731C159.66101694915253,6.37908496732026,160.67796610169492,6.433749257278671,161.6949152542373,6.702317290552586C162.71186440677965,6.970885323826502,163.72881355932205,7.367795603089716,164.74576271186442,7.8146167557932245C165.76271186440678,8.26143790849673,166.77966101694915,9.38324420677362,167.79661016949152,9.38324420677362C168.81355932203388,9.38324420677362,169.83050847457628,7.24420677361854,170.84745762711864,7.24420677361854C171.864406779661,7.24420677361854,172.8813559322034,8.23767082590612,173.89830508474577,8.655971479500892C174.91525423728814,9.074272133095663,175.93220338983053,9.25252525252525,176.9491525423729,9.754010695187167C177.96610169491527,10.255496137849079,178.98305084745763,10.960190136660724,180,11.66488413547237"></path><path class="axis-ceiling" stroke-width="1" stroke="black" fill="none" d="M175,0L180,0"></path><text class="axis-ceiling-label" font-family="sans-serif" text-anchor="end" font-size="10px" x="170" y="2.5">2000</text></g></svg>