<svg xmlns="http://www.w3.org/2000/svg" viewBox="0 0 180 60"><g transform="translate(0,20)"><path class="area" fill="rgba(0, 0, 0, 0.2)" d="M0,32.896C1.0169491525423728,32.95066666666667,2.0338983050847457,33.00533333333334,3.0508474576271185,33.040000000000006C4.067796610169491,33.07466666666667,5.084745762711864,33.088,6.101694915254237,33.104C7.11864406779661,33.12,8.135593220338983,33.136,9.152542372881356,33.136C10.169491525423728,33.136,11.186440677966102,33.111999999999995,12.203389830508474,33.087999999999994C13.220338983050846,33.06399999999999,14.23728813559322,33.026666666666664,15.254237288135592,32.992C16.271186440677965,32.95733333333333,17.28813559322034,32.93333333333334,18.305084745762713,32.88C19.322033898305087,32.82666666666667,20.338983050847457,32.754666666666665,21.35593220338983,32.672C22.372881355932204,32.58933333333333,23.389830508474574,32.474666666666664,24.406779661016948,32.384C25.423728813559322,32.29333333333334,26.440677966101696,32.218666666666664,27.45762711864407,32.128C28.47457627118644,32.037333333333336,29.491525423728813,31.933333333333337,30.508474576271183,31.840000000000003C31.525423728813557,31.74666666666667,32.54237288135593,31.65866666666667,33.559322033898304,31.568C34.57627118644068,31.477333333333334,35.59322033898305,31.378666666666668,36.610169491525426,31.296C37.6271186440678,31.21333333333333,38.644067796610166,31.151999999999994,39.66101694915254,31.071999999999996C40.67796610169491,30.991999999999994,41.69491525423729,30.89333333333333,42.71186440677966,30.816C43.728813559322035,30.738666666666667,44.7457627118644,30.682666666666666,45.762711864406775,30.608C46.77966101694915,30.533333333333335,47.79661016949152,30.442666666666664,48.813559322033896,30.368C49.83050847457627,30.293333333333333,50.847457627118644,30.224,51.86440677966102,30.16C52.88135593220339,30.096,53.898305084745765,30.040000000000003,54.91525423728814,29.984C55.93220338983051,29.928,56.94915254237288,29.888,57.96610169491525,29.824C58.983050847457626,29.76,59.99999999999999,29.682666666666666,61.01694915254237,29.6C62.03389830508474,29.517333333333333,63.05084745762712,29.41066666666667,64.0677966101695,29.328000000000003C65.08474576271186,29.245333333333335,66.10169491525424,29.178666666666665,67.11864406779661,29.104C68.13559322033899,29.02933333333333,69.15254237288136,28.951999999999998,70.16949152542374,28.88C71.1864406779661,28.808,72.20338983050848,28.730666666666668,73.22033898305085,28.672C74.23728813559322,28.613333333333333,75.2542372881356,28.54933333333334,76.27118644067797,28.528000000000002C77.28813559322033,28.506666666666664,78.30508474576271,28.50666666666666,79.32203389830508,28.495999999999995C80.33898305084746,28.485333333333326,81.35593220338983,28.464,82.37288135593221,28.464C83.38983050847457,28.464,84.40677966101696,28.535999999999998,85.42372881355932,28.575999999999997C86.4406779661017,28.615999999999996,87.45762711864407,28.64,88.47457627118645,28.704C89.49152542372882,28.768,90.50847457627118,28.877333333333336,91.52542372881355,28.96C92.54237288135593,29.04266666666667,93.55932203389831,29.141333333333332,94.57627118644069,29.2C95.59322033898306,29.258666666666667,96.61016949152543,29.290666666666667,97.62711864406779,29.312C98.64406779661016,29.333333333333336,99.66101694915254,29.32266666666667,100.6779661016949,29.344C101.69491525423729,29.365333333333332,102.71186440677965,29.439999999999998,103.72881355932203,29.439999999999998C104.7457627118644,29.439999999999998,105.76271186440678,29.375999999999998,106.77966101694915,29.375999999999998C107.79661016949153,29.375999999999998,108.8135593220339,29.375999999999998,109.83050847457628,29.375999999999998C110.84745762711864,29.375999999999998,111.86440677966102,29.354666666666667,112.88135593220339,29.312C113.89830508474576,29.269333333333336,114.91525423728814,29.088,115.9322033898305,29.088C116.94915254237289,29.088,117.96610169491525,29.232,118.98305084745763,29.232C120,29.232,121.01694915254237,29.226666666666667,122.03389830508473,29.215999999999998C123.05084745762711,29.20533333333333,124.0677966101695,29.128,125.08474576271188,29.088C126.10169491525424,29.048000000000002,127.11864406779662,29.050666666666668,128.135593220339,28.976C129.15254237288136,28.90133333333333,130.16949152542372,28.706666666666667,131.1864406779661,28.528000000000002C132.20338983050846,28.349333333333334,133.22033898305085,28.122666666666667,134.23728813559322,27.904C135.25423728813558,27.685333333333332,136.27118644067798,27.528,137.28813559322035,27.216C138.3050847457627,26.904000000000003,139.3220338983051,26.42933333333334,140.33898305084747,26.032000000000004C141.35593220338984,25.63466666666667,142.3728813559322,25.250666666666664,143.38983050847457,24.832C144.40677966101694,24.41333333333333,145.42372881355934,23.968000000000007,146.4406779661017,23.520000000000003C147.45762711864407,23.072000000000006,148.47457627118644,22.592,149.4915254237288,22.144C150.50847457627117,21.695999999999994,151.52542372881356,21.255999999999997,152.54237288135593,20.831999999999997C153.5593220338983,20.407999999999998,154.5762711864407,20.008000000000003,155.59322033898306,19.6C156.61016949152543,19.192000000000004,157.6271186440678,18.778666666666666,158.64406779661016,18.384C159.66101694915253,17.98933333333333,160.67796610169492,17.59733333333333,161.6949152542373,17.232C162.71186440677965,16.866666666666667,163.72881355932205,16.57866666666667,164.74576271186442,16.192C165.76271186440678,15.805333333333335,166.77966101694915,15.437333333333331,167.79661016949152,14.912C168.81355932203388,14.386666666666665,169.83050847457628,13.730666666666666,170.84745762711864,13.04C171.864406779661,12.349333333333332,172.8813559322034,11.589333333333334,173.89830508474577,10.768C174.91525423728814,9.946666666666667,175.93220338983053,9.176000000000005,176.9491525423729,8.111999999999998C177.96610169491527,7.048000000000002,178.98305084745763,5.716000000000001,180,4.384000000000001L180,40C178.98305084745763,40,177.96610169491527,40,176.9491525423729,40C175.93220338983053,40,174.91525423728814,40,173.89830508474577,40C172.8813559322034,40,171.864406779661,40,170.84745762711864,40C169.83050847457628,40,168.81355932203388,40,167.79661016949152,40C166.77966101694915,40,165.76271186440678,40,164.74576271186442,40C163.72881355932205,40,162.71186440677965,40,161.6949152542373,40C160.67796610169492,40,159.66101694915253,40,158.64406779661016,40C157.6271186440678,40,156.61016949152543,40,155.59322033898306,40C154.5762711864407,40,153.5593220338983,40,152.54237288135593,40C151.52542372881356,40,150.50847457627117,40,149.4915254237288,40C148.47457627118644,40,147.45762711864407,40,146.4406779661017,40C145.42372881355934,40,144.40677966101694,40,143.38983050847457,40C142.3728813559322,40,141.35593220338984,40,140.33898305084747,40C139.3220338983051,40,138.3050847457627,40,137.28813559322035,40C136.27118644067798,40,135.25423728813558,40,134.23728813559322,40C133.22033898305085,40,132.20338983050846,40,131.1864406779661,40C130.16949152542372,40,129.15254237288136,40,128.135593220339,40C127.11864406779662,40,126.10169491525424,40,125.08474576271188,40C124.0677966101695,40,123.05084745762711,40,122.03389830508473,40C121.01694915254237,40,120,40,118.98305084745763,40C117.96610169491525,40,116.94915254237289,40,115.9322033898305,40C114.91525423728814,40,113.89830508474576,40,112.88135593220339,40C111.86440677966102,40,110.84745762711864,40,109.83050847457628,40C108.8135593220339,40,107.79661016949153,40,106.77966101694915,40C105.76271186440678,40,104.7457627118644,40,103.72881355932203,40C102.71186440677965,40,101.69491525423729,40,100.6779661016949,40C99.66101694915254,40,98.64406779661016,40,97.62711864406779,40C96.61016949152543,40,95.59322033898306,40,94.57627118644069,40C93.55932203389831,40,92.54237288135593,40,91.52542372881355,40C90.50847457627118,40,89.49152542372882,40,88.47457627118645,40C87.45762711864407,40,86.4406779661017,40,85.42372881355932,40C84.40677966101696,40,83.38983050847457,40,82.37288135593221,40C81.35593220338983,40,80.33898305084746,40,79.32203389830508,40C78.30508474576271,40,77.28813559322033,40,76.27118644067797,40C75.2542372881356,40,74.23728813559322,40,73.22033898305085,40C72.20338983050848,40,71.1864406779661,40,70.16949152542374,40C69.15254237288136,40,68.13559322033899,40,67.11864406779661,40C66.10169491525424,40,65.08474576271186,40,64.0677966101695,40C63.05084745762712,40,62.03389830508474,40,61.01694915254237,40C59.99999999999999,40,58.983050847457626,40,57.96610169491525,40C56.94915254237288,40,55.93220338983051,40,54.91525423728814,40C53.898305084745765,40,52.88135593220339,40,51.86440677966102,40C50.847457627118644,40,49.83050847457627,40,48.813559322033896,40C47.79661016949152,40,46.77966101694915,40,45.762711864406775,40C44.7457627118644,40,43.728813559322035,40,42.71186440677966,40C41.69491525423729,40,40.67796610169491,40,39.66101694915254,40C38.644067796610166,40,37.6271186440678,40,36.610169491525426,40C35.59322033898305,40,34.57627118644068,40,33.559322033898304,40C32.54237288135593,40,31.525423728813557,40,30.508474576271183,40C29.491525423728813,40,28.47457627118644,40,27.45762711864407,40C26.440677966101696,40,25.423728813559322,40,24.406779661016948,40C23.389830508474574,40,22.372881355932204,40,21.35593220338983,40C20.338983050847457,40,19.322033898305087,40,18.305084745762713,40C17.28813559322034,40,16.271186440677965,40,15.254237288135592,40C14.23728813559322,40,13.220338983050846,40,12.203389830508474,40C11.186440677966102,40,10.169491525423728,40,9.152542372881356,40C8.135593220338983,40,7.11864406779661,40,6.101694915254237,40C5.084745762711864,40,4.067796610169491,40,3.0508474576271185,40C2.0338983050847457,40,1.0169491525423728,40,0,40Z"></path><path class="line" stroke="black" fill="none" d="M0,32.896C1.0169491525423728,32.95066666666667,2.0338983050847457,33.00533333333334,3.0508474576271185,33.040000000000006C4.067796610169491,33.07466666666667,5.084745762711864,33.088,6.101694915254237,33.104C7.11864406779661,33.12,8.135593220338983,33.136,9.152542372881356,33.136C10.169491525423728,33.136,11.186440677966102,33.111999999999995,12.203389830508474,33.087999999999994C13.220338983050846,33.06399999999999,14.23728813559322,33.026666666666664,15.254237288135592,32.992C16.271186440677965,32.95733333333333,17.28813559322034,32.93333333333334,18.305084745762713,32.88C19.322033898305087,32.82666666666667,20.338983050847457,32.754666666666665,21.35593220338983,32.672C22.372881355932204,32.58933333333333,23.389830508474574,32.474666666666664,24.406779661016948,32.384C25.423728813559322,32.29333333333334,26.440677966101696,32.218666666666664,27.45762711864407,32.128C28.47457627118644,32.037333333333336,29.491525423728813,31.933333333333337,30.508474576271183,31.840000000000003C31.525423728813557,31.74666666666667,32.54237288135593,31.65866666666667,33.559322033898304,31.568C34.57627118644068,31.477333333333334,35.59322033898305,31.378666666666668,36.610169491525426,31.296C37.6271186440678,31.21333333333333,38.644067796610166,31.151999999999994,39.66101694915254,31.071999999999996C40.67796610169491,30.991999999999994,41.69491525423729,30.89333333333333,42.71186440677966,30.816C43.728813559322035,30.738666666666667,44.7457627118644,30.682666666666666,45.762711864406775,30.608C46.77966101694915,30.533333333333335,47.79661016949152,30.442666666666664,48.813559322033896,30.368C49.83050847457627,30.293333333333333,50.847457627118644,30.224,51.86440677966102,30.16C52.88135593220339,30.096,53.898305084745765,30.040000000000003,54.91525423728814,29.984C55.93220338983051,29.928,56.94915254237288,29.888,57.96610169491525,29.824C58.983050847457626,29.76,59.99999999999999,29.682666666666666,61.01694915254237,29.6C62.03389830508474,29.517333333333333,63.05084745762712,29.41066666666667,64.0677966101695,29.328000000000003C65.08474576271186,29.245333333333335,66.10169491525424,29.178666666666665,67.11864406779661,29.104C68.13559322033899,29.02933333333333,69.15254237288136,28.951999999999998,70.16949152542374,28.88C71.1864406779661,28.808,72.20338983050848,28.730666666666668,73.22033898305085,28.672C74.23728813559322,28.613333333333333,75.2542372881356,28.54933333333334,76.27118644067797,28.528000000000002C77.28813559322033,28.506666666666664,78.30508474576271,28.50666666666666,79.32203389830508,28.495999999999995C80.33898305084746,28.485333333333326,81.35593220338983,28.464,82.37288135593221,28.464C83.38983050847457,28.464,84.40677966101696,28.535999999999998,85.42372881355932,28.575999999999997C86.4406779661017,28.615999999999996,87.45762711864407,28.64,88.47457627118645,28.704C89.49152542372882,28.768,90.50847457627118,28.877333333333336,91.52542372881355,28.96C92.54237288135593,29.04266666666667,93.55932203389831,29.141333333333332,94.57627118644069,29.2C95.59322033898306,29.258666666666667,96.61016949152543,29.290666666666667,97.62711864406779,29.312C98.64406779661016,29.333333333333336,99.66101694915254,29.32266666666667,100.6779661016949,29.344C101.69491525423729,29.365333333333332,102.71186440677965,29.439999999999998,103.72881355932203,29.439999999999998C104.7457627118644,29.439999999999998,105.76271186440678,29.375999999999998,106.77966101694915,29.375999999999998C107.79661016949153,29.375999999999998,108.8135593220339,29.375999999999998,109.83050847457628,29.375999999999998C110.84745762711864,29.375999999999998,111.86440677966102,29.354666666666667,112.88135593220339,29.312C113.89830508474576,29.269333333333336,114.91525423728814,29.088,115.9322033898305,29.088C116.94915254237289,29.088,117.96610169491525,29.232,118.98305084745763,29.232C120,29.232,121.01694915254237,29.226666666666667,122.03389830508473,29.215999999999998C123.05084745762711,29.20533333333333,124.0677966101695,29.128,125.08474576271188,29.088C126.10169491525424,29.048000000000002,127.11864406779662,29.050666666666668,128.135593220339,28.976C129.15254237288136,28.90133333333333,130.16949152542372,28.706666666666667,131.1864406779661,28.528000000000002C132.20338983050846,28.349333333333334,133.22033898305085,28.122666666666667,134.23728813559322,27.904C135.25423728813558,27.685333333333332,136.27118644067798,27.528,137.28813559322035,27.216C138.3050847457627,26.904000000000003,139.3220338983051,26.42933333333334,140.33898305084747,26.032000000000004C141.35593220338984,25.63466666666667,142.3728813559322,25.250666666666664,143.38983050847457,24.832C144.40677966101694,24.41333333333333,145.42372881355934,23.968000000000007,146.4406779661017,23.520000000000003C147.45762711864407,23.072000000000006,148.47457627118644,22.592,149.4915254237288,22.144C150.50847457627117,21.695999999999994,151.52542372881356,21.255999999999997,152.54237288135593,20.831999999999997C153.5593220338983,20.407999999999998,154.5762711864407,20.008000000000003,155.59322033898306,19.6C156.61016949152543,19.192000000000004,157.6271186440678,18.778666666666666,158.64406779661016,18.384C159.66101694915253,17.98933333333333,160.67796610169492,17.59733333333333,161.6949152542373,17.232C162.71186440677965,16.866666666666667,163.72881355932205,16.57866666666667,164.74576271186442,16.192C165.76271186440678,15.805333333333335,166.77966101694915,15.437333333333331,167.79661016949152,14.912C168.81355932203388,14.386666666666665,169.83050847457628,13.730666666666666,170.84745762711864,13.04C171.864406779661,12.349333333333332,172.8813559322034,11.589333333333334,173.89830508474577,10.768C174.91525423728814,9.946666666666667,175.93220338983053,9.176000000000005,176.9491525423729,8.111999999999998C177.96610169491527,7.048000000000002,178.98305084745763,5.716000000000001,180,4.384000000000001"></path><path class="axis-ceiling" stroke-width="1" stroke="black" fill="none" d="M175,0L180,0"></path><text class="axis-ceiling-label" font-family="sans-serif" text-anchor="end" font-size="10px" x="170" y="2.5">2500</text></g></svg>