<svg xmlns="http://www.w3.org/2000/svg" viewBox="0 0 180 60"><g transform="translate(0,20)"><path class="area" fill="rgba(0, 0, 0, 0.2)" d="M0,14.468085106382977C1.0169491525423728,15.319148936170212,2.0338983050847457,16.170212765957448,3.0508474576271185,16.170212765957448C4.067796610169491,16.170212765957448,5.084745762711864,15.319148936170212,6.101694915254237,15.319148936170212C7.11864406779661,15.319148936170212,8.135593220338983,19.71631205673759,9.152542372881356,21.27659574468085C10.169491525423728,22.836879432624112,11.186440677966102,23.54609929078014,12.203389830508474,24.680851063829788C13.220338983050846,25.815602836879435,14.23728813559322,27.5177304964539,15.254237288135592,28.085106382978722C16.271186440677965,28.652482269503544,17.28813559322034,28.652482269503544,18.305084745762713,28.936170212765955C19.322033898305087,29.219858156028366,20.338983050847457,29.21985815602837,21.35593220338983,29.787234042553195C22.372881355932204,30.35460992907802,23.389830508474574,34.8936170212766,24.406779661016948,36.59574468085106C25.423728813559322,38.297872340425535,26.440677966101696,40,27.45762711864407,40C28.47457627118644,40,29.491525423728813,38.01418439716312,30.508474576271183,37.4468085106383C31.525423728813557,36.87943262411348,32.54237288135593,36.59574468085106,33.559322033898304,36.59574468085106C34.57627118644068,36.59574468085106,35.59322033898305,37.163120567375884,36.610169491525426,37.4468085106383C37.6271186440678,37.73049645390071,38.644067796610166,38.297872340425535,39.66101694915254,38.297872340425535C40.67796610169491,38.297872340425535,41.69491525423729,36.59574468085106,42.71186440677966,36.59574468085106C43.728813559322035,36.59574468085106,44.7457627118644,36.59574468085106,45.762711864406775,36.59574468085106C46.77966101694915,36.59574468085106,47.79661016949152,34.32624113475177,48.813559322033896,33.191489361702125C49.83050847457627,32.05673758865248,50.847457627118644,30.638297872340427,51.86440677966102,29.787234042553195C52.88135593220339,28.936170212765962,53.898305084745765,29.078014184397166,54.91525423728814,28.085106382978722C55.93220338983051,27.092198581560282,56.94915254237288,25.106382978723403,57.96610169491525,23.829787234042552C58.983050847457626,22.5531914893617,59.99999999999999,20.992907801418436,61.01694915254237,20.425531914893618C62.03389830508474,19.858156028368796,63.05084745762712,20.141843971631207,64.0677966101695,19.574468085106385C65.08474576271186,19.007092198581567,66.10169491525424,15.886524822695032,67.11864406779661,14.468085106382977C68.13559322033899,13.049645390070916,69.15254237288136,11.063829787234042,70.16949152542374,11.063829787234042C71.1864406779661,11.063829787234042,72.20338983050848,11.914893617021276,73.22033898305085,11.914893617021276C74.23728813559322,11.914893617021276,75.2542372881356,10.212765957446809,76.27118644067797,10.212765957446809C77.28813559322033,10.212765957446809,78.30508474576271,11.914893617021276,79.32203389830508,11.914893617021276C80.33898305084746,11.914893617021276,81.35593220338983,11.063829787234042,82.37288135593221,11.063829787234042C83.38983050847457,11.063829787234042,84.40677966101696,14.468085106382977,85.42372881355932,14.468085106382977C86.4406779661017,14.468085106382977,87.45762711864407,12.76595744680851,88.47457627118645,12.76595744680851C89.49152542372882,12.76595744680851,90.50847457627118,14.468085106382977,91.52542372881355,14.468085106382977C92.54237288135593,14.468085106382977,93.55932203389831,13.617021276595747,94.57627118644069,13.617021276595747C95.59322033898306,13.617021276595747,96.61016949152543,14.893617021276595,97.62711864406779,15.319148936170212C98.64406779661016,15.74468085106383,99.66101694915254,15.886524822695037,100.6779661016949,16.170212765957448C101.69491525423729,16.45390070921986,102.71186440677965,17.02127659574468,103.72881355932203,17.02127659574468C104.7457627118644,17.02127659574468,105.76271186440678,15.460992907801414,106.77966101694915,14.468085106382977C107.79661016949153,13.475177304964536,108.8135593220339,11.063829787234042,109.83050847457628,11.063829787234042C110.84745762711864,11.063829787234042,111.86440677966102,13.617021276595747,112.88135593220339,13.617021276595747C113.89830508474576,13.617021276595747,114.91525423728814,13.617021276595747,115.9322033898305,13.617021276595747C116.94915254237289,13.617021276595747,117.96610169491525,14.60992907801418,118.98305084745763,15.319148936170212C120,16.028368794326237,121.01694915254237,16.453900709219873,122.03389830508473,17.872340425531913C123.05084745762711,19.29078014184397,124.0677966101695,23.262411347517723,125.08474576271188,23.829787234042552C126.10169491525424,24.397163120567377,127.11864406779662,24.113475177304963,128.135593220339,24.680851063829788C129.15254237288136,25.24822695035461,130.16949152542372,32.340425531914896,131.1864406779661,32.340425531914896C132.20338983050846,32.340425531914896,133.22033898305085,32.340425531914896,134.23728813559322,32.340425531914896C135.25423728813558,32.340425531914896,136.27118644067798,40,137.28813559322035,40C138.3050847457627,40,139.3220338983051,39.716312056737586,140.33898305084747,39.148936170212764C141.35593220338984,38.58156028368794,142.3728813559322,33.47517730496453,143.38983050847457,31.48936170212766C144.40677966101694,29.503546099290766,145.42372881355934,27.23404255319149,146.4406779661017,27.23404255319149C147.45762711864407,27.23404255319149,148.47457627118644,30.638297872340424,149.4915254237288,30.638297872340424C150.50847457627117,30.638297872340424,151.52542372881356,22.127659574468087,152.54237288135593,22.127659574468087C153.5593220338983,22.127659574468087,154.5762711864407,26.382978723404253,155.59322033898306,26.382978723404253C156.61016949152543,26.382978723404253,157.6271186440678,24.113475177304952,158.64406779661016,22.127659574468087C159.66101694915253,20.141843971631204,160.67796610169492,14.468085106382977,161.6949152542373,14.468085106382977C162.71186440677965,14.468085106382977,163.72881355932205,33.191489361702125,164.74576271186442,33.191489361702125C165.76271186440678,33.191489361702125,166.77966101694915,26.95035460992907,167.79661016949152,24.680851063829788C168.81355932203388,22.411347517730484,169.83050847457628,19.574468085106385,170.84745762711864,19.574468085106385C171.864406779661,19.574468085106385,172.8813559322034,20.425531914893618,173.89830508474577,20.425531914893618C174.91525423728814,20.425531914893618,175.93220338983053,1.702127659574466,176.9491525423729,1.702127659574466C177.96610169491527,1.702127659574466,178.98305084745763,2.1276595744680837,180,2.5531914893617014L180,40C178.98305084745763,40,177.96610169491527,40,176.9491525423729,40C175.93220338983053,40,174.91525423728814,40,173.89830508474577,40C172.8813559322034,40,171.864406779661,40,170.84745762711864,40C169.83050847457628,40,168.81355932203388,40,167.79661016949152,40C166.77966101694915,40,165.76271186440678,40,164.74576271186442,40C163.72881355932205,40,162.71186440677965,40,161.6949152542373,40C160.67796610169492,40,159.66101694915253,40,158.64406779661016,40C157.6271186440678,40,156.61016949152543,40,155.59322033898306,40C154.5762711864407,40,153.5593220338983,40,152.54237288135593,40C151.52542372881356,40,150.50847457627117,40,149.4915254237288,40C148.47457627118644,40,147.45762711864407,40,146.4406779661017,40C145.42372881355934,40,144.40677966101694,40,143.38983050847457,40C142.3728813559322,40,141.35593220338984,40,140.33898305084747,40C139.3220338983051,40,138.3050847457627,40,137.28813559322035,40C136.27118644067798,40,135.25423728813558,40,134.23728813559322,40C133.22033898305085,40,132.20338983050846,40,131.1864406779661,40C130.16949152542372,40,129.15254237288136,40,128.135593220339,40C127.11864406779662,40,126.10169491525424,40,125.08474576271188,40C124.0677966101695,40,123.05084745762711,40,122.03389830508473,40C121.01694915254237,40,120,40,118.98305084745763,40C117.96610169491525,40,116.94915254237289,40,115.9322033898305,40C114.91525423728814,40,113.89830508474576,40,112.88135593220339,40C111.86440677966102,40,110.84745762711864,40,109.83050847457628,40C108.8135593220339,40,107.79661016949153,40,106.77966101694915,40C105.76271186440678,40,104.7457627118644,40,103.72881355932203,40C102.71186440677965,40,101.69491525423729,40,100.6779661016949,40C99.66101694915254,40,98.64406779661016,40,97.62711864406779,40C96.61016949152543,40,95.59322033898306,40,94.57627118644069,40C93.55932203389831,40,92.54237288135593,40,91.52542372881355,40C90.50847457627118,40,89.49152542372882,40,88.47457627118645,40C87.45762711864407,40,86.4406779661017,40,85.42372881355932,40C84.40677966101696,40,83.38983050847457,40,82.37288135593221,40C81.35593220338983,40,80.33898305084746,40,79.32203389830508,40C78.30508474576271,40,77.28813559322033,40,76.27118644067797,40C75.2542372881356,40,74.23728813559322,40,73.22033898305085,40C72.20338983050848,40,71.1864406779661,40,70.16949152542374,40C69.15254237288136,40,68.13559322033899,40,67.11864406779661,40C66.10169491525424,40,65.08474576271186,40,64.0677966101695,40C63.05084745762712,40,62.03389830508474,40,61.01694915254237,40C59.99999999999999,40,58.983050847457626,40,57.96610169491525,40C56.94915254237288,40,55.93220338983051,40,54.91525423728814,40C53.898305084745765,40,52.88135593220339,40,51.86440677966102,40C50.847457627118644,40,49.83050847457627,40,48.813559322033896,40C47.79661016949152,40,46.77966101694915,40,45.762711864406775,40C44.7457627118644,40,43.728813559322035,40,42.71186440677966,40C41.69491525423729,40,40.67796610169491,40,39.66101694915254,40C38.644067796610166,40,37.6271186440678,40,36.610169491525426,40C35.59322033898305,40,34.57627118644068,40,33.559322033898304,40C32.54237288135593,40,31.525423728813557,40,30.508474576271183,40C29.491525423728813,40,28.47457627118644,40,27.45762711864407,40C26.440677966101696,40,25.423728813559322,40,24.406779661016948,40C23.389830508474574,40,22.372881355932204,40,21.35593220338983,40C20.338983050847457,40,19.322033898305087,40,18.305084745762713,40C17.28813559322034,40,16.271186440677965,40,15.254237288135592,40C14.23728813559322,40,13.220338983050846,40,12.203389830508474,40C11.186440677966102,40,10.169491525423728,40,9.152542372881356,40C8.135593220338983,40,7.11864406779661,40,6.101694915254237,40C5.084745762711864,40,4.067796610169491,40,3.0508474576271185,40C2.0338983050847457,40,1.0169491525423728,40,0,40Z"></path><path class="line" stroke="black" fill="none" d="M0,14.468085106382977C1.0169491525423728,15.319148936170212,2.0338983050847457,16.170212765957448,3.0508474576271185,16.170212765957448C4.067796610169491,16.170212765957448,5.084745762711864,15.319148936170212,6.101694915254237,15.319148936170212C7.11864406779661,15.319148936170212,8.135593220338983,19.71631205673759,9.152542372881356,21.27659574468085C10.169491525423728,22.836879432624112,11.186440677966102,23.54609929078014,12.203389830508474,24.680851063829788C13.220338983050846,25.815602836879435,14.23728813559322,27.5177304964539,15.254237288135592,28.085106382978722C16.271186440677965,28.652482269503544,17.28813559322034,28.652482269503544,18.305084745762713,28.936170212765955C19.322033898305087,29.219858156028366,20.338983050847457,29.21985815602837,21.35593220338983,29.787234042553195C22.372881355932204,30.35460992907802,23.389830508474574,34.8936170212766,24.406779661016948,36.59574468085106C25.423728813559322,38.297872340425535,26.440677966101696,40,27.45762711864407,40C28.47457627118644,40,29.491525423728813,38.01418439716312,30.508474576271183,37.4468085106383C31.525423728813557,36.87943262411348,32.54237288135593,36.59574468085106,33.559322033898304,36.59574468085106C34.57627118644068,36.59574468085106,35.59322033898305,37.163120567375884,36.610169491525426,37.4468085106383C37.6271186440678,37.73049645390071,38.644067796610166,38.297872340425535,39.66101694915254,38.297872340425535C40.67796610169491,38.297872340425535,41.69491525423729,36.59574468085106,42.71186440677966,36.59574468085106C43.728813559322035,36.59574468085106,44.7457627118644,36.59574468085106,45.762711864406775,36.59574468085106C46.77966101694915,36.59574468085106,47.79661016949152,34.32624113475177,48.813559322033896,33.191489361702125C49.83050847457627,32.05673758865248,50.847457627118644,30.638297872340427,51.86440677966102,29.787234042553195C52.88135593220339,28.936170212765962,53.898305084745765,29.078014184397166,54.91525423728814,28.085106382978722C55.93220338983051,27.092198581560282,56.94915254237288,25.106382978723403,57.96610169491525,23.829787234042552C58.983050847457626,22.5531914893617,59.99999999999999,20.992907801418436,61.01694915254237,20.425531914893618C62.03389830508474,19.858156028368796,63.05084745762712,20.141843971631207,64.0677966101695,19.574468085106385C65.08474576271186,19.007092198581567,66.10169491525424,15.886524822695032,67.11864406779661,14.468085106382977C68.13559322033899,13.049645390070916,69.15254237288136,11.063829787234042,70.16949152542374,11.063829787234042C71.1864406779661,11.063829787234042,72.20338983050848,11.914893617021276,73.22033898305085,11.914893617021276C74.23728813559322,11.914893617021276,75.2542372881356,10.212765957446809,76.27118644067797,10.212765957446809C77.28813559322033,10.212765957446809,78.30508474576271,11.914893617021276,79.32203389830508,11.914893617021276C80.33898305084746,11.914893617021276,81.35593220338983,11.063829787234042,82.37288135593221,11.063829787234042C83.38983050847457,11.063829787234042,84.40677966101696,14.468085106382977,85.42372881355932,14.468085106382977C86.4406779661017,14.468085106382977,87.45762711864407,12.76595744680851,88.47457627118645,12.76595744680851C89.49152542372882,12.76595744680851,90.50847457627118,14.468085106382977,91.52542372881355,14.468085106382977C92.54237288135593,14.468085106382977,93.55932203389831,13.617021276595747,94.57627118644069,13.617021276595747C95.59322033898306,13.617021276595747,96.61016949152543,14.893617021276595,97.62711864406779,15.319148936170212C98.64406779661016,15.74468085106383,99.66101694915254,15.886524822695037,100.6779661016949,16.170212765957448C101.69491525423729,16.45390070921986,102.71186440677965,17.02127659574468,103.72881355932203,17.02127659574468C104.7457627118644,17.02127659574468,105.76271186440678,15.460992907801414,106.77966101694915,14.468085106382977C107.79661016949153,13.475177304964536,108.8135593220339,11.063829787234042,109.83050847457628,11.063829787234042C110.84745762711864,11.063829787234042,111.86440677966102,13.617021276595747,112.88135593220339,13.617021276595747C113.89830508474576,13.617021276595747,114.91525423728814,13.617021276595747,115.9322033898305,13.617021276595747C116.94915254237289,13.617021276595747,117.96610169491525,14.60992907801418,118.98305084745763,15.319148936170212C120,16.028368794326237,121.01694915254237,16.453900709219873,122.03389830508473,17.872340425531913C123.05084745762711,19.29078014184397,124.0677966101695,23.262411347517723,125.08474576271188,23.829787234042552C126.10169491525424,24.397163120567377,127.11864406779662,24.113475177304963,128.135593220339,24.680851063829788C129.15254237288136,25.24822695035461,130.16949152542372,32.340425531914896,131.1864406779661,32.340425531914896C132.20338983050846,32.340425531914896,133.22033898305085,32.340425531914896,134.23728813559322,32.340425531914896C135.25423728813558,32.340425531914896,136.27118644067798,40,137.28813559322035,40C138.3050847457627,40,139.3220338983051,39.716312056737586,140.33898305084747,39.148936170212764C141.35593220338984,38.58156028368794,142.3728813559322,33.47517730496453,143.38983050847457,31.48936170212766C144.40677966101694,29.503546099290766,145.42372881355934,27.23404255319149,146.4406779661017,27.23404255319149C147.45762711864407,27.23404255319149,148.47457627118644,30.638297872340424,149.4915254237288,30.638297872340424C150.50847457627117,30.638297872340424,151.52542372881356,22.127659574468087,152.54237288135593,22.127659574468087C153.5593220338983,22.127659574468087,154.5762711864407,26.382978723404253,155.59322033898306,26.382978723404253C156.61016949152543,26.382978723404253,157.6271186440678,24.113475177304952,158.64406779661016,22.127659574468087C159.66101694915253,20.141843971631204,160.67796610169492,14.468085106382977,161.6949152542373,14.468085106382977C162.71186440677965,14.468085106382977,163.72881355932205,33.191489361702125,164.74576271186442,33.191489361702125C165.76271186440678,33.191489361702125,166.77966101694915,26.95035460992907,167.79661016949152,24.680851063829788C168.81355932203388,22.411347517730484,169.83050847457628,19.574468085106385,170.84745762711864,19.574468085106385C171.864406779661,19.574468085106385,172.8813559322034,20.425531914893618,173.89830508474577,20.425531914893618C174.91525423728814,20.425531914893618,175.93220338983053,1.702127659574466,176.9491525423729,1.702127659574466C177.96610169491527,1.702127659574466,178.98305084745763,2.1276595744680837,180,2.5531914893617014"></path><path class="axis-ceiling" stroke-width="1" stroke="black" fill="none" d="M175,0L180,0"></path><text class="axis-ceiling-label" font-family="sans-serif" text-anchor="end" font-size="10px" x="170" y="2.5">30</text></g></svg>