<svg xmlns="http://www.w3.org/2000/svg" viewBox="0 0 180 60"><g transform="translate(0,20)"><path class="area" fill="rgba(0, 0, 0, 0.2)" d="M0,22.915173237753883C1.0169491525423728,23.309438470728793,2.0338983050847457,23.703703703703702,3.0508474576271185,23.703703703703702C4.067796610169491,23.703703703703702,5.084745762711864,23.08243727598566,6.101694915254237,23.08243727598566C7.11864406779661,23.08243727598566,8.135593220338983,23.934687375547593,9.152542372881356,24.229390681003586C10.169491525423728,24.52409398645958,11.186440677966102,24.850657108721627,12.203389830508474,24.850657108721627C13.220338983050846,24.850657108721627,14.23728813559322,24.81083233771406,15.254237288135592,24.731182795698924C16.271186440677965,24.651533253683787,17.28813559322034,23.44086021505376,18.305084745762713,23.44086021505376C19.322033898305087,23.44086021505376,20.338983050847457,24.420549581839907,21.35593220338983,24.420549581839907C22.372881355932204,24.420549581839907,23.389830508474574,23.847072879330945,24.406779661016948,23.847072879330945C25.423728813559322,23.847072879330945,26.440677966101696,24.492234169653525,27.45762711864407,24.492234169653525C28.47457627118644,24.492234169653525,29.491525423728813,24.181600955794508,30.508474576271183,24.014336917562726C31.525423728813557,23.847072879330945,32.54237288135593,23.488649940262842,33.559322033898304,23.488649940262842C34.57627118644068,23.488649940262842,35.59322033898305,23.735563520509757,36.610169491525426,23.847072879330945C37.6271186440678,23.958582238152133,38.644067796610166,24.157706093189965,39.66101694915254,24.157706093189965C40.67796610169491,24.157706093189965,41.69491525423729,22.700119474313027,42.71186440677966,22.700119474313027C43.728813559322035,22.700119474313027,44.7457627118644,24.635603345280764,45.762711864406775,24.635603345280764C46.77966101694915,24.635603345280764,47.79661016949152,24.03823178016726,48.813559322033896,23.67980884109916C49.83050847457627,23.32138590203106,50.847457627118644,22.485065710872163,51.86440677966102,22.485065710872163C52.88135593220339,22.485065710872163,53.898305084745765,27.26403823178017,54.91525423728814,27.26403823178017C55.93220338983051,27.26403823178017,56.94915254237288,22.054958183990443,57.96610169491525,22.054958183990443C58.983050847457626,22.054958183990443,59.99999999999999,23.178016726403822,61.01694915254237,23.178016726403822C62.03389830508474,23.178016726403822,63.05084745762712,23.07447232178415,64.0677966101695,22.867383512544805C65.08474576271186,22.66029470330546,66.10169491525424,21.003584229390682,67.11864406779661,21.003584229390682C68.13559322033899,21.003584229390682,69.15254237288136,21.95937873357228,70.16949152542374,21.95937873357228C71.1864406779661,21.95937873357228,72.20338983050848,21.696535244922337,73.22033898305085,21.696535244922337C74.23728813559322,21.696535244922337,75.2542372881356,22.1505376344086,76.27118644067797,22.1505376344086C77.28813559322033,22.1505376344086,78.30508474576271,21.93548387096774,79.32203389830508,21.93548387096774C80.33898305084746,21.93548387096774,81.35593220338983,22.1505376344086,82.37288135593221,22.1505376344086C83.38983050847457,22.1505376344086,84.40677966101696,22.12664277180406,85.42372881355932,22.078853046594983C86.4406779661017,22.031063321385904,87.45762711864407,21.6726403823178,88.47457627118645,21.6726403823178C89.49152542372882,21.6726403823178,90.50847457627118,22.867383512544805,91.52542372881355,22.867383512544805C92.54237288135593,22.867383512544805,93.55932203389831,21.983273596176822,94.57627118644069,21.983273596176822C95.59322033898306,21.983273596176822,96.61016949152543,22.449223416965353,97.62711864406779,22.65232974910394C98.64406779661016,22.855436081242534,99.66101694915254,23.201911589008365,100.6779661016949,23.201911589008365C101.69491525423729,23.201911589008365,102.71186440677965,20.605336519315017,103.72881355932203,19.4026284348865C104.7457627118644,18.199920350457987,105.76271186440678,15.985663082437277,106.77966101694915,15.985663082437277C107.79661016949153,15.985663082437277,108.8135593220339,16.917562724014335,109.83050847457628,17.371565113500598C110.84745762711864,17.825567502986857,111.86440677966102,18.518518518518523,112.88135593220339,18.70967741935484C113.89830508474576,18.900836320191157,114.91525423728814,18.996415770609318,115.9322033898305,18.996415770609318C116.94915254237289,18.996415770609318,117.96610169491525,15.364396654719235,118.98305084745763,15.364396654719235C120,15.364396654719235,121.01694915254237,17.204301075268816,122.03389830508473,17.204301075268816C123.05084745762711,17.204301075268816,124.0677966101695,14.241338112305852,125.08474576271188,14.241338112305852C126.10169491525424,14.241338112305852,127.11864406779662,15.667064914376734,128.135593220339,17.204301075268816C129.15254237288136,18.74153723616089,130.16949152542372,23.464755077658303,131.1864406779661,23.464755077658303C132.20338983050846,23.464755077658303,133.22033898305085,15.531660692951018,134.23728813559322,15.531660692951018C135.25423728813558,15.531660692951018,136.27118644067798,16.248506571087216,137.28813559322035,16.248506571087216C138.3050847457627,16.248506571087216,139.3220338983051,5.925925925925926,140.33898305084747,5.925925925925926C141.35593220338984,5.925925925925926,142.3728813559322,26.180804460374404,143.38983050847457,31.708482676224612C144.40677966101694,37.23616089207487,145.42372881355934,40,146.4406779661017,40C147.45762711864407,40,148.47457627118644,16.025487853444844,149.4915254237288,15.961768219832738C150.50847457627117,15.89804858622063,151.52542372881356,15.929908403026685,152.54237288135593,15.866188769414578C153.5593220338983,15.80246913580247,154.5762711864407,10.82437275985663,155.59322033898306,10.82437275985663C156.61016949152543,10.82437275985663,157.6271186440678,15.603345280764636,158.64406779661016,15.603345280764636C159.66101694915253,15.603345280764636,160.67796610169492,13.671843886897651,161.6949152542373,11.660692951015532C162.71186440677965,9.649542015133413,163.72881355932205,3.5364396654719243,164.74576271186442,3.5364396654719243C165.76271186440678,3.5364396654719243,166.77966101694915,15.412186379928317,167.79661016949152,15.412186379928317C168.81355932203388,15.412186379928317,169.83050847457628,7.287933094384709,170.84745762711864,7.287933094384709C171.864406779661,7.287933094384709,172.8813559322034,10.203106332138589,173.89830508474577,10.203106332138589C174.91525423728814,10.203106332138589,175.93220338983053,2.1505376344086002,176.9491525423729,2.1505376344086002C177.96610169491527,2.1505376344086002,178.98305084745763,8.721624850657108,180,15.292712066905615L180,40C178.98305084745763,40,177.96610169491527,40,176.9491525423729,40C175.93220338983053,40,174.91525423728814,40,173.89830508474577,40C172.8813559322034,40,171.864406779661,40,170.84745762711864,40C169.83050847457628,40,168.81355932203388,40,167.79661016949152,40C166.77966101694915,40,165.76271186440678,40,164.74576271186442,40C163.72881355932205,40,162.71186440677965,40,161.6949152542373,40C160.67796610169492,40,159.66101694915253,40,158.64406779661016,40C157.6271186440678,40,156.61016949152543,40,155.59322033898306,40C154.5762711864407,40,153.5593220338983,40,152.54237288135593,40C151.52542372881356,40,150.50847457627117,40,149.4915254237288,40C148.47457627118644,40,147.45762711864407,40,146.4406779661017,40C145.42372881355934,40,144.40677966101694,40,143.38983050847457,40C142.3728813559322,40,141.35593220338984,40,140.33898305084747,40C139.3220338983051,40,138.3050847457627,40,137.28813559322035,40C136.27118644067798,40,135.25423728813558,40,134.23728813559322,40C133.22033898305085,40,132.20338983050846,40,131.1864406779661,40C130.16949152542372,40,129.15254237288136,40,128.135593220339,40C127.11864406779662,40,126.10169491525424,40,125.08474576271188,40C124.0677966101695,40,123.05084745762711,40,122.03389830508473,40C121.01694915254237,40,120,40,118.98305084745763,40C117.96610169491525,40,116.94915254237289,40,115.9322033898305,40C114.91525423728814,40,113.89830508474576,40,112.88135593220339,40C111.86440677966102,40,110.84745762711864,40,109.83050847457628,40C108.8135593220339,40,107.79661016949153,40,106.77966101694915,40C105.76271186440678,40,104.7457627118644,40,103.72881355932203,40C102.71186440677965,40,101.69491525423729,40,100.6779661016949,40C99.66101694915254,40,98.64406779661016,40,97.62711864406779,40C96.61016949152543,40,95.59322033898306,40,94.57627118644069,40C93.55932203389831,40,92.54237288135593,40,91.52542372881355,40C90.50847457627118,40,89.49152542372882,40,88.47457627118645,40C87.45762711864407,40,86.4406779661017,40,85.42372881355932,40C84.40677966101696,40,83.38983050847457,40,82.37288135593221,40C81.35593220338983,40,80.33898305084746,40,79.32203389830508,40C78.30508474576271,40,77.28813559322033,40,76.27118644067797,40C75.2542372881356,40,74.23728813559322,40,73.22033898305085,40C72.20338983050848,40,71.1864406779661,40,70.16949152542374,40C69.15254237288136,40,68.13559322033899,40,67.11864406779661,40C66.10169491525424,40,65.08474576271186,40,64.0677966101695,40C63.05084745762712,40,62.03389830508474,40,61.01694915254237,40C59.99999999999999,40,58.983050847457626,40,57.96610169491525,40C56.94915254237288,40,55.93220338983051,40,54.91525423728814,40C53.898305084745765,40,52.88135593220339,40,51.86440677966102,40C50.847457627118644,40,49.83050847457627,40,48.813559322033896,40C47.79661016949152,40,46.77966101694915,40,45.762711864406775,40C44.7457627118644,40,43.728813559322035,40,42.71186440677966,40C41.69491525423729,40,40.67796610169491,40,39.66101694915254,40C38.644067796610166,40,37.6271186440678,40,36.610169491525426,40C35.59322033898305,40,34.57627118644068,40,33.559322033898304,40C32.54237288135593,40,31.525423728813557,40,30.508474576271183,40C29.491525423728813,40,28.47457627118644,40,27.45762711864407,40C26.440677966101696,40,25.423728813559322,40,24.406779661016948,40C23.389830508474574,40,22.372881355932204,40,21.35593220338983,40C20.338983050847457,40,19.322033898305087,40,18.305084745762713,40C17.28813559322034,40,16.271186440677965,40,15.254237288135592,40C14.23728813559322,40,13.220338983050846,40,12.203389830508474,40C11.186440677966102,40,10.169491525423728,40,9.152542372881356,40C8.135593220338983,40,7.11864406779661,40,6.101694915254237,40C5.084745762711864,40,4.067796610169491,40,3.0508474576271185,40C2.0338983050847457,40,1.0169491525423728,40,0,40Z"></path><path class="line" stroke="black" fill="none" d="M0,22.915173237753883C1.0169491525423728,23.309438470728793,2.0338983050847457,23.703703703703702,3.0508474576271185,23.703703703703702C4.067796610169491,23.703703703703702,5.084745762711864,23.08243727598566,6.101694915254237,23.08243727598566C7.11864406779661,23.08243727598566,8.135593220338983,23.934687375547593,9.152542372881356,24.229390681003586C10.169491525423728,24.52409398645958,11.186440677966102,24.850657108721627,12.203389830508474,24.850657108721627C13.220338983050846,24.850657108721627,14.23728813559322,24.81083233771406,15.254237288135592,24.731182795698924C16.271186440677965,24.651533253683787,17.28813559322034,23.44086021505376,18.305084745762713,23.44086021505376C19.322033898305087,23.44086021505376,20.338983050847457,24.420549581839907,21.35593220338983,24.420549581839907C22.372881355932204,24.420549581839907,23.389830508474574,23.847072879330945,24.406779661016948,23.847072879330945C25.423728813559322,23.847072879330945,26.440677966101696,24.492234169653525,27.45762711864407,24.492234169653525C28.47457627118644,24.492234169653525,29.491525423728813,24.181600955794508,30.508474576271183,24.014336917562726C31.525423728813557,23.847072879330945,32.54237288135593,23.488649940262842,33.559322033898304,23.488649940262842C34.57627118644068,23.488649940262842,35.59322033898305,23.735563520509757,36.610169491525426,23.847072879330945C37.6271186440678,23.958582238152133,38.644067796610166,24.157706093189965,39.66101694915254,24.157706093189965C40.67796610169491,24.157706093189965,41.69491525423729,22.700119474313027,42.71186440677966,22.700119474313027C43.728813559322035,22.700119474313027,44.7457627118644,24.635603345280764,45.762711864406775,24.635603345280764C46.77966101694915,24.635603345280764,47.79661016949152,24.03823178016726,48.813559322033896,23.67980884109916C49.83050847457627,23.32138590203106,50.847457627118644,22.485065710872163,51.86440677966102,22.485065710872163C52.88135593220339,22.485065710872163,53.898305084745765,27.26403823178017,54.91525423728814,27.26403823178017C55.93220338983051,27.26403823178017,56.94915254237288,22.054958183990443,57.96610169491525,22.054958183990443C58.983050847457626,22.054958183990443,59.99999999999999,23.178016726403822,61.01694915254237,23.178016726403822C62.03389830508474,23.178016726403822,63.05084745762712,23.07447232178415,64.0677966101695,22.867383512544805C65.08474576271186,22.66029470330546,66.10169491525424,21.003584229390682,67.11864406779661,21.003584229390682C68.13559322033899,21.003584229390682,69.15254237288136,21.95937873357228,70.16949152542374,21.95937873357228C71.1864406779661,21.95937873357228,72.20338983050848,21.696535244922337,73.22033898305085,21.696535244922337C74.23728813559322,21.696535244922337,75.2542372881356,22.1505376344086,76.27118644067797,22.1505376344086C77.28813559322033,22.1505376344086,78.30508474576271,21.93548387096774,79.32203389830508,21.93548387096774C80.33898305084746,21.93548387096774,81.35593220338983,22.1505376344086,82.37288135593221,22.1505376344086C83.38983050847457,22.1505376344086,84.40677966101696,22.12664277180406,85.42372881355932,22.078853046594983C86.4406779661017,22.031063321385904,87.45762711864407,21.6726403823178,88.47457627118645,21.6726403823178C89.49152542372882,21.6726403823178,90.50847457627118,22.867383512544805,91.52542372881355,22.867383512544805C92.54237288135593,22.867383512544805,93.55932203389831,21.983273596176822,94.57627118644069,21.983273596176822C95.59322033898306,21.983273596176822,96.61016949152543,22.449223416965353,97.62711864406779,22.65232974910394C98.64406779661016,22.855436081242534,99.66101694915254,23.201911589008365,100.6779661016949,23.201911589008365C101.69491525423729,23.201911589008365,102.71186440677965,20.605336519315017,103.72881355932203,19.4026284348865C104.7457627118644,18.199920350457987,105.76271186440678,15.985663082437277,106.77966101694915,15.985663082437277C107.79661016949153,15.985663082437277,108.8135593220339,16.917562724014335,109.83050847457628,17.371565113500598C110.84745762711864,17.825567502986857,111.86440677966102,18.518518518518523,112.88135593220339,18.70967741935484C113.89830508474576,18.900836320191157,114.91525423728814,18.996415770609318,115.9322033898305,18.996415770609318C116.94915254237289,18.996415770609318,117.96610169491525,15.364396654719235,118.98305084745763,15.364396654719235C120,15.364396654719235,121.01694915254237,17.204301075268816,122.03389830508473,17.204301075268816C123.05084745762711,17.204301075268816,124.0677966101695,14.241338112305852,125.08474576271188,14.241338112305852C126.10169491525424,14.241338112305852,127.11864406779662,15.667064914376734,128.135593220339,17.204301075268816C129.15254237288136,18.74153723616089,130.16949152542372,23.464755077658303,131.1864406779661,23.464755077658303C132.20338983050846,23.464755077658303,133.22033898305085,15.531660692951018,134.23728813559322,15.531660692951018C135.25423728813558,15.531660692951018,136.27118644067798,16.248506571087216,137.28813559322035,16.248506571087216C138.3050847457627,16.248506571087216,139.3220338983051,5.925925925925926,140.33898305084747,5.925925925925926C141.35593220338984,5.925925925925926,142.3728813559322,26.180804460374404,143.38983050847457,31.708482676224612C144.40677966101694,37.23616089207487,145.42372881355934,40,146.4406779661017,40C147.45762711864407,40,148.47457627118644,16.025487853444844,149.4915254237288,15.961768219832738C150.50847457627117,15.89804858622063,151.52542372881356,15.929908403026685,152.54237288135593,15.866188769414578C153.5593220338983,15.80246913580247,154.5762711864407,10.82437275985663,155.59322033898306,10.82437275985663C156.61016949152543,10.82437275985663,157.6271186440678,15.603345280764636,158.64406779661016,15.603345280764636C159.66101694915253,15.603345280764636,160.67796610169492,13.671843886897651,161.6949152542373,11.660692951015532C162.71186440677965,9.649542015133413,163.72881355932205,3.5364396654719243,164.74576271186442,3.5364396654719243C165.76271186440678,3.5364396654719243,166.77966101694915,15.412186379928317,167.79661016949152,15.412186379928317C168.81355932203388,15.412186379928317,169.83050847457628,7.287933094384709,170.84745762711864,7.287933094384709C171.864406779661,7.287933094384709,172.8813559322034,10.203106332138589,173.89830508474577,10.203106332138589C174.91525423728814,10.203106332138589,175.93220338983053,2.1505376344086002,176.9491525423729,2.1505376344086002C177.96610169491527,2.1505376344086002,178.98305084745763,8.721624850657108,180,15.292712066905615"></path><path class="axis-ceiling" stroke-width="1" stroke="black" fill="none" d="M175,0L180,0"></path><text class="axis-ceiling-label" font-family="sans-serif" text-anchor="end" font-size="10px" x="170" y="2.5">1000</text></g></svg>