<svg xmlns="http://www.w3.org/2000/svg" viewBox="0 0 180 60"><g transform="translate(0,20)"><path class="area" fill="rgba(0, 0, 0, 0.2)" d="M0,14.8033526756931C1.0169491525423728,18.007736943907155,2.0338983050847457,21.21212121212121,3.0508474576271185,21.21212121212121C4.067796610169491,21.21212121212121,5.084745762711864,16.827852998065765,6.101694915254237,16.827852998065765C7.11864406779661,16.827852998065765,8.135593220338983,18.401031592520955,9.152542372881356,18.401031592520955C10.169491525423728,18.401031592520955,11.186440677966102,14.05544809800129,12.203389830508474,14.05544809800129C13.220338983050846,14.05544809800129,14.23728813559322,21.14764667956157,15.254237288135592,21.14764667956157C16.271186440677965,21.14764667956157,17.28813559322034,14.829142488716958,18.305084745762713,14.829142488716958C19.322033898305087,14.829142488716958,20.338983050847457,17.047066408768536,21.35593220338983,17.047066408768536C22.372881355932204,17.047066408768536,23.389830508474574,14.223081882656352,24.406779661016948,14.223081882656352C25.423728813559322,14.223081882656352,26.440677966101696,15.860735009671178,27.45762711864407,15.860735009671178C28.47457627118644,15.860735009671178,29.491525423728813,15.847840103159253,30.508474576271183,15.847840103159253C31.525423728813557,15.847840103159253,32.54237288135593,20.477111540941326,33.559322033898304,22.56608639587363C34.57627118644068,24.655061250805932,35.59322033898305,28.381689232753065,36.610169491525426,28.381689232753065C37.6271186440678,28.381689232753065,38.644067796610166,23.062540296582846,39.66101694915254,21.186331399097355C40.67796610169491,19.310122501611858,41.69491525423729,17.124435847840104,42.71186440677966,17.124435847840104C43.728813559322035,17.124435847840104,44.7457627118644,21.611863313990973,45.762711864406775,21.611863313990973C46.77966101694915,21.611863313990973,47.79661016949152,20.309477756286263,48.813559322033896,20.309477756286263C49.83050847457627,20.309477756286263,50.847457627118644,21.83537502686439,51.86440677966102,22.411347517730498C52.88135593220339,22.987320008596605,53.898305084745765,22.862669245647968,54.91525423728814,23.765312701482912C55.93220338983051,24.667956157317853,56.94915254237288,29.2026649473458,57.96610169491525,29.86460348162476C58.983050847457626,30.52654201590372,59.99999999999999,30.8575112830432,61.01694915254237,30.8575112830432C62.03389830508474,30.8575112830432,63.05084745762712,28.16247582205029,64.0677966101695,28.16247582205029C65.08474576271186,28.16247582205029,66.10169491525424,34.46808510638298,67.11864406779661,34.46808510638298C68.13559322033899,34.46808510638298,69.15254237288136,33.07543520309478,70.16949152542374,33.07543520309478C71.1864406779661,33.07543520309478,72.20338983050848,34.08123791102514,73.22033898305085,34.08123791102514C74.23728813559322,34.08123791102514,75.2542372881356,33.35912314635719,76.27118644067797,33.35912314635719C77.28813559322033,33.35912314635719,78.30508474576271,33.65570599613153,79.32203389830508,34.24887169568021C80.33898305084746,34.842037395228886,81.35593220338983,40,82.37288135593221,40C83.38983050847457,40,84.40677966101696,38.839458413926494,85.42372881355932,38.633139909735654C86.4406779661017,38.426821405544814,87.45762711864407,38.52998065764023,88.47457627118645,38.32366215344939C89.49152542372882,38.11734364925855,90.50847457627118,32.765957446808514,91.52542372881355,32.765957446808514C92.54237288135593,32.765957446808514,93.55932203389831,35.02256608639587,94.57627118644069,35.02256608639587C95.59322033898306,35.02256608639587,96.61016949152543,34.500322372662794,97.62711864406779,34.11992263056093C98.64406779661016,33.73952288845906,99.66101694915254,32.77455405114979,100.6779661016949,32.74016763378465C101.69491525423729,32.70578121641951,102.71186440677965,32.72297442510208,103.72881355932203,32.68858800773694C104.7457627118644,32.6542015903718,105.76271186440678,29.623898560068767,106.77966101694915,29.6067053513862C107.79661016949153,29.589512142703633,108.8135593220339,29.598108747044915,109.83050847457628,29.580915538362348C110.84745762711864,29.56372232967978,111.86440677966102,28.037825059101653,112.88135593220339,27.46615087040619C113.89830508474576,26.894476681710724,114.91525423728814,26.53771760154739,115.9322033898305,26.150870406189554C116.94915254237289,25.76402321083172,117.96610169491525,25.667311411992262,118.98305084745763,25.145067698259183C120,24.622823984526107,121.01694915254237,23.017408123791103,122.03389830508473,23.017408123791103C123.05084745762711,23.017408123791103,124.0677966101695,25.213840532989465,125.08474576271188,25.48033526756931C126.10169491525424,25.74683000214915,127.11864406779662,25.88007736943907,128.135593220339,25.88007736943907C129.15254237288136,25.88007736943907,130.16949152542372,25.772619815173005,131.1864406779661,25.557704706640877C132.20338983050846,25.342789598108745,133.22033898305085,16.686009026434554,134.23728813559322,16.686009026434554C135.25423728813558,16.686009026434554,136.27118644067798,23.30109606705351,137.28813559322035,23.30109606705351C138.3050847457627,23.30109606705351,139.3220338983051,19.94842037395229,140.33898305084747,19.94842037395229C141.35593220338984,19.94842037395229,142.3728813559322,22.68214055448098,143.38983050847457,22.68214055448098C144.40677966101694,22.68214055448098,145.42372881355934,19.909735654416508,146.4406779661017,19.909735654416508C147.45762711864407,19.909735654416508,148.47457627118644,19.922630560928432,149.4915254237288,19.922630560928432C150.50847457627117,19.922630560928432,151.52542372881356,19.509993552546746,152.54237288135593,19.509993552546746C153.5593220338983,19.509993552546746,154.5762711864407,21.315280464216634,155.59322033898306,21.315280464216634C156.61016949152543,21.315280464216634,157.6271186440678,19.615301955727475,158.64406779661016,18.001289490651192C159.66101694915253,16.387277025574896,160.67796610169492,11.631205673758863,161.6949152542373,11.631205673758863C162.71186440677965,11.631205673758863,163.72881355932205,13.50096711798839,164.74576271186442,14.506769825918763C165.76271186440678,15.512572533849127,166.77966101694915,17.66602192134107,167.79661016949152,17.66602192134107C168.81355932203388,17.66602192134107,169.83050847457628,15.551257253384916,170.84745762711864,14.674403610573826C171.864406779661,13.797549967762736,172.8813559322034,12.404900064474532,173.89830508474577,12.404900064474532C174.91525423728814,12.404900064474532,175.93220338983053,13.797549967762732,176.9491525423729,13.797549967762732C177.96610169491527,13.797549967762732,178.98305084745763,9.574468085106382,180,5.3513862024500325L180,40C178.98305084745763,40,177.96610169491527,40,176.9491525423729,40C175.93220338983053,40,174.91525423728814,40,173.89830508474577,40C172.8813559322034,40,171.864406779661,40,170.84745762711864,40C169.83050847457628,40,168.81355932203388,40,167.79661016949152,40C166.77966101694915,40,165.76271186440678,40,164.74576271186442,40C163.72881355932205,40,162.71186440677965,40,161.6949152542373,40C160.67796610169492,40,159.66101694915253,40,158.64406779661016,40C157.6271186440678,40,156.61016949152543,40,155.59322033898306,40C154.5762711864407,40,153.5593220338983,40,152.54237288135593,40C151.52542372881356,40,150.50847457627117,40,149.4915254237288,40C148.47457627118644,40,147.45762711864407,40,146.4406779661017,40C145.42372881355934,40,144.40677966101694,40,143.38983050847457,40C142.3728813559322,40,141.35593220338984,40,140.33898305084747,40C139.3220338983051,40,138.3050847457627,40,137.28813559322035,40C136.27118644067798,40,135.25423728813558,40,134.23728813559322,40C133.22033898305085,40,132.20338983050846,40,131.1864406779661,40C130.16949152542372,40,129.15254237288136,40,128.135593220339,40C127.11864406779662,40,126.10169491525424,40,125.08474576271188,40C124.0677966101695,40,123.05084745762711,40,122.03389830508473,40C121.01694915254237,40,120,40,118.98305084745763,40C117.96610169491525,40,116.94915254237289,40,115.9322033898305,40C114.91525423728814,40,113.89830508474576,40,112.88135593220339,40C111.86440677966102,40,110.84745762711864,40,109.83050847457628,40C108.8135593220339,40,107.79661016949153,40,106.77966101694915,40C105.76271186440678,40,104.7457627118644,40,103.72881355932203,40C102.71186440677965,40,101.69491525423729,40,100.6779661016949,40C99.66101694915254,40,98.64406779661016,40,97.62711864406779,40C96.61016949152543,40,95.59322033898306,40,94.57627118644069,40C93.55932203389831,40,92.54237288135593,40,91.52542372881355,40C90.50847457627118,40,89.49152542372882,40,88.47457627118645,40C87.45762711864407,40,86.4406779661017,40,85.42372881355932,40C84.40677966101696,40,83.38983050847457,40,82.37288135593221,40C81.35593220338983,40,80.33898305084746,40,79.32203389830508,40C78.30508474576271,40,77.28813559322033,40,76.27118644067797,40C75.2542372881356,40,74.23728813559322,40,73.22033898305085,40C72.20338983050848,40,71.1864406779661,40,70.16949152542374,40C69.15254237288136,40,68.13559322033899,40,67.11864406779661,40C66.10169491525424,40,65.08474576271186,40,64.0677966101695,40C63.05084745762712,40,62.03389830508474,40,61.01694915254237,40C59.99999999999999,40,58.983050847457626,40,57.96610169491525,40C56.94915254237288,40,55.93220338983051,40,54.91525423728814,40C53.898305084745765,40,52.88135593220339,40,51.86440677966102,40C50.847457627118644,40,49.83050847457627,40,48.813559322033896,40C47.79661016949152,40,46.77966101694915,40,45.762711864406775,40C44.7457627118644,40,43.728813559322035,40,42.71186440677966,40C41.69491525423729,40,40.67796610169491,40,39.66101694915254,40C38.644067796610166,40,37.6271186440678,40,36.610169491525426,40C35.59322033898305,40,34.57627118644068,40,33.559322033898304,40C32.54237288135593,40,31.525423728813557,40,30.508474576271183,40C29.491525423728813,40,28.47457627118644,40,27.45762711864407,40C26.440677966101696,40,25.423728813559322,40,24.406779661016948,40C23.389830508474574,40,22.372881355932204,40,21.35593220338983,40C20.338983050847457,40,19.322033898305087,40,18.305084745762713,40C17.28813559322034,40,16.271186440677965,40,15.254237288135592,40C14.23728813559322,40,13.220338983050846,40,12.203389830508474,40C11.186440677966102,40,10.169491525423728,40,9.152542372881356,40C8.135593220338983,40,7.11864406779661,40,6.101694915254237,40C5.084745762711864,40,4.067796610169491,40,3.0508474576271185,40C2.0338983050847457,40,1.0169491525423728,40,0,40Z"></path><path class="line" stroke="black" fill="none" d="M0,14.8033526756931C1.0169491525423728,18.007736943907155,2.0338983050847457,21.21212121212121,3.0508474576271185,21.21212121212121C4.067796610169491,21.21212121212121,5.084745762711864,16.827852998065765,6.101694915254237,16.827852998065765C7.11864406779661,16.827852998065765,8.135593220338983,18.401031592520955,9.152542372881356,18.401031592520955C10.169491525423728,18.401031592520955,11.186440677966102,14.05544809800129,12.203389830508474,14.05544809800129C13.220338983050846,14.05544809800129,14.23728813559322,21.14764667956157,15.254237288135592,21.14764667956157C16.271186440677965,21.14764667956157,17.28813559322034,14.829142488716958,18.305084745762713,14.829142488716958C19.322033898305087,14.829142488716958,20.338983050847457,17.047066408768536,21.35593220338983,17.047066408768536C22.372881355932204,17.047066408768536,23.389830508474574,14.223081882656352,24.406779661016948,14.223081882656352C25.423728813559322,14.223081882656352,26.440677966101696,15.860735009671178,27.45762711864407,15.860735009671178C28.47457627118644,15.860735009671178,29.491525423728813,15.847840103159253,30.508474576271183,15.847840103159253C31.525423728813557,15.847840103159253,32.54237288135593,20.477111540941326,33.559322033898304,22.56608639587363C34.57627118644068,24.655061250805932,35.59322033898305,28.381689232753065,36.610169491525426,28.381689232753065C37.6271186440678,28.381689232753065,38.644067796610166,23.062540296582846,39.66101694915254,21.186331399097355C40.67796610169491,19.310122501611858,41.69491525423729,17.124435847840104,42.71186440677966,17.124435847840104C43.728813559322035,17.124435847840104,44.7457627118644,21.611863313990973,45.762711864406775,21.611863313990973C46.77966101694915,21.611863313990973,47.79661016949152,20.309477756286263,48.813559322033896,20.309477756286263C49.83050847457627,20.309477756286263,50.847457627118644,21.83537502686439,51.86440677966102,22.411347517730498C52.88135593220339,22.987320008596605,53.898305084745765,22.862669245647968,54.91525423728814,23.765312701482912C55.93220338983051,24.667956157317853,56.94915254237288,29.2026649473458,57.96610169491525,29.86460348162476C58.983050847457626,30.52654201590372,59.99999999999999,30.8575112830432,61.01694915254237,30.8575112830432C62.03389830508474,30.8575112830432,63.05084745762712,28.16247582205029,64.0677966101695,28.16247582205029C65.08474576271186,28.16247582205029,66.10169491525424,34.46808510638298,67.11864406779661,34.46808510638298C68.13559322033899,34.46808510638298,69.15254237288136,33.07543520309478,70.16949152542374,33.07543520309478C71.1864406779661,33.07543520309478,72.20338983050848,34.08123791102514,73.22033898305085,34.08123791102514C74.23728813559322,34.08123791102514,75.2542372881356,33.35912314635719,76.27118644067797,33.35912314635719C77.28813559322033,33.35912314635719,78.30508474576271,33.65570599613153,79.32203389830508,34.24887169568021C80.33898305084746,34.842037395228886,81.35593220338983,40,82.37288135593221,40C83.38983050847457,40,84.40677966101696,38.839458413926494,85.42372881355932,38.633139909735654C86.4406779661017,38.426821405544814,87.45762711864407,38.52998065764023,88.47457627118645,38.32366215344939C89.49152542372882,38.11734364925855,90.50847457627118,32.765957446808514,91.52542372881355,32.765957446808514C92.54237288135593,32.765957446808514,93.55932203389831,35.02256608639587,94.57627118644069,35.02256608639587C95.59322033898306,35.02256608639587,96.61016949152543,34.500322372662794,97.62711864406779,34.11992263056093C98.64406779661016,33.73952288845906,99.66101694915254,32.77455405114979,100.6779661016949,32.74016763378465C101.69491525423729,32.70578121641951,102.71186440677965,32.72297442510208,103.72881355932203,32.68858800773694C104.7457627118644,32.6542015903718,105.76271186440678,29.623898560068767,106.77966101694915,29.6067053513862C107.79661016949153,29.589512142703633,108.8135593220339,29.598108747044915,109.83050847457628,29.580915538362348C110.84745762711864,29.56372232967978,111.86440677966102,28.037825059101653,112.88135593220339,27.46615087040619C113.89830508474576,26.894476681710724,114.91525423728814,26.53771760154739,115.9322033898305,26.150870406189554C116.94915254237289,25.76402321083172,117.96610169491525,25.667311411992262,118.98305084745763,25.145067698259183C120,24.622823984526107,121.01694915254237,23.017408123791103,122.03389830508473,23.017408123791103C123.05084745762711,23.017408123791103,124.0677966101695,25.213840532989465,125.08474576271188,25.48033526756931C126.10169491525424,25.74683000214915,127.11864406779662,25.88007736943907,128.135593220339,25.88007736943907C129.15254237288136,25.88007736943907,130.16949152542372,25.772619815173005,131.1864406779661,25.557704706640877C132.20338983050846,25.342789598108745,133.22033898305085,16.686009026434554,134.23728813559322,16.686009026434554C135.25423728813558,16.686009026434554,136.27118644067798,23.30109606705351,137.28813559322035,23.30109606705351C138.3050847457627,23.30109606705351,139.3220338983051,19.94842037395229,140.33898305084747,19.94842037395229C141.35593220338984,19.94842037395229,142.3728813559322,22.68214055448098,143.38983050847457,22.68214055448098C144.40677966101694,22.68214055448098,145.42372881355934,19.909735654416508,146.4406779661017,19.909735654416508C147.45762711864407,19.909735654416508,148.47457627118644,19.922630560928432,149.4915254237288,19.922630560928432C150.50847457627117,19.922630560928432,151.52542372881356,19.509993552546746,152.54237288135593,19.509993552546746C153.5593220338983,19.509993552546746,154.5762711864407,21.315280464216634,155.59322033898306,21.315280464216634C156.61016949152543,21.315280464216634,157.6271186440678,19.615301955727475,158.64406779661016,18.001289490651192C159.66101694915253,16.387277025574896,160.67796610169492,11.631205673758863,161.6949152542373,11.631205673758863C162.71186440677965,11.631205673758863,163.72881355932205,13.50096711798839,164.74576271186442,14.506769825918763C165.76271186440678,15.512572533849127,166.77966101694915,17.66602192134107,167.79661016949152,17.66602192134107C168.81355932203388,17.66602192134107,169.83050847457628,15.551257253384916,170.84745762711864,14.674403610573826C171.864406779661,13.797549967762736,172.8813559322034,12.404900064474532,173.89830508474577,12.404900064474532C174.91525423728814,12.404900064474532,175.93220338983053,13.797549967762732,176.9491525423729,13.797549967762732C177.96610169491527,13.797549967762732,178.98305084745763,9.574468085106382,180,5.3513862024500325"></path><path class="axis-ceiling" stroke-width="1" stroke="black" fill="none" d="M175,0L180,0"></path><text class="axis-ceiling-label" font-family="sans-serif" text-anchor="end" font-size="10px" x="170" y="2.5">2000</text></g></svg>