<svg xmlns="http://www.w3.org/2000/svg" viewBox="0 0 180 60"><g transform="translate(0,20)"><path class="area" fill="rgba(0, 0, 0, 0.2)" d="M0,17.454545454545457C1,17.727272727272727,2,18,3,18C5,18,7,16.18181818181818,9,16.18181818181818C10,16.18181818181818,11,16.606060606060606,12,16.727272727272727C13,16.848484848484848,14,16.90909090909091,15,16.90909090909091C16,16.90909090909091,17,14.545454545454547,18,14.545454545454547C19,14.545454545454547,20,16.848484848484844,21,17.09090909090909C22,17.333333333333336,23,17.303030303030305,24,17.454545454545457C25,17.60606060606061,26,18,27,18C28,18,29,17.727272727272727,30,17.636363636363637C31,17.545454545454547,32,17.575757575757578,33,17.454545454545457C34,17.333333333333336,35,11.575757575757576,36,11.09090909090909C37,10.606060606060604,38,10.363636363636362,39,10.363636363636362C40,10.363636363636362,41,11.636363636363637,42,12.181818181818183C43,12.72727272727273,44,13.636363636363637,45,13.636363636363637C46,13.636363636363637,47,10,48,10C49,10,50,16.18181818181818,51,16.18181818181818C52,16.18181818181818,53,12.90909090909091,54,12.90909090909091C55,12.90909090909091,56,13.151515151515152,57,13.636363636363637C58,14.121212121212121,59,15.81818181818182,60,15.81818181818182C61,15.81818181818182,61.99999999999999,14,62.99999999999999,14C63.99999999999999,14,65,14.363636363636365,66,14.545454545454547C67,14.727272727272728,68,14.727272727272728,69,15.090909090909093C70,15.454545454545459,71,17.09090909090909,72,17.09090909090909C73,17.09090909090909,74,17.09090909090909,75,17.09090909090909C76,17.09090909090909,77,16.18181818181818,78,16.18181818181818C79,16.18181818181818,80,18,81,18C82,18,83,16,84,16C85,16,86,16.242424242424242,87,16.727272727272727C88,17.21212121212121,89,19.81818181818182,90,19.81818181818182C91,19.81818181818182,92.00000000000001,11.272727272727273,93.00000000000001,11.272727272727273C94.00000000000001,11.272727272727273,95,18,96,18C97,18,98.00000000000001,17.27272727272727,99.00000000000001,17.27272727272727C100.00000000000001,17.27272727272727,101,17.27272727272727,102,17.27272727272727C103,17.27272727272727,104,16.90909090909091,105,16.90909090909091C106,16.90909090909091,107,18,108,18C109,18,110,18,111,18C112,18,113,17.27272727272727,114,17.27272727272727C115,17.27272727272727,116,17.27272727272727,117,17.27272727272727C118,17.27272727272727,119,18,120,18C121,18,122,17.27272727272727,123,17.27272727272727C124,17.27272727272727,124.99999999999999,31.090909090909093,125.99999999999999,31.090909090909093C126.99999999999999,31.090909090909093,128,24.939393939393945,129,22.545454545454547C130,20.15151515151516,131,18.424242424242422,132,16.727272727272727C133,15.03030303030303,134,12.363636363636363,135,12.363636363636363C136,12.363636363636363,137,21.636363636363637,138,21.636363636363637C139,21.636363636363637,140,7.8181818181818175,141,7.8181818181818175C142,7.8181818181818175,143,24.909090909090914,144,24.909090909090914C145,24.909090909090914,146,17.09090909090909,147,17.09090909090909C148,17.09090909090909,149,40,150,40C151,40,152,10.909090909090908,153,10.909090909090908C154,10.909090909090908,155,14.151515151515152,156,15.272727272727273C157,16.393939393939394,158,16.060606060606062,159,17.636363636363637C160,19.21212121212121,161,28.909090909090907,162,28.909090909090907C163,28.909090909090907,164,15.636363636363635,165,15.636363636363635C166,15.636363636363635,167,18.545454545454547,168,18.545454545454547C169,18.545454545454547,170,17.72727272727273,171,17.454545454545457C172,17.181818181818183,173,17.212121212121215,174,16.90909090909091C175,16.606060606060606,176,15.878787878787875,177,15.636363636363635C178,15.393939393939394,179,15.333333333333334,180,15.272727272727273L180,40C179,40,178,40,177,40C176,40,175,40,174,40C173,40,172,40,171,40C170,40,169,40,168,40C167,40,166,40,165,40C164,40,163,40,162,40C161,40,160,40,159,40C158,40,157,40,156,40C155,40,154,40,153,40C152,40,151,40,150,40C149,40,148,40,147,40C146,40,145,40,144,40C143,40,142,40,141,40C140,40,139,40,138,40C137,40,136,40,135,40C134,40,133,40,132,40C131,40,130,40,129,40C128,40,126.99999999999999,40,125.99999999999999,40C124.99999999999999,40,124,40,123,40C122,40,121,40,120,40C119,40,118,40,117,40C116,40,115,40,114,40C113,40,112,40,111,40C110,40,109,40,108,40C107,40,106,40,105,40C104,40,103,40,102,40C101,40,100.00000000000001,40,99.00000000000001,40C98.00000000000001,40,97,40,96,40C95,40,94.00000000000001,40,93.00000000000001,40C92.00000000000001,40,91,40,90,40C89,40,88,40,87,40C86,40,85,40,84,40C83,40,82,40,81,40C80,40,79,40,78,40C77,40,76,40,75,40C74,40,73,40,72,40C71,40,70,40,69,40C68,40,67,40,66,40C65,40,63.99999999999999,40,62.99999999999999,40C61.99999999999999,40,61,40,60,40C59,40,58,40,57,40C56,40,55,40,54,40C53,40,52,40,51,40C50,40,49,40,48,40C47,40,46,40,45,40C44,40,43,40,42,40C41,40,40,40,39,40C38,40,37,40,36,40C35,40,34,40,33,40C32,40,31,40,30,40C29,40,28,40,27,40C26,40,25,40,24,40C23,40,22,40,21,40C20,40,19,40,18,40C17,40,16,40,15,40C14,40,13,40,12,40C11,40,10,40,9,40C7,40,5,40,3,40C2,40,1,40,0,40Z"></path><path class="line" stroke="black" fill="none" d="M0,17.454545454545457C1,17.727272727272727,2,18,3,18C5,18,7,16.18181818181818,9,16.18181818181818C10,16.18181818181818,11,16.606060606060606,12,16.727272727272727C13,16.848484848484848,14,16.90909090909091,15,16.90909090909091C16,16.90909090909091,17,14.545454545454547,18,14.545454545454547C19,14.545454545454547,20,16.848484848484844,21,17.09090909090909C22,17.333333333333336,23,17.303030303030305,24,17.454545454545457C25,17.60606060606061,26,18,27,18C28,18,29,17.727272727272727,30,17.636363636363637C31,17.545454545454547,32,17.575757575757578,33,17.454545454545457C34,17.333333333333336,35,11.575757575757576,36,11.09090909090909C37,10.606060606060604,38,10.363636363636362,39,10.363636363636362C40,10.363636363636362,41,11.636363636363637,42,12.181818181818183C43,12.72727272727273,44,13.636363636363637,45,13.636363636363637C46,13.636363636363637,47,10,48,10C49,10,50,16.18181818181818,51,16.18181818181818C52,16.18181818181818,53,12.90909090909091,54,12.90909090909091C55,12.90909090909091,56,13.151515151515152,57,13.636363636363637C58,14.121212121212121,59,15.81818181818182,60,15.81818181818182C61,15.81818181818182,61.99999999999999,14,62.99999999999999,14C63.99999999999999,14,65,14.363636363636365,66,14.545454545454547C67,14.727272727272728,68,14.727272727272728,69,15.090909090909093C70,15.454545454545459,71,17.09090909090909,72,17.09090909090909C73,17.09090909090909,74,17.09090909090909,75,17.09090909090909C76,17.09090909090909,77,16.18181818181818,78,16.18181818181818C79,16.18181818181818,80,18,81,18C82,18,83,16,84,16C85,16,86,16.242424242424242,87,16.727272727272727C88,17.21212121212121,89,19.81818181818182,90,19.81818181818182C91,19.81818181818182,92.00000000000001,11.272727272727273,93.00000000000001,11.272727272727273C94.00000000000001,11.272727272727273,95,18,96,18C97,18,98.00000000000001,17.27272727272727,99.00000000000001,17.27272727272727C100.00000000000001,17.27272727272727,101,17.27272727272727,102,17.27272727272727C103,17.27272727272727,104,16.90909090909091,105,16.90909090909091C106,16.90909090909091,107,18,108,18C109,18,110,18,111,18C112,18,113,17.27272727272727,114,17.27272727272727C115,17.27272727272727,116,17.27272727272727,117,17.27272727272727C118,17.27272727272727,119,18,120,18C121,18,122,17.27272727272727,123,17.27272727272727C124,17.27272727272727,124.99999999999999,31.090909090909093,125.99999999999999,31.090909090909093C126.99999999999999,31.090909090909093,128,24.939393939393945,129,22.545454545454547C130,20.15151515151516,131,18.424242424242422,132,16.727272727272727C133,15.03030303030303,134,12.363636363636363,135,12.363636363636363C136,12.363636363636363,137,21.636363636363637,138,21.636363636363637C139,21.636363636363637,140,7.8181818181818175,141,7.8181818181818175C142,7.8181818181818175,143,24.909090909090914,144,24.909090909090914C145,24.909090909090914,146,17.09090909090909,147,17.09090909090909C148,17.09090909090909,149,40,150,40C151,40,152,10.909090909090908,153,10.909090909090908C154,10.909090909090908,155,14.151515151515152,156,15.272727272727273C157,16.393939393939394,158,16.060606060606062,159,17.636363636363637C160,19.21212121212121,161,28.909090909090907,162,28.909090909090907C163,28.909090909090907,164,15.636363636363635,165,15.636363636363635C166,15.636363636363635,167,18.545454545454547,168,18.545454545454547C169,18.545454545454547,170,17.72727272727273,171,17.454545454545457C172,17.181818181818183,173,17.212121212121215,174,16.90909090909091C175,16.606060606060606,176,15.878787878787875,177,15.636363636363635C178,15.393939393939394,179,15.333333333333334,180,15.272727272727273"></path><path class="axis-ceiling" stroke-width="1" stroke="black" fill="none" d="M175,0L180,0"></path><text class="axis-ceiling-label" font-family="sans-serif" text-anchor="end" font-size="10px" x="170" y="2.5">100</text></g></svg>