<svg xmlns="http://www.w3.org/2000/svg" viewBox="0 0 180 60"><g transform="translate(0,20)"><path class="area" fill="rgba(0, 0, 0, 0.2)" d="M0,35.134C1.0169491525423728,34.98733333333333,2.0338983050847457,34.840666666666664,3.0508474576271185,34.699999999999996C4.067796610169491,34.55933333333333,5.084745762711864,34.47733333333334,6.101694915254237,34.290000000000006C7.11864406779661,34.10266666666667,8.135593220338983,33.788333333333334,9.152542372881356,33.576C10.169491525423728,33.36366666666667,11.186440677966102,33.244,12.203389830508474,33.016C13.220338983050846,32.788,14.23728813559322,32.436,15.254237288135592,32.208C16.271186440677965,31.979999999999997,17.28813559322034,31.671999999999997,18.305084745762713,31.648C19.322033898305087,31.624000000000002,20.338983050847457,31.636,21.35593220338983,31.612000000000002C22.372881355932204,31.588000000000005,23.389830508474574,31.13533333333333,24.406779661016948,30.912C25.423728813559322,30.688666666666666,26.440677966101696,30.629333333333335,27.45762711864407,30.272000000000002C28.47457627118644,29.91466666666667,29.491525423728813,28.768,30.508474576271183,28.768C31.525423728813557,28.768,32.54237288135593,29.08833333333333,33.559322033898304,29.421999999999997C34.57627118644068,29.755666666666663,35.59322033898305,30.77,36.610169491525426,30.77C37.6271186440678,30.77,38.644067796610166,30.328666666666667,39.66101694915254,30.106C40.67796610169491,29.883333333333336,41.69491525423729,29.728333333333335,42.71186440677966,29.434C43.728813559322035,29.139666666666667,44.7457627118644,28.638,45.762711864406775,28.34C46.77966101694915,28.041999999999998,47.79661016949152,27.932333333333332,48.813559322033896,27.645999999999997C49.83050847457627,27.359666666666662,50.847457627118644,27.076666666666668,51.86440677966102,26.622C52.88135593220339,26.167333333333332,53.898305084745765,25.320333333333334,54.91525423728814,24.918C55.93220338983051,24.515666666666668,56.94915254237288,24.558,57.96610169491525,24.208C58.983050847457626,23.857999999999997,59.99999999999999,23.240666666666666,61.01694915254237,22.818C62.03389830508474,22.395333333333333,63.05084745762712,22.16633333333334,64.0677966101695,21.672000000000004C65.08474576271186,21.17766666666667,66.10169491525424,20.275333333333332,67.11864406779661,19.851999999999997C68.13559322033899,19.42866666666666,69.15254237288136,19.535333333333334,70.16949152542374,19.131999999999998C71.1864406779661,18.728666666666665,72.20338983050848,17.941333333333333,73.22033898305085,17.432C74.23728813559322,16.922666666666665,75.2542372881356,16.601,76.27118644067797,16.076C77.28813559322033,15.551,78.30508474576271,14.837666666666665,79.32203389830508,14.282C80.33898305084746,13.726333333333333,81.35593220338983,13.255666666666668,82.37288135593221,12.742C83.38983050847457,12.228333333333335,84.40677966101696,11.533333333333333,85.42372881355932,11.200000000000001C86.4406779661017,10.866666666666667,87.45762711864407,10.7,88.47457627118645,10.7C89.49152542372882,10.7,90.50847457627118,11.101999999999999,91.52542372881355,11.101999999999999C92.54237288135593,11.101999999999999,93.55932203389831,10.731000000000005,94.57627118644069,10.388000000000002C95.59322033898306,10.045000000000002,96.61016949152543,9.376,97.62711864406779,9.043999999999999C98.64406779661016,8.711999999999996,99.66101694915254,8.645666666666665,100.6779661016949,8.395999999999999C101.69491525423729,8.146333333333333,102.71186440677965,7.7749999999999995,103.72881355932203,7.545999999999999C104.7457627118644,7.317,105.76271186440678,7.161666666666666,106.77966101694915,7.021999999999999C107.79661016949153,6.882333333333332,108.8135593220339,6.707999999999998,109.83050847457628,6.707999999999998C110.84745762711864,6.707999999999998,111.86440677966102,7.103666666666666,112.88135593220339,7.34C113.89830508474576,7.576333333333333,114.91525423728814,7.933666666666667,115.9322033898305,8.126000000000001C116.94915254237289,8.318333333333335,117.96610169491525,8.248666666666669,118.98305084745763,8.494000000000002C120,8.739333333333333,121.01694915254237,9.427333333333337,122.03389830508473,9.84C123.05084745762711,10.25266666666667,124.0677966101695,10.56733333333333,125.08474576271188,10.969999999999999C126.10169491525424,11.372666666666664,127.11864406779662,11.846,128.135593220339,12.256C129.15254237288136,12.665999999999999,130.16949152542372,13.015666666666668,131.1864406779661,13.43C132.20338983050846,13.844333333333335,133.22033898305085,14.156,134.23728813559322,14.742C135.25423728813558,15.328000000000001,136.27118644067798,16.246666666666663,137.28813559322035,16.945999999999998C138.3050847457627,17.645333333333333,139.3220338983051,18.282,140.33898305084747,18.938000000000002C141.35593220338984,19.594,142.3728813559322,20.37766666666667,143.38983050847457,20.882C144.40677966101694,21.386333333333337,145.42372881355934,21.544999999999995,146.4406779661017,21.964C147.45762711864407,22.382999999999996,148.47457627118644,22.942000000000004,149.4915254237288,23.396C150.50847457627117,23.85,151.52542372881356,24.293,152.54237288135593,24.688C153.5593220338983,25.083,154.5762711864407,25.407999999999998,155.59322033898306,25.766C156.61016949152543,26.124,157.6271186440678,26.559,158.64406779661016,26.836000000000002C159.66101694915253,27.113000000000003,160.67796610169492,27.231333333333332,161.6949152542373,27.427999999999997C162.71186440677965,27.624666666666663,163.72881355932205,27.874666666666666,164.74576271186442,28.016000000000002C165.76271186440678,28.157333333333334,166.77966101694915,28.238666666666667,167.79661016949152,28.276C168.81355932203388,28.313333333333333,169.83050847457628,28.331999999999997,170.84745762711864,28.331999999999997C171.864406779661,28.331999999999997,172.8813559322034,28.298666666666666,173.89830508474577,28.232C174.91525423728814,28.165333333333333,175.93220338983053,27.833999999999996,176.9491525423729,27.802C177.96610169491527,27.770000000000003,178.98305084745763,27.762000000000004,180,27.754000000000005L180,40C178.98305084745763,40,177.96610169491527,40,176.9491525423729,40C175.93220338983053,40,174.91525423728814,40,173.89830508474577,40C172.8813559322034,40,171.864406779661,40,170.84745762711864,40C169.83050847457628,40,168.81355932203388,40,167.79661016949152,40C166.77966101694915,40,165.76271186440678,40,164.74576271186442,40C163.72881355932205,40,162.71186440677965,40,161.6949152542373,40C160.67796610169492,40,159.66101694915253,40,158.64406779661016,40C157.6271186440678,40,156.61016949152543,40,155.59322033898306,40C154.5762711864407,40,153.5593220338983,40,152.54237288135593,40C151.52542372881356,40,150.50847457627117,40,149.4915254237288,40C148.47457627118644,40,147.45762711864407,40,146.4406779661017,40C145.42372881355934,40,144.40677966101694,40,143.38983050847457,40C142.3728813559322,40,141.35593220338984,40,140.33898305084747,40C139.3220338983051,40,138.3050847457627,40,137.28813559322035,40C136.27118644067798,40,135.25423728813558,40,134.23728813559322,40C133.22033898305085,40,132.20338983050846,40,131.1864406779661,40C130.16949152542372,40,129.15254237288136,40,128.135593220339,40C127.11864406779662,40,126.10169491525424,40,125.08474576271188,40C124.0677966101695,40,123.05084745762711,40,122.03389830508473,40C121.01694915254237,40,120,40,118.98305084745763,40C117.96610169491525,40,116.94915254237289,40,115.9322033898305,40C114.91525423728814,40,113.89830508474576,40,112.88135593220339,40C111.86440677966102,40,110.84745762711864,40,109.83050847457628,40C108.8135593220339,40,107.79661016949153,40,106.77966101694915,40C105.76271186440678,40,104.7457627118644,40,103.72881355932203,40C102.71186440677965,40,101.69491525423729,40,100.6779661016949,40C99.66101694915254,40,98.64406779661016,40,97.62711864406779,40C96.61016949152543,40,95.59322033898306,40,94.57627118644069,40C93.55932203389831,40,92.54237288135593,40,91.52542372881355,40C90.50847457627118,40,89.49152542372882,40,88.47457627118645,40C87.45762711864407,40,86.4406779661017,40,85.42372881355932,40C84.40677966101696,40,83.38983050847457,40,82.37288135593221,40C81.35593220338983,40,80.33898305084746,40,79.32203389830508,40C78.30508474576271,40,77.28813559322033,40,76.27118644067797,40C75.2542372881356,40,74.23728813559322,40,73.22033898305085,40C72.20338983050848,40,71.1864406779661,40,70.16949152542374,40C69.15254237288136,40,68.13559322033899,40,67.11864406779661,40C66.10169491525424,40,65.08474576271186,40,64.0677966101695,40C63.05084745762712,40,62.03389830508474,40,61.01694915254237,40C59.99999999999999,40,58.983050847457626,40,57.96610169491525,40C56.94915254237288,40,55.93220338983051,40,54.91525423728814,40C53.898305084745765,40,52.88135593220339,40,51.86440677966102,40C50.847457627118644,40,49.83050847457627,40,48.813559322033896,40C47.79661016949152,40,46.77966101694915,40,45.762711864406775,40C44.7457627118644,40,43.728813559322035,40,42.71186440677966,40C41.69491525423729,40,40.67796610169491,40,39.66101694915254,40C38.644067796610166,40,37.6271186440678,40,36.610169491525426,40C35.59322033898305,40,34.57627118644068,40,33.559322033898304,40C32.54237288135593,40,31.525423728813557,40,30.508474576271183,40C29.491525423728813,40,28.47457627118644,40,27.45762711864407,40C26.440677966101696,40,25.423728813559322,40,24.406779661016948,40C23.389830508474574,40,22.372881355932204,40,21.35593220338983,40C20.338983050847457,40,19.322033898305087,40,18.305084745762713,40C17.28813559322034,40,16.271186440677965,40,15.254237288135592,40C14.23728813559322,40,13.220338983050846,40,12.203389830508474,40C11.186440677966102,40,10.169491525423728,40,9.152542372881356,40C8.135593220338983,40,7.11864406779661,40,6.101694915254237,40C5.084745762711864,40,4.067796610169491,40,3.0508474576271185,40C2.0338983050847457,40,1.0169491525423728,40,0,40Z"></path><path class="line" stroke="black" fill="none" d="M0,35.134C1.0169491525423728,34.98733333333333,2.0338983050847457,34.840666666666664,3.0508474576271185,34.699999999999996C4.067796610169491,34.55933333333333,5.084745762711864,34.47733333333334,6.101694915254237,34.290000000000006C7.11864406779661,34.10266666666667,8.135593220338983,33.788333333333334,9.152542372881356,33.576C10.169491525423728,33.36366666666667,11.186440677966102,33.244,12.203389830508474,33.016C13.220338983050846,32.788,14.23728813559322,32.436,15.254237288135592,32.208C16.271186440677965,31.979999999999997,17.28813559322034,31.671999999999997,18.305084745762713,31.648C19.322033898305087,31.624000000000002,20.338983050847457,31.636,21.35593220338983,31.612000000000002C22.372881355932204,31.588000000000005,23.389830508474574,31.13533333333333,24.406779661016948,30.912C25.423728813559322,30.688666666666666,26.440677966101696,30.629333333333335,27.45762711864407,30.272000000000002C28.47457627118644,29.91466666666667,29.491525423728813,28.768,30.508474576271183,28.768C31.525423728813557,28.768,32.54237288135593,29.08833333333333,33.559322033898304,29.421999999999997C34.57627118644068,29.755666666666663,35.59322033898305,30.77,36.610169491525426,30.77C37.6271186440678,30.77,38.644067796610166,30.328666666666667,39.66101694915254,30.106C40.67796610169491,29.883333333333336,41.69491525423729,29.728333333333335,42.71186440677966,29.434C43.728813559322035,29.139666666666667,44.7457627118644,28.638,45.762711864406775,28.34C46.77966101694915,28.041999999999998,47.79661016949152,27.932333333333332,48.813559322033896,27.645999999999997C49.83050847457627,27.359666666666662,50.847457627118644,27.076666666666668,51.86440677966102,26.622C52.88135593220339,26.167333333333332,53.898305084745765,25.320333333333334,54.91525423728814,24.918C55.93220338983051,24.515666666666668,56.94915254237288,24.558,57.96610169491525,24.208C58.983050847457626,23.857999999999997,59.99999999999999,23.240666666666666,61.01694915254237,22.818C62.03389830508474,22.395333333333333,63.05084745762712,22.16633333333334,64.0677966101695,21.672000000000004C65.08474576271186,21.17766666666667,66.10169491525424,20.275333333333332,67.11864406779661,19.851999999999997C68.13559322033899,19.42866666666666,69.15254237288136,19.535333333333334,70.16949152542374,19.131999999999998C71.1864406779661,18.728666666666665,72.20338983050848,17.941333333333333,73.22033898305085,17.432C74.23728813559322,16.922666666666665,75.2542372881356,16.601,76.27118644067797,16.076C77.28813559322033,15.551,78.30508474576271,14.837666666666665,79.32203389830508,14.282C80.33898305084746,13.726333333333333,81.35593220338983,13.255666666666668,82.37288135593221,12.742C83.38983050847457,12.228333333333335,84.40677966101696,11.533333333333333,85.42372881355932,11.200000000000001C86.4406779661017,10.866666666666667,87.45762711864407,10.7,88.47457627118645,10.7C89.49152542372882,10.7,90.50847457627118,11.101999999999999,91.52542372881355,11.101999999999999C92.54237288135593,11.101999999999999,93.55932203389831,10.731000000000005,94.57627118644069,10.388000000000002C95.59322033898306,10.045000000000002,96.61016949152543,9.376,97.62711864406779,9.043999999999999C98.64406779661016,8.711999999999996,99.66101694915254,8.645666666666665,100.6779661016949,8.395999999999999C101.69491525423729,8.146333333333333,102.71186440677965,7.7749999999999995,103.72881355932203,7.545999999999999C104.7457627118644,7.317,105.76271186440678,7.161666666666666,106.77966101694915,7.021999999999999C107.79661016949153,6.882333333333332,108.8135593220339,6.707999999999998,109.83050847457628,6.707999999999998C110.84745762711864,6.707999999999998,111.86440677966102,7.103666666666666,112.88135593220339,7.34C113.89830508474576,7.576333333333333,114.91525423728814,7.933666666666667,115.9322033898305,8.126000000000001C116.94915254237289,8.318333333333335,117.96610169491525,8.248666666666669,118.98305084745763,8.494000000000002C120,8.739333333333333,121.01694915254237,9.427333333333337,122.03389830508473,9.84C123.05084745762711,10.25266666666667,124.0677966101695,10.56733333333333,125.08474576271188,10.969999999999999C126.10169491525424,11.372666666666664,127.11864406779662,11.846,128.135593220339,12.256C129.15254237288136,12.665999999999999,130.16949152542372,13.015666666666668,131.1864406779661,13.43C132.20338983050846,13.844333333333335,133.22033898305085,14.156,134.23728813559322,14.742C135.25423728813558,15.328000000000001,136.27118644067798,16.246666666666663,137.28813559322035,16.945999999999998C138.3050847457627,17.645333333333333,139.3220338983051,18.282,140.33898305084747,18.938000000000002C141.35593220338984,19.594,142.3728813559322,20.37766666666667,143.38983050847457,20.882C144.40677966101694,21.386333333333337,145.42372881355934,21.544999999999995,146.4406779661017,21.964C147.45762711864407,22.382999999999996,148.47457627118644,22.942000000000004,149.4915254237288,23.396C150.50847457627117,23.85,151.52542372881356,24.293,152.54237288135593,24.688C153.5593220338983,25.083,154.5762711864407,25.407999999999998,155.59322033898306,25.766C156.61016949152543,26.124,157.6271186440678,26.559,158.64406779661016,26.836000000000002C159.66101694915253,27.113000000000003,160.67796610169492,27.231333333333332,161.6949152542373,27.427999999999997C162.71186440677965,27.624666666666663,163.72881355932205,27.874666666666666,164.74576271186442,28.016000000000002C165.76271186440678,28.157333333333334,166.77966101694915,28.238666666666667,167.79661016949152,28.276C168.81355932203388,28.313333333333333,169.83050847457628,28.331999999999997,170.84745762711864,28.331999999999997C171.864406779661,28.331999999999997,172.8813559322034,28.298666666666666,173.89830508474577,28.232C174.91525423728814,28.165333333333333,175.93220338983053,27.833999999999996,176.9491525423729,27.802C177.96610169491527,27.770000000000003,178.98305084745763,27.762000000000004,180,27.754000000000005"></path><path class="axis-ceiling" stroke-width="1" stroke="black" fill="none" d="M175,0L180,0"></path><text class="axis-ceiling-label" font-family="sans-serif" text-anchor="end" font-size="10px" x="170" y="2.5">20000</text></g></svg>