<svg xmlns="http://www.w3.org/2000/svg" viewBox="0 0 180 60"><g transform="translate(0,20)"><path class="area" fill="rgba(0, 0, 0, 0.2)" d="M0,32.692C1.0169491525423728,32.652,2.0338983050847457,32.612,3.0508474576271185,32.572C4.067796610169491,32.532000000000004,5.084745762711864,32.49733333333333,6.101694915254237,32.452C7.11864406779661,32.406666666666666,8.135593220338983,32.366,9.152542372881356,32.3C10.169491525423728,32.233999999999995,11.186440677966102,32.11933333333333,12.203389830508474,32.056C13.220338983050846,31.992666666666665,14.23728813559322,31.976,15.254237288135592,31.92C16.271186440677965,31.864,17.28813559322034,31.78466666666667,18.305084745762713,31.720000000000002C19.322033898305087,31.655333333333335,20.338983050847457,31.599333333333334,21.35593220338983,31.532C22.372881355932204,31.464666666666666,23.389830508474574,31.374000000000002,24.406779661016948,31.316000000000003C25.423728813559322,31.258000000000003,26.440677966101696,31.232666666666663,27.45762711864407,31.183999999999997C28.47457627118644,31.13533333333333,29.491525423728813,31.078666666666667,30.508474576271183,31.024C31.525423728813557,30.969333333333335,32.54237288135593,30.921999999999997,33.559322033898304,30.855999999999998C34.57627118644068,30.79,35.59322033898305,30.687333333333335,36.610169491525426,30.628C37.6271186440678,30.56866666666667,38.644067796610166,30.543333333333333,39.66101694915254,30.5C40.67796610169491,30.456666666666667,41.69491525423729,30.407999999999998,42.71186440677966,30.368C43.728813559322035,30.328,44.7457627118644,30.310666666666663,45.762711864406775,30.259999999999998C46.77966101694915,30.20933333333333,47.79661016949152,30.13533333333333,48.813559322033896,30.064C49.83050847457627,29.99266666666667,50.847457627118644,29.894000000000002,51.86440677966102,29.832C52.88135593220339,29.77,53.898305084745765,29.75,54.91525423728814,29.692C55.93220338983051,29.634,56.94915254237288,29.55533333333333,57.96610169491525,29.483999999999998C58.983050847457626,29.412666666666667,59.99999999999999,29.320666666666668,61.01694915254237,29.264000000000003C62.03389830508474,29.207333333333338,63.05084745762712,29.185333333333336,64.0677966101695,29.144000000000002C65.08474576271186,29.102666666666668,66.10169491525424,29.068,67.11864406779661,29.016000000000002C68.13559322033899,28.964000000000002,69.15254237288136,28.883333333333336,70.16949152542374,28.832C71.1864406779661,28.78066666666667,72.20338983050848,28.752,73.22033898305085,28.708C74.23728813559322,28.663999999999998,75.2542372881356,28.618666666666666,76.27118644067797,28.567999999999998C77.28813559322033,28.51733333333333,78.30508474576271,28.46133333333333,79.32203389830508,28.403999999999996C80.33898305084746,28.346666666666664,81.35593220338983,28.286,82.37288135593221,28.224C83.38983050847457,28.162000000000003,84.40677966101696,28.085333333333335,85.42372881355932,28.032C86.4406779661017,27.978666666666665,87.45762711864407,27.954666666666668,88.47457627118645,27.904C89.49152542372882,27.853333333333335,90.50847457627118,27.808666666666667,91.52542372881355,27.728C92.54237288135593,27.647333333333336,93.55932203389831,27.441333333333336,94.57627118644069,27.42C95.59322033898306,27.398666666666667,96.61016949152543,27.409333333333333,97.62711864406779,27.387999999999998C98.64406779661016,27.366666666666664,99.66101694915254,27.236666666666665,100.6779661016949,27.119999999999997C101.69491525423729,27.00333333333333,102.71186440677965,26.784000000000002,103.72881355932203,26.688000000000002C104.7457627118644,26.592000000000002,105.76271186440678,26.64,106.77966101694915,26.543999999999997C107.79661016949153,26.447999999999993,108.8135593220339,26.234,109.83050847457628,26.108000000000004C110.84745762711864,25.982000000000006,111.86440677966102,25.910000000000004,112.88135593220339,25.788000000000004C113.89830508474576,25.666000000000004,114.91525423728814,25.55733333333334,115.9322033898305,25.376000000000005C116.94915254237289,25.19466666666667,117.96610169491525,24.897999999999996,118.98305084745763,24.699999999999996C120,24.501999999999995,121.01694915254237,24.354666666666667,122.03389830508473,24.188000000000002C123.05084745762711,24.021333333333335,124.0677966101695,23.866000000000003,125.08474576271188,23.700000000000003C126.10169491525424,23.534000000000002,127.11864406779662,23.363333333333333,128.135593220339,23.192C129.15254237288136,23.020666666666667,130.16949152542372,22.86333333333333,131.1864406779661,22.671999999999997C132.20338983050846,22.48066666666666,133.22033898305085,22.25533333333333,134.23728813559322,22.043999999999997C135.25423728813558,21.832666666666665,136.27118644067798,21.609333333333332,137.28813559322035,21.404C138.3050847457627,21.198666666666668,139.3220338983051,21.023999999999997,140.33898305084747,20.811999999999998C141.35593220338984,20.599999999999998,142.3728813559322,20.385333333333335,143.38983050847457,20.132000000000005C144.40677966101694,19.87866666666667,145.42372881355934,19.569333333333333,146.4406779661017,19.291999999999998C147.45762711864407,19.014666666666667,148.47457627118644,18.750666666666664,149.4915254237288,18.468C150.50847457627117,18.185333333333332,151.52542372881356,17.93133333333333,152.54237288135593,17.595999999999997C153.5593220338983,17.260666666666662,154.5762711864407,16.933333333333337,155.59322033898306,16.456C156.61016949152543,15.978666666666667,157.6271186440678,15.25933333333333,158.64406779661016,14.732C159.66101694915253,14.204666666666663,160.67796610169492,13.746000000000002,161.6949152542373,13.292000000000002C162.71186440677965,12.838000000000001,163.72881355932205,12.605333333333338,164.74576271186442,12.008000000000001C165.76271186440678,11.41066666666667,166.77966101694915,10.411999999999999,167.79661016949152,9.708000000000002C168.81355932203388,9.003999999999998,169.83050847457628,8.354666666666667,170.84745762711864,7.784C171.864406779661,7.213333333333333,172.8813559322034,6.796666666666667,173.89830508474577,6.284000000000001C174.91525423728814,5.7713333333333345,175.93220338983053,5.294666666666671,176.9491525423729,4.708000000000001C177.96610169491527,4.121333333333337,178.98305084745763,3.4426666666666694,180,2.764000000000002L180,40C178.98305084745763,40,177.96610169491527,40,176.9491525423729,40C175.93220338983053,40,174.91525423728814,40,173.89830508474577,40C172.8813559322034,40,171.864406779661,40,170.84745762711864,40C169.83050847457628,40,168.81355932203388,40,167.79661016949152,40C166.77966101694915,40,165.76271186440678,40,164.74576271186442,40C163.72881355932205,40,162.71186440677965,40,161.6949152542373,40C160.67796610169492,40,159.66101694915253,40,158.64406779661016,40C157.6271186440678,40,156.61016949152543,40,155.59322033898306,40C154.5762711864407,40,153.5593220338983,40,152.54237288135593,40C151.52542372881356,40,150.50847457627117,40,149.4915254237288,40C148.47457627118644,40,147.45762711864407,40,146.4406779661017,40C145.42372881355934,40,144.40677966101694,40,143.38983050847457,40C142.3728813559322,40,141.35593220338984,40,140.33898305084747,40C139.3220338983051,40,138.3050847457627,40,137.28813559322035,40C136.27118644067798,40,135.25423728813558,40,134.23728813559322,40C133.22033898305085,40,132.20338983050846,40,131.1864406779661,40C130.16949152542372,40,129.15254237288136,40,128.135593220339,40C127.11864406779662,40,126.10169491525424,40,125.08474576271188,40C124.0677966101695,40,123.05084745762711,40,122.03389830508473,40C121.01694915254237,40,120,40,118.98305084745763,40C117.96610169491525,40,116.94915254237289,40,115.9322033898305,40C114.91525423728814,40,113.89830508474576,40,112.88135593220339,40C111.86440677966102,40,110.84745762711864,40,109.83050847457628,40C108.8135593220339,40,107.79661016949153,40,106.77966101694915,40C105.76271186440678,40,104.7457627118644,40,103.72881355932203,40C102.71186440677965,40,101.69491525423729,40,100.6779661016949,40C99.66101694915254,40,98.64406779661016,40,97.62711864406779,40C96.61016949152543,40,95.59322033898306,40,94.57627118644069,40C93.55932203389831,40,92.54237288135593,40,91.52542372881355,40C90.50847457627118,40,89.49152542372882,40,88.47457627118645,40C87.45762711864407,40,86.4406779661017,40,85.42372881355932,40C84.40677966101696,40,83.38983050847457,40,82.37288135593221,40C81.35593220338983,40,80.33898305084746,40,79.32203389830508,40C78.30508474576271,40,77.28813559322033,40,76.27118644067797,40C75.2542372881356,40,74.23728813559322,40,73.22033898305085,40C72.20338983050848,40,71.1864406779661,40,70.16949152542374,40C69.15254237288136,40,68.13559322033899,40,67.11864406779661,40C66.10169491525424,40,65.08474576271186,40,64.0677966101695,40C63.05084745762712,40,62.03389830508474,40,61.01694915254237,40C59.99999999999999,40,58.983050847457626,40,57.96610169491525,40C56.94915254237288,40,55.93220338983051,40,54.91525423728814,40C53.898305084745765,40,52.88135593220339,40,51.86440677966102,40C50.847457627118644,40,49.83050847457627,40,48.813559322033896,40C47.79661016949152,40,46.77966101694915,40,45.762711864406775,40C44.7457627118644,40,43.728813559322035,40,42.71186440677966,40C41.69491525423729,40,40.67796610169491,40,39.66101694915254,40C38.644067796610166,40,37.6271186440678,40,36.610169491525426,40C35.59322033898305,40,34.57627118644068,40,33.559322033898304,40C32.54237288135593,40,31.525423728813557,40,30.508474576271183,40C29.491525423728813,40,28.47457627118644,40,27.45762711864407,40C26.440677966101696,40,25.423728813559322,40,24.406779661016948,40C23.389830508474574,40,22.372881355932204,40,21.35593220338983,40C20.338983050847457,40,19.322033898305087,40,18.305084745762713,40C17.28813559322034,40,16.271186440677965,40,15.254237288135592,40C14.23728813559322,40,13.220338983050846,40,12.203389830508474,40C11.186440677966102,40,10.169491525423728,40,9.152542372881356,40C8.135593220338983,40,7.11864406779661,40,6.101694915254237,40C5.084745762711864,40,4.067796610169491,40,3.0508474576271185,40C2.0338983050847457,40,1.0169491525423728,40,0,40Z"></path><path class="line" stroke="black" fill="none" d="M0,32.692C1.0169491525423728,32.652,2.0338983050847457,32.612,3.0508474576271185,32.572C4.067796610169491,32.532000000000004,5.084745762711864,32.49733333333333,6.101694915254237,32.452C7.11864406779661,32.406666666666666,8.135593220338983,32.366,9.152542372881356,32.3C10.169491525423728,32.233999999999995,11.186440677966102,32.11933333333333,12.203389830508474,32.056C13.220338983050846,31.992666666666665,14.23728813559322,31.976,15.254237288135592,31.92C16.271186440677965,31.864,17.28813559322034,31.78466666666667,18.305084745762713,31.720000000000002C19.322033898305087,31.655333333333335,20.338983050847457,31.599333333333334,21.35593220338983,31.532C22.372881355932204,31.464666666666666,23.389830508474574,31.374000000000002,24.406779661016948,31.316000000000003C25.423728813559322,31.258000000000003,26.440677966101696,31.232666666666663,27.45762711864407,31.183999999999997C28.47457627118644,31.13533333333333,29.491525423728813,31.078666666666667,30.508474576271183,31.024C31.525423728813557,30.969333333333335,32.54237288135593,30.921999999999997,33.559322033898304,30.855999999999998C34.57627118644068,30.79,35.59322033898305,30.687333333333335,36.610169491525426,30.628C37.6271186440678,30.56866666666667,38.644067796610166,30.543333333333333,39.66101694915254,30.5C40.67796610169491,30.456666666666667,41.69491525423729,30.407999999999998,42.71186440677966,30.368C43.728813559322035,30.328,44.7457627118644,30.310666666666663,45.762711864406775,30.259999999999998C46.77966101694915,30.20933333333333,47.79661016949152,30.13533333333333,48.813559322033896,30.064C49.83050847457627,29.99266666666667,50.847457627118644,29.894000000000002,51.86440677966102,29.832C52.88135593220339,29.77,53.898305084745765,29.75,54.91525423728814,29.692C55.93220338983051,29.634,56.94915254237288,29.55533333333333,57.96610169491525,29.483999999999998C58.983050847457626,29.412666666666667,59.99999999999999,29.320666666666668,61.01694915254237,29.264000000000003C62.03389830508474,29.207333333333338,63.05084745762712,29.185333333333336,64.0677966101695,29.144000000000002C65.08474576271186,29.102666666666668,66.10169491525424,29.068,67.11864406779661,29.016000000000002C68.13559322033899,28.964000000000002,69.15254237288136,28.883333333333336,70.16949152542374,28.832C71.1864406779661,28.78066666666667,72.20338983050848,28.752,73.22033898305085,28.708C74.23728813559322,28.663999999999998,75.2542372881356,28.618666666666666,76.27118644067797,28.567999999999998C77.28813559322033,28.51733333333333,78.30508474576271,28.46133333333333,79.32203389830508,28.403999999999996C80.33898305084746,28.346666666666664,81.35593220338983,28.286,82.37288135593221,28.224C83.38983050847457,28.162000000000003,84.40677966101696,28.085333333333335,85.42372881355932,28.032C86.4406779661017,27.978666666666665,87.45762711864407,27.954666666666668,88.47457627118645,27.904C89.49152542372882,27.853333333333335,90.50847457627118,27.808666666666667,91.52542372881355,27.728C92.54237288135593,27.647333333333336,93.55932203389831,27.441333333333336,94.57627118644069,27.42C95.59322033898306,27.398666666666667,96.61016949152543,27.409333333333333,97.62711864406779,27.387999999999998C98.64406779661016,27.366666666666664,99.66101694915254,27.236666666666665,100.6779661016949,27.119999999999997C101.69491525423729,27.00333333333333,102.71186440677965,26.784000000000002,103.72881355932203,26.688000000000002C104.7457627118644,26.592000000000002,105.76271186440678,26.64,106.77966101694915,26.543999999999997C107.79661016949153,26.447999999999993,108.8135593220339,26.234,109.83050847457628,26.108000000000004C110.84745762711864,25.982000000000006,111.86440677966102,25.910000000000004,112.88135593220339,25.788000000000004C113.89830508474576,25.666000000000004,114.91525423728814,25.55733333333334,115.9322033898305,25.376000000000005C116.94915254237289,25.19466666666667,117.96610169491525,24.897999999999996,118.98305084745763,24.699999999999996C120,24.501999999999995,121.01694915254237,24.354666666666667,122.03389830508473,24.188000000000002C123.05084745762711,24.021333333333335,124.0677966101695,23.866000000000003,125.08474576271188,23.700000000000003C126.10169491525424,23.534000000000002,127.11864406779662,23.363333333333333,128.135593220339,23.192C129.15254237288136,23.020666666666667,130.16949152542372,22.86333333333333,131.1864406779661,22.671999999999997C132.20338983050846,22.48066666666666,133.22033898305085,22.25533333333333,134.23728813559322,22.043999999999997C135.25423728813558,21.832666666666665,136.27118644067798,21.609333333333332,137.28813559322035,21.404C138.3050847457627,21.198666666666668,139.3220338983051,21.023999999999997,140.33898305084747,20.811999999999998C141.35593220338984,20.599999999999998,142.3728813559322,20.385333333333335,143.38983050847457,20.132000000000005C144.40677966101694,19.87866666666667,145.42372881355934,19.569333333333333,146.4406779661017,19.291999999999998C147.45762711864407,19.014666666666667,148.47457627118644,18.750666666666664,149.4915254237288,18.468C150.50847457627117,18.185333333333332,151.52542372881356,17.93133333333333,152.54237288135593,17.595999999999997C153.5593220338983,17.260666666666662,154.5762711864407,16.933333333333337,155.59322033898306,16.456C156.61016949152543,15.978666666666667,157.6271186440678,15.25933333333333,158.64406779661016,14.732C159.66101694915253,14.204666666666663,160.67796610169492,13.746000000000002,161.6949152542373,13.292000000000002C162.71186440677965,12.838000000000001,163.72881355932205,12.605333333333338,164.74576271186442,12.008000000000001C165.76271186440678,11.41066666666667,166.77966101694915,10.411999999999999,167.79661016949152,9.708000000000002C168.81355932203388,9.003999999999998,169.83050847457628,8.354666666666667,170.84745762711864,7.784C171.864406779661,7.213333333333333,172.8813559322034,6.796666666666667,173.89830508474577,6.284000000000001C174.91525423728814,5.7713333333333345,175.93220338983053,5.294666666666671,176.9491525423729,4.708000000000001C177.96610169491527,4.121333333333337,178.98305084745763,3.4426666666666694,180,2.764000000000002"></path><path class="axis-ceiling" stroke-width="1" stroke="black" fill="none" d="M175,0L180,0"></path><text class="axis-ceiling-label" font-family="sans-serif" text-anchor="end" font-size="10px" x="170" y="2.5">10000</text></g></svg>