<svg xmlns="http://www.w3.org/2000/svg" viewBox="0 0 180 60"><g transform="translate(0,20)"><path class="area" fill="rgba(0, 0, 0, 0.2)" d="M0,31.892C1.0169491525423728,31.649,2.0338983050847457,31.406,3.0508474576271185,31.206C4.067796610169491,31.006,5.084745762711864,30.811666666666667,6.101694915254237,30.692C7.11864406779661,30.572333333333333,8.135593220338983,30.559,9.152542372881356,30.488C10.169491525423728,30.417,11.186440677966102,30.35466666666667,12.203389830508474,30.266000000000002C13.220338983050846,30.177333333333333,14.23728813559322,30.069,15.254237288135592,29.956C16.271186440677965,29.843,17.28813559322034,29.711666666666666,18.305084745762713,29.588C19.322033898305087,29.464333333333336,20.338983050847457,29.32766666666667,21.35593220338983,29.214000000000002C22.372881355932204,29.100333333333335,23.389830508474574,29.064333333333334,24.406779661016948,28.906C25.423728813559322,28.747666666666664,26.440677966101696,28.527333333333335,27.45762711864407,28.264C28.47457627118644,28.000666666666667,29.491525423728813,27.655999999999995,30.508474576271183,27.325999999999997C31.525423728813557,26.995999999999995,32.54237288135593,26.642333333333333,33.559322033898304,26.284C34.57627118644068,25.925666666666665,35.59322033898305,25.562666666666665,36.610169491525426,25.176C37.6271186440678,24.78933333333333,38.644067796610166,24.369,39.66101694915254,23.964C40.67796610169491,23.558999999999997,41.69491525423729,23.167666666666666,42.71186440677966,22.746C43.728813559322035,22.324333333333332,44.7457627118644,21.86333333333333,45.762711864406775,21.433999999999997C46.77966101694915,21.004666666666665,47.79661016949152,20.616999999999997,48.813559322033896,20.169999999999998C49.83050847457627,19.723,50.847457627118644,19.227999999999998,51.86440677966102,18.752C52.88135593220339,18.276,53.898305084745765,17.803,54.91525423728814,17.314C55.93220338983051,16.825,56.94915254237288,16.28533333333333,57.96610169491525,15.817999999999998C58.983050847457626,15.350666666666665,59.99999999999999,14.919333333333334,61.01694915254237,14.510000000000002C62.03389830508474,14.100666666666667,63.05084745762712,13.721,64.0677966101695,13.361999999999998C65.08474576271186,13.002999999999998,66.10169491525424,12.690999999999997,67.11864406779661,12.355999999999998C68.13559322033899,12.020999999999997,69.15254237288136,11.659333333333336,70.16949152542374,11.352000000000002C71.1864406779661,11.04466666666667,72.20338983050848,10.776000000000002,73.22033898305085,10.512C74.23728813559322,10.248,75.2542372881356,9.991333333333333,76.27118644067797,9.767999999999999C77.28813559322033,9.544666666666664,78.30508474576271,9.36633333333333,79.32203389830508,9.171999999999997C80.33898305084746,8.977666666666662,81.35593220338983,8.786666666666665,82.37288135593221,8.601999999999999C83.38983050847457,8.417333333333334,84.40677966101696,8.207333333333333,85.42372881355932,8.064C86.4406779661017,7.9206666666666665,87.45762711864407,7.795333333333334,88.47457627118645,7.742C89.49152542372882,7.688666666666666,90.50847457627118,7.662,91.52542372881355,7.662C92.54237288135593,7.662,93.55932203389831,7.751999999999998,94.57627118644069,7.867999999999999C95.59322033898306,7.983999999999999,96.61016949152543,8.151666666666666,97.62711864406779,8.357999999999999C98.64406779661016,8.564333333333332,99.66101694915254,8.821333333333335,100.6779661016949,9.106000000000002C101.69491525423729,9.39066666666667,102.71186440677965,9.729666666666668,103.72881355932203,10.066000000000003C104.7457627118644,10.402333333333335,105.76271186440678,10.73766666666667,106.77966101694915,11.124C107.79661016949153,11.510333333333334,108.8135593220339,11.925333333333333,109.83050847457628,12.384C110.84745762711864,12.842666666666666,111.86440677966102,13.364666666666666,112.88135593220339,13.876C113.89830508474576,14.387333333333332,114.91525423728814,14.927333333333333,115.9322033898305,15.451999999999998C116.94915254237289,15.976666666666667,117.96610169491525,16.496999999999996,118.98305084745763,17.024C120,17.551,121.01694915254237,18.08066666666667,122.03389830508473,18.614C123.05084745762711,19.14733333333334,124.0677966101695,19.693333333333335,125.08474576271188,20.224000000000004C126.10169491525424,20.75466666666667,127.11864406779662,21.300333333333334,128.135593220339,21.798000000000002C129.15254237288136,22.295666666666666,130.16949152542372,22.772333333333332,131.1864406779661,23.209999999999997C132.20338983050846,23.647666666666666,133.22033898305085,24.052,134.23728813559322,24.424C135.25423728813558,24.796,136.27118644067798,25.122,137.28813559322035,25.442C138.3050847457627,25.762,139.3220338983051,26.076,140.33898305084747,26.344C141.35593220338984,26.612,142.3728813559322,26.848000000000003,143.38983050847457,27.05C144.40677966101694,27.252000000000002,145.42372881355934,27.423333333333336,146.4406779661017,27.556000000000004C147.45762711864407,27.68866666666667,148.47457627118644,27.77566666666667,149.4915254237288,27.846000000000004C150.50847457627117,27.916333333333338,151.52542372881356,27.948,152.54237288135593,27.978C153.5593220338983,28.008000000000003,154.5762711864407,28.026,155.59322033898306,28.026C156.61016949152543,28.026,157.6271186440678,28.012666666666668,158.64406779661016,27.986C159.66101694915253,27.959333333333333,160.67796610169492,27.80966666666667,161.6949152542373,27.706C162.71186440677965,27.60233333333333,163.72881355932205,27.49733333333333,164.74576271186442,27.363999999999997C165.76271186440678,27.230666666666664,166.77966101694915,27.059666666666665,167.79661016949152,26.906C168.81355932203388,26.752333333333333,169.83050847457628,26.61766666666667,170.84745762711864,26.442C171.864406779661,26.266333333333332,172.8813559322034,26.070333333333334,173.89830508474577,25.852C174.91525423728814,25.633666666666667,175.93220338983053,25.39433333333334,176.9491525423729,25.132000000000005C177.96610169491527,24.86966666666667,178.98305084745763,24.573833333333337,180,24.278L180,40C178.98305084745763,40,177.96610169491527,40,176.9491525423729,40C175.93220338983053,40,174.91525423728814,40,173.89830508474577,40C172.8813559322034,40,171.864406779661,40,170.84745762711864,40C169.83050847457628,40,168.81355932203388,40,167.79661016949152,40C166.77966101694915,40,165.76271186440678,40,164.74576271186442,40C163.72881355932205,40,162.71186440677965,40,161.6949152542373,40C160.67796610169492,40,159.66101694915253,40,158.64406779661016,40C157.6271186440678,40,156.61016949152543,40,155.59322033898306,40C154.5762711864407,40,153.5593220338983,40,152.54237288135593,40C151.52542372881356,40,150.50847457627117,40,149.4915254237288,40C148.47457627118644,40,147.45762711864407,40,146.4406779661017,40C145.42372881355934,40,144.40677966101694,40,143.38983050847457,40C142.3728813559322,40,141.35593220338984,40,140.33898305084747,40C139.3220338983051,40,138.3050847457627,40,137.28813559322035,40C136.27118644067798,40,135.25423728813558,40,134.23728813559322,40C133.22033898305085,40,132.20338983050846,40,131.1864406779661,40C130.16949152542372,40,129.15254237288136,40,128.135593220339,40C127.11864406779662,40,126.10169491525424,40,125.08474576271188,40C124.0677966101695,40,123.05084745762711,40,122.03389830508473,40C121.01694915254237,40,120,40,118.98305084745763,40C117.96610169491525,40,116.94915254237289,40,115.9322033898305,40C114.91525423728814,40,113.89830508474576,40,112.88135593220339,40C111.86440677966102,40,110.84745762711864,40,109.83050847457628,40C108.8135593220339,40,107.79661016949153,40,106.77966101694915,40C105.76271186440678,40,104.7457627118644,40,103.72881355932203,40C102.71186440677965,40,101.69491525423729,40,100.6779661016949,40C99.66101694915254,40,98.64406779661016,40,97.62711864406779,40C96.61016949152543,40,95.59322033898306,40,94.57627118644069,40C93.55932203389831,40,92.54237288135593,40,91.52542372881355,40C90.50847457627118,40,89.49152542372882,40,88.47457627118645,40C87.45762711864407,40,86.4406779661017,40,85.42372881355932,40C84.40677966101696,40,83.38983050847457,40,82.37288135593221,40C81.35593220338983,40,80.33898305084746,40,79.32203389830508,40C78.30508474576271,40,77.28813559322033,40,76.27118644067797,40C75.2542372881356,40,74.23728813559322,40,73.22033898305085,40C72.20338983050848,40,71.1864406779661,40,70.16949152542374,40C69.15254237288136,40,68.13559322033899,40,67.11864406779661,40C66.10169491525424,40,65.08474576271186,40,64.0677966101695,40C63.05084745762712,40,62.03389830508474,40,61.01694915254237,40C59.99999999999999,40,58.983050847457626,40,57.96610169491525,40C56.94915254237288,40,55.93220338983051,40,54.91525423728814,40C53.898305084745765,40,52.88135593220339,40,51.86440677966102,40C50.847457627118644,40,49.83050847457627,40,48.813559322033896,40C47.79661016949152,40,46.77966101694915,40,45.762711864406775,40C44.7457627118644,40,43.728813559322035,40,42.71186440677966,40C41.69491525423729,40,40.67796610169491,40,39.66101694915254,40C38.644067796610166,40,37.6271186440678,40,36.610169491525426,40C35.59322033898305,40,34.57627118644068,40,33.559322033898304,40C32.54237288135593,40,31.525423728813557,40,30.508474576271183,40C29.491525423728813,40,28.47457627118644,40,27.45762711864407,40C26.440677966101696,40,25.423728813559322,40,24.406779661016948,40C23.389830508474574,40,22.372881355932204,40,21.35593220338983,40C20.338983050847457,40,19.322033898305087,40,18.305084745762713,40C17.28813559322034,40,16.271186440677965,40,15.254237288135592,40C14.23728813559322,40,13.220338983050846,40,12.203389830508474,40C11.186440677966102,40,10.169491525423728,40,9.152542372881356,40C8.135593220338983,40,7.11864406779661,40,6.101694915254237,40C5.084745762711864,40,4.067796610169491,40,3.0508474576271185,40C2.0338983050847457,40,1.0169491525423728,40,0,40Z"></path><path class="line" stroke="black" fill="none" d="M0,31.892C1.0169491525423728,31.649,2.0338983050847457,31.406,3.0508474576271185,31.206C4.067796610169491,31.006,5.084745762711864,30.811666666666667,6.101694915254237,30.692C7.11864406779661,30.572333333333333,8.135593220338983,30.559,9.152542372881356,30.488C10.169491525423728,30.417,11.186440677966102,30.35466666666667,12.203389830508474,30.266000000000002C13.220338983050846,30.177333333333333,14.23728813559322,30.069,15.254237288135592,29.956C16.271186440677965,29.843,17.28813559322034,29.711666666666666,18.305084745762713,29.588C19.322033898305087,29.464333333333336,20.338983050847457,29.32766666666667,21.35593220338983,29.214000000000002C22.372881355932204,29.100333333333335,23.389830508474574,29.064333333333334,24.406779661016948,28.906C25.423728813559322,28.747666666666664,26.440677966101696,28.527333333333335,27.45762711864407,28.264C28.47457627118644,28.000666666666667,29.491525423728813,27.655999999999995,30.508474576271183,27.325999999999997C31.525423728813557,26.995999999999995,32.54237288135593,26.642333333333333,33.559322033898304,26.284C34.57627118644068,25.925666666666665,35.59322033898305,25.562666666666665,36.610169491525426,25.176C37.6271186440678,24.78933333333333,38.644067796610166,24.369,39.66101694915254,23.964C40.67796610169491,23.558999999999997,41.69491525423729,23.167666666666666,42.71186440677966,22.746C43.728813559322035,22.324333333333332,44.7457627118644,21.86333333333333,45.762711864406775,21.433999999999997C46.77966101694915,21.004666666666665,47.79661016949152,20.616999999999997,48.813559322033896,20.169999999999998C49.83050847457627,19.723,50.847457627118644,19.227999999999998,51.86440677966102,18.752C52.88135593220339,18.276,53.898305084745765,17.803,54.91525423728814,17.314C55.93220338983051,16.825,56.94915254237288,16.28533333333333,57.96610169491525,15.817999999999998C58.983050847457626,15.350666666666665,59.99999999999999,14.919333333333334,61.01694915254237,14.510000000000002C62.03389830508474,14.100666666666667,63.05084745762712,13.721,64.0677966101695,13.361999999999998C65.08474576271186,13.002999999999998,66.10169491525424,12.690999999999997,67.11864406779661,12.355999999999998C68.13559322033899,12.020999999999997,69.15254237288136,11.659333333333336,70.16949152542374,11.352000000000002C71.1864406779661,11.04466666666667,72.20338983050848,10.776000000000002,73.22033898305085,10.512C74.23728813559322,10.248,75.2542372881356,9.991333333333333,76.27118644067797,9.767999999999999C77.28813559322033,9.544666666666664,78.30508474576271,9.36633333333333,79.32203389830508,9.171999999999997C80.33898305084746,8.977666666666662,81.35593220338983,8.786666666666665,82.37288135593221,8.601999999999999C83.38983050847457,8.417333333333334,84.40677966101696,8.207333333333333,85.42372881355932,8.064C86.4406779661017,7.9206666666666665,87.45762711864407,7.795333333333334,88.47457627118645,7.742C89.49152542372882,7.688666666666666,90.50847457627118,7.662,91.52542372881355,7.662C92.54237288135593,7.662,93.55932203389831,7.751999999999998,94.57627118644069,7.867999999999999C95.59322033898306,7.983999999999999,96.61016949152543,8.151666666666666,97.62711864406779,8.357999999999999C98.64406779661016,8.564333333333332,99.66101694915254,8.821333333333335,100.6779661016949,9.106000000000002C101.69491525423729,9.39066666666667,102.71186440677965,9.729666666666668,103.72881355932203,10.066000000000003C104.7457627118644,10.402333333333335,105.76271186440678,10.73766666666667,106.77966101694915,11.124C107.79661016949153,11.510333333333334,108.8135593220339,11.925333333333333,109.83050847457628,12.384C110.84745762711864,12.842666666666666,111.86440677966102,13.364666666666666,112.88135593220339,13.876C113.89830508474576,14.387333333333332,114.91525423728814,14.927333333333333,115.9322033898305,15.451999999999998C116.94915254237289,15.976666666666667,117.96610169491525,16.496999999999996,118.98305084745763,17.024C120,17.551,121.01694915254237,18.08066666666667,122.03389830508473,18.614C123.05084745762711,19.14733333333334,124.0677966101695,19.693333333333335,125.08474576271188,20.224000000000004C126.10169491525424,20.75466666666667,127.11864406779662,21.300333333333334,128.135593220339,21.798000000000002C129.15254237288136,22.295666666666666,130.16949152542372,22.772333333333332,131.1864406779661,23.209999999999997C132.20338983050846,23.647666666666666,133.22033898305085,24.052,134.23728813559322,24.424C135.25423728813558,24.796,136.27118644067798,25.122,137.28813559322035,25.442C138.3050847457627,25.762,139.3220338983051,26.076,140.33898305084747,26.344C141.35593220338984,26.612,142.3728813559322,26.848000000000003,143.38983050847457,27.05C144.40677966101694,27.252000000000002,145.42372881355934,27.423333333333336,146.4406779661017,27.556000000000004C147.45762711864407,27.68866666666667,148.47457627118644,27.77566666666667,149.4915254237288,27.846000000000004C150.50847457627117,27.916333333333338,151.52542372881356,27.948,152.54237288135593,27.978C153.5593220338983,28.008000000000003,154.5762711864407,28.026,155.59322033898306,28.026C156.61016949152543,28.026,157.6271186440678,28.012666666666668,158.64406779661016,27.986C159.66101694915253,27.959333333333333,160.67796610169492,27.80966666666667,161.6949152542373,27.706C162.71186440677965,27.60233333333333,163.72881355932205,27.49733333333333,164.74576271186442,27.363999999999997C165.76271186440678,27.230666666666664,166.77966101694915,27.059666666666665,167.79661016949152,26.906C168.81355932203388,26.752333333333333,169.83050847457628,26.61766666666667,170.84745762711864,26.442C171.864406779661,26.266333333333332,172.8813559322034,26.070333333333334,173.89830508474577,25.852C174.91525423728814,25.633666666666667,175.93220338983053,25.39433333333334,176.9491525423729,25.132000000000005C177.96610169491527,24.86966666666667,178.98305084745763,24.573833333333337,180,24.278"></path><path class="axis-ceiling" stroke-width="1" stroke="black" fill="none" d="M175,0L180,0"></path><text class="axis-ceiling-label" font-family="sans-serif" text-anchor="end" font-size="10px" x="170" y="2.5">20000</text></g></svg>