<svg xmlns="http://www.w3.org/2000/svg" viewBox="0 0 180 60"><g transform="translate(0,20)"><path class="area" fill="rgba(0, 0, 0, 0.2)" d="M0,36.666666666666664C0.425531914893617,35.864197530864196,0.8510638297872342,35.06172839506173,1.2765957446808511,34.44444444444444C2.127659574468085,33.20987654320987,2.978723404255319,32.77777777777778,3.829787234042553,32.22222222222222C4.680851063829787,31.666666666666664,5.531914893617022,31.85185185185185,6.382978723404256,31.11111111111111C6.808510638297872,30.74074074074074,7.23404255319149,27.77777777777778,7.659574468085106,27.77777777777778C10.212765957446807,27.77777777777778,12.76595744680851,28.14814814814815,15.319148936170212,28.88888888888889C17.02127659574468,29.382716049382715,18.72340425531915,31.11111111111111,20.425531914893618,31.11111111111111C20.851063829787233,31.11111111111111,21.27659574468085,30,21.702127659574465,30C23.404255319148934,30,25.106382978723403,35.55555555555556,26.80851063829787,35.55555555555556C31.48936170212766,35.55555555555556,36.170212765957444,35.18518518518518,40.851063829787236,34.44444444444444C41.702127659574465,34.30976430976431,42.5531914893617,33.333333333333336,43.40425531914893,33.333333333333336C48.08510638297872,33.333333333333336,52.76595744680851,34.81481481481482,57.4468085106383,37.77777777777778C57.87234042553192,38.04713804713805,58.297872340425535,40,58.72340425531915,40C60.851063829787236,40,62.97872340425532,36.666666666666664,65.1063829787234,36.666666666666664C65.53191489361701,36.666666666666664,65.95744680851064,36.666666666666664,66.38297872340425,36.666666666666664C67.23404255319149,36.666666666666664,68.08510638297872,33.333333333333336,68.93617021276596,33.333333333333336C71.91489361702128,33.333333333333336,74.8936170212766,36.090534979423865,77.87234042553192,36.666666666666664C81.70212765957447,37.407407407407405,85.53191489361701,37.77777777777778,89.36170212765957,37.77777777777778C90.2127659574468,37.77777777777778,91.06382978723403,37.77777777777778,91.91489361702126,37.77777777777778C97.44680851063829,37.77777777777778,102.9787234042553,35.55555555555556,108.51063829787233,35.55555555555556C111.06382978723404,35.55555555555556,113.61702127659575,37.77777777777778,116.17021276595746,37.77777777777778C116.59574468085107,37.77777777777778,117.0212765957447,37.77777777777778,117.4468085106383,37.77777777777778C117.87234042553192,37.77777777777778,118.29787234042553,37.77777777777778,118.72340425531914,37.77777777777778C120.85106382978722,37.77777777777778,122.97872340425532,36.666666666666664,125.1063829787234,36.666666666666664C125.95744680851064,36.666666666666664,126.80851063829788,36.666666666666664,127.65957446808511,36.666666666666664C128.08510638297872,36.666666666666664,128.51063829787236,36.666666666666664,128.93617021276597,36.666666666666664C129.36170212765958,36.666666666666664,129.7872340425532,36.666666666666664,130.2127659574468,36.666666666666664C131.06382978723403,36.666666666666664,131.91489361702128,35.55555555555556,132.7659574468085,35.55555555555556C133.1914893617021,35.55555555555556,133.61702127659575,36.666666666666664,134.04255319148936,36.666666666666664C134.46808510638297,36.666666666666664,134.8936170212766,36.666666666666664,135.31914893617022,36.666666666666664C135.74468085106383,36.666666666666664,136.17021276595744,36.666666666666664,136.59574468085106,36.666666666666664C138.29787234042553,36.666666666666664,140,36.666666666666664,141.70212765957447,36.666666666666664C142.5531914893617,36.666666666666664,143.40425531914894,35.55555555555556,144.25531914893617,35.55555555555556C144.68085106382978,35.55555555555556,145.1063829787234,35.55555555555556,145.531914893617,35.55555555555556C145.9574468085106,35.55555555555556,146.38297872340425,36.666666666666664,146.80851063829786,36.666666666666664C147.23404255319147,36.666666666666664,147.6595744680851,36.666666666666664,148.08510638297872,36.666666666666664C148.51063829787233,36.666666666666664,148.93617021276597,36.666666666666664,149.36170212765958,36.666666666666664C149.7872340425532,36.666666666666664,150.2127659574468,36.666666666666664,150.63829787234042,36.666666666666664C151.48936170212767,36.666666666666664,152.3404255319149,36.172839506172856,153.19148936170214,35.55555555555556C153.61702127659575,35.24691358024692,154.04255319148936,34.81481481481481,154.46808510638297,34.44444444444444C154.89361702127658,34.07407407407407,155.31914893617022,33.88888888888889,155.74468085106383,33.333333333333336C156.17021276595744,32.77777777777778,156.59574468085108,31.666666666666668,157.0212765957447,31.11111111111111C157.4468085106383,30.555555555555564,157.87234042553192,30,158.29787234042553,30C158.72340425531914,30,159.14893617021275,30,159.57446808510636,30C159.99999999999997,30,160.4255319148936,27.77777777777778,160.85106382978722,27.77777777777778C161.27659574468083,27.77777777777778,161.70212765957447,28.51851851851852,162.12765957446808,28.88888888888889C162.5531914893617,29.25925925925926,162.97872340425533,30,163.40425531914894,30C163.82978723404256,30,164.25531914893617,27.03703703703702,164.68085106382978,25.555555555555554C165.1063829787234,24.074074074074055,165.53191489361703,22.59259259259259,165.95744680851064,21.11111111111111C166.38297872340425,19.62962962962963,166.8085106382979,17.96296296296297,167.2340425531915,16.666666666666664C167.6595744680851,15.370370370370386,168.08510638297872,14.814814814814792,168.51063829787233,13.333333333333336C168.93617021276594,11.851851851851846,169.36170212765958,8.518518518518517,169.7872340425532,7.777777777777777C170.2127659574468,7.037037037037035,170.63829787234044,7.4074074074074066,171.06382978723406,6.666666666666665C171.48936170212767,5.925925925925941,171.91489361702128,2.222222222222223,172.3404255319149,2.222222222222223C172.7659574468085,2.222222222222223,173.1914893617021,2.592592592592594,173.61702127659572,3.333333333333335C174.04255319148933,4.074074074074092,174.46808510638297,7.5925925925925934,174.89361702127658,8.88888888888889C175.3191489361702,10.185185185185185,175.74468085106383,11.11111111111111,176.17021276595744,11.11111111111111C176.59574468085106,11.11111111111111,177.0212765957447,11.11111111111111,177.4468085106383,11.11111111111111C177.87234042553192,11.11111111111111,178.29787234042553,13.703703703703725,178.72340425531914,14.444444444444446C179.14893617021275,15.185185185185185,179.5744680851064,15.370370370370368,180,15.555555555555554L180,40C179.5744680851064,40,179.14893617021275,40,178.72340425531914,40C178.29787234042553,40,177.87234042553192,40,177.4468085106383,40C177.0212765957447,40,176.59574468085106,40,176.17021276595744,40C175.74468085106383,40,175.3191489361702,40,174.89361702127658,40C174.46808510638297,40,174.04255319148933,40,173.61702127659572,40C173.1914893617021,40,172.7659574468085,40,172.3404255319149,40C171.91489361702128,40,171.48936170212767,40,171.06382978723406,40C170.63829787234044,40,170.2127659574468,40,169.7872340425532,40C169.36170212765958,40,168.93617021276594,40,168.51063829787233,40C168.08510638297872,40,167.6595744680851,40,167.2340425531915,40C166.8085106382979,40,166.38297872340425,40,165.95744680851064,40C165.53191489361703,40,165.1063829787234,40,164.68085106382978,40C164.25531914893617,40,163.82978723404256,40,163.40425531914894,40C162.97872340425533,40,162.5531914893617,40,162.12765957446808,40C161.70212765957447,40,161.27659574468083,40,160.85106382978722,40C160.4255319148936,40,159.99999999999997,40,159.57446808510636,40C159.14893617021275,40,158.72340425531914,40,158.29787234042553,40C157.87234042553192,40,157.4468085106383,40,157.0212765957447,40C156.59574468085108,40,156.17021276595744,40,155.74468085106383,40C155.31914893617022,40,154.89361702127658,40,154.46808510638297,40C154.04255319148936,40,153.61702127659575,40,153.19148936170214,40C152.3404255319149,40,151.48936170212767,40,150.63829787234042,40C150.2127659574468,40,149.7872340425532,40,149.36170212765958,40C148.93617021276597,40,148.51063829787233,40,148.08510638297872,40C147.6595744680851,40,147.23404255319147,40,146.80851063829786,40C146.38297872340425,40,145.9574468085106,40,145.531914893617,40C145.1063829787234,40,144.68085106382978,40,144.25531914893617,40C143.40425531914894,40,142.5531914893617,40,141.70212765957447,40C140,40,138.29787234042553,40,136.59574468085106,40C136.17021276595744,40,135.74468085106383,40,135.31914893617022,40C134.8936170212766,40,134.46808510638297,40,134.04255319148936,40C133.61702127659575,40,133.1914893617021,40,132.7659574468085,40C131.91489361702128,40,131.06382978723403,40,130.2127659574468,40C129.7872340425532,40,129.36170212765958,40,128.93617021276597,40C128.51063829787236,40,128.08510638297872,40,127.65957446808511,40C126.80851063829788,40,125.95744680851064,40,125.1063829787234,40C122.97872340425532,40,120.85106382978722,40,118.72340425531914,40C118.29787234042553,40,117.87234042553192,40,117.4468085106383,40C117.0212765957447,40,116.59574468085107,40,116.17021276595746,40C113.61702127659575,40,111.06382978723404,40,108.51063829787233,40C102.9787234042553,40,97.44680851063829,40,91.91489361702126,40C91.06382978723403,40,90.2127659574468,40,89.36170212765957,40C85.53191489361701,40,81.70212765957447,40,77.87234042553192,40C74.8936170212766,40,71.91489361702128,40,68.93617021276596,40C68.08510638297872,40,67.23404255319149,40,66.38297872340425,40C65.95744680851064,40,65.53191489361701,40,65.1063829787234,40C62.97872340425532,40,60.851063829787236,40,58.72340425531915,40C58.297872340425535,40,57.87234042553192,40,57.4468085106383,40C52.76595744680851,40,48.08510638297872,40,43.40425531914893,40C42.5531914893617,40,41.702127659574465,40,40.851063829787236,40C36.170212765957444,40,31.48936170212766,40,26.80851063829787,40C25.106382978723403,40,23.404255319148934,40,21.702127659574465,40C21.27659574468085,40,20.851063829787233,40,20.425531914893618,40C18.72340425531915,40,17.02127659574468,40,15.319148936170212,40C12.76595744680851,40,10.212765957446807,40,7.659574468085106,40C7.23404255319149,40,6.808510638297872,40,6.382978723404256,40C5.531914893617022,40,4.680851063829787,40,3.829787234042553,40C2.978723404255319,40,2.127659574468085,40,1.2765957446808511,40C0.8510638297872342,40,0.425531914893617,40,0,40Z"></path><path class="line" stroke="black" fill="none" d="M0,36.666666666666664C0.425531914893617,35.864197530864196,0.8510638297872342,35.06172839506173,1.2765957446808511,34.44444444444444C2.127659574468085,33.20987654320987,2.978723404255319,32.77777777777778,3.829787234042553,32.22222222222222C4.680851063829787,31.666666666666664,5.531914893617022,31.85185185185185,6.382978723404256,31.11111111111111C6.808510638297872,30.74074074074074,7.23404255319149,27.77777777777778,7.659574468085106,27.77777777777778C10.212765957446807,27.77777777777778,12.76595744680851,28.14814814814815,15.319148936170212,28.88888888888889C17.02127659574468,29.382716049382715,18.72340425531915,31.11111111111111,20.425531914893618,31.11111111111111C20.851063829787233,31.11111111111111,21.27659574468085,30,21.702127659574465,30C23.404255319148934,30,25.106382978723403,35.55555555555556,26.80851063829787,35.55555555555556C31.48936170212766,35.55555555555556,36.170212765957444,35.18518518518518,40.851063829787236,34.44444444444444C41.702127659574465,34.30976430976431,42.5531914893617,33.333333333333336,43.40425531914893,33.333333333333336C48.08510638297872,33.333333333333336,52.76595744680851,34.81481481481482,57.4468085106383,37.77777777777778C57.87234042553192,38.04713804713805,58.297872340425535,40,58.72340425531915,40C60.851063829787236,40,62.97872340425532,36.666666666666664,65.1063829787234,36.666666666666664C65.53191489361701,36.666666666666664,65.95744680851064,36.666666666666664,66.38297872340425,36.666666666666664C67.23404255319149,36.666666666666664,68.08510638297872,33.333333333333336,68.93617021276596,33.333333333333336C71.91489361702128,33.333333333333336,74.8936170212766,36.090534979423865,77.87234042553192,36.666666666666664C81.70212765957447,37.407407407407405,85.53191489361701,37.77777777777778,89.36170212765957,37.77777777777778C90.2127659574468,37.77777777777778,91.06382978723403,37.77777777777778,91.91489361702126,37.77777777777778C97.44680851063829,37.77777777777778,102.9787234042553,35.55555555555556,108.51063829787233,35.55555555555556C111.06382978723404,35.55555555555556,113.61702127659575,37.77777777777778,116.17021276595746,37.77777777777778C116.59574468085107,37.77777777777778,117.0212765957447,37.77777777777778,117.4468085106383,37.77777777777778C117.87234042553192,37.77777777777778,118.29787234042553,37.77777777777778,118.72340425531914,37.77777777777778C120.85106382978722,37.77777777777778,122.97872340425532,36.666666666666664,125.1063829787234,36.666666666666664C125.95744680851064,36.666666666666664,126.80851063829788,36.666666666666664,127.65957446808511,36.666666666666664C128.08510638297872,36.666666666666664,128.51063829787236,36.666666666666664,128.93617021276597,36.666666666666664C129.36170212765958,36.666666666666664,129.7872340425532,36.666666666666664,130.2127659574468,36.666666666666664C131.06382978723403,36.666666666666664,131.91489361702128,35.55555555555556,132.7659574468085,35.55555555555556C133.1914893617021,35.55555555555556,133.61702127659575,36.666666666666664,134.04255319148936,36.666666666666664C134.46808510638297,36.666666666666664,134.8936170212766,36.666666666666664,135.31914893617022,36.666666666666664C135.74468085106383,36.666666666666664,136.17021276595744,36.666666666666664,136.59574468085106,36.666666666666664C138.29787234042553,36.666666666666664,140,36.666666666666664,141.70212765957447,36.666666666666664C142.5531914893617,36.666666666666664,143.40425531914894,35.55555555555556,144.25531914893617,35.55555555555556C144.68085106382978,35.55555555555556,145.1063829787234,35.55555555555556,145.531914893617,35.55555555555556C145.9574468085106,35.55555555555556,146.38297872340425,36.666666666666664,146.80851063829786,36.666666666666664C147.23404255319147,36.666666666666664,147.6595744680851,36.666666666666664,148.08510638297872,36.666666666666664C148.51063829787233,36.666666666666664,148.93617021276597,36.666666666666664,149.36170212765958,36.666666666666664C149.7872340425532,36.666666666666664,150.2127659574468,36.666666666666664,150.63829787234042,36.666666666666664C151.48936170212767,36.666666666666664,152.3404255319149,36.172839506172856,153.19148936170214,35.55555555555556C153.61702127659575,35.24691358024692,154.04255319148936,34.81481481481481,154.46808510638297,34.44444444444444C154.89361702127658,34.07407407407407,155.31914893617022,33.88888888888889,155.74468085106383,33.333333333333336C156.17021276595744,32.77777777777778,156.59574468085108,31.666666666666668,157.0212765957447,31.11111111111111C157.4468085106383,30.555555555555564,157.87234042553192,30,158.29787234042553,30C158.72340425531914,30,159.14893617021275,30,159.57446808510636,30C159.99999999999997,30,160.4255319148936,27.77777777777778,160.85106382978722,27.77777777777778C161.27659574468083,27.77777777777778,161.70212765957447,28.51851851851852,162.12765957446808,28.88888888888889C162.5531914893617,29.25925925925926,162.97872340425533,30,163.40425531914894,30C163.82978723404256,30,164.25531914893617,27.03703703703702,164.68085106382978,25.555555555555554C165.1063829787234,24.074074074074055,165.53191489361703,22.59259259259259,165.95744680851064,21.11111111111111C166.38297872340425,19.62962962962963,166.8085106382979,17.96296296296297,167.2340425531915,16.666666666666664C167.6595744680851,15.370370370370386,168.08510638297872,14.814814814814792,168.51063829787233,13.333333333333336C168.93617021276594,11.851851851851846,169.36170212765958,8.518518518518517,169.7872340425532,7.777777777777777C170.2127659574468,7.037037037037035,170.63829787234044,7.4074074074074066,171.06382978723406,6.666666666666665C171.48936170212767,5.925925925925941,171.91489361702128,2.222222222222223,172.3404255319149,2.222222222222223C172.7659574468085,2.222222222222223,173.1914893617021,2.592592592592594,173.61702127659572,3.333333333333335C174.04255319148933,4.074074074074092,174.46808510638297,7.5925925925925934,174.89361702127658,8.88888888888889C175.3191489361702,10.185185185185185,175.74468085106383,11.11111111111111,176.17021276595744,11.11111111111111C176.59574468085106,11.11111111111111,177.0212765957447,11.11111111111111,177.4468085106383,11.11111111111111C177.87234042553192,11.11111111111111,178.29787234042553,13.703703703703725,178.72340425531914,14.444444444444446C179.14893617021275,15.185185185185185,179.5744680851064,15.370370370370368,180,15.555555555555554"></path><path class="axis-ceiling" stroke-width="1" stroke="black" fill="none" d="M175,0L180,0"></path><text class="axis-ceiling-label" font-family="sans-serif" text-anchor="end" font-size="10px" x="170" y="2.5">35</text></g></svg>