<svg xmlns="http://www.w3.org/2000/svg" viewBox="0 0 180 60"><g transform="translate(0,20)"><path class="area" fill="rgba(0, 0, 0, 0.2)" d="M0,24.731182795698924C1.0169491525423728,24.086021505376344,2.0338983050847457,23.44086021505376,3.0508474576271185,23.44086021505376C4.067796610169491,23.44086021505376,5.084745762711864,24.420549581839907,6.101694915254237,24.420549581839907C7.11864406779661,24.420549581839907,8.135593220338983,23.847072879330945,9.152542372881356,23.847072879330945C10.169491525423728,23.847072879330945,11.186440677966102,24.492234169653525,12.203389830508474,24.492234169653525C13.220338983050846,24.492234169653525,14.23728813559322,24.181600955794508,15.254237288135592,24.014336917562726C16.271186440677965,23.847072879330945,17.28813559322034,23.488649940262842,18.305084745762713,23.488649940262842C19.322033898305087,23.488649940262842,20.338983050847457,23.735563520509757,21.35593220338983,23.847072879330945C22.372881355932204,23.958582238152133,23.389830508474574,24.157706093189965,24.406779661016948,24.157706093189965C25.423728813559322,24.157706093189965,26.440677966101696,22.700119474313027,27.45762711864407,22.700119474313027C28.47457627118644,22.700119474313027,29.491525423728813,24.635603345280764,30.508474576271183,24.635603345280764C31.525423728813557,24.635603345280764,32.54237288135593,24.03823178016726,33.559322033898304,23.67980884109916C34.57627118644068,23.32138590203106,35.59322033898305,22.485065710872163,36.610169491525426,22.485065710872163C37.6271186440678,22.485065710872163,38.644067796610166,27.26403823178017,39.66101694915254,27.26403823178017C40.67796610169491,27.26403823178017,41.69491525423729,22.054958183990443,42.71186440677966,22.054958183990443C43.728813559322035,22.054958183990443,44.7457627118644,23.178016726403822,45.762711864406775,23.178016726403822C46.77966101694915,23.178016726403822,47.79661016949152,23.07447232178415,48.813559322033896,22.867383512544805C49.83050847457627,22.66029470330546,50.847457627118644,21.003584229390682,51.86440677966102,21.003584229390682C52.88135593220339,21.003584229390682,53.898305084745765,21.95937873357228,54.91525423728814,21.95937873357228C55.93220338983051,21.95937873357228,56.94915254237288,21.696535244922337,57.96610169491525,21.696535244922337C58.983050847457626,21.696535244922337,59.99999999999999,22.1505376344086,61.01694915254237,22.1505376344086C62.03389830508474,22.1505376344086,63.05084745762712,21.93548387096774,64.0677966101695,21.93548387096774C65.08474576271186,21.93548387096774,66.10169491525424,22.1505376344086,67.11864406779661,22.1505376344086C68.13559322033899,22.1505376344086,69.15254237288136,22.12664277180406,70.16949152542374,22.078853046594983C71.1864406779661,22.031063321385904,72.20338983050848,21.6726403823178,73.22033898305085,21.6726403823178C74.23728813559322,21.6726403823178,75.2542372881356,22.867383512544805,76.27118644067797,22.867383512544805C77.28813559322033,22.867383512544805,78.30508474576271,21.983273596176822,79.32203389830508,21.983273596176822C80.33898305084746,21.983273596176822,81.35593220338983,22.44922341696535,82.37288135593221,22.65232974910394C83.38983050847457,22.85543608124253,84.40677966101696,23.201911589008365,85.42372881355932,23.201911589008365C86.4406779661017,23.201911589008365,87.45762711864407,20.605336519315017,88.47457627118645,19.4026284348865C89.49152542372882,18.19992035045799,90.50847457627118,15.985663082437277,91.52542372881355,15.985663082437277C92.54237288135593,15.985663082437277,93.55932203389831,16.917562724014335,94.57627118644069,17.371565113500598C95.59322033898306,17.825567502986853,96.61016949152543,18.518518518518523,97.62711864406779,18.70967741935484C98.64406779661016,18.900836320191157,99.66101694915254,18.996415770609318,100.6779661016949,18.996415770609318C101.69491525423729,18.996415770609318,102.71186440677965,15.364396654719235,103.72881355932203,15.364396654719235C104.7457627118644,15.364396654719235,105.76271186440678,17.204301075268816,106.77966101694915,17.204301075268816C107.79661016949153,17.204301075268816,108.8135593220339,14.241338112305852,109.83050847457628,14.241338112305852C110.84745762711864,14.241338112305852,111.86440677966102,15.667064914376741,112.88135593220339,17.204301075268816C113.89830508474576,18.74153723616089,114.91525423728814,23.464755077658303,115.9322033898305,23.464755077658303C116.94915254237289,23.464755077658303,117.96610169491525,15.531660692951018,118.98305084745763,15.531660692951018C120,15.531660692951018,121.01694915254237,16.248506571087216,122.03389830508473,16.248506571087216C123.05084745762711,16.248506571087216,124.0677966101695,5.925925925925926,125.08474576271188,5.925925925925926C126.10169491525424,5.925925925925926,127.11864406779662,26.18080446037433,128.135593220339,31.708482676224612C129.15254237288136,37.23616089207487,130.16949152542372,40,131.1864406779661,40C132.20338983050846,40,133.22033898305085,16.025487853444844,134.23728813559322,15.961768219832738C135.25423728813558,15.89804858622063,136.27118644067798,15.929908403026685,137.28813559322035,15.866188769414578C138.3050847457627,15.80246913580247,139.3220338983051,10.82437275985663,140.33898305084747,10.82437275985663C141.35593220338984,10.82437275985663,142.3728813559322,15.603345280764636,143.38983050847457,15.603345280764636C144.40677966101694,15.603345280764636,145.42372881355934,13.671843886897667,146.4406779661017,11.660692951015532C147.45762711864407,9.649542015133417,148.47457627118644,3.5364396654719243,149.4915254237288,3.5364396654719243C150.50847457627117,3.5364396654719243,151.52542372881356,15.412186379928317,152.54237288135593,15.412186379928317C153.5593220338983,15.412186379928317,154.5762711864407,7.287933094384709,155.59322033898306,7.287933094384709C156.61016949152543,7.287933094384709,157.6271186440678,10.203106332138589,158.64406779661016,10.203106332138589C159.66101694915253,10.203106332138589,160.67796610169492,2.1505376344086002,161.6949152542373,2.1505376344086002C162.71186440677965,2.1505376344086002,163.72881355932205,15.292712066905615,164.74576271186442,15.292712066905615C165.76271186440678,15.292712066905615,166.77966101694915,3.584229390681002,167.79661016949152,3.584229390681002C168.81355932203388,3.584229390681002,169.83050847457628,7.694145758661888,170.84745762711864,7.694145758661888C171.864406779661,7.694145758661888,172.8813559322034,2.4611708482676242,173.89830508474577,2.4611708482676242C174.91525423728814,2.4611708482676242,175.93220338983053,5.4958183990442055,176.9491525423729,5.4958183990442055C177.96610169491527,5.4958183990442055,178.98305084745763,5.483870967741935,180,5.471923536439665L180,40C178.98305084745763,40,177.96610169491527,40,176.9491525423729,40C175.93220338983053,40,174.91525423728814,40,173.89830508474577,40C172.8813559322034,40,171.864406779661,40,170.84745762711864,40C169.83050847457628,40,168.81355932203388,40,167.79661016949152,40C166.77966101694915,40,165.76271186440678,40,164.74576271186442,40C163.72881355932205,40,162.71186440677965,40,161.6949152542373,40C160.67796610169492,40,159.66101694915253,40,158.64406779661016,40C157.6271186440678,40,156.61016949152543,40,155.59322033898306,40C154.5762711864407,40,153.5593220338983,40,152.54237288135593,40C151.52542372881356,40,150.50847457627117,40,149.4915254237288,40C148.47457627118644,40,147.45762711864407,40,146.4406779661017,40C145.42372881355934,40,144.40677966101694,40,143.38983050847457,40C142.3728813559322,40,141.35593220338984,40,140.33898305084747,40C139.3220338983051,40,138.3050847457627,40,137.28813559322035,40C136.27118644067798,40,135.25423728813558,40,134.23728813559322,40C133.22033898305085,40,132.20338983050846,40,131.1864406779661,40C130.16949152542372,40,129.15254237288136,40,128.135593220339,40C127.11864406779662,40,126.10169491525424,40,125.08474576271188,40C124.0677966101695,40,123.05084745762711,40,122.03389830508473,40C121.01694915254237,40,120,40,118.98305084745763,40C117.96610169491525,40,116.94915254237289,40,115.9322033898305,40C114.91525423728814,40,113.89830508474576,40,112.88135593220339,40C111.86440677966102,40,110.84745762711864,40,109.83050847457628,40C108.8135593220339,40,107.79661016949153,40,106.77966101694915,40C105.76271186440678,40,104.7457627118644,40,103.72881355932203,40C102.71186440677965,40,101.69491525423729,40,100.6779661016949,40C99.66101694915254,40,98.64406779661016,40,97.62711864406779,40C96.61016949152543,40,95.59322033898306,40,94.57627118644069,40C93.55932203389831,40,92.54237288135593,40,91.52542372881355,40C90.50847457627118,40,89.49152542372882,40,88.47457627118645,40C87.45762711864407,40,86.4406779661017,40,85.42372881355932,40C84.40677966101696,40,83.38983050847457,40,82.37288135593221,40C81.35593220338983,40,80.33898305084746,40,79.32203389830508,40C78.30508474576271,40,77.28813559322033,40,76.27118644067797,40C75.2542372881356,40,74.23728813559322,40,73.22033898305085,40C72.20338983050848,40,71.1864406779661,40,70.16949152542374,40C69.15254237288136,40,68.13559322033899,40,67.11864406779661,40C66.10169491525424,40,65.08474576271186,40,64.0677966101695,40C63.05084745762712,40,62.03389830508474,40,61.01694915254237,40C59.99999999999999,40,58.983050847457626,40,57.96610169491525,40C56.94915254237288,40,55.93220338983051,40,54.91525423728814,40C53.898305084745765,40,52.88135593220339,40,51.86440677966102,40C50.847457627118644,40,49.83050847457627,40,48.813559322033896,40C47.79661016949152,40,46.77966101694915,40,45.762711864406775,40C44.7457627118644,40,43.728813559322035,40,42.71186440677966,40C41.69491525423729,40,40.67796610169491,40,39.66101694915254,40C38.644067796610166,40,37.6271186440678,40,36.610169491525426,40C35.59322033898305,40,34.57627118644068,40,33.559322033898304,40C32.54237288135593,40,31.525423728813557,40,30.508474576271183,40C29.491525423728813,40,28.47457627118644,40,27.45762711864407,40C26.440677966101696,40,25.423728813559322,40,24.406779661016948,40C23.389830508474574,40,22.372881355932204,40,21.35593220338983,40C20.338983050847457,40,19.322033898305087,40,18.305084745762713,40C17.28813559322034,40,16.271186440677965,40,15.254237288135592,40C14.23728813559322,40,13.220338983050846,40,12.203389830508474,40C11.186440677966102,40,10.169491525423728,40,9.152542372881356,40C8.135593220338983,40,7.11864406779661,40,6.101694915254237,40C5.084745762711864,40,4.067796610169491,40,3.0508474576271185,40C2.0338983050847457,40,1.0169491525423728,40,0,40Z"></path><path class="line" stroke="black" fill="none" d="M0,24.731182795698924C1.0169491525423728,24.086021505376344,2.0338983050847457,23.44086021505376,3.0508474576271185,23.44086021505376C4.067796610169491,23.44086021505376,5.084745762711864,24.420549581839907,6.101694915254237,24.420549581839907C7.11864406779661,24.420549581839907,8.135593220338983,23.847072879330945,9.152542372881356,23.847072879330945C10.169491525423728,23.847072879330945,11.186440677966102,24.492234169653525,12.203389830508474,24.492234169653525C13.220338983050846,24.492234169653525,14.23728813559322,24.181600955794508,15.254237288135592,24.014336917562726C16.271186440677965,23.847072879330945,17.28813559322034,23.488649940262842,18.305084745762713,23.488649940262842C19.322033898305087,23.488649940262842,20.338983050847457,23.735563520509757,21.35593220338983,23.847072879330945C22.372881355932204,23.958582238152133,23.389830508474574,24.157706093189965,24.406779661016948,24.157706093189965C25.423728813559322,24.157706093189965,26.440677966101696,22.700119474313027,27.45762711864407,22.700119474313027C28.47457627118644,22.700119474313027,29.491525423728813,24.635603345280764,30.508474576271183,24.635603345280764C31.525423728813557,24.635603345280764,32.54237288135593,24.03823178016726,33.559322033898304,23.67980884109916C34.57627118644068,23.32138590203106,35.59322033898305,22.485065710872163,36.610169491525426,22.485065710872163C37.6271186440678,22.485065710872163,38.644067796610166,27.26403823178017,39.66101694915254,27.26403823178017C40.67796610169491,27.26403823178017,41.69491525423729,22.054958183990443,42.71186440677966,22.054958183990443C43.728813559322035,22.054958183990443,44.7457627118644,23.178016726403822,45.762711864406775,23.178016726403822C46.77966101694915,23.178016726403822,47.79661016949152,23.07447232178415,48.813559322033896,22.867383512544805C49.83050847457627,22.66029470330546,50.847457627118644,21.003584229390682,51.86440677966102,21.003584229390682C52.88135593220339,21.003584229390682,53.898305084745765,21.95937873357228,54.91525423728814,21.95937873357228C55.93220338983051,21.95937873357228,56.94915254237288,21.696535244922337,57.96610169491525,21.696535244922337C58.983050847457626,21.696535244922337,59.99999999999999,22.1505376344086,61.01694915254237,22.1505376344086C62.03389830508474,22.1505376344086,63.05084745762712,21.93548387096774,64.0677966101695,21.93548387096774C65.08474576271186,21.93548387096774,66.10169491525424,22.1505376344086,67.11864406779661,22.1505376344086C68.13559322033899,22.1505376344086,69.15254237288136,22.12664277180406,70.16949152542374,22.078853046594983C71.1864406779661,22.031063321385904,72.20338983050848,21.6726403823178,73.22033898305085,21.6726403823178C74.23728813559322,21.6726403823178,75.2542372881356,22.867383512544805,76.27118644067797,22.867383512544805C77.28813559322033,22.867383512544805,78.30508474576271,21.983273596176822,79.32203389830508,21.983273596176822C80.33898305084746,21.983273596176822,81.35593220338983,22.44922341696535,82.37288135593221,22.65232974910394C83.38983050847457,22.85543608124253,84.40677966101696,23.201911589008365,85.42372881355932,23.201911589008365C86.4406779661017,23.201911589008365,87.45762711864407,20.605336519315017,88.47457627118645,19.4026284348865C89.49152542372882,18.19992035045799,90.50847457627118,15.985663082437277,91.52542372881355,15.985663082437277C92.54237288135593,15.985663082437277,93.55932203389831,16.917562724014335,94.57627118644069,17.371565113500598C95.59322033898306,17.825567502986853,96.61016949152543,18.518518518518523,97.62711864406779,18.70967741935484C98.64406779661016,18.900836320191157,99.66101694915254,18.996415770609318,100.6779661016949,18.996415770609318C101.69491525423729,18.996415770609318,102.71186440677965,15.364396654719235,103.72881355932203,15.364396654719235C104.7457627118644,15.364396654719235,105.76271186440678,17.204301075268816,106.77966101694915,17.204301075268816C107.79661016949153,17.204301075268816,108.8135593220339,14.241338112305852,109.83050847457628,14.241338112305852C110.84745762711864,14.241338112305852,111.86440677966102,15.667064914376741,112.88135593220339,17.204301075268816C113.89830508474576,18.74153723616089,114.91525423728814,23.464755077658303,115.9322033898305,23.464755077658303C116.94915254237289,23.464755077658303,117.96610169491525,15.531660692951018,118.98305084745763,15.531660692951018C120,15.531660692951018,121.01694915254237,16.248506571087216,122.03389830508473,16.248506571087216C123.05084745762711,16.248506571087216,124.0677966101695,5.925925925925926,125.08474576271188,5.925925925925926C126.10169491525424,5.925925925925926,127.11864406779662,26.18080446037433,128.135593220339,31.708482676224612C129.15254237288136,37.23616089207487,130.16949152542372,40,131.1864406779661,40C132.20338983050846,40,133.22033898305085,16.025487853444844,134.23728813559322,15.961768219832738C135.25423728813558,15.89804858622063,136.27118644067798,15.929908403026685,137.28813559322035,15.866188769414578C138.3050847457627,15.80246913580247,139.3220338983051,10.82437275985663,140.33898305084747,10.82437275985663C141.35593220338984,10.82437275985663,142.3728813559322,15.603345280764636,143.38983050847457,15.603345280764636C144.40677966101694,15.603345280764636,145.42372881355934,13.671843886897667,146.4406779661017,11.660692951015532C147.45762711864407,9.649542015133417,148.47457627118644,3.5364396654719243,149.4915254237288,3.5364396654719243C150.50847457627117,3.5364396654719243,151.52542372881356,15.412186379928317,152.54237288135593,15.412186379928317C153.5593220338983,15.412186379928317,154.5762711864407,7.287933094384709,155.59322033898306,7.287933094384709C156.61016949152543,7.287933094384709,157.6271186440678,10.203106332138589,158.64406779661016,10.203106332138589C159.66101694915253,10.203106332138589,160.67796610169492,2.1505376344086002,161.6949152542373,2.1505376344086002C162.71186440677965,2.1505376344086002,163.72881355932205,15.292712066905615,164.74576271186442,15.292712066905615C165.76271186440678,15.292712066905615,166.77966101694915,3.584229390681002,167.79661016949152,3.584229390681002C168.81355932203388,3.584229390681002,169.83050847457628,7.694145758661888,170.84745762711864,7.694145758661888C171.864406779661,7.694145758661888,172.8813559322034,2.4611708482676242,173.89830508474577,2.4611708482676242C174.91525423728814,2.4611708482676242,175.93220338983053,5.4958183990442055,176.9491525423729,5.4958183990442055C177.96610169491527,5.4958183990442055,178.98305084745763,5.483870967741935,180,5.471923536439665"></path><path class="axis-ceiling" stroke-width="1" stroke="black" fill="none" d="M175,0L180,0"></path><text class="axis-ceiling-label" font-family="sans-serif" text-anchor="end" font-size="10px" x="170" y="2.5">1000</text></g></svg>