<svg xmlns="http://www.w3.org/2000/svg" viewBox="0 0 180 60"><g transform="translate(0,20)"><path class="area" fill="rgba(0, 0, 0, 0.2)" d="M0,5.408450704225354C0.42857142857142855,4.67605633802817,0.857142857142857,3.943661971830985,1.2857142857142856,3.605633802816901C2.142857142857143,2.929577464788733,3,2.591549295774649,3.857142857142857,2.591549295774649C4.714285714285714,2.591549295774649,5.571428571428571,4.957746478873237,6.428571428571428,4.957746478873237C6.857142857142857,4.957746478873237,7.285714285714286,2.140845070422537,7.714285714285714,2.140845070422537C10.285714285714286,2.140845070422537,12.857142857142858,5.408450704225354,15.428571428571429,5.408450704225354C17.142857142857142,5.408450704225354,18.857142857142854,5.123004694835678,20.57142857142857,4.845070422535209C21,4.775586854460092,21.428571428571427,4.619718309859153,21.857142857142858,4.619718309859153C23.571428571428573,4.619718309859153,25.285714285714285,4.850988760847917,27,5.07042253521127C31.71428571428571,5.67386541471049,36.42857142857142,8.450704225352116,41.14285714285714,8.450704225352116C42,8.450704225352116,42.857142857142854,0.9014084507042242,43.714285714285715,0.9014084507042242C48.42857142857143,0.9014084507042242,53.142857142857146,6.422535211267606,57.85714285714286,6.422535211267606C58.28571428571429,6.422535211267606,58.714285714285715,3.267605633802817,59.142857142857146,3.267605633802817C61.285714285714285,3.267605633802817,63.42857142857143,4.957746478873237,65.57142857142857,4.957746478873237C66,4.957746478873237,66.42857142857143,4.507042253521125,66.85714285714286,4.507042253521125C67.71428571428572,4.507042253521125,68.57142857142857,4.580967285192636,69.42857142857143,4.619718309859153C72.42857142857143,4.755346896191965,75.42857142857143,5.011997913406367,78.42857142857143,5.07042253521127C82.28571428571429,5.145539906103289,86.14285714285714,5.183098591549298,90,5.183098591549298C90.85714285714285,5.183098591549298,91.71428571428571,4.957746478873237,92.57142857142856,4.957746478873237C98.14285714285712,4.957746478873237,103.71428571428571,5.07042253521127,109.28571428571428,5.07042253521127C111.85714285714285,5.07042253521127,114.42857142857143,4.732394366197181,117,4.732394366197181C117.42857142857143,4.732394366197181,117.85714285714286,4.845070422535209,118.28571428571429,4.845070422535209C118.71428571428572,4.845070422535209,119.14285714285714,4.619718309859153,119.57142857142857,4.619718309859153C121.71428571428571,4.619718309859153,123.85714285714285,4.619718309859153,125.99999999999999,4.619718309859153C126.85714285714285,4.619718309859153,127.71428571428572,4.769953051643189,128.57142857142858,4.845070422535209C129,4.882629107981218,129.42857142857144,4.957746478873237,129.85714285714286,4.957746478873237C130.28571428571428,4.957746478873237,130.71428571428572,4.957746478873237,131.14285714285714,4.957746478873237C132,4.957746478873237,132.85714285714286,4.056338028169013,133.71428571428572,4.056338028169013C134.14285714285714,4.056338028169013,134.57142857142858,4.957746478873237,135,4.957746478873237C135.42857142857142,4.957746478873237,135.85714285714286,4.957746478873237,136.28571428571428,4.957746478873237C136.7142857142857,4.957746478873237,137.14285714285714,4.957746478873237,137.57142857142856,4.957746478873237C139.28571428571428,4.957746478873237,140.99999999999997,4.394366197183097,142.7142857142857,4.394366197183097C143.57142857142856,4.394366197183097,144.42857142857142,4.594679186228482,145.28571428571428,4.732394366197181C145.71428571428572,4.801251956181532,146.14285714285714,4.957746478873237,146.57142857142858,4.957746478873237C147,4.957746478873237,147.42857142857144,4.845070422535209,147.85714285714286,4.845070422535209C148.28571428571428,4.845070422535209,148.71428571428572,4.957746478873237,149.14285714285714,4.957746478873237C149.57142857142858,4.957746478873237,150,4.619718309859153,150.42857142857144,4.619718309859153C150.85714285714286,4.619718309859153,151.2857142857143,4.957746478873237,151.71428571428572,4.957746478873237C152.57142857142858,4.957746478873237,153.42857142857142,3.830985915492957,154.28571428571428,3.830985915492957C154.71428571428572,3.830985915492957,155.14285714285714,4.394366197183097,155.57142857142858,4.394366197183097C156,4.394366197183097,156.42857142857144,4.20657276995305,156.85714285714286,3.943661971830985C157.28571428571428,3.6807511737089196,157.71428571428572,2.816901408450705,158.14285714285714,2.816901408450705C158.57142857142856,2.816901408450705,159,3.3427230046948355,159.42857142857142,4.394366197183097C159.85714285714286,5.4460093896713815,160.28571428571428,40,160.71428571428572,40C161.14285714285714,40,161.57142857142858,5.107981220657274,162,4.957746478873237C162.42857142857142,4.8075117370892,162.85714285714286,4.788732394366195,163.28571428571428,4.732394366197181C163.7142857142857,4.676056338028167,164.14285714285714,4.694835680751172,164.57142857142856,4.619718309859153C165,4.5446009389671325,165.42857142857142,0.9765258215962495,165.85714285714286,0.6760563380281681C166.28571428571428,0.3755868544600934,166.71428571428572,0.22535211267605604,167.14285714285714,0.22535211267605604C167.57142857142856,0.22535211267605604,168,1.0140845070422544,168.42857142857142,1.3521126760563362C168.85714285714286,1.6901408450704256,169.28571428571428,2.253521126760565,169.71428571428572,2.253521126760565C170.14285714285714,2.253521126760565,170.57142857142858,0,171,0C171.42857142857144,0,171.85714285714286,3.830985915492957,172.2857142857143,3.830985915492957C172.71428571428572,3.830985915492957,173.14285714285717,1.8028169014084527,173.57142857142858,1.8028169014084527C174,1.8028169014084527,174.42857142857144,1.8779342723004715,174.85714285714286,2.028169014084509C175.28571428571428,2.1784037558685463,175.71428571428572,3.830985915492957,176.14285714285714,3.830985915492957C176.57142857142858,3.830985915492957,177,2.478873239436621,177.42857142857144,2.478873239436621C177.85714285714286,2.478873239436621,178.2857142857143,2.591549295774649,178.71428571428572,2.591549295774649C179.14285714285714,2.591549295774649,179.57142857142858,2.591549295774649,180,2.591549295774649L180,40C179.57142857142858,40,179.14285714285714,40,178.71428571428572,40C178.2857142857143,40,177.85714285714286,40,177.42857142857144,40C177,40,176.57142857142858,40,176.14285714285714,40C175.71428571428572,40,175.28571428571428,40,174.85714285714286,40C174.42857142857144,40,174,40,173.57142857142858,40C173.14285714285717,40,172.71428571428572,40,172.2857142857143,40C171.85714285714286,40,171.42857142857144,40,171,40C170.57142857142858,40,170.14285714285714,40,169.71428571428572,40C169.28571428571428,40,168.85714285714286,40,168.42857142857142,40C168,40,167.57142857142856,40,167.14285714285714,40C166.71428571428572,40,166.28571428571428,40,165.85714285714286,40C165.42857142857142,40,165,40,164.57142857142856,40C164.14285714285714,40,163.7142857142857,40,163.28571428571428,40C162.85714285714286,40,162.42857142857142,40,162,40C161.57142857142858,40,161.14285714285714,40,160.71428571428572,40C160.28571428571428,40,159.85714285714286,40,159.42857142857142,40C159,40,158.57142857142856,40,158.14285714285714,40C157.71428571428572,40,157.28571428571428,40,156.85714285714286,40C156.42857142857144,40,156,40,155.57142857142858,40C155.14285714285714,40,154.71428571428572,40,154.28571428571428,40C153.42857142857142,40,152.57142857142858,40,151.71428571428572,40C151.2857142857143,40,150.85714285714286,40,150.42857142857144,40C150,40,149.57142857142858,40,149.14285714285714,40C148.71428571428572,40,148.28571428571428,40,147.85714285714286,40C147.42857142857144,40,147,40,146.57142857142858,40C146.14285714285714,40,145.71428571428572,40,145.28571428571428,40C144.42857142857142,40,143.57142857142856,40,142.7142857142857,40C140.99999999999997,40,139.28571428571428,40,137.57142857142856,40C137.14285714285714,40,136.7142857142857,40,136.28571428571428,40C135.85714285714286,40,135.42857142857142,40,135,40C134.57142857142858,40,134.14285714285714,40,133.71428571428572,40C132.85714285714286,40,132,40,131.14285714285714,40C130.71428571428572,40,130.28571428571428,40,129.85714285714286,40C129.42857142857144,40,129,40,128.57142857142858,40C127.71428571428572,40,126.85714285714285,40,125.99999999999999,40C123.85714285714285,40,121.71428571428571,40,119.57142857142857,40C119.14285714285714,40,118.71428571428572,40,118.28571428571429,40C117.85714285714286,40,117.42857142857143,40,117,40C114.42857142857143,40,111.85714285714285,40,109.28571428571428,40C103.71428571428571,40,98.14285714285712,40,92.57142857142856,40C91.71428571428571,40,90.85714285714285,40,90,40C86.14285714285714,40,82.28571428571429,40,78.42857142857143,40C75.42857142857143,40,72.42857142857143,40,69.42857142857143,40C68.57142857142857,40,67.71428571428572,40,66.85714285714286,40C66.42857142857143,40,66,40,65.57142857142857,40C63.42857142857143,40,61.285714285714285,40,59.142857142857146,40C58.714285714285715,40,58.28571428571429,40,57.85714285714286,40C53.142857142857146,40,48.42857142857143,40,43.714285714285715,40C42.857142857142854,40,42,40,41.14285714285714,40C36.42857142857142,40,31.71428571428571,40,27,40C25.285714285714285,40,23.571428571428573,40,21.857142857142858,40C21.428571428571427,40,21,40,20.57142857142857,40C18.857142857142854,40,17.142857142857142,40,15.428571428571429,40C12.857142857142858,40,10.285714285714286,40,7.714285714285714,40C7.285714285714286,40,6.857142857142857,40,6.428571428571428,40C5.571428571428571,40,4.714285714285714,40,3.857142857142857,40C3,40,2.142857142857143,40,1.2857142857142856,40C0.857142857142857,40,0.42857142857142855,40,0,40Z"></path><path class="line" stroke="black" fill="none" d="M0,5.408450704225354C0.42857142857142855,4.67605633802817,0.857142857142857,3.943661971830985,1.2857142857142856,3.605633802816901C2.142857142857143,2.929577464788733,3,2.591549295774649,3.857142857142857,2.591549295774649C4.714285714285714,2.591549295774649,5.571428571428571,4.957746478873237,6.428571428571428,4.957746478873237C6.857142857142857,4.957746478873237,7.285714285714286,2.140845070422537,7.714285714285714,2.140845070422537C10.285714285714286,2.140845070422537,12.857142857142858,5.408450704225354,15.428571428571429,5.408450704225354C17.142857142857142,5.408450704225354,18.857142857142854,5.123004694835678,20.57142857142857,4.845070422535209C21,4.775586854460092,21.428571428571427,4.619718309859153,21.857142857142858,4.619718309859153C23.571428571428573,4.619718309859153,25.285714285714285,4.850988760847917,27,5.07042253521127C31.71428571428571,5.67386541471049,36.42857142857142,8.450704225352116,41.14285714285714,8.450704225352116C42,8.450704225352116,42.857142857142854,0.9014084507042242,43.714285714285715,0.9014084507042242C48.42857142857143,0.9014084507042242,53.142857142857146,6.422535211267606,57.85714285714286,6.422535211267606C58.28571428571429,6.422535211267606,58.714285714285715,3.267605633802817,59.142857142857146,3.267605633802817C61.285714285714285,3.267605633802817,63.42857142857143,4.957746478873237,65.57142857142857,4.957746478873237C66,4.957746478873237,66.42857142857143,4.507042253521125,66.85714285714286,4.507042253521125C67.71428571428572,4.507042253521125,68.57142857142857,4.580967285192636,69.42857142857143,4.619718309859153C72.42857142857143,4.755346896191965,75.42857142857143,5.011997913406367,78.42857142857143,5.07042253521127C82.28571428571429,5.145539906103289,86.14285714285714,5.183098591549298,90,5.183098591549298C90.85714285714285,5.183098591549298,91.71428571428571,4.957746478873237,92.57142857142856,4.957746478873237C98.14285714285712,4.957746478873237,103.71428571428571,5.07042253521127,109.28571428571428,5.07042253521127C111.85714285714285,5.07042253521127,114.42857142857143,4.732394366197181,117,4.732394366197181C117.42857142857143,4.732394366197181,117.85714285714286,4.845070422535209,118.28571428571429,4.845070422535209C118.71428571428572,4.845070422535209,119.14285714285714,4.619718309859153,119.57142857142857,4.619718309859153C121.71428571428571,4.619718309859153,123.85714285714285,4.619718309859153,125.99999999999999,4.619718309859153C126.85714285714285,4.619718309859153,127.71428571428572,4.769953051643189,128.57142857142858,4.845070422535209C129,4.882629107981218,129.42857142857144,4.957746478873237,129.85714285714286,4.957746478873237C130.28571428571428,4.957746478873237,130.71428571428572,4.957746478873237,131.14285714285714,4.957746478873237C132,4.957746478873237,132.85714285714286,4.056338028169013,133.71428571428572,4.056338028169013C134.14285714285714,4.056338028169013,134.57142857142858,4.957746478873237,135,4.957746478873237C135.42857142857142,4.957746478873237,135.85714285714286,4.957746478873237,136.28571428571428,4.957746478873237C136.7142857142857,4.957746478873237,137.14285714285714,4.957746478873237,137.57142857142856,4.957746478873237C139.28571428571428,4.957746478873237,140.99999999999997,4.394366197183097,142.7142857142857,4.394366197183097C143.57142857142856,4.394366197183097,144.42857142857142,4.594679186228482,145.28571428571428,4.732394366197181C145.71428571428572,4.801251956181532,146.14285714285714,4.957746478873237,146.57142857142858,4.957746478873237C147,4.957746478873237,147.42857142857144,4.845070422535209,147.85714285714286,4.845070422535209C148.28571428571428,4.845070422535209,148.71428571428572,4.957746478873237,149.14285714285714,4.957746478873237C149.57142857142858,4.957746478873237,150,4.619718309859153,150.42857142857144,4.619718309859153C150.85714285714286,4.619718309859153,151.2857142857143,4.957746478873237,151.71428571428572,4.957746478873237C152.57142857142858,4.957746478873237,153.42857142857142,3.830985915492957,154.28571428571428,3.830985915492957C154.71428571428572,3.830985915492957,155.14285714285714,4.394366197183097,155.57142857142858,4.394366197183097C156,4.394366197183097,156.42857142857144,4.20657276995305,156.85714285714286,3.943661971830985C157.28571428571428,3.6807511737089196,157.71428571428572,2.816901408450705,158.14285714285714,2.816901408450705C158.57142857142856,2.816901408450705,159,3.3427230046948355,159.42857142857142,4.394366197183097C159.85714285714286,5.4460093896713815,160.28571428571428,40,160.71428571428572,40C161.14285714285714,40,161.57142857142858,5.107981220657274,162,4.957746478873237C162.42857142857142,4.8075117370892,162.85714285714286,4.788732394366195,163.28571428571428,4.732394366197181C163.7142857142857,4.676056338028167,164.14285714285714,4.694835680751172,164.57142857142856,4.619718309859153C165,4.5446009389671325,165.42857142857142,0.9765258215962495,165.85714285714286,0.6760563380281681C166.28571428571428,0.3755868544600934,166.71428571428572,0.22535211267605604,167.14285714285714,0.22535211267605604C167.57142857142856,0.22535211267605604,168,1.0140845070422544,168.42857142857142,1.3521126760563362C168.85714285714286,1.6901408450704256,169.28571428571428,2.253521126760565,169.71428571428572,2.253521126760565C170.14285714285714,2.253521126760565,170.57142857142858,0,171,0C171.42857142857144,0,171.85714285714286,3.830985915492957,172.2857142857143,3.830985915492957C172.71428571428572,3.830985915492957,173.14285714285717,1.8028169014084527,173.57142857142858,1.8028169014084527C174,1.8028169014084527,174.42857142857144,1.8779342723004715,174.85714285714286,2.028169014084509C175.28571428571428,2.1784037558685463,175.71428571428572,3.830985915492957,176.14285714285714,3.830985915492957C176.57142857142858,3.830985915492957,177,2.478873239436621,177.42857142857144,2.478873239436621C177.85714285714286,2.478873239436621,178.2857142857143,2.591549295774649,178.71428571428572,2.591549295774649C179.14285714285714,2.591549295774649,179.57142857142858,2.591549295774649,180,2.591549295774649"></path><path class="axis-ceiling" stroke-width="1" stroke="black" fill="none" d="M175,0L180,0"></path><text class="axis-ceiling-label" font-family="sans-serif" text-anchor="end" font-size="10px" x="170" y="2.5">45</text></g></svg>