<svg xmlns="http://www.w3.org/2000/svg" viewBox="0 0 180 60"><g transform="translate(0,20)"><path class="area" fill="rgba(0, 0, 0, 0.2)" d="M0,40C1.0169491525423728,39.993444772205834,2.0338983050847457,39.98688954441167,3.0508474576271185,39.960668633235C4.067796610169491,39.93444772205834,5.084745762711864,39.69845952146837,6.101694915254237,39.60668633235005C7.11864406779661,39.51491314323173,8.135593220338983,39.41002949852508,9.152542372881356,39.41002949852508C10.169491525423728,39.41002949852508,11.186440677966102,39.567354965585054,12.203389830508474,39.567354965585054C13.220338983050846,39.567354965585054,14.23728813559322,39.174041297935105,15.254237288135592,39.174041297935105C16.271186440677965,39.174041297935105,17.28813559322034,39.37069813176008,18.305084745762713,39.37069813176008C19.322033898305087,39.37069813176008,20.338983050847457,39.265814487053426,21.35593220338983,39.174041297935105C22.372881355932204,39.082268108816784,23.389830508474574,38.82005899705015,24.406779661016948,38.82005899705015C25.423728813559322,38.82005899705015,26.440677966101696,39.68534906588004,27.45762711864407,39.68534906588004C28.47457627118644,39.68534906588004,29.491525423728813,39.39691904293674,30.508474576271183,39.292035398230084C31.525423728813557,39.18715175352343,32.54237288135593,39.05604719764012,33.559322033898304,39.05604719764012C34.57627118644068,39.05604719764012,35.59322033898305,39.09537856440511,36.610169491525426,39.09537856440511C37.6271186440678,39.09537856440511,38.644067796610166,38.43985578498853,39.66101694915254,38.230088495575224C40.67796610169491,38.02032120616192,41.69491525423729,37.93510324483776,42.71186440677966,37.836774827925275C43.728813559322035,37.73844641101279,44.7457627118644,37.77122254998361,45.762711864406775,37.640117994100294C46.77966101694915,37.509013438216975,47.79661016949152,36.4863979023271,48.813559322033896,36.46017699115044C49.83050847457627,36.43395607997378,50.847457627118644,36.44706653556211,51.86440677966102,36.42084562438545C52.88135593220339,36.39462471320879,53.898305084745765,36.2569649295313,54.91525423728814,36.18485742379548C55.93220338983051,36.112749918059656,56.94915254237288,35.9882005899705,57.96610169491525,35.9882005899705C58.983050847457626,35.9882005899705,59.99999999999999,36.08652900688299,61.01694915254237,36.14552605703048C62.03389830508474,36.20452310717798,63.05084745762712,36.2962962962963,64.0677966101695,36.34218289085546C65.08474576271186,36.388069485414626,66.10169491525424,36.38806948541462,67.11864406779661,36.42084562438545C68.13559322033899,36.45362176335628,69.15254237288136,36.466732218944614,70.16949152542374,36.538839724680436C71.1864406779661,36.61094723041626,72.20338983050848,36.85349065880039,73.22033898305085,36.85349065880039C74.23728813559322,36.85349065880039,75.2542372881356,36.53228449688627,76.27118644067797,36.18485742379548C77.28813559322033,35.837430350704686,78.30508474576271,35.175352343493934,79.32203389830508,34.76892822025565C80.33898305084746,34.36250409701737,81.35593220338983,34.08062930186824,82.37288135593221,33.74631268436578C83.38983050847457,33.411996066863324,84.40677966101696,33.04490331039003,85.42372881355932,32.763028515240904C86.4406779661017,32.481153720091775,87.45762711864407,32.45493280891512,88.47457627118645,32.055063913470995C89.49152542372882,31.65519501802688,90.50847457627118,30.8816781383153,91.52542372881355,30.363815142576204C92.54237288135593,29.845952146837096,93.55932203389831,29.387086201245495,94.57627118644069,28.947885939036382C95.59322033898306,28.508685676827273,96.61016949152543,27.728613569321535,97.62711864406779,27.728613569321535C98.64406779661016,27.728613569321535,99.66101694915254,27.820386758439856,100.6779661016949,28.003933136676498C101.69491525423729,28.18747951491314,102.71186440677965,29.459193706981317,103.72881355932203,29.459193706981317C104.7457627118644,29.459193706981317,105.76271186440678,28.947885939036382,106.77966101694915,28.71189773844641C107.79661016949153,28.475909537856438,108.8135593220339,28.48901999344477,109.83050847457628,28.043264503441492C110.84745762711864,27.597509013438216,111.86440677966102,25.84070796460177,112.88135593220339,25.84070796460177C113.89830508474576,25.84070796460177,114.91525423728814,27.682726974762378,115.9322033898305,29.262536873156343C116.94915254237289,30.842346771550314,117.96610169491525,35.319567354965585,118.98305084745763,35.319567354965585C120,35.319567354965585,121.01694915254237,35.21468371025893,122.03389830508473,35.004916420845625C123.05084745762711,34.79514913143232,124.0677966101695,33.71353654539496,125.08474576271188,33.23500491642085C126.10169491525424,32.756473287446745,127.11864406779662,32.23861029170764,128.135593220339,32.133726647000984C129.15254237288136,32.02884300229433,130.16949152542372,31.976401179941007,131.1864406779661,31.976401179941007C132.20338983050846,31.976401179941007,133.22033898305085,33.31366764995083,134.23728813559322,33.31366764995083C135.25423728813558,33.31366764995083,136.27118644067798,28.770894788593903,137.28813559322035,26.705998033431662C138.3050847457627,24.64110127826942,139.3220338983051,22.22877745001639,140.33898305084747,20.924287118977386C141.35593220338984,19.619796787938395,142.3728813559322,19.4428056374959,143.38983050847457,18.87905604719764C144.40677966101694,18.31530645689937,145.42372881355934,18.10553916748607,146.4406779661017,17.541789577187807C147.45762711864407,16.978039986889545,148.47457627118644,15.549000327761387,149.4915254237288,15.496558505408062C150.50847457627117,15.444116683054737,151.52542372881356,15.470337594231399,152.54237288135593,15.417895771878074C153.5593220338983,15.365453949524749,154.5762711864407,13.52999016715831,155.59322033898306,13.52999016715831C156.61016949152543,13.52999016715831,157.6271186440678,14.513274336283185,158.64406779661016,14.513274336283185C159.66101694915253,14.513274336283185,160.67796610169492,11.707636840380202,161.6949152542373,11.44542772861357C162.71186440677965,11.183218616846938,163.72881355932205,11.307767944936092,164.74576271186442,11.052114060963621C165.76271186440678,10.796460176991154,166.77966101694915,9.911504424778762,167.79661016949152,9.911504424778762C168.81355932203388,9.911504424778762,169.83050847457628,12.500819403474269,170.84745762711864,13.647984267453293C171.864406779661,14.795149131432316,172.8813559322034,15.811209439528023,173.89830508474577,16.7944936086529C174.91525423728814,17.77777777777778,175.93220338983053,19.521468371025897,176.9491525423729,19.54768928220256C177.96610169491527,19.57391019337922,178.98305084745763,19.580465421173386,180,19.587020648967552L180,40C178.98305084745763,40,177.96610169491527,40,176.9491525423729,40C175.93220338983053,40,174.91525423728814,40,173.89830508474577,40C172.8813559322034,40,171.864406779661,40,170.84745762711864,40C169.83050847457628,40,168.81355932203388,40,167.79661016949152,40C166.77966101694915,40,165.76271186440678,40,164.74576271186442,40C163.72881355932205,40,162.71186440677965,40,161.6949152542373,40C160.67796610169492,40,159.66101694915253,40,158.64406779661016,40C157.6271186440678,40,156.61016949152543,40,155.59322033898306,40C154.5762711864407,40,153.5593220338983,40,152.54237288135593,40C151.52542372881356,40,150.50847457627117,40,149.4915254237288,40C148.47457627118644,40,147.45762711864407,40,146.4406779661017,40C145.42372881355934,40,144.40677966101694,40,143.38983050847457,40C142.3728813559322,40,141.35593220338984,40,140.33898305084747,40C139.3220338983051,40,138.3050847457627,40,137.28813559322035,40C136.27118644067798,40,135.25423728813558,40,134.23728813559322,40C133.22033898305085,40,132.20338983050846,40,131.1864406779661,40C130.16949152542372,40,129.15254237288136,40,128.135593220339,40C127.11864406779662,40,126.10169491525424,40,125.08474576271188,40C124.0677966101695,40,123.05084745762711,40,122.03389830508473,40C121.01694915254237,40,120,40,118.98305084745763,40C117.96610169491525,40,116.94915254237289,40,115.9322033898305,40C114.91525423728814,40,113.89830508474576,40,112.88135593220339,40C111.86440677966102,40,110.84745762711864,40,109.83050847457628,40C108.8135593220339,40,107.79661016949153,40,106.77966101694915,40C105.76271186440678,40,104.7457627118644,40,103.72881355932203,40C102.71186440677965,40,101.69491525423729,40,100.6779661016949,40C99.66101694915254,40,98.64406779661016,40,97.62711864406779,40C96.61016949152543,40,95.59322033898306,40,94.57627118644069,40C93.55932203389831,40,92.54237288135593,40,91.52542372881355,40C90.50847457627118,40,89.49152542372882,40,88.47457627118645,40C87.45762711864407,40,86.4406779661017,40,85.42372881355932,40C84.40677966101696,40,83.38983050847457,40,82.37288135593221,40C81.35593220338983,40,80.33898305084746,40,79.32203389830508,40C78.30508474576271,40,77.28813559322033,40,76.27118644067797,40C75.2542372881356,40,74.23728813559322,40,73.22033898305085,40C72.20338983050848,40,71.1864406779661,40,70.16949152542374,40C69.15254237288136,40,68.13559322033899,40,67.11864406779661,40C66.10169491525424,40,65.08474576271186,40,64.0677966101695,40C63.05084745762712,40,62.03389830508474,40,61.01694915254237,40C59.99999999999999,40,58.983050847457626,40,57.96610169491525,40C56.94915254237288,40,55.93220338983051,40,54.91525423728814,40C53.898305084745765,40,52.88135593220339,40,51.86440677966102,40C50.847457627118644,40,49.83050847457627,40,48.813559322033896,40C47.79661016949152,40,46.77966101694915,40,45.762711864406775,40C44.7457627118644,40,43.728813559322035,40,42.71186440677966,40C41.69491525423729,40,40.67796610169491,40,39.66101694915254,40C38.644067796610166,40,37.6271186440678,40,36.610169491525426,40C35.59322033898305,40,34.57627118644068,40,33.559322033898304,40C32.54237288135593,40,31.525423728813557,40,30.508474576271183,40C29.491525423728813,40,28.47457627118644,40,27.45762711864407,40C26.440677966101696,40,25.423728813559322,40,24.406779661016948,40C23.389830508474574,40,22.372881355932204,40,21.35593220338983,40C20.338983050847457,40,19.322033898305087,40,18.305084745762713,40C17.28813559322034,40,16.271186440677965,40,15.254237288135592,40C14.23728813559322,40,13.220338983050846,40,12.203389830508474,40C11.186440677966102,40,10.169491525423728,40,9.152542372881356,40C8.135593220338983,40,7.11864406779661,40,6.101694915254237,40C5.084745762711864,40,4.067796610169491,40,3.0508474576271185,40C2.0338983050847457,40,1.0169491525423728,40,0,40Z"></path><path class="line" stroke="black" fill="none" d="M0,40C1.0169491525423728,39.993444772205834,2.0338983050847457,39.98688954441167,3.0508474576271185,39.960668633235C4.067796610169491,39.93444772205834,5.084745762711864,39.69845952146837,6.101694915254237,39.60668633235005C7.11864406779661,39.51491314323173,8.135593220338983,39.41002949852508,9.152542372881356,39.41002949852508C10.169491525423728,39.41002949852508,11.186440677966102,39.567354965585054,12.203389830508474,39.567354965585054C13.220338983050846,39.567354965585054,14.23728813559322,39.174041297935105,15.254237288135592,39.174041297935105C16.271186440677965,39.174041297935105,17.28813559322034,39.37069813176008,18.305084745762713,39.37069813176008C19.322033898305087,39.37069813176008,20.338983050847457,39.265814487053426,21.35593220338983,39.174041297935105C22.372881355932204,39.082268108816784,23.389830508474574,38.82005899705015,24.406779661016948,38.82005899705015C25.423728813559322,38.82005899705015,26.440677966101696,39.68534906588004,27.45762711864407,39.68534906588004C28.47457627118644,39.68534906588004,29.491525423728813,39.39691904293674,30.508474576271183,39.292035398230084C31.525423728813557,39.18715175352343,32.54237288135593,39.05604719764012,33.559322033898304,39.05604719764012C34.57627118644068,39.05604719764012,35.59322033898305,39.09537856440511,36.610169491525426,39.09537856440511C37.6271186440678,39.09537856440511,38.644067796610166,38.43985578498853,39.66101694915254,38.230088495575224C40.67796610169491,38.02032120616192,41.69491525423729,37.93510324483776,42.71186440677966,37.836774827925275C43.728813559322035,37.73844641101279,44.7457627118644,37.77122254998361,45.762711864406775,37.640117994100294C46.77966101694915,37.509013438216975,47.79661016949152,36.4863979023271,48.813559322033896,36.46017699115044C49.83050847457627,36.43395607997378,50.847457627118644,36.44706653556211,51.86440677966102,36.42084562438545C52.88135593220339,36.39462471320879,53.898305084745765,36.2569649295313,54.91525423728814,36.18485742379548C55.93220338983051,36.112749918059656,56.94915254237288,35.9882005899705,57.96610169491525,35.9882005899705C58.983050847457626,35.9882005899705,59.99999999999999,36.08652900688299,61.01694915254237,36.14552605703048C62.03389830508474,36.20452310717798,63.05084745762712,36.2962962962963,64.0677966101695,36.34218289085546C65.08474576271186,36.388069485414626,66.10169491525424,36.38806948541462,67.11864406779661,36.42084562438545C68.13559322033899,36.45362176335628,69.15254237288136,36.466732218944614,70.16949152542374,36.538839724680436C71.1864406779661,36.61094723041626,72.20338983050848,36.85349065880039,73.22033898305085,36.85349065880039C74.23728813559322,36.85349065880039,75.2542372881356,36.53228449688627,76.27118644067797,36.18485742379548C77.28813559322033,35.837430350704686,78.30508474576271,35.175352343493934,79.32203389830508,34.76892822025565C80.33898305084746,34.36250409701737,81.35593220338983,34.08062930186824,82.37288135593221,33.74631268436578C83.38983050847457,33.411996066863324,84.40677966101696,33.04490331039003,85.42372881355932,32.763028515240904C86.4406779661017,32.481153720091775,87.45762711864407,32.45493280891512,88.47457627118645,32.055063913470995C89.49152542372882,31.65519501802688,90.50847457627118,30.8816781383153,91.52542372881355,30.363815142576204C92.54237288135593,29.845952146837096,93.55932203389831,29.387086201245495,94.57627118644069,28.947885939036382C95.59322033898306,28.508685676827273,96.61016949152543,27.728613569321535,97.62711864406779,27.728613569321535C98.64406779661016,27.728613569321535,99.66101694915254,27.820386758439856,100.6779661016949,28.003933136676498C101.69491525423729,28.18747951491314,102.71186440677965,29.459193706981317,103.72881355932203,29.459193706981317C104.7457627118644,29.459193706981317,105.76271186440678,28.947885939036382,106.77966101694915,28.71189773844641C107.79661016949153,28.475909537856438,108.8135593220339,28.48901999344477,109.83050847457628,28.043264503441492C110.84745762711864,27.597509013438216,111.86440677966102,25.84070796460177,112.88135593220339,25.84070796460177C113.89830508474576,25.84070796460177,114.91525423728814,27.682726974762378,115.9322033898305,29.262536873156343C116.94915254237289,30.842346771550314,117.96610169491525,35.319567354965585,118.98305084745763,35.319567354965585C120,35.319567354965585,121.01694915254237,35.21468371025893,122.03389830508473,35.004916420845625C123.05084745762711,34.79514913143232,124.0677966101695,33.71353654539496,125.08474576271188,33.23500491642085C126.10169491525424,32.756473287446745,127.11864406779662,32.23861029170764,128.135593220339,32.133726647000984C129.15254237288136,32.02884300229433,130.16949152542372,31.976401179941007,131.1864406779661,31.976401179941007C132.20338983050846,31.976401179941007,133.22033898305085,33.31366764995083,134.23728813559322,33.31366764995083C135.25423728813558,33.31366764995083,136.27118644067798,28.770894788593903,137.28813559322035,26.705998033431662C138.3050847457627,24.64110127826942,139.3220338983051,22.22877745001639,140.33898305084747,20.924287118977386C141.35593220338984,19.619796787938395,142.3728813559322,19.4428056374959,143.38983050847457,18.87905604719764C144.40677966101694,18.31530645689937,145.42372881355934,18.10553916748607,146.4406779661017,17.541789577187807C147.45762711864407,16.978039986889545,148.47457627118644,15.549000327761387,149.4915254237288,15.496558505408062C150.50847457627117,15.444116683054737,151.52542372881356,15.470337594231399,152.54237288135593,15.417895771878074C153.5593220338983,15.365453949524749,154.5762711864407,13.52999016715831,155.59322033898306,13.52999016715831C156.61016949152543,13.52999016715831,157.6271186440678,14.513274336283185,158.64406779661016,14.513274336283185C159.66101694915253,14.513274336283185,160.67796610169492,11.707636840380202,161.6949152542373,11.44542772861357C162.71186440677965,11.183218616846938,163.72881355932205,11.307767944936092,164.74576271186442,11.052114060963621C165.76271186440678,10.796460176991154,166.77966101694915,9.911504424778762,167.79661016949152,9.911504424778762C168.81355932203388,9.911504424778762,169.83050847457628,12.500819403474269,170.84745762711864,13.647984267453293C171.864406779661,14.795149131432316,172.8813559322034,15.811209439528023,173.89830508474577,16.7944936086529C174.91525423728814,17.77777777777778,175.93220338983053,19.521468371025897,176.9491525423729,19.54768928220256C177.96610169491527,19.57391019337922,178.98305084745763,19.580465421173386,180,19.587020648967552"></path><path class="axis-ceiling" stroke-width="1" stroke="black" fill="none" d="M175,0L180,0"></path><text class="axis-ceiling-label" font-family="sans-serif" text-anchor="end" font-size="10px" x="170" y="2.5">1000</text></g></svg>