<svg xmlns="http://www.w3.org/2000/svg" viewBox="0 0 180 60"><g transform="translate(0,20)"><path class="area" fill="rgba(0, 0, 0, 0.2)" d="M0,32.62577777777778C1.0169491525423728,32.825111111111106,2.0338983050847457,33.02444444444444,3.0508474576271185,33.199999999999996C4.067796610169491,33.37555555555555,5.084745762711864,33.52,6.101694915254237,33.67911111111111C7.11864406779661,33.83822222222222,8.135593220338983,34.03155555555555,9.152542372881356,34.154666666666664C10.169491525423728,34.27777777777777,11.186440677966102,34.330370370370375,12.203389830508474,34.41777777777778C13.220338983050846,34.505185185185184,14.23728813559322,34.6162962962963,15.254237288135592,34.67911111111111C16.271186440677965,34.741925925925926,17.28813559322034,34.77807407407407,18.305084745762713,34.794666666666664C19.322033898305087,34.81125925925926,20.338983050847457,34.81955555555555,21.35593220338983,34.81955555555555C22.372881355932204,34.81955555555555,23.389830508474574,34.80474074074074,24.406779661016948,34.775111111111116C25.423728813559322,34.74548148148149,26.440677966101696,34.598222222222226,27.45762711864407,34.584C28.47457627118644,34.56977777777778,29.491525423728813,34.562666666666665,30.508474576271183,34.562666666666665C31.525423728813557,34.562666666666665,32.54237288135593,34.56888888888889,33.559322033898304,34.56888888888889C34.57627118644068,34.56888888888889,35.59322033898305,34.56355555555556,36.610169491525426,34.55288888888889C37.6271186440678,34.542222222222215,38.644067796610166,34.03970370370371,39.66101694915254,33.925333333333334C40.67796610169491,33.81096296296296,41.69491525423729,33.84948148148148,42.71186440677966,33.75377777777778C43.728813559322035,33.65807407407407,44.7457627118644,33.45392592592592,45.762711864406775,33.35111111111111C46.77966101694915,33.248296296296296,47.79661016949152,33.24014814814815,48.813559322033896,33.13688888888889C49.83050847457627,33.03362962962963,50.847457627118644,32.86651851851852,51.86440677966102,32.73155555555555C52.88135593220339,32.596592592592586,53.898305084745765,32.46666666666666,54.91525423728814,32.32711111111111C55.93220338983051,32.187555555555555,56.94915254237288,32.01777777777778,57.96610169491525,31.894222222222226C58.983050847457626,31.77066666666667,59.99999999999999,31.726666666666667,61.01694915254237,31.58577777777778C62.03389830508474,31.44488888888889,63.05084745762712,31.301037037037037,64.0677966101695,31.04888888888889C65.08474576271186,30.79674074074074,66.10169491525424,30.365185185185183,67.11864406779661,30.072888888888887C68.13559322033899,29.78059259259259,69.15254237288136,29.518074074074075,70.16949152542374,29.29511111111111C71.1864406779661,29.07214814814815,72.20338983050848,28.956148148148145,73.22033898305085,28.73511111111111C74.23728813559322,28.514074074074074,75.2542372881356,28.25037037037037,76.27118644067797,27.968888888888888C77.28813559322033,27.687407407407406,78.30508474576271,27.33777777777778,79.32203389830508,27.046222222222227C80.33898305084746,26.75466666666667,81.35593220338983,26.592148148148148,82.37288135593221,26.219555555555555C83.38983050847457,25.846962962962962,84.40677966101696,25.294666666666668,85.42372881355932,24.81066666666667C86.4406779661017,24.326666666666668,87.45762711864407,23.887407407407412,88.47457627118645,23.315555555555555C89.49152542372882,22.743703703703705,90.50847457627118,21.935999999999996,91.52542372881355,21.379555555555555C92.54237288135593,20.823111111111107,93.55932203389831,20.44162962962963,94.57627118644069,19.976888888888887C95.59322033898306,19.51214814814815,96.61016949152543,19.128,97.62711864406779,18.59111111111111C98.64406779661016,18.054222222222222,99.66101694915254,16.891851851851847,100.6779661016949,16.755555555555553C101.69491525423729,16.61925925925926,102.71186440677965,16.687407407407406,103.72881355932203,16.551111111111112C104.7457627118644,16.414814814814818,105.76271186440678,15.421925925925924,106.77966101694915,14.885333333333332C107.79661016949153,14.348740740740737,108.8135593220339,13.872296296296295,109.83050847457628,13.331555555555553C110.84745762711864,12.790814814814814,111.86440677966102,12.120148148148147,112.88135593220339,11.640888888888888C113.89830508474576,11.16162962962963,114.91525423728814,10.803703703703702,115.9322033898305,10.456C116.94915254237289,10.108296296296295,117.96610169491525,9.896592592592594,118.98305084745763,9.554666666666666C120,9.212740740740742,121.01694915254237,8.786222222222221,122.03389830508473,8.404444444444445C123.05084745762711,8.022666666666666,124.0677966101695,7.628592592592594,125.08474576271188,7.263999999999999C126.10169491525424,6.899407407407408,127.11864406779662,6.570962962962964,128.135593220339,6.21688888888889C129.15254237288136,5.862814814814817,130.16949152542372,5.461629629629628,131.1864406779661,5.139555555555555C132.20338983050846,4.8174814814814795,133.22033898305085,4.284444444444446,134.23728813559322,4.284444444444446C135.25423728813558,4.284444444444446,136.27118644067798,5.177925925925926,137.28813559322035,5.462222222222222C138.3050847457627,5.746518518518517,139.3220338983051,5.911999999999998,140.33898305084747,5.990222222222221C141.35593220338984,6.068444444444443,142.3728813559322,6.107555555555555,143.38983050847457,6.107555555555555C144.40677966101694,6.107555555555555,145.42372881355934,6.052148148148147,146.4406779661017,5.941333333333332C147.45762711864407,5.8305185185185175,148.47457627118644,5.38074074074074,149.4915254237288,5.157333333333334C150.50847457627117,4.933925925925926,151.52542372881356,4.60088888888889,152.54237288135593,4.60088888888889C153.5593220338983,4.60088888888889,154.5762711864407,5.046222222222221,155.59322033898306,5.300444444444445C156.61016949152543,5.554666666666667,157.6271186440678,5.901037037037039,158.64406779661016,6.126222222222224C159.66101694915253,6.351407407407411,160.67796610169492,6.627851851851855,161.6949152542373,6.651555555555557C162.71186440677965,6.675259259259259,163.72881355932205,6.6634074074074086,164.74576271186442,6.68711111111111C165.76271186440678,6.710814814814812,166.77966101694915,6.7967407407407405,167.79661016949152,7.016C168.81355932203388,7.235259259259262,169.83050847457628,7.920148148148149,170.84745762711864,8.462222222222223C171.864406779661,9.004296296296298,172.8813559322034,9.616740740740742,173.89830508474577,10.268444444444444C174.91525423728814,10.920148148148147,175.93220338983053,11.68044444444444,176.9491525423729,12.372444444444444C177.96610169491527,13.06444444444444,178.98305084745763,13.742444444444443,180,14.420444444444446L180,40C178.98305084745763,40,177.96610169491527,40,176.9491525423729,40C175.93220338983053,40,174.91525423728814,40,173.89830508474577,40C172.8813559322034,40,171.864406779661,40,170.84745762711864,40C169.83050847457628,40,168.81355932203388,40,167.79661016949152,40C166.77966101694915,40,165.76271186440678,40,164.74576271186442,40C163.72881355932205,40,162.71186440677965,40,161.6949152542373,40C160.67796610169492,40,159.66101694915253,40,158.64406779661016,40C157.6271186440678,40,156.61016949152543,40,155.59322033898306,40C154.5762711864407,40,153.5593220338983,40,152.54237288135593,40C151.52542372881356,40,150.50847457627117,40,149.4915254237288,40C148.47457627118644,40,147.45762711864407,40,146.4406779661017,40C145.42372881355934,40,144.40677966101694,40,143.38983050847457,40C142.3728813559322,40,141.35593220338984,40,140.33898305084747,40C139.3220338983051,40,138.3050847457627,40,137.28813559322035,40C136.27118644067798,40,135.25423728813558,40,134.23728813559322,40C133.22033898305085,40,132.20338983050846,40,131.1864406779661,40C130.16949152542372,40,129.15254237288136,40,128.135593220339,40C127.11864406779662,40,126.10169491525424,40,125.08474576271188,40C124.0677966101695,40,123.05084745762711,40,122.03389830508473,40C121.01694915254237,40,120,40,118.98305084745763,40C117.96610169491525,40,116.94915254237289,40,115.9322033898305,40C114.91525423728814,40,113.89830508474576,40,112.88135593220339,40C111.86440677966102,40,110.84745762711864,40,109.83050847457628,40C108.8135593220339,40,107.79661016949153,40,106.77966101694915,40C105.76271186440678,40,104.7457627118644,40,103.72881355932203,40C102.71186440677965,40,101.69491525423729,40,100.6779661016949,40C99.66101694915254,40,98.64406779661016,40,97.62711864406779,40C96.61016949152543,40,95.59322033898306,40,94.57627118644069,40C93.55932203389831,40,92.54237288135593,40,91.52542372881355,40C90.50847457627118,40,89.49152542372882,40,88.47457627118645,40C87.45762711864407,40,86.4406779661017,40,85.42372881355932,40C84.40677966101696,40,83.38983050847457,40,82.37288135593221,40C81.35593220338983,40,80.33898305084746,40,79.32203389830508,40C78.30508474576271,40,77.28813559322033,40,76.27118644067797,40C75.2542372881356,40,74.23728813559322,40,73.22033898305085,40C72.20338983050848,40,71.1864406779661,40,70.16949152542374,40C69.15254237288136,40,68.13559322033899,40,67.11864406779661,40C66.10169491525424,40,65.08474576271186,40,64.0677966101695,40C63.05084745762712,40,62.03389830508474,40,61.01694915254237,40C59.99999999999999,40,58.983050847457626,40,57.96610169491525,40C56.94915254237288,40,55.93220338983051,40,54.91525423728814,40C53.898305084745765,40,52.88135593220339,40,51.86440677966102,40C50.847457627118644,40,49.83050847457627,40,48.813559322033896,40C47.79661016949152,40,46.77966101694915,40,45.762711864406775,40C44.7457627118644,40,43.728813559322035,40,42.71186440677966,40C41.69491525423729,40,40.67796610169491,40,39.66101694915254,40C38.644067796610166,40,37.6271186440678,40,36.610169491525426,40C35.59322033898305,40,34.57627118644068,40,33.559322033898304,40C32.54237288135593,40,31.525423728813557,40,30.508474576271183,40C29.491525423728813,40,28.47457627118644,40,27.45762711864407,40C26.440677966101696,40,25.423728813559322,40,24.406779661016948,40C23.389830508474574,40,22.372881355932204,40,21.35593220338983,40C20.338983050847457,40,19.322033898305087,40,18.305084745762713,40C17.28813559322034,40,16.271186440677965,40,15.254237288135592,40C14.23728813559322,40,13.220338983050846,40,12.203389830508474,40C11.186440677966102,40,10.169491525423728,40,9.152542372881356,40C8.135593220338983,40,7.11864406779661,40,6.101694915254237,40C5.084745762711864,40,4.067796610169491,40,3.0508474576271185,40C2.0338983050847457,40,1.0169491525423728,40,0,40Z"></path><path class="line" stroke="black" fill="none" d="M0,32.62577777777778C1.0169491525423728,32.825111111111106,2.0338983050847457,33.02444444444444,3.0508474576271185,33.199999999999996C4.067796610169491,33.37555555555555,5.084745762711864,33.52,6.101694915254237,33.67911111111111C7.11864406779661,33.83822222222222,8.135593220338983,34.03155555555555,9.152542372881356,34.154666666666664C10.169491525423728,34.27777777777777,11.186440677966102,34.330370370370375,12.203389830508474,34.41777777777778C13.220338983050846,34.505185185185184,14.23728813559322,34.6162962962963,15.254237288135592,34.67911111111111C16.271186440677965,34.741925925925926,17.28813559322034,34.77807407407407,18.305084745762713,34.794666666666664C19.322033898305087,34.81125925925926,20.338983050847457,34.81955555555555,21.35593220338983,34.81955555555555C22.372881355932204,34.81955555555555,23.389830508474574,34.80474074074074,24.406779661016948,34.775111111111116C25.423728813559322,34.74548148148149,26.440677966101696,34.598222222222226,27.45762711864407,34.584C28.47457627118644,34.56977777777778,29.491525423728813,34.562666666666665,30.508474576271183,34.562666666666665C31.525423728813557,34.562666666666665,32.54237288135593,34.56888888888889,33.559322033898304,34.56888888888889C34.57627118644068,34.56888888888889,35.59322033898305,34.56355555555556,36.610169491525426,34.55288888888889C37.6271186440678,34.542222222222215,38.644067796610166,34.03970370370371,39.66101694915254,33.925333333333334C40.67796610169491,33.81096296296296,41.69491525423729,33.84948148148148,42.71186440677966,33.75377777777778C43.728813559322035,33.65807407407407,44.7457627118644,33.45392592592592,45.762711864406775,33.35111111111111C46.77966101694915,33.248296296296296,47.79661016949152,33.24014814814815,48.813559322033896,33.13688888888889C49.83050847457627,33.03362962962963,50.847457627118644,32.86651851851852,51.86440677966102,32.73155555555555C52.88135593220339,32.596592592592586,53.898305084745765,32.46666666666666,54.91525423728814,32.32711111111111C55.93220338983051,32.187555555555555,56.94915254237288,32.01777777777778,57.96610169491525,31.894222222222226C58.983050847457626,31.77066666666667,59.99999999999999,31.726666666666667,61.01694915254237,31.58577777777778C62.03389830508474,31.44488888888889,63.05084745762712,31.301037037037037,64.0677966101695,31.04888888888889C65.08474576271186,30.79674074074074,66.10169491525424,30.365185185185183,67.11864406779661,30.072888888888887C68.13559322033899,29.78059259259259,69.15254237288136,29.518074074074075,70.16949152542374,29.29511111111111C71.1864406779661,29.07214814814815,72.20338983050848,28.956148148148145,73.22033898305085,28.73511111111111C74.23728813559322,28.514074074074074,75.2542372881356,28.25037037037037,76.27118644067797,27.968888888888888C77.28813559322033,27.687407407407406,78.30508474576271,27.33777777777778,79.32203389830508,27.046222222222227C80.33898305084746,26.75466666666667,81.35593220338983,26.592148148148148,82.37288135593221,26.219555555555555C83.38983050847457,25.846962962962962,84.40677966101696,25.294666666666668,85.42372881355932,24.81066666666667C86.4406779661017,24.326666666666668,87.45762711864407,23.887407407407412,88.47457627118645,23.315555555555555C89.49152542372882,22.743703703703705,90.50847457627118,21.935999999999996,91.52542372881355,21.379555555555555C92.54237288135593,20.823111111111107,93.55932203389831,20.44162962962963,94.57627118644069,19.976888888888887C95.59322033898306,19.51214814814815,96.61016949152543,19.128,97.62711864406779,18.59111111111111C98.64406779661016,18.054222222222222,99.66101694915254,16.891851851851847,100.6779661016949,16.755555555555553C101.69491525423729,16.61925925925926,102.71186440677965,16.687407407407406,103.72881355932203,16.551111111111112C104.7457627118644,16.414814814814818,105.76271186440678,15.421925925925924,106.77966101694915,14.885333333333332C107.79661016949153,14.348740740740737,108.8135593220339,13.872296296296295,109.83050847457628,13.331555555555553C110.84745762711864,12.790814814814814,111.86440677966102,12.120148148148147,112.88135593220339,11.640888888888888C113.89830508474576,11.16162962962963,114.91525423728814,10.803703703703702,115.9322033898305,10.456C116.94915254237289,10.108296296296295,117.96610169491525,9.896592592592594,118.98305084745763,9.554666666666666C120,9.212740740740742,121.01694915254237,8.786222222222221,122.03389830508473,8.404444444444445C123.05084745762711,8.022666666666666,124.0677966101695,7.628592592592594,125.08474576271188,7.263999999999999C126.10169491525424,6.899407407407408,127.11864406779662,6.570962962962964,128.135593220339,6.21688888888889C129.15254237288136,5.862814814814817,130.16949152542372,5.461629629629628,131.1864406779661,5.139555555555555C132.20338983050846,4.8174814814814795,133.22033898305085,4.284444444444446,134.23728813559322,4.284444444444446C135.25423728813558,4.284444444444446,136.27118644067798,5.177925925925926,137.28813559322035,5.462222222222222C138.3050847457627,5.746518518518517,139.3220338983051,5.911999999999998,140.33898305084747,5.990222222222221C141.35593220338984,6.068444444444443,142.3728813559322,6.107555555555555,143.38983050847457,6.107555555555555C144.40677966101694,6.107555555555555,145.42372881355934,6.052148148148147,146.4406779661017,5.941333333333332C147.45762711864407,5.8305185185185175,148.47457627118644,5.38074074074074,149.4915254237288,5.157333333333334C150.50847457627117,4.933925925925926,151.52542372881356,4.60088888888889,152.54237288135593,4.60088888888889C153.5593220338983,4.60088888888889,154.5762711864407,5.046222222222221,155.59322033898306,5.300444444444445C156.61016949152543,5.554666666666667,157.6271186440678,5.901037037037039,158.64406779661016,6.126222222222224C159.66101694915253,6.351407407407411,160.67796610169492,6.627851851851855,161.6949152542373,6.651555555555557C162.71186440677965,6.675259259259259,163.72881355932205,6.6634074074074086,164.74576271186442,6.68711111111111C165.76271186440678,6.710814814814812,166.77966101694915,6.7967407407407405,167.79661016949152,7.016C168.81355932203388,7.235259259259262,169.83050847457628,7.920148148148149,170.84745762711864,8.462222222222223C171.864406779661,9.004296296296298,172.8813559322034,9.616740740740742,173.89830508474577,10.268444444444444C174.91525423728814,10.920148148148147,175.93220338983053,11.68044444444444,176.9491525423729,12.372444444444444C177.96610169491527,13.06444444444444,178.98305084745763,13.742444444444443,180,14.420444444444446"></path><path class="axis-ceiling" stroke-width="1" stroke="black" fill="none" d="M175,0L180,0"></path><text class="axis-ceiling-label" font-family="sans-serif" text-anchor="end" font-size="10px" x="170" y="2.5">45000</text></g></svg>