<svg xmlns="http://www.w3.org/2000/svg" viewBox="0 0 180 60"><g transform="translate(0,20)"><path class="area" fill="rgba(0, 0, 0, 0.2)" d="M0,22.653333333333336C1.0169491525423728,23.05777777777778,2.0338983050847457,23.462222222222223,3.0508474576271185,24.333333333333336C4.067796610169491,25.204444444444448,5.084745762711864,27.880000000000003,6.101694915254237,27.880000000000003C7.11864406779661,27.880000000000003,8.135593220338983,27.037777777777773,9.152542372881356,26.559999999999995C10.169491525423728,26.082222222222217,11.186440677966102,25.013333333333332,12.203389830508474,25.013333333333332C13.220338983050846,25.013333333333332,14.23728813559322,26.74222222222222,15.254237288135592,27.626666666666665C16.271186440677965,28.51111111111111,17.28813559322034,30.32,18.305084745762713,30.32C19.322033898305087,30.32,20.338983050847457,29.226666666666667,21.35593220338983,29.226666666666667C22.372881355932204,29.226666666666667,23.389830508474574,29.253333333333334,24.406779661016948,29.30666666666667C25.423728813559322,29.360000000000003,26.440677966101696,30.844444444444445,27.45762711864407,31.586666666666666C28.47457627118644,32.32888888888888,29.491525423728813,33.76,30.508474576271183,33.76C31.525423728813557,33.76,32.54237288135593,33.48,33.559322033898304,33.239999999999995C34.57627118644068,32.99999999999999,35.59322033898305,32.32,36.610169491525426,32.32C37.6271186440678,32.32,38.644067796610166,33.22666666666667,39.66101694915254,33.22666666666667C40.67796610169491,33.22666666666667,41.69491525423729,32.693333333333335,42.71186440677966,32.693333333333335C43.728813559322035,32.693333333333335,44.7457627118644,32.76444444444444,45.762711864406775,32.81333333333333C46.77966101694915,32.86222222222222,47.79661016949152,32.87111111111111,48.813559322033896,32.986666666666665C49.83050847457627,33.10222222222222,50.847457627118644,35.44,51.86440677966102,35.44C52.88135593220339,35.44,53.898305084745765,32.413333333333334,54.91525423728814,32.413333333333334C55.93220338983051,32.413333333333334,56.94915254237288,33.18666666666667,57.96610169491525,33.18666666666667C58.983050847457626,33.18666666666667,59.99999999999999,32.05555555555556,61.01694915254237,31.68C62.03389830508474,31.304444444444442,63.05084745762712,30.933333333333334,64.0677966101695,30.933333333333334C65.08474576271186,30.933333333333334,66.10169491525424,32.86666666666667,67.11864406779661,32.86666666666667C68.13559322033899,32.86666666666667,69.15254237288136,31.728888888888886,70.16949152542374,31.666666666666664C71.1864406779661,31.604444444444443,72.20338983050848,31.635555555555555,73.22033898305085,31.573333333333334C74.23728813559322,31.511111111111113,75.2542372881356,30.96,76.27118644067797,30.96C77.28813559322033,30.96,78.30508474576271,31.32,79.32203389830508,31.32C80.33898305084746,31.32,81.35593220338983,29.586666666666666,82.37288135593221,29.586666666666666C83.38983050847457,29.586666666666666,84.40677966101696,29.813333333333336,85.42372881355932,29.813333333333336C86.4406779661017,29.813333333333336,87.45762711864407,28.493333333333332,88.47457627118645,28.173333333333332C89.49152542372882,27.853333333333335,90.50847457627118,27.693333333333335,91.52542372881355,27.693333333333335C92.54237288135593,27.693333333333335,93.55932203389831,29.56,94.57627118644069,29.56C95.59322033898306,29.56,96.61016949152543,24.8,97.62711864406779,24.8C98.64406779661016,24.8,99.66101694915254,26.373333333333335,100.6779661016949,26.373333333333335C101.69491525423729,26.373333333333335,102.71186440677965,25.131111111111114,103.72881355932203,24.32C104.7457627118644,23.50888888888889,105.76271186440678,21.506666666666668,106.77966101694915,21.506666666666668C107.79661016949153,21.506666666666668,108.8135593220339,22.40888888888889,109.83050847457628,22.880000000000003C110.84745762711864,23.351111111111113,111.86440677966102,24.333333333333336,112.88135593220339,24.333333333333336C113.89830508474576,24.333333333333336,114.91525423728814,23.464444444444442,115.9322033898305,23.173333333333332C116.94915254237289,22.882222222222218,117.96610169491525,22.977777777777778,118.98305084745763,22.586666666666666C120,22.195555555555558,121.01694915254237,21.351111111111102,122.03389830508473,20.666666666666664C123.05084745762711,19.982222222222216,124.0677966101695,19.22,125.08474576271188,18.479999999999997C126.10169491525424,17.740000000000002,127.11864406779662,17.480000000000004,128.135593220339,16.226666666666667C129.15254237288136,14.973333333333334,130.16949152542372,11.653333333333329,131.1864406779661,10.96C132.20338983050846,10.266666666666667,133.22033898305085,10.357777777777777,134.23728813559322,9.92C135.25423728813558,9.482222222222223,136.27118644067798,8.431111111111115,137.28813559322035,8.333333333333336C138.3050847457627,8.235555555555557,139.3220338983051,8.284444444444446,140.33898305084747,8.186666666666667C141.35593220338984,8.08888888888889,142.3728813559322,5.628888888888887,143.38983050847457,4.853333333333332C144.40677966101694,4.0777777777777695,145.42372881355934,3.533333333333335,146.4406779661017,3.533333333333335C147.45762711864407,3.533333333333335,148.47457627118644,4.284444444444449,149.4915254237288,5.053333333333332C150.50847457627117,5.822222222222222,151.52542372881356,7.337777777777777,152.54237288135593,8.146666666666667C153.5593220338983,8.955555555555556,154.5762711864407,9.568888888888889,155.59322033898306,9.906666666666668C156.61016949152543,10.244444444444444,157.6271186440678,10.293333333333333,158.64406779661016,10.413333333333332C159.66101694915253,10.533333333333333,160.67796610169492,10.626666666666669,161.6949152542373,10.626666666666669C162.71186440677965,10.626666666666669,163.72881355932205,8.626666666666667,164.74576271186442,8.626666666666667C165.76271186440678,8.626666666666667,166.77966101694915,9.866666666666667,167.79661016949152,9.866666666666667C168.81355932203388,9.866666666666667,169.83050847457628,9.020000000000001,170.84745762711864,8.666666666666668C171.864406779661,8.313333333333334,172.8813559322034,7.746666666666666,173.89830508474577,7.746666666666666C174.91525423728814,7.746666666666666,175.93220338983053,15.306666666666663,176.9491525423729,16.053333333333335C177.96610169491527,16.8,178.98305084745763,16.986666666666665,180,17.173333333333332L180,40C178.98305084745763,40,177.96610169491527,40,176.9491525423729,40C175.93220338983053,40,174.91525423728814,40,173.89830508474577,40C172.8813559322034,40,171.864406779661,40,170.84745762711864,40C169.83050847457628,40,168.81355932203388,40,167.79661016949152,40C166.77966101694915,40,165.76271186440678,40,164.74576271186442,40C163.72881355932205,40,162.71186440677965,40,161.6949152542373,40C160.67796610169492,40,159.66101694915253,40,158.64406779661016,40C157.6271186440678,40,156.61016949152543,40,155.59322033898306,40C154.5762711864407,40,153.5593220338983,40,152.54237288135593,40C151.52542372881356,40,150.50847457627117,40,149.4915254237288,40C148.47457627118644,40,147.45762711864407,40,146.4406779661017,40C145.42372881355934,40,144.40677966101694,40,143.38983050847457,40C142.3728813559322,40,141.35593220338984,40,140.33898305084747,40C139.3220338983051,40,138.3050847457627,40,137.28813559322035,40C136.27118644067798,40,135.25423728813558,40,134.23728813559322,40C133.22033898305085,40,132.20338983050846,40,131.1864406779661,40C130.16949152542372,40,129.15254237288136,40,128.135593220339,40C127.11864406779662,40,126.10169491525424,40,125.08474576271188,40C124.0677966101695,40,123.05084745762711,40,122.03389830508473,40C121.01694915254237,40,120,40,118.98305084745763,40C117.96610169491525,40,116.94915254237289,40,115.9322033898305,40C114.91525423728814,40,113.89830508474576,40,112.88135593220339,40C111.86440677966102,40,110.84745762711864,40,109.83050847457628,40C108.8135593220339,40,107.79661016949153,40,106.77966101694915,40C105.76271186440678,40,104.7457627118644,40,103.72881355932203,40C102.71186440677965,40,101.69491525423729,40,100.6779661016949,40C99.66101694915254,40,98.64406779661016,40,97.62711864406779,40C96.61016949152543,40,95.59322033898306,40,94.57627118644069,40C93.55932203389831,40,92.54237288135593,40,91.52542372881355,40C90.50847457627118,40,89.49152542372882,40,88.47457627118645,40C87.45762711864407,40,86.4406779661017,40,85.42372881355932,40C84.40677966101696,40,83.38983050847457,40,82.37288135593221,40C81.35593220338983,40,80.33898305084746,40,79.32203389830508,40C78.30508474576271,40,77.28813559322033,40,76.27118644067797,40C75.2542372881356,40,74.23728813559322,40,73.22033898305085,40C72.20338983050848,40,71.1864406779661,40,70.16949152542374,40C69.15254237288136,40,68.13559322033899,40,67.11864406779661,40C66.10169491525424,40,65.08474576271186,40,64.0677966101695,40C63.05084745762712,40,62.03389830508474,40,61.01694915254237,40C59.99999999999999,40,58.983050847457626,40,57.96610169491525,40C56.94915254237288,40,55.93220338983051,40,54.91525423728814,40C53.898305084745765,40,52.88135593220339,40,51.86440677966102,40C50.847457627118644,40,49.83050847457627,40,48.813559322033896,40C47.79661016949152,40,46.77966101694915,40,45.762711864406775,40C44.7457627118644,40,43.728813559322035,40,42.71186440677966,40C41.69491525423729,40,40.67796610169491,40,39.66101694915254,40C38.644067796610166,40,37.6271186440678,40,36.610169491525426,40C35.59322033898305,40,34.57627118644068,40,33.559322033898304,40C32.54237288135593,40,31.525423728813557,40,30.508474576271183,40C29.491525423728813,40,28.47457627118644,40,27.45762711864407,40C26.440677966101696,40,25.423728813559322,40,24.406779661016948,40C23.389830508474574,40,22.372881355932204,40,21.35593220338983,40C20.338983050847457,40,19.322033898305087,40,18.305084745762713,40C17.28813559322034,40,16.271186440677965,40,15.254237288135592,40C14.23728813559322,40,13.220338983050846,40,12.203389830508474,40C11.186440677966102,40,10.169491525423728,40,9.152542372881356,40C8.135593220338983,40,7.11864406779661,40,6.101694915254237,40C5.084745762711864,40,4.067796610169491,40,3.0508474576271185,40C2.0338983050847457,40,1.0169491525423728,40,0,40Z"></path><path class="line" stroke="black" fill="none" d="M0,22.653333333333336C1.0169491525423728,23.05777777777778,2.0338983050847457,23.462222222222223,3.0508474576271185,24.333333333333336C4.067796610169491,25.204444444444448,5.084745762711864,27.880000000000003,6.101694915254237,27.880000000000003C7.11864406779661,27.880000000000003,8.135593220338983,27.037777777777773,9.152542372881356,26.559999999999995C10.169491525423728,26.082222222222217,11.186440677966102,25.013333333333332,12.203389830508474,25.013333333333332C13.220338983050846,25.013333333333332,14.23728813559322,26.74222222222222,15.254237288135592,27.626666666666665C16.271186440677965,28.51111111111111,17.28813559322034,30.32,18.305084745762713,30.32C19.322033898305087,30.32,20.338983050847457,29.226666666666667,21.35593220338983,29.226666666666667C22.372881355932204,29.226666666666667,23.389830508474574,29.253333333333334,24.406779661016948,29.30666666666667C25.423728813559322,29.360000000000003,26.440677966101696,30.844444444444445,27.45762711864407,31.586666666666666C28.47457627118644,32.32888888888888,29.491525423728813,33.76,30.508474576271183,33.76C31.525423728813557,33.76,32.54237288135593,33.48,33.559322033898304,33.239999999999995C34.57627118644068,32.99999999999999,35.59322033898305,32.32,36.610169491525426,32.32C37.6271186440678,32.32,38.644067796610166,33.22666666666667,39.66101694915254,33.22666666666667C40.67796610169491,33.22666666666667,41.69491525423729,32.693333333333335,42.71186440677966,32.693333333333335C43.728813559322035,32.693333333333335,44.7457627118644,32.76444444444444,45.762711864406775,32.81333333333333C46.77966101694915,32.86222222222222,47.79661016949152,32.87111111111111,48.813559322033896,32.986666666666665C49.83050847457627,33.10222222222222,50.847457627118644,35.44,51.86440677966102,35.44C52.88135593220339,35.44,53.898305084745765,32.413333333333334,54.91525423728814,32.413333333333334C55.93220338983051,32.413333333333334,56.94915254237288,33.18666666666667,57.96610169491525,33.18666666666667C58.983050847457626,33.18666666666667,59.99999999999999,32.05555555555556,61.01694915254237,31.68C62.03389830508474,31.304444444444442,63.05084745762712,30.933333333333334,64.0677966101695,30.933333333333334C65.08474576271186,30.933333333333334,66.10169491525424,32.86666666666667,67.11864406779661,32.86666666666667C68.13559322033899,32.86666666666667,69.15254237288136,31.728888888888886,70.16949152542374,31.666666666666664C71.1864406779661,31.604444444444443,72.20338983050848,31.635555555555555,73.22033898305085,31.573333333333334C74.23728813559322,31.511111111111113,75.2542372881356,30.96,76.27118644067797,30.96C77.28813559322033,30.96,78.30508474576271,31.32,79.32203389830508,31.32C80.33898305084746,31.32,81.35593220338983,29.586666666666666,82.37288135593221,29.586666666666666C83.38983050847457,29.586666666666666,84.40677966101696,29.813333333333336,85.42372881355932,29.813333333333336C86.4406779661017,29.813333333333336,87.45762711864407,28.493333333333332,88.47457627118645,28.173333333333332C89.49152542372882,27.853333333333335,90.50847457627118,27.693333333333335,91.52542372881355,27.693333333333335C92.54237288135593,27.693333333333335,93.55932203389831,29.56,94.57627118644069,29.56C95.59322033898306,29.56,96.61016949152543,24.8,97.62711864406779,24.8C98.64406779661016,24.8,99.66101694915254,26.373333333333335,100.6779661016949,26.373333333333335C101.69491525423729,26.373333333333335,102.71186440677965,25.131111111111114,103.72881355932203,24.32C104.7457627118644,23.50888888888889,105.76271186440678,21.506666666666668,106.77966101694915,21.506666666666668C107.79661016949153,21.506666666666668,108.8135593220339,22.40888888888889,109.83050847457628,22.880000000000003C110.84745762711864,23.351111111111113,111.86440677966102,24.333333333333336,112.88135593220339,24.333333333333336C113.89830508474576,24.333333333333336,114.91525423728814,23.464444444444442,115.9322033898305,23.173333333333332C116.94915254237289,22.882222222222218,117.96610169491525,22.977777777777778,118.98305084745763,22.586666666666666C120,22.195555555555558,121.01694915254237,21.351111111111102,122.03389830508473,20.666666666666664C123.05084745762711,19.982222222222216,124.0677966101695,19.22,125.08474576271188,18.479999999999997C126.10169491525424,17.740000000000002,127.11864406779662,17.480000000000004,128.135593220339,16.226666666666667C129.15254237288136,14.973333333333334,130.16949152542372,11.653333333333329,131.1864406779661,10.96C132.20338983050846,10.266666666666667,133.22033898305085,10.357777777777777,134.23728813559322,9.92C135.25423728813558,9.482222222222223,136.27118644067798,8.431111111111115,137.28813559322035,8.333333333333336C138.3050847457627,8.235555555555557,139.3220338983051,8.284444444444446,140.33898305084747,8.186666666666667C141.35593220338984,8.08888888888889,142.3728813559322,5.628888888888887,143.38983050847457,4.853333333333332C144.40677966101694,4.0777777777777695,145.42372881355934,3.533333333333335,146.4406779661017,3.533333333333335C147.45762711864407,3.533333333333335,148.47457627118644,4.284444444444449,149.4915254237288,5.053333333333332C150.50847457627117,5.822222222222222,151.52542372881356,7.337777777777777,152.54237288135593,8.146666666666667C153.5593220338983,8.955555555555556,154.5762711864407,9.568888888888889,155.59322033898306,9.906666666666668C156.61016949152543,10.244444444444444,157.6271186440678,10.293333333333333,158.64406779661016,10.413333333333332C159.66101694915253,10.533333333333333,160.67796610169492,10.626666666666669,161.6949152542373,10.626666666666669C162.71186440677965,10.626666666666669,163.72881355932205,8.626666666666667,164.74576271186442,8.626666666666667C165.76271186440678,8.626666666666667,166.77966101694915,9.866666666666667,167.79661016949152,9.866666666666667C168.81355932203388,9.866666666666667,169.83050847457628,9.020000000000001,170.84745762711864,8.666666666666668C171.864406779661,8.313333333333334,172.8813559322034,7.746666666666666,173.89830508474577,7.746666666666666C174.91525423728814,7.746666666666666,175.93220338983053,15.306666666666663,176.9491525423729,16.053333333333335C177.96610169491527,16.8,178.98305084745763,16.986666666666665,180,17.173333333333332"></path><path class="axis-ceiling" stroke-width="1" stroke="black" fill="none" d="M175,0L180,0"></path><text class="axis-ceiling-label" font-family="sans-serif" text-anchor="end" font-size="10px" x="170" y="2.5">3000</text></g></svg>