<svg xmlns="http://www.w3.org/2000/svg" viewBox="0 0 180 60"><g transform="translate(0,20)"><path class="area" fill="rgba(0, 0, 0, 0.2)" d="M0,38C1.686746987951807,37,3.3734939759036147,36,5.0602409638554215,32C5.301204819277108,31.42857142857143,5.542168674698795,30.017094017094017,5.783132530120481,30C62.168674698795186,26,118.55421686746988,28,174.93975903614458,24C175.18072289156626,23.982905982905983,175.42168674698797,20.00000000000004,175.66265060240966,18C175.90361445783134,16.00000000000004,176.14457831325302,13.333333333333336,176.3855421686747,12.000000000000002C176.6265060240964,10.666666666666668,176.86746987951807,10.666666666666664,177.10843373493975,10C178.0722891566265,7.3333333333332895,179.03614457831324,4.666666666666646,180,2.0000000000000018L180,40C179.03614457831324,40,178.0722891566265,40,177.10843373493975,40C176.86746987951807,40,176.6265060240964,40,176.3855421686747,40C176.14457831325302,40,175.90361445783134,40,175.66265060240966,40C175.42168674698797,40,175.18072289156626,40,174.93975903614458,40C118.55421686746988,40,62.168674698795186,40,5.783132530120481,40C5.542168674698795,40,5.301204819277108,40,5.0602409638554215,40C3.3734939759036147,40,1.686746987951807,40,0,40Z"></path><path class="line" stroke="black" fill="none" d="M0,38C1.686746987951807,37,3.3734939759036147,36,5.0602409638554215,32C5.301204819277108,31.42857142857143,5.542168674698795,30.017094017094017,5.783132530120481,30C62.168674698795186,26,118.55421686746988,28,174.93975903614458,24C175.18072289156626,23.982905982905983,175.42168674698797,20.00000000000004,175.66265060240966,18C175.90361445783134,16.00000000000004,176.14457831325302,13.333333333333336,176.3855421686747,12.000000000000002C176.6265060240964,10.666666666666668,176.86746987951807,10.666666666666664,177.10843373493975,10C178.0722891566265,7.3333333333332895,179.03614457831324,4.666666666666646,180,2.0000000000000018"></path><path class="axis-ceiling" stroke-width="1" stroke="black" fill="none" d="M175,0L180,0"></path><text class="axis-ceiling-label" font-family="sans-serif" text-anchor="end" font-size="10px" x="170" y="2.5">20</text></g></svg>