<svg xmlns="http://www.w3.org/2000/svg" viewBox="0 0 180 60"><g transform="translate(0,20)"><path class="area" fill="rgba(0, 0, 0, 0.2)" d="M0,32.052287581699346C1.0169491525423728,32.46013071895425,2.0338983050847457,32.867973856209154,3.0508474576271185,32.867973856209154C4.067796610169491,32.867973856209154,5.084745762711864,32.28235294117647,6.101694915254237,32.28235294117647C7.11864406779661,32.28235294117647,8.135593220338983,32.52287581699346,9.152542372881356,33.00392156862745C10.169491525423728,33.48496732026143,11.186440677966102,37.66797385620915,12.203389830508474,37.66797385620915C13.220338983050846,37.66797385620915,14.23728813559322,36.72679738562091,15.254237288135592,36.559477124183005C16.271186440677965,36.3921568627451,17.28813559322034,36.47581699346405,18.305084745762713,36.30849673202614C19.322033898305087,36.141176470588235,20.338983050847457,31.801307189542484,21.35593220338983,31.801307189542484C22.372881355932204,31.801307189542484,23.389830508474574,33.63137254901961,24.406779661016948,33.63137254901961C25.423728813559322,33.63137254901961,26.440677966101696,33.2078431372549,27.45762711864407,32.899346405228755C28.47457627118644,32.59084967320261,29.491525423728813,31.80827886710239,30.508474576271183,31.780392156862742C31.525423728813557,31.752505446623093,32.54237288135593,31.766448801742918,33.559322033898304,31.73856209150327C34.57627118644068,31.71067538126362,35.59322033898305,29.253159041394337,36.610169491525426,29.23921568627451C37.6271186440678,29.22527233115468,38.644067796610166,29.232244008714595,39.66101694915254,29.218300653594767C40.67796610169491,29.20435729847494,41.69491525423729,27.966884531590416,42.71186440677966,27.50326797385621C43.728813559322035,27.03965141612201,44.7457627118644,26.750326797385622,45.762711864406775,26.436601307189544C46.77966101694915,26.122875816993464,47.79661016949152,26.044444444444444,48.813559322033896,25.620915032679736C49.83050847457627,25.19738562091503,50.847457627118644,23.895424836601308,51.86440677966102,23.895424836601308C52.88135593220339,23.895424836601308,53.898305084745765,25.67668845315904,54.91525423728814,25.89281045751634C55.93220338983051,26.10893246187364,56.94915254237288,26.216993464052287,57.96610169491525,26.216993464052287C58.983050847457626,26.216993464052287,59.99999999999999,26.129847494553378,61.01694915254237,25.955555555555556C62.03389830508474,25.781263616557734,63.05084745762712,18.760784313725487,64.0677966101695,18.760784313725487C65.08474576271186,18.760784313725487,66.10169491525424,24.12549019607843,67.11864406779661,24.12549019607843C68.13559322033899,24.12549019607843,69.15254237288136,21.406535947712413,70.16949152542374,21.406535947712413C71.1864406779661,21.406535947712413,72.20338983050848,23.623529411764707,73.22033898305085,23.623529411764707C74.23728813559322,23.623529411764707,75.2542372881356,21.37516339869281,76.27118644067797,21.37516339869281C77.28813559322033,21.37516339869281,78.30508474576271,21.38562091503268,79.32203389830508,21.38562091503268C80.33898305084746,21.38562091503268,81.35593220338983,21.050980392156863,82.37288135593221,21.050980392156863C83.38983050847457,21.050980392156863,84.40677966101696,22.51503267973856,85.42372881355932,22.51503267973856C86.4406779661017,22.51503267973856,87.45762711864407,21.136383442265807,88.47457627118645,19.827450980392157C89.49152542372882,18.518518518518523,90.50847457627118,14.66143790849673,91.52542372881355,14.66143790849673C92.54237288135593,14.66143790849673,93.55932203389831,16.177777777777774,94.57627118644069,16.993464052287585C95.59322033898306,17.809150326797386,96.61016949152543,19.555555555555557,97.62711864406779,19.555555555555557C98.64406779661016,19.555555555555557,99.66101694915254,17.84052287581699,100.6779661016949,17.129411764705882C101.69491525423729,16.41830065359477,102.71186440677965,15.28888888888889,103.72881355932203,15.28888888888889C104.7457627118644,15.28888888888889,105.76271186440678,16.41830065359477,106.77966101694915,16.41830065359477C107.79661016949153,16.41830065359477,108.8135593220339,10.244880174291946,109.83050847457628,9.568627450980394C110.84745762711864,8.892374727668845,111.86440677966102,9.230501089324619,112.88135593220339,8.55424836601307C113.89830508474576,7.877995642701521,114.91525423728814,3.367320261437907,115.9322033898305,3.367320261437907C116.94915254237289,3.367320261437907,117.96610169491525,9.509368191721128,118.98305084745763,9.641830065359475C120,9.774291938997822,121.01694915254237,9.840522875816994,122.03389830508473,9.840522875816994C123.05084745762711,9.840522875816994,124.0677966101695,4.549019607843139,125.08474576271188,4.549019607843139C126.10169491525424,4.549019607843139,127.11864406779662,23.73856209150327,128.135593220339,23.73856209150327C129.15254237288136,23.73856209150327,130.16949152542372,6.54640522875817,131.1864406779661,6.54640522875817C132.20338983050846,6.54640522875817,133.22033898305085,7.8640522875817,134.23728813559322,7.8640522875817C135.25423728813558,7.8640522875817,136.27118644067798,6.253594771241828,137.28813559322035,6.253594771241828C138.3050847457627,6.253594771241828,139.3220338983051,10.656209150326793,140.33898305084747,12.20392156862745C141.35593220338984,13.751633986928093,142.3728813559322,15.53986928104575,143.38983050847457,15.53986928104575C144.40677966101694,15.53986928104575,145.42372881355934,12.611764705882354,146.4406779661017,12.611764705882354C147.45762711864407,12.611764705882354,148.47457627118644,12.650108932461874,149.4915254237288,12.726797385620916C150.50847457627117,12.803485838779958,151.52542372881356,13.82483660130719,152.54237288135593,13.82483660130719C153.5593220338983,13.82483660130719,154.5762711864407,13.469281045751632,155.59322033898306,13.469281045751632C156.61016949152543,13.469281045751632,157.6271186440678,14.34074074074074,158.64406779661016,16.083660130718954C159.66101694915253,17.826579520697184,160.67796610169492,40,161.6949152542373,40C162.71186440677965,40,163.72881355932205,34.434858387799565,164.74576271186442,32.355555555555554C165.76271186440678,30.27625272331156,166.77966101694915,28.88540305010893,167.79661016949152,27.52418300653595C168.81355932203388,26.162962962962958,169.83050847457628,25.955555555555556,170.84745762711864,24.188235294117646C171.864406779661,22.420915032679737,172.8813559322034,16.920261437908497,173.89830508474577,16.920261437908497C174.91525423728814,16.920261437908497,175.93220338983053,19.597385620915034,176.9491525423729,19.597385620915034C177.96610169491527,19.597385620915034,178.98305084745763,18.379084967320264,180,17.160784313725493L180,40C178.98305084745763,40,177.96610169491527,40,176.9491525423729,40C175.93220338983053,40,174.91525423728814,40,173.89830508474577,40C172.8813559322034,40,171.864406779661,40,170.84745762711864,40C169.83050847457628,40,168.81355932203388,40,167.79661016949152,40C166.77966101694915,40,165.76271186440678,40,164.74576271186442,40C163.72881355932205,40,162.71186440677965,40,161.6949152542373,40C160.67796610169492,40,159.66101694915253,40,158.64406779661016,40C157.6271186440678,40,156.61016949152543,40,155.59322033898306,40C154.5762711864407,40,153.5593220338983,40,152.54237288135593,40C151.52542372881356,40,150.50847457627117,40,149.4915254237288,40C148.47457627118644,40,147.45762711864407,40,146.4406779661017,40C145.42372881355934,40,144.40677966101694,40,143.38983050847457,40C142.3728813559322,40,141.35593220338984,40,140.33898305084747,40C139.3220338983051,40,138.3050847457627,40,137.28813559322035,40C136.27118644067798,40,135.25423728813558,40,134.23728813559322,40C133.22033898305085,40,132.20338983050846,40,131.1864406779661,40C130.16949152542372,40,129.15254237288136,40,128.135593220339,40C127.11864406779662,40,126.10169491525424,40,125.08474576271188,40C124.0677966101695,40,123.05084745762711,40,122.03389830508473,40C121.01694915254237,40,120,40,118.98305084745763,40C117.96610169491525,40,116.94915254237289,40,115.9322033898305,40C114.91525423728814,40,113.89830508474576,40,112.88135593220339,40C111.86440677966102,40,110.84745762711864,40,109.83050847457628,40C108.8135593220339,40,107.79661016949153,40,106.77966101694915,40C105.76271186440678,40,104.7457627118644,40,103.72881355932203,40C102.71186440677965,40,101.69491525423729,40,100.6779661016949,40C99.66101694915254,40,98.64406779661016,40,97.62711864406779,40C96.61016949152543,40,95.59322033898306,40,94.57627118644069,40C93.55932203389831,40,92.54237288135593,40,91.52542372881355,40C90.50847457627118,40,89.49152542372882,40,88.47457627118645,40C87.45762711864407,40,86.4406779661017,40,85.42372881355932,40C84.40677966101696,40,83.38983050847457,40,82.37288135593221,40C81.35593220338983,40,80.33898305084746,40,79.32203389830508,40C78.30508474576271,40,77.28813559322033,40,76.27118644067797,40C75.2542372881356,40,74.23728813559322,40,73.22033898305085,40C72.20338983050848,40,71.1864406779661,40,70.16949152542374,40C69.15254237288136,40,68.13559322033899,40,67.11864406779661,40C66.10169491525424,40,65.08474576271186,40,64.0677966101695,40C63.05084745762712,40,62.03389830508474,40,61.01694915254237,40C59.99999999999999,40,58.983050847457626,40,57.96610169491525,40C56.94915254237288,40,55.93220338983051,40,54.91525423728814,40C53.898305084745765,40,52.88135593220339,40,51.86440677966102,40C50.847457627118644,40,49.83050847457627,40,48.813559322033896,40C47.79661016949152,40,46.77966101694915,40,45.762711864406775,40C44.7457627118644,40,43.728813559322035,40,42.71186440677966,40C41.69491525423729,40,40.67796610169491,40,39.66101694915254,40C38.644067796610166,40,37.6271186440678,40,36.610169491525426,40C35.59322033898305,40,34.57627118644068,40,33.559322033898304,40C32.54237288135593,40,31.525423728813557,40,30.508474576271183,40C29.491525423728813,40,28.47457627118644,40,27.45762711864407,40C26.440677966101696,40,25.423728813559322,40,24.406779661016948,40C23.389830508474574,40,22.372881355932204,40,21.35593220338983,40C20.338983050847457,40,19.322033898305087,40,18.305084745762713,40C17.28813559322034,40,16.271186440677965,40,15.254237288135592,40C14.23728813559322,40,13.220338983050846,40,12.203389830508474,40C11.186440677966102,40,10.169491525423728,40,9.152542372881356,40C8.135593220338983,40,7.11864406779661,40,6.101694915254237,40C5.084745762711864,40,4.067796610169491,40,3.0508474576271185,40C2.0338983050847457,40,1.0169491525423728,40,0,40Z"></path><path class="line" stroke="black" fill="none" d="M0,32.052287581699346C1.0169491525423728,32.46013071895425,2.0338983050847457,32.867973856209154,3.0508474576271185,32.867973856209154C4.067796610169491,32.867973856209154,5.084745762711864,32.28235294117647,6.101694915254237,32.28235294117647C7.11864406779661,32.28235294117647,8.135593220338983,32.52287581699346,9.152542372881356,33.00392156862745C10.169491525423728,33.48496732026143,11.186440677966102,37.66797385620915,12.203389830508474,37.66797385620915C13.220338983050846,37.66797385620915,14.23728813559322,36.72679738562091,15.254237288135592,36.559477124183005C16.271186440677965,36.3921568627451,17.28813559322034,36.47581699346405,18.305084745762713,36.30849673202614C19.322033898305087,36.141176470588235,20.338983050847457,31.801307189542484,21.35593220338983,31.801307189542484C22.372881355932204,31.801307189542484,23.389830508474574,33.63137254901961,24.406779661016948,33.63137254901961C25.423728813559322,33.63137254901961,26.440677966101696,33.2078431372549,27.45762711864407,32.899346405228755C28.47457627118644,32.59084967320261,29.491525423728813,31.80827886710239,30.508474576271183,31.780392156862742C31.525423728813557,31.752505446623093,32.54237288135593,31.766448801742918,33.559322033898304,31.73856209150327C34.57627118644068,31.71067538126362,35.59322033898305,29.253159041394337,36.610169491525426,29.23921568627451C37.6271186440678,29.22527233115468,38.644067796610166,29.232244008714595,39.66101694915254,29.218300653594767C40.67796610169491,29.20435729847494,41.69491525423729,27.966884531590416,42.71186440677966,27.50326797385621C43.728813559322035,27.03965141612201,44.7457627118644,26.750326797385622,45.762711864406775,26.436601307189544C46.77966101694915,26.122875816993464,47.79661016949152,26.044444444444444,48.813559322033896,25.620915032679736C49.83050847457627,25.19738562091503,50.847457627118644,23.895424836601308,51.86440677966102,23.895424836601308C52.88135593220339,23.895424836601308,53.898305084745765,25.67668845315904,54.91525423728814,25.89281045751634C55.93220338983051,26.10893246187364,56.94915254237288,26.216993464052287,57.96610169491525,26.216993464052287C58.983050847457626,26.216993464052287,59.99999999999999,26.129847494553378,61.01694915254237,25.955555555555556C62.03389830508474,25.781263616557734,63.05084745762712,18.760784313725487,64.0677966101695,18.760784313725487C65.08474576271186,18.760784313725487,66.10169491525424,24.12549019607843,67.11864406779661,24.12549019607843C68.13559322033899,24.12549019607843,69.15254237288136,21.406535947712413,70.16949152542374,21.406535947712413C71.1864406779661,21.406535947712413,72.20338983050848,23.623529411764707,73.22033898305085,23.623529411764707C74.23728813559322,23.623529411764707,75.2542372881356,21.37516339869281,76.27118644067797,21.37516339869281C77.28813559322033,21.37516339869281,78.30508474576271,21.38562091503268,79.32203389830508,21.38562091503268C80.33898305084746,21.38562091503268,81.35593220338983,21.050980392156863,82.37288135593221,21.050980392156863C83.38983050847457,21.050980392156863,84.40677966101696,22.51503267973856,85.42372881355932,22.51503267973856C86.4406779661017,22.51503267973856,87.45762711864407,21.136383442265807,88.47457627118645,19.827450980392157C89.49152542372882,18.518518518518523,90.50847457627118,14.66143790849673,91.52542372881355,14.66143790849673C92.54237288135593,14.66143790849673,93.55932203389831,16.177777777777774,94.57627118644069,16.993464052287585C95.59322033898306,17.809150326797386,96.61016949152543,19.555555555555557,97.62711864406779,19.555555555555557C98.64406779661016,19.555555555555557,99.66101694915254,17.84052287581699,100.6779661016949,17.129411764705882C101.69491525423729,16.41830065359477,102.71186440677965,15.28888888888889,103.72881355932203,15.28888888888889C104.7457627118644,15.28888888888889,105.76271186440678,16.41830065359477,106.77966101694915,16.41830065359477C107.79661016949153,16.41830065359477,108.8135593220339,10.244880174291946,109.83050847457628,9.568627450980394C110.84745762711864,8.892374727668845,111.86440677966102,9.230501089324619,112.88135593220339,8.55424836601307C113.89830508474576,7.877995642701521,114.91525423728814,3.367320261437907,115.9322033898305,3.367320261437907C116.94915254237289,3.367320261437907,117.96610169491525,9.509368191721128,118.98305084745763,9.641830065359475C120,9.774291938997822,121.01694915254237,9.840522875816994,122.03389830508473,9.840522875816994C123.05084745762711,9.840522875816994,124.0677966101695,4.549019607843139,125.08474576271188,4.549019607843139C126.10169491525424,4.549019607843139,127.11864406779662,23.73856209150327,128.135593220339,23.73856209150327C129.15254237288136,23.73856209150327,130.16949152542372,6.54640522875817,131.1864406779661,6.54640522875817C132.20338983050846,6.54640522875817,133.22033898305085,7.8640522875817,134.23728813559322,7.8640522875817C135.25423728813558,7.8640522875817,136.27118644067798,6.253594771241828,137.28813559322035,6.253594771241828C138.3050847457627,6.253594771241828,139.3220338983051,10.656209150326793,140.33898305084747,12.20392156862745C141.35593220338984,13.751633986928093,142.3728813559322,15.53986928104575,143.38983050847457,15.53986928104575C144.40677966101694,15.53986928104575,145.42372881355934,12.611764705882354,146.4406779661017,12.611764705882354C147.45762711864407,12.611764705882354,148.47457627118644,12.650108932461874,149.4915254237288,12.726797385620916C150.50847457627117,12.803485838779958,151.52542372881356,13.82483660130719,152.54237288135593,13.82483660130719C153.5593220338983,13.82483660130719,154.5762711864407,13.469281045751632,155.59322033898306,13.469281045751632C156.61016949152543,13.469281045751632,157.6271186440678,14.34074074074074,158.64406779661016,16.083660130718954C159.66101694915253,17.826579520697184,160.67796610169492,40,161.6949152542373,40C162.71186440677965,40,163.72881355932205,34.434858387799565,164.74576271186442,32.355555555555554C165.76271186440678,30.27625272331156,166.77966101694915,28.88540305010893,167.79661016949152,27.52418300653595C168.81355932203388,26.162962962962958,169.83050847457628,25.955555555555556,170.84745762711864,24.188235294117646C171.864406779661,22.420915032679737,172.8813559322034,16.920261437908497,173.89830508474577,16.920261437908497C174.91525423728814,16.920261437908497,175.93220338983053,19.597385620915034,176.9491525423729,19.597385620915034C177.96610169491527,19.597385620915034,178.98305084745763,18.379084967320264,180,17.160784313725493"></path><path class="axis-ceiling" stroke-width="1" stroke="black" fill="none" d="M175,0L180,0"></path><text class="axis-ceiling-label" font-family="sans-serif" text-anchor="end" font-size="10px" x="170" y="2.5">2500</text></g></svg>