<svg xmlns="http://www.w3.org/2000/svg" viewBox="0 0 180 60"><g transform="translate(0,20)"><path class="area" fill="rgba(0, 0, 0, 0.2)" d="M0,36.294277929155314C1.0169491525423728,36.34877384196186,2.0338983050847457,36.403269754768395,3.0508474576271185,36.403269754768395C4.067796610169491,36.403269754768395,5.084745762711864,36.18528610354224,6.101694915254237,36.18528610354224C7.11864406779661,36.18528610354224,8.135593220338983,36.403269754768395,9.152542372881356,36.403269754768395C10.169491525423728,36.403269754768395,11.186440677966102,36.294277929155314,12.203389830508474,36.294277929155314C13.220338983050846,36.294277929155314,14.23728813559322,36.73024523160763,15.254237288135592,36.73024523160763C16.271186440677965,36.73024523160763,17.28813559322034,36.51226158038148,18.305084745762713,36.51226158038148C19.322033898305087,36.51226158038148,20.338983050847457,36.73024523160763,21.35593220338983,36.73024523160763C22.372881355932204,36.73024523160763,23.389830508474574,36.62125340599455,24.406779661016948,36.62125340599455C25.423728813559322,36.62125340599455,26.440677966101696,36.78474114441418,27.45762711864407,36.839237057220714C28.47457627118644,36.89373297002725,29.491525423728813,36.9118982742961,30.508474576271183,36.94822888283379C31.525423728813557,36.984559491371485,32.54237288135593,37.05722070844687,33.559322033898304,37.05722070844687C34.57627118644068,37.05722070844687,35.59322033898305,36.85740236148956,36.610169491525426,36.73024523160763C37.6271186440678,36.60308810172571,38.644067796610166,36.294277929155314,39.66101694915254,36.294277929155314C40.67796610169491,36.294277929155314,41.69491525423729,36.62125340599455,42.71186440677966,36.62125340599455C43.728813559322035,36.62125340599455,44.7457627118644,36.62125340599455,45.762711864406775,36.62125340599455C46.77966101694915,36.62125340599455,47.79661016949152,36.74841053587648,48.813559322033896,36.839237057220714C49.83050847457627,36.93006357856495,50.847457627118644,36.98455949137148,51.86440677966102,37.166212534059945C52.88135593220339,37.34786557674841,53.898305084745765,37.856494096276116,54.91525423728814,37.9291553133515C55.93220338983051,38.001816530426886,56.94915254237288,37.96548592188919,57.96610169491525,38.038147138964575C58.983050847457626,38.11080835603996,59.99999999999999,39.01907356948229,61.01694915254237,39.01907356948229C62.03389830508474,39.01907356948229,63.05084745762712,39.01907356948229,64.0677966101695,39.01907356948229C65.08474576271186,39.01907356948229,66.10169491525424,40,67.11864406779661,40C68.13559322033899,40,69.15254237288136,39.963669391462304,70.16949152542374,39.89100817438692C71.1864406779661,39.81834695731153,72.20338983050848,39.164396003633065,73.22033898305085,38.91008174386921C74.23728813559322,38.65576748410536,75.2542372881356,38.36512261580381,76.27118644067797,38.36512261580381C77.28813559322033,38.36512261580381,78.30508474576271,38.80108991825613,79.32203389830508,38.80108991825613C80.33898305084746,38.80108991825613,81.35593220338983,37.711171662125345,82.37288135593221,37.711171662125345C83.38983050847457,37.711171662125345,84.40677966101696,38.25613079019074,85.42372881355932,38.25613079019074C86.4406779661017,38.25613079019074,87.45762711864407,37.9654859218892,88.47457627118645,37.711171662125345C89.49152542372882,37.45685740236149,90.50847457627118,36.73024523160763,91.52542372881355,36.73024523160763C92.54237288135593,36.73024523160763,93.55932203389831,39.12806539509537,94.57627118644069,39.12806539509537C95.59322033898306,39.12806539509537,96.61016949152543,38.32879200726612,97.62711864406779,38.038147138964575C98.64406779661016,37.747502270663034,99.66101694915254,37.38419618528611,100.6779661016949,37.38419618528611C101.69491525423729,37.38419618528611,102.71186440677965,37.49318801089918,103.72881355932203,37.49318801089918C104.7457627118644,37.49318801089918,105.76271186440678,35.676657584014535,106.77966101694915,35.095367847411445C107.79661016949153,34.514078110808356,108.8135593220339,34.27792915531335,109.83050847457628,34.00544959128065C110.84745762711864,33.73297002724795,111.86440677966102,33.823796548592185,112.88135593220339,33.46049046321526C113.89830508474576,33.09718437783833,114.91525423728814,30.15440508628519,115.9322033898305,30.08174386920981C116.94915254237289,30.009082652134428,117.96610169491525,30.045413260672117,118.98305084745763,29.972752043596735C120,29.900090826521353,121.01694915254237,29.51861943687557,122.03389830508473,29.31880108991826C123.05084745762711,29.118982742960945,124.0677966101695,28.77384196185286,125.08474576271188,28.77384196185286C126.10169491525424,28.77384196185286,127.11864406779662,29.02815622161671,128.135593220339,29.20980926430518C129.15254237288136,29.391462306993642,130.16949152542372,29.791099000908254,131.1864406779661,29.863760217983646C132.20338983050846,29.93642143505904,133.22033898305085,29.90009082652135,134.23728813559322,29.972752043596735C135.25423728813558,30.04541326067212,136.27118644067798,30.099909173478654,137.28813559322035,30.299727520435965C138.3050847457627,30.499545867393277,139.3220338983051,31.171662125340596,140.33898305084747,31.171662125340596C141.35593220338984,31.171662125340596,142.3728813559322,30.372388737511343,143.38983050847457,29.427792915531334C144.40677966101694,28.483197093551315,145.42372881355934,26.630336058128975,146.4406779661017,25.50408719346049C147.45762711864407,24.377838328792013,148.47457627118644,23.578564940962753,149.4915254237288,22.670299727520433C150.50847457627117,21.762034514078106,151.52542372881356,20.817438692098097,152.54237288135593,20.054495912806544C153.5593220338983,19.29155313351499,154.5762711864407,19.20072661217077,155.59322033898306,18.09264305177112C156.61016949152543,16.98455949137148,157.6271186440678,14.841053587647586,158.64406779661016,13.405994550408717C159.66101694915253,11.970935513169835,160.67796610169492,10.699364214350586,161.6949152542373,9.482288828337872C162.71186440677965,8.265213442325157,163.72881355932205,6.103542234332426,164.74576271186442,6.103542234332426C165.76271186440678,6.103542234332426,166.77966101694915,6.321525885558585,167.79661016949152,6.757493188010901C168.81355932203388,7.193460490463222,169.83050847457628,10.790190735694821,170.84745762711864,10.790190735694821C171.864406779661,10.790190735694821,172.8813559322034,9.373297002724797,173.89830508474577,8.719346049046322C174.91525423728814,8.065395095367847,175.93220338983053,8.10172570390554,176.9491525423729,6.8664850136239775C177.96610169491527,5.631244323342425,178.98305084745763,3.1970935513169882,180,0.7629427792915511L180,40C178.98305084745763,40,177.96610169491527,40,176.9491525423729,40C175.93220338983053,40,174.91525423728814,40,173.89830508474577,40C172.8813559322034,40,171.864406779661,40,170.84745762711864,40C169.83050847457628,40,168.81355932203388,40,167.79661016949152,40C166.77966101694915,40,165.76271186440678,40,164.74576271186442,40C163.72881355932205,40,162.71186440677965,40,161.6949152542373,40C160.67796610169492,40,159.66101694915253,40,158.64406779661016,40C157.6271186440678,40,156.61016949152543,40,155.59322033898306,40C154.5762711864407,40,153.5593220338983,40,152.54237288135593,40C151.52542372881356,40,150.50847457627117,40,149.4915254237288,40C148.47457627118644,40,147.45762711864407,40,146.4406779661017,40C145.42372881355934,40,144.40677966101694,40,143.38983050847457,40C142.3728813559322,40,141.35593220338984,40,140.33898305084747,40C139.3220338983051,40,138.3050847457627,40,137.28813559322035,40C136.27118644067798,40,135.25423728813558,40,134.23728813559322,40C133.22033898305085,40,132.20338983050846,40,131.1864406779661,40C130.16949152542372,40,129.15254237288136,40,128.135593220339,40C127.11864406779662,40,126.10169491525424,40,125.08474576271188,40C124.0677966101695,40,123.05084745762711,40,122.03389830508473,40C121.01694915254237,40,120,40,118.98305084745763,40C117.96610169491525,40,116.94915254237289,40,115.9322033898305,40C114.91525423728814,40,113.89830508474576,40,112.88135593220339,40C111.86440677966102,40,110.84745762711864,40,109.83050847457628,40C108.8135593220339,40,107.79661016949153,40,106.77966101694915,40C105.76271186440678,40,104.7457627118644,40,103.72881355932203,40C102.71186440677965,40,101.69491525423729,40,100.6779661016949,40C99.66101694915254,40,98.64406779661016,40,97.62711864406779,40C96.61016949152543,40,95.59322033898306,40,94.57627118644069,40C93.55932203389831,40,92.54237288135593,40,91.52542372881355,40C90.50847457627118,40,89.49152542372882,40,88.47457627118645,40C87.45762711864407,40,86.4406779661017,40,85.42372881355932,40C84.40677966101696,40,83.38983050847457,40,82.37288135593221,40C81.35593220338983,40,80.33898305084746,40,79.32203389830508,40C78.30508474576271,40,77.28813559322033,40,76.27118644067797,40C75.2542372881356,40,74.23728813559322,40,73.22033898305085,40C72.20338983050848,40,71.1864406779661,40,70.16949152542374,40C69.15254237288136,40,68.13559322033899,40,67.11864406779661,40C66.10169491525424,40,65.08474576271186,40,64.0677966101695,40C63.05084745762712,40,62.03389830508474,40,61.01694915254237,40C59.99999999999999,40,58.983050847457626,40,57.96610169491525,40C56.94915254237288,40,55.93220338983051,40,54.91525423728814,40C53.898305084745765,40,52.88135593220339,40,51.86440677966102,40C50.847457627118644,40,49.83050847457627,40,48.813559322033896,40C47.79661016949152,40,46.77966101694915,40,45.762711864406775,40C44.7457627118644,40,43.728813559322035,40,42.71186440677966,40C41.69491525423729,40,40.67796610169491,40,39.66101694915254,40C38.644067796610166,40,37.6271186440678,40,36.610169491525426,40C35.59322033898305,40,34.57627118644068,40,33.559322033898304,40C32.54237288135593,40,31.525423728813557,40,30.508474576271183,40C29.491525423728813,40,28.47457627118644,40,27.45762711864407,40C26.440677966101696,40,25.423728813559322,40,24.406779661016948,40C23.389830508474574,40,22.372881355932204,40,21.35593220338983,40C20.338983050847457,40,19.322033898305087,40,18.305084745762713,40C17.28813559322034,40,16.271186440677965,40,15.254237288135592,40C14.23728813559322,40,13.220338983050846,40,12.203389830508474,40C11.186440677966102,40,10.169491525423728,40,9.152542372881356,40C8.135593220338983,40,7.11864406779661,40,6.101694915254237,40C5.084745762711864,40,4.067796610169491,40,3.0508474576271185,40C2.0338983050847457,40,1.0169491525423728,40,0,40Z"></path><path class="line" stroke="black" fill="none" d="M0,36.294277929155314C1.0169491525423728,36.34877384196186,2.0338983050847457,36.403269754768395,3.0508474576271185,36.403269754768395C4.067796610169491,36.403269754768395,5.084745762711864,36.18528610354224,6.101694915254237,36.18528610354224C7.11864406779661,36.18528610354224,8.135593220338983,36.403269754768395,9.152542372881356,36.403269754768395C10.169491525423728,36.403269754768395,11.186440677966102,36.294277929155314,12.203389830508474,36.294277929155314C13.220338983050846,36.294277929155314,14.23728813559322,36.73024523160763,15.254237288135592,36.73024523160763C16.271186440677965,36.73024523160763,17.28813559322034,36.51226158038148,18.305084745762713,36.51226158038148C19.322033898305087,36.51226158038148,20.338983050847457,36.73024523160763,21.35593220338983,36.73024523160763C22.372881355932204,36.73024523160763,23.389830508474574,36.62125340599455,24.406779661016948,36.62125340599455C25.423728813559322,36.62125340599455,26.440677966101696,36.78474114441418,27.45762711864407,36.839237057220714C28.47457627118644,36.89373297002725,29.491525423728813,36.9118982742961,30.508474576271183,36.94822888283379C31.525423728813557,36.984559491371485,32.54237288135593,37.05722070844687,33.559322033898304,37.05722070844687C34.57627118644068,37.05722070844687,35.59322033898305,36.85740236148956,36.610169491525426,36.73024523160763C37.6271186440678,36.60308810172571,38.644067796610166,36.294277929155314,39.66101694915254,36.294277929155314C40.67796610169491,36.294277929155314,41.69491525423729,36.62125340599455,42.71186440677966,36.62125340599455C43.728813559322035,36.62125340599455,44.7457627118644,36.62125340599455,45.762711864406775,36.62125340599455C46.77966101694915,36.62125340599455,47.79661016949152,36.74841053587648,48.813559322033896,36.839237057220714C49.83050847457627,36.93006357856495,50.847457627118644,36.98455949137148,51.86440677966102,37.166212534059945C52.88135593220339,37.34786557674841,53.898305084745765,37.856494096276116,54.91525423728814,37.9291553133515C55.93220338983051,38.001816530426886,56.94915254237288,37.96548592188919,57.96610169491525,38.038147138964575C58.983050847457626,38.11080835603996,59.99999999999999,39.01907356948229,61.01694915254237,39.01907356948229C62.03389830508474,39.01907356948229,63.05084745762712,39.01907356948229,64.0677966101695,39.01907356948229C65.08474576271186,39.01907356948229,66.10169491525424,40,67.11864406779661,40C68.13559322033899,40,69.15254237288136,39.963669391462304,70.16949152542374,39.89100817438692C71.1864406779661,39.81834695731153,72.20338983050848,39.164396003633065,73.22033898305085,38.91008174386921C74.23728813559322,38.65576748410536,75.2542372881356,38.36512261580381,76.27118644067797,38.36512261580381C77.28813559322033,38.36512261580381,78.30508474576271,38.80108991825613,79.32203389830508,38.80108991825613C80.33898305084746,38.80108991825613,81.35593220338983,37.711171662125345,82.37288135593221,37.711171662125345C83.38983050847457,37.711171662125345,84.40677966101696,38.25613079019074,85.42372881355932,38.25613079019074C86.4406779661017,38.25613079019074,87.45762711864407,37.9654859218892,88.47457627118645,37.711171662125345C89.49152542372882,37.45685740236149,90.50847457627118,36.73024523160763,91.52542372881355,36.73024523160763C92.54237288135593,36.73024523160763,93.55932203389831,39.12806539509537,94.57627118644069,39.12806539509537C95.59322033898306,39.12806539509537,96.61016949152543,38.32879200726612,97.62711864406779,38.038147138964575C98.64406779661016,37.747502270663034,99.66101694915254,37.38419618528611,100.6779661016949,37.38419618528611C101.69491525423729,37.38419618528611,102.71186440677965,37.49318801089918,103.72881355932203,37.49318801089918C104.7457627118644,37.49318801089918,105.76271186440678,35.676657584014535,106.77966101694915,35.095367847411445C107.79661016949153,34.514078110808356,108.8135593220339,34.27792915531335,109.83050847457628,34.00544959128065C110.84745762711864,33.73297002724795,111.86440677966102,33.823796548592185,112.88135593220339,33.46049046321526C113.89830508474576,33.09718437783833,114.91525423728814,30.15440508628519,115.9322033898305,30.08174386920981C116.94915254237289,30.009082652134428,117.96610169491525,30.045413260672117,118.98305084745763,29.972752043596735C120,29.900090826521353,121.01694915254237,29.51861943687557,122.03389830508473,29.31880108991826C123.05084745762711,29.118982742960945,124.0677966101695,28.77384196185286,125.08474576271188,28.77384196185286C126.10169491525424,28.77384196185286,127.11864406779662,29.02815622161671,128.135593220339,29.20980926430518C129.15254237288136,29.391462306993642,130.16949152542372,29.791099000908254,131.1864406779661,29.863760217983646C132.20338983050846,29.93642143505904,133.22033898305085,29.90009082652135,134.23728813559322,29.972752043596735C135.25423728813558,30.04541326067212,136.27118644067798,30.099909173478654,137.28813559322035,30.299727520435965C138.3050847457627,30.499545867393277,139.3220338983051,31.171662125340596,140.33898305084747,31.171662125340596C141.35593220338984,31.171662125340596,142.3728813559322,30.372388737511343,143.38983050847457,29.427792915531334C144.40677966101694,28.483197093551315,145.42372881355934,26.630336058128975,146.4406779661017,25.50408719346049C147.45762711864407,24.377838328792013,148.47457627118644,23.578564940962753,149.4915254237288,22.670299727520433C150.50847457627117,21.762034514078106,151.52542372881356,20.817438692098097,152.54237288135593,20.054495912806544C153.5593220338983,19.29155313351499,154.5762711864407,19.20072661217077,155.59322033898306,18.09264305177112C156.61016949152543,16.98455949137148,157.6271186440678,14.841053587647586,158.64406779661016,13.405994550408717C159.66101694915253,11.970935513169835,160.67796610169492,10.699364214350586,161.6949152542373,9.482288828337872C162.71186440677965,8.265213442325157,163.72881355932205,6.103542234332426,164.74576271186442,6.103542234332426C165.76271186440678,6.103542234332426,166.77966101694915,6.321525885558585,167.79661016949152,6.757493188010901C168.81355932203388,7.193460490463222,169.83050847457628,10.790190735694821,170.84745762711864,10.790190735694821C171.864406779661,10.790190735694821,172.8813559322034,9.373297002724797,173.89830508474577,8.719346049046322C174.91525423728814,8.065395095367847,175.93220338983053,8.10172570390554,176.9491525423729,6.8664850136239775C177.96610169491527,5.631244323342425,178.98305084745763,3.1970935513169882,180,0.7629427792915511"></path><path class="axis-ceiling" stroke-width="1" stroke="black" fill="none" d="M175,0L180,0"></path><text class="axis-ceiling-label" font-family="sans-serif" text-anchor="end" font-size="10px" x="170" y="2.5">350</text></g></svg>