<svg xmlns="http://www.w3.org/2000/svg" viewBox="0 0 180 60"><g transform="translate(0,20)"><path class="area" fill="rgba(0, 0, 0, 0.2)" d="M0,40C1.0169491525423728,39.6011396011396,2.0338983050847457,39.2022792022792,3.0508474576271185,38.97435897435897C4.067796610169491,38.74643874643874,5.084745762711864,38.63247863247863,6.101694915254237,38.63247863247863C7.11864406779661,38.63247863247863,8.135593220338983,38.86039886039886,9.152542372881356,38.97435897435897C10.169491525423728,39.08831908831908,11.186440677966102,39.31623931623931,12.203389830508474,39.31623931623931C13.220338983050846,39.31623931623931,14.23728813559322,38.63247863247863,15.254237288135592,38.63247863247863C16.271186440677965,38.63247863247863,17.28813559322034,38.63247863247863,18.305084745762713,38.63247863247863C19.322033898305087,38.63247863247863,20.338983050847457,37.72079772079773,21.35593220338983,37.26495726495727C22.372881355932204,36.80911680911681,23.389830508474574,36.23931623931624,24.406779661016948,35.8974358974359C25.423728813559322,35.55555555555556,26.440677966101696,35.612535612535616,27.45762711864407,35.21367521367522C28.47457627118644,34.81481481481482,29.491525423728813,34.01709401709402,30.508474576271183,33.504273504273506C31.525423728813557,32.991452991452995,32.54237288135593,32.364672364672366,33.559322033898304,32.136752136752136C34.57627118644068,31.90883190883191,35.59322033898305,32.022792022792025,36.610169491525426,31.794871794871796C37.6271186440678,31.56695156695157,38.644067796610166,30.313390313390315,39.66101694915254,29.743589743589745C40.67796610169491,29.173789173789174,41.69491525423729,28.376068376068375,42.71186440677966,28.376068376068375C43.728813559322035,28.376068376068375,44.7457627118644,28.71794871794872,45.762711864406775,28.71794871794872C46.77966101694915,28.71794871794872,47.79661016949152,28.034188034188034,48.813559322033896,28.034188034188034C49.83050847457627,28.034188034188034,50.847457627118644,28.71794871794872,51.86440677966102,28.71794871794872C52.88135593220339,28.71794871794872,53.898305084745765,28.376068376068375,54.91525423728814,28.376068376068375C55.93220338983051,28.376068376068375,56.94915254237288,29.743589743589745,57.96610169491525,29.743589743589745C58.983050847457626,29.743589743589745,59.99999999999999,29.05982905982906,61.01694915254237,29.05982905982906C62.03389830508474,29.05982905982906,63.05084745762712,29.743589743589745,64.0677966101695,29.743589743589745C65.08474576271186,29.743589743589745,66.10169491525424,29.401709401709404,67.11864406779661,29.401709401709404C68.13559322033899,29.401709401709404,69.15254237288136,29.914529914529915,70.16949152542374,30.085470085470085C71.1864406779661,30.256410256410255,72.20338983050848,30.31339031339031,73.22033898305085,30.427350427350426C74.23728813559322,30.54131054131054,75.2542372881356,30.769230769230766,76.27118644067797,30.769230769230766C77.28813559322033,30.769230769230766,78.30508474576271,30.14245014245014,79.32203389830508,29.743589743589745C80.33898305084746,29.344729344729345,81.35593220338983,28.376068376068375,82.37288135593221,28.376068376068375C83.38983050847457,28.376068376068375,84.40677966101696,29.401709401709404,85.42372881355932,29.401709401709404C86.4406779661017,29.401709401709404,87.45762711864407,29.401709401709404,88.47457627118645,29.401709401709404C89.49152542372882,29.401709401709404,90.50847457627118,29.800569800569804,91.52542372881355,30.085470085470085C92.54237288135593,30.37037037037037,93.55932203389831,30.541310541310533,94.57627118644069,31.11111111111111C95.59322033898306,31.68091168091168,96.61016949152543,33.27635327635328,97.62711864406779,33.504273504273506C98.64406779661016,33.732193732193736,99.66101694915254,33.61823361823362,100.6779661016949,33.84615384615385C101.69491525423729,34.074074074074076,102.71186440677965,36.92307692307693,103.72881355932203,36.92307692307693C104.7457627118644,36.92307692307693,105.76271186440678,36.92307692307693,106.77966101694915,36.92307692307693C107.79661016949153,36.92307692307693,108.8135593220339,40,109.83050847457628,40C110.84745762711864,40,111.86440677966102,39.88603988603989,112.88135593220339,39.65811965811966C113.89830508474576,39.43019943019943,114.91525423728814,37.37891737891738,115.9322033898305,36.58119658119658C116.94915254237289,35.78347578347578,117.96610169491525,34.871794871794876,118.98305084745763,34.871794871794876C120,34.871794871794876,121.01694915254237,36.23931623931624,122.03389830508473,36.23931623931624C123.05084745762711,36.23931623931624,124.0677966101695,32.82051282051282,125.08474576271188,32.82051282051282C126.10169491525424,32.82051282051282,127.11864406779662,34.529914529914535,128.135593220339,34.529914529914535C129.15254237288136,34.529914529914535,130.16949152542372,33.61823361823361,131.1864406779661,32.82051282051282C132.20338983050846,32.02279202279202,133.22033898305085,29.743589743589745,134.23728813559322,29.743589743589745C135.25423728813558,29.743589743589745,136.27118644067798,37.26495726495727,137.28813559322035,37.26495726495727C138.3050847457627,37.26495726495727,139.3220338983051,34.75783475783476,140.33898305084747,33.84615384615385C141.35593220338984,32.93447293447294,142.3728813559322,31.794871794871796,143.38983050847457,31.794871794871796C144.40677966101694,31.794871794871796,145.42372881355934,32.136752136752136,146.4406779661017,32.136752136752136C147.45762711864407,32.136752136752136,148.47457627118644,26.43874643874644,149.4915254237288,24.615384615384617C150.50847457627117,22.792022792022777,151.52542372881356,22.05128205128205,152.54237288135593,21.196581196581196C153.5593220338983,20.34188034188034,154.5762711864407,20.626780626780626,155.59322033898306,19.48717948717949C156.61016949152543,18.347578347578363,157.6271186440678,9.116809116809113,158.64406779661016,8.88888888888889C159.66101694915253,8.660968660968662,160.67796610169492,8.774928774928776,161.6949152542373,8.547008547008549C162.71186440677965,8.319088319088321,163.72881355932205,7.122507122507124,164.74576271186442,6.495726495726495C165.76271186440678,5.868945868945872,166.77966101694915,4.786324786324787,167.79661016949152,4.786324786324787C168.81355932203388,4.786324786324787,169.83050847457628,5.584045584045584,170.84745762711864,6.153846153846154C171.864406779661,6.723646723646724,172.8813559322034,7.977207977207981,173.89830508474577,8.205128205128208C174.91525423728814,8.433048433048436,175.93220338983053,8.547008547008549,176.9491525423729,8.547008547008549C177.96610169491527,8.547008547008549,178.98305084745763,5.811965811965812,180,3.076923076923075L180,40C178.98305084745763,40,177.96610169491527,40,176.9491525423729,40C175.93220338983053,40,174.91525423728814,40,173.89830508474577,40C172.8813559322034,40,171.864406779661,40,170.84745762711864,40C169.83050847457628,40,168.81355932203388,40,167.79661016949152,40C166.77966101694915,40,165.76271186440678,40,164.74576271186442,40C163.72881355932205,40,162.71186440677965,40,161.6949152542373,40C160.67796610169492,40,159.66101694915253,40,158.64406779661016,40C157.6271186440678,40,156.61016949152543,40,155.59322033898306,40C154.5762711864407,40,153.5593220338983,40,152.54237288135593,40C151.52542372881356,40,150.50847457627117,40,149.4915254237288,40C148.47457627118644,40,147.45762711864407,40,146.4406779661017,40C145.42372881355934,40,144.40677966101694,40,143.38983050847457,40C142.3728813559322,40,141.35593220338984,40,140.33898305084747,40C139.3220338983051,40,138.3050847457627,40,137.28813559322035,40C136.27118644067798,40,135.25423728813558,40,134.23728813559322,40C133.22033898305085,40,132.20338983050846,40,131.1864406779661,40C130.16949152542372,40,129.15254237288136,40,128.135593220339,40C127.11864406779662,40,126.10169491525424,40,125.08474576271188,40C124.0677966101695,40,123.05084745762711,40,122.03389830508473,40C121.01694915254237,40,120,40,118.98305084745763,40C117.96610169491525,40,116.94915254237289,40,115.9322033898305,40C114.91525423728814,40,113.89830508474576,40,112.88135593220339,40C111.86440677966102,40,110.84745762711864,40,109.83050847457628,40C108.8135593220339,40,107.79661016949153,40,106.77966101694915,40C105.76271186440678,40,104.7457627118644,40,103.72881355932203,40C102.71186440677965,40,101.69491525423729,40,100.6779661016949,40C99.66101694915254,40,98.64406779661016,40,97.62711864406779,40C96.61016949152543,40,95.59322033898306,40,94.57627118644069,40C93.55932203389831,40,92.54237288135593,40,91.52542372881355,40C90.50847457627118,40,89.49152542372882,40,88.47457627118645,40C87.45762711864407,40,86.4406779661017,40,85.42372881355932,40C84.40677966101696,40,83.38983050847457,40,82.37288135593221,40C81.35593220338983,40,80.33898305084746,40,79.32203389830508,40C78.30508474576271,40,77.28813559322033,40,76.27118644067797,40C75.2542372881356,40,74.23728813559322,40,73.22033898305085,40C72.20338983050848,40,71.1864406779661,40,70.16949152542374,40C69.15254237288136,40,68.13559322033899,40,67.11864406779661,40C66.10169491525424,40,65.08474576271186,40,64.0677966101695,40C63.05084745762712,40,62.03389830508474,40,61.01694915254237,40C59.99999999999999,40,58.983050847457626,40,57.96610169491525,40C56.94915254237288,40,55.93220338983051,40,54.91525423728814,40C53.898305084745765,40,52.88135593220339,40,51.86440677966102,40C50.847457627118644,40,49.83050847457627,40,48.813559322033896,40C47.79661016949152,40,46.77966101694915,40,45.762711864406775,40C44.7457627118644,40,43.728813559322035,40,42.71186440677966,40C41.69491525423729,40,40.67796610169491,40,39.66101694915254,40C38.644067796610166,40,37.6271186440678,40,36.610169491525426,40C35.59322033898305,40,34.57627118644068,40,33.559322033898304,40C32.54237288135593,40,31.525423728813557,40,30.508474576271183,40C29.491525423728813,40,28.47457627118644,40,27.45762711864407,40C26.440677966101696,40,25.423728813559322,40,24.406779661016948,40C23.389830508474574,40,22.372881355932204,40,21.35593220338983,40C20.338983050847457,40,19.322033898305087,40,18.305084745762713,40C17.28813559322034,40,16.271186440677965,40,15.254237288135592,40C14.23728813559322,40,13.220338983050846,40,12.203389830508474,40C11.186440677966102,40,10.169491525423728,40,9.152542372881356,40C8.135593220338983,40,7.11864406779661,40,6.101694915254237,40C5.084745762711864,40,4.067796610169491,40,3.0508474576271185,40C2.0338983050847457,40,1.0169491525423728,40,0,40Z"></path><path class="line" stroke="black" fill="none" d="M0,40C1.0169491525423728,39.6011396011396,2.0338983050847457,39.2022792022792,3.0508474576271185,38.97435897435897C4.067796610169491,38.74643874643874,5.084745762711864,38.63247863247863,6.101694915254237,38.63247863247863C7.11864406779661,38.63247863247863,8.135593220338983,38.86039886039886,9.152542372881356,38.97435897435897C10.169491525423728,39.08831908831908,11.186440677966102,39.31623931623931,12.203389830508474,39.31623931623931C13.220338983050846,39.31623931623931,14.23728813559322,38.63247863247863,15.254237288135592,38.63247863247863C16.271186440677965,38.63247863247863,17.28813559322034,38.63247863247863,18.305084745762713,38.63247863247863C19.322033898305087,38.63247863247863,20.338983050847457,37.72079772079773,21.35593220338983,37.26495726495727C22.372881355932204,36.80911680911681,23.389830508474574,36.23931623931624,24.406779661016948,35.8974358974359C25.423728813559322,35.55555555555556,26.440677966101696,35.612535612535616,27.45762711864407,35.21367521367522C28.47457627118644,34.81481481481482,29.491525423728813,34.01709401709402,30.508474576271183,33.504273504273506C31.525423728813557,32.991452991452995,32.54237288135593,32.364672364672366,33.559322033898304,32.136752136752136C34.57627118644068,31.90883190883191,35.59322033898305,32.022792022792025,36.610169491525426,31.794871794871796C37.6271186440678,31.56695156695157,38.644067796610166,30.313390313390315,39.66101694915254,29.743589743589745C40.67796610169491,29.173789173789174,41.69491525423729,28.376068376068375,42.71186440677966,28.376068376068375C43.728813559322035,28.376068376068375,44.7457627118644,28.71794871794872,45.762711864406775,28.71794871794872C46.77966101694915,28.71794871794872,47.79661016949152,28.034188034188034,48.813559322033896,28.034188034188034C49.83050847457627,28.034188034188034,50.847457627118644,28.71794871794872,51.86440677966102,28.71794871794872C52.88135593220339,28.71794871794872,53.898305084745765,28.376068376068375,54.91525423728814,28.376068376068375C55.93220338983051,28.376068376068375,56.94915254237288,29.743589743589745,57.96610169491525,29.743589743589745C58.983050847457626,29.743589743589745,59.99999999999999,29.05982905982906,61.01694915254237,29.05982905982906C62.03389830508474,29.05982905982906,63.05084745762712,29.743589743589745,64.0677966101695,29.743589743589745C65.08474576271186,29.743589743589745,66.10169491525424,29.401709401709404,67.11864406779661,29.401709401709404C68.13559322033899,29.401709401709404,69.15254237288136,29.914529914529915,70.16949152542374,30.085470085470085C71.1864406779661,30.256410256410255,72.20338983050848,30.31339031339031,73.22033898305085,30.427350427350426C74.23728813559322,30.54131054131054,75.2542372881356,30.769230769230766,76.27118644067797,30.769230769230766C77.28813559322033,30.769230769230766,78.30508474576271,30.14245014245014,79.32203389830508,29.743589743589745C80.33898305084746,29.344729344729345,81.35593220338983,28.376068376068375,82.37288135593221,28.376068376068375C83.38983050847457,28.376068376068375,84.40677966101696,29.401709401709404,85.42372881355932,29.401709401709404C86.4406779661017,29.401709401709404,87.45762711864407,29.401709401709404,88.47457627118645,29.401709401709404C89.49152542372882,29.401709401709404,90.50847457627118,29.800569800569804,91.52542372881355,30.085470085470085C92.54237288135593,30.37037037037037,93.55932203389831,30.541310541310533,94.57627118644069,31.11111111111111C95.59322033898306,31.68091168091168,96.61016949152543,33.27635327635328,97.62711864406779,33.504273504273506C98.64406779661016,33.732193732193736,99.66101694915254,33.61823361823362,100.6779661016949,33.84615384615385C101.69491525423729,34.074074074074076,102.71186440677965,36.92307692307693,103.72881355932203,36.92307692307693C104.7457627118644,36.92307692307693,105.76271186440678,36.92307692307693,106.77966101694915,36.92307692307693C107.79661016949153,36.92307692307693,108.8135593220339,40,109.83050847457628,40C110.84745762711864,40,111.86440677966102,39.88603988603989,112.88135593220339,39.65811965811966C113.89830508474576,39.43019943019943,114.91525423728814,37.37891737891738,115.9322033898305,36.58119658119658C116.94915254237289,35.78347578347578,117.96610169491525,34.871794871794876,118.98305084745763,34.871794871794876C120,34.871794871794876,121.01694915254237,36.23931623931624,122.03389830508473,36.23931623931624C123.05084745762711,36.23931623931624,124.0677966101695,32.82051282051282,125.08474576271188,32.82051282051282C126.10169491525424,32.82051282051282,127.11864406779662,34.529914529914535,128.135593220339,34.529914529914535C129.15254237288136,34.529914529914535,130.16949152542372,33.61823361823361,131.1864406779661,32.82051282051282C132.20338983050846,32.02279202279202,133.22033898305085,29.743589743589745,134.23728813559322,29.743589743589745C135.25423728813558,29.743589743589745,136.27118644067798,37.26495726495727,137.28813559322035,37.26495726495727C138.3050847457627,37.26495726495727,139.3220338983051,34.75783475783476,140.33898305084747,33.84615384615385C141.35593220338984,32.93447293447294,142.3728813559322,31.794871794871796,143.38983050847457,31.794871794871796C144.40677966101694,31.794871794871796,145.42372881355934,32.136752136752136,146.4406779661017,32.136752136752136C147.45762711864407,32.136752136752136,148.47457627118644,26.43874643874644,149.4915254237288,24.615384615384617C150.50847457627117,22.792022792022777,151.52542372881356,22.05128205128205,152.54237288135593,21.196581196581196C153.5593220338983,20.34188034188034,154.5762711864407,20.626780626780626,155.59322033898306,19.48717948717949C156.61016949152543,18.347578347578363,157.6271186440678,9.116809116809113,158.64406779661016,8.88888888888889C159.66101694915253,8.660968660968662,160.67796610169492,8.774928774928776,161.6949152542373,8.547008547008549C162.71186440677965,8.319088319088321,163.72881355932205,7.122507122507124,164.74576271186442,6.495726495726495C165.76271186440678,5.868945868945872,166.77966101694915,4.786324786324787,167.79661016949152,4.786324786324787C168.81355932203388,4.786324786324787,169.83050847457628,5.584045584045584,170.84745762711864,6.153846153846154C171.864406779661,6.723646723646724,172.8813559322034,7.977207977207981,173.89830508474577,8.205128205128208C174.91525423728814,8.433048433048436,175.93220338983053,8.547008547008549,176.9491525423729,8.547008547008549C177.96610169491527,8.547008547008549,178.98305084745763,5.811965811965812,180,3.076923076923075"></path><path class="axis-ceiling" stroke-width="1" stroke="black" fill="none" d="M175,0L180,0"></path><text class="axis-ceiling-label" font-family="sans-serif" text-anchor="end" font-size="10px" x="170" y="2.5">100</text></g></svg>