<svg xmlns="http://www.w3.org/2000/svg" viewBox="0 0 180 60"><g transform="translate(0,20)"><path class="area" fill="rgba(0, 0, 0, 0.2)" d="M0,39.64C4.285714285714286,39.59761904761905,8.57142857142857,39.55523809523809,12.857142857142856,39.519999999999996C14.571428571428571,39.50590476190476,16.285714285714285,39.502222222222215,18,39.48C18.857142857142858,39.468888888888884,19.71428571428571,39.45333333333333,20.57142857142857,39.44C21.428571428571427,39.42666666666666,22.28571428571428,39.42666666666666,23.14285714285714,39.4C24.857142857142854,39.346666666666664,26.57142857142857,39.093333333333334,28.285714285714285,39.04C29.142857142857142,39.013333333333335,30,39.013333333333335,30.857142857142858,39C31.714285714285715,38.986666666666665,32.57142857142857,38.973333333333336,33.42857142857143,38.96C34.285714285714285,38.946666666666665,35.142857142857146,38.934666666666665,36,38.92C39.42857142857142,38.861333333333334,42.857142857142854,38.742222222222225,46.28571428571428,38.68C47.99999999999999,38.64888888888889,49.71428571428571,38.626666666666665,51.42857142857142,38.6C52.285714285714285,38.586666666666666,53.14285714285714,38.580000000000005,54,38.56C54.857142857142854,38.54,55.714285714285715,38.48,56.57142857142857,38.48C57.42857142857143,38.48,58.285714285714285,38.48,59.142857142857146,38.48C60,38.48,60.85714285714286,38.346666666666664,61.714285714285715,38.32C62.57142857142858,38.29333333333334,63.42857142857143,38.306666666666665,64.28571428571429,38.28C66,38.22666666666667,67.71428571428572,38.03111111111111,69.42857142857143,37.839999999999996C70.28571428571429,37.74444444444444,71.14285714285714,37.62,72,37.519999999999996C72.85714285714286,37.419999999999995,73.71428571428571,37.42,74.57142857142857,37.24C75.42857142857143,37.06,76.28571428571428,36.599999999999994,77.14285714285714,36.44C78,36.28,78.85714285714285,36.266666666666666,79.71428571428571,36.2C80.57142857142857,36.13333333333334,81.42857142857142,36.06666666666666,82.28571428571428,36.04C83.14285714285714,36.013333333333335,84,36.026666666666664,84.85714285714286,36C85.71428571428572,35.973333333333336,86.57142857142857,35.92666666666667,87.42857142857143,35.88C88.28571428571429,35.833333333333336,89.14285714285714,35.82666666666667,90,35.72C90.85714285714285,35.61333333333333,91.71428571428571,34.70666666666666,92.57142857142856,34.16C93.42857142857142,33.61333333333333,94.28571428571428,32.946666666666665,95.14285714285714,32.44C96,31.933333333333334,96.85714285714285,31.506666666666668,97.71428571428571,31.12C98.57142857142857,30.733333333333334,99.42857142857143,30.586666666666673,100.28571428571429,30.12C101.14285714285714,29.653333333333336,102,28.61333333333333,102.85714285714285,28.32C103.71428571428571,28.026666666666667,104.57142857142857,28.146666666666672,105.42857142857143,27.880000000000003C106.28571428571429,27.613333333333337,107.14285714285714,27.08,108,26.72C108.85714285714286,26.359999999999996,109.71428571428572,25.973333333333333,110.57142857142858,25.72C111.42857142857143,25.46666666666667,112.28571428571429,25.439999999999998,113.14285714285714,25.2C114,24.96,114.85714285714286,24.56666666666667,115.71428571428572,24.28C116.57142857142858,23.993333333333336,117.42857142857143,23.726666666666663,118.28571428571429,23.479999999999997C119.14285714285714,23.23333333333333,120,22.953333333333337,120.85714285714285,22.800000000000004C121.71428571428571,22.646666666666672,122.57142857142857,22.640000000000004,123.42857142857143,22.560000000000002C124.28571428571428,22.48,125.14285714285714,22.433333333333334,125.99999999999999,22.32C126.85714285714285,22.206666666666667,127.71428571428572,21.906666666666656,128.57142857142858,21.879999999999995C129.42857142857144,21.853333333333335,130.28571428571428,21.866666666666664,131.14285714285714,21.840000000000003C132,21.813333333333343,132.85714285714286,21.493333333333332,133.71428571428572,21.36C134.57142857142858,21.226666666666667,135.42857142857142,21.04,136.28571428571428,21.04C137.14285714285714,21.04,138,21.4,138.85714285714286,21.4C139.71428571428572,21.4,140.57142857142856,19.906666666666666,141.42857142857142,19.88C142.28571428571428,19.85333333333333,143.14285714285714,19.866666666666667,144,19.84C144.85714285714286,19.813333333333333,145.71428571428572,19.706666666666667,146.57142857142858,19.64C147.42857142857144,19.573333333333334,148.28571428571428,19.519999999999996,149.14285714285714,19.439999999999998C150,19.359999999999996,150.85714285714286,19.186666666666667,151.71428571428572,19.16C152.57142857142858,19.133333333333333,153.42857142857142,19.13333333333333,154.28571428571428,19.119999999999997C155.14285714285714,19.106666666666662,156,19.106666666666666,156.85714285714286,19.08C157.71428571428572,19.05333333333333,158.57142857142856,18.946666666666665,159.42857142857142,18.88C160.28571428571428,18.813333333333333,161.14285714285714,18.706666666666667,162,18.68C162.85714285714286,18.653333333333332,163.7142857142857,18.666666666666668,164.57142857142856,18.64C165.42857142857142,18.613333333333333,166.28571428571428,18.439999999999998,167.14285714285714,18.439999999999998C168,18.439999999999998,168.85714285714286,20.64666666666667,169.71428571428572,21.28C170.57142857142858,21.913333333333334,171.42857142857144,22.240000000000002,172.2857142857143,22.240000000000002C173.14285714285717,22.240000000000002,174,22.133333333333336,174.85714285714286,21.92C175.71428571428572,21.706666666666667,176.57142857142858,20.64,177.42857142857144,20.64C178.2857142857143,20.64,179.14285714285714,21.02,180,21.4L180,40C179.14285714285714,40,178.2857142857143,40,177.42857142857144,40C176.57142857142858,40,175.71428571428572,40,174.85714285714286,40C174,40,173.14285714285717,40,172.2857142857143,40C171.42857142857144,40,170.57142857142858,40,169.71428571428572,40C168.85714285714286,40,168,40,167.14285714285714,40C166.28571428571428,40,165.42857142857142,40,164.57142857142856,40C163.7142857142857,40,162.85714285714286,40,162,40C161.14285714285714,40,160.28571428571428,40,159.42857142857142,40C158.57142857142856,40,157.71428571428572,40,156.85714285714286,40C156,40,155.14285714285714,40,154.28571428571428,40C153.42857142857142,40,152.57142857142858,40,151.71428571428572,40C150.85714285714286,40,150,40,149.14285714285714,40C148.28571428571428,40,147.42857142857144,40,146.57142857142858,40C145.71428571428572,40,144.85714285714286,40,144,40C143.14285714285714,40,142.28571428571428,40,141.42857142857142,40C140.57142857142856,40,139.71428571428572,40,138.85714285714286,40C138,40,137.14285714285714,40,136.28571428571428,40C135.42857142857142,40,134.57142857142858,40,133.71428571428572,40C132.85714285714286,40,132,40,131.14285714285714,40C130.28571428571428,40,129.42857142857144,40,128.57142857142858,40C127.71428571428572,40,126.85714285714285,40,125.99999999999999,40C125.14285714285714,40,124.28571428571428,40,123.42857142857143,40C122.57142857142857,40,121.71428571428571,40,120.85714285714285,40C120,40,119.14285714285714,40,118.28571428571429,40C117.42857142857143,40,116.57142857142858,40,115.71428571428572,40C114.85714285714286,40,114,40,113.14285714285714,40C112.28571428571429,40,111.42857142857143,40,110.57142857142858,40C109.71428571428572,40,108.85714285714286,40,108,40C107.14285714285714,40,106.28571428571429,40,105.42857142857143,40C104.57142857142857,40,103.71428571428571,40,102.85714285714285,40C102,40,101.14285714285714,40,100.28571428571429,40C99.42857142857143,40,98.57142857142857,40,97.71428571428571,40C96.85714285714285,40,96,40,95.14285714285714,40C94.28571428571428,40,93.42857142857142,40,92.57142857142856,40C91.71428571428571,40,90.85714285714285,40,90,40C89.14285714285714,40,88.28571428571429,40,87.42857142857143,40C86.57142857142857,40,85.71428571428572,40,84.85714285714286,40C84,40,83.14285714285714,40,82.28571428571428,40C81.42857142857142,40,80.57142857142857,40,79.71428571428571,40C78.85714285714285,40,78,40,77.14285714285714,40C76.28571428571428,40,75.42857142857143,40,74.57142857142857,40C73.71428571428571,40,72.85714285714286,40,72,40C71.14285714285714,40,70.28571428571429,40,69.42857142857143,40C67.71428571428572,40,66,40,64.28571428571429,40C63.42857142857143,40,62.57142857142858,40,61.714285714285715,40C60.85714285714286,40,60,40,59.142857142857146,40C58.285714285714285,40,57.42857142857143,40,56.57142857142857,40C55.714285714285715,40,54.857142857142854,40,54,40C53.14285714285714,40,52.285714285714285,40,51.42857142857142,40C49.71428571428571,40,47.99999999999999,40,46.28571428571428,40C42.857142857142854,40,39.42857142857142,40,36,40C35.142857142857146,40,34.285714285714285,40,33.42857142857143,40C32.57142857142857,40,31.714285714285715,40,30.857142857142858,40C30,40,29.142857142857142,40,28.285714285714285,40C26.57142857142857,40,24.857142857142854,40,23.14285714285714,40C22.28571428571428,40,21.428571428571427,40,20.57142857142857,40C19.71428571428571,40,18.857142857142858,40,18,40C16.285714285714285,40,14.571428571428571,40,12.857142857142856,40C8.57142857142857,40,4.285714285714286,40,0,40Z"></path><path class="line" stroke="black" fill="none" d="M0,39.64C4.285714285714286,39.59761904761905,8.57142857142857,39.55523809523809,12.857142857142856,39.519999999999996C14.571428571428571,39.50590476190476,16.285714285714285,39.502222222222215,18,39.48C18.857142857142858,39.468888888888884,19.71428571428571,39.45333333333333,20.57142857142857,39.44C21.428571428571427,39.42666666666666,22.28571428571428,39.42666666666666,23.14285714285714,39.4C24.857142857142854,39.346666666666664,26.57142857142857,39.093333333333334,28.285714285714285,39.04C29.142857142857142,39.013333333333335,30,39.013333333333335,30.857142857142858,39C31.714285714285715,38.986666666666665,32.57142857142857,38.973333333333336,33.42857142857143,38.96C34.285714285714285,38.946666666666665,35.142857142857146,38.934666666666665,36,38.92C39.42857142857142,38.861333333333334,42.857142857142854,38.742222222222225,46.28571428571428,38.68C47.99999999999999,38.64888888888889,49.71428571428571,38.626666666666665,51.42857142857142,38.6C52.285714285714285,38.586666666666666,53.14285714285714,38.580000000000005,54,38.56C54.857142857142854,38.54,55.714285714285715,38.48,56.57142857142857,38.48C57.42857142857143,38.48,58.285714285714285,38.48,59.142857142857146,38.48C60,38.48,60.85714285714286,38.346666666666664,61.714285714285715,38.32C62.57142857142858,38.29333333333334,63.42857142857143,38.306666666666665,64.28571428571429,38.28C66,38.22666666666667,67.71428571428572,38.03111111111111,69.42857142857143,37.839999999999996C70.28571428571429,37.74444444444444,71.14285714285714,37.62,72,37.519999999999996C72.85714285714286,37.419999999999995,73.71428571428571,37.42,74.57142857142857,37.24C75.42857142857143,37.06,76.28571428571428,36.599999999999994,77.14285714285714,36.44C78,36.28,78.85714285714285,36.266666666666666,79.71428571428571,36.2C80.57142857142857,36.13333333333334,81.42857142857142,36.06666666666666,82.28571428571428,36.04C83.14285714285714,36.013333333333335,84,36.026666666666664,84.85714285714286,36C85.71428571428572,35.973333333333336,86.57142857142857,35.92666666666667,87.42857142857143,35.88C88.28571428571429,35.833333333333336,89.14285714285714,35.82666666666667,90,35.72C90.85714285714285,35.61333333333333,91.71428571428571,34.70666666666666,92.57142857142856,34.16C93.42857142857142,33.61333333333333,94.28571428571428,32.946666666666665,95.14285714285714,32.44C96,31.933333333333334,96.85714285714285,31.506666666666668,97.71428571428571,31.12C98.57142857142857,30.733333333333334,99.42857142857143,30.586666666666673,100.28571428571429,30.12C101.14285714285714,29.653333333333336,102,28.61333333333333,102.85714285714285,28.32C103.71428571428571,28.026666666666667,104.57142857142857,28.146666666666672,105.42857142857143,27.880000000000003C106.28571428571429,27.613333333333337,107.14285714285714,27.08,108,26.72C108.85714285714286,26.359999999999996,109.71428571428572,25.973333333333333,110.57142857142858,25.72C111.42857142857143,25.46666666666667,112.28571428571429,25.439999999999998,113.14285714285714,25.2C114,24.96,114.85714285714286,24.56666666666667,115.71428571428572,24.28C116.57142857142858,23.993333333333336,117.42857142857143,23.726666666666663,118.28571428571429,23.479999999999997C119.14285714285714,23.23333333333333,120,22.953333333333337,120.85714285714285,22.800000000000004C121.71428571428571,22.646666666666672,122.57142857142857,22.640000000000004,123.42857142857143,22.560000000000002C124.28571428571428,22.48,125.14285714285714,22.433333333333334,125.99999999999999,22.32C126.85714285714285,22.206666666666667,127.71428571428572,21.906666666666656,128.57142857142858,21.879999999999995C129.42857142857144,21.853333333333335,130.28571428571428,21.866666666666664,131.14285714285714,21.840000000000003C132,21.813333333333343,132.85714285714286,21.493333333333332,133.71428571428572,21.36C134.57142857142858,21.226666666666667,135.42857142857142,21.04,136.28571428571428,21.04C137.14285714285714,21.04,138,21.4,138.85714285714286,21.4C139.71428571428572,21.4,140.57142857142856,19.906666666666666,141.42857142857142,19.88C142.28571428571428,19.85333333333333,143.14285714285714,19.866666666666667,144,19.84C144.85714285714286,19.813333333333333,145.71428571428572,19.706666666666667,146.57142857142858,19.64C147.42857142857144,19.573333333333334,148.28571428571428,19.519999999999996,149.14285714285714,19.439999999999998C150,19.359999999999996,150.85714285714286,19.186666666666667,151.71428571428572,19.16C152.57142857142858,19.133333333333333,153.42857142857142,19.13333333333333,154.28571428571428,19.119999999999997C155.14285714285714,19.106666666666662,156,19.106666666666666,156.85714285714286,19.08C157.71428571428572,19.05333333333333,158.57142857142856,18.946666666666665,159.42857142857142,18.88C160.28571428571428,18.813333333333333,161.14285714285714,18.706666666666667,162,18.68C162.85714285714286,18.653333333333332,163.7142857142857,18.666666666666668,164.57142857142856,18.64C165.42857142857142,18.613333333333333,166.28571428571428,18.439999999999998,167.14285714285714,18.439999999999998C168,18.439999999999998,168.85714285714286,20.64666666666667,169.71428571428572,21.28C170.57142857142858,21.913333333333334,171.42857142857144,22.240000000000002,172.2857142857143,22.240000000000002C173.14285714285717,22.240000000000002,174,22.133333333333336,174.85714285714286,21.92C175.71428571428572,21.706666666666667,176.57142857142858,20.64,177.42857142857144,20.64C178.2857142857143,20.64,179.14285714285714,21.02,180,21.4"></path><path class="axis-ceiling" stroke-width="1" stroke="black" fill="none" d="M175,0L180,0"></path><text class="axis-ceiling-label" font-family="sans-serif" text-anchor="end" font-size="10px" x="170" y="2.5">1000</text></g></svg>