<svg xmlns="http://www.w3.org/2000/svg" viewBox="0 0 180 60"><g transform="translate(0,20)"><path class="area" fill="rgba(0, 0, 0, 0.2)" d="M0,38.641999999999996C1.0169491525423728,38.650999999999996,2.0338983050847457,38.660000000000004,3.0508474576271185,38.660000000000004C4.067796610169491,38.660000000000004,5.084745762711864,38.659333333333336,6.101694915254237,38.658C7.11864406779661,38.656666666666666,8.135593220338983,38.647,9.152542372881356,38.641999999999996C10.169491525423728,38.63699999999999,11.186440677966102,38.63733333333333,12.203389830508474,38.628C13.220338983050846,38.61866666666667,14.23728813559322,38.594,15.254237288135592,38.572C16.271186440677965,38.550000000000004,17.28813559322034,38.52333333333333,18.305084745762713,38.496C19.322033898305087,38.46866666666667,20.338983050847457,38.44733333333333,21.35593220338983,38.408C22.372881355932204,38.36866666666667,23.389830508474574,38.30933333333333,24.406779661016948,38.26C25.423728813559322,38.21066666666666,26.440677966101696,38.16366666666667,27.45762711864407,38.112C28.47457627118644,38.06033333333334,29.491525423728813,38.00533333333333,30.508474576271183,37.95C31.525423728813557,37.894666666666666,32.54237288135593,37.83566666666667,33.559322033898304,37.78C34.57627118644068,37.724333333333334,35.59322033898305,37.66866666666667,36.610169491525426,37.616C37.6271186440678,37.56333333333333,38.644067796610166,37.513999999999996,39.66101694915254,37.464C40.67796610169491,37.413999999999994,41.69491525423729,37.36433333333333,42.71186440677966,37.315999999999995C43.728813559322035,37.26766666666666,44.7457627118644,37.219,45.762711864406775,37.174C46.77966101694915,37.129,47.79661016949152,37.094,48.813559322033896,37.046C49.83050847457627,36.998,50.847457627118644,36.95166666666667,51.86440677966102,36.886C52.88135593220339,36.82033333333334,53.898305084745765,36.73833333333334,54.91525423728814,36.652C55.93220338983051,36.565666666666665,56.94915254237288,36.471000000000004,57.96610169491525,36.368C58.983050847457626,36.265,59.99999999999999,36.15133333333333,61.01694915254237,36.034C62.03389830508474,35.916666666666664,63.05084745762712,35.802,64.0677966101695,35.664C65.08474576271186,35.526,66.10169491525424,35.370333333333335,67.11864406779661,35.206C68.13559322033899,35.04166666666667,69.15254237288136,34.864333333333335,70.16949152542374,34.678C71.1864406779661,34.49166666666667,72.20338983050848,34.282333333333334,73.22033898305085,34.088C74.23728813559322,33.89366666666667,75.2542372881356,33.692,76.27118644067797,33.512C77.28813559322033,33.332,78.30508474576271,33.182333333333325,79.32203389830508,33.007999999999996C80.33898305084746,32.83366666666666,81.35593220338983,32.652,82.37288135593221,32.466C83.38983050847457,32.28,84.40677966101696,32.102,85.42372881355932,31.892C86.4406779661017,31.682,87.45762711864407,31.406,88.47457627118645,31.206C89.49152542372882,31.006,90.50847457627118,30.811666666666667,91.52542372881355,30.692C92.54237288135593,30.572333333333333,93.55932203389831,30.559,94.57627118644069,30.488C95.59322033898306,30.417,96.61016949152543,30.354666666666667,97.62711864406779,30.266000000000002C98.64406779661016,30.177333333333333,99.66101694915254,30.069,100.6779661016949,29.956C101.69491525423729,29.843,102.71186440677965,29.711666666666666,103.72881355932203,29.588C104.7457627118644,29.464333333333336,105.76271186440678,29.32766666666667,106.77966101694915,29.214000000000002C107.79661016949153,29.100333333333335,108.8135593220339,29.064333333333334,109.83050847457628,28.906C110.84745762711864,28.747666666666664,111.86440677966102,28.52733333333333,112.88135593220339,28.264C113.89830508474576,28.000666666666667,114.91525423728814,27.655999999999995,115.9322033898305,27.325999999999997C116.94915254237289,26.995999999999995,117.96610169491525,26.642333333333333,118.98305084745763,26.284C120,25.925666666666668,121.01694915254237,25.56266666666666,122.03389830508473,25.176C123.05084745762711,24.789333333333328,124.0677966101695,24.369,125.08474576271188,23.964C126.10169491525424,23.559,127.11864406779662,23.167666666666666,128.135593220339,22.746C129.15254237288136,22.324333333333332,130.16949152542372,21.86333333333333,131.1864406779661,21.433999999999997C132.20338983050846,21.00466666666666,133.22033898305085,20.616999999999997,134.23728813559322,20.169999999999998C135.25423728813558,19.723,136.27118644067798,19.227999999999998,137.28813559322035,18.752C138.3050847457627,18.276,139.3220338983051,17.803000000000004,140.33898305084747,17.314C141.35593220338984,16.825000000000003,142.3728813559322,16.28533333333333,143.38983050847457,15.817999999999998C144.40677966101694,15.350666666666662,145.42372881355934,14.919333333333336,146.4406779661017,14.510000000000002C147.45762711864407,14.10066666666667,148.47457627118644,13.720999999999997,149.4915254237288,13.361999999999998C150.50847457627117,13.002999999999997,151.52542372881356,12.690999999999997,152.54237288135593,12.355999999999998C153.5593220338983,12.020999999999999,154.5762711864407,11.659333333333336,155.59322033898306,11.352000000000002C156.61016949152543,11.044666666666672,157.6271186440678,10.776,158.64406779661016,10.512C159.66101694915253,10.248,160.67796610169492,9.991333333333333,161.6949152542373,9.767999999999999C162.71186440677965,9.544666666666664,163.72881355932205,9.366333333333332,164.74576271186442,9.171999999999997C165.76271186440678,8.977666666666664,166.77966101694915,8.786666666666664,167.79661016949152,8.601999999999999C168.81355932203388,8.417333333333332,169.83050847457628,8.207333333333333,170.84745762711864,8.064C171.864406779661,7.920666666666667,172.8813559322034,7.795333333333334,173.89830508474577,7.742C174.91525423728814,7.688666666666666,175.93220338983053,7.706333333333334,176.9491525423729,7.662C177.96610169491527,7.617666666666667,178.98305084745763,7.546833333333332,180,7.475999999999998L180,40C178.98305084745763,40,177.96610169491527,40,176.9491525423729,40C175.93220338983053,40,174.91525423728814,40,173.89830508474577,40C172.8813559322034,40,171.864406779661,40,170.84745762711864,40C169.83050847457628,40,168.81355932203388,40,167.79661016949152,40C166.77966101694915,40,165.76271186440678,40,164.74576271186442,40C163.72881355932205,40,162.71186440677965,40,161.6949152542373,40C160.67796610169492,40,159.66101694915253,40,158.64406779661016,40C157.6271186440678,40,156.61016949152543,40,155.59322033898306,40C154.5762711864407,40,153.5593220338983,40,152.54237288135593,40C151.52542372881356,40,150.50847457627117,40,149.4915254237288,40C148.47457627118644,40,147.45762711864407,40,146.4406779661017,40C145.42372881355934,40,144.40677966101694,40,143.38983050847457,40C142.3728813559322,40,141.35593220338984,40,140.33898305084747,40C139.3220338983051,40,138.3050847457627,40,137.28813559322035,40C136.27118644067798,40,135.25423728813558,40,134.23728813559322,40C133.22033898305085,40,132.20338983050846,40,131.1864406779661,40C130.16949152542372,40,129.15254237288136,40,128.135593220339,40C127.11864406779662,40,126.10169491525424,40,125.08474576271188,40C124.0677966101695,40,123.05084745762711,40,122.03389830508473,40C121.01694915254237,40,120,40,118.98305084745763,40C117.96610169491525,40,116.94915254237289,40,115.9322033898305,40C114.91525423728814,40,113.89830508474576,40,112.88135593220339,40C111.86440677966102,40,110.84745762711864,40,109.83050847457628,40C108.8135593220339,40,107.79661016949153,40,106.77966101694915,40C105.76271186440678,40,104.7457627118644,40,103.72881355932203,40C102.71186440677965,40,101.69491525423729,40,100.6779661016949,40C99.66101694915254,40,98.64406779661016,40,97.62711864406779,40C96.61016949152543,40,95.59322033898306,40,94.57627118644069,40C93.55932203389831,40,92.54237288135593,40,91.52542372881355,40C90.50847457627118,40,89.49152542372882,40,88.47457627118645,40C87.45762711864407,40,86.4406779661017,40,85.42372881355932,40C84.40677966101696,40,83.38983050847457,40,82.37288135593221,40C81.35593220338983,40,80.33898305084746,40,79.32203389830508,40C78.30508474576271,40,77.28813559322033,40,76.27118644067797,40C75.2542372881356,40,74.23728813559322,40,73.22033898305085,40C72.20338983050848,40,71.1864406779661,40,70.16949152542374,40C69.15254237288136,40,68.13559322033899,40,67.11864406779661,40C66.10169491525424,40,65.08474576271186,40,64.0677966101695,40C63.05084745762712,40,62.03389830508474,40,61.01694915254237,40C59.99999999999999,40,58.983050847457626,40,57.96610169491525,40C56.94915254237288,40,55.93220338983051,40,54.91525423728814,40C53.898305084745765,40,52.88135593220339,40,51.86440677966102,40C50.847457627118644,40,49.83050847457627,40,48.813559322033896,40C47.79661016949152,40,46.77966101694915,40,45.762711864406775,40C44.7457627118644,40,43.728813559322035,40,42.71186440677966,40C41.69491525423729,40,40.67796610169491,40,39.66101694915254,40C38.644067796610166,40,37.6271186440678,40,36.610169491525426,40C35.59322033898305,40,34.57627118644068,40,33.559322033898304,40C32.54237288135593,40,31.525423728813557,40,30.508474576271183,40C29.491525423728813,40,28.47457627118644,40,27.45762711864407,40C26.440677966101696,40,25.423728813559322,40,24.406779661016948,40C23.389830508474574,40,22.372881355932204,40,21.35593220338983,40C20.338983050847457,40,19.322033898305087,40,18.305084745762713,40C17.28813559322034,40,16.271186440677965,40,15.254237288135592,40C14.23728813559322,40,13.220338983050846,40,12.203389830508474,40C11.186440677966102,40,10.169491525423728,40,9.152542372881356,40C8.135593220338983,40,7.11864406779661,40,6.101694915254237,40C5.084745762711864,40,4.067796610169491,40,3.0508474576271185,40C2.0338983050847457,40,1.0169491525423728,40,0,40Z"></path><path class="line" stroke="black" fill="none" d="M0,38.641999999999996C1.0169491525423728,38.650999999999996,2.0338983050847457,38.660000000000004,3.0508474576271185,38.660000000000004C4.067796610169491,38.660000000000004,5.084745762711864,38.659333333333336,6.101694915254237,38.658C7.11864406779661,38.656666666666666,8.135593220338983,38.647,9.152542372881356,38.641999999999996C10.169491525423728,38.63699999999999,11.186440677966102,38.63733333333333,12.203389830508474,38.628C13.220338983050846,38.61866666666667,14.23728813559322,38.594,15.254237288135592,38.572C16.271186440677965,38.550000000000004,17.28813559322034,38.52333333333333,18.305084745762713,38.496C19.322033898305087,38.46866666666667,20.338983050847457,38.44733333333333,21.35593220338983,38.408C22.372881355932204,38.36866666666667,23.389830508474574,38.30933333333333,24.406779661016948,38.26C25.423728813559322,38.21066666666666,26.440677966101696,38.16366666666667,27.45762711864407,38.112C28.47457627118644,38.06033333333334,29.491525423728813,38.00533333333333,30.508474576271183,37.95C31.525423728813557,37.894666666666666,32.54237288135593,37.83566666666667,33.559322033898304,37.78C34.57627118644068,37.724333333333334,35.59322033898305,37.66866666666667,36.610169491525426,37.616C37.6271186440678,37.56333333333333,38.644067796610166,37.513999999999996,39.66101694915254,37.464C40.67796610169491,37.413999999999994,41.69491525423729,37.36433333333333,42.71186440677966,37.315999999999995C43.728813559322035,37.26766666666666,44.7457627118644,37.219,45.762711864406775,37.174C46.77966101694915,37.129,47.79661016949152,37.094,48.813559322033896,37.046C49.83050847457627,36.998,50.847457627118644,36.95166666666667,51.86440677966102,36.886C52.88135593220339,36.82033333333334,53.898305084745765,36.73833333333334,54.91525423728814,36.652C55.93220338983051,36.565666666666665,56.94915254237288,36.471000000000004,57.96610169491525,36.368C58.983050847457626,36.265,59.99999999999999,36.15133333333333,61.01694915254237,36.034C62.03389830508474,35.916666666666664,63.05084745762712,35.802,64.0677966101695,35.664C65.08474576271186,35.526,66.10169491525424,35.370333333333335,67.11864406779661,35.206C68.13559322033899,35.04166666666667,69.15254237288136,34.864333333333335,70.16949152542374,34.678C71.1864406779661,34.49166666666667,72.20338983050848,34.282333333333334,73.22033898305085,34.088C74.23728813559322,33.89366666666667,75.2542372881356,33.692,76.27118644067797,33.512C77.28813559322033,33.332,78.30508474576271,33.182333333333325,79.32203389830508,33.007999999999996C80.33898305084746,32.83366666666666,81.35593220338983,32.652,82.37288135593221,32.466C83.38983050847457,32.28,84.40677966101696,32.102,85.42372881355932,31.892C86.4406779661017,31.682,87.45762711864407,31.406,88.47457627118645,31.206C89.49152542372882,31.006,90.50847457627118,30.811666666666667,91.52542372881355,30.692C92.54237288135593,30.572333333333333,93.55932203389831,30.559,94.57627118644069,30.488C95.59322033898306,30.417,96.61016949152543,30.354666666666667,97.62711864406779,30.266000000000002C98.64406779661016,30.177333333333333,99.66101694915254,30.069,100.6779661016949,29.956C101.69491525423729,29.843,102.71186440677965,29.711666666666666,103.72881355932203,29.588C104.7457627118644,29.464333333333336,105.76271186440678,29.32766666666667,106.77966101694915,29.214000000000002C107.79661016949153,29.100333333333335,108.8135593220339,29.064333333333334,109.83050847457628,28.906C110.84745762711864,28.747666666666664,111.86440677966102,28.52733333333333,112.88135593220339,28.264C113.89830508474576,28.000666666666667,114.91525423728814,27.655999999999995,115.9322033898305,27.325999999999997C116.94915254237289,26.995999999999995,117.96610169491525,26.642333333333333,118.98305084745763,26.284C120,25.925666666666668,121.01694915254237,25.56266666666666,122.03389830508473,25.176C123.05084745762711,24.789333333333328,124.0677966101695,24.369,125.08474576271188,23.964C126.10169491525424,23.559,127.11864406779662,23.167666666666666,128.135593220339,22.746C129.15254237288136,22.324333333333332,130.16949152542372,21.86333333333333,131.1864406779661,21.433999999999997C132.20338983050846,21.00466666666666,133.22033898305085,20.616999999999997,134.23728813559322,20.169999999999998C135.25423728813558,19.723,136.27118644067798,19.227999999999998,137.28813559322035,18.752C138.3050847457627,18.276,139.3220338983051,17.803000000000004,140.33898305084747,17.314C141.35593220338984,16.825000000000003,142.3728813559322,16.28533333333333,143.38983050847457,15.817999999999998C144.40677966101694,15.350666666666662,145.42372881355934,14.919333333333336,146.4406779661017,14.510000000000002C147.45762711864407,14.10066666666667,148.47457627118644,13.720999999999997,149.4915254237288,13.361999999999998C150.50847457627117,13.002999999999997,151.52542372881356,12.690999999999997,152.54237288135593,12.355999999999998C153.5593220338983,12.020999999999999,154.5762711864407,11.659333333333336,155.59322033898306,11.352000000000002C156.61016949152543,11.044666666666672,157.6271186440678,10.776,158.64406779661016,10.512C159.66101694915253,10.248,160.67796610169492,9.991333333333333,161.6949152542373,9.767999999999999C162.71186440677965,9.544666666666664,163.72881355932205,9.366333333333332,164.74576271186442,9.171999999999997C165.76271186440678,8.977666666666664,166.77966101694915,8.786666666666664,167.79661016949152,8.601999999999999C168.81355932203388,8.417333333333332,169.83050847457628,8.207333333333333,170.84745762711864,8.064C171.864406779661,7.920666666666667,172.8813559322034,7.795333333333334,173.89830508474577,7.742C174.91525423728814,7.688666666666666,175.93220338983053,7.706333333333334,176.9491525423729,7.662C177.96610169491527,7.617666666666667,178.98305084745763,7.546833333333332,180,7.475999999999998"></path><path class="axis-ceiling" stroke-width="1" stroke="black" fill="none" d="M175,0L180,0"></path><text class="axis-ceiling-label" font-family="sans-serif" text-anchor="end" font-size="10px" x="170" y="2.5">20000</text></g></svg>