<svg xmlns="http://www.w3.org/2000/svg" viewBox="0 0 180 60"><g transform="translate(0,20)"><path class="area" fill="rgba(0, 0, 0, 0.2)" d="M0,4.444444444444446C0.967741935483871,4.776500638569606,1.935483870967742,5.108556832694766,2.903225806451613,6.436781609195403C3.870967741935484,7.765006385696041,4.838709677419355,15.938697318007664,5.806451612903226,15.938697318007664C6.774193548387097,15.938697318007664,7.741935483870967,4.75095785440613,8.709677419354838,4.75095785440613C9.67741935483871,4.75095785440613,10.64516129032258,7.2030651340996155,11.612903225806452,7.2030651340996155C12.580645161290322,7.2030651340996155,13.548387096774194,6.513409961685824,14.516129032258064,6.283524904214559C15.483870967741934,6.053639846743295,16.451612903225804,6.079182630906769,17.419354838709676,5.823754789272031C18.387096774193548,5.568326947637293,19.354838709677416,4.853128991060027,20.32258064516129,4.75095785440613C21.29032258064516,4.648786717752234,22.258064516129032,4.699872286079183,23.225806451612904,4.597701149425286C24.193548387096776,4.49553001277139,25.161290322580648,1.0727969348659006,26.12903225806452,1.0727969348659006C27.096774193548388,1.0727969348659006,28.06451612903226,5.210727969348659,29.032258064516128,5.210727969348659C30,5.210727969348659,30.967741935483872,2.9118773946360132,31.935483870967744,2.9118773946360132C32.903225806451616,2.9118773946360132,33.87096774193548,4.904214559386975,34.83870967741935,4.904214559386975C35.806451612903224,4.904214559386975,36.774193548387096,3.67816091954023,37.74193548387097,3.67816091954023C38.70967741935484,3.67816091954023,39.677419354838705,4.904214559386975,40.64516129032258,4.904214559386975C41.61290322580645,4.904214559386975,42.58064516129032,4.904214559386975,43.54838709677419,4.904214559386975C44.516129032258064,4.904214559386975,45.483870967741936,6.8965517241379315,46.45161290322581,6.8965517241379315C47.41935483870968,6.8965517241379315,48.387096774193544,5.568326947637294,49.354838709677416,5.363984674329503C50.32258064516129,5.159642401021711,51.29032258064517,5.261813537675606,52.25806451612904,5.057471264367814C53.22580645161291,4.853128991060023,54.193548387096776,3.67816091954023,55.16129032258065,3.67816091954023C56.12903225806452,3.67816091954023,57.096774193548384,11.954022988505745,58.064516129032256,11.954022988505745C59.03225806451613,11.954022988505745,59.99999999999999,8.582375478927204,60.967741935483865,8.582375478927204C61.93548387096774,8.582375478927204,62.903225806451616,9.655172413793105,63.87096774193549,9.655172413793105C64.83870967741936,9.655172413793105,65.80645161290323,8.35249042145594,66.7741935483871,7.816091954022988C67.74193548387098,7.279693486590039,68.70967741935483,6.436781609195403,69.6774193548387,6.436781609195403C70.64516129032258,6.436781609195403,71.61290322580645,13.639846743295019,72.58064516129032,13.639846743295019C73.54838709677419,13.639846743295019,74.51612903225806,8.37803320561941,75.48387096774194,8.275862068965516C76.45161290322581,8.173690932311622,77.41935483870968,8.22477650063857,78.38709677419355,8.122605363984675C79.35483870967742,8.020434227330782,80.32258064516128,7.509578544061304,81.29032258064515,7.509578544061304C82.25806451612902,7.509578544061304,83.2258064516129,11.340996168582373,84.19354838709677,11.340996168582373C85.16129032258064,11.340996168582373,86.12903225806451,10.21711366538953,87.09677419354838,9.042145593869733C88.06451612903226,7.867177522349938,89.03225806451613,4.291187739463602,90,4.291187739463602C90.96774193548387,4.291187739463602,91.93548387096774,13.180076628352491,92.90322580645162,13.180076628352491C93.87096774193549,13.180076628352491,94.83870967741935,5.4661558109833965,95.80645161290322,4.444444444444446C96.77419354838709,3.422733077905491,97.74193548387096,2.9118773946360132,98.70967741935483,2.9118773946360132C99.6774193548387,2.9118773946360132,100.64516129032259,4.853128991060025,101.61290322580646,5.363984674329503C102.58064516129033,5.874840357598978,103.5483870967742,6.130268199233715,104.51612903225808,6.130268199233715C105.48387096774195,6.130268199233715,106.45161290322581,5.925925925925926,107.41935483870968,5.517241379310347C108.38709677419355,5.108556832694767,109.35483870967742,3.2183908045977017,110.3225806451613,3.2183908045977017C111.29032258064517,3.2183908045977017,112.25806451612902,5.977011494252875,113.2258064516129,5.977011494252875C114.19354838709677,5.977011494252875,115.16129032258064,0.4597701149425282,116.12903225806451,0.4597701149425282C117.09677419354838,0.4597701149425282,118.06451612903226,3.831417624521074,119.03225806451613,3.831417624521074C120,3.831417624521074,120.96774193548386,3.831417624521074,121.93548387096773,3.831417624521074C122.9032258064516,3.831417624521074,123.87096774193549,7.816091954022988,124.83870967741936,7.816091954022988C125.80645161290323,7.816091954022988,126.7741935483871,4.444444444444446,127.74193548387098,4.444444444444446C128.70967741935485,4.444444444444446,129.67741935483872,7.049808429118776,130.6451612903226,7.049808429118776C131.61290322580646,7.049808429118776,132.58064516129033,5.006385696040871,133.5483870967742,4.137931034482758C134.51612903225808,3.2694763729246534,135.48387096774192,1.8390804597701171,136.4516129032258,1.8390804597701171C137.41935483870967,1.8390804597701171,138.38709677419354,2.0434227330779065,139.3548387096774,2.452107279693485C140.32258064516128,2.8607918263090637,141.29032258064515,5.2873563218390816,142.25806451612902,6.436781609195403C143.2258064516129,7.586206896551725,144.19354838709677,9.348659003831417,145.16129032258064,9.348659003831417C146.1290322580645,9.348659003831417,147.09677419354838,6.232439335887611,148.06451612903226,5.210727969348659C149.03225806451613,4.189016602809706,150,3.984674329501916,150.96774193548387,3.2183908045977017C151.93548387096774,2.4521072796934873,152.90322580645162,0.6130268199233724,153.8709677419355,0.6130268199233724C154.83870967741936,0.6130268199233724,155.80645161290323,5.670498084291187,156.7741935483871,5.670498084291187C157.74193548387098,5.670498084291187,158.70967741935485,1.685823754789273,159.67741935483872,1.685823754789273C160.6451612903226,1.685823754789273,161.61290322580643,6.564495530012778,162.5806451612903,9.042145593869733C166.4516129032258,18.952745849297653,170.32258064516128,40,174.19354838709677,40C175.16129032258064,40,176.1290322580645,11.647509578544062,177.09677419354838,11.647509578544062C178.06451612903226,11.647509578544062,179.03225806451613,14.25287356321839,180,16.85823754789272L180,40C179.03225806451613,40,178.06451612903226,40,177.09677419354838,40C176.1290322580645,40,175.16129032258064,40,174.19354838709677,40C170.32258064516128,40,166.4516129032258,40,162.5806451612903,40C161.61290322580643,40,160.6451612903226,40,159.67741935483872,40C158.70967741935485,40,157.74193548387098,40,156.7741935483871,40C155.80645161290323,40,154.83870967741936,40,153.8709677419355,40C152.90322580645162,40,151.93548387096774,40,150.96774193548387,40C150,40,149.03225806451613,40,148.06451612903226,40C147.09677419354838,40,146.1290322580645,40,145.16129032258064,40C144.19354838709677,40,143.2258064516129,40,142.25806451612902,40C141.29032258064515,40,140.32258064516128,40,139.3548387096774,40C138.38709677419354,40,137.41935483870967,40,136.4516129032258,40C135.48387096774192,40,134.51612903225808,40,133.5483870967742,40C132.58064516129033,40,131.61290322580646,40,130.6451612903226,40C129.67741935483872,40,128.70967741935485,40,127.74193548387098,40C126.7741935483871,40,125.80645161290323,40,124.83870967741936,40C123.87096774193549,40,122.9032258064516,40,121.93548387096773,40C120.96774193548386,40,120,40,119.03225806451613,40C118.06451612903226,40,117.09677419354838,40,116.12903225806451,40C115.16129032258064,40,114.19354838709677,40,113.2258064516129,40C112.25806451612902,40,111.29032258064517,40,110.3225806451613,40C109.35483870967742,40,108.38709677419355,40,107.41935483870968,40C106.45161290322581,40,105.48387096774195,40,104.51612903225808,40C103.5483870967742,40,102.58064516129033,40,101.61290322580646,40C100.64516129032259,40,99.6774193548387,40,98.70967741935483,40C97.74193548387096,40,96.77419354838709,40,95.80645161290322,40C94.83870967741935,40,93.87096774193549,40,92.90322580645162,40C91.93548387096774,40,90.96774193548387,40,90,40C89.03225806451613,40,88.06451612903226,40,87.09677419354838,40C86.12903225806451,40,85.16129032258064,40,84.19354838709677,40C83.2258064516129,40,82.25806451612902,40,81.29032258064515,40C80.32258064516128,40,79.35483870967742,40,78.38709677419355,40C77.41935483870968,40,76.45161290322581,40,75.48387096774194,40C74.51612903225806,40,73.54838709677419,40,72.58064516129032,40C71.61290322580645,40,70.64516129032258,40,69.6774193548387,40C68.70967741935483,40,67.74193548387098,40,66.7741935483871,40C65.80645161290323,40,64.83870967741936,40,63.87096774193549,40C62.903225806451616,40,61.93548387096774,40,60.967741935483865,40C59.99999999999999,40,59.03225806451613,40,58.064516129032256,40C57.096774193548384,40,56.12903225806452,40,55.16129032258065,40C54.193548387096776,40,53.22580645161291,40,52.25806451612904,40C51.29032258064517,40,50.32258064516129,40,49.354838709677416,40C48.387096774193544,40,47.41935483870968,40,46.45161290322581,40C45.483870967741936,40,44.516129032258064,40,43.54838709677419,40C42.58064516129032,40,41.61290322580645,40,40.64516129032258,40C39.677419354838705,40,38.70967741935484,40,37.74193548387097,40C36.774193548387096,40,35.806451612903224,40,34.83870967741935,40C33.87096774193548,40,32.903225806451616,40,31.935483870967744,40C30.967741935483872,40,30,40,29.032258064516128,40C28.06451612903226,40,27.096774193548388,40,26.12903225806452,40C25.161290322580648,40,24.193548387096776,40,23.225806451612904,40C22.258064516129032,40,21.29032258064516,40,20.32258064516129,40C19.354838709677416,40,18.387096774193548,40,17.419354838709676,40C16.451612903225804,40,15.483870967741934,40,14.516129032258064,40C13.548387096774194,40,12.580645161290322,40,11.612903225806452,40C10.64516129032258,40,9.67741935483871,40,8.709677419354838,40C7.741935483870967,40,6.774193548387097,40,5.806451612903226,40C4.838709677419355,40,3.870967741935484,40,2.903225806451613,40C1.935483870967742,40,0.967741935483871,40,0,40Z"></path><path class="line" stroke="black" fill="none" d="M0,4.444444444444446C0.967741935483871,4.776500638569606,1.935483870967742,5.108556832694766,2.903225806451613,6.436781609195403C3.870967741935484,7.765006385696041,4.838709677419355,15.938697318007664,5.806451612903226,15.938697318007664C6.774193548387097,15.938697318007664,7.741935483870967,4.75095785440613,8.709677419354838,4.75095785440613C9.67741935483871,4.75095785440613,10.64516129032258,7.2030651340996155,11.612903225806452,7.2030651340996155C12.580645161290322,7.2030651340996155,13.548387096774194,6.513409961685824,14.516129032258064,6.283524904214559C15.483870967741934,6.053639846743295,16.451612903225804,6.079182630906769,17.419354838709676,5.823754789272031C18.387096774193548,5.568326947637293,19.354838709677416,4.853128991060027,20.32258064516129,4.75095785440613C21.29032258064516,4.648786717752234,22.258064516129032,4.699872286079183,23.225806451612904,4.597701149425286C24.193548387096776,4.49553001277139,25.161290322580648,1.0727969348659006,26.12903225806452,1.0727969348659006C27.096774193548388,1.0727969348659006,28.06451612903226,5.210727969348659,29.032258064516128,5.210727969348659C30,5.210727969348659,30.967741935483872,2.9118773946360132,31.935483870967744,2.9118773946360132C32.903225806451616,2.9118773946360132,33.87096774193548,4.904214559386975,34.83870967741935,4.904214559386975C35.806451612903224,4.904214559386975,36.774193548387096,3.67816091954023,37.74193548387097,3.67816091954023C38.70967741935484,3.67816091954023,39.677419354838705,4.904214559386975,40.64516129032258,4.904214559386975C41.61290322580645,4.904214559386975,42.58064516129032,4.904214559386975,43.54838709677419,4.904214559386975C44.516129032258064,4.904214559386975,45.483870967741936,6.8965517241379315,46.45161290322581,6.8965517241379315C47.41935483870968,6.8965517241379315,48.387096774193544,5.568326947637294,49.354838709677416,5.363984674329503C50.32258064516129,5.159642401021711,51.29032258064517,5.261813537675606,52.25806451612904,5.057471264367814C53.22580645161291,4.853128991060023,54.193548387096776,3.67816091954023,55.16129032258065,3.67816091954023C56.12903225806452,3.67816091954023,57.096774193548384,11.954022988505745,58.064516129032256,11.954022988505745C59.03225806451613,11.954022988505745,59.99999999999999,8.582375478927204,60.967741935483865,8.582375478927204C61.93548387096774,8.582375478927204,62.903225806451616,9.655172413793105,63.87096774193549,9.655172413793105C64.83870967741936,9.655172413793105,65.80645161290323,8.35249042145594,66.7741935483871,7.816091954022988C67.74193548387098,7.279693486590039,68.70967741935483,6.436781609195403,69.6774193548387,6.436781609195403C70.64516129032258,6.436781609195403,71.61290322580645,13.639846743295019,72.58064516129032,13.639846743295019C73.54838709677419,13.639846743295019,74.51612903225806,8.37803320561941,75.48387096774194,8.275862068965516C76.45161290322581,8.173690932311622,77.41935483870968,8.22477650063857,78.38709677419355,8.122605363984675C79.35483870967742,8.020434227330782,80.32258064516128,7.509578544061304,81.29032258064515,7.509578544061304C82.25806451612902,7.509578544061304,83.2258064516129,11.340996168582373,84.19354838709677,11.340996168582373C85.16129032258064,11.340996168582373,86.12903225806451,10.21711366538953,87.09677419354838,9.042145593869733C88.06451612903226,7.867177522349938,89.03225806451613,4.291187739463602,90,4.291187739463602C90.96774193548387,4.291187739463602,91.93548387096774,13.180076628352491,92.90322580645162,13.180076628352491C93.87096774193549,13.180076628352491,94.83870967741935,5.4661558109833965,95.80645161290322,4.444444444444446C96.77419354838709,3.422733077905491,97.74193548387096,2.9118773946360132,98.70967741935483,2.9118773946360132C99.6774193548387,2.9118773946360132,100.64516129032259,4.853128991060025,101.61290322580646,5.363984674329503C102.58064516129033,5.874840357598978,103.5483870967742,6.130268199233715,104.51612903225808,6.130268199233715C105.48387096774195,6.130268199233715,106.45161290322581,5.925925925925926,107.41935483870968,5.517241379310347C108.38709677419355,5.108556832694767,109.35483870967742,3.2183908045977017,110.3225806451613,3.2183908045977017C111.29032258064517,3.2183908045977017,112.25806451612902,5.977011494252875,113.2258064516129,5.977011494252875C114.19354838709677,5.977011494252875,115.16129032258064,0.4597701149425282,116.12903225806451,0.4597701149425282C117.09677419354838,0.4597701149425282,118.06451612903226,3.831417624521074,119.03225806451613,3.831417624521074C120,3.831417624521074,120.96774193548386,3.831417624521074,121.93548387096773,3.831417624521074C122.9032258064516,3.831417624521074,123.87096774193549,7.816091954022988,124.83870967741936,7.816091954022988C125.80645161290323,7.816091954022988,126.7741935483871,4.444444444444446,127.74193548387098,4.444444444444446C128.70967741935485,4.444444444444446,129.67741935483872,7.049808429118776,130.6451612903226,7.049808429118776C131.61290322580646,7.049808429118776,132.58064516129033,5.006385696040871,133.5483870967742,4.137931034482758C134.51612903225808,3.2694763729246534,135.48387096774192,1.8390804597701171,136.4516129032258,1.8390804597701171C137.41935483870967,1.8390804597701171,138.38709677419354,2.0434227330779065,139.3548387096774,2.452107279693485C140.32258064516128,2.8607918263090637,141.29032258064515,5.2873563218390816,142.25806451612902,6.436781609195403C143.2258064516129,7.586206896551725,144.19354838709677,9.348659003831417,145.16129032258064,9.348659003831417C146.1290322580645,9.348659003831417,147.09677419354838,6.232439335887611,148.06451612903226,5.210727969348659C149.03225806451613,4.189016602809706,150,3.984674329501916,150.96774193548387,3.2183908045977017C151.93548387096774,2.4521072796934873,152.90322580645162,0.6130268199233724,153.8709677419355,0.6130268199233724C154.83870967741936,0.6130268199233724,155.80645161290323,5.670498084291187,156.7741935483871,5.670498084291187C157.74193548387098,5.670498084291187,158.70967741935485,1.685823754789273,159.67741935483872,1.685823754789273C160.6451612903226,1.685823754789273,161.61290322580643,6.564495530012778,162.5806451612903,9.042145593869733C166.4516129032258,18.952745849297653,170.32258064516128,40,174.19354838709677,40C175.16129032258064,40,176.1290322580645,11.647509578544062,177.09677419354838,11.647509578544062C178.06451612903226,11.647509578544062,179.03225806451613,14.25287356321839,180,16.85823754789272"></path><path class="axis-ceiling" stroke-width="1" stroke="black" fill="none" d="M175,0L180,0"></path><text class="axis-ceiling-label" font-family="sans-serif" text-anchor="end" font-size="10px" x="170" y="2.5">45</text></g></svg>