<svg xmlns="http://www.w3.org/2000/svg" viewBox="0 0 180 60"><g transform="translate(0,20)"><path class="area" fill="rgba(0, 0, 0, 0.2)" d="M0,39.46666666666667C1.0169491525423728,39.46666666666667,2.0338983050847457,39.46666666666667,3.0508474576271185,39.46666666666667C4.067796610169491,39.46666666666667,5.084745762711864,38.13333333333333,6.101694915254237,38.13333333333333C7.11864406779661,38.13333333333333,8.135593220338983,38.93333333333334,9.152542372881356,38.93333333333334C10.169491525423728,38.93333333333334,11.186440677966102,38.666666666666664,12.203389830508474,38.666666666666664C13.220338983050846,38.666666666666664,14.23728813559322,39.55555555555556,15.254237288135592,39.733333333333334C16.271186440677965,39.91111111111111,17.28813559322034,40,18.305084745762713,40C19.322033898305087,40,20.338983050847457,38.93333333333334,21.35593220338983,38.93333333333334C22.372881355932204,38.93333333333334,23.389830508474574,38.93333333333334,24.406779661016948,38.93333333333334C25.423728813559322,38.93333333333334,26.440677966101696,39.28888888888889,27.45762711864407,39.46666666666667C28.47457627118644,39.644444444444446,29.491525423728813,40,30.508474576271183,40C31.525423728813557,40,32.54237288135593,40,33.559322033898304,40C34.57627118644068,40,35.59322033898305,40,36.610169491525426,40C37.6271186440678,40,38.644067796610166,39.46666666666667,39.66101694915254,39.46666666666667C40.67796610169491,39.46666666666667,41.69491525423729,39.644444444444446,42.71186440677966,39.733333333333334C43.728813559322035,39.82222222222222,44.7457627118644,40,45.762711864406775,40C46.77966101694915,40,47.79661016949152,39.68888888888889,48.813559322033896,39.46666666666667C49.83050847457627,39.24444444444445,50.847457627118644,38.666666666666664,51.86440677966102,38.666666666666664C52.88135593220339,38.666666666666664,53.898305084745765,38.666666666666664,54.91525423728814,38.666666666666664C55.93220338983051,38.666666666666664,56.94915254237288,36,57.96610169491525,36C58.983050847457626,36,59.99999999999999,38.93333333333334,61.01694915254237,38.93333333333334C62.03389830508474,38.93333333333334,63.05084745762712,36.53333333333333,64.0677966101695,36.53333333333333C65.08474576271186,36.53333333333333,66.10169491525424,36.800000000000004,67.11864406779661,36.800000000000004C68.13559322033899,36.800000000000004,69.15254237288136,36.44444444444445,70.16949152542374,35.733333333333334C71.1864406779661,35.022222222222226,72.20338983050848,34.044444444444444,73.22033898305085,30.666666666666664C74.23728813559322,27.288888888888884,75.2542372881356,10.133333333333333,76.27118644067797,10.133333333333333C77.28813559322033,10.133333333333333,78.30508474576271,16.133333333333344,79.32203389830508,19.46666666666667C80.33898305084746,22.800000000000008,81.35593220338983,30.133333333333333,82.37288135593221,30.133333333333333C83.38983050847457,30.133333333333333,84.40677966101696,26.399999999999988,85.42372881355932,23.73333333333333C86.4406779661017,21.06666666666666,87.45762711864407,14.133333333333336,88.47457627118645,14.133333333333336C89.49152542372882,14.133333333333336,90.50847457627118,26.400000000000023,91.52542372881355,28C92.54237288135593,29.599999999999998,93.55932203389831,30.4,94.57627118644069,30.4C95.59322033898306,30.4,96.61016949152543,27.688888888888865,97.62711864406779,22.93333333333333C98.64406779661016,18.177777777777774,99.66101694915254,1.8666666666666654,100.6779661016949,1.8666666666666654C101.69491525423729,1.8666666666666654,102.71186440677965,22.577777777777772,103.72881355932203,25.06666666666667C104.7457627118644,27.555555555555554,105.76271186440678,27.37777777777778,106.77966101694915,28.799999999999997C107.79661016949153,30.22222222222222,108.8135593220339,33.6,109.83050847457628,33.6C110.84745762711864,33.6,111.86440677966102,30.044444444444444,112.88135593220339,28.266666666666666C113.89830508474576,26.488888888888887,114.91525423728814,24.666666666666657,115.9322033898305,22.93333333333333C116.94915254237289,21.199999999999992,117.96610169491525,18.044444444444448,118.98305084745763,17.866666666666667C120,17.688888888888886,121.01694915254237,17.73333333333333,122.03389830508473,17.599999999999998C123.05084745762711,17.466666666666665,124.0677966101695,17.066666666666666,125.08474576271188,17.066666666666666C126.10169491525424,17.066666666666666,127.11864406779662,29.866666666666664,128.135593220339,29.866666666666664C129.15254237288136,29.866666666666664,130.16949152542372,29.155555555555555,131.1864406779661,27.733333333333334C132.20338983050846,26.311111111111103,133.22033898305085,19.46666666666667,134.23728813559322,19.46666666666667C135.25423728813558,19.46666666666667,136.27118644067798,22.57777777777778,137.28813559322035,24C138.3050847457627,25.42222222222222,139.3220338983051,28,140.33898305084747,28C141.35593220338984,28,142.3728813559322,21.866666666666667,143.38983050847457,21.866666666666667C144.40677966101694,21.866666666666667,145.42372881355934,22.133333333333333,146.4406779661017,22.133333333333333C147.45762711864407,22.133333333333333,148.47457627118644,13.333333333333336,149.4915254237288,13.333333333333336C150.50847457627117,13.333333333333336,151.52542372881356,15.777777777777779,152.54237288135593,18.133333333333333C153.5593220338983,20.488888888888887,154.5762711864407,27.466666666666665,155.59322033898306,27.466666666666665C156.61016949152543,27.466666666666665,157.6271186440678,26.711111111111105,158.64406779661016,26.133333333333333C159.66101694915253,25.555555555555554,160.67796610169492,25.11111111111111,161.6949152542373,24C162.71186440677965,22.88888888888889,163.72881355932205,19.46666666666667,164.74576271186442,19.46666666666667C165.76271186440678,19.46666666666667,166.77966101694915,20.26666666666667,167.79661016949152,21.866666666666667C168.81355932203388,23.466666666666683,169.83050847457628,31.28888888888889,170.84745762711864,32C171.864406779661,32.71111111111111,172.8813559322034,33.06666666666666,173.89830508474577,33.06666666666666C174.91525423728814,33.06666666666666,175.93220338983053,25.866666666666667,176.9491525423729,25.866666666666667C177.96610169491527,25.866666666666667,178.98305084745763,28.533333333333335,180,31.200000000000003L180,40C178.98305084745763,40,177.96610169491527,40,176.9491525423729,40C175.93220338983053,40,174.91525423728814,40,173.89830508474577,40C172.8813559322034,40,171.864406779661,40,170.84745762711864,40C169.83050847457628,40,168.81355932203388,40,167.79661016949152,40C166.77966101694915,40,165.76271186440678,40,164.74576271186442,40C163.72881355932205,40,162.71186440677965,40,161.6949152542373,40C160.67796610169492,40,159.66101694915253,40,158.64406779661016,40C157.6271186440678,40,156.61016949152543,40,155.59322033898306,40C154.5762711864407,40,153.5593220338983,40,152.54237288135593,40C151.52542372881356,40,150.50847457627117,40,149.4915254237288,40C148.47457627118644,40,147.45762711864407,40,146.4406779661017,40C145.42372881355934,40,144.40677966101694,40,143.38983050847457,40C142.3728813559322,40,141.35593220338984,40,140.33898305084747,40C139.3220338983051,40,138.3050847457627,40,137.28813559322035,40C136.27118644067798,40,135.25423728813558,40,134.23728813559322,40C133.22033898305085,40,132.20338983050846,40,131.1864406779661,40C130.16949152542372,40,129.15254237288136,40,128.135593220339,40C127.11864406779662,40,126.10169491525424,40,125.08474576271188,40C124.0677966101695,40,123.05084745762711,40,122.03389830508473,40C121.01694915254237,40,120,40,118.98305084745763,40C117.96610169491525,40,116.94915254237289,40,115.9322033898305,40C114.91525423728814,40,113.89830508474576,40,112.88135593220339,40C111.86440677966102,40,110.84745762711864,40,109.83050847457628,40C108.8135593220339,40,107.79661016949153,40,106.77966101694915,40C105.76271186440678,40,104.7457627118644,40,103.72881355932203,40C102.71186440677965,40,101.69491525423729,40,100.6779661016949,40C99.66101694915254,40,98.64406779661016,40,97.62711864406779,40C96.61016949152543,40,95.59322033898306,40,94.57627118644069,40C93.55932203389831,40,92.54237288135593,40,91.52542372881355,40C90.50847457627118,40,89.49152542372882,40,88.47457627118645,40C87.45762711864407,40,86.4406779661017,40,85.42372881355932,40C84.40677966101696,40,83.38983050847457,40,82.37288135593221,40C81.35593220338983,40,80.33898305084746,40,79.32203389830508,40C78.30508474576271,40,77.28813559322033,40,76.27118644067797,40C75.2542372881356,40,74.23728813559322,40,73.22033898305085,40C72.20338983050848,40,71.1864406779661,40,70.16949152542374,40C69.15254237288136,40,68.13559322033899,40,67.11864406779661,40C66.10169491525424,40,65.08474576271186,40,64.0677966101695,40C63.05084745762712,40,62.03389830508474,40,61.01694915254237,40C59.99999999999999,40,58.983050847457626,40,57.96610169491525,40C56.94915254237288,40,55.93220338983051,40,54.91525423728814,40C53.898305084745765,40,52.88135593220339,40,51.86440677966102,40C50.847457627118644,40,49.83050847457627,40,48.813559322033896,40C47.79661016949152,40,46.77966101694915,40,45.762711864406775,40C44.7457627118644,40,43.728813559322035,40,42.71186440677966,40C41.69491525423729,40,40.67796610169491,40,39.66101694915254,40C38.644067796610166,40,37.6271186440678,40,36.610169491525426,40C35.59322033898305,40,34.57627118644068,40,33.559322033898304,40C32.54237288135593,40,31.525423728813557,40,30.508474576271183,40C29.491525423728813,40,28.47457627118644,40,27.45762711864407,40C26.440677966101696,40,25.423728813559322,40,24.406779661016948,40C23.389830508474574,40,22.372881355932204,40,21.35593220338983,40C20.338983050847457,40,19.322033898305087,40,18.305084745762713,40C17.28813559322034,40,16.271186440677965,40,15.254237288135592,40C14.23728813559322,40,13.220338983050846,40,12.203389830508474,40C11.186440677966102,40,10.169491525423728,40,9.152542372881356,40C8.135593220338983,40,7.11864406779661,40,6.101694915254237,40C5.084745762711864,40,4.067796610169491,40,3.0508474576271185,40C2.0338983050847457,40,1.0169491525423728,40,0,40Z"></path><path class="line" stroke="black" fill="none" d="M0,39.46666666666667C1.0169491525423728,39.46666666666667,2.0338983050847457,39.46666666666667,3.0508474576271185,39.46666666666667C4.067796610169491,39.46666666666667,5.084745762711864,38.13333333333333,6.101694915254237,38.13333333333333C7.11864406779661,38.13333333333333,8.135593220338983,38.93333333333334,9.152542372881356,38.93333333333334C10.169491525423728,38.93333333333334,11.186440677966102,38.666666666666664,12.203389830508474,38.666666666666664C13.220338983050846,38.666666666666664,14.23728813559322,39.55555555555556,15.254237288135592,39.733333333333334C16.271186440677965,39.91111111111111,17.28813559322034,40,18.305084745762713,40C19.322033898305087,40,20.338983050847457,38.93333333333334,21.35593220338983,38.93333333333334C22.372881355932204,38.93333333333334,23.389830508474574,38.93333333333334,24.406779661016948,38.93333333333334C25.423728813559322,38.93333333333334,26.440677966101696,39.28888888888889,27.45762711864407,39.46666666666667C28.47457627118644,39.644444444444446,29.491525423728813,40,30.508474576271183,40C31.525423728813557,40,32.54237288135593,40,33.559322033898304,40C34.57627118644068,40,35.59322033898305,40,36.610169491525426,40C37.6271186440678,40,38.644067796610166,39.46666666666667,39.66101694915254,39.46666666666667C40.67796610169491,39.46666666666667,41.69491525423729,39.644444444444446,42.71186440677966,39.733333333333334C43.728813559322035,39.82222222222222,44.7457627118644,40,45.762711864406775,40C46.77966101694915,40,47.79661016949152,39.68888888888889,48.813559322033896,39.46666666666667C49.83050847457627,39.24444444444445,50.847457627118644,38.666666666666664,51.86440677966102,38.666666666666664C52.88135593220339,38.666666666666664,53.898305084745765,38.666666666666664,54.91525423728814,38.666666666666664C55.93220338983051,38.666666666666664,56.94915254237288,36,57.96610169491525,36C58.983050847457626,36,59.99999999999999,38.93333333333334,61.01694915254237,38.93333333333334C62.03389830508474,38.93333333333334,63.05084745762712,36.53333333333333,64.0677966101695,36.53333333333333C65.08474576271186,36.53333333333333,66.10169491525424,36.800000000000004,67.11864406779661,36.800000000000004C68.13559322033899,36.800000000000004,69.15254237288136,36.44444444444445,70.16949152542374,35.733333333333334C71.1864406779661,35.022222222222226,72.20338983050848,34.044444444444444,73.22033898305085,30.666666666666664C74.23728813559322,27.288888888888884,75.2542372881356,10.133333333333333,76.27118644067797,10.133333333333333C77.28813559322033,10.133333333333333,78.30508474576271,16.133333333333344,79.32203389830508,19.46666666666667C80.33898305084746,22.800000000000008,81.35593220338983,30.133333333333333,82.37288135593221,30.133333333333333C83.38983050847457,30.133333333333333,84.40677966101696,26.399999999999988,85.42372881355932,23.73333333333333C86.4406779661017,21.06666666666666,87.45762711864407,14.133333333333336,88.47457627118645,14.133333333333336C89.49152542372882,14.133333333333336,90.50847457627118,26.400000000000023,91.52542372881355,28C92.54237288135593,29.599999999999998,93.55932203389831,30.4,94.57627118644069,30.4C95.59322033898306,30.4,96.61016949152543,27.688888888888865,97.62711864406779,22.93333333333333C98.64406779661016,18.177777777777774,99.66101694915254,1.8666666666666654,100.6779661016949,1.8666666666666654C101.69491525423729,1.8666666666666654,102.71186440677965,22.577777777777772,103.72881355932203,25.06666666666667C104.7457627118644,27.555555555555554,105.76271186440678,27.37777777777778,106.77966101694915,28.799999999999997C107.79661016949153,30.22222222222222,108.8135593220339,33.6,109.83050847457628,33.6C110.84745762711864,33.6,111.86440677966102,30.044444444444444,112.88135593220339,28.266666666666666C113.89830508474576,26.488888888888887,114.91525423728814,24.666666666666657,115.9322033898305,22.93333333333333C116.94915254237289,21.199999999999992,117.96610169491525,18.044444444444448,118.98305084745763,17.866666666666667C120,17.688888888888886,121.01694915254237,17.73333333333333,122.03389830508473,17.599999999999998C123.05084745762711,17.466666666666665,124.0677966101695,17.066666666666666,125.08474576271188,17.066666666666666C126.10169491525424,17.066666666666666,127.11864406779662,29.866666666666664,128.135593220339,29.866666666666664C129.15254237288136,29.866666666666664,130.16949152542372,29.155555555555555,131.1864406779661,27.733333333333334C132.20338983050846,26.311111111111103,133.22033898305085,19.46666666666667,134.23728813559322,19.46666666666667C135.25423728813558,19.46666666666667,136.27118644067798,22.57777777777778,137.28813559322035,24C138.3050847457627,25.42222222222222,139.3220338983051,28,140.33898305084747,28C141.35593220338984,28,142.3728813559322,21.866666666666667,143.38983050847457,21.866666666666667C144.40677966101694,21.866666666666667,145.42372881355934,22.133333333333333,146.4406779661017,22.133333333333333C147.45762711864407,22.133333333333333,148.47457627118644,13.333333333333336,149.4915254237288,13.333333333333336C150.50847457627117,13.333333333333336,151.52542372881356,15.777777777777779,152.54237288135593,18.133333333333333C153.5593220338983,20.488888888888887,154.5762711864407,27.466666666666665,155.59322033898306,27.466666666666665C156.61016949152543,27.466666666666665,157.6271186440678,26.711111111111105,158.64406779661016,26.133333333333333C159.66101694915253,25.555555555555554,160.67796610169492,25.11111111111111,161.6949152542373,24C162.71186440677965,22.88888888888889,163.72881355932205,19.46666666666667,164.74576271186442,19.46666666666667C165.76271186440678,19.46666666666667,166.77966101694915,20.26666666666667,167.79661016949152,21.866666666666667C168.81355932203388,23.466666666666683,169.83050847457628,31.28888888888889,170.84745762711864,32C171.864406779661,32.71111111111111,172.8813559322034,33.06666666666666,173.89830508474577,33.06666666666666C174.91525423728814,33.06666666666666,175.93220338983053,25.866666666666667,176.9491525423729,25.866666666666667C177.96610169491527,25.866666666666667,178.98305084745763,28.533333333333335,180,31.200000000000003"></path><path class="axis-ceiling" stroke-width="1" stroke="black" fill="none" d="M175,0L180,0"></path><text class="axis-ceiling-label" font-family="sans-serif" text-anchor="end" font-size="10px" x="170" y="2.5">150</text></g></svg>