<svg xmlns="http://www.w3.org/2000/svg" viewBox="0 0 180 60"><g transform="translate(0,20)"><path class="area" fill="rgba(0, 0, 0, 0.2)" d="M0,38.879999999999995C1.0169491525423728,38.86666666666666,2.0338983050847457,38.85333333333333,3.0508474576271185,38.8C4.067796610169491,38.74666666666666,5.084745762711864,38.56,6.101694915254237,38.56C7.11864406779661,38.56,8.135593220338983,38.586666666666666,9.152542372881356,38.586666666666666C10.169491525423728,38.586666666666666,11.186440677966102,38.36444444444445,12.203389830508474,38.29333333333334C13.220338983050846,38.22222222222222,14.23728813559322,38.199999999999996,15.254237288135592,38.16C16.271186440677965,38.12,17.28813559322034,38.12444444444444,18.305084745762713,38.053333333333335C19.322033898305087,37.98222222222223,20.338983050847457,37.577777777777776,21.35593220338983,37.44C22.372881355932204,37.30222222222222,23.389830508474574,37.26222222222222,24.406779661016948,37.22666666666667C25.423728813559322,37.19111111111111,26.440677966101696,37.208888888888886,27.45762711864407,37.17333333333333C28.47457627118644,37.13777777777778,29.491525423728813,36.88,30.508474576271183,36.82666666666667C31.525423728813557,36.77333333333333,32.54237288135593,36.8,33.559322033898304,36.74666666666666C34.57627118644068,36.69333333333333,35.59322033898305,36.54222222222222,36.610169491525426,36.45333333333333C37.6271186440678,36.364444444444445,38.644067796610166,36.21333333333333,39.66101694915254,36.21333333333333C40.67796610169491,36.21333333333333,41.69491525423729,36.29333333333334,42.71186440677966,36.29333333333334C43.728813559322035,36.29333333333334,44.7457627118644,36.21333333333333,45.762711864406775,36.13333333333333C46.77966101694915,36.053333333333335,47.79661016949152,35.91555555555556,48.813559322033896,35.81333333333333C49.83050847457627,35.71111111111111,50.847457627118644,35.62666666666667,51.86440677966102,35.52C52.88135593220339,35.413333333333334,53.898305084745765,35.31111111111111,54.91525423728814,35.17333333333333C55.93220338983051,35.035555555555554,56.94915254237288,34.9511111111111,57.96610169491525,34.69333333333333C58.983050847457626,34.43555555555555,59.99999999999999,33.937777777777775,61.01694915254237,33.626666666666665C62.03389830508474,33.315555555555555,63.05084745762712,33.05777777777778,64.0677966101695,32.82666666666667C65.08474576271186,32.595555555555556,66.10169491525424,32.56888888888889,67.11864406779661,32.24C68.13559322033899,31.91111111111111,69.15254237288136,31.257777777777775,70.16949152542374,30.85333333333333C71.1864406779661,30.448888888888888,72.20338983050848,30.088888888888892,73.22033898305085,29.813333333333336C74.23728813559322,29.53777777777778,75.2542372881356,29.36888888888889,76.27118644067797,29.2C77.28813559322033,29.03111111111111,78.30508474576271,28.897777777777772,79.32203389830508,28.799999999999997C80.33898305084746,28.70222222222222,81.35593220338983,28.613333333333337,82.37288135593221,28.613333333333337C83.38983050847457,28.613333333333337,84.40677966101696,28.933333333333337,85.42372881355932,28.933333333333337C86.4406779661017,28.933333333333337,87.45762711864407,27.884444444444444,88.47457627118645,27.813333333333333C89.49152542372882,27.74222222222222,90.50847457627118,27.77777777777778,91.52542372881355,27.706666666666667C92.54237288135593,27.635555555555555,93.55932203389831,26.720000000000002,94.57627118644069,26.373333333333335C95.59322033898306,26.02666666666667,96.61016949152543,25.853333333333335,97.62711864406779,25.62666666666667C98.64406779661016,25.400000000000002,99.66101694915254,25.26222222222222,100.6779661016949,25.013333333333332C101.69491525423729,24.764444444444443,102.71186440677965,24.546666666666667,103.72881355932203,24.133333333333333C104.7457627118644,23.72,105.76271186440678,22.933333333333334,106.77966101694915,22.533333333333335C107.79661016949153,22.133333333333333,108.8135593220339,21.928888888888892,109.83050847457628,21.733333333333334C110.84745762711864,21.53777777777778,111.86440677966102,21.45777777777778,112.88135593220339,21.36C113.89830508474576,21.26222222222222,114.91525423728814,21.288888888888888,115.9322033898305,21.146666666666665C116.94915254237289,21.00444444444444,117.96610169491525,19.17333333333334,118.98305084745763,18.693333333333335C120,18.213333333333335,121.01694915254237,18.342222222222222,122.03389830508473,17.973333333333336C123.05084745762711,17.604444444444447,124.0677966101695,16.915555555555557,125.08474576271188,16.48C126.10169491525424,16.044444444444448,127.11864406779662,15.871111111111112,128.135593220339,15.36C129.15254237288136,14.848888888888888,130.16949152542372,13.853333333333333,131.1864406779661,13.413333333333334C132.20338983050846,12.97333333333333,133.22033898305085,13.106666666666666,134.23728813559322,12.719999999999999C135.25423728813558,12.333333333333332,136.27118644067798,11.093333333333334,137.28813559322035,11.093333333333334C138.3050847457627,11.093333333333334,139.3220338983051,11.280000000000001,140.33898305084747,11.280000000000001C141.35593220338984,11.280000000000001,142.3728813559322,9.431111111111106,143.38983050847457,9.04C144.40677966101694,8.648888888888889,145.42372881355934,8.728888888888893,146.4406779661017,8.453333333333335C147.45762711864407,8.17777777777778,148.47457627118644,7.386666666666666,149.4915254237288,7.386666666666666C150.50847457627117,7.386666666666666,151.52542372881356,7.608888888888886,152.54237288135593,7.679999999999998C153.5593220338983,7.7511111111111095,154.5762711864407,7.724444444444443,155.59322033898306,7.813333333333334C156.61016949152543,7.902222222222225,157.6271186440678,8.613333333333335,158.64406779661016,8.613333333333335C159.66101694915253,8.613333333333335,160.67796610169492,8.613333333333335,161.6949152542373,8.613333333333335C162.71186440677965,8.613333333333335,163.72881355932205,9.786666666666669,164.74576271186442,9.786666666666669C165.76271186440678,9.786666666666669,166.77966101694915,9.524444444444445,167.79661016949152,9.44C168.81355932203388,9.355555555555554,169.83050847457628,9.28,170.84745762711864,9.28C171.864406779661,9.28,172.8813559322034,9.57333333333333,173.89830508474577,9.57333333333333C174.91525423728814,9.57333333333333,175.93220338983053,9.386666666666667,176.9491525423729,9.386666666666667C177.96610169491527,9.386666666666667,178.98305084745763,9.533333333333333,180,9.68L180,40C178.98305084745763,40,177.96610169491527,40,176.9491525423729,40C175.93220338983053,40,174.91525423728814,40,173.89830508474577,40C172.8813559322034,40,171.864406779661,40,170.84745762711864,40C169.83050847457628,40,168.81355932203388,40,167.79661016949152,40C166.77966101694915,40,165.76271186440678,40,164.74576271186442,40C163.72881355932205,40,162.71186440677965,40,161.6949152542373,40C160.67796610169492,40,159.66101694915253,40,158.64406779661016,40C157.6271186440678,40,156.61016949152543,40,155.59322033898306,40C154.5762711864407,40,153.5593220338983,40,152.54237288135593,40C151.52542372881356,40,150.50847457627117,40,149.4915254237288,40C148.47457627118644,40,147.45762711864407,40,146.4406779661017,40C145.42372881355934,40,144.40677966101694,40,143.38983050847457,40C142.3728813559322,40,141.35593220338984,40,140.33898305084747,40C139.3220338983051,40,138.3050847457627,40,137.28813559322035,40C136.27118644067798,40,135.25423728813558,40,134.23728813559322,40C133.22033898305085,40,132.20338983050846,40,131.1864406779661,40C130.16949152542372,40,129.15254237288136,40,128.135593220339,40C127.11864406779662,40,126.10169491525424,40,125.08474576271188,40C124.0677966101695,40,123.05084745762711,40,122.03389830508473,40C121.01694915254237,40,120,40,118.98305084745763,40C117.96610169491525,40,116.94915254237289,40,115.9322033898305,40C114.91525423728814,40,113.89830508474576,40,112.88135593220339,40C111.86440677966102,40,110.84745762711864,40,109.83050847457628,40C108.8135593220339,40,107.79661016949153,40,106.77966101694915,40C105.76271186440678,40,104.7457627118644,40,103.72881355932203,40C102.71186440677965,40,101.69491525423729,40,100.6779661016949,40C99.66101694915254,40,98.64406779661016,40,97.62711864406779,40C96.61016949152543,40,95.59322033898306,40,94.57627118644069,40C93.55932203389831,40,92.54237288135593,40,91.52542372881355,40C90.50847457627118,40,89.49152542372882,40,88.47457627118645,40C87.45762711864407,40,86.4406779661017,40,85.42372881355932,40C84.40677966101696,40,83.38983050847457,40,82.37288135593221,40C81.35593220338983,40,80.33898305084746,40,79.32203389830508,40C78.30508474576271,40,77.28813559322033,40,76.27118644067797,40C75.2542372881356,40,74.23728813559322,40,73.22033898305085,40C72.20338983050848,40,71.1864406779661,40,70.16949152542374,40C69.15254237288136,40,68.13559322033899,40,67.11864406779661,40C66.10169491525424,40,65.08474576271186,40,64.0677966101695,40C63.05084745762712,40,62.03389830508474,40,61.01694915254237,40C59.99999999999999,40,58.983050847457626,40,57.96610169491525,40C56.94915254237288,40,55.93220338983051,40,54.91525423728814,40C53.898305084745765,40,52.88135593220339,40,51.86440677966102,40C50.847457627118644,40,49.83050847457627,40,48.813559322033896,40C47.79661016949152,40,46.77966101694915,40,45.762711864406775,40C44.7457627118644,40,43.728813559322035,40,42.71186440677966,40C41.69491525423729,40,40.67796610169491,40,39.66101694915254,40C38.644067796610166,40,37.6271186440678,40,36.610169491525426,40C35.59322033898305,40,34.57627118644068,40,33.559322033898304,40C32.54237288135593,40,31.525423728813557,40,30.508474576271183,40C29.491525423728813,40,28.47457627118644,40,27.45762711864407,40C26.440677966101696,40,25.423728813559322,40,24.406779661016948,40C23.389830508474574,40,22.372881355932204,40,21.35593220338983,40C20.338983050847457,40,19.322033898305087,40,18.305084745762713,40C17.28813559322034,40,16.271186440677965,40,15.254237288135592,40C14.23728813559322,40,13.220338983050846,40,12.203389830508474,40C11.186440677966102,40,10.169491525423728,40,9.152542372881356,40C8.135593220338983,40,7.11864406779661,40,6.101694915254237,40C5.084745762711864,40,4.067796610169491,40,3.0508474576271185,40C2.0338983050847457,40,1.0169491525423728,40,0,40Z"></path><path class="line" stroke="black" fill="none" d="M0,38.879999999999995C1.0169491525423728,38.86666666666666,2.0338983050847457,38.85333333333333,3.0508474576271185,38.8C4.067796610169491,38.74666666666666,5.084745762711864,38.56,6.101694915254237,38.56C7.11864406779661,38.56,8.135593220338983,38.586666666666666,9.152542372881356,38.586666666666666C10.169491525423728,38.586666666666666,11.186440677966102,38.36444444444445,12.203389830508474,38.29333333333334C13.220338983050846,38.22222222222222,14.23728813559322,38.199999999999996,15.254237288135592,38.16C16.271186440677965,38.12,17.28813559322034,38.12444444444444,18.305084745762713,38.053333333333335C19.322033898305087,37.98222222222223,20.338983050847457,37.577777777777776,21.35593220338983,37.44C22.372881355932204,37.30222222222222,23.389830508474574,37.26222222222222,24.406779661016948,37.22666666666667C25.423728813559322,37.19111111111111,26.440677966101696,37.208888888888886,27.45762711864407,37.17333333333333C28.47457627118644,37.13777777777778,29.491525423728813,36.88,30.508474576271183,36.82666666666667C31.525423728813557,36.77333333333333,32.54237288135593,36.8,33.559322033898304,36.74666666666666C34.57627118644068,36.69333333333333,35.59322033898305,36.54222222222222,36.610169491525426,36.45333333333333C37.6271186440678,36.364444444444445,38.644067796610166,36.21333333333333,39.66101694915254,36.21333333333333C40.67796610169491,36.21333333333333,41.69491525423729,36.29333333333334,42.71186440677966,36.29333333333334C43.728813559322035,36.29333333333334,44.7457627118644,36.21333333333333,45.762711864406775,36.13333333333333C46.77966101694915,36.053333333333335,47.79661016949152,35.91555555555556,48.813559322033896,35.81333333333333C49.83050847457627,35.71111111111111,50.847457627118644,35.62666666666667,51.86440677966102,35.52C52.88135593220339,35.413333333333334,53.898305084745765,35.31111111111111,54.91525423728814,35.17333333333333C55.93220338983051,35.035555555555554,56.94915254237288,34.9511111111111,57.96610169491525,34.69333333333333C58.983050847457626,34.43555555555555,59.99999999999999,33.937777777777775,61.01694915254237,33.626666666666665C62.03389830508474,33.315555555555555,63.05084745762712,33.05777777777778,64.0677966101695,32.82666666666667C65.08474576271186,32.595555555555556,66.10169491525424,32.56888888888889,67.11864406779661,32.24C68.13559322033899,31.91111111111111,69.15254237288136,31.257777777777775,70.16949152542374,30.85333333333333C71.1864406779661,30.448888888888888,72.20338983050848,30.088888888888892,73.22033898305085,29.813333333333336C74.23728813559322,29.53777777777778,75.2542372881356,29.36888888888889,76.27118644067797,29.2C77.28813559322033,29.03111111111111,78.30508474576271,28.897777777777772,79.32203389830508,28.799999999999997C80.33898305084746,28.70222222222222,81.35593220338983,28.613333333333337,82.37288135593221,28.613333333333337C83.38983050847457,28.613333333333337,84.40677966101696,28.933333333333337,85.42372881355932,28.933333333333337C86.4406779661017,28.933333333333337,87.45762711864407,27.884444444444444,88.47457627118645,27.813333333333333C89.49152542372882,27.74222222222222,90.50847457627118,27.77777777777778,91.52542372881355,27.706666666666667C92.54237288135593,27.635555555555555,93.55932203389831,26.720000000000002,94.57627118644069,26.373333333333335C95.59322033898306,26.02666666666667,96.61016949152543,25.853333333333335,97.62711864406779,25.62666666666667C98.64406779661016,25.400000000000002,99.66101694915254,25.26222222222222,100.6779661016949,25.013333333333332C101.69491525423729,24.764444444444443,102.71186440677965,24.546666666666667,103.72881355932203,24.133333333333333C104.7457627118644,23.72,105.76271186440678,22.933333333333334,106.77966101694915,22.533333333333335C107.79661016949153,22.133333333333333,108.8135593220339,21.928888888888892,109.83050847457628,21.733333333333334C110.84745762711864,21.53777777777778,111.86440677966102,21.45777777777778,112.88135593220339,21.36C113.89830508474576,21.26222222222222,114.91525423728814,21.288888888888888,115.9322033898305,21.146666666666665C116.94915254237289,21.00444444444444,117.96610169491525,19.17333333333334,118.98305084745763,18.693333333333335C120,18.213333333333335,121.01694915254237,18.342222222222222,122.03389830508473,17.973333333333336C123.05084745762711,17.604444444444447,124.0677966101695,16.915555555555557,125.08474576271188,16.48C126.10169491525424,16.044444444444448,127.11864406779662,15.871111111111112,128.135593220339,15.36C129.15254237288136,14.848888888888888,130.16949152542372,13.853333333333333,131.1864406779661,13.413333333333334C132.20338983050846,12.97333333333333,133.22033898305085,13.106666666666666,134.23728813559322,12.719999999999999C135.25423728813558,12.333333333333332,136.27118644067798,11.093333333333334,137.28813559322035,11.093333333333334C138.3050847457627,11.093333333333334,139.3220338983051,11.280000000000001,140.33898305084747,11.280000000000001C141.35593220338984,11.280000000000001,142.3728813559322,9.431111111111106,143.38983050847457,9.04C144.40677966101694,8.648888888888889,145.42372881355934,8.728888888888893,146.4406779661017,8.453333333333335C147.45762711864407,8.17777777777778,148.47457627118644,7.386666666666666,149.4915254237288,7.386666666666666C150.50847457627117,7.386666666666666,151.52542372881356,7.608888888888886,152.54237288135593,7.679999999999998C153.5593220338983,7.7511111111111095,154.5762711864407,7.724444444444443,155.59322033898306,7.813333333333334C156.61016949152543,7.902222222222225,157.6271186440678,8.613333333333335,158.64406779661016,8.613333333333335C159.66101694915253,8.613333333333335,160.67796610169492,8.613333333333335,161.6949152542373,8.613333333333335C162.71186440677965,8.613333333333335,163.72881355932205,9.786666666666669,164.74576271186442,9.786666666666669C165.76271186440678,9.786666666666669,166.77966101694915,9.524444444444445,167.79661016949152,9.44C168.81355932203388,9.355555555555554,169.83050847457628,9.28,170.84745762711864,9.28C171.864406779661,9.28,172.8813559322034,9.57333333333333,173.89830508474577,9.57333333333333C174.91525423728814,9.57333333333333,175.93220338983053,9.386666666666667,176.9491525423729,9.386666666666667C177.96610169491527,9.386666666666667,178.98305084745763,9.533333333333333,180,9.68"></path><path class="axis-ceiling" stroke-width="1" stroke="black" fill="none" d="M175,0L180,0"></path><text class="axis-ceiling-label" font-family="sans-serif" text-anchor="end" font-size="10px" x="170" y="2.5">1500</text></g></svg>