<svg xmlns="http://www.w3.org/2000/svg" viewBox="0 0 180 60"><g transform="translate(0,20)"><path class="area" fill="rgba(0, 0, 0, 0.2)" d="M0,39.06666666666667C1.0169491525423728,38.866666666666674,2.0338983050847457,38.66666666666667,3.0508474576271185,38.61333333333334C4.067796610169491,38.56,5.084745762711864,38.53333333333333,6.101694915254237,38.53333333333333C7.11864406779661,38.53333333333333,8.135593220338983,39.2,9.152542372881356,39.2C10.169491525423728,39.2,11.186440677966102,39.18222222222222,12.203389830508474,39.14666666666667C13.220338983050846,39.111111111111114,14.23728813559322,38.77333333333333,15.254237288135592,38.77333333333333C16.271186440677965,38.77333333333333,17.28813559322034,39.17333333333333,18.305084745762713,39.17333333333333C19.322033898305087,39.17333333333333,20.338983050847457,39.111111111111114,21.35593220338983,39.06666666666667C22.372881355932204,39.022222222222226,23.389830508474574,38.95111111111111,24.406779661016948,38.906666666666666C25.423728813559322,38.86222222222222,26.440677966101696,38.831111111111106,27.45762711864407,38.8C28.47457627118644,38.76888888888889,29.491525423728813,38.72,30.508474576271183,38.72C31.525423728813557,38.72,32.54237288135593,39.14666666666667,33.559322033898304,39.14666666666667C34.57627118644068,39.14666666666667,35.59322033898305,39.02666666666667,36.610169491525426,38.82666666666667C37.6271186440678,38.626666666666665,38.644067796610166,37.946666666666665,39.66101694915254,37.946666666666665C40.67796610169491,37.946666666666665,41.69491525423729,39.78666666666667,42.71186440677966,39.78666666666667C43.728813559322035,39.78666666666667,44.7457627118644,38.65777777777778,45.762711864406775,38.21333333333334C46.77966101694915,37.768888888888895,47.79661016949152,37.120000000000005,48.813559322033896,37.120000000000005C49.83050847457627,37.120000000000005,50.847457627118644,39.04,51.86440677966102,39.04C52.88135593220339,39.04,53.898305084745765,37.093333333333334,54.91525423728814,37.093333333333334C55.93220338983051,37.093333333333334,56.94915254237288,37.86666666666667,57.96610169491525,37.86666666666667C58.983050847457626,37.86666666666667,59.99999999999999,37.648888888888884,61.01694915254237,37.25333333333333C62.03389830508474,36.85777777777778,63.05084745762712,35.49333333333333,64.0677966101695,35.49333333333333C65.08474576271186,35.49333333333333,66.10169491525424,36.480000000000004,67.11864406779661,36.586666666666666C68.13559322033899,36.69333333333333,69.15254237288136,36.74666666666666,70.16949152542374,36.74666666666666C71.1864406779661,36.74666666666666,72.20338983050848,36.648888888888884,73.22033898305085,36.61333333333333C74.23728813559322,36.577777777777776,75.2542372881356,36.586666666666666,76.27118644067797,36.53333333333333C77.28813559322033,36.48,78.30508474576271,35.82222222222222,79.32203389830508,35.78666666666667C80.33898305084746,35.751111111111115,81.35593220338983,35.733333333333334,82.37288135593221,35.733333333333334C83.38983050847457,35.733333333333334,84.40677966101696,36.053333333333335,85.42372881355932,36.053333333333335C86.4406779661017,36.053333333333335,87.45762711864407,35.742222222222225,88.47457627118645,35.46666666666667C89.49152542372882,35.19111111111111,90.50847457627118,34.4,91.52542372881355,34.4C92.54237288135593,34.4,93.55932203389831,34.50666666666667,94.57627118644069,34.50666666666667C95.59322033898306,34.50666666666667,96.61016949152543,34.4,97.62711864406779,34.18666666666667C98.64406779661016,33.973333333333336,99.66101694915254,33.373333333333335,100.6779661016949,32.400000000000006C101.69491525423729,31.426666666666673,102.71186440677965,28.346666666666668,103.72881355932203,28.346666666666668C104.7457627118644,28.346666666666668,105.76271186440678,29.857777777777777,106.77966101694915,30.37333333333333C107.79661016949153,30.88888888888889,108.8135593220339,31.44,109.83050847457628,31.44C110.84745762711864,31.44,111.86440677966102,24.666666666666668,112.88135593220339,24.666666666666668C113.89830508474576,24.666666666666668,114.91525423728814,26.293333333333337,115.9322033898305,27.173333333333332C116.94915254237289,28.053333333333335,117.96610169491525,29.946666666666665,118.98305084745763,29.946666666666665C120,29.946666666666665,121.01694915254237,29.795555555555556,122.03389830508473,29.493333333333336C123.05084745762711,29.191111111111113,124.0677966101695,27.04,125.08474576271188,27.04C126.10169491525424,27.04,127.11864406779662,32.77333333333333,128.135593220339,32.77333333333333C129.15254237288136,32.77333333333333,130.16949152542372,23.46666666666667,131.1864406779661,23.46666666666667C132.20338983050846,23.46666666666667,133.22033898305085,23.946666666666665,134.23728813559322,23.946666666666665C135.25423728813558,23.946666666666665,136.27118644067798,17.839999999999996,137.28813559322035,17.839999999999996C138.3050847457627,17.839999999999996,139.3220338983051,24.293333333333333,140.33898305084747,24.666666666666668C141.35593220338984,25.04,142.3728813559322,25.226666666666667,143.38983050847457,25.226666666666667C144.40677966101694,25.226666666666667,145.42372881355934,20.96,146.4406779661017,20.96C147.45762711864407,20.96,148.47457627118644,21.626666666666665,149.4915254237288,21.626666666666665C150.50847457627117,21.626666666666665,151.52542372881356,17.839999999999996,152.54237288135593,17.839999999999996C153.5593220338983,17.839999999999996,154.5762711864407,21.226666666666667,155.59322033898306,21.226666666666667C156.61016949152543,21.226666666666667,157.6271186440678,18.693333333333317,158.64406779661016,16.400000000000002C159.66101694915253,14.106666666666664,160.67796610169492,7.466666666666666,161.6949152542373,7.466666666666666C162.71186440677965,7.466666666666666,163.72881355932205,20.21333333333334,164.74576271186442,20.21333333333334C165.76271186440678,20.21333333333334,166.77966101694915,10.48,167.79661016949152,10.48C168.81355932203388,10.48,169.83050847457628,13.786666666666667,170.84745762711864,13.786666666666667C171.864406779661,13.786666666666667,172.8813559322034,4.2666666666666675,173.89830508474577,4.2666666666666675C174.91525423728814,4.2666666666666675,175.93220338983053,16.293333333333333,176.9491525423729,16.293333333333333C177.96610169491527,16.293333333333333,178.98305084745763,10.666666666666668,180,5.04L180,40C178.98305084745763,40,177.96610169491527,40,176.9491525423729,40C175.93220338983053,40,174.91525423728814,40,173.89830508474577,40C172.8813559322034,40,171.864406779661,40,170.84745762711864,40C169.83050847457628,40,168.81355932203388,40,167.79661016949152,40C166.77966101694915,40,165.76271186440678,40,164.74576271186442,40C163.72881355932205,40,162.71186440677965,40,161.6949152542373,40C160.67796610169492,40,159.66101694915253,40,158.64406779661016,40C157.6271186440678,40,156.61016949152543,40,155.59322033898306,40C154.5762711864407,40,153.5593220338983,40,152.54237288135593,40C151.52542372881356,40,150.50847457627117,40,149.4915254237288,40C148.47457627118644,40,147.45762711864407,40,146.4406779661017,40C145.42372881355934,40,144.40677966101694,40,143.38983050847457,40C142.3728813559322,40,141.35593220338984,40,140.33898305084747,40C139.3220338983051,40,138.3050847457627,40,137.28813559322035,40C136.27118644067798,40,135.25423728813558,40,134.23728813559322,40C133.22033898305085,40,132.20338983050846,40,131.1864406779661,40C130.16949152542372,40,129.15254237288136,40,128.135593220339,40C127.11864406779662,40,126.10169491525424,40,125.08474576271188,40C124.0677966101695,40,123.05084745762711,40,122.03389830508473,40C121.01694915254237,40,120,40,118.98305084745763,40C117.96610169491525,40,116.94915254237289,40,115.9322033898305,40C114.91525423728814,40,113.89830508474576,40,112.88135593220339,40C111.86440677966102,40,110.84745762711864,40,109.83050847457628,40C108.8135593220339,40,107.79661016949153,40,106.77966101694915,40C105.76271186440678,40,104.7457627118644,40,103.72881355932203,40C102.71186440677965,40,101.69491525423729,40,100.6779661016949,40C99.66101694915254,40,98.64406779661016,40,97.62711864406779,40C96.61016949152543,40,95.59322033898306,40,94.57627118644069,40C93.55932203389831,40,92.54237288135593,40,91.52542372881355,40C90.50847457627118,40,89.49152542372882,40,88.47457627118645,40C87.45762711864407,40,86.4406779661017,40,85.42372881355932,40C84.40677966101696,40,83.38983050847457,40,82.37288135593221,40C81.35593220338983,40,80.33898305084746,40,79.32203389830508,40C78.30508474576271,40,77.28813559322033,40,76.27118644067797,40C75.2542372881356,40,74.23728813559322,40,73.22033898305085,40C72.20338983050848,40,71.1864406779661,40,70.16949152542374,40C69.15254237288136,40,68.13559322033899,40,67.11864406779661,40C66.10169491525424,40,65.08474576271186,40,64.0677966101695,40C63.05084745762712,40,62.03389830508474,40,61.01694915254237,40C59.99999999999999,40,58.983050847457626,40,57.96610169491525,40C56.94915254237288,40,55.93220338983051,40,54.91525423728814,40C53.898305084745765,40,52.88135593220339,40,51.86440677966102,40C50.847457627118644,40,49.83050847457627,40,48.813559322033896,40C47.79661016949152,40,46.77966101694915,40,45.762711864406775,40C44.7457627118644,40,43.728813559322035,40,42.71186440677966,40C41.69491525423729,40,40.67796610169491,40,39.66101694915254,40C38.644067796610166,40,37.6271186440678,40,36.610169491525426,40C35.59322033898305,40,34.57627118644068,40,33.559322033898304,40C32.54237288135593,40,31.525423728813557,40,30.508474576271183,40C29.491525423728813,40,28.47457627118644,40,27.45762711864407,40C26.440677966101696,40,25.423728813559322,40,24.406779661016948,40C23.389830508474574,40,22.372881355932204,40,21.35593220338983,40C20.338983050847457,40,19.322033898305087,40,18.305084745762713,40C17.28813559322034,40,16.271186440677965,40,15.254237288135592,40C14.23728813559322,40,13.220338983050846,40,12.203389830508474,40C11.186440677966102,40,10.169491525423728,40,9.152542372881356,40C8.135593220338983,40,7.11864406779661,40,6.101694915254237,40C5.084745762711864,40,4.067796610169491,40,3.0508474576271185,40C2.0338983050847457,40,1.0169491525423728,40,0,40Z"></path><path class="line" stroke="black" fill="none" d="M0,39.06666666666667C1.0169491525423728,38.866666666666674,2.0338983050847457,38.66666666666667,3.0508474576271185,38.61333333333334C4.067796610169491,38.56,5.084745762711864,38.53333333333333,6.101694915254237,38.53333333333333C7.11864406779661,38.53333333333333,8.135593220338983,39.2,9.152542372881356,39.2C10.169491525423728,39.2,11.186440677966102,39.18222222222222,12.203389830508474,39.14666666666667C13.220338983050846,39.111111111111114,14.23728813559322,38.77333333333333,15.254237288135592,38.77333333333333C16.271186440677965,38.77333333333333,17.28813559322034,39.17333333333333,18.305084745762713,39.17333333333333C19.322033898305087,39.17333333333333,20.338983050847457,39.111111111111114,21.35593220338983,39.06666666666667C22.372881355932204,39.022222222222226,23.389830508474574,38.95111111111111,24.406779661016948,38.906666666666666C25.423728813559322,38.86222222222222,26.440677966101696,38.831111111111106,27.45762711864407,38.8C28.47457627118644,38.76888888888889,29.491525423728813,38.72,30.508474576271183,38.72C31.525423728813557,38.72,32.54237288135593,39.14666666666667,33.559322033898304,39.14666666666667C34.57627118644068,39.14666666666667,35.59322033898305,39.02666666666667,36.610169491525426,38.82666666666667C37.6271186440678,38.626666666666665,38.644067796610166,37.946666666666665,39.66101694915254,37.946666666666665C40.67796610169491,37.946666666666665,41.69491525423729,39.78666666666667,42.71186440677966,39.78666666666667C43.728813559322035,39.78666666666667,44.7457627118644,38.65777777777778,45.762711864406775,38.21333333333334C46.77966101694915,37.768888888888895,47.79661016949152,37.120000000000005,48.813559322033896,37.120000000000005C49.83050847457627,37.120000000000005,50.847457627118644,39.04,51.86440677966102,39.04C52.88135593220339,39.04,53.898305084745765,37.093333333333334,54.91525423728814,37.093333333333334C55.93220338983051,37.093333333333334,56.94915254237288,37.86666666666667,57.96610169491525,37.86666666666667C58.983050847457626,37.86666666666667,59.99999999999999,37.648888888888884,61.01694915254237,37.25333333333333C62.03389830508474,36.85777777777778,63.05084745762712,35.49333333333333,64.0677966101695,35.49333333333333C65.08474576271186,35.49333333333333,66.10169491525424,36.480000000000004,67.11864406779661,36.586666666666666C68.13559322033899,36.69333333333333,69.15254237288136,36.74666666666666,70.16949152542374,36.74666666666666C71.1864406779661,36.74666666666666,72.20338983050848,36.648888888888884,73.22033898305085,36.61333333333333C74.23728813559322,36.577777777777776,75.2542372881356,36.586666666666666,76.27118644067797,36.53333333333333C77.28813559322033,36.48,78.30508474576271,35.82222222222222,79.32203389830508,35.78666666666667C80.33898305084746,35.751111111111115,81.35593220338983,35.733333333333334,82.37288135593221,35.733333333333334C83.38983050847457,35.733333333333334,84.40677966101696,36.053333333333335,85.42372881355932,36.053333333333335C86.4406779661017,36.053333333333335,87.45762711864407,35.742222222222225,88.47457627118645,35.46666666666667C89.49152542372882,35.19111111111111,90.50847457627118,34.4,91.52542372881355,34.4C92.54237288135593,34.4,93.55932203389831,34.50666666666667,94.57627118644069,34.50666666666667C95.59322033898306,34.50666666666667,96.61016949152543,34.4,97.62711864406779,34.18666666666667C98.64406779661016,33.973333333333336,99.66101694915254,33.373333333333335,100.6779661016949,32.400000000000006C101.69491525423729,31.426666666666673,102.71186440677965,28.346666666666668,103.72881355932203,28.346666666666668C104.7457627118644,28.346666666666668,105.76271186440678,29.857777777777777,106.77966101694915,30.37333333333333C107.79661016949153,30.88888888888889,108.8135593220339,31.44,109.83050847457628,31.44C110.84745762711864,31.44,111.86440677966102,24.666666666666668,112.88135593220339,24.666666666666668C113.89830508474576,24.666666666666668,114.91525423728814,26.293333333333337,115.9322033898305,27.173333333333332C116.94915254237289,28.053333333333335,117.96610169491525,29.946666666666665,118.98305084745763,29.946666666666665C120,29.946666666666665,121.01694915254237,29.795555555555556,122.03389830508473,29.493333333333336C123.05084745762711,29.191111111111113,124.0677966101695,27.04,125.08474576271188,27.04C126.10169491525424,27.04,127.11864406779662,32.77333333333333,128.135593220339,32.77333333333333C129.15254237288136,32.77333333333333,130.16949152542372,23.46666666666667,131.1864406779661,23.46666666666667C132.20338983050846,23.46666666666667,133.22033898305085,23.946666666666665,134.23728813559322,23.946666666666665C135.25423728813558,23.946666666666665,136.27118644067798,17.839999999999996,137.28813559322035,17.839999999999996C138.3050847457627,17.839999999999996,139.3220338983051,24.293333333333333,140.33898305084747,24.666666666666668C141.35593220338984,25.04,142.3728813559322,25.226666666666667,143.38983050847457,25.226666666666667C144.40677966101694,25.226666666666667,145.42372881355934,20.96,146.4406779661017,20.96C147.45762711864407,20.96,148.47457627118644,21.626666666666665,149.4915254237288,21.626666666666665C150.50847457627117,21.626666666666665,151.52542372881356,17.839999999999996,152.54237288135593,17.839999999999996C153.5593220338983,17.839999999999996,154.5762711864407,21.226666666666667,155.59322033898306,21.226666666666667C156.61016949152543,21.226666666666667,157.6271186440678,18.693333333333317,158.64406779661016,16.400000000000002C159.66101694915253,14.106666666666664,160.67796610169492,7.466666666666666,161.6949152542373,7.466666666666666C162.71186440677965,7.466666666666666,163.72881355932205,20.21333333333334,164.74576271186442,20.21333333333334C165.76271186440678,20.21333333333334,166.77966101694915,10.48,167.79661016949152,10.48C168.81355932203388,10.48,169.83050847457628,13.786666666666667,170.84745762711864,13.786666666666667C171.864406779661,13.786666666666667,172.8813559322034,4.2666666666666675,173.89830508474577,4.2666666666666675C174.91525423728814,4.2666666666666675,175.93220338983053,16.293333333333333,176.9491525423729,16.293333333333333C177.96610169491527,16.293333333333333,178.98305084745763,10.666666666666668,180,5.04"></path><path class="axis-ceiling" stroke-width="1" stroke="black" fill="none" d="M175,0L180,0"></path><text class="axis-ceiling-label" font-family="sans-serif" text-anchor="end" font-size="10px" x="170" y="2.5">1500</text></g></svg>