<svg xmlns="http://www.w3.org/2000/svg" viewBox="0 0 180 60"><g transform="translate(0,20)"><path class="area" fill="rgba(0, 0, 0, 0.2)" d="M0,36.800000000000004C1.0169491525423728,38,2.0338983050847457,39.2,3.0508474576271185,39.2C8.64406779661017,39.2,14.237288135593218,38.4,19.83050847457627,38.4C20.338983050847457,38.4,20.847457627118644,39.2,21.35593220338983,39.2C23.89830508474576,39.2,26.440677966101696,37.599999999999994,28.983050847457626,37.599999999999994C29.491525423728813,37.599999999999994,29.999999999999996,38.4,30.508474576271183,38.4C31.525423728813557,38.4,32.54237288135593,36.800000000000004,33.559322033898304,36.800000000000004C37.11864406779661,36.800000000000004,40.67796610169492,39.2,44.237288135593225,39.2C48.8135593220339,39.2,53.389830508474574,39.2,57.96610169491525,39.2C58.983050847457626,39.2,59.99999999999999,39.2,61.01694915254237,39.2C67.62711864406779,39.2,74.23728813559322,39.2,80.84745762711864,39.2C83.89830508474576,39.2,86.94915254237289,39.2,90,39.2C90.50847457627118,39.2,91.01694915254237,38.4,91.52542372881355,38.4C92.03389830508473,38.4,92.54237288135593,38.4,93.05084745762711,38.4C95.59322033898304,38.4,98.13559322033898,36.800000000000004,100.6779661016949,36.800000000000004C101.69491525423729,36.800000000000004,102.71186440677965,37.86666666666667,103.72881355932203,38.4C104.23728813559322,38.666666666666664,104.74576271186442,39.2,105.2542372881356,39.2C105.76271186440678,39.2,106.27118644067797,39.2,106.77966101694915,39.2C107.79661016949153,39.2,108.8135593220339,32.800000000000004,109.83050847457628,32.800000000000004C110.33898305084746,32.800000000000004,110.84745762711864,39.2,111.35593220338983,39.2C111.86440677966101,39.2,112.37288135593221,39.2,112.88135593220339,39.2C113.38983050847457,39.2,113.89830508474576,39.2,114.40677966101694,39.2C116.44067796610169,39.2,118.47457627118644,35.2,120.50847457627118,35.2C121.52542372881355,35.2,122.54237288135593,36.62222222222223,123.5593220338983,37.599999999999994C124.0677966101695,38.08888888888889,124.57627118644068,39.2,125.08474576271188,39.2C125.59322033898306,39.2,126.10169491525424,38.4,126.61016949152543,38.4C127.11864406779661,38.4,127.6271186440678,39.2,128.135593220339,39.2C128.64406779661016,39.2,129.15254237288136,36.800000000000004,129.66101694915253,36.800000000000004C130.16949152542372,36.800000000000004,130.6779661016949,39.2,131.1864406779661,39.2C132.20338983050846,39.2,133.22033898305085,31.200000000000003,134.23728813559322,31.200000000000003C134.74576271186442,31.200000000000003,135.25423728813558,33.6,135.76271186440678,33.6C136.27118644067798,33.6,136.77966101694915,33.06666666666667,137.28813559322035,32C137.79661016949154,30.933333333333334,138.3050847457627,24,138.8135593220339,24C139.3220338983051,24,139.83050847457628,34.13333333333332,140.33898305084747,35.2C140.84745762711864,36.26666666666667,141.35593220338984,36.800000000000004,141.864406779661,36.800000000000004C142.3728813559322,36.800000000000004,142.88135593220338,30.4,143.38983050847457,30.4C143.89830508474577,30.4,144.40677966101694,37.599999999999994,144.91525423728814,37.599999999999994C145.42372881355934,37.599999999999994,145.9322033898305,37.33333333333333,146.4406779661017,36.800000000000004C146.9491525423729,36.26666666666668,147.45762711864407,11.466666666666715,147.96610169491527,8.799999999999999C148.47457627118644,6.133333333333333,148.98305084745763,4.8,149.4915254237288,4.8C150,4.8,150.50847457627117,6.266666666666666,151.01694915254237,8.799999999999999C151.52542372881356,11.333333333333332,152.03389830508473,20,152.54237288135593,20C153.05084745762713,20,153.5593220338983,2.400000000000002,154.0677966101695,2.400000000000002C154.5762711864407,2.400000000000002,155.08474576271186,31.200000000000003,155.59322033898306,31.200000000000003C156.10169491525426,31.200000000000003,156.61016949152543,14.399999999999999,157.11864406779662,14.399999999999999C157.6271186440678,14.399999999999999,158.135593220339,15.86666666666671,158.64406779661016,18.4C159.15254237288136,20.933333333333334,159.66101694915253,29.6,160.16949152542372,29.6C160.67796610169492,29.6,161.1864406779661,19.2,161.6949152542373,19.2C162.20338983050848,19.2,162.71186440677965,22.400000000000002,163.22033898305085,22.400000000000002C163.72881355932205,22.400000000000002,164.23728813559322,20.8,164.74576271186442,20.8C165.25423728813558,20.8,165.76271186440678,35.2,166.27118644067795,35.2C166.77966101694915,35.2,167.28813559322032,32.53333333333333,167.79661016949152,32C168.3050847457627,31.46666666666667,168.81355932203388,31.200000000000003,169.32203389830508,31.200000000000003C169.83050847457628,31.200000000000003,170.33898305084745,33.6,170.84745762711864,33.6C171.35593220338984,33.6,171.864406779661,30.4,172.3728813559322,30.4C172.8813559322034,30.4,173.38983050847457,30.666666666666668,173.89830508474577,31.200000000000003C174.40677966101694,31.73333333333333,174.91525423728814,34.4,175.4237288135593,34.4C175.9322033898305,34.4,176.4406779661017,9.6,176.9491525423729,9.6C177.45762711864407,9.6,177.96610169491527,39.2,178.47457627118644,39.2C178.98305084745763,39.2,179.4915254237288,37.6,180,36L180,40C179.4915254237288,40,178.98305084745763,40,178.47457627118644,40C177.96610169491527,40,177.45762711864407,40,176.9491525423729,40C176.4406779661017,40,175.9322033898305,40,175.4237288135593,40C174.91525423728814,40,174.40677966101694,40,173.89830508474577,40C173.38983050847457,40,172.8813559322034,40,172.3728813559322,40C171.864406779661,40,171.35593220338984,40,170.84745762711864,40C170.33898305084745,40,169.83050847457628,40,169.32203389830508,40C168.81355932203388,40,168.3050847457627,40,167.79661016949152,40C167.28813559322032,40,166.77966101694915,40,166.27118644067795,40C165.76271186440678,40,165.25423728813558,40,164.74576271186442,40C164.23728813559322,40,163.72881355932205,40,163.22033898305085,40C162.71186440677965,40,162.20338983050848,40,161.6949152542373,40C161.1864406779661,40,160.67796610169492,40,160.16949152542372,40C159.66101694915253,40,159.15254237288136,40,158.64406779661016,40C158.135593220339,40,157.6271186440678,40,157.11864406779662,40C156.61016949152543,40,156.10169491525426,40,155.59322033898306,40C155.08474576271186,40,154.5762711864407,40,154.0677966101695,40C153.5593220338983,40,153.05084745762713,40,152.54237288135593,40C152.03389830508473,40,151.52542372881356,40,151.01694915254237,40C150.50847457627117,40,150,40,149.4915254237288,40C148.98305084745763,40,148.47457627118644,40,147.96610169491527,40C147.45762711864407,40,146.9491525423729,40,146.4406779661017,40C145.9322033898305,40,145.42372881355934,40,144.91525423728814,40C144.40677966101694,40,143.89830508474577,40,143.38983050847457,40C142.88135593220338,40,142.3728813559322,40,141.864406779661,40C141.35593220338984,40,140.84745762711864,40,140.33898305084747,40C139.83050847457628,40,139.3220338983051,40,138.8135593220339,40C138.3050847457627,40,137.79661016949154,40,137.28813559322035,40C136.77966101694915,40,136.27118644067798,40,135.76271186440678,40C135.25423728813558,40,134.74576271186442,40,134.23728813559322,40C133.22033898305085,40,132.20338983050846,40,131.1864406779661,40C130.6779661016949,40,130.16949152542372,40,129.66101694915253,40C129.15254237288136,40,128.64406779661016,40,128.135593220339,40C127.6271186440678,40,127.11864406779661,40,126.61016949152543,40C126.10169491525424,40,125.59322033898306,40,125.08474576271188,40C124.57627118644068,40,124.0677966101695,40,123.5593220338983,40C122.54237288135593,40,121.52542372881355,40,120.50847457627118,40C118.47457627118644,40,116.44067796610169,40,114.40677966101694,40C113.89830508474576,40,113.38983050847457,40,112.88135593220339,40C112.37288135593221,40,111.86440677966101,40,111.35593220338983,40C110.84745762711864,40,110.33898305084746,40,109.83050847457628,40C108.8135593220339,40,107.79661016949153,40,106.77966101694915,40C106.27118644067797,40,105.76271186440678,40,105.2542372881356,40C104.74576271186442,40,104.23728813559322,40,103.72881355932203,40C102.71186440677965,40,101.69491525423729,40,100.6779661016949,40C98.13559322033898,40,95.59322033898304,40,93.05084745762711,40C92.54237288135593,40,92.03389830508473,40,91.52542372881355,40C91.01694915254237,40,90.50847457627118,40,90,40C86.94915254237289,40,83.89830508474576,40,80.84745762711864,40C74.23728813559322,40,67.62711864406779,40,61.01694915254237,40C59.99999999999999,40,58.983050847457626,40,57.96610169491525,40C53.389830508474574,40,48.8135593220339,40,44.237288135593225,40C40.67796610169492,40,37.11864406779661,40,33.559322033898304,40C32.54237288135593,40,31.525423728813557,40,30.508474576271183,40C29.999999999999996,40,29.491525423728813,40,28.983050847457626,40C26.440677966101696,40,23.89830508474576,40,21.35593220338983,40C20.847457627118644,40,20.338983050847457,40,19.83050847457627,40C14.237288135593218,40,8.64406779661017,40,3.0508474576271185,40C2.0338983050847457,40,1.0169491525423728,40,0,40Z"></path><path class="line" stroke="black" fill="none" d="M0,36.800000000000004C1.0169491525423728,38,2.0338983050847457,39.2,3.0508474576271185,39.2C8.64406779661017,39.2,14.237288135593218,38.4,19.83050847457627,38.4C20.338983050847457,38.4,20.847457627118644,39.2,21.35593220338983,39.2C23.89830508474576,39.2,26.440677966101696,37.599999999999994,28.983050847457626,37.599999999999994C29.491525423728813,37.599999999999994,29.999999999999996,38.4,30.508474576271183,38.4C31.525423728813557,38.4,32.54237288135593,36.800000000000004,33.559322033898304,36.800000000000004C37.11864406779661,36.800000000000004,40.67796610169492,39.2,44.237288135593225,39.2C48.8135593220339,39.2,53.389830508474574,39.2,57.96610169491525,39.2C58.983050847457626,39.2,59.99999999999999,39.2,61.01694915254237,39.2C67.62711864406779,39.2,74.23728813559322,39.2,80.84745762711864,39.2C83.89830508474576,39.2,86.94915254237289,39.2,90,39.2C90.50847457627118,39.2,91.01694915254237,38.4,91.52542372881355,38.4C92.03389830508473,38.4,92.54237288135593,38.4,93.05084745762711,38.4C95.59322033898304,38.4,98.13559322033898,36.800000000000004,100.6779661016949,36.800000000000004C101.69491525423729,36.800000000000004,102.71186440677965,37.86666666666667,103.72881355932203,38.4C104.23728813559322,38.666666666666664,104.74576271186442,39.2,105.2542372881356,39.2C105.76271186440678,39.2,106.27118644067797,39.2,106.77966101694915,39.2C107.79661016949153,39.2,108.8135593220339,32.800000000000004,109.83050847457628,32.800000000000004C110.33898305084746,32.800000000000004,110.84745762711864,39.2,111.35593220338983,39.2C111.86440677966101,39.2,112.37288135593221,39.2,112.88135593220339,39.2C113.38983050847457,39.2,113.89830508474576,39.2,114.40677966101694,39.2C116.44067796610169,39.2,118.47457627118644,35.2,120.50847457627118,35.2C121.52542372881355,35.2,122.54237288135593,36.62222222222223,123.5593220338983,37.599999999999994C124.0677966101695,38.08888888888889,124.57627118644068,39.2,125.08474576271188,39.2C125.59322033898306,39.2,126.10169491525424,38.4,126.61016949152543,38.4C127.11864406779661,38.4,127.6271186440678,39.2,128.135593220339,39.2C128.64406779661016,39.2,129.15254237288136,36.800000000000004,129.66101694915253,36.800000000000004C130.16949152542372,36.800000000000004,130.6779661016949,39.2,131.1864406779661,39.2C132.20338983050846,39.2,133.22033898305085,31.200000000000003,134.23728813559322,31.200000000000003C134.74576271186442,31.200000000000003,135.25423728813558,33.6,135.76271186440678,33.6C136.27118644067798,33.6,136.77966101694915,33.06666666666667,137.28813559322035,32C137.79661016949154,30.933333333333334,138.3050847457627,24,138.8135593220339,24C139.3220338983051,24,139.83050847457628,34.13333333333332,140.33898305084747,35.2C140.84745762711864,36.26666666666667,141.35593220338984,36.800000000000004,141.864406779661,36.800000000000004C142.3728813559322,36.800000000000004,142.88135593220338,30.4,143.38983050847457,30.4C143.89830508474577,30.4,144.40677966101694,37.599999999999994,144.91525423728814,37.599999999999994C145.42372881355934,37.599999999999994,145.9322033898305,37.33333333333333,146.4406779661017,36.800000000000004C146.9491525423729,36.26666666666668,147.45762711864407,11.466666666666715,147.96610169491527,8.799999999999999C148.47457627118644,6.133333333333333,148.98305084745763,4.8,149.4915254237288,4.8C150,4.8,150.50847457627117,6.266666666666666,151.01694915254237,8.799999999999999C151.52542372881356,11.333333333333332,152.03389830508473,20,152.54237288135593,20C153.05084745762713,20,153.5593220338983,2.400000000000002,154.0677966101695,2.400000000000002C154.5762711864407,2.400000000000002,155.08474576271186,31.200000000000003,155.59322033898306,31.200000000000003C156.10169491525426,31.200000000000003,156.61016949152543,14.399999999999999,157.11864406779662,14.399999999999999C157.6271186440678,14.399999999999999,158.135593220339,15.86666666666671,158.64406779661016,18.4C159.15254237288136,20.933333333333334,159.66101694915253,29.6,160.16949152542372,29.6C160.67796610169492,29.6,161.1864406779661,19.2,161.6949152542373,19.2C162.20338983050848,19.2,162.71186440677965,22.400000000000002,163.22033898305085,22.400000000000002C163.72881355932205,22.400000000000002,164.23728813559322,20.8,164.74576271186442,20.8C165.25423728813558,20.8,165.76271186440678,35.2,166.27118644067795,35.2C166.77966101694915,35.2,167.28813559322032,32.53333333333333,167.79661016949152,32C168.3050847457627,31.46666666666667,168.81355932203388,31.200000000000003,169.32203389830508,31.200000000000003C169.83050847457628,31.200000000000003,170.33898305084745,33.6,170.84745762711864,33.6C171.35593220338984,33.6,171.864406779661,30.4,172.3728813559322,30.4C172.8813559322034,30.4,173.38983050847457,30.666666666666668,173.89830508474577,31.200000000000003C174.40677966101694,31.73333333333333,174.91525423728814,34.4,175.4237288135593,34.4C175.9322033898305,34.4,176.4406779661017,9.6,176.9491525423729,9.6C177.45762711864407,9.6,177.96610169491527,39.2,178.47457627118644,39.2C178.98305084745763,39.2,179.4915254237288,37.6,180,36"></path><path class="axis-ceiling" stroke-width="1" stroke="black" fill="none" d="M175,0L180,0"></path><text class="axis-ceiling-label" font-family="sans-serif" text-anchor="end" font-size="10px" x="170" y="2.5">50</text></g></svg>