<svg xmlns="http://www.w3.org/2000/svg" viewBox="0 0 180 60"><g transform="translate(0,20)"><path class="area" fill="rgba(0, 0, 0, 0.2)" d="M0,38.857142857142854C0.923076923076923,38.857142857142854,1.8461538461538463,38.857142857142854,2.769230769230769,38.857142857142854C3.692307692307692,38.857142857142854,4.615384615384615,38.857142857142854,5.538461538461538,38.857142857142854C7.384615384615384,38.857142857142854,9.23076923076923,36.57142857142857,11.076923076923077,36.57142857142857C12,36.57142857142857,12.923076923076923,37.714285714285715,13.846153846153847,37.714285714285715C14.76923076923077,37.714285714285715,15.692307692307693,37.714285714285715,16.615384615384617,37.714285714285715C17.53846153846154,37.714285714285715,18.461538461538463,37.714285714285715,19.384615384615387,37.714285714285715C23.07692307692308,37.714285714285715,26.76923076923077,37.714285714285715,30.461538461538463,37.714285714285715C32.30769230769231,37.714285714285715,34.15384615384615,36.57142857142857,36,36.57142857142857C36.92307692307693,36.57142857142857,37.84615384615385,36.57142857142857,38.769230769230774,36.57142857142857C39.69230769230769,36.57142857142857,40.61538461538462,37.714285714285715,41.53846153846154,37.714285714285715C42.46153846153846,37.714285714285715,43.38461538461539,37.714285714285715,44.30769230769231,37.714285714285715C45.23076923076923,37.714285714285715,46.15384615384615,37.714285714285715,47.07692307692308,37.714285714285715C48,37.714285714285715,48.92307692307693,37.714285714285715,49.84615384615385,37.714285714285715C51.69230769230769,37.714285714285715,53.53846153846154,37.2063492063492,55.38461538461539,36.57142857142857C56.307692307692314,36.25396825396825,57.23076923076923,35.80952380952381,58.15384615384616,35.42857142857143C59.07692307692308,35.04761904761905,60.00000000000001,34.85714285714286,60.92307692307693,34.28571428571429C61.84615384615385,33.71428571428572,62.769230769230774,32.57142857142857,63.69230769230769,32C64.61538461538461,31.428571428571427,65.53846153846155,30.857142857142858,66.46153846153847,30.857142857142858C67.38461538461539,30.857142857142858,68.30769230769232,30.857142857142858,69.23076923076924,30.857142857142858C70.15384615384616,30.857142857142858,71.07692307692308,28.571428571428573,72,28.571428571428573C72.92307692307692,28.571428571428573,73.84615384615385,29.333333333333336,74.76923076923077,29.714285714285715C75.6923076923077,30.095238095238095,76.61538461538463,30.857142857142858,77.53846153846155,30.857142857142858C78.46153846153847,30.857142857142858,79.38461538461539,27.809523809523803,80.3076923076923,26.285714285714285C81.23076923076923,24.761904761904756,82.15384615384616,23.238095238095237,83.07692307692308,21.714285714285715C84,20.190476190476193,84.92307692307693,18.47619047619048,85.84615384615385,17.142857142857146C86.76923076923077,15.809523809523817,87.6923076923077,15.238095238095234,88.61538461538461,13.714285714285715C89.53846153846153,12.190476190476188,90.46153846153847,8.761904761904761,91.38461538461539,7.999999999999998C92.3076923076923,7.238095238095236,93.23076923076924,7.619047619047617,94.15384615384616,6.857142857142855C95.07692307692308,6.095238095238097,96,2.2857142857142865,96.92307692307692,2.2857142857142865C97.84615384615384,2.2857142857142865,98.76923076923077,2.6666666666666674,99.6923076923077,3.4285714285714297C100.61538461538461,4.190476190476188,101.53846153846153,7.80952380952381,102.46153846153845,9.142857142857142C103.38461538461539,10.476190476190489,104.3076923076923,11.428571428571427,105.23076923076924,11.428571428571427C106.15384615384616,11.428571428571427,107.07692307692308,11.428571428571427,108,11.428571428571427C108.92307692307692,11.428571428571427,109.84615384615385,14.095238095238095,110.76923076923077,14.857142857142858C111.6923076923077,15.619047619047615,112.61538461538461,15.238095238095246,113.53846153846153,16C114.46153846153847,16.761904761904763,115.38461538461539,18.476190476190474,116.30769230769232,19.42857142857143C117.23076923076924,20.380952380952376,118.15384615384616,21.142857142857146,119.07692307692308,21.714285714285715C120,22.28571428571429,120.92307692307693,22.28571428571428,121.84615384615385,22.857142857142854C122.76923076923077,23.428571428571423,123.6923076923077,24.380952380952383,124.61538461538461,25.142857142857142C125.53846153846153,25.90476190476191,126.46153846153847,26.666666666666668,127.38461538461539,27.42857142857143C128.30769230769232,28.190476190476193,129.23076923076923,29.714285714285715,130.15384615384616,29.714285714285715C131.0769230769231,29.714285714285715,132,25.142857142857142,132.92307692307693,25.142857142857142C133.84615384615384,25.142857142857142,134.76923076923077,25.90476190476191,135.69230769230768,26.285714285714285C136.6153846153846,26.66666666666667,137.53846153846155,27.42857142857143,138.46153846153848,27.42857142857143C139.3846153846154,27.42857142857143,140.30769230769232,27.42857142857143,141.23076923076923,27.42857142857143C142.15384615384616,27.42857142857143,143.07692307692307,28.190476190476193,144,28.571428571428573C144.92307692307693,28.952380952380953,145.84615384615384,29.333333333333336,146.76923076923077,29.714285714285715C147.6923076923077,30.095238095238095,148.6153846153846,30.095238095238095,149.53846153846155,30.857142857142858C150.46153846153845,31.61904761904761,151.3846153846154,36.57142857142857,152.3076923076923,36.57142857142857C153.23076923076923,36.57142857142857,154.15384615384616,35.42857142857143,155.0769230769231,35.42857142857143C156,35.42857142857143,156.92307692307693,36.57142857142857,157.84615384615384,36.57142857142857C158.76923076923077,36.57142857142857,159.69230769230768,36.57142857142857,160.6153846153846,36.57142857142857C161.53846153846155,36.57142857142857,162.46153846153845,34.85714285714286,163.3846153846154,34.28571428571429C164.30769230769232,33.71428571428572,165.23076923076923,33.52380952380952,166.15384615384616,33.14285714285714C167.0769230769231,32.76190476190476,168,32.76190476190476,168.92307692307693,32C169.84615384615387,31.23809523809524,170.76923076923077,28.190476190476204,171.6923076923077,27.42857142857143C172.6153846153846,26.666666666666668,173.53846153846155,27.047619047619047,174.46153846153845,26.285714285714285C175.3846153846154,25.52380952380951,176.3076923076923,17.142857142857146,177.23076923076923,17.142857142857146C178.15384615384616,17.142857142857146,179.07692307692307,17.142857142857146,180,17.142857142857146L180,40C179.07692307692307,40,178.15384615384616,40,177.23076923076923,40C176.3076923076923,40,175.3846153846154,40,174.46153846153845,40C173.53846153846155,40,172.6153846153846,40,171.6923076923077,40C170.76923076923077,40,169.84615384615387,40,168.92307692307693,40C168,40,167.0769230769231,40,166.15384615384616,40C165.23076923076923,40,164.30769230769232,40,163.3846153846154,40C162.46153846153845,40,161.53846153846155,40,160.6153846153846,40C159.69230769230768,40,158.76923076923077,40,157.84615384615384,40C156.92307692307693,40,156,40,155.0769230769231,40C154.15384615384616,40,153.23076923076923,40,152.3076923076923,40C151.3846153846154,40,150.46153846153845,40,149.53846153846155,40C148.6153846153846,40,147.6923076923077,40,146.76923076923077,40C145.84615384615384,40,144.92307692307693,40,144,40C143.07692307692307,40,142.15384615384616,40,141.23076923076923,40C140.30769230769232,40,139.3846153846154,40,138.46153846153848,40C137.53846153846155,40,136.6153846153846,40,135.69230769230768,40C134.76923076923077,40,133.84615384615384,40,132.92307692307693,40C132,40,131.0769230769231,40,130.15384615384616,40C129.23076923076923,40,128.30769230769232,40,127.38461538461539,40C126.46153846153847,40,125.53846153846153,40,124.61538461538461,40C123.6923076923077,40,122.76923076923077,40,121.84615384615385,40C120.92307692307693,40,120,40,119.07692307692308,40C118.15384615384616,40,117.23076923076924,40,116.30769230769232,40C115.38461538461539,40,114.46153846153847,40,113.53846153846153,40C112.61538461538461,40,111.6923076923077,40,110.76923076923077,40C109.84615384615385,40,108.92307692307692,40,108,40C107.07692307692308,40,106.15384615384616,40,105.23076923076924,40C104.3076923076923,40,103.38461538461539,40,102.46153846153845,40C101.53846153846153,40,100.61538461538461,40,99.6923076923077,40C98.76923076923077,40,97.84615384615384,40,96.92307692307692,40C96,40,95.07692307692308,40,94.15384615384616,40C93.23076923076924,40,92.3076923076923,40,91.38461538461539,40C90.46153846153847,40,89.53846153846153,40,88.61538461538461,40C87.6923076923077,40,86.76923076923077,40,85.84615384615385,40C84.92307692307693,40,84,40,83.07692307692308,40C82.15384615384616,40,81.23076923076923,40,80.3076923076923,40C79.38461538461539,40,78.46153846153847,40,77.53846153846155,40C76.61538461538463,40,75.6923076923077,40,74.76923076923077,40C73.84615384615385,40,72.92307692307692,40,72,40C71.07692307692308,40,70.15384615384616,40,69.23076923076924,40C68.30769230769232,40,67.38461538461539,40,66.46153846153847,40C65.53846153846155,40,64.61538461538461,40,63.69230769230769,40C62.769230769230774,40,61.84615384615385,40,60.92307692307693,40C60.00000000000001,40,59.07692307692308,40,58.15384615384616,40C57.23076923076923,40,56.307692307692314,40,55.38461538461539,40C53.53846153846154,40,51.69230769230769,40,49.84615384615385,40C48.92307692307693,40,48,40,47.07692307692308,40C46.15384615384615,40,45.23076923076923,40,44.30769230769231,40C43.38461538461539,40,42.46153846153846,40,41.53846153846154,40C40.61538461538462,40,39.69230769230769,40,38.769230769230774,40C37.84615384615385,40,36.92307692307693,40,36,40C34.15384615384615,40,32.30769230769231,40,30.461538461538463,40C26.76923076923077,40,23.07692307692308,40,19.384615384615387,40C18.461538461538463,40,17.53846153846154,40,16.615384615384617,40C15.692307692307693,40,14.76923076923077,40,13.846153846153847,40C12.923076923076923,40,12,40,11.076923076923077,40C9.23076923076923,40,7.384615384615384,40,5.538461538461538,40C4.615384615384615,40,3.692307692307692,40,2.769230769230769,40C1.8461538461538463,40,0.923076923076923,40,0,40Z"></path><path class="line" stroke="black" fill="none" d="M0,38.857142857142854C0.923076923076923,38.857142857142854,1.8461538461538463,38.857142857142854,2.769230769230769,38.857142857142854C3.692307692307692,38.857142857142854,4.615384615384615,38.857142857142854,5.538461538461538,38.857142857142854C7.384615384615384,38.857142857142854,9.23076923076923,36.57142857142857,11.076923076923077,36.57142857142857C12,36.57142857142857,12.923076923076923,37.714285714285715,13.846153846153847,37.714285714285715C14.76923076923077,37.714285714285715,15.692307692307693,37.714285714285715,16.615384615384617,37.714285714285715C17.53846153846154,37.714285714285715,18.461538461538463,37.714285714285715,19.384615384615387,37.714285714285715C23.07692307692308,37.714285714285715,26.76923076923077,37.714285714285715,30.461538461538463,37.714285714285715C32.30769230769231,37.714285714285715,34.15384615384615,36.57142857142857,36,36.57142857142857C36.92307692307693,36.57142857142857,37.84615384615385,36.57142857142857,38.769230769230774,36.57142857142857C39.69230769230769,36.57142857142857,40.61538461538462,37.714285714285715,41.53846153846154,37.714285714285715C42.46153846153846,37.714285714285715,43.38461538461539,37.714285714285715,44.30769230769231,37.714285714285715C45.23076923076923,37.714285714285715,46.15384615384615,37.714285714285715,47.07692307692308,37.714285714285715C48,37.714285714285715,48.92307692307693,37.714285714285715,49.84615384615385,37.714285714285715C51.69230769230769,37.714285714285715,53.53846153846154,37.2063492063492,55.38461538461539,36.57142857142857C56.307692307692314,36.25396825396825,57.23076923076923,35.80952380952381,58.15384615384616,35.42857142857143C59.07692307692308,35.04761904761905,60.00000000000001,34.85714285714286,60.92307692307693,34.28571428571429C61.84615384615385,33.71428571428572,62.769230769230774,32.57142857142857,63.69230769230769,32C64.61538461538461,31.428571428571427,65.53846153846155,30.857142857142858,66.46153846153847,30.857142857142858C67.38461538461539,30.857142857142858,68.30769230769232,30.857142857142858,69.23076923076924,30.857142857142858C70.15384615384616,30.857142857142858,71.07692307692308,28.571428571428573,72,28.571428571428573C72.92307692307692,28.571428571428573,73.84615384615385,29.333333333333336,74.76923076923077,29.714285714285715C75.6923076923077,30.095238095238095,76.61538461538463,30.857142857142858,77.53846153846155,30.857142857142858C78.46153846153847,30.857142857142858,79.38461538461539,27.809523809523803,80.3076923076923,26.285714285714285C81.23076923076923,24.761904761904756,82.15384615384616,23.238095238095237,83.07692307692308,21.714285714285715C84,20.190476190476193,84.92307692307693,18.47619047619048,85.84615384615385,17.142857142857146C86.76923076923077,15.809523809523817,87.6923076923077,15.238095238095234,88.61538461538461,13.714285714285715C89.53846153846153,12.190476190476188,90.46153846153847,8.761904761904761,91.38461538461539,7.999999999999998C92.3076923076923,7.238095238095236,93.23076923076924,7.619047619047617,94.15384615384616,6.857142857142855C95.07692307692308,6.095238095238097,96,2.2857142857142865,96.92307692307692,2.2857142857142865C97.84615384615384,2.2857142857142865,98.76923076923077,2.6666666666666674,99.6923076923077,3.4285714285714297C100.61538461538461,4.190476190476188,101.53846153846153,7.80952380952381,102.46153846153845,9.142857142857142C103.38461538461539,10.476190476190489,104.3076923076923,11.428571428571427,105.23076923076924,11.428571428571427C106.15384615384616,11.428571428571427,107.07692307692308,11.428571428571427,108,11.428571428571427C108.92307692307692,11.428571428571427,109.84615384615385,14.095238095238095,110.76923076923077,14.857142857142858C111.6923076923077,15.619047619047615,112.61538461538461,15.238095238095246,113.53846153846153,16C114.46153846153847,16.761904761904763,115.38461538461539,18.476190476190474,116.30769230769232,19.42857142857143C117.23076923076924,20.380952380952376,118.15384615384616,21.142857142857146,119.07692307692308,21.714285714285715C120,22.28571428571429,120.92307692307693,22.28571428571428,121.84615384615385,22.857142857142854C122.76923076923077,23.428571428571423,123.6923076923077,24.380952380952383,124.61538461538461,25.142857142857142C125.53846153846153,25.90476190476191,126.46153846153847,26.666666666666668,127.38461538461539,27.42857142857143C128.30769230769232,28.190476190476193,129.23076923076923,29.714285714285715,130.15384615384616,29.714285714285715C131.0769230769231,29.714285714285715,132,25.142857142857142,132.92307692307693,25.142857142857142C133.84615384615384,25.142857142857142,134.76923076923077,25.90476190476191,135.69230769230768,26.285714285714285C136.6153846153846,26.66666666666667,137.53846153846155,27.42857142857143,138.46153846153848,27.42857142857143C139.3846153846154,27.42857142857143,140.30769230769232,27.42857142857143,141.23076923076923,27.42857142857143C142.15384615384616,27.42857142857143,143.07692307692307,28.190476190476193,144,28.571428571428573C144.92307692307693,28.952380952380953,145.84615384615384,29.333333333333336,146.76923076923077,29.714285714285715C147.6923076923077,30.095238095238095,148.6153846153846,30.095238095238095,149.53846153846155,30.857142857142858C150.46153846153845,31.61904761904761,151.3846153846154,36.57142857142857,152.3076923076923,36.57142857142857C153.23076923076923,36.57142857142857,154.15384615384616,35.42857142857143,155.0769230769231,35.42857142857143C156,35.42857142857143,156.92307692307693,36.57142857142857,157.84615384615384,36.57142857142857C158.76923076923077,36.57142857142857,159.69230769230768,36.57142857142857,160.6153846153846,36.57142857142857C161.53846153846155,36.57142857142857,162.46153846153845,34.85714285714286,163.3846153846154,34.28571428571429C164.30769230769232,33.71428571428572,165.23076923076923,33.52380952380952,166.15384615384616,33.14285714285714C167.0769230769231,32.76190476190476,168,32.76190476190476,168.92307692307693,32C169.84615384615387,31.23809523809524,170.76923076923077,28.190476190476204,171.6923076923077,27.42857142857143C172.6153846153846,26.666666666666668,173.53846153846155,27.047619047619047,174.46153846153845,26.285714285714285C175.3846153846154,25.52380952380951,176.3076923076923,17.142857142857146,177.23076923076923,17.142857142857146C178.15384615384616,17.142857142857146,179.07692307692307,17.142857142857146,180,17.142857142857146"></path><path class="axis-ceiling" stroke-width="1" stroke="black" fill="none" d="M175,0L180,0"></path><text class="axis-ceiling-label" font-family="sans-serif" text-anchor="end" font-size="10px" x="170" y="2.5">35</text></g></svg>