<svg xmlns="http://www.w3.org/2000/svg" viewBox="0 0 180 60"><g transform="translate(0,20)"><path class="area" fill="rgba(0, 0, 0, 0.2)" d="M0,31.264C1.0169491525423728,31.346666666666668,2.0338983050847457,31.429333333333336,3.0508474576271185,31.520000000000003C4.067796610169491,31.61066666666667,5.084745762711864,31.808,6.101694915254237,31.808C7.11864406779661,31.808,8.135593220338983,31.663999999999998,9.152542372881356,31.663999999999998C10.169491525423728,31.663999999999998,11.186440677966102,31.808,12.203389830508474,31.808C13.220338983050846,31.808,14.23728813559322,31.645333333333333,15.254237288135592,31.552C16.271186440677965,31.458666666666666,17.28813559322034,31.248,18.305084745762713,31.248C19.322033898305087,31.248,20.338983050847457,31.264,21.35593220338983,31.264C22.372881355932204,31.264,23.389830508474574,31.186666666666664,24.406779661016948,31.04C25.423728813559322,30.89333333333333,26.440677966101696,30.533333333333335,27.45762711864407,30.384C28.47457627118644,30.23466666666667,29.491525423728813,30.23466666666667,30.508474576271183,30.144000000000002C31.525423728813557,30.053333333333335,32.54237288135593,29.949333333333332,33.559322033898304,29.84C34.57627118644068,29.730666666666668,35.59322033898305,29.581333333333337,36.610169491525426,29.488000000000003C37.6271186440678,29.39466666666667,38.644067796610166,29.41866666666667,39.66101694915254,29.28C40.67796610169491,29.141333333333332,41.69491525423729,28.72533333333333,42.71186440677966,28.479999999999997C43.728813559322035,28.234666666666662,44.7457627118644,27.981333333333332,45.762711864406775,27.808C46.77966101694915,27.634666666666668,47.79661016949152,27.67733333333333,48.813559322033896,27.439999999999998C49.83050847457627,27.202666666666666,50.847457627118644,26.701333333333334,51.86440677966102,26.384C52.88135593220339,26.066666666666666,53.898305084745765,25.829333333333334,54.91525423728814,25.536C55.93220338983051,25.24266666666667,56.94915254237288,25.015999999999995,57.96610169491525,24.623999999999995C58.983050847457626,24.231999999999996,59.99999999999999,23.573333333333334,61.01694915254237,23.184C62.03389830508474,22.794666666666668,63.05084745762712,22.53333333333333,64.0677966101695,22.287999999999997C65.08474576271186,22.042666666666662,66.10169491525424,21.989333333333327,67.11864406779661,21.711999999999996C68.13559322033899,21.434666666666665,69.15254237288136,20.869333333333334,70.16949152542374,20.624000000000002C71.1864406779661,20.37866666666667,72.20338983050848,20.472,73.22033898305085,20.240000000000002C74.23728813559322,20.008000000000003,75.2542372881356,19.562666666666665,76.27118644067797,19.232C77.28813559322033,18.901333333333334,78.30508474576271,18.570666666666664,79.32203389830508,18.256C80.33898305084746,17.941333333333333,81.35593220338983,17.840000000000003,82.37288135593221,17.344C83.38983050847457,16.848000000000003,84.40677966101696,16.037333333333333,85.42372881355932,15.280000000000001C86.4406779661017,14.522666666666666,87.45762711864407,13.64,88.47457627118645,12.799999999999997C89.49152542372882,11.96,90.50847457627118,11.079999999999995,91.52542372881355,10.24C92.54237288135593,9.399999999999995,93.55932203389831,8.624000000000004,94.57627118644069,7.759999999999998C95.59322033898306,6.8960000000000035,96.61016949152543,5.933333333333329,97.62711864406779,5.055999999999998C98.64406779661016,4.178666666666663,99.66101694915254,3.245333333333332,100.6779661016949,2.4960000000000004C101.69491525423729,1.7466666666666653,102.71186440677965,0.8800000000000023,103.72881355932203,0.5600000000000005C104.7457627118644,0.2400000000000002,105.76271186440678,0.09066666666666551,106.77966101694915,0.08000000000000007C107.79661016949153,0.06933333333333458,108.8135593220339,0.06400000000000183,109.83050847457628,0.06400000000000183C110.84745762711864,0.06400000000000183,111.86440677966102,0.30133333333333495,112.88135593220339,0.43200000000000127C113.89830508474576,0.5626666666666675,114.91525423728814,0.674666666666667,115.9322033898305,0.8479999999999999C116.94915254237289,1.0213333333333336,117.96610169491525,1.186666666666667,118.98305084745763,1.4720000000000022C120,1.7573333333333345,121.01694915254237,2.2746666666666657,122.03389830508473,2.559999999999998C123.05084745762711,2.845333333333334,124.0677966101695,3.184,125.08474576271188,3.184C126.10169491525424,3.184,127.11864406779662,3.104,128.135593220339,3.104C129.15254237288136,3.104,130.16949152542372,3.7920000000000007,131.1864406779661,4.159999999999999C132.20338983050846,4.528000000000001,133.22033898305085,5.312000000000001,134.23728813559322,5.312000000000001C135.25423728813558,5.312000000000001,136.27118644067798,5.285333333333335,137.28813559322035,5.232000000000001C138.3050847457627,5.178666666666667,139.3220338983051,5.045333333333334,140.33898305084747,4.96C141.35593220338984,4.874666666666667,142.3728813559322,4.776,143.38983050847457,4.72C144.40677966101694,4.664,145.42372881355934,4.6720000000000015,146.4406779661017,4.624000000000001C147.45762711864407,4.576000000000001,148.47457627118644,4.432,149.4915254237288,4.432C150.50847457627117,4.432,151.52542372881356,4.896000000000004,152.54237288135593,5.024000000000002C153.5593220338983,5.151999999999999,154.5762711864407,5.090666666666665,155.59322033898306,5.215999999999998C156.61016949152543,5.341333333333331,157.6271186440678,5.402666666666665,158.64406779661016,5.775999999999999C159.66101694915253,6.149333333333336,160.67796610169492,7.920000000000004,161.6949152542373,8.016000000000002C162.71186440677965,8.112,163.72881355932205,8.064,164.74576271186442,8.159999999999998C165.76271186440678,8.255999999999995,166.77966101694915,9.048000000000004,167.79661016949152,9.584000000000001C168.81355932203388,10.120000000000005,169.83050847457628,11.290666666666667,170.84745762711864,11.376C171.864406779661,11.461333333333332,172.8813559322034,11.418666666666665,173.89830508474577,11.503999999999998C174.91525423728814,11.58933333333333,175.93220338983053,11.930666666666664,176.9491525423729,12.400000000000002C177.96610169491527,12.869333333333335,178.98305084745763,13.594666666666669,180,14.32L180,40C178.98305084745763,40,177.96610169491527,40,176.9491525423729,40C175.93220338983053,40,174.91525423728814,40,173.89830508474577,40C172.8813559322034,40,171.864406779661,40,170.84745762711864,40C169.83050847457628,40,168.81355932203388,40,167.79661016949152,40C166.77966101694915,40,165.76271186440678,40,164.74576271186442,40C163.72881355932205,40,162.71186440677965,40,161.6949152542373,40C160.67796610169492,40,159.66101694915253,40,158.64406779661016,40C157.6271186440678,40,156.61016949152543,40,155.59322033898306,40C154.5762711864407,40,153.5593220338983,40,152.54237288135593,40C151.52542372881356,40,150.50847457627117,40,149.4915254237288,40C148.47457627118644,40,147.45762711864407,40,146.4406779661017,40C145.42372881355934,40,144.40677966101694,40,143.38983050847457,40C142.3728813559322,40,141.35593220338984,40,140.33898305084747,40C139.3220338983051,40,138.3050847457627,40,137.28813559322035,40C136.27118644067798,40,135.25423728813558,40,134.23728813559322,40C133.22033898305085,40,132.20338983050846,40,131.1864406779661,40C130.16949152542372,40,129.15254237288136,40,128.135593220339,40C127.11864406779662,40,126.10169491525424,40,125.08474576271188,40C124.0677966101695,40,123.05084745762711,40,122.03389830508473,40C121.01694915254237,40,120,40,118.98305084745763,40C117.96610169491525,40,116.94915254237289,40,115.9322033898305,40C114.91525423728814,40,113.89830508474576,40,112.88135593220339,40C111.86440677966102,40,110.84745762711864,40,109.83050847457628,40C108.8135593220339,40,107.79661016949153,40,106.77966101694915,40C105.76271186440678,40,104.7457627118644,40,103.72881355932203,40C102.71186440677965,40,101.69491525423729,40,100.6779661016949,40C99.66101694915254,40,98.64406779661016,40,97.62711864406779,40C96.61016949152543,40,95.59322033898306,40,94.57627118644069,40C93.55932203389831,40,92.54237288135593,40,91.52542372881355,40C90.50847457627118,40,89.49152542372882,40,88.47457627118645,40C87.45762711864407,40,86.4406779661017,40,85.42372881355932,40C84.40677966101696,40,83.38983050847457,40,82.37288135593221,40C81.35593220338983,40,80.33898305084746,40,79.32203389830508,40C78.30508474576271,40,77.28813559322033,40,76.27118644067797,40C75.2542372881356,40,74.23728813559322,40,73.22033898305085,40C72.20338983050848,40,71.1864406779661,40,70.16949152542374,40C69.15254237288136,40,68.13559322033899,40,67.11864406779661,40C66.10169491525424,40,65.08474576271186,40,64.0677966101695,40C63.05084745762712,40,62.03389830508474,40,61.01694915254237,40C59.99999999999999,40,58.983050847457626,40,57.96610169491525,40C56.94915254237288,40,55.93220338983051,40,54.91525423728814,40C53.898305084745765,40,52.88135593220339,40,51.86440677966102,40C50.847457627118644,40,49.83050847457627,40,48.813559322033896,40C47.79661016949152,40,46.77966101694915,40,45.762711864406775,40C44.7457627118644,40,43.728813559322035,40,42.71186440677966,40C41.69491525423729,40,40.67796610169491,40,39.66101694915254,40C38.644067796610166,40,37.6271186440678,40,36.610169491525426,40C35.59322033898305,40,34.57627118644068,40,33.559322033898304,40C32.54237288135593,40,31.525423728813557,40,30.508474576271183,40C29.491525423728813,40,28.47457627118644,40,27.45762711864407,40C26.440677966101696,40,25.423728813559322,40,24.406779661016948,40C23.389830508474574,40,22.372881355932204,40,21.35593220338983,40C20.338983050847457,40,19.322033898305087,40,18.305084745762713,40C17.28813559322034,40,16.271186440677965,40,15.254237288135592,40C14.23728813559322,40,13.220338983050846,40,12.203389830508474,40C11.186440677966102,40,10.169491525423728,40,9.152542372881356,40C8.135593220338983,40,7.11864406779661,40,6.101694915254237,40C5.084745762711864,40,4.067796610169491,40,3.0508474576271185,40C2.0338983050847457,40,1.0169491525423728,40,0,40Z"></path><path class="line" stroke="black" fill="none" d="M0,31.264C1.0169491525423728,31.346666666666668,2.0338983050847457,31.429333333333336,3.0508474576271185,31.520000000000003C4.067796610169491,31.61066666666667,5.084745762711864,31.808,6.101694915254237,31.808C7.11864406779661,31.808,8.135593220338983,31.663999999999998,9.152542372881356,31.663999999999998C10.169491525423728,31.663999999999998,11.186440677966102,31.808,12.203389830508474,31.808C13.220338983050846,31.808,14.23728813559322,31.645333333333333,15.254237288135592,31.552C16.271186440677965,31.458666666666666,17.28813559322034,31.248,18.305084745762713,31.248C19.322033898305087,31.248,20.338983050847457,31.264,21.35593220338983,31.264C22.372881355932204,31.264,23.389830508474574,31.186666666666664,24.406779661016948,31.04C25.423728813559322,30.89333333333333,26.440677966101696,30.533333333333335,27.45762711864407,30.384C28.47457627118644,30.23466666666667,29.491525423728813,30.23466666666667,30.508474576271183,30.144000000000002C31.525423728813557,30.053333333333335,32.54237288135593,29.949333333333332,33.559322033898304,29.84C34.57627118644068,29.730666666666668,35.59322033898305,29.581333333333337,36.610169491525426,29.488000000000003C37.6271186440678,29.39466666666667,38.644067796610166,29.41866666666667,39.66101694915254,29.28C40.67796610169491,29.141333333333332,41.69491525423729,28.72533333333333,42.71186440677966,28.479999999999997C43.728813559322035,28.234666666666662,44.7457627118644,27.981333333333332,45.762711864406775,27.808C46.77966101694915,27.634666666666668,47.79661016949152,27.67733333333333,48.813559322033896,27.439999999999998C49.83050847457627,27.202666666666666,50.847457627118644,26.701333333333334,51.86440677966102,26.384C52.88135593220339,26.066666666666666,53.898305084745765,25.829333333333334,54.91525423728814,25.536C55.93220338983051,25.24266666666667,56.94915254237288,25.015999999999995,57.96610169491525,24.623999999999995C58.983050847457626,24.231999999999996,59.99999999999999,23.573333333333334,61.01694915254237,23.184C62.03389830508474,22.794666666666668,63.05084745762712,22.53333333333333,64.0677966101695,22.287999999999997C65.08474576271186,22.042666666666662,66.10169491525424,21.989333333333327,67.11864406779661,21.711999999999996C68.13559322033899,21.434666666666665,69.15254237288136,20.869333333333334,70.16949152542374,20.624000000000002C71.1864406779661,20.37866666666667,72.20338983050848,20.472,73.22033898305085,20.240000000000002C74.23728813559322,20.008000000000003,75.2542372881356,19.562666666666665,76.27118644067797,19.232C77.28813559322033,18.901333333333334,78.30508474576271,18.570666666666664,79.32203389830508,18.256C80.33898305084746,17.941333333333333,81.35593220338983,17.840000000000003,82.37288135593221,17.344C83.38983050847457,16.848000000000003,84.40677966101696,16.037333333333333,85.42372881355932,15.280000000000001C86.4406779661017,14.522666666666666,87.45762711864407,13.64,88.47457627118645,12.799999999999997C89.49152542372882,11.96,90.50847457627118,11.079999999999995,91.52542372881355,10.24C92.54237288135593,9.399999999999995,93.55932203389831,8.624000000000004,94.57627118644069,7.759999999999998C95.59322033898306,6.8960000000000035,96.61016949152543,5.933333333333329,97.62711864406779,5.055999999999998C98.64406779661016,4.178666666666663,99.66101694915254,3.245333333333332,100.6779661016949,2.4960000000000004C101.69491525423729,1.7466666666666653,102.71186440677965,0.8800000000000023,103.72881355932203,0.5600000000000005C104.7457627118644,0.2400000000000002,105.76271186440678,0.09066666666666551,106.77966101694915,0.08000000000000007C107.79661016949153,0.06933333333333458,108.8135593220339,0.06400000000000183,109.83050847457628,0.06400000000000183C110.84745762711864,0.06400000000000183,111.86440677966102,0.30133333333333495,112.88135593220339,0.43200000000000127C113.89830508474576,0.5626666666666675,114.91525423728814,0.674666666666667,115.9322033898305,0.8479999999999999C116.94915254237289,1.0213333333333336,117.96610169491525,1.186666666666667,118.98305084745763,1.4720000000000022C120,1.7573333333333345,121.01694915254237,2.2746666666666657,122.03389830508473,2.559999999999998C123.05084745762711,2.845333333333334,124.0677966101695,3.184,125.08474576271188,3.184C126.10169491525424,3.184,127.11864406779662,3.104,128.135593220339,3.104C129.15254237288136,3.104,130.16949152542372,3.7920000000000007,131.1864406779661,4.159999999999999C132.20338983050846,4.528000000000001,133.22033898305085,5.312000000000001,134.23728813559322,5.312000000000001C135.25423728813558,5.312000000000001,136.27118644067798,5.285333333333335,137.28813559322035,5.232000000000001C138.3050847457627,5.178666666666667,139.3220338983051,5.045333333333334,140.33898305084747,4.96C141.35593220338984,4.874666666666667,142.3728813559322,4.776,143.38983050847457,4.72C144.40677966101694,4.664,145.42372881355934,4.6720000000000015,146.4406779661017,4.624000000000001C147.45762711864407,4.576000000000001,148.47457627118644,4.432,149.4915254237288,4.432C150.50847457627117,4.432,151.52542372881356,4.896000000000004,152.54237288135593,5.024000000000002C153.5593220338983,5.151999999999999,154.5762711864407,5.090666666666665,155.59322033898306,5.215999999999998C156.61016949152543,5.341333333333331,157.6271186440678,5.402666666666665,158.64406779661016,5.775999999999999C159.66101694915253,6.149333333333336,160.67796610169492,7.920000000000004,161.6949152542373,8.016000000000002C162.71186440677965,8.112,163.72881355932205,8.064,164.74576271186442,8.159999999999998C165.76271186440678,8.255999999999995,166.77966101694915,9.048000000000004,167.79661016949152,9.584000000000001C168.81355932203388,10.120000000000005,169.83050847457628,11.290666666666667,170.84745762711864,11.376C171.864406779661,11.461333333333332,172.8813559322034,11.418666666666665,173.89830508474577,11.503999999999998C174.91525423728814,11.58933333333333,175.93220338983053,11.930666666666664,176.9491525423729,12.400000000000002C177.96610169491527,12.869333333333335,178.98305084745763,13.594666666666669,180,14.32"></path><path class="axis-ceiling" stroke-width="1" stroke="black" fill="none" d="M175,0L180,0"></path><text class="axis-ceiling-label" font-family="sans-serif" text-anchor="end" font-size="10px" x="170" y="2.5">2500</text></g></svg>