<svg xmlns="http://www.w3.org/2000/svg" viewBox="0 0 180 60"><g transform="translate(0,20)"><path class="area" fill="rgba(0, 0, 0, 0.2)" d="M0,36.57142857142857C1.1464968152866242,37.142857142857146,2.292993630573248,37.714285714285715,3.4394904458598723,37.714285714285715C6.496815286624203,37.714285714285715,9.554140127388536,36.57142857142857,12.611464968152866,36.57142857142857C12.993630573248407,36.57142857142857,13.375796178343949,36.57142857142857,13.75796178343949,36.57142857142857C15.286624203821654,36.57142857142857,16.81528662420382,37.714285714285715,18.343949044585987,37.714285714285715C18.726114649681527,37.714285714285715,19.10828025477707,36.06349206349206,19.49044585987261,35.42857142857143C20.254777070063696,34.15873015873016,21.019108280254777,33.14285714285714,21.78343949044586,33.14285714285714C22.547770700636942,33.14285714285714,23.312101910828027,33.14285714285714,24.076433121019107,33.14285714285714C24.458598726114648,33.14285714285714,24.840764331210192,29.714285714285715,25.222929936305732,29.714285714285715C27.51592356687898,29.714285714285715,29.808917197452228,29.714285714285715,32.101910828025474,29.714285714285715C33.63057324840764,29.714285714285715,35.159235668789805,30.857142857142858,36.68789808917197,30.857142857142858C37.07006369426752,30.857142857142858,37.452229299363054,30.857142857142858,37.8343949044586,30.857142857142858C39.36305732484077,30.857142857142858,40.89171974522293,31.646753246753246,42.4203821656051,32C46.62420382165605,32.97142857142857,50.828025477707,34.28571428571429,55.03184713375796,34.28571428571429C55.79617834394904,34.28571428571429,56.560509554140125,34.28571428571429,57.324840764331206,34.28571428571429C61.52866242038217,34.28571428571429,65.73248407643312,38.857142857142854,69.93630573248409,38.857142857142854C70.31847133757962,38.857142857142854,70.70063694267517,38.857142857142854,71.08280254777071,38.857142857142854C72.99363057324841,38.857142857142854,74.90445859872612,37.714285714285715,76.81528662420382,37.714285714285715C77.19745222929936,37.714285714285715,77.57961783439491,37.714285714285715,77.96178343949045,37.714285714285715C78.72611464968153,37.714285714285715,79.49044585987261,37.714285714285715,80.2547770700637,37.714285714285715C82.92993630573248,37.714285714285715,85.60509554140128,37.714285714285715,88.28025477707007,37.714285714285715C91.71974522292994,37.714285714285715,95.1592356687898,37.714285714285715,98.59872611464968,37.714285714285715C99.36305732484077,37.714285714285715,100.12738853503184,38.857142857142854,100.89171974522293,38.857142857142854C105.85987261146497,38.857142857142854,110.828025477707,38.857142857142854,115.79617834394904,38.857142857142854C116.94267515923566,38.857142857142854,118.08917197452229,38.857142857142854,119.23566878980891,38.857142857142854C120.38216560509554,38.857142857142854,121.52866242038216,38.857142857142854,122.67515923566879,38.857142857142854C123.43949044585987,38.857142857142854,124.20382165605095,38.857142857142854,124.96815286624204,38.857142857142854C127.26114649681529,38.857142857142854,129.55414012738854,38.857142857142854,131.84713375796179,38.857142857142854C132.22929936305732,38.857142857142854,132.61146496815286,38.857142857142854,132.9936305732484,38.857142857142854C133.7579617834395,38.857142857142854,134.52229299363057,38.0952380952381,135.28662420382167,37.714285714285715C136.05095541401275,37.333333333333336,136.81528662420385,36.57142857142857,137.57961783439492,36.57142857142857C140.2547770700637,36.57142857142857,142.9299363057325,36.57142857142857,145.60509554140128,36.57142857142857C146.36942675159236,36.57142857142857,147.13375796178346,36.57142857142857,147.89808917197453,36.57142857142857C148.28025477707007,36.57142857142857,148.6624203821656,36.57142857142857,149.04458598726114,36.57142857142857C149.42675159235668,36.57142857142857,149.80891719745225,36.57142857142857,150.19108280254778,36.57142857142857C150.57324840764332,36.57142857142857,150.95541401273886,36.57142857142857,151.3375796178344,36.57142857142857C151.71974522292993,36.57142857142857,152.1019108280255,37.714285714285715,152.48407643312103,37.714285714285715C152.86624203821657,37.714285714285715,153.2484076433121,37.714285714285715,153.63057324840764,37.714285714285715C154.39490445859872,37.714285714285715,155.15923566878982,36.57142857142857,155.9235668789809,36.57142857142857C156.30573248407643,36.57142857142857,156.687898089172,36.57142857142857,157.07006369426753,36.57142857142857C157.45222929936307,36.57142857142857,157.8343949044586,34.28571428571429,158.21656050955414,34.28571428571429C158.59872611464968,34.28571428571429,158.98089171974524,34.28571428571429,159.36305732484078,34.28571428571429C159.74522292993632,34.28571428571429,160.12738853503186,34.28571428571429,160.5095541401274,34.28571428571429C160.89171974522293,34.28571428571429,161.27388535031847,34.28571428571429,161.656050955414,34.28571428571429C162.03821656050954,34.28571428571429,162.4203821656051,33.14285714285714,162.80254777070064,33.14285714285714C163.18471337579618,33.14285714285714,163.56687898089172,35.42857142857143,163.94904458598725,35.42857142857143C164.3312101910828,35.42857142857143,164.71337579617835,35.42857142857143,165.0955414012739,35.42857142857143C165.47770700636943,35.42857142857143,165.85987261146497,32.76190476190473,166.2420382165605,30.857142857142858C166.62420382165604,28.95238095238094,167.0063694267516,26.095238095238116,167.38853503184714,24C167.77070063694268,21.904761904761937,168.15286624203821,19.809523809523803,168.53503184713375,18.28571428571429C168.9171974522293,16.761904761904738,169.29936305732485,16.57142857142861,169.6815286624204,14.857142857142858C170.06369426751593,13.14285714285715,170.44585987261146,8.761904761904741,170.828025477707,7.999999999999998C171.21019108280254,7.238095238095236,171.5923566878981,7.619047619047617,171.97452229299364,6.857142857142855C172.35668789808918,6.095238095238112,172.7388535031847,2.2857142857142865,173.12101910828025,2.2857142857142865C173.5031847133758,2.2857142857142865,173.88535031847135,2.6666666666666674,174.2675159235669,3.4285714285714297C174.64968152866243,4.190476190476173,175.03184713375796,7.809523809523812,175.4140127388535,9.142857142857142C175.79617834394904,10.476190476190506,176.1783439490446,11.428571428571427,176.56050955414014,11.428571428571427C176.94267515923568,11.428571428571427,177.3248407643312,11.428571428571427,177.70700636942675,11.428571428571427C178.0891719745223,11.428571428571427,178.47133757961785,14.095238095238095,178.8535031847134,14.857142857142858C179.23566878980893,15.6190476190476,179.61783439490446,15.8095238095238,180,16L180,40C179.61783439490446,40,179.23566878980893,40,178.8535031847134,40C178.47133757961785,40,178.0891719745223,40,177.70700636942675,40C177.3248407643312,40,176.94267515923568,40,176.56050955414014,40C176.1783439490446,40,175.79617834394904,40,175.4140127388535,40C175.03184713375796,40,174.64968152866243,40,174.2675159235669,40C173.88535031847135,40,173.5031847133758,40,173.12101910828025,40C172.7388535031847,40,172.35668789808918,40,171.97452229299364,40C171.5923566878981,40,171.21019108280254,40,170.828025477707,40C170.44585987261146,40,170.06369426751593,40,169.6815286624204,40C169.29936305732485,40,168.9171974522293,40,168.53503184713375,40C168.15286624203821,40,167.77070063694268,40,167.38853503184714,40C167.0063694267516,40,166.62420382165604,40,166.2420382165605,40C165.85987261146497,40,165.47770700636943,40,165.0955414012739,40C164.71337579617835,40,164.3312101910828,40,163.94904458598725,40C163.56687898089172,40,163.18471337579618,40,162.80254777070064,40C162.4203821656051,40,162.03821656050954,40,161.656050955414,40C161.27388535031847,40,160.89171974522293,40,160.5095541401274,40C160.12738853503186,40,159.74522292993632,40,159.36305732484078,40C158.98089171974524,40,158.59872611464968,40,158.21656050955414,40C157.8343949044586,40,157.45222929936307,40,157.07006369426753,40C156.687898089172,40,156.30573248407643,40,155.9235668789809,40C155.15923566878982,40,154.39490445859872,40,153.63057324840764,40C153.2484076433121,40,152.86624203821657,40,152.48407643312103,40C152.1019108280255,40,151.71974522292993,40,151.3375796178344,40C150.95541401273886,40,150.57324840764332,40,150.19108280254778,40C149.80891719745225,40,149.42675159235668,40,149.04458598726114,40C148.6624203821656,40,148.28025477707007,40,147.89808917197453,40C147.13375796178346,40,146.36942675159236,40,145.60509554140128,40C142.9299363057325,40,140.2547770700637,40,137.57961783439492,40C136.81528662420385,40,136.05095541401275,40,135.28662420382167,40C134.52229299363057,40,133.7579617834395,40,132.9936305732484,40C132.61146496815286,40,132.22929936305732,40,131.84713375796179,40C129.55414012738854,40,127.26114649681529,40,124.96815286624204,40C124.20382165605095,40,123.43949044585987,40,122.67515923566879,40C121.52866242038216,40,120.38216560509554,40,119.23566878980891,40C118.08917197452229,40,116.94267515923566,40,115.79617834394904,40C110.828025477707,40,105.85987261146497,40,100.89171974522293,40C100.12738853503184,40,99.36305732484077,40,98.59872611464968,40C95.1592356687898,40,91.71974522292994,40,88.28025477707007,40C85.60509554140128,40,82.92993630573248,40,80.2547770700637,40C79.49044585987261,40,78.72611464968153,40,77.96178343949045,40C77.57961783439491,40,77.19745222929936,40,76.81528662420382,40C74.90445859872612,40,72.99363057324841,40,71.08280254777071,40C70.70063694267517,40,70.31847133757962,40,69.93630573248409,40C65.73248407643312,40,61.52866242038217,40,57.324840764331206,40C56.560509554140125,40,55.79617834394904,40,55.03184713375796,40C50.828025477707,40,46.62420382165605,40,42.4203821656051,40C40.89171974522293,40,39.36305732484077,40,37.8343949044586,40C37.452229299363054,40,37.07006369426752,40,36.68789808917197,40C35.159235668789805,40,33.63057324840764,40,32.101910828025474,40C29.808917197452228,40,27.51592356687898,40,25.222929936305732,40C24.840764331210192,40,24.458598726114648,40,24.076433121019107,40C23.312101910828027,40,22.547770700636942,40,21.78343949044586,40C21.019108280254777,40,20.254777070063696,40,19.49044585987261,40C19.10828025477707,40,18.726114649681527,40,18.343949044585987,40C16.81528662420382,40,15.286624203821654,40,13.75796178343949,40C13.375796178343949,40,12.993630573248407,40,12.611464968152866,40C9.554140127388536,40,6.496815286624203,40,3.4394904458598723,40C2.292993630573248,40,1.1464968152866242,40,0,40Z"></path><path class="line" stroke="black" fill="none" d="M0,36.57142857142857C1.1464968152866242,37.142857142857146,2.292993630573248,37.714285714285715,3.4394904458598723,37.714285714285715C6.496815286624203,37.714285714285715,9.554140127388536,36.57142857142857,12.611464968152866,36.57142857142857C12.993630573248407,36.57142857142857,13.375796178343949,36.57142857142857,13.75796178343949,36.57142857142857C15.286624203821654,36.57142857142857,16.81528662420382,37.714285714285715,18.343949044585987,37.714285714285715C18.726114649681527,37.714285714285715,19.10828025477707,36.06349206349206,19.49044585987261,35.42857142857143C20.254777070063696,34.15873015873016,21.019108280254777,33.14285714285714,21.78343949044586,33.14285714285714C22.547770700636942,33.14285714285714,23.312101910828027,33.14285714285714,24.076433121019107,33.14285714285714C24.458598726114648,33.14285714285714,24.840764331210192,29.714285714285715,25.222929936305732,29.714285714285715C27.51592356687898,29.714285714285715,29.808917197452228,29.714285714285715,32.101910828025474,29.714285714285715C33.63057324840764,29.714285714285715,35.159235668789805,30.857142857142858,36.68789808917197,30.857142857142858C37.07006369426752,30.857142857142858,37.452229299363054,30.857142857142858,37.8343949044586,30.857142857142858C39.36305732484077,30.857142857142858,40.89171974522293,31.646753246753246,42.4203821656051,32C46.62420382165605,32.97142857142857,50.828025477707,34.28571428571429,55.03184713375796,34.28571428571429C55.79617834394904,34.28571428571429,56.560509554140125,34.28571428571429,57.324840764331206,34.28571428571429C61.52866242038217,34.28571428571429,65.73248407643312,38.857142857142854,69.93630573248409,38.857142857142854C70.31847133757962,38.857142857142854,70.70063694267517,38.857142857142854,71.08280254777071,38.857142857142854C72.99363057324841,38.857142857142854,74.90445859872612,37.714285714285715,76.81528662420382,37.714285714285715C77.19745222929936,37.714285714285715,77.57961783439491,37.714285714285715,77.96178343949045,37.714285714285715C78.72611464968153,37.714285714285715,79.49044585987261,37.714285714285715,80.2547770700637,37.714285714285715C82.92993630573248,37.714285714285715,85.60509554140128,37.714285714285715,88.28025477707007,37.714285714285715C91.71974522292994,37.714285714285715,95.1592356687898,37.714285714285715,98.59872611464968,37.714285714285715C99.36305732484077,37.714285714285715,100.12738853503184,38.857142857142854,100.89171974522293,38.857142857142854C105.85987261146497,38.857142857142854,110.828025477707,38.857142857142854,115.79617834394904,38.857142857142854C116.94267515923566,38.857142857142854,118.08917197452229,38.857142857142854,119.23566878980891,38.857142857142854C120.38216560509554,38.857142857142854,121.52866242038216,38.857142857142854,122.67515923566879,38.857142857142854C123.43949044585987,38.857142857142854,124.20382165605095,38.857142857142854,124.96815286624204,38.857142857142854C127.26114649681529,38.857142857142854,129.55414012738854,38.857142857142854,131.84713375796179,38.857142857142854C132.22929936305732,38.857142857142854,132.61146496815286,38.857142857142854,132.9936305732484,38.857142857142854C133.7579617834395,38.857142857142854,134.52229299363057,38.0952380952381,135.28662420382167,37.714285714285715C136.05095541401275,37.333333333333336,136.81528662420385,36.57142857142857,137.57961783439492,36.57142857142857C140.2547770700637,36.57142857142857,142.9299363057325,36.57142857142857,145.60509554140128,36.57142857142857C146.36942675159236,36.57142857142857,147.13375796178346,36.57142857142857,147.89808917197453,36.57142857142857C148.28025477707007,36.57142857142857,148.6624203821656,36.57142857142857,149.04458598726114,36.57142857142857C149.42675159235668,36.57142857142857,149.80891719745225,36.57142857142857,150.19108280254778,36.57142857142857C150.57324840764332,36.57142857142857,150.95541401273886,36.57142857142857,151.3375796178344,36.57142857142857C151.71974522292993,36.57142857142857,152.1019108280255,37.714285714285715,152.48407643312103,37.714285714285715C152.86624203821657,37.714285714285715,153.2484076433121,37.714285714285715,153.63057324840764,37.714285714285715C154.39490445859872,37.714285714285715,155.15923566878982,36.57142857142857,155.9235668789809,36.57142857142857C156.30573248407643,36.57142857142857,156.687898089172,36.57142857142857,157.07006369426753,36.57142857142857C157.45222929936307,36.57142857142857,157.8343949044586,34.28571428571429,158.21656050955414,34.28571428571429C158.59872611464968,34.28571428571429,158.98089171974524,34.28571428571429,159.36305732484078,34.28571428571429C159.74522292993632,34.28571428571429,160.12738853503186,34.28571428571429,160.5095541401274,34.28571428571429C160.89171974522293,34.28571428571429,161.27388535031847,34.28571428571429,161.656050955414,34.28571428571429C162.03821656050954,34.28571428571429,162.4203821656051,33.14285714285714,162.80254777070064,33.14285714285714C163.18471337579618,33.14285714285714,163.56687898089172,35.42857142857143,163.94904458598725,35.42857142857143C164.3312101910828,35.42857142857143,164.71337579617835,35.42857142857143,165.0955414012739,35.42857142857143C165.47770700636943,35.42857142857143,165.85987261146497,32.76190476190473,166.2420382165605,30.857142857142858C166.62420382165604,28.95238095238094,167.0063694267516,26.095238095238116,167.38853503184714,24C167.77070063694268,21.904761904761937,168.15286624203821,19.809523809523803,168.53503184713375,18.28571428571429C168.9171974522293,16.761904761904738,169.29936305732485,16.57142857142861,169.6815286624204,14.857142857142858C170.06369426751593,13.14285714285715,170.44585987261146,8.761904761904741,170.828025477707,7.999999999999998C171.21019108280254,7.238095238095236,171.5923566878981,7.619047619047617,171.97452229299364,6.857142857142855C172.35668789808918,6.095238095238112,172.7388535031847,2.2857142857142865,173.12101910828025,2.2857142857142865C173.5031847133758,2.2857142857142865,173.88535031847135,2.6666666666666674,174.2675159235669,3.4285714285714297C174.64968152866243,4.190476190476173,175.03184713375796,7.809523809523812,175.4140127388535,9.142857142857142C175.79617834394904,10.476190476190506,176.1783439490446,11.428571428571427,176.56050955414014,11.428571428571427C176.94267515923568,11.428571428571427,177.3248407643312,11.428571428571427,177.70700636942675,11.428571428571427C178.0891719745223,11.428571428571427,178.47133757961785,14.095238095238095,178.8535031847134,14.857142857142858C179.23566878980893,15.6190476190476,179.61783439490446,15.8095238095238,180,16"></path><path class="axis-ceiling" stroke-width="1" stroke="black" fill="none" d="M175,0L180,0"></path><text class="axis-ceiling-label" font-family="sans-serif" text-anchor="end" font-size="10px" x="170" y="2.5">35</text></g></svg>