<svg xmlns="http://www.w3.org/2000/svg" viewBox="0 0 180 60"><g transform="translate(0,20)"><path class="area" fill="rgba(0, 0, 0, 0.2)" d="M0,39.8C0.576923076923077,39.75,1.1538461538461537,39.7,1.7307692307692308,39.6C2.307692307692308,39.5,2.8846153846153846,39.333333333333336,3.4615384615384617,39.2C4.615384615384616,38.93333333333334,5.769230769230769,38.4,6.923076923076923,38.4C8.076923076923077,38.4,9.230769230769232,39.2,10.384615384615385,39.2C11.538461538461538,39.2,12.692307692307693,39,13.846153846153847,39C15.000000000000002,39,16.153846153846157,39.46666666666667,17.30769230769231,39.6C18.461538461538463,39.733333333333334,19.615384615384617,39.8,20.76923076923077,39.8C23.076923076923077,39.8,25.384615384615387,39.8,27.692307692307693,39.8C31.73076923076923,39.8,35.76923076923077,39.8,39.80769230769231,39.8C40.38461538461539,39.8,40.96153846153846,39.8,41.53846153846154,39.8C43.84615384615385,39.8,46.15384615384615,39.6,48.46153846153846,39.6C50.19230769230769,39.6,51.92307692307692,39.6,53.65384615384615,39.6C54.23076923076923,39.6,54.80769230769231,39.4,55.38461538461539,39.4C55.96153846153846,39.4,56.53846153846154,39.8,57.11538461538461,39.8C58.26923076923077,39.8,59.42307692307693,39.8,60.57692307692308,39.8C65.1923076923077,39.8,69.8076923076923,39.8,74.42307692307692,39.8C75.57692307692308,39.8,76.73076923076923,39.8,77.88461538461539,39.8C82.5,39.8,87.11538461538461,39.8,91.73076923076923,39.8C92.88461538461539,39.8,94.03846153846153,39.8,95.1923076923077,39.8C97.5,39.8,99.8076923076923,39.8,102.11538461538461,39.8C102.6923076923077,39.8,103.26923076923076,39.6,103.84615384615384,39.6C104.42307692307692,39.6,105,39.8,105.57692307692308,39.8C107.88461538461539,39.8,110.1923076923077,39.711111111111116,112.5,39.6C113.65384615384616,39.544444444444444,114.8076923076923,39.511111111111106,115.96153846153847,39.4C116.53846153846155,39.34444444444444,117.11538461538461,39.2,117.6923076923077,39.2C118.26923076923077,39.2,118.84615384615384,39.4,119.42307692307692,39.4C120,39.4,120.57692307692308,39.4,121.15384615384616,39.4C121.73076923076924,39.4,122.3076923076923,37.400000000000006,122.88461538461539,37.400000000000006C123.46153846153847,37.400000000000006,124.03846153846153,39.8,124.61538461538461,39.8C125.1923076923077,39.8,125.76923076923076,39.8,126.34615384615384,39.8C127.49999999999999,39.8,128.65384615384613,39.8,129.8076923076923,39.8C130.38461538461536,39.8,130.96153846153845,39.2,131.53846153846152,39.2C132.1153846153846,39.2,132.69230769230768,39.8,133.26923076923077,39.8C133.84615384615384,39.8,134.42307692307693,39.8,135,39.8C135.57692307692307,39.8,136.15384615384616,38.199999999999996,136.73076923076923,38.199999999999996C137.8846153846154,38.199999999999996,139.03846153846155,38.64444444444444,140.1923076923077,39C140.76923076923077,39.17777777777778,141.34615384615384,39.6,141.9230769230769,39.6C142.5,39.6,143.07692307692307,39.46666666666667,143.65384615384616,39.2C144.23076923076923,38.933333333333344,144.80769230769232,38.266666666666666,145.3846153846154,37C145.96153846153845,35.733333333333334,146.53846153846155,31.6,147.1153846153846,31.6C147.69230769230768,31.6,148.26923076923077,36.4,148.84615384615384,36.4C149.42307692307693,36.4,150,26.6,150.5769230769231,26.6C151.15384615384616,26.6,151.73076923076923,31.6,152.3076923076923,31.6C152.88461538461536,31.6,153.46153846153845,30.46666666666667,154.03846153846152,28.200000000000003C154.6153846153846,25.9333333333333,155.19230769230768,5,155.76923076923077,5C156.34615384615384,5,156.92307692307693,20.86666666666667,157.5,24.6C158.07692307692307,28.333333333333332,158.65384615384616,30.2,159.23076923076923,30.2C159.80769230769232,30.2,160.3846153846154,14.399999999999999,160.96153846153848,14.399999999999999C161.53846153846155,14.399999999999999,162.11538461538464,18.033333333333296,162.6923076923077,21C163.26923076923077,23.966666666666654,163.84615384615384,32.199999999999996,164.4230769230769,32.199999999999996C165,32.199999999999996,165.57692307692307,16.6,166.15384615384616,16.6C166.73076923076923,16.6,167.30769230769232,22.400000000000002,167.8846153846154,22.400000000000002C168.46153846153845,22.400000000000002,169.03846153846155,21.03333333333333,169.6153846153846,20C170.19230769230768,18.96666666666667,170.76923076923077,16.200000000000003,171.34615384615384,16.200000000000003C171.92307692307693,16.200000000000003,172.5,18.23333333333331,173.0769230769231,19.4C173.65384615384616,20.56666666666665,174.23076923076923,22.13333333333334,174.8076923076923,23.200000000000003C175.38461538461536,24.26666666666668,175.96153846153845,25.200000000000003,176.53846153846152,25.8C177.1153846153846,26.40000000000001,177.69230769230768,26.799999999999997,178.26923076923077,26.799999999999997C178.84615384615384,26.799999999999997,179.42307692307693,22.799999999999997,180,18.799999999999997L180,40C179.42307692307693,40,178.84615384615384,40,178.26923076923077,40C177.69230769230768,40,177.1153846153846,40,176.53846153846152,40C175.96153846153845,40,175.38461538461536,40,174.8076923076923,40C174.23076923076923,40,173.65384615384616,40,173.0769230769231,40C172.5,40,171.92307692307693,40,171.34615384615384,40C170.76923076923077,40,170.19230769230768,40,169.6153846153846,40C169.03846153846155,40,168.46153846153845,40,167.8846153846154,40C167.30769230769232,40,166.73076923076923,40,166.15384615384616,40C165.57692307692307,40,165,40,164.4230769230769,40C163.84615384615384,40,163.26923076923077,40,162.6923076923077,40C162.11538461538464,40,161.53846153846155,40,160.96153846153848,40C160.3846153846154,40,159.80769230769232,40,159.23076923076923,40C158.65384615384616,40,158.07692307692307,40,157.5,40C156.92307692307693,40,156.34615384615384,40,155.76923076923077,40C155.19230769230768,40,154.6153846153846,40,154.03846153846152,40C153.46153846153845,40,152.88461538461536,40,152.3076923076923,40C151.73076923076923,40,151.15384615384616,40,150.5769230769231,40C150,40,149.42307692307693,40,148.84615384615384,40C148.26923076923077,40,147.69230769230768,40,147.1153846153846,40C146.53846153846155,40,145.96153846153845,40,145.3846153846154,40C144.80769230769232,40,144.23076923076923,40,143.65384615384616,40C143.07692307692307,40,142.5,40,141.9230769230769,40C141.34615384615384,40,140.76923076923077,40,140.1923076923077,40C139.03846153846155,40,137.8846153846154,40,136.73076923076923,40C136.15384615384616,40,135.57692307692307,40,135,40C134.42307692307693,40,133.84615384615384,40,133.26923076923077,40C132.69230769230768,40,132.1153846153846,40,131.53846153846152,40C130.96153846153845,40,130.38461538461536,40,129.8076923076923,40C128.65384615384613,40,127.49999999999999,40,126.34615384615384,40C125.76923076923076,40,125.1923076923077,40,124.61538461538461,40C124.03846153846153,40,123.46153846153847,40,122.88461538461539,40C122.3076923076923,40,121.73076923076924,40,121.15384615384616,40C120.57692307692308,40,120,40,119.42307692307692,40C118.84615384615384,40,118.26923076923077,40,117.6923076923077,40C117.11538461538461,40,116.53846153846155,40,115.96153846153847,40C114.8076923076923,40,113.65384615384616,40,112.5,40C110.1923076923077,40,107.88461538461539,40,105.57692307692308,40C105,40,104.42307692307692,40,103.84615384615384,40C103.26923076923076,40,102.6923076923077,40,102.11538461538461,40C99.8076923076923,40,97.5,40,95.1923076923077,40C94.03846153846153,40,92.88461538461539,40,91.73076923076923,40C87.11538461538461,40,82.5,40,77.88461538461539,40C76.73076923076923,40,75.57692307692308,40,74.42307692307692,40C69.8076923076923,40,65.1923076923077,40,60.57692307692308,40C59.42307692307693,40,58.26923076923077,40,57.11538461538461,40C56.53846153846154,40,55.96153846153846,40,55.38461538461539,40C54.80769230769231,40,54.23076923076923,40,53.65384615384615,40C51.92307692307692,40,50.19230769230769,40,48.46153846153846,40C46.15384615384615,40,43.84615384615385,40,41.53846153846154,40C40.96153846153846,40,40.38461538461539,40,39.80769230769231,40C35.76923076923077,40,31.73076923076923,40,27.692307692307693,40C25.384615384615387,40,23.076923076923077,40,20.76923076923077,40C19.615384615384617,40,18.461538461538463,40,17.30769230769231,40C16.153846153846157,40,15.000000000000002,40,13.846153846153847,40C12.692307692307693,40,11.538461538461538,40,10.384615384615385,40C9.230769230769232,40,8.076923076923077,40,6.923076923076923,40C5.769230769230769,40,4.615384615384616,40,3.4615384615384617,40C2.8846153846153846,40,2.307692307692308,40,1.7307692307692308,40C1.1538461538461537,40,0.576923076923077,40,0,40Z"></path><path class="line" stroke="black" fill="none" d="M0,39.8C0.576923076923077,39.75,1.1538461538461537,39.7,1.7307692307692308,39.6C2.307692307692308,39.5,2.8846153846153846,39.333333333333336,3.4615384615384617,39.2C4.615384615384616,38.93333333333334,5.769230769230769,38.4,6.923076923076923,38.4C8.076923076923077,38.4,9.230769230769232,39.2,10.384615384615385,39.2C11.538461538461538,39.2,12.692307692307693,39,13.846153846153847,39C15.000000000000002,39,16.153846153846157,39.46666666666667,17.30769230769231,39.6C18.461538461538463,39.733333333333334,19.615384615384617,39.8,20.76923076923077,39.8C23.076923076923077,39.8,25.384615384615387,39.8,27.692307692307693,39.8C31.73076923076923,39.8,35.76923076923077,39.8,39.80769230769231,39.8C40.38461538461539,39.8,40.96153846153846,39.8,41.53846153846154,39.8C43.84615384615385,39.8,46.15384615384615,39.6,48.46153846153846,39.6C50.19230769230769,39.6,51.92307692307692,39.6,53.65384615384615,39.6C54.23076923076923,39.6,54.80769230769231,39.4,55.38461538461539,39.4C55.96153846153846,39.4,56.53846153846154,39.8,57.11538461538461,39.8C58.26923076923077,39.8,59.42307692307693,39.8,60.57692307692308,39.8C65.1923076923077,39.8,69.8076923076923,39.8,74.42307692307692,39.8C75.57692307692308,39.8,76.73076923076923,39.8,77.88461538461539,39.8C82.5,39.8,87.11538461538461,39.8,91.73076923076923,39.8C92.88461538461539,39.8,94.03846153846153,39.8,95.1923076923077,39.8C97.5,39.8,99.8076923076923,39.8,102.11538461538461,39.8C102.6923076923077,39.8,103.26923076923076,39.6,103.84615384615384,39.6C104.42307692307692,39.6,105,39.8,105.57692307692308,39.8C107.88461538461539,39.8,110.1923076923077,39.711111111111116,112.5,39.6C113.65384615384616,39.544444444444444,114.8076923076923,39.511111111111106,115.96153846153847,39.4C116.53846153846155,39.34444444444444,117.11538461538461,39.2,117.6923076923077,39.2C118.26923076923077,39.2,118.84615384615384,39.4,119.42307692307692,39.4C120,39.4,120.57692307692308,39.4,121.15384615384616,39.4C121.73076923076924,39.4,122.3076923076923,37.400000000000006,122.88461538461539,37.400000000000006C123.46153846153847,37.400000000000006,124.03846153846153,39.8,124.61538461538461,39.8C125.1923076923077,39.8,125.76923076923076,39.8,126.34615384615384,39.8C127.49999999999999,39.8,128.65384615384613,39.8,129.8076923076923,39.8C130.38461538461536,39.8,130.96153846153845,39.2,131.53846153846152,39.2C132.1153846153846,39.2,132.69230769230768,39.8,133.26923076923077,39.8C133.84615384615384,39.8,134.42307692307693,39.8,135,39.8C135.57692307692307,39.8,136.15384615384616,38.199999999999996,136.73076923076923,38.199999999999996C137.8846153846154,38.199999999999996,139.03846153846155,38.64444444444444,140.1923076923077,39C140.76923076923077,39.17777777777778,141.34615384615384,39.6,141.9230769230769,39.6C142.5,39.6,143.07692307692307,39.46666666666667,143.65384615384616,39.2C144.23076923076923,38.933333333333344,144.80769230769232,38.266666666666666,145.3846153846154,37C145.96153846153845,35.733333333333334,146.53846153846155,31.6,147.1153846153846,31.6C147.69230769230768,31.6,148.26923076923077,36.4,148.84615384615384,36.4C149.42307692307693,36.4,150,26.6,150.5769230769231,26.6C151.15384615384616,26.6,151.73076923076923,31.6,152.3076923076923,31.6C152.88461538461536,31.6,153.46153846153845,30.46666666666667,154.03846153846152,28.200000000000003C154.6153846153846,25.9333333333333,155.19230769230768,5,155.76923076923077,5C156.34615384615384,5,156.92307692307693,20.86666666666667,157.5,24.6C158.07692307692307,28.333333333333332,158.65384615384616,30.2,159.23076923076923,30.2C159.80769230769232,30.2,160.3846153846154,14.399999999999999,160.96153846153848,14.399999999999999C161.53846153846155,14.399999999999999,162.11538461538464,18.033333333333296,162.6923076923077,21C163.26923076923077,23.966666666666654,163.84615384615384,32.199999999999996,164.4230769230769,32.199999999999996C165,32.199999999999996,165.57692307692307,16.6,166.15384615384616,16.6C166.73076923076923,16.6,167.30769230769232,22.400000000000002,167.8846153846154,22.400000000000002C168.46153846153845,22.400000000000002,169.03846153846155,21.03333333333333,169.6153846153846,20C170.19230769230768,18.96666666666667,170.76923076923077,16.200000000000003,171.34615384615384,16.200000000000003C171.92307692307693,16.200000000000003,172.5,18.23333333333331,173.0769230769231,19.4C173.65384615384616,20.56666666666665,174.23076923076923,22.13333333333334,174.8076923076923,23.200000000000003C175.38461538461536,24.26666666666668,175.96153846153845,25.200000000000003,176.53846153846152,25.8C177.1153846153846,26.40000000000001,177.69230769230768,26.799999999999997,178.26923076923077,26.799999999999997C178.84615384615384,26.799999999999997,179.42307692307693,22.799999999999997,180,18.799999999999997"></path><path class="axis-ceiling" stroke-width="1" stroke="black" fill="none" d="M175,0L180,0"></path><text class="axis-ceiling-label" font-family="sans-serif" text-anchor="end" font-size="10px" x="170" y="2.5">200</text></g></svg>