<svg xmlns="http://www.w3.org/2000/svg" viewBox="0 0 180 60"><g transform="translate(0,20)"><path class="area" fill="rgba(0, 0, 0, 0.2)" d="M0,21.744000000000003C1.0169491525423728,21.688000000000002,2.0338983050847457,21.631999999999998,3.0508474576271185,21.631999999999998C4.067796610169491,21.631999999999998,5.084745762711864,21.759999999999998,6.101694915254237,21.808C7.11864406779661,21.856,8.135593220338983,21.874666666666666,9.152542372881356,21.92C10.169491525423728,21.965333333333334,11.186440677966102,21.973333333333336,12.203389830508474,22.080000000000002C13.220338983050846,22.186666666666667,14.23728813559322,23.080000000000002,15.254237288135592,23.504C16.271186440677965,23.928,17.28813559322034,24.29333333333333,18.305084745762713,24.623999999999995C19.322033898305087,24.95466666666666,20.338983050847457,25.24,21.35593220338983,25.488C22.372881355932204,25.736,23.389830508474574,25.802666666666667,24.406779661016948,26.112000000000002C25.423728813559322,26.421333333333337,26.440677966101696,26.904,27.45762711864407,27.344C28.47457627118644,27.784,29.491525423728813,28.38133333333333,30.508474576271183,28.752C31.525423728813557,29.122666666666667,32.54237288135593,29.349333333333337,33.559322033898304,29.568000000000005C34.57627118644068,29.786666666666672,35.59322033898305,29.88,36.610169491525426,30.064C37.6271186440678,30.247999999999998,38.644067796610166,30.472,39.66101694915254,30.672C40.67796610169491,30.872,41.69491525423729,31.122666666666664,42.71186440677966,31.264C43.728813559322035,31.40533333333333,44.7457627118644,31.429333333333336,45.762711864406775,31.520000000000003C46.77966101694915,31.61066666666667,47.79661016949152,31.808,48.813559322033896,31.808C49.83050847457627,31.808,50.847457627118644,31.663999999999998,51.86440677966102,31.663999999999998C52.88135593220339,31.663999999999998,53.898305084745765,31.808,54.91525423728814,31.808C55.93220338983051,31.808,56.94915254237288,31.645333333333333,57.96610169491525,31.552C58.983050847457626,31.458666666666666,59.99999999999999,31.248,61.01694915254237,31.248C62.03389830508474,31.248,63.05084745762712,31.264,64.0677966101695,31.264C65.08474576271186,31.264,66.10169491525424,31.186666666666664,67.11864406779661,31.04C68.13559322033899,30.89333333333333,69.15254237288136,30.533333333333335,70.16949152542374,30.384C71.1864406779661,30.23466666666667,72.20338983050848,30.23466666666667,73.22033898305085,30.144000000000002C74.23728813559322,30.053333333333335,75.2542372881356,29.949333333333332,76.27118644067797,29.84C77.28813559322033,29.730666666666668,78.30508474576271,29.581333333333337,79.32203389830508,29.488000000000003C80.33898305084746,29.39466666666667,81.35593220338983,29.41866666666667,82.37288135593221,29.28C83.38983050847457,29.141333333333336,84.40677966101696,28.72533333333333,85.42372881355932,28.479999999999997C86.4406779661017,28.234666666666662,87.45762711864407,27.981333333333332,88.47457627118645,27.808C89.49152542372882,27.634666666666668,90.50847457627118,27.677333333333326,91.52542372881355,27.439999999999998C92.54237288135593,27.202666666666666,93.55932203389831,26.701333333333334,94.57627118644069,26.384C95.59322033898306,26.06666666666667,96.61016949152543,25.829333333333334,97.62711864406779,25.536C98.64406779661016,25.242666666666665,99.66101694915254,25.015999999999995,100.6779661016949,24.623999999999995C101.69491525423729,24.231999999999996,102.71186440677965,23.573333333333334,103.72881355932203,23.184C104.7457627118644,22.794666666666668,105.76271186440678,22.53333333333333,106.77966101694915,22.287999999999997C107.79661016949153,22.042666666666662,108.8135593220339,21.98933333333333,109.83050847457628,21.711999999999996C110.84745762711864,21.434666666666665,111.86440677966102,20.869333333333334,112.88135593220339,20.624000000000002C113.89830508474576,20.37866666666667,114.91525423728814,20.472,115.9322033898305,20.240000000000002C116.94915254237289,20.008000000000003,117.96610169491525,19.56266666666667,118.98305084745763,19.232C120,18.901333333333334,121.01694915254237,18.570666666666664,122.03389830508473,18.256C123.05084745762711,17.941333333333333,124.0677966101695,17.840000000000003,125.08474576271188,17.344C126.10169491525424,16.848000000000003,127.11864406779662,16.037333333333336,128.135593220339,15.280000000000001C129.15254237288136,14.52266666666667,130.16949152542372,13.639999999999993,131.1864406779661,12.799999999999997C132.20338983050846,11.959999999999994,133.22033898305085,11.08,134.23728813559322,10.24C135.25423728813558,9.4,136.27118644067798,8.623999999999999,137.28813559322035,7.759999999999998C138.3050847457627,6.895999999999997,139.3220338983051,5.933333333333335,140.33898305084747,5.055999999999998C141.35593220338984,4.178666666666669,142.3728813559322,3.245333333333331,143.38983050847457,2.4960000000000004C144.40677966101694,1.746666666666663,145.42372881355934,0.8800000000000038,146.4406779661017,0.5600000000000005C147.45762711864407,0.2400000000000002,148.47457627118644,0.09066666666666547,149.4915254237288,0.08000000000000007C150.50847457627117,0.06933333333333458,151.52542372881356,0.06400000000000183,152.54237288135593,0.06400000000000183C153.5593220338983,0.06400000000000183,154.5762711864407,0.30133333333333423,155.59322033898306,0.43200000000000127C156.61016949152543,0.5626666666666671,157.6271186440678,0.6746666666666675,158.64406779661016,0.8479999999999999C159.66101694915253,1.0213333333333339,160.67796610169492,1.1866666666666692,161.6949152542373,1.4720000000000022C162.71186440677965,1.7573333333333352,163.72881355932205,2.2746666666666644,164.74576271186442,2.559999999999998C165.76271186440678,2.8453333333333286,166.77966101694915,3.184,167.79661016949152,3.184C168.81355932203388,3.184,169.83050847457628,3.104,170.84745762711864,3.104C171.864406779661,3.104,172.8813559322034,3.791999999999999,173.89830508474577,4.159999999999999C174.91525423728814,4.528,175.93220338983053,5.312000000000001,176.9491525423729,5.312000000000001C177.96610169491527,5.312000000000001,178.98305084745763,5.272000000000001,180,5.232000000000001L180,40C178.98305084745763,40,177.96610169491527,40,176.9491525423729,40C175.93220338983053,40,174.91525423728814,40,173.89830508474577,40C172.8813559322034,40,171.864406779661,40,170.84745762711864,40C169.83050847457628,40,168.81355932203388,40,167.79661016949152,40C166.77966101694915,40,165.76271186440678,40,164.74576271186442,40C163.72881355932205,40,162.71186440677965,40,161.6949152542373,40C160.67796610169492,40,159.66101694915253,40,158.64406779661016,40C157.6271186440678,40,156.61016949152543,40,155.59322033898306,40C154.5762711864407,40,153.5593220338983,40,152.54237288135593,40C151.52542372881356,40,150.50847457627117,40,149.4915254237288,40C148.47457627118644,40,147.45762711864407,40,146.4406779661017,40C145.42372881355934,40,144.40677966101694,40,143.38983050847457,40C142.3728813559322,40,141.35593220338984,40,140.33898305084747,40C139.3220338983051,40,138.3050847457627,40,137.28813559322035,40C136.27118644067798,40,135.25423728813558,40,134.23728813559322,40C133.22033898305085,40,132.20338983050846,40,131.1864406779661,40C130.16949152542372,40,129.15254237288136,40,128.135593220339,40C127.11864406779662,40,126.10169491525424,40,125.08474576271188,40C124.0677966101695,40,123.05084745762711,40,122.03389830508473,40C121.01694915254237,40,120,40,118.98305084745763,40C117.96610169491525,40,116.94915254237289,40,115.9322033898305,40C114.91525423728814,40,113.89830508474576,40,112.88135593220339,40C111.86440677966102,40,110.84745762711864,40,109.83050847457628,40C108.8135593220339,40,107.79661016949153,40,106.77966101694915,40C105.76271186440678,40,104.7457627118644,40,103.72881355932203,40C102.71186440677965,40,101.69491525423729,40,100.6779661016949,40C99.66101694915254,40,98.64406779661016,40,97.62711864406779,40C96.61016949152543,40,95.59322033898306,40,94.57627118644069,40C93.55932203389831,40,92.54237288135593,40,91.52542372881355,40C90.50847457627118,40,89.49152542372882,40,88.47457627118645,40C87.45762711864407,40,86.4406779661017,40,85.42372881355932,40C84.40677966101696,40,83.38983050847457,40,82.37288135593221,40C81.35593220338983,40,80.33898305084746,40,79.32203389830508,40C78.30508474576271,40,77.28813559322033,40,76.27118644067797,40C75.2542372881356,40,74.23728813559322,40,73.22033898305085,40C72.20338983050848,40,71.1864406779661,40,70.16949152542374,40C69.15254237288136,40,68.13559322033899,40,67.11864406779661,40C66.10169491525424,40,65.08474576271186,40,64.0677966101695,40C63.05084745762712,40,62.03389830508474,40,61.01694915254237,40C59.99999999999999,40,58.983050847457626,40,57.96610169491525,40C56.94915254237288,40,55.93220338983051,40,54.91525423728814,40C53.898305084745765,40,52.88135593220339,40,51.86440677966102,40C50.847457627118644,40,49.83050847457627,40,48.813559322033896,40C47.79661016949152,40,46.77966101694915,40,45.762711864406775,40C44.7457627118644,40,43.728813559322035,40,42.71186440677966,40C41.69491525423729,40,40.67796610169491,40,39.66101694915254,40C38.644067796610166,40,37.6271186440678,40,36.610169491525426,40C35.59322033898305,40,34.57627118644068,40,33.559322033898304,40C32.54237288135593,40,31.525423728813557,40,30.508474576271183,40C29.491525423728813,40,28.47457627118644,40,27.45762711864407,40C26.440677966101696,40,25.423728813559322,40,24.406779661016948,40C23.389830508474574,40,22.372881355932204,40,21.35593220338983,40C20.338983050847457,40,19.322033898305087,40,18.305084745762713,40C17.28813559322034,40,16.271186440677965,40,15.254237288135592,40C14.23728813559322,40,13.220338983050846,40,12.203389830508474,40C11.186440677966102,40,10.169491525423728,40,9.152542372881356,40C8.135593220338983,40,7.11864406779661,40,6.101694915254237,40C5.084745762711864,40,4.067796610169491,40,3.0508474576271185,40C2.0338983050847457,40,1.0169491525423728,40,0,40Z"></path><path class="line" stroke="black" fill="none" d="M0,21.744000000000003C1.0169491525423728,21.688000000000002,2.0338983050847457,21.631999999999998,3.0508474576271185,21.631999999999998C4.067796610169491,21.631999999999998,5.084745762711864,21.759999999999998,6.101694915254237,21.808C7.11864406779661,21.856,8.135593220338983,21.874666666666666,9.152542372881356,21.92C10.169491525423728,21.965333333333334,11.186440677966102,21.973333333333336,12.203389830508474,22.080000000000002C13.220338983050846,22.186666666666667,14.23728813559322,23.080000000000002,15.254237288135592,23.504C16.271186440677965,23.928,17.28813559322034,24.29333333333333,18.305084745762713,24.623999999999995C19.322033898305087,24.95466666666666,20.338983050847457,25.24,21.35593220338983,25.488C22.372881355932204,25.736,23.389830508474574,25.802666666666667,24.406779661016948,26.112000000000002C25.423728813559322,26.421333333333337,26.440677966101696,26.904,27.45762711864407,27.344C28.47457627118644,27.784,29.491525423728813,28.38133333333333,30.508474576271183,28.752C31.525423728813557,29.122666666666667,32.54237288135593,29.349333333333337,33.559322033898304,29.568000000000005C34.57627118644068,29.786666666666672,35.59322033898305,29.88,36.610169491525426,30.064C37.6271186440678,30.247999999999998,38.644067796610166,30.472,39.66101694915254,30.672C40.67796610169491,30.872,41.69491525423729,31.122666666666664,42.71186440677966,31.264C43.728813559322035,31.40533333333333,44.7457627118644,31.429333333333336,45.762711864406775,31.520000000000003C46.77966101694915,31.61066666666667,47.79661016949152,31.808,48.813559322033896,31.808C49.83050847457627,31.808,50.847457627118644,31.663999999999998,51.86440677966102,31.663999999999998C52.88135593220339,31.663999999999998,53.898305084745765,31.808,54.91525423728814,31.808C55.93220338983051,31.808,56.94915254237288,31.645333333333333,57.96610169491525,31.552C58.983050847457626,31.458666666666666,59.99999999999999,31.248,61.01694915254237,31.248C62.03389830508474,31.248,63.05084745762712,31.264,64.0677966101695,31.264C65.08474576271186,31.264,66.10169491525424,31.186666666666664,67.11864406779661,31.04C68.13559322033899,30.89333333333333,69.15254237288136,30.533333333333335,70.16949152542374,30.384C71.1864406779661,30.23466666666667,72.20338983050848,30.23466666666667,73.22033898305085,30.144000000000002C74.23728813559322,30.053333333333335,75.2542372881356,29.949333333333332,76.27118644067797,29.84C77.28813559322033,29.730666666666668,78.30508474576271,29.581333333333337,79.32203389830508,29.488000000000003C80.33898305084746,29.39466666666667,81.35593220338983,29.41866666666667,82.37288135593221,29.28C83.38983050847457,29.141333333333336,84.40677966101696,28.72533333333333,85.42372881355932,28.479999999999997C86.4406779661017,28.234666666666662,87.45762711864407,27.981333333333332,88.47457627118645,27.808C89.49152542372882,27.634666666666668,90.50847457627118,27.677333333333326,91.52542372881355,27.439999999999998C92.54237288135593,27.202666666666666,93.55932203389831,26.701333333333334,94.57627118644069,26.384C95.59322033898306,26.06666666666667,96.61016949152543,25.829333333333334,97.62711864406779,25.536C98.64406779661016,25.242666666666665,99.66101694915254,25.015999999999995,100.6779661016949,24.623999999999995C101.69491525423729,24.231999999999996,102.71186440677965,23.573333333333334,103.72881355932203,23.184C104.7457627118644,22.794666666666668,105.76271186440678,22.53333333333333,106.77966101694915,22.287999999999997C107.79661016949153,22.042666666666662,108.8135593220339,21.98933333333333,109.83050847457628,21.711999999999996C110.84745762711864,21.434666666666665,111.86440677966102,20.869333333333334,112.88135593220339,20.624000000000002C113.89830508474576,20.37866666666667,114.91525423728814,20.472,115.9322033898305,20.240000000000002C116.94915254237289,20.008000000000003,117.96610169491525,19.56266666666667,118.98305084745763,19.232C120,18.901333333333334,121.01694915254237,18.570666666666664,122.03389830508473,18.256C123.05084745762711,17.941333333333333,124.0677966101695,17.840000000000003,125.08474576271188,17.344C126.10169491525424,16.848000000000003,127.11864406779662,16.037333333333336,128.135593220339,15.280000000000001C129.15254237288136,14.52266666666667,130.16949152542372,13.639999999999993,131.1864406779661,12.799999999999997C132.20338983050846,11.959999999999994,133.22033898305085,11.08,134.23728813559322,10.24C135.25423728813558,9.4,136.27118644067798,8.623999999999999,137.28813559322035,7.759999999999998C138.3050847457627,6.895999999999997,139.3220338983051,5.933333333333335,140.33898305084747,5.055999999999998C141.35593220338984,4.178666666666669,142.3728813559322,3.245333333333331,143.38983050847457,2.4960000000000004C144.40677966101694,1.746666666666663,145.42372881355934,0.8800000000000038,146.4406779661017,0.5600000000000005C147.45762711864407,0.2400000000000002,148.47457627118644,0.09066666666666547,149.4915254237288,0.08000000000000007C150.50847457627117,0.06933333333333458,151.52542372881356,0.06400000000000183,152.54237288135593,0.06400000000000183C153.5593220338983,0.06400000000000183,154.5762711864407,0.30133333333333423,155.59322033898306,0.43200000000000127C156.61016949152543,0.5626666666666671,157.6271186440678,0.6746666666666675,158.64406779661016,0.8479999999999999C159.66101694915253,1.0213333333333339,160.67796610169492,1.1866666666666692,161.6949152542373,1.4720000000000022C162.71186440677965,1.7573333333333352,163.72881355932205,2.2746666666666644,164.74576271186442,2.559999999999998C165.76271186440678,2.8453333333333286,166.77966101694915,3.184,167.79661016949152,3.184C168.81355932203388,3.184,169.83050847457628,3.104,170.84745762711864,3.104C171.864406779661,3.104,172.8813559322034,3.791999999999999,173.89830508474577,4.159999999999999C174.91525423728814,4.528,175.93220338983053,5.312000000000001,176.9491525423729,5.312000000000001C177.96610169491527,5.312000000000001,178.98305084745763,5.272000000000001,180,5.232000000000001"></path><path class="axis-ceiling" stroke-width="1" stroke="black" fill="none" d="M175,0L180,0"></path><text class="axis-ceiling-label" font-family="sans-serif" text-anchor="end" font-size="10px" x="170" y="2.5">2500</text></g></svg>