<svg xmlns="http://www.w3.org/2000/svg" viewBox="0 0 180 60"><g transform="translate(0,20)"><path class="area" fill="rgba(0, 0, 0, 0.2)" d="M0,6.857142857142855C1.0169491525423728,4.571428571428571,2.0338983050847457,2.2857142857142865,3.0508474576271185,2.2857142857142865C4.067796610169491,2.2857142857142865,5.084745762711864,2.6666666666666674,6.101694915254237,3.4285714285714297C7.11864406779661,4.1904761904761925,8.135593220338983,7.80952380952381,9.152542372881356,9.142857142857142C10.169491525423728,10.476190476190474,11.186440677966102,11.428571428571427,12.203389830508474,11.428571428571427C13.220338983050846,11.428571428571427,14.23728813559322,11.428571428571427,15.254237288135592,11.428571428571427C16.271186440677965,11.428571428571427,17.28813559322034,14.095238095238095,18.305084745762713,14.857142857142858C19.322033898305087,15.619047619047619,20.338983050847457,15.238095238095239,21.35593220338983,16C22.372881355932204,16.761904761904763,23.389830508474574,18.476190476190478,24.406779661016948,19.42857142857143C25.423728813559322,20.380952380952383,26.440677966101696,21.142857142857146,27.45762711864407,21.714285714285715C28.47457627118644,22.285714285714285,29.491525423728813,22.285714285714285,30.508474576271183,22.857142857142854C31.525423728813557,23.428571428571427,32.54237288135593,24.38095238095238,33.559322033898304,25.142857142857142C34.57627118644068,25.904761904761905,35.59322033898305,26.666666666666668,36.610169491525426,27.42857142857143C37.6271186440678,28.190476190476193,38.644067796610166,29.714285714285715,39.66101694915254,29.714285714285715C40.67796610169491,29.714285714285715,41.69491525423729,25.142857142857142,42.71186440677966,25.142857142857142C43.728813559322035,25.142857142857142,44.7457627118644,25.904761904761905,45.762711864406775,26.285714285714285C46.77966101694915,26.666666666666668,47.79661016949152,27.42857142857143,48.813559322033896,27.42857142857143C49.83050847457627,27.42857142857143,50.847457627118644,27.42857142857143,51.86440677966102,27.42857142857143C52.88135593220339,27.42857142857143,53.898305084745765,28.190476190476193,54.91525423728814,28.571428571428573C55.93220338983051,28.952380952380953,56.94915254237288,29.333333333333336,57.96610169491525,29.714285714285715C58.983050847457626,30.095238095238095,59.99999999999999,30.095238095238095,61.01694915254237,30.857142857142858C62.03389830508474,31.619047619047624,63.05084745762712,36.57142857142857,64.0677966101695,36.57142857142857C65.08474576271186,36.57142857142857,66.10169491525424,35.42857142857143,67.11864406779661,35.42857142857143C68.13559322033899,35.42857142857143,69.15254237288136,36.57142857142857,70.16949152542374,36.57142857142857C71.1864406779661,36.57142857142857,72.20338983050848,36.57142857142857,73.22033898305085,36.57142857142857C74.23728813559322,36.57142857142857,75.2542372881356,34.85714285714286,76.27118644067797,34.28571428571429C77.28813559322033,33.71428571428572,78.30508474576271,33.52380952380952,79.32203389830508,33.14285714285714C80.33898305084746,32.76190476190476,81.35593220338983,32.76190476190476,82.37288135593221,32C83.38983050847457,31.238095238095244,84.40677966101696,28.19047619047619,85.42372881355932,27.42857142857143C86.4406779661017,26.666666666666668,87.45762711864407,27.047619047619047,88.47457627118645,26.285714285714285C89.49152542372882,25.52380952380953,90.50847457627118,17.142857142857146,91.52542372881355,17.142857142857146C92.54237288135593,17.142857142857146,93.55932203389831,17.142857142857146,94.57627118644069,17.142857142857146C95.59322033898306,17.142857142857146,96.61016949152543,17.90476190476191,97.62711864406779,18.28571428571429C98.64406779661016,18.66666666666667,99.66101694915254,19.42857142857143,100.6779661016949,19.42857142857143C101.69491525423729,19.42857142857143,102.71186440677965,13.714285714285715,103.72881355932203,13.714285714285715C104.7457627118644,13.714285714285715,105.76271186440678,17.142857142857146,106.77966101694915,17.142857142857146C107.79661016949153,17.142857142857146,108.8135593220339,12.571428571428571,109.83050847457628,12.571428571428571C110.84745762711864,12.571428571428571,111.86440677966102,19.42857142857143,112.88135593220339,19.42857142857143C113.89830508474576,19.42857142857143,114.91525423728814,17.142857142857146,115.9322033898305,17.142857142857146C116.94915254237289,17.142857142857146,117.96610169491525,17.142857142857146,118.98305084745763,17.142857142857146C120,17.142857142857146,121.01694915254237,14.857142857142858,122.03389830508473,14.857142857142858C123.05084745762711,14.857142857142858,124.0677966101695,17.142857142857146,125.08474576271188,17.142857142857146C126.10169491525424,17.142857142857146,127.11864406779662,16,128.135593220339,16C129.15254237288136,16,130.16949152542372,18.28571428571429,131.1864406779661,18.28571428571429C132.20338983050846,18.28571428571429,133.22033898305085,14.857142857142858,134.23728813559322,14.857142857142858C135.25423728813558,14.857142857142858,136.27118644067798,16,137.28813559322035,16C138.3050847457627,16,139.3220338983051,11.428571428571427,140.33898305084747,11.428571428571427C141.35593220338984,11.428571428571427,142.3728813559322,13.714285714285715,143.38983050847457,13.714285714285715C144.40677966101694,13.714285714285715,145.42372881355934,13.714285714285715,146.4406779661017,13.714285714285715C147.45762711864407,13.714285714285715,148.47457627118644,14.476190476190478,149.4915254237288,14.857142857142858C150.50847457627117,15.23809523809524,151.52542372881356,15.238095238095239,152.54237288135593,16C153.5593220338983,16.761904761904763,154.5762711864407,19.8095238095238,155.59322033898306,20.57142857142857C156.61016949152543,21.333333333333332,157.6271186440678,20.95238095238096,158.64406779661016,21.714285714285715C159.66101694915253,22.476190476190478,160.67796610169492,25.142857142857142,161.6949152542373,25.142857142857142C162.71186440677965,25.142857142857142,163.72881355932205,24,164.74576271186442,24C165.76271186440678,24,166.77966101694915,26.285714285714285,167.79661016949152,26.285714285714285C168.81355932203388,26.285714285714285,169.83050847457628,26.285714285714285,170.84745762711864,26.285714285714285C171.864406779661,26.285714285714285,172.8813559322034,27.42857142857143,173.89830508474577,27.42857142857143C174.91525423728814,27.42857142857143,175.93220338983053,24.761904761904763,176.9491525423729,24C177.96610169491527,23.238095238095244,178.98305084745763,23.04761904761905,180,22.857142857142854L180,40C178.98305084745763,40,177.96610169491527,40,176.9491525423729,40C175.93220338983053,40,174.91525423728814,40,173.89830508474577,40C172.8813559322034,40,171.864406779661,40,170.84745762711864,40C169.83050847457628,40,168.81355932203388,40,167.79661016949152,40C166.77966101694915,40,165.76271186440678,40,164.74576271186442,40C163.72881355932205,40,162.71186440677965,40,161.6949152542373,40C160.67796610169492,40,159.66101694915253,40,158.64406779661016,40C157.6271186440678,40,156.61016949152543,40,155.59322033898306,40C154.5762711864407,40,153.5593220338983,40,152.54237288135593,40C151.52542372881356,40,150.50847457627117,40,149.4915254237288,40C148.47457627118644,40,147.45762711864407,40,146.4406779661017,40C145.42372881355934,40,144.40677966101694,40,143.38983050847457,40C142.3728813559322,40,141.35593220338984,40,140.33898305084747,40C139.3220338983051,40,138.3050847457627,40,137.28813559322035,40C136.27118644067798,40,135.25423728813558,40,134.23728813559322,40C133.22033898305085,40,132.20338983050846,40,131.1864406779661,40C130.16949152542372,40,129.15254237288136,40,128.135593220339,40C127.11864406779662,40,126.10169491525424,40,125.08474576271188,40C124.0677966101695,40,123.05084745762711,40,122.03389830508473,40C121.01694915254237,40,120,40,118.98305084745763,40C117.96610169491525,40,116.94915254237289,40,115.9322033898305,40C114.91525423728814,40,113.89830508474576,40,112.88135593220339,40C111.86440677966102,40,110.84745762711864,40,109.83050847457628,40C108.8135593220339,40,107.79661016949153,40,106.77966101694915,40C105.76271186440678,40,104.7457627118644,40,103.72881355932203,40C102.71186440677965,40,101.69491525423729,40,100.6779661016949,40C99.66101694915254,40,98.64406779661016,40,97.62711864406779,40C96.61016949152543,40,95.59322033898306,40,94.57627118644069,40C93.55932203389831,40,92.54237288135593,40,91.52542372881355,40C90.50847457627118,40,89.49152542372882,40,88.47457627118645,40C87.45762711864407,40,86.4406779661017,40,85.42372881355932,40C84.40677966101696,40,83.38983050847457,40,82.37288135593221,40C81.35593220338983,40,80.33898305084746,40,79.32203389830508,40C78.30508474576271,40,77.28813559322033,40,76.27118644067797,40C75.2542372881356,40,74.23728813559322,40,73.22033898305085,40C72.20338983050848,40,71.1864406779661,40,70.16949152542374,40C69.15254237288136,40,68.13559322033899,40,67.11864406779661,40C66.10169491525424,40,65.08474576271186,40,64.0677966101695,40C63.05084745762712,40,62.03389830508474,40,61.01694915254237,40C59.99999999999999,40,58.983050847457626,40,57.96610169491525,40C56.94915254237288,40,55.93220338983051,40,54.91525423728814,40C53.898305084745765,40,52.88135593220339,40,51.86440677966102,40C50.847457627118644,40,49.83050847457627,40,48.813559322033896,40C47.79661016949152,40,46.77966101694915,40,45.762711864406775,40C44.7457627118644,40,43.728813559322035,40,42.71186440677966,40C41.69491525423729,40,40.67796610169491,40,39.66101694915254,40C38.644067796610166,40,37.6271186440678,40,36.610169491525426,40C35.59322033898305,40,34.57627118644068,40,33.559322033898304,40C32.54237288135593,40,31.525423728813557,40,30.508474576271183,40C29.491525423728813,40,28.47457627118644,40,27.45762711864407,40C26.440677966101696,40,25.423728813559322,40,24.406779661016948,40C23.389830508474574,40,22.372881355932204,40,21.35593220338983,40C20.338983050847457,40,19.322033898305087,40,18.305084745762713,40C17.28813559322034,40,16.271186440677965,40,15.254237288135592,40C14.23728813559322,40,13.220338983050846,40,12.203389830508474,40C11.186440677966102,40,10.169491525423728,40,9.152542372881356,40C8.135593220338983,40,7.11864406779661,40,6.101694915254237,40C5.084745762711864,40,4.067796610169491,40,3.0508474576271185,40C2.0338983050847457,40,1.0169491525423728,40,0,40Z"></path><path class="line" stroke="black" fill="none" d="M0,6.857142857142855C1.0169491525423728,4.571428571428571,2.0338983050847457,2.2857142857142865,3.0508474576271185,2.2857142857142865C4.067796610169491,2.2857142857142865,5.084745762711864,2.6666666666666674,6.101694915254237,3.4285714285714297C7.11864406779661,4.1904761904761925,8.135593220338983,7.80952380952381,9.152542372881356,9.142857142857142C10.169491525423728,10.476190476190474,11.186440677966102,11.428571428571427,12.203389830508474,11.428571428571427C13.220338983050846,11.428571428571427,14.23728813559322,11.428571428571427,15.254237288135592,11.428571428571427C16.271186440677965,11.428571428571427,17.28813559322034,14.095238095238095,18.305084745762713,14.857142857142858C19.322033898305087,15.619047619047619,20.338983050847457,15.238095238095239,21.35593220338983,16C22.372881355932204,16.761904761904763,23.389830508474574,18.476190476190478,24.406779661016948,19.42857142857143C25.423728813559322,20.380952380952383,26.440677966101696,21.142857142857146,27.45762711864407,21.714285714285715C28.47457627118644,22.285714285714285,29.491525423728813,22.285714285714285,30.508474576271183,22.857142857142854C31.525423728813557,23.428571428571427,32.54237288135593,24.38095238095238,33.559322033898304,25.142857142857142C34.57627118644068,25.904761904761905,35.59322033898305,26.666666666666668,36.610169491525426,27.42857142857143C37.6271186440678,28.190476190476193,38.644067796610166,29.714285714285715,39.66101694915254,29.714285714285715C40.67796610169491,29.714285714285715,41.69491525423729,25.142857142857142,42.71186440677966,25.142857142857142C43.728813559322035,25.142857142857142,44.7457627118644,25.904761904761905,45.762711864406775,26.285714285714285C46.77966101694915,26.666666666666668,47.79661016949152,27.42857142857143,48.813559322033896,27.42857142857143C49.83050847457627,27.42857142857143,50.847457627118644,27.42857142857143,51.86440677966102,27.42857142857143C52.88135593220339,27.42857142857143,53.898305084745765,28.190476190476193,54.91525423728814,28.571428571428573C55.93220338983051,28.952380952380953,56.94915254237288,29.333333333333336,57.96610169491525,29.714285714285715C58.983050847457626,30.095238095238095,59.99999999999999,30.095238095238095,61.01694915254237,30.857142857142858C62.03389830508474,31.619047619047624,63.05084745762712,36.57142857142857,64.0677966101695,36.57142857142857C65.08474576271186,36.57142857142857,66.10169491525424,35.42857142857143,67.11864406779661,35.42857142857143C68.13559322033899,35.42857142857143,69.15254237288136,36.57142857142857,70.16949152542374,36.57142857142857C71.1864406779661,36.57142857142857,72.20338983050848,36.57142857142857,73.22033898305085,36.57142857142857C74.23728813559322,36.57142857142857,75.2542372881356,34.85714285714286,76.27118644067797,34.28571428571429C77.28813559322033,33.71428571428572,78.30508474576271,33.52380952380952,79.32203389830508,33.14285714285714C80.33898305084746,32.76190476190476,81.35593220338983,32.76190476190476,82.37288135593221,32C83.38983050847457,31.238095238095244,84.40677966101696,28.19047619047619,85.42372881355932,27.42857142857143C86.4406779661017,26.666666666666668,87.45762711864407,27.047619047619047,88.47457627118645,26.285714285714285C89.49152542372882,25.52380952380953,90.50847457627118,17.142857142857146,91.52542372881355,17.142857142857146C92.54237288135593,17.142857142857146,93.55932203389831,17.142857142857146,94.57627118644069,17.142857142857146C95.59322033898306,17.142857142857146,96.61016949152543,17.90476190476191,97.62711864406779,18.28571428571429C98.64406779661016,18.66666666666667,99.66101694915254,19.42857142857143,100.6779661016949,19.42857142857143C101.69491525423729,19.42857142857143,102.71186440677965,13.714285714285715,103.72881355932203,13.714285714285715C104.7457627118644,13.714285714285715,105.76271186440678,17.142857142857146,106.77966101694915,17.142857142857146C107.79661016949153,17.142857142857146,108.8135593220339,12.571428571428571,109.83050847457628,12.571428571428571C110.84745762711864,12.571428571428571,111.86440677966102,19.42857142857143,112.88135593220339,19.42857142857143C113.89830508474576,19.42857142857143,114.91525423728814,17.142857142857146,115.9322033898305,17.142857142857146C116.94915254237289,17.142857142857146,117.96610169491525,17.142857142857146,118.98305084745763,17.142857142857146C120,17.142857142857146,121.01694915254237,14.857142857142858,122.03389830508473,14.857142857142858C123.05084745762711,14.857142857142858,124.0677966101695,17.142857142857146,125.08474576271188,17.142857142857146C126.10169491525424,17.142857142857146,127.11864406779662,16,128.135593220339,16C129.15254237288136,16,130.16949152542372,18.28571428571429,131.1864406779661,18.28571428571429C132.20338983050846,18.28571428571429,133.22033898305085,14.857142857142858,134.23728813559322,14.857142857142858C135.25423728813558,14.857142857142858,136.27118644067798,16,137.28813559322035,16C138.3050847457627,16,139.3220338983051,11.428571428571427,140.33898305084747,11.428571428571427C141.35593220338984,11.428571428571427,142.3728813559322,13.714285714285715,143.38983050847457,13.714285714285715C144.40677966101694,13.714285714285715,145.42372881355934,13.714285714285715,146.4406779661017,13.714285714285715C147.45762711864407,13.714285714285715,148.47457627118644,14.476190476190478,149.4915254237288,14.857142857142858C150.50847457627117,15.23809523809524,151.52542372881356,15.238095238095239,152.54237288135593,16C153.5593220338983,16.761904761904763,154.5762711864407,19.8095238095238,155.59322033898306,20.57142857142857C156.61016949152543,21.333333333333332,157.6271186440678,20.95238095238096,158.64406779661016,21.714285714285715C159.66101694915253,22.476190476190478,160.67796610169492,25.142857142857142,161.6949152542373,25.142857142857142C162.71186440677965,25.142857142857142,163.72881355932205,24,164.74576271186442,24C165.76271186440678,24,166.77966101694915,26.285714285714285,167.79661016949152,26.285714285714285C168.81355932203388,26.285714285714285,169.83050847457628,26.285714285714285,170.84745762711864,26.285714285714285C171.864406779661,26.285714285714285,172.8813559322034,27.42857142857143,173.89830508474577,27.42857142857143C174.91525423728814,27.42857142857143,175.93220338983053,24.761904761904763,176.9491525423729,24C177.96610169491527,23.238095238095244,178.98305084745763,23.04761904761905,180,22.857142857142854"></path><path class="axis-ceiling" stroke-width="1" stroke="black" fill="none" d="M175,0L180,0"></path><text class="axis-ceiling-label" font-family="sans-serif" text-anchor="end" font-size="10px" x="170" y="2.5">35</text></g></svg>