<svg xmlns="http://www.w3.org/2000/svg" viewBox="0 0 180 60"><g transform="translate(0,20)"><path class="area" fill="rgba(0, 0, 0, 0.2)" d="M0,23.34C1.0169491525423728,23.26,2.0338983050847457,23.18,3.0508474576271185,23.1C4.067796610169491,23.020000000000003,5.084745762711864,22.936666666666667,6.101694915254237,22.86C7.11864406779661,22.78333333333333,8.135593220338983,22.713333333333335,9.152542372881356,22.64C10.169491525423728,22.566666666666666,11.186440677966102,22.486666666666668,12.203389830508474,22.42C13.220338983050846,22.353333333333335,14.23728813559322,22.296666666666667,15.254237288135592,22.240000000000002C16.271186440677965,22.183333333333334,17.28813559322034,22.12,18.305084745762713,22.080000000000002C19.322033898305087,22.040000000000003,20.338983050847457,22.026666666666667,21.35593220338983,22C22.372881355932204,21.973333333333333,23.389830508474574,21.94666666666667,24.406779661016948,21.92C25.423728813559322,21.893333333333334,26.440677966101696,21.863333333333337,27.45762711864407,21.840000000000003C28.47457627118644,21.81666666666667,29.491525423728813,21.80666666666667,30.508474576271183,21.78C31.525423728813557,21.753333333333334,32.54237288135593,21.72,33.559322033898304,21.68C34.57627118644068,21.64,35.59322033898305,21.59,36.610169491525426,21.54C37.6271186440678,21.49,38.644067796610166,21.44333333333333,39.66101694915254,21.38C40.67796610169491,21.316666666666666,41.69491525423729,21.240000000000002,42.71186440677966,21.16C43.728813559322035,21.080000000000002,44.7457627118644,21.013333333333332,45.762711864406775,20.9C46.77966101694915,20.786666666666665,47.79661016949152,20.62,48.813559322033896,20.48C49.83050847457627,20.34,50.847457627118644,20.193333333333335,51.86440677966102,20.060000000000002C52.88135593220339,19.92666666666667,53.898305084745765,19.803333333333335,54.91525423728814,19.68C55.93220338983051,19.556666666666665,56.94915254237288,19.456666666666667,57.96610169491525,19.32C58.983050847457626,19.183333333333334,59.99999999999999,19.006666666666668,61.01694915254237,18.86C62.03389830508474,18.71333333333333,63.05084745762712,18.59,64.0677966101695,18.439999999999998C65.08474576271186,18.29,66.10169491525424,18.10333333333333,67.11864406779661,17.959999999999997C68.13559322033899,17.816666666666663,69.15254237288136,17.71333333333333,70.16949152542374,17.58C71.1864406779661,17.446666666666665,72.20338983050848,17.29666666666667,73.22033898305085,17.160000000000004C74.23728813559322,17.023333333333337,75.2542372881356,16.903333333333336,76.27118644067797,16.76C77.28813559322033,16.616666666666667,78.30508474576271,16.44333333333333,79.32203389830508,16.299999999999997C80.33898305084746,16.156666666666663,81.35593220338983,16.04,82.37288135593221,15.899999999999999C83.38983050847457,15.759999999999998,84.40677966101696,15.596666666666664,85.42372881355932,15.459999999999997C86.4406779661017,15.32333333333333,87.45762711864407,15.216666666666667,88.47457627118645,15.08C89.49152542372882,14.943333333333335,90.50847457627118,14.783333333333333,91.52542372881355,14.64C92.54237288135593,14.496666666666666,93.55932203389831,14.373333333333337,94.57627118644069,14.220000000000002C95.59322033898306,14.06666666666667,96.61016949152543,13.879999999999999,97.62711864406779,13.719999999999999C98.64406779661016,13.559999999999999,99.66101694915254,13.416666666666668,100.6779661016949,13.260000000000002C101.69491525423729,13.103333333333335,102.71186440677965,12.933333333333335,103.72881355932203,12.780000000000001C104.7457627118644,12.626666666666669,105.76271186440678,12.483333333333333,106.77966101694915,12.34C107.79661016949153,12.196666666666665,108.8135593220339,12.05,109.83050847457628,11.920000000000002C110.84745762711864,11.790000000000003,111.86440677966102,11.673333333333336,112.88135593220339,11.560000000000002C113.89830508474576,11.446666666666669,114.91525423728814,11.340000000000002,115.9322033898305,11.240000000000002C116.94915254237289,11.140000000000002,117.96610169491525,11.056666666666668,118.98305084745763,10.96C120,10.863333333333333,121.01694915254237,10.749999999999998,122.03389830508473,10.659999999999998C123.05084745762711,10.569999999999997,124.0677966101695,10.499999999999998,125.08474576271188,10.419999999999998C126.10169491525424,10.339999999999998,127.11864406779662,10.259999999999998,128.135593220339,10.179999999999998C129.15254237288136,10.099999999999998,130.16949152542372,10.026666666666667,131.1864406779661,9.940000000000001C132.20338983050846,9.853333333333335,133.22033898305085,9.75666666666667,134.23728813559322,9.660000000000002C135.25423728813558,9.563333333333334,136.27118644067798,9.456666666666667,137.28813559322035,9.36C138.3050847457627,9.263333333333332,139.3220338983051,9.176666666666666,140.33898305084747,9.079999999999998C141.35593220338984,8.983333333333333,142.3728813559322,8.88,143.38983050847457,8.780000000000001C144.40677966101694,8.680000000000001,145.42372881355934,8.586666666666666,146.4406779661017,8.479999999999999C147.45762711864407,8.373333333333333,148.47457627118644,8.253333333333334,149.4915254237288,8.14C150.50847457627117,8.026666666666667,151.52542372881356,7.9033333333333315,152.54237288135593,7.799999999999998C153.5593220338983,7.6966666666666645,154.5762711864407,7.619999999999997,155.59322033898306,7.519999999999998C156.61016949152543,7.419999999999999,157.6271186440678,7.310000000000001,158.64406779661016,7.200000000000002C159.66101694915253,7.090000000000002,160.67796610169492,6.976666666666667,161.6949152542373,6.859999999999999C162.71186440677965,6.743333333333332,163.72881355932205,6.633333333333333,164.74576271186442,6.499999999999999C165.76271186440678,6.366666666666666,166.77966101694915,6.216666666666664,167.79661016949152,6.059999999999999C168.81355932203388,5.9033333333333315,169.83050847457628,5.7266666666666675,170.84745762711864,5.5600000000000005C171.864406779661,5.3933333333333335,172.8813559322034,5.236666666666665,173.89830508474577,5.059999999999998C174.91525423728814,4.883333333333331,175.93220338983053,4.686666666666669,176.9491525423729,4.500000000000002C177.96610169491527,4.313333333333336,178.98305084745763,4.126666666666669,180,3.9400000000000013L180,40C178.98305084745763,40,177.96610169491527,40,176.9491525423729,40C175.93220338983053,40,174.91525423728814,40,173.89830508474577,40C172.8813559322034,40,171.864406779661,40,170.84745762711864,40C169.83050847457628,40,168.81355932203388,40,167.79661016949152,40C166.77966101694915,40,165.76271186440678,40,164.74576271186442,40C163.72881355932205,40,162.71186440677965,40,161.6949152542373,40C160.67796610169492,40,159.66101694915253,40,158.64406779661016,40C157.6271186440678,40,156.61016949152543,40,155.59322033898306,40C154.5762711864407,40,153.5593220338983,40,152.54237288135593,40C151.52542372881356,40,150.50847457627117,40,149.4915254237288,40C148.47457627118644,40,147.45762711864407,40,146.4406779661017,40C145.42372881355934,40,144.40677966101694,40,143.38983050847457,40C142.3728813559322,40,141.35593220338984,40,140.33898305084747,40C139.3220338983051,40,138.3050847457627,40,137.28813559322035,40C136.27118644067798,40,135.25423728813558,40,134.23728813559322,40C133.22033898305085,40,132.20338983050846,40,131.1864406779661,40C130.16949152542372,40,129.15254237288136,40,128.135593220339,40C127.11864406779662,40,126.10169491525424,40,125.08474576271188,40C124.0677966101695,40,123.05084745762711,40,122.03389830508473,40C121.01694915254237,40,120,40,118.98305084745763,40C117.96610169491525,40,116.94915254237289,40,115.9322033898305,40C114.91525423728814,40,113.89830508474576,40,112.88135593220339,40C111.86440677966102,40,110.84745762711864,40,109.83050847457628,40C108.8135593220339,40,107.79661016949153,40,106.77966101694915,40C105.76271186440678,40,104.7457627118644,40,103.72881355932203,40C102.71186440677965,40,101.69491525423729,40,100.6779661016949,40C99.66101694915254,40,98.64406779661016,40,97.62711864406779,40C96.61016949152543,40,95.59322033898306,40,94.57627118644069,40C93.55932203389831,40,92.54237288135593,40,91.52542372881355,40C90.50847457627118,40,89.49152542372882,40,88.47457627118645,40C87.45762711864407,40,86.4406779661017,40,85.42372881355932,40C84.40677966101696,40,83.38983050847457,40,82.37288135593221,40C81.35593220338983,40,80.33898305084746,40,79.32203389830508,40C78.30508474576271,40,77.28813559322033,40,76.27118644067797,40C75.2542372881356,40,74.23728813559322,40,73.22033898305085,40C72.20338983050848,40,71.1864406779661,40,70.16949152542374,40C69.15254237288136,40,68.13559322033899,40,67.11864406779661,40C66.10169491525424,40,65.08474576271186,40,64.0677966101695,40C63.05084745762712,40,62.03389830508474,40,61.01694915254237,40C59.99999999999999,40,58.983050847457626,40,57.96610169491525,40C56.94915254237288,40,55.93220338983051,40,54.91525423728814,40C53.898305084745765,40,52.88135593220339,40,51.86440677966102,40C50.847457627118644,40,49.83050847457627,40,48.813559322033896,40C47.79661016949152,40,46.77966101694915,40,45.762711864406775,40C44.7457627118644,40,43.728813559322035,40,42.71186440677966,40C41.69491525423729,40,40.67796610169491,40,39.66101694915254,40C38.644067796610166,40,37.6271186440678,40,36.610169491525426,40C35.59322033898305,40,34.57627118644068,40,33.559322033898304,40C32.54237288135593,40,31.525423728813557,40,30.508474576271183,40C29.491525423728813,40,28.47457627118644,40,27.45762711864407,40C26.440677966101696,40,25.423728813559322,40,24.406779661016948,40C23.389830508474574,40,22.372881355932204,40,21.35593220338983,40C20.338983050847457,40,19.322033898305087,40,18.305084745762713,40C17.28813559322034,40,16.271186440677965,40,15.254237288135592,40C14.23728813559322,40,13.220338983050846,40,12.203389830508474,40C11.186440677966102,40,10.169491525423728,40,9.152542372881356,40C8.135593220338983,40,7.11864406779661,40,6.101694915254237,40C5.084745762711864,40,4.067796610169491,40,3.0508474576271185,40C2.0338983050847457,40,1.0169491525423728,40,0,40Z"></path><path class="line" stroke="black" fill="none" d="M0,23.34C1.0169491525423728,23.26,2.0338983050847457,23.18,3.0508474576271185,23.1C4.067796610169491,23.020000000000003,5.084745762711864,22.936666666666667,6.101694915254237,22.86C7.11864406779661,22.78333333333333,8.135593220338983,22.713333333333335,9.152542372881356,22.64C10.169491525423728,22.566666666666666,11.186440677966102,22.486666666666668,12.203389830508474,22.42C13.220338983050846,22.353333333333335,14.23728813559322,22.296666666666667,15.254237288135592,22.240000000000002C16.271186440677965,22.183333333333334,17.28813559322034,22.12,18.305084745762713,22.080000000000002C19.322033898305087,22.040000000000003,20.338983050847457,22.026666666666667,21.35593220338983,22C22.372881355932204,21.973333333333333,23.389830508474574,21.94666666666667,24.406779661016948,21.92C25.423728813559322,21.893333333333334,26.440677966101696,21.863333333333337,27.45762711864407,21.840000000000003C28.47457627118644,21.81666666666667,29.491525423728813,21.80666666666667,30.508474576271183,21.78C31.525423728813557,21.753333333333334,32.54237288135593,21.72,33.559322033898304,21.68C34.57627118644068,21.64,35.59322033898305,21.59,36.610169491525426,21.54C37.6271186440678,21.49,38.644067796610166,21.44333333333333,39.66101694915254,21.38C40.67796610169491,21.316666666666666,41.69491525423729,21.240000000000002,42.71186440677966,21.16C43.728813559322035,21.080000000000002,44.7457627118644,21.013333333333332,45.762711864406775,20.9C46.77966101694915,20.786666666666665,47.79661016949152,20.62,48.813559322033896,20.48C49.83050847457627,20.34,50.847457627118644,20.193333333333335,51.86440677966102,20.060000000000002C52.88135593220339,19.92666666666667,53.898305084745765,19.803333333333335,54.91525423728814,19.68C55.93220338983051,19.556666666666665,56.94915254237288,19.456666666666667,57.96610169491525,19.32C58.983050847457626,19.183333333333334,59.99999999999999,19.006666666666668,61.01694915254237,18.86C62.03389830508474,18.71333333333333,63.05084745762712,18.59,64.0677966101695,18.439999999999998C65.08474576271186,18.29,66.10169491525424,18.10333333333333,67.11864406779661,17.959999999999997C68.13559322033899,17.816666666666663,69.15254237288136,17.71333333333333,70.16949152542374,17.58C71.1864406779661,17.446666666666665,72.20338983050848,17.29666666666667,73.22033898305085,17.160000000000004C74.23728813559322,17.023333333333337,75.2542372881356,16.903333333333336,76.27118644067797,16.76C77.28813559322033,16.616666666666667,78.30508474576271,16.44333333333333,79.32203389830508,16.299999999999997C80.33898305084746,16.156666666666663,81.35593220338983,16.04,82.37288135593221,15.899999999999999C83.38983050847457,15.759999999999998,84.40677966101696,15.596666666666664,85.42372881355932,15.459999999999997C86.4406779661017,15.32333333333333,87.45762711864407,15.216666666666667,88.47457627118645,15.08C89.49152542372882,14.943333333333335,90.50847457627118,14.783333333333333,91.52542372881355,14.64C92.54237288135593,14.496666666666666,93.55932203389831,14.373333333333337,94.57627118644069,14.220000000000002C95.59322033898306,14.06666666666667,96.61016949152543,13.879999999999999,97.62711864406779,13.719999999999999C98.64406779661016,13.559999999999999,99.66101694915254,13.416666666666668,100.6779661016949,13.260000000000002C101.69491525423729,13.103333333333335,102.71186440677965,12.933333333333335,103.72881355932203,12.780000000000001C104.7457627118644,12.626666666666669,105.76271186440678,12.483333333333333,106.77966101694915,12.34C107.79661016949153,12.196666666666665,108.8135593220339,12.05,109.83050847457628,11.920000000000002C110.84745762711864,11.790000000000003,111.86440677966102,11.673333333333336,112.88135593220339,11.560000000000002C113.89830508474576,11.446666666666669,114.91525423728814,11.340000000000002,115.9322033898305,11.240000000000002C116.94915254237289,11.140000000000002,117.96610169491525,11.056666666666668,118.98305084745763,10.96C120,10.863333333333333,121.01694915254237,10.749999999999998,122.03389830508473,10.659999999999998C123.05084745762711,10.569999999999997,124.0677966101695,10.499999999999998,125.08474576271188,10.419999999999998C126.10169491525424,10.339999999999998,127.11864406779662,10.259999999999998,128.135593220339,10.179999999999998C129.15254237288136,10.099999999999998,130.16949152542372,10.026666666666667,131.1864406779661,9.940000000000001C132.20338983050846,9.853333333333335,133.22033898305085,9.75666666666667,134.23728813559322,9.660000000000002C135.25423728813558,9.563333333333334,136.27118644067798,9.456666666666667,137.28813559322035,9.36C138.3050847457627,9.263333333333332,139.3220338983051,9.176666666666666,140.33898305084747,9.079999999999998C141.35593220338984,8.983333333333333,142.3728813559322,8.88,143.38983050847457,8.780000000000001C144.40677966101694,8.680000000000001,145.42372881355934,8.586666666666666,146.4406779661017,8.479999999999999C147.45762711864407,8.373333333333333,148.47457627118644,8.253333333333334,149.4915254237288,8.14C150.50847457627117,8.026666666666667,151.52542372881356,7.9033333333333315,152.54237288135593,7.799999999999998C153.5593220338983,7.6966666666666645,154.5762711864407,7.619999999999997,155.59322033898306,7.519999999999998C156.61016949152543,7.419999999999999,157.6271186440678,7.310000000000001,158.64406779661016,7.200000000000002C159.66101694915253,7.090000000000002,160.67796610169492,6.976666666666667,161.6949152542373,6.859999999999999C162.71186440677965,6.743333333333332,163.72881355932205,6.633333333333333,164.74576271186442,6.499999999999999C165.76271186440678,6.366666666666666,166.77966101694915,6.216666666666664,167.79661016949152,6.059999999999999C168.81355932203388,5.9033333333333315,169.83050847457628,5.7266666666666675,170.84745762711864,5.5600000000000005C171.864406779661,5.3933333333333335,172.8813559322034,5.236666666666665,173.89830508474577,5.059999999999998C174.91525423728814,4.883333333333331,175.93220338983053,4.686666666666669,176.9491525423729,4.500000000000002C177.96610169491527,4.313333333333336,178.98305084745763,4.126666666666669,180,3.9400000000000013"></path><path class="axis-ceiling" stroke-width="1" stroke="black" fill="none" d="M175,0L180,0"></path><text class="axis-ceiling-label" font-family="sans-serif" text-anchor="end" font-size="10px" x="170" y="2.5">2000</text></g></svg>