<svg xmlns="http://www.w3.org/2000/svg" viewBox="0 0 180 60"><g transform="translate(0,20)"><path class="area" fill="rgba(0, 0, 0, 0.2)" d="M0,28.86C1.0169491525423728,28.73,2.0338983050847457,28.6,3.0508474576271185,28.360000000000003C4.067796610169491,28.120000000000005,5.084745762711864,27.566666666666674,6.101694915254237,27.42C7.11864406779661,27.27333333333333,8.135593220338983,27.34333333333333,9.152542372881356,27.199999999999996C10.169491525423728,27.05666666666666,11.186440677966102,26.75666666666666,12.203389830508474,26.559999999999995C13.220338983050846,26.36333333333333,14.23728813559322,26.153333333333336,15.254237288135592,26.020000000000003C16.271186440677965,25.88666666666667,17.28813559322034,25.89,18.305084745762713,25.76C19.322033898305087,25.630000000000003,20.338983050847457,25.400000000000002,21.35593220338983,25.240000000000002C22.372881355932204,25.080000000000002,23.389830508474574,24.953333333333333,24.406779661016948,24.8C25.423728813559322,24.64666666666667,26.440677966101696,24.400000000000002,27.45762711864407,24.32C28.47457627118644,24.24,29.491525423728813,24.253333333333334,30.508474576271183,24.2C31.525423728813557,24.146666666666665,32.54237288135593,24.07,33.559322033898304,24C34.57627118644068,23.93,35.59322033898305,23.843333333333334,36.610169491525426,23.78C37.6271186440678,23.71666666666667,38.644067796610166,23.686666666666667,39.66101694915254,23.62C40.67796610169491,23.553333333333335,41.69491525423729,23.45666666666667,42.71186440677966,23.380000000000003C43.728813559322035,23.303333333333335,44.7457627118644,23.219999999999995,45.762711864406775,23.159999999999997C46.77966101694915,23.099999999999994,47.79661016949152,23.11333333333333,48.813559322033896,23.02C49.83050847457627,22.92666666666667,50.847457627118644,22.27333333333333,51.86440677966102,22.259999999999998C52.88135593220339,22.246666666666666,53.898305084745765,22.253333333333334,54.91525423728814,22.240000000000002C55.93220338983051,22.22666666666667,56.94915254237288,22.173333333333336,57.96610169491525,22.14C58.983050847457626,22.106666666666666,59.99999999999999,22.08,61.01694915254237,22.04C62.03389830508474,22,63.05084745762712,21.913333333333334,64.0677966101695,21.9C65.08474576271186,21.886666666666663,66.10169491525424,21.886666666666663,67.11864406779661,21.879999999999995C68.13559322033899,21.873333333333328,69.15254237288136,21.87333333333333,70.16949152542374,21.86C71.1864406779661,21.846666666666668,72.20338983050848,21.793333333333337,73.22033898305085,21.76C74.23728813559322,21.726666666666667,75.2542372881356,21.673333333333336,76.27118644067797,21.66C77.28813559322033,21.646666666666665,78.30508474576271,21.653333333333332,79.32203389830508,21.639999999999997C80.33898305084746,21.62666666666666,81.35593220338983,21.606666666666666,82.37288135593221,21.54C83.38983050847457,21.473333333333333,84.40677966101696,21.28,85.42372881355932,21.180000000000003C86.4406779661017,21.080000000000005,87.45762711864407,21.00666666666667,88.47457627118645,20.940000000000005C89.49152542372882,20.87333333333334,90.50847457627118,20.88666666666667,91.52542372881355,20.78C92.54237288135593,20.673333333333332,93.55932203389831,20.290000000000003,94.57627118644069,20.14C95.59322033898306,19.990000000000002,96.61016949152543,20.053333333333335,97.62711864406779,19.88C98.64406779661016,19.706666666666663,99.66101694915254,18.820000000000004,100.6779661016949,18.740000000000002C101.69491525423729,18.66,102.71186440677965,18.66,103.72881355932203,18.62C104.7457627118644,18.580000000000002,105.76271186440678,18.543333333333333,106.77966101694915,18.5C107.79661016949153,18.456666666666667,108.8135593220339,18.453333333333333,109.83050847457628,18.36C110.84745762711864,18.266666666666666,111.86440677966102,17.746666666666666,112.88135593220339,17.56C113.89830508474576,17.37333333333333,114.91525423728814,17.416666666666668,115.9322033898305,17.240000000000002C116.94915254237289,17.063333333333336,117.96610169491525,16.69,118.98305084745763,16.5C120,16.310000000000002,121.01694915254237,16.23333333333333,122.03389830508473,16.099999999999998C123.05084745762711,15.966666666666663,124.0677966101695,15.766666666666666,125.08474576271188,15.7C126.10169491525424,15.633333333333335,127.11864406779662,15.666666666666666,128.135593220339,15.600000000000001C129.15254237288136,15.533333333333337,130.16949152542372,15.303333333333333,131.1864406779661,15.16C132.20338983050846,15.016666666666666,133.22033898305085,14.886666666666668,134.23728813559322,14.740000000000002C135.25423728813558,14.593333333333335,136.27118644067798,14.43,137.28813559322035,14.28C138.3050847457627,14.129999999999999,139.3220338983051,14.05,140.33898305084747,13.84C141.35593220338984,13.63,142.3728813559322,13.193333333333332,143.38983050847457,13.02C144.40677966101694,12.846666666666666,145.42372881355934,12.913333333333332,146.4406779661017,12.759999999999998C147.45762711864407,12.606666666666666,148.47457627118644,12.253333333333332,149.4915254237288,12.1C150.50847457627117,11.946666666666665,151.52542372881356,11.953333333333335,152.54237288135593,11.840000000000002C153.5593220338983,11.726666666666668,154.5762711864407,11.533333333333331,155.59322033898306,11.419999999999998C156.61016949152543,11.306666666666665,157.6271186440678,11.25,158.64406779661016,11.16C159.66101694915253,11.07,160.67796610169492,10.97,161.6949152542373,10.88C162.71186440677965,10.790000000000001,163.72881355932205,10.696666666666665,164.74576271186442,10.619999999999997C165.76271186440678,10.543333333333331,166.77966101694915,10.49333333333333,167.79661016949152,10.419999999999998C168.81355932203388,10.346666666666664,169.83050847457628,10.289999999999997,170.84745762711864,10.179999999999998C171.864406779661,10.069999999999999,172.8813559322034,9.826666666666664,173.89830508474577,9.76C174.91525423728814,9.693333333333335,175.93220338983053,9.706666666666669,176.9491525423729,9.660000000000002C177.96610169491527,9.613333333333335,178.98305084745763,9.546666666666669,180,9.48L180,40C178.98305084745763,40,177.96610169491527,40,176.9491525423729,40C175.93220338983053,40,174.91525423728814,40,173.89830508474577,40C172.8813559322034,40,171.864406779661,40,170.84745762711864,40C169.83050847457628,40,168.81355932203388,40,167.79661016949152,40C166.77966101694915,40,165.76271186440678,40,164.74576271186442,40C163.72881355932205,40,162.71186440677965,40,161.6949152542373,40C160.67796610169492,40,159.66101694915253,40,158.64406779661016,40C157.6271186440678,40,156.61016949152543,40,155.59322033898306,40C154.5762711864407,40,153.5593220338983,40,152.54237288135593,40C151.52542372881356,40,150.50847457627117,40,149.4915254237288,40C148.47457627118644,40,147.45762711864407,40,146.4406779661017,40C145.42372881355934,40,144.40677966101694,40,143.38983050847457,40C142.3728813559322,40,141.35593220338984,40,140.33898305084747,40C139.3220338983051,40,138.3050847457627,40,137.28813559322035,40C136.27118644067798,40,135.25423728813558,40,134.23728813559322,40C133.22033898305085,40,132.20338983050846,40,131.1864406779661,40C130.16949152542372,40,129.15254237288136,40,128.135593220339,40C127.11864406779662,40,126.10169491525424,40,125.08474576271188,40C124.0677966101695,40,123.05084745762711,40,122.03389830508473,40C121.01694915254237,40,120,40,118.98305084745763,40C117.96610169491525,40,116.94915254237289,40,115.9322033898305,40C114.91525423728814,40,113.89830508474576,40,112.88135593220339,40C111.86440677966102,40,110.84745762711864,40,109.83050847457628,40C108.8135593220339,40,107.79661016949153,40,106.77966101694915,40C105.76271186440678,40,104.7457627118644,40,103.72881355932203,40C102.71186440677965,40,101.69491525423729,40,100.6779661016949,40C99.66101694915254,40,98.64406779661016,40,97.62711864406779,40C96.61016949152543,40,95.59322033898306,40,94.57627118644069,40C93.55932203389831,40,92.54237288135593,40,91.52542372881355,40C90.50847457627118,40,89.49152542372882,40,88.47457627118645,40C87.45762711864407,40,86.4406779661017,40,85.42372881355932,40C84.40677966101696,40,83.38983050847457,40,82.37288135593221,40C81.35593220338983,40,80.33898305084746,40,79.32203389830508,40C78.30508474576271,40,77.28813559322033,40,76.27118644067797,40C75.2542372881356,40,74.23728813559322,40,73.22033898305085,40C72.20338983050848,40,71.1864406779661,40,70.16949152542374,40C69.15254237288136,40,68.13559322033899,40,67.11864406779661,40C66.10169491525424,40,65.08474576271186,40,64.0677966101695,40C63.05084745762712,40,62.03389830508474,40,61.01694915254237,40C59.99999999999999,40,58.983050847457626,40,57.96610169491525,40C56.94915254237288,40,55.93220338983051,40,54.91525423728814,40C53.898305084745765,40,52.88135593220339,40,51.86440677966102,40C50.847457627118644,40,49.83050847457627,40,48.813559322033896,40C47.79661016949152,40,46.77966101694915,40,45.762711864406775,40C44.7457627118644,40,43.728813559322035,40,42.71186440677966,40C41.69491525423729,40,40.67796610169491,40,39.66101694915254,40C38.644067796610166,40,37.6271186440678,40,36.610169491525426,40C35.59322033898305,40,34.57627118644068,40,33.559322033898304,40C32.54237288135593,40,31.525423728813557,40,30.508474576271183,40C29.491525423728813,40,28.47457627118644,40,27.45762711864407,40C26.440677966101696,40,25.423728813559322,40,24.406779661016948,40C23.389830508474574,40,22.372881355932204,40,21.35593220338983,40C20.338983050847457,40,19.322033898305087,40,18.305084745762713,40C17.28813559322034,40,16.271186440677965,40,15.254237288135592,40C14.23728813559322,40,13.220338983050846,40,12.203389830508474,40C11.186440677966102,40,10.169491525423728,40,9.152542372881356,40C8.135593220338983,40,7.11864406779661,40,6.101694915254237,40C5.084745762711864,40,4.067796610169491,40,3.0508474576271185,40C2.0338983050847457,40,1.0169491525423728,40,0,40Z"></path><path class="line" stroke="black" fill="none" d="M0,28.86C1.0169491525423728,28.73,2.0338983050847457,28.6,3.0508474576271185,28.360000000000003C4.067796610169491,28.120000000000005,5.084745762711864,27.566666666666674,6.101694915254237,27.42C7.11864406779661,27.27333333333333,8.135593220338983,27.34333333333333,9.152542372881356,27.199999999999996C10.169491525423728,27.05666666666666,11.186440677966102,26.75666666666666,12.203389830508474,26.559999999999995C13.220338983050846,26.36333333333333,14.23728813559322,26.153333333333336,15.254237288135592,26.020000000000003C16.271186440677965,25.88666666666667,17.28813559322034,25.89,18.305084745762713,25.76C19.322033898305087,25.630000000000003,20.338983050847457,25.400000000000002,21.35593220338983,25.240000000000002C22.372881355932204,25.080000000000002,23.389830508474574,24.953333333333333,24.406779661016948,24.8C25.423728813559322,24.64666666666667,26.440677966101696,24.400000000000002,27.45762711864407,24.32C28.47457627118644,24.24,29.491525423728813,24.253333333333334,30.508474576271183,24.2C31.525423728813557,24.146666666666665,32.54237288135593,24.07,33.559322033898304,24C34.57627118644068,23.93,35.59322033898305,23.843333333333334,36.610169491525426,23.78C37.6271186440678,23.71666666666667,38.644067796610166,23.686666666666667,39.66101694915254,23.62C40.67796610169491,23.553333333333335,41.69491525423729,23.45666666666667,42.71186440677966,23.380000000000003C43.728813559322035,23.303333333333335,44.7457627118644,23.219999999999995,45.762711864406775,23.159999999999997C46.77966101694915,23.099999999999994,47.79661016949152,23.11333333333333,48.813559322033896,23.02C49.83050847457627,22.92666666666667,50.847457627118644,22.27333333333333,51.86440677966102,22.259999999999998C52.88135593220339,22.246666666666666,53.898305084745765,22.253333333333334,54.91525423728814,22.240000000000002C55.93220338983051,22.22666666666667,56.94915254237288,22.173333333333336,57.96610169491525,22.14C58.983050847457626,22.106666666666666,59.99999999999999,22.08,61.01694915254237,22.04C62.03389830508474,22,63.05084745762712,21.913333333333334,64.0677966101695,21.9C65.08474576271186,21.886666666666663,66.10169491525424,21.886666666666663,67.11864406779661,21.879999999999995C68.13559322033899,21.873333333333328,69.15254237288136,21.87333333333333,70.16949152542374,21.86C71.1864406779661,21.846666666666668,72.20338983050848,21.793333333333337,73.22033898305085,21.76C74.23728813559322,21.726666666666667,75.2542372881356,21.673333333333336,76.27118644067797,21.66C77.28813559322033,21.646666666666665,78.30508474576271,21.653333333333332,79.32203389830508,21.639999999999997C80.33898305084746,21.62666666666666,81.35593220338983,21.606666666666666,82.37288135593221,21.54C83.38983050847457,21.473333333333333,84.40677966101696,21.28,85.42372881355932,21.180000000000003C86.4406779661017,21.080000000000005,87.45762711864407,21.00666666666667,88.47457627118645,20.940000000000005C89.49152542372882,20.87333333333334,90.50847457627118,20.88666666666667,91.52542372881355,20.78C92.54237288135593,20.673333333333332,93.55932203389831,20.290000000000003,94.57627118644069,20.14C95.59322033898306,19.990000000000002,96.61016949152543,20.053333333333335,97.62711864406779,19.88C98.64406779661016,19.706666666666663,99.66101694915254,18.820000000000004,100.6779661016949,18.740000000000002C101.69491525423729,18.66,102.71186440677965,18.66,103.72881355932203,18.62C104.7457627118644,18.580000000000002,105.76271186440678,18.543333333333333,106.77966101694915,18.5C107.79661016949153,18.456666666666667,108.8135593220339,18.453333333333333,109.83050847457628,18.36C110.84745762711864,18.266666666666666,111.86440677966102,17.746666666666666,112.88135593220339,17.56C113.89830508474576,17.37333333333333,114.91525423728814,17.416666666666668,115.9322033898305,17.240000000000002C116.94915254237289,17.063333333333336,117.96610169491525,16.69,118.98305084745763,16.5C120,16.310000000000002,121.01694915254237,16.23333333333333,122.03389830508473,16.099999999999998C123.05084745762711,15.966666666666663,124.0677966101695,15.766666666666666,125.08474576271188,15.7C126.10169491525424,15.633333333333335,127.11864406779662,15.666666666666666,128.135593220339,15.600000000000001C129.15254237288136,15.533333333333337,130.16949152542372,15.303333333333333,131.1864406779661,15.16C132.20338983050846,15.016666666666666,133.22033898305085,14.886666666666668,134.23728813559322,14.740000000000002C135.25423728813558,14.593333333333335,136.27118644067798,14.43,137.28813559322035,14.28C138.3050847457627,14.129999999999999,139.3220338983051,14.05,140.33898305084747,13.84C141.35593220338984,13.63,142.3728813559322,13.193333333333332,143.38983050847457,13.02C144.40677966101694,12.846666666666666,145.42372881355934,12.913333333333332,146.4406779661017,12.759999999999998C147.45762711864407,12.606666666666666,148.47457627118644,12.253333333333332,149.4915254237288,12.1C150.50847457627117,11.946666666666665,151.52542372881356,11.953333333333335,152.54237288135593,11.840000000000002C153.5593220338983,11.726666666666668,154.5762711864407,11.533333333333331,155.59322033898306,11.419999999999998C156.61016949152543,11.306666666666665,157.6271186440678,11.25,158.64406779661016,11.16C159.66101694915253,11.07,160.67796610169492,10.97,161.6949152542373,10.88C162.71186440677965,10.790000000000001,163.72881355932205,10.696666666666665,164.74576271186442,10.619999999999997C165.76271186440678,10.543333333333331,166.77966101694915,10.49333333333333,167.79661016949152,10.419999999999998C168.81355932203388,10.346666666666664,169.83050847457628,10.289999999999997,170.84745762711864,10.179999999999998C171.864406779661,10.069999999999999,172.8813559322034,9.826666666666664,173.89830508474577,9.76C174.91525423728814,9.693333333333335,175.93220338983053,9.706666666666669,176.9491525423729,9.660000000000002C177.96610169491527,9.613333333333335,178.98305084745763,9.546666666666669,180,9.48"></path><path class="axis-ceiling" stroke-width="1" stroke="black" fill="none" d="M175,0L180,0"></path><text class="axis-ceiling-label" font-family="sans-serif" text-anchor="end" font-size="10px" x="170" y="2.5">2000</text></g></svg>