<svg xmlns="http://www.w3.org/2000/svg" viewBox="0 0 180 60"><g transform="translate(0,20)"><path class="area" fill="rgba(0, 0, 0, 0.2)" d="M0,33.44C1.0169491525423728,33.418,2.0338983050847457,33.396,3.0508474576271185,33.372C4.067796610169491,33.348,5.084745762711864,33.32333333333333,6.101694915254237,33.296C7.11864406779661,33.26866666666667,8.135593220338983,33.239333333333335,9.152542372881356,33.208C10.169491525423728,33.17666666666666,11.186440677966102,33.14133333333333,12.203389830508474,33.108C13.220338983050846,33.074666666666666,14.23728813559322,33.04333333333333,15.254237288135592,33.007999999999996C16.271186440677965,32.97266666666666,17.28813559322034,32.934,18.305084745762713,32.896C19.322033898305087,32.858000000000004,20.338983050847457,32.82066666666667,21.35593220338983,32.78C22.372881355932204,32.739333333333335,23.389830508474574,32.69733333333333,24.406779661016948,32.652C25.423728813559322,32.60666666666667,26.440677966101696,32.55533333333333,27.45762711864407,32.507999999999996C28.47457627118644,32.46066666666666,29.491525423728813,32.416000000000004,30.508474576271183,32.368C31.525423728813557,32.32,32.54237288135593,32.272666666666666,33.559322033898304,32.22C34.57627118644068,32.16733333333333,35.59322033898305,32.11,36.610169491525426,32.052C37.6271186440678,31.994,38.644067796610166,31.932,39.66101694915254,31.872C40.67796610169491,31.812,41.69491525423729,31.752666666666666,42.71186440677966,31.692C43.728813559322035,31.631333333333334,44.7457627118644,31.56666666666667,45.762711864406775,31.508000000000003C46.77966101694915,31.449333333333335,47.79661016949152,31.399333333333335,48.813559322033896,31.34C49.83050847457627,31.280666666666665,50.847457627118644,31.211999999999996,51.86440677966102,31.151999999999997C52.88135593220339,31.092,53.898305084745765,31.036666666666665,54.91525423728814,30.979999999999997C55.93220338983051,30.923333333333332,56.94915254237288,30.865333333333332,57.96610169491525,30.811999999999998C58.983050847457626,30.758666666666663,59.99999999999999,30.711999999999996,61.01694915254237,30.659999999999997C62.03389830508474,30.607999999999997,63.05084745762712,30.555333333333333,64.0677966101695,30.5C65.08474576271186,30.444666666666667,66.10169491525424,30.384666666666664,67.11864406779661,30.328C68.13559322033899,30.27133333333333,69.15254237288136,30.214666666666666,70.16949152542374,30.16C71.1864406779661,30.105333333333334,72.20338983050848,30.056666666666665,73.22033898305085,30C74.23728813559322,29.943333333333335,75.2542372881356,29.878666666666668,76.27118644067797,29.82C77.28813559322033,29.761333333333333,78.30508474576271,29.70666666666667,79.32203389830508,29.648000000000003C80.33898305084746,29.589333333333336,81.35593220338983,29.527333333333335,82.37288135593221,29.468C83.38983050847457,29.408666666666665,84.40677966101696,29.348,85.42372881355932,29.291999999999998C86.4406779661017,29.235999999999997,87.45762711864407,29.185333333333332,88.47457627118645,29.131999999999998C89.49152542372882,29.078666666666663,90.50847457627118,29.024666666666665,91.52542372881355,28.971999999999998C92.54237288135593,28.91933333333333,93.55932203389831,28.866666666666664,94.57627118644069,28.815999999999995C95.59322033898306,28.76533333333333,96.61016949152543,28.718666666666664,97.62711864406779,28.668C98.64406779661016,28.617333333333335,99.66101694915254,28.564666666666668,100.6779661016949,28.512C101.69491525423729,28.459333333333333,102.71186440677965,28.405333333333335,103.72881355932203,28.352C104.7457627118644,28.298666666666666,105.76271186440678,28.249333333333333,106.77966101694915,28.192C107.79661016949153,28.134666666666664,108.8135593220339,28.066666666666663,109.83050847457628,28.007999999999996C110.84745762711864,27.94933333333333,111.86440677966102,27.898666666666664,112.88135593220339,27.839999999999996C113.89830508474576,27.78133333333333,114.91525423728814,27.722666666666665,115.9322033898305,27.656C116.94915254237289,27.589333333333332,117.96610169491525,27.511999999999997,118.98305084745763,27.439999999999998C120,27.368,121.01694915254237,27.302666666666667,122.03389830508473,27.224C123.05084745762711,27.145333333333333,124.0677966101695,27.05666666666667,125.08474576271188,26.968C126.10169491525424,26.879333333333335,127.11864406779662,26.78666666666667,128.135593220339,26.692C129.15254237288136,26.597333333333335,130.16949152542372,26.512666666666664,131.1864406779661,26.4C132.20338983050846,26.287333333333333,133.22033898305085,26.15,134.23728813559322,26.016C135.25423728813558,25.881999999999998,136.27118644067798,25.736666666666668,137.28813559322035,25.596C138.3050847457627,25.455333333333332,139.3220338983051,25.322666666666663,140.33898305084747,25.171999999999997C141.35593220338984,25.02133333333333,142.3728813559322,24.854,143.38983050847457,24.692C144.40677966101694,24.53,145.42372881355934,24.371333333333332,146.4406779661017,24.2C147.45762711864407,24.028666666666666,148.47457627118644,23.848,149.4915254237288,23.664C150.50847457627117,23.48,151.52542372881356,23.283333333333335,152.54237288135593,23.096C153.5593220338983,22.908666666666665,154.5762711864407,22.729333333333333,155.59322033898306,22.54C156.61016949152543,22.350666666666665,157.6271186440678,22.161333333333328,158.64406779661016,21.959999999999997C159.66101694915253,21.758666666666663,160.67796610169492,21.549333333333333,161.6949152542373,21.332C162.71186440677965,21.11466666666667,163.72881355932205,20.89,164.74576271186442,20.656C165.76271186440678,20.422,166.77966101694915,20.181999999999995,167.79661016949152,19.927999999999997C168.81355932203388,19.673999999999996,169.83050847457628,19.423333333333332,170.84745762711864,19.131999999999998C171.864406779661,18.840666666666664,172.8813559322034,18.518,173.89830508474577,18.18C174.91525423728814,17.842,175.93220338983053,17.476666666666667,176.9491525423729,17.104C177.96610169491527,16.731333333333335,178.98305084745763,16.337666666666667,180,15.943999999999999L180,40C178.98305084745763,40,177.96610169491527,40,176.9491525423729,40C175.93220338983053,40,174.91525423728814,40,173.89830508474577,40C172.8813559322034,40,171.864406779661,40,170.84745762711864,40C169.83050847457628,40,168.81355932203388,40,167.79661016949152,40C166.77966101694915,40,165.76271186440678,40,164.74576271186442,40C163.72881355932205,40,162.71186440677965,40,161.6949152542373,40C160.67796610169492,40,159.66101694915253,40,158.64406779661016,40C157.6271186440678,40,156.61016949152543,40,155.59322033898306,40C154.5762711864407,40,153.5593220338983,40,152.54237288135593,40C151.52542372881356,40,150.50847457627117,40,149.4915254237288,40C148.47457627118644,40,147.45762711864407,40,146.4406779661017,40C145.42372881355934,40,144.40677966101694,40,143.38983050847457,40C142.3728813559322,40,141.35593220338984,40,140.33898305084747,40C139.3220338983051,40,138.3050847457627,40,137.28813559322035,40C136.27118644067798,40,135.25423728813558,40,134.23728813559322,40C133.22033898305085,40,132.20338983050846,40,131.1864406779661,40C130.16949152542372,40,129.15254237288136,40,128.135593220339,40C127.11864406779662,40,126.10169491525424,40,125.08474576271188,40C124.0677966101695,40,123.05084745762711,40,122.03389830508473,40C121.01694915254237,40,120,40,118.98305084745763,40C117.96610169491525,40,116.94915254237289,40,115.9322033898305,40C114.91525423728814,40,113.89830508474576,40,112.88135593220339,40C111.86440677966102,40,110.84745762711864,40,109.83050847457628,40C108.8135593220339,40,107.79661016949153,40,106.77966101694915,40C105.76271186440678,40,104.7457627118644,40,103.72881355932203,40C102.71186440677965,40,101.69491525423729,40,100.6779661016949,40C99.66101694915254,40,98.64406779661016,40,97.62711864406779,40C96.61016949152543,40,95.59322033898306,40,94.57627118644069,40C93.55932203389831,40,92.54237288135593,40,91.52542372881355,40C90.50847457627118,40,89.49152542372882,40,88.47457627118645,40C87.45762711864407,40,86.4406779661017,40,85.42372881355932,40C84.40677966101696,40,83.38983050847457,40,82.37288135593221,40C81.35593220338983,40,80.33898305084746,40,79.32203389830508,40C78.30508474576271,40,77.28813559322033,40,76.27118644067797,40C75.2542372881356,40,74.23728813559322,40,73.22033898305085,40C72.20338983050848,40,71.1864406779661,40,70.16949152542374,40C69.15254237288136,40,68.13559322033899,40,67.11864406779661,40C66.10169491525424,40,65.08474576271186,40,64.0677966101695,40C63.05084745762712,40,62.03389830508474,40,61.01694915254237,40C59.99999999999999,40,58.983050847457626,40,57.96610169491525,40C56.94915254237288,40,55.93220338983051,40,54.91525423728814,40C53.898305084745765,40,52.88135593220339,40,51.86440677966102,40C50.847457627118644,40,49.83050847457627,40,48.813559322033896,40C47.79661016949152,40,46.77966101694915,40,45.762711864406775,40C44.7457627118644,40,43.728813559322035,40,42.71186440677966,40C41.69491525423729,40,40.67796610169491,40,39.66101694915254,40C38.644067796610166,40,37.6271186440678,40,36.610169491525426,40C35.59322033898305,40,34.57627118644068,40,33.559322033898304,40C32.54237288135593,40,31.525423728813557,40,30.508474576271183,40C29.491525423728813,40,28.47457627118644,40,27.45762711864407,40C26.440677966101696,40,25.423728813559322,40,24.406779661016948,40C23.389830508474574,40,22.372881355932204,40,21.35593220338983,40C20.338983050847457,40,19.322033898305087,40,18.305084745762713,40C17.28813559322034,40,16.271186440677965,40,15.254237288135592,40C14.23728813559322,40,13.220338983050846,40,12.203389830508474,40C11.186440677966102,40,10.169491525423728,40,9.152542372881356,40C8.135593220338983,40,7.11864406779661,40,6.101694915254237,40C5.084745762711864,40,4.067796610169491,40,3.0508474576271185,40C2.0338983050847457,40,1.0169491525423728,40,0,40Z"></path><path class="line" stroke="black" fill="none" d="M0,33.44C1.0169491525423728,33.418,2.0338983050847457,33.396,3.0508474576271185,33.372C4.067796610169491,33.348,5.084745762711864,33.32333333333333,6.101694915254237,33.296C7.11864406779661,33.26866666666667,8.135593220338983,33.239333333333335,9.152542372881356,33.208C10.169491525423728,33.17666666666666,11.186440677966102,33.14133333333333,12.203389830508474,33.108C13.220338983050846,33.074666666666666,14.23728813559322,33.04333333333333,15.254237288135592,33.007999999999996C16.271186440677965,32.97266666666666,17.28813559322034,32.934,18.305084745762713,32.896C19.322033898305087,32.858000000000004,20.338983050847457,32.82066666666667,21.35593220338983,32.78C22.372881355932204,32.739333333333335,23.389830508474574,32.69733333333333,24.406779661016948,32.652C25.423728813559322,32.60666666666667,26.440677966101696,32.55533333333333,27.45762711864407,32.507999999999996C28.47457627118644,32.46066666666666,29.491525423728813,32.416000000000004,30.508474576271183,32.368C31.525423728813557,32.32,32.54237288135593,32.272666666666666,33.559322033898304,32.22C34.57627118644068,32.16733333333333,35.59322033898305,32.11,36.610169491525426,32.052C37.6271186440678,31.994,38.644067796610166,31.932,39.66101694915254,31.872C40.67796610169491,31.812,41.69491525423729,31.752666666666666,42.71186440677966,31.692C43.728813559322035,31.631333333333334,44.7457627118644,31.56666666666667,45.762711864406775,31.508000000000003C46.77966101694915,31.449333333333335,47.79661016949152,31.399333333333335,48.813559322033896,31.34C49.83050847457627,31.280666666666665,50.847457627118644,31.211999999999996,51.86440677966102,31.151999999999997C52.88135593220339,31.092,53.898305084745765,31.036666666666665,54.91525423728814,30.979999999999997C55.93220338983051,30.923333333333332,56.94915254237288,30.865333333333332,57.96610169491525,30.811999999999998C58.983050847457626,30.758666666666663,59.99999999999999,30.711999999999996,61.01694915254237,30.659999999999997C62.03389830508474,30.607999999999997,63.05084745762712,30.555333333333333,64.0677966101695,30.5C65.08474576271186,30.444666666666667,66.10169491525424,30.384666666666664,67.11864406779661,30.328C68.13559322033899,30.27133333333333,69.15254237288136,30.214666666666666,70.16949152542374,30.16C71.1864406779661,30.105333333333334,72.20338983050848,30.056666666666665,73.22033898305085,30C74.23728813559322,29.943333333333335,75.2542372881356,29.878666666666668,76.27118644067797,29.82C77.28813559322033,29.761333333333333,78.30508474576271,29.70666666666667,79.32203389830508,29.648000000000003C80.33898305084746,29.589333333333336,81.35593220338983,29.527333333333335,82.37288135593221,29.468C83.38983050847457,29.408666666666665,84.40677966101696,29.348,85.42372881355932,29.291999999999998C86.4406779661017,29.235999999999997,87.45762711864407,29.185333333333332,88.47457627118645,29.131999999999998C89.49152542372882,29.078666666666663,90.50847457627118,29.024666666666665,91.52542372881355,28.971999999999998C92.54237288135593,28.91933333333333,93.55932203389831,28.866666666666664,94.57627118644069,28.815999999999995C95.59322033898306,28.76533333333333,96.61016949152543,28.718666666666664,97.62711864406779,28.668C98.64406779661016,28.617333333333335,99.66101694915254,28.564666666666668,100.6779661016949,28.512C101.69491525423729,28.459333333333333,102.71186440677965,28.405333333333335,103.72881355932203,28.352C104.7457627118644,28.298666666666666,105.76271186440678,28.249333333333333,106.77966101694915,28.192C107.79661016949153,28.134666666666664,108.8135593220339,28.066666666666663,109.83050847457628,28.007999999999996C110.84745762711864,27.94933333333333,111.86440677966102,27.898666666666664,112.88135593220339,27.839999999999996C113.89830508474576,27.78133333333333,114.91525423728814,27.722666666666665,115.9322033898305,27.656C116.94915254237289,27.589333333333332,117.96610169491525,27.511999999999997,118.98305084745763,27.439999999999998C120,27.368,121.01694915254237,27.302666666666667,122.03389830508473,27.224C123.05084745762711,27.145333333333333,124.0677966101695,27.05666666666667,125.08474576271188,26.968C126.10169491525424,26.879333333333335,127.11864406779662,26.78666666666667,128.135593220339,26.692C129.15254237288136,26.597333333333335,130.16949152542372,26.512666666666664,131.1864406779661,26.4C132.20338983050846,26.287333333333333,133.22033898305085,26.15,134.23728813559322,26.016C135.25423728813558,25.881999999999998,136.27118644067798,25.736666666666668,137.28813559322035,25.596C138.3050847457627,25.455333333333332,139.3220338983051,25.322666666666663,140.33898305084747,25.171999999999997C141.35593220338984,25.02133333333333,142.3728813559322,24.854,143.38983050847457,24.692C144.40677966101694,24.53,145.42372881355934,24.371333333333332,146.4406779661017,24.2C147.45762711864407,24.028666666666666,148.47457627118644,23.848,149.4915254237288,23.664C150.50847457627117,23.48,151.52542372881356,23.283333333333335,152.54237288135593,23.096C153.5593220338983,22.908666666666665,154.5762711864407,22.729333333333333,155.59322033898306,22.54C156.61016949152543,22.350666666666665,157.6271186440678,22.161333333333328,158.64406779661016,21.959999999999997C159.66101694915253,21.758666666666663,160.67796610169492,21.549333333333333,161.6949152542373,21.332C162.71186440677965,21.11466666666667,163.72881355932205,20.89,164.74576271186442,20.656C165.76271186440678,20.422,166.77966101694915,20.181999999999995,167.79661016949152,19.927999999999997C168.81355932203388,19.673999999999996,169.83050847457628,19.423333333333332,170.84745762711864,19.131999999999998C171.864406779661,18.840666666666664,172.8813559322034,18.518,173.89830508474577,18.18C174.91525423728814,17.842,175.93220338983053,17.476666666666667,176.9491525423729,17.104C177.96610169491527,16.731333333333335,178.98305084745763,16.337666666666667,180,15.943999999999999"></path><path class="axis-ceiling" stroke-width="1" stroke="black" fill="none" d="M175,0L180,0"></path><text class="axis-ceiling-label" font-family="sans-serif" text-anchor="end" font-size="10px" x="170" y="2.5">10000</text></g></svg>