<svg xmlns="http://www.w3.org/2000/svg" viewBox="0 0 180 60"><g transform="translate(0,20)"><path class="area" fill="rgba(0, 0, 0, 0.2)" d="M0,37.714285714285715C0.9375,37.714285714285715,1.875,37.714285714285715,2.8125,37.714285714285715C3.75,37.714285714285715,4.6875,37.714285714285715,5.625,37.714285714285715C9.375,37.714285714285715,13.125,37.714285714285715,16.875,37.714285714285715C18.75,37.714285714285715,20.625,36.57142857142857,22.5,36.57142857142857C23.4375,36.57142857142857,24.375,36.57142857142857,25.3125,36.57142857142857C26.25,36.57142857142857,27.1875,37.714285714285715,28.125,37.714285714285715C29.0625,37.714285714285715,30,37.714285714285715,30.9375,37.714285714285715C31.875,37.714285714285715,32.8125,37.714285714285715,33.75,37.714285714285715C34.6875,37.714285714285715,35.625,37.714285714285715,36.5625,37.714285714285715C38.4375,37.714285714285715,40.3125,37.2063492063492,42.1875,36.57142857142857C43.125,36.25396825396825,44.0625,35.80952380952381,45,35.42857142857143C45.9375,35.04761904761905,46.875,34.85714285714286,47.8125,34.28571428571429C48.75,33.71428571428572,49.6875,32.57142857142857,50.625,32C51.5625,31.428571428571427,52.5,30.857142857142858,53.4375,30.857142857142858C54.375,30.857142857142858,55.3125,30.857142857142858,56.25,30.857142857142858C57.1875,30.857142857142858,58.125,28.571428571428573,59.0625,28.571428571428573C60,28.571428571428573,60.9375,29.333333333333336,61.875,29.714285714285715C62.8125,30.095238095238095,63.75,30.857142857142858,64.6875,30.857142857142858C65.625,30.857142857142858,66.5625,27.80952380952381,67.5,26.285714285714285C68.4375,24.76190476190476,69.375,23.238095238095237,70.3125,21.714285714285715C71.25,20.190476190476193,72.1875,18.476190476190478,73.125,17.142857142857146C74.0625,15.809523809523812,75,15.238095238095239,75.9375,13.714285714285715C76.875,12.190476190476192,77.8125,8.761904761904761,78.75,7.999999999999998C79.6875,7.238095238095236,80.625,7.619047619047617,81.5625,6.857142857142855C82.5,6.095238095238093,83.4375,2.2857142857142865,84.375,2.2857142857142865C85.3125,2.2857142857142865,86.25,2.666666666666668,87.1875,3.4285714285714297C88.125,4.190476190476192,89.0625,7.809523809523809,90,9.142857142857142C90.9375,10.476190476190474,91.875,11.428571428571427,92.8125,11.428571428571427C93.75,11.428571428571427,94.6875,11.428571428571427,95.625,11.428571428571427C96.5625,11.428571428571427,97.5,14.095238095238097,98.4375,14.857142857142858C99.375,15.619047619047619,100.3125,15.238095238095239,101.25,16C102.1875,16.761904761904763,103.125,18.476190476190478,104.0625,19.42857142857143C105,20.380952380952383,105.9375,21.142857142857146,106.875,21.714285714285715C107.8125,22.285714285714285,108.75,22.285714285714285,109.6875,22.857142857142854C110.625,23.428571428571423,111.5625,24.38095238095238,112.5,25.142857142857142C113.4375,25.904761904761905,114.375,26.666666666666668,115.3125,27.42857142857143C116.25,28.190476190476193,117.1875,29.714285714285715,118.125,29.714285714285715C119.0625,29.714285714285715,120,25.142857142857142,120.9375,25.142857142857142C121.875,25.142857142857142,122.8125,25.904761904761905,123.75,26.285714285714285C124.6875,26.666666666666664,125.625,27.42857142857143,126.5625,27.42857142857143C127.5,27.42857142857143,128.4375,27.42857142857143,129.375,27.42857142857143C130.3125,27.42857142857143,131.25,28.190476190476193,132.1875,28.571428571428573C133.125,28.952380952380953,134.0625,29.333333333333336,135,29.714285714285715C135.9375,30.095238095238095,136.875,30.095238095238095,137.8125,30.857142857142858C138.75,31.61904761904762,139.6875,36.57142857142857,140.625,36.57142857142857C141.5625,36.57142857142857,142.5,35.42857142857143,143.4375,35.42857142857143C144.375,35.42857142857143,145.3125,36.57142857142857,146.25,36.57142857142857C147.1875,36.57142857142857,148.125,36.57142857142857,149.0625,36.57142857142857C150,36.57142857142857,150.9375,34.85714285714286,151.875,34.28571428571429C152.8125,33.71428571428572,153.75,33.52380952380952,154.6875,33.14285714285714C155.625,32.76190476190476,156.5625,32.76190476190476,157.5,32C158.4375,31.23809523809524,159.375,28.190476190476193,160.3125,27.42857142857143C161.25,26.666666666666668,162.1875,27.047619047619047,163.125,26.285714285714285C164.0625,25.523809523809522,165,17.142857142857146,165.9375,17.142857142857146C166.875,17.142857142857146,167.8125,17.142857142857146,168.75,17.142857142857146C169.6875,17.142857142857146,170.625,17.90476190476191,171.5625,18.28571428571429C172.5,18.666666666666668,173.4375,19.42857142857143,174.375,19.42857142857143C175.3125,19.42857142857143,176.25,14.857142857142858,177.1875,14.857142857142858C178.125,14.857142857142858,179.0625,16,180,17.142857142857146L180,40C179.0625,40,178.125,40,177.1875,40C176.25,40,175.3125,40,174.375,40C173.4375,40,172.5,40,171.5625,40C170.625,40,169.6875,40,168.75,40C167.8125,40,166.875,40,165.9375,40C165,40,164.0625,40,163.125,40C162.1875,40,161.25,40,160.3125,40C159.375,40,158.4375,40,157.5,40C156.5625,40,155.625,40,154.6875,40C153.75,40,152.8125,40,151.875,40C150.9375,40,150,40,149.0625,40C148.125,40,147.1875,40,146.25,40C145.3125,40,144.375,40,143.4375,40C142.5,40,141.5625,40,140.625,40C139.6875,40,138.75,40,137.8125,40C136.875,40,135.9375,40,135,40C134.0625,40,133.125,40,132.1875,40C131.25,40,130.3125,40,129.375,40C128.4375,40,127.5,40,126.5625,40C125.625,40,124.6875,40,123.75,40C122.8125,40,121.875,40,120.9375,40C120,40,119.0625,40,118.125,40C117.1875,40,116.25,40,115.3125,40C114.375,40,113.4375,40,112.5,40C111.5625,40,110.625,40,109.6875,40C108.75,40,107.8125,40,106.875,40C105.9375,40,105,40,104.0625,40C103.125,40,102.1875,40,101.25,40C100.3125,40,99.375,40,98.4375,40C97.5,40,96.5625,40,95.625,40C94.6875,40,93.75,40,92.8125,40C91.875,40,90.9375,40,90,40C89.0625,40,88.125,40,87.1875,40C86.25,40,85.3125,40,84.375,40C83.4375,40,82.5,40,81.5625,40C80.625,40,79.6875,40,78.75,40C77.8125,40,76.875,40,75.9375,40C75,40,74.0625,40,73.125,40C72.1875,40,71.25,40,70.3125,40C69.375,40,68.4375,40,67.5,40C66.5625,40,65.625,40,64.6875,40C63.75,40,62.8125,40,61.875,40C60.9375,40,60,40,59.0625,40C58.125,40,57.1875,40,56.25,40C55.3125,40,54.375,40,53.4375,40C52.5,40,51.5625,40,50.625,40C49.6875,40,48.75,40,47.8125,40C46.875,40,45.9375,40,45,40C44.0625,40,43.125,40,42.1875,40C40.3125,40,38.4375,40,36.5625,40C35.625,40,34.6875,40,33.75,40C32.8125,40,31.875,40,30.9375,40C30,40,29.0625,40,28.125,40C27.1875,40,26.25,40,25.3125,40C24.375,40,23.4375,40,22.5,40C20.625,40,18.75,40,16.875,40C13.125,40,9.375,40,5.625,40C4.6875,40,3.75,40,2.8125,40C1.875,40,0.9375,40,0,40Z"></path><path class="line" stroke="black" fill="none" d="M0,37.714285714285715C0.9375,37.714285714285715,1.875,37.714285714285715,2.8125,37.714285714285715C3.75,37.714285714285715,4.6875,37.714285714285715,5.625,37.714285714285715C9.375,37.714285714285715,13.125,37.714285714285715,16.875,37.714285714285715C18.75,37.714285714285715,20.625,36.57142857142857,22.5,36.57142857142857C23.4375,36.57142857142857,24.375,36.57142857142857,25.3125,36.57142857142857C26.25,36.57142857142857,27.1875,37.714285714285715,28.125,37.714285714285715C29.0625,37.714285714285715,30,37.714285714285715,30.9375,37.714285714285715C31.875,37.714285714285715,32.8125,37.714285714285715,33.75,37.714285714285715C34.6875,37.714285714285715,35.625,37.714285714285715,36.5625,37.714285714285715C38.4375,37.714285714285715,40.3125,37.2063492063492,42.1875,36.57142857142857C43.125,36.25396825396825,44.0625,35.80952380952381,45,35.42857142857143C45.9375,35.04761904761905,46.875,34.85714285714286,47.8125,34.28571428571429C48.75,33.71428571428572,49.6875,32.57142857142857,50.625,32C51.5625,31.428571428571427,52.5,30.857142857142858,53.4375,30.857142857142858C54.375,30.857142857142858,55.3125,30.857142857142858,56.25,30.857142857142858C57.1875,30.857142857142858,58.125,28.571428571428573,59.0625,28.571428571428573C60,28.571428571428573,60.9375,29.333333333333336,61.875,29.714285714285715C62.8125,30.095238095238095,63.75,30.857142857142858,64.6875,30.857142857142858C65.625,30.857142857142858,66.5625,27.80952380952381,67.5,26.285714285714285C68.4375,24.76190476190476,69.375,23.238095238095237,70.3125,21.714285714285715C71.25,20.190476190476193,72.1875,18.476190476190478,73.125,17.142857142857146C74.0625,15.809523809523812,75,15.238095238095239,75.9375,13.714285714285715C76.875,12.190476190476192,77.8125,8.761904761904761,78.75,7.999999999999998C79.6875,7.238095238095236,80.625,7.619047619047617,81.5625,6.857142857142855C82.5,6.095238095238093,83.4375,2.2857142857142865,84.375,2.2857142857142865C85.3125,2.2857142857142865,86.25,2.666666666666668,87.1875,3.4285714285714297C88.125,4.190476190476192,89.0625,7.809523809523809,90,9.142857142857142C90.9375,10.476190476190474,91.875,11.428571428571427,92.8125,11.428571428571427C93.75,11.428571428571427,94.6875,11.428571428571427,95.625,11.428571428571427C96.5625,11.428571428571427,97.5,14.095238095238097,98.4375,14.857142857142858C99.375,15.619047619047619,100.3125,15.238095238095239,101.25,16C102.1875,16.761904761904763,103.125,18.476190476190478,104.0625,19.42857142857143C105,20.380952380952383,105.9375,21.142857142857146,106.875,21.714285714285715C107.8125,22.285714285714285,108.75,22.285714285714285,109.6875,22.857142857142854C110.625,23.428571428571423,111.5625,24.38095238095238,112.5,25.142857142857142C113.4375,25.904761904761905,114.375,26.666666666666668,115.3125,27.42857142857143C116.25,28.190476190476193,117.1875,29.714285714285715,118.125,29.714285714285715C119.0625,29.714285714285715,120,25.142857142857142,120.9375,25.142857142857142C121.875,25.142857142857142,122.8125,25.904761904761905,123.75,26.285714285714285C124.6875,26.666666666666664,125.625,27.42857142857143,126.5625,27.42857142857143C127.5,27.42857142857143,128.4375,27.42857142857143,129.375,27.42857142857143C130.3125,27.42857142857143,131.25,28.190476190476193,132.1875,28.571428571428573C133.125,28.952380952380953,134.0625,29.333333333333336,135,29.714285714285715C135.9375,30.095238095238095,136.875,30.095238095238095,137.8125,30.857142857142858C138.75,31.61904761904762,139.6875,36.57142857142857,140.625,36.57142857142857C141.5625,36.57142857142857,142.5,35.42857142857143,143.4375,35.42857142857143C144.375,35.42857142857143,145.3125,36.57142857142857,146.25,36.57142857142857C147.1875,36.57142857142857,148.125,36.57142857142857,149.0625,36.57142857142857C150,36.57142857142857,150.9375,34.85714285714286,151.875,34.28571428571429C152.8125,33.71428571428572,153.75,33.52380952380952,154.6875,33.14285714285714C155.625,32.76190476190476,156.5625,32.76190476190476,157.5,32C158.4375,31.23809523809524,159.375,28.190476190476193,160.3125,27.42857142857143C161.25,26.666666666666668,162.1875,27.047619047619047,163.125,26.285714285714285C164.0625,25.523809523809522,165,17.142857142857146,165.9375,17.142857142857146C166.875,17.142857142857146,167.8125,17.142857142857146,168.75,17.142857142857146C169.6875,17.142857142857146,170.625,17.90476190476191,171.5625,18.28571428571429C172.5,18.666666666666668,173.4375,19.42857142857143,174.375,19.42857142857143C175.3125,19.42857142857143,176.25,14.857142857142858,177.1875,14.857142857142858C178.125,14.857142857142858,179.0625,16,180,17.142857142857146"></path><path class="axis-ceiling" stroke-width="1" stroke="black" fill="none" d="M175,0L180,0"></path><text class="axis-ceiling-label" font-family="sans-serif" text-anchor="end" font-size="10px" x="170" y="2.5">35</text></g></svg>