<svg xmlns="http://www.w3.org/2000/svg" viewBox="0 0 180 60"><g transform="translate(0,20)"><path class="area" fill="rgba(0, 0, 0, 0.2)" d="M0,23.813333333333333C1.0169491525423728,23.80222222222222,2.0338983050847457,23.79111111111111,3.0508474576271185,23.746666666666666C4.067796610169491,23.702222222222222,5.084745762711864,23.54888888888889,6.101694915254237,23.453333333333333C7.11864406779661,23.357777777777777,8.135593220338983,23.27111111111111,9.152542372881356,23.173333333333332C10.169491525423728,23.075555555555553,11.186440677966102,22.96666666666667,12.203389830508474,22.866666666666667C13.220338983050846,22.766666666666666,14.23728813559322,22.713333333333335,15.254237288135592,22.573333333333334C16.271186440677965,22.433333333333334,17.28813559322034,22.14222222222222,18.305084745762713,22.026666666666664C19.322033898305087,21.911111111111108,20.338983050847457,21.955555555555552,21.35593220338983,21.85333333333333C22.372881355932204,21.75111111111111,23.389830508474574,21.515555555555554,24.406779661016948,21.413333333333334C25.423728813559322,21.311111111111114,26.440677966101696,21.31555555555556,27.45762711864407,21.240000000000002C28.47457627118644,21.164444444444445,29.491525423728813,21.035555555555558,30.508474576271183,20.96C31.525423728813557,20.884444444444444,32.54237288135593,20.846666666666668,33.559322033898304,20.78666666666667C34.57627118644068,20.72666666666667,35.59322033898305,20.660000000000004,36.610169491525426,20.6C37.6271186440678,20.54,38.644067796610166,20.477777777777774,39.66101694915254,20.426666666666662C40.67796610169491,20.37555555555555,41.69491525423729,20.342222222222226,42.71186440677966,20.293333333333337C43.728813559322035,20.24444444444445,44.7457627118644,20.20666666666667,45.762711864406775,20.133333333333336C46.77966101694915,20.060000000000002,47.79661016949152,19.897777777777772,48.813559322033896,19.85333333333333C49.83050847457627,19.80888888888889,50.847457627118644,19.817777777777778,51.86440677966102,19.78666666666667C52.88135593220339,19.75555555555556,53.898305084745765,19.70888888888889,54.91525423728814,19.666666666666668C55.93220338983051,19.624444444444446,56.94915254237288,19.622222222222224,57.96610169491525,19.53333333333333C58.983050847457626,19.44444444444444,59.99999999999999,19.213333333333335,61.01694915254237,19.10666666666667C62.03389830508474,19.000000000000004,63.05084745762712,18.94666666666667,64.0677966101695,18.893333333333334C65.08474576271186,18.84,66.10169491525424,18.846666666666668,67.11864406779661,18.78666666666667C68.13559322033899,18.72666666666667,69.15254237288136,18.611111111111114,70.16949152542374,18.533333333333335C71.1864406779661,18.455555555555556,72.20338983050848,18.391111111111112,73.22033898305085,18.32C74.23728813559322,18.24888888888889,75.2542372881356,18.17111111111111,76.27118644067797,18.106666666666666C77.28813559322033,18.04222222222222,78.30508474576271,17.986666666666668,79.32203389830508,17.933333333333334C80.33898305084746,17.88,81.35593220338983,17.866666666666667,82.37288135593221,17.786666666666665C83.38983050847457,17.706666666666667,84.40677966101696,17.54888888888889,85.42372881355932,17.453333333333333C86.4406779661017,17.357777777777777,87.45762711864407,17.32888888888889,88.47457627118645,17.213333333333335C89.49152542372882,17.09777777777778,90.50847457627118,16.92,91.52542372881355,16.76C92.54237288135593,16.6,93.55932203389831,16.415555555555557,94.57627118644069,16.253333333333334C95.59322033898306,16.091111111111115,96.61016949152543,15.904444444444445,97.62711864406779,15.786666666666669C98.64406779661016,15.66888888888889,99.66101694915254,15.653333333333334,100.6779661016949,15.546666666666669C101.69491525423729,15.440000000000001,102.71186440677965,15.280000000000003,103.72881355932203,15.146666666666668C104.7457627118644,15.013333333333335,105.76271186440678,14.89777777777778,106.77966101694915,14.746666666666668C107.79661016949153,14.595555555555556,108.8135593220339,14.459999999999999,109.83050847457628,14.239999999999998C110.84745762711864,14.019999999999998,111.86440677966102,13.637777777777776,112.88135593220339,13.426666666666666C113.89830508474576,13.215555555555556,114.91525423728814,13.16,115.9322033898305,12.973333333333334C116.94915254237289,12.786666666666667,117.96610169491525,12.522222222222222,118.98305084745763,12.306666666666665C120,12.091111111111111,121.01694915254237,11.904444444444444,122.03389830508473,11.680000000000001C123.05084745762711,11.455555555555556,124.0677966101695,11.153333333333334,125.08474576271188,10.96C126.10169491525424,10.76666666666667,127.11864406779662,10.682222222222222,128.135593220339,10.52C129.15254237288136,10.357777777777777,130.16949152542372,10.177777777777779,131.1864406779661,9.986666666666668C132.20338983050846,9.795555555555556,133.22033898305085,9.604444444444443,134.23728813559322,9.373333333333331C135.25423728813558,9.14222222222222,136.27118644067798,8.799999999999997,137.28813559322035,8.599999999999998C138.3050847457627,8.399999999999999,139.3220338983051,8.31777777777778,140.33898305084747,8.173333333333336C141.35593220338984,8.028888888888892,142.3728813559322,7.86888888888889,143.38983050847457,7.733333333333334C144.40677966101694,7.597777777777778,145.42372881355934,7.531111111111115,146.4406779661017,7.360000000000002C147.45762711864407,7.188888888888891,148.47457627118644,6.944444444444442,149.4915254237288,6.706666666666665C150.50847457627117,6.468888888888886,151.52542372881356,6.139999999999999,152.54237288135593,5.933333333333333C153.5593220338983,5.726666666666667,154.5762711864407,5.660000000000004,155.59322033898306,5.466666666666669C156.61016949152543,5.273333333333335,157.6271186440678,5.011111111111108,158.64406779661016,4.773333333333332C159.66101694915253,4.535555555555552,160.67796610169492,4.228888888888888,161.6949152542373,4.039999999999999C162.71186440677965,3.8511111111111105,163.72881355932205,3.777777777777777,164.74576271186442,3.639999999999999C165.76271186440678,3.502222222222222,166.77966101694915,3.386666666666667,167.79661016949152,3.2133333333333347C168.81355932203388,3.040000000000001,169.83050847457628,2.7711111111111095,170.84745762711864,2.599999999999998C171.864406779661,2.428888888888886,172.8813559322034,2.3333333333333317,173.89830508474577,2.1866666666666656C174.91525423728814,2.0399999999999996,175.93220338983053,1.8888888888888913,176.9491525423729,1.7200000000000015C177.96610169491527,1.5511111111111133,178.98305084745763,1.3622222222222231,180,1.173333333333333L180,40C178.98305084745763,40,177.96610169491527,40,176.9491525423729,40C175.93220338983053,40,174.91525423728814,40,173.89830508474577,40C172.8813559322034,40,171.864406779661,40,170.84745762711864,40C169.83050847457628,40,168.81355932203388,40,167.79661016949152,40C166.77966101694915,40,165.76271186440678,40,164.74576271186442,40C163.72881355932205,40,162.71186440677965,40,161.6949152542373,40C160.67796610169492,40,159.66101694915253,40,158.64406779661016,40C157.6271186440678,40,156.61016949152543,40,155.59322033898306,40C154.5762711864407,40,153.5593220338983,40,152.54237288135593,40C151.52542372881356,40,150.50847457627117,40,149.4915254237288,40C148.47457627118644,40,147.45762711864407,40,146.4406779661017,40C145.42372881355934,40,144.40677966101694,40,143.38983050847457,40C142.3728813559322,40,141.35593220338984,40,140.33898305084747,40C139.3220338983051,40,138.3050847457627,40,137.28813559322035,40C136.27118644067798,40,135.25423728813558,40,134.23728813559322,40C133.22033898305085,40,132.20338983050846,40,131.1864406779661,40C130.16949152542372,40,129.15254237288136,40,128.135593220339,40C127.11864406779662,40,126.10169491525424,40,125.08474576271188,40C124.0677966101695,40,123.05084745762711,40,122.03389830508473,40C121.01694915254237,40,120,40,118.98305084745763,40C117.96610169491525,40,116.94915254237289,40,115.9322033898305,40C114.91525423728814,40,113.89830508474576,40,112.88135593220339,40C111.86440677966102,40,110.84745762711864,40,109.83050847457628,40C108.8135593220339,40,107.79661016949153,40,106.77966101694915,40C105.76271186440678,40,104.7457627118644,40,103.72881355932203,40C102.71186440677965,40,101.69491525423729,40,100.6779661016949,40C99.66101694915254,40,98.64406779661016,40,97.62711864406779,40C96.61016949152543,40,95.59322033898306,40,94.57627118644069,40C93.55932203389831,40,92.54237288135593,40,91.52542372881355,40C90.50847457627118,40,89.49152542372882,40,88.47457627118645,40C87.45762711864407,40,86.4406779661017,40,85.42372881355932,40C84.40677966101696,40,83.38983050847457,40,82.37288135593221,40C81.35593220338983,40,80.33898305084746,40,79.32203389830508,40C78.30508474576271,40,77.28813559322033,40,76.27118644067797,40C75.2542372881356,40,74.23728813559322,40,73.22033898305085,40C72.20338983050848,40,71.1864406779661,40,70.16949152542374,40C69.15254237288136,40,68.13559322033899,40,67.11864406779661,40C66.10169491525424,40,65.08474576271186,40,64.0677966101695,40C63.05084745762712,40,62.03389830508474,40,61.01694915254237,40C59.99999999999999,40,58.983050847457626,40,57.96610169491525,40C56.94915254237288,40,55.93220338983051,40,54.91525423728814,40C53.898305084745765,40,52.88135593220339,40,51.86440677966102,40C50.847457627118644,40,49.83050847457627,40,48.813559322033896,40C47.79661016949152,40,46.77966101694915,40,45.762711864406775,40C44.7457627118644,40,43.728813559322035,40,42.71186440677966,40C41.69491525423729,40,40.67796610169491,40,39.66101694915254,40C38.644067796610166,40,37.6271186440678,40,36.610169491525426,40C35.59322033898305,40,34.57627118644068,40,33.559322033898304,40C32.54237288135593,40,31.525423728813557,40,30.508474576271183,40C29.491525423728813,40,28.47457627118644,40,27.45762711864407,40C26.440677966101696,40,25.423728813559322,40,24.406779661016948,40C23.389830508474574,40,22.372881355932204,40,21.35593220338983,40C20.338983050847457,40,19.322033898305087,40,18.305084745762713,40C17.28813559322034,40,16.271186440677965,40,15.254237288135592,40C14.23728813559322,40,13.220338983050846,40,12.203389830508474,40C11.186440677966102,40,10.169491525423728,40,9.152542372881356,40C8.135593220338983,40,7.11864406779661,40,6.101694915254237,40C5.084745762711864,40,4.067796610169491,40,3.0508474576271185,40C2.0338983050847457,40,1.0169491525423728,40,0,40Z"></path><path class="line" stroke="black" fill="none" d="M0,23.813333333333333C1.0169491525423728,23.80222222222222,2.0338983050847457,23.79111111111111,3.0508474576271185,23.746666666666666C4.067796610169491,23.702222222222222,5.084745762711864,23.54888888888889,6.101694915254237,23.453333333333333C7.11864406779661,23.357777777777777,8.135593220338983,23.27111111111111,9.152542372881356,23.173333333333332C10.169491525423728,23.075555555555553,11.186440677966102,22.96666666666667,12.203389830508474,22.866666666666667C13.220338983050846,22.766666666666666,14.23728813559322,22.713333333333335,15.254237288135592,22.573333333333334C16.271186440677965,22.433333333333334,17.28813559322034,22.14222222222222,18.305084745762713,22.026666666666664C19.322033898305087,21.911111111111108,20.338983050847457,21.955555555555552,21.35593220338983,21.85333333333333C22.372881355932204,21.75111111111111,23.389830508474574,21.515555555555554,24.406779661016948,21.413333333333334C25.423728813559322,21.311111111111114,26.440677966101696,21.31555555555556,27.45762711864407,21.240000000000002C28.47457627118644,21.164444444444445,29.491525423728813,21.035555555555558,30.508474576271183,20.96C31.525423728813557,20.884444444444444,32.54237288135593,20.846666666666668,33.559322033898304,20.78666666666667C34.57627118644068,20.72666666666667,35.59322033898305,20.660000000000004,36.610169491525426,20.6C37.6271186440678,20.54,38.644067796610166,20.477777777777774,39.66101694915254,20.426666666666662C40.67796610169491,20.37555555555555,41.69491525423729,20.342222222222226,42.71186440677966,20.293333333333337C43.728813559322035,20.24444444444445,44.7457627118644,20.20666666666667,45.762711864406775,20.133333333333336C46.77966101694915,20.060000000000002,47.79661016949152,19.897777777777772,48.813559322033896,19.85333333333333C49.83050847457627,19.80888888888889,50.847457627118644,19.817777777777778,51.86440677966102,19.78666666666667C52.88135593220339,19.75555555555556,53.898305084745765,19.70888888888889,54.91525423728814,19.666666666666668C55.93220338983051,19.624444444444446,56.94915254237288,19.622222222222224,57.96610169491525,19.53333333333333C58.983050847457626,19.44444444444444,59.99999999999999,19.213333333333335,61.01694915254237,19.10666666666667C62.03389830508474,19.000000000000004,63.05084745762712,18.94666666666667,64.0677966101695,18.893333333333334C65.08474576271186,18.84,66.10169491525424,18.846666666666668,67.11864406779661,18.78666666666667C68.13559322033899,18.72666666666667,69.15254237288136,18.611111111111114,70.16949152542374,18.533333333333335C71.1864406779661,18.455555555555556,72.20338983050848,18.391111111111112,73.22033898305085,18.32C74.23728813559322,18.24888888888889,75.2542372881356,18.17111111111111,76.27118644067797,18.106666666666666C77.28813559322033,18.04222222222222,78.30508474576271,17.986666666666668,79.32203389830508,17.933333333333334C80.33898305084746,17.88,81.35593220338983,17.866666666666667,82.37288135593221,17.786666666666665C83.38983050847457,17.706666666666667,84.40677966101696,17.54888888888889,85.42372881355932,17.453333333333333C86.4406779661017,17.357777777777777,87.45762711864407,17.32888888888889,88.47457627118645,17.213333333333335C89.49152542372882,17.09777777777778,90.50847457627118,16.92,91.52542372881355,16.76C92.54237288135593,16.6,93.55932203389831,16.415555555555557,94.57627118644069,16.253333333333334C95.59322033898306,16.091111111111115,96.61016949152543,15.904444444444445,97.62711864406779,15.786666666666669C98.64406779661016,15.66888888888889,99.66101694915254,15.653333333333334,100.6779661016949,15.546666666666669C101.69491525423729,15.440000000000001,102.71186440677965,15.280000000000003,103.72881355932203,15.146666666666668C104.7457627118644,15.013333333333335,105.76271186440678,14.89777777777778,106.77966101694915,14.746666666666668C107.79661016949153,14.595555555555556,108.8135593220339,14.459999999999999,109.83050847457628,14.239999999999998C110.84745762711864,14.019999999999998,111.86440677966102,13.637777777777776,112.88135593220339,13.426666666666666C113.89830508474576,13.215555555555556,114.91525423728814,13.16,115.9322033898305,12.973333333333334C116.94915254237289,12.786666666666667,117.96610169491525,12.522222222222222,118.98305084745763,12.306666666666665C120,12.091111111111111,121.01694915254237,11.904444444444444,122.03389830508473,11.680000000000001C123.05084745762711,11.455555555555556,124.0677966101695,11.153333333333334,125.08474576271188,10.96C126.10169491525424,10.76666666666667,127.11864406779662,10.682222222222222,128.135593220339,10.52C129.15254237288136,10.357777777777777,130.16949152542372,10.177777777777779,131.1864406779661,9.986666666666668C132.20338983050846,9.795555555555556,133.22033898305085,9.604444444444443,134.23728813559322,9.373333333333331C135.25423728813558,9.14222222222222,136.27118644067798,8.799999999999997,137.28813559322035,8.599999999999998C138.3050847457627,8.399999999999999,139.3220338983051,8.31777777777778,140.33898305084747,8.173333333333336C141.35593220338984,8.028888888888892,142.3728813559322,7.86888888888889,143.38983050847457,7.733333333333334C144.40677966101694,7.597777777777778,145.42372881355934,7.531111111111115,146.4406779661017,7.360000000000002C147.45762711864407,7.188888888888891,148.47457627118644,6.944444444444442,149.4915254237288,6.706666666666665C150.50847457627117,6.468888888888886,151.52542372881356,6.139999999999999,152.54237288135593,5.933333333333333C153.5593220338983,5.726666666666667,154.5762711864407,5.660000000000004,155.59322033898306,5.466666666666669C156.61016949152543,5.273333333333335,157.6271186440678,5.011111111111108,158.64406779661016,4.773333333333332C159.66101694915253,4.535555555555552,160.67796610169492,4.228888888888888,161.6949152542373,4.039999999999999C162.71186440677965,3.8511111111111105,163.72881355932205,3.777777777777777,164.74576271186442,3.639999999999999C165.76271186440678,3.502222222222222,166.77966101694915,3.386666666666667,167.79661016949152,3.2133333333333347C168.81355932203388,3.040000000000001,169.83050847457628,2.7711111111111095,170.84745762711864,2.599999999999998C171.864406779661,2.428888888888886,172.8813559322034,2.3333333333333317,173.89830508474577,2.1866666666666656C174.91525423728814,2.0399999999999996,175.93220338983053,1.8888888888888913,176.9491525423729,1.7200000000000015C177.96610169491527,1.5511111111111133,178.98305084745763,1.3622222222222231,180,1.173333333333333"></path><path class="axis-ceiling" stroke-width="1" stroke="black" fill="none" d="M175,0L180,0"></path><text class="axis-ceiling-label" font-family="sans-serif" text-anchor="end" font-size="10px" x="170" y="2.5">3000</text></g></svg>