<svg xmlns="http://www.w3.org/2000/svg" viewBox="0 0 180 60"><g transform="translate(0,20)"><path class="area" fill="rgba(0, 0, 0, 0.2)" d="M0,20C2.589928057553957,29.6,5.179856115107913,39.2,7.769784172661871,39.2C9.496402877697841,39.2,11.223021582733812,39.2,12.949640287769784,39.2C13.381294964028775,39.2,13.81294964028777,38.4,14.244604316546761,38.4C15.971223021582732,38.4,17.697841726618705,38.4,19.424460431654676,38.4C24.1726618705036,38.4,28.92086330935252,36.800000000000004,33.66906474820144,36.800000000000004C34.53237410071943,36.800000000000004,35.39568345323741,39.2,36.2589928057554,39.2C41.007194244604314,39.2,45.75539568345324,38.4,50.50359712230215,38.4C50.93525179856115,38.4,51.36690647482014,39.2,51.798561151079134,39.2C53.956834532374096,39.2,56.115107913669064,37.599999999999994,58.273381294964025,37.599999999999994C58.70503597122302,37.599999999999994,59.13669064748201,38.4,59.568345323741006,38.4C60.431654676258994,38.4,61.29496402877698,36.800000000000004,62.15827338129497,36.800000000000004C65.17985611510791,36.800000000000004,68.20143884892086,39.2,71.22302158273381,39.2C75.10791366906474,39.2,78.9928057553957,39.2,82.87769784172663,39.2C83.74100719424462,39.2,84.60431654676259,39.2,85.46762589928058,39.2C91.07913669064749,39.2,96.69064748201438,39.2,102.3021582733813,39.2C104.89208633093526,39.2,107.4820143884892,39.2,110.07194244604317,39.2C110.50359712230217,39.2,110.93525179856115,38.4,111.36690647482015,38.4C111.79856115107914,38.4,112.23021582733813,38.4,112.66187050359711,38.4C114.82014388489208,38.4,116.97841726618705,36.800000000000004,119.13669064748201,36.800000000000004C120,36.800000000000004,120.86330935251799,37.86666666666666,121.72661870503597,38.4C122.15827338129496,38.666666666666664,122.58992805755396,39.2,123.02158273381295,39.2C123.45323741007195,39.2,123.88489208633094,39.2,124.31654676258994,39.2C125.17985611510791,39.2,126.0431654676259,32.800000000000004,126.90647482014387,32.800000000000004C127.33812949640287,32.800000000000004,127.76978417266187,39.2,128.20143884892087,39.2C128.63309352517987,39.2,129.06474820143885,39.2,129.49640287769785,39.2C129.92805755395685,39.2,130.35971223021582,39.2,130.79136690647482,39.2C132.5179856115108,39.2,134.24460431654674,35.2,135.97122302158272,35.2C136.83453237410072,35.2,137.6978417266187,36.622222222222206,138.5611510791367,37.599999999999994C138.9928057553957,38.08888888888888,139.42446043165467,39.2,139.85611510791367,39.2C140.28776978417267,39.2,140.71942446043164,38.4,141.15107913669064,38.4C141.58273381294964,38.4,142.0143884892086,39.2,142.44604316546761,39.2C142.87769784172662,39.2,143.30935251798562,36.800000000000004,143.74100719424462,36.800000000000004C144.17266187050362,36.800000000000004,144.6043165467626,39.2,145.0359712230216,39.2C145.89928057553956,39.2,146.76258992805757,31.200000000000003,147.62589928057554,31.200000000000003C148.05755395683454,31.200000000000003,148.4892086330935,33.6,148.9208633093525,33.6C149.3525179856115,33.6,149.7841726618705,33.06666666666667,150.21582733812951,32C150.6474820143885,30.93333333333338,151.0791366906475,24,151.51079136690646,24C151.94244604316546,24,152.37410071942446,34.13333333333331,152.80575539568346,35.2C153.23741007194246,36.26666666666667,153.66906474820144,36.800000000000004,154.10071942446044,36.800000000000004C154.53237410071944,36.800000000000004,154.9640287769784,30.4,155.3956834532374,30.4C155.8273381294964,30.4,156.25899280575538,37.599999999999994,156.69064748201438,37.599999999999994C157.12230215827338,37.599999999999994,157.55395683453236,37.33333333333333,157.98561151079136,36.800000000000004C158.41726618705036,36.266666666666666,158.84892086330936,11.466666666666724,159.28057553956836,8.799999999999999C159.71223021582736,6.133333333333333,160.14388489208633,4.8,160.57553956834533,4.8C161.00719424460434,4.8,161.4388489208633,6.266666666666666,161.8705035971223,8.799999999999999C162.3021582733813,11.333333333333332,162.73381294964028,20,163.16546762589928,20C163.59712230215828,20,164.02877697841726,2.400000000000002,164.46043165467626,2.400000000000002C164.89208633093526,2.400000000000002,165.32374100719426,31.200000000000003,165.75539568345326,31.200000000000003C166.18705035971223,31.200000000000003,166.61870503597123,14.399999999999999,167.0503597122302,14.399999999999999C167.4820143884892,14.399999999999999,167.91366906474818,15.86666666666672,168.34532374100718,18.4C168.77697841726618,20.933333333333334,169.20863309352518,29.6,169.64028776978418,29.6C170.07194244604318,29.6,170.50359712230215,19.2,170.93525179856115,19.2C171.36690647482015,19.2,171.79856115107913,22.400000000000002,172.23021582733813,22.400000000000002C172.66187050359713,22.400000000000002,173.0935251798561,20.8,173.5251798561151,20.8C173.9568345323741,20.8,174.38848920863308,35.2,174.82014388489208,35.2C175.25179856115108,35.2,175.68345323741008,32.533333333333346,176.11510791366908,32C176.54676258992808,31.46666666666667,176.97841726618705,31.200000000000003,177.41007194244605,31.200000000000003C177.84172661870505,31.200000000000003,178.27338129496403,33.6,178.70503597122303,33.6C179.13669064748203,33.6,179.568345323741,32,180,30.4L180,40C179.568345323741,40,179.13669064748203,40,178.70503597122303,40C178.27338129496403,40,177.84172661870505,40,177.41007194244605,40C176.97841726618705,40,176.54676258992808,40,176.11510791366908,40C175.68345323741008,40,175.25179856115108,40,174.82014388489208,40C174.38848920863308,40,173.9568345323741,40,173.5251798561151,40C173.0935251798561,40,172.66187050359713,40,172.23021582733813,40C171.79856115107913,40,171.36690647482015,40,170.93525179856115,40C170.50359712230215,40,170.07194244604318,40,169.64028776978418,40C169.20863309352518,40,168.77697841726618,40,168.34532374100718,40C167.91366906474818,40,167.4820143884892,40,167.0503597122302,40C166.61870503597123,40,166.18705035971223,40,165.75539568345326,40C165.32374100719426,40,164.89208633093526,40,164.46043165467626,40C164.02877697841726,40,163.59712230215828,40,163.16546762589928,40C162.73381294964028,40,162.3021582733813,40,161.8705035971223,40C161.4388489208633,40,161.00719424460434,40,160.57553956834533,40C160.14388489208633,40,159.71223021582736,40,159.28057553956836,40C158.84892086330936,40,158.41726618705036,40,157.98561151079136,40C157.55395683453236,40,157.12230215827338,40,156.69064748201438,40C156.25899280575538,40,155.8273381294964,40,155.3956834532374,40C154.9640287769784,40,154.53237410071944,40,154.10071942446044,40C153.66906474820144,40,153.23741007194246,40,152.80575539568346,40C152.37410071942446,40,151.94244604316546,40,151.51079136690646,40C151.0791366906475,40,150.6474820143885,40,150.21582733812951,40C149.7841726618705,40,149.3525179856115,40,148.9208633093525,40C148.4892086330935,40,148.05755395683454,40,147.62589928057554,40C146.76258992805757,40,145.89928057553956,40,145.0359712230216,40C144.6043165467626,40,144.17266187050362,40,143.74100719424462,40C143.30935251798562,40,142.87769784172662,40,142.44604316546761,40C142.0143884892086,40,141.58273381294964,40,141.15107913669064,40C140.71942446043164,40,140.28776978417267,40,139.85611510791367,40C139.42446043165467,40,138.9928057553957,40,138.5611510791367,40C137.6978417266187,40,136.83453237410072,40,135.97122302158272,40C134.24460431654674,40,132.5179856115108,40,130.79136690647482,40C130.35971223021582,40,129.92805755395685,40,129.49640287769785,40C129.06474820143885,40,128.63309352517987,40,128.20143884892087,40C127.76978417266187,40,127.33812949640287,40,126.90647482014387,40C126.0431654676259,40,125.17985611510791,40,124.31654676258994,40C123.88489208633094,40,123.45323741007195,40,123.02158273381295,40C122.58992805755396,40,122.15827338129496,40,121.72661870503597,40C120.86330935251799,40,120,40,119.13669064748201,40C116.97841726618705,40,114.82014388489208,40,112.66187050359711,40C112.23021582733813,40,111.79856115107914,40,111.36690647482015,40C110.93525179856115,40,110.50359712230217,40,110.07194244604317,40C107.4820143884892,40,104.89208633093526,40,102.3021582733813,40C96.69064748201438,40,91.07913669064749,40,85.46762589928058,40C84.60431654676259,40,83.74100719424462,40,82.87769784172663,40C78.9928057553957,40,75.10791366906474,40,71.22302158273381,40C68.20143884892086,40,65.17985611510791,40,62.15827338129497,40C61.29496402877698,40,60.431654676258994,40,59.568345323741006,40C59.13669064748201,40,58.70503597122302,40,58.273381294964025,40C56.115107913669064,40,53.956834532374096,40,51.798561151079134,40C51.36690647482014,40,50.93525179856115,40,50.50359712230215,40C45.75539568345324,40,41.007194244604314,40,36.2589928057554,40C35.39568345323741,40,34.53237410071943,40,33.66906474820144,40C28.92086330935252,40,24.1726618705036,40,19.424460431654676,40C17.697841726618705,40,15.971223021582732,40,14.244604316546761,40C13.81294964028777,40,13.381294964028775,40,12.949640287769784,40C11.223021582733812,40,9.496402877697841,40,7.769784172661871,40C5.179856115107913,40,2.589928057553957,40,0,40Z"></path><path class="line" stroke="black" fill="none" d="M0,20C2.589928057553957,29.6,5.179856115107913,39.2,7.769784172661871,39.2C9.496402877697841,39.2,11.223021582733812,39.2,12.949640287769784,39.2C13.381294964028775,39.2,13.81294964028777,38.4,14.244604316546761,38.4C15.971223021582732,38.4,17.697841726618705,38.4,19.424460431654676,38.4C24.1726618705036,38.4,28.92086330935252,36.800000000000004,33.66906474820144,36.800000000000004C34.53237410071943,36.800000000000004,35.39568345323741,39.2,36.2589928057554,39.2C41.007194244604314,39.2,45.75539568345324,38.4,50.50359712230215,38.4C50.93525179856115,38.4,51.36690647482014,39.2,51.798561151079134,39.2C53.956834532374096,39.2,56.115107913669064,37.599999999999994,58.273381294964025,37.599999999999994C58.70503597122302,37.599999999999994,59.13669064748201,38.4,59.568345323741006,38.4C60.431654676258994,38.4,61.29496402877698,36.800000000000004,62.15827338129497,36.800000000000004C65.17985611510791,36.800000000000004,68.20143884892086,39.2,71.22302158273381,39.2C75.10791366906474,39.2,78.9928057553957,39.2,82.87769784172663,39.2C83.74100719424462,39.2,84.60431654676259,39.2,85.46762589928058,39.2C91.07913669064749,39.2,96.69064748201438,39.2,102.3021582733813,39.2C104.89208633093526,39.2,107.4820143884892,39.2,110.07194244604317,39.2C110.50359712230217,39.2,110.93525179856115,38.4,111.36690647482015,38.4C111.79856115107914,38.4,112.23021582733813,38.4,112.66187050359711,38.4C114.82014388489208,38.4,116.97841726618705,36.800000000000004,119.13669064748201,36.800000000000004C120,36.800000000000004,120.86330935251799,37.86666666666666,121.72661870503597,38.4C122.15827338129496,38.666666666666664,122.58992805755396,39.2,123.02158273381295,39.2C123.45323741007195,39.2,123.88489208633094,39.2,124.31654676258994,39.2C125.17985611510791,39.2,126.0431654676259,32.800000000000004,126.90647482014387,32.800000000000004C127.33812949640287,32.800000000000004,127.76978417266187,39.2,128.20143884892087,39.2C128.63309352517987,39.2,129.06474820143885,39.2,129.49640287769785,39.2C129.92805755395685,39.2,130.35971223021582,39.2,130.79136690647482,39.2C132.5179856115108,39.2,134.24460431654674,35.2,135.97122302158272,35.2C136.83453237410072,35.2,137.6978417266187,36.622222222222206,138.5611510791367,37.599999999999994C138.9928057553957,38.08888888888888,139.42446043165467,39.2,139.85611510791367,39.2C140.28776978417267,39.2,140.71942446043164,38.4,141.15107913669064,38.4C141.58273381294964,38.4,142.0143884892086,39.2,142.44604316546761,39.2C142.87769784172662,39.2,143.30935251798562,36.800000000000004,143.74100719424462,36.800000000000004C144.17266187050362,36.800000000000004,144.6043165467626,39.2,145.0359712230216,39.2C145.89928057553956,39.2,146.76258992805757,31.200000000000003,147.62589928057554,31.200000000000003C148.05755395683454,31.200000000000003,148.4892086330935,33.6,148.9208633093525,33.6C149.3525179856115,33.6,149.7841726618705,33.06666666666667,150.21582733812951,32C150.6474820143885,30.93333333333338,151.0791366906475,24,151.51079136690646,24C151.94244604316546,24,152.37410071942446,34.13333333333331,152.80575539568346,35.2C153.23741007194246,36.26666666666667,153.66906474820144,36.800000000000004,154.10071942446044,36.800000000000004C154.53237410071944,36.800000000000004,154.9640287769784,30.4,155.3956834532374,30.4C155.8273381294964,30.4,156.25899280575538,37.599999999999994,156.69064748201438,37.599999999999994C157.12230215827338,37.599999999999994,157.55395683453236,37.33333333333333,157.98561151079136,36.800000000000004C158.41726618705036,36.266666666666666,158.84892086330936,11.466666666666724,159.28057553956836,8.799999999999999C159.71223021582736,6.133333333333333,160.14388489208633,4.8,160.57553956834533,4.8C161.00719424460434,4.8,161.4388489208633,6.266666666666666,161.8705035971223,8.799999999999999C162.3021582733813,11.333333333333332,162.73381294964028,20,163.16546762589928,20C163.59712230215828,20,164.02877697841726,2.400000000000002,164.46043165467626,2.400000000000002C164.89208633093526,2.400000000000002,165.32374100719426,31.200000000000003,165.75539568345326,31.200000000000003C166.18705035971223,31.200000000000003,166.61870503597123,14.399999999999999,167.0503597122302,14.399999999999999C167.4820143884892,14.399999999999999,167.91366906474818,15.86666666666672,168.34532374100718,18.4C168.77697841726618,20.933333333333334,169.20863309352518,29.6,169.64028776978418,29.6C170.07194244604318,29.6,170.50359712230215,19.2,170.93525179856115,19.2C171.36690647482015,19.2,171.79856115107913,22.400000000000002,172.23021582733813,22.400000000000002C172.66187050359713,22.400000000000002,173.0935251798561,20.8,173.5251798561151,20.8C173.9568345323741,20.8,174.38848920863308,35.2,174.82014388489208,35.2C175.25179856115108,35.2,175.68345323741008,32.533333333333346,176.11510791366908,32C176.54676258992808,31.46666666666667,176.97841726618705,31.200000000000003,177.41007194244605,31.200000000000003C177.84172661870505,31.200000000000003,178.27338129496403,33.6,178.70503597122303,33.6C179.13669064748203,33.6,179.568345323741,32,180,30.4"></path><path class="axis-ceiling" stroke-width="1" stroke="black" fill="none" d="M175,0L180,0"></path><text class="axis-ceiling-label" font-family="sans-serif" text-anchor="end" font-size="10px" x="170" y="2.5">50</text></g></svg>