<svg xmlns="http://www.w3.org/2000/svg" viewBox="0 0 180 60"><g transform="translate(0,20)"><path class="area" fill="rgba(0, 0, 0, 0.2)" d="M0,31.738C1.0169491525423728,31.5443,2.0338983050847457,31.3506,3.0508474576271185,31.202C4.067796610169491,31.053400000000003,5.084745762711864,30.99306666666667,6.101694915254237,30.846400000000003C7.11864406779661,30.699733333333334,8.135593220338983,30.487333333333332,9.152542372881356,30.322C10.169491525423728,30.156666666666666,11.186440677966102,30.02086666666667,12.203389830508474,29.854400000000002C13.220338983050846,29.687933333333334,14.23728813559322,29.496,15.254237288135592,29.3232C16.271186440677965,29.150399999999998,17.28813559322034,28.986066666666666,18.305084745762713,28.8176C19.322033898305087,28.64913333333333,20.338983050847457,28.48086666666667,21.35593220338983,28.312400000000004C22.372881355932204,28.143933333333337,23.389830508474574,27.948133333333338,24.406779661016948,27.806800000000003C25.423728813559322,27.665466666666667,26.440677966101696,27.594666666666665,27.45762711864407,27.464399999999998C28.47457627118644,27.33413333333333,29.491525423728813,27.176466666666663,30.508474576271183,27.025199999999998C31.525423728813557,26.873933333333333,32.54237288135593,26.702533333333335,33.559322033898304,26.556800000000003C34.57627118644068,26.41106666666667,35.59322033898305,26.308866666666663,36.610169491525426,26.150799999999997C37.6271186440678,25.99273333333333,38.644067796610166,25.785866666666664,39.66101694915254,25.608399999999996C40.67796610169491,25.43093333333333,41.69491525423729,25.252066666666664,42.71186440677966,25.086C43.728813559322035,24.919933333333333,44.7457627118644,24.75173333333333,45.762711864406775,24.612C46.77966101694915,24.472266666666666,47.79661016949152,24.375999999999998,48.813559322033896,24.2476C49.83050847457627,24.1192,50.847457627118644,23.984466666666666,51.86440677966102,23.8416C52.88135593220339,23.698733333333333,53.898305084745765,23.528266666666667,54.91525423728814,23.3904C55.93220338983051,23.252533333333332,56.94915254237288,23.126199999999997,57.96610169491525,23.0144C58.983050847457626,22.9026,59.99999999999999,22.823066666666666,61.01694915254237,22.7196C62.03389830508474,22.616133333333334,63.05084745762712,22.50153333333333,64.0677966101695,22.3936C65.08474576271186,22.285666666666668,66.10169491525424,22.168200000000002,67.11864406779661,22.072000000000003C68.13559322033899,21.975800000000003,69.15254237288136,21.8908,70.16949152542374,21.816399999999998C71.1864406779661,21.741999999999997,72.20338983050848,21.691533333333332,73.22033898305085,21.6256C74.23728813559322,21.559666666666665,75.2542372881356,21.493933333333334,76.27118644067797,21.4208C77.28813559322033,21.347666666666665,78.30508474576271,21.260133333333332,79.32203389830508,21.186799999999998C80.33898305084746,21.113466666666664,81.35593220338983,21.052,82.37288135593221,20.9808C83.38983050847457,20.9096,84.40677966101696,20.832533333333334,85.42372881355932,20.759600000000002C86.4406779661017,20.686666666666667,87.45762711864407,20.6148,88.47457627118645,20.5432C89.49152542372882,20.4716,90.50847457627118,20.388799999999996,91.52542372881355,20.33C92.54237288135593,20.271199999999997,93.55932203389831,20.252000000000002,94.57627118644069,20.1904C95.59322033898306,20.128800000000002,96.61016949152543,20.03333333333333,97.62711864406779,19.9604C98.64406779661016,19.887466666666665,99.66101694915254,19.829333333333334,100.6779661016949,19.7528C101.69491525423729,19.676266666666667,102.71186440677965,19.588733333333334,103.72881355932203,19.5012C104.7457627118644,19.413666666666668,105.76271186440678,19.30913333333333,106.77966101694915,19.2276C107.79661016949153,19.146066666666666,108.8135593220339,19.08993333333333,109.83050847457628,19.011999999999997C110.84745762711864,18.934066666666663,111.86440677966102,18.844266666666663,112.88135593220339,18.759999999999998C113.89830508474576,18.675733333333334,114.91525423728814,18.593999999999998,115.9322033898305,18.5064C116.94915254237289,18.4188,117.96610169491525,18.32326666666667,118.98305084745763,18.2344C120,18.145533333333333,121.01694915254237,18.069066666666664,122.03389830508473,17.9732C123.05084745762711,17.877333333333333,124.0677966101695,17.7628,125.08474576271188,17.6592C126.10169491525424,17.5556,127.11864406779662,17.462266666666668,128.135593220339,17.3516C129.15254237288136,17.240933333333334,130.16949152542372,17.1164,131.1864406779661,16.9952C132.20338983050846,16.874,133.22033898305085,16.73886666666667,134.23728813559322,16.6244C135.25423728813558,16.509933333333333,136.27118644067798,16.437266666666666,137.28813559322035,16.3084C138.3050847457627,16.17953333333333,139.3220338983051,15.995666666666665,140.33898305084747,15.851199999999999C141.35593220338984,15.706733333333332,142.3728813559322,15.589133333333333,143.38983050847457,15.441600000000001C144.40677966101694,15.294066666666668,145.42372881355934,15.138133333333334,146.4406779661017,14.966C147.45762711864407,14.793866666666666,148.47457627118644,14.587533333333331,149.4915254237288,14.4088C150.50847457627117,14.230066666666666,151.52542372881356,14.057933333333333,152.54237288135593,13.8936C153.5593220338983,13.729266666666666,154.5762711864407,13.585733333333337,155.59322033898306,13.422800000000002C156.61016949152543,13.25986666666667,157.6271186440678,13.087933333333332,158.64406779661016,12.915999999999999C159.66101694915253,12.744066666666665,160.67796610169492,12.576,161.6949152542373,12.391200000000001C162.71186440677965,12.206400000000002,163.72881355932205,12.012666666666668,164.74576271186442,11.8072C165.76271186440678,11.601733333333334,166.77966101694915,11.386,167.79661016949152,11.1584C168.81355932203388,10.9308,169.83050847457628,10.706933333333334,170.84745762711864,10.441600000000001C171.864406779661,10.176266666666669,172.8813559322034,9.863133333333336,173.89830508474577,9.566400000000002C174.91525423728814,9.269666666666668,175.93220338983053,8.971133333333336,176.9491525423729,8.661200000000001C177.96610169491527,8.35126666666667,178.98305084745763,8.029033333333334,180,7.7068L180,40C178.98305084745763,40,177.96610169491527,40,176.9491525423729,40C175.93220338983053,40,174.91525423728814,40,173.89830508474577,40C172.8813559322034,40,171.864406779661,40,170.84745762711864,40C169.83050847457628,40,168.81355932203388,40,167.79661016949152,40C166.77966101694915,40,165.76271186440678,40,164.74576271186442,40C163.72881355932205,40,162.71186440677965,40,161.6949152542373,40C160.67796610169492,40,159.66101694915253,40,158.64406779661016,40C157.6271186440678,40,156.61016949152543,40,155.59322033898306,40C154.5762711864407,40,153.5593220338983,40,152.54237288135593,40C151.52542372881356,40,150.50847457627117,40,149.4915254237288,40C148.47457627118644,40,147.45762711864407,40,146.4406779661017,40C145.42372881355934,40,144.40677966101694,40,143.38983050847457,40C142.3728813559322,40,141.35593220338984,40,140.33898305084747,40C139.3220338983051,40,138.3050847457627,40,137.28813559322035,40C136.27118644067798,40,135.25423728813558,40,134.23728813559322,40C133.22033898305085,40,132.20338983050846,40,131.1864406779661,40C130.16949152542372,40,129.15254237288136,40,128.135593220339,40C127.11864406779662,40,126.10169491525424,40,125.08474576271188,40C124.0677966101695,40,123.05084745762711,40,122.03389830508473,40C121.01694915254237,40,120,40,118.98305084745763,40C117.96610169491525,40,116.94915254237289,40,115.9322033898305,40C114.91525423728814,40,113.89830508474576,40,112.88135593220339,40C111.86440677966102,40,110.84745762711864,40,109.83050847457628,40C108.8135593220339,40,107.79661016949153,40,106.77966101694915,40C105.76271186440678,40,104.7457627118644,40,103.72881355932203,40C102.71186440677965,40,101.69491525423729,40,100.6779661016949,40C99.66101694915254,40,98.64406779661016,40,97.62711864406779,40C96.61016949152543,40,95.59322033898306,40,94.57627118644069,40C93.55932203389831,40,92.54237288135593,40,91.52542372881355,40C90.50847457627118,40,89.49152542372882,40,88.47457627118645,40C87.45762711864407,40,86.4406779661017,40,85.42372881355932,40C84.40677966101696,40,83.38983050847457,40,82.37288135593221,40C81.35593220338983,40,80.33898305084746,40,79.32203389830508,40C78.30508474576271,40,77.28813559322033,40,76.27118644067797,40C75.2542372881356,40,74.23728813559322,40,73.22033898305085,40C72.20338983050848,40,71.1864406779661,40,70.16949152542374,40C69.15254237288136,40,68.13559322033899,40,67.11864406779661,40C66.10169491525424,40,65.08474576271186,40,64.0677966101695,40C63.05084745762712,40,62.03389830508474,40,61.01694915254237,40C59.99999999999999,40,58.983050847457626,40,57.96610169491525,40C56.94915254237288,40,55.93220338983051,40,54.91525423728814,40C53.898305084745765,40,52.88135593220339,40,51.86440677966102,40C50.847457627118644,40,49.83050847457627,40,48.813559322033896,40C47.79661016949152,40,46.77966101694915,40,45.762711864406775,40C44.7457627118644,40,43.728813559322035,40,42.71186440677966,40C41.69491525423729,40,40.67796610169491,40,39.66101694915254,40C38.644067796610166,40,37.6271186440678,40,36.610169491525426,40C35.59322033898305,40,34.57627118644068,40,33.559322033898304,40C32.54237288135593,40,31.525423728813557,40,30.508474576271183,40C29.491525423728813,40,28.47457627118644,40,27.45762711864407,40C26.440677966101696,40,25.423728813559322,40,24.406779661016948,40C23.389830508474574,40,22.372881355932204,40,21.35593220338983,40C20.338983050847457,40,19.322033898305087,40,18.305084745762713,40C17.28813559322034,40,16.271186440677965,40,15.254237288135592,40C14.23728813559322,40,13.220338983050846,40,12.203389830508474,40C11.186440677966102,40,10.169491525423728,40,9.152542372881356,40C8.135593220338983,40,7.11864406779661,40,6.101694915254237,40C5.084745762711864,40,4.067796610169491,40,3.0508474576271185,40C2.0338983050847457,40,1.0169491525423728,40,0,40Z"></path><path class="line" stroke="black" fill="none" d="M0,31.738C1.0169491525423728,31.5443,2.0338983050847457,31.3506,3.0508474576271185,31.202C4.067796610169491,31.053400000000003,5.084745762711864,30.99306666666667,6.101694915254237,30.846400000000003C7.11864406779661,30.699733333333334,8.135593220338983,30.487333333333332,9.152542372881356,30.322C10.169491525423728,30.156666666666666,11.186440677966102,30.02086666666667,12.203389830508474,29.854400000000002C13.220338983050846,29.687933333333334,14.23728813559322,29.496,15.254237288135592,29.3232C16.271186440677965,29.150399999999998,17.28813559322034,28.986066666666666,18.305084745762713,28.8176C19.322033898305087,28.64913333333333,20.338983050847457,28.48086666666667,21.35593220338983,28.312400000000004C22.372881355932204,28.143933333333337,23.389830508474574,27.948133333333338,24.406779661016948,27.806800000000003C25.423728813559322,27.665466666666667,26.440677966101696,27.594666666666665,27.45762711864407,27.464399999999998C28.47457627118644,27.33413333333333,29.491525423728813,27.176466666666663,30.508474576271183,27.025199999999998C31.525423728813557,26.873933333333333,32.54237288135593,26.702533333333335,33.559322033898304,26.556800000000003C34.57627118644068,26.41106666666667,35.59322033898305,26.308866666666663,36.610169491525426,26.150799999999997C37.6271186440678,25.99273333333333,38.644067796610166,25.785866666666664,39.66101694915254,25.608399999999996C40.67796610169491,25.43093333333333,41.69491525423729,25.252066666666664,42.71186440677966,25.086C43.728813559322035,24.919933333333333,44.7457627118644,24.75173333333333,45.762711864406775,24.612C46.77966101694915,24.472266666666666,47.79661016949152,24.375999999999998,48.813559322033896,24.2476C49.83050847457627,24.1192,50.847457627118644,23.984466666666666,51.86440677966102,23.8416C52.88135593220339,23.698733333333333,53.898305084745765,23.528266666666667,54.91525423728814,23.3904C55.93220338983051,23.252533333333332,56.94915254237288,23.126199999999997,57.96610169491525,23.0144C58.983050847457626,22.9026,59.99999999999999,22.823066666666666,61.01694915254237,22.7196C62.03389830508474,22.616133333333334,63.05084745762712,22.50153333333333,64.0677966101695,22.3936C65.08474576271186,22.285666666666668,66.10169491525424,22.168200000000002,67.11864406779661,22.072000000000003C68.13559322033899,21.975800000000003,69.15254237288136,21.8908,70.16949152542374,21.816399999999998C71.1864406779661,21.741999999999997,72.20338983050848,21.691533333333332,73.22033898305085,21.6256C74.23728813559322,21.559666666666665,75.2542372881356,21.493933333333334,76.27118644067797,21.4208C77.28813559322033,21.347666666666665,78.30508474576271,21.260133333333332,79.32203389830508,21.186799999999998C80.33898305084746,21.113466666666664,81.35593220338983,21.052,82.37288135593221,20.9808C83.38983050847457,20.9096,84.40677966101696,20.832533333333334,85.42372881355932,20.759600000000002C86.4406779661017,20.686666666666667,87.45762711864407,20.6148,88.47457627118645,20.5432C89.49152542372882,20.4716,90.50847457627118,20.388799999999996,91.52542372881355,20.33C92.54237288135593,20.271199999999997,93.55932203389831,20.252000000000002,94.57627118644069,20.1904C95.59322033898306,20.128800000000002,96.61016949152543,20.03333333333333,97.62711864406779,19.9604C98.64406779661016,19.887466666666665,99.66101694915254,19.829333333333334,100.6779661016949,19.7528C101.69491525423729,19.676266666666667,102.71186440677965,19.588733333333334,103.72881355932203,19.5012C104.7457627118644,19.413666666666668,105.76271186440678,19.30913333333333,106.77966101694915,19.2276C107.79661016949153,19.146066666666666,108.8135593220339,19.08993333333333,109.83050847457628,19.011999999999997C110.84745762711864,18.934066666666663,111.86440677966102,18.844266666666663,112.88135593220339,18.759999999999998C113.89830508474576,18.675733333333334,114.91525423728814,18.593999999999998,115.9322033898305,18.5064C116.94915254237289,18.4188,117.96610169491525,18.32326666666667,118.98305084745763,18.2344C120,18.145533333333333,121.01694915254237,18.069066666666664,122.03389830508473,17.9732C123.05084745762711,17.877333333333333,124.0677966101695,17.7628,125.08474576271188,17.6592C126.10169491525424,17.5556,127.11864406779662,17.462266666666668,128.135593220339,17.3516C129.15254237288136,17.240933333333334,130.16949152542372,17.1164,131.1864406779661,16.9952C132.20338983050846,16.874,133.22033898305085,16.73886666666667,134.23728813559322,16.6244C135.25423728813558,16.509933333333333,136.27118644067798,16.437266666666666,137.28813559322035,16.3084C138.3050847457627,16.17953333333333,139.3220338983051,15.995666666666665,140.33898305084747,15.851199999999999C141.35593220338984,15.706733333333332,142.3728813559322,15.589133333333333,143.38983050847457,15.441600000000001C144.40677966101694,15.294066666666668,145.42372881355934,15.138133333333334,146.4406779661017,14.966C147.45762711864407,14.793866666666666,148.47457627118644,14.587533333333331,149.4915254237288,14.4088C150.50847457627117,14.230066666666666,151.52542372881356,14.057933333333333,152.54237288135593,13.8936C153.5593220338983,13.729266666666666,154.5762711864407,13.585733333333337,155.59322033898306,13.422800000000002C156.61016949152543,13.25986666666667,157.6271186440678,13.087933333333332,158.64406779661016,12.915999999999999C159.66101694915253,12.744066666666665,160.67796610169492,12.576,161.6949152542373,12.391200000000001C162.71186440677965,12.206400000000002,163.72881355932205,12.012666666666668,164.74576271186442,11.8072C165.76271186440678,11.601733333333334,166.77966101694915,11.386,167.79661016949152,11.1584C168.81355932203388,10.9308,169.83050847457628,10.706933333333334,170.84745762711864,10.441600000000001C171.864406779661,10.176266666666669,172.8813559322034,9.863133333333336,173.89830508474577,9.566400000000002C174.91525423728814,9.269666666666668,175.93220338983053,8.971133333333336,176.9491525423729,8.661200000000001C177.96610169491527,8.35126666666667,178.98305084745763,8.029033333333334,180,7.7068"></path><path class="axis-ceiling" stroke-width="1" stroke="black" fill="none" d="M175,0L180,0"></path><text class="axis-ceiling-label" font-family="sans-serif" text-anchor="end" font-size="10px" x="170" y="2.5">100000</text></g></svg>