<svg xmlns="http://www.w3.org/2000/svg" viewBox="0 0 180 60"><g transform="translate(0,20)"><path class="area" fill="rgba(0, 0, 0, 0.2)" d="M0,24.413333333333334C1.0169491525423728,23.35333333333333,2.0338983050847457,22.293333333333333,3.0508474576271185,22.293333333333333C4.067796610169491,22.293333333333333,5.084745762711864,23.13777777777778,6.101694915254237,23.14666666666667C7.11864406779661,23.155555555555555,8.135593220338983,23.159999999999997,9.152542372881356,23.159999999999997C10.169491525423728,23.159999999999997,11.186440677966102,23.14666666666667,12.203389830508474,23.14666666666667C13.220338983050846,23.14666666666667,14.23728813559322,28.586666666666666,15.254237288135592,28.586666666666666C16.271186440677965,28.586666666666666,17.28813559322034,26.00888888888889,18.305084745762713,25.36C19.322033898305087,24.711111111111112,20.338983050847457,24.386666666666667,21.35593220338983,24.386666666666667C22.372881355932204,24.386666666666667,23.389830508474574,26.466666666666665,24.406779661016948,26.466666666666665C25.423728813559322,26.466666666666665,26.440677966101696,21.92,27.45762711864407,21.92C28.47457627118644,21.92,29.491525423728813,22.206666666666667,30.508474576271183,22.586666666666666C31.525423728813557,22.966666666666665,32.54237288135593,23.322222222222223,33.559322033898304,24.2C34.57627118644068,25.077777777777776,35.59322033898305,27.853333333333335,36.610169491525426,27.853333333333335C37.6271186440678,27.853333333333335,38.644067796610166,26.948888888888888,39.66101694915254,26.466666666666665C40.67796610169491,25.984444444444442,41.69491525423729,24.96,42.71186440677966,24.96C43.728813559322035,24.96,44.7457627118644,26.59777777777778,45.762711864406775,27.466666666666665C46.77966101694915,28.335555555555555,47.79661016949152,30.173333333333332,48.813559322033896,30.173333333333332C49.83050847457627,30.173333333333332,50.847457627118644,29.133333333333333,51.86440677966102,29.133333333333333C52.88135593220339,29.133333333333333,53.898305084745765,29.182222222222222,54.91525423728814,29.28C55.93220338983051,29.37777777777778,56.94915254237288,30.753333333333334,57.96610169491525,31.48C58.983050847457626,32.20666666666666,59.99999999999999,33.64,61.01694915254237,33.64C62.03389830508474,33.64,63.05084745762712,33.413333333333334,64.0677966101695,33.17333333333333C65.08474576271186,32.93333333333333,66.10169491525424,32.199999999999996,67.11864406779661,32.199999999999996C68.13559322033899,32.199999999999996,69.15254237288136,33.13333333333333,70.16949152542374,33.13333333333333C71.1864406779661,33.13333333333333,72.20338983050848,32.626666666666665,73.22033898305085,32.626666666666665C74.23728813559322,32.626666666666665,75.2542372881356,32.742222222222225,76.27118644067797,32.78666666666667C77.28813559322033,32.83111111111111,78.30508474576271,32.82222222222222,79.32203389830508,32.89333333333333C80.33898305084746,32.96444444444444,81.35593220338983,35.34666666666667,82.37288135593221,35.34666666666667C83.38983050847457,35.34666666666667,84.40677966101696,32.333333333333336,85.42372881355932,32.333333333333336C86.4406779661017,32.333333333333336,87.45762711864407,33.08,88.47457627118645,33.08C89.49152542372882,33.08,90.50847457627118,31.979999999999997,91.52542372881355,31.613333333333333C92.54237288135593,31.246666666666663,93.55932203389831,30.880000000000003,94.57627118644069,30.880000000000003C95.59322033898306,30.880000000000003,96.61016949152543,32.81333333333333,97.62711864406779,32.81333333333333C98.64406779661016,32.81333333333333,99.66101694915254,31.63555555555556,100.6779661016949,31.6C101.69491525423729,31.564444444444444,102.71186440677965,31.582222222222224,103.72881355932203,31.546666666666667C104.7457627118644,31.51111111111111,105.76271186440678,30.933333333333334,106.77966101694915,30.933333333333334C107.79661016949153,30.933333333333334,108.8135593220339,31.293333333333333,109.83050847457628,31.293333333333333C110.84745762711864,31.293333333333333,111.86440677966102,29.53333333333333,112.88135593220339,29.53333333333333C113.89830508474576,29.53333333333333,114.91525423728814,29.74666666666667,115.9322033898305,29.74666666666667C116.94915254237289,29.74666666666667,117.96610169491525,28.440000000000012,118.98305084745763,28.120000000000005C120,27.8,121.01694915254237,27.64,122.03389830508473,27.64C123.05084745762711,27.64,124.0677966101695,29.46666666666667,125.08474576271188,29.46666666666667C126.10169491525424,29.46666666666667,127.11864406779662,24.759999999999998,128.135593220339,24.759999999999998C129.15254237288136,24.759999999999998,130.16949152542372,26.34666666666667,131.1864406779661,26.34666666666667C132.20338983050846,26.34666666666667,133.22033898305085,24.96666666666667,134.23728813559322,24.14666666666667C135.25423728813558,23.326666666666668,136.27118644067798,21.42666666666667,137.28813559322035,21.42666666666667C138.3050847457627,21.42666666666667,139.3220338983051,22.346666666666664,140.33898305084747,22.826666666666668C141.35593220338984,23.306666666666665,142.3728813559322,24.30666666666667,143.38983050847457,24.30666666666667C144.40677966101694,24.30666666666667,145.42372881355934,23.406666666666666,146.4406779661017,23.106666666666666C147.45762711864407,22.80666666666667,148.47457627118644,22.906666666666666,149.4915254237288,22.506666666666668C150.50847457627117,22.106666666666666,151.52542372881356,21.22222222222222,152.54237288135593,20.53333333333333C153.5593220338983,19.84444444444444,154.5762711864407,19.111111111111118,155.59322033898306,18.373333333333335C156.61016949152543,17.63555555555556,157.6271186440678,17.364444444444434,158.64406779661016,16.106666666666666C159.66101694915253,14.848888888888887,160.67796610169492,11.493333333333334,161.6949152542373,10.826666666666668C162.71186440677965,10.160000000000002,163.72881355932205,10.266666666666671,164.74576271186442,9.826666666666668C165.76271186440678,9.386666666666668,166.77966101694915,8.266666666666667,167.79661016949152,8.186666666666667C168.81355932203388,8.106666666666667,169.83050847457628,8.146666666666667,170.84745762711864,8.066666666666666C171.864406779661,7.9866666666666655,172.8813559322034,5.553333333333332,173.89830508474577,4.773333333333332C174.91525423728814,3.9933333333333314,175.93220338983053,3.3866666666666667,176.9491525423729,3.3866666666666667C177.96610169491527,3.3866666666666667,178.98305084745763,4.126666666666667,180,4.866666666666668L180,40C178.98305084745763,40,177.96610169491527,40,176.9491525423729,40C175.93220338983053,40,174.91525423728814,40,173.89830508474577,40C172.8813559322034,40,171.864406779661,40,170.84745762711864,40C169.83050847457628,40,168.81355932203388,40,167.79661016949152,40C166.77966101694915,40,165.76271186440678,40,164.74576271186442,40C163.72881355932205,40,162.71186440677965,40,161.6949152542373,40C160.67796610169492,40,159.66101694915253,40,158.64406779661016,40C157.6271186440678,40,156.61016949152543,40,155.59322033898306,40C154.5762711864407,40,153.5593220338983,40,152.54237288135593,40C151.52542372881356,40,150.50847457627117,40,149.4915254237288,40C148.47457627118644,40,147.45762711864407,40,146.4406779661017,40C145.42372881355934,40,144.40677966101694,40,143.38983050847457,40C142.3728813559322,40,141.35593220338984,40,140.33898305084747,40C139.3220338983051,40,138.3050847457627,40,137.28813559322035,40C136.27118644067798,40,135.25423728813558,40,134.23728813559322,40C133.22033898305085,40,132.20338983050846,40,131.1864406779661,40C130.16949152542372,40,129.15254237288136,40,128.135593220339,40C127.11864406779662,40,126.10169491525424,40,125.08474576271188,40C124.0677966101695,40,123.05084745762711,40,122.03389830508473,40C121.01694915254237,40,120,40,118.98305084745763,40C117.96610169491525,40,116.94915254237289,40,115.9322033898305,40C114.91525423728814,40,113.89830508474576,40,112.88135593220339,40C111.86440677966102,40,110.84745762711864,40,109.83050847457628,40C108.8135593220339,40,107.79661016949153,40,106.77966101694915,40C105.76271186440678,40,104.7457627118644,40,103.72881355932203,40C102.71186440677965,40,101.69491525423729,40,100.6779661016949,40C99.66101694915254,40,98.64406779661016,40,97.62711864406779,40C96.61016949152543,40,95.59322033898306,40,94.57627118644069,40C93.55932203389831,40,92.54237288135593,40,91.52542372881355,40C90.50847457627118,40,89.49152542372882,40,88.47457627118645,40C87.45762711864407,40,86.4406779661017,40,85.42372881355932,40C84.40677966101696,40,83.38983050847457,40,82.37288135593221,40C81.35593220338983,40,80.33898305084746,40,79.32203389830508,40C78.30508474576271,40,77.28813559322033,40,76.27118644067797,40C75.2542372881356,40,74.23728813559322,40,73.22033898305085,40C72.20338983050848,40,71.1864406779661,40,70.16949152542374,40C69.15254237288136,40,68.13559322033899,40,67.11864406779661,40C66.10169491525424,40,65.08474576271186,40,64.0677966101695,40C63.05084745762712,40,62.03389830508474,40,61.01694915254237,40C59.99999999999999,40,58.983050847457626,40,57.96610169491525,40C56.94915254237288,40,55.93220338983051,40,54.91525423728814,40C53.898305084745765,40,52.88135593220339,40,51.86440677966102,40C50.847457627118644,40,49.83050847457627,40,48.813559322033896,40C47.79661016949152,40,46.77966101694915,40,45.762711864406775,40C44.7457627118644,40,43.728813559322035,40,42.71186440677966,40C41.69491525423729,40,40.67796610169491,40,39.66101694915254,40C38.644067796610166,40,37.6271186440678,40,36.610169491525426,40C35.59322033898305,40,34.57627118644068,40,33.559322033898304,40C32.54237288135593,40,31.525423728813557,40,30.508474576271183,40C29.491525423728813,40,28.47457627118644,40,27.45762711864407,40C26.440677966101696,40,25.423728813559322,40,24.406779661016948,40C23.389830508474574,40,22.372881355932204,40,21.35593220338983,40C20.338983050847457,40,19.322033898305087,40,18.305084745762713,40C17.28813559322034,40,16.271186440677965,40,15.254237288135592,40C14.23728813559322,40,13.220338983050846,40,12.203389830508474,40C11.186440677966102,40,10.169491525423728,40,9.152542372881356,40C8.135593220338983,40,7.11864406779661,40,6.101694915254237,40C5.084745762711864,40,4.067796610169491,40,3.0508474576271185,40C2.0338983050847457,40,1.0169491525423728,40,0,40Z"></path><path class="line" stroke="black" fill="none" d="M0,24.413333333333334C1.0169491525423728,23.35333333333333,2.0338983050847457,22.293333333333333,3.0508474576271185,22.293333333333333C4.067796610169491,22.293333333333333,5.084745762711864,23.13777777777778,6.101694915254237,23.14666666666667C7.11864406779661,23.155555555555555,8.135593220338983,23.159999999999997,9.152542372881356,23.159999999999997C10.169491525423728,23.159999999999997,11.186440677966102,23.14666666666667,12.203389830508474,23.14666666666667C13.220338983050846,23.14666666666667,14.23728813559322,28.586666666666666,15.254237288135592,28.586666666666666C16.271186440677965,28.586666666666666,17.28813559322034,26.00888888888889,18.305084745762713,25.36C19.322033898305087,24.711111111111112,20.338983050847457,24.386666666666667,21.35593220338983,24.386666666666667C22.372881355932204,24.386666666666667,23.389830508474574,26.466666666666665,24.406779661016948,26.466666666666665C25.423728813559322,26.466666666666665,26.440677966101696,21.92,27.45762711864407,21.92C28.47457627118644,21.92,29.491525423728813,22.206666666666667,30.508474576271183,22.586666666666666C31.525423728813557,22.966666666666665,32.54237288135593,23.322222222222223,33.559322033898304,24.2C34.57627118644068,25.077777777777776,35.59322033898305,27.853333333333335,36.610169491525426,27.853333333333335C37.6271186440678,27.853333333333335,38.644067796610166,26.948888888888888,39.66101694915254,26.466666666666665C40.67796610169491,25.984444444444442,41.69491525423729,24.96,42.71186440677966,24.96C43.728813559322035,24.96,44.7457627118644,26.59777777777778,45.762711864406775,27.466666666666665C46.77966101694915,28.335555555555555,47.79661016949152,30.173333333333332,48.813559322033896,30.173333333333332C49.83050847457627,30.173333333333332,50.847457627118644,29.133333333333333,51.86440677966102,29.133333333333333C52.88135593220339,29.133333333333333,53.898305084745765,29.182222222222222,54.91525423728814,29.28C55.93220338983051,29.37777777777778,56.94915254237288,30.753333333333334,57.96610169491525,31.48C58.983050847457626,32.20666666666666,59.99999999999999,33.64,61.01694915254237,33.64C62.03389830508474,33.64,63.05084745762712,33.413333333333334,64.0677966101695,33.17333333333333C65.08474576271186,32.93333333333333,66.10169491525424,32.199999999999996,67.11864406779661,32.199999999999996C68.13559322033899,32.199999999999996,69.15254237288136,33.13333333333333,70.16949152542374,33.13333333333333C71.1864406779661,33.13333333333333,72.20338983050848,32.626666666666665,73.22033898305085,32.626666666666665C74.23728813559322,32.626666666666665,75.2542372881356,32.742222222222225,76.27118644067797,32.78666666666667C77.28813559322033,32.83111111111111,78.30508474576271,32.82222222222222,79.32203389830508,32.89333333333333C80.33898305084746,32.96444444444444,81.35593220338983,35.34666666666667,82.37288135593221,35.34666666666667C83.38983050847457,35.34666666666667,84.40677966101696,32.333333333333336,85.42372881355932,32.333333333333336C86.4406779661017,32.333333333333336,87.45762711864407,33.08,88.47457627118645,33.08C89.49152542372882,33.08,90.50847457627118,31.979999999999997,91.52542372881355,31.613333333333333C92.54237288135593,31.246666666666663,93.55932203389831,30.880000000000003,94.57627118644069,30.880000000000003C95.59322033898306,30.880000000000003,96.61016949152543,32.81333333333333,97.62711864406779,32.81333333333333C98.64406779661016,32.81333333333333,99.66101694915254,31.63555555555556,100.6779661016949,31.6C101.69491525423729,31.564444444444444,102.71186440677965,31.582222222222224,103.72881355932203,31.546666666666667C104.7457627118644,31.51111111111111,105.76271186440678,30.933333333333334,106.77966101694915,30.933333333333334C107.79661016949153,30.933333333333334,108.8135593220339,31.293333333333333,109.83050847457628,31.293333333333333C110.84745762711864,31.293333333333333,111.86440677966102,29.53333333333333,112.88135593220339,29.53333333333333C113.89830508474576,29.53333333333333,114.91525423728814,29.74666666666667,115.9322033898305,29.74666666666667C116.94915254237289,29.74666666666667,117.96610169491525,28.440000000000012,118.98305084745763,28.120000000000005C120,27.8,121.01694915254237,27.64,122.03389830508473,27.64C123.05084745762711,27.64,124.0677966101695,29.46666666666667,125.08474576271188,29.46666666666667C126.10169491525424,29.46666666666667,127.11864406779662,24.759999999999998,128.135593220339,24.759999999999998C129.15254237288136,24.759999999999998,130.16949152542372,26.34666666666667,131.1864406779661,26.34666666666667C132.20338983050846,26.34666666666667,133.22033898305085,24.96666666666667,134.23728813559322,24.14666666666667C135.25423728813558,23.326666666666668,136.27118644067798,21.42666666666667,137.28813559322035,21.42666666666667C138.3050847457627,21.42666666666667,139.3220338983051,22.346666666666664,140.33898305084747,22.826666666666668C141.35593220338984,23.306666666666665,142.3728813559322,24.30666666666667,143.38983050847457,24.30666666666667C144.40677966101694,24.30666666666667,145.42372881355934,23.406666666666666,146.4406779661017,23.106666666666666C147.45762711864407,22.80666666666667,148.47457627118644,22.906666666666666,149.4915254237288,22.506666666666668C150.50847457627117,22.106666666666666,151.52542372881356,21.22222222222222,152.54237288135593,20.53333333333333C153.5593220338983,19.84444444444444,154.5762711864407,19.111111111111118,155.59322033898306,18.373333333333335C156.61016949152543,17.63555555555556,157.6271186440678,17.364444444444434,158.64406779661016,16.106666666666666C159.66101694915253,14.848888888888887,160.67796610169492,11.493333333333334,161.6949152542373,10.826666666666668C162.71186440677965,10.160000000000002,163.72881355932205,10.266666666666671,164.74576271186442,9.826666666666668C165.76271186440678,9.386666666666668,166.77966101694915,8.266666666666667,167.79661016949152,8.186666666666667C168.81355932203388,8.106666666666667,169.83050847457628,8.146666666666667,170.84745762711864,8.066666666666666C171.864406779661,7.9866666666666655,172.8813559322034,5.553333333333332,173.89830508474577,4.773333333333332C174.91525423728814,3.9933333333333314,175.93220338983053,3.3866666666666667,176.9491525423729,3.3866666666666667C177.96610169491527,3.3866666666666667,178.98305084745763,4.126666666666667,180,4.866666666666668"></path><path class="axis-ceiling" stroke-width="1" stroke="black" fill="none" d="M175,0L180,0"></path><text class="axis-ceiling-label" font-family="sans-serif" text-anchor="end" font-size="10px" x="170" y="2.5">3000</text></g></svg>