<svg xmlns="http://www.w3.org/2000/svg" viewBox="0 0 180 60"><g transform="translate(0,20)"><path class="area" fill="rgba(0, 0, 0, 0.2)" d="M0,39.2C0.576923076923077,39.2,1.1538461538461537,39.2,1.7307692307692308,39.2C2.307692307692308,39.2,2.8846153846153846,39.2,3.4615384615384617,39.2C4.038461538461538,39.2,4.615384615384616,39.2,5.1923076923076925,39.2C5.769230769230769,39.2,6.346153846153847,39.2,6.923076923076923,39.2C8.076923076923077,39.2,9.230769230769232,38.8,10.384615384615385,38.8C11.538461538461538,38.8,12.692307692307693,38.8,13.846153846153847,38.8C15.000000000000002,38.8,16.153846153846157,38.4,17.30769230769231,38.4C18.461538461538463,38.4,19.615384615384617,38.8,20.76923076923077,38.8C21.923076923076923,38.8,23.076923076923077,38.8,24.23076923076923,38.8C26.538461538461537,38.8,28.846153846153847,38.8,31.153846153846153,38.8C35.19230769230769,38.8,39.23076923076923,38.8,43.269230769230774,38.8C43.84615384615385,38.8,44.42307692307693,39.13333333333334,45,39.2C47.30769230769231,39.46666666666667,49.61538461538461,39.6,51.92307692307692,39.6C53.65384615384615,39.6,55.38461538461538,39.6,57.11538461538461,39.6C57.69230769230769,39.6,58.26923076923077,39.6,58.84615384615385,39.6C59.42307692307693,39.6,60,39.6,60.57692307692308,39.6C61.73076923076923,39.6,62.884615384615394,39.6,64.03846153846155,39.6C68.65384615384616,39.6,73.26923076923077,39.6,77.88461538461539,39.6C79.03846153846155,39.6,80.1923076923077,39.6,81.34615384615385,39.6C85.96153846153847,39.6,90.57692307692308,39.6,95.1923076923077,39.6C96.34615384615385,39.6,97.5,39.6,98.65384615384616,39.6C100.96153846153847,39.6,103.26923076923077,39.6,105.57692307692308,39.6C106.15384615384616,39.6,106.73076923076923,39.6,107.3076923076923,39.6C107.88461538461539,39.6,108.46153846153845,39.6,109.03846153846153,39.6C111.34615384615384,39.6,113.65384615384616,39.6,115.96153846153847,39.6C117.11538461538461,39.6,118.26923076923077,39.6,119.42307692307692,39.6C120,39.6,120.57692307692308,39.2,121.15384615384616,39.2C121.73076923076924,39.2,122.3076923076923,39.2,122.88461538461539,39.2C123.46153846153847,39.2,124.03846153846153,39.2,124.61538461538461,39.2C125.1923076923077,39.2,125.76923076923076,38.4,126.34615384615384,38.4C126.92307692307692,38.4,127.50000000000001,38.4,128.0769230769231,38.4C128.65384615384616,38.4,129.23076923076923,38.4,129.8076923076923,38.4C130.96153846153845,38.4,132.1153846153846,38.8,133.26923076923077,38.8C133.84615384615384,38.8,134.42307692307693,38.8,135,38.8C135.57692307692307,38.8,136.15384615384616,38.8,136.73076923076923,38.8C137.30769230769232,38.8,137.8846153846154,38.8,138.46153846153848,38.8C139.03846153846155,38.8,139.61538461538464,39.2,140.1923076923077,39.2C141.34615384615387,39.2,142.5,38.8,143.65384615384616,38.8C144.23076923076923,38.8,144.80769230769232,38.8,145.3846153846154,38.8C145.96153846153845,38.8,146.53846153846155,38.8,147.1153846153846,38.8C147.69230769230768,38.8,148.26923076923077,38.533333333333324,148.84615384615384,38C149.42307692307693,37.46666666666667,150,36.13333333333333,150.5769230769231,35.6C151.15384615384616,35.066666666666684,151.73076923076923,35.333333333333336,152.3076923076923,34.8C152.88461538461536,34.26666666666665,153.46153846153845,32.53333333333333,154.03846153846152,31.6C154.6153846153846,30.666666666666657,155.19230769230768,30.133333333333344,155.76923076923077,29.2C156.34615384615384,28.266666666666673,156.92307692307693,28.133333333333333,157.5,26C158.07692307692307,23.866666666666667,158.65384615384616,18.6,159.23076923076923,16.400000000000002C159.80769230769232,14.199999999999967,160.3846153846154,13.066666666666665,160.96153846153848,12.799999999999997C161.53846153846155,12.533333333333333,162.11538461538464,12.666666666666666,162.6923076923077,12.400000000000002C163.26923076923077,12.133333333333344,163.84615384615384,7.066666666666634,164.4230769230769,6.000000000000001C165,4.933333333333334,165.57692307692307,4.3999999999999995,166.15384615384616,4.3999999999999995C166.73076923076923,4.3999999999999995,167.30769230769232,4.8,167.8846153846154,4.8C168.46153846153845,4.8,169.03846153846155,1.200000000000001,169.6153846153846,1.200000000000001C170.19230769230768,1.200000000000001,170.76923076923077,6.400000000000001,171.34615384615384,6.400000000000001C171.92307692307693,6.400000000000001,172.5,5.733333333333362,173.0769230769231,4.8C173.65384615384616,3.8666666666666685,174.23076923076923,0.8000000000000007,174.8076923076923,0.8000000000000007C175.38461538461536,0.8000000000000007,175.96153846153845,2.0000000000000036,176.53846153846152,2.400000000000002C177.1153846153846,2.8000000000000074,177.69230769230768,3.1999999999999984,178.26923076923077,3.1999999999999984C178.84615384615384,3.1999999999999984,179.42307692307693,2.1999999999999997,180,1.200000000000001L180,40C179.42307692307693,40,178.84615384615384,40,178.26923076923077,40C177.69230769230768,40,177.1153846153846,40,176.53846153846152,40C175.96153846153845,40,175.38461538461536,40,174.8076923076923,40C174.23076923076923,40,173.65384615384616,40,173.0769230769231,40C172.5,40,171.92307692307693,40,171.34615384615384,40C170.76923076923077,40,170.19230769230768,40,169.6153846153846,40C169.03846153846155,40,168.46153846153845,40,167.8846153846154,40C167.30769230769232,40,166.73076923076923,40,166.15384615384616,40C165.57692307692307,40,165,40,164.4230769230769,40C163.84615384615384,40,163.26923076923077,40,162.6923076923077,40C162.11538461538464,40,161.53846153846155,40,160.96153846153848,40C160.3846153846154,40,159.80769230769232,40,159.23076923076923,40C158.65384615384616,40,158.07692307692307,40,157.5,40C156.92307692307693,40,156.34615384615384,40,155.76923076923077,40C155.19230769230768,40,154.6153846153846,40,154.03846153846152,40C153.46153846153845,40,152.88461538461536,40,152.3076923076923,40C151.73076923076923,40,151.15384615384616,40,150.5769230769231,40C150,40,149.42307692307693,40,148.84615384615384,40C148.26923076923077,40,147.69230769230768,40,147.1153846153846,40C146.53846153846155,40,145.96153846153845,40,145.3846153846154,40C144.80769230769232,40,144.23076923076923,40,143.65384615384616,40C142.5,40,141.34615384615387,40,140.1923076923077,40C139.61538461538464,40,139.03846153846155,40,138.46153846153848,40C137.8846153846154,40,137.30769230769232,40,136.73076923076923,40C136.15384615384616,40,135.57692307692307,40,135,40C134.42307692307693,40,133.84615384615384,40,133.26923076923077,40C132.1153846153846,40,130.96153846153845,40,129.8076923076923,40C129.23076923076923,40,128.65384615384616,40,128.0769230769231,40C127.50000000000001,40,126.92307692307692,40,126.34615384615384,40C125.76923076923076,40,125.1923076923077,40,124.61538461538461,40C124.03846153846153,40,123.46153846153847,40,122.88461538461539,40C122.3076923076923,40,121.73076923076924,40,121.15384615384616,40C120.57692307692308,40,120,40,119.42307692307692,40C118.26923076923077,40,117.11538461538461,40,115.96153846153847,40C113.65384615384616,40,111.34615384615384,40,109.03846153846153,40C108.46153846153845,40,107.88461538461539,40,107.3076923076923,40C106.73076923076923,40,106.15384615384616,40,105.57692307692308,40C103.26923076923077,40,100.96153846153847,40,98.65384615384616,40C97.5,40,96.34615384615385,40,95.1923076923077,40C90.57692307692308,40,85.96153846153847,40,81.34615384615385,40C80.1923076923077,40,79.03846153846155,40,77.88461538461539,40C73.26923076923077,40,68.65384615384616,40,64.03846153846155,40C62.884615384615394,40,61.73076923076923,40,60.57692307692308,40C60,40,59.42307692307693,40,58.84615384615385,40C58.26923076923077,40,57.69230769230769,40,57.11538461538461,40C55.38461538461538,40,53.65384615384615,40,51.92307692307692,40C49.61538461538461,40,47.30769230769231,40,45,40C44.42307692307693,40,43.84615384615385,40,43.269230769230774,40C39.23076923076923,40,35.19230769230769,40,31.153846153846153,40C28.846153846153847,40,26.538461538461537,40,24.23076923076923,40C23.076923076923077,40,21.923076923076923,40,20.76923076923077,40C19.615384615384617,40,18.461538461538463,40,17.30769230769231,40C16.153846153846157,40,15.000000000000002,40,13.846153846153847,40C12.692307692307693,40,11.538461538461538,40,10.384615384615385,40C9.230769230769232,40,8.076923076923077,40,6.923076923076923,40C6.346153846153847,40,5.769230769230769,40,5.1923076923076925,40C4.615384615384616,40,4.038461538461538,40,3.4615384615384617,40C2.8846153846153846,40,2.307692307692308,40,1.7307692307692308,40C1.1538461538461537,40,0.576923076923077,40,0,40Z"></path><path class="line" stroke="black" fill="none" d="M0,39.2C0.576923076923077,39.2,1.1538461538461537,39.2,1.7307692307692308,39.2C2.307692307692308,39.2,2.8846153846153846,39.2,3.4615384615384617,39.2C4.038461538461538,39.2,4.615384615384616,39.2,5.1923076923076925,39.2C5.769230769230769,39.2,6.346153846153847,39.2,6.923076923076923,39.2C8.076923076923077,39.2,9.230769230769232,38.8,10.384615384615385,38.8C11.538461538461538,38.8,12.692307692307693,38.8,13.846153846153847,38.8C15.000000000000002,38.8,16.153846153846157,38.4,17.30769230769231,38.4C18.461538461538463,38.4,19.615384615384617,38.8,20.76923076923077,38.8C21.923076923076923,38.8,23.076923076923077,38.8,24.23076923076923,38.8C26.538461538461537,38.8,28.846153846153847,38.8,31.153846153846153,38.8C35.19230769230769,38.8,39.23076923076923,38.8,43.269230769230774,38.8C43.84615384615385,38.8,44.42307692307693,39.13333333333334,45,39.2C47.30769230769231,39.46666666666667,49.61538461538461,39.6,51.92307692307692,39.6C53.65384615384615,39.6,55.38461538461538,39.6,57.11538461538461,39.6C57.69230769230769,39.6,58.26923076923077,39.6,58.84615384615385,39.6C59.42307692307693,39.6,60,39.6,60.57692307692308,39.6C61.73076923076923,39.6,62.884615384615394,39.6,64.03846153846155,39.6C68.65384615384616,39.6,73.26923076923077,39.6,77.88461538461539,39.6C79.03846153846155,39.6,80.1923076923077,39.6,81.34615384615385,39.6C85.96153846153847,39.6,90.57692307692308,39.6,95.1923076923077,39.6C96.34615384615385,39.6,97.5,39.6,98.65384615384616,39.6C100.96153846153847,39.6,103.26923076923077,39.6,105.57692307692308,39.6C106.15384615384616,39.6,106.73076923076923,39.6,107.3076923076923,39.6C107.88461538461539,39.6,108.46153846153845,39.6,109.03846153846153,39.6C111.34615384615384,39.6,113.65384615384616,39.6,115.96153846153847,39.6C117.11538461538461,39.6,118.26923076923077,39.6,119.42307692307692,39.6C120,39.6,120.57692307692308,39.2,121.15384615384616,39.2C121.73076923076924,39.2,122.3076923076923,39.2,122.88461538461539,39.2C123.46153846153847,39.2,124.03846153846153,39.2,124.61538461538461,39.2C125.1923076923077,39.2,125.76923076923076,38.4,126.34615384615384,38.4C126.92307692307692,38.4,127.50000000000001,38.4,128.0769230769231,38.4C128.65384615384616,38.4,129.23076923076923,38.4,129.8076923076923,38.4C130.96153846153845,38.4,132.1153846153846,38.8,133.26923076923077,38.8C133.84615384615384,38.8,134.42307692307693,38.8,135,38.8C135.57692307692307,38.8,136.15384615384616,38.8,136.73076923076923,38.8C137.30769230769232,38.8,137.8846153846154,38.8,138.46153846153848,38.8C139.03846153846155,38.8,139.61538461538464,39.2,140.1923076923077,39.2C141.34615384615387,39.2,142.5,38.8,143.65384615384616,38.8C144.23076923076923,38.8,144.80769230769232,38.8,145.3846153846154,38.8C145.96153846153845,38.8,146.53846153846155,38.8,147.1153846153846,38.8C147.69230769230768,38.8,148.26923076923077,38.533333333333324,148.84615384615384,38C149.42307692307693,37.46666666666667,150,36.13333333333333,150.5769230769231,35.6C151.15384615384616,35.066666666666684,151.73076923076923,35.333333333333336,152.3076923076923,34.8C152.88461538461536,34.26666666666665,153.46153846153845,32.53333333333333,154.03846153846152,31.6C154.6153846153846,30.666666666666657,155.19230769230768,30.133333333333344,155.76923076923077,29.2C156.34615384615384,28.266666666666673,156.92307692307693,28.133333333333333,157.5,26C158.07692307692307,23.866666666666667,158.65384615384616,18.6,159.23076923076923,16.400000000000002C159.80769230769232,14.199999999999967,160.3846153846154,13.066666666666665,160.96153846153848,12.799999999999997C161.53846153846155,12.533333333333333,162.11538461538464,12.666666666666666,162.6923076923077,12.400000000000002C163.26923076923077,12.133333333333344,163.84615384615384,7.066666666666634,164.4230769230769,6.000000000000001C165,4.933333333333334,165.57692307692307,4.3999999999999995,166.15384615384616,4.3999999999999995C166.73076923076923,4.3999999999999995,167.30769230769232,4.8,167.8846153846154,4.8C168.46153846153845,4.8,169.03846153846155,1.200000000000001,169.6153846153846,1.200000000000001C170.19230769230768,1.200000000000001,170.76923076923077,6.400000000000001,171.34615384615384,6.400000000000001C171.92307692307693,6.400000000000001,172.5,5.733333333333362,173.0769230769231,4.8C173.65384615384616,3.8666666666666685,174.23076923076923,0.8000000000000007,174.8076923076923,0.8000000000000007C175.38461538461536,0.8000000000000007,175.96153846153845,2.0000000000000036,176.53846153846152,2.400000000000002C177.1153846153846,2.8000000000000074,177.69230769230768,3.1999999999999984,178.26923076923077,3.1999999999999984C178.84615384615384,3.1999999999999984,179.42307692307693,2.1999999999999997,180,1.200000000000001"></path><path class="axis-ceiling" stroke-width="1" stroke="black" fill="none" d="M175,0L180,0"></path><text class="axis-ceiling-label" font-family="sans-serif" text-anchor="end" font-size="10px" x="170" y="2.5">100</text></g></svg>