<svg xmlns="http://www.w3.org/2000/svg" viewBox="0 0 180 60"><g transform="translate(0,20)"><path class="area" fill="rgba(0, 0, 0, 0.2)" d="M0,27.599999999999998C1.0169491525423728,27.397777777777776,2.0338983050847457,27.19555555555555,3.0508474576271185,26.959999999999997C4.067796610169491,26.724444444444444,5.084745762711864,26.444444444444443,6.101694915254237,26.186666666666667C7.11864406779661,25.92888888888889,8.135593220338983,25.693333333333335,9.152542372881356,25.413333333333334C10.169491525423728,25.133333333333333,11.186440677966102,24.8,12.203389830508474,24.506666666666668C13.220338983050846,24.213333333333335,14.23728813559322,23.919999999999995,15.254237288135592,23.65333333333333C16.271186440677965,23.386666666666663,17.28813559322034,23.146666666666665,18.305084745762713,22.906666666666666C19.322033898305087,22.666666666666668,20.338983050847457,22.44,21.35593220338983,22.213333333333335C22.372881355932204,21.986666666666668,23.389830508474574,21.76,24.406779661016948,21.546666666666667C25.423728813559322,21.333333333333332,26.440677966101696,21.128888888888888,27.45762711864407,20.933333333333334C28.47457627118644,20.73777777777778,29.491525423728813,20.546666666666667,30.508474576271183,20.373333333333335C31.525423728813557,20.2,32.54237288135593,20.04444444444444,33.559322033898304,19.89333333333333C34.57627118644068,19.74222222222222,35.59322033898305,19.60888888888889,36.610169491525426,19.46666666666667C37.6271186440678,19.324444444444445,38.644067796610166,19.168888888888887,39.66101694915254,19.04C40.67796610169491,18.91111111111111,41.69491525423729,18.804444444444446,42.71186440677966,18.693333333333335C43.728813559322035,18.582222222222224,44.7457627118644,18.46666666666667,45.762711864406775,18.373333333333335C46.77966101694915,18.28,47.79661016949152,18.235555555555557,48.813559322033896,18.133333333333333C49.83050847457627,18.03111111111111,50.847457627118644,17.875555555555554,51.86440677966102,17.759999999999998C52.88135593220339,17.644444444444442,53.898305084745765,17.546666666666667,54.91525423728814,17.44C55.93220338983051,17.333333333333336,56.94915254237288,17.222222222222225,57.96610169491525,17.12C58.983050847457626,17.017777777777777,59.99999999999999,16.924444444444443,61.01694915254237,16.826666666666664C62.03389830508474,16.728888888888886,63.05084745762712,16.62222222222222,64.0677966101695,16.53333333333333C65.08474576271186,16.444444444444443,66.10169491525424,16.368888888888886,67.11864406779661,16.293333333333333C68.13559322033899,16.217777777777776,69.15254237288136,16.133333333333336,70.16949152542374,16.080000000000002C71.1864406779661,16.026666666666667,72.20338983050848,16.00888888888889,73.22033898305085,15.973333333333333C74.23728813559322,15.937777777777777,75.2542372881356,15.90222222222222,76.27118644067797,15.866666666666664C77.28813559322033,15.831111111111108,78.30508474576271,15.791111111111112,79.32203389830508,15.760000000000002C80.33898305084746,15.728888888888891,81.35593220338983,15.715555555555556,82.37288135593221,15.68C83.38983050847457,15.644444444444444,84.40677966101696,15.600000000000001,85.42372881355932,15.546666666666669C86.4406779661017,15.493333333333336,87.45762711864407,15.426666666666666,88.47457627118645,15.36C89.49152542372882,15.293333333333333,90.50847457627118,15.231111111111112,91.52542372881355,15.146666666666668C92.54237288135593,15.062222222222223,93.55932203389831,14.959999999999999,94.57627118644069,14.853333333333332C95.59322033898306,14.746666666666666,96.61016949152543,14.657777777777778,97.62711864406779,14.506666666666668C98.64406779661016,14.355555555555556,99.66101694915254,14.133333333333333,100.6779661016949,13.946666666666667C101.69491525423729,13.76,102.71186440677965,13.564444444444446,103.72881355932203,13.386666666666667C104.7457627118644,13.20888888888889,105.76271186440678,13.044444444444443,106.77966101694915,12.879999999999999C107.79661016949153,12.715555555555554,108.8135593220339,12.582222222222224,109.83050847457628,12.400000000000002C110.84745762711864,12.21777777777778,111.86440677966102,11.982222222222221,112.88135593220339,11.786666666666665C113.89830508474576,11.59111111111111,114.91525423728814,11.426666666666664,115.9322033898305,11.226666666666665C116.94915254237289,11.026666666666666,117.96610169491525,10.77777777777778,118.98305084745763,10.58666666666667C120,10.39555555555556,121.01694915254237,10.257777777777777,122.03389830508473,10.08C123.05084745762711,9.902222222222221,124.0677966101695,9.702222222222222,125.08474576271188,9.52C126.10169491525424,9.337777777777779,127.11864406779662,9.177777777777779,128.135593220339,8.986666666666668C129.15254237288136,8.795555555555557,130.16949152542372,8.564444444444446,131.1864406779661,8.373333333333335C132.20338983050846,8.182222222222222,133.22033898305085,8.026666666666666,134.23728813559322,7.839999999999998C135.25423728813558,7.6533333333333315,136.27118644067798,7.435555555555556,137.28813559322035,7.253333333333334C138.3050847457627,7.071111111111112,139.3220338983051,6.928888888888888,140.33898305084747,6.746666666666665C141.35593220338984,6.564444444444444,142.3728813559322,6.351111111111111,143.38983050847457,6.160000000000001C144.40677966101694,5.968888888888889,145.42372881355934,5.804444444444447,146.4406779661017,5.6000000000000005C147.45762711864407,5.395555555555556,148.47457627118644,5.146666666666665,149.4915254237288,4.933333333333332C150.50847457627117,4.719999999999997,151.52542372881356,4.528888888888888,152.54237288135593,4.319999999999999C153.5593220338983,4.111111111111111,154.5762711864407,3.8844444444444437,155.59322033898306,3.679999999999999C156.61016949152543,3.4755555555555557,157.6271186440678,3.2844444444444445,158.64406779661016,3.0933333333333346C159.66101694915253,2.902222222222223,160.67796610169492,2.7066666666666674,161.6949152542373,2.533333333333334C162.71186440677965,2.3600000000000008,163.72881355932205,2.2044444444444458,164.74576271186442,2.0533333333333337C165.76271186440678,1.902222222222223,166.77966101694915,1.759999999999998,167.79661016949152,1.6266666666666652C168.81355932203388,1.493333333333331,169.83050847457628,1.3822222222222218,170.84745762711864,1.253333333333333C171.864406779661,1.1244444444444441,172.8813559322034,0.9733333333333327,173.89830508474577,0.8533333333333326C174.91525423728814,0.7333333333333325,175.93220338983053,0.6399999999999996,176.9491525423729,0.5333333333333323C177.96610169491527,0.4266666666666661,178.98305084745763,0.31999999999999906,180,0.21333333333333204L180,40C178.98305084745763,40,177.96610169491527,40,176.9491525423729,40C175.93220338983053,40,174.91525423728814,40,173.89830508474577,40C172.8813559322034,40,171.864406779661,40,170.84745762711864,40C169.83050847457628,40,168.81355932203388,40,167.79661016949152,40C166.77966101694915,40,165.76271186440678,40,164.74576271186442,40C163.72881355932205,40,162.71186440677965,40,161.6949152542373,40C160.67796610169492,40,159.66101694915253,40,158.64406779661016,40C157.6271186440678,40,156.61016949152543,40,155.59322033898306,40C154.5762711864407,40,153.5593220338983,40,152.54237288135593,40C151.52542372881356,40,150.50847457627117,40,149.4915254237288,40C148.47457627118644,40,147.45762711864407,40,146.4406779661017,40C145.42372881355934,40,144.40677966101694,40,143.38983050847457,40C142.3728813559322,40,141.35593220338984,40,140.33898305084747,40C139.3220338983051,40,138.3050847457627,40,137.28813559322035,40C136.27118644067798,40,135.25423728813558,40,134.23728813559322,40C133.22033898305085,40,132.20338983050846,40,131.1864406779661,40C130.16949152542372,40,129.15254237288136,40,128.135593220339,40C127.11864406779662,40,126.10169491525424,40,125.08474576271188,40C124.0677966101695,40,123.05084745762711,40,122.03389830508473,40C121.01694915254237,40,120,40,118.98305084745763,40C117.96610169491525,40,116.94915254237289,40,115.9322033898305,40C114.91525423728814,40,113.89830508474576,40,112.88135593220339,40C111.86440677966102,40,110.84745762711864,40,109.83050847457628,40C108.8135593220339,40,107.79661016949153,40,106.77966101694915,40C105.76271186440678,40,104.7457627118644,40,103.72881355932203,40C102.71186440677965,40,101.69491525423729,40,100.6779661016949,40C99.66101694915254,40,98.64406779661016,40,97.62711864406779,40C96.61016949152543,40,95.59322033898306,40,94.57627118644069,40C93.55932203389831,40,92.54237288135593,40,91.52542372881355,40C90.50847457627118,40,89.49152542372882,40,88.47457627118645,40C87.45762711864407,40,86.4406779661017,40,85.42372881355932,40C84.40677966101696,40,83.38983050847457,40,82.37288135593221,40C81.35593220338983,40,80.33898305084746,40,79.32203389830508,40C78.30508474576271,40,77.28813559322033,40,76.27118644067797,40C75.2542372881356,40,74.23728813559322,40,73.22033898305085,40C72.20338983050848,40,71.1864406779661,40,70.16949152542374,40C69.15254237288136,40,68.13559322033899,40,67.11864406779661,40C66.10169491525424,40,65.08474576271186,40,64.0677966101695,40C63.05084745762712,40,62.03389830508474,40,61.01694915254237,40C59.99999999999999,40,58.983050847457626,40,57.96610169491525,40C56.94915254237288,40,55.93220338983051,40,54.91525423728814,40C53.898305084745765,40,52.88135593220339,40,51.86440677966102,40C50.847457627118644,40,49.83050847457627,40,48.813559322033896,40C47.79661016949152,40,46.77966101694915,40,45.762711864406775,40C44.7457627118644,40,43.728813559322035,40,42.71186440677966,40C41.69491525423729,40,40.67796610169491,40,39.66101694915254,40C38.644067796610166,40,37.6271186440678,40,36.610169491525426,40C35.59322033898305,40,34.57627118644068,40,33.559322033898304,40C32.54237288135593,40,31.525423728813557,40,30.508474576271183,40C29.491525423728813,40,28.47457627118644,40,27.45762711864407,40C26.440677966101696,40,25.423728813559322,40,24.406779661016948,40C23.389830508474574,40,22.372881355932204,40,21.35593220338983,40C20.338983050847457,40,19.322033898305087,40,18.305084745762713,40C17.28813559322034,40,16.271186440677965,40,15.254237288135592,40C14.23728813559322,40,13.220338983050846,40,12.203389830508474,40C11.186440677966102,40,10.169491525423728,40,9.152542372881356,40C8.135593220338983,40,7.11864406779661,40,6.101694915254237,40C5.084745762711864,40,4.067796610169491,40,3.0508474576271185,40C2.0338983050847457,40,1.0169491525423728,40,0,40Z"></path><path class="line" stroke="black" fill="none" d="M0,27.599999999999998C1.0169491525423728,27.397777777777776,2.0338983050847457,27.19555555555555,3.0508474576271185,26.959999999999997C4.067796610169491,26.724444444444444,5.084745762711864,26.444444444444443,6.101694915254237,26.186666666666667C7.11864406779661,25.92888888888889,8.135593220338983,25.693333333333335,9.152542372881356,25.413333333333334C10.169491525423728,25.133333333333333,11.186440677966102,24.8,12.203389830508474,24.506666666666668C13.220338983050846,24.213333333333335,14.23728813559322,23.919999999999995,15.254237288135592,23.65333333333333C16.271186440677965,23.386666666666663,17.28813559322034,23.146666666666665,18.305084745762713,22.906666666666666C19.322033898305087,22.666666666666668,20.338983050847457,22.44,21.35593220338983,22.213333333333335C22.372881355932204,21.986666666666668,23.389830508474574,21.76,24.406779661016948,21.546666666666667C25.423728813559322,21.333333333333332,26.440677966101696,21.128888888888888,27.45762711864407,20.933333333333334C28.47457627118644,20.73777777777778,29.491525423728813,20.546666666666667,30.508474576271183,20.373333333333335C31.525423728813557,20.2,32.54237288135593,20.04444444444444,33.559322033898304,19.89333333333333C34.57627118644068,19.74222222222222,35.59322033898305,19.60888888888889,36.610169491525426,19.46666666666667C37.6271186440678,19.324444444444445,38.644067796610166,19.168888888888887,39.66101694915254,19.04C40.67796610169491,18.91111111111111,41.69491525423729,18.804444444444446,42.71186440677966,18.693333333333335C43.728813559322035,18.582222222222224,44.7457627118644,18.46666666666667,45.762711864406775,18.373333333333335C46.77966101694915,18.28,47.79661016949152,18.235555555555557,48.813559322033896,18.133333333333333C49.83050847457627,18.03111111111111,50.847457627118644,17.875555555555554,51.86440677966102,17.759999999999998C52.88135593220339,17.644444444444442,53.898305084745765,17.546666666666667,54.91525423728814,17.44C55.93220338983051,17.333333333333336,56.94915254237288,17.222222222222225,57.96610169491525,17.12C58.983050847457626,17.017777777777777,59.99999999999999,16.924444444444443,61.01694915254237,16.826666666666664C62.03389830508474,16.728888888888886,63.05084745762712,16.62222222222222,64.0677966101695,16.53333333333333C65.08474576271186,16.444444444444443,66.10169491525424,16.368888888888886,67.11864406779661,16.293333333333333C68.13559322033899,16.217777777777776,69.15254237288136,16.133333333333336,70.16949152542374,16.080000000000002C71.1864406779661,16.026666666666667,72.20338983050848,16.00888888888889,73.22033898305085,15.973333333333333C74.23728813559322,15.937777777777777,75.2542372881356,15.90222222222222,76.27118644067797,15.866666666666664C77.28813559322033,15.831111111111108,78.30508474576271,15.791111111111112,79.32203389830508,15.760000000000002C80.33898305084746,15.728888888888891,81.35593220338983,15.715555555555556,82.37288135593221,15.68C83.38983050847457,15.644444444444444,84.40677966101696,15.600000000000001,85.42372881355932,15.546666666666669C86.4406779661017,15.493333333333336,87.45762711864407,15.426666666666666,88.47457627118645,15.36C89.49152542372882,15.293333333333333,90.50847457627118,15.231111111111112,91.52542372881355,15.146666666666668C92.54237288135593,15.062222222222223,93.55932203389831,14.959999999999999,94.57627118644069,14.853333333333332C95.59322033898306,14.746666666666666,96.61016949152543,14.657777777777778,97.62711864406779,14.506666666666668C98.64406779661016,14.355555555555556,99.66101694915254,14.133333333333333,100.6779661016949,13.946666666666667C101.69491525423729,13.76,102.71186440677965,13.564444444444446,103.72881355932203,13.386666666666667C104.7457627118644,13.20888888888889,105.76271186440678,13.044444444444443,106.77966101694915,12.879999999999999C107.79661016949153,12.715555555555554,108.8135593220339,12.582222222222224,109.83050847457628,12.400000000000002C110.84745762711864,12.21777777777778,111.86440677966102,11.982222222222221,112.88135593220339,11.786666666666665C113.89830508474576,11.59111111111111,114.91525423728814,11.426666666666664,115.9322033898305,11.226666666666665C116.94915254237289,11.026666666666666,117.96610169491525,10.77777777777778,118.98305084745763,10.58666666666667C120,10.39555555555556,121.01694915254237,10.257777777777777,122.03389830508473,10.08C123.05084745762711,9.902222222222221,124.0677966101695,9.702222222222222,125.08474576271188,9.52C126.10169491525424,9.337777777777779,127.11864406779662,9.177777777777779,128.135593220339,8.986666666666668C129.15254237288136,8.795555555555557,130.16949152542372,8.564444444444446,131.1864406779661,8.373333333333335C132.20338983050846,8.182222222222222,133.22033898305085,8.026666666666666,134.23728813559322,7.839999999999998C135.25423728813558,7.6533333333333315,136.27118644067798,7.435555555555556,137.28813559322035,7.253333333333334C138.3050847457627,7.071111111111112,139.3220338983051,6.928888888888888,140.33898305084747,6.746666666666665C141.35593220338984,6.564444444444444,142.3728813559322,6.351111111111111,143.38983050847457,6.160000000000001C144.40677966101694,5.968888888888889,145.42372881355934,5.804444444444447,146.4406779661017,5.6000000000000005C147.45762711864407,5.395555555555556,148.47457627118644,5.146666666666665,149.4915254237288,4.933333333333332C150.50847457627117,4.719999999999997,151.52542372881356,4.528888888888888,152.54237288135593,4.319999999999999C153.5593220338983,4.111111111111111,154.5762711864407,3.8844444444444437,155.59322033898306,3.679999999999999C156.61016949152543,3.4755555555555557,157.6271186440678,3.2844444444444445,158.64406779661016,3.0933333333333346C159.66101694915253,2.902222222222223,160.67796610169492,2.7066666666666674,161.6949152542373,2.533333333333334C162.71186440677965,2.3600000000000008,163.72881355932205,2.2044444444444458,164.74576271186442,2.0533333333333337C165.76271186440678,1.902222222222223,166.77966101694915,1.759999999999998,167.79661016949152,1.6266666666666652C168.81355932203388,1.493333333333331,169.83050847457628,1.3822222222222218,170.84745762711864,1.253333333333333C171.864406779661,1.1244444444444441,172.8813559322034,0.9733333333333327,173.89830508474577,0.8533333333333326C174.91525423728814,0.7333333333333325,175.93220338983053,0.6399999999999996,176.9491525423729,0.5333333333333323C177.96610169491527,0.4266666666666661,178.98305084745763,0.31999999999999906,180,0.21333333333333204"></path><path class="axis-ceiling" stroke-width="1" stroke="black" fill="none" d="M175,0L180,0"></path><text class="axis-ceiling-label" font-family="sans-serif" text-anchor="end" font-size="10px" x="170" y="2.5">1500</text></g></svg>