<svg xmlns="http://www.w3.org/2000/svg" viewBox="0 0 180 60"><g transform="translate(0,20)"><path class="area" fill="rgba(0, 0, 0, 0.2)" d="M0,27.519999999999996C1.3636363636363635,27.502051282051283,2.7272727272727275,27.484102564102567,4.090909090909091,27.480000000000004C12.954545454545453,27.453333333333333,21.818181818181817,27.46397660818713,30.68181818181818,27.439999999999998C34.77272727272727,27.4289338731444,38.86363636363636,27.426666666666666,42.95454545454545,27.400000000000002C43.63636363636363,27.395555555555557,44.31818181818182,27.346666666666668,45,27.32C45.68181818181818,27.293333333333333,46.36363636363637,27.261333333333337,47.04545454545455,27.240000000000002C50.45454545454545,27.133333333333336,53.86363636363637,27.142857142857146,57.27272727272727,27.080000000000002C58.63636363636363,27.054857142857145,60,27.026666666666667,61.36363636363636,27C62.04545454545455,26.986666666666665,62.72727272727273,26.97333333333333,63.409090909090914,26.959999999999997C64.0909090909091,26.946666666666665,64.77272727272728,26.946666666666665,65.45454545454545,26.92C66.81818181818181,26.866666666666674,68.18181818181819,26.61333333333332,69.54545454545455,26.559999999999995C70.22727272727273,26.533333333333335,70.9090909090909,26.533333333333335,71.5909090909091,26.520000000000003C72.27272727272728,26.50666666666667,72.95454545454545,26.493333333333332,73.63636363636364,26.479999999999997C74.31818181818183,26.46666666666666,75,26.454666666666668,75.68181818181819,26.44C78.4090909090909,26.38133333333334,81.13636363636364,26.280000000000005,83.86363636363636,26.200000000000003C85.22727272727272,26.160000000000004,86.5909090909091,26.111111111111114,87.95454545454545,26.080000000000002C88.63636363636364,26.064444444444447,89.31818181818181,26.06,90,26.04C90.68181818181819,26.02,91.36363636363636,25.98,92.04545454545455,25.96C92.72727272727273,25.94,93.4090909090909,25.94666666666667,94.0909090909091,25.92C94.77272727272727,25.893333333333334,95.45454545454545,25.78666666666667,96.13636363636363,25.76C96.81818181818181,25.733333333333334,97.49999999999999,25.746666666666666,98.18181818181817,25.72C99.54545454545455,25.66666666666666,100.9090909090909,25.471111111111114,102.27272727272728,25.28C102.95454545454547,25.184444444444445,103.63636363636364,25.080000000000002,104.31818181818183,24.96C105.00000000000001,24.84,105.68181818181819,24.76,106.36363636363637,24.56C107.04545454545455,24.36,107.72727272727273,23.919999999999995,108.4090909090909,23.759999999999998C109.0909090909091,23.6,109.77272727272727,23.58666666666667,110.45454545454545,23.520000000000003C111.13636363636364,23.453333333333337,111.81818181818181,23.46666666666667,112.5,23.360000000000003C113.18181818181819,23.253333333333337,113.86363636363636,22.960000000000004,114.54545454545455,22.880000000000003C115.22727272727273,22.8,115.9090909090909,22.806666666666665,116.5909090909091,22.759999999999998C117.27272727272727,22.71333333333333,117.95454545454545,22.706666666666663,118.63636363636363,22.599999999999998C119.31818181818181,22.49333333333333,119.99999999999999,21.593333333333334,120.68181818181817,21.04C121.36363636363636,20.486666666666665,122.04545454545453,19.833333333333332,122.72727272727272,19.28C123.4090909090909,18.726666666666667,124.0909090909091,18.146666666666665,124.77272727272728,17.72C125.45454545454547,17.293333333333333,126.13636363636364,17.200000000000003,126.81818181818183,16.720000000000002C127.50000000000001,16.240000000000002,128.1818181818182,15.133333333333336,128.86363636363637,14.84C129.54545454545456,14.546666666666665,130.22727272727272,14.686666666666662,130.9090909090909,14.399999999999999C131.5909090909091,14.113333333333332,132.27272727272728,13.513333333333332,132.95454545454547,13.119999999999997C133.63636363636365,12.726666666666668,134.3181818181818,12.306666666666668,135,12.040000000000003C135.6818181818182,11.773333333333337,136.36363636363635,11.78,137.04545454545453,11.520000000000001C137.72727272727272,11.26,138.4090909090909,10.800000000000002,139.0909090909091,10.48C139.77272727272728,10.160000000000002,140.45454545454544,9.906666666666665,141.13636363636363,9.6C141.8181818181818,9.293333333333331,142.5,8.8,143.1818181818182,8.639999999999999C143.86363636363637,8.479999999999999,144.54545454545453,8.506666666666664,145.22727272727272,8.399999999999999C145.9090909090909,8.293333333333331,146.5909090909091,8.139999999999999,147.27272727272728,7.999999999999998C147.95454545454547,7.859999999999999,148.63636363636363,7.686666666666663,149.3181818181818,7.559999999999998C150,7.433333333333331,150.6818181818182,7.373333333333336,151.36363636363637,7.240000000000002C152.04545454545456,7.10666666666667,152.72727272727272,6.913333333333334,153.4090909090909,6.760000000000002C154.0909090909091,6.606666666666667,154.77272727272728,6.440000000000002,155.45454545454547,6.320000000000001C156.13636363636365,6.200000000000002,156.8181818181818,6.2266666666666675,157.5,6.040000000000001C158.1818181818182,5.853333333333334,158.86363636363635,4.546666666666666,159.54545454545453,4.52C160.22727272727272,4.493333333333333,160.9090909090909,4.506666666666666,161.5909090909091,4.4799999999999995C162.27272727272728,4.453333333333333,162.95454545454544,4.346666666666666,163.63636363636363,4.279999999999999C164.3181818181818,4.213333333333332,165,4.16,165.6818181818182,4.079999999999999C166.36363636363637,3.9999999999999996,167.04545454545453,3.8266666666666653,167.72727272727272,3.799999999999999C168.4090909090909,3.773333333333332,169.0909090909091,3.7733333333333325,169.77272727272728,3.759999999999999C170.45454545454547,3.7466666666666657,171.13636363636363,3.7466666666666657,171.8181818181818,3.719999999999999C172.5,3.6933333333333316,173.1818181818182,3.586666666666666,173.86363636363637,3.5199999999999987C174.54545454545456,3.4533333333333323,175.22727272727272,3.346666666666665,175.9090909090909,3.3199999999999985C176.5909090909091,3.2933333333333317,177.27272727272728,3.3066666666666653,177.95454545454547,3.2799999999999985C178.63636363636365,3.253333333333332,179.3181818181818,3.166666666666665,180,3.0799999999999983L180,40C179.3181818181818,40,178.63636363636365,40,177.95454545454547,40C177.27272727272728,40,176.5909090909091,40,175.9090909090909,40C175.22727272727272,40,174.54545454545456,40,173.86363636363637,40C173.1818181818182,40,172.5,40,171.8181818181818,40C171.13636363636363,40,170.45454545454547,40,169.77272727272728,40C169.0909090909091,40,168.4090909090909,40,167.72727272727272,40C167.04545454545453,40,166.36363636363637,40,165.6818181818182,40C165,40,164.3181818181818,40,163.63636363636363,40C162.95454545454544,40,162.27272727272728,40,161.5909090909091,40C160.9090909090909,40,160.22727272727272,40,159.54545454545453,40C158.86363636363635,40,158.1818181818182,40,157.5,40C156.8181818181818,40,156.13636363636365,40,155.45454545454547,40C154.77272727272728,40,154.0909090909091,40,153.4090909090909,40C152.72727272727272,40,152.04545454545456,40,151.36363636363637,40C150.6818181818182,40,150,40,149.3181818181818,40C148.63636363636363,40,147.95454545454547,40,147.27272727272728,40C146.5909090909091,40,145.9090909090909,40,145.22727272727272,40C144.54545454545453,40,143.86363636363637,40,143.1818181818182,40C142.5,40,141.8181818181818,40,141.13636363636363,40C140.45454545454544,40,139.77272727272728,40,139.0909090909091,40C138.4090909090909,40,137.72727272727272,40,137.04545454545453,40C136.36363636363635,40,135.6818181818182,40,135,40C134.3181818181818,40,133.63636363636365,40,132.95454545454547,40C132.27272727272728,40,131.5909090909091,40,130.9090909090909,40C130.22727272727272,40,129.54545454545456,40,128.86363636363637,40C128.1818181818182,40,127.50000000000001,40,126.81818181818183,40C126.13636363636364,40,125.45454545454547,40,124.77272727272728,40C124.0909090909091,40,123.4090909090909,40,122.72727272727272,40C122.04545454545453,40,121.36363636363636,40,120.68181818181817,40C119.99999999999999,40,119.31818181818181,40,118.63636363636363,40C117.95454545454545,40,117.27272727272727,40,116.5909090909091,40C115.9090909090909,40,115.22727272727273,40,114.54545454545455,40C113.86363636363636,40,113.18181818181819,40,112.5,40C111.81818181818181,40,111.13636363636364,40,110.45454545454545,40C109.77272727272727,40,109.0909090909091,40,108.4090909090909,40C107.72727272727273,40,107.04545454545455,40,106.36363636363637,40C105.68181818181819,40,105.00000000000001,40,104.31818181818183,40C103.63636363636364,40,102.95454545454547,40,102.27272727272728,40C100.9090909090909,40,99.54545454545455,40,98.18181818181817,40C97.49999999999999,40,96.81818181818181,40,96.13636363636363,40C95.45454545454545,40,94.77272727272727,40,94.0909090909091,40C93.4090909090909,40,92.72727272727273,40,92.04545454545455,40C91.36363636363636,40,90.68181818181819,40,90,40C89.31818181818181,40,88.63636363636364,40,87.95454545454545,40C86.5909090909091,40,85.22727272727272,40,83.86363636363636,40C81.13636363636364,40,78.4090909090909,40,75.68181818181819,40C75,40,74.31818181818183,40,73.63636363636364,40C72.95454545454545,40,72.27272727272728,40,71.5909090909091,40C70.9090909090909,40,70.22727272727273,40,69.54545454545455,40C68.18181818181819,40,66.81818181818181,40,65.45454545454545,40C64.77272727272728,40,64.0909090909091,40,63.409090909090914,40C62.72727272727273,40,62.04545454545455,40,61.36363636363636,40C60,40,58.63636363636363,40,57.27272727272727,40C53.86363636363637,40,50.45454545454545,40,47.04545454545455,40C46.36363636363637,40,45.68181818181818,40,45,40C44.31818181818182,40,43.63636363636363,40,42.95454545454545,40C38.86363636363636,40,34.77272727272727,40,30.68181818181818,40C21.818181818181817,40,12.954545454545453,40,4.090909090909091,40C2.7272727272727275,40,1.3636363636363635,40,0,40Z"></path><path class="line" stroke="black" fill="none" d="M0,27.519999999999996C1.3636363636363635,27.502051282051283,2.7272727272727275,27.484102564102567,4.090909090909091,27.480000000000004C12.954545454545453,27.453333333333333,21.818181818181817,27.46397660818713,30.68181818181818,27.439999999999998C34.77272727272727,27.4289338731444,38.86363636363636,27.426666666666666,42.95454545454545,27.400000000000002C43.63636363636363,27.395555555555557,44.31818181818182,27.346666666666668,45,27.32C45.68181818181818,27.293333333333333,46.36363636363637,27.261333333333337,47.04545454545455,27.240000000000002C50.45454545454545,27.133333333333336,53.86363636363637,27.142857142857146,57.27272727272727,27.080000000000002C58.63636363636363,27.054857142857145,60,27.026666666666667,61.36363636363636,27C62.04545454545455,26.986666666666665,62.72727272727273,26.97333333333333,63.409090909090914,26.959999999999997C64.0909090909091,26.946666666666665,64.77272727272728,26.946666666666665,65.45454545454545,26.92C66.81818181818181,26.866666666666674,68.18181818181819,26.61333333333332,69.54545454545455,26.559999999999995C70.22727272727273,26.533333333333335,70.9090909090909,26.533333333333335,71.5909090909091,26.520000000000003C72.27272727272728,26.50666666666667,72.95454545454545,26.493333333333332,73.63636363636364,26.479999999999997C74.31818181818183,26.46666666666666,75,26.454666666666668,75.68181818181819,26.44C78.4090909090909,26.38133333333334,81.13636363636364,26.280000000000005,83.86363636363636,26.200000000000003C85.22727272727272,26.160000000000004,86.5909090909091,26.111111111111114,87.95454545454545,26.080000000000002C88.63636363636364,26.064444444444447,89.31818181818181,26.06,90,26.04C90.68181818181819,26.02,91.36363636363636,25.98,92.04545454545455,25.96C92.72727272727273,25.94,93.4090909090909,25.94666666666667,94.0909090909091,25.92C94.77272727272727,25.893333333333334,95.45454545454545,25.78666666666667,96.13636363636363,25.76C96.81818181818181,25.733333333333334,97.49999999999999,25.746666666666666,98.18181818181817,25.72C99.54545454545455,25.66666666666666,100.9090909090909,25.471111111111114,102.27272727272728,25.28C102.95454545454547,25.184444444444445,103.63636363636364,25.080000000000002,104.31818181818183,24.96C105.00000000000001,24.84,105.68181818181819,24.76,106.36363636363637,24.56C107.04545454545455,24.36,107.72727272727273,23.919999999999995,108.4090909090909,23.759999999999998C109.0909090909091,23.6,109.77272727272727,23.58666666666667,110.45454545454545,23.520000000000003C111.13636363636364,23.453333333333337,111.81818181818181,23.46666666666667,112.5,23.360000000000003C113.18181818181819,23.253333333333337,113.86363636363636,22.960000000000004,114.54545454545455,22.880000000000003C115.22727272727273,22.8,115.9090909090909,22.806666666666665,116.5909090909091,22.759999999999998C117.27272727272727,22.71333333333333,117.95454545454545,22.706666666666663,118.63636363636363,22.599999999999998C119.31818181818181,22.49333333333333,119.99999999999999,21.593333333333334,120.68181818181817,21.04C121.36363636363636,20.486666666666665,122.04545454545453,19.833333333333332,122.72727272727272,19.28C123.4090909090909,18.726666666666667,124.0909090909091,18.146666666666665,124.77272727272728,17.72C125.45454545454547,17.293333333333333,126.13636363636364,17.200000000000003,126.81818181818183,16.720000000000002C127.50000000000001,16.240000000000002,128.1818181818182,15.133333333333336,128.86363636363637,14.84C129.54545454545456,14.546666666666665,130.22727272727272,14.686666666666662,130.9090909090909,14.399999999999999C131.5909090909091,14.113333333333332,132.27272727272728,13.513333333333332,132.95454545454547,13.119999999999997C133.63636363636365,12.726666666666668,134.3181818181818,12.306666666666668,135,12.040000000000003C135.6818181818182,11.773333333333337,136.36363636363635,11.78,137.04545454545453,11.520000000000001C137.72727272727272,11.26,138.4090909090909,10.800000000000002,139.0909090909091,10.48C139.77272727272728,10.160000000000002,140.45454545454544,9.906666666666665,141.13636363636363,9.6C141.8181818181818,9.293333333333331,142.5,8.8,143.1818181818182,8.639999999999999C143.86363636363637,8.479999999999999,144.54545454545453,8.506666666666664,145.22727272727272,8.399999999999999C145.9090909090909,8.293333333333331,146.5909090909091,8.139999999999999,147.27272727272728,7.999999999999998C147.95454545454547,7.859999999999999,148.63636363636363,7.686666666666663,149.3181818181818,7.559999999999998C150,7.433333333333331,150.6818181818182,7.373333333333336,151.36363636363637,7.240000000000002C152.04545454545456,7.10666666666667,152.72727272727272,6.913333333333334,153.4090909090909,6.760000000000002C154.0909090909091,6.606666666666667,154.77272727272728,6.440000000000002,155.45454545454547,6.320000000000001C156.13636363636365,6.200000000000002,156.8181818181818,6.2266666666666675,157.5,6.040000000000001C158.1818181818182,5.853333333333334,158.86363636363635,4.546666666666666,159.54545454545453,4.52C160.22727272727272,4.493333333333333,160.9090909090909,4.506666666666666,161.5909090909091,4.4799999999999995C162.27272727272728,4.453333333333333,162.95454545454544,4.346666666666666,163.63636363636363,4.279999999999999C164.3181818181818,4.213333333333332,165,4.16,165.6818181818182,4.079999999999999C166.36363636363637,3.9999999999999996,167.04545454545453,3.8266666666666653,167.72727272727272,3.799999999999999C168.4090909090909,3.773333333333332,169.0909090909091,3.7733333333333325,169.77272727272728,3.759999999999999C170.45454545454547,3.7466666666666657,171.13636363636363,3.7466666666666657,171.8181818181818,3.719999999999999C172.5,3.6933333333333316,173.1818181818182,3.586666666666666,173.86363636363637,3.5199999999999987C174.54545454545456,3.4533333333333323,175.22727272727272,3.346666666666665,175.9090909090909,3.3199999999999985C176.5909090909091,3.2933333333333317,177.27272727272728,3.3066666666666653,177.95454545454547,3.2799999999999985C178.63636363636365,3.253333333333332,179.3181818181818,3.166666666666665,180,3.0799999999999983"></path><path class="axis-ceiling" stroke-width="1" stroke="black" fill="none" d="M175,0L180,0"></path><text class="axis-ceiling-label" font-family="sans-serif" text-anchor="end" font-size="10px" x="170" y="2.5">1000</text></g></svg>