<svg xmlns="http://www.w3.org/2000/svg" viewBox="0 0 180 60"><g transform="translate(0,20)"><path class="area" fill="rgba(0, 0, 0, 0.2)" d="M0,39.900000000000006C1.3584905660377358,39.84285714285715,2.716981132075472,39.78571428571429,4.0754716981132075,39.6C4.30188679245283,39.56904761904762,4.528301886792453,39.53333333333333,4.754716981132075,39.5C4.981132075471698,39.46666666666667,5.2075471698113205,39.400286123032906,5.433962264150943,39.4C58.18867924528302,39.333333333333336,110.9433962264151,39.36666666666667,163.69811320754718,39.300000000000004C164.60377358490567,39.29885550786839,165.50943396226415,39.233333333333334,166.41509433962264,39.1C166.64150943396226,39.06666666666667,166.8679245283019,38.9,167.0943396226415,38.8C167.32075471698113,38.699999999999996,167.54716981132077,38.61666666666667,167.77358490566039,38.5C168,38.38333333333333,168.22641509433964,38.2,168.45283018867926,38.1C168.67924528301887,38.00000000000001,168.9056603773585,37.96111111111111,169.1320754716981,37.9C169.58490566037736,37.77777777777777,170.0377358490566,37.76666666666666,170.49056603773585,37.599999999999994C170.71698113207546,37.51666666666666,170.9433962264151,37.49999999999999,171.16981132075472,37.3C171.39622641509433,37.1,171.62264150943398,34.78333333333333,171.8490566037736,33.4C172.0754716981132,32.016666666666666,172.30188679245285,30.383333333333333,172.52830188679246,29C172.75471698113208,27.616666666666667,172.98113207547172,26.16666666666668,173.20754716981133,25.099999999999998C173.43396226415095,24.033333333333363,173.66037735849056,23.799999999999958,173.88679245283018,22.599999999999998C174.1132075471698,21.399999999999988,174.33962264150944,18.63333333333333,174.56603773584905,17.9C174.79245283018867,17.166666666666668,175.0188679245283,17.516666666666666,175.24528301886792,16.8C175.47169811320754,16.083333333333336,175.69811320754718,14.583333333333332,175.9245283018868,13.599999999999998C176.1509433962264,12.616666666666664,176.37735849056605,11.566666666666665,176.60377358490567,10.899999999999999C176.83018867924528,10.233333333333333,177.05660377358492,10.250000000000021,177.28301886792454,9.6C177.50943396226415,8.950000000000005,177.73584905660377,7.799999999999988,177.96226415094338,7.000000000000002C178.188679245283,6.199999999999982,178.41509433962264,5.566666666666666,178.64150943396226,4.8C178.86792452830187,4.033333333333333,179.0943396226415,2.8666666666666707,179.32075471698113,2.400000000000002C179.54716981132074,1.9333333333333336,179.77358490566039,1.8166666666666664,180,1.6999999999999993L180,40C179.77358490566039,40,179.54716981132074,40,179.32075471698113,40C179.0943396226415,40,178.86792452830187,40,178.64150943396226,40C178.41509433962264,40,178.188679245283,40,177.96226415094338,40C177.73584905660377,40,177.50943396226415,40,177.28301886792454,40C177.05660377358492,40,176.83018867924528,40,176.60377358490567,40C176.37735849056605,40,176.1509433962264,40,175.9245283018868,40C175.69811320754718,40,175.47169811320754,40,175.24528301886792,40C175.0188679245283,40,174.79245283018867,40,174.56603773584905,40C174.33962264150944,40,174.1132075471698,40,173.88679245283018,40C173.66037735849056,40,173.43396226415095,40,173.20754716981133,40C172.98113207547172,40,172.75471698113208,40,172.52830188679246,40C172.30188679245285,40,172.0754716981132,40,171.8490566037736,40C171.62264150943398,40,171.39622641509433,40,171.16981132075472,40C170.9433962264151,40,170.71698113207546,40,170.49056603773585,40C170.0377358490566,40,169.58490566037736,40,169.1320754716981,40C168.9056603773585,40,168.67924528301887,40,168.45283018867926,40C168.22641509433964,40,168,40,167.77358490566039,40C167.54716981132077,40,167.32075471698113,40,167.0943396226415,40C166.8679245283019,40,166.64150943396226,40,166.41509433962264,40C165.50943396226415,40,164.60377358490567,40,163.69811320754718,40C110.9433962264151,40,58.18867924528302,40,5.433962264150943,40C5.2075471698113205,40,4.981132075471698,40,4.754716981132075,40C4.528301886792453,40,4.30188679245283,40,4.0754716981132075,40C2.716981132075472,40,1.3584905660377358,40,0,40Z"></path><path class="line" stroke="black" fill="none" d="M0,39.900000000000006C1.3584905660377358,39.84285714285715,2.716981132075472,39.78571428571429,4.0754716981132075,39.6C4.30188679245283,39.56904761904762,4.528301886792453,39.53333333333333,4.754716981132075,39.5C4.981132075471698,39.46666666666667,5.2075471698113205,39.400286123032906,5.433962264150943,39.4C58.18867924528302,39.333333333333336,110.9433962264151,39.36666666666667,163.69811320754718,39.300000000000004C164.60377358490567,39.29885550786839,165.50943396226415,39.233333333333334,166.41509433962264,39.1C166.64150943396226,39.06666666666667,166.8679245283019,38.9,167.0943396226415,38.8C167.32075471698113,38.699999999999996,167.54716981132077,38.61666666666667,167.77358490566039,38.5C168,38.38333333333333,168.22641509433964,38.2,168.45283018867926,38.1C168.67924528301887,38.00000000000001,168.9056603773585,37.96111111111111,169.1320754716981,37.9C169.58490566037736,37.77777777777777,170.0377358490566,37.76666666666666,170.49056603773585,37.599999999999994C170.71698113207546,37.51666666666666,170.9433962264151,37.49999999999999,171.16981132075472,37.3C171.39622641509433,37.1,171.62264150943398,34.78333333333333,171.8490566037736,33.4C172.0754716981132,32.016666666666666,172.30188679245285,30.383333333333333,172.52830188679246,29C172.75471698113208,27.616666666666667,172.98113207547172,26.16666666666668,173.20754716981133,25.099999999999998C173.43396226415095,24.033333333333363,173.66037735849056,23.799999999999958,173.88679245283018,22.599999999999998C174.1132075471698,21.399999999999988,174.33962264150944,18.63333333333333,174.56603773584905,17.9C174.79245283018867,17.166666666666668,175.0188679245283,17.516666666666666,175.24528301886792,16.8C175.47169811320754,16.083333333333336,175.69811320754718,14.583333333333332,175.9245283018868,13.599999999999998C176.1509433962264,12.616666666666664,176.37735849056605,11.566666666666665,176.60377358490567,10.899999999999999C176.83018867924528,10.233333333333333,177.05660377358492,10.250000000000021,177.28301886792454,9.6C177.50943396226415,8.950000000000005,177.73584905660377,7.799999999999988,177.96226415094338,7.000000000000002C178.188679245283,6.199999999999982,178.41509433962264,5.566666666666666,178.64150943396226,4.8C178.86792452830187,4.033333333333333,179.0943396226415,2.8666666666666707,179.32075471698113,2.400000000000002C179.54716981132074,1.9333333333333336,179.77358490566039,1.8166666666666664,180,1.6999999999999993"></path><path class="axis-ceiling" stroke-width="1" stroke="black" fill="none" d="M175,0L180,0"></path><text class="axis-ceiling-label" font-family="sans-serif" text-anchor="end" font-size="10px" x="170" y="2.5">400</text></g></svg>