<svg xmlns="http://www.w3.org/2000/svg" viewBox="0 0 180 60"><g transform="translate(0,20)"><path class="area" fill="rgba(0, 0, 0, 0.2)" d="M0,29.4984C1.0169491525423728,29.410688888888888,2.0338983050847457,29.322977777777776,3.0508474576271185,29.227733333333333C4.067796610169491,29.13248888888889,5.084745762711864,29.018844444444447,6.101694915254237,28.926933333333334C7.11864406779661,28.83502222222222,8.135593220338983,28.7508,9.152542372881356,28.676266666666667C10.169491525423728,28.601733333333332,11.186440677966102,28.548711111111107,12.203389830508474,28.47973333333333C13.220338983050846,28.41075555555555,14.23728813559322,28.334355555555558,15.254237288135592,28.262400000000003C16.271186440677965,28.19044444444445,17.28813559322034,28.112133333333336,18.305084745762713,28.048000000000002C19.322033898305087,27.983866666666668,20.338983050847457,27.927200000000003,21.35593220338983,27.8776C22.372881355932204,27.828,23.389830508474574,27.794355555555555,24.406779661016948,27.7504C25.423728813559322,27.706444444444443,26.440677966101696,27.662622222222222,27.45762711864407,27.613866666666667C28.47457627118644,27.56511111111111,29.491525423728813,27.506755555555557,30.508474576271183,27.457866666666668C31.525423728813557,27.40897777777778,32.54237288135593,27.368,33.559322033898304,27.32053333333333C34.57627118644068,27.27306666666666,35.59322033898305,27.221688888888885,36.610169491525426,27.173066666666664C37.6271186440678,27.124444444444443,38.644067796610166,27.076533333333334,39.66101694915254,27.0288C40.67796610169491,26.981066666666667,41.69491525423729,26.925866666666668,42.71186440677966,26.886666666666667C43.728813559322035,26.847466666666666,44.7457627118644,26.834666666666664,45.762711864406775,26.793599999999998C46.77966101694915,26.752533333333332,47.79661016949152,26.688888888888886,48.813559322033896,26.640266666666665C49.83050847457627,26.591644444444444,50.847457627118644,26.552888888888887,51.86440677966102,26.501866666666665C52.88135593220339,26.450844444444442,53.898305084745765,26.392488888888888,54.91525423728814,26.334133333333334C55.93220338983051,26.27577777777778,56.94915254237288,26.20608888888889,57.96610169491525,26.151733333333333C58.983050847457626,26.097377777777776,59.99999999999999,26.059955555555554,61.01694915254237,26.008C62.03389830508474,25.956044444444444,63.05084745762712,25.89617777777778,64.0677966101695,25.84C65.08474576271186,25.783822222222224,66.10169491525424,25.72933333333333,67.11864406779661,25.67093333333333C68.13559322033899,25.61253333333333,69.15254237288136,25.54884444444445,70.16949152542374,25.489600000000003C71.1864406779661,25.430355555555558,72.20338983050848,25.379377777777776,73.22033898305085,25.315466666666666C74.23728813559322,25.251555555555555,75.2542372881356,25.175200000000004,76.27118644067797,25.106133333333336C77.28813559322033,25.037066666666668,78.30508474576271,24.974844444444443,79.32203389830508,24.901066666666665C80.33898305084746,24.827288888888887,81.35593220338983,24.744266666666665,82.37288135593221,24.663466666666665C83.38983050847457,24.582666666666665,84.40677966101696,24.492577777777775,85.42372881355932,24.416266666666665C86.4406779661017,24.339955555555555,87.45762711864407,24.29151111111111,88.47457627118645,24.2056C89.49152542372882,24.11968888888889,90.50847457627118,23.997111111111114,91.52542372881355,23.900800000000004C92.54237288135593,23.80448888888889,93.55932203389831,23.72608888888889,94.57627118644069,23.62773333333333C95.59322033898306,23.529377777777775,96.61016949152543,23.42542222222222,97.62711864406779,23.310666666666666C98.64406779661016,23.195911111111112,99.66101694915254,23.058355555555554,100.6779661016949,22.9392C101.69491525423729,22.820044444444445,102.71186440677965,22.70528888888889,103.72881355932203,22.595733333333335C104.7457627118644,22.48617777777778,105.76271186440678,22.39048888888889,106.77966101694915,22.281866666666666C107.79661016949153,22.173244444444443,108.8135593220339,22.058622222222223,109.83050847457628,21.944C110.84745762711864,21.829377777777776,111.86440677966102,21.717333333333332,112.88135593220339,21.594133333333332C113.89830508474576,21.47093333333333,114.91525423728814,21.341777777777775,115.9322033898305,21.2048C116.94915254237289,21.067822222222222,117.96610169491525,20.924,118.98305084745763,20.772266666666667C120,20.620533333333334,121.01694915254237,20.471288888888893,122.03389830508473,20.294400000000003C123.05084745762711,20.117511111111114,124.0677966101695,19.908755555555555,125.08474576271188,19.71093333333333C126.10169491525424,19.513111111111108,127.11864406779662,19.31408888888889,128.135593220339,19.107466666666667C129.15254237288136,18.900844444444445,130.16949152542372,18.683688888888888,131.1864406779661,18.4712C132.20338983050846,18.258711111111108,133.22033898305085,18.056399999999996,134.23728813559322,17.83253333333333C135.25423728813558,17.608666666666664,136.27118644067798,17.367466666666665,137.28813559322035,17.128C138.3050847457627,16.888533333333335,139.3220338983051,16.634888888888888,140.33898305084747,16.395733333333332C141.35593220338984,16.156577777777777,142.3728813559322,15.916844444444445,143.38983050847457,15.693066666666668C144.40677966101694,15.46928888888889,145.42372881355934,15.260533333333337,146.4406779661017,15.053066666666668C147.45762711864407,14.845600000000003,148.47457627118644,14.648222222222222,149.4915254237288,14.448266666666667C150.50847457627117,14.24831111111111,151.52542372881356,14.050844444444447,152.54237288135593,13.853333333333335C153.5593220338983,13.655822222222223,154.5762711864407,13.466711111111112,155.59322033898306,13.2632C156.61016949152543,13.05968888888889,157.6271186440678,12.838355555555554,158.64406779661016,12.632266666666666C159.66101694915253,12.426177777777776,160.67796610169492,12.232577777777777,161.6949152542373,12.026666666666666C162.71186440677965,11.820755555555554,163.72881355932205,11.609866666666667,164.74576271186442,11.396799999999999C165.76271186440678,11.183733333333333,166.77966101694915,10.936844444444443,167.79661016949152,10.748266666666666C168.81355932203388,10.559688888888887,169.83050847457628,10.422577777777779,170.84745762711864,10.265333333333334C171.864406779661,10.10808888888889,172.8813559322034,9.981377777777778,173.89830508474577,9.8048C174.91525423728814,9.628222222222222,175.93220338983053,9.369555555555559,176.9491525423729,9.205866666666669C177.96610169491527,9.04217777777778,178.98305084745763,8.932422222222224,180,8.822666666666667L180,40C178.98305084745763,40,177.96610169491527,40,176.9491525423729,40C175.93220338983053,40,174.91525423728814,40,173.89830508474577,40C172.8813559322034,40,171.864406779661,40,170.84745762711864,40C169.83050847457628,40,168.81355932203388,40,167.79661016949152,40C166.77966101694915,40,165.76271186440678,40,164.74576271186442,40C163.72881355932205,40,162.71186440677965,40,161.6949152542373,40C160.67796610169492,40,159.66101694915253,40,158.64406779661016,40C157.6271186440678,40,156.61016949152543,40,155.59322033898306,40C154.5762711864407,40,153.5593220338983,40,152.54237288135593,40C151.52542372881356,40,150.50847457627117,40,149.4915254237288,40C148.47457627118644,40,147.45762711864407,40,146.4406779661017,40C145.42372881355934,40,144.40677966101694,40,143.38983050847457,40C142.3728813559322,40,141.35593220338984,40,140.33898305084747,40C139.3220338983051,40,138.3050847457627,40,137.28813559322035,40C136.27118644067798,40,135.25423728813558,40,134.23728813559322,40C133.22033898305085,40,132.20338983050846,40,131.1864406779661,40C130.16949152542372,40,129.15254237288136,40,128.135593220339,40C127.11864406779662,40,126.10169491525424,40,125.08474576271188,40C124.0677966101695,40,123.05084745762711,40,122.03389830508473,40C121.01694915254237,40,120,40,118.98305084745763,40C117.96610169491525,40,116.94915254237289,40,115.9322033898305,40C114.91525423728814,40,113.89830508474576,40,112.88135593220339,40C111.86440677966102,40,110.84745762711864,40,109.83050847457628,40C108.8135593220339,40,107.79661016949153,40,106.77966101694915,40C105.76271186440678,40,104.7457627118644,40,103.72881355932203,40C102.71186440677965,40,101.69491525423729,40,100.6779661016949,40C99.66101694915254,40,98.64406779661016,40,97.62711864406779,40C96.61016949152543,40,95.59322033898306,40,94.57627118644069,40C93.55932203389831,40,92.54237288135593,40,91.52542372881355,40C90.50847457627118,40,89.49152542372882,40,88.47457627118645,40C87.45762711864407,40,86.4406779661017,40,85.42372881355932,40C84.40677966101696,40,83.38983050847457,40,82.37288135593221,40C81.35593220338983,40,80.33898305084746,40,79.32203389830508,40C78.30508474576271,40,77.28813559322033,40,76.27118644067797,40C75.2542372881356,40,74.23728813559322,40,73.22033898305085,40C72.20338983050848,40,71.1864406779661,40,70.16949152542374,40C69.15254237288136,40,68.13559322033899,40,67.11864406779661,40C66.10169491525424,40,65.08474576271186,40,64.0677966101695,40C63.05084745762712,40,62.03389830508474,40,61.01694915254237,40C59.99999999999999,40,58.983050847457626,40,57.96610169491525,40C56.94915254237288,40,55.93220338983051,40,54.91525423728814,40C53.898305084745765,40,52.88135593220339,40,51.86440677966102,40C50.847457627118644,40,49.83050847457627,40,48.813559322033896,40C47.79661016949152,40,46.77966101694915,40,45.762711864406775,40C44.7457627118644,40,43.728813559322035,40,42.71186440677966,40C41.69491525423729,40,40.67796610169491,40,39.66101694915254,40C38.644067796610166,40,37.6271186440678,40,36.610169491525426,40C35.59322033898305,40,34.57627118644068,40,33.559322033898304,40C32.54237288135593,40,31.525423728813557,40,30.508474576271183,40C29.491525423728813,40,28.47457627118644,40,27.45762711864407,40C26.440677966101696,40,25.423728813559322,40,24.406779661016948,40C23.389830508474574,40,22.372881355932204,40,21.35593220338983,40C20.338983050847457,40,19.322033898305087,40,18.305084745762713,40C17.28813559322034,40,16.271186440677965,40,15.254237288135592,40C14.23728813559322,40,13.220338983050846,40,12.203389830508474,40C11.186440677966102,40,10.169491525423728,40,9.152542372881356,40C8.135593220338983,40,7.11864406779661,40,6.101694915254237,40C5.084745762711864,40,4.067796610169491,40,3.0508474576271185,40C2.0338983050847457,40,1.0169491525423728,40,0,40Z"></path><path class="line" stroke="black" fill="none" d="M0,29.4984C1.0169491525423728,29.410688888888888,2.0338983050847457,29.322977777777776,3.0508474576271185,29.227733333333333C4.067796610169491,29.13248888888889,5.084745762711864,29.018844444444447,6.101694915254237,28.926933333333334C7.11864406779661,28.83502222222222,8.135593220338983,28.7508,9.152542372881356,28.676266666666667C10.169491525423728,28.601733333333332,11.186440677966102,28.548711111111107,12.203389830508474,28.47973333333333C13.220338983050846,28.41075555555555,14.23728813559322,28.334355555555558,15.254237288135592,28.262400000000003C16.271186440677965,28.19044444444445,17.28813559322034,28.112133333333336,18.305084745762713,28.048000000000002C19.322033898305087,27.983866666666668,20.338983050847457,27.927200000000003,21.35593220338983,27.8776C22.372881355932204,27.828,23.389830508474574,27.794355555555555,24.406779661016948,27.7504C25.423728813559322,27.706444444444443,26.440677966101696,27.662622222222222,27.45762711864407,27.613866666666667C28.47457627118644,27.56511111111111,29.491525423728813,27.506755555555557,30.508474576271183,27.457866666666668C31.525423728813557,27.40897777777778,32.54237288135593,27.368,33.559322033898304,27.32053333333333C34.57627118644068,27.27306666666666,35.59322033898305,27.221688888888885,36.610169491525426,27.173066666666664C37.6271186440678,27.124444444444443,38.644067796610166,27.076533333333334,39.66101694915254,27.0288C40.67796610169491,26.981066666666667,41.69491525423729,26.925866666666668,42.71186440677966,26.886666666666667C43.728813559322035,26.847466666666666,44.7457627118644,26.834666666666664,45.762711864406775,26.793599999999998C46.77966101694915,26.752533333333332,47.79661016949152,26.688888888888886,48.813559322033896,26.640266666666665C49.83050847457627,26.591644444444444,50.847457627118644,26.552888888888887,51.86440677966102,26.501866666666665C52.88135593220339,26.450844444444442,53.898305084745765,26.392488888888888,54.91525423728814,26.334133333333334C55.93220338983051,26.27577777777778,56.94915254237288,26.20608888888889,57.96610169491525,26.151733333333333C58.983050847457626,26.097377777777776,59.99999999999999,26.059955555555554,61.01694915254237,26.008C62.03389830508474,25.956044444444444,63.05084745762712,25.89617777777778,64.0677966101695,25.84C65.08474576271186,25.783822222222224,66.10169491525424,25.72933333333333,67.11864406779661,25.67093333333333C68.13559322033899,25.61253333333333,69.15254237288136,25.54884444444445,70.16949152542374,25.489600000000003C71.1864406779661,25.430355555555558,72.20338983050848,25.379377777777776,73.22033898305085,25.315466666666666C74.23728813559322,25.251555555555555,75.2542372881356,25.175200000000004,76.27118644067797,25.106133333333336C77.28813559322033,25.037066666666668,78.30508474576271,24.974844444444443,79.32203389830508,24.901066666666665C80.33898305084746,24.827288888888887,81.35593220338983,24.744266666666665,82.37288135593221,24.663466666666665C83.38983050847457,24.582666666666665,84.40677966101696,24.492577777777775,85.42372881355932,24.416266666666665C86.4406779661017,24.339955555555555,87.45762711864407,24.29151111111111,88.47457627118645,24.2056C89.49152542372882,24.11968888888889,90.50847457627118,23.997111111111114,91.52542372881355,23.900800000000004C92.54237288135593,23.80448888888889,93.55932203389831,23.72608888888889,94.57627118644069,23.62773333333333C95.59322033898306,23.529377777777775,96.61016949152543,23.42542222222222,97.62711864406779,23.310666666666666C98.64406779661016,23.195911111111112,99.66101694915254,23.058355555555554,100.6779661016949,22.9392C101.69491525423729,22.820044444444445,102.71186440677965,22.70528888888889,103.72881355932203,22.595733333333335C104.7457627118644,22.48617777777778,105.76271186440678,22.39048888888889,106.77966101694915,22.281866666666666C107.79661016949153,22.173244444444443,108.8135593220339,22.058622222222223,109.83050847457628,21.944C110.84745762711864,21.829377777777776,111.86440677966102,21.717333333333332,112.88135593220339,21.594133333333332C113.89830508474576,21.47093333333333,114.91525423728814,21.341777777777775,115.9322033898305,21.2048C116.94915254237289,21.067822222222222,117.96610169491525,20.924,118.98305084745763,20.772266666666667C120,20.620533333333334,121.01694915254237,20.471288888888893,122.03389830508473,20.294400000000003C123.05084745762711,20.117511111111114,124.0677966101695,19.908755555555555,125.08474576271188,19.71093333333333C126.10169491525424,19.513111111111108,127.11864406779662,19.31408888888889,128.135593220339,19.107466666666667C129.15254237288136,18.900844444444445,130.16949152542372,18.683688888888888,131.1864406779661,18.4712C132.20338983050846,18.258711111111108,133.22033898305085,18.056399999999996,134.23728813559322,17.83253333333333C135.25423728813558,17.608666666666664,136.27118644067798,17.367466666666665,137.28813559322035,17.128C138.3050847457627,16.888533333333335,139.3220338983051,16.634888888888888,140.33898305084747,16.395733333333332C141.35593220338984,16.156577777777777,142.3728813559322,15.916844444444445,143.38983050847457,15.693066666666668C144.40677966101694,15.46928888888889,145.42372881355934,15.260533333333337,146.4406779661017,15.053066666666668C147.45762711864407,14.845600000000003,148.47457627118644,14.648222222222222,149.4915254237288,14.448266666666667C150.50847457627117,14.24831111111111,151.52542372881356,14.050844444444447,152.54237288135593,13.853333333333335C153.5593220338983,13.655822222222223,154.5762711864407,13.466711111111112,155.59322033898306,13.2632C156.61016949152543,13.05968888888889,157.6271186440678,12.838355555555554,158.64406779661016,12.632266666666666C159.66101694915253,12.426177777777776,160.67796610169492,12.232577777777777,161.6949152542373,12.026666666666666C162.71186440677965,11.820755555555554,163.72881355932205,11.609866666666667,164.74576271186442,11.396799999999999C165.76271186440678,11.183733333333333,166.77966101694915,10.936844444444443,167.79661016949152,10.748266666666666C168.81355932203388,10.559688888888887,169.83050847457628,10.422577777777779,170.84745762711864,10.265333333333334C171.864406779661,10.10808888888889,172.8813559322034,9.981377777777778,173.89830508474577,9.8048C174.91525423728814,9.628222222222222,175.93220338983053,9.369555555555559,176.9491525423729,9.205866666666669C177.96610169491527,9.04217777777778,178.98305084745763,8.932422222222224,180,8.822666666666667"></path><path class="axis-ceiling" stroke-width="1" stroke="black" fill="none" d="M175,0L180,0"></path><text class="axis-ceiling-label" font-family="sans-serif" text-anchor="end" font-size="10px" x="170" y="2.5">150000</text></g></svg>