<svg xmlns="http://www.w3.org/2000/svg" viewBox="0 0 180 60"><g transform="translate(0,20)"><path class="area" fill="rgba(0, 0, 0, 0.2)" d="M0,39.6C1.3636363636363635,39.371428571428574,2.7272727272727275,39.14285714285714,4.090909090909091,38.4C4.318181818181818,38.27619047619047,4.545454545454545,38.13333333333333,4.7727272727272725,38C5,37.86666666666667,5.2272727272727275,37.6022792022792,5.454545454545455,37.599999999999994C58.63636363636363,37.06666666666667,111.81818181818181,37.33333333333333,165,36.800000000000004C165.22727272727272,36.7977207977208,165.45454545454547,36.000000000000014,165.6818181818182,35.6C165.9090909090909,35.20000000000001,166.13636363636363,34.66666666666665,166.36363636363635,34.4C166.59090909090907,34.13333333333333,166.8181818181818,34.13333333333333,167.04545454545453,34C167.27272727272725,33.86666666666667,167.5,33.735511982570806,167.72727272727272,33.6C171.5909090909091,31.29629629629632,175.45454545454544,30.666666666666668,179.3181818181818,24.8C179.54545454545453,24.454901960784312,179.77272727272728,20.227450980392156,180,16L180,40C179.77272727272728,40,179.54545454545453,40,179.3181818181818,40C175.45454545454544,40,171.5909090909091,40,167.72727272727272,40C167.5,40,167.27272727272725,40,167.04545454545453,40C166.8181818181818,40,166.59090909090907,40,166.36363636363635,40C166.13636363636363,40,165.9090909090909,40,165.6818181818182,40C165.45454545454547,40,165.22727272727272,40,165,40C111.81818181818181,40,58.63636363636363,40,5.454545454545455,40C5.2272727272727275,40,5,40,4.7727272727272725,40C4.545454545454545,40,4.318181818181818,40,4.090909090909091,40C2.7272727272727275,40,1.3636363636363635,40,0,40Z"></path><path class="line" stroke="black" fill="none" d="M0,39.6C1.3636363636363635,39.371428571428574,2.7272727272727275,39.14285714285714,4.090909090909091,38.4C4.318181818181818,38.27619047619047,4.545454545454545,38.13333333333333,4.7727272727272725,38C5,37.86666666666667,5.2272727272727275,37.6022792022792,5.454545454545455,37.599999999999994C58.63636363636363,37.06666666666667,111.81818181818181,37.33333333333333,165,36.800000000000004C165.22727272727272,36.7977207977208,165.45454545454547,36.000000000000014,165.6818181818182,35.6C165.9090909090909,35.20000000000001,166.13636363636363,34.66666666666665,166.36363636363635,34.4C166.59090909090907,34.13333333333333,166.8181818181818,34.13333333333333,167.04545454545453,34C167.27272727272725,33.86666666666667,167.5,33.735511982570806,167.72727272727272,33.6C171.5909090909091,31.29629629629632,175.45454545454544,30.666666666666668,179.3181818181818,24.8C179.54545454545453,24.454901960784312,179.77272727272728,20.227450980392156,180,16"></path><path class="axis-ceiling" stroke-width="1" stroke="black" fill="none" d="M175,0L180,0"></path><text class="axis-ceiling-label" font-family="sans-serif" text-anchor="end" font-size="10px" x="170" y="2.5">100</text></g></svg>