<svg xmlns="http://www.w3.org/2000/svg" viewBox="0 0 180 60"><g transform="translate(0,20)"><path class="area" fill="rgba(0, 0, 0, 0.2)" d="M0,31.018933333333333C1.0169491525423728,30.91768888888889,2.0338983050847457,30.816444444444443,3.0508474576271185,30.714666666666666C4.067796610169491,30.61288888888889,5.084745762711864,30.50986666666667,6.101694915254237,30.40826666666667C7.11864406779661,30.30666666666667,8.135593220338983,30.20582222222222,9.152542372881356,30.105066666666666C10.169491525423728,30.00431111111111,11.186440677966102,29.90377777777778,12.203389830508474,29.803733333333334C13.220338983050846,29.703688888888887,14.23728813559322,29.60044444444444,15.254237288135592,29.504799999999996C16.271186440677965,29.40915555555555,17.28813559322034,29.318444444444445,18.305084745762713,29.229866666666666C19.322033898305087,29.141288888888887,20.338983050847457,29.056399999999996,21.35593220338983,28.97333333333333C22.372881355932204,28.890266666666662,23.389830508474574,28.810355555555557,24.406779661016948,28.73146666666667C25.423728813559322,28.652577777777783,26.440677966101696,28.573777777777778,27.45762711864407,28.5C28.47457627118644,28.426222222222222,29.491525423728813,28.35524444444444,30.508474576271183,28.2888C31.525423728813557,28.222355555555552,32.54237288135593,28.1616,33.559322033898304,28.101333333333333C34.57627118644068,28.041066666666666,35.59322033898305,27.983822222222223,36.610169491525426,27.9272C37.6271186440678,27.87057777777778,38.644067796610166,27.81511111111111,39.66101694915254,27.7616C40.67796610169491,27.70808888888889,41.69491525423729,27.656311111111116,42.71186440677966,27.606133333333336C43.728813559322035,27.555955555555556,44.7457627118644,27.508399999999998,45.762711864406775,27.46053333333333C46.77966101694915,27.412666666666663,47.79661016949152,27.365333333333332,48.813559322033896,27.318933333333334C49.83050847457627,27.272533333333335,50.847457627118644,27.228088888888887,51.86440677966102,27.182133333333333C52.88135593220339,27.136177777777778,53.898305084745765,27.089155555555553,54.91525423728814,27.0432C55.93220338983051,26.997244444444444,56.94915254237288,26.952666666666666,57.96610169491525,26.9064C58.983050847457626,26.860133333333337,59.99999999999999,26.81337777777778,61.01694915254237,26.765600000000003C62.03389830508474,26.717822222222225,63.05084745762712,26.668355555555554,64.0677966101695,26.61973333333333C65.08474576271186,26.571111111111108,66.10169491525424,26.52311111111111,67.11864406779661,26.473866666666666C68.13559322033899,26.424622222222222,69.15254237288136,26.37591111111111,70.16949152542374,26.324266666666666C71.1864406779661,26.27262222222222,72.20338983050848,26.218133333333334,73.22033898305085,26.164C74.23728813559322,26.10986666666667,75.2542372881356,26.055111111111113,76.27118644067797,25.99946666666667C77.28813559322033,25.943822222222227,78.30508474576271,25.887600000000003,79.32203389830508,25.830133333333336C80.33898305084746,25.77266666666667,81.35593220338983,25.713688888888885,82.37288135593221,25.654666666666664C83.38983050847457,25.595644444444442,84.40677966101696,25.537777777777777,85.42372881355932,25.476C86.4406779661017,25.41422222222222,87.45762711864407,25.349911111111112,88.47457627118645,25.284C89.49152542372882,25.21808888888889,90.50847457627118,25.14933333333333,91.52542372881355,25.08053333333333C92.54237288135593,25.011733333333332,93.55932203389831,24.943911111111113,94.57627118644069,24.8712C95.59322033898306,24.79848888888889,96.61016949152543,24.722266666666666,97.62711864406779,24.644266666666667C98.64406779661016,24.566266666666667,99.66101694915254,24.48613333333333,100.6779661016949,24.4032C101.69491525423729,24.320266666666665,102.71186440677965,24.236133333333335,103.72881355932203,24.14666666666667C104.7457627118644,24.0572,105.76271186440678,23.962355555555554,106.77966101694915,23.8664C107.79661016949153,23.770444444444443,108.8135593220339,23.670977777777775,109.83050847457628,23.570933333333333C110.84745762711864,23.47088888888889,111.86440677966102,23.370800000000003,112.88135593220339,23.266133333333336C113.89830508474576,23.16146666666667,114.91525423728814,23.051733333333328,115.9322033898305,22.94293333333333C116.94915254237289,22.834133333333327,117.96610169491525,22.725955555555554,118.98305084745763,22.613333333333333C120,22.500711111111112,121.01694915254237,22.38528888888889,122.03389830508473,22.267200000000003C123.05084745762711,22.149111111111115,124.0677966101695,22.02817777777778,125.08474576271188,21.9048C126.10169491525424,21.781422222222226,127.11864406779662,21.658622222222224,128.135593220339,21.526933333333336C129.15254237288136,21.395244444444447,130.16949152542372,21.258933333333335,131.1864406779661,21.11466666666667C132.20338983050846,20.9704,133.22033898305085,20.819599999999998,134.23728813559322,20.66133333333333C135.25423728813558,20.503066666666665,136.27118644067798,20.33733333333333,137.28813559322035,20.165066666666664C138.3050847457627,19.9928,139.3220338983051,19.814355555555554,140.33898305084747,19.62773333333333C141.35593220338984,19.44111111111111,142.3728813559322,19.246577777777777,143.38983050847457,19.045333333333332C144.40677966101694,18.844088888888887,145.42372881355934,18.633999999999997,146.4406779661017,18.420266666666663C147.45762711864407,18.20653333333333,148.47457627118644,17.98342222222222,149.4915254237288,17.762933333333333C150.50847457627117,17.542444444444442,151.52542372881356,17.3192,152.54237288135593,17.09733333333333C153.5593220338983,16.875466666666664,154.5762711864407,16.652622222222224,155.59322033898306,16.431733333333334C156.61016949152543,16.210844444444447,157.6271186440678,15.990711111111109,158.64406779661016,15.771999999999998C159.66101694915253,15.553288888888886,160.67796610169492,15.33528888888889,161.6949152542373,15.119466666666668C162.71186440677965,14.903644444444446,163.72881355932205,14.688133333333333,164.74576271186442,14.477066666666666C165.76271186440678,14.266,166.77966101694915,14.059377777777776,167.79661016949152,13.853066666666667C168.81355932203388,13.646755555555556,169.83050847457628,13.444000000000003,170.84745762711864,13.239200000000002C171.864406779661,13.034400000000002,172.8813559322034,12.826355555555557,173.89830508474577,12.624266666666667C174.91525423728814,12.422177777777778,175.93220338983053,12.222666666666667,176.9491525423729,12.026666666666666C177.96610169491527,11.830666666666668,178.98305084745763,11.639466666666667,180,11.448266666666669L180,40C178.98305084745763,40,177.96610169491527,40,176.9491525423729,40C175.93220338983053,40,174.91525423728814,40,173.89830508474577,40C172.8813559322034,40,171.864406779661,40,170.84745762711864,40C169.83050847457628,40,168.81355932203388,40,167.79661016949152,40C166.77966101694915,40,165.76271186440678,40,164.74576271186442,40C163.72881355932205,40,162.71186440677965,40,161.6949152542373,40C160.67796610169492,40,159.66101694915253,40,158.64406779661016,40C157.6271186440678,40,156.61016949152543,40,155.59322033898306,40C154.5762711864407,40,153.5593220338983,40,152.54237288135593,40C151.52542372881356,40,150.50847457627117,40,149.4915254237288,40C148.47457627118644,40,147.45762711864407,40,146.4406779661017,40C145.42372881355934,40,144.40677966101694,40,143.38983050847457,40C142.3728813559322,40,141.35593220338984,40,140.33898305084747,40C139.3220338983051,40,138.3050847457627,40,137.28813559322035,40C136.27118644067798,40,135.25423728813558,40,134.23728813559322,40C133.22033898305085,40,132.20338983050846,40,131.1864406779661,40C130.16949152542372,40,129.15254237288136,40,128.135593220339,40C127.11864406779662,40,126.10169491525424,40,125.08474576271188,40C124.0677966101695,40,123.05084745762711,40,122.03389830508473,40C121.01694915254237,40,120,40,118.98305084745763,40C117.96610169491525,40,116.94915254237289,40,115.9322033898305,40C114.91525423728814,40,113.89830508474576,40,112.88135593220339,40C111.86440677966102,40,110.84745762711864,40,109.83050847457628,40C108.8135593220339,40,107.79661016949153,40,106.77966101694915,40C105.76271186440678,40,104.7457627118644,40,103.72881355932203,40C102.71186440677965,40,101.69491525423729,40,100.6779661016949,40C99.66101694915254,40,98.64406779661016,40,97.62711864406779,40C96.61016949152543,40,95.59322033898306,40,94.57627118644069,40C93.55932203389831,40,92.54237288135593,40,91.52542372881355,40C90.50847457627118,40,89.49152542372882,40,88.47457627118645,40C87.45762711864407,40,86.4406779661017,40,85.42372881355932,40C84.40677966101696,40,83.38983050847457,40,82.37288135593221,40C81.35593220338983,40,80.33898305084746,40,79.32203389830508,40C78.30508474576271,40,77.28813559322033,40,76.27118644067797,40C75.2542372881356,40,74.23728813559322,40,73.22033898305085,40C72.20338983050848,40,71.1864406779661,40,70.16949152542374,40C69.15254237288136,40,68.13559322033899,40,67.11864406779661,40C66.10169491525424,40,65.08474576271186,40,64.0677966101695,40C63.05084745762712,40,62.03389830508474,40,61.01694915254237,40C59.99999999999999,40,58.983050847457626,40,57.96610169491525,40C56.94915254237288,40,55.93220338983051,40,54.91525423728814,40C53.898305084745765,40,52.88135593220339,40,51.86440677966102,40C50.847457627118644,40,49.83050847457627,40,48.813559322033896,40C47.79661016949152,40,46.77966101694915,40,45.762711864406775,40C44.7457627118644,40,43.728813559322035,40,42.71186440677966,40C41.69491525423729,40,40.67796610169491,40,39.66101694915254,40C38.644067796610166,40,37.6271186440678,40,36.610169491525426,40C35.59322033898305,40,34.57627118644068,40,33.559322033898304,40C32.54237288135593,40,31.525423728813557,40,30.508474576271183,40C29.491525423728813,40,28.47457627118644,40,27.45762711864407,40C26.440677966101696,40,25.423728813559322,40,24.406779661016948,40C23.389830508474574,40,22.372881355932204,40,21.35593220338983,40C20.338983050847457,40,19.322033898305087,40,18.305084745762713,40C17.28813559322034,40,16.271186440677965,40,15.254237288135592,40C14.23728813559322,40,13.220338983050846,40,12.203389830508474,40C11.186440677966102,40,10.169491525423728,40,9.152542372881356,40C8.135593220338983,40,7.11864406779661,40,6.101694915254237,40C5.084745762711864,40,4.067796610169491,40,3.0508474576271185,40C2.0338983050847457,40,1.0169491525423728,40,0,40Z"></path><path class="line" stroke="black" fill="none" d="M0,31.018933333333333C1.0169491525423728,30.91768888888889,2.0338983050847457,30.816444444444443,3.0508474576271185,30.714666666666666C4.067796610169491,30.61288888888889,5.084745762711864,30.50986666666667,6.101694915254237,30.40826666666667C7.11864406779661,30.30666666666667,8.135593220338983,30.20582222222222,9.152542372881356,30.105066666666666C10.169491525423728,30.00431111111111,11.186440677966102,29.90377777777778,12.203389830508474,29.803733333333334C13.220338983050846,29.703688888888887,14.23728813559322,29.60044444444444,15.254237288135592,29.504799999999996C16.271186440677965,29.40915555555555,17.28813559322034,29.318444444444445,18.305084745762713,29.229866666666666C19.322033898305087,29.141288888888887,20.338983050847457,29.056399999999996,21.35593220338983,28.97333333333333C22.372881355932204,28.890266666666662,23.389830508474574,28.810355555555557,24.406779661016948,28.73146666666667C25.423728813559322,28.652577777777783,26.440677966101696,28.573777777777778,27.45762711864407,28.5C28.47457627118644,28.426222222222222,29.491525423728813,28.35524444444444,30.508474576271183,28.2888C31.525423728813557,28.222355555555552,32.54237288135593,28.1616,33.559322033898304,28.101333333333333C34.57627118644068,28.041066666666666,35.59322033898305,27.983822222222223,36.610169491525426,27.9272C37.6271186440678,27.87057777777778,38.644067796610166,27.81511111111111,39.66101694915254,27.7616C40.67796610169491,27.70808888888889,41.69491525423729,27.656311111111116,42.71186440677966,27.606133333333336C43.728813559322035,27.555955555555556,44.7457627118644,27.508399999999998,45.762711864406775,27.46053333333333C46.77966101694915,27.412666666666663,47.79661016949152,27.365333333333332,48.813559322033896,27.318933333333334C49.83050847457627,27.272533333333335,50.847457627118644,27.228088888888887,51.86440677966102,27.182133333333333C52.88135593220339,27.136177777777778,53.898305084745765,27.089155555555553,54.91525423728814,27.0432C55.93220338983051,26.997244444444444,56.94915254237288,26.952666666666666,57.96610169491525,26.9064C58.983050847457626,26.860133333333337,59.99999999999999,26.81337777777778,61.01694915254237,26.765600000000003C62.03389830508474,26.717822222222225,63.05084745762712,26.668355555555554,64.0677966101695,26.61973333333333C65.08474576271186,26.571111111111108,66.10169491525424,26.52311111111111,67.11864406779661,26.473866666666666C68.13559322033899,26.424622222222222,69.15254237288136,26.37591111111111,70.16949152542374,26.324266666666666C71.1864406779661,26.27262222222222,72.20338983050848,26.218133333333334,73.22033898305085,26.164C74.23728813559322,26.10986666666667,75.2542372881356,26.055111111111113,76.27118644067797,25.99946666666667C77.28813559322033,25.943822222222227,78.30508474576271,25.887600000000003,79.32203389830508,25.830133333333336C80.33898305084746,25.77266666666667,81.35593220338983,25.713688888888885,82.37288135593221,25.654666666666664C83.38983050847457,25.595644444444442,84.40677966101696,25.537777777777777,85.42372881355932,25.476C86.4406779661017,25.41422222222222,87.45762711864407,25.349911111111112,88.47457627118645,25.284C89.49152542372882,25.21808888888889,90.50847457627118,25.14933333333333,91.52542372881355,25.08053333333333C92.54237288135593,25.011733333333332,93.55932203389831,24.943911111111113,94.57627118644069,24.8712C95.59322033898306,24.79848888888889,96.61016949152543,24.722266666666666,97.62711864406779,24.644266666666667C98.64406779661016,24.566266666666667,99.66101694915254,24.48613333333333,100.6779661016949,24.4032C101.69491525423729,24.320266666666665,102.71186440677965,24.236133333333335,103.72881355932203,24.14666666666667C104.7457627118644,24.0572,105.76271186440678,23.962355555555554,106.77966101694915,23.8664C107.79661016949153,23.770444444444443,108.8135593220339,23.670977777777775,109.83050847457628,23.570933333333333C110.84745762711864,23.47088888888889,111.86440677966102,23.370800000000003,112.88135593220339,23.266133333333336C113.89830508474576,23.16146666666667,114.91525423728814,23.051733333333328,115.9322033898305,22.94293333333333C116.94915254237289,22.834133333333327,117.96610169491525,22.725955555555554,118.98305084745763,22.613333333333333C120,22.500711111111112,121.01694915254237,22.38528888888889,122.03389830508473,22.267200000000003C123.05084745762711,22.149111111111115,124.0677966101695,22.02817777777778,125.08474576271188,21.9048C126.10169491525424,21.781422222222226,127.11864406779662,21.658622222222224,128.135593220339,21.526933333333336C129.15254237288136,21.395244444444447,130.16949152542372,21.258933333333335,131.1864406779661,21.11466666666667C132.20338983050846,20.9704,133.22033898305085,20.819599999999998,134.23728813559322,20.66133333333333C135.25423728813558,20.503066666666665,136.27118644067798,20.33733333333333,137.28813559322035,20.165066666666664C138.3050847457627,19.9928,139.3220338983051,19.814355555555554,140.33898305084747,19.62773333333333C141.35593220338984,19.44111111111111,142.3728813559322,19.246577777777777,143.38983050847457,19.045333333333332C144.40677966101694,18.844088888888887,145.42372881355934,18.633999999999997,146.4406779661017,18.420266666666663C147.45762711864407,18.20653333333333,148.47457627118644,17.98342222222222,149.4915254237288,17.762933333333333C150.50847457627117,17.542444444444442,151.52542372881356,17.3192,152.54237288135593,17.09733333333333C153.5593220338983,16.875466666666664,154.5762711864407,16.652622222222224,155.59322033898306,16.431733333333334C156.61016949152543,16.210844444444447,157.6271186440678,15.990711111111109,158.64406779661016,15.771999999999998C159.66101694915253,15.553288888888886,160.67796610169492,15.33528888888889,161.6949152542373,15.119466666666668C162.71186440677965,14.903644444444446,163.72881355932205,14.688133333333333,164.74576271186442,14.477066666666666C165.76271186440678,14.266,166.77966101694915,14.059377777777776,167.79661016949152,13.853066666666667C168.81355932203388,13.646755555555556,169.83050847457628,13.444000000000003,170.84745762711864,13.239200000000002C171.864406779661,13.034400000000002,172.8813559322034,12.826355555555557,173.89830508474577,12.624266666666667C174.91525423728814,12.422177777777778,175.93220338983053,12.222666666666667,176.9491525423729,12.026666666666666C177.96610169491527,11.830666666666668,178.98305084745763,11.639466666666667,180,11.448266666666669"></path><path class="axis-ceiling" stroke-width="1" stroke="black" fill="none" d="M175,0L180,0"></path><text class="axis-ceiling-label" font-family="sans-serif" text-anchor="end" font-size="10px" x="170" y="2.5">150000</text></g></svg>