<svg xmlns="http://www.w3.org/2000/svg" viewBox="0 0 180 60"><g transform="translate(0,20)"><path class="area" fill="rgba(0, 0, 0, 0.2)" d="M0,34.3268C1.0169491525423728,34.21176666666666,2.0338983050847457,34.09673333333333,3.0508474576271185,33.9944C4.067796610169491,33.892066666666665,5.084745762711864,33.818733333333334,6.101694915254237,33.7128C7.11864406779661,33.60686666666667,8.135593220338983,33.49913333333333,9.152542372881356,33.3588C10.169491525423728,33.21846666666667,11.186440677966102,33.0016,12.203389830508474,32.8708C13.220338983050846,32.74,14.23728813559322,32.697266666666664,15.254237288135592,32.574C16.271186440677965,32.45073333333333,17.28813559322034,32.27053333333333,18.305084745762713,32.1312C19.322033898305087,31.991866666666667,20.338983050847457,31.892866666666666,21.35593220338983,31.738C22.372881355932204,31.583133333333333,23.389830508474574,31.3506,24.406779661016948,31.202C25.423728813559322,31.053400000000003,26.440677966101696,30.99306666666667,27.45762711864407,30.846400000000003C28.47457627118644,30.699733333333334,29.491525423728813,30.487333333333332,30.508474576271183,30.322C31.525423728813557,30.156666666666666,32.54237288135593,30.02086666666667,33.559322033898304,29.854400000000002C34.57627118644068,29.687933333333334,35.59322033898305,29.496000000000002,36.610169491525426,29.3232C37.6271186440678,29.1504,38.644067796610166,28.986066666666666,39.66101694915254,28.8176C40.67796610169491,28.64913333333333,41.69491525423729,28.48086666666667,42.71186440677966,28.312400000000004C43.728813559322035,28.143933333333337,44.7457627118644,27.948133333333338,45.762711864406775,27.806800000000003C46.77966101694915,27.665466666666667,47.79661016949152,27.594666666666665,48.813559322033896,27.464399999999998C49.83050847457627,27.33413333333333,50.847457627118644,27.176466666666663,51.86440677966102,27.025199999999998C52.88135593220339,26.873933333333333,53.898305084745765,26.702533333333335,54.91525423728814,26.556800000000003C55.93220338983051,26.41106666666667,56.94915254237288,26.308866666666663,57.96610169491525,26.150799999999997C58.983050847457626,25.99273333333333,59.99999999999999,25.785866666666664,61.01694915254237,25.608399999999996C62.03389830508474,25.43093333333333,63.05084745762712,25.252066666666664,64.0677966101695,25.086C65.08474576271186,24.919933333333333,66.10169491525424,24.75173333333333,67.11864406779661,24.612C68.13559322033899,24.472266666666666,69.15254237288136,24.375999999999998,70.16949152542374,24.2476C71.1864406779661,24.1192,72.20338983050848,23.984466666666666,73.22033898305085,23.8416C74.23728813559322,23.698733333333333,75.2542372881356,23.528266666666667,76.27118644067797,23.3904C77.28813559322033,23.252533333333332,78.30508474576271,23.126199999999997,79.32203389830508,23.0144C80.33898305084746,22.9026,81.35593220338983,22.823066666666666,82.37288135593221,22.7196C83.38983050847457,22.616133333333334,84.40677966101696,22.50153333333333,85.42372881355932,22.3936C86.4406779661017,22.285666666666668,87.45762711864407,22.168200000000002,88.47457627118645,22.072000000000003C89.49152542372882,21.975800000000003,90.50847457627118,21.8908,91.52542372881355,21.816399999999998C92.54237288135593,21.741999999999997,93.55932203389831,21.691533333333332,94.57627118644069,21.6256C95.59322033898306,21.559666666666665,96.61016949152543,21.493933333333334,97.62711864406779,21.4208C98.64406779661016,21.347666666666665,99.66101694915254,21.260133333333332,100.6779661016949,21.186799999999998C101.69491525423729,21.113466666666664,102.71186440677965,21.052,103.72881355932203,20.9808C104.7457627118644,20.9096,105.76271186440678,20.832533333333334,106.77966101694915,20.759600000000002C107.79661016949153,20.686666666666667,108.8135593220339,20.6148,109.83050847457628,20.5432C110.84745762711864,20.4716,111.86440677966102,20.388799999999996,112.88135593220339,20.33C113.89830508474576,20.2712,114.91525423728814,20.252,115.9322033898305,20.1904C116.94915254237289,20.128800000000002,117.96610169491525,20.033333333333335,118.98305084745763,19.9604C120,19.88746666666667,121.01694915254237,19.829333333333334,122.03389830508473,19.7528C123.05084745762711,19.676266666666667,124.0677966101695,19.588733333333334,125.08474576271188,19.5012C126.10169491525424,19.413666666666668,127.11864406779662,19.30913333333333,128.135593220339,19.2276C129.15254237288136,19.146066666666666,130.16949152542372,19.08993333333333,131.1864406779661,19.011999999999997C132.20338983050846,18.934066666666663,133.22033898305085,18.844266666666666,134.23728813559322,18.759999999999998C135.25423728813558,18.67573333333333,136.27118644067798,18.593999999999998,137.28813559322035,18.5064C138.3050847457627,18.4188,139.3220338983051,18.32326666666667,140.33898305084747,18.2344C141.35593220338984,18.145533333333333,142.3728813559322,18.069066666666664,143.38983050847457,17.9732C144.40677966101694,17.877333333333333,145.42372881355934,17.7628,146.4406779661017,17.6592C147.45762711864407,17.5556,148.47457627118644,17.462266666666668,149.4915254237288,17.3516C150.50847457627117,17.240933333333334,151.52542372881356,17.1164,152.54237288135593,16.9952C153.5593220338983,16.874000000000002,154.5762711864407,16.73886666666667,155.59322033898306,16.6244C156.61016949152543,16.509933333333336,157.6271186440678,16.437266666666666,158.64406779661016,16.3084C159.66101694915253,16.17953333333333,160.67796610169492,15.995666666666665,161.6949152542373,15.851199999999999C162.71186440677965,15.706733333333332,163.72881355932205,15.589133333333335,164.74576271186442,15.441600000000001C165.76271186440678,15.294066666666668,166.77966101694915,15.138133333333332,167.79661016949152,14.966C168.81355932203388,14.793866666666664,169.83050847457628,14.587533333333333,170.84745762711864,14.4088C171.864406779661,14.230066666666666,172.8813559322034,14.057933333333333,173.89830508474577,13.8936C174.91525423728814,13.729266666666666,175.93220338983053,13.585733333333337,176.9491525423729,13.422800000000002C177.96610169491527,13.25986666666667,178.98305084745763,13.087933333333334,180,12.915999999999999L180,40C178.98305084745763,40,177.96610169491527,40,176.9491525423729,40C175.93220338983053,40,174.91525423728814,40,173.89830508474577,40C172.8813559322034,40,171.864406779661,40,170.84745762711864,40C169.83050847457628,40,168.81355932203388,40,167.79661016949152,40C166.77966101694915,40,165.76271186440678,40,164.74576271186442,40C163.72881355932205,40,162.71186440677965,40,161.6949152542373,40C160.67796610169492,40,159.66101694915253,40,158.64406779661016,40C157.6271186440678,40,156.61016949152543,40,155.59322033898306,40C154.5762711864407,40,153.5593220338983,40,152.54237288135593,40C151.52542372881356,40,150.50847457627117,40,149.4915254237288,40C148.47457627118644,40,147.45762711864407,40,146.4406779661017,40C145.42372881355934,40,144.40677966101694,40,143.38983050847457,40C142.3728813559322,40,141.35593220338984,40,140.33898305084747,40C139.3220338983051,40,138.3050847457627,40,137.28813559322035,40C136.27118644067798,40,135.25423728813558,40,134.23728813559322,40C133.22033898305085,40,132.20338983050846,40,131.1864406779661,40C130.16949152542372,40,129.15254237288136,40,128.135593220339,40C127.11864406779662,40,126.10169491525424,40,125.08474576271188,40C124.0677966101695,40,123.05084745762711,40,122.03389830508473,40C121.01694915254237,40,120,40,118.98305084745763,40C117.96610169491525,40,116.94915254237289,40,115.9322033898305,40C114.91525423728814,40,113.89830508474576,40,112.88135593220339,40C111.86440677966102,40,110.84745762711864,40,109.83050847457628,40C108.8135593220339,40,107.79661016949153,40,106.77966101694915,40C105.76271186440678,40,104.7457627118644,40,103.72881355932203,40C102.71186440677965,40,101.69491525423729,40,100.6779661016949,40C99.66101694915254,40,98.64406779661016,40,97.62711864406779,40C96.61016949152543,40,95.59322033898306,40,94.57627118644069,40C93.55932203389831,40,92.54237288135593,40,91.52542372881355,40C90.50847457627118,40,89.49152542372882,40,88.47457627118645,40C87.45762711864407,40,86.4406779661017,40,85.42372881355932,40C84.40677966101696,40,83.38983050847457,40,82.37288135593221,40C81.35593220338983,40,80.33898305084746,40,79.32203389830508,40C78.30508474576271,40,77.28813559322033,40,76.27118644067797,40C75.2542372881356,40,74.23728813559322,40,73.22033898305085,40C72.20338983050848,40,71.1864406779661,40,70.16949152542374,40C69.15254237288136,40,68.13559322033899,40,67.11864406779661,40C66.10169491525424,40,65.08474576271186,40,64.0677966101695,40C63.05084745762712,40,62.03389830508474,40,61.01694915254237,40C59.99999999999999,40,58.983050847457626,40,57.96610169491525,40C56.94915254237288,40,55.93220338983051,40,54.91525423728814,40C53.898305084745765,40,52.88135593220339,40,51.86440677966102,40C50.847457627118644,40,49.83050847457627,40,48.813559322033896,40C47.79661016949152,40,46.77966101694915,40,45.762711864406775,40C44.7457627118644,40,43.728813559322035,40,42.71186440677966,40C41.69491525423729,40,40.67796610169491,40,39.66101694915254,40C38.644067796610166,40,37.6271186440678,40,36.610169491525426,40C35.59322033898305,40,34.57627118644068,40,33.559322033898304,40C32.54237288135593,40,31.525423728813557,40,30.508474576271183,40C29.491525423728813,40,28.47457627118644,40,27.45762711864407,40C26.440677966101696,40,25.423728813559322,40,24.406779661016948,40C23.389830508474574,40,22.372881355932204,40,21.35593220338983,40C20.338983050847457,40,19.322033898305087,40,18.305084745762713,40C17.28813559322034,40,16.271186440677965,40,15.254237288135592,40C14.23728813559322,40,13.220338983050846,40,12.203389830508474,40C11.186440677966102,40,10.169491525423728,40,9.152542372881356,40C8.135593220338983,40,7.11864406779661,40,6.101694915254237,40C5.084745762711864,40,4.067796610169491,40,3.0508474576271185,40C2.0338983050847457,40,1.0169491525423728,40,0,40Z"></path><path class="line" stroke="black" fill="none" d="M0,34.3268C1.0169491525423728,34.21176666666666,2.0338983050847457,34.09673333333333,3.0508474576271185,33.9944C4.067796610169491,33.892066666666665,5.084745762711864,33.818733333333334,6.101694915254237,33.7128C7.11864406779661,33.60686666666667,8.135593220338983,33.49913333333333,9.152542372881356,33.3588C10.169491525423728,33.21846666666667,11.186440677966102,33.0016,12.203389830508474,32.8708C13.220338983050846,32.74,14.23728813559322,32.697266666666664,15.254237288135592,32.574C16.271186440677965,32.45073333333333,17.28813559322034,32.27053333333333,18.305084745762713,32.1312C19.322033898305087,31.991866666666667,20.338983050847457,31.892866666666666,21.35593220338983,31.738C22.372881355932204,31.583133333333333,23.389830508474574,31.3506,24.406779661016948,31.202C25.423728813559322,31.053400000000003,26.440677966101696,30.99306666666667,27.45762711864407,30.846400000000003C28.47457627118644,30.699733333333334,29.491525423728813,30.487333333333332,30.508474576271183,30.322C31.525423728813557,30.156666666666666,32.54237288135593,30.02086666666667,33.559322033898304,29.854400000000002C34.57627118644068,29.687933333333334,35.59322033898305,29.496000000000002,36.610169491525426,29.3232C37.6271186440678,29.1504,38.644067796610166,28.986066666666666,39.66101694915254,28.8176C40.67796610169491,28.64913333333333,41.69491525423729,28.48086666666667,42.71186440677966,28.312400000000004C43.728813559322035,28.143933333333337,44.7457627118644,27.948133333333338,45.762711864406775,27.806800000000003C46.77966101694915,27.665466666666667,47.79661016949152,27.594666666666665,48.813559322033896,27.464399999999998C49.83050847457627,27.33413333333333,50.847457627118644,27.176466666666663,51.86440677966102,27.025199999999998C52.88135593220339,26.873933333333333,53.898305084745765,26.702533333333335,54.91525423728814,26.556800000000003C55.93220338983051,26.41106666666667,56.94915254237288,26.308866666666663,57.96610169491525,26.150799999999997C58.983050847457626,25.99273333333333,59.99999999999999,25.785866666666664,61.01694915254237,25.608399999999996C62.03389830508474,25.43093333333333,63.05084745762712,25.252066666666664,64.0677966101695,25.086C65.08474576271186,24.919933333333333,66.10169491525424,24.75173333333333,67.11864406779661,24.612C68.13559322033899,24.472266666666666,69.15254237288136,24.375999999999998,70.16949152542374,24.2476C71.1864406779661,24.1192,72.20338983050848,23.984466666666666,73.22033898305085,23.8416C74.23728813559322,23.698733333333333,75.2542372881356,23.528266666666667,76.27118644067797,23.3904C77.28813559322033,23.252533333333332,78.30508474576271,23.126199999999997,79.32203389830508,23.0144C80.33898305084746,22.9026,81.35593220338983,22.823066666666666,82.37288135593221,22.7196C83.38983050847457,22.616133333333334,84.40677966101696,22.50153333333333,85.42372881355932,22.3936C86.4406779661017,22.285666666666668,87.45762711864407,22.168200000000002,88.47457627118645,22.072000000000003C89.49152542372882,21.975800000000003,90.50847457627118,21.8908,91.52542372881355,21.816399999999998C92.54237288135593,21.741999999999997,93.55932203389831,21.691533333333332,94.57627118644069,21.6256C95.59322033898306,21.559666666666665,96.61016949152543,21.493933333333334,97.62711864406779,21.4208C98.64406779661016,21.347666666666665,99.66101694915254,21.260133333333332,100.6779661016949,21.186799999999998C101.69491525423729,21.113466666666664,102.71186440677965,21.052,103.72881355932203,20.9808C104.7457627118644,20.9096,105.76271186440678,20.832533333333334,106.77966101694915,20.759600000000002C107.79661016949153,20.686666666666667,108.8135593220339,20.6148,109.83050847457628,20.5432C110.84745762711864,20.4716,111.86440677966102,20.388799999999996,112.88135593220339,20.33C113.89830508474576,20.2712,114.91525423728814,20.252,115.9322033898305,20.1904C116.94915254237289,20.128800000000002,117.96610169491525,20.033333333333335,118.98305084745763,19.9604C120,19.88746666666667,121.01694915254237,19.829333333333334,122.03389830508473,19.7528C123.05084745762711,19.676266666666667,124.0677966101695,19.588733333333334,125.08474576271188,19.5012C126.10169491525424,19.413666666666668,127.11864406779662,19.30913333333333,128.135593220339,19.2276C129.15254237288136,19.146066666666666,130.16949152542372,19.08993333333333,131.1864406779661,19.011999999999997C132.20338983050846,18.934066666666663,133.22033898305085,18.844266666666666,134.23728813559322,18.759999999999998C135.25423728813558,18.67573333333333,136.27118644067798,18.593999999999998,137.28813559322035,18.5064C138.3050847457627,18.4188,139.3220338983051,18.32326666666667,140.33898305084747,18.2344C141.35593220338984,18.145533333333333,142.3728813559322,18.069066666666664,143.38983050847457,17.9732C144.40677966101694,17.877333333333333,145.42372881355934,17.7628,146.4406779661017,17.6592C147.45762711864407,17.5556,148.47457627118644,17.462266666666668,149.4915254237288,17.3516C150.50847457627117,17.240933333333334,151.52542372881356,17.1164,152.54237288135593,16.9952C153.5593220338983,16.874000000000002,154.5762711864407,16.73886666666667,155.59322033898306,16.6244C156.61016949152543,16.509933333333336,157.6271186440678,16.437266666666666,158.64406779661016,16.3084C159.66101694915253,16.17953333333333,160.67796610169492,15.995666666666665,161.6949152542373,15.851199999999999C162.71186440677965,15.706733333333332,163.72881355932205,15.589133333333335,164.74576271186442,15.441600000000001C165.76271186440678,15.294066666666668,166.77966101694915,15.138133333333332,167.79661016949152,14.966C168.81355932203388,14.793866666666664,169.83050847457628,14.587533333333333,170.84745762711864,14.4088C171.864406779661,14.230066666666666,172.8813559322034,14.057933333333333,173.89830508474577,13.8936C174.91525423728814,13.729266666666666,175.93220338983053,13.585733333333337,176.9491525423729,13.422800000000002C177.96610169491527,13.25986666666667,178.98305084745763,13.087933333333334,180,12.915999999999999"></path><path class="axis-ceiling" stroke-width="1" stroke="black" fill="none" d="M175,0L180,0"></path><text class="axis-ceiling-label" font-family="sans-serif" text-anchor="end" font-size="10px" x="170" y="2.5">100000</text></g></svg>