<svg xmlns="http://www.w3.org/2000/svg" viewBox="0 0 180 60"><g transform="translate(0,20)"><path class="area" fill="rgba(0, 0, 0, 0.2)" d="M0,28.048000000000002C1.0169491525423728,27.9876,2.0338983050847457,27.927200000000003,3.0508474576271185,27.8776C4.067796610169491,27.828,5.084745762711864,27.794355555555555,6.101694915254237,27.7504C7.11864406779661,27.706444444444443,8.135593220338983,27.662622222222222,9.152542372881356,27.613866666666667C10.169491525423728,27.56511111111111,11.186440677966102,27.506755555555557,12.203389830508474,27.457866666666668C13.220338983050846,27.40897777777778,14.23728813559322,27.368,15.254237288135592,27.32053333333333C16.271186440677965,27.27306666666666,17.28813559322034,27.221688888888885,18.305084745762713,27.173066666666664C19.322033898305087,27.124444444444443,20.338983050847457,27.076533333333334,21.35593220338983,27.0288C22.372881355932204,26.981066666666667,23.389830508474574,26.925866666666668,24.406779661016948,26.886666666666667C25.423728813559322,26.847466666666666,26.440677966101696,26.834666666666664,27.45762711864407,26.793599999999998C28.47457627118644,26.752533333333332,29.491525423728813,26.688888888888886,30.508474576271183,26.640266666666665C31.525423728813557,26.591644444444444,32.54237288135593,26.552888888888887,33.559322033898304,26.501866666666665C34.57627118644068,26.450844444444442,35.59322033898305,26.392488888888888,36.610169491525426,26.334133333333334C37.6271186440678,26.27577777777778,38.644067796610166,26.20608888888889,39.66101694915254,26.151733333333333C40.67796610169491,26.097377777777776,41.69491525423729,26.059955555555554,42.71186440677966,26.008C43.728813559322035,25.956044444444444,44.7457627118644,25.896177777777776,45.762711864406775,25.84C46.77966101694915,25.78382222222222,47.79661016949152,25.72933333333333,48.813559322033896,25.67093333333333C49.83050847457627,25.61253333333333,50.847457627118644,25.54884444444445,51.86440677966102,25.489600000000003C52.88135593220339,25.430355555555558,53.898305084745765,25.379377777777776,54.91525423728814,25.315466666666666C55.93220338983051,25.251555555555555,56.94915254237288,25.175200000000004,57.96610169491525,25.106133333333336C58.983050847457626,25.037066666666668,59.99999999999999,24.974844444444443,61.01694915254237,24.901066666666665C62.03389830508474,24.827288888888887,63.05084745762712,24.744266666666665,64.0677966101695,24.663466666666665C65.08474576271186,24.582666666666665,66.10169491525424,24.492577777777775,67.11864406779661,24.416266666666665C68.13559322033899,24.339955555555555,69.15254237288136,24.29151111111111,70.16949152542374,24.2056C71.1864406779661,24.11968888888889,72.20338983050848,23.997111111111117,73.22033898305085,23.900800000000004C74.23728813559322,23.80448888888889,75.2542372881356,23.72608888888889,76.27118644067797,23.62773333333333C77.28813559322033,23.529377777777775,78.30508474576271,23.42542222222222,79.32203389830508,23.310666666666666C80.33898305084746,23.195911111111112,81.35593220338983,23.058355555555554,82.37288135593221,22.9392C83.38983050847457,22.820044444444445,84.40677966101696,22.70528888888889,85.42372881355932,22.595733333333335C86.4406779661017,22.48617777777778,87.45762711864407,22.39048888888889,88.47457627118645,22.281866666666666C89.49152542372882,22.173244444444443,90.50847457627118,22.05862222222222,91.52542372881355,21.944C92.54237288135593,21.829377777777776,93.55932203389831,21.717333333333332,94.57627118644069,21.594133333333332C95.59322033898306,21.47093333333333,96.61016949152543,21.341777777777775,97.62711864406779,21.2048C98.64406779661016,21.067822222222222,99.66101694915254,20.924,100.6779661016949,20.772266666666667C101.69491525423729,20.620533333333334,102.71186440677965,20.471288888888893,103.72881355932203,20.294400000000003C104.7457627118644,20.117511111111114,105.76271186440678,19.90875555555555,106.77966101694915,19.71093333333333C107.79661016949153,19.513111111111108,108.8135593220339,19.31408888888889,109.83050847457628,19.107466666666667C110.84745762711864,18.900844444444445,111.86440677966102,18.683688888888888,112.88135593220339,18.4712C113.89830508474576,18.25871111111111,114.91525423728814,18.056399999999996,115.9322033898305,17.83253333333333C116.94915254237289,17.608666666666664,117.96610169491525,17.36746666666667,118.98305084745763,17.128C120,16.888533333333335,121.01694915254237,16.634888888888884,122.03389830508473,16.395733333333332C123.05084745762711,16.156577777777777,124.0677966101695,15.916844444444447,125.08474576271188,15.693066666666668C126.10169491525424,15.469288888888892,127.11864406779662,15.260533333333335,128.135593220339,15.053066666666668C129.15254237288136,14.845600000000001,130.16949152542372,14.648222222222222,131.1864406779661,14.448266666666667C132.20338983050846,14.24831111111111,133.22033898305085,14.050844444444447,134.23728813559322,13.853333333333335C135.25423728813558,13.655822222222223,136.27118644067798,13.466711111111112,137.28813559322035,13.2632C138.3050847457627,13.059688888888887,139.3220338983051,12.838355555555557,140.33898305084747,12.632266666666666C141.35593220338984,12.426177777777779,142.3728813559322,12.232577777777776,143.38983050847457,12.026666666666666C144.40677966101694,11.820755555555554,145.42372881355934,11.609866666666667,146.4406779661017,11.396799999999999C147.45762711864407,11.183733333333333,148.47457627118644,10.936844444444443,149.4915254237288,10.748266666666666C150.50847457627117,10.559688888888887,151.52542372881356,10.422577777777779,152.54237288135593,10.265333333333334C153.5593220338983,10.10808888888889,154.5762711864407,9.981377777777778,155.59322033898306,9.8048C156.61016949152543,9.628222222222224,157.6271186440678,9.416133333333335,158.64406779661016,9.205866666666669C159.66101694915253,8.995600000000001,160.67796610169492,8.759244444444443,161.6949152542373,8.543199999999999C162.71186440677965,8.327155555555555,163.72881355932205,8.121911111111114,164.74576271186442,7.909600000000001C165.76271186440678,7.697288888888891,166.77966101694915,7.488044444444442,167.79661016949152,7.269333333333332C168.81355932203388,7.05062222222222,169.83050847457628,6.778266666666668,170.84745762711864,6.597333333333335C171.864406779661,6.416400000000002,172.8813559322034,6.32568888888889,173.89830508474577,6.183733333333334C174.91525423728814,6.041777777777779,175.93220338983053,5.869244444444445,176.9491525423729,5.7456C177.96610169491527,5.621955555555556,178.98305084745763,5.531911111111111,180,5.441866666666666L180,40C178.98305084745763,40,177.96610169491527,40,176.9491525423729,40C175.93220338983053,40,174.91525423728814,40,173.89830508474577,40C172.8813559322034,40,171.864406779661,40,170.84745762711864,40C169.83050847457628,40,168.81355932203388,40,167.79661016949152,40C166.77966101694915,40,165.76271186440678,40,164.74576271186442,40C163.72881355932205,40,162.71186440677965,40,161.6949152542373,40C160.67796610169492,40,159.66101694915253,40,158.64406779661016,40C157.6271186440678,40,156.61016949152543,40,155.59322033898306,40C154.5762711864407,40,153.5593220338983,40,152.54237288135593,40C151.52542372881356,40,150.50847457627117,40,149.4915254237288,40C148.47457627118644,40,147.45762711864407,40,146.4406779661017,40C145.42372881355934,40,144.40677966101694,40,143.38983050847457,40C142.3728813559322,40,141.35593220338984,40,140.33898305084747,40C139.3220338983051,40,138.3050847457627,40,137.28813559322035,40C136.27118644067798,40,135.25423728813558,40,134.23728813559322,40C133.22033898305085,40,132.20338983050846,40,131.1864406779661,40C130.16949152542372,40,129.15254237288136,40,128.135593220339,40C127.11864406779662,40,126.10169491525424,40,125.08474576271188,40C124.0677966101695,40,123.05084745762711,40,122.03389830508473,40C121.01694915254237,40,120,40,118.98305084745763,40C117.96610169491525,40,116.94915254237289,40,115.9322033898305,40C114.91525423728814,40,113.89830508474576,40,112.88135593220339,40C111.86440677966102,40,110.84745762711864,40,109.83050847457628,40C108.8135593220339,40,107.79661016949153,40,106.77966101694915,40C105.76271186440678,40,104.7457627118644,40,103.72881355932203,40C102.71186440677965,40,101.69491525423729,40,100.6779661016949,40C99.66101694915254,40,98.64406779661016,40,97.62711864406779,40C96.61016949152543,40,95.59322033898306,40,94.57627118644069,40C93.55932203389831,40,92.54237288135593,40,91.52542372881355,40C90.50847457627118,40,89.49152542372882,40,88.47457627118645,40C87.45762711864407,40,86.4406779661017,40,85.42372881355932,40C84.40677966101696,40,83.38983050847457,40,82.37288135593221,40C81.35593220338983,40,80.33898305084746,40,79.32203389830508,40C78.30508474576271,40,77.28813559322033,40,76.27118644067797,40C75.2542372881356,40,74.23728813559322,40,73.22033898305085,40C72.20338983050848,40,71.1864406779661,40,70.16949152542374,40C69.15254237288136,40,68.13559322033899,40,67.11864406779661,40C66.10169491525424,40,65.08474576271186,40,64.0677966101695,40C63.05084745762712,40,62.03389830508474,40,61.01694915254237,40C59.99999999999999,40,58.983050847457626,40,57.96610169491525,40C56.94915254237288,40,55.93220338983051,40,54.91525423728814,40C53.898305084745765,40,52.88135593220339,40,51.86440677966102,40C50.847457627118644,40,49.83050847457627,40,48.813559322033896,40C47.79661016949152,40,46.77966101694915,40,45.762711864406775,40C44.7457627118644,40,43.728813559322035,40,42.71186440677966,40C41.69491525423729,40,40.67796610169491,40,39.66101694915254,40C38.644067796610166,40,37.6271186440678,40,36.610169491525426,40C35.59322033898305,40,34.57627118644068,40,33.559322033898304,40C32.54237288135593,40,31.525423728813557,40,30.508474576271183,40C29.491525423728813,40,28.47457627118644,40,27.45762711864407,40C26.440677966101696,40,25.423728813559322,40,24.406779661016948,40C23.389830508474574,40,22.372881355932204,40,21.35593220338983,40C20.338983050847457,40,19.322033898305087,40,18.305084745762713,40C17.28813559322034,40,16.271186440677965,40,15.254237288135592,40C14.23728813559322,40,13.220338983050846,40,12.203389830508474,40C11.186440677966102,40,10.169491525423728,40,9.152542372881356,40C8.135593220338983,40,7.11864406779661,40,6.101694915254237,40C5.084745762711864,40,4.067796610169491,40,3.0508474576271185,40C2.0338983050847457,40,1.0169491525423728,40,0,40Z"></path><path class="line" stroke="black" fill="none" d="M0,28.048000000000002C1.0169491525423728,27.9876,2.0338983050847457,27.927200000000003,3.0508474576271185,27.8776C4.067796610169491,27.828,5.084745762711864,27.794355555555555,6.101694915254237,27.7504C7.11864406779661,27.706444444444443,8.135593220338983,27.662622222222222,9.152542372881356,27.613866666666667C10.169491525423728,27.56511111111111,11.186440677966102,27.506755555555557,12.203389830508474,27.457866666666668C13.220338983050846,27.40897777777778,14.23728813559322,27.368,15.254237288135592,27.32053333333333C16.271186440677965,27.27306666666666,17.28813559322034,27.221688888888885,18.305084745762713,27.173066666666664C19.322033898305087,27.124444444444443,20.338983050847457,27.076533333333334,21.35593220338983,27.0288C22.372881355932204,26.981066666666667,23.389830508474574,26.925866666666668,24.406779661016948,26.886666666666667C25.423728813559322,26.847466666666666,26.440677966101696,26.834666666666664,27.45762711864407,26.793599999999998C28.47457627118644,26.752533333333332,29.491525423728813,26.688888888888886,30.508474576271183,26.640266666666665C31.525423728813557,26.591644444444444,32.54237288135593,26.552888888888887,33.559322033898304,26.501866666666665C34.57627118644068,26.450844444444442,35.59322033898305,26.392488888888888,36.610169491525426,26.334133333333334C37.6271186440678,26.27577777777778,38.644067796610166,26.20608888888889,39.66101694915254,26.151733333333333C40.67796610169491,26.097377777777776,41.69491525423729,26.059955555555554,42.71186440677966,26.008C43.728813559322035,25.956044444444444,44.7457627118644,25.896177777777776,45.762711864406775,25.84C46.77966101694915,25.78382222222222,47.79661016949152,25.72933333333333,48.813559322033896,25.67093333333333C49.83050847457627,25.61253333333333,50.847457627118644,25.54884444444445,51.86440677966102,25.489600000000003C52.88135593220339,25.430355555555558,53.898305084745765,25.379377777777776,54.91525423728814,25.315466666666666C55.93220338983051,25.251555555555555,56.94915254237288,25.175200000000004,57.96610169491525,25.106133333333336C58.983050847457626,25.037066666666668,59.99999999999999,24.974844444444443,61.01694915254237,24.901066666666665C62.03389830508474,24.827288888888887,63.05084745762712,24.744266666666665,64.0677966101695,24.663466666666665C65.08474576271186,24.582666666666665,66.10169491525424,24.492577777777775,67.11864406779661,24.416266666666665C68.13559322033899,24.339955555555555,69.15254237288136,24.29151111111111,70.16949152542374,24.2056C71.1864406779661,24.11968888888889,72.20338983050848,23.997111111111117,73.22033898305085,23.900800000000004C74.23728813559322,23.80448888888889,75.2542372881356,23.72608888888889,76.27118644067797,23.62773333333333C77.28813559322033,23.529377777777775,78.30508474576271,23.42542222222222,79.32203389830508,23.310666666666666C80.33898305084746,23.195911111111112,81.35593220338983,23.058355555555554,82.37288135593221,22.9392C83.38983050847457,22.820044444444445,84.40677966101696,22.70528888888889,85.42372881355932,22.595733333333335C86.4406779661017,22.48617777777778,87.45762711864407,22.39048888888889,88.47457627118645,22.281866666666666C89.49152542372882,22.173244444444443,90.50847457627118,22.05862222222222,91.52542372881355,21.944C92.54237288135593,21.829377777777776,93.55932203389831,21.717333333333332,94.57627118644069,21.594133333333332C95.59322033898306,21.47093333333333,96.61016949152543,21.341777777777775,97.62711864406779,21.2048C98.64406779661016,21.067822222222222,99.66101694915254,20.924,100.6779661016949,20.772266666666667C101.69491525423729,20.620533333333334,102.71186440677965,20.471288888888893,103.72881355932203,20.294400000000003C104.7457627118644,20.117511111111114,105.76271186440678,19.90875555555555,106.77966101694915,19.71093333333333C107.79661016949153,19.513111111111108,108.8135593220339,19.31408888888889,109.83050847457628,19.107466666666667C110.84745762711864,18.900844444444445,111.86440677966102,18.683688888888888,112.88135593220339,18.4712C113.89830508474576,18.25871111111111,114.91525423728814,18.056399999999996,115.9322033898305,17.83253333333333C116.94915254237289,17.608666666666664,117.96610169491525,17.36746666666667,118.98305084745763,17.128C120,16.888533333333335,121.01694915254237,16.634888888888884,122.03389830508473,16.395733333333332C123.05084745762711,16.156577777777777,124.0677966101695,15.916844444444447,125.08474576271188,15.693066666666668C126.10169491525424,15.469288888888892,127.11864406779662,15.260533333333335,128.135593220339,15.053066666666668C129.15254237288136,14.845600000000001,130.16949152542372,14.648222222222222,131.1864406779661,14.448266666666667C132.20338983050846,14.24831111111111,133.22033898305085,14.050844444444447,134.23728813559322,13.853333333333335C135.25423728813558,13.655822222222223,136.27118644067798,13.466711111111112,137.28813559322035,13.2632C138.3050847457627,13.059688888888887,139.3220338983051,12.838355555555557,140.33898305084747,12.632266666666666C141.35593220338984,12.426177777777779,142.3728813559322,12.232577777777776,143.38983050847457,12.026666666666666C144.40677966101694,11.820755555555554,145.42372881355934,11.609866666666667,146.4406779661017,11.396799999999999C147.45762711864407,11.183733333333333,148.47457627118644,10.936844444444443,149.4915254237288,10.748266666666666C150.50847457627117,10.559688888888887,151.52542372881356,10.422577777777779,152.54237288135593,10.265333333333334C153.5593220338983,10.10808888888889,154.5762711864407,9.981377777777778,155.59322033898306,9.8048C156.61016949152543,9.628222222222224,157.6271186440678,9.416133333333335,158.64406779661016,9.205866666666669C159.66101694915253,8.995600000000001,160.67796610169492,8.759244444444443,161.6949152542373,8.543199999999999C162.71186440677965,8.327155555555555,163.72881355932205,8.121911111111114,164.74576271186442,7.909600000000001C165.76271186440678,7.697288888888891,166.77966101694915,7.488044444444442,167.79661016949152,7.269333333333332C168.81355932203388,7.05062222222222,169.83050847457628,6.778266666666668,170.84745762711864,6.597333333333335C171.864406779661,6.416400000000002,172.8813559322034,6.32568888888889,173.89830508474577,6.183733333333334C174.91525423728814,6.041777777777779,175.93220338983053,5.869244444444445,176.9491525423729,5.7456C177.96610169491527,5.621955555555556,178.98305084745763,5.531911111111111,180,5.441866666666666"></path><path class="axis-ceiling" stroke-width="1" stroke="black" fill="none" d="M175,0L180,0"></path><text class="axis-ceiling-label" font-family="sans-serif" text-anchor="end" font-size="10px" x="170" y="2.5">150000</text></g></svg>