<svg xmlns="http://www.w3.org/2000/svg" viewBox="0 0 180 60"><g transform="translate(0,20)"><path class="area" fill="rgba(0, 0, 0, 0.2)" d="M0,36.6212C1.0169491525423728,36.571733333333334,2.0338983050847457,36.52226666666667,3.0508474576271185,36.4636C4.067796610169491,36.40493333333333,5.084745762711864,36.31966666666666,6.101694915254237,36.2692C7.11864406779661,36.21873333333333,8.135593220338983,36.220200000000006,9.152542372881356,36.1608C10.169491525423728,36.101400000000005,11.186440677966102,35.99426666666666,12.203389830508474,35.9128C13.220338983050846,35.83133333333333,14.23728813559322,35.76753333333334,15.254237288135592,35.672000000000004C16.271186440677965,35.57646666666667,17.28813559322034,35.43333333333333,18.305084745762713,35.3396C19.322033898305087,35.245866666666664,20.338983050847457,35.184866666666665,21.35593220338983,35.1096C22.372881355932204,35.034333333333336,23.389830508474574,34.97253333333333,24.406779661016948,34.888C25.423728813559322,34.803466666666665,26.440677966101696,34.69593333333333,27.45762711864407,34.602399999999996C28.47457627118644,34.50886666666666,29.491525423728813,34.42813333333333,30.508474576271183,34.3268C31.525423728813557,34.22546666666666,32.54237288135593,34.09673333333333,33.559322033898304,33.9944C34.57627118644068,33.892066666666665,35.59322033898305,33.818733333333334,36.610169491525426,33.7128C37.6271186440678,33.60686666666667,38.644067796610166,33.49913333333333,39.66101694915254,33.3588C40.67796610169491,33.21846666666667,41.69491525423729,33.0016,42.71186440677966,32.8708C43.728813559322035,32.74,44.7457627118644,32.697266666666664,45.762711864406775,32.574C46.77966101694915,32.45073333333333,47.79661016949152,32.27053333333333,48.813559322033896,32.1312C49.83050847457627,31.991866666666667,50.847457627118644,31.892866666666666,51.86440677966102,31.738C52.88135593220339,31.583133333333333,53.898305084745765,31.3506,54.91525423728814,31.202C55.93220338983051,31.053400000000003,56.94915254237288,30.99306666666667,57.96610169491525,30.846400000000003C58.983050847457626,30.699733333333334,59.99999999999999,30.487333333333332,61.01694915254237,30.322C62.03389830508474,30.156666666666666,63.05084745762712,30.02086666666667,64.0677966101695,29.854400000000002C65.08474576271186,29.687933333333337,66.10169491525424,29.496,67.11864406779661,29.3232C68.13559322033899,29.150399999999998,69.15254237288136,28.986066666666666,70.16949152542374,28.8176C71.1864406779661,28.64913333333333,72.20338983050848,28.48086666666667,73.22033898305085,28.312400000000004C74.23728813559322,28.143933333333337,75.2542372881356,27.948133333333338,76.27118644067797,27.806800000000003C77.28813559322033,27.665466666666667,78.30508474576271,27.594666666666665,79.32203389830508,27.464399999999998C80.33898305084746,27.33413333333333,81.35593220338983,27.176466666666663,82.37288135593221,27.025199999999998C83.38983050847457,26.873933333333333,84.40677966101696,26.702533333333335,85.42372881355932,26.556800000000003C86.4406779661017,26.41106666666667,87.45762711864407,26.308866666666667,88.47457627118645,26.150799999999997C89.49152542372882,25.99273333333333,90.50847457627118,25.78586666666666,91.52542372881355,25.608399999999996C92.54237288135593,25.43093333333333,93.55932203389831,25.252066666666664,94.57627118644069,25.086C95.59322033898306,24.919933333333333,96.61016949152543,24.75173333333333,97.62711864406779,24.612C98.64406779661016,24.472266666666666,99.66101694915254,24.375999999999998,100.6779661016949,24.2476C101.69491525423729,24.1192,102.71186440677965,23.984466666666666,103.72881355932203,23.8416C104.7457627118644,23.698733333333333,105.76271186440678,23.528266666666667,106.77966101694915,23.3904C107.79661016949153,23.252533333333332,108.8135593220339,23.126199999999997,109.83050847457628,23.0144C110.84745762711864,22.9026,111.86440677966102,22.823066666666666,112.88135593220339,22.7196C113.89830508474576,22.616133333333334,114.91525423728814,22.50153333333333,115.9322033898305,22.3936C116.94915254237289,22.285666666666668,117.96610169491525,22.168200000000002,118.98305084745763,22.072000000000003C120,21.975800000000003,121.01694915254237,21.8908,122.03389830508473,21.816399999999998C123.05084745762711,21.741999999999997,124.0677966101695,21.691533333333332,125.08474576271188,21.6256C126.10169491525424,21.559666666666665,127.11864406779662,21.493933333333334,128.135593220339,21.4208C129.15254237288136,21.347666666666665,130.16949152542372,21.260133333333332,131.1864406779661,21.186799999999998C132.20338983050846,21.113466666666664,133.22033898305085,21.052,134.23728813559322,20.9808C135.25423728813558,20.909599999999998,136.27118644067798,20.832533333333338,137.28813559322035,20.759600000000002C138.3050847457627,20.686666666666667,139.3220338983051,20.6148,140.33898305084747,20.5432C141.35593220338984,20.4716,142.3728813559322,20.388799999999996,143.38983050847457,20.33C144.40677966101694,20.271199999999997,145.42372881355934,20.252,146.4406779661017,20.1904C147.45762711864407,20.128800000000002,148.47457627118644,20.03333333333333,149.4915254237288,19.9604C150.50847457627117,19.887466666666665,151.52542372881356,19.829333333333334,152.54237288135593,19.7528C153.5593220338983,19.676266666666667,154.5762711864407,19.588733333333334,155.59322033898306,19.5012C156.61016949152543,19.413666666666668,157.6271186440678,19.30913333333333,158.64406779661016,19.2276C159.66101694915253,19.146066666666666,160.67796610169492,19.08993333333333,161.6949152542373,19.011999999999997C162.71186440677965,18.934066666666663,163.72881355932205,18.844266666666666,164.74576271186442,18.759999999999998C165.76271186440678,18.675733333333334,166.77966101694915,18.593999999999998,167.79661016949152,18.5064C168.81355932203388,18.4188,169.83050847457628,18.32326666666667,170.84745762711864,18.2344C171.864406779661,18.145533333333333,172.8813559322034,18.069066666666664,173.89830508474577,17.9732C174.91525423728814,17.877333333333333,175.93220338983053,17.7628,176.9491525423729,17.6592C177.96610169491527,17.5556,178.98305084745763,17.4536,180,17.3516L180,40C178.98305084745763,40,177.96610169491527,40,176.9491525423729,40C175.93220338983053,40,174.91525423728814,40,173.89830508474577,40C172.8813559322034,40,171.864406779661,40,170.84745762711864,40C169.83050847457628,40,168.81355932203388,40,167.79661016949152,40C166.77966101694915,40,165.76271186440678,40,164.74576271186442,40C163.72881355932205,40,162.71186440677965,40,161.6949152542373,40C160.67796610169492,40,159.66101694915253,40,158.64406779661016,40C157.6271186440678,40,156.61016949152543,40,155.59322033898306,40C154.5762711864407,40,153.5593220338983,40,152.54237288135593,40C151.52542372881356,40,150.50847457627117,40,149.4915254237288,40C148.47457627118644,40,147.45762711864407,40,146.4406779661017,40C145.42372881355934,40,144.40677966101694,40,143.38983050847457,40C142.3728813559322,40,141.35593220338984,40,140.33898305084747,40C139.3220338983051,40,138.3050847457627,40,137.28813559322035,40C136.27118644067798,40,135.25423728813558,40,134.23728813559322,40C133.22033898305085,40,132.20338983050846,40,131.1864406779661,40C130.16949152542372,40,129.15254237288136,40,128.135593220339,40C127.11864406779662,40,126.10169491525424,40,125.08474576271188,40C124.0677966101695,40,123.05084745762711,40,122.03389830508473,40C121.01694915254237,40,120,40,118.98305084745763,40C117.96610169491525,40,116.94915254237289,40,115.9322033898305,40C114.91525423728814,40,113.89830508474576,40,112.88135593220339,40C111.86440677966102,40,110.84745762711864,40,109.83050847457628,40C108.8135593220339,40,107.79661016949153,40,106.77966101694915,40C105.76271186440678,40,104.7457627118644,40,103.72881355932203,40C102.71186440677965,40,101.69491525423729,40,100.6779661016949,40C99.66101694915254,40,98.64406779661016,40,97.62711864406779,40C96.61016949152543,40,95.59322033898306,40,94.57627118644069,40C93.55932203389831,40,92.54237288135593,40,91.52542372881355,40C90.50847457627118,40,89.49152542372882,40,88.47457627118645,40C87.45762711864407,40,86.4406779661017,40,85.42372881355932,40C84.40677966101696,40,83.38983050847457,40,82.37288135593221,40C81.35593220338983,40,80.33898305084746,40,79.32203389830508,40C78.30508474576271,40,77.28813559322033,40,76.27118644067797,40C75.2542372881356,40,74.23728813559322,40,73.22033898305085,40C72.20338983050848,40,71.1864406779661,40,70.16949152542374,40C69.15254237288136,40,68.13559322033899,40,67.11864406779661,40C66.10169491525424,40,65.08474576271186,40,64.0677966101695,40C63.05084745762712,40,62.03389830508474,40,61.01694915254237,40C59.99999999999999,40,58.983050847457626,40,57.96610169491525,40C56.94915254237288,40,55.93220338983051,40,54.91525423728814,40C53.898305084745765,40,52.88135593220339,40,51.86440677966102,40C50.847457627118644,40,49.83050847457627,40,48.813559322033896,40C47.79661016949152,40,46.77966101694915,40,45.762711864406775,40C44.7457627118644,40,43.728813559322035,40,42.71186440677966,40C41.69491525423729,40,40.67796610169491,40,39.66101694915254,40C38.644067796610166,40,37.6271186440678,40,36.610169491525426,40C35.59322033898305,40,34.57627118644068,40,33.559322033898304,40C32.54237288135593,40,31.525423728813557,40,30.508474576271183,40C29.491525423728813,40,28.47457627118644,40,27.45762711864407,40C26.440677966101696,40,25.423728813559322,40,24.406779661016948,40C23.389830508474574,40,22.372881355932204,40,21.35593220338983,40C20.338983050847457,40,19.322033898305087,40,18.305084745762713,40C17.28813559322034,40,16.271186440677965,40,15.254237288135592,40C14.23728813559322,40,13.220338983050846,40,12.203389830508474,40C11.186440677966102,40,10.169491525423728,40,9.152542372881356,40C8.135593220338983,40,7.11864406779661,40,6.101694915254237,40C5.084745762711864,40,4.067796610169491,40,3.0508474576271185,40C2.0338983050847457,40,1.0169491525423728,40,0,40Z"></path><path class="line" stroke="black" fill="none" d="M0,36.6212C1.0169491525423728,36.571733333333334,2.0338983050847457,36.52226666666667,3.0508474576271185,36.4636C4.067796610169491,36.40493333333333,5.084745762711864,36.31966666666666,6.101694915254237,36.2692C7.11864406779661,36.21873333333333,8.135593220338983,36.220200000000006,9.152542372881356,36.1608C10.169491525423728,36.101400000000005,11.186440677966102,35.99426666666666,12.203389830508474,35.9128C13.220338983050846,35.83133333333333,14.23728813559322,35.76753333333334,15.254237288135592,35.672000000000004C16.271186440677965,35.57646666666667,17.28813559322034,35.43333333333333,18.305084745762713,35.3396C19.322033898305087,35.245866666666664,20.338983050847457,35.184866666666665,21.35593220338983,35.1096C22.372881355932204,35.034333333333336,23.389830508474574,34.97253333333333,24.406779661016948,34.888C25.423728813559322,34.803466666666665,26.440677966101696,34.69593333333333,27.45762711864407,34.602399999999996C28.47457627118644,34.50886666666666,29.491525423728813,34.42813333333333,30.508474576271183,34.3268C31.525423728813557,34.22546666666666,32.54237288135593,34.09673333333333,33.559322033898304,33.9944C34.57627118644068,33.892066666666665,35.59322033898305,33.818733333333334,36.610169491525426,33.7128C37.6271186440678,33.60686666666667,38.644067796610166,33.49913333333333,39.66101694915254,33.3588C40.67796610169491,33.21846666666667,41.69491525423729,33.0016,42.71186440677966,32.8708C43.728813559322035,32.74,44.7457627118644,32.697266666666664,45.762711864406775,32.574C46.77966101694915,32.45073333333333,47.79661016949152,32.27053333333333,48.813559322033896,32.1312C49.83050847457627,31.991866666666667,50.847457627118644,31.892866666666666,51.86440677966102,31.738C52.88135593220339,31.583133333333333,53.898305084745765,31.3506,54.91525423728814,31.202C55.93220338983051,31.053400000000003,56.94915254237288,30.99306666666667,57.96610169491525,30.846400000000003C58.983050847457626,30.699733333333334,59.99999999999999,30.487333333333332,61.01694915254237,30.322C62.03389830508474,30.156666666666666,63.05084745762712,30.02086666666667,64.0677966101695,29.854400000000002C65.08474576271186,29.687933333333337,66.10169491525424,29.496,67.11864406779661,29.3232C68.13559322033899,29.150399999999998,69.15254237288136,28.986066666666666,70.16949152542374,28.8176C71.1864406779661,28.64913333333333,72.20338983050848,28.48086666666667,73.22033898305085,28.312400000000004C74.23728813559322,28.143933333333337,75.2542372881356,27.948133333333338,76.27118644067797,27.806800000000003C77.28813559322033,27.665466666666667,78.30508474576271,27.594666666666665,79.32203389830508,27.464399999999998C80.33898305084746,27.33413333333333,81.35593220338983,27.176466666666663,82.37288135593221,27.025199999999998C83.38983050847457,26.873933333333333,84.40677966101696,26.702533333333335,85.42372881355932,26.556800000000003C86.4406779661017,26.41106666666667,87.45762711864407,26.308866666666667,88.47457627118645,26.150799999999997C89.49152542372882,25.99273333333333,90.50847457627118,25.78586666666666,91.52542372881355,25.608399999999996C92.54237288135593,25.43093333333333,93.55932203389831,25.252066666666664,94.57627118644069,25.086C95.59322033898306,24.919933333333333,96.61016949152543,24.75173333333333,97.62711864406779,24.612C98.64406779661016,24.472266666666666,99.66101694915254,24.375999999999998,100.6779661016949,24.2476C101.69491525423729,24.1192,102.71186440677965,23.984466666666666,103.72881355932203,23.8416C104.7457627118644,23.698733333333333,105.76271186440678,23.528266666666667,106.77966101694915,23.3904C107.79661016949153,23.252533333333332,108.8135593220339,23.126199999999997,109.83050847457628,23.0144C110.84745762711864,22.9026,111.86440677966102,22.823066666666666,112.88135593220339,22.7196C113.89830508474576,22.616133333333334,114.91525423728814,22.50153333333333,115.9322033898305,22.3936C116.94915254237289,22.285666666666668,117.96610169491525,22.168200000000002,118.98305084745763,22.072000000000003C120,21.975800000000003,121.01694915254237,21.8908,122.03389830508473,21.816399999999998C123.05084745762711,21.741999999999997,124.0677966101695,21.691533333333332,125.08474576271188,21.6256C126.10169491525424,21.559666666666665,127.11864406779662,21.493933333333334,128.135593220339,21.4208C129.15254237288136,21.347666666666665,130.16949152542372,21.260133333333332,131.1864406779661,21.186799999999998C132.20338983050846,21.113466666666664,133.22033898305085,21.052,134.23728813559322,20.9808C135.25423728813558,20.909599999999998,136.27118644067798,20.832533333333338,137.28813559322035,20.759600000000002C138.3050847457627,20.686666666666667,139.3220338983051,20.6148,140.33898305084747,20.5432C141.35593220338984,20.4716,142.3728813559322,20.388799999999996,143.38983050847457,20.33C144.40677966101694,20.271199999999997,145.42372881355934,20.252,146.4406779661017,20.1904C147.45762711864407,20.128800000000002,148.47457627118644,20.03333333333333,149.4915254237288,19.9604C150.50847457627117,19.887466666666665,151.52542372881356,19.829333333333334,152.54237288135593,19.7528C153.5593220338983,19.676266666666667,154.5762711864407,19.588733333333334,155.59322033898306,19.5012C156.61016949152543,19.413666666666668,157.6271186440678,19.30913333333333,158.64406779661016,19.2276C159.66101694915253,19.146066666666666,160.67796610169492,19.08993333333333,161.6949152542373,19.011999999999997C162.71186440677965,18.934066666666663,163.72881355932205,18.844266666666666,164.74576271186442,18.759999999999998C165.76271186440678,18.675733333333334,166.77966101694915,18.593999999999998,167.79661016949152,18.5064C168.81355932203388,18.4188,169.83050847457628,18.32326666666667,170.84745762711864,18.2344C171.864406779661,18.145533333333333,172.8813559322034,18.069066666666664,173.89830508474577,17.9732C174.91525423728814,17.877333333333333,175.93220338983053,17.7628,176.9491525423729,17.6592C177.96610169491527,17.5556,178.98305084745763,17.4536,180,17.3516"></path><path class="axis-ceiling" stroke-width="1" stroke="black" fill="none" d="M175,0L180,0"></path><text class="axis-ceiling-label" font-family="sans-serif" text-anchor="end" font-size="10px" x="170" y="2.5">100000</text></g></svg>