<svg xmlns="http://www.w3.org/2000/svg" viewBox="0 0 180 60"><g transform="translate(0,20)"><path class="area" fill="rgba(0, 0, 0, 0.2)" d="M0,37.599999999999994C0.5825242718446602,38,1.1650485436893203,38.4,1.7475728155339805,38.4C2.912621359223301,38.4,4.077669902912621,36.800000000000004,5.242718446601942,36.800000000000004C9.320388349514563,36.800000000000004,13.398058252427184,39.2,17.475728155339805,39.2C22.718446601941746,39.2,27.96116504854369,39.2,33.20388349514563,39.2C34.36893203883495,39.2,35.53398058252427,39.2,36.69902912621359,39.2C44.271844660194176,39.2,51.84466019417476,39.2,59.417475728155345,39.2C62.9126213592233,39.2,66.40776699029126,39.2,69.90291262135922,39.2C70.48543689320388,39.2,71.06796116504854,38.4,71.6504854368932,38.4C72.23300970873787,38.4,72.81553398058252,38.4,73.39805825242718,38.4C76.31067961165049,38.4,79.22330097087378,36.800000000000004,82.13592233009709,36.800000000000004C83.30097087378641,36.800000000000004,84.46601941747572,37.86666666666667,85.63106796116504,38.4C86.2135922330097,38.666666666666664,86.79611650485437,39.2,87.37864077669903,39.2C87.96116504854369,39.2,88.54368932038835,39.2,89.12621359223301,39.2C90.29126213592234,39.2,91.45631067961165,32.800000000000004,92.62135922330097,32.800000000000004C93.20388349514563,32.800000000000004,93.7864077669903,39.2,94.36893203883496,39.2C94.95145631067962,39.2,95.53398058252426,39.2,96.11650485436893,39.2C96.69902912621359,39.2,97.28155339805825,39.2,97.86407766990291,39.2C100.19417475728154,39.2,102.52427184466019,35.2,104.85436893203882,35.2C106.01941747572815,35.2,107.18446601941747,36.622222222222206,108.3495145631068,37.599999999999994C108.93203883495146,38.08888888888888,109.5145631067961,39.2,110.09708737864077,39.2C110.67961165048543,39.2,111.26213592233009,38.4,111.84466019417475,38.4C112.42718446601941,38.4,113.00970873786409,39.2,113.59223300970875,39.2C114.17475728155341,39.2,114.75728155339806,36.800000000000004,115.33980582524272,36.800000000000004C115.92233009708738,36.800000000000004,116.50485436893204,39.2,117.0873786407767,39.2C118.25242718446603,39.2,119.41747572815534,31.200000000000003,120.58252427184466,31.200000000000003C121.16504854368932,31.200000000000003,121.74757281553399,33.6,122.33009708737865,33.6C122.91262135922331,33.6,123.49514563106797,33.06666666666667,124.07766990291263,32C124.6601941747573,30.93333333333334,125.24271844660194,24,125.8252427184466,24C126.40776699029126,24,126.99029126213593,34.133333333333326,127.57281553398059,35.2C128.15533980582524,36.26666666666667,128.7378640776699,36.800000000000004,129.32038834951456,36.800000000000004C129.90291262135923,36.800000000000004,130.48543689320388,30.4,131.06796116504856,30.4C131.6504854368932,30.4,132.23300970873788,37.599999999999994,132.81553398058253,37.599999999999994C133.39805825242718,37.599999999999994,133.98058252427185,37.33333333333333,134.5631067961165,36.800000000000004C135.14563106796115,36.26666666666668,135.72815533980582,11.466666666666622,136.31067961165047,8.799999999999999C136.89320388349515,6.133333333333333,137.4757281553398,4.8,138.05825242718447,4.8C138.64077669902912,4.8,139.2233009708738,6.266666666666666,139.80582524271844,8.799999999999999C140.3883495145631,11.333333333333332,140.97087378640776,20,141.5533980582524,20C142.1359223300971,20,142.71844660194174,2.400000000000002,143.3009708737864,2.400000000000002C143.88349514563106,2.400000000000002,144.46601941747574,31.200000000000003,145.04854368932038,31.200000000000003C145.63106796116503,31.200000000000003,146.2135922330097,14.399999999999999,146.79611650485435,14.399999999999999C147.37864077669903,14.399999999999999,147.96116504854368,15.866666666666625,148.54368932038835,18.4C149.126213592233,20.93333333333333,149.70873786407768,29.6,150.29126213592232,29.6C150.87378640776697,29.6,151.45631067961165,19.2,152.0388349514563,19.2C152.62135922330097,19.2,153.20388349514562,22.400000000000002,153.7864077669903,22.400000000000002C154.36893203883494,22.400000000000002,154.95145631067962,20.8,155.53398058252426,20.8C156.1165048543689,20.8,156.6990291262136,35.2,157.28155339805824,35.2C157.8640776699029,35.2,158.44660194174756,32.53333333333333,159.02912621359224,32C159.6116504854369,31.46666666666667,160.19417475728156,31.200000000000003,160.77669902912623,31.200000000000003C161.35922330097088,31.200000000000003,161.94174757281556,33.6,162.5242718446602,33.6C163.10679611650485,33.6,163.68932038834953,30.4,164.27184466019418,30.4C164.85436893203885,30.4,165.4368932038835,30.666666666666668,166.01941747572818,31.200000000000003C166.60194174757282,31.73333333333333,167.1844660194175,34.4,167.76699029126215,34.4C168.3495145631068,34.4,168.93203883495147,9.6,169.51456310679612,9.6C170.09708737864077,9.6,170.67961165048544,39.2,171.2621359223301,39.2C171.84466019417476,39.2,172.4271844660194,36,173.0097087378641,36C173.59223300970874,36,174.1747572815534,36,174.75728155339806,36C175.3398058252427,36,175.92233009708738,34.4,176.50485436893203,34.4C177.0873786407767,34.4,177.66990291262135,39.2,178.25242718446603,39.2C178.83495145631068,39.2,179.41747572815535,39.2,180,39.2L180,40C179.41747572815535,40,178.83495145631068,40,178.25242718446603,40C177.66990291262135,40,177.0873786407767,40,176.50485436893203,40C175.92233009708738,40,175.3398058252427,40,174.75728155339806,40C174.1747572815534,40,173.59223300970874,40,173.0097087378641,40C172.4271844660194,40,171.84466019417476,40,171.2621359223301,40C170.67961165048544,40,170.09708737864077,40,169.51456310679612,40C168.93203883495147,40,168.3495145631068,40,167.76699029126215,40C167.1844660194175,40,166.60194174757282,40,166.01941747572818,40C165.4368932038835,40,164.85436893203885,40,164.27184466019418,40C163.68932038834953,40,163.10679611650485,40,162.5242718446602,40C161.94174757281556,40,161.35922330097088,40,160.77669902912623,40C160.19417475728156,40,159.6116504854369,40,159.02912621359224,40C158.44660194174756,40,157.8640776699029,40,157.28155339805824,40C156.6990291262136,40,156.1165048543689,40,155.53398058252426,40C154.95145631067962,40,154.36893203883494,40,153.7864077669903,40C153.20388349514562,40,152.62135922330097,40,152.0388349514563,40C151.45631067961165,40,150.87378640776697,40,150.29126213592232,40C149.70873786407768,40,149.126213592233,40,148.54368932038835,40C147.96116504854368,40,147.37864077669903,40,146.79611650485435,40C146.2135922330097,40,145.63106796116503,40,145.04854368932038,40C144.46601941747574,40,143.88349514563106,40,143.3009708737864,40C142.71844660194174,40,142.1359223300971,40,141.5533980582524,40C140.97087378640776,40,140.3883495145631,40,139.80582524271844,40C139.2233009708738,40,138.64077669902912,40,138.05825242718447,40C137.4757281553398,40,136.89320388349515,40,136.31067961165047,40C135.72815533980582,40,135.14563106796115,40,134.5631067961165,40C133.98058252427185,40,133.39805825242718,40,132.81553398058253,40C132.23300970873788,40,131.6504854368932,40,131.06796116504856,40C130.48543689320388,40,129.90291262135923,40,129.32038834951456,40C128.7378640776699,40,128.15533980582524,40,127.57281553398059,40C126.99029126213593,40,126.40776699029126,40,125.8252427184466,40C125.24271844660194,40,124.6601941747573,40,124.07766990291263,40C123.49514563106797,40,122.91262135922331,40,122.33009708737865,40C121.74757281553399,40,121.16504854368932,40,120.58252427184466,40C119.41747572815534,40,118.25242718446603,40,117.0873786407767,40C116.50485436893204,40,115.92233009708738,40,115.33980582524272,40C114.75728155339806,40,114.17475728155341,40,113.59223300970875,40C113.00970873786409,40,112.42718446601941,40,111.84466019417475,40C111.26213592233009,40,110.67961165048543,40,110.09708737864077,40C109.5145631067961,40,108.93203883495146,40,108.3495145631068,40C107.18446601941747,40,106.01941747572815,40,104.85436893203882,40C102.52427184466019,40,100.19417475728154,40,97.86407766990291,40C97.28155339805825,40,96.69902912621359,40,96.11650485436893,40C95.53398058252426,40,94.95145631067962,40,94.36893203883496,40C93.7864077669903,40,93.20388349514563,40,92.62135922330097,40C91.45631067961165,40,90.29126213592234,40,89.12621359223301,40C88.54368932038835,40,87.96116504854369,40,87.37864077669903,40C86.79611650485437,40,86.2135922330097,40,85.63106796116504,40C84.46601941747572,40,83.30097087378641,40,82.13592233009709,40C79.22330097087378,40,76.31067961165049,40,73.39805825242718,40C72.81553398058252,40,72.23300970873787,40,71.6504854368932,40C71.06796116504854,40,70.48543689320388,40,69.90291262135922,40C66.40776699029126,40,62.9126213592233,40,59.417475728155345,40C51.84466019417476,40,44.271844660194176,40,36.69902912621359,40C35.53398058252427,40,34.36893203883495,40,33.20388349514563,40C27.96116504854369,40,22.718446601941746,40,17.475728155339805,40C13.398058252427184,40,9.320388349514563,40,5.242718446601942,40C4.077669902912621,40,2.912621359223301,40,1.7475728155339805,40C1.1650485436893203,40,0.5825242718446602,40,0,40Z"></path><path class="line" stroke="black" fill="none" d="M0,37.599999999999994C0.5825242718446602,38,1.1650485436893203,38.4,1.7475728155339805,38.4C2.912621359223301,38.4,4.077669902912621,36.800000000000004,5.242718446601942,36.800000000000004C9.320388349514563,36.800000000000004,13.398058252427184,39.2,17.475728155339805,39.2C22.718446601941746,39.2,27.96116504854369,39.2,33.20388349514563,39.2C34.36893203883495,39.2,35.53398058252427,39.2,36.69902912621359,39.2C44.271844660194176,39.2,51.84466019417476,39.2,59.417475728155345,39.2C62.9126213592233,39.2,66.40776699029126,39.2,69.90291262135922,39.2C70.48543689320388,39.2,71.06796116504854,38.4,71.6504854368932,38.4C72.23300970873787,38.4,72.81553398058252,38.4,73.39805825242718,38.4C76.31067961165049,38.4,79.22330097087378,36.800000000000004,82.13592233009709,36.800000000000004C83.30097087378641,36.800000000000004,84.46601941747572,37.86666666666667,85.63106796116504,38.4C86.2135922330097,38.666666666666664,86.79611650485437,39.2,87.37864077669903,39.2C87.96116504854369,39.2,88.54368932038835,39.2,89.12621359223301,39.2C90.29126213592234,39.2,91.45631067961165,32.800000000000004,92.62135922330097,32.800000000000004C93.20388349514563,32.800000000000004,93.7864077669903,39.2,94.36893203883496,39.2C94.95145631067962,39.2,95.53398058252426,39.2,96.11650485436893,39.2C96.69902912621359,39.2,97.28155339805825,39.2,97.86407766990291,39.2C100.19417475728154,39.2,102.52427184466019,35.2,104.85436893203882,35.2C106.01941747572815,35.2,107.18446601941747,36.622222222222206,108.3495145631068,37.599999999999994C108.93203883495146,38.08888888888888,109.5145631067961,39.2,110.09708737864077,39.2C110.67961165048543,39.2,111.26213592233009,38.4,111.84466019417475,38.4C112.42718446601941,38.4,113.00970873786409,39.2,113.59223300970875,39.2C114.17475728155341,39.2,114.75728155339806,36.800000000000004,115.33980582524272,36.800000000000004C115.92233009708738,36.800000000000004,116.50485436893204,39.2,117.0873786407767,39.2C118.25242718446603,39.2,119.41747572815534,31.200000000000003,120.58252427184466,31.200000000000003C121.16504854368932,31.200000000000003,121.74757281553399,33.6,122.33009708737865,33.6C122.91262135922331,33.6,123.49514563106797,33.06666666666667,124.07766990291263,32C124.6601941747573,30.93333333333334,125.24271844660194,24,125.8252427184466,24C126.40776699029126,24,126.99029126213593,34.133333333333326,127.57281553398059,35.2C128.15533980582524,36.26666666666667,128.7378640776699,36.800000000000004,129.32038834951456,36.800000000000004C129.90291262135923,36.800000000000004,130.48543689320388,30.4,131.06796116504856,30.4C131.6504854368932,30.4,132.23300970873788,37.599999999999994,132.81553398058253,37.599999999999994C133.39805825242718,37.599999999999994,133.98058252427185,37.33333333333333,134.5631067961165,36.800000000000004C135.14563106796115,36.26666666666668,135.72815533980582,11.466666666666622,136.31067961165047,8.799999999999999C136.89320388349515,6.133333333333333,137.4757281553398,4.8,138.05825242718447,4.8C138.64077669902912,4.8,139.2233009708738,6.266666666666666,139.80582524271844,8.799999999999999C140.3883495145631,11.333333333333332,140.97087378640776,20,141.5533980582524,20C142.1359223300971,20,142.71844660194174,2.400000000000002,143.3009708737864,2.400000000000002C143.88349514563106,2.400000000000002,144.46601941747574,31.200000000000003,145.04854368932038,31.200000000000003C145.63106796116503,31.200000000000003,146.2135922330097,14.399999999999999,146.79611650485435,14.399999999999999C147.37864077669903,14.399999999999999,147.96116504854368,15.866666666666625,148.54368932038835,18.4C149.126213592233,20.93333333333333,149.70873786407768,29.6,150.29126213592232,29.6C150.87378640776697,29.6,151.45631067961165,19.2,152.0388349514563,19.2C152.62135922330097,19.2,153.20388349514562,22.400000000000002,153.7864077669903,22.400000000000002C154.36893203883494,22.400000000000002,154.95145631067962,20.8,155.53398058252426,20.8C156.1165048543689,20.8,156.6990291262136,35.2,157.28155339805824,35.2C157.8640776699029,35.2,158.44660194174756,32.53333333333333,159.02912621359224,32C159.6116504854369,31.46666666666667,160.19417475728156,31.200000000000003,160.77669902912623,31.200000000000003C161.35922330097088,31.200000000000003,161.94174757281556,33.6,162.5242718446602,33.6C163.10679611650485,33.6,163.68932038834953,30.4,164.27184466019418,30.4C164.85436893203885,30.4,165.4368932038835,30.666666666666668,166.01941747572818,31.200000000000003C166.60194174757282,31.73333333333333,167.1844660194175,34.4,167.76699029126215,34.4C168.3495145631068,34.4,168.93203883495147,9.6,169.51456310679612,9.6C170.09708737864077,9.6,170.67961165048544,39.2,171.2621359223301,39.2C171.84466019417476,39.2,172.4271844660194,36,173.0097087378641,36C173.59223300970874,36,174.1747572815534,36,174.75728155339806,36C175.3398058252427,36,175.92233009708738,34.4,176.50485436893203,34.4C177.0873786407767,34.4,177.66990291262135,39.2,178.25242718446603,39.2C178.83495145631068,39.2,179.41747572815535,39.2,180,39.2"></path><path class="axis-ceiling" stroke-width="1" stroke="black" fill="none" d="M175,0L180,0"></path><text class="axis-ceiling-label" font-family="sans-serif" text-anchor="end" font-size="10px" x="170" y="2.5">50</text></g></svg>