<svg xmlns="http://www.w3.org/2000/svg" viewBox="0 0 180 60"><g transform="translate(0,20)"><path class="area" fill="rgba(0, 0, 0, 0.2)" d="M0,24.72C1.0169491525423728,24.607999999999997,2.0338983050847457,24.495999999999995,3.0508474576271185,24.383999999999997C4.067796610169491,24.272,5.084745762711864,24.154666666666664,6.101694915254237,24.048C7.11864406779661,23.941333333333333,8.135593220338983,23.842666666666666,9.152542372881356,23.744C10.169491525423728,23.645333333333333,11.186440677966102,23.565333333333335,12.203389830508474,23.456000000000003C13.220338983050846,23.34666666666667,14.23728813559322,23.205333333333332,15.254237288135592,23.087999999999997C16.271186440677965,22.970666666666663,17.28813559322034,22.872,18.305084745762713,22.752C19.322033898305087,22.631999999999998,20.338983050847457,22.48266666666666,21.35593220338983,22.367999999999995C22.372881355932204,22.25333333333333,23.389830508474574,22.170666666666666,24.406779661016948,22.064C25.423728813559322,21.957333333333334,26.440677966101696,21.837333333333333,27.45762711864407,21.728C28.47457627118644,21.61866666666667,29.491525423728813,21.52266666666667,30.508474576271183,21.408C31.525423728813557,21.293333333333333,32.54237288135593,21.154666666666667,33.559322033898304,21.04C34.57627118644068,20.92533333333333,35.59322033898305,20.832,36.610169491525426,20.72C37.6271186440678,20.608,38.644067796610166,20.47733333333333,39.66101694915254,20.368C40.67796610169491,20.258666666666667,41.69491525423729,20.173333333333332,42.71186440677966,20.064C43.728813559322035,19.954666666666668,44.7457627118644,19.826666666666664,45.762711864406775,19.712C46.77966101694915,19.59733333333333,47.79661016949152,19.49866666666667,48.813559322033896,19.376C49.83050847457627,19.253333333333334,50.847457627118644,19.104000000000003,51.86440677966102,18.976000000000003C52.88135593220339,18.848000000000003,53.898305084745765,18.73333333333333,54.91525423728814,18.607999999999997C55.93220338983051,18.482666666666663,56.94915254237288,18.346666666666668,57.96610169491525,18.224C58.983050847457626,18.101333333333333,59.99999999999999,17.986666666666665,61.01694915254237,17.872C62.03389830508474,17.75733333333333,63.05084745762712,17.64,64.0677966101695,17.536C65.08474576271186,17.432000000000002,66.10169491525424,17.33866666666667,67.11864406779661,17.248C68.13559322033899,17.157333333333334,69.15254237288136,17.072,70.16949152542374,16.991999999999997C71.1864406779661,16.912,72.20338983050848,16.845333333333333,73.22033898305085,16.768C74.23728813559322,16.69066666666667,75.2542372881356,16.599999999999998,76.27118644067797,16.528C77.28813559322033,16.456,78.30508474576271,16.4,79.32203389830508,16.336C80.33898305084746,16.272,81.35593220338983,16.208,82.37288135593221,16.144C83.38983050847457,16.08,84.40677966101696,16.021333333333335,85.42372881355932,15.952000000000002C86.4406779661017,15.882666666666669,87.45762711864407,15.805333333333333,88.47457627118645,15.728C89.49152542372882,15.650666666666666,90.50847457627118,15.565333333333331,91.52542372881355,15.488C92.54237288135593,15.410666666666666,93.55932203389831,15.341333333333337,94.57627118644069,15.264000000000003C95.59322033898306,15.186666666666671,96.61016949152543,15.104000000000001,97.62711864406779,15.024000000000001C98.64406779661016,14.944,99.66101694915254,14.869333333333335,100.6779661016949,14.784000000000002C101.69491525423729,14.69866666666667,102.71186440677965,14.602666666666668,103.72881355932203,14.512C104.7457627118644,14.421333333333333,105.76271186440678,14.322666666666665,106.77966101694915,14.239999999999998C107.79661016949153,14.157333333333332,108.8135593220339,14.096000000000002,109.83050847457628,14.016000000000002C110.84745762711864,13.936000000000002,111.86440677966102,13.847999999999997,112.88135593220339,13.759999999999998C113.89830508474576,13.671999999999999,114.91525423728814,13.584000000000003,115.9322033898305,13.488000000000003C116.94915254237289,13.392000000000003,117.96610169491525,13.293333333333337,118.98305084745763,13.184000000000001C120,13.074666666666667,121.01694915254237,12.957333333333331,122.03389830508473,12.831999999999999C123.05084745762711,12.706666666666665,124.0677966101695,12.565333333333333,125.08474576271188,12.431999999999999C126.10169491525424,12.298666666666666,127.11864406779662,12.173333333333332,128.135593220339,12.031999999999998C129.15254237288136,11.890666666666664,130.16949152542372,11.735999999999999,131.1864406779661,11.584C132.20338983050846,11.431999999999999,133.22033898305085,11.282666666666668,134.23728813559322,11.120000000000001C135.25423728813558,10.957333333333334,136.27118644067798,10.789333333333333,137.28813559322035,10.608C138.3050847457627,10.426666666666668,139.3220338983051,10.221333333333334,140.33898305084747,10.032C141.35593220338984,9.842666666666668,142.3728813559322,9.664,143.38983050847457,9.472000000000001C144.40677966101694,9.280000000000001,145.42372881355934,9.090666666666667,146.4406779661017,8.879999999999999C147.45762711864407,8.669333333333332,148.47457627118644,8.440000000000001,149.4915254237288,8.208000000000002C150.50847457627117,7.976000000000002,151.52542372881356,7.7280000000000015,152.54237288135593,7.488000000000001C153.5593220338983,7.248000000000001,154.5762711864407,7.010666666666668,155.59322033898306,6.768000000000001C156.61016949152543,6.525333333333335,157.6271186440678,6.269333333333334,158.64406779661016,6.032000000000002C159.66101694915253,5.794666666666668,160.67796610169492,5.584000000000002,161.6949152542373,5.344000000000002C162.71186440677965,5.104000000000002,163.72881355932205,4.834666666666669,164.74576271186442,4.5920000000000005C165.76271186440678,4.349333333333335,166.77966101694915,4.11733333333333,167.79661016949152,3.887999999999998C168.81355932203388,3.658666666666664,169.83050847457628,3.432000000000001,170.84745762711864,3.216000000000001C171.864406779661,3.0000000000000013,172.8813559322034,2.805333333333332,173.89830508474577,2.5919999999999987C174.91525423728814,2.3786666666666654,175.93220338983053,2.160000000000001,176.9491525423729,1.936C177.96610169491527,1.712000000000001,178.98305084745763,1.4800000000000006,180,1.2480000000000002L180,40C178.98305084745763,40,177.96610169491527,40,176.9491525423729,40C175.93220338983053,40,174.91525423728814,40,173.89830508474577,40C172.8813559322034,40,171.864406779661,40,170.84745762711864,40C169.83050847457628,40,168.81355932203388,40,167.79661016949152,40C166.77966101694915,40,165.76271186440678,40,164.74576271186442,40C163.72881355932205,40,162.71186440677965,40,161.6949152542373,40C160.67796610169492,40,159.66101694915253,40,158.64406779661016,40C157.6271186440678,40,156.61016949152543,40,155.59322033898306,40C154.5762711864407,40,153.5593220338983,40,152.54237288135593,40C151.52542372881356,40,150.50847457627117,40,149.4915254237288,40C148.47457627118644,40,147.45762711864407,40,146.4406779661017,40C145.42372881355934,40,144.40677966101694,40,143.38983050847457,40C142.3728813559322,40,141.35593220338984,40,140.33898305084747,40C139.3220338983051,40,138.3050847457627,40,137.28813559322035,40C136.27118644067798,40,135.25423728813558,40,134.23728813559322,40C133.22033898305085,40,132.20338983050846,40,131.1864406779661,40C130.16949152542372,40,129.15254237288136,40,128.135593220339,40C127.11864406779662,40,126.10169491525424,40,125.08474576271188,40C124.0677966101695,40,123.05084745762711,40,122.03389830508473,40C121.01694915254237,40,120,40,118.98305084745763,40C117.96610169491525,40,116.94915254237289,40,115.9322033898305,40C114.91525423728814,40,113.89830508474576,40,112.88135593220339,40C111.86440677966102,40,110.84745762711864,40,109.83050847457628,40C108.8135593220339,40,107.79661016949153,40,106.77966101694915,40C105.76271186440678,40,104.7457627118644,40,103.72881355932203,40C102.71186440677965,40,101.69491525423729,40,100.6779661016949,40C99.66101694915254,40,98.64406779661016,40,97.62711864406779,40C96.61016949152543,40,95.59322033898306,40,94.57627118644069,40C93.55932203389831,40,92.54237288135593,40,91.52542372881355,40C90.50847457627118,40,89.49152542372882,40,88.47457627118645,40C87.45762711864407,40,86.4406779661017,40,85.42372881355932,40C84.40677966101696,40,83.38983050847457,40,82.37288135593221,40C81.35593220338983,40,80.33898305084746,40,79.32203389830508,40C78.30508474576271,40,77.28813559322033,40,76.27118644067797,40C75.2542372881356,40,74.23728813559322,40,73.22033898305085,40C72.20338983050848,40,71.1864406779661,40,70.16949152542374,40C69.15254237288136,40,68.13559322033899,40,67.11864406779661,40C66.10169491525424,40,65.08474576271186,40,64.0677966101695,40C63.05084745762712,40,62.03389830508474,40,61.01694915254237,40C59.99999999999999,40,58.983050847457626,40,57.96610169491525,40C56.94915254237288,40,55.93220338983051,40,54.91525423728814,40C53.898305084745765,40,52.88135593220339,40,51.86440677966102,40C50.847457627118644,40,49.83050847457627,40,48.813559322033896,40C47.79661016949152,40,46.77966101694915,40,45.762711864406775,40C44.7457627118644,40,43.728813559322035,40,42.71186440677966,40C41.69491525423729,40,40.67796610169491,40,39.66101694915254,40C38.644067796610166,40,37.6271186440678,40,36.610169491525426,40C35.59322033898305,40,34.57627118644068,40,33.559322033898304,40C32.54237288135593,40,31.525423728813557,40,30.508474576271183,40C29.491525423728813,40,28.47457627118644,40,27.45762711864407,40C26.440677966101696,40,25.423728813559322,40,24.406779661016948,40C23.389830508474574,40,22.372881355932204,40,21.35593220338983,40C20.338983050847457,40,19.322033898305087,40,18.305084745762713,40C17.28813559322034,40,16.271186440677965,40,15.254237288135592,40C14.23728813559322,40,13.220338983050846,40,12.203389830508474,40C11.186440677966102,40,10.169491525423728,40,9.152542372881356,40C8.135593220338983,40,7.11864406779661,40,6.101694915254237,40C5.084745762711864,40,4.067796610169491,40,3.0508474576271185,40C2.0338983050847457,40,1.0169491525423728,40,0,40Z"></path><path class="line" stroke="black" fill="none" d="M0,24.72C1.0169491525423728,24.607999999999997,2.0338983050847457,24.495999999999995,3.0508474576271185,24.383999999999997C4.067796610169491,24.272,5.084745762711864,24.154666666666664,6.101694915254237,24.048C7.11864406779661,23.941333333333333,8.135593220338983,23.842666666666666,9.152542372881356,23.744C10.169491525423728,23.645333333333333,11.186440677966102,23.565333333333335,12.203389830508474,23.456000000000003C13.220338983050846,23.34666666666667,14.23728813559322,23.205333333333332,15.254237288135592,23.087999999999997C16.271186440677965,22.970666666666663,17.28813559322034,22.872,18.305084745762713,22.752C19.322033898305087,22.631999999999998,20.338983050847457,22.48266666666666,21.35593220338983,22.367999999999995C22.372881355932204,22.25333333333333,23.389830508474574,22.170666666666666,24.406779661016948,22.064C25.423728813559322,21.957333333333334,26.440677966101696,21.837333333333333,27.45762711864407,21.728C28.47457627118644,21.61866666666667,29.491525423728813,21.52266666666667,30.508474576271183,21.408C31.525423728813557,21.293333333333333,32.54237288135593,21.154666666666667,33.559322033898304,21.04C34.57627118644068,20.92533333333333,35.59322033898305,20.832,36.610169491525426,20.72C37.6271186440678,20.608,38.644067796610166,20.47733333333333,39.66101694915254,20.368C40.67796610169491,20.258666666666667,41.69491525423729,20.173333333333332,42.71186440677966,20.064C43.728813559322035,19.954666666666668,44.7457627118644,19.826666666666664,45.762711864406775,19.712C46.77966101694915,19.59733333333333,47.79661016949152,19.49866666666667,48.813559322033896,19.376C49.83050847457627,19.253333333333334,50.847457627118644,19.104000000000003,51.86440677966102,18.976000000000003C52.88135593220339,18.848000000000003,53.898305084745765,18.73333333333333,54.91525423728814,18.607999999999997C55.93220338983051,18.482666666666663,56.94915254237288,18.346666666666668,57.96610169491525,18.224C58.983050847457626,18.101333333333333,59.99999999999999,17.986666666666665,61.01694915254237,17.872C62.03389830508474,17.75733333333333,63.05084745762712,17.64,64.0677966101695,17.536C65.08474576271186,17.432000000000002,66.10169491525424,17.33866666666667,67.11864406779661,17.248C68.13559322033899,17.157333333333334,69.15254237288136,17.072,70.16949152542374,16.991999999999997C71.1864406779661,16.912,72.20338983050848,16.845333333333333,73.22033898305085,16.768C74.23728813559322,16.69066666666667,75.2542372881356,16.599999999999998,76.27118644067797,16.528C77.28813559322033,16.456,78.30508474576271,16.4,79.32203389830508,16.336C80.33898305084746,16.272,81.35593220338983,16.208,82.37288135593221,16.144C83.38983050847457,16.08,84.40677966101696,16.021333333333335,85.42372881355932,15.952000000000002C86.4406779661017,15.882666666666669,87.45762711864407,15.805333333333333,88.47457627118645,15.728C89.49152542372882,15.650666666666666,90.50847457627118,15.565333333333331,91.52542372881355,15.488C92.54237288135593,15.410666666666666,93.55932203389831,15.341333333333337,94.57627118644069,15.264000000000003C95.59322033898306,15.186666666666671,96.61016949152543,15.104000000000001,97.62711864406779,15.024000000000001C98.64406779661016,14.944,99.66101694915254,14.869333333333335,100.6779661016949,14.784000000000002C101.69491525423729,14.69866666666667,102.71186440677965,14.602666666666668,103.72881355932203,14.512C104.7457627118644,14.421333333333333,105.76271186440678,14.322666666666665,106.77966101694915,14.239999999999998C107.79661016949153,14.157333333333332,108.8135593220339,14.096000000000002,109.83050847457628,14.016000000000002C110.84745762711864,13.936000000000002,111.86440677966102,13.847999999999997,112.88135593220339,13.759999999999998C113.89830508474576,13.671999999999999,114.91525423728814,13.584000000000003,115.9322033898305,13.488000000000003C116.94915254237289,13.392000000000003,117.96610169491525,13.293333333333337,118.98305084745763,13.184000000000001C120,13.074666666666667,121.01694915254237,12.957333333333331,122.03389830508473,12.831999999999999C123.05084745762711,12.706666666666665,124.0677966101695,12.565333333333333,125.08474576271188,12.431999999999999C126.10169491525424,12.298666666666666,127.11864406779662,12.173333333333332,128.135593220339,12.031999999999998C129.15254237288136,11.890666666666664,130.16949152542372,11.735999999999999,131.1864406779661,11.584C132.20338983050846,11.431999999999999,133.22033898305085,11.282666666666668,134.23728813559322,11.120000000000001C135.25423728813558,10.957333333333334,136.27118644067798,10.789333333333333,137.28813559322035,10.608C138.3050847457627,10.426666666666668,139.3220338983051,10.221333333333334,140.33898305084747,10.032C141.35593220338984,9.842666666666668,142.3728813559322,9.664,143.38983050847457,9.472000000000001C144.40677966101694,9.280000000000001,145.42372881355934,9.090666666666667,146.4406779661017,8.879999999999999C147.45762711864407,8.669333333333332,148.47457627118644,8.440000000000001,149.4915254237288,8.208000000000002C150.50847457627117,7.976000000000002,151.52542372881356,7.7280000000000015,152.54237288135593,7.488000000000001C153.5593220338983,7.248000000000001,154.5762711864407,7.010666666666668,155.59322033898306,6.768000000000001C156.61016949152543,6.525333333333335,157.6271186440678,6.269333333333334,158.64406779661016,6.032000000000002C159.66101694915253,5.794666666666668,160.67796610169492,5.584000000000002,161.6949152542373,5.344000000000002C162.71186440677965,5.104000000000002,163.72881355932205,4.834666666666669,164.74576271186442,4.5920000000000005C165.76271186440678,4.349333333333335,166.77966101694915,4.11733333333333,167.79661016949152,3.887999999999998C168.81355932203388,3.658666666666664,169.83050847457628,3.432000000000001,170.84745762711864,3.216000000000001C171.864406779661,3.0000000000000013,172.8813559322034,2.805333333333332,173.89830508474577,2.5919999999999987C174.91525423728814,2.3786666666666654,175.93220338983053,2.160000000000001,176.9491525423729,1.936C177.96610169491527,1.712000000000001,178.98305084745763,1.4800000000000006,180,1.2480000000000002"></path><path class="axis-ceiling" stroke-width="1" stroke="black" fill="none" d="M175,0L180,0"></path><text class="axis-ceiling-label" font-family="sans-serif" text-anchor="end" font-size="10px" x="170" y="2.5">2500</text></g></svg>