<svg xmlns="http://www.w3.org/2000/svg" viewBox="0 0 180 60"><g transform="translate(0,20)"><path class="area" fill="rgba(0, 0, 0, 0.2)" d="M0,36.672000000000004C1.0169491525423728,36.657333333333334,2.0338983050847457,36.64266666666667,3.0508474576271185,36.626285714285714C4.067796610169491,36.60990476190476,5.084745762711864,36.590476190476195,6.101694915254237,36.57371428571429C7.11864406779661,36.55695238095238,8.135593220338983,36.542476190476194,9.152542372881356,36.52571428571429C10.169491525423728,36.50895238095238,11.186440677966102,36.49219047619048,12.203389830508474,36.47314285714286C13.220338983050846,36.45409523809524,14.23728813559322,36.432,15.254237288135592,36.41142857142857C16.271186440677965,36.39085714285714,17.28813559322034,36.372190476190475,18.305084745762713,36.349714285714285C19.322033898305087,36.327238095238094,20.338983050847457,36.301904761904765,21.35593220338983,36.27657142857143C22.372881355932204,36.251238095238094,23.389830508474574,36.224761904761905,24.406779661016948,36.197714285714284C25.423728813559322,36.17066666666666,26.440677966101696,36.14647619047619,27.45762711864407,36.114285714285714C28.47457627118644,36.08209523809524,29.491525423728813,36.042857142857144,30.508474576271183,36.00457142857143C31.525423728813557,35.96628571428572,32.54237288135593,35.92476190476191,33.559322033898304,35.884571428571434C34.57627118644068,35.84438095238096,35.59322033898305,35.80647619047619,36.610169491525426,35.76342857142857C37.6271186440678,35.72038095238095,38.644067796610166,35.67257142857143,39.66101694915254,35.626285714285714C40.67796610169491,35.58,41.69491525423729,35.534666666666666,42.71186440677966,35.48571428571429C43.728813559322035,35.43676190476191,44.7457627118644,35.38514285714285,45.762711864406775,35.33257142857143C46.77966101694915,35.279999999999994,47.79661016949152,35.22380952380952,48.813559322033896,35.17028571428571C49.83050847457627,35.1167619047619,50.847457627118644,35.06552380952381,51.86440677966102,35.011428571428574C52.88135593220339,34.95733333333334,53.898305084745765,34.903238095238095,54.91525423728814,34.84571428571429C55.93220338983051,34.78819047619048,56.94915254237288,34.72838095238095,57.96610169491525,34.66628571428571C58.983050847457626,34.604190476190475,59.99999999999999,34.54,61.01694915254237,34.473142857142854C62.03389830508474,34.40628571428571,63.05084745762712,34.337714285714284,64.0677966101695,34.265142857142855C65.08474576271186,34.192571428571426,66.10169491525424,34.12114285714286,67.11864406779661,34.03771428571429C68.13559322033899,33.95428571428572,69.15254237288136,33.86152380952381,70.16949152542374,33.76457142857143C71.1864406779661,33.66761904761905,72.20338983050848,33.56285714285715,73.22033898305085,33.456C74.23728813559322,33.34914285714286,75.2542372881356,33.24419047619048,76.27118644067797,33.123428571428576C77.28813559322033,33.00266666666667,78.30508474576271,32.86971428571429,79.32203389830508,32.73142857142857C80.33898305084746,32.59314285714286,81.35593220338983,32.44380952380953,82.37288135593221,32.29371428571429C83.38983050847457,32.14361904761905,84.40677966101696,31.988190476190475,85.42372881355932,31.83085714285714C86.4406779661017,31.673523809523807,87.45762711864407,31.51142857142857,88.47457627118645,31.349714285714285C89.49152542372882,31.188,90.50847457627118,31.021142857142856,91.52542372881355,30.86057142857143C92.54237288135593,30.7,93.55932203389831,30.55257142857143,94.57627118644069,30.386285714285712C95.59322033898306,30.22,96.61016949152543,30.03790476190476,97.62711864406779,29.86285714285714C98.64406779661016,29.687809523809523,99.66101694915254,29.521333333333335,100.6779661016949,29.336000000000002C101.69491525423729,29.15066666666667,102.71186440677965,28.951238095238097,103.72881355932203,28.750857142857143C104.7457627118644,28.55047619047619,105.76271186440678,28.34361904761905,106.77966101694915,28.133714285714287C107.79661016949153,27.923809523809524,108.8135593220339,27.712,109.83050847457628,27.49142857142857C110.84745762711864,27.270857142857142,111.86440677966102,27.048571428571428,112.88135593220339,26.810285714285715C113.89830508474576,26.572000000000003,114.91525423728814,26.316952380952383,115.9322033898305,26.061714285714288C116.94915254237289,25.806476190476193,117.96610169491525,25.542476190476194,118.98305084745763,25.278857142857145C120,25.015238095238097,121.01694915254237,24.747999999999998,122.03389830508473,24.48C123.05084745762711,24.212,124.0677966101695,23.957904761904764,125.08474576271188,23.670857142857145C126.10169491525424,23.38380952380953,127.11864406779662,23.067428571428575,128.135593220339,22.757714285714286C129.15254237288136,22.448,130.16949152542372,22.138095238095232,131.1864406779661,21.812571428571424C132.20338983050846,21.487047619047612,133.22033898305085,21.148761904761905,134.23728813559322,20.80457142857143C135.25423728813558,20.46038095238095,136.27118644067798,20.11352380952381,137.28813559322035,19.74742857142857C138.3050847457627,19.381333333333334,139.3220338983051,18.99295238095238,140.33898305084747,18.607999999999997C141.35593220338984,18.22304761904762,142.3728813559322,17.83942857142857,143.38983050847457,17.437714285714286C144.40677966101694,17.035999999999998,145.42372881355934,16.609523809523814,146.4406779661017,16.197714285714287C147.45762711864407,15.785904761904765,148.47457627118644,15.393142857142857,149.4915254237288,14.966857142857144C150.50847457627117,14.540571428571427,151.52542372881356,14.086476190476189,152.54237288135593,13.639999999999999C153.5593220338983,13.193523809523809,154.5762711864407,12.746476190476193,155.59322033898306,12.288C156.61016949152543,11.829523809523812,157.6271186440678,11.353142857142851,158.64406779661016,10.889142857142854C159.66101694915253,10.425142857142852,160.67796610169492,9.964952380952381,161.6949152542373,9.504000000000001C162.71186440677965,9.043047619047622,163.72881355932205,8.577904761904765,164.74576271186442,8.123428571428573C165.76271186440678,7.668952380952384,166.77966101694915,7.225714285714286,167.79661016949152,6.777142857142859C168.81355932203388,6.328571428571429,169.83050847457628,5.872000000000002,170.84745762711864,5.432000000000001C171.864406779661,4.992000000000001,172.8813559322034,4.571238095238096,173.89830508474577,4.137142857142857C174.91525423728814,3.7030476190476183,175.93220338983053,3.2653333333333334,176.9491525423729,2.8274285714285696C177.96610169491527,2.3895238095238103,178.98305084745763,1.949619047619049,180,1.5097142857142876L180,40C178.98305084745763,40,177.96610169491527,40,176.9491525423729,40C175.93220338983053,40,174.91525423728814,40,173.89830508474577,40C172.8813559322034,40,171.864406779661,40,170.84745762711864,40C169.83050847457628,40,168.81355932203388,40,167.79661016949152,40C166.77966101694915,40,165.76271186440678,40,164.74576271186442,40C163.72881355932205,40,162.71186440677965,40,161.6949152542373,40C160.67796610169492,40,159.66101694915253,40,158.64406779661016,40C157.6271186440678,40,156.61016949152543,40,155.59322033898306,40C154.5762711864407,40,153.5593220338983,40,152.54237288135593,40C151.52542372881356,40,150.50847457627117,40,149.4915254237288,40C148.47457627118644,40,147.45762711864407,40,146.4406779661017,40C145.42372881355934,40,144.40677966101694,40,143.38983050847457,40C142.3728813559322,40,141.35593220338984,40,140.33898305084747,40C139.3220338983051,40,138.3050847457627,40,137.28813559322035,40C136.27118644067798,40,135.25423728813558,40,134.23728813559322,40C133.22033898305085,40,132.20338983050846,40,131.1864406779661,40C130.16949152542372,40,129.15254237288136,40,128.135593220339,40C127.11864406779662,40,126.10169491525424,40,125.08474576271188,40C124.0677966101695,40,123.05084745762711,40,122.03389830508473,40C121.01694915254237,40,120,40,118.98305084745763,40C117.96610169491525,40,116.94915254237289,40,115.9322033898305,40C114.91525423728814,40,113.89830508474576,40,112.88135593220339,40C111.86440677966102,40,110.84745762711864,40,109.83050847457628,40C108.8135593220339,40,107.79661016949153,40,106.77966101694915,40C105.76271186440678,40,104.7457627118644,40,103.72881355932203,40C102.71186440677965,40,101.69491525423729,40,100.6779661016949,40C99.66101694915254,40,98.64406779661016,40,97.62711864406779,40C96.61016949152543,40,95.59322033898306,40,94.57627118644069,40C93.55932203389831,40,92.54237288135593,40,91.52542372881355,40C90.50847457627118,40,89.49152542372882,40,88.47457627118645,40C87.45762711864407,40,86.4406779661017,40,85.42372881355932,40C84.40677966101696,40,83.38983050847457,40,82.37288135593221,40C81.35593220338983,40,80.33898305084746,40,79.32203389830508,40C78.30508474576271,40,77.28813559322033,40,76.27118644067797,40C75.2542372881356,40,74.23728813559322,40,73.22033898305085,40C72.20338983050848,40,71.1864406779661,40,70.16949152542374,40C69.15254237288136,40,68.13559322033899,40,67.11864406779661,40C66.10169491525424,40,65.08474576271186,40,64.0677966101695,40C63.05084745762712,40,62.03389830508474,40,61.01694915254237,40C59.99999999999999,40,58.983050847457626,40,57.96610169491525,40C56.94915254237288,40,55.93220338983051,40,54.91525423728814,40C53.898305084745765,40,52.88135593220339,40,51.86440677966102,40C50.847457627118644,40,49.83050847457627,40,48.813559322033896,40C47.79661016949152,40,46.77966101694915,40,45.762711864406775,40C44.7457627118644,40,43.728813559322035,40,42.71186440677966,40C41.69491525423729,40,40.67796610169491,40,39.66101694915254,40C38.644067796610166,40,37.6271186440678,40,36.610169491525426,40C35.59322033898305,40,34.57627118644068,40,33.559322033898304,40C32.54237288135593,40,31.525423728813557,40,30.508474576271183,40C29.491525423728813,40,28.47457627118644,40,27.45762711864407,40C26.440677966101696,40,25.423728813559322,40,24.406779661016948,40C23.389830508474574,40,22.372881355932204,40,21.35593220338983,40C20.338983050847457,40,19.322033898305087,40,18.305084745762713,40C17.28813559322034,40,16.271186440677965,40,15.254237288135592,40C14.23728813559322,40,13.220338983050846,40,12.203389830508474,40C11.186440677966102,40,10.169491525423728,40,9.152542372881356,40C8.135593220338983,40,7.11864406779661,40,6.101694915254237,40C5.084745762711864,40,4.067796610169491,40,3.0508474576271185,40C2.0338983050847457,40,1.0169491525423728,40,0,40Z"></path><path class="line" stroke="black" fill="none" d="M0,36.672000000000004C1.0169491525423728,36.657333333333334,2.0338983050847457,36.64266666666667,3.0508474576271185,36.626285714285714C4.067796610169491,36.60990476190476,5.084745762711864,36.590476190476195,6.101694915254237,36.57371428571429C7.11864406779661,36.55695238095238,8.135593220338983,36.542476190476194,9.152542372881356,36.52571428571429C10.169491525423728,36.50895238095238,11.186440677966102,36.49219047619048,12.203389830508474,36.47314285714286C13.220338983050846,36.45409523809524,14.23728813559322,36.432,15.254237288135592,36.41142857142857C16.271186440677965,36.39085714285714,17.28813559322034,36.372190476190475,18.305084745762713,36.349714285714285C19.322033898305087,36.327238095238094,20.338983050847457,36.301904761904765,21.35593220338983,36.27657142857143C22.372881355932204,36.251238095238094,23.389830508474574,36.224761904761905,24.406779661016948,36.197714285714284C25.423728813559322,36.17066666666666,26.440677966101696,36.14647619047619,27.45762711864407,36.114285714285714C28.47457627118644,36.08209523809524,29.491525423728813,36.042857142857144,30.508474576271183,36.00457142857143C31.525423728813557,35.96628571428572,32.54237288135593,35.92476190476191,33.559322033898304,35.884571428571434C34.57627118644068,35.84438095238096,35.59322033898305,35.80647619047619,36.610169491525426,35.76342857142857C37.6271186440678,35.72038095238095,38.644067796610166,35.67257142857143,39.66101694915254,35.626285714285714C40.67796610169491,35.58,41.69491525423729,35.534666666666666,42.71186440677966,35.48571428571429C43.728813559322035,35.43676190476191,44.7457627118644,35.38514285714285,45.762711864406775,35.33257142857143C46.77966101694915,35.279999999999994,47.79661016949152,35.22380952380952,48.813559322033896,35.17028571428571C49.83050847457627,35.1167619047619,50.847457627118644,35.06552380952381,51.86440677966102,35.011428571428574C52.88135593220339,34.95733333333334,53.898305084745765,34.903238095238095,54.91525423728814,34.84571428571429C55.93220338983051,34.78819047619048,56.94915254237288,34.72838095238095,57.96610169491525,34.66628571428571C58.983050847457626,34.604190476190475,59.99999999999999,34.54,61.01694915254237,34.473142857142854C62.03389830508474,34.40628571428571,63.05084745762712,34.337714285714284,64.0677966101695,34.265142857142855C65.08474576271186,34.192571428571426,66.10169491525424,34.12114285714286,67.11864406779661,34.03771428571429C68.13559322033899,33.95428571428572,69.15254237288136,33.86152380952381,70.16949152542374,33.76457142857143C71.1864406779661,33.66761904761905,72.20338983050848,33.56285714285715,73.22033898305085,33.456C74.23728813559322,33.34914285714286,75.2542372881356,33.24419047619048,76.27118644067797,33.123428571428576C77.28813559322033,33.00266666666667,78.30508474576271,32.86971428571429,79.32203389830508,32.73142857142857C80.33898305084746,32.59314285714286,81.35593220338983,32.44380952380953,82.37288135593221,32.29371428571429C83.38983050847457,32.14361904761905,84.40677966101696,31.988190476190475,85.42372881355932,31.83085714285714C86.4406779661017,31.673523809523807,87.45762711864407,31.51142857142857,88.47457627118645,31.349714285714285C89.49152542372882,31.188,90.50847457627118,31.021142857142856,91.52542372881355,30.86057142857143C92.54237288135593,30.7,93.55932203389831,30.55257142857143,94.57627118644069,30.386285714285712C95.59322033898306,30.22,96.61016949152543,30.03790476190476,97.62711864406779,29.86285714285714C98.64406779661016,29.687809523809523,99.66101694915254,29.521333333333335,100.6779661016949,29.336000000000002C101.69491525423729,29.15066666666667,102.71186440677965,28.951238095238097,103.72881355932203,28.750857142857143C104.7457627118644,28.55047619047619,105.76271186440678,28.34361904761905,106.77966101694915,28.133714285714287C107.79661016949153,27.923809523809524,108.8135593220339,27.712,109.83050847457628,27.49142857142857C110.84745762711864,27.270857142857142,111.86440677966102,27.048571428571428,112.88135593220339,26.810285714285715C113.89830508474576,26.572000000000003,114.91525423728814,26.316952380952383,115.9322033898305,26.061714285714288C116.94915254237289,25.806476190476193,117.96610169491525,25.542476190476194,118.98305084745763,25.278857142857145C120,25.015238095238097,121.01694915254237,24.747999999999998,122.03389830508473,24.48C123.05084745762711,24.212,124.0677966101695,23.957904761904764,125.08474576271188,23.670857142857145C126.10169491525424,23.38380952380953,127.11864406779662,23.067428571428575,128.135593220339,22.757714285714286C129.15254237288136,22.448,130.16949152542372,22.138095238095232,131.1864406779661,21.812571428571424C132.20338983050846,21.487047619047612,133.22033898305085,21.148761904761905,134.23728813559322,20.80457142857143C135.25423728813558,20.46038095238095,136.27118644067798,20.11352380952381,137.28813559322035,19.74742857142857C138.3050847457627,19.381333333333334,139.3220338983051,18.99295238095238,140.33898305084747,18.607999999999997C141.35593220338984,18.22304761904762,142.3728813559322,17.83942857142857,143.38983050847457,17.437714285714286C144.40677966101694,17.035999999999998,145.42372881355934,16.609523809523814,146.4406779661017,16.197714285714287C147.45762711864407,15.785904761904765,148.47457627118644,15.393142857142857,149.4915254237288,14.966857142857144C150.50847457627117,14.540571428571427,151.52542372881356,14.086476190476189,152.54237288135593,13.639999999999999C153.5593220338983,13.193523809523809,154.5762711864407,12.746476190476193,155.59322033898306,12.288C156.61016949152543,11.829523809523812,157.6271186440678,11.353142857142851,158.64406779661016,10.889142857142854C159.66101694915253,10.425142857142852,160.67796610169492,9.964952380952381,161.6949152542373,9.504000000000001C162.71186440677965,9.043047619047622,163.72881355932205,8.577904761904765,164.74576271186442,8.123428571428573C165.76271186440678,7.668952380952384,166.77966101694915,7.225714285714286,167.79661016949152,6.777142857142859C168.81355932203388,6.328571428571429,169.83050847457628,5.872000000000002,170.84745762711864,5.432000000000001C171.864406779661,4.992000000000001,172.8813559322034,4.571238095238096,173.89830508474577,4.137142857142857C174.91525423728814,3.7030476190476183,175.93220338983053,3.2653333333333334,176.9491525423729,2.8274285714285696C177.96610169491527,2.3895238095238103,178.98305084745763,1.949619047619049,180,1.5097142857142876"></path><path class="axis-ceiling" stroke-width="1" stroke="black" fill="none" d="M175,0L180,0"></path><text class="axis-ceiling-label" font-family="sans-serif" text-anchor="end" font-size="10px" x="170" y="2.5">35000</text></g></svg>