<svg xmlns="http://www.w3.org/2000/svg" viewBox="0 0 180 60"><g transform="translate(0,20)"><path class="area" fill="rgba(0, 0, 0, 0.2)" d="M0,31.306666666666665C0.923076923076923,31.30222222222222,1.8461538461538463,31.297777777777778,2.769230769230769,31.28C4.615384615384616,31.24444444444445,6.461538461538462,31.075555555555557,8.307692307692308,31.04C9.230769230769232,31.022222222222222,10.153846153846153,31.022222222222222,11.076923076923077,31.013333333333332C12,31.00444444444444,12.923076923076923,30.995555555555555,13.846153846153847,30.986666666666665C14.76923076923077,30.977777777777774,15.692307692307693,30.96977777777778,16.615384615384617,30.96C20.30769230769231,30.920888888888893,24,30.853333333333335,27.692307692307693,30.8C29.53846153846154,30.773333333333333,31.384615384615387,30.74074074074074,33.23076923076923,30.72C34.15384615384615,30.709629629629628,35.07692307692308,30.706666666666663,36,30.69333333333333C36.92307692307693,30.68,37.84615384615385,30.653333333333332,38.769230769230774,30.64C39.69230769230769,30.62666666666667,40.61538461538462,30.63111111111111,41.53846153846154,30.613333333333333C42.46153846153846,30.595555555555556,43.38461538461539,30.52444444444444,44.30769230769231,30.506666666666664C45.23076923076923,30.488888888888887,46.15384615384615,30.497777777777777,47.07692307692308,30.48C48.92307692307693,30.44444444444445,50.769230769230774,30.314074074074075,52.61538461538462,30.186666666666667C53.53846153846154,30.122962962962966,54.46153846153847,30.053333333333338,55.38461538461539,29.973333333333336C56.307692307692314,29.893333333333334,57.23076923076923,29.839999999999996,58.15384615384616,29.706666666666663C59.07692307692308,29.57333333333333,60.00000000000001,29.28,60.92307692307693,29.173333333333336C61.84615384615385,29.06666666666667,62.769230769230774,29.05777777777778,63.69230769230769,29.013333333333335C64.61538461538461,28.96888888888889,65.53846153846155,28.977777777777778,66.46153846153847,28.906666666666666C67.38461538461539,28.835555555555555,68.30769230769232,28.639999999999997,69.23076923076924,28.586666666666666C70.15384615384616,28.533333333333335,71.07692307692308,28.53777777777778,72,28.506666666666668C72.92307692307692,28.475555555555555,73.84615384615385,28.47111111111111,74.76923076923077,28.4C75.6923076923077,28.328888888888887,76.61538461538463,27.72888888888889,77.53846153846155,27.36C78.46153846153847,26.991111111111113,79.38461538461539,26.555555555555554,80.3076923076923,26.186666666666667C81.23076923076923,25.817777777777778,82.15384615384616,25.431111111111115,83.07692307692308,25.14666666666667C84,24.862222222222222,84.92307692307693,24.8,85.84615384615385,24.48C86.76923076923077,24.16,87.6923076923077,23.422222222222224,88.61538461538461,23.226666666666667C89.53846153846153,23.03111111111111,90.46153846153847,23.124444444444443,91.38461538461539,22.93333333333333C92.3076923076923,22.742222222222217,93.23076923076924,22.342222222222222,94.15384615384616,22.080000000000002C95.07692307692308,21.81777777777778,96,21.537777777777777,96.92307692307692,21.36C97.84615384615384,21.18222222222222,98.76923076923077,21.186666666666667,99.6923076923077,21.013333333333332C100.61538461538461,20.84,101.53846153846153,20.53333333333333,102.46153846153845,20.32C103.38461538461539,20.106666666666666,104.3076923076923,19.937777777777775,105.23076923076924,19.73333333333333C106.15384615384616,19.528888888888886,107.07692307692308,19.2,108,19.093333333333334C108.92307692307692,18.986666666666668,109.84615384615385,19.00444444444445,110.76923076923077,18.933333333333337C111.6923076923077,18.862222222222226,112.61538461538461,18.76,113.53846153846153,18.666666666666668C114.46153846153847,18.573333333333334,115.38461538461539,18.457777777777782,116.30769230769232,18.373333333333335C117.23076923076924,18.28888888888889,118.15384615384616,18.248888888888885,119.07692307692308,18.159999999999997C120,18.071111111111108,120.92307692307693,17.942222222222217,121.84615384615385,17.839999999999996C122.76923076923077,17.737777777777776,123.6923076923077,17.626666666666665,124.61538461538461,17.546666666666667C125.53846153846153,17.46666666666667,126.46153846153847,17.484444444444446,127.38461538461539,17.360000000000003C128.30769230769232,17.23555555555556,129.23076923076923,16.36444444444444,130.15384615384616,16.346666666666664C131.0769230769231,16.328888888888887,132,16.337777777777777,132.92307692307693,16.32C133.84615384615384,16.302222222222223,134.76923076923077,16.231111111111108,135.69230769230768,16.186666666666664C136.6153846153846,16.14222222222222,137.53846153846155,16.10666666666667,138.46153846153848,16.053333333333335C139.3846153846154,16,140.30769230769232,15.884444444444439,141.23076923076923,15.866666666666664C142.15384615384616,15.848888888888888,143.07692307692307,15.848888888888888,144,15.84C144.92307692307693,15.831111111111111,145.84615384615384,15.831111111111111,146.76923076923077,15.813333333333333C147.6923076923077,15.795555555555554,148.6153846153846,15.724444444444444,149.53846153846155,15.68C150.46153846153845,15.635555555555555,151.3846153846154,15.564444444444447,152.3076923076923,15.546666666666669C153.23076923076923,15.52888888888889,154.15384615384616,15.537777777777778,155.0769230769231,15.52C156,15.50222222222222,156.92307692307693,15.475555555555555,157.84615384615384,15.386666666666668C158.76923076923077,15.29777777777778,159.69230769230768,15.040000000000001,160.6153846153846,14.906666666666668C161.53846153846155,14.773333333333335,162.46153846153845,14.675555555555558,163.3846153846154,14.586666666666668C164.30769230769232,14.497777777777777,165.23076923076923,14.515555555555556,166.15384615384616,14.373333333333331C167.0769230769231,14.231111111111106,168,13.719999999999999,168.92307692307693,13.52C169.84615384615387,13.32,170.76923076923077,13.404444444444445,171.6923076923077,13.173333333333336C172.6153846153846,12.94222222222223,173.53846153846155,11.759999999999998,174.46153846153845,11.653333333333332C175.3846153846154,11.546666666666665,176.3076923076923,11.546666666666665,177.23076923076923,11.493333333333332C178.15384615384616,11.44,179.07692307692307,11.386666666666665,180,11.333333333333332L180,40C179.07692307692307,40,178.15384615384616,40,177.23076923076923,40C176.3076923076923,40,175.3846153846154,40,174.46153846153845,40C173.53846153846155,40,172.6153846153846,40,171.6923076923077,40C170.76923076923077,40,169.84615384615387,40,168.92307692307693,40C168,40,167.0769230769231,40,166.15384615384616,40C165.23076923076923,40,164.30769230769232,40,163.3846153846154,40C162.46153846153845,40,161.53846153846155,40,160.6153846153846,40C159.69230769230768,40,158.76923076923077,40,157.84615384615384,40C156.92307692307693,40,156,40,155.0769230769231,40C154.15384615384616,40,153.23076923076923,40,152.3076923076923,40C151.3846153846154,40,150.46153846153845,40,149.53846153846155,40C148.6153846153846,40,147.6923076923077,40,146.76923076923077,40C145.84615384615384,40,144.92307692307693,40,144,40C143.07692307692307,40,142.15384615384616,40,141.23076923076923,40C140.30769230769232,40,139.3846153846154,40,138.46153846153848,40C137.53846153846155,40,136.6153846153846,40,135.69230769230768,40C134.76923076923077,40,133.84615384615384,40,132.92307692307693,40C132,40,131.0769230769231,40,130.15384615384616,40C129.23076923076923,40,128.30769230769232,40,127.38461538461539,40C126.46153846153847,40,125.53846153846153,40,124.61538461538461,40C123.6923076923077,40,122.76923076923077,40,121.84615384615385,40C120.92307692307693,40,120,40,119.07692307692308,40C118.15384615384616,40,117.23076923076924,40,116.30769230769232,40C115.38461538461539,40,114.46153846153847,40,113.53846153846153,40C112.61538461538461,40,111.6923076923077,40,110.76923076923077,40C109.84615384615385,40,108.92307692307692,40,108,40C107.07692307692308,40,106.15384615384616,40,105.23076923076924,40C104.3076923076923,40,103.38461538461539,40,102.46153846153845,40C101.53846153846153,40,100.61538461538461,40,99.6923076923077,40C98.76923076923077,40,97.84615384615384,40,96.92307692307692,40C96,40,95.07692307692308,40,94.15384615384616,40C93.23076923076924,40,92.3076923076923,40,91.38461538461539,40C90.46153846153847,40,89.53846153846153,40,88.61538461538461,40C87.6923076923077,40,86.76923076923077,40,85.84615384615385,40C84.92307692307693,40,84,40,83.07692307692308,40C82.15384615384616,40,81.23076923076923,40,80.3076923076923,40C79.38461538461539,40,78.46153846153847,40,77.53846153846155,40C76.61538461538463,40,75.6923076923077,40,74.76923076923077,40C73.84615384615385,40,72.92307692307692,40,72,40C71.07692307692308,40,70.15384615384616,40,69.23076923076924,40C68.30769230769232,40,67.38461538461539,40,66.46153846153847,40C65.53846153846155,40,64.61538461538461,40,63.69230769230769,40C62.769230769230774,40,61.84615384615385,40,60.92307692307693,40C60.00000000000001,40,59.07692307692308,40,58.15384615384616,40C57.23076923076923,40,56.307692307692314,40,55.38461538461539,40C54.46153846153847,40,53.53846153846154,40,52.61538461538462,40C50.769230769230774,40,48.92307692307693,40,47.07692307692308,40C46.15384615384615,40,45.23076923076923,40,44.30769230769231,40C43.38461538461539,40,42.46153846153846,40,41.53846153846154,40C40.61538461538462,40,39.69230769230769,40,38.769230769230774,40C37.84615384615385,40,36.92307692307693,40,36,40C35.07692307692308,40,34.15384615384615,40,33.23076923076923,40C31.384615384615387,40,29.53846153846154,40,27.692307692307693,40C24,40,20.30769230769231,40,16.615384615384617,40C15.692307692307693,40,14.76923076923077,40,13.846153846153847,40C12.923076923076923,40,12,40,11.076923076923077,40C10.153846153846153,40,9.230769230769232,40,8.307692307692308,40C6.461538461538462,40,4.615384615384616,40,2.769230769230769,40C1.8461538461538463,40,0.923076923076923,40,0,40Z"></path><path class="line" stroke="black" fill="none" d="M0,31.306666666666665C0.923076923076923,31.30222222222222,1.8461538461538463,31.297777777777778,2.769230769230769,31.28C4.615384615384616,31.24444444444445,6.461538461538462,31.075555555555557,8.307692307692308,31.04C9.230769230769232,31.022222222222222,10.153846153846153,31.022222222222222,11.076923076923077,31.013333333333332C12,31.00444444444444,12.923076923076923,30.995555555555555,13.846153846153847,30.986666666666665C14.76923076923077,30.977777777777774,15.692307692307693,30.96977777777778,16.615384615384617,30.96C20.30769230769231,30.920888888888893,24,30.853333333333335,27.692307692307693,30.8C29.53846153846154,30.773333333333333,31.384615384615387,30.74074074074074,33.23076923076923,30.72C34.15384615384615,30.709629629629628,35.07692307692308,30.706666666666663,36,30.69333333333333C36.92307692307693,30.68,37.84615384615385,30.653333333333332,38.769230769230774,30.64C39.69230769230769,30.62666666666667,40.61538461538462,30.63111111111111,41.53846153846154,30.613333333333333C42.46153846153846,30.595555555555556,43.38461538461539,30.52444444444444,44.30769230769231,30.506666666666664C45.23076923076923,30.488888888888887,46.15384615384615,30.497777777777777,47.07692307692308,30.48C48.92307692307693,30.44444444444445,50.769230769230774,30.314074074074075,52.61538461538462,30.186666666666667C53.53846153846154,30.122962962962966,54.46153846153847,30.053333333333338,55.38461538461539,29.973333333333336C56.307692307692314,29.893333333333334,57.23076923076923,29.839999999999996,58.15384615384616,29.706666666666663C59.07692307692308,29.57333333333333,60.00000000000001,29.28,60.92307692307693,29.173333333333336C61.84615384615385,29.06666666666667,62.769230769230774,29.05777777777778,63.69230769230769,29.013333333333335C64.61538461538461,28.96888888888889,65.53846153846155,28.977777777777778,66.46153846153847,28.906666666666666C67.38461538461539,28.835555555555555,68.30769230769232,28.639999999999997,69.23076923076924,28.586666666666666C70.15384615384616,28.533333333333335,71.07692307692308,28.53777777777778,72,28.506666666666668C72.92307692307692,28.475555555555555,73.84615384615385,28.47111111111111,74.76923076923077,28.4C75.6923076923077,28.328888888888887,76.61538461538463,27.72888888888889,77.53846153846155,27.36C78.46153846153847,26.991111111111113,79.38461538461539,26.555555555555554,80.3076923076923,26.186666666666667C81.23076923076923,25.817777777777778,82.15384615384616,25.431111111111115,83.07692307692308,25.14666666666667C84,24.862222222222222,84.92307692307693,24.8,85.84615384615385,24.48C86.76923076923077,24.16,87.6923076923077,23.422222222222224,88.61538461538461,23.226666666666667C89.53846153846153,23.03111111111111,90.46153846153847,23.124444444444443,91.38461538461539,22.93333333333333C92.3076923076923,22.742222222222217,93.23076923076924,22.342222222222222,94.15384615384616,22.080000000000002C95.07692307692308,21.81777777777778,96,21.537777777777777,96.92307692307692,21.36C97.84615384615384,21.18222222222222,98.76923076923077,21.186666666666667,99.6923076923077,21.013333333333332C100.61538461538461,20.84,101.53846153846153,20.53333333333333,102.46153846153845,20.32C103.38461538461539,20.106666666666666,104.3076923076923,19.937777777777775,105.23076923076924,19.73333333333333C106.15384615384616,19.528888888888886,107.07692307692308,19.2,108,19.093333333333334C108.92307692307692,18.986666666666668,109.84615384615385,19.00444444444445,110.76923076923077,18.933333333333337C111.6923076923077,18.862222222222226,112.61538461538461,18.76,113.53846153846153,18.666666666666668C114.46153846153847,18.573333333333334,115.38461538461539,18.457777777777782,116.30769230769232,18.373333333333335C117.23076923076924,18.28888888888889,118.15384615384616,18.248888888888885,119.07692307692308,18.159999999999997C120,18.071111111111108,120.92307692307693,17.942222222222217,121.84615384615385,17.839999999999996C122.76923076923077,17.737777777777776,123.6923076923077,17.626666666666665,124.61538461538461,17.546666666666667C125.53846153846153,17.46666666666667,126.46153846153847,17.484444444444446,127.38461538461539,17.360000000000003C128.30769230769232,17.23555555555556,129.23076923076923,16.36444444444444,130.15384615384616,16.346666666666664C131.0769230769231,16.328888888888887,132,16.337777777777777,132.92307692307693,16.32C133.84615384615384,16.302222222222223,134.76923076923077,16.231111111111108,135.69230769230768,16.186666666666664C136.6153846153846,16.14222222222222,137.53846153846155,16.10666666666667,138.46153846153848,16.053333333333335C139.3846153846154,16,140.30769230769232,15.884444444444439,141.23076923076923,15.866666666666664C142.15384615384616,15.848888888888888,143.07692307692307,15.848888888888888,144,15.84C144.92307692307693,15.831111111111111,145.84615384615384,15.831111111111111,146.76923076923077,15.813333333333333C147.6923076923077,15.795555555555554,148.6153846153846,15.724444444444444,149.53846153846155,15.68C150.46153846153845,15.635555555555555,151.3846153846154,15.564444444444447,152.3076923076923,15.546666666666669C153.23076923076923,15.52888888888889,154.15384615384616,15.537777777777778,155.0769230769231,15.52C156,15.50222222222222,156.92307692307693,15.475555555555555,157.84615384615384,15.386666666666668C158.76923076923077,15.29777777777778,159.69230769230768,15.040000000000001,160.6153846153846,14.906666666666668C161.53846153846155,14.773333333333335,162.46153846153845,14.675555555555558,163.3846153846154,14.586666666666668C164.30769230769232,14.497777777777777,165.23076923076923,14.515555555555556,166.15384615384616,14.373333333333331C167.0769230769231,14.231111111111106,168,13.719999999999999,168.92307692307693,13.52C169.84615384615387,13.32,170.76923076923077,13.404444444444445,171.6923076923077,13.173333333333336C172.6153846153846,12.94222222222223,173.53846153846155,11.759999999999998,174.46153846153845,11.653333333333332C175.3846153846154,11.546666666666665,176.3076923076923,11.546666666666665,177.23076923076923,11.493333333333332C178.15384615384616,11.44,179.07692307692307,11.386666666666665,180,11.333333333333332"></path><path class="axis-ceiling" stroke-width="1" stroke="black" fill="none" d="M175,0L180,0"></path><text class="axis-ceiling-label" font-family="sans-serif" text-anchor="end" font-size="10px" x="170" y="2.5">1500</text></g></svg>