<svg xmlns="http://www.w3.org/2000/svg" viewBox="0 0 180 60"><g transform="translate(0,20)"><path class="area" fill="rgba(0, 0, 0, 0.2)" d="M0,38.8C1.0169491525423728,38.76,2.0338983050847457,38.72,3.0508474576271185,38.72C4.067796610169491,38.72,5.084745762711864,39.14666666666667,6.101694915254237,39.14666666666667C7.11864406779661,39.14666666666667,8.135593220338983,39.02666666666667,9.152542372881356,38.82666666666667C10.169491525423728,38.626666666666665,11.186440677966102,37.946666666666665,12.203389830508474,37.946666666666665C13.220338983050846,37.946666666666665,14.23728813559322,39.78666666666667,15.254237288135592,39.78666666666667C16.271186440677965,39.78666666666667,17.28813559322034,38.65777777777778,18.305084745762713,38.21333333333334C19.322033898305087,37.768888888888895,20.338983050847457,37.120000000000005,21.35593220338983,37.120000000000005C22.372881355932204,37.120000000000005,23.389830508474574,39.04,24.406779661016948,39.04C25.423728813559322,39.04,26.440677966101696,37.093333333333334,27.45762711864407,37.093333333333334C28.47457627118644,37.093333333333334,29.491525423728813,37.86666666666667,30.508474576271183,37.86666666666667C31.525423728813557,37.86666666666667,32.54237288135593,37.648888888888884,33.559322033898304,37.25333333333333C34.57627118644068,36.85777777777778,35.59322033898305,35.49333333333333,36.610169491525426,35.49333333333333C37.6271186440678,35.49333333333333,38.644067796610166,36.480000000000004,39.66101694915254,36.586666666666666C40.67796610169491,36.69333333333333,41.69491525423729,36.74666666666666,42.71186440677966,36.74666666666666C43.728813559322035,36.74666666666666,44.7457627118644,36.648888888888884,45.762711864406775,36.61333333333333C46.77966101694915,36.577777777777776,47.79661016949152,36.586666666666666,48.813559322033896,36.53333333333333C49.83050847457627,36.48,50.847457627118644,35.82222222222222,51.86440677966102,35.78666666666667C52.88135593220339,35.751111111111115,53.898305084745765,35.733333333333334,54.91525423728814,35.733333333333334C55.93220338983051,35.733333333333334,56.94915254237288,36.053333333333335,57.96610169491525,36.053333333333335C58.983050847457626,36.053333333333335,59.99999999999999,35.742222222222225,61.01694915254237,35.46666666666667C62.03389830508474,35.19111111111111,63.05084745762712,34.4,64.0677966101695,34.4C65.08474576271186,34.4,66.10169491525424,34.50666666666667,67.11864406779661,34.50666666666667C68.13559322033899,34.50666666666667,69.15254237288136,34.4,70.16949152542374,34.18666666666667C71.1864406779661,33.973333333333336,72.20338983050848,33.37333333333334,73.22033898305085,32.400000000000006C74.23728813559322,31.426666666666673,75.2542372881356,28.346666666666668,76.27118644067797,28.346666666666668C77.28813559322033,28.346666666666668,78.30508474576271,29.857777777777777,79.32203389830508,30.37333333333333C80.33898305084746,30.88888888888889,81.35593220338983,31.44,82.37288135593221,31.44C83.38983050847457,31.44,84.40677966101696,24.666666666666668,85.42372881355932,24.666666666666668C86.4406779661017,24.666666666666668,87.45762711864407,26.29333333333333,88.47457627118645,27.173333333333332C89.49152542372882,28.053333333333327,90.50847457627118,29.946666666666665,91.52542372881355,29.946666666666665C92.54237288135593,29.946666666666665,93.55932203389831,29.795555555555556,94.57627118644069,29.493333333333336C95.59322033898306,29.19111111111112,96.61016949152543,27.04,97.62711864406779,27.04C98.64406779661016,27.04,99.66101694915254,32.77333333333333,100.6779661016949,32.77333333333333C101.69491525423729,32.77333333333333,102.71186440677965,23.46666666666667,103.72881355932203,23.46666666666667C104.7457627118644,23.46666666666667,105.76271186440678,23.946666666666665,106.77966101694915,23.946666666666665C107.79661016949153,23.946666666666665,108.8135593220339,17.839999999999996,109.83050847457628,17.839999999999996C110.84745762711864,17.839999999999996,111.86440677966102,24.293333333333337,112.88135593220339,24.666666666666668C113.89830508474576,25.04,114.91525423728814,25.226666666666667,115.9322033898305,25.226666666666667C116.94915254237289,25.226666666666667,117.96610169491525,20.96,118.98305084745763,20.96C120,20.96,121.01694915254237,21.626666666666665,122.03389830508473,21.626666666666665C123.05084745762711,21.626666666666665,124.0677966101695,17.839999999999996,125.08474576271188,17.839999999999996C126.10169491525424,17.839999999999996,127.11864406779662,21.226666666666667,128.135593220339,21.226666666666667C129.15254237288136,21.226666666666667,130.16949152542372,18.693333333333317,131.1864406779661,16.400000000000002C132.20338983050846,14.106666666666664,133.22033898305085,7.466666666666666,134.23728813559322,7.466666666666666C135.25423728813558,7.466666666666666,136.27118644067798,20.21333333333334,137.28813559322035,20.21333333333334C138.3050847457627,20.21333333333334,139.3220338983051,10.48,140.33898305084747,10.48C141.35593220338984,10.48,142.3728813559322,13.786666666666667,143.38983050847457,13.786666666666667C144.40677966101694,13.786666666666667,145.42372881355934,4.2666666666666675,146.4406779661017,4.2666666666666675C147.45762711864407,4.2666666666666675,148.47457627118644,16.293333333333333,149.4915254237288,16.293333333333333C150.50847457627117,16.293333333333333,151.52542372881356,5.04,152.54237288135593,5.04C153.5593220338983,5.04,154.5762711864407,8.826666666666668,155.59322033898306,8.826666666666668C156.61016949152543,8.826666666666668,157.6271186440678,4.586666666666668,158.64406779661016,4.586666666666668C159.66101694915253,4.586666666666668,160.67796610169492,6.275555555555554,161.6949152542373,6.293333333333333C162.71186440677965,6.311111111111112,163.72881355932205,6.320000000000001,164.74576271186442,6.320000000000001C165.76271186440678,6.320000000000001,166.77966101694915,6.293333333333333,167.79661016949152,6.293333333333333C168.81355932203388,6.293333333333333,169.83050847457628,17.173333333333332,170.84745762711864,17.173333333333332C171.864406779661,17.173333333333332,172.8813559322034,12.017777777777777,173.89830508474577,10.72C174.91525423728814,9.422222222222224,175.93220338983053,8.773333333333335,176.9491525423729,8.773333333333335C177.96610169491527,8.773333333333335,178.98305084745763,10.853333333333335,180,12.933333333333334L180,40C178.98305084745763,40,177.96610169491527,40,176.9491525423729,40C175.93220338983053,40,174.91525423728814,40,173.89830508474577,40C172.8813559322034,40,171.864406779661,40,170.84745762711864,40C169.83050847457628,40,168.81355932203388,40,167.79661016949152,40C166.77966101694915,40,165.76271186440678,40,164.74576271186442,40C163.72881355932205,40,162.71186440677965,40,161.6949152542373,40C160.67796610169492,40,159.66101694915253,40,158.64406779661016,40C157.6271186440678,40,156.61016949152543,40,155.59322033898306,40C154.5762711864407,40,153.5593220338983,40,152.54237288135593,40C151.52542372881356,40,150.50847457627117,40,149.4915254237288,40C148.47457627118644,40,147.45762711864407,40,146.4406779661017,40C145.42372881355934,40,144.40677966101694,40,143.38983050847457,40C142.3728813559322,40,141.35593220338984,40,140.33898305084747,40C139.3220338983051,40,138.3050847457627,40,137.28813559322035,40C136.27118644067798,40,135.25423728813558,40,134.23728813559322,40C133.22033898305085,40,132.20338983050846,40,131.1864406779661,40C130.16949152542372,40,129.15254237288136,40,128.135593220339,40C127.11864406779662,40,126.10169491525424,40,125.08474576271188,40C124.0677966101695,40,123.05084745762711,40,122.03389830508473,40C121.01694915254237,40,120,40,118.98305084745763,40C117.96610169491525,40,116.94915254237289,40,115.9322033898305,40C114.91525423728814,40,113.89830508474576,40,112.88135593220339,40C111.86440677966102,40,110.84745762711864,40,109.83050847457628,40C108.8135593220339,40,107.79661016949153,40,106.77966101694915,40C105.76271186440678,40,104.7457627118644,40,103.72881355932203,40C102.71186440677965,40,101.69491525423729,40,100.6779661016949,40C99.66101694915254,40,98.64406779661016,40,97.62711864406779,40C96.61016949152543,40,95.59322033898306,40,94.57627118644069,40C93.55932203389831,40,92.54237288135593,40,91.52542372881355,40C90.50847457627118,40,89.49152542372882,40,88.47457627118645,40C87.45762711864407,40,86.4406779661017,40,85.42372881355932,40C84.40677966101696,40,83.38983050847457,40,82.37288135593221,40C81.35593220338983,40,80.33898305084746,40,79.32203389830508,40C78.30508474576271,40,77.28813559322033,40,76.27118644067797,40C75.2542372881356,40,74.23728813559322,40,73.22033898305085,40C72.20338983050848,40,71.1864406779661,40,70.16949152542374,40C69.15254237288136,40,68.13559322033899,40,67.11864406779661,40C66.10169491525424,40,65.08474576271186,40,64.0677966101695,40C63.05084745762712,40,62.03389830508474,40,61.01694915254237,40C59.99999999999999,40,58.983050847457626,40,57.96610169491525,40C56.94915254237288,40,55.93220338983051,40,54.91525423728814,40C53.898305084745765,40,52.88135593220339,40,51.86440677966102,40C50.847457627118644,40,49.83050847457627,40,48.813559322033896,40C47.79661016949152,40,46.77966101694915,40,45.762711864406775,40C44.7457627118644,40,43.728813559322035,40,42.71186440677966,40C41.69491525423729,40,40.67796610169491,40,39.66101694915254,40C38.644067796610166,40,37.6271186440678,40,36.610169491525426,40C35.59322033898305,40,34.57627118644068,40,33.559322033898304,40C32.54237288135593,40,31.525423728813557,40,30.508474576271183,40C29.491525423728813,40,28.47457627118644,40,27.45762711864407,40C26.440677966101696,40,25.423728813559322,40,24.406779661016948,40C23.389830508474574,40,22.372881355932204,40,21.35593220338983,40C20.338983050847457,40,19.322033898305087,40,18.305084745762713,40C17.28813559322034,40,16.271186440677965,40,15.254237288135592,40C14.23728813559322,40,13.220338983050846,40,12.203389830508474,40C11.186440677966102,40,10.169491525423728,40,9.152542372881356,40C8.135593220338983,40,7.11864406779661,40,6.101694915254237,40C5.084745762711864,40,4.067796610169491,40,3.0508474576271185,40C2.0338983050847457,40,1.0169491525423728,40,0,40Z"></path><path class="line" stroke="black" fill="none" d="M0,38.8C1.0169491525423728,38.76,2.0338983050847457,38.72,3.0508474576271185,38.72C4.067796610169491,38.72,5.084745762711864,39.14666666666667,6.101694915254237,39.14666666666667C7.11864406779661,39.14666666666667,8.135593220338983,39.02666666666667,9.152542372881356,38.82666666666667C10.169491525423728,38.626666666666665,11.186440677966102,37.946666666666665,12.203389830508474,37.946666666666665C13.220338983050846,37.946666666666665,14.23728813559322,39.78666666666667,15.254237288135592,39.78666666666667C16.271186440677965,39.78666666666667,17.28813559322034,38.65777777777778,18.305084745762713,38.21333333333334C19.322033898305087,37.768888888888895,20.338983050847457,37.120000000000005,21.35593220338983,37.120000000000005C22.372881355932204,37.120000000000005,23.389830508474574,39.04,24.406779661016948,39.04C25.423728813559322,39.04,26.440677966101696,37.093333333333334,27.45762711864407,37.093333333333334C28.47457627118644,37.093333333333334,29.491525423728813,37.86666666666667,30.508474576271183,37.86666666666667C31.525423728813557,37.86666666666667,32.54237288135593,37.648888888888884,33.559322033898304,37.25333333333333C34.57627118644068,36.85777777777778,35.59322033898305,35.49333333333333,36.610169491525426,35.49333333333333C37.6271186440678,35.49333333333333,38.644067796610166,36.480000000000004,39.66101694915254,36.586666666666666C40.67796610169491,36.69333333333333,41.69491525423729,36.74666666666666,42.71186440677966,36.74666666666666C43.728813559322035,36.74666666666666,44.7457627118644,36.648888888888884,45.762711864406775,36.61333333333333C46.77966101694915,36.577777777777776,47.79661016949152,36.586666666666666,48.813559322033896,36.53333333333333C49.83050847457627,36.48,50.847457627118644,35.82222222222222,51.86440677966102,35.78666666666667C52.88135593220339,35.751111111111115,53.898305084745765,35.733333333333334,54.91525423728814,35.733333333333334C55.93220338983051,35.733333333333334,56.94915254237288,36.053333333333335,57.96610169491525,36.053333333333335C58.983050847457626,36.053333333333335,59.99999999999999,35.742222222222225,61.01694915254237,35.46666666666667C62.03389830508474,35.19111111111111,63.05084745762712,34.4,64.0677966101695,34.4C65.08474576271186,34.4,66.10169491525424,34.50666666666667,67.11864406779661,34.50666666666667C68.13559322033899,34.50666666666667,69.15254237288136,34.4,70.16949152542374,34.18666666666667C71.1864406779661,33.973333333333336,72.20338983050848,33.37333333333334,73.22033898305085,32.400000000000006C74.23728813559322,31.426666666666673,75.2542372881356,28.346666666666668,76.27118644067797,28.346666666666668C77.28813559322033,28.346666666666668,78.30508474576271,29.857777777777777,79.32203389830508,30.37333333333333C80.33898305084746,30.88888888888889,81.35593220338983,31.44,82.37288135593221,31.44C83.38983050847457,31.44,84.40677966101696,24.666666666666668,85.42372881355932,24.666666666666668C86.4406779661017,24.666666666666668,87.45762711864407,26.29333333333333,88.47457627118645,27.173333333333332C89.49152542372882,28.053333333333327,90.50847457627118,29.946666666666665,91.52542372881355,29.946666666666665C92.54237288135593,29.946666666666665,93.55932203389831,29.795555555555556,94.57627118644069,29.493333333333336C95.59322033898306,29.19111111111112,96.61016949152543,27.04,97.62711864406779,27.04C98.64406779661016,27.04,99.66101694915254,32.77333333333333,100.6779661016949,32.77333333333333C101.69491525423729,32.77333333333333,102.71186440677965,23.46666666666667,103.72881355932203,23.46666666666667C104.7457627118644,23.46666666666667,105.76271186440678,23.946666666666665,106.77966101694915,23.946666666666665C107.79661016949153,23.946666666666665,108.8135593220339,17.839999999999996,109.83050847457628,17.839999999999996C110.84745762711864,17.839999999999996,111.86440677966102,24.293333333333337,112.88135593220339,24.666666666666668C113.89830508474576,25.04,114.91525423728814,25.226666666666667,115.9322033898305,25.226666666666667C116.94915254237289,25.226666666666667,117.96610169491525,20.96,118.98305084745763,20.96C120,20.96,121.01694915254237,21.626666666666665,122.03389830508473,21.626666666666665C123.05084745762711,21.626666666666665,124.0677966101695,17.839999999999996,125.08474576271188,17.839999999999996C126.10169491525424,17.839999999999996,127.11864406779662,21.226666666666667,128.135593220339,21.226666666666667C129.15254237288136,21.226666666666667,130.16949152542372,18.693333333333317,131.1864406779661,16.400000000000002C132.20338983050846,14.106666666666664,133.22033898305085,7.466666666666666,134.23728813559322,7.466666666666666C135.25423728813558,7.466666666666666,136.27118644067798,20.21333333333334,137.28813559322035,20.21333333333334C138.3050847457627,20.21333333333334,139.3220338983051,10.48,140.33898305084747,10.48C141.35593220338984,10.48,142.3728813559322,13.786666666666667,143.38983050847457,13.786666666666667C144.40677966101694,13.786666666666667,145.42372881355934,4.2666666666666675,146.4406779661017,4.2666666666666675C147.45762711864407,4.2666666666666675,148.47457627118644,16.293333333333333,149.4915254237288,16.293333333333333C150.50847457627117,16.293333333333333,151.52542372881356,5.04,152.54237288135593,5.04C153.5593220338983,5.04,154.5762711864407,8.826666666666668,155.59322033898306,8.826666666666668C156.61016949152543,8.826666666666668,157.6271186440678,4.586666666666668,158.64406779661016,4.586666666666668C159.66101694915253,4.586666666666668,160.67796610169492,6.275555555555554,161.6949152542373,6.293333333333333C162.71186440677965,6.311111111111112,163.72881355932205,6.320000000000001,164.74576271186442,6.320000000000001C165.76271186440678,6.320000000000001,166.77966101694915,6.293333333333333,167.79661016949152,6.293333333333333C168.81355932203388,6.293333333333333,169.83050847457628,17.173333333333332,170.84745762711864,17.173333333333332C171.864406779661,17.173333333333332,172.8813559322034,12.017777777777777,173.89830508474577,10.72C174.91525423728814,9.422222222222224,175.93220338983053,8.773333333333335,176.9491525423729,8.773333333333335C177.96610169491527,8.773333333333335,178.98305084745763,10.853333333333335,180,12.933333333333334"></path><path class="axis-ceiling" stroke-width="1" stroke="black" fill="none" d="M175,0L180,0"></path><text class="axis-ceiling-label" font-family="sans-serif" text-anchor="end" font-size="10px" x="170" y="2.5">1500</text></g></svg>