<svg xmlns="http://www.w3.org/2000/svg" viewBox="0 0 180 60"><g transform="translate(0,20)"><path class="area" fill="rgba(0, 0, 0, 0.2)" d="M0,35.8468C1.0169491525423728,35.773,2.0338983050847457,35.6992,3.0508474576271185,35.622C4.067796610169491,35.5448,5.084745762711864,35.467,6.101694915254237,35.3836C7.11864406779661,35.300200000000004,8.135593220338983,35.21093333333334,9.152542372881356,35.1216C10.169491525423728,35.032266666666665,11.186440677966102,34.93986666666667,12.203389830508474,34.8476C13.220338983050846,34.75533333333333,14.23728813559322,34.6618,15.254237288135592,34.568C16.271186440677965,34.474199999999996,17.28813559322034,34.385266666666666,18.305084745762713,34.2848C19.322033898305087,34.18433333333333,20.338983050847457,34.0736,21.35593220338983,33.965199999999996C22.372881355932204,33.85679999999999,23.389830508474574,33.748333333333335,24.406779661016948,33.6344C25.423728813559322,33.520466666666664,26.440677966101696,33.40206666666666,27.45762711864407,33.2816C28.47457627118644,33.16113333333333,29.491525423728813,33.03973333333333,30.508474576271183,32.9116C31.525423728813557,32.78346666666667,32.54237288135593,32.64753333333333,33.559322033898304,32.5128C34.57627118644068,32.37806666666667,35.59322033898305,32.2438,36.610169491525426,32.1032C37.6271186440678,31.962600000000002,38.644067796610166,31.813333333333336,39.66101694915254,31.669200000000004C40.67796610169491,31.52506666666667,41.69491525423729,31.3876,42.71186440677966,31.2384C43.728813559322035,31.089199999999998,44.7457627118644,30.930266666666668,45.762711864406775,30.774C46.77966101694915,30.617733333333334,47.79661016949152,30.461266666666667,48.813559322033896,30.3008C49.83050847457627,30.14033333333333,50.847457627118644,29.973599999999998,51.86440677966102,29.8112C52.88135593220339,29.6488,53.898305084745765,29.487733333333335,54.91525423728814,29.3264C55.93220338983051,29.165066666666664,56.94915254237288,29.002266666666664,57.96610169491525,28.843199999999996C58.983050847457626,28.684133333333328,59.99999999999999,28.529,61.01694915254237,28.372C62.03389830508474,28.215,63.05084745762712,28.0552,64.0677966101695,27.9012C65.08474576271186,27.7472,66.10169491525424,27.59993333333333,67.11864406779661,27.447999999999997C68.13559322033899,27.296066666666665,69.15254237288136,27.142866666666666,70.16949152542374,26.9896C71.1864406779661,26.836333333333336,72.20338983050848,26.68133333333334,73.22033898305085,26.528400000000005C74.23728813559322,26.37546666666667,75.2542372881356,26.224666666666664,76.27118644067797,26.071999999999996C77.28813559322033,25.919333333333327,78.30508474576271,25.764799999999997,79.32203389830508,25.612399999999997C80.33898305084746,25.459999999999997,81.35593220338983,25.308733333333336,82.37288135593221,25.157600000000002C83.38983050847457,25.006466666666668,84.40677966101696,24.855666666666664,85.42372881355932,24.705599999999997C86.4406779661017,24.55553333333333,87.45762711864407,24.40066666666667,88.47457627118645,24.2572C89.49152542372882,24.113733333333336,90.50847457627118,23.977666666666664,91.52542372881355,23.8448C92.54237288135593,23.71193333333333,93.55932203389831,23.584600000000002,94.57627118644069,23.46C95.59322033898306,23.335400000000003,96.61016949152543,23.215533333333333,97.62711864406779,23.0972C98.64406779661016,22.97886666666667,99.66101694915254,22.860666666666667,100.6779661016949,22.75C101.69491525423729,22.639333333333333,102.71186440677965,22.532866666666667,103.72881355932203,22.4332C104.7457627118644,22.33353333333333,105.76271186440678,22.2424,106.77966101694915,22.152C107.79661016949153,22.061600000000002,108.8135593220339,21.975733333333334,109.83050847457628,21.8908C110.84745762711864,21.805866666666667,111.86440677966102,21.722666666666665,112.88135593220339,21.6424C113.89830508474576,21.562133333333332,114.91525423728814,21.484466666666663,115.9322033898305,21.4092C116.94915254237289,21.33393333333333,117.96610169491525,21.262600000000003,118.98305084745763,21.190800000000003C120,21.119000000000003,121.01694915254237,21.048,122.03389830508473,20.978399999999997C123.05084745762711,20.908799999999996,124.0677966101695,20.842133333333337,125.08474576271188,20.773200000000003C126.10169491525424,20.70426666666667,127.11864406779662,20.633733333333335,128.135593220339,20.5648C129.15254237288136,20.495866666666668,130.16949152542372,20.429000000000002,131.1864406779661,20.3596C132.20338983050846,20.2902,133.22033898305085,20.220066666666664,134.23728813559322,20.1484C135.25423728813558,20.076733333333333,136.27118644067798,20.002533333333332,137.28813559322035,19.9296C138.3050847457627,19.85666666666667,139.3220338983051,19.78466666666667,140.33898305084747,19.710800000000003C141.35593220338984,19.636933333333335,142.3728813559322,19.56386666666667,143.38983050847457,19.486400000000003C144.40677966101694,19.408933333333337,145.42372881355934,19.3272,146.4406779661017,19.246C147.45762711864407,19.1648,148.47457627118644,19.082666666666665,149.4915254237288,18.9992C150.50847457627117,18.915733333333332,151.52542372881356,18.831400000000002,152.54237288135593,18.7452C153.5593220338983,18.659,154.5762711864407,18.570533333333334,155.59322033898306,18.482C156.61016949152543,18.393466666666665,157.6271186440678,18.30666666666667,158.64406779661016,18.214000000000002C159.66101694915253,18.121333333333336,160.67796610169492,18.024866666666668,161.6949152542373,17.926000000000002C162.71186440677965,17.827133333333336,163.72881355932205,17.724000000000004,164.74576271186442,17.620800000000003C165.76271186440678,17.5176,166.77966101694915,17.415866666666666,167.79661016949152,17.3068C168.81355932203388,17.197733333333332,169.83050847457628,17.0834,170.84745762711864,16.9664C171.864406779661,16.8494,172.8813559322034,16.729200000000002,173.89830508474577,16.6048C174.91525423728814,16.4804,175.93220338983053,16.3542,176.9491525423729,16.22C177.96610169491527,16.0858,178.98305084745763,15.942699999999999,180,15.799599999999998L180,40C178.98305084745763,40,177.96610169491527,40,176.9491525423729,40C175.93220338983053,40,174.91525423728814,40,173.89830508474577,40C172.8813559322034,40,171.864406779661,40,170.84745762711864,40C169.83050847457628,40,168.81355932203388,40,167.79661016949152,40C166.77966101694915,40,165.76271186440678,40,164.74576271186442,40C163.72881355932205,40,162.71186440677965,40,161.6949152542373,40C160.67796610169492,40,159.66101694915253,40,158.64406779661016,40C157.6271186440678,40,156.61016949152543,40,155.59322033898306,40C154.5762711864407,40,153.5593220338983,40,152.54237288135593,40C151.52542372881356,40,150.50847457627117,40,149.4915254237288,40C148.47457627118644,40,147.45762711864407,40,146.4406779661017,40C145.42372881355934,40,144.40677966101694,40,143.38983050847457,40C142.3728813559322,40,141.35593220338984,40,140.33898305084747,40C139.3220338983051,40,138.3050847457627,40,137.28813559322035,40C136.27118644067798,40,135.25423728813558,40,134.23728813559322,40C133.22033898305085,40,132.20338983050846,40,131.1864406779661,40C130.16949152542372,40,129.15254237288136,40,128.135593220339,40C127.11864406779662,40,126.10169491525424,40,125.08474576271188,40C124.0677966101695,40,123.05084745762711,40,122.03389830508473,40C121.01694915254237,40,120,40,118.98305084745763,40C117.96610169491525,40,116.94915254237289,40,115.9322033898305,40C114.91525423728814,40,113.89830508474576,40,112.88135593220339,40C111.86440677966102,40,110.84745762711864,40,109.83050847457628,40C108.8135593220339,40,107.79661016949153,40,106.77966101694915,40C105.76271186440678,40,104.7457627118644,40,103.72881355932203,40C102.71186440677965,40,101.69491525423729,40,100.6779661016949,40C99.66101694915254,40,98.64406779661016,40,97.62711864406779,40C96.61016949152543,40,95.59322033898306,40,94.57627118644069,40C93.55932203389831,40,92.54237288135593,40,91.52542372881355,40C90.50847457627118,40,89.49152542372882,40,88.47457627118645,40C87.45762711864407,40,86.4406779661017,40,85.42372881355932,40C84.40677966101696,40,83.38983050847457,40,82.37288135593221,40C81.35593220338983,40,80.33898305084746,40,79.32203389830508,40C78.30508474576271,40,77.28813559322033,40,76.27118644067797,40C75.2542372881356,40,74.23728813559322,40,73.22033898305085,40C72.20338983050848,40,71.1864406779661,40,70.16949152542374,40C69.15254237288136,40,68.13559322033899,40,67.11864406779661,40C66.10169491525424,40,65.08474576271186,40,64.0677966101695,40C63.05084745762712,40,62.03389830508474,40,61.01694915254237,40C59.99999999999999,40,58.983050847457626,40,57.96610169491525,40C56.94915254237288,40,55.93220338983051,40,54.91525423728814,40C53.898305084745765,40,52.88135593220339,40,51.86440677966102,40C50.847457627118644,40,49.83050847457627,40,48.813559322033896,40C47.79661016949152,40,46.77966101694915,40,45.762711864406775,40C44.7457627118644,40,43.728813559322035,40,42.71186440677966,40C41.69491525423729,40,40.67796610169491,40,39.66101694915254,40C38.644067796610166,40,37.6271186440678,40,36.610169491525426,40C35.59322033898305,40,34.57627118644068,40,33.559322033898304,40C32.54237288135593,40,31.525423728813557,40,30.508474576271183,40C29.491525423728813,40,28.47457627118644,40,27.45762711864407,40C26.440677966101696,40,25.423728813559322,40,24.406779661016948,40C23.389830508474574,40,22.372881355932204,40,21.35593220338983,40C20.338983050847457,40,19.322033898305087,40,18.305084745762713,40C17.28813559322034,40,16.271186440677965,40,15.254237288135592,40C14.23728813559322,40,13.220338983050846,40,12.203389830508474,40C11.186440677966102,40,10.169491525423728,40,9.152542372881356,40C8.135593220338983,40,7.11864406779661,40,6.101694915254237,40C5.084745762711864,40,4.067796610169491,40,3.0508474576271185,40C2.0338983050847457,40,1.0169491525423728,40,0,40Z"></path><path class="line" stroke="black" fill="none" d="M0,35.8468C1.0169491525423728,35.773,2.0338983050847457,35.6992,3.0508474576271185,35.622C4.067796610169491,35.5448,5.084745762711864,35.467,6.101694915254237,35.3836C7.11864406779661,35.300200000000004,8.135593220338983,35.21093333333334,9.152542372881356,35.1216C10.169491525423728,35.032266666666665,11.186440677966102,34.93986666666667,12.203389830508474,34.8476C13.220338983050846,34.75533333333333,14.23728813559322,34.6618,15.254237288135592,34.568C16.271186440677965,34.474199999999996,17.28813559322034,34.385266666666666,18.305084745762713,34.2848C19.322033898305087,34.18433333333333,20.338983050847457,34.0736,21.35593220338983,33.965199999999996C22.372881355932204,33.85679999999999,23.389830508474574,33.748333333333335,24.406779661016948,33.6344C25.423728813559322,33.520466666666664,26.440677966101696,33.40206666666666,27.45762711864407,33.2816C28.47457627118644,33.16113333333333,29.491525423728813,33.03973333333333,30.508474576271183,32.9116C31.525423728813557,32.78346666666667,32.54237288135593,32.64753333333333,33.559322033898304,32.5128C34.57627118644068,32.37806666666667,35.59322033898305,32.2438,36.610169491525426,32.1032C37.6271186440678,31.962600000000002,38.644067796610166,31.813333333333336,39.66101694915254,31.669200000000004C40.67796610169491,31.52506666666667,41.69491525423729,31.3876,42.71186440677966,31.2384C43.728813559322035,31.089199999999998,44.7457627118644,30.930266666666668,45.762711864406775,30.774C46.77966101694915,30.617733333333334,47.79661016949152,30.461266666666667,48.813559322033896,30.3008C49.83050847457627,30.14033333333333,50.847457627118644,29.973599999999998,51.86440677966102,29.8112C52.88135593220339,29.6488,53.898305084745765,29.487733333333335,54.91525423728814,29.3264C55.93220338983051,29.165066666666664,56.94915254237288,29.002266666666664,57.96610169491525,28.843199999999996C58.983050847457626,28.684133333333328,59.99999999999999,28.529,61.01694915254237,28.372C62.03389830508474,28.215,63.05084745762712,28.0552,64.0677966101695,27.9012C65.08474576271186,27.7472,66.10169491525424,27.59993333333333,67.11864406779661,27.447999999999997C68.13559322033899,27.296066666666665,69.15254237288136,27.142866666666666,70.16949152542374,26.9896C71.1864406779661,26.836333333333336,72.20338983050848,26.68133333333334,73.22033898305085,26.528400000000005C74.23728813559322,26.37546666666667,75.2542372881356,26.224666666666664,76.27118644067797,26.071999999999996C77.28813559322033,25.919333333333327,78.30508474576271,25.764799999999997,79.32203389830508,25.612399999999997C80.33898305084746,25.459999999999997,81.35593220338983,25.308733333333336,82.37288135593221,25.157600000000002C83.38983050847457,25.006466666666668,84.40677966101696,24.855666666666664,85.42372881355932,24.705599999999997C86.4406779661017,24.55553333333333,87.45762711864407,24.40066666666667,88.47457627118645,24.2572C89.49152542372882,24.113733333333336,90.50847457627118,23.977666666666664,91.52542372881355,23.8448C92.54237288135593,23.71193333333333,93.55932203389831,23.584600000000002,94.57627118644069,23.46C95.59322033898306,23.335400000000003,96.61016949152543,23.215533333333333,97.62711864406779,23.0972C98.64406779661016,22.97886666666667,99.66101694915254,22.860666666666667,100.6779661016949,22.75C101.69491525423729,22.639333333333333,102.71186440677965,22.532866666666667,103.72881355932203,22.4332C104.7457627118644,22.33353333333333,105.76271186440678,22.2424,106.77966101694915,22.152C107.79661016949153,22.061600000000002,108.8135593220339,21.975733333333334,109.83050847457628,21.8908C110.84745762711864,21.805866666666667,111.86440677966102,21.722666666666665,112.88135593220339,21.6424C113.89830508474576,21.562133333333332,114.91525423728814,21.484466666666663,115.9322033898305,21.4092C116.94915254237289,21.33393333333333,117.96610169491525,21.262600000000003,118.98305084745763,21.190800000000003C120,21.119000000000003,121.01694915254237,21.048,122.03389830508473,20.978399999999997C123.05084745762711,20.908799999999996,124.0677966101695,20.842133333333337,125.08474576271188,20.773200000000003C126.10169491525424,20.70426666666667,127.11864406779662,20.633733333333335,128.135593220339,20.5648C129.15254237288136,20.495866666666668,130.16949152542372,20.429000000000002,131.1864406779661,20.3596C132.20338983050846,20.2902,133.22033898305085,20.220066666666664,134.23728813559322,20.1484C135.25423728813558,20.076733333333333,136.27118644067798,20.002533333333332,137.28813559322035,19.9296C138.3050847457627,19.85666666666667,139.3220338983051,19.78466666666667,140.33898305084747,19.710800000000003C141.35593220338984,19.636933333333335,142.3728813559322,19.56386666666667,143.38983050847457,19.486400000000003C144.40677966101694,19.408933333333337,145.42372881355934,19.3272,146.4406779661017,19.246C147.45762711864407,19.1648,148.47457627118644,19.082666666666665,149.4915254237288,18.9992C150.50847457627117,18.915733333333332,151.52542372881356,18.831400000000002,152.54237288135593,18.7452C153.5593220338983,18.659,154.5762711864407,18.570533333333334,155.59322033898306,18.482C156.61016949152543,18.393466666666665,157.6271186440678,18.30666666666667,158.64406779661016,18.214000000000002C159.66101694915253,18.121333333333336,160.67796610169492,18.024866666666668,161.6949152542373,17.926000000000002C162.71186440677965,17.827133333333336,163.72881355932205,17.724000000000004,164.74576271186442,17.620800000000003C165.76271186440678,17.5176,166.77966101694915,17.415866666666666,167.79661016949152,17.3068C168.81355932203388,17.197733333333332,169.83050847457628,17.0834,170.84745762711864,16.9664C171.864406779661,16.8494,172.8813559322034,16.729200000000002,173.89830508474577,16.6048C174.91525423728814,16.4804,175.93220338983053,16.3542,176.9491525423729,16.22C177.96610169491527,16.0858,178.98305084745763,15.942699999999999,180,15.799599999999998"></path><path class="axis-ceiling" stroke-width="1" stroke="black" fill="none" d="M175,0L180,0"></path><text class="axis-ceiling-label" font-family="sans-serif" text-anchor="end" font-size="10px" x="170" y="2.5">100000</text></g></svg>