<svg xmlns="http://www.w3.org/2000/svg" viewBox="0 0 180 60"><g transform="translate(0,20)"><path class="area" fill="rgba(0, 0, 0, 0.2)" d="M0,21.146666666666665C1.0169491525423728,20.16,2.0338983050847457,19.173333333333336,3.0508474576271185,18.693333333333335C4.067796610169491,18.213333333333335,5.084745762711864,18.342222222222226,6.101694915254237,17.973333333333336C7.11864406779661,17.604444444444447,8.135593220338983,16.915555555555557,9.152542372881356,16.48C10.169491525423728,16.044444444444444,11.186440677966102,15.87111111111111,12.203389830508474,15.36C13.220338983050846,14.848888888888888,14.23728813559322,13.853333333333333,15.254237288135592,13.413333333333334C16.271186440677965,12.973333333333333,17.28813559322034,13.106666666666666,18.305084745762713,12.719999999999999C19.322033898305087,12.333333333333332,20.338983050847457,11.093333333333334,21.35593220338983,11.093333333333334C22.372881355932204,11.093333333333334,23.389830508474574,11.280000000000001,24.406779661016948,11.280000000000001C25.423728813559322,11.280000000000001,26.440677966101696,9.43111111111111,27.45762711864407,9.04C28.47457627118644,8.648888888888889,29.491525423728813,8.72888888888889,30.508474576271183,8.453333333333335C31.525423728813557,8.177777777777779,32.54237288135593,7.386666666666666,33.559322033898304,7.386666666666666C34.57627118644068,7.386666666666666,35.59322033898305,7.608888888888886,36.610169491525426,7.679999999999998C37.6271186440678,7.7511111111111095,38.644067796610166,7.724444444444443,39.66101694915254,7.813333333333334C40.67796610169491,7.902222222222226,41.69491525423729,8.613333333333335,42.71186440677966,8.613333333333335C43.728813559322035,8.613333333333335,44.7457627118644,8.613333333333335,45.762711864406775,8.613333333333335C46.77966101694915,8.613333333333335,47.79661016949152,9.786666666666669,48.813559322033896,9.786666666666669C49.83050847457627,9.786666666666669,50.847457627118644,9.524444444444445,51.86440677966102,9.44C52.88135593220339,9.355555555555554,53.898305084745765,9.28,54.91525423728814,9.28C55.93220338983051,9.28,56.94915254237288,9.57333333333333,57.96610169491525,9.57333333333333C58.983050847457626,9.57333333333333,59.99999999999999,9.386666666666667,61.01694915254237,9.386666666666667C62.03389830508474,9.386666666666667,63.05084745762712,9.6,64.0677966101695,9.68C65.08474576271186,9.76,66.10169491525424,9.791111111111112,67.11864406779661,9.866666666666667C68.13559322033899,9.942222222222222,69.15254237288136,9.955555555555556,70.16949152542374,10.133333333333333C71.1864406779661,10.31111111111111,72.20338983050848,11.799999999999999,73.22033898305085,12.506666666666666C74.23728813559322,13.213333333333333,75.2542372881356,13.822222222222221,76.27118644067797,14.373333333333331C77.28813559322033,14.924444444444442,78.30508474576271,15.4,79.32203389830508,15.813333333333333C80.33898305084746,16.226666666666667,81.35593220338983,16.337777777777774,82.37288135593221,16.85333333333333C83.38983050847457,17.368888888888886,84.40677966101696,18.173333333333336,85.42372881355932,18.906666666666666C86.4406779661017,19.64,87.45762711864407,20.635555555555555,88.47457627118645,21.253333333333334C89.49152542372882,21.87111111111111,90.50847457627118,22.24888888888889,91.52542372881355,22.613333333333333C92.54237288135593,22.97777777777778,93.55932203389831,23.133333333333336,94.57627118644069,23.440000000000005C95.59322033898306,23.74666666666667,96.61016949152543,24.12,97.62711864406779,24.453333333333333C98.64406779661016,24.786666666666665,99.66101694915254,25.204444444444444,100.6779661016949,25.44C101.69491525423729,25.675555555555558,102.71186440677965,25.715555555555554,103.72881355932203,25.866666666666667C104.7457627118644,26.017777777777777,105.76271186440678,26.34666666666667,106.77966101694915,26.34666666666667C107.79661016949153,26.34666666666667,108.8135593220339,26.10666666666667,109.83050847457628,26.10666666666667C110.84745762711864,26.10666666666667,111.86440677966102,26.34666666666667,112.88135593220339,26.34666666666667C113.89830508474576,26.34666666666667,114.91525423728814,26.075555555555557,115.9322033898305,25.92C116.94915254237289,25.764444444444447,117.96610169491525,25.413333333333334,118.98305084745763,25.413333333333334C120,25.413333333333334,121.01694915254237,25.44,122.03389830508473,25.44C123.05084745762711,25.44,124.0677966101695,25.311111111111117,125.08474576271188,25.06666666666667C126.10169491525424,24.822222222222226,127.11864406779662,24.222222222222218,128.135593220339,23.97333333333333C129.15254237288136,23.72444444444444,130.16949152542372,23.72444444444444,131.1864406779661,23.57333333333333C132.20338983050846,23.42222222222222,133.22033898305085,23.24888888888889,134.23728813559322,23.066666666666666C135.25423728813558,22.884444444444444,136.27118644067798,22.63555555555556,137.28813559322035,22.480000000000004C138.3050847457627,22.32444444444445,139.3220338983051,22.364444444444448,140.33898305084747,22.133333333333333C141.35593220338984,21.90222222222222,142.3728813559322,21.20888888888889,143.38983050847457,20.8C144.40677966101694,20.39111111111111,145.42372881355934,19.96888888888889,146.4406779661017,19.68C147.45762711864407,19.391111111111112,148.47457627118644,19.46222222222222,149.4915254237288,19.066666666666666C150.50847457627117,18.67111111111111,151.52542372881356,17.835555555555555,152.54237288135593,17.306666666666665C153.5593220338983,16.777777777777775,154.5762711864407,16.382222222222225,155.59322033898306,15.893333333333333C156.61016949152543,15.404444444444445,157.6271186440678,15.02666666666666,158.64406779661016,14.373333333333331C159.66101694915253,13.719999999999997,160.67796610169492,12.622222222222222,161.6949152542373,11.973333333333333C162.71186440677965,11.324444444444444,163.72881355932205,10.888888888888891,164.74576271186442,10.48C165.76271186440678,10.071111111111115,166.77966101694915,9.982222222222218,167.79661016949152,9.52C168.81355932203388,9.057777777777776,169.83050847457628,8.115555555555556,170.84745762711864,7.706666666666666C171.864406779661,7.297777777777777,172.8813559322034,7.453333333333331,173.89830508474577,7.0666666666666655C174.91525423728814,6.68,175.93220338983053,5.937777777777782,176.9491525423729,5.3866666666666685C177.96610169491527,4.83555555555556,178.98305084745763,4.29777777777778,180,3.759999999999999L180,40C178.98305084745763,40,177.96610169491527,40,176.9491525423729,40C175.93220338983053,40,174.91525423728814,40,173.89830508474577,40C172.8813559322034,40,171.864406779661,40,170.84745762711864,40C169.83050847457628,40,168.81355932203388,40,167.79661016949152,40C166.77966101694915,40,165.76271186440678,40,164.74576271186442,40C163.72881355932205,40,162.71186440677965,40,161.6949152542373,40C160.67796610169492,40,159.66101694915253,40,158.64406779661016,40C157.6271186440678,40,156.61016949152543,40,155.59322033898306,40C154.5762711864407,40,153.5593220338983,40,152.54237288135593,40C151.52542372881356,40,150.50847457627117,40,149.4915254237288,40C148.47457627118644,40,147.45762711864407,40,146.4406779661017,40C145.42372881355934,40,144.40677966101694,40,143.38983050847457,40C142.3728813559322,40,141.35593220338984,40,140.33898305084747,40C139.3220338983051,40,138.3050847457627,40,137.28813559322035,40C136.27118644067798,40,135.25423728813558,40,134.23728813559322,40C133.22033898305085,40,132.20338983050846,40,131.1864406779661,40C130.16949152542372,40,129.15254237288136,40,128.135593220339,40C127.11864406779662,40,126.10169491525424,40,125.08474576271188,40C124.0677966101695,40,123.05084745762711,40,122.03389830508473,40C121.01694915254237,40,120,40,118.98305084745763,40C117.96610169491525,40,116.94915254237289,40,115.9322033898305,40C114.91525423728814,40,113.89830508474576,40,112.88135593220339,40C111.86440677966102,40,110.84745762711864,40,109.83050847457628,40C108.8135593220339,40,107.79661016949153,40,106.77966101694915,40C105.76271186440678,40,104.7457627118644,40,103.72881355932203,40C102.71186440677965,40,101.69491525423729,40,100.6779661016949,40C99.66101694915254,40,98.64406779661016,40,97.62711864406779,40C96.61016949152543,40,95.59322033898306,40,94.57627118644069,40C93.55932203389831,40,92.54237288135593,40,91.52542372881355,40C90.50847457627118,40,89.49152542372882,40,88.47457627118645,40C87.45762711864407,40,86.4406779661017,40,85.42372881355932,40C84.40677966101696,40,83.38983050847457,40,82.37288135593221,40C81.35593220338983,40,80.33898305084746,40,79.32203389830508,40C78.30508474576271,40,77.28813559322033,40,76.27118644067797,40C75.2542372881356,40,74.23728813559322,40,73.22033898305085,40C72.20338983050848,40,71.1864406779661,40,70.16949152542374,40C69.15254237288136,40,68.13559322033899,40,67.11864406779661,40C66.10169491525424,40,65.08474576271186,40,64.0677966101695,40C63.05084745762712,40,62.03389830508474,40,61.01694915254237,40C59.99999999999999,40,58.983050847457626,40,57.96610169491525,40C56.94915254237288,40,55.93220338983051,40,54.91525423728814,40C53.898305084745765,40,52.88135593220339,40,51.86440677966102,40C50.847457627118644,40,49.83050847457627,40,48.813559322033896,40C47.79661016949152,40,46.77966101694915,40,45.762711864406775,40C44.7457627118644,40,43.728813559322035,40,42.71186440677966,40C41.69491525423729,40,40.67796610169491,40,39.66101694915254,40C38.644067796610166,40,37.6271186440678,40,36.610169491525426,40C35.59322033898305,40,34.57627118644068,40,33.559322033898304,40C32.54237288135593,40,31.525423728813557,40,30.508474576271183,40C29.491525423728813,40,28.47457627118644,40,27.45762711864407,40C26.440677966101696,40,25.423728813559322,40,24.406779661016948,40C23.389830508474574,40,22.372881355932204,40,21.35593220338983,40C20.338983050847457,40,19.322033898305087,40,18.305084745762713,40C17.28813559322034,40,16.271186440677965,40,15.254237288135592,40C14.23728813559322,40,13.220338983050846,40,12.203389830508474,40C11.186440677966102,40,10.169491525423728,40,9.152542372881356,40C8.135593220338983,40,7.11864406779661,40,6.101694915254237,40C5.084745762711864,40,4.067796610169491,40,3.0508474576271185,40C2.0338983050847457,40,1.0169491525423728,40,0,40Z"></path><path class="line" stroke="black" fill="none" d="M0,21.146666666666665C1.0169491525423728,20.16,2.0338983050847457,19.173333333333336,3.0508474576271185,18.693333333333335C4.067796610169491,18.213333333333335,5.084745762711864,18.342222222222226,6.101694915254237,17.973333333333336C7.11864406779661,17.604444444444447,8.135593220338983,16.915555555555557,9.152542372881356,16.48C10.169491525423728,16.044444444444444,11.186440677966102,15.87111111111111,12.203389830508474,15.36C13.220338983050846,14.848888888888888,14.23728813559322,13.853333333333333,15.254237288135592,13.413333333333334C16.271186440677965,12.973333333333333,17.28813559322034,13.106666666666666,18.305084745762713,12.719999999999999C19.322033898305087,12.333333333333332,20.338983050847457,11.093333333333334,21.35593220338983,11.093333333333334C22.372881355932204,11.093333333333334,23.389830508474574,11.280000000000001,24.406779661016948,11.280000000000001C25.423728813559322,11.280000000000001,26.440677966101696,9.43111111111111,27.45762711864407,9.04C28.47457627118644,8.648888888888889,29.491525423728813,8.72888888888889,30.508474576271183,8.453333333333335C31.525423728813557,8.177777777777779,32.54237288135593,7.386666666666666,33.559322033898304,7.386666666666666C34.57627118644068,7.386666666666666,35.59322033898305,7.608888888888886,36.610169491525426,7.679999999999998C37.6271186440678,7.7511111111111095,38.644067796610166,7.724444444444443,39.66101694915254,7.813333333333334C40.67796610169491,7.902222222222226,41.69491525423729,8.613333333333335,42.71186440677966,8.613333333333335C43.728813559322035,8.613333333333335,44.7457627118644,8.613333333333335,45.762711864406775,8.613333333333335C46.77966101694915,8.613333333333335,47.79661016949152,9.786666666666669,48.813559322033896,9.786666666666669C49.83050847457627,9.786666666666669,50.847457627118644,9.524444444444445,51.86440677966102,9.44C52.88135593220339,9.355555555555554,53.898305084745765,9.28,54.91525423728814,9.28C55.93220338983051,9.28,56.94915254237288,9.57333333333333,57.96610169491525,9.57333333333333C58.983050847457626,9.57333333333333,59.99999999999999,9.386666666666667,61.01694915254237,9.386666666666667C62.03389830508474,9.386666666666667,63.05084745762712,9.6,64.0677966101695,9.68C65.08474576271186,9.76,66.10169491525424,9.791111111111112,67.11864406779661,9.866666666666667C68.13559322033899,9.942222222222222,69.15254237288136,9.955555555555556,70.16949152542374,10.133333333333333C71.1864406779661,10.31111111111111,72.20338983050848,11.799999999999999,73.22033898305085,12.506666666666666C74.23728813559322,13.213333333333333,75.2542372881356,13.822222222222221,76.27118644067797,14.373333333333331C77.28813559322033,14.924444444444442,78.30508474576271,15.4,79.32203389830508,15.813333333333333C80.33898305084746,16.226666666666667,81.35593220338983,16.337777777777774,82.37288135593221,16.85333333333333C83.38983050847457,17.368888888888886,84.40677966101696,18.173333333333336,85.42372881355932,18.906666666666666C86.4406779661017,19.64,87.45762711864407,20.635555555555555,88.47457627118645,21.253333333333334C89.49152542372882,21.87111111111111,90.50847457627118,22.24888888888889,91.52542372881355,22.613333333333333C92.54237288135593,22.97777777777778,93.55932203389831,23.133333333333336,94.57627118644069,23.440000000000005C95.59322033898306,23.74666666666667,96.61016949152543,24.12,97.62711864406779,24.453333333333333C98.64406779661016,24.786666666666665,99.66101694915254,25.204444444444444,100.6779661016949,25.44C101.69491525423729,25.675555555555558,102.71186440677965,25.715555555555554,103.72881355932203,25.866666666666667C104.7457627118644,26.017777777777777,105.76271186440678,26.34666666666667,106.77966101694915,26.34666666666667C107.79661016949153,26.34666666666667,108.8135593220339,26.10666666666667,109.83050847457628,26.10666666666667C110.84745762711864,26.10666666666667,111.86440677966102,26.34666666666667,112.88135593220339,26.34666666666667C113.89830508474576,26.34666666666667,114.91525423728814,26.075555555555557,115.9322033898305,25.92C116.94915254237289,25.764444444444447,117.96610169491525,25.413333333333334,118.98305084745763,25.413333333333334C120,25.413333333333334,121.01694915254237,25.44,122.03389830508473,25.44C123.05084745762711,25.44,124.0677966101695,25.311111111111117,125.08474576271188,25.06666666666667C126.10169491525424,24.822222222222226,127.11864406779662,24.222222222222218,128.135593220339,23.97333333333333C129.15254237288136,23.72444444444444,130.16949152542372,23.72444444444444,131.1864406779661,23.57333333333333C132.20338983050846,23.42222222222222,133.22033898305085,23.24888888888889,134.23728813559322,23.066666666666666C135.25423728813558,22.884444444444444,136.27118644067798,22.63555555555556,137.28813559322035,22.480000000000004C138.3050847457627,22.32444444444445,139.3220338983051,22.364444444444448,140.33898305084747,22.133333333333333C141.35593220338984,21.90222222222222,142.3728813559322,21.20888888888889,143.38983050847457,20.8C144.40677966101694,20.39111111111111,145.42372881355934,19.96888888888889,146.4406779661017,19.68C147.45762711864407,19.391111111111112,148.47457627118644,19.46222222222222,149.4915254237288,19.066666666666666C150.50847457627117,18.67111111111111,151.52542372881356,17.835555555555555,152.54237288135593,17.306666666666665C153.5593220338983,16.777777777777775,154.5762711864407,16.382222222222225,155.59322033898306,15.893333333333333C156.61016949152543,15.404444444444445,157.6271186440678,15.02666666666666,158.64406779661016,14.373333333333331C159.66101694915253,13.719999999999997,160.67796610169492,12.622222222222222,161.6949152542373,11.973333333333333C162.71186440677965,11.324444444444444,163.72881355932205,10.888888888888891,164.74576271186442,10.48C165.76271186440678,10.071111111111115,166.77966101694915,9.982222222222218,167.79661016949152,9.52C168.81355932203388,9.057777777777776,169.83050847457628,8.115555555555556,170.84745762711864,7.706666666666666C171.864406779661,7.297777777777777,172.8813559322034,7.453333333333331,173.89830508474577,7.0666666666666655C174.91525423728814,6.68,175.93220338983053,5.937777777777782,176.9491525423729,5.3866666666666685C177.96610169491527,4.83555555555556,178.98305084745763,4.29777777777778,180,3.759999999999999"></path><path class="axis-ceiling" stroke-width="1" stroke="black" fill="none" d="M175,0L180,0"></path><text class="axis-ceiling-label" font-family="sans-serif" text-anchor="end" font-size="10px" x="170" y="2.5">1500</text></g></svg>