<svg xmlns="http://www.w3.org/2000/svg" viewBox="0 0 180 60"><g transform="translate(0,20)"><path class="area" fill="rgba(0, 0, 0, 0.2)" d="M0,40C1.3636363636363635,40,2.7272727272727275,40,4.090909090909091,40C4.318181818181818,40,4.545454545454545,40,4.7727272727272725,40C5,40,5.2272727272727275,40,5.454545454545455,40C59.318181818181806,40,113.18181818181819,38.857142857142854,167.04545454545453,38.857142857142854C167.27272727272725,38.857142857142854,167.5,38.857142857142854,167.72727272727272,38.857142857142854C167.95454545454544,38.857142857142854,168.1818181818182,38.857142857142854,168.4090909090909,38.857142857142854C168.63636363636363,38.857142857142854,168.86363636363637,37.714285714285715,169.0909090909091,37.714285714285715C169.3181818181818,37.714285714285715,169.54545454545456,37.714285714285715,169.77272727272728,37.714285714285715C170.22727272727275,37.714285714285715,170.6818181818182,37.714285714285715,171.13636363636365,37.714285714285715C171.36363636363637,37.714285714285715,171.5909090909091,37.714285714285715,171.8181818181818,37.714285714285715C172.04545454545453,37.714285714285715,172.27272727272728,34.095238095238095,172.5,32C172.72727272727272,29.904761904761905,172.95454545454547,27.238095238095237,173.1818181818182,25.142857142857142C173.4090909090909,23.047619047619047,173.63636363636365,20.952380952380956,173.86363636363637,19.42857142857143C174.0909090909091,17.904761904761905,174.31818181818184,17.714285714285776,174.54545454545456,16C174.77272727272728,14.285714285714297,175,9.904761904761873,175.22727272727272,9.142857142857142C175.45454545454544,8.38095238095238,175.6818181818182,8.761904761904761,175.9090909090909,7.999999999999998C176.13636363636363,7.2380952380952355,176.36363636363637,3.4285714285714297,176.5909090909091,3.4285714285714297C176.8181818181818,3.4285714285714297,177.04545454545456,3.4285714285714297,177.27272727272728,3.4285714285714297C177.5,3.4285714285714297,177.72727272727275,7.809523809523806,177.95454545454547,9.142857142857142C178.1818181818182,10.476190476190423,178.4090909090909,11.428571428571427,178.63636363636363,11.428571428571427C178.86363636363635,11.428571428571427,179.0909090909091,11.428571428571427,179.3181818181818,11.428571428571427C179.54545454545453,11.428571428571427,179.77272727272728,13.714285714285714,180,16L180,40C179.77272727272728,40,179.54545454545453,40,179.3181818181818,40C179.0909090909091,40,178.86363636363635,40,178.63636363636363,40C178.4090909090909,40,178.1818181818182,40,177.95454545454547,40C177.72727272727275,40,177.5,40,177.27272727272728,40C177.04545454545456,40,176.8181818181818,40,176.5909090909091,40C176.36363636363637,40,176.13636363636363,40,175.9090909090909,40C175.6818181818182,40,175.45454545454544,40,175.22727272727272,40C175,40,174.77272727272728,40,174.54545454545456,40C174.31818181818184,40,174.0909090909091,40,173.86363636363637,40C173.63636363636365,40,173.4090909090909,40,173.1818181818182,40C172.95454545454547,40,172.72727272727272,40,172.5,40C172.27272727272728,40,172.04545454545453,40,171.8181818181818,40C171.5909090909091,40,171.36363636363637,40,171.13636363636365,40C170.6818181818182,40,170.22727272727275,40,169.77272727272728,40C169.54545454545456,40,169.3181818181818,40,169.0909090909091,40C168.86363636363637,40,168.63636363636363,40,168.4090909090909,40C168.1818181818182,40,167.95454545454544,40,167.72727272727272,40C167.5,40,167.27272727272725,40,167.04545454545453,40C113.18181818181819,40,59.318181818181806,40,5.454545454545455,40C5.2272727272727275,40,5,40,4.7727272727272725,40C4.545454545454545,40,4.318181818181818,40,4.090909090909091,40C2.7272727272727275,40,1.3636363636363635,40,0,40Z"></path><path class="line" stroke="black" fill="none" d="M0,40C1.3636363636363635,40,2.7272727272727275,40,4.090909090909091,40C4.318181818181818,40,4.545454545454545,40,4.7727272727272725,40C5,40,5.2272727272727275,40,5.454545454545455,40C59.318181818181806,40,113.18181818181819,38.857142857142854,167.04545454545453,38.857142857142854C167.27272727272725,38.857142857142854,167.5,38.857142857142854,167.72727272727272,38.857142857142854C167.95454545454544,38.857142857142854,168.1818181818182,38.857142857142854,168.4090909090909,38.857142857142854C168.63636363636363,38.857142857142854,168.86363636363637,37.714285714285715,169.0909090909091,37.714285714285715C169.3181818181818,37.714285714285715,169.54545454545456,37.714285714285715,169.77272727272728,37.714285714285715C170.22727272727275,37.714285714285715,170.6818181818182,37.714285714285715,171.13636363636365,37.714285714285715C171.36363636363637,37.714285714285715,171.5909090909091,37.714285714285715,171.8181818181818,37.714285714285715C172.04545454545453,37.714285714285715,172.27272727272728,34.095238095238095,172.5,32C172.72727272727272,29.904761904761905,172.95454545454547,27.238095238095237,173.1818181818182,25.142857142857142C173.4090909090909,23.047619047619047,173.63636363636365,20.952380952380956,173.86363636363637,19.42857142857143C174.0909090909091,17.904761904761905,174.31818181818184,17.714285714285776,174.54545454545456,16C174.77272727272728,14.285714285714297,175,9.904761904761873,175.22727272727272,9.142857142857142C175.45454545454544,8.38095238095238,175.6818181818182,8.761904761904761,175.9090909090909,7.999999999999998C176.13636363636363,7.2380952380952355,176.36363636363637,3.4285714285714297,176.5909090909091,3.4285714285714297C176.8181818181818,3.4285714285714297,177.04545454545456,3.4285714285714297,177.27272727272728,3.4285714285714297C177.5,3.4285714285714297,177.72727272727275,7.809523809523806,177.95454545454547,9.142857142857142C178.1818181818182,10.476190476190423,178.4090909090909,11.428571428571427,178.63636363636363,11.428571428571427C178.86363636363635,11.428571428571427,179.0909090909091,11.428571428571427,179.3181818181818,11.428571428571427C179.54545454545453,11.428571428571427,179.77272727272728,13.714285714285714,180,16"></path><path class="axis-ceiling" stroke-width="1" stroke="black" fill="none" d="M175,0L180,0"></path><text class="axis-ceiling-label" font-family="sans-serif" text-anchor="end" font-size="10px" x="170" y="2.5">35</text></g></svg>