<svg xmlns="http://www.w3.org/2000/svg" viewBox="0 0 180 60"><g transform="translate(0,20)"><path class="area" fill="rgba(0, 0, 0, 0.2)" d="M0,24.2C1.0169491525423728,26.026666666666667,2.0338983050847457,27.853333333333335,3.0508474576271185,27.853333333333335C4.067796610169491,27.853333333333335,5.084745762711864,26.948888888888888,6.101694915254237,26.466666666666665C7.11864406779661,25.984444444444442,8.135593220338983,24.96,9.152542372881356,24.96C10.169491525423728,24.96,11.186440677966102,26.597777777777775,12.203389830508474,27.466666666666665C13.220338983050846,28.335555555555555,14.23728813559322,30.173333333333332,15.254237288135592,30.173333333333332C16.271186440677965,30.173333333333332,17.28813559322034,29.133333333333333,18.305084745762713,29.133333333333333C19.322033898305087,29.133333333333333,20.338983050847457,29.182222222222222,21.35593220338983,29.28C22.372881355932204,29.37777777777778,23.389830508474574,30.753333333333334,24.406779661016948,31.48C25.423728813559322,32.20666666666667,26.440677966101696,33.64,27.45762711864407,33.64C28.47457627118644,33.64,29.491525423728813,33.413333333333334,30.508474576271183,33.17333333333333C31.525423728813557,32.93333333333333,32.54237288135593,32.199999999999996,33.559322033898304,32.199999999999996C34.57627118644068,32.199999999999996,35.59322033898305,33.13333333333333,36.610169491525426,33.13333333333333C37.6271186440678,33.13333333333333,38.644067796610166,32.626666666666665,39.66101694915254,32.626666666666665C40.67796610169491,32.626666666666665,41.69491525423729,32.742222222222225,42.71186440677966,32.78666666666667C43.728813559322035,32.83111111111111,44.7457627118644,32.82222222222222,45.762711864406775,32.89333333333333C46.77966101694915,32.96444444444444,47.79661016949152,35.34666666666667,48.813559322033896,35.34666666666667C49.83050847457627,35.34666666666667,50.847457627118644,32.333333333333336,51.86440677966102,32.333333333333336C52.88135593220339,32.333333333333336,53.898305084745765,33.08,54.91525423728814,33.08C55.93220338983051,33.08,56.94915254237288,31.98,57.96610169491525,31.613333333333333C58.983050847457626,31.246666666666666,59.99999999999999,30.880000000000003,61.01694915254237,30.880000000000003C62.03389830508474,30.880000000000003,63.05084745762712,32.81333333333333,64.0677966101695,32.81333333333333C65.08474576271186,32.81333333333333,66.10169491525424,31.63555555555556,67.11864406779661,31.6C68.13559322033899,31.564444444444444,69.15254237288136,31.582222222222224,70.16949152542374,31.546666666666667C71.1864406779661,31.51111111111111,72.20338983050848,30.933333333333334,73.22033898305085,30.933333333333334C74.23728813559322,30.933333333333334,75.2542372881356,31.293333333333333,76.27118644067797,31.293333333333333C77.28813559322033,31.293333333333333,78.30508474576271,29.53333333333333,79.32203389830508,29.53333333333333C80.33898305084746,29.53333333333333,81.35593220338983,29.74666666666667,82.37288135593221,29.74666666666667C83.38983050847457,29.74666666666667,84.40677966101696,28.440000000000005,85.42372881355932,28.120000000000005C86.4406779661017,27.8,87.45762711864407,27.64,88.47457627118645,27.64C89.49152542372882,27.64,90.50847457627118,29.46666666666667,91.52542372881355,29.46666666666667C92.54237288135593,29.46666666666667,93.55932203389831,24.759999999999998,94.57627118644069,24.759999999999998C95.59322033898306,24.759999999999998,96.61016949152543,26.34666666666667,97.62711864406779,26.34666666666667C98.64406779661016,26.34666666666667,99.66101694915254,24.966666666666665,100.6779661016949,24.14666666666667C101.69491525423729,23.326666666666668,102.71186440677965,21.42666666666667,103.72881355932203,21.42666666666667C104.7457627118644,21.42666666666667,105.76271186440678,22.34666666666667,106.77966101694915,22.826666666666668C107.79661016949153,23.30666666666667,108.8135593220339,24.30666666666667,109.83050847457628,24.30666666666667C110.84745762711864,24.30666666666667,111.86440677966102,23.406666666666666,112.88135593220339,23.106666666666666C113.89830508474576,22.806666666666665,114.91525423728814,22.906666666666666,115.9322033898305,22.506666666666668C116.94915254237289,22.106666666666666,117.96610169491525,21.222222222222225,118.98305084745763,20.53333333333333C120,19.844444444444445,121.01694915254237,19.111111111111107,122.03389830508473,18.373333333333335C123.05084745762711,17.635555555555552,124.0677966101695,17.364444444444455,125.08474576271188,16.106666666666666C126.10169491525424,14.848888888888888,127.11864406779662,11.493333333333338,128.135593220339,10.826666666666668C129.15254237288136,10.160000000000002,130.16949152542372,10.266666666666666,131.1864406779661,9.826666666666668C132.20338983050846,9.386666666666667,133.22033898305085,8.266666666666667,134.23728813559322,8.186666666666667C135.25423728813558,8.106666666666667,136.27118644067798,8.146666666666667,137.28813559322035,8.066666666666666C138.3050847457627,7.9866666666666655,139.3220338983051,5.553333333333333,140.33898305084747,4.773333333333332C141.35593220338984,3.9933333333333385,142.3728813559322,3.3866666666666667,143.38983050847457,3.3866666666666667C144.40677966101694,3.3866666666666667,145.42372881355934,4.0977777777777735,146.4406779661017,4.866666666666668C147.45762711864407,5.635555555555555,148.47457627118644,7.184444444444445,149.4915254237288,7.999999999999998C150.50847457627117,8.815555555555559,151.52542372881356,9.431111111111111,152.54237288135593,9.76C153.5593220338983,10.088888888888889,154.5762711864407,10.13111111111111,155.59322033898306,10.253333333333332C156.61016949152543,10.375555555555554,157.6271186440678,10.493333333333332,158.64406779661016,10.493333333333332C159.66101694915253,10.493333333333332,160.67796610169492,8.453333333333335,161.6949152542373,8.453333333333335C162.71186440677965,8.453333333333335,163.72881355932205,9.719999999999999,164.74576271186442,9.719999999999999C165.76271186440678,9.719999999999999,166.77966101694915,8.864444444444445,167.79661016949152,8.506666666666668C168.81355932203388,8.148888888888887,169.83050847457628,7.573333333333334,170.84745762711864,7.573333333333334C171.864406779661,7.573333333333334,172.8813559322034,15.106666666666664,173.89830508474577,15.853333333333332C174.91525423728814,16.599999999999998,175.93220338983053,16.973333333333333,176.9491525423729,16.973333333333333C177.96610169491527,16.973333333333333,178.98305084745763,16.96,180,16.946666666666665L180,40C178.98305084745763,40,177.96610169491527,40,176.9491525423729,40C175.93220338983053,40,174.91525423728814,40,173.89830508474577,40C172.8813559322034,40,171.864406779661,40,170.84745762711864,40C169.83050847457628,40,168.81355932203388,40,167.79661016949152,40C166.77966101694915,40,165.76271186440678,40,164.74576271186442,40C163.72881355932205,40,162.71186440677965,40,161.6949152542373,40C160.67796610169492,40,159.66101694915253,40,158.64406779661016,40C157.6271186440678,40,156.61016949152543,40,155.59322033898306,40C154.5762711864407,40,153.5593220338983,40,152.54237288135593,40C151.52542372881356,40,150.50847457627117,40,149.4915254237288,40C148.47457627118644,40,147.45762711864407,40,146.4406779661017,40C145.42372881355934,40,144.40677966101694,40,143.38983050847457,40C142.3728813559322,40,141.35593220338984,40,140.33898305084747,40C139.3220338983051,40,138.3050847457627,40,137.28813559322035,40C136.27118644067798,40,135.25423728813558,40,134.23728813559322,40C133.22033898305085,40,132.20338983050846,40,131.1864406779661,40C130.16949152542372,40,129.15254237288136,40,128.135593220339,40C127.11864406779662,40,126.10169491525424,40,125.08474576271188,40C124.0677966101695,40,123.05084745762711,40,122.03389830508473,40C121.01694915254237,40,120,40,118.98305084745763,40C117.96610169491525,40,116.94915254237289,40,115.9322033898305,40C114.91525423728814,40,113.89830508474576,40,112.88135593220339,40C111.86440677966102,40,110.84745762711864,40,109.83050847457628,40C108.8135593220339,40,107.79661016949153,40,106.77966101694915,40C105.76271186440678,40,104.7457627118644,40,103.72881355932203,40C102.71186440677965,40,101.69491525423729,40,100.6779661016949,40C99.66101694915254,40,98.64406779661016,40,97.62711864406779,40C96.61016949152543,40,95.59322033898306,40,94.57627118644069,40C93.55932203389831,40,92.54237288135593,40,91.52542372881355,40C90.50847457627118,40,89.49152542372882,40,88.47457627118645,40C87.45762711864407,40,86.4406779661017,40,85.42372881355932,40C84.40677966101696,40,83.38983050847457,40,82.37288135593221,40C81.35593220338983,40,80.33898305084746,40,79.32203389830508,40C78.30508474576271,40,77.28813559322033,40,76.27118644067797,40C75.2542372881356,40,74.23728813559322,40,73.22033898305085,40C72.20338983050848,40,71.1864406779661,40,70.16949152542374,40C69.15254237288136,40,68.13559322033899,40,67.11864406779661,40C66.10169491525424,40,65.08474576271186,40,64.0677966101695,40C63.05084745762712,40,62.03389830508474,40,61.01694915254237,40C59.99999999999999,40,58.983050847457626,40,57.96610169491525,40C56.94915254237288,40,55.93220338983051,40,54.91525423728814,40C53.898305084745765,40,52.88135593220339,40,51.86440677966102,40C50.847457627118644,40,49.83050847457627,40,48.813559322033896,40C47.79661016949152,40,46.77966101694915,40,45.762711864406775,40C44.7457627118644,40,43.728813559322035,40,42.71186440677966,40C41.69491525423729,40,40.67796610169491,40,39.66101694915254,40C38.644067796610166,40,37.6271186440678,40,36.610169491525426,40C35.59322033898305,40,34.57627118644068,40,33.559322033898304,40C32.54237288135593,40,31.525423728813557,40,30.508474576271183,40C29.491525423728813,40,28.47457627118644,40,27.45762711864407,40C26.440677966101696,40,25.423728813559322,40,24.406779661016948,40C23.389830508474574,40,22.372881355932204,40,21.35593220338983,40C20.338983050847457,40,19.322033898305087,40,18.305084745762713,40C17.28813559322034,40,16.271186440677965,40,15.254237288135592,40C14.23728813559322,40,13.220338983050846,40,12.203389830508474,40C11.186440677966102,40,10.169491525423728,40,9.152542372881356,40C8.135593220338983,40,7.11864406779661,40,6.101694915254237,40C5.084745762711864,40,4.067796610169491,40,3.0508474576271185,40C2.0338983050847457,40,1.0169491525423728,40,0,40Z"></path><path class="line" stroke="black" fill="none" d="M0,24.2C1.0169491525423728,26.026666666666667,2.0338983050847457,27.853333333333335,3.0508474576271185,27.853333333333335C4.067796610169491,27.853333333333335,5.084745762711864,26.948888888888888,6.101694915254237,26.466666666666665C7.11864406779661,25.984444444444442,8.135593220338983,24.96,9.152542372881356,24.96C10.169491525423728,24.96,11.186440677966102,26.597777777777775,12.203389830508474,27.466666666666665C13.220338983050846,28.335555555555555,14.23728813559322,30.173333333333332,15.254237288135592,30.173333333333332C16.271186440677965,30.173333333333332,17.28813559322034,29.133333333333333,18.305084745762713,29.133333333333333C19.322033898305087,29.133333333333333,20.338983050847457,29.182222222222222,21.35593220338983,29.28C22.372881355932204,29.37777777777778,23.389830508474574,30.753333333333334,24.406779661016948,31.48C25.423728813559322,32.20666666666667,26.440677966101696,33.64,27.45762711864407,33.64C28.47457627118644,33.64,29.491525423728813,33.413333333333334,30.508474576271183,33.17333333333333C31.525423728813557,32.93333333333333,32.54237288135593,32.199999999999996,33.559322033898304,32.199999999999996C34.57627118644068,32.199999999999996,35.59322033898305,33.13333333333333,36.610169491525426,33.13333333333333C37.6271186440678,33.13333333333333,38.644067796610166,32.626666666666665,39.66101694915254,32.626666666666665C40.67796610169491,32.626666666666665,41.69491525423729,32.742222222222225,42.71186440677966,32.78666666666667C43.728813559322035,32.83111111111111,44.7457627118644,32.82222222222222,45.762711864406775,32.89333333333333C46.77966101694915,32.96444444444444,47.79661016949152,35.34666666666667,48.813559322033896,35.34666666666667C49.83050847457627,35.34666666666667,50.847457627118644,32.333333333333336,51.86440677966102,32.333333333333336C52.88135593220339,32.333333333333336,53.898305084745765,33.08,54.91525423728814,33.08C55.93220338983051,33.08,56.94915254237288,31.98,57.96610169491525,31.613333333333333C58.983050847457626,31.246666666666666,59.99999999999999,30.880000000000003,61.01694915254237,30.880000000000003C62.03389830508474,30.880000000000003,63.05084745762712,32.81333333333333,64.0677966101695,32.81333333333333C65.08474576271186,32.81333333333333,66.10169491525424,31.63555555555556,67.11864406779661,31.6C68.13559322033899,31.564444444444444,69.15254237288136,31.582222222222224,70.16949152542374,31.546666666666667C71.1864406779661,31.51111111111111,72.20338983050848,30.933333333333334,73.22033898305085,30.933333333333334C74.23728813559322,30.933333333333334,75.2542372881356,31.293333333333333,76.27118644067797,31.293333333333333C77.28813559322033,31.293333333333333,78.30508474576271,29.53333333333333,79.32203389830508,29.53333333333333C80.33898305084746,29.53333333333333,81.35593220338983,29.74666666666667,82.37288135593221,29.74666666666667C83.38983050847457,29.74666666666667,84.40677966101696,28.440000000000005,85.42372881355932,28.120000000000005C86.4406779661017,27.8,87.45762711864407,27.64,88.47457627118645,27.64C89.49152542372882,27.64,90.50847457627118,29.46666666666667,91.52542372881355,29.46666666666667C92.54237288135593,29.46666666666667,93.55932203389831,24.759999999999998,94.57627118644069,24.759999999999998C95.59322033898306,24.759999999999998,96.61016949152543,26.34666666666667,97.62711864406779,26.34666666666667C98.64406779661016,26.34666666666667,99.66101694915254,24.966666666666665,100.6779661016949,24.14666666666667C101.69491525423729,23.326666666666668,102.71186440677965,21.42666666666667,103.72881355932203,21.42666666666667C104.7457627118644,21.42666666666667,105.76271186440678,22.34666666666667,106.77966101694915,22.826666666666668C107.79661016949153,23.30666666666667,108.8135593220339,24.30666666666667,109.83050847457628,24.30666666666667C110.84745762711864,24.30666666666667,111.86440677966102,23.406666666666666,112.88135593220339,23.106666666666666C113.89830508474576,22.806666666666665,114.91525423728814,22.906666666666666,115.9322033898305,22.506666666666668C116.94915254237289,22.106666666666666,117.96610169491525,21.222222222222225,118.98305084745763,20.53333333333333C120,19.844444444444445,121.01694915254237,19.111111111111107,122.03389830508473,18.373333333333335C123.05084745762711,17.635555555555552,124.0677966101695,17.364444444444455,125.08474576271188,16.106666666666666C126.10169491525424,14.848888888888888,127.11864406779662,11.493333333333338,128.135593220339,10.826666666666668C129.15254237288136,10.160000000000002,130.16949152542372,10.266666666666666,131.1864406779661,9.826666666666668C132.20338983050846,9.386666666666667,133.22033898305085,8.266666666666667,134.23728813559322,8.186666666666667C135.25423728813558,8.106666666666667,136.27118644067798,8.146666666666667,137.28813559322035,8.066666666666666C138.3050847457627,7.9866666666666655,139.3220338983051,5.553333333333333,140.33898305084747,4.773333333333332C141.35593220338984,3.9933333333333385,142.3728813559322,3.3866666666666667,143.38983050847457,3.3866666666666667C144.40677966101694,3.3866666666666667,145.42372881355934,4.0977777777777735,146.4406779661017,4.866666666666668C147.45762711864407,5.635555555555555,148.47457627118644,7.184444444444445,149.4915254237288,7.999999999999998C150.50847457627117,8.815555555555559,151.52542372881356,9.431111111111111,152.54237288135593,9.76C153.5593220338983,10.088888888888889,154.5762711864407,10.13111111111111,155.59322033898306,10.253333333333332C156.61016949152543,10.375555555555554,157.6271186440678,10.493333333333332,158.64406779661016,10.493333333333332C159.66101694915253,10.493333333333332,160.67796610169492,8.453333333333335,161.6949152542373,8.453333333333335C162.71186440677965,8.453333333333335,163.72881355932205,9.719999999999999,164.74576271186442,9.719999999999999C165.76271186440678,9.719999999999999,166.77966101694915,8.864444444444445,167.79661016949152,8.506666666666668C168.81355932203388,8.148888888888887,169.83050847457628,7.573333333333334,170.84745762711864,7.573333333333334C171.864406779661,7.573333333333334,172.8813559322034,15.106666666666664,173.89830508474577,15.853333333333332C174.91525423728814,16.599999999999998,175.93220338983053,16.973333333333333,176.9491525423729,16.973333333333333C177.96610169491527,16.973333333333333,178.98305084745763,16.96,180,16.946666666666665"></path><path class="axis-ceiling" stroke-width="1" stroke="black" fill="none" d="M175,0L180,0"></path><text class="axis-ceiling-label" font-family="sans-serif" text-anchor="end" font-size="10px" x="170" y="2.5">3000</text></g></svg>