<svg xmlns="http://www.w3.org/2000/svg" viewBox="0 0 180 60"><g transform="translate(0,20)"><path class="area" fill="rgba(0, 0, 0, 0.2)" d="M0,31.631999999999998C1.0169491525423728,31.530288888888887,2.0338983050847457,31.428577777777775,3.0508474576271185,31.3264C4.067796610169491,31.224222222222224,5.084745762711864,31.12088888888889,6.101694915254237,31.018933333333333C7.11864406779661,30.916977777777777,8.135593220338983,30.816444444444443,9.152542372881356,30.714666666666666C10.169491525423728,30.61288888888889,11.186440677966102,30.50986666666667,12.203389830508474,30.40826666666667C13.220338983050846,30.30666666666667,14.23728813559322,30.20582222222222,15.254237288135592,30.105066666666666C16.271186440677965,30.00431111111111,17.28813559322034,29.90377777777778,18.305084745762713,29.803733333333334C19.322033898305087,29.703688888888887,20.338983050847457,29.60044444444444,21.35593220338983,29.504799999999996C22.372881355932204,29.40915555555555,23.389830508474574,29.318444444444445,24.406779661016948,29.229866666666666C25.423728813559322,29.141288888888887,26.440677966101696,29.056399999999996,27.45762711864407,28.97333333333333C28.47457627118644,28.890266666666662,29.491525423728813,28.810355555555557,30.508474576271183,28.73146666666667C31.525423728813557,28.652577777777783,32.54237288135593,28.573777777777778,33.559322033898304,28.5C34.57627118644068,28.426222222222222,35.59322033898305,28.355244444444445,36.610169491525426,28.2888C37.6271186440678,28.222355555555556,38.644067796610166,28.1616,39.66101694915254,28.101333333333333C40.67796610169491,28.041066666666666,41.69491525423729,27.983822222222223,42.71186440677966,27.9272C43.728813559322035,27.87057777777778,44.7457627118644,27.81511111111111,45.762711864406775,27.7616C46.77966101694915,27.70808888888889,47.79661016949152,27.656311111111116,48.813559322033896,27.606133333333336C49.83050847457627,27.555955555555556,50.847457627118644,27.508399999999998,51.86440677966102,27.46053333333333C52.88135593220339,27.412666666666663,53.898305084745765,27.365333333333332,54.91525423728814,27.318933333333334C55.93220338983051,27.272533333333335,56.94915254237288,27.228088888888887,57.96610169491525,27.182133333333333C58.983050847457626,27.136177777777778,59.99999999999999,27.089155555555553,61.01694915254237,27.0432C62.03389830508474,26.997244444444444,63.05084745762712,26.95266666666667,64.0677966101695,26.9064C65.08474576271186,26.860133333333337,66.10169491525424,26.81337777777778,67.11864406779661,26.765600000000003C68.13559322033899,26.717822222222225,69.15254237288136,26.668355555555554,70.16949152542374,26.61973333333333C71.1864406779661,26.571111111111108,72.20338983050848,26.52311111111111,73.22033898305085,26.473866666666666C74.23728813559322,26.424622222222222,75.2542372881356,26.37591111111111,76.27118644067797,26.324266666666666C77.28813559322033,26.27262222222222,78.30508474576271,26.218133333333334,79.32203389830508,26.164C80.33898305084746,26.10986666666667,81.35593220338983,26.055111111111113,82.37288135593221,25.99946666666667C83.38983050847457,25.943822222222227,84.40677966101696,25.887600000000003,85.42372881355932,25.830133333333336C86.4406779661017,25.77266666666667,87.45762711864407,25.713688888888885,88.47457627118645,25.654666666666664C89.49152542372882,25.595644444444442,90.50847457627118,25.537777777777777,91.52542372881355,25.476C92.54237288135593,25.41422222222222,93.55932203389831,25.349911111111112,94.57627118644069,25.284C95.59322033898306,25.21808888888889,96.61016949152543,25.14933333333333,97.62711864406779,25.08053333333333C98.64406779661016,25.011733333333332,99.66101694915254,24.943911111111113,100.6779661016949,24.8712C101.69491525423729,24.79848888888889,102.71186440677965,24.722266666666666,103.72881355932203,24.644266666666667C104.7457627118644,24.566266666666667,105.76271186440678,24.48613333333333,106.77966101694915,24.4032C107.79661016949153,24.320266666666665,108.8135593220339,24.236133333333335,109.83050847457628,24.14666666666667C110.84745762711864,24.0572,111.86440677966102,23.962355555555554,112.88135593220339,23.8664C113.89830508474576,23.770444444444443,114.91525423728814,23.670977777777775,115.9322033898305,23.570933333333333C116.94915254237289,23.47088888888889,117.96610169491525,23.370800000000003,118.98305084745763,23.266133333333336C120,23.16146666666667,121.01694915254237,23.051733333333328,122.03389830508473,22.94293333333333C123.05084745762711,22.834133333333327,124.0677966101695,22.725955555555554,125.08474576271188,22.613333333333333C126.10169491525424,22.500711111111112,127.11864406779662,22.38528888888889,128.135593220339,22.267200000000003C129.15254237288136,22.149111111111115,130.16949152542372,22.028177777777778,131.1864406779661,21.9048C132.20338983050846,21.781422222222222,133.22033898305085,21.658622222222224,134.23728813559322,21.526933333333336C135.25423728813558,21.395244444444447,136.27118644067798,21.258933333333335,137.28813559322035,21.11466666666667C138.3050847457627,20.9704,139.3220338983051,20.8196,140.33898305084747,20.66133333333333C141.35593220338984,20.503066666666665,142.3728813559322,20.33733333333333,143.38983050847457,20.165066666666664C144.40677966101694,19.992799999999995,145.42372881355934,19.814355555555554,146.4406779661017,19.62773333333333C147.45762711864407,19.44111111111111,148.47457627118644,19.246577777777777,149.4915254237288,19.045333333333332C150.50847457627117,18.844088888888887,151.52542372881356,18.633999999999997,152.54237288135593,18.420266666666663C153.5593220338983,18.20653333333333,154.5762711864407,17.983422222222224,155.59322033898306,17.762933333333333C156.61016949152543,17.542444444444445,157.6271186440678,17.3192,158.64406779661016,17.09733333333333C159.66101694915253,16.875466666666664,160.67796610169492,16.652622222222224,161.6949152542373,16.431733333333334C162.71186440677965,16.210844444444444,163.72881355932205,15.99071111111111,164.74576271186442,15.771999999999998C165.76271186440678,15.553288888888888,166.77966101694915,15.335288888888888,167.79661016949152,15.119466666666668C168.81355932203388,14.903644444444444,169.83050847457628,14.688133333333333,170.84745762711864,14.477066666666666C171.864406779661,14.265999999999998,172.8813559322034,14.059377777777778,173.89830508474577,13.853066666666667C174.91525423728814,13.646755555555556,175.93220338983053,13.444000000000003,176.9491525423729,13.239200000000002C177.96610169491527,13.034400000000003,178.98305084745763,12.829333333333334,180,12.624266666666667L180,40C178.98305084745763,40,177.96610169491527,40,176.9491525423729,40C175.93220338983053,40,174.91525423728814,40,173.89830508474577,40C172.8813559322034,40,171.864406779661,40,170.84745762711864,40C169.83050847457628,40,168.81355932203388,40,167.79661016949152,40C166.77966101694915,40,165.76271186440678,40,164.74576271186442,40C163.72881355932205,40,162.71186440677965,40,161.6949152542373,40C160.67796610169492,40,159.66101694915253,40,158.64406779661016,40C157.6271186440678,40,156.61016949152543,40,155.59322033898306,40C154.5762711864407,40,153.5593220338983,40,152.54237288135593,40C151.52542372881356,40,150.50847457627117,40,149.4915254237288,40C148.47457627118644,40,147.45762711864407,40,146.4406779661017,40C145.42372881355934,40,144.40677966101694,40,143.38983050847457,40C142.3728813559322,40,141.35593220338984,40,140.33898305084747,40C139.3220338983051,40,138.3050847457627,40,137.28813559322035,40C136.27118644067798,40,135.25423728813558,40,134.23728813559322,40C133.22033898305085,40,132.20338983050846,40,131.1864406779661,40C130.16949152542372,40,129.15254237288136,40,128.135593220339,40C127.11864406779662,40,126.10169491525424,40,125.08474576271188,40C124.0677966101695,40,123.05084745762711,40,122.03389830508473,40C121.01694915254237,40,120,40,118.98305084745763,40C117.96610169491525,40,116.94915254237289,40,115.9322033898305,40C114.91525423728814,40,113.89830508474576,40,112.88135593220339,40C111.86440677966102,40,110.84745762711864,40,109.83050847457628,40C108.8135593220339,40,107.79661016949153,40,106.77966101694915,40C105.76271186440678,40,104.7457627118644,40,103.72881355932203,40C102.71186440677965,40,101.69491525423729,40,100.6779661016949,40C99.66101694915254,40,98.64406779661016,40,97.62711864406779,40C96.61016949152543,40,95.59322033898306,40,94.57627118644069,40C93.55932203389831,40,92.54237288135593,40,91.52542372881355,40C90.50847457627118,40,89.49152542372882,40,88.47457627118645,40C87.45762711864407,40,86.4406779661017,40,85.42372881355932,40C84.40677966101696,40,83.38983050847457,40,82.37288135593221,40C81.35593220338983,40,80.33898305084746,40,79.32203389830508,40C78.30508474576271,40,77.28813559322033,40,76.27118644067797,40C75.2542372881356,40,74.23728813559322,40,73.22033898305085,40C72.20338983050848,40,71.1864406779661,40,70.16949152542374,40C69.15254237288136,40,68.13559322033899,40,67.11864406779661,40C66.10169491525424,40,65.08474576271186,40,64.0677966101695,40C63.05084745762712,40,62.03389830508474,40,61.01694915254237,40C59.99999999999999,40,58.983050847457626,40,57.96610169491525,40C56.94915254237288,40,55.93220338983051,40,54.91525423728814,40C53.898305084745765,40,52.88135593220339,40,51.86440677966102,40C50.847457627118644,40,49.83050847457627,40,48.813559322033896,40C47.79661016949152,40,46.77966101694915,40,45.762711864406775,40C44.7457627118644,40,43.728813559322035,40,42.71186440677966,40C41.69491525423729,40,40.67796610169491,40,39.66101694915254,40C38.644067796610166,40,37.6271186440678,40,36.610169491525426,40C35.59322033898305,40,34.57627118644068,40,33.559322033898304,40C32.54237288135593,40,31.525423728813557,40,30.508474576271183,40C29.491525423728813,40,28.47457627118644,40,27.45762711864407,40C26.440677966101696,40,25.423728813559322,40,24.406779661016948,40C23.389830508474574,40,22.372881355932204,40,21.35593220338983,40C20.338983050847457,40,19.322033898305087,40,18.305084745762713,40C17.28813559322034,40,16.271186440677965,40,15.254237288135592,40C14.23728813559322,40,13.220338983050846,40,12.203389830508474,40C11.186440677966102,40,10.169491525423728,40,9.152542372881356,40C8.135593220338983,40,7.11864406779661,40,6.101694915254237,40C5.084745762711864,40,4.067796610169491,40,3.0508474576271185,40C2.0338983050847457,40,1.0169491525423728,40,0,40Z"></path><path class="line" stroke="black" fill="none" d="M0,31.631999999999998C1.0169491525423728,31.530288888888887,2.0338983050847457,31.428577777777775,3.0508474576271185,31.3264C4.067796610169491,31.224222222222224,5.084745762711864,31.12088888888889,6.101694915254237,31.018933333333333C7.11864406779661,30.916977777777777,8.135593220338983,30.816444444444443,9.152542372881356,30.714666666666666C10.169491525423728,30.61288888888889,11.186440677966102,30.50986666666667,12.203389830508474,30.40826666666667C13.220338983050846,30.30666666666667,14.23728813559322,30.20582222222222,15.254237288135592,30.105066666666666C16.271186440677965,30.00431111111111,17.28813559322034,29.90377777777778,18.305084745762713,29.803733333333334C19.322033898305087,29.703688888888887,20.338983050847457,29.60044444444444,21.35593220338983,29.504799999999996C22.372881355932204,29.40915555555555,23.389830508474574,29.318444444444445,24.406779661016948,29.229866666666666C25.423728813559322,29.141288888888887,26.440677966101696,29.056399999999996,27.45762711864407,28.97333333333333C28.47457627118644,28.890266666666662,29.491525423728813,28.810355555555557,30.508474576271183,28.73146666666667C31.525423728813557,28.652577777777783,32.54237288135593,28.573777777777778,33.559322033898304,28.5C34.57627118644068,28.426222222222222,35.59322033898305,28.355244444444445,36.610169491525426,28.2888C37.6271186440678,28.222355555555556,38.644067796610166,28.1616,39.66101694915254,28.101333333333333C40.67796610169491,28.041066666666666,41.69491525423729,27.983822222222223,42.71186440677966,27.9272C43.728813559322035,27.87057777777778,44.7457627118644,27.81511111111111,45.762711864406775,27.7616C46.77966101694915,27.70808888888889,47.79661016949152,27.656311111111116,48.813559322033896,27.606133333333336C49.83050847457627,27.555955555555556,50.847457627118644,27.508399999999998,51.86440677966102,27.46053333333333C52.88135593220339,27.412666666666663,53.898305084745765,27.365333333333332,54.91525423728814,27.318933333333334C55.93220338983051,27.272533333333335,56.94915254237288,27.228088888888887,57.96610169491525,27.182133333333333C58.983050847457626,27.136177777777778,59.99999999999999,27.089155555555553,61.01694915254237,27.0432C62.03389830508474,26.997244444444444,63.05084745762712,26.95266666666667,64.0677966101695,26.9064C65.08474576271186,26.860133333333337,66.10169491525424,26.81337777777778,67.11864406779661,26.765600000000003C68.13559322033899,26.717822222222225,69.15254237288136,26.668355555555554,70.16949152542374,26.61973333333333C71.1864406779661,26.571111111111108,72.20338983050848,26.52311111111111,73.22033898305085,26.473866666666666C74.23728813559322,26.424622222222222,75.2542372881356,26.37591111111111,76.27118644067797,26.324266666666666C77.28813559322033,26.27262222222222,78.30508474576271,26.218133333333334,79.32203389830508,26.164C80.33898305084746,26.10986666666667,81.35593220338983,26.055111111111113,82.37288135593221,25.99946666666667C83.38983050847457,25.943822222222227,84.40677966101696,25.887600000000003,85.42372881355932,25.830133333333336C86.4406779661017,25.77266666666667,87.45762711864407,25.713688888888885,88.47457627118645,25.654666666666664C89.49152542372882,25.595644444444442,90.50847457627118,25.537777777777777,91.52542372881355,25.476C92.54237288135593,25.41422222222222,93.55932203389831,25.349911111111112,94.57627118644069,25.284C95.59322033898306,25.21808888888889,96.61016949152543,25.14933333333333,97.62711864406779,25.08053333333333C98.64406779661016,25.011733333333332,99.66101694915254,24.943911111111113,100.6779661016949,24.8712C101.69491525423729,24.79848888888889,102.71186440677965,24.722266666666666,103.72881355932203,24.644266666666667C104.7457627118644,24.566266666666667,105.76271186440678,24.48613333333333,106.77966101694915,24.4032C107.79661016949153,24.320266666666665,108.8135593220339,24.236133333333335,109.83050847457628,24.14666666666667C110.84745762711864,24.0572,111.86440677966102,23.962355555555554,112.88135593220339,23.8664C113.89830508474576,23.770444444444443,114.91525423728814,23.670977777777775,115.9322033898305,23.570933333333333C116.94915254237289,23.47088888888889,117.96610169491525,23.370800000000003,118.98305084745763,23.266133333333336C120,23.16146666666667,121.01694915254237,23.051733333333328,122.03389830508473,22.94293333333333C123.05084745762711,22.834133333333327,124.0677966101695,22.725955555555554,125.08474576271188,22.613333333333333C126.10169491525424,22.500711111111112,127.11864406779662,22.38528888888889,128.135593220339,22.267200000000003C129.15254237288136,22.149111111111115,130.16949152542372,22.028177777777778,131.1864406779661,21.9048C132.20338983050846,21.781422222222222,133.22033898305085,21.658622222222224,134.23728813559322,21.526933333333336C135.25423728813558,21.395244444444447,136.27118644067798,21.258933333333335,137.28813559322035,21.11466666666667C138.3050847457627,20.9704,139.3220338983051,20.8196,140.33898305084747,20.66133333333333C141.35593220338984,20.503066666666665,142.3728813559322,20.33733333333333,143.38983050847457,20.165066666666664C144.40677966101694,19.992799999999995,145.42372881355934,19.814355555555554,146.4406779661017,19.62773333333333C147.45762711864407,19.44111111111111,148.47457627118644,19.246577777777777,149.4915254237288,19.045333333333332C150.50847457627117,18.844088888888887,151.52542372881356,18.633999999999997,152.54237288135593,18.420266666666663C153.5593220338983,18.20653333333333,154.5762711864407,17.983422222222224,155.59322033898306,17.762933333333333C156.61016949152543,17.542444444444445,157.6271186440678,17.3192,158.64406779661016,17.09733333333333C159.66101694915253,16.875466666666664,160.67796610169492,16.652622222222224,161.6949152542373,16.431733333333334C162.71186440677965,16.210844444444444,163.72881355932205,15.99071111111111,164.74576271186442,15.771999999999998C165.76271186440678,15.553288888888888,166.77966101694915,15.335288888888888,167.79661016949152,15.119466666666668C168.81355932203388,14.903644444444444,169.83050847457628,14.688133333333333,170.84745762711864,14.477066666666666C171.864406779661,14.265999999999998,172.8813559322034,14.059377777777778,173.89830508474577,13.853066666666667C174.91525423728814,13.646755555555556,175.93220338983053,13.444000000000003,176.9491525423729,13.239200000000002C177.96610169491527,13.034400000000003,178.98305084745763,12.829333333333334,180,12.624266666666667"></path><path class="axis-ceiling" stroke-width="1" stroke="black" fill="none" d="M175,0L180,0"></path><text class="axis-ceiling-label" font-family="sans-serif" text-anchor="end" font-size="10px" x="170" y="2.5">150000</text></g></svg>