<svg xmlns="http://www.w3.org/2000/svg" viewBox="0 0 180 60"><g transform="translate(0,20)"><path class="area" fill="rgba(0, 0, 0, 0.2)" d="M0,28.360000000000003C1.8320610687022898,28.332363636363638,3.66412213740458,28.304727272727273,5.49618320610687,28.28C10.534351145038167,28.212,15.572519083969464,28.190256410256424,20.610687022900763,28.120000000000005C21.526717557251906,28.10722610722611,22.442748091603054,28.089696969696966,23.358778625954198,28.08C28.396946564885496,28.026666666666667,33.43511450381679,28.05333333333333,38.47328244274809,28C38.93129770992367,27.995151515151516,39.38931297709924,27.972444444444445,39.84732824427481,27.96C42.137404580152676,27.89777777777778,44.42748091603053,27.919999999999998,46.717557251908396,27.839999999999996C47.17557251908397,27.823999999999995,47.63358778625954,27.786666666666665,48.091603053435115,27.759999999999998C49.00763358778626,27.706666666666667,49.92366412213741,27.607619047619046,50.839694656488554,27.599999999999998C54.04580152671756,27.573333333333334,57.25190839694657,27.57203703703704,60.458015267175576,27.560000000000002C64.58015267175573,27.544523809523813,68.70229007633588,27.546666666666667,72.82442748091603,27.519999999999996C73.74045801526718,27.51407407407407,74.65648854961832,27.484102564102567,75.57251908396947,27.480000000000004C81.52671755725191,27.453333333333333,87.48091603053435,27.46397660818713,93.43511450381679,27.439999999999998C96.18320610687023,27.4289338731444,98.93129770992367,27.426666666666666,101.67938931297711,27.400000000000002C102.13740458015268,27.395555555555557,102.59541984732824,27.346666666666668,103.05343511450381,27.32C103.51145038167938,27.293333333333333,103.96946564885496,27.261333333333337,104.42748091603053,27.240000000000002C106.7175572519084,27.133333333333336,109.00763358778626,27.142857142857146,111.29770992366413,27.080000000000002C112.21374045801527,27.054857142857145,113.12977099236642,27.026666666666667,114.04580152671755,27C114.50381679389312,26.986666666666665,114.9618320610687,26.97333333333333,115.41984732824427,26.959999999999997C115.87786259541984,26.946666666666665,116.33587786259542,26.946666666666665,116.79389312977099,26.92C117.70992366412214,26.866666666666674,118.62595419847328,26.61333333333332,119.54198473282443,26.559999999999995C120,26.533333333333335,120.45801526717558,26.533333333333335,120.91603053435115,26.520000000000003C121.37404580152672,26.50666666666667,121.8320610687023,26.49333333333333,122.29007633587787,26.479999999999997C122.74809160305344,26.466666666666665,123.20610687022902,26.454666666666668,123.66412213740459,26.44C125.49618320610688,26.38133333333334,127.32824427480917,26.280000000000005,129.16030534351145,26.200000000000003C130.0763358778626,26.160000000000004,130.99236641221376,26.111111111111114,131.9083969465649,26.080000000000002C132.36641221374046,26.064444444444447,132.82442748091603,26.06,133.2824427480916,26.04C133.74045801526717,26.02,134.19847328244276,25.98,134.65648854961833,25.96C135.1145038167939,25.94,135.57251908396947,25.94666666666667,136.03053435114504,25.92C136.4885496183206,25.893333333333334,136.9465648854962,25.78666666666667,137.40458015267177,25.76C137.86259541984734,25.733333333333334,138.3206106870229,25.746666666666666,138.77862595419847,25.72C139.6946564885496,25.66666666666666,140.61068702290078,25.471111111111114,141.5267175572519,25.28C141.98473282442748,25.184444444444445,142.44274809160305,25.08,142.90076335877862,24.96C143.3587786259542,24.84,143.81679389312978,24.76,144.27480916030535,24.56C144.73282442748092,24.36,145.1908396946565,23.91999999999999,145.64885496183206,23.759999999999998C146.10687022900763,23.6,146.56488549618322,23.58666666666667,147.0229007633588,23.520000000000003C147.48091603053436,23.453333333333337,147.93893129770993,23.46666666666667,148.3969465648855,23.360000000000003C148.85496183206106,23.253333333333337,149.31297709923666,22.960000000000008,149.77099236641223,22.880000000000003C150.2290076335878,22.8,150.68702290076337,22.806666666666665,151.14503816793894,22.759999999999998C151.6030534351145,22.71333333333333,152.06106870229007,22.706666666666663,152.51908396946564,22.599999999999998C152.9770992366412,22.49333333333333,153.4351145038168,21.593333333333337,153.89312977099237,21.04C154.35114503816794,20.48666666666667,154.8091603053435,19.83333333333333,155.26717557251908,19.28C155.72519083969465,18.726666666666663,156.18320610687024,18.14666666666667,156.6412213740458,17.72C157.09923664122138,17.29333333333334,157.55725190839695,17.199999999999996,158.01526717557252,16.720000000000002C158.4732824427481,16.240000000000002,158.93129770992368,15.13333333333334,159.38931297709925,14.84C159.84732824427482,14.546666666666665,160.3053435114504,14.686666666666666,160.76335877862596,14.399999999999999C161.22137404580153,14.113333333333332,161.6793893129771,13.513333333333327,162.13740458015266,13.119999999999997C162.59541984732823,12.72666666666666,163.05343511450383,12.30666666666667,163.5114503816794,12.040000000000003C163.96946564885496,11.77333333333334,164.42748091603053,11.779999999999998,164.8854961832061,11.520000000000001C165.34351145038167,11.26,165.80152671755727,10.800000000000004,166.25954198473283,10.48C166.7175572519084,10.160000000000004,167.17557251908397,9.906666666666663,167.63358778625954,9.6C168.0916030534351,9.29333333333333,168.5496183206107,8.800000000000002,169.00763358778627,8.639999999999999C169.46564885496184,8.479999999999999,169.9236641221374,8.506666666666664,170.38167938931298,8.399999999999999C170.83969465648855,8.293333333333331,171.29770992366414,8.14,171.7557251908397,7.999999999999998C172.21374045801528,7.859999999999999,172.67175572519085,7.686666666666664,173.12977099236642,7.559999999999998C173.58778625954199,7.433333333333332,174.04580152671755,7.373333333333335,174.50381679389312,7.240000000000002C174.9618320610687,7.106666666666669,175.41984732824426,6.913333333333334,175.87786259541983,6.760000000000002C176.3358778625954,6.6066666666666665,176.793893129771,6.440000000000002,177.25190839694656,6.320000000000001C177.70992366412213,6.200000000000003,178.1679389312977,6.2266666666666675,178.62595419847327,6.040000000000001C179.08396946564883,5.85333333333333,179.54198473282443,5.246666666666665,180,4.64L180,40C179.54198473282443,40,179.08396946564883,40,178.62595419847327,40C178.1679389312977,40,177.70992366412213,40,177.25190839694656,40C176.793893129771,40,176.3358778625954,40,175.87786259541983,40C175.41984732824426,40,174.9618320610687,40,174.50381679389312,40C174.04580152671755,40,173.58778625954199,40,173.12977099236642,40C172.67175572519085,40,172.21374045801528,40,171.7557251908397,40C171.29770992366414,40,170.83969465648855,40,170.38167938931298,40C169.9236641221374,40,169.46564885496184,40,169.00763358778627,40C168.5496183206107,40,168.0916030534351,40,167.63358778625954,40C167.17557251908397,40,166.7175572519084,40,166.25954198473283,40C165.80152671755727,40,165.34351145038167,40,164.8854961832061,40C164.42748091603053,40,163.96946564885496,40,163.5114503816794,40C163.05343511450383,40,162.59541984732823,40,162.13740458015266,40C161.6793893129771,40,161.22137404580153,40,160.76335877862596,40C160.3053435114504,40,159.84732824427482,40,159.38931297709925,40C158.93129770992368,40,158.4732824427481,40,158.01526717557252,40C157.55725190839695,40,157.09923664122138,40,156.6412213740458,40C156.18320610687024,40,155.72519083969465,40,155.26717557251908,40C154.8091603053435,40,154.35114503816794,40,153.89312977099237,40C153.4351145038168,40,152.9770992366412,40,152.51908396946564,40C152.06106870229007,40,151.6030534351145,40,151.14503816793894,40C150.68702290076337,40,150.2290076335878,40,149.77099236641223,40C149.31297709923666,40,148.85496183206106,40,148.3969465648855,40C147.93893129770993,40,147.48091603053436,40,147.0229007633588,40C146.56488549618322,40,146.10687022900763,40,145.64885496183206,40C145.1908396946565,40,144.73282442748092,40,144.27480916030535,40C143.81679389312978,40,143.3587786259542,40,142.90076335877862,40C142.44274809160305,40,141.98473282442748,40,141.5267175572519,40C140.61068702290078,40,139.6946564885496,40,138.77862595419847,40C138.3206106870229,40,137.86259541984734,40,137.40458015267177,40C136.9465648854962,40,136.4885496183206,40,136.03053435114504,40C135.57251908396947,40,135.1145038167939,40,134.65648854961833,40C134.19847328244276,40,133.74045801526717,40,133.2824427480916,40C132.82442748091603,40,132.36641221374046,40,131.9083969465649,40C130.99236641221376,40,130.0763358778626,40,129.16030534351145,40C127.32824427480917,40,125.49618320610688,40,123.66412213740459,40C123.20610687022902,40,122.74809160305344,40,122.29007633587787,40C121.8320610687023,40,121.37404580152672,40,120.91603053435115,40C120.45801526717558,40,120,40,119.54198473282443,40C118.62595419847328,40,117.70992366412214,40,116.79389312977099,40C116.33587786259542,40,115.87786259541984,40,115.41984732824427,40C114.9618320610687,40,114.50381679389312,40,114.04580152671755,40C113.12977099236642,40,112.21374045801527,40,111.29770992366413,40C109.00763358778626,40,106.7175572519084,40,104.42748091603053,40C103.96946564885496,40,103.51145038167938,40,103.05343511450381,40C102.59541984732824,40,102.13740458015268,40,101.67938931297711,40C98.93129770992367,40,96.18320610687023,40,93.43511450381679,40C87.48091603053435,40,81.52671755725191,40,75.57251908396947,40C74.65648854961832,40,73.74045801526718,40,72.82442748091603,40C68.70229007633588,40,64.58015267175573,40,60.458015267175576,40C57.25190839694657,40,54.04580152671756,40,50.839694656488554,40C49.92366412213741,40,49.00763358778626,40,48.091603053435115,40C47.63358778625954,40,47.17557251908397,40,46.717557251908396,40C44.42748091603053,40,42.137404580152676,40,39.84732824427481,40C39.38931297709924,40,38.93129770992367,40,38.47328244274809,40C33.43511450381679,40,28.396946564885496,40,23.358778625954198,40C22.442748091603054,40,21.526717557251906,40,20.610687022900763,40C15.572519083969464,40,10.534351145038167,40,5.49618320610687,40C3.66412213740458,40,1.8320610687022898,40,0,40Z"></path><path class="line" stroke="black" fill="none" d="M0,28.360000000000003C1.8320610687022898,28.332363636363638,3.66412213740458,28.304727272727273,5.49618320610687,28.28C10.534351145038167,28.212,15.572519083969464,28.190256410256424,20.610687022900763,28.120000000000005C21.526717557251906,28.10722610722611,22.442748091603054,28.089696969696966,23.358778625954198,28.08C28.396946564885496,28.026666666666667,33.43511450381679,28.05333333333333,38.47328244274809,28C38.93129770992367,27.995151515151516,39.38931297709924,27.972444444444445,39.84732824427481,27.96C42.137404580152676,27.89777777777778,44.42748091603053,27.919999999999998,46.717557251908396,27.839999999999996C47.17557251908397,27.823999999999995,47.63358778625954,27.786666666666665,48.091603053435115,27.759999999999998C49.00763358778626,27.706666666666667,49.92366412213741,27.607619047619046,50.839694656488554,27.599999999999998C54.04580152671756,27.573333333333334,57.25190839694657,27.57203703703704,60.458015267175576,27.560000000000002C64.58015267175573,27.544523809523813,68.70229007633588,27.546666666666667,72.82442748091603,27.519999999999996C73.74045801526718,27.51407407407407,74.65648854961832,27.484102564102567,75.57251908396947,27.480000000000004C81.52671755725191,27.453333333333333,87.48091603053435,27.46397660818713,93.43511450381679,27.439999999999998C96.18320610687023,27.4289338731444,98.93129770992367,27.426666666666666,101.67938931297711,27.400000000000002C102.13740458015268,27.395555555555557,102.59541984732824,27.346666666666668,103.05343511450381,27.32C103.51145038167938,27.293333333333333,103.96946564885496,27.261333333333337,104.42748091603053,27.240000000000002C106.7175572519084,27.133333333333336,109.00763358778626,27.142857142857146,111.29770992366413,27.080000000000002C112.21374045801527,27.054857142857145,113.12977099236642,27.026666666666667,114.04580152671755,27C114.50381679389312,26.986666666666665,114.9618320610687,26.97333333333333,115.41984732824427,26.959999999999997C115.87786259541984,26.946666666666665,116.33587786259542,26.946666666666665,116.79389312977099,26.92C117.70992366412214,26.866666666666674,118.62595419847328,26.61333333333332,119.54198473282443,26.559999999999995C120,26.533333333333335,120.45801526717558,26.533333333333335,120.91603053435115,26.520000000000003C121.37404580152672,26.50666666666667,121.8320610687023,26.49333333333333,122.29007633587787,26.479999999999997C122.74809160305344,26.466666666666665,123.20610687022902,26.454666666666668,123.66412213740459,26.44C125.49618320610688,26.38133333333334,127.32824427480917,26.280000000000005,129.16030534351145,26.200000000000003C130.0763358778626,26.160000000000004,130.99236641221376,26.111111111111114,131.9083969465649,26.080000000000002C132.36641221374046,26.064444444444447,132.82442748091603,26.06,133.2824427480916,26.04C133.74045801526717,26.02,134.19847328244276,25.98,134.65648854961833,25.96C135.1145038167939,25.94,135.57251908396947,25.94666666666667,136.03053435114504,25.92C136.4885496183206,25.893333333333334,136.9465648854962,25.78666666666667,137.40458015267177,25.76C137.86259541984734,25.733333333333334,138.3206106870229,25.746666666666666,138.77862595419847,25.72C139.6946564885496,25.66666666666666,140.61068702290078,25.471111111111114,141.5267175572519,25.28C141.98473282442748,25.184444444444445,142.44274809160305,25.08,142.90076335877862,24.96C143.3587786259542,24.84,143.81679389312978,24.76,144.27480916030535,24.56C144.73282442748092,24.36,145.1908396946565,23.91999999999999,145.64885496183206,23.759999999999998C146.10687022900763,23.6,146.56488549618322,23.58666666666667,147.0229007633588,23.520000000000003C147.48091603053436,23.453333333333337,147.93893129770993,23.46666666666667,148.3969465648855,23.360000000000003C148.85496183206106,23.253333333333337,149.31297709923666,22.960000000000008,149.77099236641223,22.880000000000003C150.2290076335878,22.8,150.68702290076337,22.806666666666665,151.14503816793894,22.759999999999998C151.6030534351145,22.71333333333333,152.06106870229007,22.706666666666663,152.51908396946564,22.599999999999998C152.9770992366412,22.49333333333333,153.4351145038168,21.593333333333337,153.89312977099237,21.04C154.35114503816794,20.48666666666667,154.8091603053435,19.83333333333333,155.26717557251908,19.28C155.72519083969465,18.726666666666663,156.18320610687024,18.14666666666667,156.6412213740458,17.72C157.09923664122138,17.29333333333334,157.55725190839695,17.199999999999996,158.01526717557252,16.720000000000002C158.4732824427481,16.240000000000002,158.93129770992368,15.13333333333334,159.38931297709925,14.84C159.84732824427482,14.546666666666665,160.3053435114504,14.686666666666666,160.76335877862596,14.399999999999999C161.22137404580153,14.113333333333332,161.6793893129771,13.513333333333327,162.13740458015266,13.119999999999997C162.59541984732823,12.72666666666666,163.05343511450383,12.30666666666667,163.5114503816794,12.040000000000003C163.96946564885496,11.77333333333334,164.42748091603053,11.779999999999998,164.8854961832061,11.520000000000001C165.34351145038167,11.26,165.80152671755727,10.800000000000004,166.25954198473283,10.48C166.7175572519084,10.160000000000004,167.17557251908397,9.906666666666663,167.63358778625954,9.6C168.0916030534351,9.29333333333333,168.5496183206107,8.800000000000002,169.00763358778627,8.639999999999999C169.46564885496184,8.479999999999999,169.9236641221374,8.506666666666664,170.38167938931298,8.399999999999999C170.83969465648855,8.293333333333331,171.29770992366414,8.14,171.7557251908397,7.999999999999998C172.21374045801528,7.859999999999999,172.67175572519085,7.686666666666664,173.12977099236642,7.559999999999998C173.58778625954199,7.433333333333332,174.04580152671755,7.373333333333335,174.50381679389312,7.240000000000002C174.9618320610687,7.106666666666669,175.41984732824426,6.913333333333334,175.87786259541983,6.760000000000002C176.3358778625954,6.6066666666666665,176.793893129771,6.440000000000002,177.25190839694656,6.320000000000001C177.70992366412213,6.200000000000003,178.1679389312977,6.2266666666666675,178.62595419847327,6.040000000000001C179.08396946564883,5.85333333333333,179.54198473282443,5.246666666666665,180,4.64"></path><path class="axis-ceiling" stroke-width="1" stroke="black" fill="none" d="M175,0L180,0"></path><text class="axis-ceiling-label" font-family="sans-serif" text-anchor="end" font-size="10px" x="170" y="2.5">1000</text></g></svg>