<svg xmlns="http://www.w3.org/2000/svg" viewBox="0 0 180 60"><g transform="translate(0,20)"><path class="area" fill="rgba(0, 0, 0, 0.2)" d="M0,35.164C1.0169491525423728,35.135666666666665,2.0338983050847457,35.10733333333333,3.0508474576271185,35.08C4.067796610169491,35.05266666666667,5.084745762711864,35.02833333333333,6.101694915254237,35C7.11864406779661,34.971666666666664,8.135593220338983,34.93933333333334,9.152542372881356,34.910000000000004C10.169491525423728,34.88066666666667,11.186440677966102,34.85333333333333,12.203389830508474,34.824C13.220338983050846,34.794666666666664,14.23728813559322,34.76366666666666,15.254237288135592,34.733999999999995C16.271186440677965,34.70433333333333,17.28813559322034,34.674,18.305084745762713,34.646C19.322033898305087,34.618,20.338983050847457,34.59266666666667,21.35593220338983,34.566C22.372881355932204,34.53933333333333,23.389830508474574,34.51233333333333,24.406779661016948,34.486C25.423728813559322,34.459666666666664,26.440677966101696,34.43333333333334,27.45762711864407,34.408C28.47457627118644,34.382666666666665,29.491525423728813,34.35933333333333,30.508474576271183,34.333999999999996C31.525423728813557,34.30866666666666,32.54237288135593,34.282333333333334,33.559322033898304,34.256C34.57627118644068,34.22966666666667,35.59322033898305,34.202666666666666,36.610169491525426,34.176C37.6271186440678,34.14933333333334,38.644067796610166,34.12466666666667,39.66101694915254,34.096000000000004C40.67796610169491,34.06733333333334,41.69491525423729,34.03333333333333,42.71186440677966,34.004C43.728813559322035,33.974666666666664,44.7457627118644,33.949333333333335,45.762711864406775,33.92C46.77966101694915,33.89066666666667,47.79661016949152,33.861333333333334,48.813559322033896,33.828C49.83050847457627,33.79466666666667,50.847457627118644,33.756,51.86440677966102,33.72C52.88135593220339,33.684,53.898305084745765,33.65133333333333,54.91525423728814,33.612C55.93220338983051,33.57266666666667,56.94915254237288,33.52833333333333,57.96610169491525,33.483999999999995C58.983050847457626,33.43966666666666,59.99999999999999,33.39333333333334,61.01694915254237,33.346000000000004C62.03389830508474,33.29866666666667,63.05084745762712,33.25633333333333,64.0677966101695,33.199999999999996C65.08474576271186,33.14366666666666,66.10169491525424,33.074999999999996,67.11864406779661,33.007999999999996C68.13559322033899,32.940999999999995,69.15254237288136,32.86833333333333,70.16949152542374,32.798C71.1864406779661,32.72766666666667,72.20338983050848,32.66133333333333,73.22033898305085,32.586C74.23728813559322,32.510666666666665,75.2542372881356,32.42699999999999,76.27118644067797,32.346C77.28813559322033,32.265,78.30508474576271,32.18566666666667,79.32203389830508,32.1C80.33898305084746,32.01433333333333,81.35593220338983,31.924000000000003,82.37288135593221,31.832C83.38983050847457,31.740000000000002,84.40677966101696,31.641666666666666,85.42372881355932,31.548C86.4406779661017,31.45433333333333,87.45762711864407,31.364666666666665,88.47457627118645,31.269999999999996C89.49152542372882,31.17533333333333,90.50847457627118,31.080666666666662,91.52542372881355,30.979999999999997C92.54237288135593,30.87933333333333,93.55932203389831,30.774666666666672,94.57627118644069,30.666000000000004C95.59322033898306,30.55733333333334,96.61016949152543,30.445,97.62711864406779,30.328C98.64406779661016,30.211,99.66101694915254,30.090999999999998,100.6779661016949,29.964C101.69491525423729,29.837,102.71186440677965,29.712,103.72881355932203,29.566C104.7457627118644,29.419999999999998,105.76271186440678,29.257666666666665,106.77966101694915,29.088C107.79661016949153,28.918333333333333,108.8135593220339,28.735000000000003,109.83050847457628,28.548000000000002C110.84745762711864,28.361,111.86440677966102,28.17733333333333,112.88135593220339,27.965999999999998C113.89830508474576,27.754666666666665,114.91525423728814,27.522,115.9322033898305,27.279999999999998C116.94915254237289,27.037999999999997,117.96610169491525,26.776666666666664,118.98305084745763,26.513999999999996C120,26.25133333333333,121.01694915254237,25.97933333333333,122.03389830508473,25.704C123.05084745762711,25.428666666666665,124.0677966101695,25.145000000000003,125.08474576271188,24.862000000000002C126.10169491525424,24.579000000000004,127.11864406779662,24.287000000000003,128.135593220339,24.006C129.15254237288136,23.725,130.16949152542372,23.467000000000002,131.1864406779661,23.176000000000002C132.20338983050846,22.885,133.22033898305085,22.566333333333333,134.23728813559322,22.259999999999998C135.25423728813558,21.953666666666663,136.27118644067798,21.662333333333333,137.28813559322035,21.338C138.3050847457627,21.01366666666667,139.3220338983051,20.66466666666667,140.33898305084747,20.314C141.35593220338984,19.963333333333335,142.3728813559322,19.601333333333333,143.38983050847457,19.234C144.40677966101694,18.866666666666667,145.42372881355934,18.496000000000002,146.4406779661017,18.11C147.45762711864407,17.724,148.47457627118644,17.335,149.4915254237288,16.918000000000003C150.50847457627117,16.501,151.52542372881356,16.05466666666667,152.54237288135593,15.608C153.5593220338983,15.161333333333333,154.5762711864407,14.699333333333335,155.59322033898306,14.238C156.61016949152543,13.776666666666667,157.6271186440678,13.308999999999996,158.64406779661016,12.839999999999998C159.66101694915253,12.370999999999995,160.67796610169492,11.926333333333332,161.6949152542373,11.424C162.71186440677965,10.921666666666667,163.72881355932205,10.368000000000002,164.74576271186442,9.826C165.76271186440678,9.284000000000002,166.77966101694915,8.741666666666664,167.79661016949152,8.172C168.81355932203388,7.602333333333331,169.83050847457628,7.0103333333333335,170.84745762711864,6.408C171.864406779661,5.805666666666667,172.8813559322034,5.198666666666666,173.89830508474577,4.558C174.91525423728814,3.9173333333333336,175.93220338983053,3.2376666666666716,176.9491525423729,2.564000000000002C177.96610169491527,1.8903333333333383,178.98305084745763,1.2031666666666694,180,0.5160000000000009L180,40C178.98305084745763,40,177.96610169491527,40,176.9491525423729,40C175.93220338983053,40,174.91525423728814,40,173.89830508474577,40C172.8813559322034,40,171.864406779661,40,170.84745762711864,40C169.83050847457628,40,168.81355932203388,40,167.79661016949152,40C166.77966101694915,40,165.76271186440678,40,164.74576271186442,40C163.72881355932205,40,162.71186440677965,40,161.6949152542373,40C160.67796610169492,40,159.66101694915253,40,158.64406779661016,40C157.6271186440678,40,156.61016949152543,40,155.59322033898306,40C154.5762711864407,40,153.5593220338983,40,152.54237288135593,40C151.52542372881356,40,150.50847457627117,40,149.4915254237288,40C148.47457627118644,40,147.45762711864407,40,146.4406779661017,40C145.42372881355934,40,144.40677966101694,40,143.38983050847457,40C142.3728813559322,40,141.35593220338984,40,140.33898305084747,40C139.3220338983051,40,138.3050847457627,40,137.28813559322035,40C136.27118644067798,40,135.25423728813558,40,134.23728813559322,40C133.22033898305085,40,132.20338983050846,40,131.1864406779661,40C130.16949152542372,40,129.15254237288136,40,128.135593220339,40C127.11864406779662,40,126.10169491525424,40,125.08474576271188,40C124.0677966101695,40,123.05084745762711,40,122.03389830508473,40C121.01694915254237,40,120,40,118.98305084745763,40C117.96610169491525,40,116.94915254237289,40,115.9322033898305,40C114.91525423728814,40,113.89830508474576,40,112.88135593220339,40C111.86440677966102,40,110.84745762711864,40,109.83050847457628,40C108.8135593220339,40,107.79661016949153,40,106.77966101694915,40C105.76271186440678,40,104.7457627118644,40,103.72881355932203,40C102.71186440677965,40,101.69491525423729,40,100.6779661016949,40C99.66101694915254,40,98.64406779661016,40,97.62711864406779,40C96.61016949152543,40,95.59322033898306,40,94.57627118644069,40C93.55932203389831,40,92.54237288135593,40,91.52542372881355,40C90.50847457627118,40,89.49152542372882,40,88.47457627118645,40C87.45762711864407,40,86.4406779661017,40,85.42372881355932,40C84.40677966101696,40,83.38983050847457,40,82.37288135593221,40C81.35593220338983,40,80.33898305084746,40,79.32203389830508,40C78.30508474576271,40,77.28813559322033,40,76.27118644067797,40C75.2542372881356,40,74.23728813559322,40,73.22033898305085,40C72.20338983050848,40,71.1864406779661,40,70.16949152542374,40C69.15254237288136,40,68.13559322033899,40,67.11864406779661,40C66.10169491525424,40,65.08474576271186,40,64.0677966101695,40C63.05084745762712,40,62.03389830508474,40,61.01694915254237,40C59.99999999999999,40,58.983050847457626,40,57.96610169491525,40C56.94915254237288,40,55.93220338983051,40,54.91525423728814,40C53.898305084745765,40,52.88135593220339,40,51.86440677966102,40C50.847457627118644,40,49.83050847457627,40,48.813559322033896,40C47.79661016949152,40,46.77966101694915,40,45.762711864406775,40C44.7457627118644,40,43.728813559322035,40,42.71186440677966,40C41.69491525423729,40,40.67796610169491,40,39.66101694915254,40C38.644067796610166,40,37.6271186440678,40,36.610169491525426,40C35.59322033898305,40,34.57627118644068,40,33.559322033898304,40C32.54237288135593,40,31.525423728813557,40,30.508474576271183,40C29.491525423728813,40,28.47457627118644,40,27.45762711864407,40C26.440677966101696,40,25.423728813559322,40,24.406779661016948,40C23.389830508474574,40,22.372881355932204,40,21.35593220338983,40C20.338983050847457,40,19.322033898305087,40,18.305084745762713,40C17.28813559322034,40,16.271186440677965,40,15.254237288135592,40C14.23728813559322,40,13.220338983050846,40,12.203389830508474,40C11.186440677966102,40,10.169491525423728,40,9.152542372881356,40C8.135593220338983,40,7.11864406779661,40,6.101694915254237,40C5.084745762711864,40,4.067796610169491,40,3.0508474576271185,40C2.0338983050847457,40,1.0169491525423728,40,0,40Z"></path><path class="line" stroke="black" fill="none" d="M0,35.164C1.0169491525423728,35.135666666666665,2.0338983050847457,35.10733333333333,3.0508474576271185,35.08C4.067796610169491,35.05266666666667,5.084745762711864,35.02833333333333,6.101694915254237,35C7.11864406779661,34.971666666666664,8.135593220338983,34.93933333333334,9.152542372881356,34.910000000000004C10.169491525423728,34.88066666666667,11.186440677966102,34.85333333333333,12.203389830508474,34.824C13.220338983050846,34.794666666666664,14.23728813559322,34.76366666666666,15.254237288135592,34.733999999999995C16.271186440677965,34.70433333333333,17.28813559322034,34.674,18.305084745762713,34.646C19.322033898305087,34.618,20.338983050847457,34.59266666666667,21.35593220338983,34.566C22.372881355932204,34.53933333333333,23.389830508474574,34.51233333333333,24.406779661016948,34.486C25.423728813559322,34.459666666666664,26.440677966101696,34.43333333333334,27.45762711864407,34.408C28.47457627118644,34.382666666666665,29.491525423728813,34.35933333333333,30.508474576271183,34.333999999999996C31.525423728813557,34.30866666666666,32.54237288135593,34.282333333333334,33.559322033898304,34.256C34.57627118644068,34.22966666666667,35.59322033898305,34.202666666666666,36.610169491525426,34.176C37.6271186440678,34.14933333333334,38.644067796610166,34.12466666666667,39.66101694915254,34.096000000000004C40.67796610169491,34.06733333333334,41.69491525423729,34.03333333333333,42.71186440677966,34.004C43.728813559322035,33.974666666666664,44.7457627118644,33.949333333333335,45.762711864406775,33.92C46.77966101694915,33.89066666666667,47.79661016949152,33.861333333333334,48.813559322033896,33.828C49.83050847457627,33.79466666666667,50.847457627118644,33.756,51.86440677966102,33.72C52.88135593220339,33.684,53.898305084745765,33.65133333333333,54.91525423728814,33.612C55.93220338983051,33.57266666666667,56.94915254237288,33.52833333333333,57.96610169491525,33.483999999999995C58.983050847457626,33.43966666666666,59.99999999999999,33.39333333333334,61.01694915254237,33.346000000000004C62.03389830508474,33.29866666666667,63.05084745762712,33.25633333333333,64.0677966101695,33.199999999999996C65.08474576271186,33.14366666666666,66.10169491525424,33.074999999999996,67.11864406779661,33.007999999999996C68.13559322033899,32.940999999999995,69.15254237288136,32.86833333333333,70.16949152542374,32.798C71.1864406779661,32.72766666666667,72.20338983050848,32.66133333333333,73.22033898305085,32.586C74.23728813559322,32.510666666666665,75.2542372881356,32.42699999999999,76.27118644067797,32.346C77.28813559322033,32.265,78.30508474576271,32.18566666666667,79.32203389830508,32.1C80.33898305084746,32.01433333333333,81.35593220338983,31.924000000000003,82.37288135593221,31.832C83.38983050847457,31.740000000000002,84.40677966101696,31.641666666666666,85.42372881355932,31.548C86.4406779661017,31.45433333333333,87.45762711864407,31.364666666666665,88.47457627118645,31.269999999999996C89.49152542372882,31.17533333333333,90.50847457627118,31.080666666666662,91.52542372881355,30.979999999999997C92.54237288135593,30.87933333333333,93.55932203389831,30.774666666666672,94.57627118644069,30.666000000000004C95.59322033898306,30.55733333333334,96.61016949152543,30.445,97.62711864406779,30.328C98.64406779661016,30.211,99.66101694915254,30.090999999999998,100.6779661016949,29.964C101.69491525423729,29.837,102.71186440677965,29.712,103.72881355932203,29.566C104.7457627118644,29.419999999999998,105.76271186440678,29.257666666666665,106.77966101694915,29.088C107.79661016949153,28.918333333333333,108.8135593220339,28.735000000000003,109.83050847457628,28.548000000000002C110.84745762711864,28.361,111.86440677966102,28.17733333333333,112.88135593220339,27.965999999999998C113.89830508474576,27.754666666666665,114.91525423728814,27.522,115.9322033898305,27.279999999999998C116.94915254237289,27.037999999999997,117.96610169491525,26.776666666666664,118.98305084745763,26.513999999999996C120,26.25133333333333,121.01694915254237,25.97933333333333,122.03389830508473,25.704C123.05084745762711,25.428666666666665,124.0677966101695,25.145000000000003,125.08474576271188,24.862000000000002C126.10169491525424,24.579000000000004,127.11864406779662,24.287000000000003,128.135593220339,24.006C129.15254237288136,23.725,130.16949152542372,23.467000000000002,131.1864406779661,23.176000000000002C132.20338983050846,22.885,133.22033898305085,22.566333333333333,134.23728813559322,22.259999999999998C135.25423728813558,21.953666666666663,136.27118644067798,21.662333333333333,137.28813559322035,21.338C138.3050847457627,21.01366666666667,139.3220338983051,20.66466666666667,140.33898305084747,20.314C141.35593220338984,19.963333333333335,142.3728813559322,19.601333333333333,143.38983050847457,19.234C144.40677966101694,18.866666666666667,145.42372881355934,18.496000000000002,146.4406779661017,18.11C147.45762711864407,17.724,148.47457627118644,17.335,149.4915254237288,16.918000000000003C150.50847457627117,16.501,151.52542372881356,16.05466666666667,152.54237288135593,15.608C153.5593220338983,15.161333333333333,154.5762711864407,14.699333333333335,155.59322033898306,14.238C156.61016949152543,13.776666666666667,157.6271186440678,13.308999999999996,158.64406779661016,12.839999999999998C159.66101694915253,12.370999999999995,160.67796610169492,11.926333333333332,161.6949152542373,11.424C162.71186440677965,10.921666666666667,163.72881355932205,10.368000000000002,164.74576271186442,9.826C165.76271186440678,9.284000000000002,166.77966101694915,8.741666666666664,167.79661016949152,8.172C168.81355932203388,7.602333333333331,169.83050847457628,7.0103333333333335,170.84745762711864,6.408C171.864406779661,5.805666666666667,172.8813559322034,5.198666666666666,173.89830508474577,4.558C174.91525423728814,3.9173333333333336,175.93220338983053,3.2376666666666716,176.9491525423729,2.564000000000002C177.96610169491527,1.8903333333333383,178.98305084745763,1.2031666666666694,180,0.5160000000000009"></path><path class="axis-ceiling" stroke-width="1" stroke="black" fill="none" d="M175,0L180,0"></path><text class="axis-ceiling-label" font-family="sans-serif" text-anchor="end" font-size="10px" x="170" y="2.5">20000</text></g></svg>