<svg xmlns="http://www.w3.org/2000/svg" viewBox="0 0 180 60"><g transform="translate(0,20)"><path class="area" fill="rgba(0, 0, 0, 0.2)" d="M0,40C1.3636363636363635,40,2.7272727272727275,40,4.090909090909091,40C4.318181818181818,40,4.545454545454545,39.91111111111111,4.7727272727272725,39.86666666666667C5,39.82222222222222,5.2272727272727275,39.73369913123,5.454545454545455,39.733333333333334C60.68181818181818,39.644444444444446,115.90909090909093,39.68888888888889,171.13636363636365,39.6C171.36363636363637,39.59963420210334,171.5909090909091,39.55555555555556,171.8181818181818,39.46666666666667C172.04545454545453,39.37777777777777,172.27272727272728,38.955555555555556,172.5,38.53333333333333C172.72727272727272,38.11111111111111,172.95454545454547,37.57777777777778,173.1818181818182,36.93333333333334C173.4090909090909,36.28888888888889,173.63636363636365,35.51111111111112,173.86363636363637,34.66666666666667C174.0909090909091,33.82222222222222,174.31818181818184,32.933333333333366,174.54545454545456,31.866666666666667C174.77272727272728,30.800000000000015,175,29.511111111111084,175.22727272727272,28.266666666666666C175.45454545454544,27.022222222222197,175.6818181818182,25.777777777777775,175.9090909090909,24.4C176.13636363636363,23.022222222222222,176.36363636363637,21.444444444444443,176.5909090909091,20C176.8181818181818,18.555555555555557,177.04545454545456,17.044444444444444,177.27272727272728,15.733333333333333C177.5,14.42222222222222,177.72727272727275,13.311111111111133,177.95454545454547,12.133333333333333C178.1818181818182,10.95555555555558,178.4090909090909,9.79999999999998,178.63636363636363,8.666666666666668C178.86363636363635,7.53333333333331,179.0909090909091,6.377777777777776,179.3181818181818,5.333333333333332C179.54545454545453,4.288888888888888,179.77272727272728,3.344444444444445,180,2.400000000000002L180,40C179.77272727272728,40,179.54545454545453,40,179.3181818181818,40C179.0909090909091,40,178.86363636363635,40,178.63636363636363,40C178.4090909090909,40,178.1818181818182,40,177.95454545454547,40C177.72727272727275,40,177.5,40,177.27272727272728,40C177.04545454545456,40,176.8181818181818,40,176.5909090909091,40C176.36363636363637,40,176.13636363636363,40,175.9090909090909,40C175.6818181818182,40,175.45454545454544,40,175.22727272727272,40C175,40,174.77272727272728,40,174.54545454545456,40C174.31818181818184,40,174.0909090909091,40,173.86363636363637,40C173.63636363636365,40,173.4090909090909,40,173.1818181818182,40C172.95454545454547,40,172.72727272727272,40,172.5,40C172.27272727272728,40,172.04545454545453,40,171.8181818181818,40C171.5909090909091,40,171.36363636363637,40,171.13636363636365,40C115.90909090909093,40,60.68181818181818,40,5.454545454545455,40C5.2272727272727275,40,5,40,4.7727272727272725,40C4.545454545454545,40,4.318181818181818,40,4.090909090909091,40C2.7272727272727275,40,1.3636363636363635,40,0,40Z"></path><path class="line" stroke="black" fill="none" d="M0,40C1.3636363636363635,40,2.7272727272727275,40,4.090909090909091,40C4.318181818181818,40,4.545454545454545,39.91111111111111,4.7727272727272725,39.86666666666667C5,39.82222222222222,5.2272727272727275,39.73369913123,5.454545454545455,39.733333333333334C60.68181818181818,39.644444444444446,115.90909090909093,39.68888888888889,171.13636363636365,39.6C171.36363636363637,39.59963420210334,171.5909090909091,39.55555555555556,171.8181818181818,39.46666666666667C172.04545454545453,39.37777777777777,172.27272727272728,38.955555555555556,172.5,38.53333333333333C172.72727272727272,38.11111111111111,172.95454545454547,37.57777777777778,173.1818181818182,36.93333333333334C173.4090909090909,36.28888888888889,173.63636363636365,35.51111111111112,173.86363636363637,34.66666666666667C174.0909090909091,33.82222222222222,174.31818181818184,32.933333333333366,174.54545454545456,31.866666666666667C174.77272727272728,30.800000000000015,175,29.511111111111084,175.22727272727272,28.266666666666666C175.45454545454544,27.022222222222197,175.6818181818182,25.777777777777775,175.9090909090909,24.4C176.13636363636363,23.022222222222222,176.36363636363637,21.444444444444443,176.5909090909091,20C176.8181818181818,18.555555555555557,177.04545454545456,17.044444444444444,177.27272727272728,15.733333333333333C177.5,14.42222222222222,177.72727272727275,13.311111111111133,177.95454545454547,12.133333333333333C178.1818181818182,10.95555555555558,178.4090909090909,9.79999999999998,178.63636363636363,8.666666666666668C178.86363636363635,7.53333333333331,179.0909090909091,6.377777777777776,179.3181818181818,5.333333333333332C179.54545454545453,4.288888888888888,179.77272727272728,3.344444444444445,180,2.400000000000002"></path><path class="axis-ceiling" stroke-width="1" stroke="black" fill="none" d="M175,0L180,0"></path><text class="axis-ceiling-label" font-family="sans-serif" text-anchor="end" font-size="10px" x="170" y="2.5">300</text></g></svg>