<svg xmlns="http://www.w3.org/2000/svg" viewBox="0 0 180 60"><g transform="translate(0,20)"><path class="area" fill="rgba(0, 0, 0, 0.2)" d="M0,36.064C1.0169491525423728,36.04333333333334,2.0338983050847457,36.022666666666666,3.0508474576271185,36C4.067796610169491,35.977333333333334,5.084745762711864,35.95146666666666,6.101694915254237,35.928C7.11864406779661,35.90453333333333,8.135593220338983,35.882666666666665,9.152542372881356,35.8592C10.169491525423728,35.83573333333334,11.186440677966102,35.81093333333333,12.203389830508474,35.7872C13.220338983050846,35.763466666666666,14.23728813559322,35.7392,15.254237288135592,35.7168C16.271186440677965,35.6944,17.28813559322034,35.67413333333333,18.305084745762713,35.6528C19.322033898305087,35.63146666666667,20.338983050847457,35.60986666666667,21.35593220338983,35.5888C22.372881355932204,35.56773333333333,23.389830508474574,35.54666666666667,24.406779661016948,35.5264C25.423728813559322,35.50613333333334,26.440677966101696,35.48746666666666,27.45762711864407,35.4672C28.47457627118644,35.446933333333334,29.491525423728813,35.425866666666664,30.508474576271183,35.4048C31.525423728813557,35.38373333333333,32.54237288135593,35.36213333333333,33.559322033898304,35.3408C34.57627118644068,35.31946666666667,35.59322033898305,35.299733333333336,36.610169491525426,35.2768C37.6271186440678,35.25386666666667,38.644067796610166,35.22666666666666,39.66101694915254,35.203199999999995C40.67796610169491,35.179733333333324,41.69491525423729,35.15946666666666,42.71186440677966,35.135999999999996C43.728813559322035,35.11253333333333,44.7457627118644,35.08906666666666,45.762711864406775,35.0624C46.77966101694915,35.03573333333333,47.79661016949152,35.004799999999996,48.813559322033896,34.976C49.83050847457627,34.9472,50.847457627118644,34.92106666666667,51.86440677966102,34.8896C52.88135593220339,34.858133333333335,53.898305084745765,34.82266666666666,54.91525423728814,34.7872C55.93220338983051,34.751733333333334,56.94915254237288,34.714666666666666,57.96610169491525,34.6768C58.983050847457626,34.638933333333334,59.99999999999999,34.605066666666666,61.01694915254237,34.56C62.03389830508474,34.51493333333334,63.05084745762712,34.46000000000001,64.0677966101695,34.406400000000005C65.08474576271186,34.3528,66.10169491525424,34.294666666666664,67.11864406779661,34.2384C68.13559322033899,34.18213333333333,69.15254237288136,34.12906666666667,70.16949152542374,34.0688C71.1864406779661,34.00853333333334,72.20338983050848,33.9416,73.22033898305085,33.8768C74.23728813559322,33.812000000000005,75.2542372881356,33.748533333333334,76.27118644067797,33.68C77.28813559322033,33.611466666666665,78.30508474576271,33.5392,79.32203389830508,33.4656C80.33898305084746,33.392,81.35593220338983,33.31333333333333,82.37288135593221,33.2384C83.38983050847457,33.163466666666665,84.40677966101696,33.09173333333333,85.42372881355932,33.016C86.4406779661017,32.940266666666666,87.45762711864407,32.864533333333334,88.47457627118645,32.784C89.49152542372882,32.703466666666664,90.50847457627118,32.619733333333336,91.52542372881355,32.5328C92.54237288135593,32.44586666666667,93.55932203389831,32.356,94.57627118644069,32.2624C95.59322033898306,32.1688,96.61016949152543,32.0728,97.62711864406779,31.9712C98.64406779661016,31.8696,99.66101694915254,31.769599999999997,100.6779661016949,31.6528C101.69491525423729,31.535999999999998,102.71186440677965,31.406133333333337,103.72881355932203,31.270400000000002C104.7457627118644,31.134666666666668,105.76271186440678,30.988,106.77966101694915,30.8384C107.79661016949153,30.6888,108.8135593220339,30.541866666666664,109.83050847457628,30.372799999999998C110.84745762711864,30.203733333333332,111.86440677966102,30.0176,112.88135593220339,29.824C113.89830508474576,29.6304,114.91525423728814,29.421333333333333,115.9322033898305,29.2112C116.94915254237289,29.001066666666667,117.96610169491525,28.78346666666667,118.98305084745763,28.563200000000002C120,28.342933333333335,121.01694915254237,28.116,122.03389830508473,27.8896C123.05084745762711,27.6632,124.0677966101695,27.429600000000004,125.08474576271188,27.204800000000002C126.10169491525424,26.980000000000004,127.11864406779662,26.773600000000002,128.135593220339,26.5408C129.15254237288136,26.308,130.16949152542372,26.053066666666666,131.1864406779661,25.808C132.20338983050846,25.562933333333334,133.22033898305085,25.329866666666668,134.23728813559322,25.0704C135.25423728813558,24.81093333333333,136.27118644067798,24.53173333333333,137.28813559322035,24.251199999999997C138.3050847457627,23.970666666666663,139.3220338983051,23.681066666666666,140.33898305084747,23.3872C141.35593220338984,23.093333333333334,142.3728813559322,22.796799999999998,143.38983050847457,22.488C144.40677966101694,22.179199999999998,145.42372881355934,21.868,146.4406779661017,21.534399999999998C147.45762711864407,21.200799999999997,148.47457627118644,20.84373333333333,149.4915254237288,20.486399999999996C150.50847457627117,20.129066666666663,151.52542372881356,19.759466666666665,152.54237288135593,19.3904C153.5593220338983,19.021333333333335,154.5762711864407,18.6472,155.59322033898306,18.272C156.61016949152543,17.8968,157.6271186440678,17.541066666666662,158.64406779661016,17.1392C159.66101694915253,16.737333333333332,160.67796610169492,16.2944,161.6949152542373,15.8608C162.71186440677965,15.4272,163.72881355932205,14.993333333333334,164.74576271186442,14.5376C165.76271186440678,14.081866666666668,166.77966101694915,13.608266666666665,167.79661016949152,13.1264C168.81355932203388,12.644533333333332,169.83050847457628,12.158933333333334,170.84745762711864,11.6464C171.864406779661,11.133866666666666,172.8813559322034,10.590133333333332,173.89830508474577,10.051199999999998C174.91525423728814,9.512266666666664,175.93220338983053,8.9752,176.9491525423729,8.412799999999997C177.96610169491527,7.8504,178.98305084745763,7.263599999999999,180,6.676799999999998L180,40C178.98305084745763,40,177.96610169491527,40,176.9491525423729,40C175.93220338983053,40,174.91525423728814,40,173.89830508474577,40C172.8813559322034,40,171.864406779661,40,170.84745762711864,40C169.83050847457628,40,168.81355932203388,40,167.79661016949152,40C166.77966101694915,40,165.76271186440678,40,164.74576271186442,40C163.72881355932205,40,162.71186440677965,40,161.6949152542373,40C160.67796610169492,40,159.66101694915253,40,158.64406779661016,40C157.6271186440678,40,156.61016949152543,40,155.59322033898306,40C154.5762711864407,40,153.5593220338983,40,152.54237288135593,40C151.52542372881356,40,150.50847457627117,40,149.4915254237288,40C148.47457627118644,40,147.45762711864407,40,146.4406779661017,40C145.42372881355934,40,144.40677966101694,40,143.38983050847457,40C142.3728813559322,40,141.35593220338984,40,140.33898305084747,40C139.3220338983051,40,138.3050847457627,40,137.28813559322035,40C136.27118644067798,40,135.25423728813558,40,134.23728813559322,40C133.22033898305085,40,132.20338983050846,40,131.1864406779661,40C130.16949152542372,40,129.15254237288136,40,128.135593220339,40C127.11864406779662,40,126.10169491525424,40,125.08474576271188,40C124.0677966101695,40,123.05084745762711,40,122.03389830508473,40C121.01694915254237,40,120,40,118.98305084745763,40C117.96610169491525,40,116.94915254237289,40,115.9322033898305,40C114.91525423728814,40,113.89830508474576,40,112.88135593220339,40C111.86440677966102,40,110.84745762711864,40,109.83050847457628,40C108.8135593220339,40,107.79661016949153,40,106.77966101694915,40C105.76271186440678,40,104.7457627118644,40,103.72881355932203,40C102.71186440677965,40,101.69491525423729,40,100.6779661016949,40C99.66101694915254,40,98.64406779661016,40,97.62711864406779,40C96.61016949152543,40,95.59322033898306,40,94.57627118644069,40C93.55932203389831,40,92.54237288135593,40,91.52542372881355,40C90.50847457627118,40,89.49152542372882,40,88.47457627118645,40C87.45762711864407,40,86.4406779661017,40,85.42372881355932,40C84.40677966101696,40,83.38983050847457,40,82.37288135593221,40C81.35593220338983,40,80.33898305084746,40,79.32203389830508,40C78.30508474576271,40,77.28813559322033,40,76.27118644067797,40C75.2542372881356,40,74.23728813559322,40,73.22033898305085,40C72.20338983050848,40,71.1864406779661,40,70.16949152542374,40C69.15254237288136,40,68.13559322033899,40,67.11864406779661,40C66.10169491525424,40,65.08474576271186,40,64.0677966101695,40C63.05084745762712,40,62.03389830508474,40,61.01694915254237,40C59.99999999999999,40,58.983050847457626,40,57.96610169491525,40C56.94915254237288,40,55.93220338983051,40,54.91525423728814,40C53.898305084745765,40,52.88135593220339,40,51.86440677966102,40C50.847457627118644,40,49.83050847457627,40,48.813559322033896,40C47.79661016949152,40,46.77966101694915,40,45.762711864406775,40C44.7457627118644,40,43.728813559322035,40,42.71186440677966,40C41.69491525423729,40,40.67796610169491,40,39.66101694915254,40C38.644067796610166,40,37.6271186440678,40,36.610169491525426,40C35.59322033898305,40,34.57627118644068,40,33.559322033898304,40C32.54237288135593,40,31.525423728813557,40,30.508474576271183,40C29.491525423728813,40,28.47457627118644,40,27.45762711864407,40C26.440677966101696,40,25.423728813559322,40,24.406779661016948,40C23.389830508474574,40,22.372881355932204,40,21.35593220338983,40C20.338983050847457,40,19.322033898305087,40,18.305084745762713,40C17.28813559322034,40,16.271186440677965,40,15.254237288135592,40C14.23728813559322,40,13.220338983050846,40,12.203389830508474,40C11.186440677966102,40,10.169491525423728,40,9.152542372881356,40C8.135593220338983,40,7.11864406779661,40,6.101694915254237,40C5.084745762711864,40,4.067796610169491,40,3.0508474576271185,40C2.0338983050847457,40,1.0169491525423728,40,0,40Z"></path><path class="line" stroke="black" fill="none" d="M0,36.064C1.0169491525423728,36.04333333333334,2.0338983050847457,36.022666666666666,3.0508474576271185,36C4.067796610169491,35.977333333333334,5.084745762711864,35.95146666666666,6.101694915254237,35.928C7.11864406779661,35.90453333333333,8.135593220338983,35.882666666666665,9.152542372881356,35.8592C10.169491525423728,35.83573333333334,11.186440677966102,35.81093333333333,12.203389830508474,35.7872C13.220338983050846,35.763466666666666,14.23728813559322,35.7392,15.254237288135592,35.7168C16.271186440677965,35.6944,17.28813559322034,35.67413333333333,18.305084745762713,35.6528C19.322033898305087,35.63146666666667,20.338983050847457,35.60986666666667,21.35593220338983,35.5888C22.372881355932204,35.56773333333333,23.389830508474574,35.54666666666667,24.406779661016948,35.5264C25.423728813559322,35.50613333333334,26.440677966101696,35.48746666666666,27.45762711864407,35.4672C28.47457627118644,35.446933333333334,29.491525423728813,35.425866666666664,30.508474576271183,35.4048C31.525423728813557,35.38373333333333,32.54237288135593,35.36213333333333,33.559322033898304,35.3408C34.57627118644068,35.31946666666667,35.59322033898305,35.299733333333336,36.610169491525426,35.2768C37.6271186440678,35.25386666666667,38.644067796610166,35.22666666666666,39.66101694915254,35.203199999999995C40.67796610169491,35.179733333333324,41.69491525423729,35.15946666666666,42.71186440677966,35.135999999999996C43.728813559322035,35.11253333333333,44.7457627118644,35.08906666666666,45.762711864406775,35.0624C46.77966101694915,35.03573333333333,47.79661016949152,35.004799999999996,48.813559322033896,34.976C49.83050847457627,34.9472,50.847457627118644,34.92106666666667,51.86440677966102,34.8896C52.88135593220339,34.858133333333335,53.898305084745765,34.82266666666666,54.91525423728814,34.7872C55.93220338983051,34.751733333333334,56.94915254237288,34.714666666666666,57.96610169491525,34.6768C58.983050847457626,34.638933333333334,59.99999999999999,34.605066666666666,61.01694915254237,34.56C62.03389830508474,34.51493333333334,63.05084745762712,34.46000000000001,64.0677966101695,34.406400000000005C65.08474576271186,34.3528,66.10169491525424,34.294666666666664,67.11864406779661,34.2384C68.13559322033899,34.18213333333333,69.15254237288136,34.12906666666667,70.16949152542374,34.0688C71.1864406779661,34.00853333333334,72.20338983050848,33.9416,73.22033898305085,33.8768C74.23728813559322,33.812000000000005,75.2542372881356,33.748533333333334,76.27118644067797,33.68C77.28813559322033,33.611466666666665,78.30508474576271,33.5392,79.32203389830508,33.4656C80.33898305084746,33.392,81.35593220338983,33.31333333333333,82.37288135593221,33.2384C83.38983050847457,33.163466666666665,84.40677966101696,33.09173333333333,85.42372881355932,33.016C86.4406779661017,32.940266666666666,87.45762711864407,32.864533333333334,88.47457627118645,32.784C89.49152542372882,32.703466666666664,90.50847457627118,32.619733333333336,91.52542372881355,32.5328C92.54237288135593,32.44586666666667,93.55932203389831,32.356,94.57627118644069,32.2624C95.59322033898306,32.1688,96.61016949152543,32.0728,97.62711864406779,31.9712C98.64406779661016,31.8696,99.66101694915254,31.769599999999997,100.6779661016949,31.6528C101.69491525423729,31.535999999999998,102.71186440677965,31.406133333333337,103.72881355932203,31.270400000000002C104.7457627118644,31.134666666666668,105.76271186440678,30.988,106.77966101694915,30.8384C107.79661016949153,30.6888,108.8135593220339,30.541866666666664,109.83050847457628,30.372799999999998C110.84745762711864,30.203733333333332,111.86440677966102,30.0176,112.88135593220339,29.824C113.89830508474576,29.6304,114.91525423728814,29.421333333333333,115.9322033898305,29.2112C116.94915254237289,29.001066666666667,117.96610169491525,28.78346666666667,118.98305084745763,28.563200000000002C120,28.342933333333335,121.01694915254237,28.116,122.03389830508473,27.8896C123.05084745762711,27.6632,124.0677966101695,27.429600000000004,125.08474576271188,27.204800000000002C126.10169491525424,26.980000000000004,127.11864406779662,26.773600000000002,128.135593220339,26.5408C129.15254237288136,26.308,130.16949152542372,26.053066666666666,131.1864406779661,25.808C132.20338983050846,25.562933333333334,133.22033898305085,25.329866666666668,134.23728813559322,25.0704C135.25423728813558,24.81093333333333,136.27118644067798,24.53173333333333,137.28813559322035,24.251199999999997C138.3050847457627,23.970666666666663,139.3220338983051,23.681066666666666,140.33898305084747,23.3872C141.35593220338984,23.093333333333334,142.3728813559322,22.796799999999998,143.38983050847457,22.488C144.40677966101694,22.179199999999998,145.42372881355934,21.868,146.4406779661017,21.534399999999998C147.45762711864407,21.200799999999997,148.47457627118644,20.84373333333333,149.4915254237288,20.486399999999996C150.50847457627117,20.129066666666663,151.52542372881356,19.759466666666665,152.54237288135593,19.3904C153.5593220338983,19.021333333333335,154.5762711864407,18.6472,155.59322033898306,18.272C156.61016949152543,17.8968,157.6271186440678,17.541066666666662,158.64406779661016,17.1392C159.66101694915253,16.737333333333332,160.67796610169492,16.2944,161.6949152542373,15.8608C162.71186440677965,15.4272,163.72881355932205,14.993333333333334,164.74576271186442,14.5376C165.76271186440678,14.081866666666668,166.77966101694915,13.608266666666665,167.79661016949152,13.1264C168.81355932203388,12.644533333333332,169.83050847457628,12.158933333333334,170.84745762711864,11.6464C171.864406779661,11.133866666666666,172.8813559322034,10.590133333333332,173.89830508474577,10.051199999999998C174.91525423728814,9.512266666666664,175.93220338983053,8.9752,176.9491525423729,8.412799999999997C177.96610169491527,7.8504,178.98305084745763,7.263599999999999,180,6.676799999999998"></path><path class="axis-ceiling" stroke-width="1" stroke="black" fill="none" d="M175,0L180,0"></path><text class="axis-ceiling-label" font-family="sans-serif" text-anchor="end" font-size="10px" x="170" y="2.5">25000</text></g></svg>