<svg xmlns="http://www.w3.org/2000/svg" viewBox="0 0 180 60"><g transform="translate(0,20)"><path class="area" fill="rgba(0, 0, 0, 0.2)" d="M0,35.1216C1.0169491525423728,35.03073333333333,2.0338983050847457,34.93986666666667,3.0508474576271185,34.8476C4.067796610169491,34.75533333333333,5.084745762711864,34.6618,6.101694915254237,34.568C7.11864406779661,34.474199999999996,8.135593220338983,34.385266666666666,9.152542372881356,34.2848C10.169491525423728,34.18433333333333,11.186440677966102,34.0736,12.203389830508474,33.965199999999996C13.220338983050846,33.85679999999999,14.23728813559322,33.748333333333335,15.254237288135592,33.6344C16.271186440677965,33.520466666666664,17.28813559322034,33.40206666666666,18.305084745762713,33.2816C19.322033898305087,33.16113333333333,20.338983050847457,33.03973333333333,21.35593220338983,32.9116C22.372881355932204,32.78346666666667,23.389830508474574,32.64753333333333,24.406779661016948,32.5128C25.423728813559322,32.37806666666666,26.440677966101696,32.2438,27.45762711864407,32.1032C28.47457627118644,31.962600000000002,29.491525423728813,31.813333333333336,30.508474576271183,31.669200000000004C31.525423728813557,31.52506666666667,32.54237288135593,31.3876,33.559322033898304,31.2384C34.57627118644068,31.089199999999998,35.59322033898305,30.930266666666668,36.610169491525426,30.774C37.6271186440678,30.617733333333334,38.644067796610166,30.461266666666667,39.66101694915254,30.3008C40.67796610169491,30.14033333333333,41.69491525423729,29.9736,42.71186440677966,29.8112C43.728813559322035,29.6488,44.7457627118644,29.487733333333335,45.762711864406775,29.3264C46.77966101694915,29.165066666666664,47.79661016949152,29.002266666666664,48.813559322033896,28.843199999999996C49.83050847457627,28.684133333333328,50.847457627118644,28.529,51.86440677966102,28.372C52.88135593220339,28.215,53.898305084745765,28.0552,54.91525423728814,27.9012C55.93220338983051,27.7472,56.94915254237288,27.59993333333333,57.96610169491525,27.447999999999997C58.983050847457626,27.296066666666665,59.99999999999999,27.142866666666663,61.01694915254237,26.9896C62.03389830508474,26.836333333333332,63.05084745762712,26.68133333333334,64.0677966101695,26.528400000000005C65.08474576271186,26.37546666666667,66.10169491525424,26.224666666666664,67.11864406779661,26.071999999999996C68.13559322033899,25.919333333333327,69.15254237288136,25.764799999999997,70.16949152542374,25.612399999999997C71.1864406779661,25.459999999999997,72.20338983050848,25.308733333333336,73.22033898305085,25.157600000000002C74.23728813559322,25.006466666666668,75.2542372881356,24.855666666666664,76.27118644067797,24.705599999999997C77.28813559322033,24.55553333333333,78.30508474576271,24.400666666666666,79.32203389830508,24.2572C80.33898305084746,24.113733333333336,81.35593220338983,23.977666666666668,82.37288135593221,23.8448C83.38983050847457,23.711933333333334,84.40677966101696,23.584600000000002,85.42372881355932,23.46C86.4406779661017,23.3354,87.45762711864407,23.215533333333333,88.47457627118645,23.0972C89.49152542372882,22.97886666666667,90.50847457627118,22.860666666666667,91.52542372881355,22.75C92.54237288135593,22.639333333333333,93.55932203389831,22.532866666666667,94.57627118644069,22.4332C95.59322033898306,22.333533333333335,96.61016949152543,22.2424,97.62711864406779,22.152C98.64406779661016,22.061600000000002,99.66101694915254,21.97573333333333,100.6779661016949,21.8908C101.69491525423729,21.805866666666663,102.71186440677965,21.722666666666665,103.72881355932203,21.6424C104.7457627118644,21.562133333333332,105.76271186440678,21.484466666666663,106.77966101694915,21.4092C107.79661016949153,21.33393333333333,108.8135593220339,21.262600000000003,109.83050847457628,21.190800000000003C110.84745762711864,21.119000000000003,111.86440677966102,21.048,112.88135593220339,20.978399999999997C113.89830508474576,20.908799999999996,114.91525423728814,20.842133333333337,115.9322033898305,20.773200000000003C116.94915254237289,20.70426666666667,117.96610169491525,20.633733333333335,118.98305084745763,20.5648C120,20.495866666666668,121.01694915254237,20.429000000000002,122.03389830508473,20.3596C123.05084745762711,20.2902,124.0677966101695,20.220066666666664,125.08474576271188,20.1484C126.10169491525424,20.076733333333333,127.11864406779662,20.002533333333332,128.135593220339,19.9296C129.15254237288136,19.85666666666667,130.16949152542372,19.78466666666667,131.1864406779661,19.710800000000003C132.20338983050846,19.636933333333335,133.22033898305085,19.56386666666667,134.23728813559322,19.486400000000003C135.25423728813558,19.408933333333337,136.27118644067798,19.3272,137.28813559322035,19.246C138.3050847457627,19.164799999999996,139.3220338983051,19.082666666666665,140.33898305084747,18.9992C141.35593220338984,18.915733333333332,142.3728813559322,18.8314,143.38983050847457,18.7452C144.40677966101694,18.659,145.42372881355934,18.570533333333334,146.4406779661017,18.482C147.45762711864407,18.393466666666665,148.47457627118644,18.30666666666667,149.4915254237288,18.214000000000002C150.50847457627117,18.121333333333336,151.52542372881356,18.024866666666668,152.54237288135593,17.926000000000002C153.5593220338983,17.827133333333336,154.5762711864407,17.724000000000004,155.59322033898306,17.620800000000003C156.61016949152543,17.5176,157.6271186440678,17.415866666666666,158.64406779661016,17.3068C159.66101694915253,17.197733333333332,160.67796610169492,17.0834,161.6949152542373,16.9664C162.71186440677965,16.8494,163.72881355932205,16.729200000000002,164.74576271186442,16.6048C165.76271186440678,16.4804,166.77966101694915,16.3542,167.79661016949152,16.22C168.81355932203388,16.0858,169.83050847457628,15.943533333333331,170.84745762711864,15.799599999999998C171.864406779661,15.655666666666665,172.8813559322034,15.506466666666665,173.89830508474577,15.356399999999999C174.91525423728814,15.206333333333333,175.93220338983053,15.0562,176.9491525423729,14.8992C177.96610169491527,14.742200000000002,178.98305084745763,14.5783,180,14.4144L180,40C178.98305084745763,40,177.96610169491527,40,176.9491525423729,40C175.93220338983053,40,174.91525423728814,40,173.89830508474577,40C172.8813559322034,40,171.864406779661,40,170.84745762711864,40C169.83050847457628,40,168.81355932203388,40,167.79661016949152,40C166.77966101694915,40,165.76271186440678,40,164.74576271186442,40C163.72881355932205,40,162.71186440677965,40,161.6949152542373,40C160.67796610169492,40,159.66101694915253,40,158.64406779661016,40C157.6271186440678,40,156.61016949152543,40,155.59322033898306,40C154.5762711864407,40,153.5593220338983,40,152.54237288135593,40C151.52542372881356,40,150.50847457627117,40,149.4915254237288,40C148.47457627118644,40,147.45762711864407,40,146.4406779661017,40C145.42372881355934,40,144.40677966101694,40,143.38983050847457,40C142.3728813559322,40,141.35593220338984,40,140.33898305084747,40C139.3220338983051,40,138.3050847457627,40,137.28813559322035,40C136.27118644067798,40,135.25423728813558,40,134.23728813559322,40C133.22033898305085,40,132.20338983050846,40,131.1864406779661,40C130.16949152542372,40,129.15254237288136,40,128.135593220339,40C127.11864406779662,40,126.10169491525424,40,125.08474576271188,40C124.0677966101695,40,123.05084745762711,40,122.03389830508473,40C121.01694915254237,40,120,40,118.98305084745763,40C117.96610169491525,40,116.94915254237289,40,115.9322033898305,40C114.91525423728814,40,113.89830508474576,40,112.88135593220339,40C111.86440677966102,40,110.84745762711864,40,109.83050847457628,40C108.8135593220339,40,107.79661016949153,40,106.77966101694915,40C105.76271186440678,40,104.7457627118644,40,103.72881355932203,40C102.71186440677965,40,101.69491525423729,40,100.6779661016949,40C99.66101694915254,40,98.64406779661016,40,97.62711864406779,40C96.61016949152543,40,95.59322033898306,40,94.57627118644069,40C93.55932203389831,40,92.54237288135593,40,91.52542372881355,40C90.50847457627118,40,89.49152542372882,40,88.47457627118645,40C87.45762711864407,40,86.4406779661017,40,85.42372881355932,40C84.40677966101696,40,83.38983050847457,40,82.37288135593221,40C81.35593220338983,40,80.33898305084746,40,79.32203389830508,40C78.30508474576271,40,77.28813559322033,40,76.27118644067797,40C75.2542372881356,40,74.23728813559322,40,73.22033898305085,40C72.20338983050848,40,71.1864406779661,40,70.16949152542374,40C69.15254237288136,40,68.13559322033899,40,67.11864406779661,40C66.10169491525424,40,65.08474576271186,40,64.0677966101695,40C63.05084745762712,40,62.03389830508474,40,61.01694915254237,40C59.99999999999999,40,58.983050847457626,40,57.96610169491525,40C56.94915254237288,40,55.93220338983051,40,54.91525423728814,40C53.898305084745765,40,52.88135593220339,40,51.86440677966102,40C50.847457627118644,40,49.83050847457627,40,48.813559322033896,40C47.79661016949152,40,46.77966101694915,40,45.762711864406775,40C44.7457627118644,40,43.728813559322035,40,42.71186440677966,40C41.69491525423729,40,40.67796610169491,40,39.66101694915254,40C38.644067796610166,40,37.6271186440678,40,36.610169491525426,40C35.59322033898305,40,34.57627118644068,40,33.559322033898304,40C32.54237288135593,40,31.525423728813557,40,30.508474576271183,40C29.491525423728813,40,28.47457627118644,40,27.45762711864407,40C26.440677966101696,40,25.423728813559322,40,24.406779661016948,40C23.389830508474574,40,22.372881355932204,40,21.35593220338983,40C20.338983050847457,40,19.322033898305087,40,18.305084745762713,40C17.28813559322034,40,16.271186440677965,40,15.254237288135592,40C14.23728813559322,40,13.220338983050846,40,12.203389830508474,40C11.186440677966102,40,10.169491525423728,40,9.152542372881356,40C8.135593220338983,40,7.11864406779661,40,6.101694915254237,40C5.084745762711864,40,4.067796610169491,40,3.0508474576271185,40C2.0338983050847457,40,1.0169491525423728,40,0,40Z"></path><path class="line" stroke="black" fill="none" d="M0,35.1216C1.0169491525423728,35.03073333333333,2.0338983050847457,34.93986666666667,3.0508474576271185,34.8476C4.067796610169491,34.75533333333333,5.084745762711864,34.6618,6.101694915254237,34.568C7.11864406779661,34.474199999999996,8.135593220338983,34.385266666666666,9.152542372881356,34.2848C10.169491525423728,34.18433333333333,11.186440677966102,34.0736,12.203389830508474,33.965199999999996C13.220338983050846,33.85679999999999,14.23728813559322,33.748333333333335,15.254237288135592,33.6344C16.271186440677965,33.520466666666664,17.28813559322034,33.40206666666666,18.305084745762713,33.2816C19.322033898305087,33.16113333333333,20.338983050847457,33.03973333333333,21.35593220338983,32.9116C22.372881355932204,32.78346666666667,23.389830508474574,32.64753333333333,24.406779661016948,32.5128C25.423728813559322,32.37806666666666,26.440677966101696,32.2438,27.45762711864407,32.1032C28.47457627118644,31.962600000000002,29.491525423728813,31.813333333333336,30.508474576271183,31.669200000000004C31.525423728813557,31.52506666666667,32.54237288135593,31.3876,33.559322033898304,31.2384C34.57627118644068,31.089199999999998,35.59322033898305,30.930266666666668,36.610169491525426,30.774C37.6271186440678,30.617733333333334,38.644067796610166,30.461266666666667,39.66101694915254,30.3008C40.67796610169491,30.14033333333333,41.69491525423729,29.9736,42.71186440677966,29.8112C43.728813559322035,29.6488,44.7457627118644,29.487733333333335,45.762711864406775,29.3264C46.77966101694915,29.165066666666664,47.79661016949152,29.002266666666664,48.813559322033896,28.843199999999996C49.83050847457627,28.684133333333328,50.847457627118644,28.529,51.86440677966102,28.372C52.88135593220339,28.215,53.898305084745765,28.0552,54.91525423728814,27.9012C55.93220338983051,27.7472,56.94915254237288,27.59993333333333,57.96610169491525,27.447999999999997C58.983050847457626,27.296066666666665,59.99999999999999,27.142866666666663,61.01694915254237,26.9896C62.03389830508474,26.836333333333332,63.05084745762712,26.68133333333334,64.0677966101695,26.528400000000005C65.08474576271186,26.37546666666667,66.10169491525424,26.224666666666664,67.11864406779661,26.071999999999996C68.13559322033899,25.919333333333327,69.15254237288136,25.764799999999997,70.16949152542374,25.612399999999997C71.1864406779661,25.459999999999997,72.20338983050848,25.308733333333336,73.22033898305085,25.157600000000002C74.23728813559322,25.006466666666668,75.2542372881356,24.855666666666664,76.27118644067797,24.705599999999997C77.28813559322033,24.55553333333333,78.30508474576271,24.400666666666666,79.32203389830508,24.2572C80.33898305084746,24.113733333333336,81.35593220338983,23.977666666666668,82.37288135593221,23.8448C83.38983050847457,23.711933333333334,84.40677966101696,23.584600000000002,85.42372881355932,23.46C86.4406779661017,23.3354,87.45762711864407,23.215533333333333,88.47457627118645,23.0972C89.49152542372882,22.97886666666667,90.50847457627118,22.860666666666667,91.52542372881355,22.75C92.54237288135593,22.639333333333333,93.55932203389831,22.532866666666667,94.57627118644069,22.4332C95.59322033898306,22.333533333333335,96.61016949152543,22.2424,97.62711864406779,22.152C98.64406779661016,22.061600000000002,99.66101694915254,21.97573333333333,100.6779661016949,21.8908C101.69491525423729,21.805866666666663,102.71186440677965,21.722666666666665,103.72881355932203,21.6424C104.7457627118644,21.562133333333332,105.76271186440678,21.484466666666663,106.77966101694915,21.4092C107.79661016949153,21.33393333333333,108.8135593220339,21.262600000000003,109.83050847457628,21.190800000000003C110.84745762711864,21.119000000000003,111.86440677966102,21.048,112.88135593220339,20.978399999999997C113.89830508474576,20.908799999999996,114.91525423728814,20.842133333333337,115.9322033898305,20.773200000000003C116.94915254237289,20.70426666666667,117.96610169491525,20.633733333333335,118.98305084745763,20.5648C120,20.495866666666668,121.01694915254237,20.429000000000002,122.03389830508473,20.3596C123.05084745762711,20.2902,124.0677966101695,20.220066666666664,125.08474576271188,20.1484C126.10169491525424,20.076733333333333,127.11864406779662,20.002533333333332,128.135593220339,19.9296C129.15254237288136,19.85666666666667,130.16949152542372,19.78466666666667,131.1864406779661,19.710800000000003C132.20338983050846,19.636933333333335,133.22033898305085,19.56386666666667,134.23728813559322,19.486400000000003C135.25423728813558,19.408933333333337,136.27118644067798,19.3272,137.28813559322035,19.246C138.3050847457627,19.164799999999996,139.3220338983051,19.082666666666665,140.33898305084747,18.9992C141.35593220338984,18.915733333333332,142.3728813559322,18.8314,143.38983050847457,18.7452C144.40677966101694,18.659,145.42372881355934,18.570533333333334,146.4406779661017,18.482C147.45762711864407,18.393466666666665,148.47457627118644,18.30666666666667,149.4915254237288,18.214000000000002C150.50847457627117,18.121333333333336,151.52542372881356,18.024866666666668,152.54237288135593,17.926000000000002C153.5593220338983,17.827133333333336,154.5762711864407,17.724000000000004,155.59322033898306,17.620800000000003C156.61016949152543,17.5176,157.6271186440678,17.415866666666666,158.64406779661016,17.3068C159.66101694915253,17.197733333333332,160.67796610169492,17.0834,161.6949152542373,16.9664C162.71186440677965,16.8494,163.72881355932205,16.729200000000002,164.74576271186442,16.6048C165.76271186440678,16.4804,166.77966101694915,16.3542,167.79661016949152,16.22C168.81355932203388,16.0858,169.83050847457628,15.943533333333331,170.84745762711864,15.799599999999998C171.864406779661,15.655666666666665,172.8813559322034,15.506466666666665,173.89830508474577,15.356399999999999C174.91525423728814,15.206333333333333,175.93220338983053,15.0562,176.9491525423729,14.8992C177.96610169491527,14.742200000000002,178.98305084745763,14.5783,180,14.4144"></path><path class="axis-ceiling" stroke-width="1" stroke="black" fill="none" d="M175,0L180,0"></path><text class="axis-ceiling-label" font-family="sans-serif" text-anchor="end" font-size="10px" x="170" y="2.5">100000</text></g></svg>