<svg xmlns="http://www.w3.org/2000/svg" viewBox="0 0 180 60"><g transform="translate(0,20)"><path class="area" fill="rgba(0, 0, 0, 0.2)" d="M0,29.568000000000005C1.0169491525423728,29.724000000000004,2.0338983050847457,29.880000000000003,3.0508474576271185,30.064C4.067796610169491,30.247999999999998,5.084745762711864,30.472,6.101694915254237,30.672C7.11864406779661,30.872,8.135593220338983,31.122666666666667,9.152542372881356,31.264C10.169491525423728,31.40533333333333,11.186440677966102,31.429333333333336,12.203389830508474,31.520000000000003C13.220338983050846,31.61066666666667,14.23728813559322,31.808,15.254237288135592,31.808C16.271186440677965,31.808,17.28813559322034,31.663999999999998,18.305084745762713,31.663999999999998C19.322033898305087,31.663999999999998,20.338983050847457,31.808,21.35593220338983,31.808C22.372881355932204,31.808,23.389830508474574,31.645333333333333,24.406779661016948,31.552C25.423728813559322,31.458666666666666,26.440677966101696,31.248,27.45762711864407,31.248C28.47457627118644,31.248,29.491525423728813,31.264,30.508474576271183,31.264C31.525423728813557,31.264,32.54237288135593,31.186666666666667,33.559322033898304,31.04C34.57627118644068,30.89333333333333,35.59322033898305,30.533333333333335,36.610169491525426,30.384C37.6271186440678,30.23466666666667,38.644067796610166,30.23466666666667,39.66101694915254,30.144000000000002C40.67796610169491,30.053333333333335,41.69491525423729,29.949333333333332,42.71186440677966,29.84C43.728813559322035,29.730666666666668,44.7457627118644,29.581333333333337,45.762711864406775,29.488000000000003C46.77966101694915,29.39466666666667,47.79661016949152,29.41866666666667,48.813559322033896,29.28C49.83050847457627,29.141333333333332,50.847457627118644,28.72533333333333,51.86440677966102,28.479999999999997C52.88135593220339,28.234666666666662,53.898305084745765,27.981333333333332,54.91525423728814,27.808C55.93220338983051,27.634666666666668,56.94915254237288,27.67733333333333,57.96610169491525,27.439999999999998C58.983050847457626,27.202666666666666,59.99999999999999,26.70133333333333,61.01694915254237,26.384C62.03389830508474,26.066666666666666,63.05084745762712,25.829333333333338,64.0677966101695,25.536C65.08474576271186,25.24266666666667,66.10169491525424,25.015999999999995,67.11864406779661,24.623999999999995C68.13559322033899,24.231999999999996,69.15254237288136,23.573333333333334,70.16949152542374,23.184C71.1864406779661,22.794666666666668,72.20338983050848,22.53333333333333,73.22033898305085,22.287999999999997C74.23728813559322,22.042666666666662,75.2542372881356,21.989333333333327,76.27118644067797,21.711999999999996C77.28813559322033,21.434666666666665,78.30508474576271,20.869333333333334,79.32203389830508,20.624000000000002C80.33898305084746,20.378666666666668,81.35593220338983,20.472000000000005,82.37288135593221,20.240000000000002C83.38983050847457,20.008000000000003,84.40677966101696,19.562666666666665,85.42372881355932,19.232C86.4406779661017,18.90133333333333,87.45762711864407,18.570666666666668,88.47457627118645,18.256C89.49152542372882,17.941333333333336,90.50847457627118,17.839999999999996,91.52542372881355,17.344C92.54237288135593,16.848,93.55932203389831,16.03733333333334,94.57627118644069,15.280000000000001C95.59322033898306,14.522666666666671,96.61016949152543,13.639999999999995,97.62711864406779,12.799999999999997C98.64406779661016,11.959999999999996,99.66101694915254,11.079999999999998,100.6779661016949,10.24C101.69491525423729,9.399999999999999,102.71186440677965,8.624,103.72881355932203,7.759999999999998C104.7457627118644,6.896,105.76271186440678,5.933333333333329,106.77966101694915,5.055999999999998C107.79661016949153,4.178666666666663,108.8135593220339,3.2453333333333347,109.83050847457628,2.4960000000000004C110.84745762711864,1.7466666666666697,111.86440677966102,0.8800000000000008,112.88135593220339,0.5600000000000005C113.89830508474576,0.2400000000000002,114.91525423728814,0.09066666666666551,115.9322033898305,0.08000000000000007C116.94915254237289,0.06933333333333458,117.96610169491525,0.06400000000000183,118.98305084745763,0.06400000000000183C120,0.06400000000000183,121.01694915254237,0.30133333333333595,122.03389830508473,0.43200000000000127C123.05084745762711,0.5626666666666684,124.0677966101695,0.6746666666666652,125.08474576271188,0.8479999999999999C126.10169491525424,1.0213333333333328,127.11864406779662,1.1866666666666683,128.135593220339,1.4720000000000022C129.15254237288136,1.7573333333333347,130.16949152542372,2.2746666666666653,131.1864406779661,2.559999999999998C132.20338983050846,2.845333333333333,133.22033898305085,3.184,134.23728813559322,3.184C135.25423728813558,3.184,136.27118644067798,3.104,137.28813559322035,3.104C138.3050847457627,3.104,139.3220338983051,3.791999999999997,140.33898305084747,4.159999999999999C141.35593220338984,4.527999999999998,142.3728813559322,5.312000000000001,143.38983050847457,5.312000000000001C144.40677966101694,5.312000000000001,145.42372881355934,5.285333333333335,146.4406779661017,5.232000000000001C147.45762711864407,5.178666666666668,148.47457627118644,5.045333333333333,149.4915254237288,4.96C150.50847457627117,4.874666666666666,151.52542372881356,4.776,152.54237288135593,4.72C153.5593220338983,4.664,154.5762711864407,4.6720000000000015,155.59322033898306,4.624000000000001C156.61016949152543,4.576000000000001,157.6271186440678,4.432,158.64406779661016,4.432C159.66101694915253,4.432,160.67796610169492,4.896000000000004,161.6949152542373,5.024000000000002C162.71186440677965,5.151999999999999,163.72881355932205,5.090666666666665,164.74576271186442,5.215999999999998C165.76271186440678,5.341333333333331,166.77966101694915,5.402666666666665,167.79661016949152,5.775999999999999C168.81355932203388,6.149333333333336,169.83050847457628,7.920000000000004,170.84745762711864,8.016000000000002C171.864406779661,8.112,172.8813559322034,8.064,173.89830508474577,8.159999999999998C174.91525423728814,8.255999999999997,175.93220338983053,8.719999999999994,176.9491525423729,9.584000000000001C177.96610169491527,10.448000000000002,178.98305084745763,11.896,180,13.344000000000001L180,40C178.98305084745763,40,177.96610169491527,40,176.9491525423729,40C175.93220338983053,40,174.91525423728814,40,173.89830508474577,40C172.8813559322034,40,171.864406779661,40,170.84745762711864,40C169.83050847457628,40,168.81355932203388,40,167.79661016949152,40C166.77966101694915,40,165.76271186440678,40,164.74576271186442,40C163.72881355932205,40,162.71186440677965,40,161.6949152542373,40C160.67796610169492,40,159.66101694915253,40,158.64406779661016,40C157.6271186440678,40,156.61016949152543,40,155.59322033898306,40C154.5762711864407,40,153.5593220338983,40,152.54237288135593,40C151.52542372881356,40,150.50847457627117,40,149.4915254237288,40C148.47457627118644,40,147.45762711864407,40,146.4406779661017,40C145.42372881355934,40,144.40677966101694,40,143.38983050847457,40C142.3728813559322,40,141.35593220338984,40,140.33898305084747,40C139.3220338983051,40,138.3050847457627,40,137.28813559322035,40C136.27118644067798,40,135.25423728813558,40,134.23728813559322,40C133.22033898305085,40,132.20338983050846,40,131.1864406779661,40C130.16949152542372,40,129.15254237288136,40,128.135593220339,40C127.11864406779662,40,126.10169491525424,40,125.08474576271188,40C124.0677966101695,40,123.05084745762711,40,122.03389830508473,40C121.01694915254237,40,120,40,118.98305084745763,40C117.96610169491525,40,116.94915254237289,40,115.9322033898305,40C114.91525423728814,40,113.89830508474576,40,112.88135593220339,40C111.86440677966102,40,110.84745762711864,40,109.83050847457628,40C108.8135593220339,40,107.79661016949153,40,106.77966101694915,40C105.76271186440678,40,104.7457627118644,40,103.72881355932203,40C102.71186440677965,40,101.69491525423729,40,100.6779661016949,40C99.66101694915254,40,98.64406779661016,40,97.62711864406779,40C96.61016949152543,40,95.59322033898306,40,94.57627118644069,40C93.55932203389831,40,92.54237288135593,40,91.52542372881355,40C90.50847457627118,40,89.49152542372882,40,88.47457627118645,40C87.45762711864407,40,86.4406779661017,40,85.42372881355932,40C84.40677966101696,40,83.38983050847457,40,82.37288135593221,40C81.35593220338983,40,80.33898305084746,40,79.32203389830508,40C78.30508474576271,40,77.28813559322033,40,76.27118644067797,40C75.2542372881356,40,74.23728813559322,40,73.22033898305085,40C72.20338983050848,40,71.1864406779661,40,70.16949152542374,40C69.15254237288136,40,68.13559322033899,40,67.11864406779661,40C66.10169491525424,40,65.08474576271186,40,64.0677966101695,40C63.05084745762712,40,62.03389830508474,40,61.01694915254237,40C59.99999999999999,40,58.983050847457626,40,57.96610169491525,40C56.94915254237288,40,55.93220338983051,40,54.91525423728814,40C53.898305084745765,40,52.88135593220339,40,51.86440677966102,40C50.847457627118644,40,49.83050847457627,40,48.813559322033896,40C47.79661016949152,40,46.77966101694915,40,45.762711864406775,40C44.7457627118644,40,43.728813559322035,40,42.71186440677966,40C41.69491525423729,40,40.67796610169491,40,39.66101694915254,40C38.644067796610166,40,37.6271186440678,40,36.610169491525426,40C35.59322033898305,40,34.57627118644068,40,33.559322033898304,40C32.54237288135593,40,31.525423728813557,40,30.508474576271183,40C29.491525423728813,40,28.47457627118644,40,27.45762711864407,40C26.440677966101696,40,25.423728813559322,40,24.406779661016948,40C23.389830508474574,40,22.372881355932204,40,21.35593220338983,40C20.338983050847457,40,19.322033898305087,40,18.305084745762713,40C17.28813559322034,40,16.271186440677965,40,15.254237288135592,40C14.23728813559322,40,13.220338983050846,40,12.203389830508474,40C11.186440677966102,40,10.169491525423728,40,9.152542372881356,40C8.135593220338983,40,7.11864406779661,40,6.101694915254237,40C5.084745762711864,40,4.067796610169491,40,3.0508474576271185,40C2.0338983050847457,40,1.0169491525423728,40,0,40Z"></path><path class="line" stroke="black" fill="none" d="M0,29.568000000000005C1.0169491525423728,29.724000000000004,2.0338983050847457,29.880000000000003,3.0508474576271185,30.064C4.067796610169491,30.247999999999998,5.084745762711864,30.472,6.101694915254237,30.672C7.11864406779661,30.872,8.135593220338983,31.122666666666667,9.152542372881356,31.264C10.169491525423728,31.40533333333333,11.186440677966102,31.429333333333336,12.203389830508474,31.520000000000003C13.220338983050846,31.61066666666667,14.23728813559322,31.808,15.254237288135592,31.808C16.271186440677965,31.808,17.28813559322034,31.663999999999998,18.305084745762713,31.663999999999998C19.322033898305087,31.663999999999998,20.338983050847457,31.808,21.35593220338983,31.808C22.372881355932204,31.808,23.389830508474574,31.645333333333333,24.406779661016948,31.552C25.423728813559322,31.458666666666666,26.440677966101696,31.248,27.45762711864407,31.248C28.47457627118644,31.248,29.491525423728813,31.264,30.508474576271183,31.264C31.525423728813557,31.264,32.54237288135593,31.186666666666667,33.559322033898304,31.04C34.57627118644068,30.89333333333333,35.59322033898305,30.533333333333335,36.610169491525426,30.384C37.6271186440678,30.23466666666667,38.644067796610166,30.23466666666667,39.66101694915254,30.144000000000002C40.67796610169491,30.053333333333335,41.69491525423729,29.949333333333332,42.71186440677966,29.84C43.728813559322035,29.730666666666668,44.7457627118644,29.581333333333337,45.762711864406775,29.488000000000003C46.77966101694915,29.39466666666667,47.79661016949152,29.41866666666667,48.813559322033896,29.28C49.83050847457627,29.141333333333332,50.847457627118644,28.72533333333333,51.86440677966102,28.479999999999997C52.88135593220339,28.234666666666662,53.898305084745765,27.981333333333332,54.91525423728814,27.808C55.93220338983051,27.634666666666668,56.94915254237288,27.67733333333333,57.96610169491525,27.439999999999998C58.983050847457626,27.202666666666666,59.99999999999999,26.70133333333333,61.01694915254237,26.384C62.03389830508474,26.066666666666666,63.05084745762712,25.829333333333338,64.0677966101695,25.536C65.08474576271186,25.24266666666667,66.10169491525424,25.015999999999995,67.11864406779661,24.623999999999995C68.13559322033899,24.231999999999996,69.15254237288136,23.573333333333334,70.16949152542374,23.184C71.1864406779661,22.794666666666668,72.20338983050848,22.53333333333333,73.22033898305085,22.287999999999997C74.23728813559322,22.042666666666662,75.2542372881356,21.989333333333327,76.27118644067797,21.711999999999996C77.28813559322033,21.434666666666665,78.30508474576271,20.869333333333334,79.32203389830508,20.624000000000002C80.33898305084746,20.378666666666668,81.35593220338983,20.472000000000005,82.37288135593221,20.240000000000002C83.38983050847457,20.008000000000003,84.40677966101696,19.562666666666665,85.42372881355932,19.232C86.4406779661017,18.90133333333333,87.45762711864407,18.570666666666668,88.47457627118645,18.256C89.49152542372882,17.941333333333336,90.50847457627118,17.839999999999996,91.52542372881355,17.344C92.54237288135593,16.848,93.55932203389831,16.03733333333334,94.57627118644069,15.280000000000001C95.59322033898306,14.522666666666671,96.61016949152543,13.639999999999995,97.62711864406779,12.799999999999997C98.64406779661016,11.959999999999996,99.66101694915254,11.079999999999998,100.6779661016949,10.24C101.69491525423729,9.399999999999999,102.71186440677965,8.624,103.72881355932203,7.759999999999998C104.7457627118644,6.896,105.76271186440678,5.933333333333329,106.77966101694915,5.055999999999998C107.79661016949153,4.178666666666663,108.8135593220339,3.2453333333333347,109.83050847457628,2.4960000000000004C110.84745762711864,1.7466666666666697,111.86440677966102,0.8800000000000008,112.88135593220339,0.5600000000000005C113.89830508474576,0.2400000000000002,114.91525423728814,0.09066666666666551,115.9322033898305,0.08000000000000007C116.94915254237289,0.06933333333333458,117.96610169491525,0.06400000000000183,118.98305084745763,0.06400000000000183C120,0.06400000000000183,121.01694915254237,0.30133333333333595,122.03389830508473,0.43200000000000127C123.05084745762711,0.5626666666666684,124.0677966101695,0.6746666666666652,125.08474576271188,0.8479999999999999C126.10169491525424,1.0213333333333328,127.11864406779662,1.1866666666666683,128.135593220339,1.4720000000000022C129.15254237288136,1.7573333333333347,130.16949152542372,2.2746666666666653,131.1864406779661,2.559999999999998C132.20338983050846,2.845333333333333,133.22033898305085,3.184,134.23728813559322,3.184C135.25423728813558,3.184,136.27118644067798,3.104,137.28813559322035,3.104C138.3050847457627,3.104,139.3220338983051,3.791999999999997,140.33898305084747,4.159999999999999C141.35593220338984,4.527999999999998,142.3728813559322,5.312000000000001,143.38983050847457,5.312000000000001C144.40677966101694,5.312000000000001,145.42372881355934,5.285333333333335,146.4406779661017,5.232000000000001C147.45762711864407,5.178666666666668,148.47457627118644,5.045333333333333,149.4915254237288,4.96C150.50847457627117,4.874666666666666,151.52542372881356,4.776,152.54237288135593,4.72C153.5593220338983,4.664,154.5762711864407,4.6720000000000015,155.59322033898306,4.624000000000001C156.61016949152543,4.576000000000001,157.6271186440678,4.432,158.64406779661016,4.432C159.66101694915253,4.432,160.67796610169492,4.896000000000004,161.6949152542373,5.024000000000002C162.71186440677965,5.151999999999999,163.72881355932205,5.090666666666665,164.74576271186442,5.215999999999998C165.76271186440678,5.341333333333331,166.77966101694915,5.402666666666665,167.79661016949152,5.775999999999999C168.81355932203388,6.149333333333336,169.83050847457628,7.920000000000004,170.84745762711864,8.016000000000002C171.864406779661,8.112,172.8813559322034,8.064,173.89830508474577,8.159999999999998C174.91525423728814,8.255999999999997,175.93220338983053,8.719999999999994,176.9491525423729,9.584000000000001C177.96610169491527,10.448000000000002,178.98305084745763,11.896,180,13.344000000000001"></path><path class="axis-ceiling" stroke-width="1" stroke="black" fill="none" d="M175,0L180,0"></path><text class="axis-ceiling-label" font-family="sans-serif" text-anchor="end" font-size="10px" x="170" y="2.5">2500</text></g></svg>