<svg xmlns="http://www.w3.org/2000/svg" viewBox="0 0 180 60"><g transform="translate(0,20)"><path class="area" fill="rgba(0, 0, 0, 0.2)" d="M0,34.8C1.0169491525423728,26,2.0338983050847457,17.200000000000003,3.0508474576271185,17.200000000000003C4.067796610169491,17.200000000000003,5.084745762711864,37.599999999999994,6.101694915254237,37.599999999999994C7.11864406779661,37.599999999999994,8.135593220338983,37.599999999999994,9.152542372881356,37.599999999999994C10.169491525423728,37.599999999999994,11.186440677966102,37.46666666666666,12.203389830508474,37.199999999999996C13.220338983050846,36.93333333333333,14.23728813559322,24,15.254237288135592,24C16.271186440677965,24,17.28813559322034,33.6,18.305084745762713,33.6C19.322033898305087,33.6,20.338983050847457,25.2,21.35593220338983,25.2C22.372881355932204,25.2,23.389830508474574,32,24.406779661016948,32C25.423728813559322,32,26.440677966101696,32,27.45762711864407,32C28.47457627118644,32,29.491525423728813,38,30.508474576271183,38C31.525423728813557,38,32.54237288135593,31.200000000000003,33.559322033898304,31.200000000000003C34.57627118644068,31.200000000000003,35.59322033898305,31.6,36.610169491525426,31.6C37.6271186440678,31.6,38.644067796610166,30.8,39.66101694915254,30.8C40.67796610169491,30.8,41.69491525423729,31.200000000000003,42.71186440677966,31.200000000000003C43.728813559322035,31.200000000000003,44.7457627118644,23.6,45.762711864406775,23.6C46.77966101694915,23.6,47.79661016949152,34.8,48.813559322033896,34.8C49.83050847457627,34.8,50.847457627118644,26.799999999999997,51.86440677966102,26.799999999999997C52.88135593220339,26.799999999999997,53.898305084745765,34.8,54.91525423728814,34.8C55.93220338983051,34.8,56.94915254237288,31.6,57.96610169491525,31.6C58.983050847457626,31.6,59.99999999999999,34.8,61.01694915254237,34.8C62.03389830508474,34.8,63.05084745762712,34.4,64.0677966101695,34.4C65.08474576271186,34.4,66.10169491525424,34.53333333333333,67.11864406779661,34.8C68.13559322033899,35.06666666666666,69.15254237288136,36,70.16949152542374,36C71.1864406779661,36,72.20338983050848,35.733333333333334,73.22033898305085,35.2C74.23728813559322,34.66666666666667,75.2542372881356,31.6,76.27118644067797,31.6C77.28813559322033,31.6,78.30508474576271,38,79.32203389830508,38C80.33898305084746,38,81.35593220338983,36.666666666666664,82.37288135593221,36.4C83.38983050847457,36.13333333333333,84.40677966101696,36.266666666666666,85.42372881355932,36C86.4406779661017,35.733333333333334,87.45762711864407,27.199999999999996,88.47457627118645,27.199999999999996C89.49152542372882,27.199999999999996,90.50847457627118,32,91.52542372881355,33.6C92.54237288135593,35.200000000000024,93.55932203389831,36.800000000000004,94.57627118644069,36.800000000000004C95.59322033898306,36.800000000000004,96.61016949152543,32.400000000000006,97.62711864406779,32.400000000000006C98.64406779661016,32.400000000000006,99.66101694915254,33.6,100.6779661016949,33.6C101.69491525423729,33.6,102.71186440677965,33.6,103.72881355932203,33.6C104.7457627118644,33.6,105.76271186440678,34.46666666666666,106.77966101694915,34.8C107.79661016949153,35.13333333333333,108.8135593220339,35.6,109.83050847457628,35.6C110.84745762711864,35.6,111.86440677966102,30,112.88135593220339,30C113.89830508474576,30,114.91525423728814,32.800000000000004,115.9322033898305,32.800000000000004C116.94915254237289,32.800000000000004,117.96610169491525,27.466666666666672,118.98305084745763,26.4C120,25.333333333333332,121.01694915254237,24.8,122.03389830508473,24.8C123.05084745762711,24.8,124.0677966101695,25.2,125.08474576271188,26C126.10169491525424,26.799999999999994,127.11864406779662,32.800000000000004,128.135593220339,32.800000000000004C129.15254237288136,32.800000000000004,130.16949152542372,28,131.1864406779661,28C132.20338983050846,28,133.22033898305085,28,134.23728813559322,28C135.25423728813558,28,136.27118644067798,26.866666666666667,137.28813559322035,24.8C138.3050847457627,22.733333333333334,139.3220338983051,15.600000000000001,140.33898305084747,15.600000000000001C141.35593220338984,15.600000000000001,142.3728813559322,26.4,143.38983050847457,26.4C144.40677966101694,26.4,145.42372881355934,20,146.4406779661017,20C147.45762711864407,20,148.47457627118644,21.200000000000003,149.4915254237288,21.200000000000003C150.50847457627117,21.200000000000003,151.52542372881356,18.4,152.54237288135593,18.4C153.5593220338983,18.4,154.5762711864407,26.799999999999997,155.59322033898306,26.799999999999997C156.61016949152543,26.799999999999997,157.6271186440678,24.866666666666664,158.64406779661016,24C159.66101694915253,23.13333333333333,160.67796610169492,22.8,161.6949152542373,21.6C162.71186440677965,20.400000000000002,163.72881355932205,16.8,164.74576271186442,16.8C165.76271186440678,16.8,166.77966101694915,27.199999999999996,167.79661016949152,27.199999999999996C168.81355932203388,27.199999999999996,169.83050847457628,26.799999999999997,170.84745762711864,26.799999999999997C171.864406779661,26.799999999999997,172.8813559322034,28.799999999999997,173.89830508474577,28.799999999999997C174.91525423728814,28.799999999999997,175.93220338983053,22.4,176.9491525423729,20.4C177.96610169491527,18.400000000000016,178.98305084745763,17.60000000000001,180,16.8L180,40C178.98305084745763,40,177.96610169491527,40,176.9491525423729,40C175.93220338983053,40,174.91525423728814,40,173.89830508474577,40C172.8813559322034,40,171.864406779661,40,170.84745762711864,40C169.83050847457628,40,168.81355932203388,40,167.79661016949152,40C166.77966101694915,40,165.76271186440678,40,164.74576271186442,40C163.72881355932205,40,162.71186440677965,40,161.6949152542373,40C160.67796610169492,40,159.66101694915253,40,158.64406779661016,40C157.6271186440678,40,156.61016949152543,40,155.59322033898306,40C154.5762711864407,40,153.5593220338983,40,152.54237288135593,40C151.52542372881356,40,150.50847457627117,40,149.4915254237288,40C148.47457627118644,40,147.45762711864407,40,146.4406779661017,40C145.42372881355934,40,144.40677966101694,40,143.38983050847457,40C142.3728813559322,40,141.35593220338984,40,140.33898305084747,40C139.3220338983051,40,138.3050847457627,40,137.28813559322035,40C136.27118644067798,40,135.25423728813558,40,134.23728813559322,40C133.22033898305085,40,132.20338983050846,40,131.1864406779661,40C130.16949152542372,40,129.15254237288136,40,128.135593220339,40C127.11864406779662,40,126.10169491525424,40,125.08474576271188,40C124.0677966101695,40,123.05084745762711,40,122.03389830508473,40C121.01694915254237,40,120,40,118.98305084745763,40C117.96610169491525,40,116.94915254237289,40,115.9322033898305,40C114.91525423728814,40,113.89830508474576,40,112.88135593220339,40C111.86440677966102,40,110.84745762711864,40,109.83050847457628,40C108.8135593220339,40,107.79661016949153,40,106.77966101694915,40C105.76271186440678,40,104.7457627118644,40,103.72881355932203,40C102.71186440677965,40,101.69491525423729,40,100.6779661016949,40C99.66101694915254,40,98.64406779661016,40,97.62711864406779,40C96.61016949152543,40,95.59322033898306,40,94.57627118644069,40C93.55932203389831,40,92.54237288135593,40,91.52542372881355,40C90.50847457627118,40,89.49152542372882,40,88.47457627118645,40C87.45762711864407,40,86.4406779661017,40,85.42372881355932,40C84.40677966101696,40,83.38983050847457,40,82.37288135593221,40C81.35593220338983,40,80.33898305084746,40,79.32203389830508,40C78.30508474576271,40,77.28813559322033,40,76.27118644067797,40C75.2542372881356,40,74.23728813559322,40,73.22033898305085,40C72.20338983050848,40,71.1864406779661,40,70.16949152542374,40C69.15254237288136,40,68.13559322033899,40,67.11864406779661,40C66.10169491525424,40,65.08474576271186,40,64.0677966101695,40C63.05084745762712,40,62.03389830508474,40,61.01694915254237,40C59.99999999999999,40,58.983050847457626,40,57.96610169491525,40C56.94915254237288,40,55.93220338983051,40,54.91525423728814,40C53.898305084745765,40,52.88135593220339,40,51.86440677966102,40C50.847457627118644,40,49.83050847457627,40,48.813559322033896,40C47.79661016949152,40,46.77966101694915,40,45.762711864406775,40C44.7457627118644,40,43.728813559322035,40,42.71186440677966,40C41.69491525423729,40,40.67796610169491,40,39.66101694915254,40C38.644067796610166,40,37.6271186440678,40,36.610169491525426,40C35.59322033898305,40,34.57627118644068,40,33.559322033898304,40C32.54237288135593,40,31.525423728813557,40,30.508474576271183,40C29.491525423728813,40,28.47457627118644,40,27.45762711864407,40C26.440677966101696,40,25.423728813559322,40,24.406779661016948,40C23.389830508474574,40,22.372881355932204,40,21.35593220338983,40C20.338983050847457,40,19.322033898305087,40,18.305084745762713,40C17.28813559322034,40,16.271186440677965,40,15.254237288135592,40C14.23728813559322,40,13.220338983050846,40,12.203389830508474,40C11.186440677966102,40,10.169491525423728,40,9.152542372881356,40C8.135593220338983,40,7.11864406779661,40,6.101694915254237,40C5.084745762711864,40,4.067796610169491,40,3.0508474576271185,40C2.0338983050847457,40,1.0169491525423728,40,0,40Z"></path><path class="line" stroke="black" fill="none" d="M0,34.8C1.0169491525423728,26,2.0338983050847457,17.200000000000003,3.0508474576271185,17.200000000000003C4.067796610169491,17.200000000000003,5.084745762711864,37.599999999999994,6.101694915254237,37.599999999999994C7.11864406779661,37.599999999999994,8.135593220338983,37.599999999999994,9.152542372881356,37.599999999999994C10.169491525423728,37.599999999999994,11.186440677966102,37.46666666666666,12.203389830508474,37.199999999999996C13.220338983050846,36.93333333333333,14.23728813559322,24,15.254237288135592,24C16.271186440677965,24,17.28813559322034,33.6,18.305084745762713,33.6C19.322033898305087,33.6,20.338983050847457,25.2,21.35593220338983,25.2C22.372881355932204,25.2,23.389830508474574,32,24.406779661016948,32C25.423728813559322,32,26.440677966101696,32,27.45762711864407,32C28.47457627118644,32,29.491525423728813,38,30.508474576271183,38C31.525423728813557,38,32.54237288135593,31.200000000000003,33.559322033898304,31.200000000000003C34.57627118644068,31.200000000000003,35.59322033898305,31.6,36.610169491525426,31.6C37.6271186440678,31.6,38.644067796610166,30.8,39.66101694915254,30.8C40.67796610169491,30.8,41.69491525423729,31.200000000000003,42.71186440677966,31.200000000000003C43.728813559322035,31.200000000000003,44.7457627118644,23.6,45.762711864406775,23.6C46.77966101694915,23.6,47.79661016949152,34.8,48.813559322033896,34.8C49.83050847457627,34.8,50.847457627118644,26.799999999999997,51.86440677966102,26.799999999999997C52.88135593220339,26.799999999999997,53.898305084745765,34.8,54.91525423728814,34.8C55.93220338983051,34.8,56.94915254237288,31.6,57.96610169491525,31.6C58.983050847457626,31.6,59.99999999999999,34.8,61.01694915254237,34.8C62.03389830508474,34.8,63.05084745762712,34.4,64.0677966101695,34.4C65.08474576271186,34.4,66.10169491525424,34.53333333333333,67.11864406779661,34.8C68.13559322033899,35.06666666666666,69.15254237288136,36,70.16949152542374,36C71.1864406779661,36,72.20338983050848,35.733333333333334,73.22033898305085,35.2C74.23728813559322,34.66666666666667,75.2542372881356,31.6,76.27118644067797,31.6C77.28813559322033,31.6,78.30508474576271,38,79.32203389830508,38C80.33898305084746,38,81.35593220338983,36.666666666666664,82.37288135593221,36.4C83.38983050847457,36.13333333333333,84.40677966101696,36.266666666666666,85.42372881355932,36C86.4406779661017,35.733333333333334,87.45762711864407,27.199999999999996,88.47457627118645,27.199999999999996C89.49152542372882,27.199999999999996,90.50847457627118,32,91.52542372881355,33.6C92.54237288135593,35.200000000000024,93.55932203389831,36.800000000000004,94.57627118644069,36.800000000000004C95.59322033898306,36.800000000000004,96.61016949152543,32.400000000000006,97.62711864406779,32.400000000000006C98.64406779661016,32.400000000000006,99.66101694915254,33.6,100.6779661016949,33.6C101.69491525423729,33.6,102.71186440677965,33.6,103.72881355932203,33.6C104.7457627118644,33.6,105.76271186440678,34.46666666666666,106.77966101694915,34.8C107.79661016949153,35.13333333333333,108.8135593220339,35.6,109.83050847457628,35.6C110.84745762711864,35.6,111.86440677966102,30,112.88135593220339,30C113.89830508474576,30,114.91525423728814,32.800000000000004,115.9322033898305,32.800000000000004C116.94915254237289,32.800000000000004,117.96610169491525,27.466666666666672,118.98305084745763,26.4C120,25.333333333333332,121.01694915254237,24.8,122.03389830508473,24.8C123.05084745762711,24.8,124.0677966101695,25.2,125.08474576271188,26C126.10169491525424,26.799999999999994,127.11864406779662,32.800000000000004,128.135593220339,32.800000000000004C129.15254237288136,32.800000000000004,130.16949152542372,28,131.1864406779661,28C132.20338983050846,28,133.22033898305085,28,134.23728813559322,28C135.25423728813558,28,136.27118644067798,26.866666666666667,137.28813559322035,24.8C138.3050847457627,22.733333333333334,139.3220338983051,15.600000000000001,140.33898305084747,15.600000000000001C141.35593220338984,15.600000000000001,142.3728813559322,26.4,143.38983050847457,26.4C144.40677966101694,26.4,145.42372881355934,20,146.4406779661017,20C147.45762711864407,20,148.47457627118644,21.200000000000003,149.4915254237288,21.200000000000003C150.50847457627117,21.200000000000003,151.52542372881356,18.4,152.54237288135593,18.4C153.5593220338983,18.4,154.5762711864407,26.799999999999997,155.59322033898306,26.799999999999997C156.61016949152543,26.799999999999997,157.6271186440678,24.866666666666664,158.64406779661016,24C159.66101694915253,23.13333333333333,160.67796610169492,22.8,161.6949152542373,21.6C162.71186440677965,20.400000000000002,163.72881355932205,16.8,164.74576271186442,16.8C165.76271186440678,16.8,166.77966101694915,27.199999999999996,167.79661016949152,27.199999999999996C168.81355932203388,27.199999999999996,169.83050847457628,26.799999999999997,170.84745762711864,26.799999999999997C171.864406779661,26.799999999999997,172.8813559322034,28.799999999999997,173.89830508474577,28.799999999999997C174.91525423728814,28.799999999999997,175.93220338983053,22.4,176.9491525423729,20.4C177.96610169491527,18.400000000000016,178.98305084745763,17.60000000000001,180,16.8"></path><path class="axis-ceiling" stroke-width="1" stroke="black" fill="none" d="M175,0L180,0"></path><text class="axis-ceiling-label" font-family="sans-serif" text-anchor="end" font-size="10px" x="170" y="2.5">100</text></g></svg>