<svg xmlns="http://www.w3.org/2000/svg" viewBox="0 0 180 60"><g transform="translate(0,20)"><path class="area" fill="rgba(0, 0, 0, 0.2)" d="M0,27.839999999999996C5.625,27.826666666666664,11.25,27.81333333333333,16.875,27.759999999999998C18.125,27.748148148148147,19.375,27.688205128205126,20.625,27.68C28.75,27.626666666666665,36.875,27.62818713450292,45,27.599999999999998C48.75,27.586990553306343,52.5,27.586666666666666,56.25,27.560000000000002C56.875,27.555555555555557,57.5,27.500000000000004,58.125,27.480000000000004C58.75,27.460000000000004,59.375,27.450666666666663,60,27.439999999999998C63.125,27.386666666666667,66.25,27.41333333333333,69.375,27.36C70.625,27.338666666666665,71.875,27.30666666666666,73.125,27.279999999999998C73.75,27.266666666666666,74.375,27.26,75,27.240000000000002C75.625,27.220000000000002,76.25,27.18444444444445,76.875,27.160000000000004C78.125,27.111111111111114,79.375,27.106666666666666,80.625,27.04C81.25,27.006666666666668,81.875,26.96,82.5,26.92C83.125,26.880000000000003,83.75,26.833333333333332,84.375,26.799999999999997C85,26.766666666666662,85.625,26.74,86.25,26.72C88.75,26.64,91.25,26.66666666666667,93.75,26.6C95,26.566666666666666,96.25,26.546666666666663,97.5,26.479999999999997C98.125,26.446666666666665,98.75,26.39333333333333,99.375,26.36C100,26.326666666666668,100.625,26.313333333333333,101.25,26.28C101.875,26.24666666666667,102.5,26.193333333333335,103.125,26.16C103.75,26.126666666666665,104.375,26.113333333333337,105,26.080000000000002C105.625,26.046666666666667,106.25,25.993333333333336,106.875,25.96C108.125,25.893333333333334,109.375,25.92,110.625,25.84C111.25,25.8,111.875,25.74,112.5,25.68C113.125,25.62,113.75,25.566666666666666,114.375,25.48C115,25.393333333333334,115.625,25.273333333333333,116.25,25.16C116.875,25.046666666666667,117.5,24.913333333333334,118.125,24.8C118.75,24.686666666666667,119.375,24.6,120,24.48C120.625,24.36,121.25,24.206666666666663,121.875,24.08C122.5,23.953333333333333,123.125,23.839999999999996,123.75,23.72C124.375,23.6,125,23.500000000000004,125.625,23.360000000000003C126.25,23.220000000000002,126.875,23.06666666666667,127.5,22.880000000000003C128.125,22.693333333333335,128.75,22.486666666666668,129.375,22.240000000000002C130,21.993333333333336,130.625,21.7,131.25,21.4C131.875,21.099999999999998,132.5,20.793333333333333,133.125,20.44C133.75,20.08666666666667,134.375,19.666666666666668,135,19.28C135.625,18.893333333333334,136.25,18.54,136.875,18.119999999999997C137.5,17.699999999999996,138.125,17.200000000000003,138.75,16.76C139.375,16.32,140,15.88,140.625,15.48C141.25,15.08,141.875,14.719999999999999,142.5,14.36C143.125,14,143.75,13.659999999999998,144.375,13.319999999999999C145,12.979999999999999,145.625,12.64,146.25,12.320000000000002C146.875,12.000000000000004,147.5,11.693333333333335,148.125,11.400000000000002C148.75,11.10666666666667,149.375,10.82,150,10.56C150.625,10.3,151.25,10.066666666666666,151.875,9.84C152.5,9.613333333333333,153.125,9.413333333333332,153.75,9.2C154.375,8.986666666666666,155,8.753333333333332,155.625,8.559999999999999C156.25,8.366666666666665,156.875,8.206666666666665,157.5,8.04C158.125,7.873333333333332,158.75,7.6999999999999975,159.375,7.559999999999998C160,7.419999999999998,160.625,7.353333333333334,161.25,7.200000000000002C161.875,7.0466666666666695,162.5,6.813333333333335,163.125,6.6400000000000015C163.75,6.466666666666668,164.375,6.320000000000001,165,6.160000000000001C165.625,6.000000000000001,166.25,5.833333333333334,166.875,5.680000000000001C167.5,5.526666666666667,168.125,5.386666666666667,168.75,5.24C169.375,5.093333333333334,170,4.933333333333334,170.625,4.8C171.25,4.666666666666666,171.875,4.553333333333333,172.5,4.4399999999999995C173.125,4.326666666666666,173.75,4.199999999999999,174.375,4.119999999999999C175,4.039999999999999,175.625,4.013333333333333,176.25,3.959999999999999C176.875,3.906666666666666,177.5,3.853333333333332,178.125,3.799999999999999C178.75,3.7466666666666657,179.375,3.693333333333332,180,3.639999999999999L180,40C179.375,40,178.75,40,178.125,40C177.5,40,176.875,40,176.25,40C175.625,40,175,40,174.375,40C173.75,40,173.125,40,172.5,40C171.875,40,171.25,40,170.625,40C170,40,169.375,40,168.75,40C168.125,40,167.5,40,166.875,40C166.25,40,165.625,40,165,40C164.375,40,163.75,40,163.125,40C162.5,40,161.875,40,161.25,40C160.625,40,160,40,159.375,40C158.75,40,158.125,40,157.5,40C156.875,40,156.25,40,155.625,40C155,40,154.375,40,153.75,40C153.125,40,152.5,40,151.875,40C151.25,40,150.625,40,150,40C149.375,40,148.75,40,148.125,40C147.5,40,146.875,40,146.25,40C145.625,40,145,40,144.375,40C143.75,40,143.125,40,142.5,40C141.875,40,141.25,40,140.625,40C140,40,139.375,40,138.75,40C138.125,40,137.5,40,136.875,40C136.25,40,135.625,40,135,40C134.375,40,133.75,40,133.125,40C132.5,40,131.875,40,131.25,40C130.625,40,130,40,129.375,40C128.75,40,128.125,40,127.5,40C126.875,40,126.25,40,125.625,40C125,40,124.375,40,123.75,40C123.125,40,122.5,40,121.875,40C121.25,40,120.625,40,120,40C119.375,40,118.75,40,118.125,40C117.5,40,116.875,40,116.25,40C115.625,40,115,40,114.375,40C113.75,40,113.125,40,112.5,40C111.875,40,111.25,40,110.625,40C109.375,40,108.125,40,106.875,40C106.25,40,105.625,40,105,40C104.375,40,103.75,40,103.125,40C102.5,40,101.875,40,101.25,40C100.625,40,100,40,99.375,40C98.75,40,98.125,40,97.5,40C96.25,40,95,40,93.75,40C91.25,40,88.75,40,86.25,40C85.625,40,85,40,84.375,40C83.75,40,83.125,40,82.5,40C81.875,40,81.25,40,80.625,40C79.375,40,78.125,40,76.875,40C76.25,40,75.625,40,75,40C74.375,40,73.75,40,73.125,40C71.875,40,70.625,40,69.375,40C66.25,40,63.125,40,60,40C59.375,40,58.75,40,58.125,40C57.5,40,56.875,40,56.25,40C52.5,40,48.75,40,45,40C36.875,40,28.75,40,20.625,40C19.375,40,18.125,40,16.875,40C11.25,40,5.625,40,0,40Z"></path><path class="line" stroke="black" fill="none" d="M0,27.839999999999996C5.625,27.826666666666664,11.25,27.81333333333333,16.875,27.759999999999998C18.125,27.748148148148147,19.375,27.688205128205126,20.625,27.68C28.75,27.626666666666665,36.875,27.62818713450292,45,27.599999999999998C48.75,27.586990553306343,52.5,27.586666666666666,56.25,27.560000000000002C56.875,27.555555555555557,57.5,27.500000000000004,58.125,27.480000000000004C58.75,27.460000000000004,59.375,27.450666666666663,60,27.439999999999998C63.125,27.386666666666667,66.25,27.41333333333333,69.375,27.36C70.625,27.338666666666665,71.875,27.30666666666666,73.125,27.279999999999998C73.75,27.266666666666666,74.375,27.26,75,27.240000000000002C75.625,27.220000000000002,76.25,27.18444444444445,76.875,27.160000000000004C78.125,27.111111111111114,79.375,27.106666666666666,80.625,27.04C81.25,27.006666666666668,81.875,26.96,82.5,26.92C83.125,26.880000000000003,83.75,26.833333333333332,84.375,26.799999999999997C85,26.766666666666662,85.625,26.74,86.25,26.72C88.75,26.64,91.25,26.66666666666667,93.75,26.6C95,26.566666666666666,96.25,26.546666666666663,97.5,26.479999999999997C98.125,26.446666666666665,98.75,26.39333333333333,99.375,26.36C100,26.326666666666668,100.625,26.313333333333333,101.25,26.28C101.875,26.24666666666667,102.5,26.193333333333335,103.125,26.16C103.75,26.126666666666665,104.375,26.113333333333337,105,26.080000000000002C105.625,26.046666666666667,106.25,25.993333333333336,106.875,25.96C108.125,25.893333333333334,109.375,25.92,110.625,25.84C111.25,25.8,111.875,25.74,112.5,25.68C113.125,25.62,113.75,25.566666666666666,114.375,25.48C115,25.393333333333334,115.625,25.273333333333333,116.25,25.16C116.875,25.046666666666667,117.5,24.913333333333334,118.125,24.8C118.75,24.686666666666667,119.375,24.6,120,24.48C120.625,24.36,121.25,24.206666666666663,121.875,24.08C122.5,23.953333333333333,123.125,23.839999999999996,123.75,23.72C124.375,23.6,125,23.500000000000004,125.625,23.360000000000003C126.25,23.220000000000002,126.875,23.06666666666667,127.5,22.880000000000003C128.125,22.693333333333335,128.75,22.486666666666668,129.375,22.240000000000002C130,21.993333333333336,130.625,21.7,131.25,21.4C131.875,21.099999999999998,132.5,20.793333333333333,133.125,20.44C133.75,20.08666666666667,134.375,19.666666666666668,135,19.28C135.625,18.893333333333334,136.25,18.54,136.875,18.119999999999997C137.5,17.699999999999996,138.125,17.200000000000003,138.75,16.76C139.375,16.32,140,15.88,140.625,15.48C141.25,15.08,141.875,14.719999999999999,142.5,14.36C143.125,14,143.75,13.659999999999998,144.375,13.319999999999999C145,12.979999999999999,145.625,12.64,146.25,12.320000000000002C146.875,12.000000000000004,147.5,11.693333333333335,148.125,11.400000000000002C148.75,11.10666666666667,149.375,10.82,150,10.56C150.625,10.3,151.25,10.066666666666666,151.875,9.84C152.5,9.613333333333333,153.125,9.413333333333332,153.75,9.2C154.375,8.986666666666666,155,8.753333333333332,155.625,8.559999999999999C156.25,8.366666666666665,156.875,8.206666666666665,157.5,8.04C158.125,7.873333333333332,158.75,7.6999999999999975,159.375,7.559999999999998C160,7.419999999999998,160.625,7.353333333333334,161.25,7.200000000000002C161.875,7.0466666666666695,162.5,6.813333333333335,163.125,6.6400000000000015C163.75,6.466666666666668,164.375,6.320000000000001,165,6.160000000000001C165.625,6.000000000000001,166.25,5.833333333333334,166.875,5.680000000000001C167.5,5.526666666666667,168.125,5.386666666666667,168.75,5.24C169.375,5.093333333333334,170,4.933333333333334,170.625,4.8C171.25,4.666666666666666,171.875,4.553333333333333,172.5,4.4399999999999995C173.125,4.326666666666666,173.75,4.199999999999999,174.375,4.119999999999999C175,4.039999999999999,175.625,4.013333333333333,176.25,3.959999999999999C176.875,3.906666666666666,177.5,3.853333333333332,178.125,3.799999999999999C178.75,3.7466666666666657,179.375,3.693333333333332,180,3.639999999999999"></path><path class="axis-ceiling" stroke-width="1" stroke="black" fill="none" d="M175,0L180,0"></path><text class="axis-ceiling-label" font-family="sans-serif" text-anchor="end" font-size="10px" x="170" y="2.5">1000</text></g></svg>