<svg xmlns="http://www.w3.org/2000/svg" viewBox="0 0 180 60"><g transform="translate(0,20)"><path class="area" fill="rgba(0, 0, 0, 0.2)" d="M0,40C4.285714285714286,40,8.57142857142857,40,12.857142857142856,40C14.571428571428571,40,16.285714285714285,40,18,40C18.857142857142858,40,19.71428571428571,40,20.57142857142857,40C21.428571428571427,40,22.28571428571428,40,23.14285714285714,40C24.857142857142854,40,26.57142857142857,40,28.285714285714285,40C29.142857142857142,40,30,40,30.857142857142858,40C31.714285714285715,40,32.57142857142857,40,33.42857142857143,40C34.285714285714285,40,35.142857142857146,40,36,40C39.42857142857142,40,42.857142857142854,40,46.28571428571428,40C47.99999999999999,40,49.71428571428571,40,51.42857142857142,40C52.285714285714285,40,53.14285714285714,40,54,40C54.857142857142854,40,55.714285714285715,40,56.57142857142857,40C57.42857142857143,40,58.285714285714285,28,59.142857142857146,28C60,28,60.85714285714286,36,61.714285714285715,36C62.57142857142858,36,63.42857142857143,36,64.28571428571429,36C66,36,67.71428571428572,36,69.42857142857143,36C70.28571428571429,36,71.14285714285714,36,72,36C72.85714285714286,36,73.71428571428571,36,74.57142857142857,36C75.42857142857143,36,76.28571428571428,32,77.14285714285714,32C78,32,78.85714285714285,32,79.71428571428571,32C80.57142857142857,32,81.42857142857142,36,82.28571428571428,36C83.14285714285714,36,84,32,84.85714285714286,32C85.71428571428572,32,86.57142857142857,32,87.42857142857143,32C88.28571428571429,32,89.14285714285714,32,90,32C90.85714285714285,32,91.71428571428571,36,92.57142857142856,36C93.42857142857142,36,94.28571428571428,36,95.14285714285714,36C96,36,96.85714285714285,36,97.71428571428571,36C98.57142857142857,36,99.42857142857143,36,100.28571428571429,36C101.14285714285714,36,102,36,102.85714285714285,36C103.71428571428571,36,104.57142857142857,36,105.42857142857143,36C106.28571428571429,36,107.14285714285714,32,108,32C108.85714285714286,32,109.71428571428572,36,110.57142857142858,36C111.42857142857143,36,112.28571428571429,36,113.14285714285714,36C114,36,114.85714285714286,30,115.71428571428572,28C116.57142857142858,26.00000000000001,117.42857142857143,24,118.28571428571429,24C119.14285714285714,24,120,24,120.85714285714285,24C121.71428571428571,24,122.57142857142857,24,123.42857142857143,24C124.28571428571428,24,125.14285714285714,0,125.99999999999999,0C126.85714285714285,0,127.71428571428572,7.999999999999998,128.57142857142858,7.999999999999998C129.42857142857144,7.999999999999998,130.28571428571428,7.999999999999998,131.14285714285714,7.999999999999998C132,7.999999999999998,132.85714285714286,7.999999999999998,133.71428571428572,7.999999999999998C134.57142857142858,7.999999999999998,135.42857142857142,7.999999999999998,136.28571428571428,7.999999999999998C137.14285714285714,7.999999999999998,138,16,138.85714285714286,16C139.71428571428572,16,140.57142857142856,13.333333333333329,141.42857142857142,12.000000000000002C142.28571428571428,10.66666666666666,143.14285714285714,7.999999999999998,144,7.999999999999998C144.85714285714286,7.999999999999998,145.71428571428572,12.000000000000002,146.57142857142858,12.000000000000002C147.42857142857144,12.000000000000002,148.28571428571428,12.000000000000002,149.14285714285714,12.000000000000002C150,12.000000000000002,150.85714285714286,12.000000000000002,151.71428571428572,12.000000000000002C152.57142857142858,12.000000000000002,153.42857142857142,12.000000000000002,154.28571428571428,12.000000000000002C155.14285714285714,12.000000000000002,156,16,156.85714285714286,16C157.71428571428572,16,158.57142857142856,16,159.42857142857142,16C160.28571428571428,16,161.14285714285714,16,162,16C162.85714285714286,16,163.7142857142857,28,164.57142857142856,28C165.42857142857142,28,166.28571428571428,24,167.14285714285714,24C168,24,168.85714285714286,24,169.71428571428572,24C170.57142857142858,24,171.42857142857144,24,172.2857142857143,24C173.14285714285717,24,174,3.999999999999999,174.85714285714286,3.999999999999999C175.71428571428572,3.999999999999999,176.57142857142858,6.666666666666657,177.42857142857144,7.999999999999998C178.2857142857143,9.333333333333325,179.14285714285714,10.666666666666663,180,12.000000000000002L180,40C179.14285714285714,40,178.2857142857143,40,177.42857142857144,40C176.57142857142858,40,175.71428571428572,40,174.85714285714286,40C174,40,173.14285714285717,40,172.2857142857143,40C171.42857142857144,40,170.57142857142858,40,169.71428571428572,40C168.85714285714286,40,168,40,167.14285714285714,40C166.28571428571428,40,165.42857142857142,40,164.57142857142856,40C163.7142857142857,40,162.85714285714286,40,162,40C161.14285714285714,40,160.28571428571428,40,159.42857142857142,40C158.57142857142856,40,157.71428571428572,40,156.85714285714286,40C156,40,155.14285714285714,40,154.28571428571428,40C153.42857142857142,40,152.57142857142858,40,151.71428571428572,40C150.85714285714286,40,150,40,149.14285714285714,40C148.28571428571428,40,147.42857142857144,40,146.57142857142858,40C145.71428571428572,40,144.85714285714286,40,144,40C143.14285714285714,40,142.28571428571428,40,141.42857142857142,40C140.57142857142856,40,139.71428571428572,40,138.85714285714286,40C138,40,137.14285714285714,40,136.28571428571428,40C135.42857142857142,40,134.57142857142858,40,133.71428571428572,40C132.85714285714286,40,132,40,131.14285714285714,40C130.28571428571428,40,129.42857142857144,40,128.57142857142858,40C127.71428571428572,40,126.85714285714285,40,125.99999999999999,40C125.14285714285714,40,124.28571428571428,40,123.42857142857143,40C122.57142857142857,40,121.71428571428571,40,120.85714285714285,40C120,40,119.14285714285714,40,118.28571428571429,40C117.42857142857143,40,116.57142857142858,40,115.71428571428572,40C114.85714285714286,40,114,40,113.14285714285714,40C112.28571428571429,40,111.42857142857143,40,110.57142857142858,40C109.71428571428572,40,108.85714285714286,40,108,40C107.14285714285714,40,106.28571428571429,40,105.42857142857143,40C104.57142857142857,40,103.71428571428571,40,102.85714285714285,40C102,40,101.14285714285714,40,100.28571428571429,40C99.42857142857143,40,98.57142857142857,40,97.71428571428571,40C96.85714285714285,40,96,40,95.14285714285714,40C94.28571428571428,40,93.42857142857142,40,92.57142857142856,40C91.71428571428571,40,90.85714285714285,40,90,40C89.14285714285714,40,88.28571428571429,40,87.42857142857143,40C86.57142857142857,40,85.71428571428572,40,84.85714285714286,40C84,40,83.14285714285714,40,82.28571428571428,40C81.42857142857142,40,80.57142857142857,40,79.71428571428571,40C78.85714285714285,40,78,40,77.14285714285714,40C76.28571428571428,40,75.42857142857143,40,74.57142857142857,40C73.71428571428571,40,72.85714285714286,40,72,40C71.14285714285714,40,70.28571428571429,40,69.42857142857143,40C67.71428571428572,40,66,40,64.28571428571429,40C63.42857142857143,40,62.57142857142858,40,61.714285714285715,40C60.85714285714286,40,60,40,59.142857142857146,40C58.285714285714285,40,57.42857142857143,40,56.57142857142857,40C55.714285714285715,40,54.857142857142854,40,54,40C53.14285714285714,40,52.285714285714285,40,51.42857142857142,40C49.71428571428571,40,47.99999999999999,40,46.28571428571428,40C42.857142857142854,40,39.42857142857142,40,36,40C35.142857142857146,40,34.285714285714285,40,33.42857142857143,40C32.57142857142857,40,31.714285714285715,40,30.857142857142858,40C30,40,29.142857142857142,40,28.285714285714285,40C26.57142857142857,40,24.857142857142854,40,23.14285714285714,40C22.28571428571428,40,21.428571428571427,40,20.57142857142857,40C19.71428571428571,40,18.857142857142858,40,18,40C16.285714285714285,40,14.571428571428571,40,12.857142857142856,40C8.57142857142857,40,4.285714285714286,40,0,40Z"></path><path class="line" stroke="black" fill="none" d="M0,40C4.285714285714286,40,8.57142857142857,40,12.857142857142856,40C14.571428571428571,40,16.285714285714285,40,18,40C18.857142857142858,40,19.71428571428571,40,20.57142857142857,40C21.428571428571427,40,22.28571428571428,40,23.14285714285714,40C24.857142857142854,40,26.57142857142857,40,28.285714285714285,40C29.142857142857142,40,30,40,30.857142857142858,40C31.714285714285715,40,32.57142857142857,40,33.42857142857143,40C34.285714285714285,40,35.142857142857146,40,36,40C39.42857142857142,40,42.857142857142854,40,46.28571428571428,40C47.99999999999999,40,49.71428571428571,40,51.42857142857142,40C52.285714285714285,40,53.14285714285714,40,54,40C54.857142857142854,40,55.714285714285715,40,56.57142857142857,40C57.42857142857143,40,58.285714285714285,28,59.142857142857146,28C60,28,60.85714285714286,36,61.714285714285715,36C62.57142857142858,36,63.42857142857143,36,64.28571428571429,36C66,36,67.71428571428572,36,69.42857142857143,36C70.28571428571429,36,71.14285714285714,36,72,36C72.85714285714286,36,73.71428571428571,36,74.57142857142857,36C75.42857142857143,36,76.28571428571428,32,77.14285714285714,32C78,32,78.85714285714285,32,79.71428571428571,32C80.57142857142857,32,81.42857142857142,36,82.28571428571428,36C83.14285714285714,36,84,32,84.85714285714286,32C85.71428571428572,32,86.57142857142857,32,87.42857142857143,32C88.28571428571429,32,89.14285714285714,32,90,32C90.85714285714285,32,91.71428571428571,36,92.57142857142856,36C93.42857142857142,36,94.28571428571428,36,95.14285714285714,36C96,36,96.85714285714285,36,97.71428571428571,36C98.57142857142857,36,99.42857142857143,36,100.28571428571429,36C101.14285714285714,36,102,36,102.85714285714285,36C103.71428571428571,36,104.57142857142857,36,105.42857142857143,36C106.28571428571429,36,107.14285714285714,32,108,32C108.85714285714286,32,109.71428571428572,36,110.57142857142858,36C111.42857142857143,36,112.28571428571429,36,113.14285714285714,36C114,36,114.85714285714286,30,115.71428571428572,28C116.57142857142858,26.00000000000001,117.42857142857143,24,118.28571428571429,24C119.14285714285714,24,120,24,120.85714285714285,24C121.71428571428571,24,122.57142857142857,24,123.42857142857143,24C124.28571428571428,24,125.14285714285714,0,125.99999999999999,0C126.85714285714285,0,127.71428571428572,7.999999999999998,128.57142857142858,7.999999999999998C129.42857142857144,7.999999999999998,130.28571428571428,7.999999999999998,131.14285714285714,7.999999999999998C132,7.999999999999998,132.85714285714286,7.999999999999998,133.71428571428572,7.999999999999998C134.57142857142858,7.999999999999998,135.42857142857142,7.999999999999998,136.28571428571428,7.999999999999998C137.14285714285714,7.999999999999998,138,16,138.85714285714286,16C139.71428571428572,16,140.57142857142856,13.333333333333329,141.42857142857142,12.000000000000002C142.28571428571428,10.66666666666666,143.14285714285714,7.999999999999998,144,7.999999999999998C144.85714285714286,7.999999999999998,145.71428571428572,12.000000000000002,146.57142857142858,12.000000000000002C147.42857142857144,12.000000000000002,148.28571428571428,12.000000000000002,149.14285714285714,12.000000000000002C150,12.000000000000002,150.85714285714286,12.000000000000002,151.71428571428572,12.000000000000002C152.57142857142858,12.000000000000002,153.42857142857142,12.000000000000002,154.28571428571428,12.000000000000002C155.14285714285714,12.000000000000002,156,16,156.85714285714286,16C157.71428571428572,16,158.57142857142856,16,159.42857142857142,16C160.28571428571428,16,161.14285714285714,16,162,16C162.85714285714286,16,163.7142857142857,28,164.57142857142856,28C165.42857142857142,28,166.28571428571428,24,167.14285714285714,24C168,24,168.85714285714286,24,169.71428571428572,24C170.57142857142858,24,171.42857142857144,24,172.2857142857143,24C173.14285714285717,24,174,3.999999999999999,174.85714285714286,3.999999999999999C175.71428571428572,3.999999999999999,176.57142857142858,6.666666666666657,177.42857142857144,7.999999999999998C178.2857142857143,9.333333333333325,179.14285714285714,10.666666666666663,180,12.000000000000002"></path><path class="axis-ceiling" stroke-width="1" stroke="black" fill="none" d="M175,0L180,0"></path><text class="axis-ceiling-label" font-family="sans-serif" text-anchor="end" font-size="10px" x="170" y="2.5">10</text></g></svg>