<svg xmlns="http://www.w3.org/2000/svg" viewBox="0 0 180 60"><g transform="translate(0,20)"><path class="area" fill="rgba(0, 0, 0, 0.2)" d="M0,24C1.0169491525423728,24.306666666666665,2.0338983050847457,24.61333333333333,3.0508474576271185,24.61333333333333C4.067796610169491,24.61333333333333,5.084745762711864,23.75111111111112,6.101694915254237,23.680000000000003C7.11864406779661,23.608888888888888,8.135593220338983,23.644444444444446,9.152542372881356,23.57333333333333C10.169491525423728,23.502222222222215,11.186440677966102,23.328888888888883,12.203389830508474,23.09333333333333C13.220338983050846,22.857777777777777,14.23728813559322,22.160000000000004,15.254237288135592,22.160000000000004C16.271186440677965,22.160000000000004,17.28813559322034,23.200000000000003,18.305084745762713,23.200000000000003C19.322033898305087,23.200000000000003,20.338983050847457,23.14666666666667,21.35593220338983,23.14666666666667C22.372881355932204,23.14666666666667,23.389830508474574,23.386666666666667,24.406779661016948,23.386666666666667C25.423728813559322,23.386666666666667,26.440677966101696,23.200000000000003,27.45762711864407,23.200000000000003C28.47457627118644,23.200000000000003,29.491525423728813,23.759999999999998,30.508474576271183,23.759999999999998C31.525423728813557,23.759999999999998,32.54237288135593,23.28,33.559322033898304,23.28C34.57627118644068,23.28,35.59322033898305,24.10666666666667,36.610169491525426,24.10666666666667C37.6271186440678,24.10666666666667,38.644067796610166,22.693333333333335,39.66101694915254,22.693333333333335C40.67796610169491,22.693333333333335,41.69491525423729,22.693333333333335,42.71186440677966,22.693333333333335C43.728813559322035,22.693333333333335,44.7457627118644,22.64,45.762711864406775,22.64C46.77966101694915,22.64,47.79661016949152,22.764444444444447,48.813559322033896,22.853333333333335C49.83050847457627,22.942222222222224,50.847457627118644,23.06222222222222,51.86440677966102,23.173333333333332C52.88135593220339,23.284444444444443,53.898305084745765,23.448888888888895,54.91525423728814,23.520000000000003C55.93220338983051,23.59111111111111,56.94915254237288,23.555555555555557,57.96610169491525,23.626666666666665C58.983050847457626,23.697777777777773,59.99999999999999,23.973333333333333,61.01694915254237,24.08C62.03389830508474,24.186666666666664,63.05084745762712,24.266666666666666,64.0677966101695,24.266666666666666C65.08474576271186,24.266666666666666,66.10169491525424,24.24,67.11864406779661,24.186666666666667C68.13559322033899,24.133333333333336,69.15254237288136,23.78666666666667,70.16949152542374,23.78666666666667C71.1864406779661,23.78666666666667,72.20338983050848,25.38666666666667,73.22033898305085,25.38666666666667C74.23728813559322,25.38666666666667,75.2542372881356,25.12,76.27118644067797,24.96C77.28813559322033,24.8,78.30508474576271,24.42666666666667,79.32203389830508,24.42666666666667C80.33898305084746,24.42666666666667,81.35593220338983,24.48,82.37288135593221,24.48C83.38983050847457,24.48,84.40677966101696,24.195555555555554,85.42372881355932,24C86.4406779661017,23.804444444444442,87.45762711864407,23.306666666666665,88.47457627118645,23.306666666666665C89.49152542372882,23.306666666666665,90.50847457627118,23.813333333333333,91.52542372881355,23.813333333333333C92.54237288135593,23.813333333333333,93.55932203389831,22.800000000000004,94.57627118644069,22.800000000000004C95.59322033898306,22.800000000000004,96.61016949152543,22.96,97.62711864406779,22.96C98.64406779661016,22.96,99.66101694915254,22.31555555555556,100.6779661016949,22.080000000000002C101.69491525423729,21.844444444444445,102.71186440677965,21.902222222222225,103.72881355932203,21.546666666666667C104.7457627118644,21.191111111111113,105.76271186440678,19.706666666666667,106.77966101694915,19.706666666666667C107.79661016949153,19.706666666666667,108.8135593220339,20.053333333333335,109.83050847457628,20.053333333333335C110.84745762711864,20.053333333333335,111.86440677966102,19.733333333333334,112.88135593220339,19.093333333333334C113.89830508474576,18.453333333333333,114.91525423728814,16.275555555555556,115.9322033898305,15.413333333333332C116.94915254237289,14.551111111111105,117.96610169491525,14.431111111111111,118.98305084745763,13.919999999999998C120,13.408888888888889,121.01694915254237,12.799999999999997,122.03389830508473,12.346666666666666C123.05084745762711,11.893333333333329,124.0677966101695,11.640000000000004,125.08474576271188,11.200000000000001C126.10169491525424,10.760000000000003,127.11864406779662,10.702222222222224,128.135593220339,9.706666666666667C129.15254237288136,8.711111111111116,130.16949152542372,5.804444444444441,131.1864406779661,5.146666666666668C132.20338983050846,4.488888888888889,133.22033898305085,4.551111111111111,134.23728813559322,4.159999999999999C135.25423728813558,3.7688888888888874,136.27118644067798,2.799999999999998,137.28813559322035,2.799999999999998C138.3050847457627,2.799999999999998,139.3220338983051,3.1066666666666607,140.33898305084747,3.706666666666667C141.35593220338984,4.3066666666666675,142.3728813559322,6.400000000000001,143.38983050847457,6.400000000000001C144.40677966101694,6.400000000000001,145.42372881355934,1.3600000000000012,146.4406779661017,1.3600000000000012C147.45762711864407,1.3600000000000012,148.47457627118644,2.662222222222222,149.4915254237288,3.1199999999999983C150.50847457627117,3.5777777777777793,151.52542372881356,3.9288888888888915,152.54237288135593,4.106666666666667C153.5593220338983,4.284444444444444,154.5762711864407,4.373333333333331,155.59322033898306,4.373333333333331C156.61016949152543,4.373333333333331,157.6271186440678,4.15111111111111,158.64406779661016,3.706666666666667C159.66101694915253,3.26222222222222,160.67796610169492,1.306666666666668,161.6949152542373,1.040000000000001C162.71186440677965,0.773333333333334,163.72881355932205,0.6400000000000006,164.74576271186442,0.6400000000000006C165.76271186440678,0.6400000000000006,166.77966101694915,0.6400000000000006,167.79661016949152,0.6400000000000006C168.81355932203388,0.6400000000000006,169.83050847457628,0.6400000000000006,170.84745762711864,0.6400000000000006C171.864406779661,0.6400000000000006,172.8813559322034,1.3822222222222238,173.89830508474577,1.7600000000000016C174.91525423728814,2.1377777777777793,175.93220338983053,2.8533333333333326,176.9491525423729,2.9066666666666663C177.96610169491527,2.9599999999999995,178.98305084745763,2.973333333333333,180,2.9866666666666664L180,40C178.98305084745763,40,177.96610169491527,40,176.9491525423729,40C175.93220338983053,40,174.91525423728814,40,173.89830508474577,40C172.8813559322034,40,171.864406779661,40,170.84745762711864,40C169.83050847457628,40,168.81355932203388,40,167.79661016949152,40C166.77966101694915,40,165.76271186440678,40,164.74576271186442,40C163.72881355932205,40,162.71186440677965,40,161.6949152542373,40C160.67796610169492,40,159.66101694915253,40,158.64406779661016,40C157.6271186440678,40,156.61016949152543,40,155.59322033898306,40C154.5762711864407,40,153.5593220338983,40,152.54237288135593,40C151.52542372881356,40,150.50847457627117,40,149.4915254237288,40C148.47457627118644,40,147.45762711864407,40,146.4406779661017,40C145.42372881355934,40,144.40677966101694,40,143.38983050847457,40C142.3728813559322,40,141.35593220338984,40,140.33898305084747,40C139.3220338983051,40,138.3050847457627,40,137.28813559322035,40C136.27118644067798,40,135.25423728813558,40,134.23728813559322,40C133.22033898305085,40,132.20338983050846,40,131.1864406779661,40C130.16949152542372,40,129.15254237288136,40,128.135593220339,40C127.11864406779662,40,126.10169491525424,40,125.08474576271188,40C124.0677966101695,40,123.05084745762711,40,122.03389830508473,40C121.01694915254237,40,120,40,118.98305084745763,40C117.96610169491525,40,116.94915254237289,40,115.9322033898305,40C114.91525423728814,40,113.89830508474576,40,112.88135593220339,40C111.86440677966102,40,110.84745762711864,40,109.83050847457628,40C108.8135593220339,40,107.79661016949153,40,106.77966101694915,40C105.76271186440678,40,104.7457627118644,40,103.72881355932203,40C102.71186440677965,40,101.69491525423729,40,100.6779661016949,40C99.66101694915254,40,98.64406779661016,40,97.62711864406779,40C96.61016949152543,40,95.59322033898306,40,94.57627118644069,40C93.55932203389831,40,92.54237288135593,40,91.52542372881355,40C90.50847457627118,40,89.49152542372882,40,88.47457627118645,40C87.45762711864407,40,86.4406779661017,40,85.42372881355932,40C84.40677966101696,40,83.38983050847457,40,82.37288135593221,40C81.35593220338983,40,80.33898305084746,40,79.32203389830508,40C78.30508474576271,40,77.28813559322033,40,76.27118644067797,40C75.2542372881356,40,74.23728813559322,40,73.22033898305085,40C72.20338983050848,40,71.1864406779661,40,70.16949152542374,40C69.15254237288136,40,68.13559322033899,40,67.11864406779661,40C66.10169491525424,40,65.08474576271186,40,64.0677966101695,40C63.05084745762712,40,62.03389830508474,40,61.01694915254237,40C59.99999999999999,40,58.983050847457626,40,57.96610169491525,40C56.94915254237288,40,55.93220338983051,40,54.91525423728814,40C53.898305084745765,40,52.88135593220339,40,51.86440677966102,40C50.847457627118644,40,49.83050847457627,40,48.813559322033896,40C47.79661016949152,40,46.77966101694915,40,45.762711864406775,40C44.7457627118644,40,43.728813559322035,40,42.71186440677966,40C41.69491525423729,40,40.67796610169491,40,39.66101694915254,40C38.644067796610166,40,37.6271186440678,40,36.610169491525426,40C35.59322033898305,40,34.57627118644068,40,33.559322033898304,40C32.54237288135593,40,31.525423728813557,40,30.508474576271183,40C29.491525423728813,40,28.47457627118644,40,27.45762711864407,40C26.440677966101696,40,25.423728813559322,40,24.406779661016948,40C23.389830508474574,40,22.372881355932204,40,21.35593220338983,40C20.338983050847457,40,19.322033898305087,40,18.305084745762713,40C17.28813559322034,40,16.271186440677965,40,15.254237288135592,40C14.23728813559322,40,13.220338983050846,40,12.203389830508474,40C11.186440677966102,40,10.169491525423728,40,9.152542372881356,40C8.135593220338983,40,7.11864406779661,40,6.101694915254237,40C5.084745762711864,40,4.067796610169491,40,3.0508474576271185,40C2.0338983050847457,40,1.0169491525423728,40,0,40Z"></path><path class="line" stroke="black" fill="none" d="M0,24C1.0169491525423728,24.306666666666665,2.0338983050847457,24.61333333333333,3.0508474576271185,24.61333333333333C4.067796610169491,24.61333333333333,5.084745762711864,23.75111111111112,6.101694915254237,23.680000000000003C7.11864406779661,23.608888888888888,8.135593220338983,23.644444444444446,9.152542372881356,23.57333333333333C10.169491525423728,23.502222222222215,11.186440677966102,23.328888888888883,12.203389830508474,23.09333333333333C13.220338983050846,22.857777777777777,14.23728813559322,22.160000000000004,15.254237288135592,22.160000000000004C16.271186440677965,22.160000000000004,17.28813559322034,23.200000000000003,18.305084745762713,23.200000000000003C19.322033898305087,23.200000000000003,20.338983050847457,23.14666666666667,21.35593220338983,23.14666666666667C22.372881355932204,23.14666666666667,23.389830508474574,23.386666666666667,24.406779661016948,23.386666666666667C25.423728813559322,23.386666666666667,26.440677966101696,23.200000000000003,27.45762711864407,23.200000000000003C28.47457627118644,23.200000000000003,29.491525423728813,23.759999999999998,30.508474576271183,23.759999999999998C31.525423728813557,23.759999999999998,32.54237288135593,23.28,33.559322033898304,23.28C34.57627118644068,23.28,35.59322033898305,24.10666666666667,36.610169491525426,24.10666666666667C37.6271186440678,24.10666666666667,38.644067796610166,22.693333333333335,39.66101694915254,22.693333333333335C40.67796610169491,22.693333333333335,41.69491525423729,22.693333333333335,42.71186440677966,22.693333333333335C43.728813559322035,22.693333333333335,44.7457627118644,22.64,45.762711864406775,22.64C46.77966101694915,22.64,47.79661016949152,22.764444444444447,48.813559322033896,22.853333333333335C49.83050847457627,22.942222222222224,50.847457627118644,23.06222222222222,51.86440677966102,23.173333333333332C52.88135593220339,23.284444444444443,53.898305084745765,23.448888888888895,54.91525423728814,23.520000000000003C55.93220338983051,23.59111111111111,56.94915254237288,23.555555555555557,57.96610169491525,23.626666666666665C58.983050847457626,23.697777777777773,59.99999999999999,23.973333333333333,61.01694915254237,24.08C62.03389830508474,24.186666666666664,63.05084745762712,24.266666666666666,64.0677966101695,24.266666666666666C65.08474576271186,24.266666666666666,66.10169491525424,24.24,67.11864406779661,24.186666666666667C68.13559322033899,24.133333333333336,69.15254237288136,23.78666666666667,70.16949152542374,23.78666666666667C71.1864406779661,23.78666666666667,72.20338983050848,25.38666666666667,73.22033898305085,25.38666666666667C74.23728813559322,25.38666666666667,75.2542372881356,25.12,76.27118644067797,24.96C77.28813559322033,24.8,78.30508474576271,24.42666666666667,79.32203389830508,24.42666666666667C80.33898305084746,24.42666666666667,81.35593220338983,24.48,82.37288135593221,24.48C83.38983050847457,24.48,84.40677966101696,24.195555555555554,85.42372881355932,24C86.4406779661017,23.804444444444442,87.45762711864407,23.306666666666665,88.47457627118645,23.306666666666665C89.49152542372882,23.306666666666665,90.50847457627118,23.813333333333333,91.52542372881355,23.813333333333333C92.54237288135593,23.813333333333333,93.55932203389831,22.800000000000004,94.57627118644069,22.800000000000004C95.59322033898306,22.800000000000004,96.61016949152543,22.96,97.62711864406779,22.96C98.64406779661016,22.96,99.66101694915254,22.31555555555556,100.6779661016949,22.080000000000002C101.69491525423729,21.844444444444445,102.71186440677965,21.902222222222225,103.72881355932203,21.546666666666667C104.7457627118644,21.191111111111113,105.76271186440678,19.706666666666667,106.77966101694915,19.706666666666667C107.79661016949153,19.706666666666667,108.8135593220339,20.053333333333335,109.83050847457628,20.053333333333335C110.84745762711864,20.053333333333335,111.86440677966102,19.733333333333334,112.88135593220339,19.093333333333334C113.89830508474576,18.453333333333333,114.91525423728814,16.275555555555556,115.9322033898305,15.413333333333332C116.94915254237289,14.551111111111105,117.96610169491525,14.431111111111111,118.98305084745763,13.919999999999998C120,13.408888888888889,121.01694915254237,12.799999999999997,122.03389830508473,12.346666666666666C123.05084745762711,11.893333333333329,124.0677966101695,11.640000000000004,125.08474576271188,11.200000000000001C126.10169491525424,10.760000000000003,127.11864406779662,10.702222222222224,128.135593220339,9.706666666666667C129.15254237288136,8.711111111111116,130.16949152542372,5.804444444444441,131.1864406779661,5.146666666666668C132.20338983050846,4.488888888888889,133.22033898305085,4.551111111111111,134.23728813559322,4.159999999999999C135.25423728813558,3.7688888888888874,136.27118644067798,2.799999999999998,137.28813559322035,2.799999999999998C138.3050847457627,2.799999999999998,139.3220338983051,3.1066666666666607,140.33898305084747,3.706666666666667C141.35593220338984,4.3066666666666675,142.3728813559322,6.400000000000001,143.38983050847457,6.400000000000001C144.40677966101694,6.400000000000001,145.42372881355934,1.3600000000000012,146.4406779661017,1.3600000000000012C147.45762711864407,1.3600000000000012,148.47457627118644,2.662222222222222,149.4915254237288,3.1199999999999983C150.50847457627117,3.5777777777777793,151.52542372881356,3.9288888888888915,152.54237288135593,4.106666666666667C153.5593220338983,4.284444444444444,154.5762711864407,4.373333333333331,155.59322033898306,4.373333333333331C156.61016949152543,4.373333333333331,157.6271186440678,4.15111111111111,158.64406779661016,3.706666666666667C159.66101694915253,3.26222222222222,160.67796610169492,1.306666666666668,161.6949152542373,1.040000000000001C162.71186440677965,0.773333333333334,163.72881355932205,0.6400000000000006,164.74576271186442,0.6400000000000006C165.76271186440678,0.6400000000000006,166.77966101694915,0.6400000000000006,167.79661016949152,0.6400000000000006C168.81355932203388,0.6400000000000006,169.83050847457628,0.6400000000000006,170.84745762711864,0.6400000000000006C171.864406779661,0.6400000000000006,172.8813559322034,1.3822222222222238,173.89830508474577,1.7600000000000016C174.91525423728814,2.1377777777777793,175.93220338983053,2.8533333333333326,176.9491525423729,2.9066666666666663C177.96610169491527,2.9599999999999995,178.98305084745763,2.973333333333333,180,2.9866666666666664"></path><path class="axis-ceiling" stroke-width="1" stroke="black" fill="none" d="M175,0L180,0"></path><text class="axis-ceiling-label" font-family="sans-serif" text-anchor="end" font-size="10px" x="170" y="2.5">1500</text></g></svg>