<svg xmlns="http://www.w3.org/2000/svg" viewBox="0 0 180 60"><g transform="translate(0,20)"><path class="area" fill="rgba(0, 0, 0, 0.2)" d="M0,40C1.3636363636363635,40,2.7272727272727275,40,4.090909090909091,40C4.318181818181818,40,4.545454545454545,40,4.7727272727272725,40C5,40,5.2272727272727275,40,5.454545454545455,40C58.63636363636363,40,111.81818181818181,40,165,40C165.22727272727272,40,165.45454545454547,40,165.6818181818182,40C165.9090909090909,40,166.13636363636363,40,166.36363636363635,40C166.59090909090907,40,166.8181818181818,40,167.04545454545453,40C167.27272727272725,40,167.5,40,167.72727272727272,40C169.3181818181818,40,170.9090909090909,40,172.5,40C172.72727272727272,40,172.95454545454547,40,173.1818181818182,40C173.4090909090909,40,173.63636363636365,40,173.86363636363637,40C174.0909090909091,40,174.31818181818184,40,174.54545454545456,40C174.77272727272728,40,175,40,175.22727272727272,40C175.45454545454544,40,175.6818181818182,32,175.9090909090909,32C176.13636363636363,32,176.36363636363637,32,176.5909090909091,32C176.8181818181818,32,177.04545454545456,32,177.27272727272728,32C177.5,32,177.72727272727275,32,177.95454545454547,32C178.1818181818182,32,178.4090909090909,32,178.63636363636363,32C178.86363636363635,32,179.0909090909091,32,179.3181818181818,32C179.54545454545453,32,179.77272727272728,28,180,24L180,40C179.77272727272728,40,179.54545454545453,40,179.3181818181818,40C179.0909090909091,40,178.86363636363635,40,178.63636363636363,40C178.4090909090909,40,178.1818181818182,40,177.95454545454547,40C177.72727272727275,40,177.5,40,177.27272727272728,40C177.04545454545456,40,176.8181818181818,40,176.5909090909091,40C176.36363636363637,40,176.13636363636363,40,175.9090909090909,40C175.6818181818182,40,175.45454545454544,40,175.22727272727272,40C175,40,174.77272727272728,40,174.54545454545456,40C174.31818181818184,40,174.0909090909091,40,173.86363636363637,40C173.63636363636365,40,173.4090909090909,40,173.1818181818182,40C172.95454545454547,40,172.72727272727272,40,172.5,40C170.9090909090909,40,169.3181818181818,40,167.72727272727272,40C167.5,40,167.27272727272725,40,167.04545454545453,40C166.8181818181818,40,166.59090909090907,40,166.36363636363635,40C166.13636363636363,40,165.9090909090909,40,165.6818181818182,40C165.45454545454547,40,165.22727272727272,40,165,40C111.81818181818181,40,58.63636363636363,40,5.454545454545455,40C5.2272727272727275,40,5,40,4.7727272727272725,40C4.545454545454545,40,4.318181818181818,40,4.090909090909091,40C2.7272727272727275,40,1.3636363636363635,40,0,40Z"></path><path class="line" stroke="black" fill="none" d="M0,40C1.3636363636363635,40,2.7272727272727275,40,4.090909090909091,40C4.318181818181818,40,4.545454545454545,40,4.7727272727272725,40C5,40,5.2272727272727275,40,5.454545454545455,40C58.63636363636363,40,111.81818181818181,40,165,40C165.22727272727272,40,165.45454545454547,40,165.6818181818182,40C165.9090909090909,40,166.13636363636363,40,166.36363636363635,40C166.59090909090907,40,166.8181818181818,40,167.04545454545453,40C167.27272727272725,40,167.5,40,167.72727272727272,40C169.3181818181818,40,170.9090909090909,40,172.5,40C172.72727272727272,40,172.95454545454547,40,173.1818181818182,40C173.4090909090909,40,173.63636363636365,40,173.86363636363637,40C174.0909090909091,40,174.31818181818184,40,174.54545454545456,40C174.77272727272728,40,175,40,175.22727272727272,40C175.45454545454544,40,175.6818181818182,32,175.9090909090909,32C176.13636363636363,32,176.36363636363637,32,176.5909090909091,32C176.8181818181818,32,177.04545454545456,32,177.27272727272728,32C177.5,32,177.72727272727275,32,177.95454545454547,32C178.1818181818182,32,178.4090909090909,32,178.63636363636363,32C178.86363636363635,32,179.0909090909091,32,179.3181818181818,32C179.54545454545453,32,179.77272727272728,28,180,24"></path><path class="axis-ceiling" stroke-width="1" stroke="black" fill="none" d="M175,0L180,0"></path><text class="axis-ceiling-label" font-family="sans-serif" text-anchor="end" font-size="10px" x="170" y="2.5">5</text></g></svg>