<svg xmlns="http://www.w3.org/2000/svg" viewBox="0 0 180 60"><g transform="translate(0,20)"><path class="area" fill="rgba(0, 0, 0, 0.2)" d="M0,32.84552845528455C1.0169491525423728,32.52032520325203,2.0338983050847457,32.19512195121951,3.0508474576271185,32.19512195121951C4.067796610169491,32.19512195121951,5.084745762711864,32.52032520325203,6.101694915254237,32.52032520325203C7.11864406779661,32.52032520325203,8.135593220338983,32.52032520325203,9.152542372881356,32.52032520325203C10.169491525423728,32.52032520325203,11.186440677966102,32.52032520325203,12.203389830508474,32.52032520325203C13.220338983050846,32.52032520325203,14.23728813559322,31.54471544715447,15.254237288135592,31.54471544715447C16.271186440677965,31.54471544715447,17.28813559322034,32.30352303523035,18.305084745762713,32.52032520325203C19.322033898305087,32.73712737127371,20.338983050847457,32.84552845528455,21.35593220338983,32.84552845528455C22.372881355932204,32.84552845528455,23.389830508474574,32.086720867208676,24.406779661016948,31.869918699186993C25.423728813559322,31.653116531165313,26.440677966101696,31.54471544715447,27.45762711864407,31.54471544715447C28.47457627118644,31.54471544715447,29.491525423728813,31.54471544715447,30.508474576271183,31.54471544715447C31.525423728813557,31.54471544715447,32.54237288135593,32.52032520325203,33.559322033898304,32.52032520325203C34.57627118644068,32.52032520325203,35.59322033898305,31.43631436314363,36.610169491525426,31.21951219512195C37.6271186440678,31.00271002710027,38.644067796610166,30.89430894308943,39.66101694915254,30.89430894308943C40.67796610169491,30.89430894308943,41.69491525423729,33.170731707317074,42.71186440677966,33.170731707317074C43.728813559322035,33.170731707317074,44.7457627118644,29.593495934959346,45.762711864406775,29.593495934959346C46.77966101694915,29.593495934959346,47.79661016949152,32.19512195121951,48.813559322033896,32.19512195121951C49.83050847457627,32.19512195121951,50.847457627118644,31.70731707317073,51.86440677966102,31.54471544715447C52.88135593220339,31.38211382113821,53.898305084745765,31.21951219512195,54.91525423728814,31.21951219512195C55.93220338983051,31.21951219512195,56.94915254237288,31.21951219512195,57.96610169491525,31.21951219512195C58.983050847457626,31.21951219512195,59.99999999999999,31.869918699186993,61.01694915254237,32.19512195121951C62.03389830508474,32.520325203252035,63.05084745762712,33.170731707317074,64.0677966101695,33.170731707317074C65.08474576271186,33.170731707317074,66.10169491525424,33.170731707317074,67.11864406779661,33.170731707317074C68.13559322033899,33.170731707317074,69.15254237288136,26.991869918699187,70.16949152542374,26.991869918699187C71.1864406779661,26.991869918699187,72.20338983050848,31.21951219512195,73.22033898305085,31.21951219512195C74.23728813559322,31.21951219512195,75.2542372881356,30.51490514905149,76.27118644067797,30.24390243902439C77.28813559322033,29.972899728997287,78.30508474576271,29.593495934959346,79.32203389830508,29.593495934959346C80.33898305084746,29.593495934959346,81.35593220338983,29.918699186991873,82.37288135593221,29.918699186991873C83.38983050847457,29.918699186991873,84.40677966101696,26.016260162601625,85.42372881355932,26.016260162601625C86.4406779661017,26.016260162601625,87.45762711864407,28.292682926829265,88.47457627118645,28.292682926829265C89.49152542372882,28.292682926829265,90.50847457627118,26.991869918699187,91.52542372881355,26.991869918699187C92.54237288135593,26.991869918699187,93.55932203389831,32.84552845528455,94.57627118644069,32.84552845528455C95.59322033898306,32.84552845528455,96.61016949152543,31.00271002710026,97.62711864406779,29.268292682926827C98.64406779661016,27.533875338753383,99.66101694915254,24.065040650406505,100.6779661016949,22.439024390243905C101.69491525423729,20.813008130081297,102.71186440677965,19.51219512195122,103.72881355932203,19.51219512195122C104.7457627118644,19.51219512195122,105.76271186440678,20.05420054200542,106.77966101694915,20.8130081300813C107.79661016949153,21.571815718157183,108.8135593220339,22.547425474254734,109.83050847457628,24.0650406504065C110.84745762711864,25.582655826558263,111.86440677966102,29.918699186991873,112.88135593220339,29.918699186991873C113.89830508474576,29.918699186991873,114.91525423728814,27.317073170731703,115.9322033898305,27.317073170731703C116.94915254237289,27.317073170731703,117.96610169491525,28.617886178861788,118.98305084745763,28.617886178861788C120,28.617886178861788,121.01694915254237,28.617886178861788,122.03389830508473,28.617886178861788C123.05084745762711,28.617886178861788,124.0677966101695,18.211382113821138,125.08474576271188,18.211382113821138C126.10169491525424,18.211382113821138,127.11864406779662,18.319783197831978,128.135593220339,18.536585365853657C129.15254237288136,18.753387533875337,130.16949152542372,31.21951219512195,131.1864406779661,31.21951219512195C132.20338983050846,31.21951219512195,133.22033898305085,25.69105691056911,134.23728813559322,25.69105691056911C135.25423728813558,25.69105691056911,136.27118644067798,31.978319783197833,137.28813559322035,33.82113821138211C138.3050847457627,35.66395663956639,139.3220338983051,36.7479674796748,140.33898305084747,36.7479674796748C141.35593220338984,36.7479674796748,142.3728813559322,4.552845528455283,143.38983050847457,4.552845528455283C144.40677966101694,4.552845528455283,145.42372881355934,18.970189701897006,146.4406779661017,20.48780487804878C147.45762711864407,22.005420054200542,148.47457627118644,21.246612466124663,149.4915254237288,22.764227642276424C150.50847457627117,24.2818428184282,151.52542372881356,30.569105691056908,152.54237288135593,30.569105691056908C153.5593220338983,30.569105691056908,154.5762711864407,27.96747967479675,155.59322033898306,27.96747967479675C156.61016949152543,27.96747967479675,157.6271186440678,28.29268292682927,158.64406779661016,28.94308943089431C159.66101694915253,29.593495934959357,160.67796610169492,31.707317073170728,161.6949152542373,32.52032520325203C162.71186440677965,33.33333333333333,163.72881355932205,33.27913279132791,164.74576271186442,33.82113821138211C165.76271186440678,34.363143631436316,166.77966101694915,35.77235772357724,167.79661016949152,35.77235772357724C168.81355932203388,35.77235772357724,169.83050847457628,30.24390243902439,170.84745762711864,30.24390243902439C171.864406779661,30.24390243902439,172.8813559322034,40,173.89830508474577,40C174.91525423728814,40,175.93220338983053,21.13821138211382,176.9491525423729,21.13821138211382C177.96610169491527,21.13821138211382,178.98305084745763,26.178861788617887,180,31.21951219512195L180,40C178.98305084745763,40,177.96610169491527,40,176.9491525423729,40C175.93220338983053,40,174.91525423728814,40,173.89830508474577,40C172.8813559322034,40,171.864406779661,40,170.84745762711864,40C169.83050847457628,40,168.81355932203388,40,167.79661016949152,40C166.77966101694915,40,165.76271186440678,40,164.74576271186442,40C163.72881355932205,40,162.71186440677965,40,161.6949152542373,40C160.67796610169492,40,159.66101694915253,40,158.64406779661016,40C157.6271186440678,40,156.61016949152543,40,155.59322033898306,40C154.5762711864407,40,153.5593220338983,40,152.54237288135593,40C151.52542372881356,40,150.50847457627117,40,149.4915254237288,40C148.47457627118644,40,147.45762711864407,40,146.4406779661017,40C145.42372881355934,40,144.40677966101694,40,143.38983050847457,40C142.3728813559322,40,141.35593220338984,40,140.33898305084747,40C139.3220338983051,40,138.3050847457627,40,137.28813559322035,40C136.27118644067798,40,135.25423728813558,40,134.23728813559322,40C133.22033898305085,40,132.20338983050846,40,131.1864406779661,40C130.16949152542372,40,129.15254237288136,40,128.135593220339,40C127.11864406779662,40,126.10169491525424,40,125.08474576271188,40C124.0677966101695,40,123.05084745762711,40,122.03389830508473,40C121.01694915254237,40,120,40,118.98305084745763,40C117.96610169491525,40,116.94915254237289,40,115.9322033898305,40C114.91525423728814,40,113.89830508474576,40,112.88135593220339,40C111.86440677966102,40,110.84745762711864,40,109.83050847457628,40C108.8135593220339,40,107.79661016949153,40,106.77966101694915,40C105.76271186440678,40,104.7457627118644,40,103.72881355932203,40C102.71186440677965,40,101.69491525423729,40,100.6779661016949,40C99.66101694915254,40,98.64406779661016,40,97.62711864406779,40C96.61016949152543,40,95.59322033898306,40,94.57627118644069,40C93.55932203389831,40,92.54237288135593,40,91.52542372881355,40C90.50847457627118,40,89.49152542372882,40,88.47457627118645,40C87.45762711864407,40,86.4406779661017,40,85.42372881355932,40C84.40677966101696,40,83.38983050847457,40,82.37288135593221,40C81.35593220338983,40,80.33898305084746,40,79.32203389830508,40C78.30508474576271,40,77.28813559322033,40,76.27118644067797,40C75.2542372881356,40,74.23728813559322,40,73.22033898305085,40C72.20338983050848,40,71.1864406779661,40,70.16949152542374,40C69.15254237288136,40,68.13559322033899,40,67.11864406779661,40C66.10169491525424,40,65.08474576271186,40,64.0677966101695,40C63.05084745762712,40,62.03389830508474,40,61.01694915254237,40C59.99999999999999,40,58.983050847457626,40,57.96610169491525,40C56.94915254237288,40,55.93220338983051,40,54.91525423728814,40C53.898305084745765,40,52.88135593220339,40,51.86440677966102,40C50.847457627118644,40,49.83050847457627,40,48.813559322033896,40C47.79661016949152,40,46.77966101694915,40,45.762711864406775,40C44.7457627118644,40,43.728813559322035,40,42.71186440677966,40C41.69491525423729,40,40.67796610169491,40,39.66101694915254,40C38.644067796610166,40,37.6271186440678,40,36.610169491525426,40C35.59322033898305,40,34.57627118644068,40,33.559322033898304,40C32.54237288135593,40,31.525423728813557,40,30.508474576271183,40C29.491525423728813,40,28.47457627118644,40,27.45762711864407,40C26.440677966101696,40,25.423728813559322,40,24.406779661016948,40C23.389830508474574,40,22.372881355932204,40,21.35593220338983,40C20.338983050847457,40,19.322033898305087,40,18.305084745762713,40C17.28813559322034,40,16.271186440677965,40,15.254237288135592,40C14.23728813559322,40,13.220338983050846,40,12.203389830508474,40C11.186440677966102,40,10.169491525423728,40,9.152542372881356,40C8.135593220338983,40,7.11864406779661,40,6.101694915254237,40C5.084745762711864,40,4.067796610169491,40,3.0508474576271185,40C2.0338983050847457,40,1.0169491525423728,40,0,40Z"></path><path class="line" stroke="black" fill="none" d="M0,32.84552845528455C1.0169491525423728,32.52032520325203,2.0338983050847457,32.19512195121951,3.0508474576271185,32.19512195121951C4.067796610169491,32.19512195121951,5.084745762711864,32.52032520325203,6.101694915254237,32.52032520325203C7.11864406779661,32.52032520325203,8.135593220338983,32.52032520325203,9.152542372881356,32.52032520325203C10.169491525423728,32.52032520325203,11.186440677966102,32.52032520325203,12.203389830508474,32.52032520325203C13.220338983050846,32.52032520325203,14.23728813559322,31.54471544715447,15.254237288135592,31.54471544715447C16.271186440677965,31.54471544715447,17.28813559322034,32.30352303523035,18.305084745762713,32.52032520325203C19.322033898305087,32.73712737127371,20.338983050847457,32.84552845528455,21.35593220338983,32.84552845528455C22.372881355932204,32.84552845528455,23.389830508474574,32.086720867208676,24.406779661016948,31.869918699186993C25.423728813559322,31.653116531165313,26.440677966101696,31.54471544715447,27.45762711864407,31.54471544715447C28.47457627118644,31.54471544715447,29.491525423728813,31.54471544715447,30.508474576271183,31.54471544715447C31.525423728813557,31.54471544715447,32.54237288135593,32.52032520325203,33.559322033898304,32.52032520325203C34.57627118644068,32.52032520325203,35.59322033898305,31.43631436314363,36.610169491525426,31.21951219512195C37.6271186440678,31.00271002710027,38.644067796610166,30.89430894308943,39.66101694915254,30.89430894308943C40.67796610169491,30.89430894308943,41.69491525423729,33.170731707317074,42.71186440677966,33.170731707317074C43.728813559322035,33.170731707317074,44.7457627118644,29.593495934959346,45.762711864406775,29.593495934959346C46.77966101694915,29.593495934959346,47.79661016949152,32.19512195121951,48.813559322033896,32.19512195121951C49.83050847457627,32.19512195121951,50.847457627118644,31.70731707317073,51.86440677966102,31.54471544715447C52.88135593220339,31.38211382113821,53.898305084745765,31.21951219512195,54.91525423728814,31.21951219512195C55.93220338983051,31.21951219512195,56.94915254237288,31.21951219512195,57.96610169491525,31.21951219512195C58.983050847457626,31.21951219512195,59.99999999999999,31.869918699186993,61.01694915254237,32.19512195121951C62.03389830508474,32.520325203252035,63.05084745762712,33.170731707317074,64.0677966101695,33.170731707317074C65.08474576271186,33.170731707317074,66.10169491525424,33.170731707317074,67.11864406779661,33.170731707317074C68.13559322033899,33.170731707317074,69.15254237288136,26.991869918699187,70.16949152542374,26.991869918699187C71.1864406779661,26.991869918699187,72.20338983050848,31.21951219512195,73.22033898305085,31.21951219512195C74.23728813559322,31.21951219512195,75.2542372881356,30.51490514905149,76.27118644067797,30.24390243902439C77.28813559322033,29.972899728997287,78.30508474576271,29.593495934959346,79.32203389830508,29.593495934959346C80.33898305084746,29.593495934959346,81.35593220338983,29.918699186991873,82.37288135593221,29.918699186991873C83.38983050847457,29.918699186991873,84.40677966101696,26.016260162601625,85.42372881355932,26.016260162601625C86.4406779661017,26.016260162601625,87.45762711864407,28.292682926829265,88.47457627118645,28.292682926829265C89.49152542372882,28.292682926829265,90.50847457627118,26.991869918699187,91.52542372881355,26.991869918699187C92.54237288135593,26.991869918699187,93.55932203389831,32.84552845528455,94.57627118644069,32.84552845528455C95.59322033898306,32.84552845528455,96.61016949152543,31.00271002710026,97.62711864406779,29.268292682926827C98.64406779661016,27.533875338753383,99.66101694915254,24.065040650406505,100.6779661016949,22.439024390243905C101.69491525423729,20.813008130081297,102.71186440677965,19.51219512195122,103.72881355932203,19.51219512195122C104.7457627118644,19.51219512195122,105.76271186440678,20.05420054200542,106.77966101694915,20.8130081300813C107.79661016949153,21.571815718157183,108.8135593220339,22.547425474254734,109.83050847457628,24.0650406504065C110.84745762711864,25.582655826558263,111.86440677966102,29.918699186991873,112.88135593220339,29.918699186991873C113.89830508474576,29.918699186991873,114.91525423728814,27.317073170731703,115.9322033898305,27.317073170731703C116.94915254237289,27.317073170731703,117.96610169491525,28.617886178861788,118.98305084745763,28.617886178861788C120,28.617886178861788,121.01694915254237,28.617886178861788,122.03389830508473,28.617886178861788C123.05084745762711,28.617886178861788,124.0677966101695,18.211382113821138,125.08474576271188,18.211382113821138C126.10169491525424,18.211382113821138,127.11864406779662,18.319783197831978,128.135593220339,18.536585365853657C129.15254237288136,18.753387533875337,130.16949152542372,31.21951219512195,131.1864406779661,31.21951219512195C132.20338983050846,31.21951219512195,133.22033898305085,25.69105691056911,134.23728813559322,25.69105691056911C135.25423728813558,25.69105691056911,136.27118644067798,31.978319783197833,137.28813559322035,33.82113821138211C138.3050847457627,35.66395663956639,139.3220338983051,36.7479674796748,140.33898305084747,36.7479674796748C141.35593220338984,36.7479674796748,142.3728813559322,4.552845528455283,143.38983050847457,4.552845528455283C144.40677966101694,4.552845528455283,145.42372881355934,18.970189701897006,146.4406779661017,20.48780487804878C147.45762711864407,22.005420054200542,148.47457627118644,21.246612466124663,149.4915254237288,22.764227642276424C150.50847457627117,24.2818428184282,151.52542372881356,30.569105691056908,152.54237288135593,30.569105691056908C153.5593220338983,30.569105691056908,154.5762711864407,27.96747967479675,155.59322033898306,27.96747967479675C156.61016949152543,27.96747967479675,157.6271186440678,28.29268292682927,158.64406779661016,28.94308943089431C159.66101694915253,29.593495934959357,160.67796610169492,31.707317073170728,161.6949152542373,32.52032520325203C162.71186440677965,33.33333333333333,163.72881355932205,33.27913279132791,164.74576271186442,33.82113821138211C165.76271186440678,34.363143631436316,166.77966101694915,35.77235772357724,167.79661016949152,35.77235772357724C168.81355932203388,35.77235772357724,169.83050847457628,30.24390243902439,170.84745762711864,30.24390243902439C171.864406779661,30.24390243902439,172.8813559322034,40,173.89830508474577,40C174.91525423728814,40,175.93220338983053,21.13821138211382,176.9491525423729,21.13821138211382C177.96610169491527,21.13821138211382,178.98305084745763,26.178861788617887,180,31.21951219512195"></path><path class="axis-ceiling" stroke-width="1" stroke="black" fill="none" d="M175,0L180,0"></path><text class="axis-ceiling-label" font-family="sans-serif" text-anchor="end" font-size="10px" x="170" y="2.5">100</text></g></svg>