<svg xmlns="http://www.w3.org/2000/svg" viewBox="0 0 180 60"><g transform="translate(0,20)"><path class="area" fill="rgba(0, 0, 0, 0.2)" d="M0,28.292682926829265C1.0169491525423728,28.292682926829265,2.0338983050847457,28.292682926829265,3.0508474576271185,28.292682926829265C4.067796610169491,28.292682926829265,5.084745762711864,28.292682926829265,6.101694915254237,28.292682926829265C7.11864406779661,28.292682926829265,8.135593220338983,28.292682926829265,9.152542372881356,28.292682926829265C10.169491525423728,28.292682926829265,11.186440677966102,27.317073170731703,12.203389830508474,27.317073170731703C13.220338983050846,27.317073170731703,14.23728813559322,27.317073170731703,15.254237288135592,27.317073170731703C16.271186440677965,27.317073170731703,17.28813559322034,26.34146341463414,18.305084745762713,26.34146341463414C19.322033898305087,26.34146341463414,20.338983050847457,27.317073170731703,21.35593220338983,27.317073170731703C22.372881355932204,27.317073170731703,23.389830508474574,27.317073170731703,24.406779661016948,27.317073170731703C25.423728813559322,27.317073170731703,26.440677966101696,26.34146341463414,27.45762711864407,26.34146341463414C28.47457627118644,26.34146341463414,29.491525423728813,26.34146341463414,30.508474576271183,26.34146341463414C31.525423728813557,26.34146341463414,32.54237288135593,27.317073170731703,33.559322033898304,27.317073170731703C34.57627118644068,27.317073170731703,35.59322033898305,27.317073170731703,36.610169491525426,27.317073170731703C37.6271186440678,27.317073170731703,38.644067796610166,28.292682926829265,39.66101694915254,28.292682926829265C40.67796610169491,28.292682926829265,41.69491525423729,26.34146341463414,42.71186440677966,26.34146341463414C43.728813559322035,26.34146341463414,44.7457627118644,26.34146341463414,45.762711864406775,26.34146341463414C46.77966101694915,26.34146341463414,47.79661016949152,25.365853658536587,48.813559322033896,25.365853658536587C49.83050847457627,25.365853658536587,50.847457627118644,25.365853658536587,51.86440677966102,25.365853658536587C52.88135593220339,25.365853658536587,53.898305084745765,25.040650406504067,54.91525423728814,24.390243902439025C55.93220338983051,23.739837398373986,56.94915254237288,21.463414634146343,57.96610169491525,20.48780487804878C58.983050847457626,19.51219512195122,59.99999999999999,18.536585365853657,61.01694915254237,18.536585365853657C62.03389830508474,18.536585365853657,63.05084745762712,18.536585365853657,64.0677966101695,18.536585365853657C65.08474576271186,18.536585365853657,66.10169491525424,19.51219512195122,67.11864406779661,19.51219512195122C68.13559322033899,19.51219512195122,69.15254237288136,19.51219512195122,70.16949152542374,19.51219512195122C71.1864406779661,19.51219512195122,72.20338983050848,16.910569105691057,73.22033898305085,15.609756097560975C74.23728813559322,14.308943089430894,75.2542372881356,12.682926829268293,76.27118644067797,11.707317073170733C77.28813559322033,10.731707317073173,78.30508474576271,10.406504065040648,79.32203389830508,9.75609756097561C80.33898305084746,9.105691056910567,81.35593220338983,7.804878048780486,82.37288135593221,7.804878048780486C83.38983050847457,7.804878048780486,84.40677966101696,8.780487804878048,85.42372881355932,8.780487804878048C86.4406779661017,8.780487804878048,87.45762711864407,7.317073170731709,88.47457627118645,6.8292682926829285C89.49152542372882,6.341463414634152,90.50847457627118,5.853658536585367,91.52542372881355,5.853658536585367C92.54237288135593,5.853658536585367,93.55932203389831,8.780487804878048,94.57627118644069,8.780487804878048C95.59322033898306,8.780487804878048,96.61016949152543,8.130081300813005,97.62711864406779,7.804878048780486C98.64406779661016,7.4796747967479655,99.66101694915254,6.8292682926829285,100.6779661016949,6.8292682926829285C101.69491525423729,6.8292682926829285,102.71186440677965,10.731707317073171,103.72881355932203,10.731707317073171C104.7457627118644,10.731707317073171,105.76271186440678,8.780487804878048,106.77966101694915,8.780487804878048C107.79661016949153,8.780487804878048,108.8135593220339,10.73170731707317,109.83050847457628,11.707317073170733C110.84745762711864,12.682926829268292,111.86440677966102,14.634146341463413,112.88135593220339,14.634146341463413C113.89830508474576,14.634146341463413,114.91525423728814,4.878048780487805,115.9322033898305,4.878048780487805C116.94915254237289,4.878048780487805,117.96610169491525,5.5284552845528445,118.98305084745763,5.853658536585367C120,6.178861788617886,121.01694915254237,6.8292682926829285,122.03389830508473,6.8292682926829285C123.05084745762711,6.8292682926829285,124.0677966101695,6.8292682926829285,125.08474576271188,6.8292682926829285C126.10169491525424,6.8292682926829285,127.11864406779662,7.804878048780486,128.135593220339,7.804878048780486C129.15254237288136,7.804878048780486,130.16949152542372,6.504065040650405,131.1864406779661,5.853658536585367C132.20338983050846,5.203252032520323,133.22033898305085,3.902439024390243,134.23728813559322,3.902439024390243C135.25423728813558,3.902439024390243,136.27118644067798,13.333333333333332,137.28813559322035,16.585365853658537C138.3050847457627,19.837398373983742,139.3220338983051,21.788617886178866,140.33898305084747,23.414634146341466C141.35593220338984,25.040650406504053,142.3728813559322,25.20325203252033,143.38983050847457,26.34146341463414C144.40677966101694,27.479674796747965,145.42372881355934,30.24390243902439,146.4406779661017,30.24390243902439C147.45762711864407,30.24390243902439,148.47457627118644,27.317073170731703,149.4915254237288,27.317073170731703C150.50847457627117,27.317073170731703,151.52542372881356,28.292682926829265,152.54237288135593,28.292682926829265C153.5593220338983,28.292682926829265,154.5762711864407,27.642276422764223,155.59322033898306,26.34146341463414C156.61016949152543,25.04065040650407,157.6271186440678,20.48780487804878,158.64406779661016,20.48780487804878C159.66101694915253,20.48780487804878,160.67796610169492,23.739837398373982,161.6949152542373,24.390243902439025C162.71186440677965,25.040650406504067,163.72881355932205,25.365853658536587,164.74576271186442,25.365853658536587C165.76271186440678,25.365853658536587,166.77966101694915,23.414634146341466,167.79661016949152,23.414634146341466C168.81355932203388,23.414634146341466,169.83050847457628,26.178861788617883,170.84745762711864,27.317073170731703C171.864406779661,28.455284552845523,172.8813559322034,30.24390243902439,173.89830508474577,30.24390243902439C174.91525423728814,30.24390243902439,175.93220338983053,30.24390243902439,176.9491525423729,30.24390243902439C177.96610169491527,30.24390243902439,178.98305084745763,35.1219512195122,180,40L180,40C178.98305084745763,40,177.96610169491527,40,176.9491525423729,40C175.93220338983053,40,174.91525423728814,40,173.89830508474577,40C172.8813559322034,40,171.864406779661,40,170.84745762711864,40C169.83050847457628,40,168.81355932203388,40,167.79661016949152,40C166.77966101694915,40,165.76271186440678,40,164.74576271186442,40C163.72881355932205,40,162.71186440677965,40,161.6949152542373,40C160.67796610169492,40,159.66101694915253,40,158.64406779661016,40C157.6271186440678,40,156.61016949152543,40,155.59322033898306,40C154.5762711864407,40,153.5593220338983,40,152.54237288135593,40C151.52542372881356,40,150.50847457627117,40,149.4915254237288,40C148.47457627118644,40,147.45762711864407,40,146.4406779661017,40C145.42372881355934,40,144.40677966101694,40,143.38983050847457,40C142.3728813559322,40,141.35593220338984,40,140.33898305084747,40C139.3220338983051,40,138.3050847457627,40,137.28813559322035,40C136.27118644067798,40,135.25423728813558,40,134.23728813559322,40C133.22033898305085,40,132.20338983050846,40,131.1864406779661,40C130.16949152542372,40,129.15254237288136,40,128.135593220339,40C127.11864406779662,40,126.10169491525424,40,125.08474576271188,40C124.0677966101695,40,123.05084745762711,40,122.03389830508473,40C121.01694915254237,40,120,40,118.98305084745763,40C117.96610169491525,40,116.94915254237289,40,115.9322033898305,40C114.91525423728814,40,113.89830508474576,40,112.88135593220339,40C111.86440677966102,40,110.84745762711864,40,109.83050847457628,40C108.8135593220339,40,107.79661016949153,40,106.77966101694915,40C105.76271186440678,40,104.7457627118644,40,103.72881355932203,40C102.71186440677965,40,101.69491525423729,40,100.6779661016949,40C99.66101694915254,40,98.64406779661016,40,97.62711864406779,40C96.61016949152543,40,95.59322033898306,40,94.57627118644069,40C93.55932203389831,40,92.54237288135593,40,91.52542372881355,40C90.50847457627118,40,89.49152542372882,40,88.47457627118645,40C87.45762711864407,40,86.4406779661017,40,85.42372881355932,40C84.40677966101696,40,83.38983050847457,40,82.37288135593221,40C81.35593220338983,40,80.33898305084746,40,79.32203389830508,40C78.30508474576271,40,77.28813559322033,40,76.27118644067797,40C75.2542372881356,40,74.23728813559322,40,73.22033898305085,40C72.20338983050848,40,71.1864406779661,40,70.16949152542374,40C69.15254237288136,40,68.13559322033899,40,67.11864406779661,40C66.10169491525424,40,65.08474576271186,40,64.0677966101695,40C63.05084745762712,40,62.03389830508474,40,61.01694915254237,40C59.99999999999999,40,58.983050847457626,40,57.96610169491525,40C56.94915254237288,40,55.93220338983051,40,54.91525423728814,40C53.898305084745765,40,52.88135593220339,40,51.86440677966102,40C50.847457627118644,40,49.83050847457627,40,48.813559322033896,40C47.79661016949152,40,46.77966101694915,40,45.762711864406775,40C44.7457627118644,40,43.728813559322035,40,42.71186440677966,40C41.69491525423729,40,40.67796610169491,40,39.66101694915254,40C38.644067796610166,40,37.6271186440678,40,36.610169491525426,40C35.59322033898305,40,34.57627118644068,40,33.559322033898304,40C32.54237288135593,40,31.525423728813557,40,30.508474576271183,40C29.491525423728813,40,28.47457627118644,40,27.45762711864407,40C26.440677966101696,40,25.423728813559322,40,24.406779661016948,40C23.389830508474574,40,22.372881355932204,40,21.35593220338983,40C20.338983050847457,40,19.322033898305087,40,18.305084745762713,40C17.28813559322034,40,16.271186440677965,40,15.254237288135592,40C14.23728813559322,40,13.220338983050846,40,12.203389830508474,40C11.186440677966102,40,10.169491525423728,40,9.152542372881356,40C8.135593220338983,40,7.11864406779661,40,6.101694915254237,40C5.084745762711864,40,4.067796610169491,40,3.0508474576271185,40C2.0338983050847457,40,1.0169491525423728,40,0,40Z"></path><path class="line" stroke="black" fill="none" d="M0,28.292682926829265C1.0169491525423728,28.292682926829265,2.0338983050847457,28.292682926829265,3.0508474576271185,28.292682926829265C4.067796610169491,28.292682926829265,5.084745762711864,28.292682926829265,6.101694915254237,28.292682926829265C7.11864406779661,28.292682926829265,8.135593220338983,28.292682926829265,9.152542372881356,28.292682926829265C10.169491525423728,28.292682926829265,11.186440677966102,27.317073170731703,12.203389830508474,27.317073170731703C13.220338983050846,27.317073170731703,14.23728813559322,27.317073170731703,15.254237288135592,27.317073170731703C16.271186440677965,27.317073170731703,17.28813559322034,26.34146341463414,18.305084745762713,26.34146341463414C19.322033898305087,26.34146341463414,20.338983050847457,27.317073170731703,21.35593220338983,27.317073170731703C22.372881355932204,27.317073170731703,23.389830508474574,27.317073170731703,24.406779661016948,27.317073170731703C25.423728813559322,27.317073170731703,26.440677966101696,26.34146341463414,27.45762711864407,26.34146341463414C28.47457627118644,26.34146341463414,29.491525423728813,26.34146341463414,30.508474576271183,26.34146341463414C31.525423728813557,26.34146341463414,32.54237288135593,27.317073170731703,33.559322033898304,27.317073170731703C34.57627118644068,27.317073170731703,35.59322033898305,27.317073170731703,36.610169491525426,27.317073170731703C37.6271186440678,27.317073170731703,38.644067796610166,28.292682926829265,39.66101694915254,28.292682926829265C40.67796610169491,28.292682926829265,41.69491525423729,26.34146341463414,42.71186440677966,26.34146341463414C43.728813559322035,26.34146341463414,44.7457627118644,26.34146341463414,45.762711864406775,26.34146341463414C46.77966101694915,26.34146341463414,47.79661016949152,25.365853658536587,48.813559322033896,25.365853658536587C49.83050847457627,25.365853658536587,50.847457627118644,25.365853658536587,51.86440677966102,25.365853658536587C52.88135593220339,25.365853658536587,53.898305084745765,25.040650406504067,54.91525423728814,24.390243902439025C55.93220338983051,23.739837398373986,56.94915254237288,21.463414634146343,57.96610169491525,20.48780487804878C58.983050847457626,19.51219512195122,59.99999999999999,18.536585365853657,61.01694915254237,18.536585365853657C62.03389830508474,18.536585365853657,63.05084745762712,18.536585365853657,64.0677966101695,18.536585365853657C65.08474576271186,18.536585365853657,66.10169491525424,19.51219512195122,67.11864406779661,19.51219512195122C68.13559322033899,19.51219512195122,69.15254237288136,19.51219512195122,70.16949152542374,19.51219512195122C71.1864406779661,19.51219512195122,72.20338983050848,16.910569105691057,73.22033898305085,15.609756097560975C74.23728813559322,14.308943089430894,75.2542372881356,12.682926829268293,76.27118644067797,11.707317073170733C77.28813559322033,10.731707317073173,78.30508474576271,10.406504065040648,79.32203389830508,9.75609756097561C80.33898305084746,9.105691056910567,81.35593220338983,7.804878048780486,82.37288135593221,7.804878048780486C83.38983050847457,7.804878048780486,84.40677966101696,8.780487804878048,85.42372881355932,8.780487804878048C86.4406779661017,8.780487804878048,87.45762711864407,7.317073170731709,88.47457627118645,6.8292682926829285C89.49152542372882,6.341463414634152,90.50847457627118,5.853658536585367,91.52542372881355,5.853658536585367C92.54237288135593,5.853658536585367,93.55932203389831,8.780487804878048,94.57627118644069,8.780487804878048C95.59322033898306,8.780487804878048,96.61016949152543,8.130081300813005,97.62711864406779,7.804878048780486C98.64406779661016,7.4796747967479655,99.66101694915254,6.8292682926829285,100.6779661016949,6.8292682926829285C101.69491525423729,6.8292682926829285,102.71186440677965,10.731707317073171,103.72881355932203,10.731707317073171C104.7457627118644,10.731707317073171,105.76271186440678,8.780487804878048,106.77966101694915,8.780487804878048C107.79661016949153,8.780487804878048,108.8135593220339,10.73170731707317,109.83050847457628,11.707317073170733C110.84745762711864,12.682926829268292,111.86440677966102,14.634146341463413,112.88135593220339,14.634146341463413C113.89830508474576,14.634146341463413,114.91525423728814,4.878048780487805,115.9322033898305,4.878048780487805C116.94915254237289,4.878048780487805,117.96610169491525,5.5284552845528445,118.98305084745763,5.853658536585367C120,6.178861788617886,121.01694915254237,6.8292682926829285,122.03389830508473,6.8292682926829285C123.05084745762711,6.8292682926829285,124.0677966101695,6.8292682926829285,125.08474576271188,6.8292682926829285C126.10169491525424,6.8292682926829285,127.11864406779662,7.804878048780486,128.135593220339,7.804878048780486C129.15254237288136,7.804878048780486,130.16949152542372,6.504065040650405,131.1864406779661,5.853658536585367C132.20338983050846,5.203252032520323,133.22033898305085,3.902439024390243,134.23728813559322,3.902439024390243C135.25423728813558,3.902439024390243,136.27118644067798,13.333333333333332,137.28813559322035,16.585365853658537C138.3050847457627,19.837398373983742,139.3220338983051,21.788617886178866,140.33898305084747,23.414634146341466C141.35593220338984,25.040650406504053,142.3728813559322,25.20325203252033,143.38983050847457,26.34146341463414C144.40677966101694,27.479674796747965,145.42372881355934,30.24390243902439,146.4406779661017,30.24390243902439C147.45762711864407,30.24390243902439,148.47457627118644,27.317073170731703,149.4915254237288,27.317073170731703C150.50847457627117,27.317073170731703,151.52542372881356,28.292682926829265,152.54237288135593,28.292682926829265C153.5593220338983,28.292682926829265,154.5762711864407,27.642276422764223,155.59322033898306,26.34146341463414C156.61016949152543,25.04065040650407,157.6271186440678,20.48780487804878,158.64406779661016,20.48780487804878C159.66101694915253,20.48780487804878,160.67796610169492,23.739837398373982,161.6949152542373,24.390243902439025C162.71186440677965,25.040650406504067,163.72881355932205,25.365853658536587,164.74576271186442,25.365853658536587C165.76271186440678,25.365853658536587,166.77966101694915,23.414634146341466,167.79661016949152,23.414634146341466C168.81355932203388,23.414634146341466,169.83050847457628,26.178861788617883,170.84745762711864,27.317073170731703C171.864406779661,28.455284552845523,172.8813559322034,30.24390243902439,173.89830508474577,30.24390243902439C174.91525423728814,30.24390243902439,175.93220338983053,30.24390243902439,176.9491525423729,30.24390243902439C177.96610169491527,30.24390243902439,178.98305084745763,35.1219512195122,180,40"></path><path class="axis-ceiling" stroke-width="1" stroke="black" fill="none" d="M175,0L180,0"></path><text class="axis-ceiling-label" font-family="sans-serif" text-anchor="end" font-size="10px" x="170" y="2.5">30</text></g></svg>