<svg xmlns="http://www.w3.org/2000/svg" viewBox="0 0 180 60"><g transform="translate(0,20)"><path class="area" fill="rgba(0, 0, 0, 0.2)" d="M0,22.727272727272727C1.0169491525423728,22.727272727272727,2.0338983050847457,22.727272727272727,3.0508474576271185,22.727272727272727C4.067796610169491,22.727272727272727,5.084745762711864,22.727272727272727,6.101694915254237,22.727272727272727C7.11864406779661,22.727272727272727,8.135593220338983,6.363636363636362,9.152542372881356,6.363636363636362C10.169491525423728,6.363636363636362,11.186440677966102,23.636363636363633,12.203389830508474,23.636363636363633C13.220338983050846,23.636363636363633,14.23728813559322,23.636363636363633,15.254237288135592,23.636363636363633C16.271186440677965,23.636363636363633,17.28813559322034,23.636363636363633,18.305084745762713,23.636363636363633C19.322033898305087,23.636363636363633,20.338983050847457,23.636363636363633,21.35593220338983,23.636363636363633C22.372881355932204,23.636363636363633,23.389830508474574,23.636363636363633,24.406779661016948,23.636363636363633C25.423728813559322,23.636363636363633,26.440677966101696,23.636363636363633,27.45762711864407,23.636363636363633C28.47457627118644,23.636363636363633,29.491525423728813,40,30.508474576271183,40C31.525423728813557,40,32.54237288135593,22.727272727272727,33.559322033898304,22.727272727272727C34.57627118644068,22.727272727272727,35.59322033898305,22.727272727272727,36.610169491525426,22.727272727272727C37.6271186440678,22.727272727272727,38.644067796610166,22.727272727272727,39.66101694915254,22.727272727272727C40.67796610169491,22.727272727272727,41.69491525423729,22.727272727272727,42.71186440677966,22.727272727272727C43.728813559322035,22.727272727272727,44.7457627118644,22.727272727272727,45.762711864406775,22.727272727272727C46.77966101694915,22.727272727272727,47.79661016949152,22.727272727272727,48.813559322033896,22.727272727272727C49.83050847457627,22.727272727272727,50.847457627118644,22.727272727272727,51.86440677966102,22.727272727272727C52.88135593220339,22.727272727272727,53.898305084745765,21.818181818181817,54.91525423728814,21.818181818181817C55.93220338983051,21.818181818181817,56.94915254237288,21.818181818181817,57.96610169491525,21.818181818181817C58.983050847457626,21.818181818181817,59.99999999999999,21.818181818181817,61.01694915254237,21.818181818181817C62.03389830508474,21.818181818181817,63.05084745762712,21.818181818181817,64.0677966101695,21.818181818181817C65.08474576271186,21.818181818181817,66.10169491525424,20.909090909090907,67.11864406779661,20.909090909090907C68.13559322033899,20.909090909090907,69.15254237288136,20.909090909090907,70.16949152542374,20.909090909090907C71.1864406779661,20.909090909090907,72.20338983050848,20,73.22033898305085,20C74.23728813559322,20,75.2542372881356,20.909090909090907,76.27118644067797,20.909090909090907C77.28813559322033,20.909090909090907,78.30508474576271,20.909090909090907,79.32203389830508,20.909090909090907C80.33898305084746,20.909090909090907,81.35593220338983,20,82.37288135593221,20C83.38983050847457,20,84.40677966101696,20,85.42372881355932,20C86.4406779661017,20,87.45762711864407,20.909090909090907,88.47457627118645,20.909090909090907C89.49152542372882,20.909090909090907,90.50847457627118,20.909090909090907,91.52542372881355,20.909090909090907C92.54237288135593,20.909090909090907,93.55932203389831,21.818181818181817,94.57627118644069,21.818181818181817C95.59322033898306,21.818181818181817,96.61016949152543,20,97.62711864406779,20C98.64406779661016,20,99.66101694915254,20,100.6779661016949,20C101.69491525423729,20,102.71186440677965,19.090909090909093,103.72881355932203,19.090909090909093C104.7457627118644,19.090909090909093,105.76271186440678,19.090909090909093,106.77966101694915,19.090909090909093C107.79661016949153,19.090909090909093,108.8135593220339,18.78787878787879,109.83050847457628,18.181818181818183C110.84745762711864,17.575757575757578,111.86440677966102,15.454545454545455,112.88135593220339,14.545454545454547C113.89830508474576,13.636363636363638,114.91525423728814,12.72727272727273,115.9322033898305,12.72727272727273C116.94915254237289,12.72727272727273,117.96610169491525,12.72727272727273,118.98305084745763,12.72727272727273C120,12.72727272727273,121.01694915254237,13.636363636363637,122.03389830508473,13.636363636363637C123.05084745762711,13.636363636363637,124.0677966101695,13.636363636363637,125.08474576271188,13.636363636363637C126.10169491525424,13.636363636363637,127.11864406779662,11.212121212121215,128.135593220339,10C129.15254237288136,8.78787878787879,130.16949152542372,7.27272727272727,131.1864406779661,6.363636363636362C132.20338983050846,5.454545454545446,133.22033898305085,5.151515151515151,134.23728813559322,4.545454545454546C135.25423728813558,3.9393939393939403,136.27118644067798,2.7272727272727293,137.28813559322035,2.7272727272727293C138.3050847457627,2.7272727272727293,139.3220338983051,3.6363636363636376,140.33898305084747,3.6363636363636376C141.35593220338984,3.6363636363636376,142.3728813559322,2.2727272727272707,143.38983050847457,1.8181818181818166C144.40677966101694,1.363636363636358,145.42372881355934,0.9090909090909083,146.4406779661017,0.9090909090909083C147.45762711864407,0.9090909090909083,148.47457627118644,3.6363636363636376,149.4915254237288,3.6363636363636376C150.50847457627117,3.6363636363636376,151.52542372881356,3.030303030303033,152.54237288135593,2.7272727272727293C153.5593220338983,2.4242424242424256,154.5762711864407,1.8181818181818166,155.59322033898306,1.8181818181818166C156.61016949152543,1.8181818181818166,157.6271186440678,5.454545454545454,158.64406779661016,5.454545454545454C159.66101694915253,5.454545454545454,160.67796610169492,3.6363636363636376,161.6949152542373,3.6363636363636376C162.71186440677965,3.6363636363636376,163.72881355932205,5.454545454545449,164.74576271186442,6.363636363636362C165.76271186440678,7.272727272727267,166.77966101694915,9.090909090909092,167.79661016949152,9.090909090909092C168.81355932203388,9.090909090909092,169.83050847457628,0,170.84745762711864,0C171.864406779661,0,172.8813559322034,0.6060606060606055,173.89830508474577,0.9090909090909083C174.91525423728814,1.212121212121211,175.93220338983053,1.8181818181818166,176.9491525423729,1.8181818181818166C177.96610169491527,1.8181818181818166,178.98305084745763,1.8181818181818166,180,1.8181818181818166L180,40C178.98305084745763,40,177.96610169491527,40,176.9491525423729,40C175.93220338983053,40,174.91525423728814,40,173.89830508474577,40C172.8813559322034,40,171.864406779661,40,170.84745762711864,40C169.83050847457628,40,168.81355932203388,40,167.79661016949152,40C166.77966101694915,40,165.76271186440678,40,164.74576271186442,40C163.72881355932205,40,162.71186440677965,40,161.6949152542373,40C160.67796610169492,40,159.66101694915253,40,158.64406779661016,40C157.6271186440678,40,156.61016949152543,40,155.59322033898306,40C154.5762711864407,40,153.5593220338983,40,152.54237288135593,40C151.52542372881356,40,150.50847457627117,40,149.4915254237288,40C148.47457627118644,40,147.45762711864407,40,146.4406779661017,40C145.42372881355934,40,144.40677966101694,40,143.38983050847457,40C142.3728813559322,40,141.35593220338984,40,140.33898305084747,40C139.3220338983051,40,138.3050847457627,40,137.28813559322035,40C136.27118644067798,40,135.25423728813558,40,134.23728813559322,40C133.22033898305085,40,132.20338983050846,40,131.1864406779661,40C130.16949152542372,40,129.15254237288136,40,128.135593220339,40C127.11864406779662,40,126.10169491525424,40,125.08474576271188,40C124.0677966101695,40,123.05084745762711,40,122.03389830508473,40C121.01694915254237,40,120,40,118.98305084745763,40C117.96610169491525,40,116.94915254237289,40,115.9322033898305,40C114.91525423728814,40,113.89830508474576,40,112.88135593220339,40C111.86440677966102,40,110.84745762711864,40,109.83050847457628,40C108.8135593220339,40,107.79661016949153,40,106.77966101694915,40C105.76271186440678,40,104.7457627118644,40,103.72881355932203,40C102.71186440677965,40,101.69491525423729,40,100.6779661016949,40C99.66101694915254,40,98.64406779661016,40,97.62711864406779,40C96.61016949152543,40,95.59322033898306,40,94.57627118644069,40C93.55932203389831,40,92.54237288135593,40,91.52542372881355,40C90.50847457627118,40,89.49152542372882,40,88.47457627118645,40C87.45762711864407,40,86.4406779661017,40,85.42372881355932,40C84.40677966101696,40,83.38983050847457,40,82.37288135593221,40C81.35593220338983,40,80.33898305084746,40,79.32203389830508,40C78.30508474576271,40,77.28813559322033,40,76.27118644067797,40C75.2542372881356,40,74.23728813559322,40,73.22033898305085,40C72.20338983050848,40,71.1864406779661,40,70.16949152542374,40C69.15254237288136,40,68.13559322033899,40,67.11864406779661,40C66.10169491525424,40,65.08474576271186,40,64.0677966101695,40C63.05084745762712,40,62.03389830508474,40,61.01694915254237,40C59.99999999999999,40,58.983050847457626,40,57.96610169491525,40C56.94915254237288,40,55.93220338983051,40,54.91525423728814,40C53.898305084745765,40,52.88135593220339,40,51.86440677966102,40C50.847457627118644,40,49.83050847457627,40,48.813559322033896,40C47.79661016949152,40,46.77966101694915,40,45.762711864406775,40C44.7457627118644,40,43.728813559322035,40,42.71186440677966,40C41.69491525423729,40,40.67796610169491,40,39.66101694915254,40C38.644067796610166,40,37.6271186440678,40,36.610169491525426,40C35.59322033898305,40,34.57627118644068,40,33.559322033898304,40C32.54237288135593,40,31.525423728813557,40,30.508474576271183,40C29.491525423728813,40,28.47457627118644,40,27.45762711864407,40C26.440677966101696,40,25.423728813559322,40,24.406779661016948,40C23.389830508474574,40,22.372881355932204,40,21.35593220338983,40C20.338983050847457,40,19.322033898305087,40,18.305084745762713,40C17.28813559322034,40,16.271186440677965,40,15.254237288135592,40C14.23728813559322,40,13.220338983050846,40,12.203389830508474,40C11.186440677966102,40,10.169491525423728,40,9.152542372881356,40C8.135593220338983,40,7.11864406779661,40,6.101694915254237,40C5.084745762711864,40,4.067796610169491,40,3.0508474576271185,40C2.0338983050847457,40,1.0169491525423728,40,0,40Z"></path><path class="line" stroke="black" fill="none" d="M0,22.727272727272727C1.0169491525423728,22.727272727272727,2.0338983050847457,22.727272727272727,3.0508474576271185,22.727272727272727C4.067796610169491,22.727272727272727,5.084745762711864,22.727272727272727,6.101694915254237,22.727272727272727C7.11864406779661,22.727272727272727,8.135593220338983,6.363636363636362,9.152542372881356,6.363636363636362C10.169491525423728,6.363636363636362,11.186440677966102,23.636363636363633,12.203389830508474,23.636363636363633C13.220338983050846,23.636363636363633,14.23728813559322,23.636363636363633,15.254237288135592,23.636363636363633C16.271186440677965,23.636363636363633,17.28813559322034,23.636363636363633,18.305084745762713,23.636363636363633C19.322033898305087,23.636363636363633,20.338983050847457,23.636363636363633,21.35593220338983,23.636363636363633C22.372881355932204,23.636363636363633,23.389830508474574,23.636363636363633,24.406779661016948,23.636363636363633C25.423728813559322,23.636363636363633,26.440677966101696,23.636363636363633,27.45762711864407,23.636363636363633C28.47457627118644,23.636363636363633,29.491525423728813,40,30.508474576271183,40C31.525423728813557,40,32.54237288135593,22.727272727272727,33.559322033898304,22.727272727272727C34.57627118644068,22.727272727272727,35.59322033898305,22.727272727272727,36.610169491525426,22.727272727272727C37.6271186440678,22.727272727272727,38.644067796610166,22.727272727272727,39.66101694915254,22.727272727272727C40.67796610169491,22.727272727272727,41.69491525423729,22.727272727272727,42.71186440677966,22.727272727272727C43.728813559322035,22.727272727272727,44.7457627118644,22.727272727272727,45.762711864406775,22.727272727272727C46.77966101694915,22.727272727272727,47.79661016949152,22.727272727272727,48.813559322033896,22.727272727272727C49.83050847457627,22.727272727272727,50.847457627118644,22.727272727272727,51.86440677966102,22.727272727272727C52.88135593220339,22.727272727272727,53.898305084745765,21.818181818181817,54.91525423728814,21.818181818181817C55.93220338983051,21.818181818181817,56.94915254237288,21.818181818181817,57.96610169491525,21.818181818181817C58.983050847457626,21.818181818181817,59.99999999999999,21.818181818181817,61.01694915254237,21.818181818181817C62.03389830508474,21.818181818181817,63.05084745762712,21.818181818181817,64.0677966101695,21.818181818181817C65.08474576271186,21.818181818181817,66.10169491525424,20.909090909090907,67.11864406779661,20.909090909090907C68.13559322033899,20.909090909090907,69.15254237288136,20.909090909090907,70.16949152542374,20.909090909090907C71.1864406779661,20.909090909090907,72.20338983050848,20,73.22033898305085,20C74.23728813559322,20,75.2542372881356,20.909090909090907,76.27118644067797,20.909090909090907C77.28813559322033,20.909090909090907,78.30508474576271,20.909090909090907,79.32203389830508,20.909090909090907C80.33898305084746,20.909090909090907,81.35593220338983,20,82.37288135593221,20C83.38983050847457,20,84.40677966101696,20,85.42372881355932,20C86.4406779661017,20,87.45762711864407,20.909090909090907,88.47457627118645,20.909090909090907C89.49152542372882,20.909090909090907,90.50847457627118,20.909090909090907,91.52542372881355,20.909090909090907C92.54237288135593,20.909090909090907,93.55932203389831,21.818181818181817,94.57627118644069,21.818181818181817C95.59322033898306,21.818181818181817,96.61016949152543,20,97.62711864406779,20C98.64406779661016,20,99.66101694915254,20,100.6779661016949,20C101.69491525423729,20,102.71186440677965,19.090909090909093,103.72881355932203,19.090909090909093C104.7457627118644,19.090909090909093,105.76271186440678,19.090909090909093,106.77966101694915,19.090909090909093C107.79661016949153,19.090909090909093,108.8135593220339,18.78787878787879,109.83050847457628,18.181818181818183C110.84745762711864,17.575757575757578,111.86440677966102,15.454545454545455,112.88135593220339,14.545454545454547C113.89830508474576,13.636363636363638,114.91525423728814,12.72727272727273,115.9322033898305,12.72727272727273C116.94915254237289,12.72727272727273,117.96610169491525,12.72727272727273,118.98305084745763,12.72727272727273C120,12.72727272727273,121.01694915254237,13.636363636363637,122.03389830508473,13.636363636363637C123.05084745762711,13.636363636363637,124.0677966101695,13.636363636363637,125.08474576271188,13.636363636363637C126.10169491525424,13.636363636363637,127.11864406779662,11.212121212121215,128.135593220339,10C129.15254237288136,8.78787878787879,130.16949152542372,7.27272727272727,131.1864406779661,6.363636363636362C132.20338983050846,5.454545454545446,133.22033898305085,5.151515151515151,134.23728813559322,4.545454545454546C135.25423728813558,3.9393939393939403,136.27118644067798,2.7272727272727293,137.28813559322035,2.7272727272727293C138.3050847457627,2.7272727272727293,139.3220338983051,3.6363636363636376,140.33898305084747,3.6363636363636376C141.35593220338984,3.6363636363636376,142.3728813559322,2.2727272727272707,143.38983050847457,1.8181818181818166C144.40677966101694,1.363636363636358,145.42372881355934,0.9090909090909083,146.4406779661017,0.9090909090909083C147.45762711864407,0.9090909090909083,148.47457627118644,3.6363636363636376,149.4915254237288,3.6363636363636376C150.50847457627117,3.6363636363636376,151.52542372881356,3.030303030303033,152.54237288135593,2.7272727272727293C153.5593220338983,2.4242424242424256,154.5762711864407,1.8181818181818166,155.59322033898306,1.8181818181818166C156.61016949152543,1.8181818181818166,157.6271186440678,5.454545454545454,158.64406779661016,5.454545454545454C159.66101694915253,5.454545454545454,160.67796610169492,3.6363636363636376,161.6949152542373,3.6363636363636376C162.71186440677965,3.6363636363636376,163.72881355932205,5.454545454545449,164.74576271186442,6.363636363636362C165.76271186440678,7.272727272727267,166.77966101694915,9.090909090909092,167.79661016949152,9.090909090909092C168.81355932203388,9.090909090909092,169.83050847457628,0,170.84745762711864,0C171.864406779661,0,172.8813559322034,0.6060606060606055,173.89830508474577,0.9090909090909083C174.91525423728814,1.212121212121211,175.93220338983053,1.8181818181818166,176.9491525423729,1.8181818181818166C177.96610169491527,1.8181818181818166,178.98305084745763,1.8181818181818166,180,1.8181818181818166"></path><path class="axis-ceiling" stroke-width="1" stroke="black" fill="none" d="M175,0L180,0"></path><text class="axis-ceiling-label" font-family="sans-serif" text-anchor="end" font-size="10px" x="170" y="2.5">25</text></g></svg>