<svg xmlns="http://www.w3.org/2000/svg" viewBox="0 0 180 60"><g transform="translate(0,20)"><path class="area" fill="rgba(0, 0, 0, 0.2)" d="M0,23.80952380952381C1.0169491525423728,22.38095238095238,2.0338983050847457,20.952380952380953,3.0508474576271185,20C4.067796610169491,19.047619047619047,5.084745762711864,18.095238095238095,6.101694915254237,18.095238095238095C7.11864406779661,18.095238095238095,8.135593220338983,18.095238095238095,9.152542372881356,18.095238095238095C10.169491525423728,18.095238095238095,11.186440677966102,19.047619047619047,12.203389830508474,19.047619047619047C13.220338983050846,19.047619047619047,14.23728813559322,19.047619047619047,15.254237288135592,19.047619047619047C16.271186440677965,19.047619047619047,17.28813559322034,16.50793650793651,18.305084745762713,15.238095238095237C19.322033898305087,13.968253968253968,20.338983050847457,12.38095238095238,21.35593220338983,11.428571428571427C22.372881355932204,10.476190476190474,23.389830508474574,10.15873015873016,24.406779661016948,9.523809523809526C25.423728813559322,8.888888888888891,26.440677966101696,7.619047619047619,27.45762711864407,7.619047619047619C28.47457627118644,7.619047619047619,29.491525423728813,8.571428571428573,30.508474576271183,8.571428571428573C31.525423728813557,8.571428571428573,32.54237288135593,7.1428571428571415,33.559322033898304,6.666666666666665C34.57627118644068,6.190476190476189,35.59322033898305,5.714285714285716,36.610169491525426,5.714285714285716C37.6271186440678,5.714285714285716,38.644067796610166,8.571428571428573,39.66101694915254,8.571428571428573C40.67796610169491,8.571428571428573,41.69491525423729,7.936507936507937,42.71186440677966,7.619047619047619C43.728813559322035,7.301587301587301,44.7457627118644,6.666666666666665,45.762711864406775,6.666666666666665C46.77966101694915,6.666666666666665,47.79661016949152,10.476190476190474,48.813559322033896,10.476190476190474C49.83050847457627,10.476190476190474,50.847457627118644,8.571428571428573,51.86440677966102,8.571428571428573C52.88135593220339,8.571428571428573,53.898305084745765,10.476190476190474,54.91525423728814,11.428571428571427C55.93220338983051,12.380952380952378,56.94915254237288,14.285714285714285,57.96610169491525,14.285714285714285C58.983050847457626,14.285714285714285,59.99999999999999,4.761904761904763,61.01694915254237,4.761904761904763C62.03389830508474,4.761904761904763,63.05084745762712,5.396825396825398,64.0677966101695,5.714285714285716C65.08474576271186,6.0317460317460325,66.10169491525424,6.666666666666665,67.11864406779661,6.666666666666665C68.13559322033899,6.666666666666665,69.15254237288136,6.666666666666665,70.16949152542374,6.666666666666665C71.1864406779661,6.666666666666665,72.20338983050848,7.619047619047619,73.22033898305085,7.619047619047619C74.23728813559322,7.619047619047619,75.2542372881356,6.349206349206351,76.27118644067797,5.714285714285716C77.28813559322033,5.079365079365082,78.30508474576271,3.8095238095238093,79.32203389830508,3.8095238095238093C80.33898305084746,3.8095238095238093,81.35593220338983,13.015873015873012,82.37288135593221,16.19047619047619C83.38983050847457,19.365079365079353,84.40677966101696,21.26984126984127,85.42372881355932,22.857142857142854C86.4406779661017,24.444444444444446,87.45762711864407,24.603174603174594,88.47457627118645,25.71428571428571C89.49152542372882,26.82539682539682,90.50847457627118,29.523809523809526,91.52542372881355,29.523809523809526C92.54237288135593,29.523809523809526,93.55932203389831,26.66666666666667,94.57627118644069,26.66666666666667C95.59322033898306,26.66666666666667,96.61016949152543,27.61904761904762,97.62711864406779,27.61904761904762C98.64406779661016,27.61904761904762,99.66101694915254,26.984126984126977,100.6779661016949,25.71428571428571C101.69491525423729,24.444444444444443,102.71186440677965,20,103.72881355932203,20C104.7457627118644,20,105.76271186440678,23.174603174603178,106.77966101694915,23.80952380952381C107.79661016949153,24.444444444444446,108.8135593220339,24.761904761904763,109.83050847457628,24.761904761904763C110.84745762711864,24.761904761904763,111.86440677966102,22.857142857142854,112.88135593220339,22.857142857142854C113.89830508474576,22.857142857142854,114.91525423728814,25.55555555555556,115.9322033898305,26.66666666666667C116.94915254237289,27.777777777777786,117.96610169491525,29.523809523809526,118.98305084745763,29.523809523809526C120,29.523809523809526,121.01694915254237,29.523809523809526,122.03389830508473,29.523809523809526C123.05084745762711,29.523809523809526,124.0677966101695,39.047619047619044,125.08474576271188,39.047619047619044C126.10169491525424,39.047619047619044,127.11864406779662,26.66666666666667,128.135593220339,26.66666666666667C129.15254237288136,26.66666666666667,130.16949152542372,26.66666666666667,131.1864406779661,26.66666666666667C132.20338983050846,26.66666666666667,133.22033898305085,24.761904761904763,134.23728813559322,24.761904761904763C135.25423728813558,24.761904761904763,136.27118644067798,27.61904761904762,137.28813559322035,27.61904761904762C138.3050847457627,27.61904761904762,139.3220338983051,25.71428571428571,140.33898305084747,25.71428571428571C141.35593220338984,25.71428571428571,142.3728813559322,30.476190476190474,143.38983050847457,30.476190476190474C144.40677966101694,30.476190476190474,145.42372881355934,26.66666666666667,146.4406779661017,26.66666666666667C147.45762711864407,26.66666666666667,148.47457627118644,35.55555555555556,149.4915254237288,36.19047619047619C150.50847457627117,36.82539682539683,151.52542372881356,37.142857142857146,152.54237288135593,37.142857142857146C153.5593220338983,37.142857142857146,154.5762711864407,37.142857142857146,155.59322033898306,37.142857142857146C156.61016949152543,37.142857142857146,157.6271186440678,33.333333333333336,158.64406779661016,33.333333333333336C159.66101694915253,33.333333333333336,160.67796610169492,40,161.6949152542373,40C162.71186440677965,40,163.72881355932205,37.301587301587304,164.74576271186442,36.19047619047619C165.76271186440678,35.07936507936508,166.77966101694915,34.12698412698413,167.79661016949152,33.333333333333336C168.81355932203388,32.53968253968254,169.83050847457628,32.38095238095238,170.84745762711864,31.428571428571427C171.864406779661,30.476190476190474,172.8813559322034,28.73015873015873,173.89830508474577,27.61904761904762C174.91525423728814,26.50793650793651,175.93220338983053,24.761904761904763,176.9491525423729,24.761904761904763C177.96610169491527,24.761904761904763,178.98305084745763,27.142857142857146,180,29.523809523809526L180,40C178.98305084745763,40,177.96610169491527,40,176.9491525423729,40C175.93220338983053,40,174.91525423728814,40,173.89830508474577,40C172.8813559322034,40,171.864406779661,40,170.84745762711864,40C169.83050847457628,40,168.81355932203388,40,167.79661016949152,40C166.77966101694915,40,165.76271186440678,40,164.74576271186442,40C163.72881355932205,40,162.71186440677965,40,161.6949152542373,40C160.67796610169492,40,159.66101694915253,40,158.64406779661016,40C157.6271186440678,40,156.61016949152543,40,155.59322033898306,40C154.5762711864407,40,153.5593220338983,40,152.54237288135593,40C151.52542372881356,40,150.50847457627117,40,149.4915254237288,40C148.47457627118644,40,147.45762711864407,40,146.4406779661017,40C145.42372881355934,40,144.40677966101694,40,143.38983050847457,40C142.3728813559322,40,141.35593220338984,40,140.33898305084747,40C139.3220338983051,40,138.3050847457627,40,137.28813559322035,40C136.27118644067798,40,135.25423728813558,40,134.23728813559322,40C133.22033898305085,40,132.20338983050846,40,131.1864406779661,40C130.16949152542372,40,129.15254237288136,40,128.135593220339,40C127.11864406779662,40,126.10169491525424,40,125.08474576271188,40C124.0677966101695,40,123.05084745762711,40,122.03389830508473,40C121.01694915254237,40,120,40,118.98305084745763,40C117.96610169491525,40,116.94915254237289,40,115.9322033898305,40C114.91525423728814,40,113.89830508474576,40,112.88135593220339,40C111.86440677966102,40,110.84745762711864,40,109.83050847457628,40C108.8135593220339,40,107.79661016949153,40,106.77966101694915,40C105.76271186440678,40,104.7457627118644,40,103.72881355932203,40C102.71186440677965,40,101.69491525423729,40,100.6779661016949,40C99.66101694915254,40,98.64406779661016,40,97.62711864406779,40C96.61016949152543,40,95.59322033898306,40,94.57627118644069,40C93.55932203389831,40,92.54237288135593,40,91.52542372881355,40C90.50847457627118,40,89.49152542372882,40,88.47457627118645,40C87.45762711864407,40,86.4406779661017,40,85.42372881355932,40C84.40677966101696,40,83.38983050847457,40,82.37288135593221,40C81.35593220338983,40,80.33898305084746,40,79.32203389830508,40C78.30508474576271,40,77.28813559322033,40,76.27118644067797,40C75.2542372881356,40,74.23728813559322,40,73.22033898305085,40C72.20338983050848,40,71.1864406779661,40,70.16949152542374,40C69.15254237288136,40,68.13559322033899,40,67.11864406779661,40C66.10169491525424,40,65.08474576271186,40,64.0677966101695,40C63.05084745762712,40,62.03389830508474,40,61.01694915254237,40C59.99999999999999,40,58.983050847457626,40,57.96610169491525,40C56.94915254237288,40,55.93220338983051,40,54.91525423728814,40C53.898305084745765,40,52.88135593220339,40,51.86440677966102,40C50.847457627118644,40,49.83050847457627,40,48.813559322033896,40C47.79661016949152,40,46.77966101694915,40,45.762711864406775,40C44.7457627118644,40,43.728813559322035,40,42.71186440677966,40C41.69491525423729,40,40.67796610169491,40,39.66101694915254,40C38.644067796610166,40,37.6271186440678,40,36.610169491525426,40C35.59322033898305,40,34.57627118644068,40,33.559322033898304,40C32.54237288135593,40,31.525423728813557,40,30.508474576271183,40C29.491525423728813,40,28.47457627118644,40,27.45762711864407,40C26.440677966101696,40,25.423728813559322,40,24.406779661016948,40C23.389830508474574,40,22.372881355932204,40,21.35593220338983,40C20.338983050847457,40,19.322033898305087,40,18.305084745762713,40C17.28813559322034,40,16.271186440677965,40,15.254237288135592,40C14.23728813559322,40,13.220338983050846,40,12.203389830508474,40C11.186440677966102,40,10.169491525423728,40,9.152542372881356,40C8.135593220338983,40,7.11864406779661,40,6.101694915254237,40C5.084745762711864,40,4.067796610169491,40,3.0508474576271185,40C2.0338983050847457,40,1.0169491525423728,40,0,40Z"></path><path class="line" stroke="black" fill="none" d="M0,23.80952380952381C1.0169491525423728,22.38095238095238,2.0338983050847457,20.952380952380953,3.0508474576271185,20C4.067796610169491,19.047619047619047,5.084745762711864,18.095238095238095,6.101694915254237,18.095238095238095C7.11864406779661,18.095238095238095,8.135593220338983,18.095238095238095,9.152542372881356,18.095238095238095C10.169491525423728,18.095238095238095,11.186440677966102,19.047619047619047,12.203389830508474,19.047619047619047C13.220338983050846,19.047619047619047,14.23728813559322,19.047619047619047,15.254237288135592,19.047619047619047C16.271186440677965,19.047619047619047,17.28813559322034,16.50793650793651,18.305084745762713,15.238095238095237C19.322033898305087,13.968253968253968,20.338983050847457,12.38095238095238,21.35593220338983,11.428571428571427C22.372881355932204,10.476190476190474,23.389830508474574,10.15873015873016,24.406779661016948,9.523809523809526C25.423728813559322,8.888888888888891,26.440677966101696,7.619047619047619,27.45762711864407,7.619047619047619C28.47457627118644,7.619047619047619,29.491525423728813,8.571428571428573,30.508474576271183,8.571428571428573C31.525423728813557,8.571428571428573,32.54237288135593,7.1428571428571415,33.559322033898304,6.666666666666665C34.57627118644068,6.190476190476189,35.59322033898305,5.714285714285716,36.610169491525426,5.714285714285716C37.6271186440678,5.714285714285716,38.644067796610166,8.571428571428573,39.66101694915254,8.571428571428573C40.67796610169491,8.571428571428573,41.69491525423729,7.936507936507937,42.71186440677966,7.619047619047619C43.728813559322035,7.301587301587301,44.7457627118644,6.666666666666665,45.762711864406775,6.666666666666665C46.77966101694915,6.666666666666665,47.79661016949152,10.476190476190474,48.813559322033896,10.476190476190474C49.83050847457627,10.476190476190474,50.847457627118644,8.571428571428573,51.86440677966102,8.571428571428573C52.88135593220339,8.571428571428573,53.898305084745765,10.476190476190474,54.91525423728814,11.428571428571427C55.93220338983051,12.380952380952378,56.94915254237288,14.285714285714285,57.96610169491525,14.285714285714285C58.983050847457626,14.285714285714285,59.99999999999999,4.761904761904763,61.01694915254237,4.761904761904763C62.03389830508474,4.761904761904763,63.05084745762712,5.396825396825398,64.0677966101695,5.714285714285716C65.08474576271186,6.0317460317460325,66.10169491525424,6.666666666666665,67.11864406779661,6.666666666666665C68.13559322033899,6.666666666666665,69.15254237288136,6.666666666666665,70.16949152542374,6.666666666666665C71.1864406779661,6.666666666666665,72.20338983050848,7.619047619047619,73.22033898305085,7.619047619047619C74.23728813559322,7.619047619047619,75.2542372881356,6.349206349206351,76.27118644067797,5.714285714285716C77.28813559322033,5.079365079365082,78.30508474576271,3.8095238095238093,79.32203389830508,3.8095238095238093C80.33898305084746,3.8095238095238093,81.35593220338983,13.015873015873012,82.37288135593221,16.19047619047619C83.38983050847457,19.365079365079353,84.40677966101696,21.26984126984127,85.42372881355932,22.857142857142854C86.4406779661017,24.444444444444446,87.45762711864407,24.603174603174594,88.47457627118645,25.71428571428571C89.49152542372882,26.82539682539682,90.50847457627118,29.523809523809526,91.52542372881355,29.523809523809526C92.54237288135593,29.523809523809526,93.55932203389831,26.66666666666667,94.57627118644069,26.66666666666667C95.59322033898306,26.66666666666667,96.61016949152543,27.61904761904762,97.62711864406779,27.61904761904762C98.64406779661016,27.61904761904762,99.66101694915254,26.984126984126977,100.6779661016949,25.71428571428571C101.69491525423729,24.444444444444443,102.71186440677965,20,103.72881355932203,20C104.7457627118644,20,105.76271186440678,23.174603174603178,106.77966101694915,23.80952380952381C107.79661016949153,24.444444444444446,108.8135593220339,24.761904761904763,109.83050847457628,24.761904761904763C110.84745762711864,24.761904761904763,111.86440677966102,22.857142857142854,112.88135593220339,22.857142857142854C113.89830508474576,22.857142857142854,114.91525423728814,25.55555555555556,115.9322033898305,26.66666666666667C116.94915254237289,27.777777777777786,117.96610169491525,29.523809523809526,118.98305084745763,29.523809523809526C120,29.523809523809526,121.01694915254237,29.523809523809526,122.03389830508473,29.523809523809526C123.05084745762711,29.523809523809526,124.0677966101695,39.047619047619044,125.08474576271188,39.047619047619044C126.10169491525424,39.047619047619044,127.11864406779662,26.66666666666667,128.135593220339,26.66666666666667C129.15254237288136,26.66666666666667,130.16949152542372,26.66666666666667,131.1864406779661,26.66666666666667C132.20338983050846,26.66666666666667,133.22033898305085,24.761904761904763,134.23728813559322,24.761904761904763C135.25423728813558,24.761904761904763,136.27118644067798,27.61904761904762,137.28813559322035,27.61904761904762C138.3050847457627,27.61904761904762,139.3220338983051,25.71428571428571,140.33898305084747,25.71428571428571C141.35593220338984,25.71428571428571,142.3728813559322,30.476190476190474,143.38983050847457,30.476190476190474C144.40677966101694,30.476190476190474,145.42372881355934,26.66666666666667,146.4406779661017,26.66666666666667C147.45762711864407,26.66666666666667,148.47457627118644,35.55555555555556,149.4915254237288,36.19047619047619C150.50847457627117,36.82539682539683,151.52542372881356,37.142857142857146,152.54237288135593,37.142857142857146C153.5593220338983,37.142857142857146,154.5762711864407,37.142857142857146,155.59322033898306,37.142857142857146C156.61016949152543,37.142857142857146,157.6271186440678,33.333333333333336,158.64406779661016,33.333333333333336C159.66101694915253,33.333333333333336,160.67796610169492,40,161.6949152542373,40C162.71186440677965,40,163.72881355932205,37.301587301587304,164.74576271186442,36.19047619047619C165.76271186440678,35.07936507936508,166.77966101694915,34.12698412698413,167.79661016949152,33.333333333333336C168.81355932203388,32.53968253968254,169.83050847457628,32.38095238095238,170.84745762711864,31.428571428571427C171.864406779661,30.476190476190474,172.8813559322034,28.73015873015873,173.89830508474577,27.61904761904762C174.91525423728814,26.50793650793651,175.93220338983053,24.761904761904763,176.9491525423729,24.761904761904763C177.96610169491527,24.761904761904763,178.98305084745763,27.142857142857146,180,29.523809523809526"></path><path class="axis-ceiling" stroke-width="1" stroke="black" fill="none" d="M175,0L180,0"></path><text class="axis-ceiling-label" font-family="sans-serif" text-anchor="end" font-size="10px" x="170" y="2.5">30</text></g></svg>