<svg xmlns="http://www.w3.org/2000/svg" viewBox="0 0 180 60"><g transform="translate(0,20)"><path class="area" fill="rgba(0, 0, 0, 0.2)" d="M0,25.71428571428571C1.0169491525423728,25.238095238095237,2.0338983050847457,24.761904761904763,3.0508474576271185,24.761904761904763C4.067796610169491,24.761904761904763,5.084745762711864,24.761904761904763,6.101694915254237,24.761904761904763C7.11864406779661,24.761904761904763,8.135593220338983,24.444444444444446,9.152542372881356,23.80952380952381C10.169491525423728,23.174603174603174,11.186440677966102,20.952380952380953,12.203389830508474,20C13.220338983050846,19.047619047619047,14.23728813559322,18.095238095238095,15.254237288135592,18.095238095238095C16.271186440677965,18.095238095238095,17.28813559322034,18.095238095238095,18.305084745762713,18.095238095238095C19.322033898305087,18.095238095238095,20.338983050847457,19.047619047619047,21.35593220338983,19.047619047619047C22.372881355932204,19.047619047619047,23.389830508474574,19.047619047619047,24.406779661016948,19.047619047619047C25.423728813559322,19.047619047619047,26.440677966101696,16.50793650793651,27.45762711864407,15.238095238095237C28.47457627118644,13.968253968253968,29.491525423728813,12.380952380952378,30.508474576271183,11.428571428571427C31.525423728813557,10.476190476190473,32.54237288135593,10.15873015873016,33.559322033898304,9.523809523809526C34.57627118644068,8.888888888888891,35.59322033898305,7.619047619047619,36.610169491525426,7.619047619047619C37.6271186440678,7.619047619047619,38.644067796610166,8.571428571428573,39.66101694915254,8.571428571428573C40.67796610169491,8.571428571428573,41.69491525423729,7.1428571428571415,42.71186440677966,6.666666666666665C43.728813559322035,6.19047619047619,44.7457627118644,5.714285714285716,45.762711864406775,5.714285714285716C46.77966101694915,5.714285714285716,47.79661016949152,8.571428571428573,48.813559322033896,8.571428571428573C49.83050847457627,8.571428571428573,50.847457627118644,7.936507936507937,51.86440677966102,7.619047619047619C52.88135593220339,7.3015873015873005,53.898305084745765,6.666666666666665,54.91525423728814,6.666666666666665C55.93220338983051,6.666666666666665,56.94915254237288,10.476190476190474,57.96610169491525,10.476190476190474C58.983050847457626,10.476190476190474,59.99999999999999,8.571428571428573,61.01694915254237,8.571428571428573C62.03389830508474,8.571428571428573,63.05084745762712,10.476190476190473,64.0677966101695,11.428571428571427C65.08474576271186,12.380952380952376,66.10169491525424,14.285714285714285,67.11864406779661,14.285714285714285C68.13559322033899,14.285714285714285,69.15254237288136,4.761904761904763,70.16949152542374,4.761904761904763C71.1864406779661,4.761904761904763,72.20338983050848,5.396825396825399,73.22033898305085,5.714285714285716C74.23728813559322,6.031746031746033,75.2542372881356,6.666666666666665,76.27118644067797,6.666666666666665C77.28813559322033,6.666666666666665,78.30508474576271,6.666666666666665,79.32203389830508,6.666666666666665C80.33898305084746,6.666666666666665,81.35593220338983,7.619047619047619,82.37288135593221,7.619047619047619C83.38983050847457,7.619047619047619,84.40677966101696,6.34920634920635,85.42372881355932,5.714285714285716C86.4406779661017,5.07936507936508,87.45762711864407,3.8095238095238093,88.47457627118645,3.8095238095238093C89.49152542372882,3.8095238095238093,90.50847457627118,13.015873015873025,91.52542372881355,16.19047619047619C92.54237288135593,19.3650793650794,93.55932203389831,21.269841269841265,94.57627118644069,22.857142857142854C95.59322033898306,24.44444444444442,96.61016949152543,24.603174603174605,97.62711864406779,25.71428571428571C98.64406779661016,26.825396825396826,99.66101694915254,29.523809523809526,100.6779661016949,29.523809523809526C101.69491525423729,29.523809523809526,102.71186440677965,26.66666666666667,103.72881355932203,26.66666666666667C104.7457627118644,26.66666666666667,105.76271186440678,27.61904761904762,106.77966101694915,27.61904761904762C107.79661016949153,27.61904761904762,108.8135593220339,26.984126984126984,109.83050847457628,25.71428571428571C110.84745762711864,24.444444444444446,111.86440677966102,20,112.88135593220339,20C113.89830508474576,20,114.91525423728814,23.174603174603178,115.9322033898305,23.80952380952381C116.94915254237289,24.444444444444446,117.96610169491525,24.761904761904763,118.98305084745763,24.761904761904763C120,24.761904761904763,121.01694915254237,22.857142857142854,122.03389830508473,22.857142857142854C123.05084745762711,22.857142857142854,124.0677966101695,25.555555555555557,125.08474576271188,26.66666666666667C126.10169491525424,27.777777777777775,127.11864406779662,29.523809523809526,128.135593220339,29.523809523809526C129.15254237288136,29.523809523809526,130.16949152542372,29.523809523809526,131.1864406779661,29.523809523809526C132.20338983050846,29.523809523809526,133.22033898305085,39.047619047619044,134.23728813559322,39.047619047619044C135.25423728813558,39.047619047619044,136.27118644067798,26.66666666666667,137.28813559322035,26.66666666666667C138.3050847457627,26.66666666666667,139.3220338983051,26.66666666666667,140.33898305084747,26.66666666666667C141.35593220338984,26.66666666666667,142.3728813559322,24.761904761904763,143.38983050847457,24.761904761904763C144.40677966101694,24.761904761904763,145.42372881355934,27.61904761904762,146.4406779661017,27.61904761904762C147.45762711864407,27.61904761904762,148.47457627118644,25.71428571428571,149.4915254237288,25.71428571428571C150.50847457627117,25.71428571428571,151.52542372881356,30.476190476190474,152.54237288135593,30.476190476190474C153.5593220338983,30.476190476190474,154.5762711864407,26.66666666666667,155.59322033898306,26.66666666666667C156.61016949152543,26.66666666666667,157.6271186440678,35.55555555555556,158.64406779661016,36.19047619047619C159.66101694915253,36.82539682539683,160.67796610169492,37.142857142857146,161.6949152542373,37.142857142857146C162.71186440677965,37.142857142857146,163.72881355932205,37.142857142857146,164.74576271186442,37.142857142857146C165.76271186440678,37.142857142857146,166.77966101694915,33.333333333333336,167.79661016949152,33.333333333333336C168.81355932203388,33.333333333333336,169.83050847457628,40,170.84745762711864,40C171.864406779661,40,172.8813559322034,37.301587301587304,173.89830508474577,36.19047619047619C174.91525423728814,35.079365079365076,175.93220338983053,34.126984126984134,176.9491525423729,33.333333333333336C177.96610169491527,32.539682539682545,178.98305084745763,31.984126984126988,180,31.428571428571427L180,40C178.98305084745763,40,177.96610169491527,40,176.9491525423729,40C175.93220338983053,40,174.91525423728814,40,173.89830508474577,40C172.8813559322034,40,171.864406779661,40,170.84745762711864,40C169.83050847457628,40,168.81355932203388,40,167.79661016949152,40C166.77966101694915,40,165.76271186440678,40,164.74576271186442,40C163.72881355932205,40,162.71186440677965,40,161.6949152542373,40C160.67796610169492,40,159.66101694915253,40,158.64406779661016,40C157.6271186440678,40,156.61016949152543,40,155.59322033898306,40C154.5762711864407,40,153.5593220338983,40,152.54237288135593,40C151.52542372881356,40,150.50847457627117,40,149.4915254237288,40C148.47457627118644,40,147.45762711864407,40,146.4406779661017,40C145.42372881355934,40,144.40677966101694,40,143.38983050847457,40C142.3728813559322,40,141.35593220338984,40,140.33898305084747,40C139.3220338983051,40,138.3050847457627,40,137.28813559322035,40C136.27118644067798,40,135.25423728813558,40,134.23728813559322,40C133.22033898305085,40,132.20338983050846,40,131.1864406779661,40C130.16949152542372,40,129.15254237288136,40,128.135593220339,40C127.11864406779662,40,126.10169491525424,40,125.08474576271188,40C124.0677966101695,40,123.05084745762711,40,122.03389830508473,40C121.01694915254237,40,120,40,118.98305084745763,40C117.96610169491525,40,116.94915254237289,40,115.9322033898305,40C114.91525423728814,40,113.89830508474576,40,112.88135593220339,40C111.86440677966102,40,110.84745762711864,40,109.83050847457628,40C108.8135593220339,40,107.79661016949153,40,106.77966101694915,40C105.76271186440678,40,104.7457627118644,40,103.72881355932203,40C102.71186440677965,40,101.69491525423729,40,100.6779661016949,40C99.66101694915254,40,98.64406779661016,40,97.62711864406779,40C96.61016949152543,40,95.59322033898306,40,94.57627118644069,40C93.55932203389831,40,92.54237288135593,40,91.52542372881355,40C90.50847457627118,40,89.49152542372882,40,88.47457627118645,40C87.45762711864407,40,86.4406779661017,40,85.42372881355932,40C84.40677966101696,40,83.38983050847457,40,82.37288135593221,40C81.35593220338983,40,80.33898305084746,40,79.32203389830508,40C78.30508474576271,40,77.28813559322033,40,76.27118644067797,40C75.2542372881356,40,74.23728813559322,40,73.22033898305085,40C72.20338983050848,40,71.1864406779661,40,70.16949152542374,40C69.15254237288136,40,68.13559322033899,40,67.11864406779661,40C66.10169491525424,40,65.08474576271186,40,64.0677966101695,40C63.05084745762712,40,62.03389830508474,40,61.01694915254237,40C59.99999999999999,40,58.983050847457626,40,57.96610169491525,40C56.94915254237288,40,55.93220338983051,40,54.91525423728814,40C53.898305084745765,40,52.88135593220339,40,51.86440677966102,40C50.847457627118644,40,49.83050847457627,40,48.813559322033896,40C47.79661016949152,40,46.77966101694915,40,45.762711864406775,40C44.7457627118644,40,43.728813559322035,40,42.71186440677966,40C41.69491525423729,40,40.67796610169491,40,39.66101694915254,40C38.644067796610166,40,37.6271186440678,40,36.610169491525426,40C35.59322033898305,40,34.57627118644068,40,33.559322033898304,40C32.54237288135593,40,31.525423728813557,40,30.508474576271183,40C29.491525423728813,40,28.47457627118644,40,27.45762711864407,40C26.440677966101696,40,25.423728813559322,40,24.406779661016948,40C23.389830508474574,40,22.372881355932204,40,21.35593220338983,40C20.338983050847457,40,19.322033898305087,40,18.305084745762713,40C17.28813559322034,40,16.271186440677965,40,15.254237288135592,40C14.23728813559322,40,13.220338983050846,40,12.203389830508474,40C11.186440677966102,40,10.169491525423728,40,9.152542372881356,40C8.135593220338983,40,7.11864406779661,40,6.101694915254237,40C5.084745762711864,40,4.067796610169491,40,3.0508474576271185,40C2.0338983050847457,40,1.0169491525423728,40,0,40Z"></path><path class="line" stroke="black" fill="none" d="M0,25.71428571428571C1.0169491525423728,25.238095238095237,2.0338983050847457,24.761904761904763,3.0508474576271185,24.761904761904763C4.067796610169491,24.761904761904763,5.084745762711864,24.761904761904763,6.101694915254237,24.761904761904763C7.11864406779661,24.761904761904763,8.135593220338983,24.444444444444446,9.152542372881356,23.80952380952381C10.169491525423728,23.174603174603174,11.186440677966102,20.952380952380953,12.203389830508474,20C13.220338983050846,19.047619047619047,14.23728813559322,18.095238095238095,15.254237288135592,18.095238095238095C16.271186440677965,18.095238095238095,17.28813559322034,18.095238095238095,18.305084745762713,18.095238095238095C19.322033898305087,18.095238095238095,20.338983050847457,19.047619047619047,21.35593220338983,19.047619047619047C22.372881355932204,19.047619047619047,23.389830508474574,19.047619047619047,24.406779661016948,19.047619047619047C25.423728813559322,19.047619047619047,26.440677966101696,16.50793650793651,27.45762711864407,15.238095238095237C28.47457627118644,13.968253968253968,29.491525423728813,12.380952380952378,30.508474576271183,11.428571428571427C31.525423728813557,10.476190476190473,32.54237288135593,10.15873015873016,33.559322033898304,9.523809523809526C34.57627118644068,8.888888888888891,35.59322033898305,7.619047619047619,36.610169491525426,7.619047619047619C37.6271186440678,7.619047619047619,38.644067796610166,8.571428571428573,39.66101694915254,8.571428571428573C40.67796610169491,8.571428571428573,41.69491525423729,7.1428571428571415,42.71186440677966,6.666666666666665C43.728813559322035,6.19047619047619,44.7457627118644,5.714285714285716,45.762711864406775,5.714285714285716C46.77966101694915,5.714285714285716,47.79661016949152,8.571428571428573,48.813559322033896,8.571428571428573C49.83050847457627,8.571428571428573,50.847457627118644,7.936507936507937,51.86440677966102,7.619047619047619C52.88135593220339,7.3015873015873005,53.898305084745765,6.666666666666665,54.91525423728814,6.666666666666665C55.93220338983051,6.666666666666665,56.94915254237288,10.476190476190474,57.96610169491525,10.476190476190474C58.983050847457626,10.476190476190474,59.99999999999999,8.571428571428573,61.01694915254237,8.571428571428573C62.03389830508474,8.571428571428573,63.05084745762712,10.476190476190473,64.0677966101695,11.428571428571427C65.08474576271186,12.380952380952376,66.10169491525424,14.285714285714285,67.11864406779661,14.285714285714285C68.13559322033899,14.285714285714285,69.15254237288136,4.761904761904763,70.16949152542374,4.761904761904763C71.1864406779661,4.761904761904763,72.20338983050848,5.396825396825399,73.22033898305085,5.714285714285716C74.23728813559322,6.031746031746033,75.2542372881356,6.666666666666665,76.27118644067797,6.666666666666665C77.28813559322033,6.666666666666665,78.30508474576271,6.666666666666665,79.32203389830508,6.666666666666665C80.33898305084746,6.666666666666665,81.35593220338983,7.619047619047619,82.37288135593221,7.619047619047619C83.38983050847457,7.619047619047619,84.40677966101696,6.34920634920635,85.42372881355932,5.714285714285716C86.4406779661017,5.07936507936508,87.45762711864407,3.8095238095238093,88.47457627118645,3.8095238095238093C89.49152542372882,3.8095238095238093,90.50847457627118,13.015873015873025,91.52542372881355,16.19047619047619C92.54237288135593,19.3650793650794,93.55932203389831,21.269841269841265,94.57627118644069,22.857142857142854C95.59322033898306,24.44444444444442,96.61016949152543,24.603174603174605,97.62711864406779,25.71428571428571C98.64406779661016,26.825396825396826,99.66101694915254,29.523809523809526,100.6779661016949,29.523809523809526C101.69491525423729,29.523809523809526,102.71186440677965,26.66666666666667,103.72881355932203,26.66666666666667C104.7457627118644,26.66666666666667,105.76271186440678,27.61904761904762,106.77966101694915,27.61904761904762C107.79661016949153,27.61904761904762,108.8135593220339,26.984126984126984,109.83050847457628,25.71428571428571C110.84745762711864,24.444444444444446,111.86440677966102,20,112.88135593220339,20C113.89830508474576,20,114.91525423728814,23.174603174603178,115.9322033898305,23.80952380952381C116.94915254237289,24.444444444444446,117.96610169491525,24.761904761904763,118.98305084745763,24.761904761904763C120,24.761904761904763,121.01694915254237,22.857142857142854,122.03389830508473,22.857142857142854C123.05084745762711,22.857142857142854,124.0677966101695,25.555555555555557,125.08474576271188,26.66666666666667C126.10169491525424,27.777777777777775,127.11864406779662,29.523809523809526,128.135593220339,29.523809523809526C129.15254237288136,29.523809523809526,130.16949152542372,29.523809523809526,131.1864406779661,29.523809523809526C132.20338983050846,29.523809523809526,133.22033898305085,39.047619047619044,134.23728813559322,39.047619047619044C135.25423728813558,39.047619047619044,136.27118644067798,26.66666666666667,137.28813559322035,26.66666666666667C138.3050847457627,26.66666666666667,139.3220338983051,26.66666666666667,140.33898305084747,26.66666666666667C141.35593220338984,26.66666666666667,142.3728813559322,24.761904761904763,143.38983050847457,24.761904761904763C144.40677966101694,24.761904761904763,145.42372881355934,27.61904761904762,146.4406779661017,27.61904761904762C147.45762711864407,27.61904761904762,148.47457627118644,25.71428571428571,149.4915254237288,25.71428571428571C150.50847457627117,25.71428571428571,151.52542372881356,30.476190476190474,152.54237288135593,30.476190476190474C153.5593220338983,30.476190476190474,154.5762711864407,26.66666666666667,155.59322033898306,26.66666666666667C156.61016949152543,26.66666666666667,157.6271186440678,35.55555555555556,158.64406779661016,36.19047619047619C159.66101694915253,36.82539682539683,160.67796610169492,37.142857142857146,161.6949152542373,37.142857142857146C162.71186440677965,37.142857142857146,163.72881355932205,37.142857142857146,164.74576271186442,37.142857142857146C165.76271186440678,37.142857142857146,166.77966101694915,33.333333333333336,167.79661016949152,33.333333333333336C168.81355932203388,33.333333333333336,169.83050847457628,40,170.84745762711864,40C171.864406779661,40,172.8813559322034,37.301587301587304,173.89830508474577,36.19047619047619C174.91525423728814,35.079365079365076,175.93220338983053,34.126984126984134,176.9491525423729,33.333333333333336C177.96610169491527,32.539682539682545,178.98305084745763,31.984126984126988,180,31.428571428571427"></path><path class="axis-ceiling" stroke-width="1" stroke="black" fill="none" d="M175,0L180,0"></path><text class="axis-ceiling-label" font-family="sans-serif" text-anchor="end" font-size="10px" x="170" y="2.5">30</text></g></svg>