<svg xmlns="http://www.w3.org/2000/svg" viewBox="0 0 180 60"><g transform="translate(0,20)"><path class="area" fill="rgba(0, 0, 0, 0.2)" d="M0,21.19298245614035C0.576923076923077,21.19298245614035,1.1538461538461537,21.19298245614035,1.7307692307692308,21.19298245614035C2.307692307692308,21.19298245614035,2.8846153846153846,20.959064327485386,3.4615384615384617,20.91228070175439C4.615384615384616,20.8187134502924,5.769230769230769,20.771929824561404,6.923076923076923,20.771929824561404C8.076923076923077,20.771929824561404,9.230769230769232,21.05263157894737,10.384615384615385,21.05263157894737C11.538461538461538,21.05263157894737,12.692307692307693,20.35087719298246,13.846153846153847,20.35087719298246C15.000000000000002,20.35087719298246,16.153846153846157,21.19298245614035,17.30769230769231,21.19298245614035C18.461538461538463,21.19298245614035,19.615384615384617,21.05263157894737,20.76923076923077,21.05263157894737C23.076923076923077,21.05263157894737,25.384615384615387,21.333333333333332,27.692307692307693,21.333333333333332C31.73076923076923,21.333333333333332,35.76923076923077,21.05263157894737,39.80769230769231,21.05263157894737C40.38461538461539,21.05263157894737,40.96153846153846,21.567251461988302,41.53846153846154,21.614035087719298C43.84615384615385,21.801169590643273,46.15384615384615,21.89473684210526,48.46153846153846,21.89473684210526C50.19230769230769,21.89473684210526,51.92307692307692,21.695906432748533,53.65384615384615,21.333333333333332C54.23076923076923,21.212475633528264,54.80769230769231,20.91228070175439,55.38461538461539,20.91228070175439C55.96153846153846,20.91228070175439,56.53846153846154,21.013645224171544,57.11538461538461,21.05263157894737C58.26923076923077,21.130604288499026,59.42307692307693,21.19298245614035,60.57692307692308,21.19298245614035C65.1923076923077,21.19298245614035,69.8076923076923,20.210526315789473,74.42307692307692,20.210526315789473C75.57692307692308,20.210526315789473,76.73076923076923,21.473684210526315,77.88461538461539,21.473684210526315C82.5,21.473684210526315,87.11538461538461,20.771929824561404,91.73076923076923,20.771929824561404C92.88461538461539,20.771929824561404,94.03846153846153,20.771929824561404,95.1923076923077,20.771929824561404C97.5,20.771929824561404,99.8076923076923,21.19298245614035,102.11538461538461,21.19298245614035C102.6923076923077,21.19298245614035,103.26923076923076,20.91228070175439,103.84615384615384,20.91228070175439C104.42307692307692,20.91228070175439,105,20.91228070175439,105.57692307692308,20.91228070175439C107.88461538461539,20.91228070175439,110.1923076923077,20.91228070175439,112.5,20.91228070175439C113.65384615384616,20.91228070175439,114.8076923076923,2.807017543859649,115.96153846153847,2.807017543859649C116.53846153846155,2.807017543859649,117.11538461538461,40,117.6923076923077,40C118.26923076923077,40,118.84615384615384,21.146198830409354,119.42307692307692,21.05263157894737C120,20.959064327485383,120.57692307692308,20.91228070175439,121.15384615384616,20.91228070175439C121.73076923076924,20.91228070175439,122.3076923076923,20.91228070175439,122.88461538461539,20.91228070175439C123.46153846153847,20.91228070175439,124.03846153846153,20.91228070175439,124.61538461538461,20.91228070175439C125.1923076923077,20.91228070175439,125.76923076923076,21.19298245614035,126.34615384615384,21.19298245614035C127.49999999999999,21.19298245614035,128.65384615384613,20.91228070175439,129.8076923076923,20.91228070175439C130.38461538461536,20.91228070175439,130.96153846153845,21.05263157894737,131.53846153846152,21.05263157894737C132.1153846153846,21.05263157894737,132.69230769230768,21.05263157894737,133.26923076923077,21.05263157894737C133.84615384615384,21.05263157894737,134.42307692307693,20.631578947368425,135,20.631578947368425C135.57692307692307,20.631578947368425,136.15384615384616,21.05263157894737,136.73076923076923,21.05263157894737C137.8846153846154,21.05263157894737,139.03846153846155,21.005847953216378,140.1923076923077,20.91228070175439C140.76923076923077,20.8654970760234,141.34615384615384,20.631578947368425,141.9230769230769,20.631578947368425C142.5,20.631578947368425,143.07692307692307,20.631578947368425,143.65384615384616,20.631578947368425C144.23076923076923,20.631578947368425,144.80769230769232,21.05263157894737,145.3846153846154,21.05263157894737C145.96153846153845,21.05263157894737,146.53846153846155,20.584795321637426,147.1153846153846,20.49122807017544C147.69230769230768,20.39766081871345,148.26923076923077,20.35087719298246,148.84615384615384,20.35087719298246C149.42307692307693,20.35087719298246,150,21.333333333333332,150.5769230769231,21.333333333333332C151.15384615384616,21.333333333333332,151.73076923076923,19.789473684210527,152.3076923076923,19.789473684210527C152.88461538461536,19.789473684210527,153.46153846153845,20.91228070175439,154.03846153846152,20.91228070175439C154.6153846153846,20.91228070175439,155.19230769230768,20.701754385964918,155.76923076923077,20.631578947368425C156.34615384615384,20.561403508771935,156.92307692307693,20.49122807017544,157.5,20.49122807017544C158.07692307692307,20.49122807017544,158.65384615384616,20.49122807017544,159.23076923076923,20.49122807017544C159.80769230769232,20.49122807017544,160.3846153846154,20.771929824561408,160.96153846153848,20.91228070175439C161.53846153846155,21.052631578947373,162.11538461538464,21.333333333333332,162.6923076923077,21.333333333333332C163.26923076923077,21.333333333333332,163.84615384615384,21.333333333333332,164.4230769230769,21.333333333333332C165,21.333333333333332,165.57692307692307,18.666666666666668,166.15384615384616,18.666666666666668C166.73076923076923,18.666666666666668,167.30769230769232,20.49122807017544,167.8846153846154,20.49122807017544C168.46153846153845,20.49122807017544,169.03846153846155,20.18713450292398,169.6153846153846,20.070175438596493C170.19230769230768,19.953216374269008,170.76923076923077,19.789473684210527,171.34615384615384,19.789473684210527C171.92307692307693,19.789473684210527,172.5,19.929824561403507,173.0769230769231,19.929824561403507C173.65384615384616,19.929824561403507,174.23076923076923,18.24561403508772,174.8076923076923,18.24561403508772C175.38461538461536,18.24561403508772,175.96153846153845,19.2280701754386,176.53846153846152,19.2280701754386C177.1153846153846,19.2280701754386,177.69230769230768,18.666666666666668,178.26923076923077,18.666666666666668C178.84615384615384,18.666666666666668,179.42307692307693,19.929824561403507,180,21.19298245614035L180,40C179.42307692307693,40,178.84615384615384,40,178.26923076923077,40C177.69230769230768,40,177.1153846153846,40,176.53846153846152,40C175.96153846153845,40,175.38461538461536,40,174.8076923076923,40C174.23076923076923,40,173.65384615384616,40,173.0769230769231,40C172.5,40,171.92307692307693,40,171.34615384615384,40C170.76923076923077,40,170.19230769230768,40,169.6153846153846,40C169.03846153846155,40,168.46153846153845,40,167.8846153846154,40C167.30769230769232,40,166.73076923076923,40,166.15384615384616,40C165.57692307692307,40,165,40,164.4230769230769,40C163.84615384615384,40,163.26923076923077,40,162.6923076923077,40C162.11538461538464,40,161.53846153846155,40,160.96153846153848,40C160.3846153846154,40,159.80769230769232,40,159.23076923076923,40C158.65384615384616,40,158.07692307692307,40,157.5,40C156.92307692307693,40,156.34615384615384,40,155.76923076923077,40C155.19230769230768,40,154.6153846153846,40,154.03846153846152,40C153.46153846153845,40,152.88461538461536,40,152.3076923076923,40C151.73076923076923,40,151.15384615384616,40,150.5769230769231,40C150,40,149.42307692307693,40,148.84615384615384,40C148.26923076923077,40,147.69230769230768,40,147.1153846153846,40C146.53846153846155,40,145.96153846153845,40,145.3846153846154,40C144.80769230769232,40,144.23076923076923,40,143.65384615384616,40C143.07692307692307,40,142.5,40,141.9230769230769,40C141.34615384615384,40,140.76923076923077,40,140.1923076923077,40C139.03846153846155,40,137.8846153846154,40,136.73076923076923,40C136.15384615384616,40,135.57692307692307,40,135,40C134.42307692307693,40,133.84615384615384,40,133.26923076923077,40C132.69230769230768,40,132.1153846153846,40,131.53846153846152,40C130.96153846153845,40,130.38461538461536,40,129.8076923076923,40C128.65384615384613,40,127.49999999999999,40,126.34615384615384,40C125.76923076923076,40,125.1923076923077,40,124.61538461538461,40C124.03846153846153,40,123.46153846153847,40,122.88461538461539,40C122.3076923076923,40,121.73076923076924,40,121.15384615384616,40C120.57692307692308,40,120,40,119.42307692307692,40C118.84615384615384,40,118.26923076923077,40,117.6923076923077,40C117.11538461538461,40,116.53846153846155,40,115.96153846153847,40C114.8076923076923,40,113.65384615384616,40,112.5,40C110.1923076923077,40,107.88461538461539,40,105.57692307692308,40C105,40,104.42307692307692,40,103.84615384615384,40C103.26923076923076,40,102.6923076923077,40,102.11538461538461,40C99.8076923076923,40,97.5,40,95.1923076923077,40C94.03846153846153,40,92.88461538461539,40,91.73076923076923,40C87.11538461538461,40,82.5,40,77.88461538461539,40C76.73076923076923,40,75.57692307692308,40,74.42307692307692,40C69.8076923076923,40,65.1923076923077,40,60.57692307692308,40C59.42307692307693,40,58.26923076923077,40,57.11538461538461,40C56.53846153846154,40,55.96153846153846,40,55.38461538461539,40C54.80769230769231,40,54.23076923076923,40,53.65384615384615,40C51.92307692307692,40,50.19230769230769,40,48.46153846153846,40C46.15384615384615,40,43.84615384615385,40,41.53846153846154,40C40.96153846153846,40,40.38461538461539,40,39.80769230769231,40C35.76923076923077,40,31.73076923076923,40,27.692307692307693,40C25.384615384615387,40,23.076923076923077,40,20.76923076923077,40C19.615384615384617,40,18.461538461538463,40,17.30769230769231,40C16.153846153846157,40,15.000000000000002,40,13.846153846153847,40C12.692307692307693,40,11.538461538461538,40,10.384615384615385,40C9.230769230769232,40,8.076923076923077,40,6.923076923076923,40C5.769230769230769,40,4.615384615384616,40,3.4615384615384617,40C2.8846153846153846,40,2.307692307692308,40,1.7307692307692308,40C1.1538461538461537,40,0.576923076923077,40,0,40Z"></path><path class="line" stroke="black" fill="none" d="M0,21.19298245614035C0.576923076923077,21.19298245614035,1.1538461538461537,21.19298245614035,1.7307692307692308,21.19298245614035C2.307692307692308,21.19298245614035,2.8846153846153846,20.959064327485386,3.4615384615384617,20.91228070175439C4.615384615384616,20.8187134502924,5.769230769230769,20.771929824561404,6.923076923076923,20.771929824561404C8.076923076923077,20.771929824561404,9.230769230769232,21.05263157894737,10.384615384615385,21.05263157894737C11.538461538461538,21.05263157894737,12.692307692307693,20.35087719298246,13.846153846153847,20.35087719298246C15.000000000000002,20.35087719298246,16.153846153846157,21.19298245614035,17.30769230769231,21.19298245614035C18.461538461538463,21.19298245614035,19.615384615384617,21.05263157894737,20.76923076923077,21.05263157894737C23.076923076923077,21.05263157894737,25.384615384615387,21.333333333333332,27.692307692307693,21.333333333333332C31.73076923076923,21.333333333333332,35.76923076923077,21.05263157894737,39.80769230769231,21.05263157894737C40.38461538461539,21.05263157894737,40.96153846153846,21.567251461988302,41.53846153846154,21.614035087719298C43.84615384615385,21.801169590643273,46.15384615384615,21.89473684210526,48.46153846153846,21.89473684210526C50.19230769230769,21.89473684210526,51.92307692307692,21.695906432748533,53.65384615384615,21.333333333333332C54.23076923076923,21.212475633528264,54.80769230769231,20.91228070175439,55.38461538461539,20.91228070175439C55.96153846153846,20.91228070175439,56.53846153846154,21.013645224171544,57.11538461538461,21.05263157894737C58.26923076923077,21.130604288499026,59.42307692307693,21.19298245614035,60.57692307692308,21.19298245614035C65.1923076923077,21.19298245614035,69.8076923076923,20.210526315789473,74.42307692307692,20.210526315789473C75.57692307692308,20.210526315789473,76.73076923076923,21.473684210526315,77.88461538461539,21.473684210526315C82.5,21.473684210526315,87.11538461538461,20.771929824561404,91.73076923076923,20.771929824561404C92.88461538461539,20.771929824561404,94.03846153846153,20.771929824561404,95.1923076923077,20.771929824561404C97.5,20.771929824561404,99.8076923076923,21.19298245614035,102.11538461538461,21.19298245614035C102.6923076923077,21.19298245614035,103.26923076923076,20.91228070175439,103.84615384615384,20.91228070175439C104.42307692307692,20.91228070175439,105,20.91228070175439,105.57692307692308,20.91228070175439C107.88461538461539,20.91228070175439,110.1923076923077,20.91228070175439,112.5,20.91228070175439C113.65384615384616,20.91228070175439,114.8076923076923,2.807017543859649,115.96153846153847,2.807017543859649C116.53846153846155,2.807017543859649,117.11538461538461,40,117.6923076923077,40C118.26923076923077,40,118.84615384615384,21.146198830409354,119.42307692307692,21.05263157894737C120,20.959064327485383,120.57692307692308,20.91228070175439,121.15384615384616,20.91228070175439C121.73076923076924,20.91228070175439,122.3076923076923,20.91228070175439,122.88461538461539,20.91228070175439C123.46153846153847,20.91228070175439,124.03846153846153,20.91228070175439,124.61538461538461,20.91228070175439C125.1923076923077,20.91228070175439,125.76923076923076,21.19298245614035,126.34615384615384,21.19298245614035C127.49999999999999,21.19298245614035,128.65384615384613,20.91228070175439,129.8076923076923,20.91228070175439C130.38461538461536,20.91228070175439,130.96153846153845,21.05263157894737,131.53846153846152,21.05263157894737C132.1153846153846,21.05263157894737,132.69230769230768,21.05263157894737,133.26923076923077,21.05263157894737C133.84615384615384,21.05263157894737,134.42307692307693,20.631578947368425,135,20.631578947368425C135.57692307692307,20.631578947368425,136.15384615384616,21.05263157894737,136.73076923076923,21.05263157894737C137.8846153846154,21.05263157894737,139.03846153846155,21.005847953216378,140.1923076923077,20.91228070175439C140.76923076923077,20.8654970760234,141.34615384615384,20.631578947368425,141.9230769230769,20.631578947368425C142.5,20.631578947368425,143.07692307692307,20.631578947368425,143.65384615384616,20.631578947368425C144.23076923076923,20.631578947368425,144.80769230769232,21.05263157894737,145.3846153846154,21.05263157894737C145.96153846153845,21.05263157894737,146.53846153846155,20.584795321637426,147.1153846153846,20.49122807017544C147.69230769230768,20.39766081871345,148.26923076923077,20.35087719298246,148.84615384615384,20.35087719298246C149.42307692307693,20.35087719298246,150,21.333333333333332,150.5769230769231,21.333333333333332C151.15384615384616,21.333333333333332,151.73076923076923,19.789473684210527,152.3076923076923,19.789473684210527C152.88461538461536,19.789473684210527,153.46153846153845,20.91228070175439,154.03846153846152,20.91228070175439C154.6153846153846,20.91228070175439,155.19230769230768,20.701754385964918,155.76923076923077,20.631578947368425C156.34615384615384,20.561403508771935,156.92307692307693,20.49122807017544,157.5,20.49122807017544C158.07692307692307,20.49122807017544,158.65384615384616,20.49122807017544,159.23076923076923,20.49122807017544C159.80769230769232,20.49122807017544,160.3846153846154,20.771929824561408,160.96153846153848,20.91228070175439C161.53846153846155,21.052631578947373,162.11538461538464,21.333333333333332,162.6923076923077,21.333333333333332C163.26923076923077,21.333333333333332,163.84615384615384,21.333333333333332,164.4230769230769,21.333333333333332C165,21.333333333333332,165.57692307692307,18.666666666666668,166.15384615384616,18.666666666666668C166.73076923076923,18.666666666666668,167.30769230769232,20.49122807017544,167.8846153846154,20.49122807017544C168.46153846153845,20.49122807017544,169.03846153846155,20.18713450292398,169.6153846153846,20.070175438596493C170.19230769230768,19.953216374269008,170.76923076923077,19.789473684210527,171.34615384615384,19.789473684210527C171.92307692307693,19.789473684210527,172.5,19.929824561403507,173.0769230769231,19.929824561403507C173.65384615384616,19.929824561403507,174.23076923076923,18.24561403508772,174.8076923076923,18.24561403508772C175.38461538461536,18.24561403508772,175.96153846153845,19.2280701754386,176.53846153846152,19.2280701754386C177.1153846153846,19.2280701754386,177.69230769230768,18.666666666666668,178.26923076923077,18.666666666666668C178.84615384615384,18.666666666666668,179.42307692307693,19.929824561403507,180,21.19298245614035"></path><path class="axis-ceiling" stroke-width="1" stroke="black" fill="none" d="M175,0L180,0"></path><text class="axis-ceiling-label" font-family="sans-serif" text-anchor="end" font-size="10px" x="170" y="2.5">150</text></g></svg>