<svg xmlns="http://www.w3.org/2000/svg" viewBox="0 0 180 60"><g transform="translate(0,20)"><path class="area" fill="rgba(0, 0, 0, 0.2)" d="M0,40C1.0169491525423728,40,2.0338983050847457,40,3.0508474576271185,40C8.64406779661017,40,14.237288135593218,40,19.83050847457627,40C20.338983050847457,40,20.847457627118644,40,21.35593220338983,40C23.89830508474576,40,26.440677966101696,40,28.983050847457626,40C29.491525423728813,40,29.999999999999996,40,30.508474576271183,40C31.525423728813557,40,32.54237288135593,40,33.559322033898304,40C37.11864406779661,40,40.67796610169492,40,44.237288135593225,40C48.8135593220339,40,53.389830508474574,40,57.96610169491525,40C58.983050847457626,40,59.99999999999999,40,61.01694915254237,40C67.62711864406779,40,74.23728813559322,40,80.84745762711864,40C83.89830508474576,40,86.94915254237289,40,90,40C90.50847457627118,40,91.01694915254237,40,91.52542372881355,40C92.03389830508473,40,92.54237288135593,40,93.05084745762711,40C95.59322033898304,40,98.13559322033898,40,100.6779661016949,40C101.69491525423729,40,102.71186440677965,40,103.72881355932203,40C104.23728813559322,40,104.74576271186442,40,105.2542372881356,40C105.76271186440678,40,106.27118644067797,40,106.77966101694915,40C107.79661016949153,40,108.8135593220339,40,109.83050847457628,40C110.33898305084746,40,110.84745762711864,40,111.35593220338983,40C111.86440677966101,40,112.37288135593221,40,112.88135593220339,40C113.38983050847457,40,113.89830508474576,40,114.40677966101694,40C116.44067796610169,40,118.47457627118644,40,120.50847457627118,40C121.52542372881355,40,122.54237288135593,40,123.5593220338983,40C124.0677966101695,40,124.57627118644068,40,125.08474576271188,40C125.59322033898306,40,126.10169491525424,40,126.61016949152543,40C127.11864406779661,40,127.6271186440678,28,128.135593220339,28C128.64406779661016,28,129.15254237288136,36,129.66101694915253,36C130.16949152542372,36,130.6779661016949,36,131.1864406779661,36C132.20338983050846,36,133.22033898305085,36,134.23728813559322,36C134.74576271186442,36,135.25423728813558,36,135.76271186440678,36C136.27118644067798,36,136.77966101694915,36,137.28813559322035,36C137.79661016949154,36,138.3050847457627,32,138.8135593220339,32C139.3220338983051,32,139.83050847457628,32,140.33898305084747,32C140.84745762711864,32,141.35593220338984,36,141.864406779661,36C142.3728813559322,36,142.88135593220338,32,143.38983050847457,32C143.89830508474577,32,144.40677966101694,32,144.91525423728814,32C145.42372881355934,32,145.9322033898305,32,146.4406779661017,32C146.9491525423729,32,147.45762711864407,36,147.96610169491527,36C148.47457627118644,36,148.98305084745763,36,149.4915254237288,36C150,36,150.50847457627117,36,151.01694915254237,36C151.52542372881356,36,152.03389830508473,36,152.54237288135593,36C153.05084745762713,36,153.5593220338983,36,154.0677966101695,36C154.5762711864407,36,155.08474576271186,36,155.59322033898306,36C156.10169491525426,36,156.61016949152543,32,157.11864406779662,32C157.6271186440678,32,158.135593220339,36,158.64406779661016,36C159.15254237288136,36,159.66101694915253,36,160.16949152542372,36C160.67796610169492,36,161.1864406779661,30,161.6949152542373,28C162.20338983050848,26,162.71186440677965,24,163.22033898305085,24C163.72881355932205,24,164.23728813559322,24,164.74576271186442,24C165.25423728813558,24,165.76271186440678,24,166.27118644067795,24C166.77966101694915,24,167.28813559322032,0,167.79661016949152,0C168.3050847457627,0,168.81355932203388,7.999999999999998,169.32203389830508,7.999999999999998C169.83050847457628,7.999999999999998,170.33898305084745,7.999999999999998,170.84745762711864,7.999999999999998C171.35593220338984,7.999999999999998,171.864406779661,7.999999999999998,172.3728813559322,7.999999999999998C172.8813559322034,7.999999999999998,173.38983050847457,7.999999999999998,173.89830508474577,7.999999999999998C174.40677966101694,7.999999999999998,174.91525423728814,16,175.4237288135593,16C175.9322033898305,16,176.4406779661017,13.33333333333336,176.9491525423729,12.000000000000002C177.45762711864407,10.666666666666693,177.96610169491527,7.999999999999998,178.47457627118644,7.999999999999998C178.98305084745763,7.999999999999998,179.4915254237288,10,180,12.000000000000002L180,40C179.4915254237288,40,178.98305084745763,40,178.47457627118644,40C177.96610169491527,40,177.45762711864407,40,176.9491525423729,40C176.4406779661017,40,175.9322033898305,40,175.4237288135593,40C174.91525423728814,40,174.40677966101694,40,173.89830508474577,40C173.38983050847457,40,172.8813559322034,40,172.3728813559322,40C171.864406779661,40,171.35593220338984,40,170.84745762711864,40C170.33898305084745,40,169.83050847457628,40,169.32203389830508,40C168.81355932203388,40,168.3050847457627,40,167.79661016949152,40C167.28813559322032,40,166.77966101694915,40,166.27118644067795,40C165.76271186440678,40,165.25423728813558,40,164.74576271186442,40C164.23728813559322,40,163.72881355932205,40,163.22033898305085,40C162.71186440677965,40,162.20338983050848,40,161.6949152542373,40C161.1864406779661,40,160.67796610169492,40,160.16949152542372,40C159.66101694915253,40,159.15254237288136,40,158.64406779661016,40C158.135593220339,40,157.6271186440678,40,157.11864406779662,40C156.61016949152543,40,156.10169491525426,40,155.59322033898306,40C155.08474576271186,40,154.5762711864407,40,154.0677966101695,40C153.5593220338983,40,153.05084745762713,40,152.54237288135593,40C152.03389830508473,40,151.52542372881356,40,151.01694915254237,40C150.50847457627117,40,150,40,149.4915254237288,40C148.98305084745763,40,148.47457627118644,40,147.96610169491527,40C147.45762711864407,40,146.9491525423729,40,146.4406779661017,40C145.9322033898305,40,145.42372881355934,40,144.91525423728814,40C144.40677966101694,40,143.89830508474577,40,143.38983050847457,40C142.88135593220338,40,142.3728813559322,40,141.864406779661,40C141.35593220338984,40,140.84745762711864,40,140.33898305084747,40C139.83050847457628,40,139.3220338983051,40,138.8135593220339,40C138.3050847457627,40,137.79661016949154,40,137.28813559322035,40C136.77966101694915,40,136.27118644067798,40,135.76271186440678,40C135.25423728813558,40,134.74576271186442,40,134.23728813559322,40C133.22033898305085,40,132.20338983050846,40,131.1864406779661,40C130.6779661016949,40,130.16949152542372,40,129.66101694915253,40C129.15254237288136,40,128.64406779661016,40,128.135593220339,40C127.6271186440678,40,127.11864406779661,40,126.61016949152543,40C126.10169491525424,40,125.59322033898306,40,125.08474576271188,40C124.57627118644068,40,124.0677966101695,40,123.5593220338983,40C122.54237288135593,40,121.52542372881355,40,120.50847457627118,40C118.47457627118644,40,116.44067796610169,40,114.40677966101694,40C113.89830508474576,40,113.38983050847457,40,112.88135593220339,40C112.37288135593221,40,111.86440677966101,40,111.35593220338983,40C110.84745762711864,40,110.33898305084746,40,109.83050847457628,40C108.8135593220339,40,107.79661016949153,40,106.77966101694915,40C106.27118644067797,40,105.76271186440678,40,105.2542372881356,40C104.74576271186442,40,104.23728813559322,40,103.72881355932203,40C102.71186440677965,40,101.69491525423729,40,100.6779661016949,40C98.13559322033898,40,95.59322033898304,40,93.05084745762711,40C92.54237288135593,40,92.03389830508473,40,91.52542372881355,40C91.01694915254237,40,90.50847457627118,40,90,40C86.94915254237289,40,83.89830508474576,40,80.84745762711864,40C74.23728813559322,40,67.62711864406779,40,61.01694915254237,40C59.99999999999999,40,58.983050847457626,40,57.96610169491525,40C53.389830508474574,40,48.8135593220339,40,44.237288135593225,40C40.67796610169492,40,37.11864406779661,40,33.559322033898304,40C32.54237288135593,40,31.525423728813557,40,30.508474576271183,40C29.999999999999996,40,29.491525423728813,40,28.983050847457626,40C26.440677966101696,40,23.89830508474576,40,21.35593220338983,40C20.847457627118644,40,20.338983050847457,40,19.83050847457627,40C14.237288135593218,40,8.64406779661017,40,3.0508474576271185,40C2.0338983050847457,40,1.0169491525423728,40,0,40Z"></path><path class="line" stroke="black" fill="none" d="M0,40C1.0169491525423728,40,2.0338983050847457,40,3.0508474576271185,40C8.64406779661017,40,14.237288135593218,40,19.83050847457627,40C20.338983050847457,40,20.847457627118644,40,21.35593220338983,40C23.89830508474576,40,26.440677966101696,40,28.983050847457626,40C29.491525423728813,40,29.999999999999996,40,30.508474576271183,40C31.525423728813557,40,32.54237288135593,40,33.559322033898304,40C37.11864406779661,40,40.67796610169492,40,44.237288135593225,40C48.8135593220339,40,53.389830508474574,40,57.96610169491525,40C58.983050847457626,40,59.99999999999999,40,61.01694915254237,40C67.62711864406779,40,74.23728813559322,40,80.84745762711864,40C83.89830508474576,40,86.94915254237289,40,90,40C90.50847457627118,40,91.01694915254237,40,91.52542372881355,40C92.03389830508473,40,92.54237288135593,40,93.05084745762711,40C95.59322033898304,40,98.13559322033898,40,100.6779661016949,40C101.69491525423729,40,102.71186440677965,40,103.72881355932203,40C104.23728813559322,40,104.74576271186442,40,105.2542372881356,40C105.76271186440678,40,106.27118644067797,40,106.77966101694915,40C107.79661016949153,40,108.8135593220339,40,109.83050847457628,40C110.33898305084746,40,110.84745762711864,40,111.35593220338983,40C111.86440677966101,40,112.37288135593221,40,112.88135593220339,40C113.38983050847457,40,113.89830508474576,40,114.40677966101694,40C116.44067796610169,40,118.47457627118644,40,120.50847457627118,40C121.52542372881355,40,122.54237288135593,40,123.5593220338983,40C124.0677966101695,40,124.57627118644068,40,125.08474576271188,40C125.59322033898306,40,126.10169491525424,40,126.61016949152543,40C127.11864406779661,40,127.6271186440678,28,128.135593220339,28C128.64406779661016,28,129.15254237288136,36,129.66101694915253,36C130.16949152542372,36,130.6779661016949,36,131.1864406779661,36C132.20338983050846,36,133.22033898305085,36,134.23728813559322,36C134.74576271186442,36,135.25423728813558,36,135.76271186440678,36C136.27118644067798,36,136.77966101694915,36,137.28813559322035,36C137.79661016949154,36,138.3050847457627,32,138.8135593220339,32C139.3220338983051,32,139.83050847457628,32,140.33898305084747,32C140.84745762711864,32,141.35593220338984,36,141.864406779661,36C142.3728813559322,36,142.88135593220338,32,143.38983050847457,32C143.89830508474577,32,144.40677966101694,32,144.91525423728814,32C145.42372881355934,32,145.9322033898305,32,146.4406779661017,32C146.9491525423729,32,147.45762711864407,36,147.96610169491527,36C148.47457627118644,36,148.98305084745763,36,149.4915254237288,36C150,36,150.50847457627117,36,151.01694915254237,36C151.52542372881356,36,152.03389830508473,36,152.54237288135593,36C153.05084745762713,36,153.5593220338983,36,154.0677966101695,36C154.5762711864407,36,155.08474576271186,36,155.59322033898306,36C156.10169491525426,36,156.61016949152543,32,157.11864406779662,32C157.6271186440678,32,158.135593220339,36,158.64406779661016,36C159.15254237288136,36,159.66101694915253,36,160.16949152542372,36C160.67796610169492,36,161.1864406779661,30,161.6949152542373,28C162.20338983050848,26,162.71186440677965,24,163.22033898305085,24C163.72881355932205,24,164.23728813559322,24,164.74576271186442,24C165.25423728813558,24,165.76271186440678,24,166.27118644067795,24C166.77966101694915,24,167.28813559322032,0,167.79661016949152,0C168.3050847457627,0,168.81355932203388,7.999999999999998,169.32203389830508,7.999999999999998C169.83050847457628,7.999999999999998,170.33898305084745,7.999999999999998,170.84745762711864,7.999999999999998C171.35593220338984,7.999999999999998,171.864406779661,7.999999999999998,172.3728813559322,7.999999999999998C172.8813559322034,7.999999999999998,173.38983050847457,7.999999999999998,173.89830508474577,7.999999999999998C174.40677966101694,7.999999999999998,174.91525423728814,16,175.4237288135593,16C175.9322033898305,16,176.4406779661017,13.33333333333336,176.9491525423729,12.000000000000002C177.45762711864407,10.666666666666693,177.96610169491527,7.999999999999998,178.47457627118644,7.999999999999998C178.98305084745763,7.999999999999998,179.4915254237288,10,180,12.000000000000002"></path><path class="axis-ceiling" stroke-width="1" stroke="black" fill="none" d="M175,0L180,0"></path><text class="axis-ceiling-label" font-family="sans-serif" text-anchor="end" font-size="10px" x="170" y="2.5">10</text></g></svg>