<svg xmlns="http://www.w3.org/2000/svg" viewBox="0 0 180 60"><g transform="translate(0,20)"><path class="area" fill="rgba(0, 0, 0, 0.2)" d="M0,25.384615384615383C1.0344827586206897,26.08974358974359,2.068965517241379,26.794871794871796,3.103448275862069,26.794871794871796C4.137931034482759,26.794871794871796,5.172413793103448,24.743589743589745,6.206896551724138,24.743589743589745C7.241379310344827,24.743589743589745,8.275862068965516,28.33333333333333,9.310344827586206,28.33333333333333C10.344827586206897,28.33333333333333,11.379310344827585,23.33333333333333,12.413793103448276,23.33333333333333C13.448275862068966,23.33333333333333,14.482758620689655,29.615384615384617,15.517241379310345,29.615384615384617C16.551724137931036,29.615384615384617,17.586206896551722,18.846153846153847,18.620689655172413,18.846153846153847C19.655172413793103,18.846153846153847,20.689655172413794,25.64102564102564,21.724137931034484,25.64102564102564C22.758620689655174,25.64102564102564,23.79310344827586,25.384615384615383,24.82758620689655,25.384615384615383C25.862068965517242,25.384615384615383,26.896551724137932,26.36752136752137,27.931034482758623,26.66666666666667C28.965517241379313,26.96581196581197,30,27.0940170940171,31.03448275862069,27.179487179487182C32.06896551724138,27.264957264957264,33.103448275862064,27.307692307692307,34.137931034482754,27.307692307692307C35.172413793103445,27.307692307692307,36.206896551724135,26.153846153846153,37.241379310344826,26.153846153846153C38.275862068965516,26.153846153846153,39.310344827586206,27.820512820512818,40.3448275862069,27.820512820512818C41.37931034482759,27.820512820512818,42.41379310344828,26.965811965811962,43.44827586206897,26.538461538461537C44.48275862068966,26.11111111111111,45.51724137931035,25.726495726495727,46.55172413793104,25.256410256410255C47.58620689655173,24.786324786324787,48.62068965517241,23.71794871794872,49.6551724137931,23.71794871794872C50.689655172413794,23.71794871794872,51.72413793103448,33.333333333333336,52.75862068965517,33.333333333333336C53.79310344827586,33.333333333333336,54.827586206896555,23.93162393162394,55.862068965517246,23.58974358974359C56.896551724137936,23.247863247863247,57.93103448275862,23.076923076923073,58.96551724137931,23.076923076923073C60,23.076923076923073,61.03448275862069,25.897435897435894,62.06896551724138,25.897435897435894C63.10344827586207,25.897435897435894,64.13793103448276,23.931623931623925,65.17241379310344,23.33333333333333C66.20689655172413,22.735042735042732,67.24137931034483,22.307692307692307,68.27586206896551,22.307692307692307C69.3103448275862,22.307692307692307,70.34482758620689,28.076923076923073,71.37931034482759,28.076923076923073C72.41379310344827,28.076923076923073,73.44827586206897,20.769230769230766,74.48275862068965,20.769230769230766C75.51724137931033,20.769230769230766,76.55172413793103,26.41025641025641,77.58620689655172,26.41025641025641C78.62068965517241,26.41025641025641,79.6551724137931,21.41025641025641,80.6896551724138,21.41025641025641C81.72413793103448,21.41025641025641,82.75862068965517,23.076923076923073,83.79310344827586,23.076923076923073C84.82758620689656,23.076923076923073,85.86206896551724,16.794871794871792,86.89655172413794,16.794871794871792C87.93103448275862,16.794871794871792,88.96551724137932,27.307692307692307,90,27.307692307692307C91.0344827586207,27.307692307692307,92.06896551724138,24.252136752136778,93.10344827586208,21.025641025641026C94.13793103448276,17.7991452991453,95.17241379310344,7.948717948717947,96.20689655172413,7.948717948717947C97.24137931034483,7.948717948717947,98.27586206896551,18.461538461538463,99.3103448275862,18.461538461538463C100.3448275862069,18.461538461538463,101.37931034482759,18.076923076923073,102.41379310344828,18.076923076923073C103.44827586206897,18.076923076923073,104.48275862068965,20.128205128205128,105.51724137931033,20.128205128205128C106.55172413793103,20.128205128205128,107.58620689655172,19.572649572649574,108.62068965517241,18.461538461538463C109.65517241379311,17.350427350427353,110.6896551724138,3.717948717948718,111.72413793103449,3.717948717948718C112.75862068965517,3.717948717948718,113.79310344827587,20.897435897435894,114.82758620689656,20.897435897435894C115.86206896551724,20.897435897435894,116.89655172413794,19.102564102564102,117.93103448275862,19.102564102564102C118.96551724137932,19.102564102564102,120,26.752136752136746,121.0344827586207,30C122.06896551724138,33.247863247863236,123.10344827586208,38.58974358974359,124.13793103448276,38.58974358974359C125.17241379310344,38.58974358974359,126.20689655172414,1.4102564102564097,127.24137931034483,1.4102564102564097C128.27586206896552,1.4102564102564097,129.3103448275862,34.1025641025641,130.3448275862069,34.1025641025641C131.3793103448276,34.1025641025641,132.41379310344828,31.58119658119659,133.44827586206898,30.384615384615383C134.48275862068965,29.188034188034198,135.51724137931035,28.247863247863236,136.55172413793102,26.923076923076927C137.58620689655172,25.598290598290593,138.6206896551724,24.78632478632481,139.6551724137931,22.435897435897438C140.6896551724138,20.08547008547009,141.72413793103448,12.82051282051282,142.75862068965517,12.82051282051282C143.79310344827587,12.82051282051282,144.82758620689654,22.435897435897438,145.86206896551724,23.71794871794872C146.89655172413794,25,147.9310344827586,25.64102564102564,148.9655172413793,25.64102564102564C150,25.64102564102564,151.0344827586207,25.64102564102564,152.0689655172414,25.64102564102564C153.10344827586206,25.64102564102564,154.13793103448276,30.94017094017094,155.17241379310343,31.025641025641026C156.20689655172413,31.11111111111111,157.24137931034483,31.153846153846153,158.27586206896552,31.153846153846153C159.31034482758622,31.153846153846153,160.3448275862069,26.282051282051285,161.3793103448276,26.025641025641026C162.41379310344828,25.769230769230766,163.44827586206895,25.64102564102564,164.48275862068965,25.64102564102564C165.51724137931035,25.64102564102564,166.55172413793102,25.64102564102564,167.58620689655172,25.64102564102564C168.6206896551724,25.64102564102564,169.6551724137931,25.384615384615383,170.6896551724138,25.384615384615383C171.7241379310345,25.384615384615383,172.75862068965517,25.64102564102564,173.79310344827587,25.64102564102564C174.82758620689657,25.64102564102564,175.86206896551724,25.64102564102564,176.89655172413794,25.64102564102564C177.93103448275863,25.64102564102564,178.9655172413793,32.82051282051282,180,40L180,40C178.9655172413793,40,177.93103448275863,40,176.89655172413794,40C175.86206896551724,40,174.82758620689657,40,173.79310344827587,40C172.75862068965517,40,171.7241379310345,40,170.6896551724138,40C169.6551724137931,40,168.6206896551724,40,167.58620689655172,40C166.55172413793102,40,165.51724137931035,40,164.48275862068965,40C163.44827586206895,40,162.41379310344828,40,161.3793103448276,40C160.3448275862069,40,159.31034482758622,40,158.27586206896552,40C157.24137931034483,40,156.20689655172413,40,155.17241379310343,40C154.13793103448276,40,153.10344827586206,40,152.0689655172414,40C151.0344827586207,40,150,40,148.9655172413793,40C147.9310344827586,40,146.89655172413794,40,145.86206896551724,40C144.82758620689654,40,143.79310344827587,40,142.75862068965517,40C141.72413793103448,40,140.6896551724138,40,139.6551724137931,40C138.6206896551724,40,137.58620689655172,40,136.55172413793102,40C135.51724137931035,40,134.48275862068965,40,133.44827586206898,40C132.41379310344828,40,131.3793103448276,40,130.3448275862069,40C129.3103448275862,40,128.27586206896552,40,127.24137931034483,40C126.20689655172414,40,125.17241379310344,40,124.13793103448276,40C123.10344827586208,40,122.06896551724138,40,121.0344827586207,40C120,40,118.96551724137932,40,117.93103448275862,40C116.89655172413794,40,115.86206896551724,40,114.82758620689656,40C113.79310344827587,40,112.75862068965517,40,111.72413793103449,40C110.6896551724138,40,109.65517241379311,40,108.62068965517241,40C107.58620689655172,40,106.55172413793103,40,105.51724137931033,40C104.48275862068965,40,103.44827586206897,40,102.41379310344828,40C101.37931034482759,40,100.3448275862069,40,99.3103448275862,40C98.27586206896551,40,97.24137931034483,40,96.20689655172413,40C95.17241379310344,40,94.13793103448276,40,93.10344827586208,40C92.06896551724138,40,91.0344827586207,40,90,40C88.96551724137932,40,87.93103448275862,40,86.89655172413794,40C85.86206896551724,40,84.82758620689656,40,83.79310344827586,40C82.75862068965517,40,81.72413793103448,40,80.6896551724138,40C79.6551724137931,40,78.62068965517241,40,77.58620689655172,40C76.55172413793103,40,75.51724137931033,40,74.48275862068965,40C73.44827586206897,40,72.41379310344827,40,71.37931034482759,40C70.34482758620689,40,69.3103448275862,40,68.27586206896551,40C67.24137931034483,40,66.20689655172413,40,65.17241379310344,40C64.13793103448276,40,63.10344827586207,40,62.06896551724138,40C61.03448275862069,40,60,40,58.96551724137931,40C57.93103448275862,40,56.896551724137936,40,55.862068965517246,40C54.827586206896555,40,53.79310344827586,40,52.75862068965517,40C51.72413793103448,40,50.689655172413794,40,49.6551724137931,40C48.62068965517241,40,47.58620689655173,40,46.55172413793104,40C45.51724137931035,40,44.48275862068966,40,43.44827586206897,40C42.41379310344828,40,41.37931034482759,40,40.3448275862069,40C39.310344827586206,40,38.275862068965516,40,37.241379310344826,40C36.206896551724135,40,35.172413793103445,40,34.137931034482754,40C33.103448275862064,40,32.06896551724138,40,31.03448275862069,40C30,40,28.965517241379313,40,27.931034482758623,40C26.896551724137932,40,25.862068965517242,40,24.82758620689655,40C23.79310344827586,40,22.758620689655174,40,21.724137931034484,40C20.689655172413794,40,19.655172413793103,40,18.620689655172413,40C17.586206896551722,40,16.551724137931036,40,15.517241379310345,40C14.482758620689655,40,13.448275862068966,40,12.413793103448276,40C11.379310344827585,40,10.344827586206897,40,9.310344827586206,40C8.275862068965516,40,7.241379310344827,40,6.206896551724138,40C5.172413793103448,40,4.137931034482759,40,3.103448275862069,40C2.068965517241379,40,1.0344827586206897,40,0,40Z"></path><path class="line" stroke="black" fill="none" d="M0,25.384615384615383C1.0344827586206897,26.08974358974359,2.068965517241379,26.794871794871796,3.103448275862069,26.794871794871796C4.137931034482759,26.794871794871796,5.172413793103448,24.743589743589745,6.206896551724138,24.743589743589745C7.241379310344827,24.743589743589745,8.275862068965516,28.33333333333333,9.310344827586206,28.33333333333333C10.344827586206897,28.33333333333333,11.379310344827585,23.33333333333333,12.413793103448276,23.33333333333333C13.448275862068966,23.33333333333333,14.482758620689655,29.615384615384617,15.517241379310345,29.615384615384617C16.551724137931036,29.615384615384617,17.586206896551722,18.846153846153847,18.620689655172413,18.846153846153847C19.655172413793103,18.846153846153847,20.689655172413794,25.64102564102564,21.724137931034484,25.64102564102564C22.758620689655174,25.64102564102564,23.79310344827586,25.384615384615383,24.82758620689655,25.384615384615383C25.862068965517242,25.384615384615383,26.896551724137932,26.36752136752137,27.931034482758623,26.66666666666667C28.965517241379313,26.96581196581197,30,27.0940170940171,31.03448275862069,27.179487179487182C32.06896551724138,27.264957264957264,33.103448275862064,27.307692307692307,34.137931034482754,27.307692307692307C35.172413793103445,27.307692307692307,36.206896551724135,26.153846153846153,37.241379310344826,26.153846153846153C38.275862068965516,26.153846153846153,39.310344827586206,27.820512820512818,40.3448275862069,27.820512820512818C41.37931034482759,27.820512820512818,42.41379310344828,26.965811965811962,43.44827586206897,26.538461538461537C44.48275862068966,26.11111111111111,45.51724137931035,25.726495726495727,46.55172413793104,25.256410256410255C47.58620689655173,24.786324786324787,48.62068965517241,23.71794871794872,49.6551724137931,23.71794871794872C50.689655172413794,23.71794871794872,51.72413793103448,33.333333333333336,52.75862068965517,33.333333333333336C53.79310344827586,33.333333333333336,54.827586206896555,23.93162393162394,55.862068965517246,23.58974358974359C56.896551724137936,23.247863247863247,57.93103448275862,23.076923076923073,58.96551724137931,23.076923076923073C60,23.076923076923073,61.03448275862069,25.897435897435894,62.06896551724138,25.897435897435894C63.10344827586207,25.897435897435894,64.13793103448276,23.931623931623925,65.17241379310344,23.33333333333333C66.20689655172413,22.735042735042732,67.24137931034483,22.307692307692307,68.27586206896551,22.307692307692307C69.3103448275862,22.307692307692307,70.34482758620689,28.076923076923073,71.37931034482759,28.076923076923073C72.41379310344827,28.076923076923073,73.44827586206897,20.769230769230766,74.48275862068965,20.769230769230766C75.51724137931033,20.769230769230766,76.55172413793103,26.41025641025641,77.58620689655172,26.41025641025641C78.62068965517241,26.41025641025641,79.6551724137931,21.41025641025641,80.6896551724138,21.41025641025641C81.72413793103448,21.41025641025641,82.75862068965517,23.076923076923073,83.79310344827586,23.076923076923073C84.82758620689656,23.076923076923073,85.86206896551724,16.794871794871792,86.89655172413794,16.794871794871792C87.93103448275862,16.794871794871792,88.96551724137932,27.307692307692307,90,27.307692307692307C91.0344827586207,27.307692307692307,92.06896551724138,24.252136752136778,93.10344827586208,21.025641025641026C94.13793103448276,17.7991452991453,95.17241379310344,7.948717948717947,96.20689655172413,7.948717948717947C97.24137931034483,7.948717948717947,98.27586206896551,18.461538461538463,99.3103448275862,18.461538461538463C100.3448275862069,18.461538461538463,101.37931034482759,18.076923076923073,102.41379310344828,18.076923076923073C103.44827586206897,18.076923076923073,104.48275862068965,20.128205128205128,105.51724137931033,20.128205128205128C106.55172413793103,20.128205128205128,107.58620689655172,19.572649572649574,108.62068965517241,18.461538461538463C109.65517241379311,17.350427350427353,110.6896551724138,3.717948717948718,111.72413793103449,3.717948717948718C112.75862068965517,3.717948717948718,113.79310344827587,20.897435897435894,114.82758620689656,20.897435897435894C115.86206896551724,20.897435897435894,116.89655172413794,19.102564102564102,117.93103448275862,19.102564102564102C118.96551724137932,19.102564102564102,120,26.752136752136746,121.0344827586207,30C122.06896551724138,33.247863247863236,123.10344827586208,38.58974358974359,124.13793103448276,38.58974358974359C125.17241379310344,38.58974358974359,126.20689655172414,1.4102564102564097,127.24137931034483,1.4102564102564097C128.27586206896552,1.4102564102564097,129.3103448275862,34.1025641025641,130.3448275862069,34.1025641025641C131.3793103448276,34.1025641025641,132.41379310344828,31.58119658119659,133.44827586206898,30.384615384615383C134.48275862068965,29.188034188034198,135.51724137931035,28.247863247863236,136.55172413793102,26.923076923076927C137.58620689655172,25.598290598290593,138.6206896551724,24.78632478632481,139.6551724137931,22.435897435897438C140.6896551724138,20.08547008547009,141.72413793103448,12.82051282051282,142.75862068965517,12.82051282051282C143.79310344827587,12.82051282051282,144.82758620689654,22.435897435897438,145.86206896551724,23.71794871794872C146.89655172413794,25,147.9310344827586,25.64102564102564,148.9655172413793,25.64102564102564C150,25.64102564102564,151.0344827586207,25.64102564102564,152.0689655172414,25.64102564102564C153.10344827586206,25.64102564102564,154.13793103448276,30.94017094017094,155.17241379310343,31.025641025641026C156.20689655172413,31.11111111111111,157.24137931034483,31.153846153846153,158.27586206896552,31.153846153846153C159.31034482758622,31.153846153846153,160.3448275862069,26.282051282051285,161.3793103448276,26.025641025641026C162.41379310344828,25.769230769230766,163.44827586206895,25.64102564102564,164.48275862068965,25.64102564102564C165.51724137931035,25.64102564102564,166.55172413793102,25.64102564102564,167.58620689655172,25.64102564102564C168.6206896551724,25.64102564102564,169.6551724137931,25.384615384615383,170.6896551724138,25.384615384615383C171.7241379310345,25.384615384615383,172.75862068965517,25.64102564102564,173.79310344827587,25.64102564102564C174.82758620689657,25.64102564102564,175.86206896551724,25.64102564102564,176.89655172413794,25.64102564102564C177.93103448275863,25.64102564102564,178.9655172413793,32.82051282051282,180,40"></path><path class="axis-ceiling" stroke-width="1" stroke="black" fill="none" d="M175,0L180,0"></path><text class="axis-ceiling-label" font-family="sans-serif" text-anchor="end" font-size="10px" x="170" y="2.5">200</text></g></svg>