<svg xmlns="http://www.w3.org/2000/svg" viewBox="0 0 180 60"><g transform="translate(0,20)"><path class="area" fill="rgba(0, 0, 0, 0.2)" d="M0,20C1.0169491525423728,19.047619047619047,2.0338983050847457,18.095238095238095,3.0508474576271185,18.095238095238095C4.067796610169491,18.095238095238095,5.084745762711864,18.095238095238095,6.101694915254237,18.095238095238095C7.11864406779661,18.095238095238095,8.135593220338983,19.047619047619047,9.152542372881356,19.047619047619047C10.169491525423728,19.047619047619047,11.186440677966102,19.047619047619047,12.203389830508474,19.047619047619047C13.220338983050846,19.047619047619047,14.23728813559322,16.507936507936506,15.254237288135592,15.238095238095237C16.271186440677965,13.968253968253967,17.28813559322034,12.38095238095238,18.305084745762713,11.428571428571427C19.322033898305087,10.476190476190476,20.338983050847457,10.15873015873016,21.35593220338983,9.523809523809526C22.372881355932204,8.888888888888891,23.389830508474574,7.619047619047619,24.406779661016948,7.619047619047619C25.423728813559322,7.619047619047619,26.440677966101696,8.571428571428573,27.45762711864407,8.571428571428573C28.47457627118644,8.571428571428573,29.491525423728813,7.1428571428571415,30.508474576271183,6.666666666666665C31.525423728813557,6.190476190476188,32.54237288135593,5.714285714285716,33.559322033898304,5.714285714285716C34.57627118644068,5.714285714285716,35.59322033898305,8.571428571428573,36.610169491525426,8.571428571428573C37.6271186440678,8.571428571428573,38.644067796610166,7.936507936507936,39.66101694915254,7.619047619047619C40.67796610169491,7.3015873015873005,41.69491525423729,6.666666666666665,42.71186440677966,6.666666666666665C43.728813559322035,6.666666666666665,44.7457627118644,10.476190476190474,45.762711864406775,10.476190476190474C46.77966101694915,10.476190476190474,47.79661016949152,8.571428571428573,48.813559322033896,8.571428571428573C49.83050847457627,8.571428571428573,50.847457627118644,10.476190476190474,51.86440677966102,11.428571428571427C52.88135593220339,12.38095238095238,53.898305084745765,14.285714285714285,54.91525423728814,14.285714285714285C55.93220338983051,14.285714285714285,56.94915254237288,4.761904761904763,57.96610169491525,4.761904761904763C58.983050847457626,4.761904761904763,59.99999999999999,5.3968253968254,61.01694915254237,5.714285714285716C62.03389830508474,6.031746031746034,63.05084745762712,6.666666666666665,64.0677966101695,6.666666666666665C65.08474576271186,6.666666666666665,66.10169491525424,6.666666666666665,67.11864406779661,6.666666666666665C68.13559322033899,6.666666666666665,69.15254237288136,7.619047619047619,70.16949152542374,7.619047619047619C71.1864406779661,7.619047619047619,72.20338983050848,6.349206349206351,73.22033898305085,5.714285714285716C74.23728813559322,5.079365079365082,75.2542372881356,3.8095238095238093,76.27118644067797,3.8095238095238093C77.28813559322033,3.8095238095238093,78.30508474576271,13.01587301587302,79.32203389830508,16.19047619047619C80.33898305084746,19.365079365079374,81.35593220338983,21.269841269841265,82.37288135593221,22.857142857142854C83.38983050847457,24.444444444444436,84.40677966101696,24.603174603174605,85.42372881355932,25.71428571428571C86.4406779661017,26.825396825396826,87.45762711864407,29.523809523809526,88.47457627118645,29.523809523809526C89.49152542372882,29.523809523809526,90.50847457627118,26.66666666666667,91.52542372881355,26.66666666666667C92.54237288135593,26.66666666666667,93.55932203389831,27.61904761904762,94.57627118644069,27.61904761904762C95.59322033898306,27.61904761904762,96.61016949152543,26.984126984126977,97.62711864406779,25.71428571428571C98.64406779661016,24.444444444444443,99.66101694915254,20,100.6779661016949,20C101.69491525423729,20,102.71186440677965,23.17460317460317,103.72881355932203,23.80952380952381C104.7457627118644,24.444444444444446,105.76271186440678,24.761904761904763,106.77966101694915,24.761904761904763C107.79661016949153,24.761904761904763,108.8135593220339,22.857142857142854,109.83050847457628,22.857142857142854C110.84745762711864,22.857142857142854,111.86440677966102,25.55555555555556,112.88135593220339,26.66666666666667C113.89830508474576,27.777777777777782,114.91525423728814,29.523809523809526,115.9322033898305,29.523809523809526C116.94915254237289,29.523809523809526,117.96610169491525,29.523809523809526,118.98305084745763,29.523809523809526C120,29.523809523809526,121.01694915254237,39.047619047619044,122.03389830508473,39.047619047619044C123.05084745762711,39.047619047619044,124.0677966101695,26.66666666666667,125.08474576271188,26.66666666666667C126.10169491525424,26.66666666666667,127.11864406779662,26.66666666666667,128.135593220339,26.66666666666667C129.15254237288136,26.66666666666667,130.16949152542372,24.761904761904763,131.1864406779661,24.761904761904763C132.20338983050846,24.761904761904763,133.22033898305085,27.61904761904762,134.23728813559322,27.61904761904762C135.25423728813558,27.61904761904762,136.27118644067798,25.71428571428571,137.28813559322035,25.71428571428571C138.3050847457627,25.71428571428571,139.3220338983051,30.476190476190474,140.33898305084747,30.476190476190474C141.35593220338984,30.476190476190474,142.3728813559322,26.66666666666667,143.38983050847457,26.66666666666667C144.40677966101694,26.66666666666667,145.42372881355934,35.55555555555554,146.4406779661017,36.19047619047619C147.45762711864407,36.82539682539683,148.47457627118644,37.142857142857146,149.4915254237288,37.142857142857146C150.50847457627117,37.142857142857146,151.52542372881356,37.142857142857146,152.54237288135593,37.142857142857146C153.5593220338983,37.142857142857146,154.5762711864407,33.333333333333336,155.59322033898306,33.333333333333336C156.61016949152543,33.333333333333336,157.6271186440678,40,158.64406779661016,40C159.66101694915253,40,160.67796610169492,37.301587301587304,161.6949152542373,36.19047619047619C162.71186440677965,35.079365079365076,163.72881355932205,34.126984126984134,164.74576271186442,33.333333333333336C165.76271186440678,32.539682539682545,166.77966101694915,32.38095238095237,167.79661016949152,31.428571428571427C168.81355932203388,30.476190476190474,169.83050847457628,28.73015873015873,170.84745762711864,27.61904761904762C171.864406779661,26.50793650793651,172.8813559322034,24.761904761904763,173.89830508474577,24.761904761904763C174.91525423728814,24.761904761904763,175.93220338983053,29.523809523809526,176.9491525423729,29.523809523809526C177.96610169491527,29.523809523809526,178.98305084745763,22.857142857142858,180,16.19047619047619L180,40C178.98305084745763,40,177.96610169491527,40,176.9491525423729,40C175.93220338983053,40,174.91525423728814,40,173.89830508474577,40C172.8813559322034,40,171.864406779661,40,170.84745762711864,40C169.83050847457628,40,168.81355932203388,40,167.79661016949152,40C166.77966101694915,40,165.76271186440678,40,164.74576271186442,40C163.72881355932205,40,162.71186440677965,40,161.6949152542373,40C160.67796610169492,40,159.66101694915253,40,158.64406779661016,40C157.6271186440678,40,156.61016949152543,40,155.59322033898306,40C154.5762711864407,40,153.5593220338983,40,152.54237288135593,40C151.52542372881356,40,150.50847457627117,40,149.4915254237288,40C148.47457627118644,40,147.45762711864407,40,146.4406779661017,40C145.42372881355934,40,144.40677966101694,40,143.38983050847457,40C142.3728813559322,40,141.35593220338984,40,140.33898305084747,40C139.3220338983051,40,138.3050847457627,40,137.28813559322035,40C136.27118644067798,40,135.25423728813558,40,134.23728813559322,40C133.22033898305085,40,132.20338983050846,40,131.1864406779661,40C130.16949152542372,40,129.15254237288136,40,128.135593220339,40C127.11864406779662,40,126.10169491525424,40,125.08474576271188,40C124.0677966101695,40,123.05084745762711,40,122.03389830508473,40C121.01694915254237,40,120,40,118.98305084745763,40C117.96610169491525,40,116.94915254237289,40,115.9322033898305,40C114.91525423728814,40,113.89830508474576,40,112.88135593220339,40C111.86440677966102,40,110.84745762711864,40,109.83050847457628,40C108.8135593220339,40,107.79661016949153,40,106.77966101694915,40C105.76271186440678,40,104.7457627118644,40,103.72881355932203,40C102.71186440677965,40,101.69491525423729,40,100.6779661016949,40C99.66101694915254,40,98.64406779661016,40,97.62711864406779,40C96.61016949152543,40,95.59322033898306,40,94.57627118644069,40C93.55932203389831,40,92.54237288135593,40,91.52542372881355,40C90.50847457627118,40,89.49152542372882,40,88.47457627118645,40C87.45762711864407,40,86.4406779661017,40,85.42372881355932,40C84.40677966101696,40,83.38983050847457,40,82.37288135593221,40C81.35593220338983,40,80.33898305084746,40,79.32203389830508,40C78.30508474576271,40,77.28813559322033,40,76.27118644067797,40C75.2542372881356,40,74.23728813559322,40,73.22033898305085,40C72.20338983050848,40,71.1864406779661,40,70.16949152542374,40C69.15254237288136,40,68.13559322033899,40,67.11864406779661,40C66.10169491525424,40,65.08474576271186,40,64.0677966101695,40C63.05084745762712,40,62.03389830508474,40,61.01694915254237,40C59.99999999999999,40,58.983050847457626,40,57.96610169491525,40C56.94915254237288,40,55.93220338983051,40,54.91525423728814,40C53.898305084745765,40,52.88135593220339,40,51.86440677966102,40C50.847457627118644,40,49.83050847457627,40,48.813559322033896,40C47.79661016949152,40,46.77966101694915,40,45.762711864406775,40C44.7457627118644,40,43.728813559322035,40,42.71186440677966,40C41.69491525423729,40,40.67796610169491,40,39.66101694915254,40C38.644067796610166,40,37.6271186440678,40,36.610169491525426,40C35.59322033898305,40,34.57627118644068,40,33.559322033898304,40C32.54237288135593,40,31.525423728813557,40,30.508474576271183,40C29.491525423728813,40,28.47457627118644,40,27.45762711864407,40C26.440677966101696,40,25.423728813559322,40,24.406779661016948,40C23.389830508474574,40,22.372881355932204,40,21.35593220338983,40C20.338983050847457,40,19.322033898305087,40,18.305084745762713,40C17.28813559322034,40,16.271186440677965,40,15.254237288135592,40C14.23728813559322,40,13.220338983050846,40,12.203389830508474,40C11.186440677966102,40,10.169491525423728,40,9.152542372881356,40C8.135593220338983,40,7.11864406779661,40,6.101694915254237,40C5.084745762711864,40,4.067796610169491,40,3.0508474576271185,40C2.0338983050847457,40,1.0169491525423728,40,0,40Z"></path><path class="line" stroke="black" fill="none" d="M0,20C1.0169491525423728,19.047619047619047,2.0338983050847457,18.095238095238095,3.0508474576271185,18.095238095238095C4.067796610169491,18.095238095238095,5.084745762711864,18.095238095238095,6.101694915254237,18.095238095238095C7.11864406779661,18.095238095238095,8.135593220338983,19.047619047619047,9.152542372881356,19.047619047619047C10.169491525423728,19.047619047619047,11.186440677966102,19.047619047619047,12.203389830508474,19.047619047619047C13.220338983050846,19.047619047619047,14.23728813559322,16.507936507936506,15.254237288135592,15.238095238095237C16.271186440677965,13.968253968253967,17.28813559322034,12.38095238095238,18.305084745762713,11.428571428571427C19.322033898305087,10.476190476190476,20.338983050847457,10.15873015873016,21.35593220338983,9.523809523809526C22.372881355932204,8.888888888888891,23.389830508474574,7.619047619047619,24.406779661016948,7.619047619047619C25.423728813559322,7.619047619047619,26.440677966101696,8.571428571428573,27.45762711864407,8.571428571428573C28.47457627118644,8.571428571428573,29.491525423728813,7.1428571428571415,30.508474576271183,6.666666666666665C31.525423728813557,6.190476190476188,32.54237288135593,5.714285714285716,33.559322033898304,5.714285714285716C34.57627118644068,5.714285714285716,35.59322033898305,8.571428571428573,36.610169491525426,8.571428571428573C37.6271186440678,8.571428571428573,38.644067796610166,7.936507936507936,39.66101694915254,7.619047619047619C40.67796610169491,7.3015873015873005,41.69491525423729,6.666666666666665,42.71186440677966,6.666666666666665C43.728813559322035,6.666666666666665,44.7457627118644,10.476190476190474,45.762711864406775,10.476190476190474C46.77966101694915,10.476190476190474,47.79661016949152,8.571428571428573,48.813559322033896,8.571428571428573C49.83050847457627,8.571428571428573,50.847457627118644,10.476190476190474,51.86440677966102,11.428571428571427C52.88135593220339,12.38095238095238,53.898305084745765,14.285714285714285,54.91525423728814,14.285714285714285C55.93220338983051,14.285714285714285,56.94915254237288,4.761904761904763,57.96610169491525,4.761904761904763C58.983050847457626,4.761904761904763,59.99999999999999,5.3968253968254,61.01694915254237,5.714285714285716C62.03389830508474,6.031746031746034,63.05084745762712,6.666666666666665,64.0677966101695,6.666666666666665C65.08474576271186,6.666666666666665,66.10169491525424,6.666666666666665,67.11864406779661,6.666666666666665C68.13559322033899,6.666666666666665,69.15254237288136,7.619047619047619,70.16949152542374,7.619047619047619C71.1864406779661,7.619047619047619,72.20338983050848,6.349206349206351,73.22033898305085,5.714285714285716C74.23728813559322,5.079365079365082,75.2542372881356,3.8095238095238093,76.27118644067797,3.8095238095238093C77.28813559322033,3.8095238095238093,78.30508474576271,13.01587301587302,79.32203389830508,16.19047619047619C80.33898305084746,19.365079365079374,81.35593220338983,21.269841269841265,82.37288135593221,22.857142857142854C83.38983050847457,24.444444444444436,84.40677966101696,24.603174603174605,85.42372881355932,25.71428571428571C86.4406779661017,26.825396825396826,87.45762711864407,29.523809523809526,88.47457627118645,29.523809523809526C89.49152542372882,29.523809523809526,90.50847457627118,26.66666666666667,91.52542372881355,26.66666666666667C92.54237288135593,26.66666666666667,93.55932203389831,27.61904761904762,94.57627118644069,27.61904761904762C95.59322033898306,27.61904761904762,96.61016949152543,26.984126984126977,97.62711864406779,25.71428571428571C98.64406779661016,24.444444444444443,99.66101694915254,20,100.6779661016949,20C101.69491525423729,20,102.71186440677965,23.17460317460317,103.72881355932203,23.80952380952381C104.7457627118644,24.444444444444446,105.76271186440678,24.761904761904763,106.77966101694915,24.761904761904763C107.79661016949153,24.761904761904763,108.8135593220339,22.857142857142854,109.83050847457628,22.857142857142854C110.84745762711864,22.857142857142854,111.86440677966102,25.55555555555556,112.88135593220339,26.66666666666667C113.89830508474576,27.777777777777782,114.91525423728814,29.523809523809526,115.9322033898305,29.523809523809526C116.94915254237289,29.523809523809526,117.96610169491525,29.523809523809526,118.98305084745763,29.523809523809526C120,29.523809523809526,121.01694915254237,39.047619047619044,122.03389830508473,39.047619047619044C123.05084745762711,39.047619047619044,124.0677966101695,26.66666666666667,125.08474576271188,26.66666666666667C126.10169491525424,26.66666666666667,127.11864406779662,26.66666666666667,128.135593220339,26.66666666666667C129.15254237288136,26.66666666666667,130.16949152542372,24.761904761904763,131.1864406779661,24.761904761904763C132.20338983050846,24.761904761904763,133.22033898305085,27.61904761904762,134.23728813559322,27.61904761904762C135.25423728813558,27.61904761904762,136.27118644067798,25.71428571428571,137.28813559322035,25.71428571428571C138.3050847457627,25.71428571428571,139.3220338983051,30.476190476190474,140.33898305084747,30.476190476190474C141.35593220338984,30.476190476190474,142.3728813559322,26.66666666666667,143.38983050847457,26.66666666666667C144.40677966101694,26.66666666666667,145.42372881355934,35.55555555555554,146.4406779661017,36.19047619047619C147.45762711864407,36.82539682539683,148.47457627118644,37.142857142857146,149.4915254237288,37.142857142857146C150.50847457627117,37.142857142857146,151.52542372881356,37.142857142857146,152.54237288135593,37.142857142857146C153.5593220338983,37.142857142857146,154.5762711864407,33.333333333333336,155.59322033898306,33.333333333333336C156.61016949152543,33.333333333333336,157.6271186440678,40,158.64406779661016,40C159.66101694915253,40,160.67796610169492,37.301587301587304,161.6949152542373,36.19047619047619C162.71186440677965,35.079365079365076,163.72881355932205,34.126984126984134,164.74576271186442,33.333333333333336C165.76271186440678,32.539682539682545,166.77966101694915,32.38095238095237,167.79661016949152,31.428571428571427C168.81355932203388,30.476190476190474,169.83050847457628,28.73015873015873,170.84745762711864,27.61904761904762C171.864406779661,26.50793650793651,172.8813559322034,24.761904761904763,173.89830508474577,24.761904761904763C174.91525423728814,24.761904761904763,175.93220338983053,29.523809523809526,176.9491525423729,29.523809523809526C177.96610169491527,29.523809523809526,178.98305084745763,22.857142857142858,180,16.19047619047619"></path><path class="axis-ceiling" stroke-width="1" stroke="black" fill="none" d="M175,0L180,0"></path><text class="axis-ceiling-label" font-family="sans-serif" text-anchor="end" font-size="10px" x="170" y="2.5">30</text></g></svg>