<svg xmlns="http://www.w3.org/2000/svg" viewBox="0 0 180 60"><g transform="translate(0,20)"><path class="area" fill="rgba(0, 0, 0, 0.2)" d="M0,22.727272727272727C1.0169491525423728,23.18181818181818,2.0338983050847457,23.636363636363633,3.0508474576271185,23.636363636363633C4.067796610169491,23.636363636363633,5.084745762711864,22.727272727272727,6.101694915254237,22.727272727272727C7.11864406779661,22.727272727272727,8.135593220338983,22.727272727272727,9.152542372881356,22.727272727272727C10.169491525423728,22.727272727272727,11.186440677966102,22.727272727272727,12.203389830508474,22.727272727272727C13.220338983050846,22.727272727272727,14.23728813559322,22.727272727272727,15.254237288135592,22.727272727272727C16.271186440677965,22.727272727272727,17.28813559322034,22.727272727272727,18.305084745762713,22.727272727272727C19.322033898305087,22.727272727272727,20.338983050847457,22.727272727272727,21.35593220338983,22.727272727272727C22.372881355932204,22.727272727272727,23.389830508474574,22.727272727272727,24.406779661016948,22.727272727272727C25.423728813559322,22.727272727272727,26.440677966101696,6.363636363636362,27.45762711864407,6.363636363636362C28.47457627118644,6.363636363636362,29.491525423728813,23.636363636363633,30.508474576271183,23.636363636363633C31.525423728813557,23.636363636363633,32.54237288135593,23.636363636363633,33.559322033898304,23.636363636363633C34.57627118644068,23.636363636363633,35.59322033898305,23.636363636363633,36.610169491525426,23.636363636363633C37.6271186440678,23.636363636363633,38.644067796610166,23.636363636363633,39.66101694915254,23.636363636363633C40.67796610169491,23.636363636363633,41.69491525423729,23.636363636363633,42.71186440677966,23.636363636363633C43.728813559322035,23.636363636363633,44.7457627118644,23.636363636363633,45.762711864406775,23.636363636363633C46.77966101694915,23.636363636363633,47.79661016949152,40,48.813559322033896,40C49.83050847457627,40,50.847457627118644,22.727272727272727,51.86440677966102,22.727272727272727C52.88135593220339,22.727272727272727,53.898305084745765,22.727272727272727,54.91525423728814,22.727272727272727C55.93220338983051,22.727272727272727,56.94915254237288,22.727272727272727,57.96610169491525,22.727272727272727C58.983050847457626,22.727272727272727,59.99999999999999,22.727272727272727,61.01694915254237,22.727272727272727C62.03389830508474,22.727272727272727,63.05084745762712,22.727272727272727,64.0677966101695,22.727272727272727C65.08474576271186,22.727272727272727,66.10169491525424,22.727272727272727,67.11864406779661,22.727272727272727C68.13559322033899,22.727272727272727,69.15254237288136,22.727272727272727,70.16949152542374,22.727272727272727C71.1864406779661,22.727272727272727,72.20338983050848,21.818181818181817,73.22033898305085,21.818181818181817C74.23728813559322,21.818181818181817,75.2542372881356,21.818181818181817,76.27118644067797,21.818181818181817C77.28813559322033,21.818181818181817,78.30508474576271,21.818181818181817,79.32203389830508,21.818181818181817C80.33898305084746,21.818181818181817,81.35593220338983,21.818181818181817,82.37288135593221,21.818181818181817C83.38983050847457,21.818181818181817,84.40677966101696,20.909090909090907,85.42372881355932,20.909090909090907C86.4406779661017,20.909090909090907,87.45762711864407,20.909090909090907,88.47457627118645,20.909090909090907C89.49152542372882,20.909090909090907,90.50847457627118,20,91.52542372881355,20C92.54237288135593,20,93.55932203389831,20.909090909090907,94.57627118644069,20.909090909090907C95.59322033898306,20.909090909090907,96.61016949152543,20.909090909090907,97.62711864406779,20.909090909090907C98.64406779661016,20.909090909090907,99.66101694915254,20,100.6779661016949,20C101.69491525423729,20,102.71186440677965,20,103.72881355932203,20C104.7457627118644,20,105.76271186440678,20.909090909090907,106.77966101694915,20.909090909090907C107.79661016949153,20.909090909090907,108.8135593220339,20.909090909090907,109.83050847457628,20.909090909090907C110.84745762711864,20.909090909090907,111.86440677966102,21.818181818181817,112.88135593220339,21.818181818181817C113.89830508474576,21.818181818181817,114.91525423728814,20,115.9322033898305,20C116.94915254237289,20,117.96610169491525,20,118.98305084745763,20C120,20,121.01694915254237,19.090909090909093,122.03389830508473,19.090909090909093C123.05084745762711,19.090909090909093,124.0677966101695,19.090909090909093,125.08474576271188,19.090909090909093C126.10169491525424,19.090909090909093,127.11864406779662,18.78787878787879,128.135593220339,18.181818181818183C129.15254237288136,17.575757575757578,130.16949152542372,15.454545454545453,131.1864406779661,14.545454545454547C132.20338983050846,13.636363636363631,133.22033898305085,12.72727272727273,134.23728813559322,12.72727272727273C135.25423728813558,12.72727272727273,136.27118644067798,12.72727272727273,137.28813559322035,12.72727272727273C138.3050847457627,12.72727272727273,139.3220338983051,13.636363636363637,140.33898305084747,13.636363636363637C141.35593220338984,13.636363636363637,142.3728813559322,13.636363636363637,143.38983050847457,13.636363636363637C144.40677966101694,13.636363636363637,145.42372881355934,11.212121212121218,146.4406779661017,10C147.45762711864407,8.787878787878793,148.47457627118644,7.27272727272727,149.4915254237288,6.363636363636362C150.50847457627117,5.454545454545446,151.52542372881356,5.151515151515151,152.54237288135593,4.545454545454546C153.5593220338983,3.9393939393939403,154.5762711864407,2.7272727272727293,155.59322033898306,2.7272727272727293C156.61016949152543,2.7272727272727293,157.6271186440678,3.6363636363636376,158.64406779661016,3.6363636363636376C159.66101694915253,3.6363636363636376,160.67796610169492,2.2727272727272716,161.6949152542373,1.8181818181818166C162.71186440677965,1.3636363636363615,163.72881355932205,0.9090909090909083,164.74576271186442,0.9090909090909083C165.76271186440678,0.9090909090909083,166.77966101694915,3.6363636363636376,167.79661016949152,3.6363636363636376C168.81355932203388,3.6363636363636376,169.83050847457628,3.030303030303033,170.84745762711864,2.7272727272727293C171.864406779661,2.4242424242424256,172.8813559322034,1.8181818181818166,173.89830508474577,1.8181818181818166C174.91525423728814,1.8181818181818166,175.93220338983053,5.454545454545454,176.9491525423729,5.454545454545454C177.96610169491527,5.454545454545454,178.98305084745763,4.545454545454546,180,3.6363636363636376L180,40C178.98305084745763,40,177.96610169491527,40,176.9491525423729,40C175.93220338983053,40,174.91525423728814,40,173.89830508474577,40C172.8813559322034,40,171.864406779661,40,170.84745762711864,40C169.83050847457628,40,168.81355932203388,40,167.79661016949152,40C166.77966101694915,40,165.76271186440678,40,164.74576271186442,40C163.72881355932205,40,162.71186440677965,40,161.6949152542373,40C160.67796610169492,40,159.66101694915253,40,158.64406779661016,40C157.6271186440678,40,156.61016949152543,40,155.59322033898306,40C154.5762711864407,40,153.5593220338983,40,152.54237288135593,40C151.52542372881356,40,150.50847457627117,40,149.4915254237288,40C148.47457627118644,40,147.45762711864407,40,146.4406779661017,40C145.42372881355934,40,144.40677966101694,40,143.38983050847457,40C142.3728813559322,40,141.35593220338984,40,140.33898305084747,40C139.3220338983051,40,138.3050847457627,40,137.28813559322035,40C136.27118644067798,40,135.25423728813558,40,134.23728813559322,40C133.22033898305085,40,132.20338983050846,40,131.1864406779661,40C130.16949152542372,40,129.15254237288136,40,128.135593220339,40C127.11864406779662,40,126.10169491525424,40,125.08474576271188,40C124.0677966101695,40,123.05084745762711,40,122.03389830508473,40C121.01694915254237,40,120,40,118.98305084745763,40C117.96610169491525,40,116.94915254237289,40,115.9322033898305,40C114.91525423728814,40,113.89830508474576,40,112.88135593220339,40C111.86440677966102,40,110.84745762711864,40,109.83050847457628,40C108.8135593220339,40,107.79661016949153,40,106.77966101694915,40C105.76271186440678,40,104.7457627118644,40,103.72881355932203,40C102.71186440677965,40,101.69491525423729,40,100.6779661016949,40C99.66101694915254,40,98.64406779661016,40,97.62711864406779,40C96.61016949152543,40,95.59322033898306,40,94.57627118644069,40C93.55932203389831,40,92.54237288135593,40,91.52542372881355,40C90.50847457627118,40,89.49152542372882,40,88.47457627118645,40C87.45762711864407,40,86.4406779661017,40,85.42372881355932,40C84.40677966101696,40,83.38983050847457,40,82.37288135593221,40C81.35593220338983,40,80.33898305084746,40,79.32203389830508,40C78.30508474576271,40,77.28813559322033,40,76.27118644067797,40C75.2542372881356,40,74.23728813559322,40,73.22033898305085,40C72.20338983050848,40,71.1864406779661,40,70.16949152542374,40C69.15254237288136,40,68.13559322033899,40,67.11864406779661,40C66.10169491525424,40,65.08474576271186,40,64.0677966101695,40C63.05084745762712,40,62.03389830508474,40,61.01694915254237,40C59.99999999999999,40,58.983050847457626,40,57.96610169491525,40C56.94915254237288,40,55.93220338983051,40,54.91525423728814,40C53.898305084745765,40,52.88135593220339,40,51.86440677966102,40C50.847457627118644,40,49.83050847457627,40,48.813559322033896,40C47.79661016949152,40,46.77966101694915,40,45.762711864406775,40C44.7457627118644,40,43.728813559322035,40,42.71186440677966,40C41.69491525423729,40,40.67796610169491,40,39.66101694915254,40C38.644067796610166,40,37.6271186440678,40,36.610169491525426,40C35.59322033898305,40,34.57627118644068,40,33.559322033898304,40C32.54237288135593,40,31.525423728813557,40,30.508474576271183,40C29.491525423728813,40,28.47457627118644,40,27.45762711864407,40C26.440677966101696,40,25.423728813559322,40,24.406779661016948,40C23.389830508474574,40,22.372881355932204,40,21.35593220338983,40C20.338983050847457,40,19.322033898305087,40,18.305084745762713,40C17.28813559322034,40,16.271186440677965,40,15.254237288135592,40C14.23728813559322,40,13.220338983050846,40,12.203389830508474,40C11.186440677966102,40,10.169491525423728,40,9.152542372881356,40C8.135593220338983,40,7.11864406779661,40,6.101694915254237,40C5.084745762711864,40,4.067796610169491,40,3.0508474576271185,40C2.0338983050847457,40,1.0169491525423728,40,0,40Z"></path><path class="line" stroke="black" fill="none" d="M0,22.727272727272727C1.0169491525423728,23.18181818181818,2.0338983050847457,23.636363636363633,3.0508474576271185,23.636363636363633C4.067796610169491,23.636363636363633,5.084745762711864,22.727272727272727,6.101694915254237,22.727272727272727C7.11864406779661,22.727272727272727,8.135593220338983,22.727272727272727,9.152542372881356,22.727272727272727C10.169491525423728,22.727272727272727,11.186440677966102,22.727272727272727,12.203389830508474,22.727272727272727C13.220338983050846,22.727272727272727,14.23728813559322,22.727272727272727,15.254237288135592,22.727272727272727C16.271186440677965,22.727272727272727,17.28813559322034,22.727272727272727,18.305084745762713,22.727272727272727C19.322033898305087,22.727272727272727,20.338983050847457,22.727272727272727,21.35593220338983,22.727272727272727C22.372881355932204,22.727272727272727,23.389830508474574,22.727272727272727,24.406779661016948,22.727272727272727C25.423728813559322,22.727272727272727,26.440677966101696,6.363636363636362,27.45762711864407,6.363636363636362C28.47457627118644,6.363636363636362,29.491525423728813,23.636363636363633,30.508474576271183,23.636363636363633C31.525423728813557,23.636363636363633,32.54237288135593,23.636363636363633,33.559322033898304,23.636363636363633C34.57627118644068,23.636363636363633,35.59322033898305,23.636363636363633,36.610169491525426,23.636363636363633C37.6271186440678,23.636363636363633,38.644067796610166,23.636363636363633,39.66101694915254,23.636363636363633C40.67796610169491,23.636363636363633,41.69491525423729,23.636363636363633,42.71186440677966,23.636363636363633C43.728813559322035,23.636363636363633,44.7457627118644,23.636363636363633,45.762711864406775,23.636363636363633C46.77966101694915,23.636363636363633,47.79661016949152,40,48.813559322033896,40C49.83050847457627,40,50.847457627118644,22.727272727272727,51.86440677966102,22.727272727272727C52.88135593220339,22.727272727272727,53.898305084745765,22.727272727272727,54.91525423728814,22.727272727272727C55.93220338983051,22.727272727272727,56.94915254237288,22.727272727272727,57.96610169491525,22.727272727272727C58.983050847457626,22.727272727272727,59.99999999999999,22.727272727272727,61.01694915254237,22.727272727272727C62.03389830508474,22.727272727272727,63.05084745762712,22.727272727272727,64.0677966101695,22.727272727272727C65.08474576271186,22.727272727272727,66.10169491525424,22.727272727272727,67.11864406779661,22.727272727272727C68.13559322033899,22.727272727272727,69.15254237288136,22.727272727272727,70.16949152542374,22.727272727272727C71.1864406779661,22.727272727272727,72.20338983050848,21.818181818181817,73.22033898305085,21.818181818181817C74.23728813559322,21.818181818181817,75.2542372881356,21.818181818181817,76.27118644067797,21.818181818181817C77.28813559322033,21.818181818181817,78.30508474576271,21.818181818181817,79.32203389830508,21.818181818181817C80.33898305084746,21.818181818181817,81.35593220338983,21.818181818181817,82.37288135593221,21.818181818181817C83.38983050847457,21.818181818181817,84.40677966101696,20.909090909090907,85.42372881355932,20.909090909090907C86.4406779661017,20.909090909090907,87.45762711864407,20.909090909090907,88.47457627118645,20.909090909090907C89.49152542372882,20.909090909090907,90.50847457627118,20,91.52542372881355,20C92.54237288135593,20,93.55932203389831,20.909090909090907,94.57627118644069,20.909090909090907C95.59322033898306,20.909090909090907,96.61016949152543,20.909090909090907,97.62711864406779,20.909090909090907C98.64406779661016,20.909090909090907,99.66101694915254,20,100.6779661016949,20C101.69491525423729,20,102.71186440677965,20,103.72881355932203,20C104.7457627118644,20,105.76271186440678,20.909090909090907,106.77966101694915,20.909090909090907C107.79661016949153,20.909090909090907,108.8135593220339,20.909090909090907,109.83050847457628,20.909090909090907C110.84745762711864,20.909090909090907,111.86440677966102,21.818181818181817,112.88135593220339,21.818181818181817C113.89830508474576,21.818181818181817,114.91525423728814,20,115.9322033898305,20C116.94915254237289,20,117.96610169491525,20,118.98305084745763,20C120,20,121.01694915254237,19.090909090909093,122.03389830508473,19.090909090909093C123.05084745762711,19.090909090909093,124.0677966101695,19.090909090909093,125.08474576271188,19.090909090909093C126.10169491525424,19.090909090909093,127.11864406779662,18.78787878787879,128.135593220339,18.181818181818183C129.15254237288136,17.575757575757578,130.16949152542372,15.454545454545453,131.1864406779661,14.545454545454547C132.20338983050846,13.636363636363631,133.22033898305085,12.72727272727273,134.23728813559322,12.72727272727273C135.25423728813558,12.72727272727273,136.27118644067798,12.72727272727273,137.28813559322035,12.72727272727273C138.3050847457627,12.72727272727273,139.3220338983051,13.636363636363637,140.33898305084747,13.636363636363637C141.35593220338984,13.636363636363637,142.3728813559322,13.636363636363637,143.38983050847457,13.636363636363637C144.40677966101694,13.636363636363637,145.42372881355934,11.212121212121218,146.4406779661017,10C147.45762711864407,8.787878787878793,148.47457627118644,7.27272727272727,149.4915254237288,6.363636363636362C150.50847457627117,5.454545454545446,151.52542372881356,5.151515151515151,152.54237288135593,4.545454545454546C153.5593220338983,3.9393939393939403,154.5762711864407,2.7272727272727293,155.59322033898306,2.7272727272727293C156.61016949152543,2.7272727272727293,157.6271186440678,3.6363636363636376,158.64406779661016,3.6363636363636376C159.66101694915253,3.6363636363636376,160.67796610169492,2.2727272727272716,161.6949152542373,1.8181818181818166C162.71186440677965,1.3636363636363615,163.72881355932205,0.9090909090909083,164.74576271186442,0.9090909090909083C165.76271186440678,0.9090909090909083,166.77966101694915,3.6363636363636376,167.79661016949152,3.6363636363636376C168.81355932203388,3.6363636363636376,169.83050847457628,3.030303030303033,170.84745762711864,2.7272727272727293C171.864406779661,2.4242424242424256,172.8813559322034,1.8181818181818166,173.89830508474577,1.8181818181818166C174.91525423728814,1.8181818181818166,175.93220338983053,5.454545454545454,176.9491525423729,5.454545454545454C177.96610169491527,5.454545454545454,178.98305084745763,4.545454545454546,180,3.6363636363636376"></path><path class="axis-ceiling" stroke-width="1" stroke="black" fill="none" d="M175,0L180,0"></path><text class="axis-ceiling-label" font-family="sans-serif" text-anchor="end" font-size="10px" x="170" y="2.5">25</text></g></svg>