<svg xmlns="http://www.w3.org/2000/svg" viewBox="0 0 180 60"><g transform="translate(0,20)"><path class="area" fill="rgba(0, 0, 0, 0.2)" d="M0,40C1.0169491525423728,28.56737588652482,2.0338983050847457,17.134751773049643,3.0508474576271185,17.02127659574468C4.067796610169491,16.907801418439718,5.084745762711864,16.851063829787236,6.101694915254237,16.851063829787236C7.11864406779661,16.851063829787236,8.135593220338983,16.851063829787236,9.152542372881356,16.851063829787236C10.169491525423728,16.851063829787236,11.186440677966102,16.851063829787236,12.203389830508474,16.851063829787236C13.220338983050846,16.851063829787236,14.23728813559322,17.191489361702125,15.254237288135592,17.191489361702125C16.271186440677965,17.191489361702125,17.28813559322034,16.851063829787236,18.305084745762713,16.851063829787236C19.322033898305087,16.851063829787236,20.338983050847457,17.02127659574468,21.35593220338983,17.02127659574468C22.372881355932204,17.02127659574468,23.389830508474574,17.02127659574468,24.406779661016948,17.02127659574468C25.423728813559322,17.02127659574468,26.440677966101696,17.02127659574468,27.45762711864407,17.02127659574468C28.47457627118644,17.02127659574468,29.491525423728813,16.51063829787234,30.508474576271183,16.51063829787234C31.525423728813557,16.51063829787234,32.54237288135593,16.907801418439718,33.559322033898304,17.02127659574468C34.57627118644068,17.134751773049643,35.59322033898305,17.191489361702125,36.610169491525426,17.191489361702125C37.6271186440678,17.191489361702125,38.644067796610166,16.79432624113475,39.66101694915254,16.680851063829788C40.67796610169491,16.567375886524825,41.69491525423729,16.51063829787234,42.71186440677966,16.51063829787234C43.728813559322035,16.51063829787234,44.7457627118644,16.51063829787234,45.762711864406775,16.51063829787234C46.77966101694915,16.51063829787234,47.79661016949152,17.02127659574468,48.813559322033896,17.02127659574468C49.83050847457627,17.02127659574468,50.847457627118644,16.453900709219862,51.86440677966102,16.340425531914896C52.88135593220339,16.22695035460993,53.898305084745765,16.170212765957448,54.91525423728814,16.170212765957448C55.93220338983051,16.170212765957448,56.94915254237288,17.361702127659573,57.96610169491525,17.361702127659573C58.983050847457626,17.361702127659573,59.99999999999999,15.48936170212766,61.01694915254237,15.48936170212766C62.03389830508474,15.48936170212766,63.05084745762712,16.851063829787236,64.0677966101695,16.851063829787236C65.08474576271186,16.851063829787236,66.10169491525424,16.595744680851062,67.11864406779661,16.51063829787234C68.13559322033899,16.425531914893618,69.15254237288136,16.340425531914896,70.16949152542374,16.340425531914896C71.1864406779661,16.340425531914896,72.20338983050848,16.340425531914896,73.22033898305085,16.340425531914896C74.23728813559322,16.340425531914896,75.2542372881356,16.68085106382979,76.27118644067797,16.851063829787236C77.28813559322033,17.02127659574468,78.30508474576271,17.361702127659573,79.32203389830508,17.361702127659573C80.33898305084746,17.361702127659573,81.35593220338983,17.361702127659573,82.37288135593221,17.361702127659573C83.38983050847457,17.361702127659573,84.40677966101696,14.127659574468083,85.42372881355932,14.127659574468083C86.4406779661017,14.127659574468083,87.45762711864407,16.340425531914896,88.47457627118645,16.340425531914896C89.49152542372882,16.340425531914896,90.50847457627118,15.97163120567376,91.52542372881355,15.829787234042554C92.54237288135593,15.687943262411347,93.55932203389831,15.48936170212766,94.57627118644069,15.48936170212766C95.59322033898306,15.48936170212766,96.61016949152543,15.659574468085108,97.62711864406779,15.659574468085108C98.64406779661016,15.659574468085108,99.66101694915254,13.617021276595747,100.6779661016949,13.617021276595747C101.69491525423729,13.617021276595747,102.71186440677965,14.808510638297872,103.72881355932203,14.808510638297872C104.7457627118644,14.808510638297872,105.76271186440678,14.127659574468083,106.77966101694915,14.127659574468083C107.79661016949153,14.127659574468083,108.8135593220339,17.191489361702125,109.83050847457628,17.191489361702125C110.84745762711864,17.191489361702125,111.86440677966102,16.226950354609926,112.88135593220339,15.319148936170212C113.89830508474576,14.411347517730496,114.91525423728814,12.595744680851062,115.9322033898305,11.74468085106383C116.94915254237289,10.893617021276592,117.96610169491525,10.212765957446809,118.98305084745763,10.212765957446809C120,10.212765957446809,121.01694915254237,10.496453900709223,122.03389830508473,10.893617021276594C123.05084745762711,11.29078014184397,124.0677966101695,11.801418439716306,125.08474576271188,12.595744680851064C126.10169491525424,13.390070921985815,127.11864406779662,15.659574468085108,128.135593220339,15.659574468085108C129.15254237288136,15.659574468085108,130.16949152542372,14.297872340425531,131.1864406779661,14.297872340425531C132.20338983050846,14.297872340425531,133.22033898305085,14.97872340425532,134.23728813559322,14.97872340425532C135.25423728813558,14.97872340425532,136.27118644067798,14.97872340425532,137.28813559322035,14.97872340425532C138.3050847457627,14.97872340425532,139.3220338983051,9.53191489361702,140.33898305084747,9.53191489361702C141.35593220338984,9.53191489361702,142.3728813559322,9.588652482269504,143.38983050847457,9.702127659574469C144.40677966101694,9.815602836879435,145.42372881355934,16.340425531914896,146.4406779661017,16.340425531914896C147.45762711864407,16.340425531914896,148.47457627118644,13.446808510638299,149.4915254237288,13.446808510638299C150.50847457627117,13.446808510638299,151.52542372881356,16.737588652482266,152.54237288135593,17.702127659574465C153.5593220338983,18.666666666666664,154.5762711864407,19.23404255319149,155.59322033898306,19.23404255319149C156.61016949152543,19.23404255319149,157.6271186440678,2.3829787234042543,158.64406779661016,2.3829787234042543C159.66101694915253,2.3829787234042543,160.67796610169492,9.929078014184402,161.6949152542373,10.723404255319151C162.71186440677965,11.5177304964539,163.72881355932205,11.120567375886527,164.74576271186442,11.914893617021276C165.76271186440678,12.709219858156018,166.77966101694915,16,167.79661016949152,16C168.81355932203388,16,169.83050847457628,14.638297872340424,170.84745762711864,14.638297872340424C171.864406779661,14.638297872340424,172.8813559322034,14.808510638297872,173.89830508474577,15.148936170212766C174.91525423728814,15.48936170212766,175.93220338983053,16.595744680851062,176.9491525423729,17.02127659574468C177.96610169491527,17.44680851063829,178.98305084745763,17.57446808510638,180,17.702127659574465L180,40C178.98305084745763,40,177.96610169491527,40,176.9491525423729,40C175.93220338983053,40,174.91525423728814,40,173.89830508474577,40C172.8813559322034,40,171.864406779661,40,170.84745762711864,40C169.83050847457628,40,168.81355932203388,40,167.79661016949152,40C166.77966101694915,40,165.76271186440678,40,164.74576271186442,40C163.72881355932205,40,162.71186440677965,40,161.6949152542373,40C160.67796610169492,40,159.66101694915253,40,158.64406779661016,40C157.6271186440678,40,156.61016949152543,40,155.59322033898306,40C154.5762711864407,40,153.5593220338983,40,152.54237288135593,40C151.52542372881356,40,150.50847457627117,40,149.4915254237288,40C148.47457627118644,40,147.45762711864407,40,146.4406779661017,40C145.42372881355934,40,144.40677966101694,40,143.38983050847457,40C142.3728813559322,40,141.35593220338984,40,140.33898305084747,40C139.3220338983051,40,138.3050847457627,40,137.28813559322035,40C136.27118644067798,40,135.25423728813558,40,134.23728813559322,40C133.22033898305085,40,132.20338983050846,40,131.1864406779661,40C130.16949152542372,40,129.15254237288136,40,128.135593220339,40C127.11864406779662,40,126.10169491525424,40,125.08474576271188,40C124.0677966101695,40,123.05084745762711,40,122.03389830508473,40C121.01694915254237,40,120,40,118.98305084745763,40C117.96610169491525,40,116.94915254237289,40,115.9322033898305,40C114.91525423728814,40,113.89830508474576,40,112.88135593220339,40C111.86440677966102,40,110.84745762711864,40,109.83050847457628,40C108.8135593220339,40,107.79661016949153,40,106.77966101694915,40C105.76271186440678,40,104.7457627118644,40,103.72881355932203,40C102.71186440677965,40,101.69491525423729,40,100.6779661016949,40C99.66101694915254,40,98.64406779661016,40,97.62711864406779,40C96.61016949152543,40,95.59322033898306,40,94.57627118644069,40C93.55932203389831,40,92.54237288135593,40,91.52542372881355,40C90.50847457627118,40,89.49152542372882,40,88.47457627118645,40C87.45762711864407,40,86.4406779661017,40,85.42372881355932,40C84.40677966101696,40,83.38983050847457,40,82.37288135593221,40C81.35593220338983,40,80.33898305084746,40,79.32203389830508,40C78.30508474576271,40,77.28813559322033,40,76.27118644067797,40C75.2542372881356,40,74.23728813559322,40,73.22033898305085,40C72.20338983050848,40,71.1864406779661,40,70.16949152542374,40C69.15254237288136,40,68.13559322033899,40,67.11864406779661,40C66.10169491525424,40,65.08474576271186,40,64.0677966101695,40C63.05084745762712,40,62.03389830508474,40,61.01694915254237,40C59.99999999999999,40,58.983050847457626,40,57.96610169491525,40C56.94915254237288,40,55.93220338983051,40,54.91525423728814,40C53.898305084745765,40,52.88135593220339,40,51.86440677966102,40C50.847457627118644,40,49.83050847457627,40,48.813559322033896,40C47.79661016949152,40,46.77966101694915,40,45.762711864406775,40C44.7457627118644,40,43.728813559322035,40,42.71186440677966,40C41.69491525423729,40,40.67796610169491,40,39.66101694915254,40C38.644067796610166,40,37.6271186440678,40,36.610169491525426,40C35.59322033898305,40,34.57627118644068,40,33.559322033898304,40C32.54237288135593,40,31.525423728813557,40,30.508474576271183,40C29.491525423728813,40,28.47457627118644,40,27.45762711864407,40C26.440677966101696,40,25.423728813559322,40,24.406779661016948,40C23.389830508474574,40,22.372881355932204,40,21.35593220338983,40C20.338983050847457,40,19.322033898305087,40,18.305084745762713,40C17.28813559322034,40,16.271186440677965,40,15.254237288135592,40C14.23728813559322,40,13.220338983050846,40,12.203389830508474,40C11.186440677966102,40,10.169491525423728,40,9.152542372881356,40C8.135593220338983,40,7.11864406779661,40,6.101694915254237,40C5.084745762711864,40,4.067796610169491,40,3.0508474576271185,40C2.0338983050847457,40,1.0169491525423728,40,0,40Z"></path><path class="line" stroke="black" fill="none" d="M0,40C1.0169491525423728,28.56737588652482,2.0338983050847457,17.134751773049643,3.0508474576271185,17.02127659574468C4.067796610169491,16.907801418439718,5.084745762711864,16.851063829787236,6.101694915254237,16.851063829787236C7.11864406779661,16.851063829787236,8.135593220338983,16.851063829787236,9.152542372881356,16.851063829787236C10.169491525423728,16.851063829787236,11.186440677966102,16.851063829787236,12.203389830508474,16.851063829787236C13.220338983050846,16.851063829787236,14.23728813559322,17.191489361702125,15.254237288135592,17.191489361702125C16.271186440677965,17.191489361702125,17.28813559322034,16.851063829787236,18.305084745762713,16.851063829787236C19.322033898305087,16.851063829787236,20.338983050847457,17.02127659574468,21.35593220338983,17.02127659574468C22.372881355932204,17.02127659574468,23.389830508474574,17.02127659574468,24.406779661016948,17.02127659574468C25.423728813559322,17.02127659574468,26.440677966101696,17.02127659574468,27.45762711864407,17.02127659574468C28.47457627118644,17.02127659574468,29.491525423728813,16.51063829787234,30.508474576271183,16.51063829787234C31.525423728813557,16.51063829787234,32.54237288135593,16.907801418439718,33.559322033898304,17.02127659574468C34.57627118644068,17.134751773049643,35.59322033898305,17.191489361702125,36.610169491525426,17.191489361702125C37.6271186440678,17.191489361702125,38.644067796610166,16.79432624113475,39.66101694915254,16.680851063829788C40.67796610169491,16.567375886524825,41.69491525423729,16.51063829787234,42.71186440677966,16.51063829787234C43.728813559322035,16.51063829787234,44.7457627118644,16.51063829787234,45.762711864406775,16.51063829787234C46.77966101694915,16.51063829787234,47.79661016949152,17.02127659574468,48.813559322033896,17.02127659574468C49.83050847457627,17.02127659574468,50.847457627118644,16.453900709219862,51.86440677966102,16.340425531914896C52.88135593220339,16.22695035460993,53.898305084745765,16.170212765957448,54.91525423728814,16.170212765957448C55.93220338983051,16.170212765957448,56.94915254237288,17.361702127659573,57.96610169491525,17.361702127659573C58.983050847457626,17.361702127659573,59.99999999999999,15.48936170212766,61.01694915254237,15.48936170212766C62.03389830508474,15.48936170212766,63.05084745762712,16.851063829787236,64.0677966101695,16.851063829787236C65.08474576271186,16.851063829787236,66.10169491525424,16.595744680851062,67.11864406779661,16.51063829787234C68.13559322033899,16.425531914893618,69.15254237288136,16.340425531914896,70.16949152542374,16.340425531914896C71.1864406779661,16.340425531914896,72.20338983050848,16.340425531914896,73.22033898305085,16.340425531914896C74.23728813559322,16.340425531914896,75.2542372881356,16.68085106382979,76.27118644067797,16.851063829787236C77.28813559322033,17.02127659574468,78.30508474576271,17.361702127659573,79.32203389830508,17.361702127659573C80.33898305084746,17.361702127659573,81.35593220338983,17.361702127659573,82.37288135593221,17.361702127659573C83.38983050847457,17.361702127659573,84.40677966101696,14.127659574468083,85.42372881355932,14.127659574468083C86.4406779661017,14.127659574468083,87.45762711864407,16.340425531914896,88.47457627118645,16.340425531914896C89.49152542372882,16.340425531914896,90.50847457627118,15.97163120567376,91.52542372881355,15.829787234042554C92.54237288135593,15.687943262411347,93.55932203389831,15.48936170212766,94.57627118644069,15.48936170212766C95.59322033898306,15.48936170212766,96.61016949152543,15.659574468085108,97.62711864406779,15.659574468085108C98.64406779661016,15.659574468085108,99.66101694915254,13.617021276595747,100.6779661016949,13.617021276595747C101.69491525423729,13.617021276595747,102.71186440677965,14.808510638297872,103.72881355932203,14.808510638297872C104.7457627118644,14.808510638297872,105.76271186440678,14.127659574468083,106.77966101694915,14.127659574468083C107.79661016949153,14.127659574468083,108.8135593220339,17.191489361702125,109.83050847457628,17.191489361702125C110.84745762711864,17.191489361702125,111.86440677966102,16.226950354609926,112.88135593220339,15.319148936170212C113.89830508474576,14.411347517730496,114.91525423728814,12.595744680851062,115.9322033898305,11.74468085106383C116.94915254237289,10.893617021276592,117.96610169491525,10.212765957446809,118.98305084745763,10.212765957446809C120,10.212765957446809,121.01694915254237,10.496453900709223,122.03389830508473,10.893617021276594C123.05084745762711,11.29078014184397,124.0677966101695,11.801418439716306,125.08474576271188,12.595744680851064C126.10169491525424,13.390070921985815,127.11864406779662,15.659574468085108,128.135593220339,15.659574468085108C129.15254237288136,15.659574468085108,130.16949152542372,14.297872340425531,131.1864406779661,14.297872340425531C132.20338983050846,14.297872340425531,133.22033898305085,14.97872340425532,134.23728813559322,14.97872340425532C135.25423728813558,14.97872340425532,136.27118644067798,14.97872340425532,137.28813559322035,14.97872340425532C138.3050847457627,14.97872340425532,139.3220338983051,9.53191489361702,140.33898305084747,9.53191489361702C141.35593220338984,9.53191489361702,142.3728813559322,9.588652482269504,143.38983050847457,9.702127659574469C144.40677966101694,9.815602836879435,145.42372881355934,16.340425531914896,146.4406779661017,16.340425531914896C147.45762711864407,16.340425531914896,148.47457627118644,13.446808510638299,149.4915254237288,13.446808510638299C150.50847457627117,13.446808510638299,151.52542372881356,16.737588652482266,152.54237288135593,17.702127659574465C153.5593220338983,18.666666666666664,154.5762711864407,19.23404255319149,155.59322033898306,19.23404255319149C156.61016949152543,19.23404255319149,157.6271186440678,2.3829787234042543,158.64406779661016,2.3829787234042543C159.66101694915253,2.3829787234042543,160.67796610169492,9.929078014184402,161.6949152542373,10.723404255319151C162.71186440677965,11.5177304964539,163.72881355932205,11.120567375886527,164.74576271186442,11.914893617021276C165.76271186440678,12.709219858156018,166.77966101694915,16,167.79661016949152,16C168.81355932203388,16,169.83050847457628,14.638297872340424,170.84745762711864,14.638297872340424C171.864406779661,14.638297872340424,172.8813559322034,14.808510638297872,173.89830508474577,15.148936170212766C174.91525423728814,15.48936170212766,175.93220338983053,16.595744680851062,176.9491525423729,17.02127659574468C177.96610169491527,17.44680851063829,178.98305084745763,17.57446808510638,180,17.702127659574465"></path><path class="axis-ceiling" stroke-width="1" stroke="black" fill="none" d="M175,0L180,0"></path><text class="axis-ceiling-label" font-family="sans-serif" text-anchor="end" font-size="10px" x="170" y="2.5">100</text></g></svg>