<svg xmlns="http://www.w3.org/2000/svg" viewBox="0 0 180 60"><g transform="translate(0,20)"><path class="area" fill="rgba(0, 0, 0, 0.2)" d="M0,20.75C1.0169491525423728,23,2.0338983050847457,25.25,3.0508474576271185,25.25C4.067796610169491,25.25,5.084745762711864,23.833333333333332,6.101694915254237,22.5C7.11864406779661,21.166666666666668,8.135593220338983,18.5,9.152542372881356,17.25C10.169491525423728,16,11.186440677966102,15,12.203389830508474,15C13.220338983050846,15,14.23728813559322,15.416666666666668,15.254237288135592,16C16.271186440677965,16.583333333333332,17.28813559322034,17.333333333333332,18.305084745762713,18.5C19.322033898305087,19.666666666666668,20.338983050847457,23,21.35593220338983,23C22.372881355932204,23,23.389830508474574,21,24.406779661016948,21C25.423728813559322,21,26.440677966101696,22,27.45762711864407,22C28.47457627118644,22,29.491525423728813,22,30.508474576271183,22C31.525423728813557,22,32.54237288135593,14,33.559322033898304,14C34.57627118644068,14,35.59322033898305,14.083333333333332,36.610169491525426,14.249999999999998C37.6271186440678,14.416666666666663,38.644067796610166,24,39.66101694915254,24C40.67796610169491,24,41.69491525423729,19.75,42.71186440677966,19.75C43.728813559322035,19.75,44.7457627118644,24.583333333333332,45.762711864406775,26C46.77966101694915,27.41666666666667,47.79661016949152,28.25,48.813559322033896,28.25C49.83050847457627,28.25,50.847457627118644,3.500000000000001,51.86440677966102,3.500000000000001C52.88135593220339,3.500000000000001,53.898305084745765,14.583333333333334,54.91525423728814,15.750000000000002C55.93220338983051,16.916666666666668,56.94915254237288,16.333333333333336,57.96610169491525,17.5C58.983050847457626,18.666666666666664,59.99999999999999,23.5,61.01694915254237,23.5C62.03389830508474,23.5,63.05084745762712,21.5,64.0677966101695,21.5C65.08474576271186,21.5,66.10169491525424,21.75,67.11864406779661,22.25C68.13559322033899,22.750000000000004,69.15254237288136,24.375,70.16949152542374,25C71.1864406779661,25.624999999999996,72.20338983050848,25.583333333333332,73.22033898305085,26C74.23728813559322,26.416666666666668,75.2542372881356,27.5,76.27118644067797,27.5C77.28813559322033,27.5,78.30508474576271,23.25,79.32203389830508,23.25C80.33898305084746,23.25,81.35593220338983,30.75,82.37288135593221,30.75C83.38983050847457,30.75,84.40677966101696,16.25,85.42372881355932,16.25C86.4406779661017,16.25,87.45762711864407,24,88.47457627118645,24C89.49152542372882,24,90.50847457627118,21.791666666666657,91.52542372881355,20.5C92.54237288135593,19.208333333333325,93.55932203389831,16.25,94.57627118644069,16.25C95.59322033898306,16.25,96.61016949152543,34.75,97.62711864406779,34.75C98.64406779661016,34.75,99.66101694915254,24.5,100.6779661016949,24.5C101.69491525423729,24.5,102.71186440677965,27.25,103.72881355932203,27.25C104.7457627118644,27.25,105.76271186440678,23.25,106.77966101694915,23.25C107.79661016949153,23.25,108.8135593220339,30.25,109.83050847457628,30.25C110.84745762711864,30.25,111.86440677966102,20.5,112.88135593220339,20.5C113.89830508474576,20.5,114.91525423728814,32.75,115.9322033898305,32.75C116.94915254237289,32.75,117.96610169491525,11.749999999999998,118.98305084745763,11.749999999999998C120,11.749999999999998,121.01694915254237,25,122.03389830508473,25C123.05084745762711,25,124.0677966101695,24.5,125.08474576271188,24.5C126.10169491525424,24.5,127.11864406779662,26.416666666666668,128.135593220339,27C129.15254237288136,27.583333333333332,130.16949152542372,27.833333333333336,131.1864406779661,28C132.20338983050846,28.166666666666668,133.22033898305085,28.25,134.23728813559322,28.25C135.25423728813558,28.25,136.27118644067798,26,137.28813559322035,26C138.3050847457627,26,139.3220338983051,29.25,140.33898305084747,29.25C141.35593220338984,29.25,142.3728813559322,27.58333333333333,143.38983050847457,26.75C144.40677966101694,25.916666666666664,145.42372881355934,25.16666666666667,146.4406779661017,24.25C147.45762711864407,23.333333333333336,148.47457627118644,21.25,149.4915254237288,21.25C150.50847457627117,21.25,151.52542372881356,40,152.54237288135593,40C153.5593220338983,40,154.5762711864407,21.66666666666667,155.59322033898306,21C156.61016949152543,20.333333333333332,157.6271186440678,20,158.64406779661016,20C159.66101694915253,20,160.67796610169492,25.5,161.6949152542373,25.5C162.71186440677965,25.5,163.72881355932205,21.666666666666668,164.74576271186442,20.5C165.76271186440678,19.333333333333343,166.77966101694915,18.5,167.79661016949152,18.5C168.81355932203388,18.5,169.83050847457628,29.75,170.84745762711864,29.75C171.864406779661,29.75,172.8813559322034,15.499999999999998,173.89830508474577,15.499999999999998C174.91525423728814,15.499999999999998,175.93220338983053,26.5,176.9491525423729,26.5C177.96610169491527,26.5,178.98305084745763,21.625,180,16.75L180,40C178.98305084745763,40,177.96610169491527,40,176.9491525423729,40C175.93220338983053,40,174.91525423728814,40,173.89830508474577,40C172.8813559322034,40,171.864406779661,40,170.84745762711864,40C169.83050847457628,40,168.81355932203388,40,167.79661016949152,40C166.77966101694915,40,165.76271186440678,40,164.74576271186442,40C163.72881355932205,40,162.71186440677965,40,161.6949152542373,40C160.67796610169492,40,159.66101694915253,40,158.64406779661016,40C157.6271186440678,40,156.61016949152543,40,155.59322033898306,40C154.5762711864407,40,153.5593220338983,40,152.54237288135593,40C151.52542372881356,40,150.50847457627117,40,149.4915254237288,40C148.47457627118644,40,147.45762711864407,40,146.4406779661017,40C145.42372881355934,40,144.40677966101694,40,143.38983050847457,40C142.3728813559322,40,141.35593220338984,40,140.33898305084747,40C139.3220338983051,40,138.3050847457627,40,137.28813559322035,40C136.27118644067798,40,135.25423728813558,40,134.23728813559322,40C133.22033898305085,40,132.20338983050846,40,131.1864406779661,40C130.16949152542372,40,129.15254237288136,40,128.135593220339,40C127.11864406779662,40,126.10169491525424,40,125.08474576271188,40C124.0677966101695,40,123.05084745762711,40,122.03389830508473,40C121.01694915254237,40,120,40,118.98305084745763,40C117.96610169491525,40,116.94915254237289,40,115.9322033898305,40C114.91525423728814,40,113.89830508474576,40,112.88135593220339,40C111.86440677966102,40,110.84745762711864,40,109.83050847457628,40C108.8135593220339,40,107.79661016949153,40,106.77966101694915,40C105.76271186440678,40,104.7457627118644,40,103.72881355932203,40C102.71186440677965,40,101.69491525423729,40,100.6779661016949,40C99.66101694915254,40,98.64406779661016,40,97.62711864406779,40C96.61016949152543,40,95.59322033898306,40,94.57627118644069,40C93.55932203389831,40,92.54237288135593,40,91.52542372881355,40C90.50847457627118,40,89.49152542372882,40,88.47457627118645,40C87.45762711864407,40,86.4406779661017,40,85.42372881355932,40C84.40677966101696,40,83.38983050847457,40,82.37288135593221,40C81.35593220338983,40,80.33898305084746,40,79.32203389830508,40C78.30508474576271,40,77.28813559322033,40,76.27118644067797,40C75.2542372881356,40,74.23728813559322,40,73.22033898305085,40C72.20338983050848,40,71.1864406779661,40,70.16949152542374,40C69.15254237288136,40,68.13559322033899,40,67.11864406779661,40C66.10169491525424,40,65.08474576271186,40,64.0677966101695,40C63.05084745762712,40,62.03389830508474,40,61.01694915254237,40C59.99999999999999,40,58.983050847457626,40,57.96610169491525,40C56.94915254237288,40,55.93220338983051,40,54.91525423728814,40C53.898305084745765,40,52.88135593220339,40,51.86440677966102,40C50.847457627118644,40,49.83050847457627,40,48.813559322033896,40C47.79661016949152,40,46.77966101694915,40,45.762711864406775,40C44.7457627118644,40,43.728813559322035,40,42.71186440677966,40C41.69491525423729,40,40.67796610169491,40,39.66101694915254,40C38.644067796610166,40,37.6271186440678,40,36.610169491525426,40C35.59322033898305,40,34.57627118644068,40,33.559322033898304,40C32.54237288135593,40,31.525423728813557,40,30.508474576271183,40C29.491525423728813,40,28.47457627118644,40,27.45762711864407,40C26.440677966101696,40,25.423728813559322,40,24.406779661016948,40C23.389830508474574,40,22.372881355932204,40,21.35593220338983,40C20.338983050847457,40,19.322033898305087,40,18.305084745762713,40C17.28813559322034,40,16.271186440677965,40,15.254237288135592,40C14.23728813559322,40,13.220338983050846,40,12.203389830508474,40C11.186440677966102,40,10.169491525423728,40,9.152542372881356,40C8.135593220338983,40,7.11864406779661,40,6.101694915254237,40C5.084745762711864,40,4.067796610169491,40,3.0508474576271185,40C2.0338983050847457,40,1.0169491525423728,40,0,40Z"></path><path class="line" stroke="black" fill="none" d="M0,20.75C1.0169491525423728,23,2.0338983050847457,25.25,3.0508474576271185,25.25C4.067796610169491,25.25,5.084745762711864,23.833333333333332,6.101694915254237,22.5C7.11864406779661,21.166666666666668,8.135593220338983,18.5,9.152542372881356,17.25C10.169491525423728,16,11.186440677966102,15,12.203389830508474,15C13.220338983050846,15,14.23728813559322,15.416666666666668,15.254237288135592,16C16.271186440677965,16.583333333333332,17.28813559322034,17.333333333333332,18.305084745762713,18.5C19.322033898305087,19.666666666666668,20.338983050847457,23,21.35593220338983,23C22.372881355932204,23,23.389830508474574,21,24.406779661016948,21C25.423728813559322,21,26.440677966101696,22,27.45762711864407,22C28.47457627118644,22,29.491525423728813,22,30.508474576271183,22C31.525423728813557,22,32.54237288135593,14,33.559322033898304,14C34.57627118644068,14,35.59322033898305,14.083333333333332,36.610169491525426,14.249999999999998C37.6271186440678,14.416666666666663,38.644067796610166,24,39.66101694915254,24C40.67796610169491,24,41.69491525423729,19.75,42.71186440677966,19.75C43.728813559322035,19.75,44.7457627118644,24.583333333333332,45.762711864406775,26C46.77966101694915,27.41666666666667,47.79661016949152,28.25,48.813559322033896,28.25C49.83050847457627,28.25,50.847457627118644,3.500000000000001,51.86440677966102,3.500000000000001C52.88135593220339,3.500000000000001,53.898305084745765,14.583333333333334,54.91525423728814,15.750000000000002C55.93220338983051,16.916666666666668,56.94915254237288,16.333333333333336,57.96610169491525,17.5C58.983050847457626,18.666666666666664,59.99999999999999,23.5,61.01694915254237,23.5C62.03389830508474,23.5,63.05084745762712,21.5,64.0677966101695,21.5C65.08474576271186,21.5,66.10169491525424,21.75,67.11864406779661,22.25C68.13559322033899,22.750000000000004,69.15254237288136,24.375,70.16949152542374,25C71.1864406779661,25.624999999999996,72.20338983050848,25.583333333333332,73.22033898305085,26C74.23728813559322,26.416666666666668,75.2542372881356,27.5,76.27118644067797,27.5C77.28813559322033,27.5,78.30508474576271,23.25,79.32203389830508,23.25C80.33898305084746,23.25,81.35593220338983,30.75,82.37288135593221,30.75C83.38983050847457,30.75,84.40677966101696,16.25,85.42372881355932,16.25C86.4406779661017,16.25,87.45762711864407,24,88.47457627118645,24C89.49152542372882,24,90.50847457627118,21.791666666666657,91.52542372881355,20.5C92.54237288135593,19.208333333333325,93.55932203389831,16.25,94.57627118644069,16.25C95.59322033898306,16.25,96.61016949152543,34.75,97.62711864406779,34.75C98.64406779661016,34.75,99.66101694915254,24.5,100.6779661016949,24.5C101.69491525423729,24.5,102.71186440677965,27.25,103.72881355932203,27.25C104.7457627118644,27.25,105.76271186440678,23.25,106.77966101694915,23.25C107.79661016949153,23.25,108.8135593220339,30.25,109.83050847457628,30.25C110.84745762711864,30.25,111.86440677966102,20.5,112.88135593220339,20.5C113.89830508474576,20.5,114.91525423728814,32.75,115.9322033898305,32.75C116.94915254237289,32.75,117.96610169491525,11.749999999999998,118.98305084745763,11.749999999999998C120,11.749999999999998,121.01694915254237,25,122.03389830508473,25C123.05084745762711,25,124.0677966101695,24.5,125.08474576271188,24.5C126.10169491525424,24.5,127.11864406779662,26.416666666666668,128.135593220339,27C129.15254237288136,27.583333333333332,130.16949152542372,27.833333333333336,131.1864406779661,28C132.20338983050846,28.166666666666668,133.22033898305085,28.25,134.23728813559322,28.25C135.25423728813558,28.25,136.27118644067798,26,137.28813559322035,26C138.3050847457627,26,139.3220338983051,29.25,140.33898305084747,29.25C141.35593220338984,29.25,142.3728813559322,27.58333333333333,143.38983050847457,26.75C144.40677966101694,25.916666666666664,145.42372881355934,25.16666666666667,146.4406779661017,24.25C147.45762711864407,23.333333333333336,148.47457627118644,21.25,149.4915254237288,21.25C150.50847457627117,21.25,151.52542372881356,40,152.54237288135593,40C153.5593220338983,40,154.5762711864407,21.66666666666667,155.59322033898306,21C156.61016949152543,20.333333333333332,157.6271186440678,20,158.64406779661016,20C159.66101694915253,20,160.67796610169492,25.5,161.6949152542373,25.5C162.71186440677965,25.5,163.72881355932205,21.666666666666668,164.74576271186442,20.5C165.76271186440678,19.333333333333343,166.77966101694915,18.5,167.79661016949152,18.5C168.81355932203388,18.5,169.83050847457628,29.75,170.84745762711864,29.75C171.864406779661,29.75,172.8813559322034,15.499999999999998,173.89830508474577,15.499999999999998C174.91525423728814,15.499999999999998,175.93220338983053,26.5,176.9491525423729,26.5C177.96610169491527,26.5,178.98305084745763,21.625,180,16.75"></path><path class="axis-ceiling" stroke-width="1" stroke="black" fill="none" d="M175,0L180,0"></path><text class="axis-ceiling-label" font-family="sans-serif" text-anchor="end" font-size="10px" x="170" y="2.5">100</text></g></svg>