<svg xmlns="http://www.w3.org/2000/svg" viewBox="0 0 180 60"><g transform="translate(0,20)"><path class="area" fill="rgba(0, 0, 0, 0.2)" d="M0,39.64C1.0169491525423728,39.63,2.0338983050847457,39.620000000000005,3.0508474576271185,39.6C4.067796610169491,39.58,5.084745762711864,39.54,6.101694915254237,39.519999999999996C7.11864406779661,39.49999999999999,8.135593220338983,39.5,9.152542372881356,39.48C10.169491525423728,39.459999999999994,11.186440677966102,39.42666666666666,12.203389830508474,39.4C13.220338983050846,39.373333333333335,14.23728813559322,39.346666666666664,15.254237288135592,39.32C16.271186440677965,39.29333333333334,17.28813559322034,39.27333333333333,18.305084745762713,39.24C19.322033898305087,39.20666666666667,20.338983050847457,39.16,21.35593220338983,39.12C22.372881355932204,39.08,23.389830508474574,39.04,24.406779661016948,39C25.423728813559322,38.96,26.440677966101696,38.919999999999995,27.45762711864407,38.879999999999995C28.47457627118644,38.839999999999996,29.491525423728813,38.806666666666665,30.508474576271183,38.76C31.525423728813557,38.71333333333333,32.54237288135593,38.64666666666667,33.559322033898304,38.6C34.57627118644068,38.553333333333335,35.59322033898305,38.519999999999996,36.610169491525426,38.48C37.6271186440678,38.44,38.644067796610166,38.38666666666666,39.66101694915254,38.36C40.67796610169491,38.333333333333336,41.69491525423729,38.346666666666664,42.71186440677966,38.32C43.728813559322035,38.29333333333334,44.7457627118644,38.24666666666666,45.762711864406775,38.199999999999996C46.77966101694915,38.15333333333333,47.79661016949152,38.093333333333334,48.813559322033896,38.04C49.83050847457627,37.986666666666665,50.847457627118644,37.94,51.86440677966102,37.879999999999995C52.88135593220339,37.81999999999999,53.898305084745765,37.75333333333333,54.91525423728814,37.68C55.93220338983051,37.60666666666667,56.94915254237288,37.54,57.96610169491525,37.44C58.983050847457626,37.339999999999996,59.99999999999999,37.21333333333333,61.01694915254237,37.08C62.03389830508474,36.946666666666665,63.05084745762712,36.78666666666667,64.0677966101695,36.64C65.08474576271186,36.49333333333333,66.10169491525424,36.34666666666667,67.11864406779661,36.2C68.13559322033899,36.053333333333335,69.15254237288136,35.906666666666666,70.16949152542374,35.76C71.1864406779661,35.61333333333333,72.20338983050848,35.486666666666665,73.22033898305085,35.32C74.23728813559322,35.153333333333336,75.2542372881356,34.97333333333333,76.27118644067797,34.76C77.28813559322033,34.54666666666667,78.30508474576271,34.3,79.32203389830508,34.04C80.33898305084746,33.78,81.35593220338983,33.49333333333333,82.37288135593221,33.199999999999996C83.38983050847457,32.906666666666666,84.40677966101696,32.57333333333333,85.42372881355932,32.28C86.4406779661017,31.986666666666668,87.45762711864407,31.740000000000002,88.47457627118645,31.44C89.49152542372882,31.14,90.50847457627118,30.799999999999997,91.52542372881355,30.48C92.54237288135593,30.159999999999997,93.55932203389831,29.826666666666668,94.57627118644069,29.52C95.59322033898306,29.213333333333335,96.61016949152543,28.933333333333334,97.62711864406779,28.64C98.64406779661016,28.346666666666668,99.66101694915254,28.059999999999995,100.6779661016949,27.759999999999998C101.69491525423729,27.459999999999997,102.71186440677965,27.120000000000005,103.72881355932203,26.840000000000003C104.7457627118644,26.560000000000006,105.76271186440678,26.353333333333335,106.77966101694915,26.080000000000002C107.79661016949153,25.80666666666667,108.8135593220339,25.473333333333333,109.83050847457628,25.2C110.84745762711864,24.926666666666666,111.86440677966102,24.666666666666664,112.88135593220339,24.439999999999998C113.89830508474576,24.21333333333333,114.91525423728814,24.11333333333333,115.9322033898305,23.84C116.94915254237289,23.566666666666666,117.96610169491525,23.140000000000008,118.98305084745763,22.800000000000004C120,22.460000000000004,121.01694915254237,22.119999999999994,122.03389830508473,21.799999999999997C123.05084745762711,21.479999999999993,124.0677966101695,21.18666666666667,125.08474576271188,20.880000000000003C126.10169491525424,20.573333333333338,127.11864406779662,20.26666666666667,128.135593220339,19.96C129.15254237288136,19.653333333333336,130.16949152542372,19.35333333333333,131.1864406779661,19.04C132.20338983050846,18.726666666666663,133.22033898305085,18.41333333333333,134.23728813559322,18.08C135.25423728813558,17.746666666666666,136.27118644067798,17.30666666666667,137.28813559322035,17.040000000000003C138.3050847457627,16.773333333333337,139.3220338983051,16.613333333333333,140.33898305084747,16.48C141.35593220338984,16.346666666666668,142.3728813559322,16.30666666666667,143.38983050847457,16.240000000000002C144.40677966101694,16.173333333333336,145.42372881355934,16.080000000000002,146.4406779661017,16.080000000000002C147.45762711864407,16.080000000000002,148.47457627118644,16.12,149.4915254237288,16.12C150.50847457627117,16.12,151.52542372881356,16.066666666666666,152.54237288135593,16.04C153.5593220338983,16.013333333333332,154.5762711864407,16,155.59322033898306,15.96C156.61016949152543,15.920000000000002,157.6271186440678,15.886666666666667,158.64406779661016,15.8C159.66101694915253,15.713333333333335,160.67796610169492,15.533333333333335,161.6949152542373,15.440000000000001C162.71186440677965,15.346666666666668,163.72881355932205,15.306666666666668,164.74576271186442,15.24C165.76271186440678,15.173333333333334,166.77966101694915,15.113333333333332,167.79661016949152,15.04C168.81355932203388,14.966666666666665,169.83050847457628,14.860000000000001,170.84745762711864,14.8C171.864406779661,14.74,172.8813559322034,14.68,173.89830508474577,14.68C174.91525423728814,14.68,175.93220338983053,14.706666666666665,176.9491525423729,14.719999999999999C177.96610169491527,14.733333333333333,178.98305084745763,14.746666666666666,180,14.76L180,40C178.98305084745763,40,177.96610169491527,40,176.9491525423729,40C175.93220338983053,40,174.91525423728814,40,173.89830508474577,40C172.8813559322034,40,171.864406779661,40,170.84745762711864,40C169.83050847457628,40,168.81355932203388,40,167.79661016949152,40C166.77966101694915,40,165.76271186440678,40,164.74576271186442,40C163.72881355932205,40,162.71186440677965,40,161.6949152542373,40C160.67796610169492,40,159.66101694915253,40,158.64406779661016,40C157.6271186440678,40,156.61016949152543,40,155.59322033898306,40C154.5762711864407,40,153.5593220338983,40,152.54237288135593,40C151.52542372881356,40,150.50847457627117,40,149.4915254237288,40C148.47457627118644,40,147.45762711864407,40,146.4406779661017,40C145.42372881355934,40,144.40677966101694,40,143.38983050847457,40C142.3728813559322,40,141.35593220338984,40,140.33898305084747,40C139.3220338983051,40,138.3050847457627,40,137.28813559322035,40C136.27118644067798,40,135.25423728813558,40,134.23728813559322,40C133.22033898305085,40,132.20338983050846,40,131.1864406779661,40C130.16949152542372,40,129.15254237288136,40,128.135593220339,40C127.11864406779662,40,126.10169491525424,40,125.08474576271188,40C124.0677966101695,40,123.05084745762711,40,122.03389830508473,40C121.01694915254237,40,120,40,118.98305084745763,40C117.96610169491525,40,116.94915254237289,40,115.9322033898305,40C114.91525423728814,40,113.89830508474576,40,112.88135593220339,40C111.86440677966102,40,110.84745762711864,40,109.83050847457628,40C108.8135593220339,40,107.79661016949153,40,106.77966101694915,40C105.76271186440678,40,104.7457627118644,40,103.72881355932203,40C102.71186440677965,40,101.69491525423729,40,100.6779661016949,40C99.66101694915254,40,98.64406779661016,40,97.62711864406779,40C96.61016949152543,40,95.59322033898306,40,94.57627118644069,40C93.55932203389831,40,92.54237288135593,40,91.52542372881355,40C90.50847457627118,40,89.49152542372882,40,88.47457627118645,40C87.45762711864407,40,86.4406779661017,40,85.42372881355932,40C84.40677966101696,40,83.38983050847457,40,82.37288135593221,40C81.35593220338983,40,80.33898305084746,40,79.32203389830508,40C78.30508474576271,40,77.28813559322033,40,76.27118644067797,40C75.2542372881356,40,74.23728813559322,40,73.22033898305085,40C72.20338983050848,40,71.1864406779661,40,70.16949152542374,40C69.15254237288136,40,68.13559322033899,40,67.11864406779661,40C66.10169491525424,40,65.08474576271186,40,64.0677966101695,40C63.05084745762712,40,62.03389830508474,40,61.01694915254237,40C59.99999999999999,40,58.983050847457626,40,57.96610169491525,40C56.94915254237288,40,55.93220338983051,40,54.91525423728814,40C53.898305084745765,40,52.88135593220339,40,51.86440677966102,40C50.847457627118644,40,49.83050847457627,40,48.813559322033896,40C47.79661016949152,40,46.77966101694915,40,45.762711864406775,40C44.7457627118644,40,43.728813559322035,40,42.71186440677966,40C41.69491525423729,40,40.67796610169491,40,39.66101694915254,40C38.644067796610166,40,37.6271186440678,40,36.610169491525426,40C35.59322033898305,40,34.57627118644068,40,33.559322033898304,40C32.54237288135593,40,31.525423728813557,40,30.508474576271183,40C29.491525423728813,40,28.47457627118644,40,27.45762711864407,40C26.440677966101696,40,25.423728813559322,40,24.406779661016948,40C23.389830508474574,40,22.372881355932204,40,21.35593220338983,40C20.338983050847457,40,19.322033898305087,40,18.305084745762713,40C17.28813559322034,40,16.271186440677965,40,15.254237288135592,40C14.23728813559322,40,13.220338983050846,40,12.203389830508474,40C11.186440677966102,40,10.169491525423728,40,9.152542372881356,40C8.135593220338983,40,7.11864406779661,40,6.101694915254237,40C5.084745762711864,40,4.067796610169491,40,3.0508474576271185,40C2.0338983050847457,40,1.0169491525423728,40,0,40Z"></path><path class="line" stroke="black" fill="none" d="M0,39.64C1.0169491525423728,39.63,2.0338983050847457,39.620000000000005,3.0508474576271185,39.6C4.067796610169491,39.58,5.084745762711864,39.54,6.101694915254237,39.519999999999996C7.11864406779661,39.49999999999999,8.135593220338983,39.5,9.152542372881356,39.48C10.169491525423728,39.459999999999994,11.186440677966102,39.42666666666666,12.203389830508474,39.4C13.220338983050846,39.373333333333335,14.23728813559322,39.346666666666664,15.254237288135592,39.32C16.271186440677965,39.29333333333334,17.28813559322034,39.27333333333333,18.305084745762713,39.24C19.322033898305087,39.20666666666667,20.338983050847457,39.16,21.35593220338983,39.12C22.372881355932204,39.08,23.389830508474574,39.04,24.406779661016948,39C25.423728813559322,38.96,26.440677966101696,38.919999999999995,27.45762711864407,38.879999999999995C28.47457627118644,38.839999999999996,29.491525423728813,38.806666666666665,30.508474576271183,38.76C31.525423728813557,38.71333333333333,32.54237288135593,38.64666666666667,33.559322033898304,38.6C34.57627118644068,38.553333333333335,35.59322033898305,38.519999999999996,36.610169491525426,38.48C37.6271186440678,38.44,38.644067796610166,38.38666666666666,39.66101694915254,38.36C40.67796610169491,38.333333333333336,41.69491525423729,38.346666666666664,42.71186440677966,38.32C43.728813559322035,38.29333333333334,44.7457627118644,38.24666666666666,45.762711864406775,38.199999999999996C46.77966101694915,38.15333333333333,47.79661016949152,38.093333333333334,48.813559322033896,38.04C49.83050847457627,37.986666666666665,50.847457627118644,37.94,51.86440677966102,37.879999999999995C52.88135593220339,37.81999999999999,53.898305084745765,37.75333333333333,54.91525423728814,37.68C55.93220338983051,37.60666666666667,56.94915254237288,37.54,57.96610169491525,37.44C58.983050847457626,37.339999999999996,59.99999999999999,37.21333333333333,61.01694915254237,37.08C62.03389830508474,36.946666666666665,63.05084745762712,36.78666666666667,64.0677966101695,36.64C65.08474576271186,36.49333333333333,66.10169491525424,36.34666666666667,67.11864406779661,36.2C68.13559322033899,36.053333333333335,69.15254237288136,35.906666666666666,70.16949152542374,35.76C71.1864406779661,35.61333333333333,72.20338983050848,35.486666666666665,73.22033898305085,35.32C74.23728813559322,35.153333333333336,75.2542372881356,34.97333333333333,76.27118644067797,34.76C77.28813559322033,34.54666666666667,78.30508474576271,34.3,79.32203389830508,34.04C80.33898305084746,33.78,81.35593220338983,33.49333333333333,82.37288135593221,33.199999999999996C83.38983050847457,32.906666666666666,84.40677966101696,32.57333333333333,85.42372881355932,32.28C86.4406779661017,31.986666666666668,87.45762711864407,31.740000000000002,88.47457627118645,31.44C89.49152542372882,31.14,90.50847457627118,30.799999999999997,91.52542372881355,30.48C92.54237288135593,30.159999999999997,93.55932203389831,29.826666666666668,94.57627118644069,29.52C95.59322033898306,29.213333333333335,96.61016949152543,28.933333333333334,97.62711864406779,28.64C98.64406779661016,28.346666666666668,99.66101694915254,28.059999999999995,100.6779661016949,27.759999999999998C101.69491525423729,27.459999999999997,102.71186440677965,27.120000000000005,103.72881355932203,26.840000000000003C104.7457627118644,26.560000000000006,105.76271186440678,26.353333333333335,106.77966101694915,26.080000000000002C107.79661016949153,25.80666666666667,108.8135593220339,25.473333333333333,109.83050847457628,25.2C110.84745762711864,24.926666666666666,111.86440677966102,24.666666666666664,112.88135593220339,24.439999999999998C113.89830508474576,24.21333333333333,114.91525423728814,24.11333333333333,115.9322033898305,23.84C116.94915254237289,23.566666666666666,117.96610169491525,23.140000000000008,118.98305084745763,22.800000000000004C120,22.460000000000004,121.01694915254237,22.119999999999994,122.03389830508473,21.799999999999997C123.05084745762711,21.479999999999993,124.0677966101695,21.18666666666667,125.08474576271188,20.880000000000003C126.10169491525424,20.573333333333338,127.11864406779662,20.26666666666667,128.135593220339,19.96C129.15254237288136,19.653333333333336,130.16949152542372,19.35333333333333,131.1864406779661,19.04C132.20338983050846,18.726666666666663,133.22033898305085,18.41333333333333,134.23728813559322,18.08C135.25423728813558,17.746666666666666,136.27118644067798,17.30666666666667,137.28813559322035,17.040000000000003C138.3050847457627,16.773333333333337,139.3220338983051,16.613333333333333,140.33898305084747,16.48C141.35593220338984,16.346666666666668,142.3728813559322,16.30666666666667,143.38983050847457,16.240000000000002C144.40677966101694,16.173333333333336,145.42372881355934,16.080000000000002,146.4406779661017,16.080000000000002C147.45762711864407,16.080000000000002,148.47457627118644,16.12,149.4915254237288,16.12C150.50847457627117,16.12,151.52542372881356,16.066666666666666,152.54237288135593,16.04C153.5593220338983,16.013333333333332,154.5762711864407,16,155.59322033898306,15.96C156.61016949152543,15.920000000000002,157.6271186440678,15.886666666666667,158.64406779661016,15.8C159.66101694915253,15.713333333333335,160.67796610169492,15.533333333333335,161.6949152542373,15.440000000000001C162.71186440677965,15.346666666666668,163.72881355932205,15.306666666666668,164.74576271186442,15.24C165.76271186440678,15.173333333333334,166.77966101694915,15.113333333333332,167.79661016949152,15.04C168.81355932203388,14.966666666666665,169.83050847457628,14.860000000000001,170.84745762711864,14.8C171.864406779661,14.74,172.8813559322034,14.68,173.89830508474577,14.68C174.91525423728814,14.68,175.93220338983053,14.706666666666665,176.9491525423729,14.719999999999999C177.96610169491527,14.733333333333333,178.98305084745763,14.746666666666666,180,14.76"></path><path class="axis-ceiling" stroke-width="1" stroke="black" fill="none" d="M175,0L180,0"></path><text class="axis-ceiling-label" font-family="sans-serif" text-anchor="end" font-size="10px" x="170" y="2.5">1000</text></g></svg>