<svg xmlns="http://www.w3.org/2000/svg" viewBox="0 0 180 60"><g transform="translate(0,20)"><path class="area" fill="rgba(0, 0, 0, 0.2)" d="M0,39.28C1.0169491525423728,39.23,2.0338983050847457,39.18,3.0508474576271185,39.12C4.067796610169491,39.059999999999995,5.084745762711864,38.92,6.101694915254237,38.92C7.11864406779661,38.92,8.135593220338983,39,9.152542372881356,39C10.169491525423728,39,11.186440677966102,38.666666666666664,12.203389830508474,38.64C13.220338983050846,38.61333333333334,14.23728813559322,38.626666666666665,15.254237288135592,38.6C16.271186440677965,38.57333333333334,17.28813559322034,38.526666666666664,18.305084745762713,38.48C19.322033898305087,38.43333333333333,20.338983050847457,38.373333333333335,21.35593220338983,38.32C22.372881355932204,38.266666666666666,23.389830508474574,38.18666666666666,24.406779661016948,38.16C25.423728813559322,38.13333333333333,26.440677966101696,38.12,27.45762711864407,38.12C28.47457627118644,38.12,29.491525423728813,38.17333333333333,30.508474576271183,38.199999999999996C31.525423728813557,38.22666666666667,32.54237288135593,38.28,33.559322033898304,38.28C34.57627118644068,38.28,35.59322033898305,37.706666666666656,36.610169491525426,37.599999999999994C37.6271186440678,37.49333333333333,38.644067796610166,37.51333333333333,39.66101694915254,37.44C40.67796610169491,37.36666666666667,41.69491525423729,37.26666666666667,42.71186440677966,37.160000000000004C43.728813559322035,37.05333333333334,44.7457627118644,36.913333333333334,45.762711864406775,36.800000000000004C46.77966101694915,36.68666666666667,47.79661016949152,36.66666666666667,48.813559322033896,36.480000000000004C49.83050847457627,36.29333333333334,50.847457627118644,35.9,51.86440677966102,35.68C52.88135593220339,35.46,53.898305084745765,35.36,54.91525423728814,35.16C55.93220338983051,34.959999999999994,56.94915254237288,34.48,57.96610169491525,34.48C58.983050847457626,34.48,59.99999999999999,34.519999999999996,61.01694915254237,34.519999999999996C62.03389830508474,34.519999999999996,63.05084745762712,34.38666666666666,64.0677966101695,34.12C65.08474576271186,33.85333333333333,66.10169491525424,33.35333333333333,67.11864406779661,32.88C68.13559322033899,32.406666666666666,69.15254237288136,31.78666666666667,70.16949152542374,31.28C71.1864406779661,30.773333333333337,72.20338983050848,30.253333333333334,73.22033898305085,29.84C74.23728813559322,29.426666666666666,75.2542372881356,29.013333333333332,76.27118644067797,28.799999999999997C77.28813559322033,28.586666666666662,78.30508474576271,28.639999999999997,79.32203389830508,28.479999999999997C80.33898305084746,28.319999999999997,81.35593220338983,28.026666666666664,82.37288135593221,27.839999999999996C83.38983050847457,27.65333333333333,84.40677966101696,27.52,85.42372881355932,27.36C86.4406779661017,27.2,87.45762711864407,27.2,88.47457627118645,26.879999999999995C89.49152542372882,26.559999999999995,90.50847457627118,25.699999999999996,91.52542372881355,25.12C92.54237288135593,24.54,93.55932203389831,23.506666666666668,94.57627118644069,23.4C95.59322033898306,23.293333333333333,96.61016949152543,23.346666666666664,97.62711864406779,23.24C98.64406779661016,23.133333333333333,99.66101694915254,22.400000000000002,100.6779661016949,22.400000000000002C101.69491525423729,22.400000000000002,102.71186440677965,22.453333333333337,103.72881355932203,22.560000000000002C104.7457627118644,22.666666666666668,105.76271186440678,23.08,106.77966101694915,23.08C107.79661016949153,23.08,108.8135593220339,20.46,109.83050847457628,19.64C110.84745762711864,18.820000000000004,111.86440677966102,18.606666666666662,112.88135593220339,18.159999999999997C113.89830508474576,17.71333333333333,114.91525423728814,17.119999999999997,115.9322033898305,16.96C116.94915254237289,16.8,117.96610169491525,16.853333333333335,118.98305084745763,16.720000000000002C120,16.58666666666667,121.01694915254237,16.326666666666668,122.03389830508473,16.16C123.05084745762711,15.993333333333332,124.0677966101695,15.72,125.08474576271188,15.72C126.10169491525424,15.72,127.11864406779662,15.72,128.135593220339,15.72C129.15254237288136,15.72,130.16949152542372,15.786666666666669,131.1864406779661,15.88C132.20338983050846,15.973333333333334,133.22033898305085,16.28,134.23728813559322,16.28C135.25423728813558,16.28,136.27118644067798,16,137.28813559322035,16C138.3050847457627,16,139.3220338983051,16.92,140.33898305084747,16.92C141.35593220338984,16.92,142.3728813559322,15.626666666666665,143.38983050847457,15.52C144.40677966101694,15.413333333333332,145.42372881355934,15.466666666666667,146.4406779661017,15.36C147.45762711864407,15.253333333333334,148.47457627118644,14.993333333333332,149.4915254237288,14.64C150.50847457627117,14.286666666666667,151.52542372881356,13.239999999999998,152.54237288135593,13.239999999999998C153.5593220338983,13.239999999999998,154.5762711864407,14.8,155.59322033898306,14.8C156.61016949152543,14.8,157.6271186440678,14.719999999999999,158.64406779661016,14.719999999999999C159.66101694915253,14.719999999999999,160.67796610169492,15.08,161.6949152542373,15.08C162.71186440677965,15.08,163.72881355932205,14.8,164.74576271186442,14.8C165.76271186440678,14.8,166.77966101694915,15.64,167.79661016949152,15.64C168.81355932203388,15.64,169.83050847457628,14.92,170.84745762711864,14.92C171.864406779661,14.92,172.8813559322034,16.16,173.89830508474577,16.16C174.91525423728814,16.16,175.93220338983053,14.04,176.9491525423729,14.04C177.96610169491527,14.04,178.98305084745763,14.04,180,14.04L180,40C178.98305084745763,40,177.96610169491527,40,176.9491525423729,40C175.93220338983053,40,174.91525423728814,40,173.89830508474577,40C172.8813559322034,40,171.864406779661,40,170.84745762711864,40C169.83050847457628,40,168.81355932203388,40,167.79661016949152,40C166.77966101694915,40,165.76271186440678,40,164.74576271186442,40C163.72881355932205,40,162.71186440677965,40,161.6949152542373,40C160.67796610169492,40,159.66101694915253,40,158.64406779661016,40C157.6271186440678,40,156.61016949152543,40,155.59322033898306,40C154.5762711864407,40,153.5593220338983,40,152.54237288135593,40C151.52542372881356,40,150.50847457627117,40,149.4915254237288,40C148.47457627118644,40,147.45762711864407,40,146.4406779661017,40C145.42372881355934,40,144.40677966101694,40,143.38983050847457,40C142.3728813559322,40,141.35593220338984,40,140.33898305084747,40C139.3220338983051,40,138.3050847457627,40,137.28813559322035,40C136.27118644067798,40,135.25423728813558,40,134.23728813559322,40C133.22033898305085,40,132.20338983050846,40,131.1864406779661,40C130.16949152542372,40,129.15254237288136,40,128.135593220339,40C127.11864406779662,40,126.10169491525424,40,125.08474576271188,40C124.0677966101695,40,123.05084745762711,40,122.03389830508473,40C121.01694915254237,40,120,40,118.98305084745763,40C117.96610169491525,40,116.94915254237289,40,115.9322033898305,40C114.91525423728814,40,113.89830508474576,40,112.88135593220339,40C111.86440677966102,40,110.84745762711864,40,109.83050847457628,40C108.8135593220339,40,107.79661016949153,40,106.77966101694915,40C105.76271186440678,40,104.7457627118644,40,103.72881355932203,40C102.71186440677965,40,101.69491525423729,40,100.6779661016949,40C99.66101694915254,40,98.64406779661016,40,97.62711864406779,40C96.61016949152543,40,95.59322033898306,40,94.57627118644069,40C93.55932203389831,40,92.54237288135593,40,91.52542372881355,40C90.50847457627118,40,89.49152542372882,40,88.47457627118645,40C87.45762711864407,40,86.4406779661017,40,85.42372881355932,40C84.40677966101696,40,83.38983050847457,40,82.37288135593221,40C81.35593220338983,40,80.33898305084746,40,79.32203389830508,40C78.30508474576271,40,77.28813559322033,40,76.27118644067797,40C75.2542372881356,40,74.23728813559322,40,73.22033898305085,40C72.20338983050848,40,71.1864406779661,40,70.16949152542374,40C69.15254237288136,40,68.13559322033899,40,67.11864406779661,40C66.10169491525424,40,65.08474576271186,40,64.0677966101695,40C63.05084745762712,40,62.03389830508474,40,61.01694915254237,40C59.99999999999999,40,58.983050847457626,40,57.96610169491525,40C56.94915254237288,40,55.93220338983051,40,54.91525423728814,40C53.898305084745765,40,52.88135593220339,40,51.86440677966102,40C50.847457627118644,40,49.83050847457627,40,48.813559322033896,40C47.79661016949152,40,46.77966101694915,40,45.762711864406775,40C44.7457627118644,40,43.728813559322035,40,42.71186440677966,40C41.69491525423729,40,40.67796610169491,40,39.66101694915254,40C38.644067796610166,40,37.6271186440678,40,36.610169491525426,40C35.59322033898305,40,34.57627118644068,40,33.559322033898304,40C32.54237288135593,40,31.525423728813557,40,30.508474576271183,40C29.491525423728813,40,28.47457627118644,40,27.45762711864407,40C26.440677966101696,40,25.423728813559322,40,24.406779661016948,40C23.389830508474574,40,22.372881355932204,40,21.35593220338983,40C20.338983050847457,40,19.322033898305087,40,18.305084745762713,40C17.28813559322034,40,16.271186440677965,40,15.254237288135592,40C14.23728813559322,40,13.220338983050846,40,12.203389830508474,40C11.186440677966102,40,10.169491525423728,40,9.152542372881356,40C8.135593220338983,40,7.11864406779661,40,6.101694915254237,40C5.084745762711864,40,4.067796610169491,40,3.0508474576271185,40C2.0338983050847457,40,1.0169491525423728,40,0,40Z"></path><path class="line" stroke="black" fill="none" d="M0,39.28C1.0169491525423728,39.23,2.0338983050847457,39.18,3.0508474576271185,39.12C4.067796610169491,39.059999999999995,5.084745762711864,38.92,6.101694915254237,38.92C7.11864406779661,38.92,8.135593220338983,39,9.152542372881356,39C10.169491525423728,39,11.186440677966102,38.666666666666664,12.203389830508474,38.64C13.220338983050846,38.61333333333334,14.23728813559322,38.626666666666665,15.254237288135592,38.6C16.271186440677965,38.57333333333334,17.28813559322034,38.526666666666664,18.305084745762713,38.48C19.322033898305087,38.43333333333333,20.338983050847457,38.373333333333335,21.35593220338983,38.32C22.372881355932204,38.266666666666666,23.389830508474574,38.18666666666666,24.406779661016948,38.16C25.423728813559322,38.13333333333333,26.440677966101696,38.12,27.45762711864407,38.12C28.47457627118644,38.12,29.491525423728813,38.17333333333333,30.508474576271183,38.199999999999996C31.525423728813557,38.22666666666667,32.54237288135593,38.28,33.559322033898304,38.28C34.57627118644068,38.28,35.59322033898305,37.706666666666656,36.610169491525426,37.599999999999994C37.6271186440678,37.49333333333333,38.644067796610166,37.51333333333333,39.66101694915254,37.44C40.67796610169491,37.36666666666667,41.69491525423729,37.26666666666667,42.71186440677966,37.160000000000004C43.728813559322035,37.05333333333334,44.7457627118644,36.913333333333334,45.762711864406775,36.800000000000004C46.77966101694915,36.68666666666667,47.79661016949152,36.66666666666667,48.813559322033896,36.480000000000004C49.83050847457627,36.29333333333334,50.847457627118644,35.9,51.86440677966102,35.68C52.88135593220339,35.46,53.898305084745765,35.36,54.91525423728814,35.16C55.93220338983051,34.959999999999994,56.94915254237288,34.48,57.96610169491525,34.48C58.983050847457626,34.48,59.99999999999999,34.519999999999996,61.01694915254237,34.519999999999996C62.03389830508474,34.519999999999996,63.05084745762712,34.38666666666666,64.0677966101695,34.12C65.08474576271186,33.85333333333333,66.10169491525424,33.35333333333333,67.11864406779661,32.88C68.13559322033899,32.406666666666666,69.15254237288136,31.78666666666667,70.16949152542374,31.28C71.1864406779661,30.773333333333337,72.20338983050848,30.253333333333334,73.22033898305085,29.84C74.23728813559322,29.426666666666666,75.2542372881356,29.013333333333332,76.27118644067797,28.799999999999997C77.28813559322033,28.586666666666662,78.30508474576271,28.639999999999997,79.32203389830508,28.479999999999997C80.33898305084746,28.319999999999997,81.35593220338983,28.026666666666664,82.37288135593221,27.839999999999996C83.38983050847457,27.65333333333333,84.40677966101696,27.52,85.42372881355932,27.36C86.4406779661017,27.2,87.45762711864407,27.2,88.47457627118645,26.879999999999995C89.49152542372882,26.559999999999995,90.50847457627118,25.699999999999996,91.52542372881355,25.12C92.54237288135593,24.54,93.55932203389831,23.506666666666668,94.57627118644069,23.4C95.59322033898306,23.293333333333333,96.61016949152543,23.346666666666664,97.62711864406779,23.24C98.64406779661016,23.133333333333333,99.66101694915254,22.400000000000002,100.6779661016949,22.400000000000002C101.69491525423729,22.400000000000002,102.71186440677965,22.453333333333337,103.72881355932203,22.560000000000002C104.7457627118644,22.666666666666668,105.76271186440678,23.08,106.77966101694915,23.08C107.79661016949153,23.08,108.8135593220339,20.46,109.83050847457628,19.64C110.84745762711864,18.820000000000004,111.86440677966102,18.606666666666662,112.88135593220339,18.159999999999997C113.89830508474576,17.71333333333333,114.91525423728814,17.119999999999997,115.9322033898305,16.96C116.94915254237289,16.8,117.96610169491525,16.853333333333335,118.98305084745763,16.720000000000002C120,16.58666666666667,121.01694915254237,16.326666666666668,122.03389830508473,16.16C123.05084745762711,15.993333333333332,124.0677966101695,15.72,125.08474576271188,15.72C126.10169491525424,15.72,127.11864406779662,15.72,128.135593220339,15.72C129.15254237288136,15.72,130.16949152542372,15.786666666666669,131.1864406779661,15.88C132.20338983050846,15.973333333333334,133.22033898305085,16.28,134.23728813559322,16.28C135.25423728813558,16.28,136.27118644067798,16,137.28813559322035,16C138.3050847457627,16,139.3220338983051,16.92,140.33898305084747,16.92C141.35593220338984,16.92,142.3728813559322,15.626666666666665,143.38983050847457,15.52C144.40677966101694,15.413333333333332,145.42372881355934,15.466666666666667,146.4406779661017,15.36C147.45762711864407,15.253333333333334,148.47457627118644,14.993333333333332,149.4915254237288,14.64C150.50847457627117,14.286666666666667,151.52542372881356,13.239999999999998,152.54237288135593,13.239999999999998C153.5593220338983,13.239999999999998,154.5762711864407,14.8,155.59322033898306,14.8C156.61016949152543,14.8,157.6271186440678,14.719999999999999,158.64406779661016,14.719999999999999C159.66101694915253,14.719999999999999,160.67796610169492,15.08,161.6949152542373,15.08C162.71186440677965,15.08,163.72881355932205,14.8,164.74576271186442,14.8C165.76271186440678,14.8,166.77966101694915,15.64,167.79661016949152,15.64C168.81355932203388,15.64,169.83050847457628,14.92,170.84745762711864,14.92C171.864406779661,14.92,172.8813559322034,16.16,173.89830508474577,16.16C174.91525423728814,16.16,175.93220338983053,14.04,176.9491525423729,14.04C177.96610169491527,14.04,178.98305084745763,14.04,180,14.04"></path><path class="axis-ceiling" stroke-width="1" stroke="black" fill="none" d="M175,0L180,0"></path><text class="axis-ceiling-label" font-family="sans-serif" text-anchor="end" font-size="10px" x="170" y="2.5">1000</text></g></svg>