<svg xmlns="http://www.w3.org/2000/svg" viewBox="0 0 180 60"><g transform="translate(0,20)"><path class="area" fill="rgba(0, 0, 0, 0.2)" d="M0,24.61333333333333C1.0169491525423728,24.182222222222222,2.0338983050847457,23.75111111111112,3.0508474576271185,23.680000000000003C4.067796610169491,23.608888888888888,5.084745762711864,23.644444444444446,6.101694915254237,23.57333333333333C7.11864406779661,23.502222222222215,8.135593220338983,23.328888888888883,9.152542372881356,23.09333333333333C10.169491525423728,22.857777777777777,11.186440677966102,22.160000000000004,12.203389830508474,22.160000000000004C13.220338983050846,22.160000000000004,14.23728813559322,23.200000000000003,15.254237288135592,23.200000000000003C16.271186440677965,23.200000000000003,17.28813559322034,23.14666666666667,18.305084745762713,23.14666666666667C19.322033898305087,23.14666666666667,20.338983050847457,23.386666666666667,21.35593220338983,23.386666666666667C22.372881355932204,23.386666666666667,23.389830508474574,23.200000000000003,24.406779661016948,23.200000000000003C25.423728813559322,23.200000000000003,26.440677966101696,23.759999999999998,27.45762711864407,23.759999999999998C28.47457627118644,23.759999999999998,29.491525423728813,23.28,30.508474576271183,23.28C31.525423728813557,23.28,32.54237288135593,24.10666666666667,33.559322033898304,24.10666666666667C34.57627118644068,24.10666666666667,35.59322033898305,22.693333333333335,36.610169491525426,22.693333333333335C37.6271186440678,22.693333333333335,38.644067796610166,22.693333333333335,39.66101694915254,22.693333333333335C40.67796610169491,22.693333333333335,41.69491525423729,22.64,42.71186440677966,22.64C43.728813559322035,22.64,44.7457627118644,22.764444444444447,45.762711864406775,22.853333333333335C46.77966101694915,22.942222222222224,47.79661016949152,23.06222222222222,48.813559322033896,23.173333333333332C49.83050847457627,23.284444444444443,50.847457627118644,23.448888888888895,51.86440677966102,23.520000000000003C52.88135593220339,23.59111111111111,53.898305084745765,23.555555555555557,54.91525423728814,23.626666666666665C55.93220338983051,23.697777777777773,56.94915254237288,23.973333333333333,57.96610169491525,24.08C58.983050847457626,24.186666666666664,59.99999999999999,24.266666666666666,61.01694915254237,24.266666666666666C62.03389830508474,24.266666666666666,63.05084745762712,24.24,64.0677966101695,24.186666666666667C65.08474576271186,24.133333333333336,66.10169491525424,23.78666666666667,67.11864406779661,23.78666666666667C68.13559322033899,23.78666666666667,69.15254237288136,25.38666666666667,70.16949152542374,25.38666666666667C71.1864406779661,25.38666666666667,72.20338983050848,25.12,73.22033898305085,24.96C74.23728813559322,24.8,75.2542372881356,24.42666666666667,76.27118644067797,24.42666666666667C77.28813559322033,24.42666666666667,78.30508474576271,24.48,79.32203389830508,24.48C80.33898305084746,24.48,81.35593220338983,24.195555555555558,82.37288135593221,24C83.38983050847457,23.804444444444446,84.40677966101696,23.306666666666665,85.42372881355932,23.306666666666665C86.4406779661017,23.306666666666665,87.45762711864407,23.813333333333333,88.47457627118645,23.813333333333333C89.49152542372882,23.813333333333333,90.50847457627118,22.800000000000004,91.52542372881355,22.800000000000004C92.54237288135593,22.800000000000004,93.55932203389831,22.96,94.57627118644069,22.96C95.59322033898306,22.96,96.61016949152543,22.31555555555556,97.62711864406779,22.080000000000002C98.64406779661016,21.844444444444445,99.66101694915254,21.902222222222225,100.6779661016949,21.546666666666667C101.69491525423729,21.19111111111111,102.71186440677965,19.706666666666667,103.72881355932203,19.706666666666667C104.7457627118644,19.706666666666667,105.76271186440678,20.053333333333335,106.77966101694915,20.053333333333335C107.79661016949153,20.053333333333335,108.8135593220339,19.733333333333334,109.83050847457628,19.093333333333334C110.84745762711864,18.453333333333337,111.86440677966102,16.275555555555556,112.88135593220339,15.413333333333332C113.89830508474576,14.55111111111111,114.91525423728814,14.431111111111107,115.9322033898305,13.919999999999998C116.94915254237289,13.408888888888885,117.96610169491525,12.8,118.98305084745763,12.346666666666666C120,11.893333333333336,121.01694915254237,11.639999999999997,122.03389830508473,11.200000000000001C123.05084745762711,10.76,124.0677966101695,10.702222222222224,125.08474576271188,9.706666666666667C126.10169491525424,8.711111111111121,127.11864406779662,5.804444444444451,128.135593220339,5.146666666666668C129.15254237288136,4.488888888888889,130.16949152542372,4.551111111111108,131.1864406779661,4.159999999999999C132.20338983050846,3.7688888888888865,133.22033898305085,2.799999999999998,134.23728813559322,2.799999999999998C135.25423728813558,2.799999999999998,136.27118644067798,3.1066666666666665,137.28813559322035,3.706666666666667C138.3050847457627,4.3066666666666675,139.3220338983051,6.400000000000001,140.33898305084747,6.400000000000001C141.35593220338984,6.400000000000001,142.3728813559322,1.3600000000000012,143.38983050847457,1.3600000000000012C144.40677966101694,1.3600000000000012,145.42372881355934,2.6622222222222196,146.4406779661017,3.1199999999999983C147.45762711864407,3.5777777777777726,148.47457627118644,3.928888888888893,149.4915254237288,4.106666666666667C150.50847457627117,4.284444444444444,151.52542372881356,4.373333333333331,152.54237288135593,4.373333333333331C153.5593220338983,4.373333333333331,154.5762711864407,4.15111111111111,155.59322033898306,3.706666666666667C156.61016949152543,3.262222222222228,157.6271186440678,1.3066666666666653,158.64406779661016,1.040000000000001C159.66101694915253,0.773333333333334,160.67796610169492,0.6400000000000006,161.6949152542373,0.6400000000000006C162.71186440677965,0.6400000000000006,163.72881355932205,0.6400000000000006,164.74576271186442,0.6400000000000006C165.76271186440678,0.6400000000000006,166.77966101694915,0.6400000000000006,167.79661016949152,0.6400000000000006C168.81355932203388,0.6400000000000006,169.83050847457628,1.3822222222222238,170.84745762711864,1.7600000000000016C171.864406779661,2.1377777777777793,172.8813559322034,2.853333333333333,173.89830508474577,2.9066666666666663C174.91525423728814,2.9599999999999995,175.93220338983053,2.9866666666666664,176.9491525423729,2.9866666666666664C177.96610169491527,2.9866666666666664,178.98305084745763,2.9866666666666664,180,2.9866666666666664L180,40C178.98305084745763,40,177.96610169491527,40,176.9491525423729,40C175.93220338983053,40,174.91525423728814,40,173.89830508474577,40C172.8813559322034,40,171.864406779661,40,170.84745762711864,40C169.83050847457628,40,168.81355932203388,40,167.79661016949152,40C166.77966101694915,40,165.76271186440678,40,164.74576271186442,40C163.72881355932205,40,162.71186440677965,40,161.6949152542373,40C160.67796610169492,40,159.66101694915253,40,158.64406779661016,40C157.6271186440678,40,156.61016949152543,40,155.59322033898306,40C154.5762711864407,40,153.5593220338983,40,152.54237288135593,40C151.52542372881356,40,150.50847457627117,40,149.4915254237288,40C148.47457627118644,40,147.45762711864407,40,146.4406779661017,40C145.42372881355934,40,144.40677966101694,40,143.38983050847457,40C142.3728813559322,40,141.35593220338984,40,140.33898305084747,40C139.3220338983051,40,138.3050847457627,40,137.28813559322035,40C136.27118644067798,40,135.25423728813558,40,134.23728813559322,40C133.22033898305085,40,132.20338983050846,40,131.1864406779661,40C130.16949152542372,40,129.15254237288136,40,128.135593220339,40C127.11864406779662,40,126.10169491525424,40,125.08474576271188,40C124.0677966101695,40,123.05084745762711,40,122.03389830508473,40C121.01694915254237,40,120,40,118.98305084745763,40C117.96610169491525,40,116.94915254237289,40,115.9322033898305,40C114.91525423728814,40,113.89830508474576,40,112.88135593220339,40C111.86440677966102,40,110.84745762711864,40,109.83050847457628,40C108.8135593220339,40,107.79661016949153,40,106.77966101694915,40C105.76271186440678,40,104.7457627118644,40,103.72881355932203,40C102.71186440677965,40,101.69491525423729,40,100.6779661016949,40C99.66101694915254,40,98.64406779661016,40,97.62711864406779,40C96.61016949152543,40,95.59322033898306,40,94.57627118644069,40C93.55932203389831,40,92.54237288135593,40,91.52542372881355,40C90.50847457627118,40,89.49152542372882,40,88.47457627118645,40C87.45762711864407,40,86.4406779661017,40,85.42372881355932,40C84.40677966101696,40,83.38983050847457,40,82.37288135593221,40C81.35593220338983,40,80.33898305084746,40,79.32203389830508,40C78.30508474576271,40,77.28813559322033,40,76.27118644067797,40C75.2542372881356,40,74.23728813559322,40,73.22033898305085,40C72.20338983050848,40,71.1864406779661,40,70.16949152542374,40C69.15254237288136,40,68.13559322033899,40,67.11864406779661,40C66.10169491525424,40,65.08474576271186,40,64.0677966101695,40C63.05084745762712,40,62.03389830508474,40,61.01694915254237,40C59.99999999999999,40,58.983050847457626,40,57.96610169491525,40C56.94915254237288,40,55.93220338983051,40,54.91525423728814,40C53.898305084745765,40,52.88135593220339,40,51.86440677966102,40C50.847457627118644,40,49.83050847457627,40,48.813559322033896,40C47.79661016949152,40,46.77966101694915,40,45.762711864406775,40C44.7457627118644,40,43.728813559322035,40,42.71186440677966,40C41.69491525423729,40,40.67796610169491,40,39.66101694915254,40C38.644067796610166,40,37.6271186440678,40,36.610169491525426,40C35.59322033898305,40,34.57627118644068,40,33.559322033898304,40C32.54237288135593,40,31.525423728813557,40,30.508474576271183,40C29.491525423728813,40,28.47457627118644,40,27.45762711864407,40C26.440677966101696,40,25.423728813559322,40,24.406779661016948,40C23.389830508474574,40,22.372881355932204,40,21.35593220338983,40C20.338983050847457,40,19.322033898305087,40,18.305084745762713,40C17.28813559322034,40,16.271186440677965,40,15.254237288135592,40C14.23728813559322,40,13.220338983050846,40,12.203389830508474,40C11.186440677966102,40,10.169491525423728,40,9.152542372881356,40C8.135593220338983,40,7.11864406779661,40,6.101694915254237,40C5.084745762711864,40,4.067796610169491,40,3.0508474576271185,40C2.0338983050847457,40,1.0169491525423728,40,0,40Z"></path><path class="line" stroke="black" fill="none" d="M0,24.61333333333333C1.0169491525423728,24.182222222222222,2.0338983050847457,23.75111111111112,3.0508474576271185,23.680000000000003C4.067796610169491,23.608888888888888,5.084745762711864,23.644444444444446,6.101694915254237,23.57333333333333C7.11864406779661,23.502222222222215,8.135593220338983,23.328888888888883,9.152542372881356,23.09333333333333C10.169491525423728,22.857777777777777,11.186440677966102,22.160000000000004,12.203389830508474,22.160000000000004C13.220338983050846,22.160000000000004,14.23728813559322,23.200000000000003,15.254237288135592,23.200000000000003C16.271186440677965,23.200000000000003,17.28813559322034,23.14666666666667,18.305084745762713,23.14666666666667C19.322033898305087,23.14666666666667,20.338983050847457,23.386666666666667,21.35593220338983,23.386666666666667C22.372881355932204,23.386666666666667,23.389830508474574,23.200000000000003,24.406779661016948,23.200000000000003C25.423728813559322,23.200000000000003,26.440677966101696,23.759999999999998,27.45762711864407,23.759999999999998C28.47457627118644,23.759999999999998,29.491525423728813,23.28,30.508474576271183,23.28C31.525423728813557,23.28,32.54237288135593,24.10666666666667,33.559322033898304,24.10666666666667C34.57627118644068,24.10666666666667,35.59322033898305,22.693333333333335,36.610169491525426,22.693333333333335C37.6271186440678,22.693333333333335,38.644067796610166,22.693333333333335,39.66101694915254,22.693333333333335C40.67796610169491,22.693333333333335,41.69491525423729,22.64,42.71186440677966,22.64C43.728813559322035,22.64,44.7457627118644,22.764444444444447,45.762711864406775,22.853333333333335C46.77966101694915,22.942222222222224,47.79661016949152,23.06222222222222,48.813559322033896,23.173333333333332C49.83050847457627,23.284444444444443,50.847457627118644,23.448888888888895,51.86440677966102,23.520000000000003C52.88135593220339,23.59111111111111,53.898305084745765,23.555555555555557,54.91525423728814,23.626666666666665C55.93220338983051,23.697777777777773,56.94915254237288,23.973333333333333,57.96610169491525,24.08C58.983050847457626,24.186666666666664,59.99999999999999,24.266666666666666,61.01694915254237,24.266666666666666C62.03389830508474,24.266666666666666,63.05084745762712,24.24,64.0677966101695,24.186666666666667C65.08474576271186,24.133333333333336,66.10169491525424,23.78666666666667,67.11864406779661,23.78666666666667C68.13559322033899,23.78666666666667,69.15254237288136,25.38666666666667,70.16949152542374,25.38666666666667C71.1864406779661,25.38666666666667,72.20338983050848,25.12,73.22033898305085,24.96C74.23728813559322,24.8,75.2542372881356,24.42666666666667,76.27118644067797,24.42666666666667C77.28813559322033,24.42666666666667,78.30508474576271,24.48,79.32203389830508,24.48C80.33898305084746,24.48,81.35593220338983,24.195555555555558,82.37288135593221,24C83.38983050847457,23.804444444444446,84.40677966101696,23.306666666666665,85.42372881355932,23.306666666666665C86.4406779661017,23.306666666666665,87.45762711864407,23.813333333333333,88.47457627118645,23.813333333333333C89.49152542372882,23.813333333333333,90.50847457627118,22.800000000000004,91.52542372881355,22.800000000000004C92.54237288135593,22.800000000000004,93.55932203389831,22.96,94.57627118644069,22.96C95.59322033898306,22.96,96.61016949152543,22.31555555555556,97.62711864406779,22.080000000000002C98.64406779661016,21.844444444444445,99.66101694915254,21.902222222222225,100.6779661016949,21.546666666666667C101.69491525423729,21.19111111111111,102.71186440677965,19.706666666666667,103.72881355932203,19.706666666666667C104.7457627118644,19.706666666666667,105.76271186440678,20.053333333333335,106.77966101694915,20.053333333333335C107.79661016949153,20.053333333333335,108.8135593220339,19.733333333333334,109.83050847457628,19.093333333333334C110.84745762711864,18.453333333333337,111.86440677966102,16.275555555555556,112.88135593220339,15.413333333333332C113.89830508474576,14.55111111111111,114.91525423728814,14.431111111111107,115.9322033898305,13.919999999999998C116.94915254237289,13.408888888888885,117.96610169491525,12.8,118.98305084745763,12.346666666666666C120,11.893333333333336,121.01694915254237,11.639999999999997,122.03389830508473,11.200000000000001C123.05084745762711,10.76,124.0677966101695,10.702222222222224,125.08474576271188,9.706666666666667C126.10169491525424,8.711111111111121,127.11864406779662,5.804444444444451,128.135593220339,5.146666666666668C129.15254237288136,4.488888888888889,130.16949152542372,4.551111111111108,131.1864406779661,4.159999999999999C132.20338983050846,3.7688888888888865,133.22033898305085,2.799999999999998,134.23728813559322,2.799999999999998C135.25423728813558,2.799999999999998,136.27118644067798,3.1066666666666665,137.28813559322035,3.706666666666667C138.3050847457627,4.3066666666666675,139.3220338983051,6.400000000000001,140.33898305084747,6.400000000000001C141.35593220338984,6.400000000000001,142.3728813559322,1.3600000000000012,143.38983050847457,1.3600000000000012C144.40677966101694,1.3600000000000012,145.42372881355934,2.6622222222222196,146.4406779661017,3.1199999999999983C147.45762711864407,3.5777777777777726,148.47457627118644,3.928888888888893,149.4915254237288,4.106666666666667C150.50847457627117,4.284444444444444,151.52542372881356,4.373333333333331,152.54237288135593,4.373333333333331C153.5593220338983,4.373333333333331,154.5762711864407,4.15111111111111,155.59322033898306,3.706666666666667C156.61016949152543,3.262222222222228,157.6271186440678,1.3066666666666653,158.64406779661016,1.040000000000001C159.66101694915253,0.773333333333334,160.67796610169492,0.6400000000000006,161.6949152542373,0.6400000000000006C162.71186440677965,0.6400000000000006,163.72881355932205,0.6400000000000006,164.74576271186442,0.6400000000000006C165.76271186440678,0.6400000000000006,166.77966101694915,0.6400000000000006,167.79661016949152,0.6400000000000006C168.81355932203388,0.6400000000000006,169.83050847457628,1.3822222222222238,170.84745762711864,1.7600000000000016C171.864406779661,2.1377777777777793,172.8813559322034,2.853333333333333,173.89830508474577,2.9066666666666663C174.91525423728814,2.9599999999999995,175.93220338983053,2.9866666666666664,176.9491525423729,2.9866666666666664C177.96610169491527,2.9866666666666664,178.98305084745763,2.9866666666666664,180,2.9866666666666664"></path><path class="axis-ceiling" stroke-width="1" stroke="black" fill="none" d="M175,0L180,0"></path><text class="axis-ceiling-label" font-family="sans-serif" text-anchor="end" font-size="10px" x="170" y="2.5">1500</text></g></svg>