<svg xmlns="http://www.w3.org/2000/svg" viewBox="0 0 180 60"><g transform="translate(0,20)"><path class="area" fill="rgba(0, 0, 0, 0.2)" d="M0,34.519999999999996C1.0169491525423728,34.453333333333326,2.0338983050847457,34.38666666666666,3.0508474576271185,34.12C4.067796610169491,33.85333333333333,5.084745762711864,33.35333333333333,6.101694915254237,32.88C7.11864406779661,32.406666666666666,8.135593220338983,31.78666666666667,9.152542372881356,31.28C10.169491525423728,30.773333333333333,11.186440677966102,30.253333333333334,12.203389830508474,29.84C13.220338983050846,29.426666666666666,14.23728813559322,29.013333333333332,15.254237288135592,28.799999999999997C16.271186440677965,28.586666666666662,17.28813559322034,28.639999999999997,18.305084745762713,28.479999999999997C19.322033898305087,28.319999999999997,20.338983050847457,28.026666666666664,21.35593220338983,27.839999999999996C22.372881355932204,27.65333333333333,23.389830508474574,27.52,24.406779661016948,27.36C25.423728813559322,27.2,26.440677966101696,27.2,27.45762711864407,26.879999999999995C28.47457627118644,26.559999999999995,29.491525423728813,25.7,30.508474576271183,25.12C31.525423728813557,24.54,32.54237288135593,23.506666666666664,33.559322033898304,23.4C34.57627118644068,23.293333333333333,35.59322033898305,23.346666666666664,36.610169491525426,23.24C37.6271186440678,23.133333333333333,38.644067796610166,22.400000000000002,39.66101694915254,22.400000000000002C40.67796610169491,22.400000000000002,41.69491525423729,22.453333333333337,42.71186440677966,22.560000000000002C43.728813559322035,22.666666666666668,44.7457627118644,23.08,45.762711864406775,23.08C46.77966101694915,23.08,47.79661016949152,20.46,48.813559322033896,19.64C49.83050847457627,18.82,50.847457627118644,18.606666666666662,51.86440677966102,18.159999999999997C52.88135593220339,17.71333333333333,53.898305084745765,17.12,54.91525423728814,16.96C55.93220338983051,16.8,56.94915254237288,16.853333333333335,57.96610169491525,16.720000000000002C58.983050847457626,16.58666666666667,59.99999999999999,16.326666666666668,61.01694915254237,16.16C62.03389830508474,15.993333333333332,63.05084745762712,15.72,64.0677966101695,15.72C65.08474576271186,15.72,66.10169491525424,15.72,67.11864406779661,15.72C68.13559322033899,15.72,69.15254237288136,15.786666666666667,70.16949152542374,15.88C71.1864406779661,15.973333333333334,72.20338983050848,16.28,73.22033898305085,16.28C74.23728813559322,16.28,75.2542372881356,16,76.27118644067797,16C77.28813559322033,16,78.30508474576271,16.92,79.32203389830508,16.92C80.33898305084746,16.92,81.35593220338983,15.626666666666667,82.37288135593221,15.52C83.38983050847457,15.413333333333332,84.40677966101696,15.466666666666667,85.42372881355932,15.36C86.4406779661017,15.253333333333332,87.45762711864407,14.993333333333338,88.47457627118645,14.64C89.49152542372882,14.286666666666667,90.50847457627118,13.239999999999998,91.52542372881355,13.239999999999998C92.54237288135593,13.239999999999998,93.55932203389831,14.8,94.57627118644069,14.8C95.59322033898306,14.8,96.61016949152543,14.719999999999999,97.62711864406779,14.719999999999999C98.64406779661016,14.719999999999999,99.66101694915254,15.08,100.6779661016949,15.08C101.69491525423729,15.08,102.71186440677965,14.8,103.72881355932203,14.8C104.7457627118644,14.8,105.76271186440678,15.64,106.77966101694915,15.64C107.79661016949153,15.64,108.8135593220339,14.92,109.83050847457628,14.92C110.84745762711864,14.92,111.86440677966102,16.16,112.88135593220339,16.16C113.89830508474576,16.16,114.91525423728814,14.04,115.9322033898305,14.04C116.94915254237289,14.04,117.96610169491525,14.04,118.98305084745763,14.04C120,14.04,121.01694915254237,13.959999999999999,122.03389830508473,13.959999999999999C123.05084745762711,13.959999999999999,124.0677966101695,14.146666666666665,125.08474576271188,14.28C126.10169491525424,14.413333333333332,127.11864406779662,14.593333333333332,128.135593220339,14.76C129.15254237288136,14.926666666666666,130.16949152542372,15.173333333333336,131.1864406779661,15.280000000000001C132.20338983050846,15.386666666666668,133.22033898305085,15.333333333333334,134.23728813559322,15.440000000000001C135.25423728813558,15.546666666666669,136.27118644067798,15.96,137.28813559322035,16.12C138.3050847457627,16.28,139.3220338983051,16.400000000000002,140.33898305084747,16.400000000000002C141.35593220338984,16.400000000000002,142.3728813559322,16.360000000000003,143.38983050847457,16.28C144.40677966101694,16.2,145.42372881355934,15.68,146.4406779661017,15.68C147.45762711864407,15.68,148.47457627118644,18.08,149.4915254237288,18.08C150.50847457627117,18.08,151.52542372881356,17.68,152.54237288135593,17.44C153.5593220338983,17.200000000000003,154.5762711864407,16.64,155.59322033898306,16.64C156.61016949152543,16.64,157.6271186440678,16.720000000000002,158.64406779661016,16.720000000000002C159.66101694915253,16.720000000000002,160.67796610169492,16.293333333333333,161.6949152542373,16C162.71186440677965,15.706666666666667,163.72881355932205,14.96,164.74576271186442,14.96C165.76271186440678,14.96,166.77966101694915,15.72,167.79661016949152,15.72C168.81355932203388,15.72,169.83050847457628,14.2,170.84745762711864,14.2C171.864406779661,14.2,172.8813559322034,14.44,173.89830508474577,14.44C174.91525423728814,14.44,175.93220338983053,13.473333333333331,176.9491525423729,13.119999999999997C177.96610169491527,12.766666666666667,178.98305084745763,12.543333333333335,180,12.320000000000002L180,40C178.98305084745763,40,177.96610169491527,40,176.9491525423729,40C175.93220338983053,40,174.91525423728814,40,173.89830508474577,40C172.8813559322034,40,171.864406779661,40,170.84745762711864,40C169.83050847457628,40,168.81355932203388,40,167.79661016949152,40C166.77966101694915,40,165.76271186440678,40,164.74576271186442,40C163.72881355932205,40,162.71186440677965,40,161.6949152542373,40C160.67796610169492,40,159.66101694915253,40,158.64406779661016,40C157.6271186440678,40,156.61016949152543,40,155.59322033898306,40C154.5762711864407,40,153.5593220338983,40,152.54237288135593,40C151.52542372881356,40,150.50847457627117,40,149.4915254237288,40C148.47457627118644,40,147.45762711864407,40,146.4406779661017,40C145.42372881355934,40,144.40677966101694,40,143.38983050847457,40C142.3728813559322,40,141.35593220338984,40,140.33898305084747,40C139.3220338983051,40,138.3050847457627,40,137.28813559322035,40C136.27118644067798,40,135.25423728813558,40,134.23728813559322,40C133.22033898305085,40,132.20338983050846,40,131.1864406779661,40C130.16949152542372,40,129.15254237288136,40,128.135593220339,40C127.11864406779662,40,126.10169491525424,40,125.08474576271188,40C124.0677966101695,40,123.05084745762711,40,122.03389830508473,40C121.01694915254237,40,120,40,118.98305084745763,40C117.96610169491525,40,116.94915254237289,40,115.9322033898305,40C114.91525423728814,40,113.89830508474576,40,112.88135593220339,40C111.86440677966102,40,110.84745762711864,40,109.83050847457628,40C108.8135593220339,40,107.79661016949153,40,106.77966101694915,40C105.76271186440678,40,104.7457627118644,40,103.72881355932203,40C102.71186440677965,40,101.69491525423729,40,100.6779661016949,40C99.66101694915254,40,98.64406779661016,40,97.62711864406779,40C96.61016949152543,40,95.59322033898306,40,94.57627118644069,40C93.55932203389831,40,92.54237288135593,40,91.52542372881355,40C90.50847457627118,40,89.49152542372882,40,88.47457627118645,40C87.45762711864407,40,86.4406779661017,40,85.42372881355932,40C84.40677966101696,40,83.38983050847457,40,82.37288135593221,40C81.35593220338983,40,80.33898305084746,40,79.32203389830508,40C78.30508474576271,40,77.28813559322033,40,76.27118644067797,40C75.2542372881356,40,74.23728813559322,40,73.22033898305085,40C72.20338983050848,40,71.1864406779661,40,70.16949152542374,40C69.15254237288136,40,68.13559322033899,40,67.11864406779661,40C66.10169491525424,40,65.08474576271186,40,64.0677966101695,40C63.05084745762712,40,62.03389830508474,40,61.01694915254237,40C59.99999999999999,40,58.983050847457626,40,57.96610169491525,40C56.94915254237288,40,55.93220338983051,40,54.91525423728814,40C53.898305084745765,40,52.88135593220339,40,51.86440677966102,40C50.847457627118644,40,49.83050847457627,40,48.813559322033896,40C47.79661016949152,40,46.77966101694915,40,45.762711864406775,40C44.7457627118644,40,43.728813559322035,40,42.71186440677966,40C41.69491525423729,40,40.67796610169491,40,39.66101694915254,40C38.644067796610166,40,37.6271186440678,40,36.610169491525426,40C35.59322033898305,40,34.57627118644068,40,33.559322033898304,40C32.54237288135593,40,31.525423728813557,40,30.508474576271183,40C29.491525423728813,40,28.47457627118644,40,27.45762711864407,40C26.440677966101696,40,25.423728813559322,40,24.406779661016948,40C23.389830508474574,40,22.372881355932204,40,21.35593220338983,40C20.338983050847457,40,19.322033898305087,40,18.305084745762713,40C17.28813559322034,40,16.271186440677965,40,15.254237288135592,40C14.23728813559322,40,13.220338983050846,40,12.203389830508474,40C11.186440677966102,40,10.169491525423728,40,9.152542372881356,40C8.135593220338983,40,7.11864406779661,40,6.101694915254237,40C5.084745762711864,40,4.067796610169491,40,3.0508474576271185,40C2.0338983050847457,40,1.0169491525423728,40,0,40Z"></path><path class="line" stroke="black" fill="none" d="M0,34.519999999999996C1.0169491525423728,34.453333333333326,2.0338983050847457,34.38666666666666,3.0508474576271185,34.12C4.067796610169491,33.85333333333333,5.084745762711864,33.35333333333333,6.101694915254237,32.88C7.11864406779661,32.406666666666666,8.135593220338983,31.78666666666667,9.152542372881356,31.28C10.169491525423728,30.773333333333333,11.186440677966102,30.253333333333334,12.203389830508474,29.84C13.220338983050846,29.426666666666666,14.23728813559322,29.013333333333332,15.254237288135592,28.799999999999997C16.271186440677965,28.586666666666662,17.28813559322034,28.639999999999997,18.305084745762713,28.479999999999997C19.322033898305087,28.319999999999997,20.338983050847457,28.026666666666664,21.35593220338983,27.839999999999996C22.372881355932204,27.65333333333333,23.389830508474574,27.52,24.406779661016948,27.36C25.423728813559322,27.2,26.440677966101696,27.2,27.45762711864407,26.879999999999995C28.47457627118644,26.559999999999995,29.491525423728813,25.7,30.508474576271183,25.12C31.525423728813557,24.54,32.54237288135593,23.506666666666664,33.559322033898304,23.4C34.57627118644068,23.293333333333333,35.59322033898305,23.346666666666664,36.610169491525426,23.24C37.6271186440678,23.133333333333333,38.644067796610166,22.400000000000002,39.66101694915254,22.400000000000002C40.67796610169491,22.400000000000002,41.69491525423729,22.453333333333337,42.71186440677966,22.560000000000002C43.728813559322035,22.666666666666668,44.7457627118644,23.08,45.762711864406775,23.08C46.77966101694915,23.08,47.79661016949152,20.46,48.813559322033896,19.64C49.83050847457627,18.82,50.847457627118644,18.606666666666662,51.86440677966102,18.159999999999997C52.88135593220339,17.71333333333333,53.898305084745765,17.12,54.91525423728814,16.96C55.93220338983051,16.8,56.94915254237288,16.853333333333335,57.96610169491525,16.720000000000002C58.983050847457626,16.58666666666667,59.99999999999999,16.326666666666668,61.01694915254237,16.16C62.03389830508474,15.993333333333332,63.05084745762712,15.72,64.0677966101695,15.72C65.08474576271186,15.72,66.10169491525424,15.72,67.11864406779661,15.72C68.13559322033899,15.72,69.15254237288136,15.786666666666667,70.16949152542374,15.88C71.1864406779661,15.973333333333334,72.20338983050848,16.28,73.22033898305085,16.28C74.23728813559322,16.28,75.2542372881356,16,76.27118644067797,16C77.28813559322033,16,78.30508474576271,16.92,79.32203389830508,16.92C80.33898305084746,16.92,81.35593220338983,15.626666666666667,82.37288135593221,15.52C83.38983050847457,15.413333333333332,84.40677966101696,15.466666666666667,85.42372881355932,15.36C86.4406779661017,15.253333333333332,87.45762711864407,14.993333333333338,88.47457627118645,14.64C89.49152542372882,14.286666666666667,90.50847457627118,13.239999999999998,91.52542372881355,13.239999999999998C92.54237288135593,13.239999999999998,93.55932203389831,14.8,94.57627118644069,14.8C95.59322033898306,14.8,96.61016949152543,14.719999999999999,97.62711864406779,14.719999999999999C98.64406779661016,14.719999999999999,99.66101694915254,15.08,100.6779661016949,15.08C101.69491525423729,15.08,102.71186440677965,14.8,103.72881355932203,14.8C104.7457627118644,14.8,105.76271186440678,15.64,106.77966101694915,15.64C107.79661016949153,15.64,108.8135593220339,14.92,109.83050847457628,14.92C110.84745762711864,14.92,111.86440677966102,16.16,112.88135593220339,16.16C113.89830508474576,16.16,114.91525423728814,14.04,115.9322033898305,14.04C116.94915254237289,14.04,117.96610169491525,14.04,118.98305084745763,14.04C120,14.04,121.01694915254237,13.959999999999999,122.03389830508473,13.959999999999999C123.05084745762711,13.959999999999999,124.0677966101695,14.146666666666665,125.08474576271188,14.28C126.10169491525424,14.413333333333332,127.11864406779662,14.593333333333332,128.135593220339,14.76C129.15254237288136,14.926666666666666,130.16949152542372,15.173333333333336,131.1864406779661,15.280000000000001C132.20338983050846,15.386666666666668,133.22033898305085,15.333333333333334,134.23728813559322,15.440000000000001C135.25423728813558,15.546666666666669,136.27118644067798,15.96,137.28813559322035,16.12C138.3050847457627,16.28,139.3220338983051,16.400000000000002,140.33898305084747,16.400000000000002C141.35593220338984,16.400000000000002,142.3728813559322,16.360000000000003,143.38983050847457,16.28C144.40677966101694,16.2,145.42372881355934,15.68,146.4406779661017,15.68C147.45762711864407,15.68,148.47457627118644,18.08,149.4915254237288,18.08C150.50847457627117,18.08,151.52542372881356,17.68,152.54237288135593,17.44C153.5593220338983,17.200000000000003,154.5762711864407,16.64,155.59322033898306,16.64C156.61016949152543,16.64,157.6271186440678,16.720000000000002,158.64406779661016,16.720000000000002C159.66101694915253,16.720000000000002,160.67796610169492,16.293333333333333,161.6949152542373,16C162.71186440677965,15.706666666666667,163.72881355932205,14.96,164.74576271186442,14.96C165.76271186440678,14.96,166.77966101694915,15.72,167.79661016949152,15.72C168.81355932203388,15.72,169.83050847457628,14.2,170.84745762711864,14.2C171.864406779661,14.2,172.8813559322034,14.44,173.89830508474577,14.44C174.91525423728814,14.44,175.93220338983053,13.473333333333331,176.9491525423729,13.119999999999997C177.96610169491527,12.766666666666667,178.98305084745763,12.543333333333335,180,12.320000000000002"></path><path class="axis-ceiling" stroke-width="1" stroke="black" fill="none" d="M175,0L180,0"></path><text class="axis-ceiling-label" font-family="sans-serif" text-anchor="end" font-size="10px" x="170" y="2.5">1000</text></g></svg>