<svg xmlns="http://www.w3.org/2000/svg" viewBox="0 0 180 60"><g transform="translate(0,20)"><path class="area" fill="rgba(0, 0, 0, 0.2)" d="M0,32.21238938053097C1.0169491525423728,32.8023598820059,2.0338983050847457,33.39233038348083,3.0508474576271185,33.6283185840708C4.067796610169491,33.86430678466076,5.084745762711864,33.98230088495575,6.101694915254237,33.98230088495575C7.11864406779661,33.98230088495575,8.135593220338983,33.27433628318584,9.152542372881356,33.27433628318584C10.169491525423728,33.27433628318584,11.186440677966102,34.27728613569322,12.203389830508474,34.690265486725664C13.220338983050846,35.10324483775811,14.23728813559322,35.75221238938053,15.254237288135592,35.75221238938053C16.271186440677965,35.75221238938053,17.28813559322034,35.75221238938053,18.305084745762713,35.75221238938053C19.322033898305087,35.75221238938053,20.338983050847457,39.292035398230084,21.35593220338983,39.292035398230084C22.372881355932204,39.292035398230084,23.389830508474574,34.690265486725664,24.406779661016948,34.690265486725664C25.423728813559322,34.690265486725664,26.440677966101696,34.690265486725664,27.45762711864407,34.690265486725664C28.47457627118644,34.690265486725664,29.491525423728813,33.98230088495575,30.508474576271183,33.98230088495575C31.525423728813557,33.98230088495575,32.54237288135593,35.04424778761062,33.559322033898304,35.04424778761062C34.57627118644068,35.04424778761062,35.59322033898305,34.336283185840706,36.610169491525426,34.336283185840706C37.6271186440678,34.336283185840706,38.644067796610166,36.10619469026548,39.66101694915254,36.10619469026548C40.67796610169491,36.10619469026548,41.69491525423729,34.690265486725664,42.71186440677966,34.690265486725664C43.728813559322035,34.690265486725664,44.7457627118644,37.99410029498526,45.762711864406775,38.230088495575224C46.77966101694915,38.46607669616519,47.79661016949152,38.584070796460175,48.813559322033896,38.584070796460175C49.83050847457627,38.584070796460175,50.847457627118644,38.584070796460175,51.86440677966102,38.584070796460175C52.88135593220339,38.584070796460175,53.898305084745765,37.16814159292036,54.91525423728814,37.16814159292036C55.93220338983051,37.16814159292036,56.94915254237288,39.64601769911504,57.96610169491525,39.64601769911504C58.983050847457626,39.64601769911504,59.99999999999999,38.64306784660767,61.01694915254237,38.230088495575224C62.03389830508474,37.817109144542776,63.05084745762712,37.46312684365782,64.0677966101695,37.16814159292036C65.08474576271186,36.873156342182895,66.10169491525424,36.81415929203539,67.11864406779661,36.46017699115044C68.13559322033899,36.10619469026548,69.15254237288136,35.45722713864307,70.16949152542374,35.04424778761062C71.1864406779661,34.631268436578175,72.20338983050848,33.98230088495575,73.22033898305085,33.98230088495575C74.23728813559322,33.98230088495575,75.2542372881356,35.75221238938053,76.27118644067797,35.75221238938053C77.28813559322033,35.75221238938053,78.30508474576271,30.79646017699115,79.32203389830508,30.79646017699115C80.33898305084746,30.79646017699115,81.35593220338983,31.858407079646017,82.37288135593221,31.858407079646017C83.38983050847457,31.858407079646017,84.40677966101696,31.445427728613566,85.42372881355932,31.150442477876105C86.4406779661017,30.855457227138643,87.45762711864407,30.737463126843664,88.47457627118645,30.08849557522124C89.49152542372882,29.43952802359882,90.50847457627118,27.25663716814159,91.52542372881355,27.25663716814159C92.54237288135593,27.25663716814159,93.55932203389831,29.38053097345133,94.57627118644069,29.38053097345133C95.59322033898306,29.38053097345133,96.61016949152543,27.84660766961651,97.62711864406779,26.54867256637168C98.64406779661016,25.25073746312684,99.66101694915254,22.94985250737463,100.6779661016949,21.5929203539823C101.69491525423729,20.235988200589965,102.71186440677965,19.174041297935105,103.72881355932203,18.4070796460177C104.7457627118644,17.640117994100297,105.76271186440678,17.40412979351032,106.77966101694915,16.991150442477874C107.79661016949153,16.578171091445423,108.8135593220339,15.929203539823007,109.83050847457628,15.929203539823007C110.84745762711864,15.929203539823007,111.86440677966102,16.63716814159292,112.88135593220339,16.63716814159292C113.89830508474576,16.63716814159292,114.91525423728814,7.669616519174036,115.9322033898305,7.433628318584069C116.94915254237289,7.197640117994101,117.96610169491525,7.079646017699117,118.98305084745763,7.079646017699117C120,7.079646017699117,121.01694915254237,10.147492625368743,122.03389830508473,11.68141592920354C123.05084745762711,13.215339233038359,124.0677966101695,14.159292035398215,125.08474576271188,16.283185840707965C126.10169491525424,18.407079646017696,127.11864406779662,24.42477876106195,128.135593220339,24.42477876106195C129.15254237288136,24.42477876106195,130.16949152542372,16.991150442477874,131.1864406779661,16.991150442477874C132.20338983050846,16.991150442477874,133.22033898305085,20.235988200589972,134.23728813559322,23.008849557522126C135.25423728813558,25.78171091445428,136.27118644067798,31.976401179941007,137.28813559322035,33.6283185840708C138.3050847457627,35.28023598820059,139.3220338983051,35.51622418879055,140.33898305084747,36.10619469026548C141.35593220338984,36.696165191740405,142.3728813559322,37.16814159292036,143.38983050847457,37.16814159292036C144.40677966101694,37.16814159292036,145.42372881355934,32.50737463126844,146.4406779661017,30.442477876106192C147.45762711864407,28.37758112094396,148.47457627118644,24.778761061946906,149.4915254237288,24.778761061946906C150.50847457627117,24.778761061946906,151.52542372881356,34.336283185840706,152.54237288135593,34.336283185840706C153.5593220338983,34.336283185840706,154.5762711864407,30.79646017699115,155.59322033898306,30.79646017699115C156.61016949152543,30.79646017699115,157.6271186440678,30.914454277286136,158.64406779661016,31.150442477876105C159.66101694915253,31.386430678466077,160.67796610169492,32.38938053097345,161.6949152542373,32.92035398230088C162.71186440677965,33.451327433628315,163.72881355932205,33.392330383480825,164.74576271186442,34.336283185840706C165.76271186440678,35.28023598820058,166.77966101694915,38.82005899705015,167.79661016949152,39.292035398230084C168.81355932203388,39.76401179941003,169.83050847457628,40,170.84745762711864,40C171.864406779661,40,172.8813559322034,40,173.89830508474577,40C174.91525423728814,40,175.93220338983053,40,176.9491525423729,40C177.96610169491527,40,178.98305084745763,38.93805309734513,180,37.876106194690266L180,40C178.98305084745763,40,177.96610169491527,40,176.9491525423729,40C175.93220338983053,40,174.91525423728814,40,173.89830508474577,40C172.8813559322034,40,171.864406779661,40,170.84745762711864,40C169.83050847457628,40,168.81355932203388,40,167.79661016949152,40C166.77966101694915,40,165.76271186440678,40,164.74576271186442,40C163.72881355932205,40,162.71186440677965,40,161.6949152542373,40C160.67796610169492,40,159.66101694915253,40,158.64406779661016,40C157.6271186440678,40,156.61016949152543,40,155.59322033898306,40C154.5762711864407,40,153.5593220338983,40,152.54237288135593,40C151.52542372881356,40,150.50847457627117,40,149.4915254237288,40C148.47457627118644,40,147.45762711864407,40,146.4406779661017,40C145.42372881355934,40,144.40677966101694,40,143.38983050847457,40C142.3728813559322,40,141.35593220338984,40,140.33898305084747,40C139.3220338983051,40,138.3050847457627,40,137.28813559322035,40C136.27118644067798,40,135.25423728813558,40,134.23728813559322,40C133.22033898305085,40,132.20338983050846,40,131.1864406779661,40C130.16949152542372,40,129.15254237288136,40,128.135593220339,40C127.11864406779662,40,126.10169491525424,40,125.08474576271188,40C124.0677966101695,40,123.05084745762711,40,122.03389830508473,40C121.01694915254237,40,120,40,118.98305084745763,40C117.96610169491525,40,116.94915254237289,40,115.9322033898305,40C114.91525423728814,40,113.89830508474576,40,112.88135593220339,40C111.86440677966102,40,110.84745762711864,40,109.83050847457628,40C108.8135593220339,40,107.79661016949153,40,106.77966101694915,40C105.76271186440678,40,104.7457627118644,40,103.72881355932203,40C102.71186440677965,40,101.69491525423729,40,100.6779661016949,40C99.66101694915254,40,98.64406779661016,40,97.62711864406779,40C96.61016949152543,40,95.59322033898306,40,94.57627118644069,40C93.55932203389831,40,92.54237288135593,40,91.52542372881355,40C90.50847457627118,40,89.49152542372882,40,88.47457627118645,40C87.45762711864407,40,86.4406779661017,40,85.42372881355932,40C84.40677966101696,40,83.38983050847457,40,82.37288135593221,40C81.35593220338983,40,80.33898305084746,40,79.32203389830508,40C78.30508474576271,40,77.28813559322033,40,76.27118644067797,40C75.2542372881356,40,74.23728813559322,40,73.22033898305085,40C72.20338983050848,40,71.1864406779661,40,70.16949152542374,40C69.15254237288136,40,68.13559322033899,40,67.11864406779661,40C66.10169491525424,40,65.08474576271186,40,64.0677966101695,40C63.05084745762712,40,62.03389830508474,40,61.01694915254237,40C59.99999999999999,40,58.983050847457626,40,57.96610169491525,40C56.94915254237288,40,55.93220338983051,40,54.91525423728814,40C53.898305084745765,40,52.88135593220339,40,51.86440677966102,40C50.847457627118644,40,49.83050847457627,40,48.813559322033896,40C47.79661016949152,40,46.77966101694915,40,45.762711864406775,40C44.7457627118644,40,43.728813559322035,40,42.71186440677966,40C41.69491525423729,40,40.67796610169491,40,39.66101694915254,40C38.644067796610166,40,37.6271186440678,40,36.610169491525426,40C35.59322033898305,40,34.57627118644068,40,33.559322033898304,40C32.54237288135593,40,31.525423728813557,40,30.508474576271183,40C29.491525423728813,40,28.47457627118644,40,27.45762711864407,40C26.440677966101696,40,25.423728813559322,40,24.406779661016948,40C23.389830508474574,40,22.372881355932204,40,21.35593220338983,40C20.338983050847457,40,19.322033898305087,40,18.305084745762713,40C17.28813559322034,40,16.271186440677965,40,15.254237288135592,40C14.23728813559322,40,13.220338983050846,40,12.203389830508474,40C11.186440677966102,40,10.169491525423728,40,9.152542372881356,40C8.135593220338983,40,7.11864406779661,40,6.101694915254237,40C5.084745762711864,40,4.067796610169491,40,3.0508474576271185,40C2.0338983050847457,40,1.0169491525423728,40,0,40Z"></path><path class="line" stroke="black" fill="none" d="M0,32.21238938053097C1.0169491525423728,32.8023598820059,2.0338983050847457,33.39233038348083,3.0508474576271185,33.6283185840708C4.067796610169491,33.86430678466076,5.084745762711864,33.98230088495575,6.101694915254237,33.98230088495575C7.11864406779661,33.98230088495575,8.135593220338983,33.27433628318584,9.152542372881356,33.27433628318584C10.169491525423728,33.27433628318584,11.186440677966102,34.27728613569322,12.203389830508474,34.690265486725664C13.220338983050846,35.10324483775811,14.23728813559322,35.75221238938053,15.254237288135592,35.75221238938053C16.271186440677965,35.75221238938053,17.28813559322034,35.75221238938053,18.305084745762713,35.75221238938053C19.322033898305087,35.75221238938053,20.338983050847457,39.292035398230084,21.35593220338983,39.292035398230084C22.372881355932204,39.292035398230084,23.389830508474574,34.690265486725664,24.406779661016948,34.690265486725664C25.423728813559322,34.690265486725664,26.440677966101696,34.690265486725664,27.45762711864407,34.690265486725664C28.47457627118644,34.690265486725664,29.491525423728813,33.98230088495575,30.508474576271183,33.98230088495575C31.525423728813557,33.98230088495575,32.54237288135593,35.04424778761062,33.559322033898304,35.04424778761062C34.57627118644068,35.04424778761062,35.59322033898305,34.336283185840706,36.610169491525426,34.336283185840706C37.6271186440678,34.336283185840706,38.644067796610166,36.10619469026548,39.66101694915254,36.10619469026548C40.67796610169491,36.10619469026548,41.69491525423729,34.690265486725664,42.71186440677966,34.690265486725664C43.728813559322035,34.690265486725664,44.7457627118644,37.99410029498526,45.762711864406775,38.230088495575224C46.77966101694915,38.46607669616519,47.79661016949152,38.584070796460175,48.813559322033896,38.584070796460175C49.83050847457627,38.584070796460175,50.847457627118644,38.584070796460175,51.86440677966102,38.584070796460175C52.88135593220339,38.584070796460175,53.898305084745765,37.16814159292036,54.91525423728814,37.16814159292036C55.93220338983051,37.16814159292036,56.94915254237288,39.64601769911504,57.96610169491525,39.64601769911504C58.983050847457626,39.64601769911504,59.99999999999999,38.64306784660767,61.01694915254237,38.230088495575224C62.03389830508474,37.817109144542776,63.05084745762712,37.46312684365782,64.0677966101695,37.16814159292036C65.08474576271186,36.873156342182895,66.10169491525424,36.81415929203539,67.11864406779661,36.46017699115044C68.13559322033899,36.10619469026548,69.15254237288136,35.45722713864307,70.16949152542374,35.04424778761062C71.1864406779661,34.631268436578175,72.20338983050848,33.98230088495575,73.22033898305085,33.98230088495575C74.23728813559322,33.98230088495575,75.2542372881356,35.75221238938053,76.27118644067797,35.75221238938053C77.28813559322033,35.75221238938053,78.30508474576271,30.79646017699115,79.32203389830508,30.79646017699115C80.33898305084746,30.79646017699115,81.35593220338983,31.858407079646017,82.37288135593221,31.858407079646017C83.38983050847457,31.858407079646017,84.40677966101696,31.445427728613566,85.42372881355932,31.150442477876105C86.4406779661017,30.855457227138643,87.45762711864407,30.737463126843664,88.47457627118645,30.08849557522124C89.49152542372882,29.43952802359882,90.50847457627118,27.25663716814159,91.52542372881355,27.25663716814159C92.54237288135593,27.25663716814159,93.55932203389831,29.38053097345133,94.57627118644069,29.38053097345133C95.59322033898306,29.38053097345133,96.61016949152543,27.84660766961651,97.62711864406779,26.54867256637168C98.64406779661016,25.25073746312684,99.66101694915254,22.94985250737463,100.6779661016949,21.5929203539823C101.69491525423729,20.235988200589965,102.71186440677965,19.174041297935105,103.72881355932203,18.4070796460177C104.7457627118644,17.640117994100297,105.76271186440678,17.40412979351032,106.77966101694915,16.991150442477874C107.79661016949153,16.578171091445423,108.8135593220339,15.929203539823007,109.83050847457628,15.929203539823007C110.84745762711864,15.929203539823007,111.86440677966102,16.63716814159292,112.88135593220339,16.63716814159292C113.89830508474576,16.63716814159292,114.91525423728814,7.669616519174036,115.9322033898305,7.433628318584069C116.94915254237289,7.197640117994101,117.96610169491525,7.079646017699117,118.98305084745763,7.079646017699117C120,7.079646017699117,121.01694915254237,10.147492625368743,122.03389830508473,11.68141592920354C123.05084745762711,13.215339233038359,124.0677966101695,14.159292035398215,125.08474576271188,16.283185840707965C126.10169491525424,18.407079646017696,127.11864406779662,24.42477876106195,128.135593220339,24.42477876106195C129.15254237288136,24.42477876106195,130.16949152542372,16.991150442477874,131.1864406779661,16.991150442477874C132.20338983050846,16.991150442477874,133.22033898305085,20.235988200589972,134.23728813559322,23.008849557522126C135.25423728813558,25.78171091445428,136.27118644067798,31.976401179941007,137.28813559322035,33.6283185840708C138.3050847457627,35.28023598820059,139.3220338983051,35.51622418879055,140.33898305084747,36.10619469026548C141.35593220338984,36.696165191740405,142.3728813559322,37.16814159292036,143.38983050847457,37.16814159292036C144.40677966101694,37.16814159292036,145.42372881355934,32.50737463126844,146.4406779661017,30.442477876106192C147.45762711864407,28.37758112094396,148.47457627118644,24.778761061946906,149.4915254237288,24.778761061946906C150.50847457627117,24.778761061946906,151.52542372881356,34.336283185840706,152.54237288135593,34.336283185840706C153.5593220338983,34.336283185840706,154.5762711864407,30.79646017699115,155.59322033898306,30.79646017699115C156.61016949152543,30.79646017699115,157.6271186440678,30.914454277286136,158.64406779661016,31.150442477876105C159.66101694915253,31.386430678466077,160.67796610169492,32.38938053097345,161.6949152542373,32.92035398230088C162.71186440677965,33.451327433628315,163.72881355932205,33.392330383480825,164.74576271186442,34.336283185840706C165.76271186440678,35.28023598820058,166.77966101694915,38.82005899705015,167.79661016949152,39.292035398230084C168.81355932203388,39.76401179941003,169.83050847457628,40,170.84745762711864,40C171.864406779661,40,172.8813559322034,40,173.89830508474577,40C174.91525423728814,40,175.93220338983053,40,176.9491525423729,40C177.96610169491527,40,178.98305084745763,38.93805309734513,180,37.876106194690266"></path><path class="axis-ceiling" stroke-width="1" stroke="black" fill="none" d="M175,0L180,0"></path><text class="axis-ceiling-label" font-family="sans-serif" text-anchor="end" font-size="10px" x="170" y="2.5">100</text></g></svg>