<svg xmlns="http://www.w3.org/2000/svg" viewBox="0 0 180 60"><g transform="translate(0,20)"><path class="area" fill="rgba(0, 0, 0, 0.2)" d="M0,27.142857142857146C1.0169491525423728,27.321428571428573,2.0338983050847457,27.5,3.0508474576271185,27.5C4.067796610169491,27.5,5.084745762711864,27.5,6.101694915254237,27.5C7.11864406779661,27.5,8.135593220338983,27.857142857142854,9.152542372881356,27.857142857142854C10.169491525423728,27.857142857142854,11.186440677966102,27.380952380952383,12.203389830508474,27.142857142857146C13.220338983050846,26.90476190476191,14.23728813559322,26.428571428571427,15.254237288135592,26.428571428571427C16.271186440677965,26.428571428571427,17.28813559322034,29.880952380952383,18.305084745762713,31.071428571428573C19.322033898305087,32.26190476190476,20.338983050847457,32.976190476190474,21.35593220338983,33.57142857142857C22.372881355932204,34.166666666666664,23.389830508474574,34.22619047619048,24.406779661016948,34.642857142857146C25.423728813559322,35.05952380952381,26.440677966101696,36.07142857142857,27.45762711864407,36.07142857142857C28.47457627118644,36.07142857142857,29.491525423728813,35,30.508474576271183,35C31.525423728813557,35,32.54237288135593,35.357142857142854,33.559322033898304,35.357142857142854C34.57627118644068,35.357142857142854,35.59322033898305,35.11904761904762,36.610169491525426,34.642857142857146C37.6271186440678,34.16666666666667,38.644067796610166,32.5,39.66101694915254,32.5C40.67796610169491,32.5,41.69491525423729,33.69047619047619,42.71186440677966,33.92857142857143C43.728813559322035,34.16666666666667,44.7457627118644,34.28571428571429,45.762711864406775,34.28571428571429C46.77966101694915,34.28571428571429,47.79661016949152,33.57142857142857,48.813559322033896,33.57142857142857C49.83050847457627,33.57142857142857,50.847457627118644,34.583333333333336,51.86440677966102,35C52.88135593220339,35.416666666666664,53.898305084745765,36.07142857142857,54.91525423728814,36.07142857142857C55.93220338983051,36.07142857142857,56.94915254237288,36.07142857142857,57.96610169491525,36.07142857142857C58.983050847457626,36.07142857142857,59.99999999999999,39.642857142857146,61.01694915254237,39.642857142857146C62.03389830508474,39.642857142857146,63.05084745762712,35,64.0677966101695,35C65.08474576271186,35,66.10169491525424,35,67.11864406779661,35C68.13559322033899,35,69.15254237288136,34.28571428571429,70.16949152542374,34.28571428571429C71.1864406779661,34.28571428571429,72.20338983050848,35.357142857142854,73.22033898305085,35.357142857142854C74.23728813559322,35.357142857142854,75.2542372881356,34.642857142857146,76.27118644067797,34.642857142857146C77.28813559322033,34.642857142857146,78.30508474576271,36.42857142857143,79.32203389830508,36.42857142857143C80.33898305084746,36.42857142857143,81.35593220338983,35,82.37288135593221,35C83.38983050847457,35,84.40677966101696,38.33333333333333,85.42372881355932,38.57142857142857C86.4406779661017,38.80952380952381,87.45762711864407,38.92857142857143,88.47457627118645,38.92857142857143C89.49152542372882,38.92857142857143,90.50847457627118,38.92857142857143,91.52542372881355,38.92857142857143C92.54237288135593,38.92857142857143,93.55932203389831,37.5,94.57627118644069,37.5C95.59322033898306,37.5,96.61016949152543,40,97.62711864406779,40C98.64406779661016,40,99.66101694915254,38.988095238095234,100.6779661016949,38.57142857142857C101.69491525423729,38.1547619047619,102.71186440677965,37.79761904761905,103.72881355932203,37.5C104.7457627118644,37.202380952380956,105.76271186440678,37.14285714285714,106.77966101694915,36.785714285714285C107.79661016949153,36.42857142857142,108.8135593220339,35.77380952380952,109.83050847457628,35.357142857142854C110.84745762711864,34.94047619047619,111.86440677966102,34.28571428571429,112.88135593220339,34.28571428571429C113.89830508474576,34.28571428571429,114.91525423728814,36.07142857142857,115.9322033898305,36.07142857142857C116.94915254237289,36.07142857142857,117.96610169491525,31.071428571428573,118.98305084745763,31.071428571428573C120,31.071428571428573,121.01694915254237,32.142857142857146,122.03389830508473,32.142857142857146C123.05084745762711,32.142857142857146,124.0677966101695,31.726190476190478,125.08474576271188,31.428571428571427C126.10169491525424,31.13095238095238,127.11864406779662,31.011904761904763,128.135593220339,30.357142857142854C129.15254237288136,29.70238095238095,130.16949152542372,27.5,131.1864406779661,27.5C132.20338983050846,27.5,133.22033898305085,29.642857142857146,134.23728813559322,29.642857142857146C135.25423728813558,29.642857142857146,136.27118644067798,28.0952380952381,137.28813559322035,26.78571428571429C138.3050847457627,25.476190476190478,139.3220338983051,23.154761904761912,140.33898305084747,21.78571428571429C141.35593220338984,20.41666666666668,142.3728813559322,19.345238095238095,143.38983050847457,18.571428571428573C144.40677966101694,17.797619047619044,145.42372881355934,17.559523809523814,146.4406779661017,17.142857142857146C147.45762711864407,16.72619047619048,148.47457627118644,16.071428571428573,149.4915254237288,16.071428571428573C150.50847457627117,16.071428571428573,151.52542372881356,16.785714285714285,152.54237288135593,16.785714285714285C153.5593220338983,16.785714285714285,154.5762711864407,7.73809523809524,155.59322033898306,7.5C156.61016949152543,7.261904761904763,157.6271186440678,7.142857142857144,158.64406779661016,7.142857142857144C159.66101694915253,7.142857142857144,160.67796610169492,10.238095238095237,161.6949152542373,11.785714285714285C162.71186440677965,13.333333333333332,163.72881355932205,14.285714285714269,164.74576271186442,16.428571428571427C165.76271186440678,18.571428571428566,166.77966101694915,24.642857142857146,167.79661016949152,24.642857142857146C168.81355932203388,24.642857142857146,169.83050847457628,17.142857142857146,170.84745762711864,17.142857142857146C171.864406779661,17.142857142857146,172.8813559322034,20.416666666666664,173.89830508474577,23.21428571428571C174.91525423728814,26.01190476190476,175.93220338983053,32.261904761904745,176.9491525423729,33.92857142857143C177.96610169491527,35.595238095238095,178.98305084745763,36.011904761904766,180,36.42857142857143L180,40C178.98305084745763,40,177.96610169491527,40,176.9491525423729,40C175.93220338983053,40,174.91525423728814,40,173.89830508474577,40C172.8813559322034,40,171.864406779661,40,170.84745762711864,40C169.83050847457628,40,168.81355932203388,40,167.79661016949152,40C166.77966101694915,40,165.76271186440678,40,164.74576271186442,40C163.72881355932205,40,162.71186440677965,40,161.6949152542373,40C160.67796610169492,40,159.66101694915253,40,158.64406779661016,40C157.6271186440678,40,156.61016949152543,40,155.59322033898306,40C154.5762711864407,40,153.5593220338983,40,152.54237288135593,40C151.52542372881356,40,150.50847457627117,40,149.4915254237288,40C148.47457627118644,40,147.45762711864407,40,146.4406779661017,40C145.42372881355934,40,144.40677966101694,40,143.38983050847457,40C142.3728813559322,40,141.35593220338984,40,140.33898305084747,40C139.3220338983051,40,138.3050847457627,40,137.28813559322035,40C136.27118644067798,40,135.25423728813558,40,134.23728813559322,40C133.22033898305085,40,132.20338983050846,40,131.1864406779661,40C130.16949152542372,40,129.15254237288136,40,128.135593220339,40C127.11864406779662,40,126.10169491525424,40,125.08474576271188,40C124.0677966101695,40,123.05084745762711,40,122.03389830508473,40C121.01694915254237,40,120,40,118.98305084745763,40C117.96610169491525,40,116.94915254237289,40,115.9322033898305,40C114.91525423728814,40,113.89830508474576,40,112.88135593220339,40C111.86440677966102,40,110.84745762711864,40,109.83050847457628,40C108.8135593220339,40,107.79661016949153,40,106.77966101694915,40C105.76271186440678,40,104.7457627118644,40,103.72881355932203,40C102.71186440677965,40,101.69491525423729,40,100.6779661016949,40C99.66101694915254,40,98.64406779661016,40,97.62711864406779,40C96.61016949152543,40,95.59322033898306,40,94.57627118644069,40C93.55932203389831,40,92.54237288135593,40,91.52542372881355,40C90.50847457627118,40,89.49152542372882,40,88.47457627118645,40C87.45762711864407,40,86.4406779661017,40,85.42372881355932,40C84.40677966101696,40,83.38983050847457,40,82.37288135593221,40C81.35593220338983,40,80.33898305084746,40,79.32203389830508,40C78.30508474576271,40,77.28813559322033,40,76.27118644067797,40C75.2542372881356,40,74.23728813559322,40,73.22033898305085,40C72.20338983050848,40,71.1864406779661,40,70.16949152542374,40C69.15254237288136,40,68.13559322033899,40,67.11864406779661,40C66.10169491525424,40,65.08474576271186,40,64.0677966101695,40C63.05084745762712,40,62.03389830508474,40,61.01694915254237,40C59.99999999999999,40,58.983050847457626,40,57.96610169491525,40C56.94915254237288,40,55.93220338983051,40,54.91525423728814,40C53.898305084745765,40,52.88135593220339,40,51.86440677966102,40C50.847457627118644,40,49.83050847457627,40,48.813559322033896,40C47.79661016949152,40,46.77966101694915,40,45.762711864406775,40C44.7457627118644,40,43.728813559322035,40,42.71186440677966,40C41.69491525423729,40,40.67796610169491,40,39.66101694915254,40C38.644067796610166,40,37.6271186440678,40,36.610169491525426,40C35.59322033898305,40,34.57627118644068,40,33.559322033898304,40C32.54237288135593,40,31.525423728813557,40,30.508474576271183,40C29.491525423728813,40,28.47457627118644,40,27.45762711864407,40C26.440677966101696,40,25.423728813559322,40,24.406779661016948,40C23.389830508474574,40,22.372881355932204,40,21.35593220338983,40C20.338983050847457,40,19.322033898305087,40,18.305084745762713,40C17.28813559322034,40,16.271186440677965,40,15.254237288135592,40C14.23728813559322,40,13.220338983050846,40,12.203389830508474,40C11.186440677966102,40,10.169491525423728,40,9.152542372881356,40C8.135593220338983,40,7.11864406779661,40,6.101694915254237,40C5.084745762711864,40,4.067796610169491,40,3.0508474576271185,40C2.0338983050847457,40,1.0169491525423728,40,0,40Z"></path><path class="line" stroke="black" fill="none" d="M0,27.142857142857146C1.0169491525423728,27.321428571428573,2.0338983050847457,27.5,3.0508474576271185,27.5C4.067796610169491,27.5,5.084745762711864,27.5,6.101694915254237,27.5C7.11864406779661,27.5,8.135593220338983,27.857142857142854,9.152542372881356,27.857142857142854C10.169491525423728,27.857142857142854,11.186440677966102,27.380952380952383,12.203389830508474,27.142857142857146C13.220338983050846,26.90476190476191,14.23728813559322,26.428571428571427,15.254237288135592,26.428571428571427C16.271186440677965,26.428571428571427,17.28813559322034,29.880952380952383,18.305084745762713,31.071428571428573C19.322033898305087,32.26190476190476,20.338983050847457,32.976190476190474,21.35593220338983,33.57142857142857C22.372881355932204,34.166666666666664,23.389830508474574,34.22619047619048,24.406779661016948,34.642857142857146C25.423728813559322,35.05952380952381,26.440677966101696,36.07142857142857,27.45762711864407,36.07142857142857C28.47457627118644,36.07142857142857,29.491525423728813,35,30.508474576271183,35C31.525423728813557,35,32.54237288135593,35.357142857142854,33.559322033898304,35.357142857142854C34.57627118644068,35.357142857142854,35.59322033898305,35.11904761904762,36.610169491525426,34.642857142857146C37.6271186440678,34.16666666666667,38.644067796610166,32.5,39.66101694915254,32.5C40.67796610169491,32.5,41.69491525423729,33.69047619047619,42.71186440677966,33.92857142857143C43.728813559322035,34.16666666666667,44.7457627118644,34.28571428571429,45.762711864406775,34.28571428571429C46.77966101694915,34.28571428571429,47.79661016949152,33.57142857142857,48.813559322033896,33.57142857142857C49.83050847457627,33.57142857142857,50.847457627118644,34.583333333333336,51.86440677966102,35C52.88135593220339,35.416666666666664,53.898305084745765,36.07142857142857,54.91525423728814,36.07142857142857C55.93220338983051,36.07142857142857,56.94915254237288,36.07142857142857,57.96610169491525,36.07142857142857C58.983050847457626,36.07142857142857,59.99999999999999,39.642857142857146,61.01694915254237,39.642857142857146C62.03389830508474,39.642857142857146,63.05084745762712,35,64.0677966101695,35C65.08474576271186,35,66.10169491525424,35,67.11864406779661,35C68.13559322033899,35,69.15254237288136,34.28571428571429,70.16949152542374,34.28571428571429C71.1864406779661,34.28571428571429,72.20338983050848,35.357142857142854,73.22033898305085,35.357142857142854C74.23728813559322,35.357142857142854,75.2542372881356,34.642857142857146,76.27118644067797,34.642857142857146C77.28813559322033,34.642857142857146,78.30508474576271,36.42857142857143,79.32203389830508,36.42857142857143C80.33898305084746,36.42857142857143,81.35593220338983,35,82.37288135593221,35C83.38983050847457,35,84.40677966101696,38.33333333333333,85.42372881355932,38.57142857142857C86.4406779661017,38.80952380952381,87.45762711864407,38.92857142857143,88.47457627118645,38.92857142857143C89.49152542372882,38.92857142857143,90.50847457627118,38.92857142857143,91.52542372881355,38.92857142857143C92.54237288135593,38.92857142857143,93.55932203389831,37.5,94.57627118644069,37.5C95.59322033898306,37.5,96.61016949152543,40,97.62711864406779,40C98.64406779661016,40,99.66101694915254,38.988095238095234,100.6779661016949,38.57142857142857C101.69491525423729,38.1547619047619,102.71186440677965,37.79761904761905,103.72881355932203,37.5C104.7457627118644,37.202380952380956,105.76271186440678,37.14285714285714,106.77966101694915,36.785714285714285C107.79661016949153,36.42857142857142,108.8135593220339,35.77380952380952,109.83050847457628,35.357142857142854C110.84745762711864,34.94047619047619,111.86440677966102,34.28571428571429,112.88135593220339,34.28571428571429C113.89830508474576,34.28571428571429,114.91525423728814,36.07142857142857,115.9322033898305,36.07142857142857C116.94915254237289,36.07142857142857,117.96610169491525,31.071428571428573,118.98305084745763,31.071428571428573C120,31.071428571428573,121.01694915254237,32.142857142857146,122.03389830508473,32.142857142857146C123.05084745762711,32.142857142857146,124.0677966101695,31.726190476190478,125.08474576271188,31.428571428571427C126.10169491525424,31.13095238095238,127.11864406779662,31.011904761904763,128.135593220339,30.357142857142854C129.15254237288136,29.70238095238095,130.16949152542372,27.5,131.1864406779661,27.5C132.20338983050846,27.5,133.22033898305085,29.642857142857146,134.23728813559322,29.642857142857146C135.25423728813558,29.642857142857146,136.27118644067798,28.0952380952381,137.28813559322035,26.78571428571429C138.3050847457627,25.476190476190478,139.3220338983051,23.154761904761912,140.33898305084747,21.78571428571429C141.35593220338984,20.41666666666668,142.3728813559322,19.345238095238095,143.38983050847457,18.571428571428573C144.40677966101694,17.797619047619044,145.42372881355934,17.559523809523814,146.4406779661017,17.142857142857146C147.45762711864407,16.72619047619048,148.47457627118644,16.071428571428573,149.4915254237288,16.071428571428573C150.50847457627117,16.071428571428573,151.52542372881356,16.785714285714285,152.54237288135593,16.785714285714285C153.5593220338983,16.785714285714285,154.5762711864407,7.73809523809524,155.59322033898306,7.5C156.61016949152543,7.261904761904763,157.6271186440678,7.142857142857144,158.64406779661016,7.142857142857144C159.66101694915253,7.142857142857144,160.67796610169492,10.238095238095237,161.6949152542373,11.785714285714285C162.71186440677965,13.333333333333332,163.72881355932205,14.285714285714269,164.74576271186442,16.428571428571427C165.76271186440678,18.571428571428566,166.77966101694915,24.642857142857146,167.79661016949152,24.642857142857146C168.81355932203388,24.642857142857146,169.83050847457628,17.142857142857146,170.84745762711864,17.142857142857146C171.864406779661,17.142857142857146,172.8813559322034,20.416666666666664,173.89830508474577,23.21428571428571C174.91525423728814,26.01190476190476,175.93220338983053,32.261904761904745,176.9491525423729,33.92857142857143C177.96610169491527,35.595238095238095,178.98305084745763,36.011904761904766,180,36.42857142857143"></path><path class="axis-ceiling" stroke-width="1" stroke="black" fill="none" d="M175,0L180,0"></path><text class="axis-ceiling-label" font-family="sans-serif" text-anchor="end" font-size="10px" x="170" y="2.5">100</text></g></svg>