<svg xmlns="http://www.w3.org/2000/svg" viewBox="0 0 180 60"><g transform="translate(0,20)"><path class="area" fill="rgba(0, 0, 0, 0.2)" d="M0,17.818181818181817C1.0169491525423728,21.03030303030303,2.0338983050847457,24.242424242424242,3.0508474576271185,24.242424242424242C4.067796610169491,24.242424242424242,5.084745762711864,24,6.101694915254237,24C7.11864406779661,24,8.135593220338983,24.92929292929293,9.152542372881356,25.212121212121215C10.169491525423728,25.4949494949495,11.186440677966102,25.616161616161612,12.203389830508474,25.696969696969695C13.220338983050846,25.77777777777778,14.23728813559322,25.81818181818182,15.254237288135592,25.81818181818182C16.271186440677965,25.81818181818182,17.28813559322034,24.727272727272727,18.305084745762713,24.727272727272727C19.322033898305087,24.727272727272727,20.338983050847457,26.303030303030305,21.35593220338983,26.303030303030305C22.372881355932204,26.303030303030305,23.389830508474574,25.49494949494949,24.406779661016948,25.090909090909086C25.423728813559322,24.68686868686868,26.440677966101696,24.323232323232318,27.45762711864407,23.878787878787875C28.47457627118644,23.434343434343432,29.491525423728813,22.424242424242422,30.508474576271183,22.424242424242422C31.525423728813557,22.424242424242422,32.54237288135593,31.515151515151516,33.559322033898304,31.515151515151516C34.57627118644068,31.515151515151516,35.59322033898305,22.62626262626263,36.610169491525426,22.303030303030305C37.6271186440678,21.97979797979798,38.644067796610166,21.818181818181817,39.66101694915254,21.818181818181817C40.67796610169491,21.818181818181817,41.69491525423729,24.484848484848484,42.71186440677966,24.484848484848484C43.728813559322035,24.484848484848484,44.7457627118644,22.626262626262626,45.762711864406775,22.060606060606062C46.77966101694915,21.494949494949495,47.79661016949152,21.090909090909093,48.813559322033896,21.090909090909093C49.83050847457627,21.090909090909093,50.847457627118644,26.545454545454543,51.86440677966102,26.545454545454543C52.88135593220339,26.545454545454543,53.898305084745765,19.63636363636364,54.91525423728814,19.63636363636364C55.93220338983051,19.63636363636364,56.94915254237288,24.96969696969697,57.96610169491525,24.96969696969697C58.983050847457626,24.96969696969697,59.99999999999999,20.242424242424242,61.01694915254237,20.242424242424242C62.03389830508474,20.242424242424242,63.05084745762712,21.818181818181817,64.0677966101695,21.818181818181817C65.08474576271186,21.818181818181817,66.10169491525424,15.878787878787879,67.11864406779661,15.878787878787879C68.13559322033899,15.878787878787879,69.15254237288136,25.81818181818182,70.16949152542374,25.81818181818182C71.1864406779661,25.81818181818182,72.20338983050848,22.92929292929293,73.22033898305085,19.87878787878788C74.23728813559322,16.828282828282827,75.2542372881356,7.515151515151515,76.27118644067797,7.515151515151515C77.28813559322033,7.515151515151515,78.30508474576271,17.454545454545457,79.32203389830508,17.454545454545457C80.33898305084746,17.454545454545457,81.35593220338983,17.09090909090909,82.37288135593221,17.09090909090909C83.38983050847457,17.09090909090909,84.40677966101696,19.030303030303028,85.42372881355932,19.030303030303028C86.4406779661017,19.030303030303028,87.45762711864407,18.505050505050505,88.47457627118645,17.454545454545457C89.49152542372882,16.40404040404042,90.50847457627118,3.5151515151515156,91.52542372881355,3.5151515151515156C92.54237288135593,3.5151515151515156,93.55932203389831,19.757575757575758,94.57627118644069,19.757575757575758C95.59322033898306,19.757575757575758,96.61016949152543,18.060606060606062,97.62711864406779,18.060606060606062C98.64406779661016,18.060606060606062,99.66101694915254,25.292929292929298,100.6779661016949,28.363636363636363C101.69491525423729,31.434343434343443,102.71186440677965,36.484848484848484,103.72881355932203,36.484848484848484C104.7457627118644,36.484848484848484,105.76271186440678,1.333333333333333,106.77966101694915,1.333333333333333C107.79661016949153,1.333333333333333,108.8135593220339,32.24242424242424,109.83050847457628,32.24242424242424C110.84745762711864,32.24242424242424,111.86440677966102,29.85858585858586,112.88135593220339,28.72727272727273C113.89830508474576,27.5959595959596,114.91525423728814,26.707070707070702,115.9322033898305,25.454545454545453C116.94915254237289,24.202020202020197,117.96610169491525,23.43434343434345,118.98305084745763,21.21212121212121C120,18.98989898989899,121.01694915254237,12.12121212121212,122.03389830508473,12.12121212121212C123.05084745762711,12.12121212121212,124.0677966101695,21.212121212121197,125.08474576271188,22.424242424242422C126.10169491525424,23.636363636363637,127.11864406779662,24.242424242424242,128.135593220339,24.242424242424242C129.15254237288136,24.242424242424242,130.16949152542372,24.242424242424242,131.1864406779661,24.242424242424242C132.20338983050846,24.242424242424242,133.22033898305085,29.252525252525256,134.23728813559322,29.333333333333336C135.25423728813558,29.414141414141415,136.27118644067798,29.454545454545453,137.28813559322035,29.454545454545453C138.3050847457627,29.454545454545453,139.3220338983051,24.848484848484855,140.33898305084747,24.60606060606061C141.35593220338984,24.363636363636363,142.3728813559322,24.242424242424242,143.38983050847457,24.242424242424242C144.40677966101694,24.242424242424242,145.42372881355934,24.242424242424242,146.4406779661017,24.242424242424242C147.45762711864407,24.242424242424242,148.47457627118644,24,149.4915254237288,24C150.50847457627117,24,151.52542372881356,24.242424242424242,152.54237288135593,24.242424242424242C153.5593220338983,24.242424242424242,154.5762711864407,24.242424242424242,155.59322033898306,24.242424242424242C156.61016949152543,24.242424242424242,157.6271186440678,37.81818181818182,158.64406779661016,37.81818181818182C159.66101694915253,37.81818181818182,160.67796610169492,36.60606060606061,161.6949152542373,34.18181818181818C162.71186440677965,31.757575757575754,163.72881355932205,0.7272727272727275,164.74576271186442,0.7272727272727275C165.76271186440678,0.7272727272727275,166.77966101694915,40,167.79661016949152,40C168.81355932203388,40,169.83050847457628,28.161616161616163,170.84745762711864,26.303030303030305C171.864406779661,24.444444444444446,172.8813559322034,23.515151515151516,173.89830508474577,23.515151515151516C174.91525423728814,23.515151515151516,175.93220338983053,27.616161616161616,176.9491525423729,29.090909090909093C177.96610169491527,30.565656565656557,178.98305084745763,31.46464646464646,180,32.36363636363636L180,40C178.98305084745763,40,177.96610169491527,40,176.9491525423729,40C175.93220338983053,40,174.91525423728814,40,173.89830508474577,40C172.8813559322034,40,171.864406779661,40,170.84745762711864,40C169.83050847457628,40,168.81355932203388,40,167.79661016949152,40C166.77966101694915,40,165.76271186440678,40,164.74576271186442,40C163.72881355932205,40,162.71186440677965,40,161.6949152542373,40C160.67796610169492,40,159.66101694915253,40,158.64406779661016,40C157.6271186440678,40,156.61016949152543,40,155.59322033898306,40C154.5762711864407,40,153.5593220338983,40,152.54237288135593,40C151.52542372881356,40,150.50847457627117,40,149.4915254237288,40C148.47457627118644,40,147.45762711864407,40,146.4406779661017,40C145.42372881355934,40,144.40677966101694,40,143.38983050847457,40C142.3728813559322,40,141.35593220338984,40,140.33898305084747,40C139.3220338983051,40,138.3050847457627,40,137.28813559322035,40C136.27118644067798,40,135.25423728813558,40,134.23728813559322,40C133.22033898305085,40,132.20338983050846,40,131.1864406779661,40C130.16949152542372,40,129.15254237288136,40,128.135593220339,40C127.11864406779662,40,126.10169491525424,40,125.08474576271188,40C124.0677966101695,40,123.05084745762711,40,122.03389830508473,40C121.01694915254237,40,120,40,118.98305084745763,40C117.96610169491525,40,116.94915254237289,40,115.9322033898305,40C114.91525423728814,40,113.89830508474576,40,112.88135593220339,40C111.86440677966102,40,110.84745762711864,40,109.83050847457628,40C108.8135593220339,40,107.79661016949153,40,106.77966101694915,40C105.76271186440678,40,104.7457627118644,40,103.72881355932203,40C102.71186440677965,40,101.69491525423729,40,100.6779661016949,40C99.66101694915254,40,98.64406779661016,40,97.62711864406779,40C96.61016949152543,40,95.59322033898306,40,94.57627118644069,40C93.55932203389831,40,92.54237288135593,40,91.52542372881355,40C90.50847457627118,40,89.49152542372882,40,88.47457627118645,40C87.45762711864407,40,86.4406779661017,40,85.42372881355932,40C84.40677966101696,40,83.38983050847457,40,82.37288135593221,40C81.35593220338983,40,80.33898305084746,40,79.32203389830508,40C78.30508474576271,40,77.28813559322033,40,76.27118644067797,40C75.2542372881356,40,74.23728813559322,40,73.22033898305085,40C72.20338983050848,40,71.1864406779661,40,70.16949152542374,40C69.15254237288136,40,68.13559322033899,40,67.11864406779661,40C66.10169491525424,40,65.08474576271186,40,64.0677966101695,40C63.05084745762712,40,62.03389830508474,40,61.01694915254237,40C59.99999999999999,40,58.983050847457626,40,57.96610169491525,40C56.94915254237288,40,55.93220338983051,40,54.91525423728814,40C53.898305084745765,40,52.88135593220339,40,51.86440677966102,40C50.847457627118644,40,49.83050847457627,40,48.813559322033896,40C47.79661016949152,40,46.77966101694915,40,45.762711864406775,40C44.7457627118644,40,43.728813559322035,40,42.71186440677966,40C41.69491525423729,40,40.67796610169491,40,39.66101694915254,40C38.644067796610166,40,37.6271186440678,40,36.610169491525426,40C35.59322033898305,40,34.57627118644068,40,33.559322033898304,40C32.54237288135593,40,31.525423728813557,40,30.508474576271183,40C29.491525423728813,40,28.47457627118644,40,27.45762711864407,40C26.440677966101696,40,25.423728813559322,40,24.406779661016948,40C23.389830508474574,40,22.372881355932204,40,21.35593220338983,40C20.338983050847457,40,19.322033898305087,40,18.305084745762713,40C17.28813559322034,40,16.271186440677965,40,15.254237288135592,40C14.23728813559322,40,13.220338983050846,40,12.203389830508474,40C11.186440677966102,40,10.169491525423728,40,9.152542372881356,40C8.135593220338983,40,7.11864406779661,40,6.101694915254237,40C5.084745762711864,40,4.067796610169491,40,3.0508474576271185,40C2.0338983050847457,40,1.0169491525423728,40,0,40Z"></path><path class="line" stroke="black" fill="none" d="M0,17.818181818181817C1.0169491525423728,21.03030303030303,2.0338983050847457,24.242424242424242,3.0508474576271185,24.242424242424242C4.067796610169491,24.242424242424242,5.084745762711864,24,6.101694915254237,24C7.11864406779661,24,8.135593220338983,24.92929292929293,9.152542372881356,25.212121212121215C10.169491525423728,25.4949494949495,11.186440677966102,25.616161616161612,12.203389830508474,25.696969696969695C13.220338983050846,25.77777777777778,14.23728813559322,25.81818181818182,15.254237288135592,25.81818181818182C16.271186440677965,25.81818181818182,17.28813559322034,24.727272727272727,18.305084745762713,24.727272727272727C19.322033898305087,24.727272727272727,20.338983050847457,26.303030303030305,21.35593220338983,26.303030303030305C22.372881355932204,26.303030303030305,23.389830508474574,25.49494949494949,24.406779661016948,25.090909090909086C25.423728813559322,24.68686868686868,26.440677966101696,24.323232323232318,27.45762711864407,23.878787878787875C28.47457627118644,23.434343434343432,29.491525423728813,22.424242424242422,30.508474576271183,22.424242424242422C31.525423728813557,22.424242424242422,32.54237288135593,31.515151515151516,33.559322033898304,31.515151515151516C34.57627118644068,31.515151515151516,35.59322033898305,22.62626262626263,36.610169491525426,22.303030303030305C37.6271186440678,21.97979797979798,38.644067796610166,21.818181818181817,39.66101694915254,21.818181818181817C40.67796610169491,21.818181818181817,41.69491525423729,24.484848484848484,42.71186440677966,24.484848484848484C43.728813559322035,24.484848484848484,44.7457627118644,22.626262626262626,45.762711864406775,22.060606060606062C46.77966101694915,21.494949494949495,47.79661016949152,21.090909090909093,48.813559322033896,21.090909090909093C49.83050847457627,21.090909090909093,50.847457627118644,26.545454545454543,51.86440677966102,26.545454545454543C52.88135593220339,26.545454545454543,53.898305084745765,19.63636363636364,54.91525423728814,19.63636363636364C55.93220338983051,19.63636363636364,56.94915254237288,24.96969696969697,57.96610169491525,24.96969696969697C58.983050847457626,24.96969696969697,59.99999999999999,20.242424242424242,61.01694915254237,20.242424242424242C62.03389830508474,20.242424242424242,63.05084745762712,21.818181818181817,64.0677966101695,21.818181818181817C65.08474576271186,21.818181818181817,66.10169491525424,15.878787878787879,67.11864406779661,15.878787878787879C68.13559322033899,15.878787878787879,69.15254237288136,25.81818181818182,70.16949152542374,25.81818181818182C71.1864406779661,25.81818181818182,72.20338983050848,22.92929292929293,73.22033898305085,19.87878787878788C74.23728813559322,16.828282828282827,75.2542372881356,7.515151515151515,76.27118644067797,7.515151515151515C77.28813559322033,7.515151515151515,78.30508474576271,17.454545454545457,79.32203389830508,17.454545454545457C80.33898305084746,17.454545454545457,81.35593220338983,17.09090909090909,82.37288135593221,17.09090909090909C83.38983050847457,17.09090909090909,84.40677966101696,19.030303030303028,85.42372881355932,19.030303030303028C86.4406779661017,19.030303030303028,87.45762711864407,18.505050505050505,88.47457627118645,17.454545454545457C89.49152542372882,16.40404040404042,90.50847457627118,3.5151515151515156,91.52542372881355,3.5151515151515156C92.54237288135593,3.5151515151515156,93.55932203389831,19.757575757575758,94.57627118644069,19.757575757575758C95.59322033898306,19.757575757575758,96.61016949152543,18.060606060606062,97.62711864406779,18.060606060606062C98.64406779661016,18.060606060606062,99.66101694915254,25.292929292929298,100.6779661016949,28.363636363636363C101.69491525423729,31.434343434343443,102.71186440677965,36.484848484848484,103.72881355932203,36.484848484848484C104.7457627118644,36.484848484848484,105.76271186440678,1.333333333333333,106.77966101694915,1.333333333333333C107.79661016949153,1.333333333333333,108.8135593220339,32.24242424242424,109.83050847457628,32.24242424242424C110.84745762711864,32.24242424242424,111.86440677966102,29.85858585858586,112.88135593220339,28.72727272727273C113.89830508474576,27.5959595959596,114.91525423728814,26.707070707070702,115.9322033898305,25.454545454545453C116.94915254237289,24.202020202020197,117.96610169491525,23.43434343434345,118.98305084745763,21.21212121212121C120,18.98989898989899,121.01694915254237,12.12121212121212,122.03389830508473,12.12121212121212C123.05084745762711,12.12121212121212,124.0677966101695,21.212121212121197,125.08474576271188,22.424242424242422C126.10169491525424,23.636363636363637,127.11864406779662,24.242424242424242,128.135593220339,24.242424242424242C129.15254237288136,24.242424242424242,130.16949152542372,24.242424242424242,131.1864406779661,24.242424242424242C132.20338983050846,24.242424242424242,133.22033898305085,29.252525252525256,134.23728813559322,29.333333333333336C135.25423728813558,29.414141414141415,136.27118644067798,29.454545454545453,137.28813559322035,29.454545454545453C138.3050847457627,29.454545454545453,139.3220338983051,24.848484848484855,140.33898305084747,24.60606060606061C141.35593220338984,24.363636363636363,142.3728813559322,24.242424242424242,143.38983050847457,24.242424242424242C144.40677966101694,24.242424242424242,145.42372881355934,24.242424242424242,146.4406779661017,24.242424242424242C147.45762711864407,24.242424242424242,148.47457627118644,24,149.4915254237288,24C150.50847457627117,24,151.52542372881356,24.242424242424242,152.54237288135593,24.242424242424242C153.5593220338983,24.242424242424242,154.5762711864407,24.242424242424242,155.59322033898306,24.242424242424242C156.61016949152543,24.242424242424242,157.6271186440678,37.81818181818182,158.64406779661016,37.81818181818182C159.66101694915253,37.81818181818182,160.67796610169492,36.60606060606061,161.6949152542373,34.18181818181818C162.71186440677965,31.757575757575754,163.72881355932205,0.7272727272727275,164.74576271186442,0.7272727272727275C165.76271186440678,0.7272727272727275,166.77966101694915,40,167.79661016949152,40C168.81355932203388,40,169.83050847457628,28.161616161616163,170.84745762711864,26.303030303030305C171.864406779661,24.444444444444446,172.8813559322034,23.515151515151516,173.89830508474577,23.515151515151516C174.91525423728814,23.515151515151516,175.93220338983053,27.616161616161616,176.9491525423729,29.090909090909093C177.96610169491527,30.565656565656557,178.98305084745763,31.46464646464646,180,32.36363636363636"></path><path class="axis-ceiling" stroke-width="1" stroke="black" fill="none" d="M175,0L180,0"></path><text class="axis-ceiling-label" font-family="sans-serif" text-anchor="end" font-size="10px" x="170" y="2.5">200</text></g></svg>