<svg xmlns="http://www.w3.org/2000/svg" viewBox="0 0 180 60"><g transform="translate(0,20)"><path class="area" fill="rgba(0, 0, 0, 0.2)" d="M0,40C1.0169491525423728,32.244897959183675,2.0338983050847457,24.48979591836735,3.0508474576271185,24.48979591836735C4.067796610169491,24.48979591836735,5.084745762711864,24.48979591836735,6.101694915254237,24.48979591836735C7.11864406779661,24.48979591836735,8.135593220338983,24.48979591836735,9.152542372881356,24.48979591836735C10.169491525423728,24.48979591836735,11.186440677966102,24.48979591836735,12.203389830508474,24.48979591836735C13.220338983050846,24.48979591836735,14.23728813559322,24.48979591836735,15.254237288135592,24.48979591836735C16.271186440677965,24.48979591836735,17.28813559322034,24.48979591836735,18.305084745762713,24.48979591836735C19.322033898305087,24.48979591836735,20.338983050847457,24.48979591836735,21.35593220338983,24.48979591836735C22.372881355932204,24.48979591836735,23.389830508474574,23.6734693877551,24.406779661016948,23.6734693877551C25.423728813559322,23.6734693877551,26.440677966101696,23.6734693877551,27.45762711864407,23.6734693877551C28.47457627118644,23.6734693877551,29.491525423728813,23.6734693877551,30.508474576271183,23.6734693877551C31.525423728813557,23.6734693877551,32.54237288135593,23.6734693877551,33.559322033898304,23.6734693877551C34.57627118644068,23.6734693877551,35.59322033898305,22.857142857142854,36.610169491525426,22.857142857142854C37.6271186440678,22.857142857142854,38.644067796610166,22.857142857142854,39.66101694915254,22.857142857142854C40.67796610169491,22.857142857142854,41.69491525423729,22.04081632653061,42.71186440677966,22.04081632653061C43.728813559322035,22.04081632653061,44.7457627118644,22.857142857142854,45.762711864406775,22.857142857142854C46.77966101694915,22.857142857142854,47.79661016949152,22.857142857142854,48.813559322033896,22.857142857142854C49.83050847457627,22.857142857142854,50.847457627118644,22.04081632653061,51.86440677966102,22.04081632653061C52.88135593220339,22.04081632653061,53.898305084745765,22.04081632653061,54.91525423728814,22.04081632653061C55.93220338983051,22.04081632653061,56.94915254237288,22.857142857142854,57.96610169491525,22.857142857142854C58.983050847457626,22.857142857142854,59.99999999999999,22.857142857142854,61.01694915254237,22.857142857142854C62.03389830508474,22.857142857142854,63.05084745762712,23.6734693877551,64.0677966101695,23.6734693877551C65.08474576271186,23.6734693877551,66.10169491525424,22.04081632653061,67.11864406779661,22.04081632653061C68.13559322033899,22.04081632653061,69.15254237288136,22.04081632653061,70.16949152542374,22.04081632653061C71.1864406779661,22.04081632653061,72.20338983050848,21.224489795918366,73.22033898305085,21.224489795918366C74.23728813559322,21.224489795918366,75.2542372881356,21.224489795918366,76.27118644067797,21.224489795918366C77.28813559322033,21.224489795918366,78.30508474576271,20.952380952380953,79.32203389830508,20.408163265306122C80.33898305084746,19.86394557823129,81.35593220338983,17.95918367346939,82.37288135593221,17.142857142857146C83.38983050847457,16.326530612244905,84.40677966101696,15.510204081632653,85.42372881355932,15.510204081632653C86.4406779661017,15.510204081632653,87.45762711864407,15.510204081632653,88.47457627118645,15.510204081632653C89.49152542372882,15.510204081632653,90.50847457627118,16.3265306122449,91.52542372881355,16.3265306122449C92.54237288135593,16.3265306122449,93.55932203389831,16.3265306122449,94.57627118644069,16.3265306122449C95.59322033898306,16.3265306122449,96.61016949152543,14.149659863945576,97.62711864406779,13.061224489795919C98.64406779661016,11.972789115646258,99.66101694915254,10.612244897959185,100.6779661016949,9.79591836734694C101.69491525423729,8.979591836734693,102.71186440677965,8.707482993197281,103.72881355932203,8.16326530612245C104.7457627118644,7.61904761904762,105.76271186440678,6.5306122448979576,106.77966101694915,6.5306122448979576C107.79661016949153,6.5306122448979576,108.8135593220339,7.346938775510203,109.83050847457628,7.346938775510203C110.84745762711864,7.346938775510203,111.86440677966102,6.122448979591838,112.88135593220339,5.714285714285716C113.89830508474576,5.306122448979594,114.91525423728814,4.89795918367347,115.9322033898305,4.89795918367347C116.94915254237289,4.89795918367347,117.96610169491525,7.346938775510203,118.98305084745763,7.346938775510203C120,7.346938775510203,121.01694915254237,6.80272108843537,122.03389830508473,6.5306122448979576C123.05084745762711,6.258503401360541,124.0677966101695,5.714285714285716,125.08474576271188,5.714285714285716C126.10169491525424,5.714285714285716,127.11864406779662,8.979591836734695,128.135593220339,8.979591836734695C129.15254237288136,8.979591836734695,130.16949152542372,7.346938775510203,131.1864406779661,7.346938775510203C132.20338983050846,7.346938775510203,133.22033898305085,8.979591836734695,134.23728813559322,9.79591836734694C135.25423728813558,10.612244897959187,136.27118644067798,12.244897959183675,137.28813559322035,12.244897959183675C138.3050847457627,12.244897959183675,139.3220338983051,4.081632653061225,140.33898305084747,4.081632653061225C141.35593220338984,4.081632653061225,142.3728813559322,4.625850340136056,143.38983050847457,4.89795918367347C144.40677966101694,5.1700680272108865,145.42372881355934,5.714285714285716,146.4406779661017,5.714285714285716C147.45762711864407,5.714285714285716,148.47457627118644,5.714285714285716,149.4915254237288,5.714285714285716C150.50847457627117,5.714285714285716,151.52542372881356,6.5306122448979576,152.54237288135593,6.5306122448979576C153.5593220338983,6.5306122448979576,154.5762711864407,5.442176870748303,155.59322033898306,4.89795918367347C156.61016949152543,4.353741496598643,157.6271186440678,3.2653061224489788,158.64406779661016,3.2653061224489788C159.66101694915253,3.2653061224489788,160.67796610169492,11.156462585034017,161.6949152542373,13.877551020408166C162.71186440677965,16.598639455782315,163.72881355932205,18.231292517006803,164.74576271186442,19.591836734693878C165.76271186440678,20.952380952380942,166.77966101694915,21.088435374149665,167.79661016949152,22.04081632653061C168.81355932203388,22.993197278911566,169.83050847457628,25.306122448979593,170.84745762711864,25.306122448979593C171.864406779661,25.306122448979593,172.8813559322034,22.857142857142854,173.89830508474577,22.857142857142854C174.91525423728814,22.857142857142854,175.93220338983053,23.6734693877551,176.9491525423729,23.6734693877551C177.96610169491527,23.6734693877551,178.98305084745763,23.6734693877551,180,23.6734693877551L180,40C178.98305084745763,40,177.96610169491527,40,176.9491525423729,40C175.93220338983053,40,174.91525423728814,40,173.89830508474577,40C172.8813559322034,40,171.864406779661,40,170.84745762711864,40C169.83050847457628,40,168.81355932203388,40,167.79661016949152,40C166.77966101694915,40,165.76271186440678,40,164.74576271186442,40C163.72881355932205,40,162.71186440677965,40,161.6949152542373,40C160.67796610169492,40,159.66101694915253,40,158.64406779661016,40C157.6271186440678,40,156.61016949152543,40,155.59322033898306,40C154.5762711864407,40,153.5593220338983,40,152.54237288135593,40C151.52542372881356,40,150.50847457627117,40,149.4915254237288,40C148.47457627118644,40,147.45762711864407,40,146.4406779661017,40C145.42372881355934,40,144.40677966101694,40,143.38983050847457,40C142.3728813559322,40,141.35593220338984,40,140.33898305084747,40C139.3220338983051,40,138.3050847457627,40,137.28813559322035,40C136.27118644067798,40,135.25423728813558,40,134.23728813559322,40C133.22033898305085,40,132.20338983050846,40,131.1864406779661,40C130.16949152542372,40,129.15254237288136,40,128.135593220339,40C127.11864406779662,40,126.10169491525424,40,125.08474576271188,40C124.0677966101695,40,123.05084745762711,40,122.03389830508473,40C121.01694915254237,40,120,40,118.98305084745763,40C117.96610169491525,40,116.94915254237289,40,115.9322033898305,40C114.91525423728814,40,113.89830508474576,40,112.88135593220339,40C111.86440677966102,40,110.84745762711864,40,109.83050847457628,40C108.8135593220339,40,107.79661016949153,40,106.77966101694915,40C105.76271186440678,40,104.7457627118644,40,103.72881355932203,40C102.71186440677965,40,101.69491525423729,40,100.6779661016949,40C99.66101694915254,40,98.64406779661016,40,97.62711864406779,40C96.61016949152543,40,95.59322033898306,40,94.57627118644069,40C93.55932203389831,40,92.54237288135593,40,91.52542372881355,40C90.50847457627118,40,89.49152542372882,40,88.47457627118645,40C87.45762711864407,40,86.4406779661017,40,85.42372881355932,40C84.40677966101696,40,83.38983050847457,40,82.37288135593221,40C81.35593220338983,40,80.33898305084746,40,79.32203389830508,40C78.30508474576271,40,77.28813559322033,40,76.27118644067797,40C75.2542372881356,40,74.23728813559322,40,73.22033898305085,40C72.20338983050848,40,71.1864406779661,40,70.16949152542374,40C69.15254237288136,40,68.13559322033899,40,67.11864406779661,40C66.10169491525424,40,65.08474576271186,40,64.0677966101695,40C63.05084745762712,40,62.03389830508474,40,61.01694915254237,40C59.99999999999999,40,58.983050847457626,40,57.96610169491525,40C56.94915254237288,40,55.93220338983051,40,54.91525423728814,40C53.898305084745765,40,52.88135593220339,40,51.86440677966102,40C50.847457627118644,40,49.83050847457627,40,48.813559322033896,40C47.79661016949152,40,46.77966101694915,40,45.762711864406775,40C44.7457627118644,40,43.728813559322035,40,42.71186440677966,40C41.69491525423729,40,40.67796610169491,40,39.66101694915254,40C38.644067796610166,40,37.6271186440678,40,36.610169491525426,40C35.59322033898305,40,34.57627118644068,40,33.559322033898304,40C32.54237288135593,40,31.525423728813557,40,30.508474576271183,40C29.491525423728813,40,28.47457627118644,40,27.45762711864407,40C26.440677966101696,40,25.423728813559322,40,24.406779661016948,40C23.389830508474574,40,22.372881355932204,40,21.35593220338983,40C20.338983050847457,40,19.322033898305087,40,18.305084745762713,40C17.28813559322034,40,16.271186440677965,40,15.254237288135592,40C14.23728813559322,40,13.220338983050846,40,12.203389830508474,40C11.186440677966102,40,10.169491525423728,40,9.152542372881356,40C8.135593220338983,40,7.11864406779661,40,6.101694915254237,40C5.084745762711864,40,4.067796610169491,40,3.0508474576271185,40C2.0338983050847457,40,1.0169491525423728,40,0,40Z"></path><path class="line" stroke="black" fill="none" d="M0,40C1.0169491525423728,32.244897959183675,2.0338983050847457,24.48979591836735,3.0508474576271185,24.48979591836735C4.067796610169491,24.48979591836735,5.084745762711864,24.48979591836735,6.101694915254237,24.48979591836735C7.11864406779661,24.48979591836735,8.135593220338983,24.48979591836735,9.152542372881356,24.48979591836735C10.169491525423728,24.48979591836735,11.186440677966102,24.48979591836735,12.203389830508474,24.48979591836735C13.220338983050846,24.48979591836735,14.23728813559322,24.48979591836735,15.254237288135592,24.48979591836735C16.271186440677965,24.48979591836735,17.28813559322034,24.48979591836735,18.305084745762713,24.48979591836735C19.322033898305087,24.48979591836735,20.338983050847457,24.48979591836735,21.35593220338983,24.48979591836735C22.372881355932204,24.48979591836735,23.389830508474574,23.6734693877551,24.406779661016948,23.6734693877551C25.423728813559322,23.6734693877551,26.440677966101696,23.6734693877551,27.45762711864407,23.6734693877551C28.47457627118644,23.6734693877551,29.491525423728813,23.6734693877551,30.508474576271183,23.6734693877551C31.525423728813557,23.6734693877551,32.54237288135593,23.6734693877551,33.559322033898304,23.6734693877551C34.57627118644068,23.6734693877551,35.59322033898305,22.857142857142854,36.610169491525426,22.857142857142854C37.6271186440678,22.857142857142854,38.644067796610166,22.857142857142854,39.66101694915254,22.857142857142854C40.67796610169491,22.857142857142854,41.69491525423729,22.04081632653061,42.71186440677966,22.04081632653061C43.728813559322035,22.04081632653061,44.7457627118644,22.857142857142854,45.762711864406775,22.857142857142854C46.77966101694915,22.857142857142854,47.79661016949152,22.857142857142854,48.813559322033896,22.857142857142854C49.83050847457627,22.857142857142854,50.847457627118644,22.04081632653061,51.86440677966102,22.04081632653061C52.88135593220339,22.04081632653061,53.898305084745765,22.04081632653061,54.91525423728814,22.04081632653061C55.93220338983051,22.04081632653061,56.94915254237288,22.857142857142854,57.96610169491525,22.857142857142854C58.983050847457626,22.857142857142854,59.99999999999999,22.857142857142854,61.01694915254237,22.857142857142854C62.03389830508474,22.857142857142854,63.05084745762712,23.6734693877551,64.0677966101695,23.6734693877551C65.08474576271186,23.6734693877551,66.10169491525424,22.04081632653061,67.11864406779661,22.04081632653061C68.13559322033899,22.04081632653061,69.15254237288136,22.04081632653061,70.16949152542374,22.04081632653061C71.1864406779661,22.04081632653061,72.20338983050848,21.224489795918366,73.22033898305085,21.224489795918366C74.23728813559322,21.224489795918366,75.2542372881356,21.224489795918366,76.27118644067797,21.224489795918366C77.28813559322033,21.224489795918366,78.30508474576271,20.952380952380953,79.32203389830508,20.408163265306122C80.33898305084746,19.86394557823129,81.35593220338983,17.95918367346939,82.37288135593221,17.142857142857146C83.38983050847457,16.326530612244905,84.40677966101696,15.510204081632653,85.42372881355932,15.510204081632653C86.4406779661017,15.510204081632653,87.45762711864407,15.510204081632653,88.47457627118645,15.510204081632653C89.49152542372882,15.510204081632653,90.50847457627118,16.3265306122449,91.52542372881355,16.3265306122449C92.54237288135593,16.3265306122449,93.55932203389831,16.3265306122449,94.57627118644069,16.3265306122449C95.59322033898306,16.3265306122449,96.61016949152543,14.149659863945576,97.62711864406779,13.061224489795919C98.64406779661016,11.972789115646258,99.66101694915254,10.612244897959185,100.6779661016949,9.79591836734694C101.69491525423729,8.979591836734693,102.71186440677965,8.707482993197281,103.72881355932203,8.16326530612245C104.7457627118644,7.61904761904762,105.76271186440678,6.5306122448979576,106.77966101694915,6.5306122448979576C107.79661016949153,6.5306122448979576,108.8135593220339,7.346938775510203,109.83050847457628,7.346938775510203C110.84745762711864,7.346938775510203,111.86440677966102,6.122448979591838,112.88135593220339,5.714285714285716C113.89830508474576,5.306122448979594,114.91525423728814,4.89795918367347,115.9322033898305,4.89795918367347C116.94915254237289,4.89795918367347,117.96610169491525,7.346938775510203,118.98305084745763,7.346938775510203C120,7.346938775510203,121.01694915254237,6.80272108843537,122.03389830508473,6.5306122448979576C123.05084745762711,6.258503401360541,124.0677966101695,5.714285714285716,125.08474576271188,5.714285714285716C126.10169491525424,5.714285714285716,127.11864406779662,8.979591836734695,128.135593220339,8.979591836734695C129.15254237288136,8.979591836734695,130.16949152542372,7.346938775510203,131.1864406779661,7.346938775510203C132.20338983050846,7.346938775510203,133.22033898305085,8.979591836734695,134.23728813559322,9.79591836734694C135.25423728813558,10.612244897959187,136.27118644067798,12.244897959183675,137.28813559322035,12.244897959183675C138.3050847457627,12.244897959183675,139.3220338983051,4.081632653061225,140.33898305084747,4.081632653061225C141.35593220338984,4.081632653061225,142.3728813559322,4.625850340136056,143.38983050847457,4.89795918367347C144.40677966101694,5.1700680272108865,145.42372881355934,5.714285714285716,146.4406779661017,5.714285714285716C147.45762711864407,5.714285714285716,148.47457627118644,5.714285714285716,149.4915254237288,5.714285714285716C150.50847457627117,5.714285714285716,151.52542372881356,6.5306122448979576,152.54237288135593,6.5306122448979576C153.5593220338983,6.5306122448979576,154.5762711864407,5.442176870748303,155.59322033898306,4.89795918367347C156.61016949152543,4.353741496598643,157.6271186440678,3.2653061224489788,158.64406779661016,3.2653061224489788C159.66101694915253,3.2653061224489788,160.67796610169492,11.156462585034017,161.6949152542373,13.877551020408166C162.71186440677965,16.598639455782315,163.72881355932205,18.231292517006803,164.74576271186442,19.591836734693878C165.76271186440678,20.952380952380942,166.77966101694915,21.088435374149665,167.79661016949152,22.04081632653061C168.81355932203388,22.993197278911566,169.83050847457628,25.306122448979593,170.84745762711864,25.306122448979593C171.864406779661,25.306122448979593,172.8813559322034,22.857142857142854,173.89830508474577,22.857142857142854C174.91525423728814,22.857142857142854,175.93220338983053,23.6734693877551,176.9491525423729,23.6734693877551C177.96610169491527,23.6734693877551,178.98305084745763,23.6734693877551,180,23.6734693877551"></path><path class="axis-ceiling" stroke-width="1" stroke="black" fill="none" d="M175,0L180,0"></path><text class="axis-ceiling-label" font-family="sans-serif" text-anchor="end" font-size="10px" x="170" y="2.5">30</text></g></svg>