<svg xmlns="http://www.w3.org/2000/svg" viewBox="0 0 180 60"><g transform="translate(0,20)"><path class="area" fill="rgba(0, 0, 0, 0.2)" d="M0,33.333333333333336C0.4615384615384615,33.333333333333336,0.9230769230769231,33.333333333333336,1.3846153846153846,33.333333333333336C3.230769230769231,33.333333333333336,5.0769230769230775,33.333333333333336,6.923076923076923,33.333333333333336C12,33.333333333333336,17.076923076923077,33.333333333333336,22.153846153846153,33.333333333333336C23.076923076923077,33.333333333333336,24,33.333333333333336,24.923076923076923,33.333333333333336C30,33.333333333333336,35.07692307692308,33.333333333333336,40.15384615384615,33.333333333333336C40.61538461538461,33.333333333333336,41.07692307692308,33.333333333333336,41.53846153846154,33.333333333333336C43.84615384615385,33.333333333333336,46.15384615384615,33.333333333333336,48.46153846153846,33.333333333333336C48.92307692307692,33.333333333333336,49.38461538461539,33.333333333333336,49.84615384615385,33.333333333333336C50.769230769230774,33.333333333333336,51.69230769230769,33.333333333333336,52.61538461538462,33.333333333333336C55.84615384615385,33.333333333333336,59.07692307692308,33.333333333333336,62.30769230769231,33.333333333333336C66.46153846153847,33.333333333333336,70.61538461538461,33.333333333333336,74.76923076923077,33.333333333333336C75.6923076923077,33.333333333333336,76.61538461538463,33.333333333333336,77.53846153846155,33.333333333333336C83.53846153846155,33.333333333333336,89.53846153846153,33.333333333333336,95.53846153846153,33.333333333333336C98.3076923076923,33.333333333333336,101.07692307692307,33.333333333333336,103.84615384615384,33.333333333333336C104.3076923076923,33.333333333333336,104.76923076923077,33.333333333333336,105.23076923076924,33.333333333333336C105.6923076923077,33.333333333333336,106.15384615384616,33.333333333333336,106.61538461538461,33.333333333333336C108.92307692307692,33.333333333333336,111.23076923076923,33.333333333333336,113.53846153846153,33.333333333333336C114.46153846153847,33.333333333333336,115.38461538461539,33.333333333333336,116.30769230769232,33.333333333333336C116.76923076923077,33.333333333333336,117.23076923076924,33.333333333333336,117.6923076923077,33.333333333333336C118.15384615384616,33.333333333333336,118.61538461538461,33.333333333333336,119.07692307692308,33.333333333333336C120,33.333333333333336,120.92307692307693,33.333333333333336,121.84615384615385,33.333333333333336C122.3076923076923,33.333333333333336,122.76923076923077,33.333333333333336,123.23076923076923,33.333333333333336C123.6923076923077,33.333333333333336,124.15384615384615,33.333333333333336,124.61538461538461,33.333333333333336C125.07692307692307,33.333333333333336,125.53846153846153,33.333333333333336,125.99999999999999,33.333333333333336C127.84615384615383,33.333333333333336,129.69230769230768,33.333333333333336,131.53846153846152,33.333333333333336C132.46153846153845,33.333333333333336,133.3846153846154,33.333333333333336,134.30769230769232,33.333333333333336C134.76923076923077,33.333333333333336,135.23076923076923,33.333333333333336,135.69230769230768,33.333333333333336C136.15384615384613,33.333333333333336,136.6153846153846,33.333333333333336,137.07692307692307,33.333333333333336C137.53846153846155,33.333333333333336,138,33.333333333333336,138.46153846153848,33.333333333333336C138.92307692307693,33.333333333333336,139.3846153846154,33.333333333333336,139.84615384615384,33.333333333333336C140.3076923076923,33.333333333333336,140.76923076923077,33.333333333333336,141.23076923076923,33.333333333333336C142.15384615384616,33.333333333333336,143.07692307692307,33.333333333333336,144,33.333333333333336C144.46153846153845,33.333333333333336,144.92307692307693,33.333333333333336,145.3846153846154,33.333333333333336C145.84615384615384,33.333333333333336,146.30769230769232,33.333333333333336,146.76923076923077,33.333333333333336C147.23076923076923,33.333333333333336,147.6923076923077,33.333333333333336,148.15384615384616,33.333333333333336C148.6153846153846,33.333333333333336,149.0769230769231,40,149.53846153846155,40C150,40,150.46153846153848,33.333333333333336,150.92307692307693,33.333333333333336C151.3846153846154,33.333333333333336,151.84615384615384,33.333333333333336,152.3076923076923,33.333333333333336C152.76923076923075,33.333333333333336,153.23076923076923,33.333333333333336,153.69230769230768,33.333333333333336C154.15384615384616,33.333333333333336,154.6153846153846,33.333333333333336,155.0769230769231,33.333333333333336C155.53846153846155,33.333333333333336,156,33.333333333333336,156.46153846153845,33.333333333333336C156.9230769230769,33.333333333333336,157.3846153846154,40,157.84615384615384,40C158.3076923076923,40,158.76923076923077,40,159.23076923076923,40C159.69230769230768,40,160.15384615384616,33.333333333333336,160.6153846153846,33.333333333333336C161.07692307692307,33.333333333333336,161.53846153846155,40,162,40C162.46153846153845,40,162.92307692307693,40,163.3846153846154,40C163.84615384615384,40,164.30769230769232,33.333333333333336,164.76923076923077,33.333333333333336C165.23076923076923,33.333333333333336,165.6923076923077,33.333333333333336,166.15384615384616,33.333333333333336C166.6153846153846,33.333333333333336,167.0769230769231,33.333333333333336,167.53846153846155,33.333333333333336C168,33.333333333333336,168.46153846153848,33.333333333333336,168.92307692307693,33.333333333333336C169.3846153846154,33.333333333333336,169.84615384615384,33.333333333333336,170.3076923076923,33.333333333333336C170.76923076923077,33.333333333333336,171.23076923076923,33.333333333333336,171.6923076923077,33.333333333333336C172.15384615384616,33.333333333333336,172.61538461538464,33.333333333333336,173.0769230769231,33.333333333333336C173.53846153846155,33.333333333333336,174,26.66666666666667,174.46153846153845,26.66666666666667C174.9230769230769,26.66666666666667,175.3846153846154,26.66666666666667,175.84615384615384,26.66666666666667C176.3076923076923,26.66666666666667,176.76923076923077,26.66666666666667,177.23076923076923,26.66666666666667C177.69230769230768,26.66666666666667,178.15384615384616,33.333333333333336,178.6153846153846,33.333333333333336C179.07692307692307,33.333333333333336,179.53846153846155,33.333333333333336,180,33.333333333333336L180,40C179.53846153846155,40,179.07692307692307,40,178.6153846153846,40C178.15384615384616,40,177.69230769230768,40,177.23076923076923,40C176.76923076923077,40,176.3076923076923,40,175.84615384615384,40C175.3846153846154,40,174.9230769230769,40,174.46153846153845,40C174,40,173.53846153846155,40,173.0769230769231,40C172.61538461538464,40,172.15384615384616,40,171.6923076923077,40C171.23076923076923,40,170.76923076923077,40,170.3076923076923,40C169.84615384615384,40,169.3846153846154,40,168.92307692307693,40C168.46153846153848,40,168,40,167.53846153846155,40C167.0769230769231,40,166.6153846153846,40,166.15384615384616,40C165.6923076923077,40,165.23076923076923,40,164.76923076923077,40C164.30769230769232,40,163.84615384615384,40,163.3846153846154,40C162.92307692307693,40,162.46153846153845,40,162,40C161.53846153846155,40,161.07692307692307,40,160.6153846153846,40C160.15384615384616,40,159.69230769230768,40,159.23076923076923,40C158.76923076923077,40,158.3076923076923,40,157.84615384615384,40C157.3846153846154,40,156.9230769230769,40,156.46153846153845,40C156,40,155.53846153846155,40,155.0769230769231,40C154.6153846153846,40,154.15384615384616,40,153.69230769230768,40C153.23076923076923,40,152.76923076923075,40,152.3076923076923,40C151.84615384615384,40,151.3846153846154,40,150.92307692307693,40C150.46153846153848,40,150,40,149.53846153846155,40C149.0769230769231,40,148.6153846153846,40,148.15384615384616,40C147.6923076923077,40,147.23076923076923,40,146.76923076923077,40C146.30769230769232,40,145.84615384615384,40,145.3846153846154,40C144.92307692307693,40,144.46153846153845,40,144,40C143.07692307692307,40,142.15384615384616,40,141.23076923076923,40C140.76923076923077,40,140.3076923076923,40,139.84615384615384,40C139.3846153846154,40,138.92307692307693,40,138.46153846153848,40C138,40,137.53846153846155,40,137.07692307692307,40C136.6153846153846,40,136.15384615384613,40,135.69230769230768,40C135.23076923076923,40,134.76923076923077,40,134.30769230769232,40C133.3846153846154,40,132.46153846153845,40,131.53846153846152,40C129.69230769230768,40,127.84615384615383,40,125.99999999999999,40C125.53846153846153,40,125.07692307692307,40,124.61538461538461,40C124.15384615384615,40,123.6923076923077,40,123.23076923076923,40C122.76923076923077,40,122.3076923076923,40,121.84615384615385,40C120.92307692307693,40,120,40,119.07692307692308,40C118.61538461538461,40,118.15384615384616,40,117.6923076923077,40C117.23076923076924,40,116.76923076923077,40,116.30769230769232,40C115.38461538461539,40,114.46153846153847,40,113.53846153846153,40C111.23076923076923,40,108.92307692307692,40,106.61538461538461,40C106.15384615384616,40,105.6923076923077,40,105.23076923076924,40C104.76923076923077,40,104.3076923076923,40,103.84615384615384,40C101.07692307692307,40,98.3076923076923,40,95.53846153846153,40C89.53846153846153,40,83.53846153846155,40,77.53846153846155,40C76.61538461538463,40,75.6923076923077,40,74.76923076923077,40C70.61538461538461,40,66.46153846153847,40,62.30769230769231,40C59.07692307692308,40,55.84615384615385,40,52.61538461538462,40C51.69230769230769,40,50.769230769230774,40,49.84615384615385,40C49.38461538461539,40,48.92307692307692,40,48.46153846153846,40C46.15384615384615,40,43.84615384615385,40,41.53846153846154,40C41.07692307692308,40,40.61538461538461,40,40.15384615384615,40C35.07692307692308,40,30,40,24.923076923076923,40C24,40,23.076923076923077,40,22.153846153846153,40C17.076923076923077,40,12,40,6.923076923076923,40C5.0769230769230775,40,3.230769230769231,40,1.3846153846153846,40C0.9230769230769231,40,0.4615384615384615,40,0,40Z"></path><path class="line" stroke="black" fill="none" d="M0,33.333333333333336C0.4615384615384615,33.333333333333336,0.9230769230769231,33.333333333333336,1.3846153846153846,33.333333333333336C3.230769230769231,33.333333333333336,5.0769230769230775,33.333333333333336,6.923076923076923,33.333333333333336C12,33.333333333333336,17.076923076923077,33.333333333333336,22.153846153846153,33.333333333333336C23.076923076923077,33.333333333333336,24,33.333333333333336,24.923076923076923,33.333333333333336C30,33.333333333333336,35.07692307692308,33.333333333333336,40.15384615384615,33.333333333333336C40.61538461538461,33.333333333333336,41.07692307692308,33.333333333333336,41.53846153846154,33.333333333333336C43.84615384615385,33.333333333333336,46.15384615384615,33.333333333333336,48.46153846153846,33.333333333333336C48.92307692307692,33.333333333333336,49.38461538461539,33.333333333333336,49.84615384615385,33.333333333333336C50.769230769230774,33.333333333333336,51.69230769230769,33.333333333333336,52.61538461538462,33.333333333333336C55.84615384615385,33.333333333333336,59.07692307692308,33.333333333333336,62.30769230769231,33.333333333333336C66.46153846153847,33.333333333333336,70.61538461538461,33.333333333333336,74.76923076923077,33.333333333333336C75.6923076923077,33.333333333333336,76.61538461538463,33.333333333333336,77.53846153846155,33.333333333333336C83.53846153846155,33.333333333333336,89.53846153846153,33.333333333333336,95.53846153846153,33.333333333333336C98.3076923076923,33.333333333333336,101.07692307692307,33.333333333333336,103.84615384615384,33.333333333333336C104.3076923076923,33.333333333333336,104.76923076923077,33.333333333333336,105.23076923076924,33.333333333333336C105.6923076923077,33.333333333333336,106.15384615384616,33.333333333333336,106.61538461538461,33.333333333333336C108.92307692307692,33.333333333333336,111.23076923076923,33.333333333333336,113.53846153846153,33.333333333333336C114.46153846153847,33.333333333333336,115.38461538461539,33.333333333333336,116.30769230769232,33.333333333333336C116.76923076923077,33.333333333333336,117.23076923076924,33.333333333333336,117.6923076923077,33.333333333333336C118.15384615384616,33.333333333333336,118.61538461538461,33.333333333333336,119.07692307692308,33.333333333333336C120,33.333333333333336,120.92307692307693,33.333333333333336,121.84615384615385,33.333333333333336C122.3076923076923,33.333333333333336,122.76923076923077,33.333333333333336,123.23076923076923,33.333333333333336C123.6923076923077,33.333333333333336,124.15384615384615,33.333333333333336,124.61538461538461,33.333333333333336C125.07692307692307,33.333333333333336,125.53846153846153,33.333333333333336,125.99999999999999,33.333333333333336C127.84615384615383,33.333333333333336,129.69230769230768,33.333333333333336,131.53846153846152,33.333333333333336C132.46153846153845,33.333333333333336,133.3846153846154,33.333333333333336,134.30769230769232,33.333333333333336C134.76923076923077,33.333333333333336,135.23076923076923,33.333333333333336,135.69230769230768,33.333333333333336C136.15384615384613,33.333333333333336,136.6153846153846,33.333333333333336,137.07692307692307,33.333333333333336C137.53846153846155,33.333333333333336,138,33.333333333333336,138.46153846153848,33.333333333333336C138.92307692307693,33.333333333333336,139.3846153846154,33.333333333333336,139.84615384615384,33.333333333333336C140.3076923076923,33.333333333333336,140.76923076923077,33.333333333333336,141.23076923076923,33.333333333333336C142.15384615384616,33.333333333333336,143.07692307692307,33.333333333333336,144,33.333333333333336C144.46153846153845,33.333333333333336,144.92307692307693,33.333333333333336,145.3846153846154,33.333333333333336C145.84615384615384,33.333333333333336,146.30769230769232,33.333333333333336,146.76923076923077,33.333333333333336C147.23076923076923,33.333333333333336,147.6923076923077,33.333333333333336,148.15384615384616,33.333333333333336C148.6153846153846,33.333333333333336,149.0769230769231,40,149.53846153846155,40C150,40,150.46153846153848,33.333333333333336,150.92307692307693,33.333333333333336C151.3846153846154,33.333333333333336,151.84615384615384,33.333333333333336,152.3076923076923,33.333333333333336C152.76923076923075,33.333333333333336,153.23076923076923,33.333333333333336,153.69230769230768,33.333333333333336C154.15384615384616,33.333333333333336,154.6153846153846,33.333333333333336,155.0769230769231,33.333333333333336C155.53846153846155,33.333333333333336,156,33.333333333333336,156.46153846153845,33.333333333333336C156.9230769230769,33.333333333333336,157.3846153846154,40,157.84615384615384,40C158.3076923076923,40,158.76923076923077,40,159.23076923076923,40C159.69230769230768,40,160.15384615384616,33.333333333333336,160.6153846153846,33.333333333333336C161.07692307692307,33.333333333333336,161.53846153846155,40,162,40C162.46153846153845,40,162.92307692307693,40,163.3846153846154,40C163.84615384615384,40,164.30769230769232,33.333333333333336,164.76923076923077,33.333333333333336C165.23076923076923,33.333333333333336,165.6923076923077,33.333333333333336,166.15384615384616,33.333333333333336C166.6153846153846,33.333333333333336,167.0769230769231,33.333333333333336,167.53846153846155,33.333333333333336C168,33.333333333333336,168.46153846153848,33.333333333333336,168.92307692307693,33.333333333333336C169.3846153846154,33.333333333333336,169.84615384615384,33.333333333333336,170.3076923076923,33.333333333333336C170.76923076923077,33.333333333333336,171.23076923076923,33.333333333333336,171.6923076923077,33.333333333333336C172.15384615384616,33.333333333333336,172.61538461538464,33.333333333333336,173.0769230769231,33.333333333333336C173.53846153846155,33.333333333333336,174,26.66666666666667,174.46153846153845,26.66666666666667C174.9230769230769,26.66666666666667,175.3846153846154,26.66666666666667,175.84615384615384,26.66666666666667C176.3076923076923,26.66666666666667,176.76923076923077,26.66666666666667,177.23076923076923,26.66666666666667C177.69230769230768,26.66666666666667,178.15384615384616,33.333333333333336,178.6153846153846,33.333333333333336C179.07692307692307,33.333333333333336,179.53846153846155,33.333333333333336,180,33.333333333333336"></path><path class="axis-ceiling" stroke-width="1" stroke="black" fill="none" d="M175,0L180,0"></path><text class="axis-ceiling-label" font-family="sans-serif" text-anchor="end" font-size="10px" x="170" y="2.5">5</text></g></svg>