<svg xmlns="http://www.w3.org/2000/svg" viewBox="0 0 180 60"><g transform="translate(0,20)"><path class="area" fill="rgba(0, 0, 0, 0.2)" d="M0,26.285714285714285C1.0344827586206897,23.238095238095237,2.068965517241379,20.19047619047619,3.103448275862069,20.19047619047619C4.137931034482759,20.19047619047619,5.172413793103448,20.253968253968253,6.206896551724138,20.38095238095238C7.241379310344827,20.507936507936506,8.275862068965516,27.80952380952381,9.310344827586206,27.80952380952381C10.344827586206897,27.80952380952381,11.379310344827585,24.571428571428573,12.413793103448276,24.571428571428573C13.448275862068966,24.571428571428573,14.482758620689655,28.253968253968257,15.517241379310345,29.333333333333336C16.551724137931036,30.412698412698415,17.586206896551722,31.047619047619047,18.620689655172413,31.047619047619047C19.655172413793103,31.047619047619047,20.689655172413794,12.190476190476192,21.724137931034484,12.190476190476192C22.758620689655174,12.190476190476192,23.79310344827586,20.634920634920636,24.82758620689655,21.523809523809522C25.862068965517242,22.41269841269841,26.896551724137932,21.968253968253965,27.931034482758623,22.857142857142854C28.965517241379313,23.74603174603174,30,27.42857142857143,31.03448275862069,27.42857142857143C32.06896551724138,27.42857142857143,33.103448275862064,25.9047619047619,34.137931034482754,25.9047619047619C35.172413793103445,25.9047619047619,36.206896551724135,26.09523809523809,37.241379310344826,26.476190476190474C38.275862068965516,26.857142857142858,39.310344827586206,28.095238095238095,40.3448275862069,28.571428571428573C41.37931034482759,29.04761904761905,42.41379310344828,29.01587301587302,43.44827586206897,29.333333333333336C44.48275862068966,29.650793650793652,45.51724137931035,30.476190476190474,46.55172413793104,30.476190476190474C47.58620689655173,30.476190476190474,48.62068965517241,27.23809523809524,49.6551724137931,27.23809523809524C50.689655172413794,27.23809523809524,51.72413793103448,32.95238095238095,52.75862068965517,32.95238095238095C53.79310344827586,32.95238095238095,54.827586206896555,21.904761904761905,55.862068965517246,21.904761904761905C56.896551724137936,21.904761904761905,57.93103448275862,27.80952380952381,58.96551724137931,27.80952380952381C60,27.80952380952381,61.03448275862069,26.126984126984127,62.06896551724138,25.142857142857142C63.10344827586207,24.158730158730158,64.13793103448276,21.904761904761905,65.17241379310344,21.904761904761905C66.20689655172413,21.904761904761905,67.24137931034483,36,68.27586206896551,36C69.3103448275862,36,70.34482758620689,28.19047619047619,71.37931034482759,28.19047619047619C72.41379310344827,28.19047619047619,73.44827586206897,30.285714285714285,74.48275862068965,30.285714285714285C75.51724137931033,30.285714285714285,76.55172413793103,27.23809523809524,77.58620689655172,27.23809523809524C78.62068965517241,27.23809523809524,79.6551724137931,32.57142857142857,80.6896551724138,32.57142857142857C81.72413793103448,32.57142857142857,82.75862068965517,25.142857142857142,83.79310344827586,25.142857142857142C84.82758620689656,25.142857142857142,85.86206896551724,34.47619047619048,86.89655172413794,34.47619047619048C87.93103448275862,34.47619047619048,88.96551724137932,18.476190476190478,90,18.476190476190478C91.0344827586207,18.476190476190478,92.06896551724138,28.571428571428573,93.10344827586208,28.571428571428573C94.13793103448276,28.571428571428573,95.17241379310344,28.19047619047619,96.20689655172413,28.19047619047619C97.24137931034483,28.19047619047619,98.27586206896551,29.65079365079365,99.3103448275862,30.095238095238095C100.3448275862069,30.53968253968254,101.37931034482759,30.73015873015873,102.41379310344828,30.857142857142858C103.44827586206897,30.984126984126984,104.48275862068965,31.047619047619047,105.51724137931033,31.047619047619047C106.55172413793103,31.047619047619047,107.58620689655172,29.333333333333336,108.62068965517241,29.333333333333336C109.65517241379311,29.333333333333336,110.6896551724138,31.80952380952381,111.72413793103449,31.80952380952381C112.75862068965517,31.80952380952381,113.79310344827587,30.53968253968254,114.82758620689656,29.904761904761905C115.86206896551724,29.26984126984127,116.89655172413794,28.698412698412696,117.93103448275862,28C118.96551724137932,27.3015873015873,120,25.71428571428571,121.0344827586207,25.71428571428571C122.06896551724138,25.71428571428571,123.10344827586208,40,124.13793103448276,40C125.17241379310344,40,126.20689655172414,26.031746031746028,127.24137931034483,25.523809523809522C128.27586206896552,25.015873015873016,129.3103448275862,24.761904761904763,130.3448275862069,24.761904761904763C131.3793103448276,24.761904761904763,132.41379310344828,28.952380952380953,133.44827586206898,28.952380952380953C134.48275862068965,28.952380952380953,135.51724137931035,26.03174603174603,136.55172413793102,25.142857142857142C137.58620689655172,24.25396825396824,138.6206896551724,23.61904761904762,139.6551724137931,23.61904761904762C140.6896551724138,23.61904761904762,141.72413793103448,32.19047619047619,142.75862068965517,32.19047619047619C143.79310344827587,32.19047619047619,144.82758620689654,21.333333333333332,145.86206896551724,21.333333333333332C146.89655172413794,21.333333333333332,147.9310344827586,29.714285714285715,148.9655172413793,29.714285714285715C150,29.714285714285715,151.0344827586207,22.285714285714285,152.0689655172414,22.285714285714285C153.10344827586206,22.285714285714285,154.13793103448276,24.761904761904763,155.17241379310343,24.761904761904763C156.20689655172413,24.761904761904763,157.24137931034483,15.428571428571427,158.27586206896552,15.428571428571427C159.31034482758622,15.428571428571427,160.3448275862069,31.047619047619047,161.3793103448276,31.047619047619047C162.41379310344828,31.047619047619047,163.44827586206895,26.50793650793651,164.48275862068965,21.714285714285715C165.51724137931035,16.92063492063492,166.55172413793102,2.2857142857142865,167.58620689655172,2.2857142857142865C168.6206896551724,2.2857142857142865,169.6551724137931,17.904761904761905,170.6896551724138,17.904761904761905C171.7241379310345,17.904761904761905,172.75862068965517,17.333333333333336,173.79310344827587,17.333333333333336C174.82758620689657,17.333333333333336,175.86206896551724,20.38095238095238,176.89655172413794,20.38095238095238C177.93103448275863,20.38095238095238,178.9655172413793,19.142857142857142,180,17.904761904761905L180,40C178.9655172413793,40,177.93103448275863,40,176.89655172413794,40C175.86206896551724,40,174.82758620689657,40,173.79310344827587,40C172.75862068965517,40,171.7241379310345,40,170.6896551724138,40C169.6551724137931,40,168.6206896551724,40,167.58620689655172,40C166.55172413793102,40,165.51724137931035,40,164.48275862068965,40C163.44827586206895,40,162.41379310344828,40,161.3793103448276,40C160.3448275862069,40,159.31034482758622,40,158.27586206896552,40C157.24137931034483,40,156.20689655172413,40,155.17241379310343,40C154.13793103448276,40,153.10344827586206,40,152.0689655172414,40C151.0344827586207,40,150,40,148.9655172413793,40C147.9310344827586,40,146.89655172413794,40,145.86206896551724,40C144.82758620689654,40,143.79310344827587,40,142.75862068965517,40C141.72413793103448,40,140.6896551724138,40,139.6551724137931,40C138.6206896551724,40,137.58620689655172,40,136.55172413793102,40C135.51724137931035,40,134.48275862068965,40,133.44827586206898,40C132.41379310344828,40,131.3793103448276,40,130.3448275862069,40C129.3103448275862,40,128.27586206896552,40,127.24137931034483,40C126.20689655172414,40,125.17241379310344,40,124.13793103448276,40C123.10344827586208,40,122.06896551724138,40,121.0344827586207,40C120,40,118.96551724137932,40,117.93103448275862,40C116.89655172413794,40,115.86206896551724,40,114.82758620689656,40C113.79310344827587,40,112.75862068965517,40,111.72413793103449,40C110.6896551724138,40,109.65517241379311,40,108.62068965517241,40C107.58620689655172,40,106.55172413793103,40,105.51724137931033,40C104.48275862068965,40,103.44827586206897,40,102.41379310344828,40C101.37931034482759,40,100.3448275862069,40,99.3103448275862,40C98.27586206896551,40,97.24137931034483,40,96.20689655172413,40C95.17241379310344,40,94.13793103448276,40,93.10344827586208,40C92.06896551724138,40,91.0344827586207,40,90,40C88.96551724137932,40,87.93103448275862,40,86.89655172413794,40C85.86206896551724,40,84.82758620689656,40,83.79310344827586,40C82.75862068965517,40,81.72413793103448,40,80.6896551724138,40C79.6551724137931,40,78.62068965517241,40,77.58620689655172,40C76.55172413793103,40,75.51724137931033,40,74.48275862068965,40C73.44827586206897,40,72.41379310344827,40,71.37931034482759,40C70.34482758620689,40,69.3103448275862,40,68.27586206896551,40C67.24137931034483,40,66.20689655172413,40,65.17241379310344,40C64.13793103448276,40,63.10344827586207,40,62.06896551724138,40C61.03448275862069,40,60,40,58.96551724137931,40C57.93103448275862,40,56.896551724137936,40,55.862068965517246,40C54.827586206896555,40,53.79310344827586,40,52.75862068965517,40C51.72413793103448,40,50.689655172413794,40,49.6551724137931,40C48.62068965517241,40,47.58620689655173,40,46.55172413793104,40C45.51724137931035,40,44.48275862068966,40,43.44827586206897,40C42.41379310344828,40,41.37931034482759,40,40.3448275862069,40C39.310344827586206,40,38.275862068965516,40,37.241379310344826,40C36.206896551724135,40,35.172413793103445,40,34.137931034482754,40C33.103448275862064,40,32.06896551724138,40,31.03448275862069,40C30,40,28.965517241379313,40,27.931034482758623,40C26.896551724137932,40,25.862068965517242,40,24.82758620689655,40C23.79310344827586,40,22.758620689655174,40,21.724137931034484,40C20.689655172413794,40,19.655172413793103,40,18.620689655172413,40C17.586206896551722,40,16.551724137931036,40,15.517241379310345,40C14.482758620689655,40,13.448275862068966,40,12.413793103448276,40C11.379310344827585,40,10.344827586206897,40,9.310344827586206,40C8.275862068965516,40,7.241379310344827,40,6.206896551724138,40C5.172413793103448,40,4.137931034482759,40,3.103448275862069,40C2.068965517241379,40,1.0344827586206897,40,0,40Z"></path><path class="line" stroke="black" fill="none" d="M0,26.285714285714285C1.0344827586206897,23.238095238095237,2.068965517241379,20.19047619047619,3.103448275862069,20.19047619047619C4.137931034482759,20.19047619047619,5.172413793103448,20.253968253968253,6.206896551724138,20.38095238095238C7.241379310344827,20.507936507936506,8.275862068965516,27.80952380952381,9.310344827586206,27.80952380952381C10.344827586206897,27.80952380952381,11.379310344827585,24.571428571428573,12.413793103448276,24.571428571428573C13.448275862068966,24.571428571428573,14.482758620689655,28.253968253968257,15.517241379310345,29.333333333333336C16.551724137931036,30.412698412698415,17.586206896551722,31.047619047619047,18.620689655172413,31.047619047619047C19.655172413793103,31.047619047619047,20.689655172413794,12.190476190476192,21.724137931034484,12.190476190476192C22.758620689655174,12.190476190476192,23.79310344827586,20.634920634920636,24.82758620689655,21.523809523809522C25.862068965517242,22.41269841269841,26.896551724137932,21.968253968253965,27.931034482758623,22.857142857142854C28.965517241379313,23.74603174603174,30,27.42857142857143,31.03448275862069,27.42857142857143C32.06896551724138,27.42857142857143,33.103448275862064,25.9047619047619,34.137931034482754,25.9047619047619C35.172413793103445,25.9047619047619,36.206896551724135,26.09523809523809,37.241379310344826,26.476190476190474C38.275862068965516,26.857142857142858,39.310344827586206,28.095238095238095,40.3448275862069,28.571428571428573C41.37931034482759,29.04761904761905,42.41379310344828,29.01587301587302,43.44827586206897,29.333333333333336C44.48275862068966,29.650793650793652,45.51724137931035,30.476190476190474,46.55172413793104,30.476190476190474C47.58620689655173,30.476190476190474,48.62068965517241,27.23809523809524,49.6551724137931,27.23809523809524C50.689655172413794,27.23809523809524,51.72413793103448,32.95238095238095,52.75862068965517,32.95238095238095C53.79310344827586,32.95238095238095,54.827586206896555,21.904761904761905,55.862068965517246,21.904761904761905C56.896551724137936,21.904761904761905,57.93103448275862,27.80952380952381,58.96551724137931,27.80952380952381C60,27.80952380952381,61.03448275862069,26.126984126984127,62.06896551724138,25.142857142857142C63.10344827586207,24.158730158730158,64.13793103448276,21.904761904761905,65.17241379310344,21.904761904761905C66.20689655172413,21.904761904761905,67.24137931034483,36,68.27586206896551,36C69.3103448275862,36,70.34482758620689,28.19047619047619,71.37931034482759,28.19047619047619C72.41379310344827,28.19047619047619,73.44827586206897,30.285714285714285,74.48275862068965,30.285714285714285C75.51724137931033,30.285714285714285,76.55172413793103,27.23809523809524,77.58620689655172,27.23809523809524C78.62068965517241,27.23809523809524,79.6551724137931,32.57142857142857,80.6896551724138,32.57142857142857C81.72413793103448,32.57142857142857,82.75862068965517,25.142857142857142,83.79310344827586,25.142857142857142C84.82758620689656,25.142857142857142,85.86206896551724,34.47619047619048,86.89655172413794,34.47619047619048C87.93103448275862,34.47619047619048,88.96551724137932,18.476190476190478,90,18.476190476190478C91.0344827586207,18.476190476190478,92.06896551724138,28.571428571428573,93.10344827586208,28.571428571428573C94.13793103448276,28.571428571428573,95.17241379310344,28.19047619047619,96.20689655172413,28.19047619047619C97.24137931034483,28.19047619047619,98.27586206896551,29.65079365079365,99.3103448275862,30.095238095238095C100.3448275862069,30.53968253968254,101.37931034482759,30.73015873015873,102.41379310344828,30.857142857142858C103.44827586206897,30.984126984126984,104.48275862068965,31.047619047619047,105.51724137931033,31.047619047619047C106.55172413793103,31.047619047619047,107.58620689655172,29.333333333333336,108.62068965517241,29.333333333333336C109.65517241379311,29.333333333333336,110.6896551724138,31.80952380952381,111.72413793103449,31.80952380952381C112.75862068965517,31.80952380952381,113.79310344827587,30.53968253968254,114.82758620689656,29.904761904761905C115.86206896551724,29.26984126984127,116.89655172413794,28.698412698412696,117.93103448275862,28C118.96551724137932,27.3015873015873,120,25.71428571428571,121.0344827586207,25.71428571428571C122.06896551724138,25.71428571428571,123.10344827586208,40,124.13793103448276,40C125.17241379310344,40,126.20689655172414,26.031746031746028,127.24137931034483,25.523809523809522C128.27586206896552,25.015873015873016,129.3103448275862,24.761904761904763,130.3448275862069,24.761904761904763C131.3793103448276,24.761904761904763,132.41379310344828,28.952380952380953,133.44827586206898,28.952380952380953C134.48275862068965,28.952380952380953,135.51724137931035,26.03174603174603,136.55172413793102,25.142857142857142C137.58620689655172,24.25396825396824,138.6206896551724,23.61904761904762,139.6551724137931,23.61904761904762C140.6896551724138,23.61904761904762,141.72413793103448,32.19047619047619,142.75862068965517,32.19047619047619C143.79310344827587,32.19047619047619,144.82758620689654,21.333333333333332,145.86206896551724,21.333333333333332C146.89655172413794,21.333333333333332,147.9310344827586,29.714285714285715,148.9655172413793,29.714285714285715C150,29.714285714285715,151.0344827586207,22.285714285714285,152.0689655172414,22.285714285714285C153.10344827586206,22.285714285714285,154.13793103448276,24.761904761904763,155.17241379310343,24.761904761904763C156.20689655172413,24.761904761904763,157.24137931034483,15.428571428571427,158.27586206896552,15.428571428571427C159.31034482758622,15.428571428571427,160.3448275862069,31.047619047619047,161.3793103448276,31.047619047619047C162.41379310344828,31.047619047619047,163.44827586206895,26.50793650793651,164.48275862068965,21.714285714285715C165.51724137931035,16.92063492063492,166.55172413793102,2.2857142857142865,167.58620689655172,2.2857142857142865C168.6206896551724,2.2857142857142865,169.6551724137931,17.904761904761905,170.6896551724138,17.904761904761905C171.7241379310345,17.904761904761905,172.75862068965517,17.333333333333336,173.79310344827587,17.333333333333336C174.82758620689657,17.333333333333336,175.86206896551724,20.38095238095238,176.89655172413794,20.38095238095238C177.93103448275863,20.38095238095238,178.9655172413793,19.142857142857142,180,17.904761904761905"></path><path class="axis-ceiling" stroke-width="1" stroke="black" fill="none" d="M175,0L180,0"></path><text class="axis-ceiling-label" font-family="sans-serif" text-anchor="end" font-size="10px" x="170" y="2.5">150</text></g></svg>