<svg xmlns="http://www.w3.org/2000/svg" viewBox="0 0 180 60"><g transform="translate(0,20)"><path class="area" fill="rgba(0, 0, 0, 0.2)" d="M0,27.866666666666667C1.0169491525423728,27.662222222222223,2.0338983050847457,27.45777777777778,3.0508474576271185,27.253333333333334C4.067796610169491,27.04888888888889,5.084745762711864,26.84444444444444,6.101694915254237,26.639999999999997C7.11864406779661,26.435555555555553,8.135593220338983,26.23555555555556,9.152542372881356,26.02666666666667C10.169491525423728,25.817777777777785,11.186440677966102,25.60888888888889,12.203389830508474,25.38666666666667C13.220338983050846,25.16444444444445,14.23728813559322,24.87111111111111,15.254237288135592,24.69333333333333C16.271186440677965,24.515555555555554,17.28813559322034,24.40888888888889,18.305084745762713,24.32C19.322033898305087,24.23111111111111,20.338983050847457,24.204444444444444,21.35593220338983,24.16C22.372881355932204,24.115555555555556,23.389830508474574,24.05333333333333,24.406779661016948,24.05333333333333C25.423728813559322,24.05333333333333,26.440677966101696,24.08,27.45762711864407,24.08C28.47457627118644,24.08,29.491525423728813,24.044444444444444,30.508474576271183,24.026666666666667C31.525423728813557,24.00888888888889,32.54237288135593,23.999999999999996,33.559322033898304,23.97333333333333C34.57627118644068,23.946666666666662,35.59322033898305,23.924444444444443,36.610169491525426,23.866666666666667C37.6271186440678,23.80888888888889,38.644067796610166,23.688888888888886,39.66101694915254,23.626666666666665C40.67796610169491,23.564444444444444,41.69491525423729,23.537777777777777,42.71186440677966,23.493333333333332C43.728813559322035,23.448888888888888,44.7457627118644,23.408888888888892,45.762711864406775,23.360000000000003C46.77966101694915,23.311111111111114,47.79661016949152,23.240000000000002,48.813559322033896,23.200000000000003C49.83050847457627,23.160000000000004,50.847457627118644,23.120000000000005,51.86440677966102,23.120000000000005C52.88135593220339,23.120000000000005,53.898305084745765,23.13777777777778,54.91525423728814,23.14666666666667C55.93220338983051,23.155555555555555,56.94915254237288,23.155555555555555,57.96610169491525,23.173333333333332C58.983050847457626,23.19111111111111,59.99999999999999,23.440000000000005,61.01694915254237,23.440000000000005C62.03389830508474,23.440000000000005,63.05084745762712,23.40888888888889,64.0677966101695,23.386666666666667C65.08474576271186,23.364444444444445,66.10169491525424,23.337777777777774,67.11864406779661,23.306666666666665C68.13559322033899,23.275555555555552,69.15254237288136,23.22666666666667,70.16949152542374,23.200000000000003C71.1864406779661,23.173333333333336,72.20338983050848,23.16888888888889,73.22033898305085,23.14666666666667C74.23728813559322,23.124444444444446,75.2542372881356,23.066666666666666,76.27118644067797,23.066666666666666C77.28813559322033,23.066666666666666,78.30508474576271,23.120000000000005,79.32203389830508,23.120000000000005C80.33898305084746,23.120000000000005,81.35593220338983,23.040000000000003,82.37288135593221,23.040000000000003C83.38983050847457,23.040000000000003,84.40677966101696,23.155555555555555,85.42372881355932,23.226666666666667C86.4406779661017,23.297777777777778,87.45762711864407,23.391111111111112,88.47457627118645,23.46666666666667C89.49152542372882,23.542222222222225,90.50847457627118,23.622222222222227,91.52542372881355,23.680000000000003C92.54237288135593,23.73777777777778,93.55932203389831,23.737777777777776,94.57627118644069,23.813333333333333C95.59322033898306,23.888888888888886,96.61016949152543,24.044444444444444,97.62711864406779,24.133333333333333C98.64406779661016,24.22222222222222,99.66101694915254,24.293333333333333,100.6779661016949,24.346666666666668C101.69491525423729,24.400000000000002,102.71186440677965,24.426666666666666,103.72881355932203,24.453333333333333C104.7457627118644,24.48,105.76271186440678,24.506666666666668,106.77966101694915,24.506666666666668C107.79661016949153,24.506666666666668,108.8135593220339,24.497777777777777,109.83050847457628,24.48C110.84745762711864,24.462222222222223,111.86440677966102,24.346666666666668,112.88135593220339,24.346666666666668C113.89830508474576,24.346666666666668,114.91525423728814,24.346666666666668,115.9322033898305,24.346666666666668C116.94915254237289,24.346666666666668,117.96610169491525,24.079999999999995,118.98305084745763,23.97333333333333C120,23.866666666666664,121.01694915254237,23.808888888888887,122.03389830508473,23.706666666666667C123.05084745762711,23.604444444444447,124.0677966101695,23.488888888888894,125.08474576271188,23.360000000000003C126.10169491525424,23.231111111111115,127.11864406779662,23.106666666666666,128.135593220339,22.93333333333333C129.15254237288136,22.759999999999998,130.16949152542372,22.497777777777777,131.1864406779661,22.32C132.20338983050846,22.142222222222223,133.22033898305085,22.053333333333335,134.23728813559322,21.866666666666667C135.25423728813558,21.68,136.27118644067798,21.48888888888889,137.28813559322035,21.200000000000003C138.3050847457627,20.911111111111115,139.3220338983051,20.52444444444445,140.33898305084747,20.133333333333336C141.35593220338984,19.742222222222228,142.3728813559322,19.302222222222223,143.38983050847457,18.853333333333335C144.40677966101694,18.404444444444444,145.42372881355934,17.920000000000005,146.4406779661017,17.44C147.45762711864407,16.960000000000004,148.47457627118644,16.457777777777775,149.4915254237288,15.973333333333333C150.50847457627117,15.488888888888885,151.52542372881356,15.124444444444443,152.54237288135593,14.533333333333331C153.5593220338983,13.94222222222222,154.5762711864407,13.133333333333336,155.59322033898306,12.426666666666666C156.61016949152543,11.720000000000002,157.6271186440678,10.951111111111109,158.64406779661016,10.293333333333333C159.66101694915253,9.635555555555552,160.67796610169492,9.026666666666666,161.6949152542373,8.479999999999999C162.71186440677965,7.933333333333332,163.72881355932205,7.4,164.74576271186442,7.013333333333334C165.76271186440678,6.6266666666666705,166.77966101694915,6.533333333333332,167.79661016949152,6.160000000000001C168.81355932203388,5.786666666666666,169.83050847457628,5.164444444444443,170.84745762711864,4.773333333333332C171.864406779661,4.382222222222221,172.8813559322034,3.902222222222226,173.89830508474577,3.8133333333333352C174.91525423728814,3.7244444444444444,175.93220338983053,3.679999999999999,176.9491525423729,3.679999999999999C177.96610169491527,3.679999999999999,178.98305084745763,3.693333333333333,180,3.706666666666667L180,40C178.98305084745763,40,177.96610169491527,40,176.9491525423729,40C175.93220338983053,40,174.91525423728814,40,173.89830508474577,40C172.8813559322034,40,171.864406779661,40,170.84745762711864,40C169.83050847457628,40,168.81355932203388,40,167.79661016949152,40C166.77966101694915,40,165.76271186440678,40,164.74576271186442,40C163.72881355932205,40,162.71186440677965,40,161.6949152542373,40C160.67796610169492,40,159.66101694915253,40,158.64406779661016,40C157.6271186440678,40,156.61016949152543,40,155.59322033898306,40C154.5762711864407,40,153.5593220338983,40,152.54237288135593,40C151.52542372881356,40,150.50847457627117,40,149.4915254237288,40C148.47457627118644,40,147.45762711864407,40,146.4406779661017,40C145.42372881355934,40,144.40677966101694,40,143.38983050847457,40C142.3728813559322,40,141.35593220338984,40,140.33898305084747,40C139.3220338983051,40,138.3050847457627,40,137.28813559322035,40C136.27118644067798,40,135.25423728813558,40,134.23728813559322,40C133.22033898305085,40,132.20338983050846,40,131.1864406779661,40C130.16949152542372,40,129.15254237288136,40,128.135593220339,40C127.11864406779662,40,126.10169491525424,40,125.08474576271188,40C124.0677966101695,40,123.05084745762711,40,122.03389830508473,40C121.01694915254237,40,120,40,118.98305084745763,40C117.96610169491525,40,116.94915254237289,40,115.9322033898305,40C114.91525423728814,40,113.89830508474576,40,112.88135593220339,40C111.86440677966102,40,110.84745762711864,40,109.83050847457628,40C108.8135593220339,40,107.79661016949153,40,106.77966101694915,40C105.76271186440678,40,104.7457627118644,40,103.72881355932203,40C102.71186440677965,40,101.69491525423729,40,100.6779661016949,40C99.66101694915254,40,98.64406779661016,40,97.62711864406779,40C96.61016949152543,40,95.59322033898306,40,94.57627118644069,40C93.55932203389831,40,92.54237288135593,40,91.52542372881355,40C90.50847457627118,40,89.49152542372882,40,88.47457627118645,40C87.45762711864407,40,86.4406779661017,40,85.42372881355932,40C84.40677966101696,40,83.38983050847457,40,82.37288135593221,40C81.35593220338983,40,80.33898305084746,40,79.32203389830508,40C78.30508474576271,40,77.28813559322033,40,76.27118644067797,40C75.2542372881356,40,74.23728813559322,40,73.22033898305085,40C72.20338983050848,40,71.1864406779661,40,70.16949152542374,40C69.15254237288136,40,68.13559322033899,40,67.11864406779661,40C66.10169491525424,40,65.08474576271186,40,64.0677966101695,40C63.05084745762712,40,62.03389830508474,40,61.01694915254237,40C59.99999999999999,40,58.983050847457626,40,57.96610169491525,40C56.94915254237288,40,55.93220338983051,40,54.91525423728814,40C53.898305084745765,40,52.88135593220339,40,51.86440677966102,40C50.847457627118644,40,49.83050847457627,40,48.813559322033896,40C47.79661016949152,40,46.77966101694915,40,45.762711864406775,40C44.7457627118644,40,43.728813559322035,40,42.71186440677966,40C41.69491525423729,40,40.67796610169491,40,39.66101694915254,40C38.644067796610166,40,37.6271186440678,40,36.610169491525426,40C35.59322033898305,40,34.57627118644068,40,33.559322033898304,40C32.54237288135593,40,31.525423728813557,40,30.508474576271183,40C29.491525423728813,40,28.47457627118644,40,27.45762711864407,40C26.440677966101696,40,25.423728813559322,40,24.406779661016948,40C23.389830508474574,40,22.372881355932204,40,21.35593220338983,40C20.338983050847457,40,19.322033898305087,40,18.305084745762713,40C17.28813559322034,40,16.271186440677965,40,15.254237288135592,40C14.23728813559322,40,13.220338983050846,40,12.203389830508474,40C11.186440677966102,40,10.169491525423728,40,9.152542372881356,40C8.135593220338983,40,7.11864406779661,40,6.101694915254237,40C5.084745762711864,40,4.067796610169491,40,3.0508474576271185,40C2.0338983050847457,40,1.0169491525423728,40,0,40Z"></path><path class="line" stroke="black" fill="none" d="M0,27.866666666666667C1.0169491525423728,27.662222222222223,2.0338983050847457,27.45777777777778,3.0508474576271185,27.253333333333334C4.067796610169491,27.04888888888889,5.084745762711864,26.84444444444444,6.101694915254237,26.639999999999997C7.11864406779661,26.435555555555553,8.135593220338983,26.23555555555556,9.152542372881356,26.02666666666667C10.169491525423728,25.817777777777785,11.186440677966102,25.60888888888889,12.203389830508474,25.38666666666667C13.220338983050846,25.16444444444445,14.23728813559322,24.87111111111111,15.254237288135592,24.69333333333333C16.271186440677965,24.515555555555554,17.28813559322034,24.40888888888889,18.305084745762713,24.32C19.322033898305087,24.23111111111111,20.338983050847457,24.204444444444444,21.35593220338983,24.16C22.372881355932204,24.115555555555556,23.389830508474574,24.05333333333333,24.406779661016948,24.05333333333333C25.423728813559322,24.05333333333333,26.440677966101696,24.08,27.45762711864407,24.08C28.47457627118644,24.08,29.491525423728813,24.044444444444444,30.508474576271183,24.026666666666667C31.525423728813557,24.00888888888889,32.54237288135593,23.999999999999996,33.559322033898304,23.97333333333333C34.57627118644068,23.946666666666662,35.59322033898305,23.924444444444443,36.610169491525426,23.866666666666667C37.6271186440678,23.80888888888889,38.644067796610166,23.688888888888886,39.66101694915254,23.626666666666665C40.67796610169491,23.564444444444444,41.69491525423729,23.537777777777777,42.71186440677966,23.493333333333332C43.728813559322035,23.448888888888888,44.7457627118644,23.408888888888892,45.762711864406775,23.360000000000003C46.77966101694915,23.311111111111114,47.79661016949152,23.240000000000002,48.813559322033896,23.200000000000003C49.83050847457627,23.160000000000004,50.847457627118644,23.120000000000005,51.86440677966102,23.120000000000005C52.88135593220339,23.120000000000005,53.898305084745765,23.13777777777778,54.91525423728814,23.14666666666667C55.93220338983051,23.155555555555555,56.94915254237288,23.155555555555555,57.96610169491525,23.173333333333332C58.983050847457626,23.19111111111111,59.99999999999999,23.440000000000005,61.01694915254237,23.440000000000005C62.03389830508474,23.440000000000005,63.05084745762712,23.40888888888889,64.0677966101695,23.386666666666667C65.08474576271186,23.364444444444445,66.10169491525424,23.337777777777774,67.11864406779661,23.306666666666665C68.13559322033899,23.275555555555552,69.15254237288136,23.22666666666667,70.16949152542374,23.200000000000003C71.1864406779661,23.173333333333336,72.20338983050848,23.16888888888889,73.22033898305085,23.14666666666667C74.23728813559322,23.124444444444446,75.2542372881356,23.066666666666666,76.27118644067797,23.066666666666666C77.28813559322033,23.066666666666666,78.30508474576271,23.120000000000005,79.32203389830508,23.120000000000005C80.33898305084746,23.120000000000005,81.35593220338983,23.040000000000003,82.37288135593221,23.040000000000003C83.38983050847457,23.040000000000003,84.40677966101696,23.155555555555555,85.42372881355932,23.226666666666667C86.4406779661017,23.297777777777778,87.45762711864407,23.391111111111112,88.47457627118645,23.46666666666667C89.49152542372882,23.542222222222225,90.50847457627118,23.622222222222227,91.52542372881355,23.680000000000003C92.54237288135593,23.73777777777778,93.55932203389831,23.737777777777776,94.57627118644069,23.813333333333333C95.59322033898306,23.888888888888886,96.61016949152543,24.044444444444444,97.62711864406779,24.133333333333333C98.64406779661016,24.22222222222222,99.66101694915254,24.293333333333333,100.6779661016949,24.346666666666668C101.69491525423729,24.400000000000002,102.71186440677965,24.426666666666666,103.72881355932203,24.453333333333333C104.7457627118644,24.48,105.76271186440678,24.506666666666668,106.77966101694915,24.506666666666668C107.79661016949153,24.506666666666668,108.8135593220339,24.497777777777777,109.83050847457628,24.48C110.84745762711864,24.462222222222223,111.86440677966102,24.346666666666668,112.88135593220339,24.346666666666668C113.89830508474576,24.346666666666668,114.91525423728814,24.346666666666668,115.9322033898305,24.346666666666668C116.94915254237289,24.346666666666668,117.96610169491525,24.079999999999995,118.98305084745763,23.97333333333333C120,23.866666666666664,121.01694915254237,23.808888888888887,122.03389830508473,23.706666666666667C123.05084745762711,23.604444444444447,124.0677966101695,23.488888888888894,125.08474576271188,23.360000000000003C126.10169491525424,23.231111111111115,127.11864406779662,23.106666666666666,128.135593220339,22.93333333333333C129.15254237288136,22.759999999999998,130.16949152542372,22.497777777777777,131.1864406779661,22.32C132.20338983050846,22.142222222222223,133.22033898305085,22.053333333333335,134.23728813559322,21.866666666666667C135.25423728813558,21.68,136.27118644067798,21.48888888888889,137.28813559322035,21.200000000000003C138.3050847457627,20.911111111111115,139.3220338983051,20.52444444444445,140.33898305084747,20.133333333333336C141.35593220338984,19.742222222222228,142.3728813559322,19.302222222222223,143.38983050847457,18.853333333333335C144.40677966101694,18.404444444444444,145.42372881355934,17.920000000000005,146.4406779661017,17.44C147.45762711864407,16.960000000000004,148.47457627118644,16.457777777777775,149.4915254237288,15.973333333333333C150.50847457627117,15.488888888888885,151.52542372881356,15.124444444444443,152.54237288135593,14.533333333333331C153.5593220338983,13.94222222222222,154.5762711864407,13.133333333333336,155.59322033898306,12.426666666666666C156.61016949152543,11.720000000000002,157.6271186440678,10.951111111111109,158.64406779661016,10.293333333333333C159.66101694915253,9.635555555555552,160.67796610169492,9.026666666666666,161.6949152542373,8.479999999999999C162.71186440677965,7.933333333333332,163.72881355932205,7.4,164.74576271186442,7.013333333333334C165.76271186440678,6.6266666666666705,166.77966101694915,6.533333333333332,167.79661016949152,6.160000000000001C168.81355932203388,5.786666666666666,169.83050847457628,5.164444444444443,170.84745762711864,4.773333333333332C171.864406779661,4.382222222222221,172.8813559322034,3.902222222222226,173.89830508474577,3.8133333333333352C174.91525423728814,3.7244444444444444,175.93220338983053,3.679999999999999,176.9491525423729,3.679999999999999C177.96610169491527,3.679999999999999,178.98305084745763,3.693333333333333,180,3.706666666666667"></path><path class="axis-ceiling" stroke-width="1" stroke="black" fill="none" d="M175,0L180,0"></path><text class="axis-ceiling-label" font-family="sans-serif" text-anchor="end" font-size="10px" x="170" y="2.5">1500</text></g></svg>