<svg xmlns="http://www.w3.org/2000/svg" viewBox="0 0 180 60"><g transform="translate(0,20)"><path class="area" fill="rgba(0, 0, 0, 0.2)" d="M0,33.6283185840708C1.0169491525423728,33.80530973451327,2.0338983050847457,33.98230088495575,3.0508474576271185,33.98230088495575C4.067796610169491,33.98230088495575,5.084745762711864,33.27433628318584,6.101694915254237,33.27433628318584C7.11864406779661,33.27433628318584,8.135593220338983,34.27728613569322,9.152542372881356,34.690265486725664C10.169491525423728,35.10324483775811,11.186440677966102,35.75221238938053,12.203389830508474,35.75221238938053C13.220338983050846,35.75221238938053,14.23728813559322,35.75221238938053,15.254237288135592,35.75221238938053C16.271186440677965,35.75221238938053,17.28813559322034,39.292035398230084,18.305084745762713,39.292035398230084C19.322033898305087,39.292035398230084,20.338983050847457,34.690265486725664,21.35593220338983,34.690265486725664C22.372881355932204,34.690265486725664,23.389830508474574,34.690265486725664,24.406779661016948,34.690265486725664C25.423728813559322,34.690265486725664,26.440677966101696,33.98230088495575,27.45762711864407,33.98230088495575C28.47457627118644,33.98230088495575,29.491525423728813,35.04424778761062,30.508474576271183,35.04424778761062C31.525423728813557,35.04424778761062,32.54237288135593,34.336283185840706,33.559322033898304,34.336283185840706C34.57627118644068,34.336283185840706,35.59322033898305,36.10619469026548,36.610169491525426,36.10619469026548C37.6271186440678,36.10619469026548,38.644067796610166,34.690265486725664,39.66101694915254,34.690265486725664C40.67796610169491,34.690265486725664,41.69491525423729,37.99410029498526,42.71186440677966,38.230088495575224C43.728813559322035,38.46607669616519,44.7457627118644,38.584070796460175,45.762711864406775,38.584070796460175C46.77966101694915,38.584070796460175,47.79661016949152,38.584070796460175,48.813559322033896,38.584070796460175C49.83050847457627,38.584070796460175,50.847457627118644,37.16814159292036,51.86440677966102,37.16814159292036C52.88135593220339,37.16814159292036,53.898305084745765,39.64601769911504,54.91525423728814,39.64601769911504C55.93220338983051,39.64601769911504,56.94915254237288,38.64306784660767,57.96610169491525,38.230088495575224C58.983050847457626,37.817109144542776,59.99999999999999,37.46312684365782,61.01694915254237,37.16814159292036C62.03389830508474,36.873156342182895,63.05084745762712,36.8141592920354,64.0677966101695,36.46017699115044C65.08474576271186,36.10619469026548,66.10169491525424,35.45722713864307,67.11864406779661,35.04424778761062C68.13559322033899,34.631268436578175,69.15254237288136,33.98230088495575,70.16949152542374,33.98230088495575C71.1864406779661,33.98230088495575,72.20338983050848,35.75221238938053,73.22033898305085,35.75221238938053C74.23728813559322,35.75221238938053,75.2542372881356,30.79646017699115,76.27118644067797,30.79646017699115C77.28813559322033,30.79646017699115,78.30508474576271,31.858407079646017,79.32203389830508,31.858407079646017C80.33898305084746,31.858407079646017,81.35593220338983,31.44542772861357,82.37288135593221,31.150442477876105C83.38983050847457,30.855457227138643,84.40677966101696,30.737463126843657,85.42372881355932,30.08849557522124C86.4406779661017,29.43952802359882,87.45762711864407,27.25663716814159,88.47457627118645,27.25663716814159C89.49152542372882,27.25663716814159,90.50847457627118,29.38053097345133,91.52542372881355,29.38053097345133C92.54237288135593,29.38053097345133,93.55932203389831,27.84660766961653,94.57627118644069,26.54867256637168C95.59322033898306,25.250737463126843,96.61016949152543,22.94985250737463,97.62711864406779,21.5929203539823C98.64406779661016,20.235988200589965,99.66101694915254,19.174041297935105,100.6779661016949,18.4070796460177C101.69491525423729,17.64011799410029,102.71186440677965,17.404129793510325,103.72881355932203,16.991150442477874C104.7457627118644,16.578171091445427,105.76271186440678,15.929203539823007,106.77966101694915,15.929203539823007C107.79661016949153,15.929203539823007,108.8135593220339,16.63716814159292,109.83050847457628,16.63716814159292C110.84745762711864,16.63716814159292,111.86440677966102,7.669616519174037,112.88135593220339,7.433628318584069C113.89830508474576,7.197640117994101,114.91525423728814,7.079646017699117,115.9322033898305,7.079646017699117C116.94915254237289,7.079646017699117,117.96610169491525,10.147492625368725,118.98305084745763,11.68141592920354C120,13.21533923303834,121.01694915254237,14.159292035398252,122.03389830508473,16.283185840707965C123.05084745762711,18.407079646017706,124.0677966101695,24.42477876106195,125.08474576271188,24.42477876106195C126.10169491525424,24.42477876106195,127.11864406779662,16.991150442477874,128.135593220339,16.991150442477874C129.15254237288136,16.991150442477874,130.16949152542372,20.235988200589993,131.1864406779661,23.008849557522126C132.20338983050846,25.781710914454287,133.22033898305085,31.976401179941007,134.23728813559322,33.6283185840708C135.25423728813558,35.28023598820059,136.27118644067798,35.51622418879056,137.28813559322035,36.10619469026548C138.3050847457627,36.696165191740405,139.3220338983051,37.16814159292036,140.33898305084747,37.16814159292036C141.35593220338984,37.16814159292036,142.3728813559322,32.507374631268426,143.38983050847457,30.442477876106192C144.40677966101694,28.37758112094394,145.42372881355934,24.778761061946906,146.4406779661017,24.778761061946906C147.45762711864407,24.778761061946906,148.47457627118644,34.336283185840706,149.4915254237288,34.336283185840706C150.50847457627117,34.336283185840706,151.52542372881356,30.79646017699115,152.54237288135593,30.79646017699115C153.5593220338983,30.79646017699115,154.5762711864407,30.914454277286136,155.59322033898306,31.150442477876105C156.61016949152543,31.386430678466073,157.6271186440678,32.38938053097345,158.64406779661016,32.92035398230088C159.66101694915253,33.451327433628315,160.67796610169492,33.392330383480825,161.6949152542373,34.336283185840706C162.71186440677965,35.28023598820059,163.72881355932205,38.82005899705013,164.74576271186442,39.292035398230084C165.76271186440678,39.76401179941003,166.77966101694915,40,167.79661016949152,40C168.81355932203388,40,169.83050847457628,40,170.84745762711864,40C171.864406779661,40,172.8813559322034,40,173.89830508474577,40C174.91525423728814,40,175.93220338983053,38.58407079646018,176.9491525423729,37.876106194690266C177.96610169491527,37.16814159292036,178.98305084745763,36.46017699115045,180,35.75221238938053L180,40C178.98305084745763,40,177.96610169491527,40,176.9491525423729,40C175.93220338983053,40,174.91525423728814,40,173.89830508474577,40C172.8813559322034,40,171.864406779661,40,170.84745762711864,40C169.83050847457628,40,168.81355932203388,40,167.79661016949152,40C166.77966101694915,40,165.76271186440678,40,164.74576271186442,40C163.72881355932205,40,162.71186440677965,40,161.6949152542373,40C160.67796610169492,40,159.66101694915253,40,158.64406779661016,40C157.6271186440678,40,156.61016949152543,40,155.59322033898306,40C154.5762711864407,40,153.5593220338983,40,152.54237288135593,40C151.52542372881356,40,150.50847457627117,40,149.4915254237288,40C148.47457627118644,40,147.45762711864407,40,146.4406779661017,40C145.42372881355934,40,144.40677966101694,40,143.38983050847457,40C142.3728813559322,40,141.35593220338984,40,140.33898305084747,40C139.3220338983051,40,138.3050847457627,40,137.28813559322035,40C136.27118644067798,40,135.25423728813558,40,134.23728813559322,40C133.22033898305085,40,132.20338983050846,40,131.1864406779661,40C130.16949152542372,40,129.15254237288136,40,128.135593220339,40C127.11864406779662,40,126.10169491525424,40,125.08474576271188,40C124.0677966101695,40,123.05084745762711,40,122.03389830508473,40C121.01694915254237,40,120,40,118.98305084745763,40C117.96610169491525,40,116.94915254237289,40,115.9322033898305,40C114.91525423728814,40,113.89830508474576,40,112.88135593220339,40C111.86440677966102,40,110.84745762711864,40,109.83050847457628,40C108.8135593220339,40,107.79661016949153,40,106.77966101694915,40C105.76271186440678,40,104.7457627118644,40,103.72881355932203,40C102.71186440677965,40,101.69491525423729,40,100.6779661016949,40C99.66101694915254,40,98.64406779661016,40,97.62711864406779,40C96.61016949152543,40,95.59322033898306,40,94.57627118644069,40C93.55932203389831,40,92.54237288135593,40,91.52542372881355,40C90.50847457627118,40,89.49152542372882,40,88.47457627118645,40C87.45762711864407,40,86.4406779661017,40,85.42372881355932,40C84.40677966101696,40,83.38983050847457,40,82.37288135593221,40C81.35593220338983,40,80.33898305084746,40,79.32203389830508,40C78.30508474576271,40,77.28813559322033,40,76.27118644067797,40C75.2542372881356,40,74.23728813559322,40,73.22033898305085,40C72.20338983050848,40,71.1864406779661,40,70.16949152542374,40C69.15254237288136,40,68.13559322033899,40,67.11864406779661,40C66.10169491525424,40,65.08474576271186,40,64.0677966101695,40C63.05084745762712,40,62.03389830508474,40,61.01694915254237,40C59.99999999999999,40,58.983050847457626,40,57.96610169491525,40C56.94915254237288,40,55.93220338983051,40,54.91525423728814,40C53.898305084745765,40,52.88135593220339,40,51.86440677966102,40C50.847457627118644,40,49.83050847457627,40,48.813559322033896,40C47.79661016949152,40,46.77966101694915,40,45.762711864406775,40C44.7457627118644,40,43.728813559322035,40,42.71186440677966,40C41.69491525423729,40,40.67796610169491,40,39.66101694915254,40C38.644067796610166,40,37.6271186440678,40,36.610169491525426,40C35.59322033898305,40,34.57627118644068,40,33.559322033898304,40C32.54237288135593,40,31.525423728813557,40,30.508474576271183,40C29.491525423728813,40,28.47457627118644,40,27.45762711864407,40C26.440677966101696,40,25.423728813559322,40,24.406779661016948,40C23.389830508474574,40,22.372881355932204,40,21.35593220338983,40C20.338983050847457,40,19.322033898305087,40,18.305084745762713,40C17.28813559322034,40,16.271186440677965,40,15.254237288135592,40C14.23728813559322,40,13.220338983050846,40,12.203389830508474,40C11.186440677966102,40,10.169491525423728,40,9.152542372881356,40C8.135593220338983,40,7.11864406779661,40,6.101694915254237,40C5.084745762711864,40,4.067796610169491,40,3.0508474576271185,40C2.0338983050847457,40,1.0169491525423728,40,0,40Z"></path><path class="line" stroke="black" fill="none" d="M0,33.6283185840708C1.0169491525423728,33.80530973451327,2.0338983050847457,33.98230088495575,3.0508474576271185,33.98230088495575C4.067796610169491,33.98230088495575,5.084745762711864,33.27433628318584,6.101694915254237,33.27433628318584C7.11864406779661,33.27433628318584,8.135593220338983,34.27728613569322,9.152542372881356,34.690265486725664C10.169491525423728,35.10324483775811,11.186440677966102,35.75221238938053,12.203389830508474,35.75221238938053C13.220338983050846,35.75221238938053,14.23728813559322,35.75221238938053,15.254237288135592,35.75221238938053C16.271186440677965,35.75221238938053,17.28813559322034,39.292035398230084,18.305084745762713,39.292035398230084C19.322033898305087,39.292035398230084,20.338983050847457,34.690265486725664,21.35593220338983,34.690265486725664C22.372881355932204,34.690265486725664,23.389830508474574,34.690265486725664,24.406779661016948,34.690265486725664C25.423728813559322,34.690265486725664,26.440677966101696,33.98230088495575,27.45762711864407,33.98230088495575C28.47457627118644,33.98230088495575,29.491525423728813,35.04424778761062,30.508474576271183,35.04424778761062C31.525423728813557,35.04424778761062,32.54237288135593,34.336283185840706,33.559322033898304,34.336283185840706C34.57627118644068,34.336283185840706,35.59322033898305,36.10619469026548,36.610169491525426,36.10619469026548C37.6271186440678,36.10619469026548,38.644067796610166,34.690265486725664,39.66101694915254,34.690265486725664C40.67796610169491,34.690265486725664,41.69491525423729,37.99410029498526,42.71186440677966,38.230088495575224C43.728813559322035,38.46607669616519,44.7457627118644,38.584070796460175,45.762711864406775,38.584070796460175C46.77966101694915,38.584070796460175,47.79661016949152,38.584070796460175,48.813559322033896,38.584070796460175C49.83050847457627,38.584070796460175,50.847457627118644,37.16814159292036,51.86440677966102,37.16814159292036C52.88135593220339,37.16814159292036,53.898305084745765,39.64601769911504,54.91525423728814,39.64601769911504C55.93220338983051,39.64601769911504,56.94915254237288,38.64306784660767,57.96610169491525,38.230088495575224C58.983050847457626,37.817109144542776,59.99999999999999,37.46312684365782,61.01694915254237,37.16814159292036C62.03389830508474,36.873156342182895,63.05084745762712,36.8141592920354,64.0677966101695,36.46017699115044C65.08474576271186,36.10619469026548,66.10169491525424,35.45722713864307,67.11864406779661,35.04424778761062C68.13559322033899,34.631268436578175,69.15254237288136,33.98230088495575,70.16949152542374,33.98230088495575C71.1864406779661,33.98230088495575,72.20338983050848,35.75221238938053,73.22033898305085,35.75221238938053C74.23728813559322,35.75221238938053,75.2542372881356,30.79646017699115,76.27118644067797,30.79646017699115C77.28813559322033,30.79646017699115,78.30508474576271,31.858407079646017,79.32203389830508,31.858407079646017C80.33898305084746,31.858407079646017,81.35593220338983,31.44542772861357,82.37288135593221,31.150442477876105C83.38983050847457,30.855457227138643,84.40677966101696,30.737463126843657,85.42372881355932,30.08849557522124C86.4406779661017,29.43952802359882,87.45762711864407,27.25663716814159,88.47457627118645,27.25663716814159C89.49152542372882,27.25663716814159,90.50847457627118,29.38053097345133,91.52542372881355,29.38053097345133C92.54237288135593,29.38053097345133,93.55932203389831,27.84660766961653,94.57627118644069,26.54867256637168C95.59322033898306,25.250737463126843,96.61016949152543,22.94985250737463,97.62711864406779,21.5929203539823C98.64406779661016,20.235988200589965,99.66101694915254,19.174041297935105,100.6779661016949,18.4070796460177C101.69491525423729,17.64011799410029,102.71186440677965,17.404129793510325,103.72881355932203,16.991150442477874C104.7457627118644,16.578171091445427,105.76271186440678,15.929203539823007,106.77966101694915,15.929203539823007C107.79661016949153,15.929203539823007,108.8135593220339,16.63716814159292,109.83050847457628,16.63716814159292C110.84745762711864,16.63716814159292,111.86440677966102,7.669616519174037,112.88135593220339,7.433628318584069C113.89830508474576,7.197640117994101,114.91525423728814,7.079646017699117,115.9322033898305,7.079646017699117C116.94915254237289,7.079646017699117,117.96610169491525,10.147492625368725,118.98305084745763,11.68141592920354C120,13.21533923303834,121.01694915254237,14.159292035398252,122.03389830508473,16.283185840707965C123.05084745762711,18.407079646017706,124.0677966101695,24.42477876106195,125.08474576271188,24.42477876106195C126.10169491525424,24.42477876106195,127.11864406779662,16.991150442477874,128.135593220339,16.991150442477874C129.15254237288136,16.991150442477874,130.16949152542372,20.235988200589993,131.1864406779661,23.008849557522126C132.20338983050846,25.781710914454287,133.22033898305085,31.976401179941007,134.23728813559322,33.6283185840708C135.25423728813558,35.28023598820059,136.27118644067798,35.51622418879056,137.28813559322035,36.10619469026548C138.3050847457627,36.696165191740405,139.3220338983051,37.16814159292036,140.33898305084747,37.16814159292036C141.35593220338984,37.16814159292036,142.3728813559322,32.507374631268426,143.38983050847457,30.442477876106192C144.40677966101694,28.37758112094394,145.42372881355934,24.778761061946906,146.4406779661017,24.778761061946906C147.45762711864407,24.778761061946906,148.47457627118644,34.336283185840706,149.4915254237288,34.336283185840706C150.50847457627117,34.336283185840706,151.52542372881356,30.79646017699115,152.54237288135593,30.79646017699115C153.5593220338983,30.79646017699115,154.5762711864407,30.914454277286136,155.59322033898306,31.150442477876105C156.61016949152543,31.386430678466073,157.6271186440678,32.38938053097345,158.64406779661016,32.92035398230088C159.66101694915253,33.451327433628315,160.67796610169492,33.392330383480825,161.6949152542373,34.336283185840706C162.71186440677965,35.28023598820059,163.72881355932205,38.82005899705013,164.74576271186442,39.292035398230084C165.76271186440678,39.76401179941003,166.77966101694915,40,167.79661016949152,40C168.81355932203388,40,169.83050847457628,40,170.84745762711864,40C171.864406779661,40,172.8813559322034,40,173.89830508474577,40C174.91525423728814,40,175.93220338983053,38.58407079646018,176.9491525423729,37.876106194690266C177.96610169491527,37.16814159292036,178.98305084745763,36.46017699115045,180,35.75221238938053"></path><path class="axis-ceiling" stroke-width="1" stroke="black" fill="none" d="M175,0L180,0"></path><text class="axis-ceiling-label" font-family="sans-serif" text-anchor="end" font-size="10px" x="170" y="2.5">100</text></g></svg>