<svg xmlns="http://www.w3.org/2000/svg" viewBox="0 0 180 60"><g transform="translate(0,20)"><path class="area" fill="rgba(0, 0, 0, 0.2)" d="M0,25.306122448979593C1.0169491525423728,25.306122448979593,2.0338983050847457,25.306122448979593,3.0508474576271185,25.306122448979593C4.067796610169491,25.306122448979593,5.084745762711864,40,6.101694915254237,40C7.11864406779661,40,8.135593220338983,24.48979591836735,9.152542372881356,24.48979591836735C10.169491525423728,24.48979591836735,11.186440677966102,24.48979591836735,12.203389830508474,24.48979591836735C13.220338983050846,24.48979591836735,14.23728813559322,24.48979591836735,15.254237288135592,24.48979591836735C16.271186440677965,24.48979591836735,17.28813559322034,24.48979591836735,18.305084745762713,24.48979591836735C19.322033898305087,24.48979591836735,20.338983050847457,24.48979591836735,21.35593220338983,24.48979591836735C22.372881355932204,24.48979591836735,23.389830508474574,24.48979591836735,24.406779661016948,24.48979591836735C25.423728813559322,24.48979591836735,26.440677966101696,24.48979591836735,27.45762711864407,24.48979591836735C28.47457627118644,24.48979591836735,29.491525423728813,23.6734693877551,30.508474576271183,23.6734693877551C31.525423728813557,23.6734693877551,32.54237288135593,23.6734693877551,33.559322033898304,23.6734693877551C34.57627118644068,23.6734693877551,35.59322033898305,23.6734693877551,36.610169491525426,23.6734693877551C37.6271186440678,23.6734693877551,38.644067796610166,23.6734693877551,39.66101694915254,23.6734693877551C40.67796610169491,23.6734693877551,41.69491525423729,22.857142857142854,42.71186440677966,22.857142857142854C43.728813559322035,22.857142857142854,44.7457627118644,22.857142857142854,45.762711864406775,22.857142857142854C46.77966101694915,22.857142857142854,47.79661016949152,22.04081632653061,48.813559322033896,22.04081632653061C49.83050847457627,22.04081632653061,50.847457627118644,22.857142857142854,51.86440677966102,22.857142857142854C52.88135593220339,22.857142857142854,53.898305084745765,22.857142857142854,54.91525423728814,22.857142857142854C55.93220338983051,22.857142857142854,56.94915254237288,22.04081632653061,57.96610169491525,22.04081632653061C58.983050847457626,22.04081632653061,59.99999999999999,22.04081632653061,61.01694915254237,22.04081632653061C62.03389830508474,22.04081632653061,63.05084745762712,22.857142857142854,64.0677966101695,22.857142857142854C65.08474576271186,22.857142857142854,66.10169491525424,22.857142857142854,67.11864406779661,22.857142857142854C68.13559322033899,22.857142857142854,69.15254237288136,23.6734693877551,70.16949152542374,23.6734693877551C71.1864406779661,23.6734693877551,72.20338983050848,22.04081632653061,73.22033898305085,22.04081632653061C74.23728813559322,22.04081632653061,75.2542372881356,22.04081632653061,76.27118644067797,22.04081632653061C77.28813559322033,22.04081632653061,78.30508474576271,21.224489795918366,79.32203389830508,21.224489795918366C80.33898305084746,21.224489795918366,81.35593220338983,21.224489795918366,82.37288135593221,21.224489795918366C83.38983050847457,21.224489795918366,84.40677966101696,20.952380952380953,85.42372881355932,20.408163265306122C86.4406779661017,19.86394557823129,87.45762711864407,17.959183673469393,88.47457627118645,17.142857142857146C89.49152542372882,16.32653061224491,90.50847457627118,15.510204081632653,91.52542372881355,15.510204081632653C92.54237288135593,15.510204081632653,93.55932203389831,15.510204081632653,94.57627118644069,15.510204081632653C95.59322033898306,15.510204081632653,96.61016949152543,16.3265306122449,97.62711864406779,16.3265306122449C98.64406779661016,16.3265306122449,99.66101694915254,16.3265306122449,100.6779661016949,16.3265306122449C101.69491525423729,16.3265306122449,102.71186440677965,14.149659863945582,103.72881355932203,13.061224489795919C104.7457627118644,11.972789115646261,105.76271186440678,10.612244897959185,106.77966101694915,9.79591836734694C107.79661016949153,8.979591836734693,108.8135593220339,8.707482993197281,109.83050847457628,8.16326530612245C110.84745762711864,7.61904761904762,111.86440677966102,6.5306122448979576,112.88135593220339,6.5306122448979576C113.89830508474576,6.5306122448979576,114.91525423728814,7.346938775510203,115.9322033898305,7.346938775510203C116.94915254237289,7.346938775510203,117.96610169491525,6.122448979591839,118.98305084745763,5.714285714285716C120,5.306122448979597,121.01694915254237,4.89795918367347,122.03389830508473,4.89795918367347C123.05084745762711,4.89795918367347,124.0677966101695,7.346938775510203,125.08474576271188,7.346938775510203C126.10169491525424,7.346938775510203,127.11864406779662,6.802721088435373,128.135593220339,6.5306122448979576C129.15254237288136,6.258503401360544,130.16949152542372,5.714285714285716,131.1864406779661,5.714285714285716C132.20338983050846,5.714285714285716,133.22033898305085,8.979591836734695,134.23728813559322,8.979591836734695C135.25423728813558,8.979591836734695,136.27118644067798,7.346938775510203,137.28813559322035,7.346938775510203C138.3050847457627,7.346938775510203,139.3220338983051,8.979591836734691,140.33898305084747,9.79591836734694C141.35593220338984,10.612244897959183,142.3728813559322,12.244897959183675,143.38983050847457,12.244897959183675C144.40677966101694,12.244897959183675,145.42372881355934,4.081632653061225,146.4406779661017,4.081632653061225C147.45762711864407,4.081632653061225,148.47457627118644,4.625850340136056,149.4915254237288,4.89795918367347C150.50847457627117,5.1700680272108865,151.52542372881356,5.714285714285716,152.54237288135593,5.714285714285716C153.5593220338983,5.714285714285716,154.5762711864407,5.714285714285716,155.59322033898306,5.714285714285716C156.61016949152543,5.714285714285716,157.6271186440678,6.5306122448979576,158.64406779661016,6.5306122448979576C159.66101694915253,6.5306122448979576,160.67796610169492,5.4421768707483,161.6949152542373,4.89795918367347C162.71186440677965,4.353741496598641,163.72881355932205,3.2653061224489788,164.74576271186442,3.2653061224489788C165.76271186440678,3.2653061224489788,166.77966101694915,11.15646258503402,167.79661016949152,13.877551020408166C168.81355932203388,16.598639455782337,169.83050847457628,18.231292517006803,170.84745762711864,19.591836734693878C171.864406779661,20.952380952380953,172.8813559322034,21.088435374149658,173.89830508474577,22.04081632653061C174.91525423728814,22.993197278911563,175.93220338983053,25.306122448979593,176.9491525423729,25.306122448979593C177.96610169491527,25.306122448979593,178.98305084745763,24.081632653061224,180,22.857142857142854L180,40C178.98305084745763,40,177.96610169491527,40,176.9491525423729,40C175.93220338983053,40,174.91525423728814,40,173.89830508474577,40C172.8813559322034,40,171.864406779661,40,170.84745762711864,40C169.83050847457628,40,168.81355932203388,40,167.79661016949152,40C166.77966101694915,40,165.76271186440678,40,164.74576271186442,40C163.72881355932205,40,162.71186440677965,40,161.6949152542373,40C160.67796610169492,40,159.66101694915253,40,158.64406779661016,40C157.6271186440678,40,156.61016949152543,40,155.59322033898306,40C154.5762711864407,40,153.5593220338983,40,152.54237288135593,40C151.52542372881356,40,150.50847457627117,40,149.4915254237288,40C148.47457627118644,40,147.45762711864407,40,146.4406779661017,40C145.42372881355934,40,144.40677966101694,40,143.38983050847457,40C142.3728813559322,40,141.35593220338984,40,140.33898305084747,40C139.3220338983051,40,138.3050847457627,40,137.28813559322035,40C136.27118644067798,40,135.25423728813558,40,134.23728813559322,40C133.22033898305085,40,132.20338983050846,40,131.1864406779661,40C130.16949152542372,40,129.15254237288136,40,128.135593220339,40C127.11864406779662,40,126.10169491525424,40,125.08474576271188,40C124.0677966101695,40,123.05084745762711,40,122.03389830508473,40C121.01694915254237,40,120,40,118.98305084745763,40C117.96610169491525,40,116.94915254237289,40,115.9322033898305,40C114.91525423728814,40,113.89830508474576,40,112.88135593220339,40C111.86440677966102,40,110.84745762711864,40,109.83050847457628,40C108.8135593220339,40,107.79661016949153,40,106.77966101694915,40C105.76271186440678,40,104.7457627118644,40,103.72881355932203,40C102.71186440677965,40,101.69491525423729,40,100.6779661016949,40C99.66101694915254,40,98.64406779661016,40,97.62711864406779,40C96.61016949152543,40,95.59322033898306,40,94.57627118644069,40C93.55932203389831,40,92.54237288135593,40,91.52542372881355,40C90.50847457627118,40,89.49152542372882,40,88.47457627118645,40C87.45762711864407,40,86.4406779661017,40,85.42372881355932,40C84.40677966101696,40,83.38983050847457,40,82.37288135593221,40C81.35593220338983,40,80.33898305084746,40,79.32203389830508,40C78.30508474576271,40,77.28813559322033,40,76.27118644067797,40C75.2542372881356,40,74.23728813559322,40,73.22033898305085,40C72.20338983050848,40,71.1864406779661,40,70.16949152542374,40C69.15254237288136,40,68.13559322033899,40,67.11864406779661,40C66.10169491525424,40,65.08474576271186,40,64.0677966101695,40C63.05084745762712,40,62.03389830508474,40,61.01694915254237,40C59.99999999999999,40,58.983050847457626,40,57.96610169491525,40C56.94915254237288,40,55.93220338983051,40,54.91525423728814,40C53.898305084745765,40,52.88135593220339,40,51.86440677966102,40C50.847457627118644,40,49.83050847457627,40,48.813559322033896,40C47.79661016949152,40,46.77966101694915,40,45.762711864406775,40C44.7457627118644,40,43.728813559322035,40,42.71186440677966,40C41.69491525423729,40,40.67796610169491,40,39.66101694915254,40C38.644067796610166,40,37.6271186440678,40,36.610169491525426,40C35.59322033898305,40,34.57627118644068,40,33.559322033898304,40C32.54237288135593,40,31.525423728813557,40,30.508474576271183,40C29.491525423728813,40,28.47457627118644,40,27.45762711864407,40C26.440677966101696,40,25.423728813559322,40,24.406779661016948,40C23.389830508474574,40,22.372881355932204,40,21.35593220338983,40C20.338983050847457,40,19.322033898305087,40,18.305084745762713,40C17.28813559322034,40,16.271186440677965,40,15.254237288135592,40C14.23728813559322,40,13.220338983050846,40,12.203389830508474,40C11.186440677966102,40,10.169491525423728,40,9.152542372881356,40C8.135593220338983,40,7.11864406779661,40,6.101694915254237,40C5.084745762711864,40,4.067796610169491,40,3.0508474576271185,40C2.0338983050847457,40,1.0169491525423728,40,0,40Z"></path><path class="line" stroke="black" fill="none" d="M0,25.306122448979593C1.0169491525423728,25.306122448979593,2.0338983050847457,25.306122448979593,3.0508474576271185,25.306122448979593C4.067796610169491,25.306122448979593,5.084745762711864,40,6.101694915254237,40C7.11864406779661,40,8.135593220338983,24.48979591836735,9.152542372881356,24.48979591836735C10.169491525423728,24.48979591836735,11.186440677966102,24.48979591836735,12.203389830508474,24.48979591836735C13.220338983050846,24.48979591836735,14.23728813559322,24.48979591836735,15.254237288135592,24.48979591836735C16.271186440677965,24.48979591836735,17.28813559322034,24.48979591836735,18.305084745762713,24.48979591836735C19.322033898305087,24.48979591836735,20.338983050847457,24.48979591836735,21.35593220338983,24.48979591836735C22.372881355932204,24.48979591836735,23.389830508474574,24.48979591836735,24.406779661016948,24.48979591836735C25.423728813559322,24.48979591836735,26.440677966101696,24.48979591836735,27.45762711864407,24.48979591836735C28.47457627118644,24.48979591836735,29.491525423728813,23.6734693877551,30.508474576271183,23.6734693877551C31.525423728813557,23.6734693877551,32.54237288135593,23.6734693877551,33.559322033898304,23.6734693877551C34.57627118644068,23.6734693877551,35.59322033898305,23.6734693877551,36.610169491525426,23.6734693877551C37.6271186440678,23.6734693877551,38.644067796610166,23.6734693877551,39.66101694915254,23.6734693877551C40.67796610169491,23.6734693877551,41.69491525423729,22.857142857142854,42.71186440677966,22.857142857142854C43.728813559322035,22.857142857142854,44.7457627118644,22.857142857142854,45.762711864406775,22.857142857142854C46.77966101694915,22.857142857142854,47.79661016949152,22.04081632653061,48.813559322033896,22.04081632653061C49.83050847457627,22.04081632653061,50.847457627118644,22.857142857142854,51.86440677966102,22.857142857142854C52.88135593220339,22.857142857142854,53.898305084745765,22.857142857142854,54.91525423728814,22.857142857142854C55.93220338983051,22.857142857142854,56.94915254237288,22.04081632653061,57.96610169491525,22.04081632653061C58.983050847457626,22.04081632653061,59.99999999999999,22.04081632653061,61.01694915254237,22.04081632653061C62.03389830508474,22.04081632653061,63.05084745762712,22.857142857142854,64.0677966101695,22.857142857142854C65.08474576271186,22.857142857142854,66.10169491525424,22.857142857142854,67.11864406779661,22.857142857142854C68.13559322033899,22.857142857142854,69.15254237288136,23.6734693877551,70.16949152542374,23.6734693877551C71.1864406779661,23.6734693877551,72.20338983050848,22.04081632653061,73.22033898305085,22.04081632653061C74.23728813559322,22.04081632653061,75.2542372881356,22.04081632653061,76.27118644067797,22.04081632653061C77.28813559322033,22.04081632653061,78.30508474576271,21.224489795918366,79.32203389830508,21.224489795918366C80.33898305084746,21.224489795918366,81.35593220338983,21.224489795918366,82.37288135593221,21.224489795918366C83.38983050847457,21.224489795918366,84.40677966101696,20.952380952380953,85.42372881355932,20.408163265306122C86.4406779661017,19.86394557823129,87.45762711864407,17.959183673469393,88.47457627118645,17.142857142857146C89.49152542372882,16.32653061224491,90.50847457627118,15.510204081632653,91.52542372881355,15.510204081632653C92.54237288135593,15.510204081632653,93.55932203389831,15.510204081632653,94.57627118644069,15.510204081632653C95.59322033898306,15.510204081632653,96.61016949152543,16.3265306122449,97.62711864406779,16.3265306122449C98.64406779661016,16.3265306122449,99.66101694915254,16.3265306122449,100.6779661016949,16.3265306122449C101.69491525423729,16.3265306122449,102.71186440677965,14.149659863945582,103.72881355932203,13.061224489795919C104.7457627118644,11.972789115646261,105.76271186440678,10.612244897959185,106.77966101694915,9.79591836734694C107.79661016949153,8.979591836734693,108.8135593220339,8.707482993197281,109.83050847457628,8.16326530612245C110.84745762711864,7.61904761904762,111.86440677966102,6.5306122448979576,112.88135593220339,6.5306122448979576C113.89830508474576,6.5306122448979576,114.91525423728814,7.346938775510203,115.9322033898305,7.346938775510203C116.94915254237289,7.346938775510203,117.96610169491525,6.122448979591839,118.98305084745763,5.714285714285716C120,5.306122448979597,121.01694915254237,4.89795918367347,122.03389830508473,4.89795918367347C123.05084745762711,4.89795918367347,124.0677966101695,7.346938775510203,125.08474576271188,7.346938775510203C126.10169491525424,7.346938775510203,127.11864406779662,6.802721088435373,128.135593220339,6.5306122448979576C129.15254237288136,6.258503401360544,130.16949152542372,5.714285714285716,131.1864406779661,5.714285714285716C132.20338983050846,5.714285714285716,133.22033898305085,8.979591836734695,134.23728813559322,8.979591836734695C135.25423728813558,8.979591836734695,136.27118644067798,7.346938775510203,137.28813559322035,7.346938775510203C138.3050847457627,7.346938775510203,139.3220338983051,8.979591836734691,140.33898305084747,9.79591836734694C141.35593220338984,10.612244897959183,142.3728813559322,12.244897959183675,143.38983050847457,12.244897959183675C144.40677966101694,12.244897959183675,145.42372881355934,4.081632653061225,146.4406779661017,4.081632653061225C147.45762711864407,4.081632653061225,148.47457627118644,4.625850340136056,149.4915254237288,4.89795918367347C150.50847457627117,5.1700680272108865,151.52542372881356,5.714285714285716,152.54237288135593,5.714285714285716C153.5593220338983,5.714285714285716,154.5762711864407,5.714285714285716,155.59322033898306,5.714285714285716C156.61016949152543,5.714285714285716,157.6271186440678,6.5306122448979576,158.64406779661016,6.5306122448979576C159.66101694915253,6.5306122448979576,160.67796610169492,5.4421768707483,161.6949152542373,4.89795918367347C162.71186440677965,4.353741496598641,163.72881355932205,3.2653061224489788,164.74576271186442,3.2653061224489788C165.76271186440678,3.2653061224489788,166.77966101694915,11.15646258503402,167.79661016949152,13.877551020408166C168.81355932203388,16.598639455782337,169.83050847457628,18.231292517006803,170.84745762711864,19.591836734693878C171.864406779661,20.952380952380953,172.8813559322034,21.088435374149658,173.89830508474577,22.04081632653061C174.91525423728814,22.993197278911563,175.93220338983053,25.306122448979593,176.9491525423729,25.306122448979593C177.96610169491527,25.306122448979593,178.98305084745763,24.081632653061224,180,22.857142857142854"></path><path class="axis-ceiling" stroke-width="1" stroke="black" fill="none" d="M175,0L180,0"></path><text class="axis-ceiling-label" font-family="sans-serif" text-anchor="end" font-size="10px" x="170" y="2.5">30</text></g></svg>