<svg xmlns="http://www.w3.org/2000/svg" viewBox="0 0 180 60"><g transform="translate(0,20)"><path class="area" fill="rgba(0, 0, 0, 0.2)" d="M0,36.4C1.0169491525423728,36.266666666666666,2.0338983050847457,36.13333333333333,3.0508474576271185,36C4.067796610169491,35.86666666666667,5.084745762711864,35.733333333333334,6.101694915254237,35.6C7.11864406779661,35.46666666666667,8.135593220338983,35.35,9.152542372881356,35.2C10.169491525423728,35.050000000000004,11.186440677966102,34.849999999999994,12.203389830508474,34.699999999999996C13.220338983050846,34.55,14.23728813559322,34.45,15.254237288135592,34.300000000000004C16.271186440677965,34.150000000000006,17.28813559322034,33.96666666666667,18.305084745762713,33.8C19.322033898305087,33.63333333333333,20.338983050847457,33.46666666666666,21.35593220338983,33.3C22.372881355932204,33.13333333333333,23.389830508474574,32.983333333333334,24.406779661016948,32.800000000000004C25.423728813559322,32.61666666666667,26.440677966101696,32.4,27.45762711864407,32.199999999999996C28.47457627118644,31.999999999999996,29.491525423728813,31.783333333333335,30.508474576271183,31.6C31.525423728813557,31.416666666666668,32.54237288135593,31.28333333333333,33.559322033898304,31.099999999999998C34.57627118644068,30.916666666666664,35.59322033898305,30.7,36.610169491525426,30.5C37.6271186440678,30.3,38.644067796610166,30.083333333333336,39.66101694915254,29.900000000000002C40.67796610169491,29.71666666666667,41.69491525423729,29.583333333333332,42.71186440677966,29.4C43.728813559322035,29.216666666666665,44.7457627118644,28.98333333333333,45.762711864406775,28.799999999999997C46.77966101694915,28.616666666666664,47.79661016949152,28.466666666666665,48.813559322033896,28.3C49.83050847457627,28.133333333333336,50.847457627118644,27.983333333333338,51.86440677966102,27.800000000000004C52.88135593220339,27.61666666666667,53.898305084745765,27.416666666666664,54.91525423728814,27.199999999999996C55.93220338983051,26.983333333333327,56.94915254237288,26.716666666666665,57.96610169491525,26.5C58.983050847457626,26.283333333333335,59.99999999999999,26.133333333333333,61.01694915254237,25.9C62.03389830508474,25.666666666666664,63.05084745762712,25.349999999999998,64.0677966101695,25.099999999999998C65.08474576271186,24.849999999999998,66.10169491525424,24.65,67.11864406779661,24.4C68.13559322033899,24.15,69.15254237288136,23.85,70.16949152542374,23.6C71.1864406779661,23.35,72.20338983050848,23.133333333333333,73.22033898305085,22.9C74.23728813559322,22.666666666666664,75.2542372881356,22.41666666666666,76.27118644067797,22.199999999999996C77.28813559322033,21.98333333333333,78.30508474576271,21.816666666666666,79.32203389830508,21.6C80.33898305084746,21.383333333333336,81.35593220338983,21.116666666666664,82.37288135593221,20.9C83.38983050847457,20.683333333333334,84.40677966101696,20.500000000000004,85.42372881355932,20.300000000000004C86.4406779661017,20.100000000000005,87.45762711864407,19.900000000000006,88.47457627118645,19.700000000000003C89.49152542372882,19.500000000000004,90.50847457627118,19.3,91.52542372881355,19.1C92.54237288135593,18.9,93.55932203389831,18.700000000000003,94.57627118644069,18.5C95.59322033898306,18.3,96.61016949152543,18.083333333333332,97.62711864406779,17.9C98.64406779661016,17.716666666666665,99.66101694915254,17.583333333333336,100.6779661016949,17.400000000000002C101.69491525423729,17.21666666666667,102.71186440677965,17,103.72881355932203,16.8C104.7457627118644,16.6,105.76271186440678,16.383333333333336,106.77966101694915,16.200000000000003C107.79661016949153,16.01666666666667,108.8135593220339,15.850000000000001,109.83050847457628,15.7C110.84745762711864,15.549999999999999,111.86440677966102,15.416666666666664,112.88135593220339,15.299999999999997C113.89830508474576,15.18333333333333,114.91525423728814,15.116666666666665,115.9322033898305,15C116.94915254237289,14.883333333333333,117.96610169491525,14.716666666666667,118.98305084745763,14.6C120,14.483333333333334,121.01694915254237,14.416666666666666,122.03389830508473,14.3C123.05084745762711,14.183333333333334,124.0677966101695,14.01666666666667,125.08474576271188,13.900000000000002C126.10169491525424,13.783333333333335,127.11864406779662,13.716666666666665,128.135593220339,13.599999999999998C129.15254237288136,13.48333333333333,130.16949152542372,13.333333333333332,131.1864406779661,13.2C132.20338983050846,13.066666666666665,133.22033898305085,12.93333333333333,134.23728813559322,12.799999999999997C135.25423728813558,12.666666666666664,136.27118644067798,12.566666666666668,137.28813559322035,12.400000000000002C138.3050847457627,12.233333333333336,139.3220338983051,11.983333333333336,140.33898305084747,11.8C141.35593220338984,11.616666666666667,142.3728813559322,11.48333333333333,143.38983050847457,11.299999999999999C144.40677966101694,11.116666666666665,145.42372881355934,10.883333333333333,146.4406779661017,10.7C147.45762711864407,10.516666666666667,148.47457627118644,10.366666666666665,149.4915254237288,10.2C150.50847457627117,10.033333333333333,151.52542372881356,9.866666666666669,152.54237288135593,9.700000000000003C153.5593220338983,9.533333333333337,154.5762711864407,9.4,155.59322033898306,9.2C156.61016949152543,9,157.6271186440678,8.716666666666665,158.64406779661016,8.5C159.66101694915253,8.283333333333331,160.67796610169492,8.1,161.6949152542373,7.9C162.71186440677965,7.7,163.72881355932205,7.5166666666666675,164.74576271186442,7.3C165.76271186440678,7.083333333333334,166.77966101694915,6.85,167.79661016949152,6.600000000000001C168.81355932203388,6.3500000000000005,169.83050847457628,6.083333333333334,170.84745762711864,5.800000000000001C171.864406779661,5.5166666666666675,172.8813559322034,5.200000000000003,173.89830508474577,4.900000000000002C174.91525423728814,4.600000000000001,175.93220338983053,4.283333333333334,176.9491525423729,3.999999999999999C177.96610169491527,3.716666666666667,178.98305084745763,3.4583333333333326,180,3.1999999999999984L180,40C178.98305084745763,40,177.96610169491527,40,176.9491525423729,40C175.93220338983053,40,174.91525423728814,40,173.89830508474577,40C172.8813559322034,40,171.864406779661,40,170.84745762711864,40C169.83050847457628,40,168.81355932203388,40,167.79661016949152,40C166.77966101694915,40,165.76271186440678,40,164.74576271186442,40C163.72881355932205,40,162.71186440677965,40,161.6949152542373,40C160.67796610169492,40,159.66101694915253,40,158.64406779661016,40C157.6271186440678,40,156.61016949152543,40,155.59322033898306,40C154.5762711864407,40,153.5593220338983,40,152.54237288135593,40C151.52542372881356,40,150.50847457627117,40,149.4915254237288,40C148.47457627118644,40,147.45762711864407,40,146.4406779661017,40C145.42372881355934,40,144.40677966101694,40,143.38983050847457,40C142.3728813559322,40,141.35593220338984,40,140.33898305084747,40C139.3220338983051,40,138.3050847457627,40,137.28813559322035,40C136.27118644067798,40,135.25423728813558,40,134.23728813559322,40C133.22033898305085,40,132.20338983050846,40,131.1864406779661,40C130.16949152542372,40,129.15254237288136,40,128.135593220339,40C127.11864406779662,40,126.10169491525424,40,125.08474576271188,40C124.0677966101695,40,123.05084745762711,40,122.03389830508473,40C121.01694915254237,40,120,40,118.98305084745763,40C117.96610169491525,40,116.94915254237289,40,115.9322033898305,40C114.91525423728814,40,113.89830508474576,40,112.88135593220339,40C111.86440677966102,40,110.84745762711864,40,109.83050847457628,40C108.8135593220339,40,107.79661016949153,40,106.77966101694915,40C105.76271186440678,40,104.7457627118644,40,103.72881355932203,40C102.71186440677965,40,101.69491525423729,40,100.6779661016949,40C99.66101694915254,40,98.64406779661016,40,97.62711864406779,40C96.61016949152543,40,95.59322033898306,40,94.57627118644069,40C93.55932203389831,40,92.54237288135593,40,91.52542372881355,40C90.50847457627118,40,89.49152542372882,40,88.47457627118645,40C87.45762711864407,40,86.4406779661017,40,85.42372881355932,40C84.40677966101696,40,83.38983050847457,40,82.37288135593221,40C81.35593220338983,40,80.33898305084746,40,79.32203389830508,40C78.30508474576271,40,77.28813559322033,40,76.27118644067797,40C75.2542372881356,40,74.23728813559322,40,73.22033898305085,40C72.20338983050848,40,71.1864406779661,40,70.16949152542374,40C69.15254237288136,40,68.13559322033899,40,67.11864406779661,40C66.10169491525424,40,65.08474576271186,40,64.0677966101695,40C63.05084745762712,40,62.03389830508474,40,61.01694915254237,40C59.99999999999999,40,58.983050847457626,40,57.96610169491525,40C56.94915254237288,40,55.93220338983051,40,54.91525423728814,40C53.898305084745765,40,52.88135593220339,40,51.86440677966102,40C50.847457627118644,40,49.83050847457627,40,48.813559322033896,40C47.79661016949152,40,46.77966101694915,40,45.762711864406775,40C44.7457627118644,40,43.728813559322035,40,42.71186440677966,40C41.69491525423729,40,40.67796610169491,40,39.66101694915254,40C38.644067796610166,40,37.6271186440678,40,36.610169491525426,40C35.59322033898305,40,34.57627118644068,40,33.559322033898304,40C32.54237288135593,40,31.525423728813557,40,30.508474576271183,40C29.491525423728813,40,28.47457627118644,40,27.45762711864407,40C26.440677966101696,40,25.423728813559322,40,24.406779661016948,40C23.389830508474574,40,22.372881355932204,40,21.35593220338983,40C20.338983050847457,40,19.322033898305087,40,18.305084745762713,40C17.28813559322034,40,16.271186440677965,40,15.254237288135592,40C14.23728813559322,40,13.220338983050846,40,12.203389830508474,40C11.186440677966102,40,10.169491525423728,40,9.152542372881356,40C8.135593220338983,40,7.11864406779661,40,6.101694915254237,40C5.084745762711864,40,4.067796610169491,40,3.0508474576271185,40C2.0338983050847457,40,1.0169491525423728,40,0,40Z"></path><path class="line" stroke="black" fill="none" d="M0,36.4C1.0169491525423728,36.266666666666666,2.0338983050847457,36.13333333333333,3.0508474576271185,36C4.067796610169491,35.86666666666667,5.084745762711864,35.733333333333334,6.101694915254237,35.6C7.11864406779661,35.46666666666667,8.135593220338983,35.35,9.152542372881356,35.2C10.169491525423728,35.050000000000004,11.186440677966102,34.849999999999994,12.203389830508474,34.699999999999996C13.220338983050846,34.55,14.23728813559322,34.45,15.254237288135592,34.300000000000004C16.271186440677965,34.150000000000006,17.28813559322034,33.96666666666667,18.305084745762713,33.8C19.322033898305087,33.63333333333333,20.338983050847457,33.46666666666666,21.35593220338983,33.3C22.372881355932204,33.13333333333333,23.389830508474574,32.983333333333334,24.406779661016948,32.800000000000004C25.423728813559322,32.61666666666667,26.440677966101696,32.4,27.45762711864407,32.199999999999996C28.47457627118644,31.999999999999996,29.491525423728813,31.783333333333335,30.508474576271183,31.6C31.525423728813557,31.416666666666668,32.54237288135593,31.28333333333333,33.559322033898304,31.099999999999998C34.57627118644068,30.916666666666664,35.59322033898305,30.7,36.610169491525426,30.5C37.6271186440678,30.3,38.644067796610166,30.083333333333336,39.66101694915254,29.900000000000002C40.67796610169491,29.71666666666667,41.69491525423729,29.583333333333332,42.71186440677966,29.4C43.728813559322035,29.216666666666665,44.7457627118644,28.98333333333333,45.762711864406775,28.799999999999997C46.77966101694915,28.616666666666664,47.79661016949152,28.466666666666665,48.813559322033896,28.3C49.83050847457627,28.133333333333336,50.847457627118644,27.983333333333338,51.86440677966102,27.800000000000004C52.88135593220339,27.61666666666667,53.898305084745765,27.416666666666664,54.91525423728814,27.199999999999996C55.93220338983051,26.983333333333327,56.94915254237288,26.716666666666665,57.96610169491525,26.5C58.983050847457626,26.283333333333335,59.99999999999999,26.133333333333333,61.01694915254237,25.9C62.03389830508474,25.666666666666664,63.05084745762712,25.349999999999998,64.0677966101695,25.099999999999998C65.08474576271186,24.849999999999998,66.10169491525424,24.65,67.11864406779661,24.4C68.13559322033899,24.15,69.15254237288136,23.85,70.16949152542374,23.6C71.1864406779661,23.35,72.20338983050848,23.133333333333333,73.22033898305085,22.9C74.23728813559322,22.666666666666664,75.2542372881356,22.41666666666666,76.27118644067797,22.199999999999996C77.28813559322033,21.98333333333333,78.30508474576271,21.816666666666666,79.32203389830508,21.6C80.33898305084746,21.383333333333336,81.35593220338983,21.116666666666664,82.37288135593221,20.9C83.38983050847457,20.683333333333334,84.40677966101696,20.500000000000004,85.42372881355932,20.300000000000004C86.4406779661017,20.100000000000005,87.45762711864407,19.900000000000006,88.47457627118645,19.700000000000003C89.49152542372882,19.500000000000004,90.50847457627118,19.3,91.52542372881355,19.1C92.54237288135593,18.9,93.55932203389831,18.700000000000003,94.57627118644069,18.5C95.59322033898306,18.3,96.61016949152543,18.083333333333332,97.62711864406779,17.9C98.64406779661016,17.716666666666665,99.66101694915254,17.583333333333336,100.6779661016949,17.400000000000002C101.69491525423729,17.21666666666667,102.71186440677965,17,103.72881355932203,16.8C104.7457627118644,16.6,105.76271186440678,16.383333333333336,106.77966101694915,16.200000000000003C107.79661016949153,16.01666666666667,108.8135593220339,15.850000000000001,109.83050847457628,15.7C110.84745762711864,15.549999999999999,111.86440677966102,15.416666666666664,112.88135593220339,15.299999999999997C113.89830508474576,15.18333333333333,114.91525423728814,15.116666666666665,115.9322033898305,15C116.94915254237289,14.883333333333333,117.96610169491525,14.716666666666667,118.98305084745763,14.6C120,14.483333333333334,121.01694915254237,14.416666666666666,122.03389830508473,14.3C123.05084745762711,14.183333333333334,124.0677966101695,14.01666666666667,125.08474576271188,13.900000000000002C126.10169491525424,13.783333333333335,127.11864406779662,13.716666666666665,128.135593220339,13.599999999999998C129.15254237288136,13.48333333333333,130.16949152542372,13.333333333333332,131.1864406779661,13.2C132.20338983050846,13.066666666666665,133.22033898305085,12.93333333333333,134.23728813559322,12.799999999999997C135.25423728813558,12.666666666666664,136.27118644067798,12.566666666666668,137.28813559322035,12.400000000000002C138.3050847457627,12.233333333333336,139.3220338983051,11.983333333333336,140.33898305084747,11.8C141.35593220338984,11.616666666666667,142.3728813559322,11.48333333333333,143.38983050847457,11.299999999999999C144.40677966101694,11.116666666666665,145.42372881355934,10.883333333333333,146.4406779661017,10.7C147.45762711864407,10.516666666666667,148.47457627118644,10.366666666666665,149.4915254237288,10.2C150.50847457627117,10.033333333333333,151.52542372881356,9.866666666666669,152.54237288135593,9.700000000000003C153.5593220338983,9.533333333333337,154.5762711864407,9.4,155.59322033898306,9.2C156.61016949152543,9,157.6271186440678,8.716666666666665,158.64406779661016,8.5C159.66101694915253,8.283333333333331,160.67796610169492,8.1,161.6949152542373,7.9C162.71186440677965,7.7,163.72881355932205,7.5166666666666675,164.74576271186442,7.3C165.76271186440678,7.083333333333334,166.77966101694915,6.85,167.79661016949152,6.600000000000001C168.81355932203388,6.3500000000000005,169.83050847457628,6.083333333333334,170.84745762711864,5.800000000000001C171.864406779661,5.5166666666666675,172.8813559322034,5.200000000000003,173.89830508474577,4.900000000000002C174.91525423728814,4.600000000000001,175.93220338983053,4.283333333333334,176.9491525423729,3.999999999999999C177.96610169491527,3.716666666666667,178.98305084745763,3.4583333333333326,180,3.1999999999999984"></path><path class="axis-ceiling" stroke-width="1" stroke="black" fill="none" d="M175,0L180,0"></path><text class="axis-ceiling-label" font-family="sans-serif" text-anchor="end" font-size="10px" x="170" y="2.5">400</text></g></svg>