<svg xmlns="http://www.w3.org/2000/svg" viewBox="0 0 180 60"><g transform="translate(0,20)"><path class="area" fill="rgba(0, 0, 0, 0.2)" d="M0,36.64C1.0169491525423728,36.56,2.0338983050847457,36.480000000000004,3.0508474576271185,36.480000000000004C4.067796610169491,36.480000000000004,5.084745762711864,36.480000000000004,6.101694915254237,36.480000000000004C7.11864406779661,36.480000000000004,8.135593220338983,36.480000000000004,9.152542372881356,36.480000000000004C10.169491525423728,36.480000000000004,11.186440677966102,36.32,12.203389830508474,36.32C13.220338983050846,36.32,14.23728813559322,36.32,15.254237288135592,36.32C16.271186440677965,36.32,17.28813559322034,36.32,18.305084745762713,36.32C19.322033898305087,36.32,20.338983050847457,36.160000000000004,21.35593220338983,36.160000000000004C22.372881355932204,36.160000000000004,23.389830508474574,36.160000000000004,24.406779661016948,36.160000000000004C25.423728813559322,36.160000000000004,26.440677966101696,36.160000000000004,27.45762711864407,36.160000000000004C28.47457627118644,36.160000000000004,29.491525423728813,36,30.508474576271183,36C31.525423728813557,36,32.54237288135593,36,33.559322033898304,36C34.57627118644068,36,35.59322033898305,36,36.610169491525426,36C37.6271186440678,36,38.644067796610166,36,39.66101694915254,36C40.67796610169491,36,41.69491525423729,36,42.71186440677966,36C43.728813559322035,36,44.7457627118644,36,45.762711864406775,36C46.77966101694915,36,47.79661016949152,36,48.813559322033896,36C49.83050847457627,36,50.847457627118644,36,51.86440677966102,36C52.88135593220339,36,53.898305084745765,36,54.91525423728814,36C55.93220338983051,36,56.94915254237288,35.92,57.96610169491525,35.84C58.983050847457626,35.760000000000005,59.99999999999999,35.62666666666667,61.01694915254237,35.52C62.03389830508474,35.413333333333334,63.05084745762712,35.333333333333336,64.0677966101695,35.2C65.08474576271186,35.06666666666667,66.10169491525424,34.879999999999995,67.11864406779661,34.72C68.13559322033899,34.559999999999995,69.15254237288136,34.42666666666667,70.16949152542374,34.24C71.1864406779661,34.053333333333335,72.20338983050848,33.81333333333333,73.22033898305085,33.6C74.23728813559322,33.38666666666667,75.2542372881356,33.17333333333333,76.27118644067797,32.96C77.28813559322033,32.74666666666667,78.30508474576271,32.56,79.32203389830508,32.32C80.33898305084746,32.08,81.35593220338983,31.76,82.37288135593221,31.520000000000003C83.38983050847457,31.280000000000005,84.40677966101696,31.12,85.42372881355932,30.880000000000003C86.4406779661017,30.64,87.45762711864407,30.346666666666668,88.47457627118645,30.08C89.49152542372882,29.813333333333333,90.50847457627118,29.546666666666667,91.52542372881355,29.28C92.54237288135593,29.013333333333332,93.55932203389831,28.773333333333333,94.57627118644069,28.479999999999997C95.59322033898306,28.186666666666664,96.61016949152543,27.839999999999996,97.62711864406779,27.519999999999996C98.64406779661016,27.199999999999996,99.66101694915254,26.853333333333328,100.6779661016949,26.559999999999995C101.69491525423729,26.266666666666662,102.71186440677965,26.053333333333335,103.72881355932203,25.76C104.7457627118644,25.46666666666667,105.76271186440678,25.12,106.77966101694915,24.8C107.79661016949153,24.48,108.8135593220339,24.133333333333333,109.83050847457628,23.84C110.84745762711864,23.546666666666667,111.86440677966102,23.333333333333336,112.88135593220339,23.040000000000003C113.89830508474576,22.74666666666667,114.91525423728814,22.373333333333335,115.9322033898305,22.080000000000002C116.94915254237289,21.78666666666667,117.96610169491525,21.54666666666667,118.98305084745763,21.28C120,21.013333333333335,121.01694915254237,20.77333333333333,122.03389830508473,20.48C123.05084745762711,20.186666666666664,124.0677966101695,19.866666666666667,125.08474576271188,19.52C126.10169491525424,19.173333333333336,127.11864406779662,18.746666666666666,128.135593220339,18.4C129.15254237288136,18.053333333333335,130.16949152542372,17.813333333333333,131.1864406779661,17.44C132.20338983050846,17.066666666666666,133.22033898305085,16.560000000000002,134.23728813559322,16.16C135.25423728813558,15.76,136.27118644067798,15.44,137.28813559322035,15.04C138.3050847457627,14.639999999999999,139.3220338983051,14.16,140.33898305084747,13.759999999999998C141.35593220338984,13.36,142.3728813559322,13.013333333333328,143.38983050847457,12.639999999999997C144.40677966101694,12.266666666666662,145.42372881355934,11.866666666666669,146.4406779661017,11.520000000000001C147.45762711864407,11.173333333333337,148.47457627118644,10.906666666666666,149.4915254237288,10.56C150.50847457627117,10.213333333333333,151.52542372881356,9.786666666666667,152.54237288135593,9.44C153.5593220338983,9.093333333333332,154.5762711864407,8.8,155.59322033898306,8.479999999999999C156.61016949152543,8.16,157.6271186440678,7.839999999999996,158.64406779661016,7.519999999999998C159.66101694915253,7.199999999999997,160.67796610169492,6.880000000000001,161.6949152542373,6.560000000000001C162.71186440677965,6.240000000000002,163.72881355932205,5.920000000000003,164.74576271186442,5.6000000000000005C165.76271186440678,5.280000000000002,166.77966101694915,4.933333333333332,167.79661016949152,4.64C168.81355932203388,4.346666666666665,169.83050847457628,4.133333333333333,170.84745762711864,3.839999999999999C171.864406779661,3.5466666666666655,172.8813559322034,3.1999999999999975,173.89830508474577,2.879999999999998C174.91525423728814,2.5599999999999987,175.93220338983053,2.2133333333333356,176.9491525423729,1.9200000000000017C177.96610169491527,1.6266666666666705,178.98305084745763,1.3733333333333357,180,1.120000000000001L180,40C178.98305084745763,40,177.96610169491527,40,176.9491525423729,40C175.93220338983053,40,174.91525423728814,40,173.89830508474577,40C172.8813559322034,40,171.864406779661,40,170.84745762711864,40C169.83050847457628,40,168.81355932203388,40,167.79661016949152,40C166.77966101694915,40,165.76271186440678,40,164.74576271186442,40C163.72881355932205,40,162.71186440677965,40,161.6949152542373,40C160.67796610169492,40,159.66101694915253,40,158.64406779661016,40C157.6271186440678,40,156.61016949152543,40,155.59322033898306,40C154.5762711864407,40,153.5593220338983,40,152.54237288135593,40C151.52542372881356,40,150.50847457627117,40,149.4915254237288,40C148.47457627118644,40,147.45762711864407,40,146.4406779661017,40C145.42372881355934,40,144.40677966101694,40,143.38983050847457,40C142.3728813559322,40,141.35593220338984,40,140.33898305084747,40C139.3220338983051,40,138.3050847457627,40,137.28813559322035,40C136.27118644067798,40,135.25423728813558,40,134.23728813559322,40C133.22033898305085,40,132.20338983050846,40,131.1864406779661,40C130.16949152542372,40,129.15254237288136,40,128.135593220339,40C127.11864406779662,40,126.10169491525424,40,125.08474576271188,40C124.0677966101695,40,123.05084745762711,40,122.03389830508473,40C121.01694915254237,40,120,40,118.98305084745763,40C117.96610169491525,40,116.94915254237289,40,115.9322033898305,40C114.91525423728814,40,113.89830508474576,40,112.88135593220339,40C111.86440677966102,40,110.84745762711864,40,109.83050847457628,40C108.8135593220339,40,107.79661016949153,40,106.77966101694915,40C105.76271186440678,40,104.7457627118644,40,103.72881355932203,40C102.71186440677965,40,101.69491525423729,40,100.6779661016949,40C99.66101694915254,40,98.64406779661016,40,97.62711864406779,40C96.61016949152543,40,95.59322033898306,40,94.57627118644069,40C93.55932203389831,40,92.54237288135593,40,91.52542372881355,40C90.50847457627118,40,89.49152542372882,40,88.47457627118645,40C87.45762711864407,40,86.4406779661017,40,85.42372881355932,40C84.40677966101696,40,83.38983050847457,40,82.37288135593221,40C81.35593220338983,40,80.33898305084746,40,79.32203389830508,40C78.30508474576271,40,77.28813559322033,40,76.27118644067797,40C75.2542372881356,40,74.23728813559322,40,73.22033898305085,40C72.20338983050848,40,71.1864406779661,40,70.16949152542374,40C69.15254237288136,40,68.13559322033899,40,67.11864406779661,40C66.10169491525424,40,65.08474576271186,40,64.0677966101695,40C63.05084745762712,40,62.03389830508474,40,61.01694915254237,40C59.99999999999999,40,58.983050847457626,40,57.96610169491525,40C56.94915254237288,40,55.93220338983051,40,54.91525423728814,40C53.898305084745765,40,52.88135593220339,40,51.86440677966102,40C50.847457627118644,40,49.83050847457627,40,48.813559322033896,40C47.79661016949152,40,46.77966101694915,40,45.762711864406775,40C44.7457627118644,40,43.728813559322035,40,42.71186440677966,40C41.69491525423729,40,40.67796610169491,40,39.66101694915254,40C38.644067796610166,40,37.6271186440678,40,36.610169491525426,40C35.59322033898305,40,34.57627118644068,40,33.559322033898304,40C32.54237288135593,40,31.525423728813557,40,30.508474576271183,40C29.491525423728813,40,28.47457627118644,40,27.45762711864407,40C26.440677966101696,40,25.423728813559322,40,24.406779661016948,40C23.389830508474574,40,22.372881355932204,40,21.35593220338983,40C20.338983050847457,40,19.322033898305087,40,18.305084745762713,40C17.28813559322034,40,16.271186440677965,40,15.254237288135592,40C14.23728813559322,40,13.220338983050846,40,12.203389830508474,40C11.186440677966102,40,10.169491525423728,40,9.152542372881356,40C8.135593220338983,40,7.11864406779661,40,6.101694915254237,40C5.084745762711864,40,4.067796610169491,40,3.0508474576271185,40C2.0338983050847457,40,1.0169491525423728,40,0,40Z"></path><path class="line" stroke="black" fill="none" d="M0,36.64C1.0169491525423728,36.56,2.0338983050847457,36.480000000000004,3.0508474576271185,36.480000000000004C4.067796610169491,36.480000000000004,5.084745762711864,36.480000000000004,6.101694915254237,36.480000000000004C7.11864406779661,36.480000000000004,8.135593220338983,36.480000000000004,9.152542372881356,36.480000000000004C10.169491525423728,36.480000000000004,11.186440677966102,36.32,12.203389830508474,36.32C13.220338983050846,36.32,14.23728813559322,36.32,15.254237288135592,36.32C16.271186440677965,36.32,17.28813559322034,36.32,18.305084745762713,36.32C19.322033898305087,36.32,20.338983050847457,36.160000000000004,21.35593220338983,36.160000000000004C22.372881355932204,36.160000000000004,23.389830508474574,36.160000000000004,24.406779661016948,36.160000000000004C25.423728813559322,36.160000000000004,26.440677966101696,36.160000000000004,27.45762711864407,36.160000000000004C28.47457627118644,36.160000000000004,29.491525423728813,36,30.508474576271183,36C31.525423728813557,36,32.54237288135593,36,33.559322033898304,36C34.57627118644068,36,35.59322033898305,36,36.610169491525426,36C37.6271186440678,36,38.644067796610166,36,39.66101694915254,36C40.67796610169491,36,41.69491525423729,36,42.71186440677966,36C43.728813559322035,36,44.7457627118644,36,45.762711864406775,36C46.77966101694915,36,47.79661016949152,36,48.813559322033896,36C49.83050847457627,36,50.847457627118644,36,51.86440677966102,36C52.88135593220339,36,53.898305084745765,36,54.91525423728814,36C55.93220338983051,36,56.94915254237288,35.92,57.96610169491525,35.84C58.983050847457626,35.760000000000005,59.99999999999999,35.62666666666667,61.01694915254237,35.52C62.03389830508474,35.413333333333334,63.05084745762712,35.333333333333336,64.0677966101695,35.2C65.08474576271186,35.06666666666667,66.10169491525424,34.879999999999995,67.11864406779661,34.72C68.13559322033899,34.559999999999995,69.15254237288136,34.42666666666667,70.16949152542374,34.24C71.1864406779661,34.053333333333335,72.20338983050848,33.81333333333333,73.22033898305085,33.6C74.23728813559322,33.38666666666667,75.2542372881356,33.17333333333333,76.27118644067797,32.96C77.28813559322033,32.74666666666667,78.30508474576271,32.56,79.32203389830508,32.32C80.33898305084746,32.08,81.35593220338983,31.76,82.37288135593221,31.520000000000003C83.38983050847457,31.280000000000005,84.40677966101696,31.12,85.42372881355932,30.880000000000003C86.4406779661017,30.64,87.45762711864407,30.346666666666668,88.47457627118645,30.08C89.49152542372882,29.813333333333333,90.50847457627118,29.546666666666667,91.52542372881355,29.28C92.54237288135593,29.013333333333332,93.55932203389831,28.773333333333333,94.57627118644069,28.479999999999997C95.59322033898306,28.186666666666664,96.61016949152543,27.839999999999996,97.62711864406779,27.519999999999996C98.64406779661016,27.199999999999996,99.66101694915254,26.853333333333328,100.6779661016949,26.559999999999995C101.69491525423729,26.266666666666662,102.71186440677965,26.053333333333335,103.72881355932203,25.76C104.7457627118644,25.46666666666667,105.76271186440678,25.12,106.77966101694915,24.8C107.79661016949153,24.48,108.8135593220339,24.133333333333333,109.83050847457628,23.84C110.84745762711864,23.546666666666667,111.86440677966102,23.333333333333336,112.88135593220339,23.040000000000003C113.89830508474576,22.74666666666667,114.91525423728814,22.373333333333335,115.9322033898305,22.080000000000002C116.94915254237289,21.78666666666667,117.96610169491525,21.54666666666667,118.98305084745763,21.28C120,21.013333333333335,121.01694915254237,20.77333333333333,122.03389830508473,20.48C123.05084745762711,20.186666666666664,124.0677966101695,19.866666666666667,125.08474576271188,19.52C126.10169491525424,19.173333333333336,127.11864406779662,18.746666666666666,128.135593220339,18.4C129.15254237288136,18.053333333333335,130.16949152542372,17.813333333333333,131.1864406779661,17.44C132.20338983050846,17.066666666666666,133.22033898305085,16.560000000000002,134.23728813559322,16.16C135.25423728813558,15.76,136.27118644067798,15.44,137.28813559322035,15.04C138.3050847457627,14.639999999999999,139.3220338983051,14.16,140.33898305084747,13.759999999999998C141.35593220338984,13.36,142.3728813559322,13.013333333333328,143.38983050847457,12.639999999999997C144.40677966101694,12.266666666666662,145.42372881355934,11.866666666666669,146.4406779661017,11.520000000000001C147.45762711864407,11.173333333333337,148.47457627118644,10.906666666666666,149.4915254237288,10.56C150.50847457627117,10.213333333333333,151.52542372881356,9.786666666666667,152.54237288135593,9.44C153.5593220338983,9.093333333333332,154.5762711864407,8.8,155.59322033898306,8.479999999999999C156.61016949152543,8.16,157.6271186440678,7.839999999999996,158.64406779661016,7.519999999999998C159.66101694915253,7.199999999999997,160.67796610169492,6.880000000000001,161.6949152542373,6.560000000000001C162.71186440677965,6.240000000000002,163.72881355932205,5.920000000000003,164.74576271186442,5.6000000000000005C165.76271186440678,5.280000000000002,166.77966101694915,4.933333333333332,167.79661016949152,4.64C168.81355932203388,4.346666666666665,169.83050847457628,4.133333333333333,170.84745762711864,3.839999999999999C171.864406779661,3.5466666666666655,172.8813559322034,3.1999999999999975,173.89830508474577,2.879999999999998C174.91525423728814,2.5599999999999987,175.93220338983053,2.2133333333333356,176.9491525423729,1.9200000000000017C177.96610169491527,1.6266666666666705,178.98305084745763,1.3733333333333357,180,1.120000000000001"></path><path class="axis-ceiling" stroke-width="1" stroke="black" fill="none" d="M175,0L180,0"></path><text class="axis-ceiling-label" font-family="sans-serif" text-anchor="end" font-size="10px" x="170" y="2.5">250</text></g></svg>