<svg xmlns="http://www.w3.org/2000/svg" viewBox="0 0 180 60"><g transform="translate(0,20)"><path class="area" fill="rgba(0, 0, 0, 0.2)" d="M0,31.560000000000002C1.0169491525423728,31.54666666666667,2.0338983050847457,31.533333333333335,3.0508474576271185,31.48C4.067796610169491,31.426666666666666,5.084745762711864,31.293333333333337,6.101694915254237,31.200000000000003C7.11864406779661,31.10666666666667,8.135593220338983,31.006666666666668,9.152542372881356,30.92C10.169491525423728,30.833333333333336,11.186440677966102,30.773333333333333,12.203389830508474,30.68C13.220338983050846,30.586666666666666,14.23728813559322,30.446666666666665,15.254237288135592,30.36C16.271186440677965,30.273333333333333,17.28813559322034,30.22,18.305084745762713,30.16C19.322033898305087,30.1,20.338983050847457,30.053333333333335,21.35593220338983,30C22.372881355932204,29.946666666666665,23.389830508474574,29.9,24.406779661016948,29.84C25.423728813559322,29.78,26.440677966101696,29.686666666666667,27.45762711864407,29.64C28.47457627118644,29.593333333333334,29.491525423728813,29.586666666666666,30.508474576271183,29.56C31.525423728813557,29.53333333333333,32.54237288135593,29.506666666666668,33.559322033898304,29.48C34.57627118644068,29.453333333333333,35.59322033898305,29.439999999999998,36.610169491525426,29.4C37.6271186440678,29.36,38.644067796610166,29.299999999999997,39.66101694915254,29.24C40.67796610169491,29.18,41.69491525423729,29.099999999999998,42.71186440677966,29.04C43.728813559322035,28.98,44.7457627118644,28.933333333333334,45.762711864406775,28.88C46.77966101694915,28.826666666666664,47.79661016949152,28.79333333333333,48.813559322033896,28.72C49.83050847457627,28.64666666666667,50.847457627118644,28.50666666666667,51.86440677966102,28.440000000000005C52.88135593220339,28.37333333333334,53.898305084745765,28.353333333333335,54.91525423728814,28.32C55.93220338983051,28.286666666666665,56.94915254237288,28.293333333333333,57.96610169491525,28.24C58.983050847457626,28.186666666666664,59.99999999999999,27.846666666666668,61.01694915254237,27.720000000000002C62.03389830508474,27.593333333333337,63.05084745762712,27.54666666666667,64.0677966101695,27.480000000000004C65.08474576271186,27.413333333333338,66.10169491525424,27.36,67.11864406779661,27.32C68.13559322033899,27.28,69.15254237288136,27.28666666666667,70.16949152542374,27.240000000000002C71.1864406779661,27.193333333333335,72.20338983050848,27.113333333333333,73.22033898305085,27.04C74.23728813559322,26.966666666666665,75.2542372881356,26.906666666666663,76.27118644067797,26.799999999999997C77.28813559322033,26.69333333333333,78.30508474576271,26.519999999999996,79.32203389830508,26.4C80.33898305084746,26.279999999999998,81.35593220338983,26.193333333333335,82.37288135593221,26.080000000000002C83.38983050847457,25.96666666666667,84.40677966101696,25.846666666666664,85.42372881355932,25.72C86.4406779661017,25.59333333333333,87.45762711864407,25.433333333333334,88.47457627118645,25.32C89.49152542372882,25.206666666666667,90.50847457627118,25.159999999999997,91.52542372881355,25.04C92.54237288135593,24.919999999999998,93.55932203389831,24.733333333333334,94.57627118644069,24.6C95.59322033898306,24.46666666666667,96.61016949152543,24.34,97.62711864406779,24.24C98.64406779661016,24.139999999999997,99.66101694915254,24.113333333333333,100.6779661016949,24C101.69491525423729,23.886666666666667,102.71186440677965,23.726666666666667,103.72881355932203,23.56C104.7457627118644,23.39333333333333,105.76271186440678,23.166666666666664,106.77966101694915,23C107.79661016949153,22.833333333333332,108.8135593220339,22.70666666666667,109.83050847457628,22.560000000000002C110.84745762711864,22.413333333333334,111.86440677966102,22.273333333333333,112.88135593220339,22.119999999999997C113.89830508474576,21.96666666666666,114.91525423728814,21.78666666666666,115.9322033898305,21.639999999999997C116.94915254237289,21.493333333333332,117.96610169491525,21.393333333333334,118.98305084745763,21.240000000000002C120,21.08666666666667,121.01694915254237,20.88,122.03389830508473,20.72C123.05084745762711,20.56,124.0677966101695,20.433333333333334,125.08474576271188,20.28C126.10169491525424,20.12666666666667,127.11864406779662,19.96666666666667,128.135593220339,19.8C129.15254237288136,19.633333333333333,130.16949152542372,19.46666666666667,131.1864406779661,19.28C132.20338983050846,19.093333333333334,133.22033898305085,18.88,134.23728813559322,18.68C135.25423728813558,18.48,136.27118644067798,18.279999999999998,137.28813559322035,18.08C138.3050847457627,17.88,139.3220338983051,17.680000000000003,140.33898305084747,17.480000000000004C141.35593220338984,17.280000000000005,142.3728813559322,17.073333333333334,143.38983050847457,16.880000000000003C144.40677966101694,16.686666666666667,145.42372881355934,16.526666666666667,146.4406779661017,16.32C147.45762711864407,16.113333333333333,148.47457627118644,15.806666666666667,149.4915254237288,15.64C150.50847457627117,15.473333333333333,151.52542372881356,15.453333333333333,152.54237288135593,15.32C153.5593220338983,15.186666666666667,154.5762711864407,14.84,155.59322033898306,14.84C156.61016949152543,14.84,157.6271186440678,14.84,158.64406779661016,14.84C159.66101694915253,14.84,160.67796610169492,14.666666666666666,161.6949152542373,14.559999999999999C162.71186440677965,14.453333333333331,163.72881355932205,14.293333333333333,164.74576271186442,14.2C165.76271186440678,14.106666666666667,166.77966101694915,14.12,167.79661016949152,14C168.81355932203388,13.879999999999999,169.83050847457628,13.639999999999999,170.84745762711864,13.479999999999999C171.864406779661,13.319999999999999,172.8813559322034,13.146666666666667,173.89830508474577,13.04C174.91525423728814,12.933333333333332,175.93220338983053,12.939999999999998,176.9491525423729,12.839999999999998C177.96610169491527,12.739999999999998,178.98305084745763,12.59,180,12.440000000000001L180,40C178.98305084745763,40,177.96610169491527,40,176.9491525423729,40C175.93220338983053,40,174.91525423728814,40,173.89830508474577,40C172.8813559322034,40,171.864406779661,40,170.84745762711864,40C169.83050847457628,40,168.81355932203388,40,167.79661016949152,40C166.77966101694915,40,165.76271186440678,40,164.74576271186442,40C163.72881355932205,40,162.71186440677965,40,161.6949152542373,40C160.67796610169492,40,159.66101694915253,40,158.64406779661016,40C157.6271186440678,40,156.61016949152543,40,155.59322033898306,40C154.5762711864407,40,153.5593220338983,40,152.54237288135593,40C151.52542372881356,40,150.50847457627117,40,149.4915254237288,40C148.47457627118644,40,147.45762711864407,40,146.4406779661017,40C145.42372881355934,40,144.40677966101694,40,143.38983050847457,40C142.3728813559322,40,141.35593220338984,40,140.33898305084747,40C139.3220338983051,40,138.3050847457627,40,137.28813559322035,40C136.27118644067798,40,135.25423728813558,40,134.23728813559322,40C133.22033898305085,40,132.20338983050846,40,131.1864406779661,40C130.16949152542372,40,129.15254237288136,40,128.135593220339,40C127.11864406779662,40,126.10169491525424,40,125.08474576271188,40C124.0677966101695,40,123.05084745762711,40,122.03389830508473,40C121.01694915254237,40,120,40,118.98305084745763,40C117.96610169491525,40,116.94915254237289,40,115.9322033898305,40C114.91525423728814,40,113.89830508474576,40,112.88135593220339,40C111.86440677966102,40,110.84745762711864,40,109.83050847457628,40C108.8135593220339,40,107.79661016949153,40,106.77966101694915,40C105.76271186440678,40,104.7457627118644,40,103.72881355932203,40C102.71186440677965,40,101.69491525423729,40,100.6779661016949,40C99.66101694915254,40,98.64406779661016,40,97.62711864406779,40C96.61016949152543,40,95.59322033898306,40,94.57627118644069,40C93.55932203389831,40,92.54237288135593,40,91.52542372881355,40C90.50847457627118,40,89.49152542372882,40,88.47457627118645,40C87.45762711864407,40,86.4406779661017,40,85.42372881355932,40C84.40677966101696,40,83.38983050847457,40,82.37288135593221,40C81.35593220338983,40,80.33898305084746,40,79.32203389830508,40C78.30508474576271,40,77.28813559322033,40,76.27118644067797,40C75.2542372881356,40,74.23728813559322,40,73.22033898305085,40C72.20338983050848,40,71.1864406779661,40,70.16949152542374,40C69.15254237288136,40,68.13559322033899,40,67.11864406779661,40C66.10169491525424,40,65.08474576271186,40,64.0677966101695,40C63.05084745762712,40,62.03389830508474,40,61.01694915254237,40C59.99999999999999,40,58.983050847457626,40,57.96610169491525,40C56.94915254237288,40,55.93220338983051,40,54.91525423728814,40C53.898305084745765,40,52.88135593220339,40,51.86440677966102,40C50.847457627118644,40,49.83050847457627,40,48.813559322033896,40C47.79661016949152,40,46.77966101694915,40,45.762711864406775,40C44.7457627118644,40,43.728813559322035,40,42.71186440677966,40C41.69491525423729,40,40.67796610169491,40,39.66101694915254,40C38.644067796610166,40,37.6271186440678,40,36.610169491525426,40C35.59322033898305,40,34.57627118644068,40,33.559322033898304,40C32.54237288135593,40,31.525423728813557,40,30.508474576271183,40C29.491525423728813,40,28.47457627118644,40,27.45762711864407,40C26.440677966101696,40,25.423728813559322,40,24.406779661016948,40C23.389830508474574,40,22.372881355932204,40,21.35593220338983,40C20.338983050847457,40,19.322033898305087,40,18.305084745762713,40C17.28813559322034,40,16.271186440677965,40,15.254237288135592,40C14.23728813559322,40,13.220338983050846,40,12.203389830508474,40C11.186440677966102,40,10.169491525423728,40,9.152542372881356,40C8.135593220338983,40,7.11864406779661,40,6.101694915254237,40C5.084745762711864,40,4.067796610169491,40,3.0508474576271185,40C2.0338983050847457,40,1.0169491525423728,40,0,40Z"></path><path class="line" stroke="black" fill="none" d="M0,31.560000000000002C1.0169491525423728,31.54666666666667,2.0338983050847457,31.533333333333335,3.0508474576271185,31.48C4.067796610169491,31.426666666666666,5.084745762711864,31.293333333333337,6.101694915254237,31.200000000000003C7.11864406779661,31.10666666666667,8.135593220338983,31.006666666666668,9.152542372881356,30.92C10.169491525423728,30.833333333333336,11.186440677966102,30.773333333333333,12.203389830508474,30.68C13.220338983050846,30.586666666666666,14.23728813559322,30.446666666666665,15.254237288135592,30.36C16.271186440677965,30.273333333333333,17.28813559322034,30.22,18.305084745762713,30.16C19.322033898305087,30.1,20.338983050847457,30.053333333333335,21.35593220338983,30C22.372881355932204,29.946666666666665,23.389830508474574,29.9,24.406779661016948,29.84C25.423728813559322,29.78,26.440677966101696,29.686666666666667,27.45762711864407,29.64C28.47457627118644,29.593333333333334,29.491525423728813,29.586666666666666,30.508474576271183,29.56C31.525423728813557,29.53333333333333,32.54237288135593,29.506666666666668,33.559322033898304,29.48C34.57627118644068,29.453333333333333,35.59322033898305,29.439999999999998,36.610169491525426,29.4C37.6271186440678,29.36,38.644067796610166,29.299999999999997,39.66101694915254,29.24C40.67796610169491,29.18,41.69491525423729,29.099999999999998,42.71186440677966,29.04C43.728813559322035,28.98,44.7457627118644,28.933333333333334,45.762711864406775,28.88C46.77966101694915,28.826666666666664,47.79661016949152,28.79333333333333,48.813559322033896,28.72C49.83050847457627,28.64666666666667,50.847457627118644,28.50666666666667,51.86440677966102,28.440000000000005C52.88135593220339,28.37333333333334,53.898305084745765,28.353333333333335,54.91525423728814,28.32C55.93220338983051,28.286666666666665,56.94915254237288,28.293333333333333,57.96610169491525,28.24C58.983050847457626,28.186666666666664,59.99999999999999,27.846666666666668,61.01694915254237,27.720000000000002C62.03389830508474,27.593333333333337,63.05084745762712,27.54666666666667,64.0677966101695,27.480000000000004C65.08474576271186,27.413333333333338,66.10169491525424,27.36,67.11864406779661,27.32C68.13559322033899,27.28,69.15254237288136,27.28666666666667,70.16949152542374,27.240000000000002C71.1864406779661,27.193333333333335,72.20338983050848,27.113333333333333,73.22033898305085,27.04C74.23728813559322,26.966666666666665,75.2542372881356,26.906666666666663,76.27118644067797,26.799999999999997C77.28813559322033,26.69333333333333,78.30508474576271,26.519999999999996,79.32203389830508,26.4C80.33898305084746,26.279999999999998,81.35593220338983,26.193333333333335,82.37288135593221,26.080000000000002C83.38983050847457,25.96666666666667,84.40677966101696,25.846666666666664,85.42372881355932,25.72C86.4406779661017,25.59333333333333,87.45762711864407,25.433333333333334,88.47457627118645,25.32C89.49152542372882,25.206666666666667,90.50847457627118,25.159999999999997,91.52542372881355,25.04C92.54237288135593,24.919999999999998,93.55932203389831,24.733333333333334,94.57627118644069,24.6C95.59322033898306,24.46666666666667,96.61016949152543,24.34,97.62711864406779,24.24C98.64406779661016,24.139999999999997,99.66101694915254,24.113333333333333,100.6779661016949,24C101.69491525423729,23.886666666666667,102.71186440677965,23.726666666666667,103.72881355932203,23.56C104.7457627118644,23.39333333333333,105.76271186440678,23.166666666666664,106.77966101694915,23C107.79661016949153,22.833333333333332,108.8135593220339,22.70666666666667,109.83050847457628,22.560000000000002C110.84745762711864,22.413333333333334,111.86440677966102,22.273333333333333,112.88135593220339,22.119999999999997C113.89830508474576,21.96666666666666,114.91525423728814,21.78666666666666,115.9322033898305,21.639999999999997C116.94915254237289,21.493333333333332,117.96610169491525,21.393333333333334,118.98305084745763,21.240000000000002C120,21.08666666666667,121.01694915254237,20.88,122.03389830508473,20.72C123.05084745762711,20.56,124.0677966101695,20.433333333333334,125.08474576271188,20.28C126.10169491525424,20.12666666666667,127.11864406779662,19.96666666666667,128.135593220339,19.8C129.15254237288136,19.633333333333333,130.16949152542372,19.46666666666667,131.1864406779661,19.28C132.20338983050846,19.093333333333334,133.22033898305085,18.88,134.23728813559322,18.68C135.25423728813558,18.48,136.27118644067798,18.279999999999998,137.28813559322035,18.08C138.3050847457627,17.88,139.3220338983051,17.680000000000003,140.33898305084747,17.480000000000004C141.35593220338984,17.280000000000005,142.3728813559322,17.073333333333334,143.38983050847457,16.880000000000003C144.40677966101694,16.686666666666667,145.42372881355934,16.526666666666667,146.4406779661017,16.32C147.45762711864407,16.113333333333333,148.47457627118644,15.806666666666667,149.4915254237288,15.64C150.50847457627117,15.473333333333333,151.52542372881356,15.453333333333333,152.54237288135593,15.32C153.5593220338983,15.186666666666667,154.5762711864407,14.84,155.59322033898306,14.84C156.61016949152543,14.84,157.6271186440678,14.84,158.64406779661016,14.84C159.66101694915253,14.84,160.67796610169492,14.666666666666666,161.6949152542373,14.559999999999999C162.71186440677965,14.453333333333331,163.72881355932205,14.293333333333333,164.74576271186442,14.2C165.76271186440678,14.106666666666667,166.77966101694915,14.12,167.79661016949152,14C168.81355932203388,13.879999999999999,169.83050847457628,13.639999999999999,170.84745762711864,13.479999999999999C171.864406779661,13.319999999999999,172.8813559322034,13.146666666666667,173.89830508474577,13.04C174.91525423728814,12.933333333333332,175.93220338983053,12.939999999999998,176.9491525423729,12.839999999999998C177.96610169491527,12.739999999999998,178.98305084745763,12.59,180,12.440000000000001"></path><path class="axis-ceiling" stroke-width="1" stroke="black" fill="none" d="M175,0L180,0"></path><text class="axis-ceiling-label" font-family="sans-serif" text-anchor="end" font-size="10px" x="170" y="2.5">1000</text></g></svg>