<svg xmlns="http://www.w3.org/2000/svg" viewBox="0 0 180 60"><g transform="translate(0,20)"><path class="area" fill="rgba(0, 0, 0, 0.2)" d="M0,36.91428571428571C1.0169491525423728,36.838095238095235,2.0338983050847457,36.76190476190476,3.0508474576271185,36.68571428571428C4.067796610169491,36.60952380952381,5.084745762711864,36.60952380952381,6.101694915254237,36.457142857142856C7.11864406779661,36.304761904761904,8.135593220338983,35.96190476190476,9.152542372881356,35.77142857142857C10.169491525423728,35.58095238095238,11.186440677966102,35.44761904761905,12.203389830508474,35.31428571428572C13.220338983050846,35.180952380952384,14.23728813559322,35.12380952380953,15.254237288135592,34.971428571428575C16.271186440677965,34.81904761904762,17.28813559322034,34.53333333333333,18.305084745762713,34.4C19.322033898305087,34.266666666666666,20.338983050847457,34.304761904761904,21.35593220338983,34.17142857142857C22.372881355932204,34.03809523809524,23.389830508474574,33.79047619047619,24.406779661016948,33.6C25.423728813559322,33.40952380952381,26.440677966101696,33.27619047619048,27.45762711864407,33.02857142857143C28.47457627118644,32.780952380952385,29.491525423728813,32.36190476190476,30.508474576271183,32.114285714285714C31.525423728813557,31.866666666666667,32.54237288135593,31.714285714285715,33.559322033898304,31.542857142857144C34.57627118644068,31.371428571428574,35.59322033898305,31.2,36.610169491525426,31.085714285714285C37.6271186440678,30.97142857142857,38.644067796610166,31.00952380952381,39.66101694915254,30.857142857142858C40.67796610169491,30.704761904761906,41.69491525423729,30.266666666666666,42.71186440677966,29.942857142857143C43.728813559322035,29.61904761904762,44.7457627118644,29.18095238095238,45.762711864406775,28.914285714285715C46.77966101694915,28.64761904761905,47.79661016949152,28.590476190476192,48.813559322033896,28.342857142857145C49.83050847457627,28.0952380952381,50.847457627118644,27.676190476190477,51.86440677966102,27.42857142857143C52.88135593220339,27.180952380952384,53.898305084745765,26.990476190476194,54.91525423728814,26.85714285714286C55.93220338983051,26.72380952380953,56.94915254237288,26.704761904761902,57.96610169491525,26.628571428571426C58.983050847457626,26.55238095238095,59.99999999999999,26.55238095238095,61.01694915254237,26.4C62.03389830508474,26.247619047619047,63.05084745762712,25.80952380952381,64.0677966101695,25.6C65.08474576271186,25.390476190476193,66.10169491525424,25.447619047619046,67.11864406779661,25.142857142857142C68.13559322033899,24.83809523809524,69.15254237288136,24.209523809523812,70.16949152542374,23.771428571428572C71.1864406779661,23.333333333333336,72.20338983050848,22.857142857142854,73.22033898305085,22.514285714285712C74.23728813559322,22.17142857142857,75.2542372881356,21.866666666666667,76.27118644067797,21.714285714285715C77.28813559322033,21.561904761904763,78.30508474576271,21.63809523809524,79.32203389830508,21.485714285714288C80.33898305084746,21.333333333333336,81.35593220338983,20.895238095238096,82.37288135593221,20.57142857142857C83.38983050847457,20.247619047619047,84.40677966101696,19.809523809523807,85.42372881355932,19.54285714285714C86.4406779661017,19.276190476190475,87.45762711864407,19.23809523809524,88.47457627118645,18.97142857142857C89.49152542372882,18.704761904761906,90.50847457627118,18.247619047619047,91.52542372881355,17.942857142857143C92.54237288135593,17.638095238095236,93.55932203389831,17.371428571428577,94.57627118644069,17.142857142857146C95.59322033898306,16.914285714285718,96.61016949152543,16.704761904761902,97.62711864406779,16.57142857142857C98.64406779661016,16.438095238095237,99.66101694915254,16.495238095238093,100.6779661016949,16.34285714285714C101.69491525423729,16.19047619047619,102.71186440677965,15.80952380952381,103.72881355932203,15.542857142857143C104.7457627118644,15.276190476190477,105.76271186440678,14.990476190476189,106.77966101694915,14.742857142857142C107.79661016949153,14.495238095238093,108.8135593220339,14.323809523809524,109.83050847457628,14.057142857142857C110.84745762711864,13.790476190476191,111.86440677966102,13.390476190476193,112.88135593220339,13.142857142857146C113.89830508474576,12.8952380952381,114.91525423728814,12.742857142857142,115.9322033898305,12.571428571428571C116.94915254237289,12.399999999999999,117.96610169491525,12.266666666666667,118.98305084745763,12.114285714285714C120,11.961904761904762,121.01694915254237,11.828571428571427,122.03389830508473,11.657142857142858C123.05084745762711,11.485714285714286,124.0677966101695,11.219047619047618,125.08474576271188,11.085714285714285C126.10169491525424,10.952380952380953,127.11864406779662,10.933333333333334,128.135593220339,10.857142857142858C129.15254237288136,10.780952380952382,130.16949152542372,10.704761904761902,131.1864406779661,10.628571428571426C132.20338983050846,10.55238095238095,133.22033898305085,10.514285714285714,134.23728813559322,10.4C135.25423728813558,10.285714285714286,136.27118644067798,10.114285714285714,137.28813559322035,9.942857142857143C138.3050847457627,9.771428571428572,139.3220338983051,9.542857142857146,140.33898305084747,9.371428571428574C141.35593220338984,9.200000000000003,142.3728813559322,9.066666666666666,143.38983050847457,8.914285714285715C144.40677966101694,8.761904761904761,145.42372881355934,8.666666666666666,146.4406779661017,8.457142857142856C147.45762711864407,8.247619047619047,148.47457627118644,7.847619047619046,149.4915254237288,7.657142857142856C150.50847457627117,7.466666666666663,151.52542372881356,7.409523809523808,152.54237288135593,7.314285714285713C153.5593220338983,7.219047619047618,154.5762711864407,7.238095238095237,155.59322033898306,7.085714285714286C156.61016949152543,6.933333333333336,157.6271186440678,5.961904761904762,158.64406779661016,5.6000000000000005C159.66101694915253,5.2380952380952355,160.67796610169492,5.104761904761906,161.6949152542373,4.9142857142857155C162.71186440677965,4.723809523809525,163.72881355932205,4.571428571428572,164.74576271186442,4.457142857142857C165.76271186440678,4.342857142857144,166.77966101694915,4.361904761904762,167.79661016949152,4.22857142857143C168.81355932203388,4.095238095238097,169.83050847457628,3.8666666666666663,170.84745762711864,3.6571428571428566C171.864406779661,3.447619047619047,172.8813559322034,3.276190476190476,173.89830508474577,2.9714285714285715C174.91525423728814,2.666666666666667,175.93220338983053,2.171428571428572,176.9491525423729,1.8285714285714283C177.96610169491527,1.4857142857142878,178.98305084745763,1.200000000000002,180,0.9142857142857164L180,40C178.98305084745763,40,177.96610169491527,40,176.9491525423729,40C175.93220338983053,40,174.91525423728814,40,173.89830508474577,40C172.8813559322034,40,171.864406779661,40,170.84745762711864,40C169.83050847457628,40,168.81355932203388,40,167.79661016949152,40C166.77966101694915,40,165.76271186440678,40,164.74576271186442,40C163.72881355932205,40,162.71186440677965,40,161.6949152542373,40C160.67796610169492,40,159.66101694915253,40,158.64406779661016,40C157.6271186440678,40,156.61016949152543,40,155.59322033898306,40C154.5762711864407,40,153.5593220338983,40,152.54237288135593,40C151.52542372881356,40,150.50847457627117,40,149.4915254237288,40C148.47457627118644,40,147.45762711864407,40,146.4406779661017,40C145.42372881355934,40,144.40677966101694,40,143.38983050847457,40C142.3728813559322,40,141.35593220338984,40,140.33898305084747,40C139.3220338983051,40,138.3050847457627,40,137.28813559322035,40C136.27118644067798,40,135.25423728813558,40,134.23728813559322,40C133.22033898305085,40,132.20338983050846,40,131.1864406779661,40C130.16949152542372,40,129.15254237288136,40,128.135593220339,40C127.11864406779662,40,126.10169491525424,40,125.08474576271188,40C124.0677966101695,40,123.05084745762711,40,122.03389830508473,40C121.01694915254237,40,120,40,118.98305084745763,40C117.96610169491525,40,116.94915254237289,40,115.9322033898305,40C114.91525423728814,40,113.89830508474576,40,112.88135593220339,40C111.86440677966102,40,110.84745762711864,40,109.83050847457628,40C108.8135593220339,40,107.79661016949153,40,106.77966101694915,40C105.76271186440678,40,104.7457627118644,40,103.72881355932203,40C102.71186440677965,40,101.69491525423729,40,100.6779661016949,40C99.66101694915254,40,98.64406779661016,40,97.62711864406779,40C96.61016949152543,40,95.59322033898306,40,94.57627118644069,40C93.55932203389831,40,92.54237288135593,40,91.52542372881355,40C90.50847457627118,40,89.49152542372882,40,88.47457627118645,40C87.45762711864407,40,86.4406779661017,40,85.42372881355932,40C84.40677966101696,40,83.38983050847457,40,82.37288135593221,40C81.35593220338983,40,80.33898305084746,40,79.32203389830508,40C78.30508474576271,40,77.28813559322033,40,76.27118644067797,40C75.2542372881356,40,74.23728813559322,40,73.22033898305085,40C72.20338983050848,40,71.1864406779661,40,70.16949152542374,40C69.15254237288136,40,68.13559322033899,40,67.11864406779661,40C66.10169491525424,40,65.08474576271186,40,64.0677966101695,40C63.05084745762712,40,62.03389830508474,40,61.01694915254237,40C59.99999999999999,40,58.983050847457626,40,57.96610169491525,40C56.94915254237288,40,55.93220338983051,40,54.91525423728814,40C53.898305084745765,40,52.88135593220339,40,51.86440677966102,40C50.847457627118644,40,49.83050847457627,40,48.813559322033896,40C47.79661016949152,40,46.77966101694915,40,45.762711864406775,40C44.7457627118644,40,43.728813559322035,40,42.71186440677966,40C41.69491525423729,40,40.67796610169491,40,39.66101694915254,40C38.644067796610166,40,37.6271186440678,40,36.610169491525426,40C35.59322033898305,40,34.57627118644068,40,33.559322033898304,40C32.54237288135593,40,31.525423728813557,40,30.508474576271183,40C29.491525423728813,40,28.47457627118644,40,27.45762711864407,40C26.440677966101696,40,25.423728813559322,40,24.406779661016948,40C23.389830508474574,40,22.372881355932204,40,21.35593220338983,40C20.338983050847457,40,19.322033898305087,40,18.305084745762713,40C17.28813559322034,40,16.271186440677965,40,15.254237288135592,40C14.23728813559322,40,13.220338983050846,40,12.203389830508474,40C11.186440677966102,40,10.169491525423728,40,9.152542372881356,40C8.135593220338983,40,7.11864406779661,40,6.101694915254237,40C5.084745762711864,40,4.067796610169491,40,3.0508474576271185,40C2.0338983050847457,40,1.0169491525423728,40,0,40Z"></path><path class="line" stroke="black" fill="none" d="M0,36.91428571428571C1.0169491525423728,36.838095238095235,2.0338983050847457,36.76190476190476,3.0508474576271185,36.68571428571428C4.067796610169491,36.60952380952381,5.084745762711864,36.60952380952381,6.101694915254237,36.457142857142856C7.11864406779661,36.304761904761904,8.135593220338983,35.96190476190476,9.152542372881356,35.77142857142857C10.169491525423728,35.58095238095238,11.186440677966102,35.44761904761905,12.203389830508474,35.31428571428572C13.220338983050846,35.180952380952384,14.23728813559322,35.12380952380953,15.254237288135592,34.971428571428575C16.271186440677965,34.81904761904762,17.28813559322034,34.53333333333333,18.305084745762713,34.4C19.322033898305087,34.266666666666666,20.338983050847457,34.304761904761904,21.35593220338983,34.17142857142857C22.372881355932204,34.03809523809524,23.389830508474574,33.79047619047619,24.406779661016948,33.6C25.423728813559322,33.40952380952381,26.440677966101696,33.27619047619048,27.45762711864407,33.02857142857143C28.47457627118644,32.780952380952385,29.491525423728813,32.36190476190476,30.508474576271183,32.114285714285714C31.525423728813557,31.866666666666667,32.54237288135593,31.714285714285715,33.559322033898304,31.542857142857144C34.57627118644068,31.371428571428574,35.59322033898305,31.2,36.610169491525426,31.085714285714285C37.6271186440678,30.97142857142857,38.644067796610166,31.00952380952381,39.66101694915254,30.857142857142858C40.67796610169491,30.704761904761906,41.69491525423729,30.266666666666666,42.71186440677966,29.942857142857143C43.728813559322035,29.61904761904762,44.7457627118644,29.18095238095238,45.762711864406775,28.914285714285715C46.77966101694915,28.64761904761905,47.79661016949152,28.590476190476192,48.813559322033896,28.342857142857145C49.83050847457627,28.0952380952381,50.847457627118644,27.676190476190477,51.86440677966102,27.42857142857143C52.88135593220339,27.180952380952384,53.898305084745765,26.990476190476194,54.91525423728814,26.85714285714286C55.93220338983051,26.72380952380953,56.94915254237288,26.704761904761902,57.96610169491525,26.628571428571426C58.983050847457626,26.55238095238095,59.99999999999999,26.55238095238095,61.01694915254237,26.4C62.03389830508474,26.247619047619047,63.05084745762712,25.80952380952381,64.0677966101695,25.6C65.08474576271186,25.390476190476193,66.10169491525424,25.447619047619046,67.11864406779661,25.142857142857142C68.13559322033899,24.83809523809524,69.15254237288136,24.209523809523812,70.16949152542374,23.771428571428572C71.1864406779661,23.333333333333336,72.20338983050848,22.857142857142854,73.22033898305085,22.514285714285712C74.23728813559322,22.17142857142857,75.2542372881356,21.866666666666667,76.27118644067797,21.714285714285715C77.28813559322033,21.561904761904763,78.30508474576271,21.63809523809524,79.32203389830508,21.485714285714288C80.33898305084746,21.333333333333336,81.35593220338983,20.895238095238096,82.37288135593221,20.57142857142857C83.38983050847457,20.247619047619047,84.40677966101696,19.809523809523807,85.42372881355932,19.54285714285714C86.4406779661017,19.276190476190475,87.45762711864407,19.23809523809524,88.47457627118645,18.97142857142857C89.49152542372882,18.704761904761906,90.50847457627118,18.247619047619047,91.52542372881355,17.942857142857143C92.54237288135593,17.638095238095236,93.55932203389831,17.371428571428577,94.57627118644069,17.142857142857146C95.59322033898306,16.914285714285718,96.61016949152543,16.704761904761902,97.62711864406779,16.57142857142857C98.64406779661016,16.438095238095237,99.66101694915254,16.495238095238093,100.6779661016949,16.34285714285714C101.69491525423729,16.19047619047619,102.71186440677965,15.80952380952381,103.72881355932203,15.542857142857143C104.7457627118644,15.276190476190477,105.76271186440678,14.990476190476189,106.77966101694915,14.742857142857142C107.79661016949153,14.495238095238093,108.8135593220339,14.323809523809524,109.83050847457628,14.057142857142857C110.84745762711864,13.790476190476191,111.86440677966102,13.390476190476193,112.88135593220339,13.142857142857146C113.89830508474576,12.8952380952381,114.91525423728814,12.742857142857142,115.9322033898305,12.571428571428571C116.94915254237289,12.399999999999999,117.96610169491525,12.266666666666667,118.98305084745763,12.114285714285714C120,11.961904761904762,121.01694915254237,11.828571428571427,122.03389830508473,11.657142857142858C123.05084745762711,11.485714285714286,124.0677966101695,11.219047619047618,125.08474576271188,11.085714285714285C126.10169491525424,10.952380952380953,127.11864406779662,10.933333333333334,128.135593220339,10.857142857142858C129.15254237288136,10.780952380952382,130.16949152542372,10.704761904761902,131.1864406779661,10.628571428571426C132.20338983050846,10.55238095238095,133.22033898305085,10.514285714285714,134.23728813559322,10.4C135.25423728813558,10.285714285714286,136.27118644067798,10.114285714285714,137.28813559322035,9.942857142857143C138.3050847457627,9.771428571428572,139.3220338983051,9.542857142857146,140.33898305084747,9.371428571428574C141.35593220338984,9.200000000000003,142.3728813559322,9.066666666666666,143.38983050847457,8.914285714285715C144.40677966101694,8.761904761904761,145.42372881355934,8.666666666666666,146.4406779661017,8.457142857142856C147.45762711864407,8.247619047619047,148.47457627118644,7.847619047619046,149.4915254237288,7.657142857142856C150.50847457627117,7.466666666666663,151.52542372881356,7.409523809523808,152.54237288135593,7.314285714285713C153.5593220338983,7.219047619047618,154.5762711864407,7.238095238095237,155.59322033898306,7.085714285714286C156.61016949152543,6.933333333333336,157.6271186440678,5.961904761904762,158.64406779661016,5.6000000000000005C159.66101694915253,5.2380952380952355,160.67796610169492,5.104761904761906,161.6949152542373,4.9142857142857155C162.71186440677965,4.723809523809525,163.72881355932205,4.571428571428572,164.74576271186442,4.457142857142857C165.76271186440678,4.342857142857144,166.77966101694915,4.361904761904762,167.79661016949152,4.22857142857143C168.81355932203388,4.095238095238097,169.83050847457628,3.8666666666666663,170.84745762711864,3.6571428571428566C171.864406779661,3.447619047619047,172.8813559322034,3.276190476190476,173.89830508474577,2.9714285714285715C174.91525423728814,2.666666666666667,175.93220338983053,2.171428571428572,176.9491525423729,1.8285714285714283C177.96610169491527,1.4857142857142878,178.98305084745763,1.200000000000002,180,0.9142857142857164"></path><path class="axis-ceiling" stroke-width="1" stroke="black" fill="none" d="M175,0L180,0"></path><text class="axis-ceiling-label" font-family="sans-serif" text-anchor="end" font-size="10px" x="170" y="2.5">350</text></g></svg>