<svg xmlns="http://www.w3.org/2000/svg" viewBox="0 0 180 60"><g transform="translate(0,20)"><path class="area" fill="rgba(0, 0, 0, 0.2)" d="M0,37.120000000000005C1.0169491525423728,37.120000000000005,2.0338983050847457,37.120000000000005,3.0508474576271185,37.120000000000005C4.067796610169491,37.120000000000005,5.084745762711864,37.120000000000005,6.101694915254237,37.120000000000005C7.11864406779661,37.120000000000005,8.135593220338983,37.013333333333335,9.152542372881356,36.96C10.169491525423728,36.906666666666666,11.186440677966102,36.88,12.203389830508474,36.800000000000004C13.220338983050846,36.720000000000006,14.23728813559322,36.480000000000004,15.254237288135592,36.480000000000004C16.271186440677965,36.480000000000004,17.28813559322034,36.480000000000004,18.305084745762713,36.480000000000004C19.322033898305087,36.480000000000004,20.338983050847457,36.480000000000004,21.35593220338983,36.480000000000004C22.372881355932204,36.480000000000004,23.389830508474574,36.480000000000004,24.406779661016948,36.480000000000004C25.423728813559322,36.480000000000004,26.440677966101696,36.32,27.45762711864407,36.32C28.47457627118644,36.32,29.491525423728813,36.32,30.508474576271183,36.32C31.525423728813557,36.32,32.54237288135593,36.32,33.559322033898304,36.32C34.57627118644068,36.32,35.59322033898305,36.32,36.610169491525426,36.32C37.6271186440678,36.32,38.644067796610166,36,39.66101694915254,36C40.67796610169491,36,41.69491525423729,36,42.71186440677966,36C43.728813559322035,36,44.7457627118644,36,45.762711864406775,36C46.77966101694915,36,47.79661016949152,36,48.813559322033896,36C49.83050847457627,36,50.847457627118644,36,51.86440677966102,36C52.88135593220339,36,53.898305084745765,36,54.91525423728814,36C55.93220338983051,36,56.94915254237288,36,57.96610169491525,36C58.983050847457626,36,59.99999999999999,36,61.01694915254237,36C62.03389830508474,36,63.05084745762712,36,64.0677966101695,36C65.08474576271186,36,66.10169491525424,36,67.11864406779661,36C68.13559322033899,36,69.15254237288136,36,70.16949152542374,36C71.1864406779661,36,72.20338983050848,36,73.22033898305085,36C74.23728813559322,36,75.2542372881356,36,76.27118644067797,36C77.28813559322033,36,78.30508474576271,35.78666666666667,79.32203389830508,35.68C80.33898305084746,35.57333333333333,81.35593220338983,35.46666666666667,82.37288135593221,35.36C83.38983050847457,35.25333333333333,84.40677966101696,35.25333333333333,85.42372881355932,35.04C86.4406779661017,34.82666666666667,87.45762711864407,34.346666666666664,88.47457627118645,34.08C89.49152542372882,33.81333333333333,90.50847457627118,33.626666666666665,91.52542372881355,33.44C92.54237288135593,33.25333333333333,93.55932203389831,33.17333333333333,94.57627118644069,32.96C95.59322033898306,32.74666666666667,96.61016949152543,32.34666666666667,97.62711864406779,32.160000000000004C98.64406779661016,31.973333333333336,99.66101694915254,32.02666666666667,100.6779661016949,31.840000000000003C101.69491525423729,31.653333333333336,102.71186440677965,31.30666666666667,103.72881355932203,31.04C104.7457627118644,30.773333333333333,105.76271186440678,30.586666666666666,106.77966101694915,30.240000000000002C107.79661016949153,29.893333333333334,108.8135593220339,29.30666666666667,109.83050847457628,28.96C110.84745762711864,28.613333333333333,111.86440677966102,28.4,112.88135593220339,28.159999999999997C113.89830508474576,27.919999999999995,114.91525423728814,27.679999999999996,115.9322033898305,27.519999999999996C116.94915254237289,27.359999999999996,117.96610169491525,27.41333333333333,118.98305084745763,27.199999999999996C120,26.986666666666665,121.01694915254237,26.37333333333333,122.03389830508473,25.92C123.05084745762711,25.466666666666665,124.0677966101695,24.853333333333335,125.08474576271188,24.48C126.10169491525424,24.10666666666667,127.11864406779662,24.02666666666667,128.135593220339,23.680000000000003C129.15254237288136,23.333333333333336,130.16949152542372,22.74666666666667,131.1864406779661,22.400000000000002C132.20338983050846,22.053333333333335,133.22033898305085,21.78666666666667,134.23728813559322,21.6C135.25423728813558,21.413333333333334,136.27118644067798,21.386666666666667,137.28813559322035,21.28C138.3050847457627,21.173333333333336,139.3220338983051,21.173333333333336,140.33898305084747,20.96C141.35593220338984,20.74666666666667,142.3728813559322,20.133333333333333,143.38983050847457,19.84C144.40677966101694,19.546666666666663,145.42372881355934,19.626666666666665,146.4406779661017,19.2C147.45762711864407,18.773333333333337,148.47457627118644,17.89333333333333,149.4915254237288,17.28C150.50847457627117,16.666666666666664,151.52542372881356,16,152.54237288135593,15.52C153.5593220338983,15.04,154.5762711864407,14.613333333333333,155.59322033898306,14.399999999999999C156.61016949152543,14.186666666666666,157.6271186440678,14.293333333333331,158.64406779661016,14.079999999999998C159.66101694915253,13.866666666666664,160.67796610169492,13.25333333333333,161.6949152542373,12.799999999999997C162.71186440677965,12.346666666666664,163.72881355932205,11.733333333333334,164.74576271186442,11.360000000000001C165.76271186440678,10.986666666666672,166.77966101694915,10.933333333333332,167.79661016949152,10.56C168.81355932203388,10.186666666666666,169.83050847457628,9.546666666666667,170.84745762711864,9.12C171.864406779661,8.693333333333332,172.8813559322034,8.319999999999999,173.89830508474577,7.999999999999998C174.91525423728814,7.679999999999999,175.93220338983053,7.3866666666666685,176.9491525423729,7.200000000000002C177.96610169491527,7.013333333333337,178.98305084745763,6.94666666666667,180,6.880000000000002L180,40C178.98305084745763,40,177.96610169491527,40,176.9491525423729,40C175.93220338983053,40,174.91525423728814,40,173.89830508474577,40C172.8813559322034,40,171.864406779661,40,170.84745762711864,40C169.83050847457628,40,168.81355932203388,40,167.79661016949152,40C166.77966101694915,40,165.76271186440678,40,164.74576271186442,40C163.72881355932205,40,162.71186440677965,40,161.6949152542373,40C160.67796610169492,40,159.66101694915253,40,158.64406779661016,40C157.6271186440678,40,156.61016949152543,40,155.59322033898306,40C154.5762711864407,40,153.5593220338983,40,152.54237288135593,40C151.52542372881356,40,150.50847457627117,40,149.4915254237288,40C148.47457627118644,40,147.45762711864407,40,146.4406779661017,40C145.42372881355934,40,144.40677966101694,40,143.38983050847457,40C142.3728813559322,40,141.35593220338984,40,140.33898305084747,40C139.3220338983051,40,138.3050847457627,40,137.28813559322035,40C136.27118644067798,40,135.25423728813558,40,134.23728813559322,40C133.22033898305085,40,132.20338983050846,40,131.1864406779661,40C130.16949152542372,40,129.15254237288136,40,128.135593220339,40C127.11864406779662,40,126.10169491525424,40,125.08474576271188,40C124.0677966101695,40,123.05084745762711,40,122.03389830508473,40C121.01694915254237,40,120,40,118.98305084745763,40C117.96610169491525,40,116.94915254237289,40,115.9322033898305,40C114.91525423728814,40,113.89830508474576,40,112.88135593220339,40C111.86440677966102,40,110.84745762711864,40,109.83050847457628,40C108.8135593220339,40,107.79661016949153,40,106.77966101694915,40C105.76271186440678,40,104.7457627118644,40,103.72881355932203,40C102.71186440677965,40,101.69491525423729,40,100.6779661016949,40C99.66101694915254,40,98.64406779661016,40,97.62711864406779,40C96.61016949152543,40,95.59322033898306,40,94.57627118644069,40C93.55932203389831,40,92.54237288135593,40,91.52542372881355,40C90.50847457627118,40,89.49152542372882,40,88.47457627118645,40C87.45762711864407,40,86.4406779661017,40,85.42372881355932,40C84.40677966101696,40,83.38983050847457,40,82.37288135593221,40C81.35593220338983,40,80.33898305084746,40,79.32203389830508,40C78.30508474576271,40,77.28813559322033,40,76.27118644067797,40C75.2542372881356,40,74.23728813559322,40,73.22033898305085,40C72.20338983050848,40,71.1864406779661,40,70.16949152542374,40C69.15254237288136,40,68.13559322033899,40,67.11864406779661,40C66.10169491525424,40,65.08474576271186,40,64.0677966101695,40C63.05084745762712,40,62.03389830508474,40,61.01694915254237,40C59.99999999999999,40,58.983050847457626,40,57.96610169491525,40C56.94915254237288,40,55.93220338983051,40,54.91525423728814,40C53.898305084745765,40,52.88135593220339,40,51.86440677966102,40C50.847457627118644,40,49.83050847457627,40,48.813559322033896,40C47.79661016949152,40,46.77966101694915,40,45.762711864406775,40C44.7457627118644,40,43.728813559322035,40,42.71186440677966,40C41.69491525423729,40,40.67796610169491,40,39.66101694915254,40C38.644067796610166,40,37.6271186440678,40,36.610169491525426,40C35.59322033898305,40,34.57627118644068,40,33.559322033898304,40C32.54237288135593,40,31.525423728813557,40,30.508474576271183,40C29.491525423728813,40,28.47457627118644,40,27.45762711864407,40C26.440677966101696,40,25.423728813559322,40,24.406779661016948,40C23.389830508474574,40,22.372881355932204,40,21.35593220338983,40C20.338983050847457,40,19.322033898305087,40,18.305084745762713,40C17.28813559322034,40,16.271186440677965,40,15.254237288135592,40C14.23728813559322,40,13.220338983050846,40,12.203389830508474,40C11.186440677966102,40,10.169491525423728,40,9.152542372881356,40C8.135593220338983,40,7.11864406779661,40,6.101694915254237,40C5.084745762711864,40,4.067796610169491,40,3.0508474576271185,40C2.0338983050847457,40,1.0169491525423728,40,0,40Z"></path><path class="line" stroke="black" fill="none" d="M0,37.120000000000005C1.0169491525423728,37.120000000000005,2.0338983050847457,37.120000000000005,3.0508474576271185,37.120000000000005C4.067796610169491,37.120000000000005,5.084745762711864,37.120000000000005,6.101694915254237,37.120000000000005C7.11864406779661,37.120000000000005,8.135593220338983,37.013333333333335,9.152542372881356,36.96C10.169491525423728,36.906666666666666,11.186440677966102,36.88,12.203389830508474,36.800000000000004C13.220338983050846,36.720000000000006,14.23728813559322,36.480000000000004,15.254237288135592,36.480000000000004C16.271186440677965,36.480000000000004,17.28813559322034,36.480000000000004,18.305084745762713,36.480000000000004C19.322033898305087,36.480000000000004,20.338983050847457,36.480000000000004,21.35593220338983,36.480000000000004C22.372881355932204,36.480000000000004,23.389830508474574,36.480000000000004,24.406779661016948,36.480000000000004C25.423728813559322,36.480000000000004,26.440677966101696,36.32,27.45762711864407,36.32C28.47457627118644,36.32,29.491525423728813,36.32,30.508474576271183,36.32C31.525423728813557,36.32,32.54237288135593,36.32,33.559322033898304,36.32C34.57627118644068,36.32,35.59322033898305,36.32,36.610169491525426,36.32C37.6271186440678,36.32,38.644067796610166,36,39.66101694915254,36C40.67796610169491,36,41.69491525423729,36,42.71186440677966,36C43.728813559322035,36,44.7457627118644,36,45.762711864406775,36C46.77966101694915,36,47.79661016949152,36,48.813559322033896,36C49.83050847457627,36,50.847457627118644,36,51.86440677966102,36C52.88135593220339,36,53.898305084745765,36,54.91525423728814,36C55.93220338983051,36,56.94915254237288,36,57.96610169491525,36C58.983050847457626,36,59.99999999999999,36,61.01694915254237,36C62.03389830508474,36,63.05084745762712,36,64.0677966101695,36C65.08474576271186,36,66.10169491525424,36,67.11864406779661,36C68.13559322033899,36,69.15254237288136,36,70.16949152542374,36C71.1864406779661,36,72.20338983050848,36,73.22033898305085,36C74.23728813559322,36,75.2542372881356,36,76.27118644067797,36C77.28813559322033,36,78.30508474576271,35.78666666666667,79.32203389830508,35.68C80.33898305084746,35.57333333333333,81.35593220338983,35.46666666666667,82.37288135593221,35.36C83.38983050847457,35.25333333333333,84.40677966101696,35.25333333333333,85.42372881355932,35.04C86.4406779661017,34.82666666666667,87.45762711864407,34.346666666666664,88.47457627118645,34.08C89.49152542372882,33.81333333333333,90.50847457627118,33.626666666666665,91.52542372881355,33.44C92.54237288135593,33.25333333333333,93.55932203389831,33.17333333333333,94.57627118644069,32.96C95.59322033898306,32.74666666666667,96.61016949152543,32.34666666666667,97.62711864406779,32.160000000000004C98.64406779661016,31.973333333333336,99.66101694915254,32.02666666666667,100.6779661016949,31.840000000000003C101.69491525423729,31.653333333333336,102.71186440677965,31.30666666666667,103.72881355932203,31.04C104.7457627118644,30.773333333333333,105.76271186440678,30.586666666666666,106.77966101694915,30.240000000000002C107.79661016949153,29.893333333333334,108.8135593220339,29.30666666666667,109.83050847457628,28.96C110.84745762711864,28.613333333333333,111.86440677966102,28.4,112.88135593220339,28.159999999999997C113.89830508474576,27.919999999999995,114.91525423728814,27.679999999999996,115.9322033898305,27.519999999999996C116.94915254237289,27.359999999999996,117.96610169491525,27.41333333333333,118.98305084745763,27.199999999999996C120,26.986666666666665,121.01694915254237,26.37333333333333,122.03389830508473,25.92C123.05084745762711,25.466666666666665,124.0677966101695,24.853333333333335,125.08474576271188,24.48C126.10169491525424,24.10666666666667,127.11864406779662,24.02666666666667,128.135593220339,23.680000000000003C129.15254237288136,23.333333333333336,130.16949152542372,22.74666666666667,131.1864406779661,22.400000000000002C132.20338983050846,22.053333333333335,133.22033898305085,21.78666666666667,134.23728813559322,21.6C135.25423728813558,21.413333333333334,136.27118644067798,21.386666666666667,137.28813559322035,21.28C138.3050847457627,21.173333333333336,139.3220338983051,21.173333333333336,140.33898305084747,20.96C141.35593220338984,20.74666666666667,142.3728813559322,20.133333333333333,143.38983050847457,19.84C144.40677966101694,19.546666666666663,145.42372881355934,19.626666666666665,146.4406779661017,19.2C147.45762711864407,18.773333333333337,148.47457627118644,17.89333333333333,149.4915254237288,17.28C150.50847457627117,16.666666666666664,151.52542372881356,16,152.54237288135593,15.52C153.5593220338983,15.04,154.5762711864407,14.613333333333333,155.59322033898306,14.399999999999999C156.61016949152543,14.186666666666666,157.6271186440678,14.293333333333331,158.64406779661016,14.079999999999998C159.66101694915253,13.866666666666664,160.67796610169492,13.25333333333333,161.6949152542373,12.799999999999997C162.71186440677965,12.346666666666664,163.72881355932205,11.733333333333334,164.74576271186442,11.360000000000001C165.76271186440678,10.986666666666672,166.77966101694915,10.933333333333332,167.79661016949152,10.56C168.81355932203388,10.186666666666666,169.83050847457628,9.546666666666667,170.84745762711864,9.12C171.864406779661,8.693333333333332,172.8813559322034,8.319999999999999,173.89830508474577,7.999999999999998C174.91525423728814,7.679999999999999,175.93220338983053,7.3866666666666685,176.9491525423729,7.200000000000002C177.96610169491527,7.013333333333337,178.98305084745763,6.94666666666667,180,6.880000000000002"></path><path class="axis-ceiling" stroke-width="1" stroke="black" fill="none" d="M175,0L180,0"></path><text class="axis-ceiling-label" font-family="sans-serif" text-anchor="end" font-size="10px" x="170" y="2.5">250</text></g></svg>