<svg xmlns="http://www.w3.org/2000/svg" viewBox="0 0 180 60"><g transform="translate(0,20)"><path class="area" fill="rgba(0, 0, 0, 0.2)" d="M0,33.120000000000005C1.0169491525423728,32.85333333333334,2.0338983050847457,32.58666666666667,3.0508474576271185,32.400000000000006C4.067796610169491,32.21333333333334,5.084745762711864,32.17333333333333,6.101694915254237,32C7.11864406779661,31.826666666666664,8.135593220338983,31.53333333333333,9.152542372881356,31.36C10.169491525423728,31.186666666666667,11.186440677966102,31.16,12.203389830508474,30.96C13.220338983050846,30.76,14.23728813559322,30.266666666666666,15.254237288135592,30.16C16.271186440677965,30.053333333333335,17.28813559322034,30.106666666666666,18.305084745762713,30C19.322033898305087,29.893333333333334,20.338983050847457,29.586666666666666,21.35593220338983,29.439999999999998C22.372881355932204,29.29333333333333,23.389830508474574,29.333333333333332,24.406779661016948,29.119999999999997C25.423728813559322,28.906666666666663,26.440677966101696,28.466666666666665,27.45762711864407,28.159999999999997C28.47457627118644,27.85333333333333,29.491525423728813,27.519999999999996,30.508474576271183,27.279999999999998C31.525423728813557,27.04,32.54237288135593,26.826666666666668,33.559322033898304,26.72C34.57627118644068,26.61333333333333,35.59322033898305,26.666666666666664,36.610169491525426,26.559999999999995C37.6271186440678,26.453333333333326,38.644067796610166,26.14666666666667,39.66101694915254,25.92C40.67796610169491,25.693333333333335,41.69491525423729,25.386666666666667,42.71186440677966,25.2C43.728813559322035,25.013333333333332,44.7457627118644,24.986666666666668,45.762711864406775,24.8C46.77966101694915,24.613333333333333,47.79661016949152,24.29333333333333,48.813559322033896,24.08C49.83050847457627,23.866666666666667,50.847457627118644,23.680000000000003,51.86440677966102,23.520000000000003C52.88135593220339,23.360000000000003,53.898305084745765,23.21333333333334,54.91525423728814,23.120000000000005C55.93220338983051,23.02666666666667,56.94915254237288,23.06666666666667,57.96610169491525,22.96C58.983050847457626,22.85333333333333,59.99999999999999,22.58666666666667,61.01694915254237,22.400000000000002C62.03389830508474,22.213333333333335,63.05084745762712,22.01333333333334,64.0677966101695,21.840000000000003C65.08474576271186,21.66666666666667,66.10169491525424,21.546666666666667,67.11864406779661,21.36C68.13559322033899,21.173333333333332,69.15254237288136,20.89333333333333,70.16949152542374,20.72C71.1864406779661,20.546666666666667,72.20338983050848,20.44,73.22033898305085,20.32C74.23728813559322,20.2,75.2542372881356,20.106666666666666,76.27118644067797,20C77.28813559322033,19.893333333333334,78.30508474576271,19.8,79.32203389830508,19.68C80.33898305084746,19.56,81.35593220338983,19.373333333333335,82.37288135593221,19.28C83.38983050847457,19.186666666666667,84.40677966101696,19.173333333333332,85.42372881355932,19.119999999999997C86.4406779661017,19.066666666666663,87.45762711864407,19.013333333333335,88.47457627118645,18.96C89.49152542372882,18.906666666666666,90.50847457627118,18.879999999999995,91.52542372881355,18.799999999999997C92.54237288135593,18.719999999999995,93.55932203389831,18.599999999999998,94.57627118644069,18.479999999999997C95.59322033898306,18.36,96.61016949152543,18.2,97.62711864406779,18.08C98.64406779661016,17.959999999999997,99.66101694915254,17.866666666666664,100.6779661016949,17.759999999999998C101.69491525423729,17.653333333333332,102.71186440677965,17.586666666666666,103.72881355932203,17.44C104.7457627118644,17.293333333333337,105.76271186440678,17.013333333333335,106.77966101694915,16.880000000000003C107.79661016949153,16.74666666666667,108.8135593220339,16.706666666666667,109.83050847457628,16.64C110.84745762711864,16.573333333333334,111.86440677966102,16.586666666666666,112.88135593220339,16.48C113.89830508474576,16.373333333333335,114.91525423728814,15.693333333333335,115.9322033898305,15.440000000000001C116.94915254237289,15.186666666666667,117.96610169491525,15.093333333333335,118.98305084745763,14.96C120,14.826666666666668,121.01694915254237,14.72,122.03389830508473,14.64C123.05084745762711,14.559999999999999,124.0677966101695,14.573333333333334,125.08474576271188,14.48C126.10169491525424,14.386666666666667,127.11864406779662,14.226666666666667,128.135593220339,14.079999999999998C129.15254237288136,13.933333333333332,130.16949152542372,13.813333333333329,131.1864406779661,13.599999999999998C132.20338983050846,13.386666666666663,133.22033898305085,13.039999999999997,134.23728813559322,12.799999999999997C135.25423728813558,12.559999999999997,136.27118644067798,12.386666666666668,137.28813559322035,12.160000000000002C138.3050847457627,11.933333333333335,139.3220338983051,11.693333333333337,140.33898305084747,11.440000000000001C141.35593220338984,11.18666666666667,142.3728813559322,10.866666666666667,143.38983050847457,10.64C144.40677966101694,10.413333333333332,145.42372881355934,10.320000000000002,146.4406779661017,10.08C147.45762711864407,9.84,148.47457627118644,9.466666666666665,149.4915254237288,9.2C150.50847457627117,8.93333333333333,151.52542372881356,8.68,152.54237288135593,8.479999999999999C153.5593220338983,8.279999999999998,154.5762711864407,8.226666666666667,155.59322033898306,7.999999999999998C156.61016949152543,7.7733333333333325,157.6271186440678,7.453333333333333,158.64406779661016,7.120000000000002C159.66101694915253,6.786666666666668,160.67796610169492,6.333333333333335,161.6949152542373,6.000000000000001C162.71186440677965,5.666666666666667,163.72881355932205,5.413333333333335,164.74576271186442,5.12C165.76271186440678,4.826666666666668,166.77966101694915,4.546666666666665,167.79661016949152,4.239999999999999C168.81355932203388,3.933333333333331,169.83050847457628,3.5733333333333315,170.84745762711864,3.2799999999999985C171.864406779661,2.9866666666666655,172.8813559322034,2.7866666666666684,173.89830508474577,2.480000000000002C174.91525423728814,2.173333333333336,175.93220338983053,1.760000000000003,176.9491525423729,1.4400000000000013C177.96610169491527,1.1200000000000028,178.98305084745763,0.8400000000000016,180,0.5600000000000005L180,40C178.98305084745763,40,177.96610169491527,40,176.9491525423729,40C175.93220338983053,40,174.91525423728814,40,173.89830508474577,40C172.8813559322034,40,171.864406779661,40,170.84745762711864,40C169.83050847457628,40,168.81355932203388,40,167.79661016949152,40C166.77966101694915,40,165.76271186440678,40,164.74576271186442,40C163.72881355932205,40,162.71186440677965,40,161.6949152542373,40C160.67796610169492,40,159.66101694915253,40,158.64406779661016,40C157.6271186440678,40,156.61016949152543,40,155.59322033898306,40C154.5762711864407,40,153.5593220338983,40,152.54237288135593,40C151.52542372881356,40,150.50847457627117,40,149.4915254237288,40C148.47457627118644,40,147.45762711864407,40,146.4406779661017,40C145.42372881355934,40,144.40677966101694,40,143.38983050847457,40C142.3728813559322,40,141.35593220338984,40,140.33898305084747,40C139.3220338983051,40,138.3050847457627,40,137.28813559322035,40C136.27118644067798,40,135.25423728813558,40,134.23728813559322,40C133.22033898305085,40,132.20338983050846,40,131.1864406779661,40C130.16949152542372,40,129.15254237288136,40,128.135593220339,40C127.11864406779662,40,126.10169491525424,40,125.08474576271188,40C124.0677966101695,40,123.05084745762711,40,122.03389830508473,40C121.01694915254237,40,120,40,118.98305084745763,40C117.96610169491525,40,116.94915254237289,40,115.9322033898305,40C114.91525423728814,40,113.89830508474576,40,112.88135593220339,40C111.86440677966102,40,110.84745762711864,40,109.83050847457628,40C108.8135593220339,40,107.79661016949153,40,106.77966101694915,40C105.76271186440678,40,104.7457627118644,40,103.72881355932203,40C102.71186440677965,40,101.69491525423729,40,100.6779661016949,40C99.66101694915254,40,98.64406779661016,40,97.62711864406779,40C96.61016949152543,40,95.59322033898306,40,94.57627118644069,40C93.55932203389831,40,92.54237288135593,40,91.52542372881355,40C90.50847457627118,40,89.49152542372882,40,88.47457627118645,40C87.45762711864407,40,86.4406779661017,40,85.42372881355932,40C84.40677966101696,40,83.38983050847457,40,82.37288135593221,40C81.35593220338983,40,80.33898305084746,40,79.32203389830508,40C78.30508474576271,40,77.28813559322033,40,76.27118644067797,40C75.2542372881356,40,74.23728813559322,40,73.22033898305085,40C72.20338983050848,40,71.1864406779661,40,70.16949152542374,40C69.15254237288136,40,68.13559322033899,40,67.11864406779661,40C66.10169491525424,40,65.08474576271186,40,64.0677966101695,40C63.05084745762712,40,62.03389830508474,40,61.01694915254237,40C59.99999999999999,40,58.983050847457626,40,57.96610169491525,40C56.94915254237288,40,55.93220338983051,40,54.91525423728814,40C53.898305084745765,40,52.88135593220339,40,51.86440677966102,40C50.847457627118644,40,49.83050847457627,40,48.813559322033896,40C47.79661016949152,40,46.77966101694915,40,45.762711864406775,40C44.7457627118644,40,43.728813559322035,40,42.71186440677966,40C41.69491525423729,40,40.67796610169491,40,39.66101694915254,40C38.644067796610166,40,37.6271186440678,40,36.610169491525426,40C35.59322033898305,40,34.57627118644068,40,33.559322033898304,40C32.54237288135593,40,31.525423728813557,40,30.508474576271183,40C29.491525423728813,40,28.47457627118644,40,27.45762711864407,40C26.440677966101696,40,25.423728813559322,40,24.406779661016948,40C23.389830508474574,40,22.372881355932204,40,21.35593220338983,40C20.338983050847457,40,19.322033898305087,40,18.305084745762713,40C17.28813559322034,40,16.271186440677965,40,15.254237288135592,40C14.23728813559322,40,13.220338983050846,40,12.203389830508474,40C11.186440677966102,40,10.169491525423728,40,9.152542372881356,40C8.135593220338983,40,7.11864406779661,40,6.101694915254237,40C5.084745762711864,40,4.067796610169491,40,3.0508474576271185,40C2.0338983050847457,40,1.0169491525423728,40,0,40Z"></path><path class="line" stroke="black" fill="none" d="M0,33.120000000000005C1.0169491525423728,32.85333333333334,2.0338983050847457,32.58666666666667,3.0508474576271185,32.400000000000006C4.067796610169491,32.21333333333334,5.084745762711864,32.17333333333333,6.101694915254237,32C7.11864406779661,31.826666666666664,8.135593220338983,31.53333333333333,9.152542372881356,31.36C10.169491525423728,31.186666666666667,11.186440677966102,31.16,12.203389830508474,30.96C13.220338983050846,30.76,14.23728813559322,30.266666666666666,15.254237288135592,30.16C16.271186440677965,30.053333333333335,17.28813559322034,30.106666666666666,18.305084745762713,30C19.322033898305087,29.893333333333334,20.338983050847457,29.586666666666666,21.35593220338983,29.439999999999998C22.372881355932204,29.29333333333333,23.389830508474574,29.333333333333332,24.406779661016948,29.119999999999997C25.423728813559322,28.906666666666663,26.440677966101696,28.466666666666665,27.45762711864407,28.159999999999997C28.47457627118644,27.85333333333333,29.491525423728813,27.519999999999996,30.508474576271183,27.279999999999998C31.525423728813557,27.04,32.54237288135593,26.826666666666668,33.559322033898304,26.72C34.57627118644068,26.61333333333333,35.59322033898305,26.666666666666664,36.610169491525426,26.559999999999995C37.6271186440678,26.453333333333326,38.644067796610166,26.14666666666667,39.66101694915254,25.92C40.67796610169491,25.693333333333335,41.69491525423729,25.386666666666667,42.71186440677966,25.2C43.728813559322035,25.013333333333332,44.7457627118644,24.986666666666668,45.762711864406775,24.8C46.77966101694915,24.613333333333333,47.79661016949152,24.29333333333333,48.813559322033896,24.08C49.83050847457627,23.866666666666667,50.847457627118644,23.680000000000003,51.86440677966102,23.520000000000003C52.88135593220339,23.360000000000003,53.898305084745765,23.21333333333334,54.91525423728814,23.120000000000005C55.93220338983051,23.02666666666667,56.94915254237288,23.06666666666667,57.96610169491525,22.96C58.983050847457626,22.85333333333333,59.99999999999999,22.58666666666667,61.01694915254237,22.400000000000002C62.03389830508474,22.213333333333335,63.05084745762712,22.01333333333334,64.0677966101695,21.840000000000003C65.08474576271186,21.66666666666667,66.10169491525424,21.546666666666667,67.11864406779661,21.36C68.13559322033899,21.173333333333332,69.15254237288136,20.89333333333333,70.16949152542374,20.72C71.1864406779661,20.546666666666667,72.20338983050848,20.44,73.22033898305085,20.32C74.23728813559322,20.2,75.2542372881356,20.106666666666666,76.27118644067797,20C77.28813559322033,19.893333333333334,78.30508474576271,19.8,79.32203389830508,19.68C80.33898305084746,19.56,81.35593220338983,19.373333333333335,82.37288135593221,19.28C83.38983050847457,19.186666666666667,84.40677966101696,19.173333333333332,85.42372881355932,19.119999999999997C86.4406779661017,19.066666666666663,87.45762711864407,19.013333333333335,88.47457627118645,18.96C89.49152542372882,18.906666666666666,90.50847457627118,18.879999999999995,91.52542372881355,18.799999999999997C92.54237288135593,18.719999999999995,93.55932203389831,18.599999999999998,94.57627118644069,18.479999999999997C95.59322033898306,18.36,96.61016949152543,18.2,97.62711864406779,18.08C98.64406779661016,17.959999999999997,99.66101694915254,17.866666666666664,100.6779661016949,17.759999999999998C101.69491525423729,17.653333333333332,102.71186440677965,17.586666666666666,103.72881355932203,17.44C104.7457627118644,17.293333333333337,105.76271186440678,17.013333333333335,106.77966101694915,16.880000000000003C107.79661016949153,16.74666666666667,108.8135593220339,16.706666666666667,109.83050847457628,16.64C110.84745762711864,16.573333333333334,111.86440677966102,16.586666666666666,112.88135593220339,16.48C113.89830508474576,16.373333333333335,114.91525423728814,15.693333333333335,115.9322033898305,15.440000000000001C116.94915254237289,15.186666666666667,117.96610169491525,15.093333333333335,118.98305084745763,14.96C120,14.826666666666668,121.01694915254237,14.72,122.03389830508473,14.64C123.05084745762711,14.559999999999999,124.0677966101695,14.573333333333334,125.08474576271188,14.48C126.10169491525424,14.386666666666667,127.11864406779662,14.226666666666667,128.135593220339,14.079999999999998C129.15254237288136,13.933333333333332,130.16949152542372,13.813333333333329,131.1864406779661,13.599999999999998C132.20338983050846,13.386666666666663,133.22033898305085,13.039999999999997,134.23728813559322,12.799999999999997C135.25423728813558,12.559999999999997,136.27118644067798,12.386666666666668,137.28813559322035,12.160000000000002C138.3050847457627,11.933333333333335,139.3220338983051,11.693333333333337,140.33898305084747,11.440000000000001C141.35593220338984,11.18666666666667,142.3728813559322,10.866666666666667,143.38983050847457,10.64C144.40677966101694,10.413333333333332,145.42372881355934,10.320000000000002,146.4406779661017,10.08C147.45762711864407,9.84,148.47457627118644,9.466666666666665,149.4915254237288,9.2C150.50847457627117,8.93333333333333,151.52542372881356,8.68,152.54237288135593,8.479999999999999C153.5593220338983,8.279999999999998,154.5762711864407,8.226666666666667,155.59322033898306,7.999999999999998C156.61016949152543,7.7733333333333325,157.6271186440678,7.453333333333333,158.64406779661016,7.120000000000002C159.66101694915253,6.786666666666668,160.67796610169492,6.333333333333335,161.6949152542373,6.000000000000001C162.71186440677965,5.666666666666667,163.72881355932205,5.413333333333335,164.74576271186442,5.12C165.76271186440678,4.826666666666668,166.77966101694915,4.546666666666665,167.79661016949152,4.239999999999999C168.81355932203388,3.933333333333331,169.83050847457628,3.5733333333333315,170.84745762711864,3.2799999999999985C171.864406779661,2.9866666666666655,172.8813559322034,2.7866666666666684,173.89830508474577,2.480000000000002C174.91525423728814,2.173333333333336,175.93220338983053,1.760000000000003,176.9491525423729,1.4400000000000013C177.96610169491527,1.1200000000000028,178.98305084745763,0.8400000000000016,180,0.5600000000000005"></path><path class="axis-ceiling" stroke-width="1" stroke="black" fill="none" d="M175,0L180,0"></path><text class="axis-ceiling-label" font-family="sans-serif" text-anchor="end" font-size="10px" x="170" y="2.5">500</text></g></svg>