<svg xmlns="http://www.w3.org/2000/svg" viewBox="0 0 180 60"><g transform="translate(0,20)"><path class="area" fill="rgba(0, 0, 0, 0.2)" d="M0,40C0.8571428571428571,40,1.714285714285714,40,2.571428571428571,40C3.4285714285714284,40,4.285714285714286,40,5.142857142857142,40C5.571428571428571,40,5.999999999999999,40,6.428571428571428,40C9,40,11.571428571428571,40,14.142857142857142,40C15.857142857142856,40,17.57142857142857,40,19.285714285714285,40C19.71428571428571,40,20.142857142857142,40,20.57142857142857,40C22.285714285714285,40,23.999999999999996,40,25.71428571428571,40C30.428571428571427,40,35.14285714285714,40,39.857142857142854,40C40.714285714285715,40,41.57142857142857,40,42.42857142857143,40C47.142857142857146,40,51.857142857142854,40,56.57142857142857,40C57,40,57.42857142857143,40,57.85714285714286,40C60.00000000000001,40,62.142857142857146,40,64.28571428571429,40C64.71428571428572,40,65.14285714285714,40,65.57142857142857,40C66.42857142857143,40,67.28571428571428,40,68.14285714285714,40C71.14285714285714,40,74.14285714285714,40,77.14285714285714,40C81,40,84.85714285714286,40,88.71428571428572,40C89.57142857142857,40,90.42857142857143,40,91.28571428571428,40C96.85714285714285,40,102.42857142857143,40,108,40C110.57142857142857,40,113.14285714285715,40,115.71428571428572,40C116.14285714285715,40,116.57142857142857,40,117,40C117.42857142857143,40,117.85714285714286,40,118.28571428571429,40C120.42857142857143,40,122.57142857142857,40,124.71428571428571,40C125.57142857142857,40,126.42857142857143,40,127.28571428571429,40C127.71428571428572,40,128.14285714285717,40,128.57142857142858,40C129,40,129.42857142857144,40,129.85714285714286,40C130.71428571428572,40,131.57142857142858,40,132.42857142857144,40C132.85714285714286,40,133.2857142857143,40,133.71428571428572,40C134.14285714285714,40,134.57142857142858,40,135,40C135.42857142857142,40,135.85714285714286,40,136.28571428571428,40C138,40,139.7142857142857,40,141.42857142857142,40C142.28571428571428,40,143.14285714285714,40,144,40C144.42857142857142,40,144.85714285714286,40,145.28571428571428,40C145.71428571428572,40,146.14285714285714,40,146.57142857142858,40C147,40,147.42857142857144,40,147.85714285714286,40C148.28571428571428,40,148.71428571428572,40,149.14285714285714,40C149.57142857142858,40,150,40,150.42857142857144,40C151.2857142857143,40,152.14285714285714,40,153,40C153.42857142857142,40,153.85714285714286,40,154.28571428571428,40C154.71428571428572,40,155.14285714285714,40,155.57142857142858,40C156,40,156.42857142857144,40,156.85714285714286,40C157.28571428571428,40,157.71428571428572,40,158.14285714285714,40C158.57142857142856,40,159,40,159.42857142857142,40C159.85714285714286,40,160.28571428571428,40,160.71428571428572,40C161.14285714285714,40,161.57142857142858,40,162,40C162.42857142857142,40,162.85714285714286,40,163.28571428571428,40C163.7142857142857,40,164.14285714285714,40,164.57142857142856,40C165,40,165.42857142857142,40,165.85714285714286,40C166.28571428571428,40,166.71428571428572,40,167.14285714285714,40C167.57142857142856,40,168,40,168.42857142857142,40C168.85714285714286,40,169.28571428571428,40,169.71428571428572,40C170.14285714285714,40,170.57142857142858,40,171,40C171.42857142857144,40,171.85714285714286,40,172.2857142857143,40C172.71428571428572,40,173.14285714285717,40,173.57142857142858,40C174,40,174.42857142857144,40,174.85714285714286,40C175.28571428571428,40,175.71428571428572,40,176.14285714285714,40C176.57142857142858,40,177,40,177.42857142857144,40C177.85714285714286,40,178.2857142857143,40,178.71428571428572,40C179.14285714285714,40,179.57142857142858,40,180,40L180,40C179.57142857142858,40,179.14285714285714,40,178.71428571428572,40C178.2857142857143,40,177.85714285714286,40,177.42857142857144,40C177,40,176.57142857142858,40,176.14285714285714,40C175.71428571428572,40,175.28571428571428,40,174.85714285714286,40C174.42857142857144,40,174,40,173.57142857142858,40C173.14285714285717,40,172.71428571428572,40,172.2857142857143,40C171.85714285714286,40,171.42857142857144,40,171,40C170.57142857142858,40,170.14285714285714,40,169.71428571428572,40C169.28571428571428,40,168.85714285714286,40,168.42857142857142,40C168,40,167.57142857142856,40,167.14285714285714,40C166.71428571428572,40,166.28571428571428,40,165.85714285714286,40C165.42857142857142,40,165,40,164.57142857142856,40C164.14285714285714,40,163.7142857142857,40,163.28571428571428,40C162.85714285714286,40,162.42857142857142,40,162,40C161.57142857142858,40,161.14285714285714,40,160.71428571428572,40C160.28571428571428,40,159.85714285714286,40,159.42857142857142,40C159,40,158.57142857142856,40,158.14285714285714,40C157.71428571428572,40,157.28571428571428,40,156.85714285714286,40C156.42857142857144,40,156,40,155.57142857142858,40C155.14285714285714,40,154.71428571428572,40,154.28571428571428,40C153.85714285714286,40,153.42857142857142,40,153,40C152.14285714285714,40,151.2857142857143,40,150.42857142857144,40C150,40,149.57142857142858,40,149.14285714285714,40C148.71428571428572,40,148.28571428571428,40,147.85714285714286,40C147.42857142857144,40,147,40,146.57142857142858,40C146.14285714285714,40,145.71428571428572,40,145.28571428571428,40C144.85714285714286,40,144.42857142857142,40,144,40C143.14285714285714,40,142.28571428571428,40,141.42857142857142,40C139.7142857142857,40,138,40,136.28571428571428,40C135.85714285714286,40,135.42857142857142,40,135,40C134.57142857142858,40,134.14285714285714,40,133.71428571428572,40C133.2857142857143,40,132.85714285714286,40,132.42857142857144,40C131.57142857142858,40,130.71428571428572,40,129.85714285714286,40C129.42857142857144,40,129,40,128.57142857142858,40C128.14285714285717,40,127.71428571428572,40,127.28571428571429,40C126.42857142857143,40,125.57142857142857,40,124.71428571428571,40C122.57142857142857,40,120.42857142857143,40,118.28571428571429,40C117.85714285714286,40,117.42857142857143,40,117,40C116.57142857142857,40,116.14285714285715,40,115.71428571428572,40C113.14285714285715,40,110.57142857142857,40,108,40C102.42857142857143,40,96.85714285714285,40,91.28571428571428,40C90.42857142857143,40,89.57142857142857,40,88.71428571428572,40C84.85714285714286,40,81,40,77.14285714285714,40C74.14285714285714,40,71.14285714285714,40,68.14285714285714,40C67.28571428571428,40,66.42857142857143,40,65.57142857142857,40C65.14285714285714,40,64.71428571428572,40,64.28571428571429,40C62.142857142857146,40,60.00000000000001,40,57.85714285714286,40C57.42857142857143,40,57,40,56.57142857142857,40C51.857142857142854,40,47.142857142857146,40,42.42857142857143,40C41.57142857142857,40,40.714285714285715,40,39.857142857142854,40C35.14285714285714,40,30.428571428571427,40,25.71428571428571,40C23.999999999999996,40,22.285714285714285,40,20.57142857142857,40C20.142857142857142,40,19.71428571428571,40,19.285714285714285,40C17.57142857142857,40,15.857142857142856,40,14.142857142857142,40C11.571428571428571,40,9,40,6.428571428571428,40C5.999999999999999,40,5.571428571428571,40,5.142857142857142,40C4.285714285714286,40,3.4285714285714284,40,2.571428571428571,40C1.714285714285714,40,0.8571428571428571,40,0,40Z"></path><path class="line" stroke="black" fill="none" d="M0,40C0.8571428571428571,40,1.714285714285714,40,2.571428571428571,40C3.4285714285714284,40,4.285714285714286,40,5.142857142857142,40C5.571428571428571,40,5.999999999999999,40,6.428571428571428,40C9,40,11.571428571428571,40,14.142857142857142,40C15.857142857142856,40,17.57142857142857,40,19.285714285714285,40C19.71428571428571,40,20.142857142857142,40,20.57142857142857,40C22.285714285714285,40,23.999999999999996,40,25.71428571428571,40C30.428571428571427,40,35.14285714285714,40,39.857142857142854,40C40.714285714285715,40,41.57142857142857,40,42.42857142857143,40C47.142857142857146,40,51.857142857142854,40,56.57142857142857,40C57,40,57.42857142857143,40,57.85714285714286,40C60.00000000000001,40,62.142857142857146,40,64.28571428571429,40C64.71428571428572,40,65.14285714285714,40,65.57142857142857,40C66.42857142857143,40,67.28571428571428,40,68.14285714285714,40C71.14285714285714,40,74.14285714285714,40,77.14285714285714,40C81,40,84.85714285714286,40,88.71428571428572,40C89.57142857142857,40,90.42857142857143,40,91.28571428571428,40C96.85714285714285,40,102.42857142857143,40,108,40C110.57142857142857,40,113.14285714285715,40,115.71428571428572,40C116.14285714285715,40,116.57142857142857,40,117,40C117.42857142857143,40,117.85714285714286,40,118.28571428571429,40C120.42857142857143,40,122.57142857142857,40,124.71428571428571,40C125.57142857142857,40,126.42857142857143,40,127.28571428571429,40C127.71428571428572,40,128.14285714285717,40,128.57142857142858,40C129,40,129.42857142857144,40,129.85714285714286,40C130.71428571428572,40,131.57142857142858,40,132.42857142857144,40C132.85714285714286,40,133.2857142857143,40,133.71428571428572,40C134.14285714285714,40,134.57142857142858,40,135,40C135.42857142857142,40,135.85714285714286,40,136.28571428571428,40C138,40,139.7142857142857,40,141.42857142857142,40C142.28571428571428,40,143.14285714285714,40,144,40C144.42857142857142,40,144.85714285714286,40,145.28571428571428,40C145.71428571428572,40,146.14285714285714,40,146.57142857142858,40C147,40,147.42857142857144,40,147.85714285714286,40C148.28571428571428,40,148.71428571428572,40,149.14285714285714,40C149.57142857142858,40,150,40,150.42857142857144,40C151.2857142857143,40,152.14285714285714,40,153,40C153.42857142857142,40,153.85714285714286,40,154.28571428571428,40C154.71428571428572,40,155.14285714285714,40,155.57142857142858,40C156,40,156.42857142857144,40,156.85714285714286,40C157.28571428571428,40,157.71428571428572,40,158.14285714285714,40C158.57142857142856,40,159,40,159.42857142857142,40C159.85714285714286,40,160.28571428571428,40,160.71428571428572,40C161.14285714285714,40,161.57142857142858,40,162,40C162.42857142857142,40,162.85714285714286,40,163.28571428571428,40C163.7142857142857,40,164.14285714285714,40,164.57142857142856,40C165,40,165.42857142857142,40,165.85714285714286,40C166.28571428571428,40,166.71428571428572,40,167.14285714285714,40C167.57142857142856,40,168,40,168.42857142857142,40C168.85714285714286,40,169.28571428571428,40,169.71428571428572,40C170.14285714285714,40,170.57142857142858,40,171,40C171.42857142857144,40,171.85714285714286,40,172.2857142857143,40C172.71428571428572,40,173.14285714285717,40,173.57142857142858,40C174,40,174.42857142857144,40,174.85714285714286,40C175.28571428571428,40,175.71428571428572,40,176.14285714285714,40C176.57142857142858,40,177,40,177.42857142857144,40C177.85714285714286,40,178.2857142857143,40,178.71428571428572,40C179.14285714285714,40,179.57142857142858,40,180,40"></path><path class="axis-ceiling" stroke-width="1" stroke="black" fill="none" d="M175,0L180,0"></path><text class="axis-ceiling-label" font-family="sans-serif" text-anchor="end" font-size="10px" x="170" y="2.5">1</text></g></svg>