<svg xmlns="http://www.w3.org/2000/svg" viewBox="0 0 180 60"><g transform="translate(0,20)"><path class="area" fill="rgba(0, 0, 0, 0.2)" d="M0,34C1.8045112781954886,34.166666666666664,3.6090225563909772,34.333333333333336,5.413533834586466,35C5.864661654135338,35.166666666666664,6.315789473684211,37,6.7669172932330826,37C8.571428571428571,37,10.37593984962406,36.333333333333336,12.180451127819548,35C17.142857142857142,31.333333333333332,22.105263157894736,1.0000000000000009,27.06766917293233,1.0000000000000009C27.969924812030076,1.0000000000000009,28.872180451127818,37,29.774436090225564,37C34.73684210526316,37,39.69924812030075,23,44.661654135338345,23C45.11278195488722,23,45.563909774436084,38,46.01503759398496,38C48.27067669172932,38,50.52631578947368,36,52.78195488721804,36C53.233082706766915,36,53.68421052631579,38.666666666666664,54.13533834586466,39C55.037593984962406,39.666666666666664,55.939849624060145,40,56.84210526315789,40C59.99999999999999,40,63.1578947368421,38.601851851851855,66.3157894736842,38C70.37593984962406,37.226190476190474,74.4360902255639,36,78.49624060150376,36C79.3984962406015,36,80.30075187969925,40,81.203007518797,40C87.06766917293233,40,92.93233082706767,35,98.796992481203,35C101.50375939849624,35,104.21052631578948,35.666666666666664,106.91729323308272,37C107.36842105263159,37.22222222222222,107.81954887218045,40,108.27067669172932,40C108.7218045112782,40,109.17293233082707,40,109.62406015037594,40C111.8796992481203,40,114.13533834586465,39,116.39097744360902,39C117.29323308270676,39,118.19548872180451,39,119.09774436090225,39C119.54887218045113,39,120,40,120.45112781954887,40C120.90225563909775,40,121.3533834586466,40,121.80451127819548,40C122.70676691729322,40,123.60902255639097,40,124.51127819548871,40C124.96240601503759,40,125.41353383458647,40,125.86466165413535,40C126.31578947368422,40,126.76691729323308,40,127.21804511278195,40C127.66917293233082,40,128.1203007518797,40,128.57142857142858,40C130.37593984962407,40,132.18045112781954,40,133.98496240601503,40C134.88721804511277,40,135.78947368421052,39,136.69172932330827,39C137.14285714285714,39,137.593984962406,40,138.04511278195488,40C138.49624060150376,40,138.94736842105263,40,139.3984962406015,40C139.84962406015038,40,140.30075187969925,39,140.75187969924812,39C141.203007518797,39,141.65413533834587,40,142.10526315789474,40C142.5563909774436,40,143.00751879699249,40,143.45864661654136,40C144.3609022556391,40,145.26315789473682,40,146.16541353383457,40C146.61654135338344,40,147.06766917293234,40,147.5187969924812,40C147.9699248120301,40,148.42105263157893,37,148.8721804511278,37C149.32330827067668,37,149.77443609022558,40,150.22556390977445,40C150.67669172932332,40,151.12781954887217,40,151.57894736842104,40C152.0300751879699,40,152.4812030075188,40,152.93233082706766,40C153.38345864661653,40,153.8345864661654,29,154.28571428571428,29C154.73684210526315,29,155.18796992481202,40,155.6390977443609,40C156.09022556390977,40,156.54135338345864,40,156.99248120300751,40C157.4436090225564,40,157.89473684210526,40,158.34586466165413,40C158.796992481203,40,159.24812030075188,39.666666666666664,159.69924812030075,39C160.15037593984962,38.333333333333336,160.6015037593985,34,161.05263157894737,34C161.50375939849624,34,161.95488721804512,40,162.406015037594,40C162.85714285714286,40,163.30827067669173,38,163.7593984962406,38C164.21052631578948,38,164.66165413533832,40,165.1127819548872,40C165.56390977443607,40,166.01503759398497,37,166.46616541353384,37C166.91729323308272,37,167.36842105263156,37.500000000000014,167.81954887218043,38C168.2706766917293,38.5,168.7218045112782,40,169.17293233082708,40C169.62406015037595,40,170.0751879699248,37,170.52631578947367,37C170.97744360902254,37,171.42857142857142,38,171.8796992481203,38C172.33082706766916,38,172.78195488721803,33,173.2330827067669,33C173.68421052631578,33,174.13533834586465,40,174.58646616541353,40C175.0375939849624,40,175.48872180451127,36,175.93984962406014,36C176.39097744360902,36,176.8421052631579,40,177.29323308270676,40C177.74436090225564,40,178.1954887218045,33,178.64661654135338,33C179.09774436090225,33,179.54887218045113,36.5,180,40L180,40C179.54887218045113,40,179.09774436090225,40,178.64661654135338,40C178.1954887218045,40,177.74436090225564,40,177.29323308270676,40C176.8421052631579,40,176.39097744360902,40,175.93984962406014,40C175.48872180451127,40,175.0375939849624,40,174.58646616541353,40C174.13533834586465,40,173.68421052631578,40,173.2330827067669,40C172.78195488721803,40,172.33082706766916,40,171.8796992481203,40C171.42857142857142,40,170.97744360902254,40,170.52631578947367,40C170.0751879699248,40,169.62406015037595,40,169.17293233082708,40C168.7218045112782,40,168.2706766917293,40,167.81954887218043,40C167.36842105263156,40,166.91729323308272,40,166.46616541353384,40C166.01503759398497,40,165.56390977443607,40,165.1127819548872,40C164.66165413533832,40,164.21052631578948,40,163.7593984962406,40C163.30827067669173,40,162.85714285714286,40,162.406015037594,40C161.95488721804512,40,161.50375939849624,40,161.05263157894737,40C160.6015037593985,40,160.15037593984962,40,159.69924812030075,40C159.24812030075188,40,158.796992481203,40,158.34586466165413,40C157.89473684210526,40,157.4436090225564,40,156.99248120300751,40C156.54135338345864,40,156.09022556390977,40,155.6390977443609,40C155.18796992481202,40,154.73684210526315,40,154.28571428571428,40C153.8345864661654,40,153.38345864661653,40,152.93233082706766,40C152.4812030075188,40,152.0300751879699,40,151.57894736842104,40C151.12781954887217,40,150.67669172932332,40,150.22556390977445,40C149.77443609022558,40,149.32330827067668,40,148.8721804511278,40C148.42105263157893,40,147.9699248120301,40,147.5187969924812,40C147.06766917293234,40,146.61654135338344,40,146.16541353383457,40C145.26315789473682,40,144.3609022556391,40,143.45864661654136,40C143.00751879699249,40,142.5563909774436,40,142.10526315789474,40C141.65413533834587,40,141.203007518797,40,140.75187969924812,40C140.30075187969925,40,139.84962406015038,40,139.3984962406015,40C138.94736842105263,40,138.49624060150376,40,138.04511278195488,40C137.593984962406,40,137.14285714285714,40,136.69172932330827,40C135.78947368421052,40,134.88721804511277,40,133.98496240601503,40C132.18045112781954,40,130.37593984962407,40,128.57142857142858,40C128.1203007518797,40,127.66917293233082,40,127.21804511278195,40C126.76691729323308,40,126.31578947368422,40,125.86466165413535,40C125.41353383458647,40,124.96240601503759,40,124.51127819548871,40C123.60902255639097,40,122.70676691729322,40,121.80451127819548,40C121.3533834586466,40,120.90225563909775,40,120.45112781954887,40C120,40,119.54887218045113,40,119.09774436090225,40C118.19548872180451,40,117.29323308270676,40,116.39097744360902,40C114.13533834586465,40,111.8796992481203,40,109.62406015037594,40C109.17293233082707,40,108.7218045112782,40,108.27067669172932,40C107.81954887218045,40,107.36842105263159,40,106.91729323308272,40C104.21052631578948,40,101.50375939849624,40,98.796992481203,40C92.93233082706767,40,87.06766917293233,40,81.203007518797,40C80.30075187969925,40,79.3984962406015,40,78.49624060150376,40C74.4360902255639,40,70.37593984962406,40,66.3157894736842,40C63.1578947368421,40,59.99999999999999,40,56.84210526315789,40C55.939849624060145,40,55.037593984962406,40,54.13533834586466,40C53.68421052631579,40,53.233082706766915,40,52.78195488721804,40C50.52631578947368,40,48.27067669172932,40,46.01503759398496,40C45.563909774436084,40,45.11278195488722,40,44.661654135338345,40C39.69924812030075,40,34.73684210526316,40,29.774436090225564,40C28.872180451127818,40,27.969924812030076,40,27.06766917293233,40C22.105263157894736,40,17.142857142857142,40,12.180451127819548,40C10.37593984962406,40,8.571428571428571,40,6.7669172932330826,40C6.315789473684211,40,5.864661654135338,40,5.413533834586466,40C3.6090225563909772,40,1.8045112781954886,40,0,40Z"></path><path class="line" stroke="black" fill="none" d="M0,34C1.8045112781954886,34.166666666666664,3.6090225563909772,34.333333333333336,5.413533834586466,35C5.864661654135338,35.166666666666664,6.315789473684211,37,6.7669172932330826,37C8.571428571428571,37,10.37593984962406,36.333333333333336,12.180451127819548,35C17.142857142857142,31.333333333333332,22.105263157894736,1.0000000000000009,27.06766917293233,1.0000000000000009C27.969924812030076,1.0000000000000009,28.872180451127818,37,29.774436090225564,37C34.73684210526316,37,39.69924812030075,23,44.661654135338345,23C45.11278195488722,23,45.563909774436084,38,46.01503759398496,38C48.27067669172932,38,50.52631578947368,36,52.78195488721804,36C53.233082706766915,36,53.68421052631579,38.666666666666664,54.13533834586466,39C55.037593984962406,39.666666666666664,55.939849624060145,40,56.84210526315789,40C59.99999999999999,40,63.1578947368421,38.601851851851855,66.3157894736842,38C70.37593984962406,37.226190476190474,74.4360902255639,36,78.49624060150376,36C79.3984962406015,36,80.30075187969925,40,81.203007518797,40C87.06766917293233,40,92.93233082706767,35,98.796992481203,35C101.50375939849624,35,104.21052631578948,35.666666666666664,106.91729323308272,37C107.36842105263159,37.22222222222222,107.81954887218045,40,108.27067669172932,40C108.7218045112782,40,109.17293233082707,40,109.62406015037594,40C111.8796992481203,40,114.13533834586465,39,116.39097744360902,39C117.29323308270676,39,118.19548872180451,39,119.09774436090225,39C119.54887218045113,39,120,40,120.45112781954887,40C120.90225563909775,40,121.3533834586466,40,121.80451127819548,40C122.70676691729322,40,123.60902255639097,40,124.51127819548871,40C124.96240601503759,40,125.41353383458647,40,125.86466165413535,40C126.31578947368422,40,126.76691729323308,40,127.21804511278195,40C127.66917293233082,40,128.1203007518797,40,128.57142857142858,40C130.37593984962407,40,132.18045112781954,40,133.98496240601503,40C134.88721804511277,40,135.78947368421052,39,136.69172932330827,39C137.14285714285714,39,137.593984962406,40,138.04511278195488,40C138.49624060150376,40,138.94736842105263,40,139.3984962406015,40C139.84962406015038,40,140.30075187969925,39,140.75187969924812,39C141.203007518797,39,141.65413533834587,40,142.10526315789474,40C142.5563909774436,40,143.00751879699249,40,143.45864661654136,40C144.3609022556391,40,145.26315789473682,40,146.16541353383457,40C146.61654135338344,40,147.06766917293234,40,147.5187969924812,40C147.9699248120301,40,148.42105263157893,37,148.8721804511278,37C149.32330827067668,37,149.77443609022558,40,150.22556390977445,40C150.67669172932332,40,151.12781954887217,40,151.57894736842104,40C152.0300751879699,40,152.4812030075188,40,152.93233082706766,40C153.38345864661653,40,153.8345864661654,29,154.28571428571428,29C154.73684210526315,29,155.18796992481202,40,155.6390977443609,40C156.09022556390977,40,156.54135338345864,40,156.99248120300751,40C157.4436090225564,40,157.89473684210526,40,158.34586466165413,40C158.796992481203,40,159.24812030075188,39.666666666666664,159.69924812030075,39C160.15037593984962,38.333333333333336,160.6015037593985,34,161.05263157894737,34C161.50375939849624,34,161.95488721804512,40,162.406015037594,40C162.85714285714286,40,163.30827067669173,38,163.7593984962406,38C164.21052631578948,38,164.66165413533832,40,165.1127819548872,40C165.56390977443607,40,166.01503759398497,37,166.46616541353384,37C166.91729323308272,37,167.36842105263156,37.500000000000014,167.81954887218043,38C168.2706766917293,38.5,168.7218045112782,40,169.17293233082708,40C169.62406015037595,40,170.0751879699248,37,170.52631578947367,37C170.97744360902254,37,171.42857142857142,38,171.8796992481203,38C172.33082706766916,38,172.78195488721803,33,173.2330827067669,33C173.68421052631578,33,174.13533834586465,40,174.58646616541353,40C175.0375939849624,40,175.48872180451127,36,175.93984962406014,36C176.39097744360902,36,176.8421052631579,40,177.29323308270676,40C177.74436090225564,40,178.1954887218045,33,178.64661654135338,33C179.09774436090225,33,179.54887218045113,36.5,180,40"></path><path class="axis-ceiling" stroke-width="1" stroke="black" fill="none" d="M175,0L180,0"></path><text class="axis-ceiling-label" font-family="sans-serif" text-anchor="end" font-size="10px" x="170" y="2.5">40</text></g></svg>