<svg xmlns="http://www.w3.org/2000/svg" viewBox="0 0 180 60"><g transform="translate(0,20)"><path class="area" fill="rgba(0, 0, 0, 0.2)" d="M0,30.148533333333333C1.0169491525423728,30.029711111111112,2.0338983050847457,29.910888888888888,3.0508474576271185,29.798666666666666C4.067796610169491,29.686444444444444,5.084745762711864,29.578977777777776,6.101694915254237,29.4752C7.11864406779661,29.371422222222222,8.135593220338983,29.271022222222225,9.152542372881356,29.176000000000002C10.169491525423728,29.08097777777778,11.186440677966102,28.99351111111111,12.203389830508474,28.905066666666666C13.220338983050846,28.81662222222222,14.23728813559322,28.728355555555556,15.254237288135592,28.645333333333333C16.271186440677965,28.56231111111111,17.28813559322034,28.481955555555558,18.305084745762713,28.406933333333335C19.322033898305087,28.33191111111111,20.338983050847457,28.2616,21.35593220338983,28.1952C22.372881355932204,28.1288,23.389830508474574,28.06911111111111,24.406779661016948,28.008533333333332C25.423728813559322,27.947955555555556,26.440677966101696,27.889466666666667,27.45762711864407,27.831733333333332C28.47457627118644,27.774,29.491525423728813,27.7176,30.508474576271183,27.662133333333333C31.525423728813557,27.606666666666666,32.54237288135593,27.549022222222224,33.559322033898304,27.498933333333333C34.57627118644068,27.448844444444443,35.59322033898305,27.406488888888887,36.610169491525426,27.3616C37.6271186440678,27.31671111111111,38.644067796610166,27.27328888888889,39.66101694915254,27.2296C40.67796610169491,27.185911111111114,41.69491525423729,27.14457777777778,42.71186440677966,27.099466666666668C43.728813559322035,27.054355555555556,44.7457627118644,27.004,45.762711864406775,26.958933333333334C46.77966101694915,26.913866666666667,47.79661016949152,26.872311111111113,48.813559322033896,26.82906666666667C49.83050847457627,26.785822222222226,50.847457627118644,26.742088888888887,51.86440677966102,26.699466666666666C52.88135593220339,26.656844444444445,53.898305084745765,26.620133333333335,54.91525423728814,26.573333333333334C55.93220338983051,26.526533333333333,56.94915254237288,26.4716,57.96610169491525,26.418666666666667C58.983050847457626,26.365733333333335,59.99999999999999,26.308444444444447,61.01694915254237,26.255733333333335C62.03389830508474,26.203022222222224,63.05084745762712,26.151111111111117,64.0677966101695,26.102400000000003C65.08474576271186,26.053688888888892,66.10169491525424,26.011688888888884,67.11864406779661,25.963466666666662C68.13559322033899,25.91524444444444,69.15254237288136,25.861688888888885,70.16949152542374,25.813066666666664C71.1864406779661,25.764444444444443,72.20338983050848,25.718088888888886,73.22033898305085,25.671733333333332C74.23728813559322,25.62537777777778,75.2542372881356,25.579555555555558,76.27118644067797,25.534933333333335C77.28813559322033,25.49031111111111,78.30508474576271,25.443955555555554,79.32203389830508,25.404C80.33898305084746,25.364044444444442,81.35593220338983,25.33342222222222,82.37288135593221,25.295199999999998C83.38983050847457,25.256977777777777,84.40677966101696,25.213466666666665,85.42372881355932,25.174666666666667C86.4406779661017,25.13586666666667,87.45762711864407,25.100844444444444,88.47457627118645,25.0624C89.49152542372882,25.023955555555556,90.50847457627118,24.985911111111108,91.52542372881355,24.943999999999996C92.54237288135593,24.902088888888883,93.55932203389831,24.85631111111111,94.57627118644069,24.810933333333335C95.59322033898306,24.765555555555558,96.61016949152543,24.729644444444443,97.62711864406779,24.671733333333332C98.64406779661016,24.613822222222222,99.66101694915254,24.5364,100.6779661016949,24.46346666666667C101.69491525423729,24.390533333333334,102.71186440677965,24.311511111111113,103.72881355932203,24.234133333333332C104.7457627118644,24.156755555555556,105.76271186440678,24.079288888888886,106.77966101694915,23.9992C107.79661016949153,23.91911111111111,108.8135593220339,23.836,109.83050847457628,23.7536C110.84745762711864,23.6712,111.86440677966102,23.590044444444448,112.88135593220339,23.504800000000003C113.89830508474576,23.419555555555558,114.91525423728814,23.332755555555554,115.9322033898305,23.24213333333333C116.94915254237289,23.15151111111111,117.96610169491525,23.04511111111111,118.98305084745763,22.961066666666667C120,22.877022222222223,121.01694915254237,22.814933333333332,122.03389830508473,22.737866666666665C123.05084745762711,22.6608,124.0677966101695,22.581955555555556,125.08474576271188,22.498666666666665C126.10169491525424,22.415377777777778,127.11864406779662,22.328088888888885,128.135593220339,22.23813333333333C129.15254237288136,22.148177777777775,130.16949152542372,22.0656,131.1864406779661,21.958933333333334C132.20338983050846,21.85226666666667,133.22033898305085,21.72884444444444,134.23728813559322,21.59813333333333C135.25423728813558,21.46742222222222,136.27118644067798,21.325555555555557,137.28813559322035,21.174666666666667C138.3050847457627,21.023777777777777,139.3220338983051,20.861066666666666,140.33898305084747,20.6928C141.35593220338984,20.52453333333333,142.3728813559322,20.343066666666665,143.38983050847457,20.165066666666664C144.40677966101694,19.987066666666664,145.42372881355934,19.809199999999997,146.4406779661017,19.624799999999997C147.45762711864407,19.440399999999997,148.47457627118644,19.256844444444443,149.4915254237288,19.058666666666667C150.50847457627117,18.860488888888888,151.52542372881356,18.640444444444448,152.54237288135593,18.435733333333335C153.5593220338983,18.231022222222222,154.5762711864407,18.030622222222224,155.59322033898306,17.8304C156.61016949152543,17.630177777777778,157.6271186440678,17.42631111111111,158.64406779661016,17.2344C159.66101694915253,17.04248888888889,160.67796610169492,16.86728888888889,161.6949152542373,16.678933333333333C162.71186440677965,16.490577777777776,163.72881355932205,16.307822222222224,164.74576271186442,16.104266666666668C165.76271186440678,15.900711111111113,166.77966101694915,15.685066666666666,167.79661016949152,15.4576C168.81355932203388,15.230133333333331,169.83050847457628,14.988533333333333,170.84745762711864,14.739466666666665C171.864406779661,14.490399999999998,172.8813559322034,14.22813333333333,173.89830508474577,13.963199999999997C174.91525423728814,13.698266666666663,175.93220338983053,13.42871111111111,176.9491525423729,13.149866666666664C177.96610169491527,12.871022222222223,178.98305084745763,12.580577777777778,180,12.290133333333335L180,40C178.98305084745763,40,177.96610169491527,40,176.9491525423729,40C175.93220338983053,40,174.91525423728814,40,173.89830508474577,40C172.8813559322034,40,171.864406779661,40,170.84745762711864,40C169.83050847457628,40,168.81355932203388,40,167.79661016949152,40C166.77966101694915,40,165.76271186440678,40,164.74576271186442,40C163.72881355932205,40,162.71186440677965,40,161.6949152542373,40C160.67796610169492,40,159.66101694915253,40,158.64406779661016,40C157.6271186440678,40,156.61016949152543,40,155.59322033898306,40C154.5762711864407,40,153.5593220338983,40,152.54237288135593,40C151.52542372881356,40,150.50847457627117,40,149.4915254237288,40C148.47457627118644,40,147.45762711864407,40,146.4406779661017,40C145.42372881355934,40,144.40677966101694,40,143.38983050847457,40C142.3728813559322,40,141.35593220338984,40,140.33898305084747,40C139.3220338983051,40,138.3050847457627,40,137.28813559322035,40C136.27118644067798,40,135.25423728813558,40,134.23728813559322,40C133.22033898305085,40,132.20338983050846,40,131.1864406779661,40C130.16949152542372,40,129.15254237288136,40,128.135593220339,40C127.11864406779662,40,126.10169491525424,40,125.08474576271188,40C124.0677966101695,40,123.05084745762711,40,122.03389830508473,40C121.01694915254237,40,120,40,118.98305084745763,40C117.96610169491525,40,116.94915254237289,40,115.9322033898305,40C114.91525423728814,40,113.89830508474576,40,112.88135593220339,40C111.86440677966102,40,110.84745762711864,40,109.83050847457628,40C108.8135593220339,40,107.79661016949153,40,106.77966101694915,40C105.76271186440678,40,104.7457627118644,40,103.72881355932203,40C102.71186440677965,40,101.69491525423729,40,100.6779661016949,40C99.66101694915254,40,98.64406779661016,40,97.62711864406779,40C96.61016949152543,40,95.59322033898306,40,94.57627118644069,40C93.55932203389831,40,92.54237288135593,40,91.52542372881355,40C90.50847457627118,40,89.49152542372882,40,88.47457627118645,40C87.45762711864407,40,86.4406779661017,40,85.42372881355932,40C84.40677966101696,40,83.38983050847457,40,82.37288135593221,40C81.35593220338983,40,80.33898305084746,40,79.32203389830508,40C78.30508474576271,40,77.28813559322033,40,76.27118644067797,40C75.2542372881356,40,74.23728813559322,40,73.22033898305085,40C72.20338983050848,40,71.1864406779661,40,70.16949152542374,40C69.15254237288136,40,68.13559322033899,40,67.11864406779661,40C66.10169491525424,40,65.08474576271186,40,64.0677966101695,40C63.05084745762712,40,62.03389830508474,40,61.01694915254237,40C59.99999999999999,40,58.983050847457626,40,57.96610169491525,40C56.94915254237288,40,55.93220338983051,40,54.91525423728814,40C53.898305084745765,40,52.88135593220339,40,51.86440677966102,40C50.847457627118644,40,49.83050847457627,40,48.813559322033896,40C47.79661016949152,40,46.77966101694915,40,45.762711864406775,40C44.7457627118644,40,43.728813559322035,40,42.71186440677966,40C41.69491525423729,40,40.67796610169491,40,39.66101694915254,40C38.644067796610166,40,37.6271186440678,40,36.610169491525426,40C35.59322033898305,40,34.57627118644068,40,33.559322033898304,40C32.54237288135593,40,31.525423728813557,40,30.508474576271183,40C29.491525423728813,40,28.47457627118644,40,27.45762711864407,40C26.440677966101696,40,25.423728813559322,40,24.406779661016948,40C23.389830508474574,40,22.372881355932204,40,21.35593220338983,40C20.338983050847457,40,19.322033898305087,40,18.305084745762713,40C17.28813559322034,40,16.271186440677965,40,15.254237288135592,40C14.23728813559322,40,13.220338983050846,40,12.203389830508474,40C11.186440677966102,40,10.169491525423728,40,9.152542372881356,40C8.135593220338983,40,7.11864406779661,40,6.101694915254237,40C5.084745762711864,40,4.067796610169491,40,3.0508474576271185,40C2.0338983050847457,40,1.0169491525423728,40,0,40Z"></path><path class="line" stroke="black" fill="none" d="M0,30.148533333333333C1.0169491525423728,30.029711111111112,2.0338983050847457,29.910888888888888,3.0508474576271185,29.798666666666666C4.067796610169491,29.686444444444444,5.084745762711864,29.578977777777776,6.101694915254237,29.4752C7.11864406779661,29.371422222222222,8.135593220338983,29.271022222222225,9.152542372881356,29.176000000000002C10.169491525423728,29.08097777777778,11.186440677966102,28.99351111111111,12.203389830508474,28.905066666666666C13.220338983050846,28.81662222222222,14.23728813559322,28.728355555555556,15.254237288135592,28.645333333333333C16.271186440677965,28.56231111111111,17.28813559322034,28.481955555555558,18.305084745762713,28.406933333333335C19.322033898305087,28.33191111111111,20.338983050847457,28.2616,21.35593220338983,28.1952C22.372881355932204,28.1288,23.389830508474574,28.06911111111111,24.406779661016948,28.008533333333332C25.423728813559322,27.947955555555556,26.440677966101696,27.889466666666667,27.45762711864407,27.831733333333332C28.47457627118644,27.774,29.491525423728813,27.7176,30.508474576271183,27.662133333333333C31.525423728813557,27.606666666666666,32.54237288135593,27.549022222222224,33.559322033898304,27.498933333333333C34.57627118644068,27.448844444444443,35.59322033898305,27.406488888888887,36.610169491525426,27.3616C37.6271186440678,27.31671111111111,38.644067796610166,27.27328888888889,39.66101694915254,27.2296C40.67796610169491,27.185911111111114,41.69491525423729,27.14457777777778,42.71186440677966,27.099466666666668C43.728813559322035,27.054355555555556,44.7457627118644,27.004,45.762711864406775,26.958933333333334C46.77966101694915,26.913866666666667,47.79661016949152,26.872311111111113,48.813559322033896,26.82906666666667C49.83050847457627,26.785822222222226,50.847457627118644,26.742088888888887,51.86440677966102,26.699466666666666C52.88135593220339,26.656844444444445,53.898305084745765,26.620133333333335,54.91525423728814,26.573333333333334C55.93220338983051,26.526533333333333,56.94915254237288,26.4716,57.96610169491525,26.418666666666667C58.983050847457626,26.365733333333335,59.99999999999999,26.308444444444447,61.01694915254237,26.255733333333335C62.03389830508474,26.203022222222224,63.05084745762712,26.151111111111117,64.0677966101695,26.102400000000003C65.08474576271186,26.053688888888892,66.10169491525424,26.011688888888884,67.11864406779661,25.963466666666662C68.13559322033899,25.91524444444444,69.15254237288136,25.861688888888885,70.16949152542374,25.813066666666664C71.1864406779661,25.764444444444443,72.20338983050848,25.718088888888886,73.22033898305085,25.671733333333332C74.23728813559322,25.62537777777778,75.2542372881356,25.579555555555558,76.27118644067797,25.534933333333335C77.28813559322033,25.49031111111111,78.30508474576271,25.443955555555554,79.32203389830508,25.404C80.33898305084746,25.364044444444442,81.35593220338983,25.33342222222222,82.37288135593221,25.295199999999998C83.38983050847457,25.256977777777777,84.40677966101696,25.213466666666665,85.42372881355932,25.174666666666667C86.4406779661017,25.13586666666667,87.45762711864407,25.100844444444444,88.47457627118645,25.0624C89.49152542372882,25.023955555555556,90.50847457627118,24.985911111111108,91.52542372881355,24.943999999999996C92.54237288135593,24.902088888888883,93.55932203389831,24.85631111111111,94.57627118644069,24.810933333333335C95.59322033898306,24.765555555555558,96.61016949152543,24.729644444444443,97.62711864406779,24.671733333333332C98.64406779661016,24.613822222222222,99.66101694915254,24.5364,100.6779661016949,24.46346666666667C101.69491525423729,24.390533333333334,102.71186440677965,24.311511111111113,103.72881355932203,24.234133333333332C104.7457627118644,24.156755555555556,105.76271186440678,24.079288888888886,106.77966101694915,23.9992C107.79661016949153,23.91911111111111,108.8135593220339,23.836,109.83050847457628,23.7536C110.84745762711864,23.6712,111.86440677966102,23.590044444444448,112.88135593220339,23.504800000000003C113.89830508474576,23.419555555555558,114.91525423728814,23.332755555555554,115.9322033898305,23.24213333333333C116.94915254237289,23.15151111111111,117.96610169491525,23.04511111111111,118.98305084745763,22.961066666666667C120,22.877022222222223,121.01694915254237,22.814933333333332,122.03389830508473,22.737866666666665C123.05084745762711,22.6608,124.0677966101695,22.581955555555556,125.08474576271188,22.498666666666665C126.10169491525424,22.415377777777778,127.11864406779662,22.328088888888885,128.135593220339,22.23813333333333C129.15254237288136,22.148177777777775,130.16949152542372,22.0656,131.1864406779661,21.958933333333334C132.20338983050846,21.85226666666667,133.22033898305085,21.72884444444444,134.23728813559322,21.59813333333333C135.25423728813558,21.46742222222222,136.27118644067798,21.325555555555557,137.28813559322035,21.174666666666667C138.3050847457627,21.023777777777777,139.3220338983051,20.861066666666666,140.33898305084747,20.6928C141.35593220338984,20.52453333333333,142.3728813559322,20.343066666666665,143.38983050847457,20.165066666666664C144.40677966101694,19.987066666666664,145.42372881355934,19.809199999999997,146.4406779661017,19.624799999999997C147.45762711864407,19.440399999999997,148.47457627118644,19.256844444444443,149.4915254237288,19.058666666666667C150.50847457627117,18.860488888888888,151.52542372881356,18.640444444444448,152.54237288135593,18.435733333333335C153.5593220338983,18.231022222222222,154.5762711864407,18.030622222222224,155.59322033898306,17.8304C156.61016949152543,17.630177777777778,157.6271186440678,17.42631111111111,158.64406779661016,17.2344C159.66101694915253,17.04248888888889,160.67796610169492,16.86728888888889,161.6949152542373,16.678933333333333C162.71186440677965,16.490577777777776,163.72881355932205,16.307822222222224,164.74576271186442,16.104266666666668C165.76271186440678,15.900711111111113,166.77966101694915,15.685066666666666,167.79661016949152,15.4576C168.81355932203388,15.230133333333331,169.83050847457628,14.988533333333333,170.84745762711864,14.739466666666665C171.864406779661,14.490399999999998,172.8813559322034,14.22813333333333,173.89830508474577,13.963199999999997C174.91525423728814,13.698266666666663,175.93220338983053,13.42871111111111,176.9491525423729,13.149866666666664C177.96610169491527,12.871022222222223,178.98305084745763,12.580577777777778,180,12.290133333333335"></path><path class="axis-ceiling" stroke-width="1" stroke="black" fill="none" d="M175,0L180,0"></path><text class="axis-ceiling-label" font-family="sans-serif" text-anchor="end" font-size="10px" x="170" y="2.5">150000</text></g></svg>