<svg xmlns="http://www.w3.org/2000/svg" viewBox="0 0 180 60"><g transform="translate(0,20)"><path class="area" fill="rgba(0, 0, 0, 0.2)" d="M0,38.12935323383085C1.0169491525423728,38.417910447761194,2.0338983050847457,38.70646766169154,3.0508474576271185,38.70646766169154C4.067796610169491,38.70646766169154,5.084745762711864,37.333333333333336,6.101694915254237,37.29353233830846C7.11864406779661,37.25373134328358,8.135593220338983,37.27363184079602,9.152542372881356,37.233830845771145C10.169491525423728,37.19402985074627,11.186440677966102,36.975124378109456,12.203389830508474,36.776119402985074C13.220338983050846,36.57711442786069,14.23728813559322,36.039800995024876,15.254237288135592,36.039800995024876C16.271186440677965,36.039800995024876,17.28813559322034,37.87064676616915,18.305084745762713,37.87064676616915C19.322033898305087,37.87064676616915,20.338983050847457,37.691542288557216,21.35593220338983,37.691542288557216C22.372881355932204,37.691542288557216,23.389830508474574,38.069651741293534,24.406779661016948,38.069651741293534C25.423728813559322,38.069651741293534,26.440677966101696,37.95688225538972,27.45762711864407,37.73134328358209C28.47457627118644,37.50580431177446,29.491525423728813,32.43781094527363,30.508474576271183,32.43781094527363C31.525423728813557,32.43781094527363,32.54237288135593,36.94859038142621,33.559322033898304,37.333333333333336C34.57627118644068,37.718076285240464,35.59322033898305,37.5257048092869,36.610169491525426,37.91044776119403C37.6271186440678,38.29519071310116,38.644067796610166,40,39.66101694915254,40C40.67796610169491,40,41.69491525423729,36.32504145936982,42.71186440677966,35.701492537313435C43.728813559322035,35.07794361525705,44.7457627118644,34.97844112769486,45.762711864406775,34.766169154228855C46.77966101694915,34.55389718076285,47.79661016949152,34.524046434494196,48.813559322033896,34.42786069651741C49.83050847457627,34.33167495854063,50.847457627118644,34.18905472636816,51.86440677966102,34.18905472636816C52.88135593220339,34.18905472636816,53.898305084745765,38.22885572139303,54.91525423728814,38.22885572139303C55.93220338983051,38.22885572139303,56.94915254237288,25.661691542288555,57.96610169491525,21.850746268656714C58.983050847457626,18.039800995024873,59.99999999999999,15.36318407960199,61.01694915254237,15.36318407960199C62.03389830508474,15.36318407960199,63.05084745762712,31.81426202321725,64.0677966101695,32.19900497512438C65.08474576271186,32.58374792703151,66.10169491525424,32.45107794361526,67.11864406779661,32.776119402985074C68.13559322033899,33.10116086235489,69.15254237288136,34.14925373134328,70.16949152542374,34.14925373134328C71.1864406779661,34.14925373134328,72.20338983050848,32.882255389718075,73.22033898305085,32.69651741293532C74.23728813559322,32.51077943615257,75.2542372881356,32.417910447761194,76.27118644067797,32.417910447761194C77.28813559322033,32.417910447761194,78.30508474576271,32.517412935323385,79.32203389830508,32.517412935323385C80.33898305084746,32.517412935323385,81.35593220338983,32.27197346600332,82.37288135593221,32.13930348258707C83.38983050847457,32.00663349917082,84.40677966101696,31.721393034825873,85.42372881355932,31.721393034825873C86.4406779661017,31.721393034825873,87.45762711864407,31.721393034825873,88.47457627118645,31.721393034825873C89.49152542372882,31.721393034825873,90.50847457627118,31.582089552238806,91.52542372881355,31.303482587064675C92.54237288135593,31.02487562189054,93.55932203389831,29.373134328358212,94.57627118644069,29.373134328358212C95.59322033898306,29.373134328358212,96.61016949152543,30.666666666666664,97.62711864406779,30.666666666666664C98.64406779661016,30.666666666666664,99.66101694915254,30.129353233830845,100.6779661016949,30.129353233830845C101.69491525423729,30.129353233830845,102.71186440677965,31.323383084577117,103.72881355932203,31.323383084577117C104.7457627118644,31.323383084577117,105.76271186440678,30.14262023217247,106.77966101694915,30.129353233830845C107.79661016949153,30.11608623548922,108.8135593220339,30.12271973466003,109.83050847457628,30.109452736318406C110.84745762711864,30.096185737976782,111.86440677966102,20.298507462686565,112.88135593220339,19.70149253731343C113.89830508474576,19.104477611940297,114.91525423728814,18.80597014925373,115.9322033898305,18.80597014925373C116.94915254237289,18.80597014925373,117.96610169491525,23.33996683250414,118.98305084745763,25.213930348258707C120,27.087893864013257,121.01694915254237,30.049751243781095,122.03389830508473,30.049751243781095C123.05084745762711,30.049751243781095,124.0677966101695,27.58540630182422,125.08474576271188,26.149253731343283C126.10169491525424,24.713101160862358,127.11864406779662,22.603648424543945,128.135593220339,21.43283582089552C129.15254237288136,20.2620232172471,130.16949152542372,19.12437810945274,131.1864406779661,19.12437810945274C132.20338983050846,19.12437810945274,133.22033898305085,19.383084577114428,134.23728813559322,19.383084577114428C135.25423728813558,19.383084577114428,136.27118644067798,16.666666666666664,137.28813559322035,15.422885572139302C138.3050847457627,14.179104477611938,139.3220338983051,11.920398009950247,140.33898305084747,11.920398009950247C141.35593220338984,11.920398009950247,142.3728813559322,13.771144278606965,143.38983050847457,13.771144278606965C144.40677966101694,13.771144278606965,145.42372881355934,7.940298507462686,146.4406779661017,7.940298507462686C147.45762711864407,7.940298507462686,148.47457627118644,14.109452736318406,149.4915254237288,14.109452736318406C150.50847457627117,14.109452736318406,151.52542372881356,10.925373134328357,152.54237288135593,10.925373134328357C153.5593220338983,10.925373134328357,154.5762711864407,11.615257048092868,155.59322033898306,12.159203980099505C156.61016949152543,12.703150912106137,157.6271186440678,14.189054726368159,158.64406779661016,14.189054726368159C159.66101694915253,14.189054726368159,160.67796610169492,8.55721393034826,161.6949152542373,8.55721393034826C162.71186440677965,8.55721393034826,163.72881355932205,9.890547263681594,164.74576271186442,9.890547263681594C165.76271186440678,9.890547263681594,166.77966101694915,8.995024875621889,167.79661016949152,8.995024875621889C168.81355932203388,8.995024875621889,169.83050847457628,18.925373134328357,170.84745762711864,18.925373134328357C171.864406779661,18.925373134328357,172.8813559322034,14.64676616915423,173.89830508474577,14.64676616915423C174.91525423728814,14.64676616915423,175.93220338983053,15.558872305140957,176.9491525423729,16.218905472636816C177.96610169491527,16.87893864013267,178.98305084745763,17.742951907131012,180,18.606965174129357L180,40C178.98305084745763,40,177.96610169491527,40,176.9491525423729,40C175.93220338983053,40,174.91525423728814,40,173.89830508474577,40C172.8813559322034,40,171.864406779661,40,170.84745762711864,40C169.83050847457628,40,168.81355932203388,40,167.79661016949152,40C166.77966101694915,40,165.76271186440678,40,164.74576271186442,40C163.72881355932205,40,162.71186440677965,40,161.6949152542373,40C160.67796610169492,40,159.66101694915253,40,158.64406779661016,40C157.6271186440678,40,156.61016949152543,40,155.59322033898306,40C154.5762711864407,40,153.5593220338983,40,152.54237288135593,40C151.52542372881356,40,150.50847457627117,40,149.4915254237288,40C148.47457627118644,40,147.45762711864407,40,146.4406779661017,40C145.42372881355934,40,144.40677966101694,40,143.38983050847457,40C142.3728813559322,40,141.35593220338984,40,140.33898305084747,40C139.3220338983051,40,138.3050847457627,40,137.28813559322035,40C136.27118644067798,40,135.25423728813558,40,134.23728813559322,40C133.22033898305085,40,132.20338983050846,40,131.1864406779661,40C130.16949152542372,40,129.15254237288136,40,128.135593220339,40C127.11864406779662,40,126.10169491525424,40,125.08474576271188,40C124.0677966101695,40,123.05084745762711,40,122.03389830508473,40C121.01694915254237,40,120,40,118.98305084745763,40C117.96610169491525,40,116.94915254237289,40,115.9322033898305,40C114.91525423728814,40,113.89830508474576,40,112.88135593220339,40C111.86440677966102,40,110.84745762711864,40,109.83050847457628,40C108.8135593220339,40,107.79661016949153,40,106.77966101694915,40C105.76271186440678,40,104.7457627118644,40,103.72881355932203,40C102.71186440677965,40,101.69491525423729,40,100.6779661016949,40C99.66101694915254,40,98.64406779661016,40,97.62711864406779,40C96.61016949152543,40,95.59322033898306,40,94.57627118644069,40C93.55932203389831,40,92.54237288135593,40,91.52542372881355,40C90.50847457627118,40,89.49152542372882,40,88.47457627118645,40C87.45762711864407,40,86.4406779661017,40,85.42372881355932,40C84.40677966101696,40,83.38983050847457,40,82.37288135593221,40C81.35593220338983,40,80.33898305084746,40,79.32203389830508,40C78.30508474576271,40,77.28813559322033,40,76.27118644067797,40C75.2542372881356,40,74.23728813559322,40,73.22033898305085,40C72.20338983050848,40,71.1864406779661,40,70.16949152542374,40C69.15254237288136,40,68.13559322033899,40,67.11864406779661,40C66.10169491525424,40,65.08474576271186,40,64.0677966101695,40C63.05084745762712,40,62.03389830508474,40,61.01694915254237,40C59.99999999999999,40,58.983050847457626,40,57.96610169491525,40C56.94915254237288,40,55.93220338983051,40,54.91525423728814,40C53.898305084745765,40,52.88135593220339,40,51.86440677966102,40C50.847457627118644,40,49.83050847457627,40,48.813559322033896,40C47.79661016949152,40,46.77966101694915,40,45.762711864406775,40C44.7457627118644,40,43.728813559322035,40,42.71186440677966,40C41.69491525423729,40,40.67796610169491,40,39.66101694915254,40C38.644067796610166,40,37.6271186440678,40,36.610169491525426,40C35.59322033898305,40,34.57627118644068,40,33.559322033898304,40C32.54237288135593,40,31.525423728813557,40,30.508474576271183,40C29.491525423728813,40,28.47457627118644,40,27.45762711864407,40C26.440677966101696,40,25.423728813559322,40,24.406779661016948,40C23.389830508474574,40,22.372881355932204,40,21.35593220338983,40C20.338983050847457,40,19.322033898305087,40,18.305084745762713,40C17.28813559322034,40,16.271186440677965,40,15.254237288135592,40C14.23728813559322,40,13.220338983050846,40,12.203389830508474,40C11.186440677966102,40,10.169491525423728,40,9.152542372881356,40C8.135593220338983,40,7.11864406779661,40,6.101694915254237,40C5.084745762711864,40,4.067796610169491,40,3.0508474576271185,40C2.0338983050847457,40,1.0169491525423728,40,0,40Z"></path><path class="line" stroke="black" fill="none" d="M0,38.12935323383085C1.0169491525423728,38.417910447761194,2.0338983050847457,38.70646766169154,3.0508474576271185,38.70646766169154C4.067796610169491,38.70646766169154,5.084745762711864,37.333333333333336,6.101694915254237,37.29353233830846C7.11864406779661,37.25373134328358,8.135593220338983,37.27363184079602,9.152542372881356,37.233830845771145C10.169491525423728,37.19402985074627,11.186440677966102,36.975124378109456,12.203389830508474,36.776119402985074C13.220338983050846,36.57711442786069,14.23728813559322,36.039800995024876,15.254237288135592,36.039800995024876C16.271186440677965,36.039800995024876,17.28813559322034,37.87064676616915,18.305084745762713,37.87064676616915C19.322033898305087,37.87064676616915,20.338983050847457,37.691542288557216,21.35593220338983,37.691542288557216C22.372881355932204,37.691542288557216,23.389830508474574,38.069651741293534,24.406779661016948,38.069651741293534C25.423728813559322,38.069651741293534,26.440677966101696,37.95688225538972,27.45762711864407,37.73134328358209C28.47457627118644,37.50580431177446,29.491525423728813,32.43781094527363,30.508474576271183,32.43781094527363C31.525423728813557,32.43781094527363,32.54237288135593,36.94859038142621,33.559322033898304,37.333333333333336C34.57627118644068,37.718076285240464,35.59322033898305,37.5257048092869,36.610169491525426,37.91044776119403C37.6271186440678,38.29519071310116,38.644067796610166,40,39.66101694915254,40C40.67796610169491,40,41.69491525423729,36.32504145936982,42.71186440677966,35.701492537313435C43.728813559322035,35.07794361525705,44.7457627118644,34.97844112769486,45.762711864406775,34.766169154228855C46.77966101694915,34.55389718076285,47.79661016949152,34.524046434494196,48.813559322033896,34.42786069651741C49.83050847457627,34.33167495854063,50.847457627118644,34.18905472636816,51.86440677966102,34.18905472636816C52.88135593220339,34.18905472636816,53.898305084745765,38.22885572139303,54.91525423728814,38.22885572139303C55.93220338983051,38.22885572139303,56.94915254237288,25.661691542288555,57.96610169491525,21.850746268656714C58.983050847457626,18.039800995024873,59.99999999999999,15.36318407960199,61.01694915254237,15.36318407960199C62.03389830508474,15.36318407960199,63.05084745762712,31.81426202321725,64.0677966101695,32.19900497512438C65.08474576271186,32.58374792703151,66.10169491525424,32.45107794361526,67.11864406779661,32.776119402985074C68.13559322033899,33.10116086235489,69.15254237288136,34.14925373134328,70.16949152542374,34.14925373134328C71.1864406779661,34.14925373134328,72.20338983050848,32.882255389718075,73.22033898305085,32.69651741293532C74.23728813559322,32.51077943615257,75.2542372881356,32.417910447761194,76.27118644067797,32.417910447761194C77.28813559322033,32.417910447761194,78.30508474576271,32.517412935323385,79.32203389830508,32.517412935323385C80.33898305084746,32.517412935323385,81.35593220338983,32.27197346600332,82.37288135593221,32.13930348258707C83.38983050847457,32.00663349917082,84.40677966101696,31.721393034825873,85.42372881355932,31.721393034825873C86.4406779661017,31.721393034825873,87.45762711864407,31.721393034825873,88.47457627118645,31.721393034825873C89.49152542372882,31.721393034825873,90.50847457627118,31.582089552238806,91.52542372881355,31.303482587064675C92.54237288135593,31.02487562189054,93.55932203389831,29.373134328358212,94.57627118644069,29.373134328358212C95.59322033898306,29.373134328358212,96.61016949152543,30.666666666666664,97.62711864406779,30.666666666666664C98.64406779661016,30.666666666666664,99.66101694915254,30.129353233830845,100.6779661016949,30.129353233830845C101.69491525423729,30.129353233830845,102.71186440677965,31.323383084577117,103.72881355932203,31.323383084577117C104.7457627118644,31.323383084577117,105.76271186440678,30.14262023217247,106.77966101694915,30.129353233830845C107.79661016949153,30.11608623548922,108.8135593220339,30.12271973466003,109.83050847457628,30.109452736318406C110.84745762711864,30.096185737976782,111.86440677966102,20.298507462686565,112.88135593220339,19.70149253731343C113.89830508474576,19.104477611940297,114.91525423728814,18.80597014925373,115.9322033898305,18.80597014925373C116.94915254237289,18.80597014925373,117.96610169491525,23.33996683250414,118.98305084745763,25.213930348258707C120,27.087893864013257,121.01694915254237,30.049751243781095,122.03389830508473,30.049751243781095C123.05084745762711,30.049751243781095,124.0677966101695,27.58540630182422,125.08474576271188,26.149253731343283C126.10169491525424,24.713101160862358,127.11864406779662,22.603648424543945,128.135593220339,21.43283582089552C129.15254237288136,20.2620232172471,130.16949152542372,19.12437810945274,131.1864406779661,19.12437810945274C132.20338983050846,19.12437810945274,133.22033898305085,19.383084577114428,134.23728813559322,19.383084577114428C135.25423728813558,19.383084577114428,136.27118644067798,16.666666666666664,137.28813559322035,15.422885572139302C138.3050847457627,14.179104477611938,139.3220338983051,11.920398009950247,140.33898305084747,11.920398009950247C141.35593220338984,11.920398009950247,142.3728813559322,13.771144278606965,143.38983050847457,13.771144278606965C144.40677966101694,13.771144278606965,145.42372881355934,7.940298507462686,146.4406779661017,7.940298507462686C147.45762711864407,7.940298507462686,148.47457627118644,14.109452736318406,149.4915254237288,14.109452736318406C150.50847457627117,14.109452736318406,151.52542372881356,10.925373134328357,152.54237288135593,10.925373134328357C153.5593220338983,10.925373134328357,154.5762711864407,11.615257048092868,155.59322033898306,12.159203980099505C156.61016949152543,12.703150912106137,157.6271186440678,14.189054726368159,158.64406779661016,14.189054726368159C159.66101694915253,14.189054726368159,160.67796610169492,8.55721393034826,161.6949152542373,8.55721393034826C162.71186440677965,8.55721393034826,163.72881355932205,9.890547263681594,164.74576271186442,9.890547263681594C165.76271186440678,9.890547263681594,166.77966101694915,8.995024875621889,167.79661016949152,8.995024875621889C168.81355932203388,8.995024875621889,169.83050847457628,18.925373134328357,170.84745762711864,18.925373134328357C171.864406779661,18.925373134328357,172.8813559322034,14.64676616915423,173.89830508474577,14.64676616915423C174.91525423728814,14.64676616915423,175.93220338983053,15.558872305140957,176.9491525423729,16.218905472636816C177.96610169491527,16.87893864013267,178.98305084745763,17.742951907131012,180,18.606965174129357"></path><path class="axis-ceiling" stroke-width="1" stroke="black" fill="none" d="M175,0L180,0"></path><text class="axis-ceiling-label" font-family="sans-serif" text-anchor="end" font-size="10px" x="170" y="2.5">2000</text></g></svg>