<svg xmlns="http://www.w3.org/2000/svg" viewBox="0 0 180 60"><g transform="translate(0,20)"><path class="area" fill="rgba(0, 0, 0, 0.2)" d="M0,26.639999999999997C1.0169491525423728,26.59111111111111,2.0338983050847457,26.54222222222222,3.0508474576271185,26.34666666666667C4.067796610169491,26.15111111111112,5.084745762711864,25.25333333333333,6.101694915254237,25.25333333333333C7.11864406779661,25.25333333333333,8.135593220338983,26.40444444444444,9.152542372881356,27.279999999999998C10.169491525423728,28.15555555555555,11.186440677966102,30.506666666666664,12.203389830508474,30.506666666666664C13.220338983050846,30.506666666666664,14.23728813559322,30.448888888888888,15.254237288135592,30.4C16.271186440677965,30.35111111111111,17.28813559322034,30.337777777777774,18.305084745762713,30.21333333333333C19.322033898305087,30.08888888888889,20.338983050847457,29.853333333333335,21.35593220338983,29.653333333333336C22.372881355932204,29.453333333333337,23.389830508474574,29.173333333333336,24.406779661016948,29.013333333333335C25.423728813559322,28.853333333333335,26.440677966101696,28.822222222222226,27.45762711864407,28.693333333333335C28.47457627118644,28.564444444444447,29.491525423728813,28.342222222222222,30.508474576271183,28.24C31.525423728813557,28.137777777777774,32.54237288135593,28.159999999999997,33.559322033898304,28.08C34.57627118644068,28,35.59322033898305,27.862222222222222,36.610169491525426,27.759999999999998C37.6271186440678,27.657777777777778,38.644067796610166,27.66222222222222,39.66101694915254,27.466666666666665C40.67796610169491,27.27111111111111,41.69491525423729,25.933333333333334,42.71186440677966,25.226666666666667C43.728813559322035,24.52,44.7457627118644,23.737777777777776,45.762711864406775,23.226666666666667C46.77966101694915,22.715555555555554,47.79661016949152,22.160000000000004,48.813559322033896,22.160000000000004C49.83050847457627,22.160000000000004,50.847457627118644,22.160000000000004,51.86440677966102,22.160000000000004C52.88135593220339,22.160000000000004,53.898305084745765,21.61777777777778,54.91525423728814,21.173333333333332C55.93220338983051,20.728888888888886,56.94915254237288,20.124444444444443,57.96610169491525,19.493333333333332C58.983050847457626,18.862222222222222,59.99999999999999,17.42222222222222,61.01694915254237,17.386666666666667C62.03389830508474,17.351111111111113,63.05084745762712,17.36888888888889,64.0677966101695,17.333333333333336C65.08474576271186,17.29777777777778,66.10169491525424,17.12,67.11864406779661,16.693333333333335C68.13559322033899,16.266666666666666,69.15254237288136,15.075555555555562,70.16949152542374,14.133333333333336C71.1864406779661,13.191111111111116,72.20338983050848,12.13777777777778,73.22033898305085,11.040000000000001C74.23728813559322,9.942222222222222,75.2542372881356,8.364444444444445,76.27118644067797,7.546666666666666C77.28813559322033,6.728888888888888,78.30508474576271,6.631111111111109,79.32203389830508,6.133333333333333C80.33898305084746,5.635555555555554,81.35593220338983,5.048888888888889,82.37288135593221,4.56C83.38983050847457,4.071111111111112,84.40677966101696,3.3599999999999977,85.42372881355932,3.1999999999999984C86.4406779661017,3.0399999999999983,87.45762711864407,3.1066666666666656,88.47457627118645,2.959999999999998C89.49152542372882,2.813333333333332,90.50847457627118,2.551111111111111,91.52542372881355,2.320000000000002C92.54237288135593,2.08888888888889,93.55932203389831,1.5733333333333333,94.57627118644069,1.5733333333333333C95.59322033898306,1.5733333333333333,96.61016949152543,1.635555555555556,97.62711864406779,1.7600000000000016C98.64406779661016,1.8844444444444477,99.66101694915254,2.417777777777779,100.6779661016949,2.6933333333333342C101.69491525423729,2.9688888888888907,102.71186440677965,3.1644444444444453,103.72881355932203,3.413333333333335C104.7457627118644,3.662222222222223,105.76271186440678,3.920000000000002,106.77966101694915,4.186666666666667C107.79661016949153,4.453333333333334,108.8135593220339,4.4622222222222225,109.83050847457628,5.013333333333332C110.84745762711864,5.5644444444444385,111.86440677966102,6.804444444444445,112.88135593220339,7.653333333333334C113.89830508474576,8.502222222222224,114.91525423728814,9.226666666666672,115.9322033898305,10.10666666666667C116.94915254237289,10.986666666666672,117.96610169491525,12.275555555555556,118.98305084745763,12.933333333333334C120,13.591111111111106,121.01694915254237,13.515555555555563,122.03389830508473,14.053333333333335C123.05084745762711,14.591111111111115,124.0677966101695,15.36444444444444,125.08474576271188,16.16C126.10169491525424,16.955555555555552,127.11864406779662,17.964444444444446,128.135593220339,18.826666666666668C129.15254237288136,19.688888888888886,130.16949152542372,20.746666666666666,131.1864406779661,21.333333333333332C132.20338983050846,21.92,133.22033898305085,22.062222222222218,134.23728813559322,22.346666666666664C135.25423728813558,22.63111111111111,136.27118644067798,22.813333333333336,137.28813559322035,23.040000000000003C138.3050847457627,23.26666666666667,139.3220338983051,23.262222222222224,140.33898305084747,23.706666666666667C141.35593220338984,24.151111111111106,142.3728813559322,25.95555555555556,143.38983050847457,26.293333333333333C144.40677966101694,26.63111111111111,145.42372881355934,26.68444444444444,146.4406779661017,26.799999999999997C147.45762711864407,26.915555555555553,148.47457627118644,26.98666666666667,149.4915254237288,26.98666666666667C150.50847457627117,26.98666666666667,151.52542372881356,25.973333333333333,152.54237288135593,25.973333333333333C153.5593220338983,25.973333333333333,154.5762711864407,27.04,155.59322033898306,27.04C156.61016949152543,27.04,157.6271186440678,27.04,158.64406779661016,27.04C159.66101694915253,27.04,160.67796610169492,27.413333333333334,161.6949152542373,27.413333333333334C162.71186440677965,27.413333333333334,163.72881355932205,25.06666666666667,164.74576271186442,24.53333333333333C165.76271186440678,23.999999999999996,166.77966101694915,23.73333333333333,167.79661016949152,23.73333333333333C168.81355932203388,23.73333333333333,169.83050847457628,24.266666666666666,170.84745762711864,24.666666666666668C171.864406779661,25.06666666666667,172.8813559322034,26.133333333333333,173.89830508474577,26.133333333333333C174.91525423728814,26.133333333333333,175.93220338983053,24.96,176.9491525423729,24.96C177.96610169491527,24.96,178.98305084745763,25.426666666666666,180,25.89333333333333L180,40C178.98305084745763,40,177.96610169491527,40,176.9491525423729,40C175.93220338983053,40,174.91525423728814,40,173.89830508474577,40C172.8813559322034,40,171.864406779661,40,170.84745762711864,40C169.83050847457628,40,168.81355932203388,40,167.79661016949152,40C166.77966101694915,40,165.76271186440678,40,164.74576271186442,40C163.72881355932205,40,162.71186440677965,40,161.6949152542373,40C160.67796610169492,40,159.66101694915253,40,158.64406779661016,40C157.6271186440678,40,156.61016949152543,40,155.59322033898306,40C154.5762711864407,40,153.5593220338983,40,152.54237288135593,40C151.52542372881356,40,150.50847457627117,40,149.4915254237288,40C148.47457627118644,40,147.45762711864407,40,146.4406779661017,40C145.42372881355934,40,144.40677966101694,40,143.38983050847457,40C142.3728813559322,40,141.35593220338984,40,140.33898305084747,40C139.3220338983051,40,138.3050847457627,40,137.28813559322035,40C136.27118644067798,40,135.25423728813558,40,134.23728813559322,40C133.22033898305085,40,132.20338983050846,40,131.1864406779661,40C130.16949152542372,40,129.15254237288136,40,128.135593220339,40C127.11864406779662,40,126.10169491525424,40,125.08474576271188,40C124.0677966101695,40,123.05084745762711,40,122.03389830508473,40C121.01694915254237,40,120,40,118.98305084745763,40C117.96610169491525,40,116.94915254237289,40,115.9322033898305,40C114.91525423728814,40,113.89830508474576,40,112.88135593220339,40C111.86440677966102,40,110.84745762711864,40,109.83050847457628,40C108.8135593220339,40,107.79661016949153,40,106.77966101694915,40C105.76271186440678,40,104.7457627118644,40,103.72881355932203,40C102.71186440677965,40,101.69491525423729,40,100.6779661016949,40C99.66101694915254,40,98.64406779661016,40,97.62711864406779,40C96.61016949152543,40,95.59322033898306,40,94.57627118644069,40C93.55932203389831,40,92.54237288135593,40,91.52542372881355,40C90.50847457627118,40,89.49152542372882,40,88.47457627118645,40C87.45762711864407,40,86.4406779661017,40,85.42372881355932,40C84.40677966101696,40,83.38983050847457,40,82.37288135593221,40C81.35593220338983,40,80.33898305084746,40,79.32203389830508,40C78.30508474576271,40,77.28813559322033,40,76.27118644067797,40C75.2542372881356,40,74.23728813559322,40,73.22033898305085,40C72.20338983050848,40,71.1864406779661,40,70.16949152542374,40C69.15254237288136,40,68.13559322033899,40,67.11864406779661,40C66.10169491525424,40,65.08474576271186,40,64.0677966101695,40C63.05084745762712,40,62.03389830508474,40,61.01694915254237,40C59.99999999999999,40,58.983050847457626,40,57.96610169491525,40C56.94915254237288,40,55.93220338983051,40,54.91525423728814,40C53.898305084745765,40,52.88135593220339,40,51.86440677966102,40C50.847457627118644,40,49.83050847457627,40,48.813559322033896,40C47.79661016949152,40,46.77966101694915,40,45.762711864406775,40C44.7457627118644,40,43.728813559322035,40,42.71186440677966,40C41.69491525423729,40,40.67796610169491,40,39.66101694915254,40C38.644067796610166,40,37.6271186440678,40,36.610169491525426,40C35.59322033898305,40,34.57627118644068,40,33.559322033898304,40C32.54237288135593,40,31.525423728813557,40,30.508474576271183,40C29.491525423728813,40,28.47457627118644,40,27.45762711864407,40C26.440677966101696,40,25.423728813559322,40,24.406779661016948,40C23.389830508474574,40,22.372881355932204,40,21.35593220338983,40C20.338983050847457,40,19.322033898305087,40,18.305084745762713,40C17.28813559322034,40,16.271186440677965,40,15.254237288135592,40C14.23728813559322,40,13.220338983050846,40,12.203389830508474,40C11.186440677966102,40,10.169491525423728,40,9.152542372881356,40C8.135593220338983,40,7.11864406779661,40,6.101694915254237,40C5.084745762711864,40,4.067796610169491,40,3.0508474576271185,40C2.0338983050847457,40,1.0169491525423728,40,0,40Z"></path><path class="line" stroke="black" fill="none" d="M0,26.639999999999997C1.0169491525423728,26.59111111111111,2.0338983050847457,26.54222222222222,3.0508474576271185,26.34666666666667C4.067796610169491,26.15111111111112,5.084745762711864,25.25333333333333,6.101694915254237,25.25333333333333C7.11864406779661,25.25333333333333,8.135593220338983,26.40444444444444,9.152542372881356,27.279999999999998C10.169491525423728,28.15555555555555,11.186440677966102,30.506666666666664,12.203389830508474,30.506666666666664C13.220338983050846,30.506666666666664,14.23728813559322,30.448888888888888,15.254237288135592,30.4C16.271186440677965,30.35111111111111,17.28813559322034,30.337777777777774,18.305084745762713,30.21333333333333C19.322033898305087,30.08888888888889,20.338983050847457,29.853333333333335,21.35593220338983,29.653333333333336C22.372881355932204,29.453333333333337,23.389830508474574,29.173333333333336,24.406779661016948,29.013333333333335C25.423728813559322,28.853333333333335,26.440677966101696,28.822222222222226,27.45762711864407,28.693333333333335C28.47457627118644,28.564444444444447,29.491525423728813,28.342222222222222,30.508474576271183,28.24C31.525423728813557,28.137777777777774,32.54237288135593,28.159999999999997,33.559322033898304,28.08C34.57627118644068,28,35.59322033898305,27.862222222222222,36.610169491525426,27.759999999999998C37.6271186440678,27.657777777777778,38.644067796610166,27.66222222222222,39.66101694915254,27.466666666666665C40.67796610169491,27.27111111111111,41.69491525423729,25.933333333333334,42.71186440677966,25.226666666666667C43.728813559322035,24.52,44.7457627118644,23.737777777777776,45.762711864406775,23.226666666666667C46.77966101694915,22.715555555555554,47.79661016949152,22.160000000000004,48.813559322033896,22.160000000000004C49.83050847457627,22.160000000000004,50.847457627118644,22.160000000000004,51.86440677966102,22.160000000000004C52.88135593220339,22.160000000000004,53.898305084745765,21.61777777777778,54.91525423728814,21.173333333333332C55.93220338983051,20.728888888888886,56.94915254237288,20.124444444444443,57.96610169491525,19.493333333333332C58.983050847457626,18.862222222222222,59.99999999999999,17.42222222222222,61.01694915254237,17.386666666666667C62.03389830508474,17.351111111111113,63.05084745762712,17.36888888888889,64.0677966101695,17.333333333333336C65.08474576271186,17.29777777777778,66.10169491525424,17.12,67.11864406779661,16.693333333333335C68.13559322033899,16.266666666666666,69.15254237288136,15.075555555555562,70.16949152542374,14.133333333333336C71.1864406779661,13.191111111111116,72.20338983050848,12.13777777777778,73.22033898305085,11.040000000000001C74.23728813559322,9.942222222222222,75.2542372881356,8.364444444444445,76.27118644067797,7.546666666666666C77.28813559322033,6.728888888888888,78.30508474576271,6.631111111111109,79.32203389830508,6.133333333333333C80.33898305084746,5.635555555555554,81.35593220338983,5.048888888888889,82.37288135593221,4.56C83.38983050847457,4.071111111111112,84.40677966101696,3.3599999999999977,85.42372881355932,3.1999999999999984C86.4406779661017,3.0399999999999983,87.45762711864407,3.1066666666666656,88.47457627118645,2.959999999999998C89.49152542372882,2.813333333333332,90.50847457627118,2.551111111111111,91.52542372881355,2.320000000000002C92.54237288135593,2.08888888888889,93.55932203389831,1.5733333333333333,94.57627118644069,1.5733333333333333C95.59322033898306,1.5733333333333333,96.61016949152543,1.635555555555556,97.62711864406779,1.7600000000000016C98.64406779661016,1.8844444444444477,99.66101694915254,2.417777777777779,100.6779661016949,2.6933333333333342C101.69491525423729,2.9688888888888907,102.71186440677965,3.1644444444444453,103.72881355932203,3.413333333333335C104.7457627118644,3.662222222222223,105.76271186440678,3.920000000000002,106.77966101694915,4.186666666666667C107.79661016949153,4.453333333333334,108.8135593220339,4.4622222222222225,109.83050847457628,5.013333333333332C110.84745762711864,5.5644444444444385,111.86440677966102,6.804444444444445,112.88135593220339,7.653333333333334C113.89830508474576,8.502222222222224,114.91525423728814,9.226666666666672,115.9322033898305,10.10666666666667C116.94915254237289,10.986666666666672,117.96610169491525,12.275555555555556,118.98305084745763,12.933333333333334C120,13.591111111111106,121.01694915254237,13.515555555555563,122.03389830508473,14.053333333333335C123.05084745762711,14.591111111111115,124.0677966101695,15.36444444444444,125.08474576271188,16.16C126.10169491525424,16.955555555555552,127.11864406779662,17.964444444444446,128.135593220339,18.826666666666668C129.15254237288136,19.688888888888886,130.16949152542372,20.746666666666666,131.1864406779661,21.333333333333332C132.20338983050846,21.92,133.22033898305085,22.062222222222218,134.23728813559322,22.346666666666664C135.25423728813558,22.63111111111111,136.27118644067798,22.813333333333336,137.28813559322035,23.040000000000003C138.3050847457627,23.26666666666667,139.3220338983051,23.262222222222224,140.33898305084747,23.706666666666667C141.35593220338984,24.151111111111106,142.3728813559322,25.95555555555556,143.38983050847457,26.293333333333333C144.40677966101694,26.63111111111111,145.42372881355934,26.68444444444444,146.4406779661017,26.799999999999997C147.45762711864407,26.915555555555553,148.47457627118644,26.98666666666667,149.4915254237288,26.98666666666667C150.50847457627117,26.98666666666667,151.52542372881356,25.973333333333333,152.54237288135593,25.973333333333333C153.5593220338983,25.973333333333333,154.5762711864407,27.04,155.59322033898306,27.04C156.61016949152543,27.04,157.6271186440678,27.04,158.64406779661016,27.04C159.66101694915253,27.04,160.67796610169492,27.413333333333334,161.6949152542373,27.413333333333334C162.71186440677965,27.413333333333334,163.72881355932205,25.06666666666667,164.74576271186442,24.53333333333333C165.76271186440678,23.999999999999996,166.77966101694915,23.73333333333333,167.79661016949152,23.73333333333333C168.81355932203388,23.73333333333333,169.83050847457628,24.266666666666666,170.84745762711864,24.666666666666668C171.864406779661,25.06666666666667,172.8813559322034,26.133333333333333,173.89830508474577,26.133333333333333C174.91525423728814,26.133333333333333,175.93220338983053,24.96,176.9491525423729,24.96C177.96610169491527,24.96,178.98305084745763,25.426666666666666,180,25.89333333333333"></path><path class="axis-ceiling" stroke-width="1" stroke="black" fill="none" d="M175,0L180,0"></path><text class="axis-ceiling-label" font-family="sans-serif" text-anchor="end" font-size="10px" x="170" y="2.5">1500</text></g></svg>