<svg xmlns="http://www.w3.org/2000/svg" viewBox="0 0 180 60"><g transform="translate(0,20)"><path class="area" fill="rgba(0, 0, 0, 0.2)" d="M0,19.8C0.425531914893617,19.8,0.8510638297872342,19.8,1.2765957446808511,19.8C2.127659574468085,19.8,2.978723404255319,19.416666666666668,3.829787234042553,19.3C4.680851063829787,19.183333333333334,5.531914893617022,19.211111111111112,6.382978723404256,19.1C6.808510638297872,19.044444444444448,7.23404255319149,18.961904761904766,7.659574468085106,18.900000000000002C10.212765957446807,18.528571428571432,12.76595744680851,18.53,15.319148936170212,18.3C17.02127659574468,18.14666666666667,18.72340425531915,18.133333333333333,20.425531914893618,17.799999999999997C20.851063829787233,17.716666666666665,21.27659574468085,17.583333333333332,21.702127659574465,17.5C23.404255319148934,17.166666666666668,25.106382978723403,17.24828282828283,26.80851063829787,17C31.48936170212766,16.317222222222224,36.170212765957444,13.765384615384624,40.851063829787236,13.100000000000001C41.702127659574465,12.97902097902098,42.5531914893617,12.900466200466198,43.40425531914893,12.799999999999997C48.08510638297872,12.247435897435887,52.76595744680851,11.81944444444444,57.4468085106383,11.099999999999998C57.87234042553192,11.034595959595958,58.297872340425535,10.953333333333331,58.72340425531915,10.899999999999999C60.851063829787236,10.633333333333331,62.97872340425532,10.661111111111106,65.1063829787234,10.499999999999998C65.53191489361701,10.467777777777776,65.95744680851064,10.4,66.38297872340425,10.4C67.23404255319149,10.4,68.08510638297872,10.4,68.93617021276596,10.4C71.91489361702128,10.4,74.8936170212766,10.28287037037037,77.87234042553192,10.2C81.70212765957447,10.09345238095238,85.53191489361701,9.8,89.36170212765957,9.8C90.2127659574468,9.8,91.06382978723403,9.8,91.91489361702126,9.8C97.44680851063829,9.8,102.9787234042553,9.500877192982458,108.51063829787233,9.3C111.06382978723404,9.207287449392712,113.61702127659575,9,116.17021276595746,9C116.59574468085107,9,117.0212765957447,9,117.4468085106383,9C117.87234042553192,9,118.29787234042553,9,118.72340425531914,9C120.85106382978722,9,122.97872340425532,8.966666666666667,125.1063829787234,8.900000000000002C125.95744680851064,8.873333333333337,126.80851063829788,8.799999999999999,127.65957446808511,8.799999999999999C128.08510638297872,8.799999999999999,128.51063829787236,8.799999999999999,128.93617021276597,8.799999999999999C129.36170212765958,8.799999999999999,129.7872340425532,8.799999999999999,130.2127659574468,8.799999999999999C131.06382978723403,8.799999999999999,131.91489361702128,8.799999999999999,132.7659574468085,8.799999999999999C133.1914893617021,8.799999999999999,133.61702127659575,8.799999999999999,134.04255319148936,8.799999999999999C134.46808510638297,8.799999999999999,134.8936170212766,8.799999999999999,135.31914893617022,8.799999999999999C135.74468085106383,8.799999999999999,136.17021276595744,8.799999999999999,136.59574468085106,8.799999999999999C138.29787234042553,8.799999999999999,140,8.799999999999999,141.70212765957447,8.799999999999999C142.5531914893617,8.799999999999999,143.40425531914894,8.700000000000001,144.25531914893617,8.700000000000001C144.68085106382978,8.700000000000001,145.1063829787234,8.700000000000001,145.531914893617,8.700000000000001C145.9574468085106,8.700000000000001,146.38297872340425,8.700000000000001,146.80851063829786,8.700000000000001C147.23404255319147,8.700000000000001,147.6595744680851,8.599999999999998,148.08510638297872,8.599999999999998C148.51063829787233,8.599999999999998,148.93617021276597,8.599999999999998,149.36170212765958,8.599999999999998C149.7872340425532,8.599999999999998,150.2127659574468,8.599999999999998,150.63829787234042,8.599999999999998C151.48936170212767,8.599999999999998,152.3404255319149,8.599999999999998,153.19148936170214,8.599999999999998C153.61702127659575,8.599999999999998,154.04255319148936,8.599999999999998,154.46808510638297,8.599999999999998C154.89361702127658,8.599999999999998,155.31914893617022,8.3,155.74468085106383,8.3C156.17021276595744,8.3,156.59574468085108,8.3,157.0212765957447,8.3C157.4468085106383,8.3,157.87234042553192,8.3,158.29787234042553,8.3C158.72340425531914,8.3,159.14893617021275,8.3,159.57446808510636,8.3C159.99999999999997,8.3,160.4255319148936,7.200000000000002,160.85106382978722,7.200000000000002C161.27659574468083,7.200000000000002,161.70212765957447,7.200000000000002,162.12765957446808,7.200000000000002C162.5531914893617,7.200000000000002,162.97872340425533,7.200000000000002,163.40425531914894,7.200000000000002C163.82978723404256,7.200000000000002,164.25531914893617,7.200000000000002,164.68085106382978,7.200000000000002C165.1063829787234,7.200000000000002,165.53191489361703,7.166666666666668,165.95744680851064,7.1C166.38297872340425,7.033333333333331,166.8085106382979,6.499999999999999,167.2340425531915,6.499999999999999C167.6595744680851,6.499999999999999,168.08510638297872,6.499999999999999,168.51063829787233,6.499999999999999C168.93617021276594,6.499999999999999,169.36170212765958,6.299999999999999,169.7872340425532,6.299999999999999C170.2127659574468,6.299999999999999,170.63829787234044,6.299999999999999,171.06382978723406,6.299999999999999C171.48936170212767,6.299999999999999,171.91489361702128,6.083333333333334,172.3404255319149,6.000000000000001C172.7659574468085,5.916666666666668,173.1914893617021,5.800000000000001,173.61702127659572,5.800000000000001C174.04255319148933,5.800000000000001,174.46808510638297,5.800000000000001,174.89361702127658,5.800000000000001C175.3191489361702,5.800000000000001,175.74468085106383,5.583333333333332,176.17021276595744,5.499999999999998C176.59574468085106,5.416666666666664,177.0212765957447,5.433333333333332,177.4468085106383,5.299999999999998C177.87234042553192,5.166666666666668,178.29787234042553,4.6,178.72340425531914,4.6C179.14893617021275,4.6,179.5744680851064,4.6,180,4.6L180,40C179.5744680851064,40,179.14893617021275,40,178.72340425531914,40C178.29787234042553,40,177.87234042553192,40,177.4468085106383,40C177.0212765957447,40,176.59574468085106,40,176.17021276595744,40C175.74468085106383,40,175.3191489361702,40,174.89361702127658,40C174.46808510638297,40,174.04255319148933,40,173.61702127659572,40C173.1914893617021,40,172.7659574468085,40,172.3404255319149,40C171.91489361702128,40,171.48936170212767,40,171.06382978723406,40C170.63829787234044,40,170.2127659574468,40,169.7872340425532,40C169.36170212765958,40,168.93617021276594,40,168.51063829787233,40C168.08510638297872,40,167.6595744680851,40,167.2340425531915,40C166.8085106382979,40,166.38297872340425,40,165.95744680851064,40C165.53191489361703,40,165.1063829787234,40,164.68085106382978,40C164.25531914893617,40,163.82978723404256,40,163.40425531914894,40C162.97872340425533,40,162.5531914893617,40,162.12765957446808,40C161.70212765957447,40,161.27659574468083,40,160.85106382978722,40C160.4255319148936,40,159.99999999999997,40,159.57446808510636,40C159.14893617021275,40,158.72340425531914,40,158.29787234042553,40C157.87234042553192,40,157.4468085106383,40,157.0212765957447,40C156.59574468085108,40,156.17021276595744,40,155.74468085106383,40C155.31914893617022,40,154.89361702127658,40,154.46808510638297,40C154.04255319148936,40,153.61702127659575,40,153.19148936170214,40C152.3404255319149,40,151.48936170212767,40,150.63829787234042,40C150.2127659574468,40,149.7872340425532,40,149.36170212765958,40C148.93617021276597,40,148.51063829787233,40,148.08510638297872,40C147.6595744680851,40,147.23404255319147,40,146.80851063829786,40C146.38297872340425,40,145.9574468085106,40,145.531914893617,40C145.1063829787234,40,144.68085106382978,40,144.25531914893617,40C143.40425531914894,40,142.5531914893617,40,141.70212765957447,40C140,40,138.29787234042553,40,136.59574468085106,40C136.17021276595744,40,135.74468085106383,40,135.31914893617022,40C134.8936170212766,40,134.46808510638297,40,134.04255319148936,40C133.61702127659575,40,133.1914893617021,40,132.7659574468085,40C131.91489361702128,40,131.06382978723403,40,130.2127659574468,40C129.7872340425532,40,129.36170212765958,40,128.93617021276597,40C128.51063829787236,40,128.08510638297872,40,127.65957446808511,40C126.80851063829788,40,125.95744680851064,40,125.1063829787234,40C122.97872340425532,40,120.85106382978722,40,118.72340425531914,40C118.29787234042553,40,117.87234042553192,40,117.4468085106383,40C117.0212765957447,40,116.59574468085107,40,116.17021276595746,40C113.61702127659575,40,111.06382978723404,40,108.51063829787233,40C102.9787234042553,40,97.44680851063829,40,91.91489361702126,40C91.06382978723403,40,90.2127659574468,40,89.36170212765957,40C85.53191489361701,40,81.70212765957447,40,77.87234042553192,40C74.8936170212766,40,71.91489361702128,40,68.93617021276596,40C68.08510638297872,40,67.23404255319149,40,66.38297872340425,40C65.95744680851064,40,65.53191489361701,40,65.1063829787234,40C62.97872340425532,40,60.851063829787236,40,58.72340425531915,40C58.297872340425535,40,57.87234042553192,40,57.4468085106383,40C52.76595744680851,40,48.08510638297872,40,43.40425531914893,40C42.5531914893617,40,41.702127659574465,40,40.851063829787236,40C36.170212765957444,40,31.48936170212766,40,26.80851063829787,40C25.106382978723403,40,23.404255319148934,40,21.702127659574465,40C21.27659574468085,40,20.851063829787233,40,20.425531914893618,40C18.72340425531915,40,17.02127659574468,40,15.319148936170212,40C12.76595744680851,40,10.212765957446807,40,7.659574468085106,40C7.23404255319149,40,6.808510638297872,40,6.382978723404256,40C5.531914893617022,40,4.680851063829787,40,3.829787234042553,40C2.978723404255319,40,2.127659574468085,40,1.2765957446808511,40C0.8510638297872342,40,0.425531914893617,40,0,40Z"></path><path class="line" stroke="black" fill="none" d="M0,19.8C0.425531914893617,19.8,0.8510638297872342,19.8,1.2765957446808511,19.8C2.127659574468085,19.8,2.978723404255319,19.416666666666668,3.829787234042553,19.3C4.680851063829787,19.183333333333334,5.531914893617022,19.211111111111112,6.382978723404256,19.1C6.808510638297872,19.044444444444448,7.23404255319149,18.961904761904766,7.659574468085106,18.900000000000002C10.212765957446807,18.528571428571432,12.76595744680851,18.53,15.319148936170212,18.3C17.02127659574468,18.14666666666667,18.72340425531915,18.133333333333333,20.425531914893618,17.799999999999997C20.851063829787233,17.716666666666665,21.27659574468085,17.583333333333332,21.702127659574465,17.5C23.404255319148934,17.166666666666668,25.106382978723403,17.24828282828283,26.80851063829787,17C31.48936170212766,16.317222222222224,36.170212765957444,13.765384615384624,40.851063829787236,13.100000000000001C41.702127659574465,12.97902097902098,42.5531914893617,12.900466200466198,43.40425531914893,12.799999999999997C48.08510638297872,12.247435897435887,52.76595744680851,11.81944444444444,57.4468085106383,11.099999999999998C57.87234042553192,11.034595959595958,58.297872340425535,10.953333333333331,58.72340425531915,10.899999999999999C60.851063829787236,10.633333333333331,62.97872340425532,10.661111111111106,65.1063829787234,10.499999999999998C65.53191489361701,10.467777777777776,65.95744680851064,10.4,66.38297872340425,10.4C67.23404255319149,10.4,68.08510638297872,10.4,68.93617021276596,10.4C71.91489361702128,10.4,74.8936170212766,10.28287037037037,77.87234042553192,10.2C81.70212765957447,10.09345238095238,85.53191489361701,9.8,89.36170212765957,9.8C90.2127659574468,9.8,91.06382978723403,9.8,91.91489361702126,9.8C97.44680851063829,9.8,102.9787234042553,9.500877192982458,108.51063829787233,9.3C111.06382978723404,9.207287449392712,113.61702127659575,9,116.17021276595746,9C116.59574468085107,9,117.0212765957447,9,117.4468085106383,9C117.87234042553192,9,118.29787234042553,9,118.72340425531914,9C120.85106382978722,9,122.97872340425532,8.966666666666667,125.1063829787234,8.900000000000002C125.95744680851064,8.873333333333337,126.80851063829788,8.799999999999999,127.65957446808511,8.799999999999999C128.08510638297872,8.799999999999999,128.51063829787236,8.799999999999999,128.93617021276597,8.799999999999999C129.36170212765958,8.799999999999999,129.7872340425532,8.799999999999999,130.2127659574468,8.799999999999999C131.06382978723403,8.799999999999999,131.91489361702128,8.799999999999999,132.7659574468085,8.799999999999999C133.1914893617021,8.799999999999999,133.61702127659575,8.799999999999999,134.04255319148936,8.799999999999999C134.46808510638297,8.799999999999999,134.8936170212766,8.799999999999999,135.31914893617022,8.799999999999999C135.74468085106383,8.799999999999999,136.17021276595744,8.799999999999999,136.59574468085106,8.799999999999999C138.29787234042553,8.799999999999999,140,8.799999999999999,141.70212765957447,8.799999999999999C142.5531914893617,8.799999999999999,143.40425531914894,8.700000000000001,144.25531914893617,8.700000000000001C144.68085106382978,8.700000000000001,145.1063829787234,8.700000000000001,145.531914893617,8.700000000000001C145.9574468085106,8.700000000000001,146.38297872340425,8.700000000000001,146.80851063829786,8.700000000000001C147.23404255319147,8.700000000000001,147.6595744680851,8.599999999999998,148.08510638297872,8.599999999999998C148.51063829787233,8.599999999999998,148.93617021276597,8.599999999999998,149.36170212765958,8.599999999999998C149.7872340425532,8.599999999999998,150.2127659574468,8.599999999999998,150.63829787234042,8.599999999999998C151.48936170212767,8.599999999999998,152.3404255319149,8.599999999999998,153.19148936170214,8.599999999999998C153.61702127659575,8.599999999999998,154.04255319148936,8.599999999999998,154.46808510638297,8.599999999999998C154.89361702127658,8.599999999999998,155.31914893617022,8.3,155.74468085106383,8.3C156.17021276595744,8.3,156.59574468085108,8.3,157.0212765957447,8.3C157.4468085106383,8.3,157.87234042553192,8.3,158.29787234042553,8.3C158.72340425531914,8.3,159.14893617021275,8.3,159.57446808510636,8.3C159.99999999999997,8.3,160.4255319148936,7.200000000000002,160.85106382978722,7.200000000000002C161.27659574468083,7.200000000000002,161.70212765957447,7.200000000000002,162.12765957446808,7.200000000000002C162.5531914893617,7.200000000000002,162.97872340425533,7.200000000000002,163.40425531914894,7.200000000000002C163.82978723404256,7.200000000000002,164.25531914893617,7.200000000000002,164.68085106382978,7.200000000000002C165.1063829787234,7.200000000000002,165.53191489361703,7.166666666666668,165.95744680851064,7.1C166.38297872340425,7.033333333333331,166.8085106382979,6.499999999999999,167.2340425531915,6.499999999999999C167.6595744680851,6.499999999999999,168.08510638297872,6.499999999999999,168.51063829787233,6.499999999999999C168.93617021276594,6.499999999999999,169.36170212765958,6.299999999999999,169.7872340425532,6.299999999999999C170.2127659574468,6.299999999999999,170.63829787234044,6.299999999999999,171.06382978723406,6.299999999999999C171.48936170212767,6.299999999999999,171.91489361702128,6.083333333333334,172.3404255319149,6.000000000000001C172.7659574468085,5.916666666666668,173.1914893617021,5.800000000000001,173.61702127659572,5.800000000000001C174.04255319148933,5.800000000000001,174.46808510638297,5.800000000000001,174.89361702127658,5.800000000000001C175.3191489361702,5.800000000000001,175.74468085106383,5.583333333333332,176.17021276595744,5.499999999999998C176.59574468085106,5.416666666666664,177.0212765957447,5.433333333333332,177.4468085106383,5.299999999999998C177.87234042553192,5.166666666666668,178.29787234042553,4.6,178.72340425531914,4.6C179.14893617021275,4.6,179.5744680851064,4.6,180,4.6"></path><path class="axis-ceiling" stroke-width="1" stroke="black" fill="none" d="M175,0L180,0"></path><text class="axis-ceiling-label" font-family="sans-serif" text-anchor="end" font-size="10px" x="170" y="2.5">400</text></g></svg>