<svg xmlns="http://www.w3.org/2000/svg" viewBox="0 0 180 60"><g transform="translate(0,20)"><path class="area" fill="rgba(0, 0, 0, 0.2)" d="M0,36.8896C1.0169491525423728,36.85913333333333,2.0338983050847457,36.82866666666667,3.0508474576271185,36.7912C4.067796610169491,36.75373333333334,5.084745762711864,36.7064,6.101694915254237,36.6648C7.11864406779661,36.6232,8.135593220338983,36.580933333333334,9.152542372881356,36.5416C10.169491525423728,36.50226666666667,11.186440677966102,36.46426666666666,12.203389830508474,36.428799999999995C13.220338983050846,36.39333333333333,14.23728813559322,36.364,15.254237288135592,36.3288C16.271186440677965,36.293600000000005,17.28813559322034,36.25786666666667,18.305084745762713,36.217600000000004C19.322033898305087,36.17733333333334,20.338983050847457,36.13386666666666,21.35593220338983,36.087199999999996C22.372881355932204,36.04053333333333,23.389830508474574,35.985733333333336,24.406779661016948,35.9376C25.423728813559322,35.88946666666667,26.440677966101696,35.844,27.45762711864407,35.7984C28.47457627118644,35.7528,29.491525423728813,35.724133333333334,30.508474576271183,35.664C31.525423728813557,35.60386666666667,32.54237288135593,35.53666666666666,33.559322033898304,35.437599999999996C34.57627118644068,35.33853333333333,35.59322033898305,35.19573333333334,36.610169491525426,35.0696C37.6271186440678,34.943466666666666,38.644067796610166,34.81213333333333,39.66101694915254,34.6808C40.67796610169491,34.54946666666666,41.69491525423729,34.41493333333333,42.71186440677966,34.2816C43.728813559322035,34.148266666666665,44.7457627118644,34.016,45.762711864406775,33.8808C46.77966101694915,33.7456,47.79661016949152,33.61253333333333,48.813559322033896,33.4704C49.83050847457627,33.328266666666664,50.847457627118644,33.16546666666667,51.86440677966102,33.028C52.88135593220339,32.89053333333333,53.898305084745765,32.756933333333336,54.91525423728814,32.6456C55.93220338983051,32.53426666666667,56.94915254237288,32.4556,57.96610169491525,32.36C58.983050847457626,32.2644,59.99999999999999,32.169066666666666,61.01694915254237,32.072C62.03389830508474,31.974933333333336,63.05084745762712,31.8784,64.0677966101695,31.7776C65.08474576271186,31.6768,66.10169491525424,31.573866666666667,67.11864406779661,31.467200000000002C68.13559322033899,31.360533333333336,69.15254237288136,31.2492,70.16949152542374,31.1376C71.1864406779661,31.026,72.20338983050848,30.913200000000003,73.22033898305085,30.797600000000003C74.23728813559322,30.682000000000002,75.2542372881356,30.562533333333334,76.27118644067797,30.444C77.28813559322033,30.325466666666664,78.30508474576271,30.20733333333333,79.32203389830508,30.086399999999998C80.33898305084746,29.965466666666664,81.35593220338983,29.8424,82.37288135593221,29.718400000000003C83.38983050847457,29.594400000000004,84.40677966101696,29.47893333333333,85.42372881355932,29.342399999999998C86.4406779661017,29.205866666666665,87.45762711864407,29.057066666666667,88.47457627118645,28.8992C89.49152542372882,28.741333333333337,90.50847457627118,28.5684,91.52542372881355,28.395200000000003C92.54237288135593,28.222,93.55932203389831,28.038533333333334,94.57627118644069,27.86C95.59322033898306,27.68146666666667,96.61016949152543,27.50746666666667,97.62711864406779,27.324C98.64406779661016,27.140533333333334,99.66101694915254,26.956,100.6779661016949,26.7592C101.69491525423729,26.5624,102.71186440677965,26.358933333333333,103.72881355932203,26.1432C104.7457627118644,25.927466666666668,105.76271186440678,25.691199999999995,106.77966101694915,25.464799999999997C107.79661016949153,25.2384,108.8135593220339,25.01466666666667,109.83050847457628,24.784800000000004C110.84745762711864,24.554933333333338,111.86440677966102,24.331466666666667,112.88135593220339,24.0856C113.89830508474576,23.83973333333333,114.91525423728814,23.58386666666667,115.9322033898305,23.309600000000003C116.94915254237289,23.035333333333337,117.96610169491525,22.747333333333334,118.98305084745763,22.439999999999998C120,22.132666666666665,121.01694915254237,21.79733333333333,122.03389830508473,21.465600000000002C123.05084745762711,21.133866666666666,124.0677966101695,20.796133333333337,125.08474576271188,20.4496C126.10169491525424,20.103066666666667,127.11864406779662,19.747733333333333,128.135593220339,19.3864C129.15254237288136,19.025066666666667,130.16949152542372,18.651066666666665,131.1864406779661,18.2816C132.20338983050846,17.912133333333333,133.22033898305085,17.543333333333333,134.23728813559322,17.1696C135.25423728813558,16.795866666666665,136.27118644067798,16.419866666666667,137.28813559322035,16.0392C138.3050847457627,15.658533333333335,139.3220338983051,15.269066666666669,140.33898305084747,14.8856C141.35593220338984,14.502133333333335,142.3728813559322,14.116266666666665,143.38983050847457,13.738399999999999C144.40677966101694,13.36053333333333,145.42372881355934,12.988133333333332,146.4406779661017,12.618399999999998C147.45762711864407,12.248666666666667,148.47457627118644,11.882133333333332,149.4915254237288,11.520000000000001C150.50847457627117,11.157866666666667,151.52542372881356,10.799600000000002,152.54237288135593,10.445600000000002C153.5593220338983,10.091600000000003,154.5762711864407,9.732666666666669,155.59322033898306,9.396C156.61016949152543,9.059333333333337,157.6271186440678,8.736933333333335,158.64406779661016,8.425600000000003C159.66101694915253,8.114266666666667,160.67796610169492,7.813066666666669,161.6949152542373,7.528000000000001C162.71186440677965,7.242933333333334,163.72881355932205,6.980533333333336,164.74576271186442,6.715200000000001C165.76271186440678,6.449866666666669,166.77966101694915,6.185066666666665,167.79661016949152,5.935999999999999C168.81355932203388,5.6869333333333305,169.83050847457628,5.4458666666666655,170.84745762711864,5.220799999999999C171.864406779661,4.995733333333332,172.8813559322034,4.784799999999999,173.89830508474577,4.585599999999999C174.91525423728814,4.386399999999998,175.93220338983053,4.207333333333332,176.9491525423729,4.025599999999998C177.96610169491527,3.843866666666666,178.98305084745763,3.6695333333333333,180,3.4952000000000005L180,40C178.98305084745763,40,177.96610169491527,40,176.9491525423729,40C175.93220338983053,40,174.91525423728814,40,173.89830508474577,40C172.8813559322034,40,171.864406779661,40,170.84745762711864,40C169.83050847457628,40,168.81355932203388,40,167.79661016949152,40C166.77966101694915,40,165.76271186440678,40,164.74576271186442,40C163.72881355932205,40,162.71186440677965,40,161.6949152542373,40C160.67796610169492,40,159.66101694915253,40,158.64406779661016,40C157.6271186440678,40,156.61016949152543,40,155.59322033898306,40C154.5762711864407,40,153.5593220338983,40,152.54237288135593,40C151.52542372881356,40,150.50847457627117,40,149.4915254237288,40C148.47457627118644,40,147.45762711864407,40,146.4406779661017,40C145.42372881355934,40,144.40677966101694,40,143.38983050847457,40C142.3728813559322,40,141.35593220338984,40,140.33898305084747,40C139.3220338983051,40,138.3050847457627,40,137.28813559322035,40C136.27118644067798,40,135.25423728813558,40,134.23728813559322,40C133.22033898305085,40,132.20338983050846,40,131.1864406779661,40C130.16949152542372,40,129.15254237288136,40,128.135593220339,40C127.11864406779662,40,126.10169491525424,40,125.08474576271188,40C124.0677966101695,40,123.05084745762711,40,122.03389830508473,40C121.01694915254237,40,120,40,118.98305084745763,40C117.96610169491525,40,116.94915254237289,40,115.9322033898305,40C114.91525423728814,40,113.89830508474576,40,112.88135593220339,40C111.86440677966102,40,110.84745762711864,40,109.83050847457628,40C108.8135593220339,40,107.79661016949153,40,106.77966101694915,40C105.76271186440678,40,104.7457627118644,40,103.72881355932203,40C102.71186440677965,40,101.69491525423729,40,100.6779661016949,40C99.66101694915254,40,98.64406779661016,40,97.62711864406779,40C96.61016949152543,40,95.59322033898306,40,94.57627118644069,40C93.55932203389831,40,92.54237288135593,40,91.52542372881355,40C90.50847457627118,40,89.49152542372882,40,88.47457627118645,40C87.45762711864407,40,86.4406779661017,40,85.42372881355932,40C84.40677966101696,40,83.38983050847457,40,82.37288135593221,40C81.35593220338983,40,80.33898305084746,40,79.32203389830508,40C78.30508474576271,40,77.28813559322033,40,76.27118644067797,40C75.2542372881356,40,74.23728813559322,40,73.22033898305085,40C72.20338983050848,40,71.1864406779661,40,70.16949152542374,40C69.15254237288136,40,68.13559322033899,40,67.11864406779661,40C66.10169491525424,40,65.08474576271186,40,64.0677966101695,40C63.05084745762712,40,62.03389830508474,40,61.01694915254237,40C59.99999999999999,40,58.983050847457626,40,57.96610169491525,40C56.94915254237288,40,55.93220338983051,40,54.91525423728814,40C53.898305084745765,40,52.88135593220339,40,51.86440677966102,40C50.847457627118644,40,49.83050847457627,40,48.813559322033896,40C47.79661016949152,40,46.77966101694915,40,45.762711864406775,40C44.7457627118644,40,43.728813559322035,40,42.71186440677966,40C41.69491525423729,40,40.67796610169491,40,39.66101694915254,40C38.644067796610166,40,37.6271186440678,40,36.610169491525426,40C35.59322033898305,40,34.57627118644068,40,33.559322033898304,40C32.54237288135593,40,31.525423728813557,40,30.508474576271183,40C29.491525423728813,40,28.47457627118644,40,27.45762711864407,40C26.440677966101696,40,25.423728813559322,40,24.406779661016948,40C23.389830508474574,40,22.372881355932204,40,21.35593220338983,40C20.338983050847457,40,19.322033898305087,40,18.305084745762713,40C17.28813559322034,40,16.271186440677965,40,15.254237288135592,40C14.23728813559322,40,13.220338983050846,40,12.203389830508474,40C11.186440677966102,40,10.169491525423728,40,9.152542372881356,40C8.135593220338983,40,7.11864406779661,40,6.101694915254237,40C5.084745762711864,40,4.067796610169491,40,3.0508474576271185,40C2.0338983050847457,40,1.0169491525423728,40,0,40Z"></path><path class="line" stroke="black" fill="none" d="M0,36.8896C1.0169491525423728,36.85913333333333,2.0338983050847457,36.82866666666667,3.0508474576271185,36.7912C4.067796610169491,36.75373333333334,5.084745762711864,36.7064,6.101694915254237,36.6648C7.11864406779661,36.6232,8.135593220338983,36.580933333333334,9.152542372881356,36.5416C10.169491525423728,36.50226666666667,11.186440677966102,36.46426666666666,12.203389830508474,36.428799999999995C13.220338983050846,36.39333333333333,14.23728813559322,36.364,15.254237288135592,36.3288C16.271186440677965,36.293600000000005,17.28813559322034,36.25786666666667,18.305084745762713,36.217600000000004C19.322033898305087,36.17733333333334,20.338983050847457,36.13386666666666,21.35593220338983,36.087199999999996C22.372881355932204,36.04053333333333,23.389830508474574,35.985733333333336,24.406779661016948,35.9376C25.423728813559322,35.88946666666667,26.440677966101696,35.844,27.45762711864407,35.7984C28.47457627118644,35.7528,29.491525423728813,35.724133333333334,30.508474576271183,35.664C31.525423728813557,35.60386666666667,32.54237288135593,35.53666666666666,33.559322033898304,35.437599999999996C34.57627118644068,35.33853333333333,35.59322033898305,35.19573333333334,36.610169491525426,35.0696C37.6271186440678,34.943466666666666,38.644067796610166,34.81213333333333,39.66101694915254,34.6808C40.67796610169491,34.54946666666666,41.69491525423729,34.41493333333333,42.71186440677966,34.2816C43.728813559322035,34.148266666666665,44.7457627118644,34.016,45.762711864406775,33.8808C46.77966101694915,33.7456,47.79661016949152,33.61253333333333,48.813559322033896,33.4704C49.83050847457627,33.328266666666664,50.847457627118644,33.16546666666667,51.86440677966102,33.028C52.88135593220339,32.89053333333333,53.898305084745765,32.756933333333336,54.91525423728814,32.6456C55.93220338983051,32.53426666666667,56.94915254237288,32.4556,57.96610169491525,32.36C58.983050847457626,32.2644,59.99999999999999,32.169066666666666,61.01694915254237,32.072C62.03389830508474,31.974933333333336,63.05084745762712,31.8784,64.0677966101695,31.7776C65.08474576271186,31.6768,66.10169491525424,31.573866666666667,67.11864406779661,31.467200000000002C68.13559322033899,31.360533333333336,69.15254237288136,31.2492,70.16949152542374,31.1376C71.1864406779661,31.026,72.20338983050848,30.913200000000003,73.22033898305085,30.797600000000003C74.23728813559322,30.682000000000002,75.2542372881356,30.562533333333334,76.27118644067797,30.444C77.28813559322033,30.325466666666664,78.30508474576271,30.20733333333333,79.32203389830508,30.086399999999998C80.33898305084746,29.965466666666664,81.35593220338983,29.8424,82.37288135593221,29.718400000000003C83.38983050847457,29.594400000000004,84.40677966101696,29.47893333333333,85.42372881355932,29.342399999999998C86.4406779661017,29.205866666666665,87.45762711864407,29.057066666666667,88.47457627118645,28.8992C89.49152542372882,28.741333333333337,90.50847457627118,28.5684,91.52542372881355,28.395200000000003C92.54237288135593,28.222,93.55932203389831,28.038533333333334,94.57627118644069,27.86C95.59322033898306,27.68146666666667,96.61016949152543,27.50746666666667,97.62711864406779,27.324C98.64406779661016,27.140533333333334,99.66101694915254,26.956,100.6779661016949,26.7592C101.69491525423729,26.5624,102.71186440677965,26.358933333333333,103.72881355932203,26.1432C104.7457627118644,25.927466666666668,105.76271186440678,25.691199999999995,106.77966101694915,25.464799999999997C107.79661016949153,25.2384,108.8135593220339,25.01466666666667,109.83050847457628,24.784800000000004C110.84745762711864,24.554933333333338,111.86440677966102,24.331466666666667,112.88135593220339,24.0856C113.89830508474576,23.83973333333333,114.91525423728814,23.58386666666667,115.9322033898305,23.309600000000003C116.94915254237289,23.035333333333337,117.96610169491525,22.747333333333334,118.98305084745763,22.439999999999998C120,22.132666666666665,121.01694915254237,21.79733333333333,122.03389830508473,21.465600000000002C123.05084745762711,21.133866666666666,124.0677966101695,20.796133333333337,125.08474576271188,20.4496C126.10169491525424,20.103066666666667,127.11864406779662,19.747733333333333,128.135593220339,19.3864C129.15254237288136,19.025066666666667,130.16949152542372,18.651066666666665,131.1864406779661,18.2816C132.20338983050846,17.912133333333333,133.22033898305085,17.543333333333333,134.23728813559322,17.1696C135.25423728813558,16.795866666666665,136.27118644067798,16.419866666666667,137.28813559322035,16.0392C138.3050847457627,15.658533333333335,139.3220338983051,15.269066666666669,140.33898305084747,14.8856C141.35593220338984,14.502133333333335,142.3728813559322,14.116266666666665,143.38983050847457,13.738399999999999C144.40677966101694,13.36053333333333,145.42372881355934,12.988133333333332,146.4406779661017,12.618399999999998C147.45762711864407,12.248666666666667,148.47457627118644,11.882133333333332,149.4915254237288,11.520000000000001C150.50847457627117,11.157866666666667,151.52542372881356,10.799600000000002,152.54237288135593,10.445600000000002C153.5593220338983,10.091600000000003,154.5762711864407,9.732666666666669,155.59322033898306,9.396C156.61016949152543,9.059333333333337,157.6271186440678,8.736933333333335,158.64406779661016,8.425600000000003C159.66101694915253,8.114266666666667,160.67796610169492,7.813066666666669,161.6949152542373,7.528000000000001C162.71186440677965,7.242933333333334,163.72881355932205,6.980533333333336,164.74576271186442,6.715200000000001C165.76271186440678,6.449866666666669,166.77966101694915,6.185066666666665,167.79661016949152,5.935999999999999C168.81355932203388,5.6869333333333305,169.83050847457628,5.4458666666666655,170.84745762711864,5.220799999999999C171.864406779661,4.995733333333332,172.8813559322034,4.784799999999999,173.89830508474577,4.585599999999999C174.91525423728814,4.386399999999998,175.93220338983053,4.207333333333332,176.9491525423729,4.025599999999998C177.96610169491527,3.843866666666666,178.98305084745763,3.6695333333333333,180,3.4952000000000005"></path><path class="axis-ceiling" stroke-width="1" stroke="black" fill="none" d="M175,0L180,0"></path><text class="axis-ceiling-label" font-family="sans-serif" text-anchor="end" font-size="10px" x="170" y="2.5">50000</text></g></svg>