<svg xmlns="http://www.w3.org/2000/svg" viewBox="0 0 180 60"><g transform="translate(0,20)"><path class="area" fill="rgba(0, 0, 0, 0.2)" d="M0,26.309199999999997C1.0169491525423728,26.12513333333333,2.0338983050847457,25.941066666666668,3.0508474576271185,25.76C4.067796610169491,25.578933333333335,5.084745762711864,25.399800000000003,6.101694915254237,25.222800000000003C7.11864406779661,25.045800000000003,8.135593220338983,24.866333333333333,9.152542372881356,24.698C10.169491525423728,24.529666666666667,11.186440677966102,24.368466666666666,12.203389830508474,24.2128C13.220338983050846,24.057133333333336,14.23728813559322,23.906533333333336,15.254237288135592,23.764000000000003C16.271186440677965,23.62146666666667,17.28813559322034,23.490266666666667,18.305084745762713,23.3576C19.322033898305087,23.224933333333336,20.338983050847457,23.092533333333336,21.35593220338983,22.968000000000004C22.372881355932204,22.84346666666667,23.389830508474574,22.722933333333334,24.406779661016948,22.6104C25.423728813559322,22.497866666666663,26.440677966101696,22.3924,27.45762711864407,22.2928C28.47457627118644,22.1932,29.491525423728813,22.103666666666665,30.508474576271183,22.0128C31.525423728813557,21.92193333333333,32.54237288135593,21.8342,33.559322033898304,21.7476C34.57627118644068,21.660999999999998,35.59322033898305,21.5764,36.610169491525426,21.493199999999998C37.6271186440678,21.409999999999997,38.644067796610166,21.32353333333333,39.66101694915254,21.248399999999997C40.67796610169491,21.173266666666663,41.69491525423729,21.109733333333335,42.71186440677966,21.0424C43.728813559322035,20.975066666666667,44.7457627118644,20.909933333333335,45.762711864406775,20.8444C46.77966101694915,20.778866666666666,47.79661016949152,20.716866666666668,48.813559322033896,20.6492C49.83050847457627,20.581533333333333,50.847457627118644,20.506,51.86440677966102,20.4384C52.88135593220339,20.370800000000003,53.898305084745765,20.308466666666664,54.91525423728814,20.243599999999997C55.93220338983051,20.17873333333333,56.94915254237288,20.113133333333334,57.96610169491525,20.049200000000003C58.983050847457626,19.98526666666667,59.99999999999999,19.930200000000003,61.01694915254237,19.860000000000003C62.03389830508474,19.789800000000003,63.05084745762712,19.7074,64.0677966101695,19.628C65.08474576271186,19.5486,66.10169491525424,19.462666666666664,67.11864406779661,19.383599999999998C68.13559322033899,19.30453333333333,69.15254237288136,19.226666666666667,70.16949152542374,19.1536C71.1864406779661,19.080533333333335,72.20338983050848,19.017533333333333,73.22033898305085,18.9452C74.23728813559322,18.872866666666667,75.2542372881356,18.79253333333333,76.27118644067797,18.7196C77.28813559322033,18.64666666666667,78.30508474576271,18.577133333333336,79.32203389830508,18.507600000000004C80.33898305084746,18.43806666666667,81.35593220338983,18.369333333333334,82.37288135593221,18.3024C83.38983050847457,18.235466666666664,84.40677966101696,18.165933333333335,85.42372881355932,18.106C86.4406779661017,18.04606666666667,87.45762711864407,18.000133333333338,88.47457627118645,17.942800000000002C89.49152542372882,17.88546666666667,90.50847457627118,17.820199999999996,91.52542372881355,17.761999999999997C92.54237288135593,17.703799999999998,93.55932203389831,17.651266666666668,94.57627118644069,17.593600000000002C95.59322033898306,17.535933333333336,96.61016949152543,17.47886666666667,97.62711864406779,17.416C98.64406779661016,17.353133333333332,99.66101694915254,17.284466666666667,100.6779661016949,17.2164C101.69491525423729,17.148333333333333,102.71186440677965,17.094466666666662,103.72881355932203,17.007599999999996C104.7457627118644,16.92073333333333,105.76271186440678,16.804599999999997,106.77966101694915,16.6952C107.79661016949153,16.5858,108.8135593220339,16.467266666666667,109.83050847457628,16.351200000000002C110.84745762711864,16.235133333333337,111.86440677966102,16.118933333333338,112.88135593220339,15.998800000000003C113.89830508474576,15.87866666666667,114.91525423728814,15.754,115.9322033898305,15.6304C116.94915254237289,15.506799999999998,117.96610169491525,15.385066666666669,118.98305084745763,15.257200000000001C120,15.129333333333335,121.01694915254237,14.999133333333333,122.03389830508473,14.8632C123.05084745762711,14.727266666666667,124.0677966101695,14.567666666666668,125.08474576271188,14.441600000000001C126.10169491525424,14.315533333333335,127.11864406779662,14.222400000000002,128.135593220339,14.106800000000002C129.15254237288136,13.991200000000001,130.16949152542372,13.872933333333334,131.1864406779661,13.748000000000001C132.20338983050846,13.623066666666666,133.22033898305085,13.492133333333333,134.23728813559322,13.357199999999999C135.25423728813558,13.222266666666664,136.27118644067798,13.098399999999998,137.28813559322035,12.938399999999998C138.3050847457627,12.778399999999998,139.3220338983051,12.593266666666668,140.33898305084747,12.397200000000002C141.35593220338984,12.201133333333336,142.3728813559322,11.988333333333333,143.38983050847457,11.762C144.40677966101694,11.535666666666666,145.42372881355934,11.291600000000003,146.4406779661017,11.039200000000001C147.45762711864407,10.786800000000003,148.47457627118644,10.514600000000002,149.4915254237288,10.247600000000002C150.50847457627117,9.9806,151.52542372881356,9.713799999999999,152.54237288135593,9.437199999999999C153.5593220338983,9.160599999999999,154.5762711864407,8.88526666666667,155.59322033898306,8.588000000000001C156.61016949152543,8.290733333333336,157.6271186440678,7.960666666666664,158.64406779661016,7.653599999999998C159.66101694915253,7.34653333333333,160.67796610169492,7.045933333333333,161.6949152542373,6.7456000000000005C162.71186440677965,6.445266666666668,163.72881355932205,6.139466666666669,164.74576271186442,5.851600000000001C165.76271186440678,5.563733333333336,166.77966101694915,5.300933333333333,167.79661016949152,5.018400000000001C168.81355932203388,4.735866666666666,169.83050847457628,4.461733333333331,170.84745762711864,4.156399999999998C171.864406779661,3.851066666666664,172.8813559322034,3.5275999999999974,173.89830508474577,3.186399999999998C174.91525423728814,2.845199999999999,175.93220338983053,2.482800000000004,176.9491525423729,2.109200000000002C177.96610169491527,1.7356000000000038,178.98305084745763,1.3402000000000014,180,0.944799999999999L180,40C178.98305084745763,40,177.96610169491527,40,176.9491525423729,40C175.93220338983053,40,174.91525423728814,40,173.89830508474577,40C172.8813559322034,40,171.864406779661,40,170.84745762711864,40C169.83050847457628,40,168.81355932203388,40,167.79661016949152,40C166.77966101694915,40,165.76271186440678,40,164.74576271186442,40C163.72881355932205,40,162.71186440677965,40,161.6949152542373,40C160.67796610169492,40,159.66101694915253,40,158.64406779661016,40C157.6271186440678,40,156.61016949152543,40,155.59322033898306,40C154.5762711864407,40,153.5593220338983,40,152.54237288135593,40C151.52542372881356,40,150.50847457627117,40,149.4915254237288,40C148.47457627118644,40,147.45762711864407,40,146.4406779661017,40C145.42372881355934,40,144.40677966101694,40,143.38983050847457,40C142.3728813559322,40,141.35593220338984,40,140.33898305084747,40C139.3220338983051,40,138.3050847457627,40,137.28813559322035,40C136.27118644067798,40,135.25423728813558,40,134.23728813559322,40C133.22033898305085,40,132.20338983050846,40,131.1864406779661,40C130.16949152542372,40,129.15254237288136,40,128.135593220339,40C127.11864406779662,40,126.10169491525424,40,125.08474576271188,40C124.0677966101695,40,123.05084745762711,40,122.03389830508473,40C121.01694915254237,40,120,40,118.98305084745763,40C117.96610169491525,40,116.94915254237289,40,115.9322033898305,40C114.91525423728814,40,113.89830508474576,40,112.88135593220339,40C111.86440677966102,40,110.84745762711864,40,109.83050847457628,40C108.8135593220339,40,107.79661016949153,40,106.77966101694915,40C105.76271186440678,40,104.7457627118644,40,103.72881355932203,40C102.71186440677965,40,101.69491525423729,40,100.6779661016949,40C99.66101694915254,40,98.64406779661016,40,97.62711864406779,40C96.61016949152543,40,95.59322033898306,40,94.57627118644069,40C93.55932203389831,40,92.54237288135593,40,91.52542372881355,40C90.50847457627118,40,89.49152542372882,40,88.47457627118645,40C87.45762711864407,40,86.4406779661017,40,85.42372881355932,40C84.40677966101696,40,83.38983050847457,40,82.37288135593221,40C81.35593220338983,40,80.33898305084746,40,79.32203389830508,40C78.30508474576271,40,77.28813559322033,40,76.27118644067797,40C75.2542372881356,40,74.23728813559322,40,73.22033898305085,40C72.20338983050848,40,71.1864406779661,40,70.16949152542374,40C69.15254237288136,40,68.13559322033899,40,67.11864406779661,40C66.10169491525424,40,65.08474576271186,40,64.0677966101695,40C63.05084745762712,40,62.03389830508474,40,61.01694915254237,40C59.99999999999999,40,58.983050847457626,40,57.96610169491525,40C56.94915254237288,40,55.93220338983051,40,54.91525423728814,40C53.898305084745765,40,52.88135593220339,40,51.86440677966102,40C50.847457627118644,40,49.83050847457627,40,48.813559322033896,40C47.79661016949152,40,46.77966101694915,40,45.762711864406775,40C44.7457627118644,40,43.728813559322035,40,42.71186440677966,40C41.69491525423729,40,40.67796610169491,40,39.66101694915254,40C38.644067796610166,40,37.6271186440678,40,36.610169491525426,40C35.59322033898305,40,34.57627118644068,40,33.559322033898304,40C32.54237288135593,40,31.525423728813557,40,30.508474576271183,40C29.491525423728813,40,28.47457627118644,40,27.45762711864407,40C26.440677966101696,40,25.423728813559322,40,24.406779661016948,40C23.389830508474574,40,22.372881355932204,40,21.35593220338983,40C20.338983050847457,40,19.322033898305087,40,18.305084745762713,40C17.28813559322034,40,16.271186440677965,40,15.254237288135592,40C14.23728813559322,40,13.220338983050846,40,12.203389830508474,40C11.186440677966102,40,10.169491525423728,40,9.152542372881356,40C8.135593220338983,40,7.11864406779661,40,6.101694915254237,40C5.084745762711864,40,4.067796610169491,40,3.0508474576271185,40C2.0338983050847457,40,1.0169491525423728,40,0,40Z"></path><path class="line" stroke="black" fill="none" d="M0,26.309199999999997C1.0169491525423728,26.12513333333333,2.0338983050847457,25.941066666666668,3.0508474576271185,25.76C4.067796610169491,25.578933333333335,5.084745762711864,25.399800000000003,6.101694915254237,25.222800000000003C7.11864406779661,25.045800000000003,8.135593220338983,24.866333333333333,9.152542372881356,24.698C10.169491525423728,24.529666666666667,11.186440677966102,24.368466666666666,12.203389830508474,24.2128C13.220338983050846,24.057133333333336,14.23728813559322,23.906533333333336,15.254237288135592,23.764000000000003C16.271186440677965,23.62146666666667,17.28813559322034,23.490266666666667,18.305084745762713,23.3576C19.322033898305087,23.224933333333336,20.338983050847457,23.092533333333336,21.35593220338983,22.968000000000004C22.372881355932204,22.84346666666667,23.389830508474574,22.722933333333334,24.406779661016948,22.6104C25.423728813559322,22.497866666666663,26.440677966101696,22.3924,27.45762711864407,22.2928C28.47457627118644,22.1932,29.491525423728813,22.103666666666665,30.508474576271183,22.0128C31.525423728813557,21.92193333333333,32.54237288135593,21.8342,33.559322033898304,21.7476C34.57627118644068,21.660999999999998,35.59322033898305,21.5764,36.610169491525426,21.493199999999998C37.6271186440678,21.409999999999997,38.644067796610166,21.32353333333333,39.66101694915254,21.248399999999997C40.67796610169491,21.173266666666663,41.69491525423729,21.109733333333335,42.71186440677966,21.0424C43.728813559322035,20.975066666666667,44.7457627118644,20.909933333333335,45.762711864406775,20.8444C46.77966101694915,20.778866666666666,47.79661016949152,20.716866666666668,48.813559322033896,20.6492C49.83050847457627,20.581533333333333,50.847457627118644,20.506,51.86440677966102,20.4384C52.88135593220339,20.370800000000003,53.898305084745765,20.308466666666664,54.91525423728814,20.243599999999997C55.93220338983051,20.17873333333333,56.94915254237288,20.113133333333334,57.96610169491525,20.049200000000003C58.983050847457626,19.98526666666667,59.99999999999999,19.930200000000003,61.01694915254237,19.860000000000003C62.03389830508474,19.789800000000003,63.05084745762712,19.7074,64.0677966101695,19.628C65.08474576271186,19.5486,66.10169491525424,19.462666666666664,67.11864406779661,19.383599999999998C68.13559322033899,19.30453333333333,69.15254237288136,19.226666666666667,70.16949152542374,19.1536C71.1864406779661,19.080533333333335,72.20338983050848,19.017533333333333,73.22033898305085,18.9452C74.23728813559322,18.872866666666667,75.2542372881356,18.79253333333333,76.27118644067797,18.7196C77.28813559322033,18.64666666666667,78.30508474576271,18.577133333333336,79.32203389830508,18.507600000000004C80.33898305084746,18.43806666666667,81.35593220338983,18.369333333333334,82.37288135593221,18.3024C83.38983050847457,18.235466666666664,84.40677966101696,18.165933333333335,85.42372881355932,18.106C86.4406779661017,18.04606666666667,87.45762711864407,18.000133333333338,88.47457627118645,17.942800000000002C89.49152542372882,17.88546666666667,90.50847457627118,17.820199999999996,91.52542372881355,17.761999999999997C92.54237288135593,17.703799999999998,93.55932203389831,17.651266666666668,94.57627118644069,17.593600000000002C95.59322033898306,17.535933333333336,96.61016949152543,17.47886666666667,97.62711864406779,17.416C98.64406779661016,17.353133333333332,99.66101694915254,17.284466666666667,100.6779661016949,17.2164C101.69491525423729,17.148333333333333,102.71186440677965,17.094466666666662,103.72881355932203,17.007599999999996C104.7457627118644,16.92073333333333,105.76271186440678,16.804599999999997,106.77966101694915,16.6952C107.79661016949153,16.5858,108.8135593220339,16.467266666666667,109.83050847457628,16.351200000000002C110.84745762711864,16.235133333333337,111.86440677966102,16.118933333333338,112.88135593220339,15.998800000000003C113.89830508474576,15.87866666666667,114.91525423728814,15.754,115.9322033898305,15.6304C116.94915254237289,15.506799999999998,117.96610169491525,15.385066666666669,118.98305084745763,15.257200000000001C120,15.129333333333335,121.01694915254237,14.999133333333333,122.03389830508473,14.8632C123.05084745762711,14.727266666666667,124.0677966101695,14.567666666666668,125.08474576271188,14.441600000000001C126.10169491525424,14.315533333333335,127.11864406779662,14.222400000000002,128.135593220339,14.106800000000002C129.15254237288136,13.991200000000001,130.16949152542372,13.872933333333334,131.1864406779661,13.748000000000001C132.20338983050846,13.623066666666666,133.22033898305085,13.492133333333333,134.23728813559322,13.357199999999999C135.25423728813558,13.222266666666664,136.27118644067798,13.098399999999998,137.28813559322035,12.938399999999998C138.3050847457627,12.778399999999998,139.3220338983051,12.593266666666668,140.33898305084747,12.397200000000002C141.35593220338984,12.201133333333336,142.3728813559322,11.988333333333333,143.38983050847457,11.762C144.40677966101694,11.535666666666666,145.42372881355934,11.291600000000003,146.4406779661017,11.039200000000001C147.45762711864407,10.786800000000003,148.47457627118644,10.514600000000002,149.4915254237288,10.247600000000002C150.50847457627117,9.9806,151.52542372881356,9.713799999999999,152.54237288135593,9.437199999999999C153.5593220338983,9.160599999999999,154.5762711864407,8.88526666666667,155.59322033898306,8.588000000000001C156.61016949152543,8.290733333333336,157.6271186440678,7.960666666666664,158.64406779661016,7.653599999999998C159.66101694915253,7.34653333333333,160.67796610169492,7.045933333333333,161.6949152542373,6.7456000000000005C162.71186440677965,6.445266666666668,163.72881355932205,6.139466666666669,164.74576271186442,5.851600000000001C165.76271186440678,5.563733333333336,166.77966101694915,5.300933333333333,167.79661016949152,5.018400000000001C168.81355932203388,4.735866666666666,169.83050847457628,4.461733333333331,170.84745762711864,4.156399999999998C171.864406779661,3.851066666666664,172.8813559322034,3.5275999999999974,173.89830508474577,3.186399999999998C174.91525423728814,2.845199999999999,175.93220338983053,2.482800000000004,176.9491525423729,2.109200000000002C177.96610169491527,1.7356000000000038,178.98305084745763,1.3402000000000014,180,0.944799999999999"></path><path class="axis-ceiling" stroke-width="1" stroke="black" fill="none" d="M175,0L180,0"></path><text class="axis-ceiling-label" font-family="sans-serif" text-anchor="end" font-size="10px" x="170" y="2.5">100000</text></g></svg>