<svg xmlns="http://www.w3.org/2000/svg" viewBox="0 0 180 60"><g transform="translate(0,20)"><path class="area" fill="rgba(0, 0, 0, 0.2)" d="M0,28.624000000000002C0.967741935483871,28.502666666666666,1.935483870967742,28.38133333333333,2.903225806451613,28.08C3.870967741935484,27.778666666666666,4.838709677419355,26.88,5.806451612903226,26.816C6.774193548387097,26.752,7.741935483870967,26.754666666666665,8.709677419354838,26.72C9.67741935483871,26.685333333333332,10.64516129032258,26.674666666666667,11.612903225806452,26.608C12.580645161290322,26.541333333333334,13.548387096774194,26.40533333333333,14.516129032258064,26.319999999999997C15.483870967741934,26.234666666666662,16.451612903225804,26.157333333333334,17.419354838709676,26.096C18.387096774193548,26.034666666666666,19.354838709677416,25.992,20.32258064516129,25.952C21.29032258064516,25.912000000000003,22.258064516129032,25.88,23.225806451612904,25.855999999999998C24.193548387096776,25.831999999999997,25.161290322580648,25.82133333333333,26.12903225806452,25.808C27.096774193548388,25.794666666666668,28.06451612903226,25.797333333333334,29.032258064516128,25.776C30,25.754666666666665,30.967741935483872,25.663999999999998,31.935483870967744,25.663999999999998C32.903225806451616,25.663999999999998,33.87096774193548,25.663999999999998,34.83870967741935,25.663999999999998C35.806451612903224,25.663999999999998,36.774193548387096,25.663999999999998,37.74193548387097,25.663999999999998C38.70967741935484,25.663999999999998,39.677419354838705,25.663999999999998,40.64516129032258,25.663999999999998C41.61290322580645,25.663999999999998,42.58064516129032,25.663999999999998,43.54838709677419,25.663999999999998C44.516129032258064,25.663999999999998,45.483870967741936,25.456000000000003,46.45161290322581,25.456000000000003C47.41935483870968,25.456000000000003,48.387096774193544,25.456000000000003,49.354838709677416,25.456000000000003C50.32258064516129,25.456000000000003,51.29032258064517,25.456000000000003,52.25806451612904,25.456000000000003C53.22580645161291,25.456000000000003,54.193548387096776,25.456000000000003,55.16129032258065,25.456000000000003C56.12903225806452,25.456000000000003,57.096774193548384,25.002666666666666,58.064516129032256,24.848C59.03225806451613,24.69333333333333,59.99999999999999,24.656,60.967741935483865,24.528C61.93548387096774,24.4,62.903225806451616,24.255999999999997,63.87096774193549,24.08C64.83870967741936,23.904,65.80645161290323,23.608,66.7741935483871,23.472C67.74193548387098,23.336000000000002,68.70967741935483,23.40266666666667,69.6774193548387,23.264C70.64516129032258,23.12533333333333,71.61290322580645,22.65866666666666,72.58064516129032,22.447999999999997C73.54838709677419,22.237333333333332,74.51612903225806,22.138666666666666,75.48387096774194,22C76.45161290322581,21.861333333333334,77.41935483870968,21.733333333333334,78.38709677419355,21.616C79.35483870967742,21.498666666666665,80.32258064516128,21.461333333333332,81.29032258064515,21.296C82.25806451612902,21.130666666666666,83.2258064516129,20.802666666666667,84.19354838709677,20.624000000000002C85.16129032258064,20.445333333333338,86.12903225806451,20.309333333333342,87.09677419354838,20.224000000000004C88.06451612903226,20.138666666666666,89.03225806451613,20.181333333333335,90,20.095999999999997C90.96774193548387,20.01066666666666,91.93548387096774,19.344,92.90322580645162,19.152C93.87096774193549,18.96,94.83870967741935,18.944,95.80645161290322,18.864C96.77419354838709,18.784,97.74193548387096,18.770666666666667,98.70967741935483,18.672C99.6774193548387,18.573333333333334,100.64516129032259,18.37333333333333,101.61290322580646,18.272C102.58064516129033,18.170666666666666,103.5483870967742,18.154666666666667,104.51612903225808,18.064C105.48387096774195,17.973333333333333,106.45161290322581,17.792000000000005,107.41935483870968,17.728C108.38709677419355,17.663999999999998,109.35483870967742,17.696,110.3225806451613,17.631999999999998C111.29032258064517,17.567999999999994,112.25806451612902,17.256,113.2258064516129,17.12C114.19354838709677,16.984,115.16129032258064,16.904,116.12903225806451,16.816C117.09677419354838,16.727999999999998,118.06451612903226,16.709333333333333,119.03225806451613,16.592C120,16.474666666666668,120.96774193548386,16.333333333333332,121.93548387096773,16.112000000000002C122.9032258064516,15.890666666666668,123.87096774193549,15.506666666666671,124.83870967741936,15.264000000000003C125.80645161290323,15.021333333333336,126.7741935483871,14.847999999999999,127.74193548387098,14.655999999999999C128.70967741935485,14.463999999999999,129.67741935483872,14.261333333333333,130.6451612903226,14.112C131.61290322580646,13.962666666666667,132.58064516129033,13.853333333333332,133.5483870967742,13.759999999999998C134.51612903225808,13.666666666666666,135.48387096774192,13.663999999999998,136.4516129032258,13.552C137.41935483870967,13.44,138.38709677419354,13.242666666666668,139.3548387096774,13.088000000000001C140.32258064516128,12.933333333333334,141.29032258064515,12.831999999999999,142.25806451612902,12.623999999999999C143.2258064516129,12.415999999999999,144.19354838709677,12.016000000000002,145.16129032258064,11.840000000000002C146.1290322580645,11.664000000000001,147.09677419354838,11.680000000000001,148.06451612903226,11.568000000000001C149.03225806451613,11.456000000000001,150,11.28,150.96774193548387,11.168C151.93548387096774,11.056,152.90322580645162,11.013333333333332,153.8709677419355,10.895999999999999C154.83870967741936,10.778666666666666,155.80645161290323,10.584000000000003,156.7741935483871,10.464000000000002C157.74193548387098,10.344000000000001,158.70967741935485,10.368,159.67741935483872,10.175999999999998C160.6451612903226,9.983999999999998,161.61290322580643,9.424266666666664,162.5806451612903,9.072C166.4516129032258,7.662933333333322,170.32258064516128,6.394666666666667,174.19354838709677,5.6000000000000005C175.16129032258064,5.4013333333333335,176.1290322580645,5.336,177.09677419354838,5.072000000000001C178.06451612903226,4.808000000000002,179.03225806451613,4.412000000000002,180,4.016000000000002L180,40C179.03225806451613,40,178.06451612903226,40,177.09677419354838,40C176.1290322580645,40,175.16129032258064,40,174.19354838709677,40C170.32258064516128,40,166.4516129032258,40,162.5806451612903,40C161.61290322580643,40,160.6451612903226,40,159.67741935483872,40C158.70967741935485,40,157.74193548387098,40,156.7741935483871,40C155.80645161290323,40,154.83870967741936,40,153.8709677419355,40C152.90322580645162,40,151.93548387096774,40,150.96774193548387,40C150,40,149.03225806451613,40,148.06451612903226,40C147.09677419354838,40,146.1290322580645,40,145.16129032258064,40C144.19354838709677,40,143.2258064516129,40,142.25806451612902,40C141.29032258064515,40,140.32258064516128,40,139.3548387096774,40C138.38709677419354,40,137.41935483870967,40,136.4516129032258,40C135.48387096774192,40,134.51612903225808,40,133.5483870967742,40C132.58064516129033,40,131.61290322580646,40,130.6451612903226,40C129.67741935483872,40,128.70967741935485,40,127.74193548387098,40C126.7741935483871,40,125.80645161290323,40,124.83870967741936,40C123.87096774193549,40,122.9032258064516,40,121.93548387096773,40C120.96774193548386,40,120,40,119.03225806451613,40C118.06451612903226,40,117.09677419354838,40,116.12903225806451,40C115.16129032258064,40,114.19354838709677,40,113.2258064516129,40C112.25806451612902,40,111.29032258064517,40,110.3225806451613,40C109.35483870967742,40,108.38709677419355,40,107.41935483870968,40C106.45161290322581,40,105.48387096774195,40,104.51612903225808,40C103.5483870967742,40,102.58064516129033,40,101.61290322580646,40C100.64516129032259,40,99.6774193548387,40,98.70967741935483,40C97.74193548387096,40,96.77419354838709,40,95.80645161290322,40C94.83870967741935,40,93.87096774193549,40,92.90322580645162,40C91.93548387096774,40,90.96774193548387,40,90,40C89.03225806451613,40,88.06451612903226,40,87.09677419354838,40C86.12903225806451,40,85.16129032258064,40,84.19354838709677,40C83.2258064516129,40,82.25806451612902,40,81.29032258064515,40C80.32258064516128,40,79.35483870967742,40,78.38709677419355,40C77.41935483870968,40,76.45161290322581,40,75.48387096774194,40C74.51612903225806,40,73.54838709677419,40,72.58064516129032,40C71.61290322580645,40,70.64516129032258,40,69.6774193548387,40C68.70967741935483,40,67.74193548387098,40,66.7741935483871,40C65.80645161290323,40,64.83870967741936,40,63.87096774193549,40C62.903225806451616,40,61.93548387096774,40,60.967741935483865,40C59.99999999999999,40,59.03225806451613,40,58.064516129032256,40C57.096774193548384,40,56.12903225806452,40,55.16129032258065,40C54.193548387096776,40,53.22580645161291,40,52.25806451612904,40C51.29032258064517,40,50.32258064516129,40,49.354838709677416,40C48.387096774193544,40,47.41935483870968,40,46.45161290322581,40C45.483870967741936,40,44.516129032258064,40,43.54838709677419,40C42.58064516129032,40,41.61290322580645,40,40.64516129032258,40C39.677419354838705,40,38.70967741935484,40,37.74193548387097,40C36.774193548387096,40,35.806451612903224,40,34.83870967741935,40C33.87096774193548,40,32.903225806451616,40,31.935483870967744,40C30.967741935483872,40,30,40,29.032258064516128,40C28.06451612903226,40,27.096774193548388,40,26.12903225806452,40C25.161290322580648,40,24.193548387096776,40,23.225806451612904,40C22.258064516129032,40,21.29032258064516,40,20.32258064516129,40C19.354838709677416,40,18.387096774193548,40,17.419354838709676,40C16.451612903225804,40,15.483870967741934,40,14.516129032258064,40C13.548387096774194,40,12.580645161290322,40,11.612903225806452,40C10.64516129032258,40,9.67741935483871,40,8.709677419354838,40C7.741935483870967,40,6.774193548387097,40,5.806451612903226,40C4.838709677419355,40,3.870967741935484,40,2.903225806451613,40C1.935483870967742,40,0.967741935483871,40,0,40Z"></path><path class="line" stroke="black" fill="none" d="M0,28.624000000000002C0.967741935483871,28.502666666666666,1.935483870967742,28.38133333333333,2.903225806451613,28.08C3.870967741935484,27.778666666666666,4.838709677419355,26.88,5.806451612903226,26.816C6.774193548387097,26.752,7.741935483870967,26.754666666666665,8.709677419354838,26.72C9.67741935483871,26.685333333333332,10.64516129032258,26.674666666666667,11.612903225806452,26.608C12.580645161290322,26.541333333333334,13.548387096774194,26.40533333333333,14.516129032258064,26.319999999999997C15.483870967741934,26.234666666666662,16.451612903225804,26.157333333333334,17.419354838709676,26.096C18.387096774193548,26.034666666666666,19.354838709677416,25.992,20.32258064516129,25.952C21.29032258064516,25.912000000000003,22.258064516129032,25.88,23.225806451612904,25.855999999999998C24.193548387096776,25.831999999999997,25.161290322580648,25.82133333333333,26.12903225806452,25.808C27.096774193548388,25.794666666666668,28.06451612903226,25.797333333333334,29.032258064516128,25.776C30,25.754666666666665,30.967741935483872,25.663999999999998,31.935483870967744,25.663999999999998C32.903225806451616,25.663999999999998,33.87096774193548,25.663999999999998,34.83870967741935,25.663999999999998C35.806451612903224,25.663999999999998,36.774193548387096,25.663999999999998,37.74193548387097,25.663999999999998C38.70967741935484,25.663999999999998,39.677419354838705,25.663999999999998,40.64516129032258,25.663999999999998C41.61290322580645,25.663999999999998,42.58064516129032,25.663999999999998,43.54838709677419,25.663999999999998C44.516129032258064,25.663999999999998,45.483870967741936,25.456000000000003,46.45161290322581,25.456000000000003C47.41935483870968,25.456000000000003,48.387096774193544,25.456000000000003,49.354838709677416,25.456000000000003C50.32258064516129,25.456000000000003,51.29032258064517,25.456000000000003,52.25806451612904,25.456000000000003C53.22580645161291,25.456000000000003,54.193548387096776,25.456000000000003,55.16129032258065,25.456000000000003C56.12903225806452,25.456000000000003,57.096774193548384,25.002666666666666,58.064516129032256,24.848C59.03225806451613,24.69333333333333,59.99999999999999,24.656,60.967741935483865,24.528C61.93548387096774,24.4,62.903225806451616,24.255999999999997,63.87096774193549,24.08C64.83870967741936,23.904,65.80645161290323,23.608,66.7741935483871,23.472C67.74193548387098,23.336000000000002,68.70967741935483,23.40266666666667,69.6774193548387,23.264C70.64516129032258,23.12533333333333,71.61290322580645,22.65866666666666,72.58064516129032,22.447999999999997C73.54838709677419,22.237333333333332,74.51612903225806,22.138666666666666,75.48387096774194,22C76.45161290322581,21.861333333333334,77.41935483870968,21.733333333333334,78.38709677419355,21.616C79.35483870967742,21.498666666666665,80.32258064516128,21.461333333333332,81.29032258064515,21.296C82.25806451612902,21.130666666666666,83.2258064516129,20.802666666666667,84.19354838709677,20.624000000000002C85.16129032258064,20.445333333333338,86.12903225806451,20.309333333333342,87.09677419354838,20.224000000000004C88.06451612903226,20.138666666666666,89.03225806451613,20.181333333333335,90,20.095999999999997C90.96774193548387,20.01066666666666,91.93548387096774,19.344,92.90322580645162,19.152C93.87096774193549,18.96,94.83870967741935,18.944,95.80645161290322,18.864C96.77419354838709,18.784,97.74193548387096,18.770666666666667,98.70967741935483,18.672C99.6774193548387,18.573333333333334,100.64516129032259,18.37333333333333,101.61290322580646,18.272C102.58064516129033,18.170666666666666,103.5483870967742,18.154666666666667,104.51612903225808,18.064C105.48387096774195,17.973333333333333,106.45161290322581,17.792000000000005,107.41935483870968,17.728C108.38709677419355,17.663999999999998,109.35483870967742,17.696,110.3225806451613,17.631999999999998C111.29032258064517,17.567999999999994,112.25806451612902,17.256,113.2258064516129,17.12C114.19354838709677,16.984,115.16129032258064,16.904,116.12903225806451,16.816C117.09677419354838,16.727999999999998,118.06451612903226,16.709333333333333,119.03225806451613,16.592C120,16.474666666666668,120.96774193548386,16.333333333333332,121.93548387096773,16.112000000000002C122.9032258064516,15.890666666666668,123.87096774193549,15.506666666666671,124.83870967741936,15.264000000000003C125.80645161290323,15.021333333333336,126.7741935483871,14.847999999999999,127.74193548387098,14.655999999999999C128.70967741935485,14.463999999999999,129.67741935483872,14.261333333333333,130.6451612903226,14.112C131.61290322580646,13.962666666666667,132.58064516129033,13.853333333333332,133.5483870967742,13.759999999999998C134.51612903225808,13.666666666666666,135.48387096774192,13.663999999999998,136.4516129032258,13.552C137.41935483870967,13.44,138.38709677419354,13.242666666666668,139.3548387096774,13.088000000000001C140.32258064516128,12.933333333333334,141.29032258064515,12.831999999999999,142.25806451612902,12.623999999999999C143.2258064516129,12.415999999999999,144.19354838709677,12.016000000000002,145.16129032258064,11.840000000000002C146.1290322580645,11.664000000000001,147.09677419354838,11.680000000000001,148.06451612903226,11.568000000000001C149.03225806451613,11.456000000000001,150,11.28,150.96774193548387,11.168C151.93548387096774,11.056,152.90322580645162,11.013333333333332,153.8709677419355,10.895999999999999C154.83870967741936,10.778666666666666,155.80645161290323,10.584000000000003,156.7741935483871,10.464000000000002C157.74193548387098,10.344000000000001,158.70967741935485,10.368,159.67741935483872,10.175999999999998C160.6451612903226,9.983999999999998,161.61290322580643,9.424266666666664,162.5806451612903,9.072C166.4516129032258,7.662933333333322,170.32258064516128,6.394666666666667,174.19354838709677,5.6000000000000005C175.16129032258064,5.4013333333333335,176.1290322580645,5.336,177.09677419354838,5.072000000000001C178.06451612903226,4.808000000000002,179.03225806451613,4.412000000000002,180,4.016000000000002"></path><path class="axis-ceiling" stroke-width="1" stroke="black" fill="none" d="M175,0L180,0"></path><text class="axis-ceiling-label" font-family="sans-serif" text-anchor="end" font-size="10px" x="170" y="2.5">2500</text></g></svg>