<svg xmlns="http://www.w3.org/2000/svg" viewBox="0 0 180 60"><g transform="translate(0,20)"><path class="area" fill="rgba(0, 0, 0, 0.2)" d="M0,27.519999999999996C1,27.5,2,27.480000000000004,3,27.480000000000004C4,27.480000000000004,5,27.480000000000004,6,27.480000000000004C8,27.480000000000004,10,27.480000000000004,12,27.480000000000004C13,27.480000000000004,14,27.480000000000004,15,27.480000000000004C16,27.480000000000004,17,27.439999999999998,18,27.439999999999998C19,27.439999999999998,20,27.439999999999998,21,27.439999999999998C22,27.439999999999998,23,27.400000000000002,24,27.400000000000002C25,27.400000000000002,26,27.400000000000002,27,27.400000000000002C28,27.400000000000002,29,27.346666666666668,30,27.32C31,27.293333333333333,32,27.26666666666667,33,27.240000000000002C34,27.213333333333335,35,27.18666666666667,36,27.160000000000004C37,27.133333333333336,38,27.10666666666667,39,27.080000000000002C40,27.053333333333335,41,27.026666666666667,42,27C43,26.973333333333333,44,26.953333333333337,45,26.92C46,26.886666666666667,47,26.82666666666666,48,26.799999999999997C49,26.773333333333333,50,26.773333333333333,51,26.76C52,26.74666666666667,53,26.74,54,26.72C55,26.7,56,26.666666666666664,57,26.639999999999997C58,26.61333333333333,59,26.586666666666662,60,26.559999999999995C61,26.533333333333328,61.99999999999999,26.499999999999996,62.99999999999999,26.479999999999997C63.99999999999999,26.459999999999997,65,26.46,66,26.44C67,26.42,68,26.386666666666667,69,26.36C70,26.333333333333332,71,26.313333333333333,72,26.28C73,26.24666666666667,74,26.193333333333335,75,26.16C76,26.126666666666665,77,26.113333333333337,78,26.080000000000002C79,26.046666666666667,80,26,81,25.96C82,25.92,83,25.88,84,25.84C85,25.8,86,25.759999999999998,87,25.72C88,25.68,89,25.64666666666667,90,25.6C91,25.553333333333335,92.00000000000001,25.493333333333336,93.00000000000001,25.44C94.00000000000001,25.386666666666667,95,25.333333333333336,96,25.28C97,25.226666666666667,98.00000000000001,25.173333333333336,99.00000000000001,25.12C100.00000000000001,25.066666666666666,101,25.006666666666668,102,24.96C103,24.913333333333334,104,24.873333333333335,105,24.84C106,24.806666666666665,107,24.79333333333333,108,24.759999999999998C109,24.726666666666667,110,24.64,111,24.64C112,24.64,113,24.64,114,24.64C115,24.64,116,24.64,117,24.64C118,24.64,119,24.64,120,24.64C121,24.64,122,24.64,123,24.64C124,24.64,124.99999999999999,24.64,125.99999999999999,24.64C126.99999999999999,24.64,128,24.36,129,24.16C130,23.96,131,23.680000000000003,132,23.440000000000005C133,23.200000000000006,134,22.960000000000004,135,22.720000000000002C136,22.48,137,22.266666666666666,138,22C139,21.733333333333334,140,21.42,141,21.12C142,20.82,143,20.54,144,20.2C145,19.86,146,19.37333333333333,147,19.08C148,18.786666666666665,149,18.74,150,18.439999999999998C151,18.139999999999997,152,17.666666666666668,153,17.28C154,16.893333333333334,155,16.506666666666668,156,16.12C157,15.733333333333334,158,15.346666666666668,159,14.96C160,14.573333333333334,161,14.259999999999998,162,13.799999999999999C163,13.34,164,12.700000000000003,165,12.200000000000003C166,11.700000000000003,167,11.280000000000001,168,10.8C169,10.32,170,9.700000000000001,171,9.32C172,8.94,173,8.806666666666667,174,8.52C175,8.233333333333333,176,7.91333333333333,177,7.599999999999998C178,7.286666666666665,179,6.963333333333333,180,6.6400000000000015L180,40C179,40,178,40,177,40C176,40,175,40,174,40C173,40,172,40,171,40C170,40,169,40,168,40C167,40,166,40,165,40C164,40,163,40,162,40C161,40,160,40,159,40C158,40,157,40,156,40C155,40,154,40,153,40C152,40,151,40,150,40C149,40,148,40,147,40C146,40,145,40,144,40C143,40,142,40,141,40C140,40,139,40,138,40C137,40,136,40,135,40C134,40,133,40,132,40C131,40,130,40,129,40C128,40,126.99999999999999,40,125.99999999999999,40C124.99999999999999,40,124,40,123,40C122,40,121,40,120,40C119,40,118,40,117,40C116,40,115,40,114,40C113,40,112,40,111,40C110,40,109,40,108,40C107,40,106,40,105,40C104,40,103,40,102,40C101,40,100.00000000000001,40,99.00000000000001,40C98.00000000000001,40,97,40,96,40C95,40,94.00000000000001,40,93.00000000000001,40C92.00000000000001,40,91,40,90,40C89,40,88,40,87,40C86,40,85,40,84,40C83,40,82,40,81,40C80,40,79,40,78,40C77,40,76,40,75,40C74,40,73,40,72,40C71,40,70,40,69,40C68,40,67,40,66,40C65,40,63.99999999999999,40,62.99999999999999,40C61.99999999999999,40,61,40,60,40C59,40,58,40,57,40C56,40,55,40,54,40C53,40,52,40,51,40C50,40,49,40,48,40C47,40,46,40,45,40C44,40,43,40,42,40C41,40,40,40,39,40C38,40,37,40,36,40C35,40,34,40,33,40C32,40,31,40,30,40C29,40,28,40,27,40C26,40,25,40,24,40C23,40,22,40,21,40C20,40,19,40,18,40C17,40,16,40,15,40C14,40,13,40,12,40C10,40,8,40,6,40C5,40,4,40,3,40C2,40,1,40,0,40Z"></path><path class="line" stroke="black" fill="none" d="M0,27.519999999999996C1,27.5,2,27.480000000000004,3,27.480000000000004C4,27.480000000000004,5,27.480000000000004,6,27.480000000000004C8,27.480000000000004,10,27.480000000000004,12,27.480000000000004C13,27.480000000000004,14,27.480000000000004,15,27.480000000000004C16,27.480000000000004,17,27.439999999999998,18,27.439999999999998C19,27.439999999999998,20,27.439999999999998,21,27.439999999999998C22,27.439999999999998,23,27.400000000000002,24,27.400000000000002C25,27.400000000000002,26,27.400000000000002,27,27.400000000000002C28,27.400000000000002,29,27.346666666666668,30,27.32C31,27.293333333333333,32,27.26666666666667,33,27.240000000000002C34,27.213333333333335,35,27.18666666666667,36,27.160000000000004C37,27.133333333333336,38,27.10666666666667,39,27.080000000000002C40,27.053333333333335,41,27.026666666666667,42,27C43,26.973333333333333,44,26.953333333333337,45,26.92C46,26.886666666666667,47,26.82666666666666,48,26.799999999999997C49,26.773333333333333,50,26.773333333333333,51,26.76C52,26.74666666666667,53,26.74,54,26.72C55,26.7,56,26.666666666666664,57,26.639999999999997C58,26.61333333333333,59,26.586666666666662,60,26.559999999999995C61,26.533333333333328,61.99999999999999,26.499999999999996,62.99999999999999,26.479999999999997C63.99999999999999,26.459999999999997,65,26.46,66,26.44C67,26.42,68,26.386666666666667,69,26.36C70,26.333333333333332,71,26.313333333333333,72,26.28C73,26.24666666666667,74,26.193333333333335,75,26.16C76,26.126666666666665,77,26.113333333333337,78,26.080000000000002C79,26.046666666666667,80,26,81,25.96C82,25.92,83,25.88,84,25.84C85,25.8,86,25.759999999999998,87,25.72C88,25.68,89,25.64666666666667,90,25.6C91,25.553333333333335,92.00000000000001,25.493333333333336,93.00000000000001,25.44C94.00000000000001,25.386666666666667,95,25.333333333333336,96,25.28C97,25.226666666666667,98.00000000000001,25.173333333333336,99.00000000000001,25.12C100.00000000000001,25.066666666666666,101,25.006666666666668,102,24.96C103,24.913333333333334,104,24.873333333333335,105,24.84C106,24.806666666666665,107,24.79333333333333,108,24.759999999999998C109,24.726666666666667,110,24.64,111,24.64C112,24.64,113,24.64,114,24.64C115,24.64,116,24.64,117,24.64C118,24.64,119,24.64,120,24.64C121,24.64,122,24.64,123,24.64C124,24.64,124.99999999999999,24.64,125.99999999999999,24.64C126.99999999999999,24.64,128,24.36,129,24.16C130,23.96,131,23.680000000000003,132,23.440000000000005C133,23.200000000000006,134,22.960000000000004,135,22.720000000000002C136,22.48,137,22.266666666666666,138,22C139,21.733333333333334,140,21.42,141,21.12C142,20.82,143,20.54,144,20.2C145,19.86,146,19.37333333333333,147,19.08C148,18.786666666666665,149,18.74,150,18.439999999999998C151,18.139999999999997,152,17.666666666666668,153,17.28C154,16.893333333333334,155,16.506666666666668,156,16.12C157,15.733333333333334,158,15.346666666666668,159,14.96C160,14.573333333333334,161,14.259999999999998,162,13.799999999999999C163,13.34,164,12.700000000000003,165,12.200000000000003C166,11.700000000000003,167,11.280000000000001,168,10.8C169,10.32,170,9.700000000000001,171,9.32C172,8.94,173,8.806666666666667,174,8.52C175,8.233333333333333,176,7.91333333333333,177,7.599999999999998C178,7.286666666666665,179,6.963333333333333,180,6.6400000000000015"></path><path class="axis-ceiling" stroke-width="1" stroke="black" fill="none" d="M175,0L180,0"></path><text class="axis-ceiling-label" font-family="sans-serif" text-anchor="end" font-size="10px" x="170" y="2.5">1000</text></g></svg>