<svg xmlns="http://www.w3.org/2000/svg" viewBox="0 0 180 60"><g transform="translate(0,20)"><path class="area" fill="rgba(0, 0, 0, 0.2)" d="M0,37.7188C1.0169491525423728,37.65833333333334,2.0338983050847457,37.59786666666667,3.0508474576271185,37.534800000000004C4.067796610169491,37.47173333333334,5.084745762711864,37.40606666666667,6.101694915254237,37.3404C7.11864406779661,37.27473333333334,8.135593220338983,37.20746666666667,9.152542372881356,37.1408C10.169491525423728,37.074133333333336,11.186440677966102,37.008,12.203389830508474,36.940400000000004C13.220338983050846,36.872800000000005,14.23728813559322,36.806266666666666,15.254237288135592,36.7352C16.271186440677965,36.66413333333333,17.28813559322034,36.58273333333333,18.305084745762713,36.513999999999996C19.322033898305087,36.44526666666666,20.338983050847457,36.37846666666667,21.35593220338983,36.3228C22.372881355932204,36.267133333333334,23.389830508474574,36.2278,24.406779661016948,36.18C25.423728813559322,36.1322,26.440677966101696,36.08453333333333,27.45762711864407,36.036C28.47457627118644,35.98746666666667,29.491525423728813,35.9392,30.508474576271183,35.8888C31.525423728813557,35.8384,32.54237288135593,35.78693333333334,33.559322033898304,35.7336C34.57627118644068,35.68026666666667,35.59322033898305,35.6246,36.610169491525426,35.5688C37.6271186440678,35.513000000000005,38.644067796610166,35.4566,39.66101694915254,35.3988C40.67796610169491,35.341,41.69491525423729,35.28126666666666,42.71186440677966,35.221999999999994C43.728813559322035,35.16273333333333,44.7457627118644,35.10366666666666,45.762711864406775,35.0432C46.77966101694915,34.982733333333336,47.79661016949152,34.9212,48.813559322033896,34.8592C49.83050847457627,34.797200000000004,50.847457627118644,34.739466666666665,51.86440677966102,34.6712C52.88135593220339,34.60293333333333,53.898305084745765,34.528533333333336,54.91525423728814,34.449600000000004C55.93220338983051,34.37066666666667,56.94915254237288,34.2842,57.96610169491525,34.1976C58.983050847457626,34.111000000000004,59.99999999999999,34.01926666666667,61.01694915254237,33.93C62.03389830508474,33.84073333333333,63.05084745762712,33.75373333333334,64.0677966101695,33.662C65.08474576271186,33.57026666666667,66.10169491525424,33.477999999999994,67.11864406779661,33.379599999999996C68.13559322033899,33.2812,69.15254237288136,33.17946666666667,70.16949152542374,33.071600000000004C71.1864406779661,32.96373333333334,72.20338983050848,32.8456,73.22033898305085,32.7324C74.23728813559322,32.6192,75.2542372881356,32.507333333333335,76.27118644067797,32.3924C77.28813559322033,32.27746666666667,78.30508474576271,32.165733333333336,79.32203389830508,32.0428C80.33898305084746,31.919866666666667,81.35593220338983,31.791933333333336,82.37288135593221,31.6548C83.38983050847457,31.517666666666667,84.40677966101696,31.373666666666665,85.42372881355932,31.22C86.4406779661017,31.066333333333333,87.45762711864407,30.898666666666667,88.47457627118645,30.7328C89.49152542372882,30.566933333333335,90.50847457627118,30.398066666666665,91.52542372881355,30.2248C92.54237288135593,30.05153333333333,93.55932203389831,29.873866666666665,94.57627118644069,29.693199999999997C95.59322033898306,29.512533333333334,96.61016949152543,29.325533333333336,97.62711864406779,29.140800000000002C98.64406779661016,28.95606666666667,99.66101694915254,28.77166666666667,100.6779661016949,28.5848C101.69491525423729,28.397933333333334,102.71186440677965,28.20993333333334,103.72881355932203,28.019600000000004C104.7457627118644,27.82926666666667,105.76271186440678,27.634533333333334,106.77966101694915,27.4428C107.79661016949153,27.251066666666663,108.8135593220339,27.058133333333334,109.83050847457628,26.8692C110.84745762711864,26.680266666666665,111.86440677966102,26.49406666666666,112.88135593220339,26.309199999999997C113.89830508474576,26.124333333333333,114.91525423728814,25.941066666666668,115.9322033898305,25.76C116.94915254237289,25.578933333333335,117.96610169491525,25.399800000000003,118.98305084745763,25.222800000000003C120,25.045800000000003,121.01694915254237,24.866333333333333,122.03389830508473,24.698C123.05084745762711,24.529666666666664,124.0677966101695,24.36846666666667,125.08474576271188,24.2128C126.10169491525424,24.057133333333336,127.11864406779662,23.906533333333336,128.135593220339,23.764000000000003C129.15254237288136,23.62146666666667,130.16949152542372,23.490266666666667,131.1864406779661,23.3576C132.20338983050846,23.224933333333333,133.22033898305085,23.092533333333336,134.23728813559322,22.968000000000004C135.25423728813558,22.84346666666667,136.27118644067798,22.722933333333334,137.28813559322035,22.6104C138.3050847457627,22.497866666666663,139.3220338983051,22.3924,140.33898305084747,22.2928C141.35593220338984,22.1932,142.3728813559322,22.103666666666665,143.38983050847457,22.0128C144.40677966101694,21.92193333333333,145.42372881355934,21.8342,146.4406779661017,21.7476C147.45762711864407,21.660999999999998,148.47457627118644,21.5764,149.4915254237288,21.493199999999998C150.50847457627117,21.409999999999997,151.52542372881356,21.32353333333333,152.54237288135593,21.248399999999997C153.5593220338983,21.173266666666663,154.5762711864407,21.109733333333335,155.59322033898306,21.0424C156.61016949152543,20.975066666666667,157.6271186440678,20.909933333333335,158.64406779661016,20.8444C159.66101694915253,20.778866666666666,160.67796610169492,20.716866666666668,161.6949152542373,20.6492C162.71186440677965,20.581533333333333,163.72881355932205,20.506000000000004,164.74576271186442,20.4384C165.76271186440678,20.370800000000003,166.77966101694915,20.308466666666664,167.79661016949152,20.243599999999997C168.81355932203388,20.17873333333333,169.83050847457628,20.113133333333334,170.84745762711864,20.049200000000003C171.864406779661,19.98526666666667,172.8813559322034,19.930200000000003,173.89830508474577,19.860000000000003C174.91525423728814,19.789800000000003,175.93220338983053,19.7074,176.9491525423729,19.628C177.96610169491527,19.5486,178.98305084745763,19.466099999999997,180,19.383599999999998L180,40C178.98305084745763,40,177.96610169491527,40,176.9491525423729,40C175.93220338983053,40,174.91525423728814,40,173.89830508474577,40C172.8813559322034,40,171.864406779661,40,170.84745762711864,40C169.83050847457628,40,168.81355932203388,40,167.79661016949152,40C166.77966101694915,40,165.76271186440678,40,164.74576271186442,40C163.72881355932205,40,162.71186440677965,40,161.6949152542373,40C160.67796610169492,40,159.66101694915253,40,158.64406779661016,40C157.6271186440678,40,156.61016949152543,40,155.59322033898306,40C154.5762711864407,40,153.5593220338983,40,152.54237288135593,40C151.52542372881356,40,150.50847457627117,40,149.4915254237288,40C148.47457627118644,40,147.45762711864407,40,146.4406779661017,40C145.42372881355934,40,144.40677966101694,40,143.38983050847457,40C142.3728813559322,40,141.35593220338984,40,140.33898305084747,40C139.3220338983051,40,138.3050847457627,40,137.28813559322035,40C136.27118644067798,40,135.25423728813558,40,134.23728813559322,40C133.22033898305085,40,132.20338983050846,40,131.1864406779661,40C130.16949152542372,40,129.15254237288136,40,128.135593220339,40C127.11864406779662,40,126.10169491525424,40,125.08474576271188,40C124.0677966101695,40,123.05084745762711,40,122.03389830508473,40C121.01694915254237,40,120,40,118.98305084745763,40C117.96610169491525,40,116.94915254237289,40,115.9322033898305,40C114.91525423728814,40,113.89830508474576,40,112.88135593220339,40C111.86440677966102,40,110.84745762711864,40,109.83050847457628,40C108.8135593220339,40,107.79661016949153,40,106.77966101694915,40C105.76271186440678,40,104.7457627118644,40,103.72881355932203,40C102.71186440677965,40,101.69491525423729,40,100.6779661016949,40C99.66101694915254,40,98.64406779661016,40,97.62711864406779,40C96.61016949152543,40,95.59322033898306,40,94.57627118644069,40C93.55932203389831,40,92.54237288135593,40,91.52542372881355,40C90.50847457627118,40,89.49152542372882,40,88.47457627118645,40C87.45762711864407,40,86.4406779661017,40,85.42372881355932,40C84.40677966101696,40,83.38983050847457,40,82.37288135593221,40C81.35593220338983,40,80.33898305084746,40,79.32203389830508,40C78.30508474576271,40,77.28813559322033,40,76.27118644067797,40C75.2542372881356,40,74.23728813559322,40,73.22033898305085,40C72.20338983050848,40,71.1864406779661,40,70.16949152542374,40C69.15254237288136,40,68.13559322033899,40,67.11864406779661,40C66.10169491525424,40,65.08474576271186,40,64.0677966101695,40C63.05084745762712,40,62.03389830508474,40,61.01694915254237,40C59.99999999999999,40,58.983050847457626,40,57.96610169491525,40C56.94915254237288,40,55.93220338983051,40,54.91525423728814,40C53.898305084745765,40,52.88135593220339,40,51.86440677966102,40C50.847457627118644,40,49.83050847457627,40,48.813559322033896,40C47.79661016949152,40,46.77966101694915,40,45.762711864406775,40C44.7457627118644,40,43.728813559322035,40,42.71186440677966,40C41.69491525423729,40,40.67796610169491,40,39.66101694915254,40C38.644067796610166,40,37.6271186440678,40,36.610169491525426,40C35.59322033898305,40,34.57627118644068,40,33.559322033898304,40C32.54237288135593,40,31.525423728813557,40,30.508474576271183,40C29.491525423728813,40,28.47457627118644,40,27.45762711864407,40C26.440677966101696,40,25.423728813559322,40,24.406779661016948,40C23.389830508474574,40,22.372881355932204,40,21.35593220338983,40C20.338983050847457,40,19.322033898305087,40,18.305084745762713,40C17.28813559322034,40,16.271186440677965,40,15.254237288135592,40C14.23728813559322,40,13.220338983050846,40,12.203389830508474,40C11.186440677966102,40,10.169491525423728,40,9.152542372881356,40C8.135593220338983,40,7.11864406779661,40,6.101694915254237,40C5.084745762711864,40,4.067796610169491,40,3.0508474576271185,40C2.0338983050847457,40,1.0169491525423728,40,0,40Z"></path><path class="line" stroke="black" fill="none" d="M0,37.7188C1.0169491525423728,37.65833333333334,2.0338983050847457,37.59786666666667,3.0508474576271185,37.534800000000004C4.067796610169491,37.47173333333334,5.084745762711864,37.40606666666667,6.101694915254237,37.3404C7.11864406779661,37.27473333333334,8.135593220338983,37.20746666666667,9.152542372881356,37.1408C10.169491525423728,37.074133333333336,11.186440677966102,37.008,12.203389830508474,36.940400000000004C13.220338983050846,36.872800000000005,14.23728813559322,36.806266666666666,15.254237288135592,36.7352C16.271186440677965,36.66413333333333,17.28813559322034,36.58273333333333,18.305084745762713,36.513999999999996C19.322033898305087,36.44526666666666,20.338983050847457,36.37846666666667,21.35593220338983,36.3228C22.372881355932204,36.267133333333334,23.389830508474574,36.2278,24.406779661016948,36.18C25.423728813559322,36.1322,26.440677966101696,36.08453333333333,27.45762711864407,36.036C28.47457627118644,35.98746666666667,29.491525423728813,35.9392,30.508474576271183,35.8888C31.525423728813557,35.8384,32.54237288135593,35.78693333333334,33.559322033898304,35.7336C34.57627118644068,35.68026666666667,35.59322033898305,35.6246,36.610169491525426,35.5688C37.6271186440678,35.513000000000005,38.644067796610166,35.4566,39.66101694915254,35.3988C40.67796610169491,35.341,41.69491525423729,35.28126666666666,42.71186440677966,35.221999999999994C43.728813559322035,35.16273333333333,44.7457627118644,35.10366666666666,45.762711864406775,35.0432C46.77966101694915,34.982733333333336,47.79661016949152,34.9212,48.813559322033896,34.8592C49.83050847457627,34.797200000000004,50.847457627118644,34.739466666666665,51.86440677966102,34.6712C52.88135593220339,34.60293333333333,53.898305084745765,34.528533333333336,54.91525423728814,34.449600000000004C55.93220338983051,34.37066666666667,56.94915254237288,34.2842,57.96610169491525,34.1976C58.983050847457626,34.111000000000004,59.99999999999999,34.01926666666667,61.01694915254237,33.93C62.03389830508474,33.84073333333333,63.05084745762712,33.75373333333334,64.0677966101695,33.662C65.08474576271186,33.57026666666667,66.10169491525424,33.477999999999994,67.11864406779661,33.379599999999996C68.13559322033899,33.2812,69.15254237288136,33.17946666666667,70.16949152542374,33.071600000000004C71.1864406779661,32.96373333333334,72.20338983050848,32.8456,73.22033898305085,32.7324C74.23728813559322,32.6192,75.2542372881356,32.507333333333335,76.27118644067797,32.3924C77.28813559322033,32.27746666666667,78.30508474576271,32.165733333333336,79.32203389830508,32.0428C80.33898305084746,31.919866666666667,81.35593220338983,31.791933333333336,82.37288135593221,31.6548C83.38983050847457,31.517666666666667,84.40677966101696,31.373666666666665,85.42372881355932,31.22C86.4406779661017,31.066333333333333,87.45762711864407,30.898666666666667,88.47457627118645,30.7328C89.49152542372882,30.566933333333335,90.50847457627118,30.398066666666665,91.52542372881355,30.2248C92.54237288135593,30.05153333333333,93.55932203389831,29.873866666666665,94.57627118644069,29.693199999999997C95.59322033898306,29.512533333333334,96.61016949152543,29.325533333333336,97.62711864406779,29.140800000000002C98.64406779661016,28.95606666666667,99.66101694915254,28.77166666666667,100.6779661016949,28.5848C101.69491525423729,28.397933333333334,102.71186440677965,28.20993333333334,103.72881355932203,28.019600000000004C104.7457627118644,27.82926666666667,105.76271186440678,27.634533333333334,106.77966101694915,27.4428C107.79661016949153,27.251066666666663,108.8135593220339,27.058133333333334,109.83050847457628,26.8692C110.84745762711864,26.680266666666665,111.86440677966102,26.49406666666666,112.88135593220339,26.309199999999997C113.89830508474576,26.124333333333333,114.91525423728814,25.941066666666668,115.9322033898305,25.76C116.94915254237289,25.578933333333335,117.96610169491525,25.399800000000003,118.98305084745763,25.222800000000003C120,25.045800000000003,121.01694915254237,24.866333333333333,122.03389830508473,24.698C123.05084745762711,24.529666666666664,124.0677966101695,24.36846666666667,125.08474576271188,24.2128C126.10169491525424,24.057133333333336,127.11864406779662,23.906533333333336,128.135593220339,23.764000000000003C129.15254237288136,23.62146666666667,130.16949152542372,23.490266666666667,131.1864406779661,23.3576C132.20338983050846,23.224933333333333,133.22033898305085,23.092533333333336,134.23728813559322,22.968000000000004C135.25423728813558,22.84346666666667,136.27118644067798,22.722933333333334,137.28813559322035,22.6104C138.3050847457627,22.497866666666663,139.3220338983051,22.3924,140.33898305084747,22.2928C141.35593220338984,22.1932,142.3728813559322,22.103666666666665,143.38983050847457,22.0128C144.40677966101694,21.92193333333333,145.42372881355934,21.8342,146.4406779661017,21.7476C147.45762711864407,21.660999999999998,148.47457627118644,21.5764,149.4915254237288,21.493199999999998C150.50847457627117,21.409999999999997,151.52542372881356,21.32353333333333,152.54237288135593,21.248399999999997C153.5593220338983,21.173266666666663,154.5762711864407,21.109733333333335,155.59322033898306,21.0424C156.61016949152543,20.975066666666667,157.6271186440678,20.909933333333335,158.64406779661016,20.8444C159.66101694915253,20.778866666666666,160.67796610169492,20.716866666666668,161.6949152542373,20.6492C162.71186440677965,20.581533333333333,163.72881355932205,20.506000000000004,164.74576271186442,20.4384C165.76271186440678,20.370800000000003,166.77966101694915,20.308466666666664,167.79661016949152,20.243599999999997C168.81355932203388,20.17873333333333,169.83050847457628,20.113133333333334,170.84745762711864,20.049200000000003C171.864406779661,19.98526666666667,172.8813559322034,19.930200000000003,173.89830508474577,19.860000000000003C174.91525423728814,19.789800000000003,175.93220338983053,19.7074,176.9491525423729,19.628C177.96610169491527,19.5486,178.98305084745763,19.466099999999997,180,19.383599999999998"></path><path class="axis-ceiling" stroke-width="1" stroke="black" fill="none" d="M175,0L180,0"></path><text class="axis-ceiling-label" font-family="sans-serif" text-anchor="end" font-size="10px" x="170" y="2.5">100000</text></g></svg>