<svg xmlns="http://www.w3.org/2000/svg" viewBox="0 0 180 60"><g transform="translate(0,20)"><path class="area" fill="rgba(0, 0, 0, 0.2)" d="M0,30.540000000000003C1.0169491525423728,30.18,2.0338983050847457,29.82,3.0508474576271185,29.82C4.067796610169491,29.82,5.084745762711864,29.82,6.101694915254237,29.82C7.11864406779661,29.82,8.135593220338983,29.82,9.152542372881356,29.82C10.169491525423728,29.82,11.186440677966102,29.18,12.203389830508474,29.18C13.220338983050846,29.18,14.23728813559322,29.18,15.254237288135592,29.18C16.271186440677965,29.18,17.28813559322034,28.32,18.305084745762713,28.32C19.322033898305087,28.32,20.338983050847457,28.32,21.35593220338983,28.32C22.372881355932204,28.32,23.389830508474574,25.78,24.406779661016948,25.78C25.423728813559322,25.78,26.440677966101696,25.78,27.45762711864407,25.78C28.47457627118644,25.78,29.491525423728813,25.78,30.508474576271183,25.78C31.525423728813557,25.78,32.54237288135593,25.476666666666663,33.559322033898304,25.099999999999998C34.57627118644068,24.723333333333333,35.59322033898305,23.600000000000005,36.610169491525426,23.520000000000003C37.6271186440678,23.44,38.644067796610166,23.44333333333333,39.66101694915254,23.4C40.67796610169491,23.356666666666666,41.69491525423729,23.343333333333334,42.71186440677966,23.26C43.728813559322035,23.17666666666667,44.7457627118644,23.006666666666664,45.762711864406775,22.9C46.77966101694915,22.793333333333333,47.79661016949152,22.69666666666667,48.813559322033896,22.62C49.83050847457627,22.543333333333333,50.847457627118644,22.49,51.86440677966102,22.439999999999998C52.88135593220339,22.389999999999997,53.898305084745765,22.35,54.91525423728814,22.32C55.93220338983051,22.29,56.94915254237288,22.276666666666664,57.96610169491525,22.259999999999998C58.983050847457626,22.243333333333332,59.99999999999999,22.246666666666666,61.01694915254237,22.22C62.03389830508474,22.19333333333333,63.05084745762712,22.080000000000002,64.0677966101695,22.080000000000002C65.08474576271186,22.080000000000002,66.10169491525424,22.080000000000002,67.11864406779661,22.080000000000002C68.13559322033899,22.080000000000002,69.15254237288136,22.080000000000002,70.16949152542374,22.080000000000002C71.1864406779661,22.080000000000002,72.20338983050848,22.080000000000002,73.22033898305085,22.080000000000002C74.23728813559322,22.080000000000002,75.2542372881356,22.080000000000002,76.27118644067797,22.080000000000002C77.28813559322033,22.080000000000002,78.30508474576271,21.82,79.32203389830508,21.82C80.33898305084746,21.82,81.35593220338983,21.82,82.37288135593221,21.82C83.38983050847457,21.82,84.40677966101696,21.82,85.42372881355932,21.82C86.4406779661017,21.82,87.45762711864407,21.82,88.47457627118645,21.82C89.49152542372882,21.82,90.50847457627118,21.253333333333334,91.52542372881355,21.06C92.54237288135593,20.866666666666664,93.55932203389831,20.819999999999997,94.57627118644069,20.659999999999997C95.59322033898306,20.499999999999996,96.61016949152543,20.319999999999997,97.62711864406779,20.099999999999998C98.64406779661016,19.88,99.66101694915254,19.51,100.6779661016949,19.340000000000003C101.69491525423729,19.17,102.71186440677965,19.253333333333334,103.72881355932203,19.08C104.7457627118644,18.906666666666663,105.76271186440678,18.323333333333334,106.77966101694915,18.060000000000002C107.79661016949153,17.796666666666667,108.8135593220339,17.673333333333336,109.83050847457628,17.5C110.84745762711864,17.326666666666668,111.86440677966102,17.166666666666668,112.88135593220339,17.02C113.89830508474576,16.87333333333333,114.91525423728814,16.826666666666664,115.9322033898305,16.619999999999997C116.94915254237289,16.41333333333333,117.96610169491525,16.00333333333333,118.98305084745763,15.779999999999998C120,15.556666666666667,121.01694915254237,15.386666666666667,122.03389830508473,15.280000000000001C123.05084745762711,15.173333333333334,124.0677966101695,15.226666666666668,125.08474576271188,15.120000000000001C126.10169491525424,15.013333333333335,127.11864406779662,14.180000000000001,128.135593220339,13.940000000000001C129.15254237288136,13.700000000000001,130.16949152542372,13.680000000000001,131.1864406779661,13.580000000000002C132.20338983050846,13.48,133.22033898305085,13.463333333333335,134.23728813559322,13.34C135.25423728813558,13.216666666666665,136.27118644067798,12.966666666666665,137.28813559322035,12.839999999999998C138.3050847457627,12.713333333333331,139.3220338983051,12.693333333333333,140.33898305084747,12.58C141.35593220338984,12.466666666666667,142.3728813559322,12.24,143.38983050847457,12.160000000000002C144.40677966101694,12.080000000000002,145.42372881355934,12.120000000000003,146.4406779661017,12.040000000000003C147.45762711864407,11.960000000000004,148.47457627118644,11.570000000000002,149.4915254237288,11.400000000000002C150.50847457627117,11.23,151.52542372881356,11.13,152.54237288135593,11.02C153.5593220338983,10.909999999999998,154.5762711864407,10.886666666666667,155.59322033898306,10.739999999999998C156.61016949152543,10.593333333333332,157.6271186440678,10.416666666666663,158.64406779661016,10.139999999999997C159.66101694915253,9.86333333333333,160.67796610169492,9.383333333333331,161.6949152542373,9.079999999999998C162.71186440677965,8.776666666666666,163.72881355932205,8.559999999999999,164.74576271186442,8.319999999999999C165.76271186440678,8.08,166.77966101694915,7.8266666666666636,167.79661016949152,7.639999999999998C168.81355932203388,7.4533333333333305,169.83050847457628,7.316666666666668,170.84745762711864,7.200000000000002C171.864406779661,7.083333333333336,172.8813559322034,7.08,173.89830508474577,6.9399999999999995C174.91525423728814,6.799999999999999,175.93220338983053,6.5533333333333355,176.9491525423729,6.360000000000001C177.96610169491527,6.166666666666669,178.98305084745763,5.973333333333334,180,5.7799999999999985L180,40C178.98305084745763,40,177.96610169491527,40,176.9491525423729,40C175.93220338983053,40,174.91525423728814,40,173.89830508474577,40C172.8813559322034,40,171.864406779661,40,170.84745762711864,40C169.83050847457628,40,168.81355932203388,40,167.79661016949152,40C166.77966101694915,40,165.76271186440678,40,164.74576271186442,40C163.72881355932205,40,162.71186440677965,40,161.6949152542373,40C160.67796610169492,40,159.66101694915253,40,158.64406779661016,40C157.6271186440678,40,156.61016949152543,40,155.59322033898306,40C154.5762711864407,40,153.5593220338983,40,152.54237288135593,40C151.52542372881356,40,150.50847457627117,40,149.4915254237288,40C148.47457627118644,40,147.45762711864407,40,146.4406779661017,40C145.42372881355934,40,144.40677966101694,40,143.38983050847457,40C142.3728813559322,40,141.35593220338984,40,140.33898305084747,40C139.3220338983051,40,138.3050847457627,40,137.28813559322035,40C136.27118644067798,40,135.25423728813558,40,134.23728813559322,40C133.22033898305085,40,132.20338983050846,40,131.1864406779661,40C130.16949152542372,40,129.15254237288136,40,128.135593220339,40C127.11864406779662,40,126.10169491525424,40,125.08474576271188,40C124.0677966101695,40,123.05084745762711,40,122.03389830508473,40C121.01694915254237,40,120,40,118.98305084745763,40C117.96610169491525,40,116.94915254237289,40,115.9322033898305,40C114.91525423728814,40,113.89830508474576,40,112.88135593220339,40C111.86440677966102,40,110.84745762711864,40,109.83050847457628,40C108.8135593220339,40,107.79661016949153,40,106.77966101694915,40C105.76271186440678,40,104.7457627118644,40,103.72881355932203,40C102.71186440677965,40,101.69491525423729,40,100.6779661016949,40C99.66101694915254,40,98.64406779661016,40,97.62711864406779,40C96.61016949152543,40,95.59322033898306,40,94.57627118644069,40C93.55932203389831,40,92.54237288135593,40,91.52542372881355,40C90.50847457627118,40,89.49152542372882,40,88.47457627118645,40C87.45762711864407,40,86.4406779661017,40,85.42372881355932,40C84.40677966101696,40,83.38983050847457,40,82.37288135593221,40C81.35593220338983,40,80.33898305084746,40,79.32203389830508,40C78.30508474576271,40,77.28813559322033,40,76.27118644067797,40C75.2542372881356,40,74.23728813559322,40,73.22033898305085,40C72.20338983050848,40,71.1864406779661,40,70.16949152542374,40C69.15254237288136,40,68.13559322033899,40,67.11864406779661,40C66.10169491525424,40,65.08474576271186,40,64.0677966101695,40C63.05084745762712,40,62.03389830508474,40,61.01694915254237,40C59.99999999999999,40,58.983050847457626,40,57.96610169491525,40C56.94915254237288,40,55.93220338983051,40,54.91525423728814,40C53.898305084745765,40,52.88135593220339,40,51.86440677966102,40C50.847457627118644,40,49.83050847457627,40,48.813559322033896,40C47.79661016949152,40,46.77966101694915,40,45.762711864406775,40C44.7457627118644,40,43.728813559322035,40,42.71186440677966,40C41.69491525423729,40,40.67796610169491,40,39.66101694915254,40C38.644067796610166,40,37.6271186440678,40,36.610169491525426,40C35.59322033898305,40,34.57627118644068,40,33.559322033898304,40C32.54237288135593,40,31.525423728813557,40,30.508474576271183,40C29.491525423728813,40,28.47457627118644,40,27.45762711864407,40C26.440677966101696,40,25.423728813559322,40,24.406779661016948,40C23.389830508474574,40,22.372881355932204,40,21.35593220338983,40C20.338983050847457,40,19.322033898305087,40,18.305084745762713,40C17.28813559322034,40,16.271186440677965,40,15.254237288135592,40C14.23728813559322,40,13.220338983050846,40,12.203389830508474,40C11.186440677966102,40,10.169491525423728,40,9.152542372881356,40C8.135593220338983,40,7.11864406779661,40,6.101694915254237,40C5.084745762711864,40,4.067796610169491,40,3.0508474576271185,40C2.0338983050847457,40,1.0169491525423728,40,0,40Z"></path><path class="line" stroke="black" fill="none" d="M0,30.540000000000003C1.0169491525423728,30.18,2.0338983050847457,29.82,3.0508474576271185,29.82C4.067796610169491,29.82,5.084745762711864,29.82,6.101694915254237,29.82C7.11864406779661,29.82,8.135593220338983,29.82,9.152542372881356,29.82C10.169491525423728,29.82,11.186440677966102,29.18,12.203389830508474,29.18C13.220338983050846,29.18,14.23728813559322,29.18,15.254237288135592,29.18C16.271186440677965,29.18,17.28813559322034,28.32,18.305084745762713,28.32C19.322033898305087,28.32,20.338983050847457,28.32,21.35593220338983,28.32C22.372881355932204,28.32,23.389830508474574,25.78,24.406779661016948,25.78C25.423728813559322,25.78,26.440677966101696,25.78,27.45762711864407,25.78C28.47457627118644,25.78,29.491525423728813,25.78,30.508474576271183,25.78C31.525423728813557,25.78,32.54237288135593,25.476666666666663,33.559322033898304,25.099999999999998C34.57627118644068,24.723333333333333,35.59322033898305,23.600000000000005,36.610169491525426,23.520000000000003C37.6271186440678,23.44,38.644067796610166,23.44333333333333,39.66101694915254,23.4C40.67796610169491,23.356666666666666,41.69491525423729,23.343333333333334,42.71186440677966,23.26C43.728813559322035,23.17666666666667,44.7457627118644,23.006666666666664,45.762711864406775,22.9C46.77966101694915,22.793333333333333,47.79661016949152,22.69666666666667,48.813559322033896,22.62C49.83050847457627,22.543333333333333,50.847457627118644,22.49,51.86440677966102,22.439999999999998C52.88135593220339,22.389999999999997,53.898305084745765,22.35,54.91525423728814,22.32C55.93220338983051,22.29,56.94915254237288,22.276666666666664,57.96610169491525,22.259999999999998C58.983050847457626,22.243333333333332,59.99999999999999,22.246666666666666,61.01694915254237,22.22C62.03389830508474,22.19333333333333,63.05084745762712,22.080000000000002,64.0677966101695,22.080000000000002C65.08474576271186,22.080000000000002,66.10169491525424,22.080000000000002,67.11864406779661,22.080000000000002C68.13559322033899,22.080000000000002,69.15254237288136,22.080000000000002,70.16949152542374,22.080000000000002C71.1864406779661,22.080000000000002,72.20338983050848,22.080000000000002,73.22033898305085,22.080000000000002C74.23728813559322,22.080000000000002,75.2542372881356,22.080000000000002,76.27118644067797,22.080000000000002C77.28813559322033,22.080000000000002,78.30508474576271,21.82,79.32203389830508,21.82C80.33898305084746,21.82,81.35593220338983,21.82,82.37288135593221,21.82C83.38983050847457,21.82,84.40677966101696,21.82,85.42372881355932,21.82C86.4406779661017,21.82,87.45762711864407,21.82,88.47457627118645,21.82C89.49152542372882,21.82,90.50847457627118,21.253333333333334,91.52542372881355,21.06C92.54237288135593,20.866666666666664,93.55932203389831,20.819999999999997,94.57627118644069,20.659999999999997C95.59322033898306,20.499999999999996,96.61016949152543,20.319999999999997,97.62711864406779,20.099999999999998C98.64406779661016,19.88,99.66101694915254,19.51,100.6779661016949,19.340000000000003C101.69491525423729,19.17,102.71186440677965,19.253333333333334,103.72881355932203,19.08C104.7457627118644,18.906666666666663,105.76271186440678,18.323333333333334,106.77966101694915,18.060000000000002C107.79661016949153,17.796666666666667,108.8135593220339,17.673333333333336,109.83050847457628,17.5C110.84745762711864,17.326666666666668,111.86440677966102,17.166666666666668,112.88135593220339,17.02C113.89830508474576,16.87333333333333,114.91525423728814,16.826666666666664,115.9322033898305,16.619999999999997C116.94915254237289,16.41333333333333,117.96610169491525,16.00333333333333,118.98305084745763,15.779999999999998C120,15.556666666666667,121.01694915254237,15.386666666666667,122.03389830508473,15.280000000000001C123.05084745762711,15.173333333333334,124.0677966101695,15.226666666666668,125.08474576271188,15.120000000000001C126.10169491525424,15.013333333333335,127.11864406779662,14.180000000000001,128.135593220339,13.940000000000001C129.15254237288136,13.700000000000001,130.16949152542372,13.680000000000001,131.1864406779661,13.580000000000002C132.20338983050846,13.48,133.22033898305085,13.463333333333335,134.23728813559322,13.34C135.25423728813558,13.216666666666665,136.27118644067798,12.966666666666665,137.28813559322035,12.839999999999998C138.3050847457627,12.713333333333331,139.3220338983051,12.693333333333333,140.33898305084747,12.58C141.35593220338984,12.466666666666667,142.3728813559322,12.24,143.38983050847457,12.160000000000002C144.40677966101694,12.080000000000002,145.42372881355934,12.120000000000003,146.4406779661017,12.040000000000003C147.45762711864407,11.960000000000004,148.47457627118644,11.570000000000002,149.4915254237288,11.400000000000002C150.50847457627117,11.23,151.52542372881356,11.13,152.54237288135593,11.02C153.5593220338983,10.909999999999998,154.5762711864407,10.886666666666667,155.59322033898306,10.739999999999998C156.61016949152543,10.593333333333332,157.6271186440678,10.416666666666663,158.64406779661016,10.139999999999997C159.66101694915253,9.86333333333333,160.67796610169492,9.383333333333331,161.6949152542373,9.079999999999998C162.71186440677965,8.776666666666666,163.72881355932205,8.559999999999999,164.74576271186442,8.319999999999999C165.76271186440678,8.08,166.77966101694915,7.8266666666666636,167.79661016949152,7.639999999999998C168.81355932203388,7.4533333333333305,169.83050847457628,7.316666666666668,170.84745762711864,7.200000000000002C171.864406779661,7.083333333333336,172.8813559322034,7.08,173.89830508474577,6.9399999999999995C174.91525423728814,6.799999999999999,175.93220338983053,6.5533333333333355,176.9491525423729,6.360000000000001C177.96610169491527,6.166666666666669,178.98305084745763,5.973333333333334,180,5.7799999999999985"></path><path class="axis-ceiling" stroke-width="1" stroke="black" fill="none" d="M175,0L180,0"></path><text class="axis-ceiling-label" font-family="sans-serif" text-anchor="end" font-size="10px" x="170" y="2.5">2000</text></g></svg>