<svg xmlns="http://www.w3.org/2000/svg" viewBox="0 0 180 60"><g transform="translate(0,20)"><path class="area" fill="rgba(0, 0, 0, 0.2)" d="M0,36C2.8301886792452833,34,5.660377358490566,32,8.49056603773585,32C9.056603773584905,32,9.622641509433963,37.333333333333336,10.18867924528302,38C11.320754716981131,39.333333333333336,12.452830188679245,40,13.584905660377357,40C17.547169811320753,40,21.50943396226415,37.2037037037037,25.471698113207548,36C30.566037735849058,34.45238095238095,35.660377358490564,32,40.75471698113208,32C41.88679245283019,32,43.0188679245283,40,44.15094339622642,40C51.50943396226415,40,58.867924528301884,30,66.22641509433961,30C69.62264150943396,30,73.0188679245283,31.333333333333332,76.41509433962264,34C76.98113207547169,34.44444444444444,77.54716981132076,40,78.11320754716981,40C78.67924528301887,40,79.24528301886792,40,79.81132075471699,40C82.64150943396227,40,85.47169811320755,38,88.30188679245283,38C89.43396226415095,38,90.56603773584905,38,91.69811320754717,38C92.26415094339622,38,92.83018867924528,40,93.39622641509433,40C93.9622641509434,40,94.52830188679245,40,95.09433962264151,40C96.22641509433963,40,97.35849056603773,40,98.49056603773585,40C99.0566037735849,40,99.62264150943396,40,100.18867924528301,40C100.75471698113208,40,101.32075471698113,40,101.88679245283019,40C102.45283018867924,40,103.01886792452831,40,103.58490566037736,40C105.84905660377359,40,108.11320754716981,40,110.37735849056604,40C111.50943396226415,40,112.64150943396226,38,113.77358490566037,38C114.33962264150942,38,114.90566037735849,40,115.47169811320754,40C116.0377358490566,40,116.60377358490565,40,117.16981132075472,40C117.73584905660377,40,118.30188679245283,38,118.86792452830188,38C119.43396226415094,38,120,40,120.56603773584905,40C121.1320754716981,40,121.69811320754717,40,122.26415094339622,40C123.39622641509433,40,124.52830188679245,40,125.66037735849056,40C126.22641509433961,40,126.79245283018868,40,127.35849056603773,40C127.92452830188678,40,128.49056603773585,34,129.0566037735849,34C129.62264150943395,34,130.18867924528303,40,130.75471698113208,40C131.32075471698113,40,131.88679245283018,40,132.45283018867923,40C133.01886792452828,40,133.58490566037736,40,134.1509433962264,40C134.71698113207546,40,135.28301886792454,18,135.8490566037736,18C136.41509433962264,18,136.98113207547172,40,137.54716981132077,40C138.11320754716982,40,138.67924528301887,40,139.24528301886792,40C139.81132075471697,40,140.37735849056605,40,140.9433962264151,40C141.50943396226415,40,142.07547169811323,39.333333333333336,142.64150943396228,38C143.20754716981133,36.666666666666686,143.77358490566039,28,144.33962264150944,28C144.9056603773585,28,145.47169811320757,40,146.03773584905662,40C146.60377358490567,40,147.16981132075472,36,147.73584905660377,36C148.30188679245282,36,148.8679245283019,40,149.43396226415095,40C150,40,150.56603773584908,34,151.13207547169813,34C151.69811320754718,34,152.26415094339623,35.000000000000014,152.83018867924528,36C153.39622641509433,37,153.9622641509434,40,154.52830188679246,40C155.0943396226415,40,155.66037735849056,34,156.22641509433961,34C156.79245283018867,34,157.35849056603774,36,157.9245283018868,36C158.49056603773585,36,159.05660377358492,26,159.62264150943398,26C160.18867924528303,26,160.75471698113208,40,161.32075471698113,40C161.88679245283018,40,162.45283018867926,32,163.0188679245283,32C163.58490566037736,32,164.15094339622644,40,164.7169811320755,40C165.28301886792454,40,165.8490566037736,26,166.41509433962264,26C166.9811320754717,26,167.54716981132077,40,168.11320754716982,40C168.67924528301887,40,169.24528301886792,38,169.81132075471697,34C170.37735849056602,29.999999999999932,170.9433962264151,7.999999999999998,171.50943396226415,7.999999999999998C172.0754716981132,7.999999999999998,172.64150943396228,40,173.20754716981133,40C173.77358490566039,40,174.33962264150944,40,174.9056603773585,40C175.47169811320754,40,176.03773584905662,40,176.60377358490567,40C177.16981132075472,40,177.73584905660377,40,178.30188679245282,40C178.86792452830187,40,179.43396226415095,40,180,40L180,40C179.43396226415095,40,178.86792452830187,40,178.30188679245282,40C177.73584905660377,40,177.16981132075472,40,176.60377358490567,40C176.03773584905662,40,175.47169811320754,40,174.9056603773585,40C174.33962264150944,40,173.77358490566039,40,173.20754716981133,40C172.64150943396228,40,172.0754716981132,40,171.50943396226415,40C170.9433962264151,40,170.37735849056602,40,169.81132075471697,40C169.24528301886792,40,168.67924528301887,40,168.11320754716982,40C167.54716981132077,40,166.9811320754717,40,166.41509433962264,40C165.8490566037736,40,165.28301886792454,40,164.7169811320755,40C164.15094339622644,40,163.58490566037736,40,163.0188679245283,40C162.45283018867926,40,161.88679245283018,40,161.32075471698113,40C160.75471698113208,40,160.18867924528303,40,159.62264150943398,40C159.05660377358492,40,158.49056603773585,40,157.9245283018868,40C157.35849056603774,40,156.79245283018867,40,156.22641509433961,40C155.66037735849056,40,155.0943396226415,40,154.52830188679246,40C153.9622641509434,40,153.39622641509433,40,152.83018867924528,40C152.26415094339623,40,151.69811320754718,40,151.13207547169813,40C150.56603773584908,40,150,40,149.43396226415095,40C148.8679245283019,40,148.30188679245282,40,147.73584905660377,40C147.16981132075472,40,146.60377358490567,40,146.03773584905662,40C145.47169811320757,40,144.9056603773585,40,144.33962264150944,40C143.77358490566039,40,143.20754716981133,40,142.64150943396228,40C142.07547169811323,40,141.50943396226415,40,140.9433962264151,40C140.37735849056605,40,139.81132075471697,40,139.24528301886792,40C138.67924528301887,40,138.11320754716982,40,137.54716981132077,40C136.98113207547172,40,136.41509433962264,40,135.8490566037736,40C135.28301886792454,40,134.71698113207546,40,134.1509433962264,40C133.58490566037736,40,133.01886792452828,40,132.45283018867923,40C131.88679245283018,40,131.32075471698113,40,130.75471698113208,40C130.18867924528303,40,129.62264150943395,40,129.0566037735849,40C128.49056603773585,40,127.92452830188678,40,127.35849056603773,40C126.79245283018868,40,126.22641509433961,40,125.66037735849056,40C124.52830188679245,40,123.39622641509433,40,122.26415094339622,40C121.69811320754717,40,121.1320754716981,40,120.56603773584905,40C120,40,119.43396226415094,40,118.86792452830188,40C118.30188679245283,40,117.73584905660377,40,117.16981132075472,40C116.60377358490565,40,116.0377358490566,40,115.47169811320754,40C114.90566037735849,40,114.33962264150942,40,113.77358490566037,40C112.64150943396226,40,111.50943396226415,40,110.37735849056604,40C108.11320754716981,40,105.84905660377359,40,103.58490566037736,40C103.01886792452831,40,102.45283018867924,40,101.88679245283019,40C101.32075471698113,40,100.75471698113208,40,100.18867924528301,40C99.62264150943396,40,99.0566037735849,40,98.49056603773585,40C97.35849056603773,40,96.22641509433963,40,95.09433962264151,40C94.52830188679245,40,93.9622641509434,40,93.39622641509433,40C92.83018867924528,40,92.26415094339622,40,91.69811320754717,40C90.56603773584905,40,89.43396226415095,40,88.30188679245283,40C85.47169811320755,40,82.64150943396227,40,79.81132075471699,40C79.24528301886792,40,78.67924528301887,40,78.11320754716981,40C77.54716981132076,40,76.98113207547169,40,76.41509433962264,40C73.0188679245283,40,69.62264150943396,40,66.22641509433961,40C58.867924528301884,40,51.50943396226415,40,44.15094339622642,40C43.0188679245283,40,41.88679245283019,40,40.75471698113208,40C35.660377358490564,40,30.566037735849058,40,25.471698113207548,40C21.50943396226415,40,17.547169811320753,40,13.584905660377357,40C12.452830188679245,40,11.320754716981131,40,10.18867924528302,40C9.622641509433963,40,9.056603773584905,40,8.49056603773585,40C5.660377358490566,40,2.8301886792452833,40,0,40Z"></path><path class="line" stroke="black" fill="none" d="M0,36C2.8301886792452833,34,5.660377358490566,32,8.49056603773585,32C9.056603773584905,32,9.622641509433963,37.333333333333336,10.18867924528302,38C11.320754716981131,39.333333333333336,12.452830188679245,40,13.584905660377357,40C17.547169811320753,40,21.50943396226415,37.2037037037037,25.471698113207548,36C30.566037735849058,34.45238095238095,35.660377358490564,32,40.75471698113208,32C41.88679245283019,32,43.0188679245283,40,44.15094339622642,40C51.50943396226415,40,58.867924528301884,30,66.22641509433961,30C69.62264150943396,30,73.0188679245283,31.333333333333332,76.41509433962264,34C76.98113207547169,34.44444444444444,77.54716981132076,40,78.11320754716981,40C78.67924528301887,40,79.24528301886792,40,79.81132075471699,40C82.64150943396227,40,85.47169811320755,38,88.30188679245283,38C89.43396226415095,38,90.56603773584905,38,91.69811320754717,38C92.26415094339622,38,92.83018867924528,40,93.39622641509433,40C93.9622641509434,40,94.52830188679245,40,95.09433962264151,40C96.22641509433963,40,97.35849056603773,40,98.49056603773585,40C99.0566037735849,40,99.62264150943396,40,100.18867924528301,40C100.75471698113208,40,101.32075471698113,40,101.88679245283019,40C102.45283018867924,40,103.01886792452831,40,103.58490566037736,40C105.84905660377359,40,108.11320754716981,40,110.37735849056604,40C111.50943396226415,40,112.64150943396226,38,113.77358490566037,38C114.33962264150942,38,114.90566037735849,40,115.47169811320754,40C116.0377358490566,40,116.60377358490565,40,117.16981132075472,40C117.73584905660377,40,118.30188679245283,38,118.86792452830188,38C119.43396226415094,38,120,40,120.56603773584905,40C121.1320754716981,40,121.69811320754717,40,122.26415094339622,40C123.39622641509433,40,124.52830188679245,40,125.66037735849056,40C126.22641509433961,40,126.79245283018868,40,127.35849056603773,40C127.92452830188678,40,128.49056603773585,34,129.0566037735849,34C129.62264150943395,34,130.18867924528303,40,130.75471698113208,40C131.32075471698113,40,131.88679245283018,40,132.45283018867923,40C133.01886792452828,40,133.58490566037736,40,134.1509433962264,40C134.71698113207546,40,135.28301886792454,18,135.8490566037736,18C136.41509433962264,18,136.98113207547172,40,137.54716981132077,40C138.11320754716982,40,138.67924528301887,40,139.24528301886792,40C139.81132075471697,40,140.37735849056605,40,140.9433962264151,40C141.50943396226415,40,142.07547169811323,39.333333333333336,142.64150943396228,38C143.20754716981133,36.666666666666686,143.77358490566039,28,144.33962264150944,28C144.9056603773585,28,145.47169811320757,40,146.03773584905662,40C146.60377358490567,40,147.16981132075472,36,147.73584905660377,36C148.30188679245282,36,148.8679245283019,40,149.43396226415095,40C150,40,150.56603773584908,34,151.13207547169813,34C151.69811320754718,34,152.26415094339623,35.000000000000014,152.83018867924528,36C153.39622641509433,37,153.9622641509434,40,154.52830188679246,40C155.0943396226415,40,155.66037735849056,34,156.22641509433961,34C156.79245283018867,34,157.35849056603774,36,157.9245283018868,36C158.49056603773585,36,159.05660377358492,26,159.62264150943398,26C160.18867924528303,26,160.75471698113208,40,161.32075471698113,40C161.88679245283018,40,162.45283018867926,32,163.0188679245283,32C163.58490566037736,32,164.15094339622644,40,164.7169811320755,40C165.28301886792454,40,165.8490566037736,26,166.41509433962264,26C166.9811320754717,26,167.54716981132077,40,168.11320754716982,40C168.67924528301887,40,169.24528301886792,38,169.81132075471697,34C170.37735849056602,29.999999999999932,170.9433962264151,7.999999999999998,171.50943396226415,7.999999999999998C172.0754716981132,7.999999999999998,172.64150943396228,40,173.20754716981133,40C173.77358490566039,40,174.33962264150944,40,174.9056603773585,40C175.47169811320754,40,176.03773584905662,40,176.60377358490567,40C177.16981132075472,40,177.73584905660377,40,178.30188679245282,40C178.86792452830187,40,179.43396226415095,40,180,40"></path><path class="axis-ceiling" stroke-width="1" stroke="black" fill="none" d="M175,0L180,0"></path><text class="axis-ceiling-label" font-family="sans-serif" text-anchor="end" font-size="10px" x="170" y="2.5">20</text></g></svg>