<svg xmlns="http://www.w3.org/2000/svg" viewBox="0 0 180 60"><g transform="translate(0,20)"><path class="area" fill="rgba(0, 0, 0, 0.2)" d="M0,29.288888888888888C1.0169491525423728,29.204444444444444,2.0338983050847457,29.119999999999997,3.0508474576271185,29.04C4.067796610169491,28.96,5.084745762711864,28.887407407407405,6.101694915254237,28.808888888888887C7.11864406779661,28.73037037037037,8.135593220338983,28.64296296296296,9.152542372881356,28.56888888888889C10.169491525423728,28.494814814814816,11.186440677966102,28.43111111111111,12.203389830508474,28.364444444444445C13.220338983050846,28.297777777777778,14.23728813559322,28.23407407407408,15.254237288135592,28.168888888888894C16.271186440677965,28.103703703703708,17.28813559322034,28.032592592592597,18.305084745762713,27.973333333333336C19.322033898305087,27.914074074074076,20.338983050847457,27.868148148148148,21.35593220338983,27.813333333333333C22.372881355932204,27.758518518518517,23.389830508474574,27.69925925925926,24.406779661016948,27.644444444444446C25.423728813559322,27.58962962962963,26.440677966101696,27.54074074074074,27.45762711864407,27.484444444444446C28.47457627118644,27.42814814814815,29.491525423728813,27.37333333333333,30.508474576271183,27.306666666666665C31.525423728813557,27.24,32.54237288135593,27.16148148148148,33.559322033898304,27.084444444444443C34.57627118644068,27.007407407407406,35.59322033898305,26.93037037037037,36.610169491525426,26.844444444444445C37.6271186440678,26.75851851851852,38.644067796610166,26.65925925925926,39.66101694915254,26.568888888888893C40.67796610169491,26.478518518518523,41.69491525423729,26.391111111111112,42.71186440677966,26.302222222222223C43.728813559322035,26.213333333333335,44.7457627118644,26.125925925925923,45.762711864406775,26.035555555555554C46.77966101694915,25.945185185185185,47.79661016949152,25.85185185185185,48.813559322033896,25.76C49.83050847457627,25.668148148148152,50.847457627118644,25.576296296296302,51.86440677966102,25.48444444444445C52.88135593220339,25.392592592592596,53.898305084745765,25.294814814814817,54.91525423728814,25.20888888888889C55.93220338983051,25.122962962962962,56.94915254237288,25.04740740740741,57.96610169491525,24.96888888888889C58.983050847457626,24.890370370370373,59.99999999999999,24.814814814814817,61.01694915254237,24.73777777777778C62.03389830508474,24.660740740740742,63.05084745762712,24.58666666666667,64.0677966101695,24.506666666666668C65.08474576271186,24.42666666666667,66.10169491525424,24.337777777777777,67.11864406779661,24.25777777777778C68.13559322033899,24.177777777777777,69.15254237288136,24.111111111111114,70.16949152542374,24.026666666666667C71.1864406779661,23.942222222222224,72.20338983050848,23.848888888888887,73.22033898305085,23.751111111111108C74.23728813559322,23.65333333333333,75.2542372881356,23.554074074074077,76.27118644067797,23.440000000000005C77.28813559322033,23.325925925925933,78.30508474576271,23.191111111111113,79.32203389830508,23.066666666666666C80.33898305084746,22.94222222222222,81.35593220338983,22.825185185185187,82.37288135593221,22.693333333333335C83.38983050847457,22.561481481481483,84.40677966101696,22.4162962962963,85.42372881355932,22.275555555555556C86.4406779661017,22.134814814814813,87.45762711864407,22.00148148148148,88.47457627118645,21.848888888888887C89.49152542372882,21.696296296296296,90.50847457627118,21.52,91.52542372881355,21.36C92.54237288135593,21.2,93.55932203389831,21.035555555555554,94.57627118644069,20.888888888888886C95.59322033898306,20.74222222222222,96.61016949152543,20.610370370370372,97.62711864406779,20.48C98.64406779661016,20.34962962962963,99.66101694915254,20.23555555555555,100.6779661016949,20.106666666666662C101.69491525423729,19.977777777777774,102.71186440677965,19.835555555555555,103.72881355932203,19.706666666666667C104.7457627118644,19.57777777777778,105.76271186440678,19.45925925925926,106.77966101694915,19.333333333333332C107.79661016949153,19.207407407407405,108.8135593220339,19.075555555555557,109.83050847457628,18.95111111111111C110.84745762711864,18.826666666666668,111.86440677966102,18.708148148148148,112.88135593220339,18.586666666666666C113.89830508474576,18.465185185185184,114.91525423728814,18.374814814814815,115.9322033898305,18.222222222222225C116.94915254237289,18.06962962962963,117.96610169491525,17.8562962962963,118.98305084745763,17.671111111111113C120,17.48592592592593,121.01694915254237,17.296296296296298,122.03389830508473,17.111111111111114C123.05084745762711,16.925925925925927,124.0677966101695,16.749629629629634,125.08474576271188,16.560000000000002C126.10169491525424,16.370370370370374,127.11864406779662,16.17185185185185,128.135593220339,15.973333333333333C129.15254237288136,15.774814814814814,130.16949152542372,15.567407407407408,131.1864406779661,15.36888888888889C132.20338983050846,15.17037037037037,133.22033898305085,14.973333333333331,134.23728813559322,14.78222222222222C135.25423728813558,14.59111111111111,136.27118644067798,14.382222222222222,137.28813559322035,14.222222222222221C138.3050847457627,14.062222222222221,139.3220338983051,13.959999999999997,140.33898305084747,13.82222222222222C141.35593220338984,13.684444444444443,142.3728813559322,13.543703703703704,143.38983050847457,13.395555555555557C144.40677966101694,13.247407407407408,145.42372881355934,13.093333333333334,146.4406779661017,12.933333333333334C147.45762711864407,12.773333333333333,148.47457627118644,12.601481481481482,149.4915254237288,12.435555555555556C150.50847457627117,12.269629629629629,151.52542372881356,12.12148148148148,152.54237288135593,11.937777777777775C153.5593220338983,11.75407407407407,154.5762711864407,11.557037037037038,155.59322033898306,11.333333333333332C156.61016949152543,11.109629629629628,157.6271186440678,10.860740740740736,158.64406779661016,10.595555555555553C159.66101694915253,10.330370370370366,160.67796610169492,10.057777777777776,161.6949152542373,9.742222222222221C162.71186440677965,9.426666666666666,163.72881355932205,9.05037037037037,164.74576271186442,8.70222222222222C165.76271186440678,8.354074074074074,166.77966101694915,8.008888888888887,167.79661016949152,7.653333333333334C168.81355932203388,7.297777777777778,169.83050847457628,6.93777777777778,170.84745762711864,6.568888888888891C171.864406779661,6.200000000000002,172.8813559322034,5.810370370370371,173.89830508474577,5.44C174.91525423728814,5.06962962962963,175.93220338983053,4.684444444444447,176.9491525423729,4.346666666666668C177.96610169491527,4.008888888888892,178.98305084745763,3.7111111111111135,180,3.413333333333335L180,40C178.98305084745763,40,177.96610169491527,40,176.9491525423729,40C175.93220338983053,40,174.91525423728814,40,173.89830508474577,40C172.8813559322034,40,171.864406779661,40,170.84745762711864,40C169.83050847457628,40,168.81355932203388,40,167.79661016949152,40C166.77966101694915,40,165.76271186440678,40,164.74576271186442,40C163.72881355932205,40,162.71186440677965,40,161.6949152542373,40C160.67796610169492,40,159.66101694915253,40,158.64406779661016,40C157.6271186440678,40,156.61016949152543,40,155.59322033898306,40C154.5762711864407,40,153.5593220338983,40,152.54237288135593,40C151.52542372881356,40,150.50847457627117,40,149.4915254237288,40C148.47457627118644,40,147.45762711864407,40,146.4406779661017,40C145.42372881355934,40,144.40677966101694,40,143.38983050847457,40C142.3728813559322,40,141.35593220338984,40,140.33898305084747,40C139.3220338983051,40,138.3050847457627,40,137.28813559322035,40C136.27118644067798,40,135.25423728813558,40,134.23728813559322,40C133.22033898305085,40,132.20338983050846,40,131.1864406779661,40C130.16949152542372,40,129.15254237288136,40,128.135593220339,40C127.11864406779662,40,126.10169491525424,40,125.08474576271188,40C124.0677966101695,40,123.05084745762711,40,122.03389830508473,40C121.01694915254237,40,120,40,118.98305084745763,40C117.96610169491525,40,116.94915254237289,40,115.9322033898305,40C114.91525423728814,40,113.89830508474576,40,112.88135593220339,40C111.86440677966102,40,110.84745762711864,40,109.83050847457628,40C108.8135593220339,40,107.79661016949153,40,106.77966101694915,40C105.76271186440678,40,104.7457627118644,40,103.72881355932203,40C102.71186440677965,40,101.69491525423729,40,100.6779661016949,40C99.66101694915254,40,98.64406779661016,40,97.62711864406779,40C96.61016949152543,40,95.59322033898306,40,94.57627118644069,40C93.55932203389831,40,92.54237288135593,40,91.52542372881355,40C90.50847457627118,40,89.49152542372882,40,88.47457627118645,40C87.45762711864407,40,86.4406779661017,40,85.42372881355932,40C84.40677966101696,40,83.38983050847457,40,82.37288135593221,40C81.35593220338983,40,80.33898305084746,40,79.32203389830508,40C78.30508474576271,40,77.28813559322033,40,76.27118644067797,40C75.2542372881356,40,74.23728813559322,40,73.22033898305085,40C72.20338983050848,40,71.1864406779661,40,70.16949152542374,40C69.15254237288136,40,68.13559322033899,40,67.11864406779661,40C66.10169491525424,40,65.08474576271186,40,64.0677966101695,40C63.05084745762712,40,62.03389830508474,40,61.01694915254237,40C59.99999999999999,40,58.983050847457626,40,57.96610169491525,40C56.94915254237288,40,55.93220338983051,40,54.91525423728814,40C53.898305084745765,40,52.88135593220339,40,51.86440677966102,40C50.847457627118644,40,49.83050847457627,40,48.813559322033896,40C47.79661016949152,40,46.77966101694915,40,45.762711864406775,40C44.7457627118644,40,43.728813559322035,40,42.71186440677966,40C41.69491525423729,40,40.67796610169491,40,39.66101694915254,40C38.644067796610166,40,37.6271186440678,40,36.610169491525426,40C35.59322033898305,40,34.57627118644068,40,33.559322033898304,40C32.54237288135593,40,31.525423728813557,40,30.508474576271183,40C29.491525423728813,40,28.47457627118644,40,27.45762711864407,40C26.440677966101696,40,25.423728813559322,40,24.406779661016948,40C23.389830508474574,40,22.372881355932204,40,21.35593220338983,40C20.338983050847457,40,19.322033898305087,40,18.305084745762713,40C17.28813559322034,40,16.271186440677965,40,15.254237288135592,40C14.23728813559322,40,13.220338983050846,40,12.203389830508474,40C11.186440677966102,40,10.169491525423728,40,9.152542372881356,40C8.135593220338983,40,7.11864406779661,40,6.101694915254237,40C5.084745762711864,40,4.067796610169491,40,3.0508474576271185,40C2.0338983050847457,40,1.0169491525423728,40,0,40Z"></path><path class="line" stroke="black" fill="none" d="M0,29.288888888888888C1.0169491525423728,29.204444444444444,2.0338983050847457,29.119999999999997,3.0508474576271185,29.04C4.067796610169491,28.96,5.084745762711864,28.887407407407405,6.101694915254237,28.808888888888887C7.11864406779661,28.73037037037037,8.135593220338983,28.64296296296296,9.152542372881356,28.56888888888889C10.169491525423728,28.494814814814816,11.186440677966102,28.43111111111111,12.203389830508474,28.364444444444445C13.220338983050846,28.297777777777778,14.23728813559322,28.23407407407408,15.254237288135592,28.168888888888894C16.271186440677965,28.103703703703708,17.28813559322034,28.032592592592597,18.305084745762713,27.973333333333336C19.322033898305087,27.914074074074076,20.338983050847457,27.868148148148148,21.35593220338983,27.813333333333333C22.372881355932204,27.758518518518517,23.389830508474574,27.69925925925926,24.406779661016948,27.644444444444446C25.423728813559322,27.58962962962963,26.440677966101696,27.54074074074074,27.45762711864407,27.484444444444446C28.47457627118644,27.42814814814815,29.491525423728813,27.37333333333333,30.508474576271183,27.306666666666665C31.525423728813557,27.24,32.54237288135593,27.16148148148148,33.559322033898304,27.084444444444443C34.57627118644068,27.007407407407406,35.59322033898305,26.93037037037037,36.610169491525426,26.844444444444445C37.6271186440678,26.75851851851852,38.644067796610166,26.65925925925926,39.66101694915254,26.568888888888893C40.67796610169491,26.478518518518523,41.69491525423729,26.391111111111112,42.71186440677966,26.302222222222223C43.728813559322035,26.213333333333335,44.7457627118644,26.125925925925923,45.762711864406775,26.035555555555554C46.77966101694915,25.945185185185185,47.79661016949152,25.85185185185185,48.813559322033896,25.76C49.83050847457627,25.668148148148152,50.847457627118644,25.576296296296302,51.86440677966102,25.48444444444445C52.88135593220339,25.392592592592596,53.898305084745765,25.294814814814817,54.91525423728814,25.20888888888889C55.93220338983051,25.122962962962962,56.94915254237288,25.04740740740741,57.96610169491525,24.96888888888889C58.983050847457626,24.890370370370373,59.99999999999999,24.814814814814817,61.01694915254237,24.73777777777778C62.03389830508474,24.660740740740742,63.05084745762712,24.58666666666667,64.0677966101695,24.506666666666668C65.08474576271186,24.42666666666667,66.10169491525424,24.337777777777777,67.11864406779661,24.25777777777778C68.13559322033899,24.177777777777777,69.15254237288136,24.111111111111114,70.16949152542374,24.026666666666667C71.1864406779661,23.942222222222224,72.20338983050848,23.848888888888887,73.22033898305085,23.751111111111108C74.23728813559322,23.65333333333333,75.2542372881356,23.554074074074077,76.27118644067797,23.440000000000005C77.28813559322033,23.325925925925933,78.30508474576271,23.191111111111113,79.32203389830508,23.066666666666666C80.33898305084746,22.94222222222222,81.35593220338983,22.825185185185187,82.37288135593221,22.693333333333335C83.38983050847457,22.561481481481483,84.40677966101696,22.4162962962963,85.42372881355932,22.275555555555556C86.4406779661017,22.134814814814813,87.45762711864407,22.00148148148148,88.47457627118645,21.848888888888887C89.49152542372882,21.696296296296296,90.50847457627118,21.52,91.52542372881355,21.36C92.54237288135593,21.2,93.55932203389831,21.035555555555554,94.57627118644069,20.888888888888886C95.59322033898306,20.74222222222222,96.61016949152543,20.610370370370372,97.62711864406779,20.48C98.64406779661016,20.34962962962963,99.66101694915254,20.23555555555555,100.6779661016949,20.106666666666662C101.69491525423729,19.977777777777774,102.71186440677965,19.835555555555555,103.72881355932203,19.706666666666667C104.7457627118644,19.57777777777778,105.76271186440678,19.45925925925926,106.77966101694915,19.333333333333332C107.79661016949153,19.207407407407405,108.8135593220339,19.075555555555557,109.83050847457628,18.95111111111111C110.84745762711864,18.826666666666668,111.86440677966102,18.708148148148148,112.88135593220339,18.586666666666666C113.89830508474576,18.465185185185184,114.91525423728814,18.374814814814815,115.9322033898305,18.222222222222225C116.94915254237289,18.06962962962963,117.96610169491525,17.8562962962963,118.98305084745763,17.671111111111113C120,17.48592592592593,121.01694915254237,17.296296296296298,122.03389830508473,17.111111111111114C123.05084745762711,16.925925925925927,124.0677966101695,16.749629629629634,125.08474576271188,16.560000000000002C126.10169491525424,16.370370370370374,127.11864406779662,16.17185185185185,128.135593220339,15.973333333333333C129.15254237288136,15.774814814814814,130.16949152542372,15.567407407407408,131.1864406779661,15.36888888888889C132.20338983050846,15.17037037037037,133.22033898305085,14.973333333333331,134.23728813559322,14.78222222222222C135.25423728813558,14.59111111111111,136.27118644067798,14.382222222222222,137.28813559322035,14.222222222222221C138.3050847457627,14.062222222222221,139.3220338983051,13.959999999999997,140.33898305084747,13.82222222222222C141.35593220338984,13.684444444444443,142.3728813559322,13.543703703703704,143.38983050847457,13.395555555555557C144.40677966101694,13.247407407407408,145.42372881355934,13.093333333333334,146.4406779661017,12.933333333333334C147.45762711864407,12.773333333333333,148.47457627118644,12.601481481481482,149.4915254237288,12.435555555555556C150.50847457627117,12.269629629629629,151.52542372881356,12.12148148148148,152.54237288135593,11.937777777777775C153.5593220338983,11.75407407407407,154.5762711864407,11.557037037037038,155.59322033898306,11.333333333333332C156.61016949152543,11.109629629629628,157.6271186440678,10.860740740740736,158.64406779661016,10.595555555555553C159.66101694915253,10.330370370370366,160.67796610169492,10.057777777777776,161.6949152542373,9.742222222222221C162.71186440677965,9.426666666666666,163.72881355932205,9.05037037037037,164.74576271186442,8.70222222222222C165.76271186440678,8.354074074074074,166.77966101694915,8.008888888888887,167.79661016949152,7.653333333333334C168.81355932203388,7.297777777777778,169.83050847457628,6.93777777777778,170.84745762711864,6.568888888888891C171.864406779661,6.200000000000002,172.8813559322034,5.810370370370371,173.89830508474577,5.44C174.91525423728814,5.06962962962963,175.93220338983053,4.684444444444447,176.9491525423729,4.346666666666668C177.96610169491527,4.008888888888892,178.98305084745763,3.7111111111111135,180,3.413333333333335"></path><path class="axis-ceiling" stroke-width="1" stroke="black" fill="none" d="M175,0L180,0"></path><text class="axis-ceiling-label" font-family="sans-serif" text-anchor="end" font-size="10px" x="170" y="2.5">4500</text></g></svg>