<svg xmlns="http://www.w3.org/2000/svg" viewBox="0 0 180 60"><g transform="translate(0,20)"><path class="area" fill="rgba(0, 0, 0, 0.2)" d="M0,15.600000000000001C4.285714285714286,15.551428571428573,8.57142857142857,15.502857142857145,12.857142857142856,15.440000000000001C14.571428571428571,15.414857142857144,16.285714285714285,15.413333333333334,18,15.36C18.857142857142858,15.333333333333332,19.71428571428571,15.239999999999998,20.57142857142857,15.2C21.428571428571427,15.16,22.28571428571428,15.120000000000001,23.14285714285714,15.120000000000001C24.857142857142854,15.120000000000001,26.57142857142857,15.120000000000001,28.285714285714285,15.120000000000001C29.142857142857142,15.120000000000001,30,15.120000000000001,30.857142857142858,15.120000000000001C31.714285714285715,15.120000000000001,32.57142857142857,15.120000000000001,33.42857142857143,15.120000000000001C34.285714285714285,15.120000000000001,35.142857142857146,15.04,36,15.04C39.42857142857142,15.04,42.857142857142854,15.04,46.28571428571428,15.04C47.99999999999999,15.04,49.71428571428571,15.04,51.42857142857142,15.04C52.285714285714285,15.04,53.14285714285714,15.04,54,15.04C54.857142857142854,15.04,55.714285714285715,15.04,56.57142857142857,15.04C57.42857142857143,15.04,58.285714285714285,15.04,59.142857142857146,15.04C60,15.04,60.85714285714286,14.96,61.714285714285715,14.96C62.57142857142858,14.96,63.42857142857143,14.96,64.28571428571429,14.96C66,14.96,67.71428571428572,14.96,69.42857142857143,14.96C70.28571428571429,14.96,71.14285714285714,14.96,72,14.96C72.85714285714286,14.96,73.71428571428571,14.879999999999999,74.57142857142857,14.879999999999999C75.42857142857143,14.879999999999999,76.28571428571428,14.879999999999999,77.14285714285714,14.879999999999999C78,14.879999999999999,78.85714285714285,14.8,79.71428571428571,14.8C80.57142857142857,14.8,81.42857142857142,14.8,82.28571428571428,14.8C83.14285714285714,14.8,84,14.693333333333333,84.85714285714286,14.64C85.71428571428572,14.586666666666668,86.57142857142857,14.533333333333333,87.42857142857143,14.48C88.28571428571429,14.426666666666668,89.14285714285714,14.373333333333333,90,14.32C90.85714285714285,14.266666666666667,91.71428571428571,14.213333333333333,92.57142857142856,14.16C93.42857142857142,14.106666666666666,94.28571428571428,14.053333333333333,95.14285714285714,14C96,13.946666666666667,96.85714285714285,13.906666666666666,97.71428571428571,13.84C98.57142857142857,13.773333333333333,99.42857142857143,13.65333333333333,100.28571428571429,13.599999999999998C101.14285714285714,13.546666666666665,102,13.546666666666667,102.85714285714285,13.52C103.71428571428571,13.493333333333332,104.57142857142857,13.479999999999999,105.42857142857143,13.439999999999998C106.28571428571429,13.399999999999997,107.14285714285714,13.33333333333333,108,13.279999999999998C108.85714285714286,13.226666666666665,109.71428571428572,13.173333333333332,110.57142857142858,13.119999999999997C111.42857142857143,13.066666666666665,112.28571428571429,12.999999999999996,113.14285714285714,12.959999999999997C114,12.919999999999996,114.85714285714286,12.919999999999998,115.71428571428572,12.879999999999999C116.57142857142858,12.84,117.42857142857143,12.773333333333332,118.28571428571429,12.719999999999999C119.14285714285714,12.666666666666666,120,12.626666666666665,120.85714285714285,12.559999999999999C121.71428571428571,12.493333333333332,122.57142857142857,12.386666666666668,123.42857142857143,12.320000000000002C124.28571428571428,12.253333333333336,125.14285714285714,12.226666666666668,125.99999999999999,12.160000000000002C126.85714285714285,12.093333333333335,127.71428571428572,12.000000000000002,128.57142857142858,11.920000000000002C129.42857142857144,11.840000000000002,130.28571428571428,11.760000000000002,131.14285714285714,11.680000000000001C132,11.600000000000001,132.85714285714286,11.520000000000001,133.71428571428572,11.440000000000001C134.57142857142858,11.360000000000001,135.42857142857142,11.293333333333333,136.28571428571428,11.200000000000001C137.14285714285714,11.106666666666667,138,10.986666666666668,138.85714285714286,10.88C139.71428571428572,10.773333333333335,140.57142857142856,10.666666666666666,141.42857142857142,10.56C142.28571428571428,10.453333333333333,143.14285714285714,10.346666666666668,144,10.24C144.85714285714286,10.133333333333333,145.71428571428572,10.013333333333334,146.57142857142858,9.92C147.42857142857144,9.826666666666668,148.28571428571428,9.746666666666666,149.14285714285714,9.68C150,9.613333333333333,150.85714285714286,9.586666666666666,151.71428571428572,9.52C152.57142857142858,9.453333333333333,153.42857142857142,9.28,154.28571428571428,9.28C155.14285714285714,9.28,156,9.28,156.85714285714286,9.28C157.71428571428572,9.28,158.57142857142856,9.28,159.42857142857142,9.28C160.28571428571428,9.28,161.14285714285714,9.28,162,9.28C162.85714285714286,9.28,163.7142857142857,9.28,164.57142857142856,9.28C165.42857142857142,9.28,166.28571428571428,9.28,167.14285714285714,9.28C168,9.28,168.85714285714286,8.719999999999999,169.71428571428572,8.319999999999999C170.57142857142858,7.919999999999999,171.42857142857144,7.360000000000004,172.2857142857143,6.880000000000002C173.14285714285717,6.400000000000005,174,5.919999999999998,174.85714285714286,5.44C175.71428571428572,4.959999999999997,176.57142857142858,4.533333333333336,177.42857142857144,3.999999999999999C178.2857142857143,3.4666666666666686,179.14285714285714,2.8533333333333353,180,2.240000000000002L180,40C179.14285714285714,40,178.2857142857143,40,177.42857142857144,40C176.57142857142858,40,175.71428571428572,40,174.85714285714286,40C174,40,173.14285714285717,40,172.2857142857143,40C171.42857142857144,40,170.57142857142858,40,169.71428571428572,40C168.85714285714286,40,168,40,167.14285714285714,40C166.28571428571428,40,165.42857142857142,40,164.57142857142856,40C163.7142857142857,40,162.85714285714286,40,162,40C161.14285714285714,40,160.28571428571428,40,159.42857142857142,40C158.57142857142856,40,157.71428571428572,40,156.85714285714286,40C156,40,155.14285714285714,40,154.28571428571428,40C153.42857142857142,40,152.57142857142858,40,151.71428571428572,40C150.85714285714286,40,150,40,149.14285714285714,40C148.28571428571428,40,147.42857142857144,40,146.57142857142858,40C145.71428571428572,40,144.85714285714286,40,144,40C143.14285714285714,40,142.28571428571428,40,141.42857142857142,40C140.57142857142856,40,139.71428571428572,40,138.85714285714286,40C138,40,137.14285714285714,40,136.28571428571428,40C135.42857142857142,40,134.57142857142858,40,133.71428571428572,40C132.85714285714286,40,132,40,131.14285714285714,40C130.28571428571428,40,129.42857142857144,40,128.57142857142858,40C127.71428571428572,40,126.85714285714285,40,125.99999999999999,40C125.14285714285714,40,124.28571428571428,40,123.42857142857143,40C122.57142857142857,40,121.71428571428571,40,120.85714285714285,40C120,40,119.14285714285714,40,118.28571428571429,40C117.42857142857143,40,116.57142857142858,40,115.71428571428572,40C114.85714285714286,40,114,40,113.14285714285714,40C112.28571428571429,40,111.42857142857143,40,110.57142857142858,40C109.71428571428572,40,108.85714285714286,40,108,40C107.14285714285714,40,106.28571428571429,40,105.42857142857143,40C104.57142857142857,40,103.71428571428571,40,102.85714285714285,40C102,40,101.14285714285714,40,100.28571428571429,40C99.42857142857143,40,98.57142857142857,40,97.71428571428571,40C96.85714285714285,40,96,40,95.14285714285714,40C94.28571428571428,40,93.42857142857142,40,92.57142857142856,40C91.71428571428571,40,90.85714285714285,40,90,40C89.14285714285714,40,88.28571428571429,40,87.42857142857143,40C86.57142857142857,40,85.71428571428572,40,84.85714285714286,40C84,40,83.14285714285714,40,82.28571428571428,40C81.42857142857142,40,80.57142857142857,40,79.71428571428571,40C78.85714285714285,40,78,40,77.14285714285714,40C76.28571428571428,40,75.42857142857143,40,74.57142857142857,40C73.71428571428571,40,72.85714285714286,40,72,40C71.14285714285714,40,70.28571428571429,40,69.42857142857143,40C67.71428571428572,40,66,40,64.28571428571429,40C63.42857142857143,40,62.57142857142858,40,61.714285714285715,40C60.85714285714286,40,60,40,59.142857142857146,40C58.285714285714285,40,57.42857142857143,40,56.57142857142857,40C55.714285714285715,40,54.857142857142854,40,54,40C53.14285714285714,40,52.285714285714285,40,51.42857142857142,40C49.71428571428571,40,47.99999999999999,40,46.28571428571428,40C42.857142857142854,40,39.42857142857142,40,36,40C35.142857142857146,40,34.285714285714285,40,33.42857142857143,40C32.57142857142857,40,31.714285714285715,40,30.857142857142858,40C30,40,29.142857142857142,40,28.285714285714285,40C26.57142857142857,40,24.857142857142854,40,23.14285714285714,40C22.28571428571428,40,21.428571428571427,40,20.57142857142857,40C19.71428571428571,40,18.857142857142858,40,18,40C16.285714285714285,40,14.571428571428571,40,12.857142857142856,40C8.57142857142857,40,4.285714285714286,40,0,40Z"></path><path class="line" stroke="black" fill="none" d="M0,15.600000000000001C4.285714285714286,15.551428571428573,8.57142857142857,15.502857142857145,12.857142857142856,15.440000000000001C14.571428571428571,15.414857142857144,16.285714285714285,15.413333333333334,18,15.36C18.857142857142858,15.333333333333332,19.71428571428571,15.239999999999998,20.57142857142857,15.2C21.428571428571427,15.16,22.28571428571428,15.120000000000001,23.14285714285714,15.120000000000001C24.857142857142854,15.120000000000001,26.57142857142857,15.120000000000001,28.285714285714285,15.120000000000001C29.142857142857142,15.120000000000001,30,15.120000000000001,30.857142857142858,15.120000000000001C31.714285714285715,15.120000000000001,32.57142857142857,15.120000000000001,33.42857142857143,15.120000000000001C34.285714285714285,15.120000000000001,35.142857142857146,15.04,36,15.04C39.42857142857142,15.04,42.857142857142854,15.04,46.28571428571428,15.04C47.99999999999999,15.04,49.71428571428571,15.04,51.42857142857142,15.04C52.285714285714285,15.04,53.14285714285714,15.04,54,15.04C54.857142857142854,15.04,55.714285714285715,15.04,56.57142857142857,15.04C57.42857142857143,15.04,58.285714285714285,15.04,59.142857142857146,15.04C60,15.04,60.85714285714286,14.96,61.714285714285715,14.96C62.57142857142858,14.96,63.42857142857143,14.96,64.28571428571429,14.96C66,14.96,67.71428571428572,14.96,69.42857142857143,14.96C70.28571428571429,14.96,71.14285714285714,14.96,72,14.96C72.85714285714286,14.96,73.71428571428571,14.879999999999999,74.57142857142857,14.879999999999999C75.42857142857143,14.879999999999999,76.28571428571428,14.879999999999999,77.14285714285714,14.879999999999999C78,14.879999999999999,78.85714285714285,14.8,79.71428571428571,14.8C80.57142857142857,14.8,81.42857142857142,14.8,82.28571428571428,14.8C83.14285714285714,14.8,84,14.693333333333333,84.85714285714286,14.64C85.71428571428572,14.586666666666668,86.57142857142857,14.533333333333333,87.42857142857143,14.48C88.28571428571429,14.426666666666668,89.14285714285714,14.373333333333333,90,14.32C90.85714285714285,14.266666666666667,91.71428571428571,14.213333333333333,92.57142857142856,14.16C93.42857142857142,14.106666666666666,94.28571428571428,14.053333333333333,95.14285714285714,14C96,13.946666666666667,96.85714285714285,13.906666666666666,97.71428571428571,13.84C98.57142857142857,13.773333333333333,99.42857142857143,13.65333333333333,100.28571428571429,13.599999999999998C101.14285714285714,13.546666666666665,102,13.546666666666667,102.85714285714285,13.52C103.71428571428571,13.493333333333332,104.57142857142857,13.479999999999999,105.42857142857143,13.439999999999998C106.28571428571429,13.399999999999997,107.14285714285714,13.33333333333333,108,13.279999999999998C108.85714285714286,13.226666666666665,109.71428571428572,13.173333333333332,110.57142857142858,13.119999999999997C111.42857142857143,13.066666666666665,112.28571428571429,12.999999999999996,113.14285714285714,12.959999999999997C114,12.919999999999996,114.85714285714286,12.919999999999998,115.71428571428572,12.879999999999999C116.57142857142858,12.84,117.42857142857143,12.773333333333332,118.28571428571429,12.719999999999999C119.14285714285714,12.666666666666666,120,12.626666666666665,120.85714285714285,12.559999999999999C121.71428571428571,12.493333333333332,122.57142857142857,12.386666666666668,123.42857142857143,12.320000000000002C124.28571428571428,12.253333333333336,125.14285714285714,12.226666666666668,125.99999999999999,12.160000000000002C126.85714285714285,12.093333333333335,127.71428571428572,12.000000000000002,128.57142857142858,11.920000000000002C129.42857142857144,11.840000000000002,130.28571428571428,11.760000000000002,131.14285714285714,11.680000000000001C132,11.600000000000001,132.85714285714286,11.520000000000001,133.71428571428572,11.440000000000001C134.57142857142858,11.360000000000001,135.42857142857142,11.293333333333333,136.28571428571428,11.200000000000001C137.14285714285714,11.106666666666667,138,10.986666666666668,138.85714285714286,10.88C139.71428571428572,10.773333333333335,140.57142857142856,10.666666666666666,141.42857142857142,10.56C142.28571428571428,10.453333333333333,143.14285714285714,10.346666666666668,144,10.24C144.85714285714286,10.133333333333333,145.71428571428572,10.013333333333334,146.57142857142858,9.92C147.42857142857144,9.826666666666668,148.28571428571428,9.746666666666666,149.14285714285714,9.68C150,9.613333333333333,150.85714285714286,9.586666666666666,151.71428571428572,9.52C152.57142857142858,9.453333333333333,153.42857142857142,9.28,154.28571428571428,9.28C155.14285714285714,9.28,156,9.28,156.85714285714286,9.28C157.71428571428572,9.28,158.57142857142856,9.28,159.42857142857142,9.28C160.28571428571428,9.28,161.14285714285714,9.28,162,9.28C162.85714285714286,9.28,163.7142857142857,9.28,164.57142857142856,9.28C165.42857142857142,9.28,166.28571428571428,9.28,167.14285714285714,9.28C168,9.28,168.85714285714286,8.719999999999999,169.71428571428572,8.319999999999999C170.57142857142858,7.919999999999999,171.42857142857144,7.360000000000004,172.2857142857143,6.880000000000002C173.14285714285717,6.400000000000005,174,5.919999999999998,174.85714285714286,5.44C175.71428571428572,4.959999999999997,176.57142857142858,4.533333333333336,177.42857142857144,3.999999999999999C178.2857142857143,3.4666666666666686,179.14285714285714,2.8533333333333353,180,2.240000000000002"></path><path class="axis-ceiling" stroke-width="1" stroke="black" fill="none" d="M175,0L180,0"></path><text class="axis-ceiling-label" font-family="sans-serif" text-anchor="end" font-size="10px" x="170" y="2.5">500</text></g></svg>