<svg xmlns="http://www.w3.org/2000/svg" viewBox="0 0 180 60"><g transform="translate(0,20)"><path class="area" fill="rgba(0, 0, 0, 0.2)" d="M0,32.0428C1.0169491525423728,31.917366666666666,2.0338983050847457,31.791933333333336,3.0508474576271185,31.6548C4.067796610169491,31.517666666666667,5.084745762711864,31.373666666666665,6.101694915254237,31.22C7.11864406779661,31.066333333333333,8.135593220338983,30.898666666666667,9.152542372881356,30.7328C10.169491525423728,30.566933333333335,11.186440677966102,30.398066666666665,12.203389830508474,30.2248C13.220338983050846,30.05153333333333,14.23728813559322,29.873866666666665,15.254237288135592,29.693199999999997C16.271186440677965,29.51253333333333,17.28813559322034,29.325533333333336,18.305084745762713,29.140800000000002C19.322033898305087,28.95606666666667,20.338983050847457,28.77166666666667,21.35593220338983,28.5848C22.372881355932204,28.397933333333334,23.389830508474574,28.20993333333334,24.406779661016948,28.019600000000004C25.423728813559322,27.82926666666667,26.440677966101696,27.634533333333334,27.45762711864407,27.4428C28.47457627118644,27.251066666666663,29.491525423728813,27.058133333333334,30.508474576271183,26.8692C31.525423728813557,26.680266666666665,32.54237288135593,26.49406666666666,33.559322033898304,26.309199999999997C34.57627118644068,26.124333333333333,35.59322033898305,25.941066666666668,36.610169491525426,25.76C37.6271186440678,25.578933333333335,38.644067796610166,25.399800000000003,39.66101694915254,25.222800000000003C40.67796610169491,25.045800000000003,41.69491525423729,24.866333333333333,42.71186440677966,24.698C43.728813559322035,24.529666666666667,44.7457627118644,24.368466666666666,45.762711864406775,24.2128C46.77966101694915,24.057133333333336,47.79661016949152,23.906533333333336,48.813559322033896,23.764000000000003C49.83050847457627,23.62146666666667,50.847457627118644,23.490266666666667,51.86440677966102,23.3576C52.88135593220339,23.224933333333336,53.898305084745765,23.09253333333334,54.91525423728814,22.968000000000004C55.93220338983051,22.84346666666667,56.94915254237288,22.722933333333334,57.96610169491525,22.6104C58.983050847457626,22.497866666666663,59.99999999999999,22.3924,61.01694915254237,22.2928C62.03389830508474,22.1932,63.05084745762712,22.103666666666665,64.0677966101695,22.0128C65.08474576271186,21.92193333333333,66.10169491525424,21.8342,67.11864406779661,21.7476C68.13559322033899,21.660999999999998,69.15254237288136,21.5764,70.16949152542374,21.493199999999998C71.1864406779661,21.409999999999997,72.20338983050848,21.32353333333333,73.22033898305085,21.248399999999997C74.23728813559322,21.173266666666663,75.2542372881356,21.109733333333335,76.27118644067797,21.0424C77.28813559322033,20.975066666666667,78.30508474576271,20.909933333333335,79.32203389830508,20.8444C80.33898305084746,20.778866666666666,81.35593220338983,20.716866666666668,82.37288135593221,20.6492C83.38983050847457,20.581533333333333,84.40677966101696,20.506,85.42372881355932,20.4384C86.4406779661017,20.3708,87.45762711864407,20.308466666666664,88.47457627118645,20.243599999999997C89.49152542372882,20.17873333333333,90.50847457627118,20.113133333333334,91.52542372881355,20.049200000000003C92.54237288135593,19.98526666666667,93.55932203389831,19.930200000000003,94.57627118644069,19.860000000000003C95.59322033898306,19.789800000000003,96.61016949152543,19.7074,97.62711864406779,19.628C98.64406779661016,19.5486,99.66101694915254,19.462666666666664,100.6779661016949,19.383599999999998C101.69491525423729,19.30453333333333,102.71186440677965,19.226666666666667,103.72881355932203,19.1536C104.7457627118644,19.080533333333335,105.76271186440678,19.017533333333333,106.77966101694915,18.9452C107.79661016949153,18.872866666666667,108.8135593220339,18.79253333333333,109.83050847457628,18.7196C110.84745762711864,18.64666666666667,111.86440677966102,18.577133333333336,112.88135593220339,18.507600000000004C113.89830508474576,18.43806666666667,114.91525423728814,18.369333333333334,115.9322033898305,18.3024C116.94915254237289,18.235466666666664,117.96610169491525,18.165933333333335,118.98305084745763,18.106C120,18.04606666666667,121.01694915254237,18.000133333333334,122.03389830508473,17.942800000000002C123.05084745762711,17.885466666666666,124.0677966101695,17.820199999999996,125.08474576271188,17.761999999999997C126.10169491525424,17.703799999999998,127.11864406779662,17.651266666666668,128.135593220339,17.593600000000002C129.15254237288136,17.535933333333336,130.16949152542372,17.47886666666667,131.1864406779661,17.416C132.20338983050846,17.353133333333332,133.22033898305085,17.284466666666667,134.23728813559322,17.2164C135.25423728813558,17.148333333333333,136.27118644067798,17.094466666666662,137.28813559322035,17.007599999999996C138.3050847457627,16.92073333333333,139.3220338983051,16.8046,140.33898305084747,16.6952C141.35593220338984,16.585800000000003,142.3728813559322,16.467266666666667,143.38983050847457,16.351200000000002C144.40677966101694,16.235133333333337,145.42372881355934,16.118933333333338,146.4406779661017,15.998800000000003C147.45762711864407,15.87866666666667,148.47457627118644,15.754,149.4915254237288,15.6304C150.50847457627117,15.506799999999998,151.52542372881356,15.385066666666667,152.54237288135593,15.257200000000001C153.5593220338983,15.129333333333335,154.5762711864407,14.999133333333335,155.59322033898306,14.8632C156.61016949152543,14.727266666666669,157.6271186440678,14.567666666666668,158.64406779661016,14.441600000000001C159.66101694915253,14.315533333333335,160.67796610169492,14.222400000000002,161.6949152542373,14.106800000000002C162.71186440677965,13.991200000000001,163.72881355932205,13.872933333333336,164.74576271186442,13.748000000000001C165.76271186440678,13.623066666666668,166.77966101694915,13.492133333333332,167.79661016949152,13.357199999999999C168.81355932203388,13.222266666666664,169.83050847457628,13.098399999999998,170.84745762711864,12.938399999999998C171.864406779661,12.778399999999998,172.8813559322034,12.593266666666668,173.89830508474577,12.397200000000002C174.91525423728814,12.201133333333335,175.93220338983053,11.988333333333335,176.9491525423729,11.762C177.96610169491527,11.535666666666668,178.98305084745763,11.287433333333334,180,11.039200000000001L180,40C178.98305084745763,40,177.96610169491527,40,176.9491525423729,40C175.93220338983053,40,174.91525423728814,40,173.89830508474577,40C172.8813559322034,40,171.864406779661,40,170.84745762711864,40C169.83050847457628,40,168.81355932203388,40,167.79661016949152,40C166.77966101694915,40,165.76271186440678,40,164.74576271186442,40C163.72881355932205,40,162.71186440677965,40,161.6949152542373,40C160.67796610169492,40,159.66101694915253,40,158.64406779661016,40C157.6271186440678,40,156.61016949152543,40,155.59322033898306,40C154.5762711864407,40,153.5593220338983,40,152.54237288135593,40C151.52542372881356,40,150.50847457627117,40,149.4915254237288,40C148.47457627118644,40,147.45762711864407,40,146.4406779661017,40C145.42372881355934,40,144.40677966101694,40,143.38983050847457,40C142.3728813559322,40,141.35593220338984,40,140.33898305084747,40C139.3220338983051,40,138.3050847457627,40,137.28813559322035,40C136.27118644067798,40,135.25423728813558,40,134.23728813559322,40C133.22033898305085,40,132.20338983050846,40,131.1864406779661,40C130.16949152542372,40,129.15254237288136,40,128.135593220339,40C127.11864406779662,40,126.10169491525424,40,125.08474576271188,40C124.0677966101695,40,123.05084745762711,40,122.03389830508473,40C121.01694915254237,40,120,40,118.98305084745763,40C117.96610169491525,40,116.94915254237289,40,115.9322033898305,40C114.91525423728814,40,113.89830508474576,40,112.88135593220339,40C111.86440677966102,40,110.84745762711864,40,109.83050847457628,40C108.8135593220339,40,107.79661016949153,40,106.77966101694915,40C105.76271186440678,40,104.7457627118644,40,103.72881355932203,40C102.71186440677965,40,101.69491525423729,40,100.6779661016949,40C99.66101694915254,40,98.64406779661016,40,97.62711864406779,40C96.61016949152543,40,95.59322033898306,40,94.57627118644069,40C93.55932203389831,40,92.54237288135593,40,91.52542372881355,40C90.50847457627118,40,89.49152542372882,40,88.47457627118645,40C87.45762711864407,40,86.4406779661017,40,85.42372881355932,40C84.40677966101696,40,83.38983050847457,40,82.37288135593221,40C81.35593220338983,40,80.33898305084746,40,79.32203389830508,40C78.30508474576271,40,77.28813559322033,40,76.27118644067797,40C75.2542372881356,40,74.23728813559322,40,73.22033898305085,40C72.20338983050848,40,71.1864406779661,40,70.16949152542374,40C69.15254237288136,40,68.13559322033899,40,67.11864406779661,40C66.10169491525424,40,65.08474576271186,40,64.0677966101695,40C63.05084745762712,40,62.03389830508474,40,61.01694915254237,40C59.99999999999999,40,58.983050847457626,40,57.96610169491525,40C56.94915254237288,40,55.93220338983051,40,54.91525423728814,40C53.898305084745765,40,52.88135593220339,40,51.86440677966102,40C50.847457627118644,40,49.83050847457627,40,48.813559322033896,40C47.79661016949152,40,46.77966101694915,40,45.762711864406775,40C44.7457627118644,40,43.728813559322035,40,42.71186440677966,40C41.69491525423729,40,40.67796610169491,40,39.66101694915254,40C38.644067796610166,40,37.6271186440678,40,36.610169491525426,40C35.59322033898305,40,34.57627118644068,40,33.559322033898304,40C32.54237288135593,40,31.525423728813557,40,30.508474576271183,40C29.491525423728813,40,28.47457627118644,40,27.45762711864407,40C26.440677966101696,40,25.423728813559322,40,24.406779661016948,40C23.389830508474574,40,22.372881355932204,40,21.35593220338983,40C20.338983050847457,40,19.322033898305087,40,18.305084745762713,40C17.28813559322034,40,16.271186440677965,40,15.254237288135592,40C14.23728813559322,40,13.220338983050846,40,12.203389830508474,40C11.186440677966102,40,10.169491525423728,40,9.152542372881356,40C8.135593220338983,40,7.11864406779661,40,6.101694915254237,40C5.084745762711864,40,4.067796610169491,40,3.0508474576271185,40C2.0338983050847457,40,1.0169491525423728,40,0,40Z"></path><path class="line" stroke="black" fill="none" d="M0,32.0428C1.0169491525423728,31.917366666666666,2.0338983050847457,31.791933333333336,3.0508474576271185,31.6548C4.067796610169491,31.517666666666667,5.084745762711864,31.373666666666665,6.101694915254237,31.22C7.11864406779661,31.066333333333333,8.135593220338983,30.898666666666667,9.152542372881356,30.7328C10.169491525423728,30.566933333333335,11.186440677966102,30.398066666666665,12.203389830508474,30.2248C13.220338983050846,30.05153333333333,14.23728813559322,29.873866666666665,15.254237288135592,29.693199999999997C16.271186440677965,29.51253333333333,17.28813559322034,29.325533333333336,18.305084745762713,29.140800000000002C19.322033898305087,28.95606666666667,20.338983050847457,28.77166666666667,21.35593220338983,28.5848C22.372881355932204,28.397933333333334,23.389830508474574,28.20993333333334,24.406779661016948,28.019600000000004C25.423728813559322,27.82926666666667,26.440677966101696,27.634533333333334,27.45762711864407,27.4428C28.47457627118644,27.251066666666663,29.491525423728813,27.058133333333334,30.508474576271183,26.8692C31.525423728813557,26.680266666666665,32.54237288135593,26.49406666666666,33.559322033898304,26.309199999999997C34.57627118644068,26.124333333333333,35.59322033898305,25.941066666666668,36.610169491525426,25.76C37.6271186440678,25.578933333333335,38.644067796610166,25.399800000000003,39.66101694915254,25.222800000000003C40.67796610169491,25.045800000000003,41.69491525423729,24.866333333333333,42.71186440677966,24.698C43.728813559322035,24.529666666666667,44.7457627118644,24.368466666666666,45.762711864406775,24.2128C46.77966101694915,24.057133333333336,47.79661016949152,23.906533333333336,48.813559322033896,23.764000000000003C49.83050847457627,23.62146666666667,50.847457627118644,23.490266666666667,51.86440677966102,23.3576C52.88135593220339,23.224933333333336,53.898305084745765,23.09253333333334,54.91525423728814,22.968000000000004C55.93220338983051,22.84346666666667,56.94915254237288,22.722933333333334,57.96610169491525,22.6104C58.983050847457626,22.497866666666663,59.99999999999999,22.3924,61.01694915254237,22.2928C62.03389830508474,22.1932,63.05084745762712,22.103666666666665,64.0677966101695,22.0128C65.08474576271186,21.92193333333333,66.10169491525424,21.8342,67.11864406779661,21.7476C68.13559322033899,21.660999999999998,69.15254237288136,21.5764,70.16949152542374,21.493199999999998C71.1864406779661,21.409999999999997,72.20338983050848,21.32353333333333,73.22033898305085,21.248399999999997C74.23728813559322,21.173266666666663,75.2542372881356,21.109733333333335,76.27118644067797,21.0424C77.28813559322033,20.975066666666667,78.30508474576271,20.909933333333335,79.32203389830508,20.8444C80.33898305084746,20.778866666666666,81.35593220338983,20.716866666666668,82.37288135593221,20.6492C83.38983050847457,20.581533333333333,84.40677966101696,20.506,85.42372881355932,20.4384C86.4406779661017,20.3708,87.45762711864407,20.308466666666664,88.47457627118645,20.243599999999997C89.49152542372882,20.17873333333333,90.50847457627118,20.113133333333334,91.52542372881355,20.049200000000003C92.54237288135593,19.98526666666667,93.55932203389831,19.930200000000003,94.57627118644069,19.860000000000003C95.59322033898306,19.789800000000003,96.61016949152543,19.7074,97.62711864406779,19.628C98.64406779661016,19.5486,99.66101694915254,19.462666666666664,100.6779661016949,19.383599999999998C101.69491525423729,19.30453333333333,102.71186440677965,19.226666666666667,103.72881355932203,19.1536C104.7457627118644,19.080533333333335,105.76271186440678,19.017533333333333,106.77966101694915,18.9452C107.79661016949153,18.872866666666667,108.8135593220339,18.79253333333333,109.83050847457628,18.7196C110.84745762711864,18.64666666666667,111.86440677966102,18.577133333333336,112.88135593220339,18.507600000000004C113.89830508474576,18.43806666666667,114.91525423728814,18.369333333333334,115.9322033898305,18.3024C116.94915254237289,18.235466666666664,117.96610169491525,18.165933333333335,118.98305084745763,18.106C120,18.04606666666667,121.01694915254237,18.000133333333334,122.03389830508473,17.942800000000002C123.05084745762711,17.885466666666666,124.0677966101695,17.820199999999996,125.08474576271188,17.761999999999997C126.10169491525424,17.703799999999998,127.11864406779662,17.651266666666668,128.135593220339,17.593600000000002C129.15254237288136,17.535933333333336,130.16949152542372,17.47886666666667,131.1864406779661,17.416C132.20338983050846,17.353133333333332,133.22033898305085,17.284466666666667,134.23728813559322,17.2164C135.25423728813558,17.148333333333333,136.27118644067798,17.094466666666662,137.28813559322035,17.007599999999996C138.3050847457627,16.92073333333333,139.3220338983051,16.8046,140.33898305084747,16.6952C141.35593220338984,16.585800000000003,142.3728813559322,16.467266666666667,143.38983050847457,16.351200000000002C144.40677966101694,16.235133333333337,145.42372881355934,16.118933333333338,146.4406779661017,15.998800000000003C147.45762711864407,15.87866666666667,148.47457627118644,15.754,149.4915254237288,15.6304C150.50847457627117,15.506799999999998,151.52542372881356,15.385066666666667,152.54237288135593,15.257200000000001C153.5593220338983,15.129333333333335,154.5762711864407,14.999133333333335,155.59322033898306,14.8632C156.61016949152543,14.727266666666669,157.6271186440678,14.567666666666668,158.64406779661016,14.441600000000001C159.66101694915253,14.315533333333335,160.67796610169492,14.222400000000002,161.6949152542373,14.106800000000002C162.71186440677965,13.991200000000001,163.72881355932205,13.872933333333336,164.74576271186442,13.748000000000001C165.76271186440678,13.623066666666668,166.77966101694915,13.492133333333332,167.79661016949152,13.357199999999999C168.81355932203388,13.222266666666664,169.83050847457628,13.098399999999998,170.84745762711864,12.938399999999998C171.864406779661,12.778399999999998,172.8813559322034,12.593266666666668,173.89830508474577,12.397200000000002C174.91525423728814,12.201133333333335,175.93220338983053,11.988333333333335,176.9491525423729,11.762C177.96610169491527,11.535666666666668,178.98305084745763,11.287433333333334,180,11.039200000000001"></path><path class="axis-ceiling" stroke-width="1" stroke="black" fill="none" d="M175,0L180,0"></path><text class="axis-ceiling-label" font-family="sans-serif" text-anchor="end" font-size="10px" x="170" y="2.5">100000</text></g></svg>