<svg xmlns="http://www.w3.org/2000/svg" viewBox="0 0 180 60"><g transform="translate(0,20)"><path class="area" fill="rgba(0, 0, 0, 0.2)" d="M0,36.396C1.0169491525423728,36.36555555555555,2.0338983050847457,36.33511111111111,3.0508474576271185,36.30533333333333C4.067796610169491,36.27555555555555,5.084745762711864,36.245999999999995,6.101694915254237,36.21733333333333C7.11864406779661,36.18866666666666,8.135593220338983,36.157333333333334,9.152542372881356,36.13333333333333C10.169491525423728,36.10933333333333,11.186440677966102,36.09400000000001,12.203389830508474,36.07333333333334C13.220338983050846,36.05266666666667,14.23728813559322,36.031555555555556,15.254237288135592,36.00933333333333C16.271186440677965,35.987111111111105,17.28813559322034,35.964,18.305084745762713,35.94C19.322033898305087,35.916,20.338983050847457,35.89022222222223,21.35593220338983,35.86533333333334C22.372881355932204,35.84044444444445,23.389830508474574,35.818222222222225,24.406779661016948,35.79066666666667C25.423728813559322,35.76311111111111,26.440677966101696,35.733555555555554,27.45762711864407,35.699999999999996C28.47457627118644,35.666444444444444,29.491525423728813,35.629111111111115,30.508474576271183,35.589333333333336C31.525423728813557,35.54955555555556,32.54237288135593,35.50866666666667,33.559322033898304,35.461333333333336C34.57627118644068,35.414,35.59322033898305,35.35755555555556,36.610169491525426,35.30533333333334C37.6271186440678,35.25311111111112,38.644067796610166,35.20133333333334,39.66101694915254,35.148C40.67796610169491,35.09466666666667,41.69491525423729,35.040666666666674,42.71186440677966,34.98533333333334C43.728813559322035,34.93000000000001,44.7457627118644,34.87155555555556,45.762711864406775,34.816C46.77966101694915,34.760444444444445,47.79661016949152,34.714444444444446,48.813559322033896,34.652C49.83050847457627,34.589555555555556,50.847457627118644,34.510666666666665,51.86440677966102,34.44133333333333C52.88135593220339,34.372,53.898305084745765,34.30155555555555,54.91525423728814,34.236C55.93220338983051,34.17044444444444,56.94915254237288,34.10711111111111,57.96610169491525,34.048C58.983050847457626,33.988888888888894,59.99999999999999,33.94,61.01694915254237,33.88133333333333C62.03389830508474,33.82266666666666,63.05084745762712,33.76311111111111,64.0677966101695,33.696C65.08474576271186,33.62888888888889,66.10169491525424,33.556444444444445,67.11864406779661,33.47866666666667C68.13559322033899,33.40088888888889,69.15254237288136,33.309555555555555,70.16949152542374,33.22933333333333C71.1864406779661,33.149111111111104,72.20338983050848,33.07333333333333,73.22033898305085,32.99733333333333C74.23728813559322,32.92133333333333,75.2542372881356,32.873555555555555,76.27118644067797,32.77333333333333C77.28813559322033,32.67311111111111,78.30508474576271,32.56111111111111,79.32203389830508,32.396C80.33898305084746,32.23088888888889,81.35593220338983,31.992888888888885,82.37288135593221,31.782666666666664C83.38983050847457,31.572444444444443,84.40677966101696,31.353555555555555,85.42372881355932,31.134666666666668C86.4406779661017,30.91577777777778,87.45762711864407,30.69155555555556,88.47457627118645,30.469333333333335C89.49152542372882,30.247111111111114,90.50847457627118,30.026666666666664,91.52542372881355,29.801333333333332C92.54237288135593,29.575999999999997,93.55932203389831,29.354222222222226,94.57627118644069,29.117333333333335C95.59322033898306,28.880444444444446,96.61016949152543,28.609111111111115,97.62711864406779,28.380000000000003C98.64406779661016,28.15088888888889,99.66101694915254,27.92822222222222,100.6779661016949,27.742666666666665C101.69491525423729,27.55711111111111,102.71186440677965,27.426,103.72881355932203,27.266666666666666C104.7457627118644,27.107333333333333,105.76271186440678,26.948444444444444,106.77966101694915,26.786666666666665C107.79661016949153,26.624888888888886,108.8135593220339,26.464,109.83050847457628,26.296C110.84745762711864,26.128,111.86440677966102,25.956444444444447,112.88135593220339,25.77866666666667C113.89830508474576,25.600888888888893,114.91525423728814,25.415333333333336,115.9322033898305,25.229333333333336C116.94915254237289,25.043333333333337,117.96610169491525,24.855333333333334,118.98305084745763,24.662666666666667C120,24.47,121.01694915254237,24.270888888888887,122.03389830508473,24.073333333333334C123.05084745762711,23.875777777777778,124.0677966101695,23.678888888888892,125.08474576271188,23.477333333333334C126.10169491525424,23.27577777777778,127.11864406779662,23.070666666666668,128.135593220339,22.864C129.15254237288136,22.657333333333334,130.16949152542372,22.46488888888889,131.1864406779661,22.237333333333336C132.20338983050846,22.009777777777778,133.22033898305085,21.761777777777777,134.23728813559322,21.498666666666665C135.25423728813558,21.235555555555553,136.27118644067798,20.947333333333333,137.28813559322035,20.658666666666665C138.3050847457627,20.369999999999997,139.3220338983051,20.064222222222224,140.33898305084747,19.766666666666666C141.35593220338984,19.46911111111111,142.3728813559322,19.179111111111112,143.38983050847457,18.873333333333335C144.40677966101694,18.567555555555558,145.42372881355934,18.260000000000005,146.4406779661017,17.932000000000002C147.45762711864407,17.604000000000003,148.47457627118644,17.264888888888887,149.4915254237288,16.90533333333333C150.50847457627117,16.545777777777772,151.52542372881356,16.151999999999997,152.54237288135593,15.774666666666665C153.5593220338983,15.397333333333332,154.5762711864407,15.024444444444445,155.59322033898306,14.641333333333332C156.61016949152543,14.258222222222223,157.6271186440678,13.885777777777776,158.64406779661016,13.475999999999999C159.66101694915253,13.066222222222219,160.67796610169492,12.639777777777777,161.6949152542373,12.182666666666666C162.71186440677965,11.725555555555555,163.72881355932205,11.245555555555557,164.74576271186442,10.733333333333333C165.76271186440678,10.221111111111112,166.77966101694915,9.66222222222222,167.79661016949152,9.109333333333334C168.81355932203388,8.556444444444443,169.83050847457628,7.993555555555556,170.84745762711864,7.416C171.864406779661,6.838444444444445,172.8813559322034,6.246222222222222,173.89830508474577,5.644C174.91525423728814,5.041777777777778,175.93220338983053,4.418444444444447,176.9491525423729,3.8026666666666653C177.96610169491527,3.18688888888889,178.98305084745763,2.568111111111111,180,1.9493333333333318L180,40C178.98305084745763,40,177.96610169491527,40,176.9491525423729,40C175.93220338983053,40,174.91525423728814,40,173.89830508474577,40C172.8813559322034,40,171.864406779661,40,170.84745762711864,40C169.83050847457628,40,168.81355932203388,40,167.79661016949152,40C166.77966101694915,40,165.76271186440678,40,164.74576271186442,40C163.72881355932205,40,162.71186440677965,40,161.6949152542373,40C160.67796610169492,40,159.66101694915253,40,158.64406779661016,40C157.6271186440678,40,156.61016949152543,40,155.59322033898306,40C154.5762711864407,40,153.5593220338983,40,152.54237288135593,40C151.52542372881356,40,150.50847457627117,40,149.4915254237288,40C148.47457627118644,40,147.45762711864407,40,146.4406779661017,40C145.42372881355934,40,144.40677966101694,40,143.38983050847457,40C142.3728813559322,40,141.35593220338984,40,140.33898305084747,40C139.3220338983051,40,138.3050847457627,40,137.28813559322035,40C136.27118644067798,40,135.25423728813558,40,134.23728813559322,40C133.22033898305085,40,132.20338983050846,40,131.1864406779661,40C130.16949152542372,40,129.15254237288136,40,128.135593220339,40C127.11864406779662,40,126.10169491525424,40,125.08474576271188,40C124.0677966101695,40,123.05084745762711,40,122.03389830508473,40C121.01694915254237,40,120,40,118.98305084745763,40C117.96610169491525,40,116.94915254237289,40,115.9322033898305,40C114.91525423728814,40,113.89830508474576,40,112.88135593220339,40C111.86440677966102,40,110.84745762711864,40,109.83050847457628,40C108.8135593220339,40,107.79661016949153,40,106.77966101694915,40C105.76271186440678,40,104.7457627118644,40,103.72881355932203,40C102.71186440677965,40,101.69491525423729,40,100.6779661016949,40C99.66101694915254,40,98.64406779661016,40,97.62711864406779,40C96.61016949152543,40,95.59322033898306,40,94.57627118644069,40C93.55932203389831,40,92.54237288135593,40,91.52542372881355,40C90.50847457627118,40,89.49152542372882,40,88.47457627118645,40C87.45762711864407,40,86.4406779661017,40,85.42372881355932,40C84.40677966101696,40,83.38983050847457,40,82.37288135593221,40C81.35593220338983,40,80.33898305084746,40,79.32203389830508,40C78.30508474576271,40,77.28813559322033,40,76.27118644067797,40C75.2542372881356,40,74.23728813559322,40,73.22033898305085,40C72.20338983050848,40,71.1864406779661,40,70.16949152542374,40C69.15254237288136,40,68.13559322033899,40,67.11864406779661,40C66.10169491525424,40,65.08474576271186,40,64.0677966101695,40C63.05084745762712,40,62.03389830508474,40,61.01694915254237,40C59.99999999999999,40,58.983050847457626,40,57.96610169491525,40C56.94915254237288,40,55.93220338983051,40,54.91525423728814,40C53.898305084745765,40,52.88135593220339,40,51.86440677966102,40C50.847457627118644,40,49.83050847457627,40,48.813559322033896,40C47.79661016949152,40,46.77966101694915,40,45.762711864406775,40C44.7457627118644,40,43.728813559322035,40,42.71186440677966,40C41.69491525423729,40,40.67796610169491,40,39.66101694915254,40C38.644067796610166,40,37.6271186440678,40,36.610169491525426,40C35.59322033898305,40,34.57627118644068,40,33.559322033898304,40C32.54237288135593,40,31.525423728813557,40,30.508474576271183,40C29.491525423728813,40,28.47457627118644,40,27.45762711864407,40C26.440677966101696,40,25.423728813559322,40,24.406779661016948,40C23.389830508474574,40,22.372881355932204,40,21.35593220338983,40C20.338983050847457,40,19.322033898305087,40,18.305084745762713,40C17.28813559322034,40,16.271186440677965,40,15.254237288135592,40C14.23728813559322,40,13.220338983050846,40,12.203389830508474,40C11.186440677966102,40,10.169491525423728,40,9.152542372881356,40C8.135593220338983,40,7.11864406779661,40,6.101694915254237,40C5.084745762711864,40,4.067796610169491,40,3.0508474576271185,40C2.0338983050847457,40,1.0169491525423728,40,0,40Z"></path><path class="line" stroke="black" fill="none" d="M0,36.396C1.0169491525423728,36.36555555555555,2.0338983050847457,36.33511111111111,3.0508474576271185,36.30533333333333C4.067796610169491,36.27555555555555,5.084745762711864,36.245999999999995,6.101694915254237,36.21733333333333C7.11864406779661,36.18866666666666,8.135593220338983,36.157333333333334,9.152542372881356,36.13333333333333C10.169491525423728,36.10933333333333,11.186440677966102,36.09400000000001,12.203389830508474,36.07333333333334C13.220338983050846,36.05266666666667,14.23728813559322,36.031555555555556,15.254237288135592,36.00933333333333C16.271186440677965,35.987111111111105,17.28813559322034,35.964,18.305084745762713,35.94C19.322033898305087,35.916,20.338983050847457,35.89022222222223,21.35593220338983,35.86533333333334C22.372881355932204,35.84044444444445,23.389830508474574,35.818222222222225,24.406779661016948,35.79066666666667C25.423728813559322,35.76311111111111,26.440677966101696,35.733555555555554,27.45762711864407,35.699999999999996C28.47457627118644,35.666444444444444,29.491525423728813,35.629111111111115,30.508474576271183,35.589333333333336C31.525423728813557,35.54955555555556,32.54237288135593,35.50866666666667,33.559322033898304,35.461333333333336C34.57627118644068,35.414,35.59322033898305,35.35755555555556,36.610169491525426,35.30533333333334C37.6271186440678,35.25311111111112,38.644067796610166,35.20133333333334,39.66101694915254,35.148C40.67796610169491,35.09466666666667,41.69491525423729,35.040666666666674,42.71186440677966,34.98533333333334C43.728813559322035,34.93000000000001,44.7457627118644,34.87155555555556,45.762711864406775,34.816C46.77966101694915,34.760444444444445,47.79661016949152,34.714444444444446,48.813559322033896,34.652C49.83050847457627,34.589555555555556,50.847457627118644,34.510666666666665,51.86440677966102,34.44133333333333C52.88135593220339,34.372,53.898305084745765,34.30155555555555,54.91525423728814,34.236C55.93220338983051,34.17044444444444,56.94915254237288,34.10711111111111,57.96610169491525,34.048C58.983050847457626,33.988888888888894,59.99999999999999,33.94,61.01694915254237,33.88133333333333C62.03389830508474,33.82266666666666,63.05084745762712,33.76311111111111,64.0677966101695,33.696C65.08474576271186,33.62888888888889,66.10169491525424,33.556444444444445,67.11864406779661,33.47866666666667C68.13559322033899,33.40088888888889,69.15254237288136,33.309555555555555,70.16949152542374,33.22933333333333C71.1864406779661,33.149111111111104,72.20338983050848,33.07333333333333,73.22033898305085,32.99733333333333C74.23728813559322,32.92133333333333,75.2542372881356,32.873555555555555,76.27118644067797,32.77333333333333C77.28813559322033,32.67311111111111,78.30508474576271,32.56111111111111,79.32203389830508,32.396C80.33898305084746,32.23088888888889,81.35593220338983,31.992888888888885,82.37288135593221,31.782666666666664C83.38983050847457,31.572444444444443,84.40677966101696,31.353555555555555,85.42372881355932,31.134666666666668C86.4406779661017,30.91577777777778,87.45762711864407,30.69155555555556,88.47457627118645,30.469333333333335C89.49152542372882,30.247111111111114,90.50847457627118,30.026666666666664,91.52542372881355,29.801333333333332C92.54237288135593,29.575999999999997,93.55932203389831,29.354222222222226,94.57627118644069,29.117333333333335C95.59322033898306,28.880444444444446,96.61016949152543,28.609111111111115,97.62711864406779,28.380000000000003C98.64406779661016,28.15088888888889,99.66101694915254,27.92822222222222,100.6779661016949,27.742666666666665C101.69491525423729,27.55711111111111,102.71186440677965,27.426,103.72881355932203,27.266666666666666C104.7457627118644,27.107333333333333,105.76271186440678,26.948444444444444,106.77966101694915,26.786666666666665C107.79661016949153,26.624888888888886,108.8135593220339,26.464,109.83050847457628,26.296C110.84745762711864,26.128,111.86440677966102,25.956444444444447,112.88135593220339,25.77866666666667C113.89830508474576,25.600888888888893,114.91525423728814,25.415333333333336,115.9322033898305,25.229333333333336C116.94915254237289,25.043333333333337,117.96610169491525,24.855333333333334,118.98305084745763,24.662666666666667C120,24.47,121.01694915254237,24.270888888888887,122.03389830508473,24.073333333333334C123.05084745762711,23.875777777777778,124.0677966101695,23.678888888888892,125.08474576271188,23.477333333333334C126.10169491525424,23.27577777777778,127.11864406779662,23.070666666666668,128.135593220339,22.864C129.15254237288136,22.657333333333334,130.16949152542372,22.46488888888889,131.1864406779661,22.237333333333336C132.20338983050846,22.009777777777778,133.22033898305085,21.761777777777777,134.23728813559322,21.498666666666665C135.25423728813558,21.235555555555553,136.27118644067798,20.947333333333333,137.28813559322035,20.658666666666665C138.3050847457627,20.369999999999997,139.3220338983051,20.064222222222224,140.33898305084747,19.766666666666666C141.35593220338984,19.46911111111111,142.3728813559322,19.179111111111112,143.38983050847457,18.873333333333335C144.40677966101694,18.567555555555558,145.42372881355934,18.260000000000005,146.4406779661017,17.932000000000002C147.45762711864407,17.604000000000003,148.47457627118644,17.264888888888887,149.4915254237288,16.90533333333333C150.50847457627117,16.545777777777772,151.52542372881356,16.151999999999997,152.54237288135593,15.774666666666665C153.5593220338983,15.397333333333332,154.5762711864407,15.024444444444445,155.59322033898306,14.641333333333332C156.61016949152543,14.258222222222223,157.6271186440678,13.885777777777776,158.64406779661016,13.475999999999999C159.66101694915253,13.066222222222219,160.67796610169492,12.639777777777777,161.6949152542373,12.182666666666666C162.71186440677965,11.725555555555555,163.72881355932205,11.245555555555557,164.74576271186442,10.733333333333333C165.76271186440678,10.221111111111112,166.77966101694915,9.66222222222222,167.79661016949152,9.109333333333334C168.81355932203388,8.556444444444443,169.83050847457628,7.993555555555556,170.84745762711864,7.416C171.864406779661,6.838444444444445,172.8813559322034,6.246222222222222,173.89830508474577,5.644C174.91525423728814,5.041777777777778,175.93220338983053,4.418444444444447,176.9491525423729,3.8026666666666653C177.96610169491527,3.18688888888889,178.98305084745763,2.568111111111111,180,1.9493333333333318"></path><path class="axis-ceiling" stroke-width="1" stroke="black" fill="none" d="M175,0L180,0"></path><text class="axis-ceiling-label" font-family="sans-serif" text-anchor="end" font-size="10px" x="170" y="2.5">30000</text></g></svg>