<svg xmlns="http://www.w3.org/2000/svg" viewBox="0 0 180 60"><g transform="translate(0,20)"><path class="area" fill="rgba(0, 0, 0, 0.2)" d="M0,36.27860696517413C1.0169491525423728,37.721393034825866,2.0338983050847457,39.16417910447761,3.0508474576271185,39.16417910447761C4.067796610169491,39.16417910447761,5.084745762711864,38.898839137645105,6.101694915254237,38.80597014925373C7.11864406779661,38.71310116086236,8.135593220338983,38.60696517412936,9.152542372881356,38.60696517412936C10.169491525423728,38.60696517412936,11.186440677966102,38.81923714759536,12.203389830508474,38.84577114427861C13.220338983050846,38.872305140961856,14.23728813559322,38.859038142620236,15.254237288135592,38.885572139303484C16.271186440677965,38.91210613598673,17.28813559322034,39.20398009950249,18.305084745762713,39.20398009950249C19.322033898305087,39.20398009950249,20.338983050847457,38.766169154228855,21.35593220338983,38.766169154228855C22.372881355932204,38.766169154228855,23.389830508474574,38.84577114427861,24.406779661016948,38.84577114427861C25.423728813559322,38.84577114427861,26.440677966101696,38.228855721393025,27.45762711864407,38.189054726368155C28.47457627118644,38.149253731343286,29.491525423728813,38.12935323383085,30.508474576271183,38.12935323383085C31.525423728813557,38.12935323383085,32.54237288135593,38.70646766169154,33.559322033898304,38.70646766169154C34.57627118644068,38.70646766169154,35.59322033898305,37.333333333333336,36.610169491525426,37.29353233830846C37.6271186440678,37.25373134328358,38.644067796610166,37.27363184079602,39.66101694915254,37.233830845771145C40.67796610169491,37.19402985074627,41.69491525423729,36.975124378109456,42.71186440677966,36.776119402985074C43.728813559322035,36.5771144278607,44.7457627118644,36.039800995024876,45.762711864406775,36.039800995024876C46.77966101694915,36.039800995024876,47.79661016949152,37.87064676616915,48.813559322033896,37.87064676616915C49.83050847457627,37.87064676616915,50.847457627118644,37.691542288557216,51.86440677966102,37.691542288557216C52.88135593220339,37.691542288557216,53.898305084745765,38.069651741293534,54.91525423728814,38.069651741293534C55.93220338983051,38.069651741293534,56.94915254237288,37.95688225538972,57.96610169491525,37.73134328358209C58.983050847457626,37.50580431177446,59.99999999999999,32.43781094527363,61.01694915254237,32.43781094527363C62.03389830508474,32.43781094527363,63.05084745762712,36.94859038142621,64.0677966101695,37.333333333333336C65.08474576271186,37.718076285240464,66.10169491525424,37.5257048092869,67.11864406779661,37.91044776119403C68.13559322033899,38.29519071310116,69.15254237288136,40,70.16949152542374,40C71.1864406779661,40,72.20338983050848,36.32504145936982,73.22033898305085,35.701492537313435C74.23728813559322,35.07794361525705,75.2542372881356,34.97844112769486,76.27118644067797,34.766169154228855C77.28813559322033,34.55389718076285,78.30508474576271,34.524046434494196,79.32203389830508,34.42786069651741C80.33898305084746,34.33167495854063,81.35593220338983,34.18905472636816,82.37288135593221,34.18905472636816C83.38983050847457,34.18905472636816,84.40677966101696,38.22885572139303,85.42372881355932,38.22885572139303C86.4406779661017,38.22885572139303,87.45762711864407,25.66169154228856,88.47457627118645,21.850746268656714C89.49152542372882,18.039800995024905,90.50847457627118,15.36318407960199,91.52542372881355,15.36318407960199C92.54237288135593,15.36318407960199,93.55932203389831,31.814262023217246,94.57627118644069,32.19900497512438C95.59322033898306,32.58374792703151,96.61016949152543,32.45107794361526,97.62711864406779,32.776119402985074C98.64406779661016,33.10116086235489,99.66101694915254,34.14925373134328,100.6779661016949,34.14925373134328C101.69491525423729,34.14925373134328,102.71186440677965,32.882255389718075,103.72881355932203,32.69651741293532C104.7457627118644,32.51077943615257,105.76271186440678,32.417910447761194,106.77966101694915,32.417910447761194C107.79661016949153,32.417910447761194,108.8135593220339,32.517412935323385,109.83050847457628,32.517412935323385C110.84745762711864,32.517412935323385,111.86440677966102,32.27197346600332,112.88135593220339,32.13930348258707C113.89830508474576,32.00663349917082,114.91525423728814,31.721393034825873,115.9322033898305,31.721393034825873C116.94915254237289,31.721393034825873,117.96610169491525,31.721393034825873,118.98305084745763,31.721393034825873C120,31.721393034825873,121.01694915254237,31.582089552238806,122.03389830508473,31.303482587064675C123.05084745762711,31.02487562189054,124.0677966101695,29.373134328358212,125.08474576271188,29.373134328358212C126.10169491525424,29.373134328358212,127.11864406779662,30.666666666666664,128.135593220339,30.666666666666664C129.15254237288136,30.666666666666664,130.16949152542372,30.129353233830845,131.1864406779661,30.129353233830845C132.20338983050846,30.129353233830845,133.22033898305085,31.323383084577117,134.23728813559322,31.323383084577117C135.25423728813558,31.323383084577117,136.27118644067798,30.14262023217247,137.28813559322035,30.129353233830845C138.3050847457627,30.11608623548922,139.3220338983051,30.12271973466003,140.33898305084747,30.109452736318406C141.35593220338984,30.096185737976782,142.3728813559322,20.29850746268656,143.38983050847457,19.70149253731343C144.40677966101694,19.104477611940297,145.42372881355934,18.80597014925373,146.4406779661017,18.80597014925373C147.45762711864407,18.80597014925373,148.47457627118644,23.339966832504153,149.4915254237288,25.213930348258707C150.50847457627117,27.087893864013278,151.52542372881356,30.049751243781095,152.54237288135593,30.049751243781095C153.5593220338983,30.049751243781095,154.5762711864407,27.58540630182422,155.59322033898306,26.149253731343283C156.61016949152543,24.713101160862358,157.6271186440678,22.60364842454394,158.64406779661016,21.43283582089552C159.66101694915253,20.262023217247087,160.67796610169492,19.12437810945274,161.6949152542373,19.12437810945274C162.71186440677965,19.12437810945274,163.72881355932205,19.383084577114428,164.74576271186442,19.383084577114428C165.76271186440678,19.383084577114428,166.77966101694915,16.66666666666666,167.79661016949152,15.422885572139302C168.81355932203388,14.179104477611933,169.83050847457628,11.920398009950247,170.84745762711864,11.920398009950247C171.864406779661,11.920398009950247,172.8813559322034,13.771144278606965,173.89830508474577,13.771144278606965C174.91525423728814,13.771144278606965,175.93220338983053,7.940298507462686,176.9491525423729,7.940298507462686C177.96610169491527,7.940298507462686,178.98305084745763,11.024875621890548,180,14.109452736318406L180,40C178.98305084745763,40,177.96610169491527,40,176.9491525423729,40C175.93220338983053,40,174.91525423728814,40,173.89830508474577,40C172.8813559322034,40,171.864406779661,40,170.84745762711864,40C169.83050847457628,40,168.81355932203388,40,167.79661016949152,40C166.77966101694915,40,165.76271186440678,40,164.74576271186442,40C163.72881355932205,40,162.71186440677965,40,161.6949152542373,40C160.67796610169492,40,159.66101694915253,40,158.64406779661016,40C157.6271186440678,40,156.61016949152543,40,155.59322033898306,40C154.5762711864407,40,153.5593220338983,40,152.54237288135593,40C151.52542372881356,40,150.50847457627117,40,149.4915254237288,40C148.47457627118644,40,147.45762711864407,40,146.4406779661017,40C145.42372881355934,40,144.40677966101694,40,143.38983050847457,40C142.3728813559322,40,141.35593220338984,40,140.33898305084747,40C139.3220338983051,40,138.3050847457627,40,137.28813559322035,40C136.27118644067798,40,135.25423728813558,40,134.23728813559322,40C133.22033898305085,40,132.20338983050846,40,131.1864406779661,40C130.16949152542372,40,129.15254237288136,40,128.135593220339,40C127.11864406779662,40,126.10169491525424,40,125.08474576271188,40C124.0677966101695,40,123.05084745762711,40,122.03389830508473,40C121.01694915254237,40,120,40,118.98305084745763,40C117.96610169491525,40,116.94915254237289,40,115.9322033898305,40C114.91525423728814,40,113.89830508474576,40,112.88135593220339,40C111.86440677966102,40,110.84745762711864,40,109.83050847457628,40C108.8135593220339,40,107.79661016949153,40,106.77966101694915,40C105.76271186440678,40,104.7457627118644,40,103.72881355932203,40C102.71186440677965,40,101.69491525423729,40,100.6779661016949,40C99.66101694915254,40,98.64406779661016,40,97.62711864406779,40C96.61016949152543,40,95.59322033898306,40,94.57627118644069,40C93.55932203389831,40,92.54237288135593,40,91.52542372881355,40C90.50847457627118,40,89.49152542372882,40,88.47457627118645,40C87.45762711864407,40,86.4406779661017,40,85.42372881355932,40C84.40677966101696,40,83.38983050847457,40,82.37288135593221,40C81.35593220338983,40,80.33898305084746,40,79.32203389830508,40C78.30508474576271,40,77.28813559322033,40,76.27118644067797,40C75.2542372881356,40,74.23728813559322,40,73.22033898305085,40C72.20338983050848,40,71.1864406779661,40,70.16949152542374,40C69.15254237288136,40,68.13559322033899,40,67.11864406779661,40C66.10169491525424,40,65.08474576271186,40,64.0677966101695,40C63.05084745762712,40,62.03389830508474,40,61.01694915254237,40C59.99999999999999,40,58.983050847457626,40,57.96610169491525,40C56.94915254237288,40,55.93220338983051,40,54.91525423728814,40C53.898305084745765,40,52.88135593220339,40,51.86440677966102,40C50.847457627118644,40,49.83050847457627,40,48.813559322033896,40C47.79661016949152,40,46.77966101694915,40,45.762711864406775,40C44.7457627118644,40,43.728813559322035,40,42.71186440677966,40C41.69491525423729,40,40.67796610169491,40,39.66101694915254,40C38.644067796610166,40,37.6271186440678,40,36.610169491525426,40C35.59322033898305,40,34.57627118644068,40,33.559322033898304,40C32.54237288135593,40,31.525423728813557,40,30.508474576271183,40C29.491525423728813,40,28.47457627118644,40,27.45762711864407,40C26.440677966101696,40,25.423728813559322,40,24.406779661016948,40C23.389830508474574,40,22.372881355932204,40,21.35593220338983,40C20.338983050847457,40,19.322033898305087,40,18.305084745762713,40C17.28813559322034,40,16.271186440677965,40,15.254237288135592,40C14.23728813559322,40,13.220338983050846,40,12.203389830508474,40C11.186440677966102,40,10.169491525423728,40,9.152542372881356,40C8.135593220338983,40,7.11864406779661,40,6.101694915254237,40C5.084745762711864,40,4.067796610169491,40,3.0508474576271185,40C2.0338983050847457,40,1.0169491525423728,40,0,40Z"></path><path class="line" stroke="black" fill="none" d="M0,36.27860696517413C1.0169491525423728,37.721393034825866,2.0338983050847457,39.16417910447761,3.0508474576271185,39.16417910447761C4.067796610169491,39.16417910447761,5.084745762711864,38.898839137645105,6.101694915254237,38.80597014925373C7.11864406779661,38.71310116086236,8.135593220338983,38.60696517412936,9.152542372881356,38.60696517412936C10.169491525423728,38.60696517412936,11.186440677966102,38.81923714759536,12.203389830508474,38.84577114427861C13.220338983050846,38.872305140961856,14.23728813559322,38.859038142620236,15.254237288135592,38.885572139303484C16.271186440677965,38.91210613598673,17.28813559322034,39.20398009950249,18.305084745762713,39.20398009950249C19.322033898305087,39.20398009950249,20.338983050847457,38.766169154228855,21.35593220338983,38.766169154228855C22.372881355932204,38.766169154228855,23.389830508474574,38.84577114427861,24.406779661016948,38.84577114427861C25.423728813559322,38.84577114427861,26.440677966101696,38.228855721393025,27.45762711864407,38.189054726368155C28.47457627118644,38.149253731343286,29.491525423728813,38.12935323383085,30.508474576271183,38.12935323383085C31.525423728813557,38.12935323383085,32.54237288135593,38.70646766169154,33.559322033898304,38.70646766169154C34.57627118644068,38.70646766169154,35.59322033898305,37.333333333333336,36.610169491525426,37.29353233830846C37.6271186440678,37.25373134328358,38.644067796610166,37.27363184079602,39.66101694915254,37.233830845771145C40.67796610169491,37.19402985074627,41.69491525423729,36.975124378109456,42.71186440677966,36.776119402985074C43.728813559322035,36.5771144278607,44.7457627118644,36.039800995024876,45.762711864406775,36.039800995024876C46.77966101694915,36.039800995024876,47.79661016949152,37.87064676616915,48.813559322033896,37.87064676616915C49.83050847457627,37.87064676616915,50.847457627118644,37.691542288557216,51.86440677966102,37.691542288557216C52.88135593220339,37.691542288557216,53.898305084745765,38.069651741293534,54.91525423728814,38.069651741293534C55.93220338983051,38.069651741293534,56.94915254237288,37.95688225538972,57.96610169491525,37.73134328358209C58.983050847457626,37.50580431177446,59.99999999999999,32.43781094527363,61.01694915254237,32.43781094527363C62.03389830508474,32.43781094527363,63.05084745762712,36.94859038142621,64.0677966101695,37.333333333333336C65.08474576271186,37.718076285240464,66.10169491525424,37.5257048092869,67.11864406779661,37.91044776119403C68.13559322033899,38.29519071310116,69.15254237288136,40,70.16949152542374,40C71.1864406779661,40,72.20338983050848,36.32504145936982,73.22033898305085,35.701492537313435C74.23728813559322,35.07794361525705,75.2542372881356,34.97844112769486,76.27118644067797,34.766169154228855C77.28813559322033,34.55389718076285,78.30508474576271,34.524046434494196,79.32203389830508,34.42786069651741C80.33898305084746,34.33167495854063,81.35593220338983,34.18905472636816,82.37288135593221,34.18905472636816C83.38983050847457,34.18905472636816,84.40677966101696,38.22885572139303,85.42372881355932,38.22885572139303C86.4406779661017,38.22885572139303,87.45762711864407,25.66169154228856,88.47457627118645,21.850746268656714C89.49152542372882,18.039800995024905,90.50847457627118,15.36318407960199,91.52542372881355,15.36318407960199C92.54237288135593,15.36318407960199,93.55932203389831,31.814262023217246,94.57627118644069,32.19900497512438C95.59322033898306,32.58374792703151,96.61016949152543,32.45107794361526,97.62711864406779,32.776119402985074C98.64406779661016,33.10116086235489,99.66101694915254,34.14925373134328,100.6779661016949,34.14925373134328C101.69491525423729,34.14925373134328,102.71186440677965,32.882255389718075,103.72881355932203,32.69651741293532C104.7457627118644,32.51077943615257,105.76271186440678,32.417910447761194,106.77966101694915,32.417910447761194C107.79661016949153,32.417910447761194,108.8135593220339,32.517412935323385,109.83050847457628,32.517412935323385C110.84745762711864,32.517412935323385,111.86440677966102,32.27197346600332,112.88135593220339,32.13930348258707C113.89830508474576,32.00663349917082,114.91525423728814,31.721393034825873,115.9322033898305,31.721393034825873C116.94915254237289,31.721393034825873,117.96610169491525,31.721393034825873,118.98305084745763,31.721393034825873C120,31.721393034825873,121.01694915254237,31.582089552238806,122.03389830508473,31.303482587064675C123.05084745762711,31.02487562189054,124.0677966101695,29.373134328358212,125.08474576271188,29.373134328358212C126.10169491525424,29.373134328358212,127.11864406779662,30.666666666666664,128.135593220339,30.666666666666664C129.15254237288136,30.666666666666664,130.16949152542372,30.129353233830845,131.1864406779661,30.129353233830845C132.20338983050846,30.129353233830845,133.22033898305085,31.323383084577117,134.23728813559322,31.323383084577117C135.25423728813558,31.323383084577117,136.27118644067798,30.14262023217247,137.28813559322035,30.129353233830845C138.3050847457627,30.11608623548922,139.3220338983051,30.12271973466003,140.33898305084747,30.109452736318406C141.35593220338984,30.096185737976782,142.3728813559322,20.29850746268656,143.38983050847457,19.70149253731343C144.40677966101694,19.104477611940297,145.42372881355934,18.80597014925373,146.4406779661017,18.80597014925373C147.45762711864407,18.80597014925373,148.47457627118644,23.339966832504153,149.4915254237288,25.213930348258707C150.50847457627117,27.087893864013278,151.52542372881356,30.049751243781095,152.54237288135593,30.049751243781095C153.5593220338983,30.049751243781095,154.5762711864407,27.58540630182422,155.59322033898306,26.149253731343283C156.61016949152543,24.713101160862358,157.6271186440678,22.60364842454394,158.64406779661016,21.43283582089552C159.66101694915253,20.262023217247087,160.67796610169492,19.12437810945274,161.6949152542373,19.12437810945274C162.71186440677965,19.12437810945274,163.72881355932205,19.383084577114428,164.74576271186442,19.383084577114428C165.76271186440678,19.383084577114428,166.77966101694915,16.66666666666666,167.79661016949152,15.422885572139302C168.81355932203388,14.179104477611933,169.83050847457628,11.920398009950247,170.84745762711864,11.920398009950247C171.864406779661,11.920398009950247,172.8813559322034,13.771144278606965,173.89830508474577,13.771144278606965C174.91525423728814,13.771144278606965,175.93220338983053,7.940298507462686,176.9491525423729,7.940298507462686C177.96610169491527,7.940298507462686,178.98305084745763,11.024875621890548,180,14.109452736318406"></path><path class="axis-ceiling" stroke-width="1" stroke="black" fill="none" d="M175,0L180,0"></path><text class="axis-ceiling-label" font-family="sans-serif" text-anchor="end" font-size="10px" x="170" y="2.5">2000</text></g></svg>