<svg xmlns="http://www.w3.org/2000/svg" viewBox="0 0 180 60"><g transform="translate(0,20)"><path class="area" fill="rgba(0, 0, 0, 0.2)" d="M0,37C1.0169491525423728,37,2.0338983050847457,37,3.0508474576271185,37C4.067796610169491,37,5.084745762711864,38,6.101694915254237,38C7.11864406779661,38,8.135593220338983,38,9.152542372881356,38C10.169491525423728,38,11.186440677966102,38,12.203389830508474,38C13.220338983050846,38,14.23728813559322,40,15.254237288135592,40C16.271186440677965,40,17.28813559322034,40,18.305084745762713,40C19.322033898305087,40,20.338983050847457,40,21.35593220338983,40C22.372881355932204,40,23.389830508474574,40,24.406779661016948,40C25.423728813559322,40,26.440677966101696,40,27.45762711864407,40C28.47457627118644,40,29.491525423728813,30.833333333333332,30.508474576271183,28C31.525423728813557,25.16666666666666,32.54237288135593,23,33.559322033898304,23C34.57627118644068,23,35.59322033898305,23,36.610169491525426,23C37.6271186440678,23,38.644067796610166,23,39.66101694915254,23C40.67796610169491,23,41.69491525423729,18,42.71186440677966,18C43.728813559322035,18,44.7457627118644,18,45.762711864406775,18C46.77966101694915,18,47.79661016949152,12.000000000000002,48.813559322033896,12.000000000000002C49.83050847457627,12.000000000000002,50.847457627118644,25,51.86440677966102,25C52.88135593220339,25,53.898305084745765,12.000000000000002,54.91525423728814,12.000000000000002C55.93220338983051,12.000000000000002,56.94915254237288,12.000000000000002,57.96610169491525,12.000000000000002C58.983050847457626,12.000000000000002,59.99999999999999,12.000000000000002,61.01694915254237,12.000000000000002C62.03389830508474,12.000000000000002,63.05084745762712,11.666666666666668,64.0677966101695,11C65.08474576271186,10.333333333333336,66.10169491525424,0,67.11864406779661,0C68.13559322033899,0,69.15254237288136,5,70.16949152542374,5C71.1864406779661,5,72.20338983050848,3.999999999999999,73.22033898305085,3.999999999999999C74.23728813559322,3.999999999999999,75.2542372881356,20,76.27118644067797,20C77.28813559322033,20,78.30508474576271,18.5,79.32203389830508,18C80.33898305084746,17.499999999999996,81.35593220338983,17,82.37288135593221,17C83.38983050847457,17,84.40677966101696,18.66666666666668,85.42372881355932,21C86.4406779661017,23.333333333333336,87.45762711864407,30.33333333333333,88.47457627118645,31C89.49152542372882,31.666666666666668,90.50847457627118,32,91.52542372881355,32C92.54237288135593,32,93.55932203389831,32,94.57627118644069,32C95.59322033898306,32,96.61016949152543,34.16666666666667,97.62711864406779,35C98.64406779661016,35.833333333333336,99.66101694915254,36.5,100.6779661016949,37C101.69491525423729,37.5,102.71186440677965,37.666666666666664,103.72881355932203,38C104.7457627118644,38.333333333333336,105.76271186440678,39,106.77966101694915,39C107.79661016949153,39,108.8135593220339,37,109.83050847457628,37C110.84745762711864,37,111.86440677966102,37.666666666666664,112.88135593220339,38C113.89830508474576,38.333333333333336,114.91525423728814,39,115.9322033898305,39C116.94915254237289,39,117.96610169491525,39,118.98305084745763,39C120,39,121.01694915254237,34.49999999999999,122.03389830508473,33C123.05084745762711,31.499999999999982,124.0677966101695,31.166666666666675,125.08474576271188,30C126.10169491525424,28.833333333333336,127.11864406779662,27.166666666666668,128.135593220339,26C129.15254237288136,24.833333333333336,130.16949152542372,23.833333333333332,131.1864406779661,23C132.20338983050846,22.16666666666666,133.22033898305085,22.333333333333332,134.23728813559322,21C135.25423728813558,19.666666666666668,136.27118644067798,15.833333333333334,137.28813559322035,14C138.3050847457627,12.166666666666666,139.3220338983051,10,140.33898305084747,10C141.35593220338984,10,142.3728813559322,12.000000000000002,143.38983050847457,12.000000000000002C144.40677966101694,12.000000000000002,145.42372881355934,12.000000000000002,146.4406779661017,12.000000000000002C147.45762711864407,12.000000000000002,148.47457627118644,10,149.4915254237288,10C150.50847457627117,10,151.52542372881356,10.666666666666666,152.54237288135593,11C153.5593220338983,11.333333333333334,154.5762711864407,12.000000000000002,155.59322033898306,12.000000000000002C156.61016949152543,12.000000000000002,157.6271186440678,11,158.64406779661016,11C159.66101694915253,11,160.67796610169492,11.500000000000002,161.6949152542373,12.000000000000002C162.71186440677965,12.500000000000002,163.72881355932205,14,164.74576271186442,14C165.76271186440678,14,166.77966101694915,12.999999999999998,167.79661016949152,12.999999999999998C168.81355932203388,12.999999999999998,169.83050847457628,18,170.84745762711864,18C171.864406779661,18,172.8813559322034,18,173.89830508474577,18C174.91525423728814,18,175.93220338983053,18,176.9491525423729,18C177.96610169491527,18,178.98305084745763,20,180,22L180,40C178.98305084745763,40,177.96610169491527,40,176.9491525423729,40C175.93220338983053,40,174.91525423728814,40,173.89830508474577,40C172.8813559322034,40,171.864406779661,40,170.84745762711864,40C169.83050847457628,40,168.81355932203388,40,167.79661016949152,40C166.77966101694915,40,165.76271186440678,40,164.74576271186442,40C163.72881355932205,40,162.71186440677965,40,161.6949152542373,40C160.67796610169492,40,159.66101694915253,40,158.64406779661016,40C157.6271186440678,40,156.61016949152543,40,155.59322033898306,40C154.5762711864407,40,153.5593220338983,40,152.54237288135593,40C151.52542372881356,40,150.50847457627117,40,149.4915254237288,40C148.47457627118644,40,147.45762711864407,40,146.4406779661017,40C145.42372881355934,40,144.40677966101694,40,143.38983050847457,40C142.3728813559322,40,141.35593220338984,40,140.33898305084747,40C139.3220338983051,40,138.3050847457627,40,137.28813559322035,40C136.27118644067798,40,135.25423728813558,40,134.23728813559322,40C133.22033898305085,40,132.20338983050846,40,131.1864406779661,40C130.16949152542372,40,129.15254237288136,40,128.135593220339,40C127.11864406779662,40,126.10169491525424,40,125.08474576271188,40C124.0677966101695,40,123.05084745762711,40,122.03389830508473,40C121.01694915254237,40,120,40,118.98305084745763,40C117.96610169491525,40,116.94915254237289,40,115.9322033898305,40C114.91525423728814,40,113.89830508474576,40,112.88135593220339,40C111.86440677966102,40,110.84745762711864,40,109.83050847457628,40C108.8135593220339,40,107.79661016949153,40,106.77966101694915,40C105.76271186440678,40,104.7457627118644,40,103.72881355932203,40C102.71186440677965,40,101.69491525423729,40,100.6779661016949,40C99.66101694915254,40,98.64406779661016,40,97.62711864406779,40C96.61016949152543,40,95.59322033898306,40,94.57627118644069,40C93.55932203389831,40,92.54237288135593,40,91.52542372881355,40C90.50847457627118,40,89.49152542372882,40,88.47457627118645,40C87.45762711864407,40,86.4406779661017,40,85.42372881355932,40C84.40677966101696,40,83.38983050847457,40,82.37288135593221,40C81.35593220338983,40,80.33898305084746,40,79.32203389830508,40C78.30508474576271,40,77.28813559322033,40,76.27118644067797,40C75.2542372881356,40,74.23728813559322,40,73.22033898305085,40C72.20338983050848,40,71.1864406779661,40,70.16949152542374,40C69.15254237288136,40,68.13559322033899,40,67.11864406779661,40C66.10169491525424,40,65.08474576271186,40,64.0677966101695,40C63.05084745762712,40,62.03389830508474,40,61.01694915254237,40C59.99999999999999,40,58.983050847457626,40,57.96610169491525,40C56.94915254237288,40,55.93220338983051,40,54.91525423728814,40C53.898305084745765,40,52.88135593220339,40,51.86440677966102,40C50.847457627118644,40,49.83050847457627,40,48.813559322033896,40C47.79661016949152,40,46.77966101694915,40,45.762711864406775,40C44.7457627118644,40,43.728813559322035,40,42.71186440677966,40C41.69491525423729,40,40.67796610169491,40,39.66101694915254,40C38.644067796610166,40,37.6271186440678,40,36.610169491525426,40C35.59322033898305,40,34.57627118644068,40,33.559322033898304,40C32.54237288135593,40,31.525423728813557,40,30.508474576271183,40C29.491525423728813,40,28.47457627118644,40,27.45762711864407,40C26.440677966101696,40,25.423728813559322,40,24.406779661016948,40C23.389830508474574,40,22.372881355932204,40,21.35593220338983,40C20.338983050847457,40,19.322033898305087,40,18.305084745762713,40C17.28813559322034,40,16.271186440677965,40,15.254237288135592,40C14.23728813559322,40,13.220338983050846,40,12.203389830508474,40C11.186440677966102,40,10.169491525423728,40,9.152542372881356,40C8.135593220338983,40,7.11864406779661,40,6.101694915254237,40C5.084745762711864,40,4.067796610169491,40,3.0508474576271185,40C2.0338983050847457,40,1.0169491525423728,40,0,40Z"></path><path class="line" stroke="black" fill="none" d="M0,37C1.0169491525423728,37,2.0338983050847457,37,3.0508474576271185,37C4.067796610169491,37,5.084745762711864,38,6.101694915254237,38C7.11864406779661,38,8.135593220338983,38,9.152542372881356,38C10.169491525423728,38,11.186440677966102,38,12.203389830508474,38C13.220338983050846,38,14.23728813559322,40,15.254237288135592,40C16.271186440677965,40,17.28813559322034,40,18.305084745762713,40C19.322033898305087,40,20.338983050847457,40,21.35593220338983,40C22.372881355932204,40,23.389830508474574,40,24.406779661016948,40C25.423728813559322,40,26.440677966101696,40,27.45762711864407,40C28.47457627118644,40,29.491525423728813,30.833333333333332,30.508474576271183,28C31.525423728813557,25.16666666666666,32.54237288135593,23,33.559322033898304,23C34.57627118644068,23,35.59322033898305,23,36.610169491525426,23C37.6271186440678,23,38.644067796610166,23,39.66101694915254,23C40.67796610169491,23,41.69491525423729,18,42.71186440677966,18C43.728813559322035,18,44.7457627118644,18,45.762711864406775,18C46.77966101694915,18,47.79661016949152,12.000000000000002,48.813559322033896,12.000000000000002C49.83050847457627,12.000000000000002,50.847457627118644,25,51.86440677966102,25C52.88135593220339,25,53.898305084745765,12.000000000000002,54.91525423728814,12.000000000000002C55.93220338983051,12.000000000000002,56.94915254237288,12.000000000000002,57.96610169491525,12.000000000000002C58.983050847457626,12.000000000000002,59.99999999999999,12.000000000000002,61.01694915254237,12.000000000000002C62.03389830508474,12.000000000000002,63.05084745762712,11.666666666666668,64.0677966101695,11C65.08474576271186,10.333333333333336,66.10169491525424,0,67.11864406779661,0C68.13559322033899,0,69.15254237288136,5,70.16949152542374,5C71.1864406779661,5,72.20338983050848,3.999999999999999,73.22033898305085,3.999999999999999C74.23728813559322,3.999999999999999,75.2542372881356,20,76.27118644067797,20C77.28813559322033,20,78.30508474576271,18.5,79.32203389830508,18C80.33898305084746,17.499999999999996,81.35593220338983,17,82.37288135593221,17C83.38983050847457,17,84.40677966101696,18.66666666666668,85.42372881355932,21C86.4406779661017,23.333333333333336,87.45762711864407,30.33333333333333,88.47457627118645,31C89.49152542372882,31.666666666666668,90.50847457627118,32,91.52542372881355,32C92.54237288135593,32,93.55932203389831,32,94.57627118644069,32C95.59322033898306,32,96.61016949152543,34.16666666666667,97.62711864406779,35C98.64406779661016,35.833333333333336,99.66101694915254,36.5,100.6779661016949,37C101.69491525423729,37.5,102.71186440677965,37.666666666666664,103.72881355932203,38C104.7457627118644,38.333333333333336,105.76271186440678,39,106.77966101694915,39C107.79661016949153,39,108.8135593220339,37,109.83050847457628,37C110.84745762711864,37,111.86440677966102,37.666666666666664,112.88135593220339,38C113.89830508474576,38.333333333333336,114.91525423728814,39,115.9322033898305,39C116.94915254237289,39,117.96610169491525,39,118.98305084745763,39C120,39,121.01694915254237,34.49999999999999,122.03389830508473,33C123.05084745762711,31.499999999999982,124.0677966101695,31.166666666666675,125.08474576271188,30C126.10169491525424,28.833333333333336,127.11864406779662,27.166666666666668,128.135593220339,26C129.15254237288136,24.833333333333336,130.16949152542372,23.833333333333332,131.1864406779661,23C132.20338983050846,22.16666666666666,133.22033898305085,22.333333333333332,134.23728813559322,21C135.25423728813558,19.666666666666668,136.27118644067798,15.833333333333334,137.28813559322035,14C138.3050847457627,12.166666666666666,139.3220338983051,10,140.33898305084747,10C141.35593220338984,10,142.3728813559322,12.000000000000002,143.38983050847457,12.000000000000002C144.40677966101694,12.000000000000002,145.42372881355934,12.000000000000002,146.4406779661017,12.000000000000002C147.45762711864407,12.000000000000002,148.47457627118644,10,149.4915254237288,10C150.50847457627117,10,151.52542372881356,10.666666666666666,152.54237288135593,11C153.5593220338983,11.333333333333334,154.5762711864407,12.000000000000002,155.59322033898306,12.000000000000002C156.61016949152543,12.000000000000002,157.6271186440678,11,158.64406779661016,11C159.66101694915253,11,160.67796610169492,11.500000000000002,161.6949152542373,12.000000000000002C162.71186440677965,12.500000000000002,163.72881355932205,14,164.74576271186442,14C165.76271186440678,14,166.77966101694915,12.999999999999998,167.79661016949152,12.999999999999998C168.81355932203388,12.999999999999998,169.83050847457628,18,170.84745762711864,18C171.864406779661,18,172.8813559322034,18,173.89830508474577,18C174.91525423728814,18,175.93220338983053,18,176.9491525423729,18C177.96610169491527,18,178.98305084745763,20,180,22"></path><path class="axis-ceiling" stroke-width="1" stroke="black" fill="none" d="M175,0L180,0"></path><text class="axis-ceiling-label" font-family="sans-serif" text-anchor="end" font-size="10px" x="170" y="2.5">40</text></g></svg>