<svg xmlns="http://www.w3.org/2000/svg" viewBox="0 0 180 60"><g transform="translate(0,20)"><path class="area" fill="rgba(0, 0, 0, 0.2)" d="M0,37.6276C1.0169491525423728,37.62233333333334,2.0338983050847457,37.617066666666666,3.0508474576271185,37.596C4.067796610169491,37.57493333333333,5.084745762711864,37.377199999999995,6.101694915254237,37.2352C7.11864406779661,37.093199999999996,8.135593220338983,36.845866666666666,9.152542372881356,36.744C10.169491525423728,36.642133333333334,11.186440677966102,36.6402,12.203389830508474,36.5912C13.220338983050846,36.5422,14.23728813559322,36.49246666666667,15.254237288135592,36.45C16.271186440677965,36.40753333333333,17.28813559322034,36.379133333333336,18.305084745762713,36.3364C19.322033898305087,36.29366666666667,20.338983050847457,36.24213333333333,21.35593220338983,36.193599999999996C22.372881355932204,36.145066666666665,23.389830508474574,36.09433333333333,24.406779661016948,36.0452C25.423728813559322,35.99606666666667,26.440677966101696,35.94886666666667,27.45762711864407,35.8988C28.47457627118644,35.848733333333335,29.491525423728813,35.797533333333334,30.508474576271183,35.7448C31.525423728813557,35.69206666666666,32.54237288135593,35.63653333333333,33.559322033898304,35.5824C34.57627118644068,35.52826666666667,35.59322033898305,35.47553333333334,36.610169491525426,35.42C37.6271186440678,35.36446666666667,38.644067796610166,35.3126,39.66101694915254,35.2492C40.67796610169491,35.1858,41.69491525423729,35.105133333333335,42.71186440677966,35.0396C43.728813559322035,34.974066666666666,44.7457627118644,34.919,45.762711864406775,34.855999999999995C46.77966101694915,34.79299999999999,47.79661016949152,34.7224,48.813559322033896,34.6616C49.83050847457627,34.6008,50.847457627118644,34.552,51.86440677966102,34.4912C52.88135593220339,34.4304,53.898305084745765,34.361666666666665,54.91525423728814,34.2968C55.93220338983051,34.23193333333333,56.94915254237288,34.201800000000006,57.96610169491525,34.102000000000004C58.983050847457626,34.0022,59.99999999999999,33.83566666666667,61.01694915254237,33.698C62.03389830508474,33.56033333333333,63.05084745762712,33.395199999999996,64.0677966101695,33.275999999999996C65.08474576271186,33.1568,66.10169491525424,33.06433333333333,67.11864406779661,32.9828C68.13559322033899,32.901266666666665,69.15254237288136,32.8652,70.16949152542374,32.7868C71.1864406779661,32.7084,72.20338983050848,32.61966666666667,73.22033898305085,32.5124C74.23728813559322,32.40513333333333,75.2542372881356,32.274,76.27118644067797,32.1432C77.28813559322033,32.0124,78.30508474576271,31.86526666666667,79.32203389830508,31.727600000000002C80.33898305084746,31.589933333333335,81.35593220338983,31.467266666666667,82.37288135593221,31.3172C83.38983050847457,31.167133333333332,84.40677966101696,31.002266666666667,85.42372881355932,30.8272C86.4406779661017,30.652133333333335,87.45762711864407,30.4474,88.47457627118645,30.266799999999996C89.49152542372882,30.086199999999998,90.50847457627118,29.93753333333333,91.52542372881355,29.7436C92.54237288135593,29.549666666666667,93.55932203389831,29.296000000000003,94.57627118644069,29.1032C95.59322033898306,28.910400000000003,96.61016949152543,28.7696,97.62711864406779,28.5868C98.64406779661016,28.404,99.66101694915254,28.195733333333333,100.6779661016949,28.0064C101.69491525423729,27.817066666666665,102.71186440677965,27.629199999999997,103.72881355932203,27.450799999999997C104.7457627118644,27.272399999999998,105.76271186440678,27.126466666666666,106.77966101694915,26.936C107.79661016949153,26.745533333333334,108.8135593220339,26.512866666666667,109.83050847457628,26.308C110.84745762711864,26.103133333333332,111.86440677966102,25.9102,112.88135593220339,25.7068C113.89830508474576,25.503400000000003,114.91525423728814,25.260733333333334,115.9322033898305,25.087600000000002C116.94915254237289,24.91446666666667,117.96610169491525,24.8222,118.98305084745763,24.668C120,24.5138,121.01694915254237,24.325666666666667,122.03389830508473,24.1624C123.05084745762711,23.999133333333333,124.0677966101695,23.838400000000004,125.08474576271188,23.6884C126.10169491525424,23.538400000000003,127.11864406779662,23.39186666666667,128.135593220339,23.262400000000003C129.15254237288136,23.132933333333337,130.16949152542372,23.027733333333334,131.1864406779661,22.9116C132.20338983050846,22.795466666666666,133.22033898305085,22.676933333333334,134.23728813559322,22.5656C135.25423728813558,22.454266666666665,136.27118644067798,22.347533333333335,137.28813559322035,22.2436C138.3050847457627,22.139666666666667,139.3220338983051,22.039466666666666,140.33898305084747,21.942C141.35593220338984,21.844533333333334,142.3728813559322,21.738333333333333,143.38983050847457,21.6588C144.40677966101694,21.579266666666665,145.42372881355934,21.52446666666667,146.4406779661017,21.4648C147.45762711864407,21.405133333333335,148.47457627118644,21.368666666666666,149.4915254237288,21.3008C150.50847457627117,21.23293333333333,151.52542372881356,21.1438,152.54237288135593,21.0576C153.5593220338983,20.971400000000003,154.5762711864407,20.871466666666667,155.59322033898306,20.7836C156.61016949152543,20.695733333333333,157.6271186440678,20.5504,158.64406779661016,20.5304C159.66101694915253,20.5104,160.67796610169492,20.5204,161.6949152542373,20.5004C162.71186440677965,20.4804,163.72881355932205,20.339,164.74576271186442,20.272C165.76271186440678,20.205,166.77966101694915,20.172800000000002,167.79661016949152,20.0984C168.81355932203388,20.024,169.83050847457628,19.892866666666663,170.84745762711864,19.825599999999998C171.864406779661,19.758333333333333,172.8813559322034,19.76226666666667,173.89830508474577,19.6948C174.91525423728814,19.627333333333333,175.93220338983053,19.502133333333333,176.9491525423729,19.4208C177.96610169491527,19.339466666666667,178.98305084745763,19.273133333333334,180,19.2068L180,40C178.98305084745763,40,177.96610169491527,40,176.9491525423729,40C175.93220338983053,40,174.91525423728814,40,173.89830508474577,40C172.8813559322034,40,171.864406779661,40,170.84745762711864,40C169.83050847457628,40,168.81355932203388,40,167.79661016949152,40C166.77966101694915,40,165.76271186440678,40,164.74576271186442,40C163.72881355932205,40,162.71186440677965,40,161.6949152542373,40C160.67796610169492,40,159.66101694915253,40,158.64406779661016,40C157.6271186440678,40,156.61016949152543,40,155.59322033898306,40C154.5762711864407,40,153.5593220338983,40,152.54237288135593,40C151.52542372881356,40,150.50847457627117,40,149.4915254237288,40C148.47457627118644,40,147.45762711864407,40,146.4406779661017,40C145.42372881355934,40,144.40677966101694,40,143.38983050847457,40C142.3728813559322,40,141.35593220338984,40,140.33898305084747,40C139.3220338983051,40,138.3050847457627,40,137.28813559322035,40C136.27118644067798,40,135.25423728813558,40,134.23728813559322,40C133.22033898305085,40,132.20338983050846,40,131.1864406779661,40C130.16949152542372,40,129.15254237288136,40,128.135593220339,40C127.11864406779662,40,126.10169491525424,40,125.08474576271188,40C124.0677966101695,40,123.05084745762711,40,122.03389830508473,40C121.01694915254237,40,120,40,118.98305084745763,40C117.96610169491525,40,116.94915254237289,40,115.9322033898305,40C114.91525423728814,40,113.89830508474576,40,112.88135593220339,40C111.86440677966102,40,110.84745762711864,40,109.83050847457628,40C108.8135593220339,40,107.79661016949153,40,106.77966101694915,40C105.76271186440678,40,104.7457627118644,40,103.72881355932203,40C102.71186440677965,40,101.69491525423729,40,100.6779661016949,40C99.66101694915254,40,98.64406779661016,40,97.62711864406779,40C96.61016949152543,40,95.59322033898306,40,94.57627118644069,40C93.55932203389831,40,92.54237288135593,40,91.52542372881355,40C90.50847457627118,40,89.49152542372882,40,88.47457627118645,40C87.45762711864407,40,86.4406779661017,40,85.42372881355932,40C84.40677966101696,40,83.38983050847457,40,82.37288135593221,40C81.35593220338983,40,80.33898305084746,40,79.32203389830508,40C78.30508474576271,40,77.28813559322033,40,76.27118644067797,40C75.2542372881356,40,74.23728813559322,40,73.22033898305085,40C72.20338983050848,40,71.1864406779661,40,70.16949152542374,40C69.15254237288136,40,68.13559322033899,40,67.11864406779661,40C66.10169491525424,40,65.08474576271186,40,64.0677966101695,40C63.05084745762712,40,62.03389830508474,40,61.01694915254237,40C59.99999999999999,40,58.983050847457626,40,57.96610169491525,40C56.94915254237288,40,55.93220338983051,40,54.91525423728814,40C53.898305084745765,40,52.88135593220339,40,51.86440677966102,40C50.847457627118644,40,49.83050847457627,40,48.813559322033896,40C47.79661016949152,40,46.77966101694915,40,45.762711864406775,40C44.7457627118644,40,43.728813559322035,40,42.71186440677966,40C41.69491525423729,40,40.67796610169491,40,39.66101694915254,40C38.644067796610166,40,37.6271186440678,40,36.610169491525426,40C35.59322033898305,40,34.57627118644068,40,33.559322033898304,40C32.54237288135593,40,31.525423728813557,40,30.508474576271183,40C29.491525423728813,40,28.47457627118644,40,27.45762711864407,40C26.440677966101696,40,25.423728813559322,40,24.406779661016948,40C23.389830508474574,40,22.372881355932204,40,21.35593220338983,40C20.338983050847457,40,19.322033898305087,40,18.305084745762713,40C17.28813559322034,40,16.271186440677965,40,15.254237288135592,40C14.23728813559322,40,13.220338983050846,40,12.203389830508474,40C11.186440677966102,40,10.169491525423728,40,9.152542372881356,40C8.135593220338983,40,7.11864406779661,40,6.101694915254237,40C5.084745762711864,40,4.067796610169491,40,3.0508474576271185,40C2.0338983050847457,40,1.0169491525423728,40,0,40Z"></path><path class="line" stroke="black" fill="none" d="M0,37.6276C1.0169491525423728,37.62233333333334,2.0338983050847457,37.617066666666666,3.0508474576271185,37.596C4.067796610169491,37.57493333333333,5.084745762711864,37.377199999999995,6.101694915254237,37.2352C7.11864406779661,37.093199999999996,8.135593220338983,36.845866666666666,9.152542372881356,36.744C10.169491525423728,36.642133333333334,11.186440677966102,36.6402,12.203389830508474,36.5912C13.220338983050846,36.5422,14.23728813559322,36.49246666666667,15.254237288135592,36.45C16.271186440677965,36.40753333333333,17.28813559322034,36.379133333333336,18.305084745762713,36.3364C19.322033898305087,36.29366666666667,20.338983050847457,36.24213333333333,21.35593220338983,36.193599999999996C22.372881355932204,36.145066666666665,23.389830508474574,36.09433333333333,24.406779661016948,36.0452C25.423728813559322,35.99606666666667,26.440677966101696,35.94886666666667,27.45762711864407,35.8988C28.47457627118644,35.848733333333335,29.491525423728813,35.797533333333334,30.508474576271183,35.7448C31.525423728813557,35.69206666666666,32.54237288135593,35.63653333333333,33.559322033898304,35.5824C34.57627118644068,35.52826666666667,35.59322033898305,35.47553333333334,36.610169491525426,35.42C37.6271186440678,35.36446666666667,38.644067796610166,35.3126,39.66101694915254,35.2492C40.67796610169491,35.1858,41.69491525423729,35.105133333333335,42.71186440677966,35.0396C43.728813559322035,34.974066666666666,44.7457627118644,34.919,45.762711864406775,34.855999999999995C46.77966101694915,34.79299999999999,47.79661016949152,34.7224,48.813559322033896,34.6616C49.83050847457627,34.6008,50.847457627118644,34.552,51.86440677966102,34.4912C52.88135593220339,34.4304,53.898305084745765,34.361666666666665,54.91525423728814,34.2968C55.93220338983051,34.23193333333333,56.94915254237288,34.201800000000006,57.96610169491525,34.102000000000004C58.983050847457626,34.0022,59.99999999999999,33.83566666666667,61.01694915254237,33.698C62.03389830508474,33.56033333333333,63.05084745762712,33.395199999999996,64.0677966101695,33.275999999999996C65.08474576271186,33.1568,66.10169491525424,33.06433333333333,67.11864406779661,32.9828C68.13559322033899,32.901266666666665,69.15254237288136,32.8652,70.16949152542374,32.7868C71.1864406779661,32.7084,72.20338983050848,32.61966666666667,73.22033898305085,32.5124C74.23728813559322,32.40513333333333,75.2542372881356,32.274,76.27118644067797,32.1432C77.28813559322033,32.0124,78.30508474576271,31.86526666666667,79.32203389830508,31.727600000000002C80.33898305084746,31.589933333333335,81.35593220338983,31.467266666666667,82.37288135593221,31.3172C83.38983050847457,31.167133333333332,84.40677966101696,31.002266666666667,85.42372881355932,30.8272C86.4406779661017,30.652133333333335,87.45762711864407,30.4474,88.47457627118645,30.266799999999996C89.49152542372882,30.086199999999998,90.50847457627118,29.93753333333333,91.52542372881355,29.7436C92.54237288135593,29.549666666666667,93.55932203389831,29.296000000000003,94.57627118644069,29.1032C95.59322033898306,28.910400000000003,96.61016949152543,28.7696,97.62711864406779,28.5868C98.64406779661016,28.404,99.66101694915254,28.195733333333333,100.6779661016949,28.0064C101.69491525423729,27.817066666666665,102.71186440677965,27.629199999999997,103.72881355932203,27.450799999999997C104.7457627118644,27.272399999999998,105.76271186440678,27.126466666666666,106.77966101694915,26.936C107.79661016949153,26.745533333333334,108.8135593220339,26.512866666666667,109.83050847457628,26.308C110.84745762711864,26.103133333333332,111.86440677966102,25.9102,112.88135593220339,25.7068C113.89830508474576,25.503400000000003,114.91525423728814,25.260733333333334,115.9322033898305,25.087600000000002C116.94915254237289,24.91446666666667,117.96610169491525,24.8222,118.98305084745763,24.668C120,24.5138,121.01694915254237,24.325666666666667,122.03389830508473,24.1624C123.05084745762711,23.999133333333333,124.0677966101695,23.838400000000004,125.08474576271188,23.6884C126.10169491525424,23.538400000000003,127.11864406779662,23.39186666666667,128.135593220339,23.262400000000003C129.15254237288136,23.132933333333337,130.16949152542372,23.027733333333334,131.1864406779661,22.9116C132.20338983050846,22.795466666666666,133.22033898305085,22.676933333333334,134.23728813559322,22.5656C135.25423728813558,22.454266666666665,136.27118644067798,22.347533333333335,137.28813559322035,22.2436C138.3050847457627,22.139666666666667,139.3220338983051,22.039466666666666,140.33898305084747,21.942C141.35593220338984,21.844533333333334,142.3728813559322,21.738333333333333,143.38983050847457,21.6588C144.40677966101694,21.579266666666665,145.42372881355934,21.52446666666667,146.4406779661017,21.4648C147.45762711864407,21.405133333333335,148.47457627118644,21.368666666666666,149.4915254237288,21.3008C150.50847457627117,21.23293333333333,151.52542372881356,21.1438,152.54237288135593,21.0576C153.5593220338983,20.971400000000003,154.5762711864407,20.871466666666667,155.59322033898306,20.7836C156.61016949152543,20.695733333333333,157.6271186440678,20.5504,158.64406779661016,20.5304C159.66101694915253,20.5104,160.67796610169492,20.5204,161.6949152542373,20.5004C162.71186440677965,20.4804,163.72881355932205,20.339,164.74576271186442,20.272C165.76271186440678,20.205,166.77966101694915,20.172800000000002,167.79661016949152,20.0984C168.81355932203388,20.024,169.83050847457628,19.892866666666663,170.84745762711864,19.825599999999998C171.864406779661,19.758333333333333,172.8813559322034,19.76226666666667,173.89830508474577,19.6948C174.91525423728814,19.627333333333333,175.93220338983053,19.502133333333333,176.9491525423729,19.4208C177.96610169491527,19.339466666666667,178.98305084745763,19.273133333333334,180,19.2068"></path><path class="axis-ceiling" stroke-width="1" stroke="black" fill="none" d="M175,0L180,0"></path><text class="axis-ceiling-label" font-family="sans-serif" text-anchor="end" font-size="10px" x="170" y="2.5">100000</text></g></svg>