<svg xmlns="http://www.w3.org/2000/svg" viewBox="0 0 180 60"><g transform="translate(0,20)"><path class="area" fill="rgba(0, 0, 0, 0.2)" d="M0,32.86C1.0169491525423728,32.72,2.0338983050847457,32.58,3.0508474576271185,32.58C4.067796610169491,32.58,5.084745762711864,32.68,6.101694915254237,32.68C7.11864406779661,32.68,8.135593220338983,32.43333333333333,9.152542372881356,32.3C10.169491525423728,32.166666666666664,11.186440677966102,31.879999999999995,12.203389830508474,31.879999999999995C13.220338983050846,31.879999999999995,14.23728813559322,31.879999999999995,15.254237288135592,31.879999999999995C16.271186440677965,31.879999999999995,17.28813559322034,31.74,18.305084745762713,31.46C19.322033898305087,31.180000000000003,20.338983050847457,29.52,21.35593220338983,29.52C22.372881355932204,29.52,23.389830508474574,30.82,24.406779661016948,30.82C25.423728813559322,30.82,26.440677966101696,30.28,27.45762711864407,30.28C28.47457627118644,30.28,29.491525423728813,31.48,30.508474576271183,31.48C31.525423728813557,31.48,32.54237288135593,30.293333333333337,33.559322033898304,30.28C34.57627118644068,30.266666666666666,35.59322033898305,30.273333333333333,36.610169491525426,30.259999999999998C37.6271186440678,30.246666666666663,38.644067796610166,20.4,39.66101694915254,19.8C40.67796610169491,19.200000000000003,41.69491525423729,18.900000000000002,42.71186440677966,18.900000000000002C43.728813559322035,18.900000000000002,44.7457627118644,23.456666666666663,45.762711864406775,25.339999999999996C46.77966101694915,27.223333333333333,47.79661016949152,30.2,48.813559322033896,30.2C49.83050847457627,30.2,50.847457627118644,27.723333333333336,51.86440677966102,26.28C52.88135593220339,24.836666666666666,53.898305084745765,22.716666666666665,54.91525423728814,21.54C55.93220338983051,20.363333333333337,56.94915254237288,19.220000000000002,57.96610169491525,19.220000000000002C58.983050847457626,19.220000000000002,59.99999999999999,19.48,61.01694915254237,19.48C62.03389830508474,19.48,63.05084745762712,16.75,64.0677966101695,15.499999999999998C65.08474576271186,14.250000000000002,66.10169491525424,11.98,67.11864406779661,11.98C68.13559322033899,11.98,69.15254237288136,13.84,70.16949152542374,13.84C71.1864406779661,13.84,72.20338983050848,7.98,73.22033898305085,7.98C74.23728813559322,7.98,75.2542372881356,14.180000000000001,76.27118644067797,14.180000000000001C77.28813559322033,14.180000000000001,78.30508474576271,10.979999999999999,79.32203389830508,10.979999999999999C80.33898305084746,10.979999999999999,81.35593220338983,11.67333333333333,82.37288135593221,12.219999999999999C83.38983050847457,12.766666666666666,84.40677966101696,14.260000000000002,85.42372881355932,14.260000000000002C86.4406779661017,14.260000000000002,87.45762711864407,8.599999999999998,88.47457627118645,8.599999999999998C89.49152542372882,8.599999999999998,90.50847457627118,9.940000000000001,91.52542372881355,9.940000000000001C92.54237288135593,9.940000000000001,93.55932203389831,9.04,94.57627118644069,9.04C95.59322033898306,9.04,96.61016949152543,19.020000000000003,97.62711864406779,19.020000000000003C98.64406779661016,19.020000000000003,99.66101694915254,14.719999999999999,100.6779661016949,14.719999999999999C101.69491525423729,14.719999999999999,102.71186440677965,15.636666666666661,103.72881355932203,16.299999999999997C104.7457627118644,16.96333333333333,105.76271186440678,17.67333333333334,106.77966101694915,18.700000000000003C107.79661016949153,19.72666666666667,108.8135593220339,22.3,109.83050847457628,22.46C110.84745762711864,22.62,111.86440677966102,22.54,112.88135593220339,22.7C113.89830508474576,22.86,114.91525423728814,23.529999999999998,115.9322033898305,23.9C116.94915254237289,24.27,117.96610169491525,24.596666666666668,118.98305084745763,24.92C120,25.243333333333332,121.01694915254237,25.226666666666667,122.03389830508473,25.84C123.05084745762711,26.45333333333334,124.0677966101695,29.306666666666672,125.08474576271188,30.300000000000004C126.10169491525424,31.29333333333333,127.11864406779662,31.8,128.135593220339,31.8C129.15254237288136,31.8,130.16949152542372,28.756666666666664,131.1864406779661,27.839999999999996C132.20338983050846,26.92333333333332,133.22033898305085,26.299999999999997,134.23728813559322,26.299999999999997C135.25423728813558,26.299999999999997,136.27118644067798,26.646666666666665,137.28813559322035,27.34C138.3050847457627,28.033333333333335,139.3220338983051,38.5,140.33898305084747,38.5C141.35593220338984,38.5,142.3728813559322,28.580000000000002,143.38983050847457,28.580000000000002C144.40677966101694,28.580000000000002,145.42372881355934,31.32,146.4406779661017,31.32C147.45762711864407,31.32,148.47457627118644,26.36,149.4915254237288,26.36C150.50847457627117,26.36,151.52542372881356,33.46,152.54237288135593,33.46C153.5593220338983,33.46,154.5762711864407,26.299999999999997,155.59322033898306,26.299999999999997C156.61016949152543,26.299999999999997,157.6271186440678,29.299999999999997,158.64406779661016,29.299999999999997C159.66101694915253,29.299999999999997,160.67796610169492,23.42,161.6949152542373,23.42C162.71186440677965,23.42,163.72881355932205,23.72666666666667,164.74576271186442,24.340000000000003C165.76271186440678,24.953333333333333,166.77966101694915,36.28,167.79661016949152,36.28C168.81355932203388,36.28,169.83050847457628,35.486666666666665,170.84745762711864,34C171.864406779661,32.513333333333335,172.8813559322034,27.36,173.89830508474577,27.36C174.91525423728814,27.36,175.93220338983053,30.69333333333333,176.9491525423729,31.12C177.96610169491527,31.546666666666667,178.98305084745763,31.653333333333336,180,31.76L180,40C178.98305084745763,40,177.96610169491527,40,176.9491525423729,40C175.93220338983053,40,174.91525423728814,40,173.89830508474577,40C172.8813559322034,40,171.864406779661,40,170.84745762711864,40C169.83050847457628,40,168.81355932203388,40,167.79661016949152,40C166.77966101694915,40,165.76271186440678,40,164.74576271186442,40C163.72881355932205,40,162.71186440677965,40,161.6949152542373,40C160.67796610169492,40,159.66101694915253,40,158.64406779661016,40C157.6271186440678,40,156.61016949152543,40,155.59322033898306,40C154.5762711864407,40,153.5593220338983,40,152.54237288135593,40C151.52542372881356,40,150.50847457627117,40,149.4915254237288,40C148.47457627118644,40,147.45762711864407,40,146.4406779661017,40C145.42372881355934,40,144.40677966101694,40,143.38983050847457,40C142.3728813559322,40,141.35593220338984,40,140.33898305084747,40C139.3220338983051,40,138.3050847457627,40,137.28813559322035,40C136.27118644067798,40,135.25423728813558,40,134.23728813559322,40C133.22033898305085,40,132.20338983050846,40,131.1864406779661,40C130.16949152542372,40,129.15254237288136,40,128.135593220339,40C127.11864406779662,40,126.10169491525424,40,125.08474576271188,40C124.0677966101695,40,123.05084745762711,40,122.03389830508473,40C121.01694915254237,40,120,40,118.98305084745763,40C117.96610169491525,40,116.94915254237289,40,115.9322033898305,40C114.91525423728814,40,113.89830508474576,40,112.88135593220339,40C111.86440677966102,40,110.84745762711864,40,109.83050847457628,40C108.8135593220339,40,107.79661016949153,40,106.77966101694915,40C105.76271186440678,40,104.7457627118644,40,103.72881355932203,40C102.71186440677965,40,101.69491525423729,40,100.6779661016949,40C99.66101694915254,40,98.64406779661016,40,97.62711864406779,40C96.61016949152543,40,95.59322033898306,40,94.57627118644069,40C93.55932203389831,40,92.54237288135593,40,91.52542372881355,40C90.50847457627118,40,89.49152542372882,40,88.47457627118645,40C87.45762711864407,40,86.4406779661017,40,85.42372881355932,40C84.40677966101696,40,83.38983050847457,40,82.37288135593221,40C81.35593220338983,40,80.33898305084746,40,79.32203389830508,40C78.30508474576271,40,77.28813559322033,40,76.27118644067797,40C75.2542372881356,40,74.23728813559322,40,73.22033898305085,40C72.20338983050848,40,71.1864406779661,40,70.16949152542374,40C69.15254237288136,40,68.13559322033899,40,67.11864406779661,40C66.10169491525424,40,65.08474576271186,40,64.0677966101695,40C63.05084745762712,40,62.03389830508474,40,61.01694915254237,40C59.99999999999999,40,58.983050847457626,40,57.96610169491525,40C56.94915254237288,40,55.93220338983051,40,54.91525423728814,40C53.898305084745765,40,52.88135593220339,40,51.86440677966102,40C50.847457627118644,40,49.83050847457627,40,48.813559322033896,40C47.79661016949152,40,46.77966101694915,40,45.762711864406775,40C44.7457627118644,40,43.728813559322035,40,42.71186440677966,40C41.69491525423729,40,40.67796610169491,40,39.66101694915254,40C38.644067796610166,40,37.6271186440678,40,36.610169491525426,40C35.59322033898305,40,34.57627118644068,40,33.559322033898304,40C32.54237288135593,40,31.525423728813557,40,30.508474576271183,40C29.491525423728813,40,28.47457627118644,40,27.45762711864407,40C26.440677966101696,40,25.423728813559322,40,24.406779661016948,40C23.389830508474574,40,22.372881355932204,40,21.35593220338983,40C20.338983050847457,40,19.322033898305087,40,18.305084745762713,40C17.28813559322034,40,16.271186440677965,40,15.254237288135592,40C14.23728813559322,40,13.220338983050846,40,12.203389830508474,40C11.186440677966102,40,10.169491525423728,40,9.152542372881356,40C8.135593220338983,40,7.11864406779661,40,6.101694915254237,40C5.084745762711864,40,4.067796610169491,40,3.0508474576271185,40C2.0338983050847457,40,1.0169491525423728,40,0,40Z"></path><path class="line" stroke="black" fill="none" d="M0,32.86C1.0169491525423728,32.72,2.0338983050847457,32.58,3.0508474576271185,32.58C4.067796610169491,32.58,5.084745762711864,32.68,6.101694915254237,32.68C7.11864406779661,32.68,8.135593220338983,32.43333333333333,9.152542372881356,32.3C10.169491525423728,32.166666666666664,11.186440677966102,31.879999999999995,12.203389830508474,31.879999999999995C13.220338983050846,31.879999999999995,14.23728813559322,31.879999999999995,15.254237288135592,31.879999999999995C16.271186440677965,31.879999999999995,17.28813559322034,31.74,18.305084745762713,31.46C19.322033898305087,31.180000000000003,20.338983050847457,29.52,21.35593220338983,29.52C22.372881355932204,29.52,23.389830508474574,30.82,24.406779661016948,30.82C25.423728813559322,30.82,26.440677966101696,30.28,27.45762711864407,30.28C28.47457627118644,30.28,29.491525423728813,31.48,30.508474576271183,31.48C31.525423728813557,31.48,32.54237288135593,30.293333333333337,33.559322033898304,30.28C34.57627118644068,30.266666666666666,35.59322033898305,30.273333333333333,36.610169491525426,30.259999999999998C37.6271186440678,30.246666666666663,38.644067796610166,20.4,39.66101694915254,19.8C40.67796610169491,19.200000000000003,41.69491525423729,18.900000000000002,42.71186440677966,18.900000000000002C43.728813559322035,18.900000000000002,44.7457627118644,23.456666666666663,45.762711864406775,25.339999999999996C46.77966101694915,27.223333333333333,47.79661016949152,30.2,48.813559322033896,30.2C49.83050847457627,30.2,50.847457627118644,27.723333333333336,51.86440677966102,26.28C52.88135593220339,24.836666666666666,53.898305084745765,22.716666666666665,54.91525423728814,21.54C55.93220338983051,20.363333333333337,56.94915254237288,19.220000000000002,57.96610169491525,19.220000000000002C58.983050847457626,19.220000000000002,59.99999999999999,19.48,61.01694915254237,19.48C62.03389830508474,19.48,63.05084745762712,16.75,64.0677966101695,15.499999999999998C65.08474576271186,14.250000000000002,66.10169491525424,11.98,67.11864406779661,11.98C68.13559322033899,11.98,69.15254237288136,13.84,70.16949152542374,13.84C71.1864406779661,13.84,72.20338983050848,7.98,73.22033898305085,7.98C74.23728813559322,7.98,75.2542372881356,14.180000000000001,76.27118644067797,14.180000000000001C77.28813559322033,14.180000000000001,78.30508474576271,10.979999999999999,79.32203389830508,10.979999999999999C80.33898305084746,10.979999999999999,81.35593220338983,11.67333333333333,82.37288135593221,12.219999999999999C83.38983050847457,12.766666666666666,84.40677966101696,14.260000000000002,85.42372881355932,14.260000000000002C86.4406779661017,14.260000000000002,87.45762711864407,8.599999999999998,88.47457627118645,8.599999999999998C89.49152542372882,8.599999999999998,90.50847457627118,9.940000000000001,91.52542372881355,9.940000000000001C92.54237288135593,9.940000000000001,93.55932203389831,9.04,94.57627118644069,9.04C95.59322033898306,9.04,96.61016949152543,19.020000000000003,97.62711864406779,19.020000000000003C98.64406779661016,19.020000000000003,99.66101694915254,14.719999999999999,100.6779661016949,14.719999999999999C101.69491525423729,14.719999999999999,102.71186440677965,15.636666666666661,103.72881355932203,16.299999999999997C104.7457627118644,16.96333333333333,105.76271186440678,17.67333333333334,106.77966101694915,18.700000000000003C107.79661016949153,19.72666666666667,108.8135593220339,22.3,109.83050847457628,22.46C110.84745762711864,22.62,111.86440677966102,22.54,112.88135593220339,22.7C113.89830508474576,22.86,114.91525423728814,23.529999999999998,115.9322033898305,23.9C116.94915254237289,24.27,117.96610169491525,24.596666666666668,118.98305084745763,24.92C120,25.243333333333332,121.01694915254237,25.226666666666667,122.03389830508473,25.84C123.05084745762711,26.45333333333334,124.0677966101695,29.306666666666672,125.08474576271188,30.300000000000004C126.10169491525424,31.29333333333333,127.11864406779662,31.8,128.135593220339,31.8C129.15254237288136,31.8,130.16949152542372,28.756666666666664,131.1864406779661,27.839999999999996C132.20338983050846,26.92333333333332,133.22033898305085,26.299999999999997,134.23728813559322,26.299999999999997C135.25423728813558,26.299999999999997,136.27118644067798,26.646666666666665,137.28813559322035,27.34C138.3050847457627,28.033333333333335,139.3220338983051,38.5,140.33898305084747,38.5C141.35593220338984,38.5,142.3728813559322,28.580000000000002,143.38983050847457,28.580000000000002C144.40677966101694,28.580000000000002,145.42372881355934,31.32,146.4406779661017,31.32C147.45762711864407,31.32,148.47457627118644,26.36,149.4915254237288,26.36C150.50847457627117,26.36,151.52542372881356,33.46,152.54237288135593,33.46C153.5593220338983,33.46,154.5762711864407,26.299999999999997,155.59322033898306,26.299999999999997C156.61016949152543,26.299999999999997,157.6271186440678,29.299999999999997,158.64406779661016,29.299999999999997C159.66101694915253,29.299999999999997,160.67796610169492,23.42,161.6949152542373,23.42C162.71186440677965,23.42,163.72881355932205,23.72666666666667,164.74576271186442,24.340000000000003C165.76271186440678,24.953333333333333,166.77966101694915,36.28,167.79661016949152,36.28C168.81355932203388,36.28,169.83050847457628,35.486666666666665,170.84745762711864,34C171.864406779661,32.513333333333335,172.8813559322034,27.36,173.89830508474577,27.36C174.91525423728814,27.36,175.93220338983053,30.69333333333333,176.9491525423729,31.12C177.96610169491527,31.546666666666667,178.98305084745763,31.653333333333336,180,31.76"></path><path class="axis-ceiling" stroke-width="1" stroke="black" fill="none" d="M175,0L180,0"></path><text class="axis-ceiling-label" font-family="sans-serif" text-anchor="end" font-size="10px" x="170" y="2.5">2000</text></g></svg>