<svg xmlns="http://www.w3.org/2000/svg" viewBox="0 0 180 60"><g transform="translate(0,20)"><path class="area" fill="rgba(0, 0, 0, 0.2)" d="M0,40C1.846153846153846,40,3.6923076923076925,40,5.538461538461538,40C6.461538461538462,40,7.384615384615385,40,8.307692307692308,40C9.230769230769232,40,10.153846153846153,40,11.076923076923077,40C12,40,12.923076923076923,40,13.846153846153847,40C17.53846153846154,40,21.23076923076923,40,24.923076923076923,40C26.76923076923077,40,28.615384615384617,40,30.461538461538463,40C31.384615384615387,40,32.30769230769231,40,33.23076923076923,40C34.15384615384615,40,35.07692307692308,40,36,40C36.92307692307693,40,37.84615384615385,40,38.769230769230774,40C39.69230769230769,40,40.61538461538462,40,41.53846153846154,40C42.46153846153846,40,43.38461538461539,40,44.30769230769231,40C46.15384615384615,40,48,40,49.84615384615385,40C50.769230769230774,40,51.69230769230769,40,52.61538461538462,40C53.53846153846154,40,54.46153846153847,40,55.38461538461539,40C56.307692307692314,40,57.23076923076923,40,58.15384615384616,40C59.07692307692308,40,60.00000000000001,40,60.92307692307693,40C61.84615384615385,40,62.769230769230774,40,63.69230769230769,40C64.61538461538461,40,65.53846153846155,37.333333333333336,66.46153846153847,37.333333333333336C67.38461538461539,37.333333333333336,68.30769230769232,37.333333333333336,69.23076923076924,37.333333333333336C70.15384615384616,37.333333333333336,71.07692307692308,37.333333333333336,72,37.333333333333336C72.92307692307692,37.333333333333336,73.84615384615385,38.666666666666664,74.76923076923077,38.666666666666664C75.6923076923077,38.666666666666664,76.61538461538463,38.666666666666664,77.53846153846155,38.666666666666664C78.46153846153847,38.666666666666664,79.38461538461539,37.333333333333336,80.3076923076923,37.333333333333336C81.23076923076923,37.333333333333336,82.15384615384616,37.333333333333336,83.07692307692308,37.333333333333336C84,37.333333333333336,84.92307692307693,38.666666666666664,85.84615384615385,38.666666666666664C86.76923076923077,38.666666666666664,87.6923076923077,38.666666666666664,88.61538461538461,38.666666666666664C89.53846153846153,38.666666666666664,90.46153846153847,38.666666666666664,91.38461538461539,38.666666666666664C92.3076923076923,38.666666666666664,93.23076923076924,37.333333333333336,94.15384615384616,37.333333333333336C95.07692307692308,37.333333333333336,96,38.666666666666664,96.92307692307692,38.666666666666664C97.84615384615384,38.666666666666664,98.76923076923077,38.666666666666664,99.6923076923077,38.666666666666664C100.61538461538461,38.666666666666664,101.53846153846153,38.666666666666664,102.46153846153845,38.666666666666664C103.38461538461539,38.666666666666664,104.3076923076923,37.333333333333336,105.23076923076924,37.333333333333336C106.15384615384616,37.333333333333336,107.07692307692308,37.333333333333336,108,37.333333333333336C108.92307692307692,37.333333333333336,109.84615384615385,37.333333333333336,110.76923076923077,37.333333333333336C111.6923076923077,37.333333333333336,112.61538461538461,37.333333333333336,113.53846153846153,37.333333333333336C114.46153846153847,37.333333333333336,115.38461538461539,36,116.30769230769232,36C117.23076923076924,36,118.15384615384616,37.333333333333336,119.07692307692308,37.333333333333336C120,37.333333333333336,120.92307692307693,36.44444444444444,121.84615384615385,36C122.76923076923077,35.55555555555556,123.6923076923077,34.66666666666667,124.61538461538461,34.66666666666667C125.53846153846153,34.66666666666667,126.46153846153847,34.66666666666667,127.38461538461539,34.66666666666667C128.30769230769232,34.66666666666667,129.23076923076923,36,130.15384615384616,36C131.0769230769231,36,132,36,132.92307692307693,36C133.84615384615384,36,134.76923076923077,37.333333333333336,135.69230769230768,37.333333333333336C136.6153846153846,37.333333333333336,137.53846153846155,37.333333333333336,138.46153846153848,37.333333333333336C139.3846153846154,37.333333333333336,140.30769230769232,37.333333333333336,141.23076923076923,37.333333333333336C142.15384615384616,37.333333333333336,143.07692307692307,40,144,40C144.92307692307693,40,145.84615384615384,40,146.76923076923077,40C147.6923076923077,40,148.6153846153846,40,149.53846153846155,40C150.46153846153845,40,151.3846153846154,40,152.3076923076923,40C153.23076923076923,40,154.15384615384616,40,155.0769230769231,40C156,40,156.92307692307693,27.777777777777775,157.84615384615384,24C158.76923076923077,20.222222222222186,159.69230769230768,17.333333333333336,160.6153846153846,17.333333333333336C161.53846153846155,17.333333333333336,162.46153846153845,17.333333333333336,163.3846153846154,17.333333333333336C164.30769230769232,17.333333333333336,165.23076923076923,17.333333333333336,166.15384615384616,17.333333333333336C167.0769230769231,17.333333333333336,168,10.666666666666668,168.92307692307693,10.666666666666668C169.84615384615387,10.666666666666668,170.76923076923077,10.666666666666668,171.6923076923077,10.666666666666668C172.6153846153846,10.666666666666668,173.53846153846155,2.666666666666666,174.46153846153845,2.666666666666666C175.3846153846154,2.666666666666666,176.3076923076923,20,177.23076923076923,20C178.15384615384616,20,179.07692307692307,11.333333333333334,180,2.666666666666666L180,40C179.07692307692307,40,178.15384615384616,40,177.23076923076923,40C176.3076923076923,40,175.3846153846154,40,174.46153846153845,40C173.53846153846155,40,172.6153846153846,40,171.6923076923077,40C170.76923076923077,40,169.84615384615387,40,168.92307692307693,40C168,40,167.0769230769231,40,166.15384615384616,40C165.23076923076923,40,164.30769230769232,40,163.3846153846154,40C162.46153846153845,40,161.53846153846155,40,160.6153846153846,40C159.69230769230768,40,158.76923076923077,40,157.84615384615384,40C156.92307692307693,40,156,40,155.0769230769231,40C154.15384615384616,40,153.23076923076923,40,152.3076923076923,40C151.3846153846154,40,150.46153846153845,40,149.53846153846155,40C148.6153846153846,40,147.6923076923077,40,146.76923076923077,40C145.84615384615384,40,144.92307692307693,40,144,40C143.07692307692307,40,142.15384615384616,40,141.23076923076923,40C140.30769230769232,40,139.3846153846154,40,138.46153846153848,40C137.53846153846155,40,136.6153846153846,40,135.69230769230768,40C134.76923076923077,40,133.84615384615384,40,132.92307692307693,40C132,40,131.0769230769231,40,130.15384615384616,40C129.23076923076923,40,128.30769230769232,40,127.38461538461539,40C126.46153846153847,40,125.53846153846153,40,124.61538461538461,40C123.6923076923077,40,122.76923076923077,40,121.84615384615385,40C120.92307692307693,40,120,40,119.07692307692308,40C118.15384615384616,40,117.23076923076924,40,116.30769230769232,40C115.38461538461539,40,114.46153846153847,40,113.53846153846153,40C112.61538461538461,40,111.6923076923077,40,110.76923076923077,40C109.84615384615385,40,108.92307692307692,40,108,40C107.07692307692308,40,106.15384615384616,40,105.23076923076924,40C104.3076923076923,40,103.38461538461539,40,102.46153846153845,40C101.53846153846153,40,100.61538461538461,40,99.6923076923077,40C98.76923076923077,40,97.84615384615384,40,96.92307692307692,40C96,40,95.07692307692308,40,94.15384615384616,40C93.23076923076924,40,92.3076923076923,40,91.38461538461539,40C90.46153846153847,40,89.53846153846153,40,88.61538461538461,40C87.6923076923077,40,86.76923076923077,40,85.84615384615385,40C84.92307692307693,40,84,40,83.07692307692308,40C82.15384615384616,40,81.23076923076923,40,80.3076923076923,40C79.38461538461539,40,78.46153846153847,40,77.53846153846155,40C76.61538461538463,40,75.6923076923077,40,74.76923076923077,40C73.84615384615385,40,72.92307692307692,40,72,40C71.07692307692308,40,70.15384615384616,40,69.23076923076924,40C68.30769230769232,40,67.38461538461539,40,66.46153846153847,40C65.53846153846155,40,64.61538461538461,40,63.69230769230769,40C62.769230769230774,40,61.84615384615385,40,60.92307692307693,40C60.00000000000001,40,59.07692307692308,40,58.15384615384616,40C57.23076923076923,40,56.307692307692314,40,55.38461538461539,40C54.46153846153847,40,53.53846153846154,40,52.61538461538462,40C51.69230769230769,40,50.769230769230774,40,49.84615384615385,40C48,40,46.15384615384615,40,44.30769230769231,40C43.38461538461539,40,42.46153846153846,40,41.53846153846154,40C40.61538461538462,40,39.69230769230769,40,38.769230769230774,40C37.84615384615385,40,36.92307692307693,40,36,40C35.07692307692308,40,34.15384615384615,40,33.23076923076923,40C32.30769230769231,40,31.384615384615387,40,30.461538461538463,40C28.615384615384617,40,26.76923076923077,40,24.923076923076923,40C21.23076923076923,40,17.53846153846154,40,13.846153846153847,40C12.923076923076923,40,12,40,11.076923076923077,40C10.153846153846153,40,9.230769230769232,40,8.307692307692308,40C7.384615384615385,40,6.461538461538462,40,5.538461538461538,40C3.6923076923076925,40,1.846153846153846,40,0,40Z"></path><path class="line" stroke="black" fill="none" d="M0,40C1.846153846153846,40,3.6923076923076925,40,5.538461538461538,40C6.461538461538462,40,7.384615384615385,40,8.307692307692308,40C9.230769230769232,40,10.153846153846153,40,11.076923076923077,40C12,40,12.923076923076923,40,13.846153846153847,40C17.53846153846154,40,21.23076923076923,40,24.923076923076923,40C26.76923076923077,40,28.615384615384617,40,30.461538461538463,40C31.384615384615387,40,32.30769230769231,40,33.23076923076923,40C34.15384615384615,40,35.07692307692308,40,36,40C36.92307692307693,40,37.84615384615385,40,38.769230769230774,40C39.69230769230769,40,40.61538461538462,40,41.53846153846154,40C42.46153846153846,40,43.38461538461539,40,44.30769230769231,40C46.15384615384615,40,48,40,49.84615384615385,40C50.769230769230774,40,51.69230769230769,40,52.61538461538462,40C53.53846153846154,40,54.46153846153847,40,55.38461538461539,40C56.307692307692314,40,57.23076923076923,40,58.15384615384616,40C59.07692307692308,40,60.00000000000001,40,60.92307692307693,40C61.84615384615385,40,62.769230769230774,40,63.69230769230769,40C64.61538461538461,40,65.53846153846155,37.333333333333336,66.46153846153847,37.333333333333336C67.38461538461539,37.333333333333336,68.30769230769232,37.333333333333336,69.23076923076924,37.333333333333336C70.15384615384616,37.333333333333336,71.07692307692308,37.333333333333336,72,37.333333333333336C72.92307692307692,37.333333333333336,73.84615384615385,38.666666666666664,74.76923076923077,38.666666666666664C75.6923076923077,38.666666666666664,76.61538461538463,38.666666666666664,77.53846153846155,38.666666666666664C78.46153846153847,38.666666666666664,79.38461538461539,37.333333333333336,80.3076923076923,37.333333333333336C81.23076923076923,37.333333333333336,82.15384615384616,37.333333333333336,83.07692307692308,37.333333333333336C84,37.333333333333336,84.92307692307693,38.666666666666664,85.84615384615385,38.666666666666664C86.76923076923077,38.666666666666664,87.6923076923077,38.666666666666664,88.61538461538461,38.666666666666664C89.53846153846153,38.666666666666664,90.46153846153847,38.666666666666664,91.38461538461539,38.666666666666664C92.3076923076923,38.666666666666664,93.23076923076924,37.333333333333336,94.15384615384616,37.333333333333336C95.07692307692308,37.333333333333336,96,38.666666666666664,96.92307692307692,38.666666666666664C97.84615384615384,38.666666666666664,98.76923076923077,38.666666666666664,99.6923076923077,38.666666666666664C100.61538461538461,38.666666666666664,101.53846153846153,38.666666666666664,102.46153846153845,38.666666666666664C103.38461538461539,38.666666666666664,104.3076923076923,37.333333333333336,105.23076923076924,37.333333333333336C106.15384615384616,37.333333333333336,107.07692307692308,37.333333333333336,108,37.333333333333336C108.92307692307692,37.333333333333336,109.84615384615385,37.333333333333336,110.76923076923077,37.333333333333336C111.6923076923077,37.333333333333336,112.61538461538461,37.333333333333336,113.53846153846153,37.333333333333336C114.46153846153847,37.333333333333336,115.38461538461539,36,116.30769230769232,36C117.23076923076924,36,118.15384615384616,37.333333333333336,119.07692307692308,37.333333333333336C120,37.333333333333336,120.92307692307693,36.44444444444444,121.84615384615385,36C122.76923076923077,35.55555555555556,123.6923076923077,34.66666666666667,124.61538461538461,34.66666666666667C125.53846153846153,34.66666666666667,126.46153846153847,34.66666666666667,127.38461538461539,34.66666666666667C128.30769230769232,34.66666666666667,129.23076923076923,36,130.15384615384616,36C131.0769230769231,36,132,36,132.92307692307693,36C133.84615384615384,36,134.76923076923077,37.333333333333336,135.69230769230768,37.333333333333336C136.6153846153846,37.333333333333336,137.53846153846155,37.333333333333336,138.46153846153848,37.333333333333336C139.3846153846154,37.333333333333336,140.30769230769232,37.333333333333336,141.23076923076923,37.333333333333336C142.15384615384616,37.333333333333336,143.07692307692307,40,144,40C144.92307692307693,40,145.84615384615384,40,146.76923076923077,40C147.6923076923077,40,148.6153846153846,40,149.53846153846155,40C150.46153846153845,40,151.3846153846154,40,152.3076923076923,40C153.23076923076923,40,154.15384615384616,40,155.0769230769231,40C156,40,156.92307692307693,27.777777777777775,157.84615384615384,24C158.76923076923077,20.222222222222186,159.69230769230768,17.333333333333336,160.6153846153846,17.333333333333336C161.53846153846155,17.333333333333336,162.46153846153845,17.333333333333336,163.3846153846154,17.333333333333336C164.30769230769232,17.333333333333336,165.23076923076923,17.333333333333336,166.15384615384616,17.333333333333336C167.0769230769231,17.333333333333336,168,10.666666666666668,168.92307692307693,10.666666666666668C169.84615384615387,10.666666666666668,170.76923076923077,10.666666666666668,171.6923076923077,10.666666666666668C172.6153846153846,10.666666666666668,173.53846153846155,2.666666666666666,174.46153846153845,2.666666666666666C175.3846153846154,2.666666666666666,176.3076923076923,20,177.23076923076923,20C178.15384615384616,20,179.07692307692307,11.333333333333334,180,2.666666666666666"></path><path class="axis-ceiling" stroke-width="1" stroke="black" fill="none" d="M175,0L180,0"></path><text class="axis-ceiling-label" font-family="sans-serif" text-anchor="end" font-size="10px" x="170" y="2.5">30</text></g></svg>