<svg xmlns="http://www.w3.org/2000/svg" viewBox="0 0 180 60"><g transform="translate(0,20)"><path class="area" fill="rgba(0, 0, 0, 0.2)" d="M0,20C1.1857707509881423,20,2.371541501976284,20,3.5573122529644268,20C4.031620553359684,20,4.5059288537549405,20,4.980237154150197,20C5.928853754940711,20,6.877470355731226,20,7.826086956521739,20C9.011857707509881,20,10.197628458498023,20,11.383399209486166,20C11.857707509881424,20,12.33201581027668,20,12.806324110671937,20C13.99209486166008,20,15.17786561264822,20,16.363636363636363,20C16.600790513833992,20,16.837944664031617,20,17.075098814229246,20C17.549407114624504,20,18.023715415019762,20,18.49802371541502,20C19.209486166007906,20,19.92094861660079,20,20.632411067193676,20C20.869565217391305,20,21.10671936758893,40,21.34387351778656,40C21.581027667984188,40,21.818181818181817,40,22.055335968379445,40C22.292490118577074,40,22.529644268774703,40,22.766798418972332,40C23.24110671936759,40,23.715415019762844,40,24.1897233201581,40C24.42687747035573,40,24.66403162055336,20,24.90118577075099,20C25.138339920948617,20,25.375494071146246,20,25.612648221343875,20C27.035573122529645,20,28.458498023715418,40,29.881422924901187,40C30.355731225296445,40,30.8300395256917,20,31.304347826086957,20C31.541501976284586,20,31.778656126482215,20,32.015810276679844,20C32.72727272727273,20,33.43873517786561,20,34.15019762845849,20C35.573122529644266,20,36.99604743083003,20,38.418972332015805,20C38.89328063241106,20,39.36758893280632,20,39.84189723320158,20C40.07905138339921,20,40.316205533596836,20,40.55335968379447,20C40.790513833992094,20,41.027667984189726,20,41.26482213438735,20C42.21343873517787,20,43.162055335968375,20,44.11067193675889,20C45.29644268774704,20,46.48221343873518,20,47.66798418972333,20C47.90513833992095,20,48.14229249011858,20,48.3794466403162,20C48.61660079051383,20,48.85375494071146,20,49.090909090909086,20C49.80237154150198,20,50.51383399209486,20,51.22529644268775,20C51.93675889328063,20,52.64822134387352,20,53.359683794466406,20C53.59683794466403,20,53.833992094861664,20,54.07114624505929,20C54.30830039525692,20,54.54545454545455,20,54.78260869565218,20C55.25691699604743,20,55.73122529644269,20,56.20553359683794,20C57.154150197628454,20,58.10276679841897,20,59.051383399209485,20C60.47430830039526,20,61.89723320158103,20,63.320158102766804,20C63.55731225296443,20,63.79446640316206,20,64.03162055335969,20C64.50592885375494,20,64.9802371541502,20,65.45454545454545,20C65.69169960474308,20,65.92885375494072,20,66.16600790513834,20C98.65612648221344,20,131.14624505928853,20,163.63636363636363,20C164.58498023715416,20,165.53359683794466,20,166.4822134387352,20C166.7193675889328,20,166.95652173913044,20,167.19367588932806,20C167.4308300395257,20,167.66798418972334,20,167.90513833992097,20C168.1422924901186,20,168.37944664031622,20,168.61660079051384,20C168.85375494071147,20,169.0909090909091,20,169.32806324110672,20C169.56521739130434,20,169.80237154150197,20,170.0395256916996,20C170.27667984189722,20,170.51383399209485,20,170.75098814229247,20C170.9881422924901,20,171.22529644268775,20,171.46245059288538,20C171.699604743083,20,171.93675889328065,20,172.17391304347828,20C172.4110671936759,20,172.64822134387353,20,172.88537549407116,20C173.12252964426878,20,173.3596837944664,20,173.59683794466403,20C173.83399209486166,20,174.07114624505928,20,174.3083003952569,20C174.54545454545453,20,174.7826086956522,20,175.0197628458498,20C175.25691699604744,20,175.49407114624506,20,175.7312252964427,20C175.9683794466403,20,176.20553359683794,20,176.44268774703556,20C176.6798418972332,20,176.91699604743084,20,177.15415019762847,20C177.3913043478261,20,177.62845849802372,40,177.86561264822134,40C178.10276679841897,40,178.33992094861662,20,178.57707509881425,20C178.81422924901187,20,179.0513833992095,20,179.28853754940712,20C179.52569169960475,20,179.76284584980237,20,180,20L180,40C179.76284584980237,40,179.52569169960475,40,179.28853754940712,40C179.0513833992095,40,178.81422924901187,40,178.57707509881425,40C178.33992094861662,40,178.10276679841897,40,177.86561264822134,40C177.62845849802372,40,177.3913043478261,40,177.15415019762847,40C176.91699604743084,40,176.6798418972332,40,176.44268774703556,40C176.20553359683794,40,175.9683794466403,40,175.7312252964427,40C175.49407114624506,40,175.25691699604744,40,175.0197628458498,40C174.7826086956522,40,174.54545454545453,40,174.3083003952569,40C174.07114624505928,40,173.83399209486166,40,173.59683794466403,40C173.3596837944664,40,173.12252964426878,40,172.88537549407116,40C172.64822134387353,40,172.4110671936759,40,172.17391304347828,40C171.93675889328065,40,171.699604743083,40,171.46245059288538,40C171.22529644268775,40,170.9881422924901,40,170.75098814229247,40C170.51383399209485,40,170.27667984189722,40,170.0395256916996,40C169.80237154150197,40,169.56521739130434,40,169.32806324110672,40C169.0909090909091,40,168.85375494071147,40,168.61660079051384,40C168.37944664031622,40,168.1422924901186,40,167.90513833992097,40C167.66798418972334,40,167.4308300395257,40,167.19367588932806,40C166.95652173913044,40,166.7193675889328,40,166.4822134387352,40C165.53359683794466,40,164.58498023715416,40,163.63636363636363,40C131.14624505928853,40,98.65612648221344,40,66.16600790513834,40C65.92885375494072,40,65.69169960474308,40,65.45454545454545,40C64.9802371541502,40,64.50592885375494,40,64.03162055335969,40C63.79446640316206,40,63.55731225296443,40,63.320158102766804,40C61.89723320158103,40,60.47430830039526,40,59.051383399209485,40C58.10276679841897,40,57.154150197628454,40,56.20553359683794,40C55.73122529644269,40,55.25691699604743,40,54.78260869565218,40C54.54545454545455,40,54.30830039525692,40,54.07114624505929,40C53.833992094861664,40,53.59683794466403,40,53.359683794466406,40C52.64822134387352,40,51.93675889328063,40,51.22529644268775,40C50.51383399209486,40,49.80237154150198,40,49.090909090909086,40C48.85375494071146,40,48.61660079051383,40,48.3794466403162,40C48.14229249011858,40,47.90513833992095,40,47.66798418972333,40C46.48221343873518,40,45.29644268774704,40,44.11067193675889,40C43.162055335968375,40,42.21343873517787,40,41.26482213438735,40C41.027667984189726,40,40.790513833992094,40,40.55335968379447,40C40.316205533596836,40,40.07905138339921,40,39.84189723320158,40C39.36758893280632,40,38.89328063241106,40,38.418972332015805,40C36.99604743083003,40,35.573122529644266,40,34.15019762845849,40C33.43873517786561,40,32.72727272727273,40,32.015810276679844,40C31.778656126482215,40,31.541501976284586,40,31.304347826086957,40C30.8300395256917,40,30.355731225296445,40,29.881422924901187,40C28.458498023715418,40,27.035573122529645,40,25.612648221343875,40C25.375494071146246,40,25.138339920948617,40,24.90118577075099,40C24.66403162055336,40,24.42687747035573,40,24.1897233201581,40C23.715415019762844,40,23.24110671936759,40,22.766798418972332,40C22.529644268774703,40,22.292490118577074,40,22.055335968379445,40C21.818181818181817,40,21.581027667984188,40,21.34387351778656,40C21.10671936758893,40,20.869565217391305,40,20.632411067193676,40C19.92094861660079,40,19.209486166007906,40,18.49802371541502,40C18.023715415019762,40,17.549407114624504,40,17.075098814229246,40C16.837944664031617,40,16.600790513833992,40,16.363636363636363,40C15.17786561264822,40,13.99209486166008,40,12.806324110671937,40C12.33201581027668,40,11.857707509881424,40,11.383399209486166,40C10.197628458498023,40,9.011857707509881,40,7.826086956521739,40C6.877470355731226,40,5.928853754940711,40,4.980237154150197,40C4.5059288537549405,40,4.031620553359684,40,3.5573122529644268,40C2.371541501976284,40,1.1857707509881423,40,0,40Z"></path><path class="line" stroke="black" fill="none" d="M0,20C1.1857707509881423,20,2.371541501976284,20,3.5573122529644268,20C4.031620553359684,20,4.5059288537549405,20,4.980237154150197,20C5.928853754940711,20,6.877470355731226,20,7.826086956521739,20C9.011857707509881,20,10.197628458498023,20,11.383399209486166,20C11.857707509881424,20,12.33201581027668,20,12.806324110671937,20C13.99209486166008,20,15.17786561264822,20,16.363636363636363,20C16.600790513833992,20,16.837944664031617,20,17.075098814229246,20C17.549407114624504,20,18.023715415019762,20,18.49802371541502,20C19.209486166007906,20,19.92094861660079,20,20.632411067193676,20C20.869565217391305,20,21.10671936758893,40,21.34387351778656,40C21.581027667984188,40,21.818181818181817,40,22.055335968379445,40C22.292490118577074,40,22.529644268774703,40,22.766798418972332,40C23.24110671936759,40,23.715415019762844,40,24.1897233201581,40C24.42687747035573,40,24.66403162055336,20,24.90118577075099,20C25.138339920948617,20,25.375494071146246,20,25.612648221343875,20C27.035573122529645,20,28.458498023715418,40,29.881422924901187,40C30.355731225296445,40,30.8300395256917,20,31.304347826086957,20C31.541501976284586,20,31.778656126482215,20,32.015810276679844,20C32.72727272727273,20,33.43873517786561,20,34.15019762845849,20C35.573122529644266,20,36.99604743083003,20,38.418972332015805,20C38.89328063241106,20,39.36758893280632,20,39.84189723320158,20C40.07905138339921,20,40.316205533596836,20,40.55335968379447,20C40.790513833992094,20,41.027667984189726,20,41.26482213438735,20C42.21343873517787,20,43.162055335968375,20,44.11067193675889,20C45.29644268774704,20,46.48221343873518,20,47.66798418972333,20C47.90513833992095,20,48.14229249011858,20,48.3794466403162,20C48.61660079051383,20,48.85375494071146,20,49.090909090909086,20C49.80237154150198,20,50.51383399209486,20,51.22529644268775,20C51.93675889328063,20,52.64822134387352,20,53.359683794466406,20C53.59683794466403,20,53.833992094861664,20,54.07114624505929,20C54.30830039525692,20,54.54545454545455,20,54.78260869565218,20C55.25691699604743,20,55.73122529644269,20,56.20553359683794,20C57.154150197628454,20,58.10276679841897,20,59.051383399209485,20C60.47430830039526,20,61.89723320158103,20,63.320158102766804,20C63.55731225296443,20,63.79446640316206,20,64.03162055335969,20C64.50592885375494,20,64.9802371541502,20,65.45454545454545,20C65.69169960474308,20,65.92885375494072,20,66.16600790513834,20C98.65612648221344,20,131.14624505928853,20,163.63636363636363,20C164.58498023715416,20,165.53359683794466,20,166.4822134387352,20C166.7193675889328,20,166.95652173913044,20,167.19367588932806,20C167.4308300395257,20,167.66798418972334,20,167.90513833992097,20C168.1422924901186,20,168.37944664031622,20,168.61660079051384,20C168.85375494071147,20,169.0909090909091,20,169.32806324110672,20C169.56521739130434,20,169.80237154150197,20,170.0395256916996,20C170.27667984189722,20,170.51383399209485,20,170.75098814229247,20C170.9881422924901,20,171.22529644268775,20,171.46245059288538,20C171.699604743083,20,171.93675889328065,20,172.17391304347828,20C172.4110671936759,20,172.64822134387353,20,172.88537549407116,20C173.12252964426878,20,173.3596837944664,20,173.59683794466403,20C173.83399209486166,20,174.07114624505928,20,174.3083003952569,20C174.54545454545453,20,174.7826086956522,20,175.0197628458498,20C175.25691699604744,20,175.49407114624506,20,175.7312252964427,20C175.9683794466403,20,176.20553359683794,20,176.44268774703556,20C176.6798418972332,20,176.91699604743084,20,177.15415019762847,20C177.3913043478261,20,177.62845849802372,40,177.86561264822134,40C178.10276679841897,40,178.33992094861662,20,178.57707509881425,20C178.81422924901187,20,179.0513833992095,20,179.28853754940712,20C179.52569169960475,20,179.76284584980237,20,180,20"></path><path class="axis-ceiling" stroke-width="1" stroke="black" fill="none" d="M175,0L180,0"></path><text class="axis-ceiling-label" font-family="sans-serif" text-anchor="end" font-size="10px" x="170" y="2.5">1</text></g></svg>