<svg xmlns="http://www.w3.org/2000/svg" viewBox="0 0 180 60"><g transform="translate(0,20)"><path class="area" fill="rgba(0, 0, 0, 0.2)" d="M0,36.5912C1.0169491525423728,36.54183333333334,2.0338983050847457,36.49246666666667,3.0508474576271185,36.45C4.067796610169491,36.40753333333333,5.084745762711864,36.37913333333333,6.101694915254237,36.3364C7.11864406779661,36.29366666666667,8.135593220338983,36.24213333333333,9.152542372881356,36.193599999999996C10.169491525423728,36.145066666666665,11.186440677966102,36.09433333333333,12.203389830508474,36.0452C13.220338983050846,35.99606666666667,14.23728813559322,35.94886666666667,15.254237288135592,35.8988C16.271186440677965,35.848733333333335,17.28813559322034,35.797533333333334,18.305084745762713,35.7448C19.322033898305087,35.69206666666666,20.338983050847457,35.63653333333333,21.35593220338983,35.5824C22.372881355932204,35.52826666666667,23.389830508474574,35.47553333333333,24.406779661016948,35.42C25.423728813559322,35.364466666666665,26.440677966101696,35.3126,27.45762711864407,35.2492C28.47457627118644,35.1858,29.491525423728813,35.105133333333335,30.508474576271183,35.0396C31.525423728813557,34.974066666666666,32.54237288135593,34.919,33.559322033898304,34.855999999999995C34.57627118644068,34.79299999999999,35.59322033898305,34.7224,36.610169491525426,34.6616C37.6271186440678,34.6008,38.644067796610166,34.552,39.66101694915254,34.4912C40.67796610169491,34.4304,41.69491525423729,34.361666666666665,42.71186440677966,34.2968C43.728813559322035,34.23193333333333,44.7457627118644,34.201800000000006,45.762711864406775,34.102000000000004C46.77966101694915,34.0022,47.79661016949152,33.83566666666667,48.813559322033896,33.698C49.83050847457627,33.56033333333333,50.847457627118644,33.395199999999996,51.86440677966102,33.275999999999996C52.88135593220339,33.1568,53.898305084745765,33.06433333333333,54.91525423728814,32.9828C55.93220338983051,32.901266666666665,56.94915254237288,32.8652,57.96610169491525,32.7868C58.983050847457626,32.7084,59.99999999999999,32.61966666666667,61.01694915254237,32.5124C62.03389830508474,32.40513333333333,63.05084745762712,32.274,64.0677966101695,32.1432C65.08474576271186,32.0124,66.10169491525424,31.86526666666667,67.11864406779661,31.727600000000002C68.13559322033899,31.589933333333335,69.15254237288136,31.467266666666667,70.16949152542374,31.3172C71.1864406779661,31.167133333333332,72.20338983050848,31.002266666666667,73.22033898305085,30.8272C74.23728813559322,30.652133333333335,75.2542372881356,30.447399999999995,76.27118644067797,30.266799999999996C77.28813559322033,30.086199999999998,78.30508474576271,29.937533333333334,79.32203389830508,29.7436C80.33898305084746,29.549666666666667,81.35593220338983,29.296000000000003,82.37288135593221,29.1032C83.38983050847457,28.910400000000003,84.40677966101696,28.7696,85.42372881355932,28.5868C86.4406779661017,28.404,87.45762711864407,28.195733333333333,88.47457627118645,28.0064C89.49152542372882,27.817066666666665,90.50847457627118,27.629199999999997,91.52542372881355,27.450799999999997C92.54237288135593,27.272399999999998,93.55932203389831,27.12646666666667,94.57627118644069,26.936C95.59322033898306,26.745533333333334,96.61016949152543,26.512866666666667,97.62711864406779,26.308C98.64406779661016,26.103133333333332,99.66101694915254,25.9102,100.6779661016949,25.7068C101.69491525423729,25.503400000000003,102.71186440677965,25.260733333333334,103.72881355932203,25.087600000000002C104.7457627118644,24.91446666666667,105.76271186440678,24.8222,106.77966101694915,24.668C107.79661016949153,24.5138,108.8135593220339,24.325666666666667,109.83050847457628,24.1624C110.84745762711864,23.999133333333337,111.86440677966102,23.8384,112.88135593220339,23.6884C113.89830508474576,23.538400000000003,114.91525423728814,23.39186666666667,115.9322033898305,23.262400000000003C116.94915254237289,23.132933333333337,117.96610169491525,23.027733333333334,118.98305084745763,22.9116C120,22.795466666666666,121.01694915254237,22.67693333333333,122.03389830508473,22.5656C123.05084745762711,22.454266666666665,124.0677966101695,22.347533333333335,125.08474576271188,22.2436C126.10169491525424,22.139666666666667,127.11864406779662,22.039466666666666,128.135593220339,21.942C129.15254237288136,21.844533333333334,130.16949152542372,21.738333333333333,131.1864406779661,21.6588C132.20338983050846,21.579266666666665,133.22033898305085,21.52446666666667,134.23728813559322,21.4648C135.25423728813558,21.405133333333332,136.27118644067798,21.368666666666666,137.28813559322035,21.3008C138.3050847457627,21.23293333333333,139.3220338983051,21.143800000000002,140.33898305084747,21.0576C141.35593220338984,20.971400000000003,142.3728813559322,20.871466666666667,143.38983050847457,20.7836C144.40677966101694,20.695733333333333,145.42372881355934,20.5504,146.4406779661017,20.5304C147.45762711864407,20.5104,148.47457627118644,20.5204,149.4915254237288,20.5004C150.50847457627117,20.4804,151.52542372881356,20.339,152.54237288135593,20.272C153.5593220338983,20.205,154.5762711864407,20.172800000000002,155.59322033898306,20.0984C156.61016949152543,20.024,157.6271186440678,19.892866666666663,158.64406779661016,19.825599999999998C159.66101694915253,19.75833333333333,160.67796610169492,19.76226666666667,161.6949152542373,19.6948C162.71186440677965,19.627333333333333,163.72881355932205,19.502133333333333,164.74576271186442,19.4208C165.76271186440678,19.339466666666667,166.77966101694915,19.297733333333333,167.79661016949152,19.2068C168.81355932203388,19.11586666666667,169.83050847457628,18.982666666666667,170.84745762711864,18.8752C171.864406779661,18.767733333333332,172.8813559322034,18.611599999999996,173.89830508474577,18.561999999999998C174.91525423728814,18.5124,175.93220338983053,18.52,176.9491525423729,18.4876C177.96610169491527,18.4552,178.98305084745763,18.4114,180,18.3676L180,40C178.98305084745763,40,177.96610169491527,40,176.9491525423729,40C175.93220338983053,40,174.91525423728814,40,173.89830508474577,40C172.8813559322034,40,171.864406779661,40,170.84745762711864,40C169.83050847457628,40,168.81355932203388,40,167.79661016949152,40C166.77966101694915,40,165.76271186440678,40,164.74576271186442,40C163.72881355932205,40,162.71186440677965,40,161.6949152542373,40C160.67796610169492,40,159.66101694915253,40,158.64406779661016,40C157.6271186440678,40,156.61016949152543,40,155.59322033898306,40C154.5762711864407,40,153.5593220338983,40,152.54237288135593,40C151.52542372881356,40,150.50847457627117,40,149.4915254237288,40C148.47457627118644,40,147.45762711864407,40,146.4406779661017,40C145.42372881355934,40,144.40677966101694,40,143.38983050847457,40C142.3728813559322,40,141.35593220338984,40,140.33898305084747,40C139.3220338983051,40,138.3050847457627,40,137.28813559322035,40C136.27118644067798,40,135.25423728813558,40,134.23728813559322,40C133.22033898305085,40,132.20338983050846,40,131.1864406779661,40C130.16949152542372,40,129.15254237288136,40,128.135593220339,40C127.11864406779662,40,126.10169491525424,40,125.08474576271188,40C124.0677966101695,40,123.05084745762711,40,122.03389830508473,40C121.01694915254237,40,120,40,118.98305084745763,40C117.96610169491525,40,116.94915254237289,40,115.9322033898305,40C114.91525423728814,40,113.89830508474576,40,112.88135593220339,40C111.86440677966102,40,110.84745762711864,40,109.83050847457628,40C108.8135593220339,40,107.79661016949153,40,106.77966101694915,40C105.76271186440678,40,104.7457627118644,40,103.72881355932203,40C102.71186440677965,40,101.69491525423729,40,100.6779661016949,40C99.66101694915254,40,98.64406779661016,40,97.62711864406779,40C96.61016949152543,40,95.59322033898306,40,94.57627118644069,40C93.55932203389831,40,92.54237288135593,40,91.52542372881355,40C90.50847457627118,40,89.49152542372882,40,88.47457627118645,40C87.45762711864407,40,86.4406779661017,40,85.42372881355932,40C84.40677966101696,40,83.38983050847457,40,82.37288135593221,40C81.35593220338983,40,80.33898305084746,40,79.32203389830508,40C78.30508474576271,40,77.28813559322033,40,76.27118644067797,40C75.2542372881356,40,74.23728813559322,40,73.22033898305085,40C72.20338983050848,40,71.1864406779661,40,70.16949152542374,40C69.15254237288136,40,68.13559322033899,40,67.11864406779661,40C66.10169491525424,40,65.08474576271186,40,64.0677966101695,40C63.05084745762712,40,62.03389830508474,40,61.01694915254237,40C59.99999999999999,40,58.983050847457626,40,57.96610169491525,40C56.94915254237288,40,55.93220338983051,40,54.91525423728814,40C53.898305084745765,40,52.88135593220339,40,51.86440677966102,40C50.847457627118644,40,49.83050847457627,40,48.813559322033896,40C47.79661016949152,40,46.77966101694915,40,45.762711864406775,40C44.7457627118644,40,43.728813559322035,40,42.71186440677966,40C41.69491525423729,40,40.67796610169491,40,39.66101694915254,40C38.644067796610166,40,37.6271186440678,40,36.610169491525426,40C35.59322033898305,40,34.57627118644068,40,33.559322033898304,40C32.54237288135593,40,31.525423728813557,40,30.508474576271183,40C29.491525423728813,40,28.47457627118644,40,27.45762711864407,40C26.440677966101696,40,25.423728813559322,40,24.406779661016948,40C23.389830508474574,40,22.372881355932204,40,21.35593220338983,40C20.338983050847457,40,19.322033898305087,40,18.305084745762713,40C17.28813559322034,40,16.271186440677965,40,15.254237288135592,40C14.23728813559322,40,13.220338983050846,40,12.203389830508474,40C11.186440677966102,40,10.169491525423728,40,9.152542372881356,40C8.135593220338983,40,7.11864406779661,40,6.101694915254237,40C5.084745762711864,40,4.067796610169491,40,3.0508474576271185,40C2.0338983050847457,40,1.0169491525423728,40,0,40Z"></path><path class="line" stroke="black" fill="none" d="M0,36.5912C1.0169491525423728,36.54183333333334,2.0338983050847457,36.49246666666667,3.0508474576271185,36.45C4.067796610169491,36.40753333333333,5.084745762711864,36.37913333333333,6.101694915254237,36.3364C7.11864406779661,36.29366666666667,8.135593220338983,36.24213333333333,9.152542372881356,36.193599999999996C10.169491525423728,36.145066666666665,11.186440677966102,36.09433333333333,12.203389830508474,36.0452C13.220338983050846,35.99606666666667,14.23728813559322,35.94886666666667,15.254237288135592,35.8988C16.271186440677965,35.848733333333335,17.28813559322034,35.797533333333334,18.305084745762713,35.7448C19.322033898305087,35.69206666666666,20.338983050847457,35.63653333333333,21.35593220338983,35.5824C22.372881355932204,35.52826666666667,23.389830508474574,35.47553333333333,24.406779661016948,35.42C25.423728813559322,35.364466666666665,26.440677966101696,35.3126,27.45762711864407,35.2492C28.47457627118644,35.1858,29.491525423728813,35.105133333333335,30.508474576271183,35.0396C31.525423728813557,34.974066666666666,32.54237288135593,34.919,33.559322033898304,34.855999999999995C34.57627118644068,34.79299999999999,35.59322033898305,34.7224,36.610169491525426,34.6616C37.6271186440678,34.6008,38.644067796610166,34.552,39.66101694915254,34.4912C40.67796610169491,34.4304,41.69491525423729,34.361666666666665,42.71186440677966,34.2968C43.728813559322035,34.23193333333333,44.7457627118644,34.201800000000006,45.762711864406775,34.102000000000004C46.77966101694915,34.0022,47.79661016949152,33.83566666666667,48.813559322033896,33.698C49.83050847457627,33.56033333333333,50.847457627118644,33.395199999999996,51.86440677966102,33.275999999999996C52.88135593220339,33.1568,53.898305084745765,33.06433333333333,54.91525423728814,32.9828C55.93220338983051,32.901266666666665,56.94915254237288,32.8652,57.96610169491525,32.7868C58.983050847457626,32.7084,59.99999999999999,32.61966666666667,61.01694915254237,32.5124C62.03389830508474,32.40513333333333,63.05084745762712,32.274,64.0677966101695,32.1432C65.08474576271186,32.0124,66.10169491525424,31.86526666666667,67.11864406779661,31.727600000000002C68.13559322033899,31.589933333333335,69.15254237288136,31.467266666666667,70.16949152542374,31.3172C71.1864406779661,31.167133333333332,72.20338983050848,31.002266666666667,73.22033898305085,30.8272C74.23728813559322,30.652133333333335,75.2542372881356,30.447399999999995,76.27118644067797,30.266799999999996C77.28813559322033,30.086199999999998,78.30508474576271,29.937533333333334,79.32203389830508,29.7436C80.33898305084746,29.549666666666667,81.35593220338983,29.296000000000003,82.37288135593221,29.1032C83.38983050847457,28.910400000000003,84.40677966101696,28.7696,85.42372881355932,28.5868C86.4406779661017,28.404,87.45762711864407,28.195733333333333,88.47457627118645,28.0064C89.49152542372882,27.817066666666665,90.50847457627118,27.629199999999997,91.52542372881355,27.450799999999997C92.54237288135593,27.272399999999998,93.55932203389831,27.12646666666667,94.57627118644069,26.936C95.59322033898306,26.745533333333334,96.61016949152543,26.512866666666667,97.62711864406779,26.308C98.64406779661016,26.103133333333332,99.66101694915254,25.9102,100.6779661016949,25.7068C101.69491525423729,25.503400000000003,102.71186440677965,25.260733333333334,103.72881355932203,25.087600000000002C104.7457627118644,24.91446666666667,105.76271186440678,24.8222,106.77966101694915,24.668C107.79661016949153,24.5138,108.8135593220339,24.325666666666667,109.83050847457628,24.1624C110.84745762711864,23.999133333333337,111.86440677966102,23.8384,112.88135593220339,23.6884C113.89830508474576,23.538400000000003,114.91525423728814,23.39186666666667,115.9322033898305,23.262400000000003C116.94915254237289,23.132933333333337,117.96610169491525,23.027733333333334,118.98305084745763,22.9116C120,22.795466666666666,121.01694915254237,22.67693333333333,122.03389830508473,22.5656C123.05084745762711,22.454266666666665,124.0677966101695,22.347533333333335,125.08474576271188,22.2436C126.10169491525424,22.139666666666667,127.11864406779662,22.039466666666666,128.135593220339,21.942C129.15254237288136,21.844533333333334,130.16949152542372,21.738333333333333,131.1864406779661,21.6588C132.20338983050846,21.579266666666665,133.22033898305085,21.52446666666667,134.23728813559322,21.4648C135.25423728813558,21.405133333333332,136.27118644067798,21.368666666666666,137.28813559322035,21.3008C138.3050847457627,21.23293333333333,139.3220338983051,21.143800000000002,140.33898305084747,21.0576C141.35593220338984,20.971400000000003,142.3728813559322,20.871466666666667,143.38983050847457,20.7836C144.40677966101694,20.695733333333333,145.42372881355934,20.5504,146.4406779661017,20.5304C147.45762711864407,20.5104,148.47457627118644,20.5204,149.4915254237288,20.5004C150.50847457627117,20.4804,151.52542372881356,20.339,152.54237288135593,20.272C153.5593220338983,20.205,154.5762711864407,20.172800000000002,155.59322033898306,20.0984C156.61016949152543,20.024,157.6271186440678,19.892866666666663,158.64406779661016,19.825599999999998C159.66101694915253,19.75833333333333,160.67796610169492,19.76226666666667,161.6949152542373,19.6948C162.71186440677965,19.627333333333333,163.72881355932205,19.502133333333333,164.74576271186442,19.4208C165.76271186440678,19.339466666666667,166.77966101694915,19.297733333333333,167.79661016949152,19.2068C168.81355932203388,19.11586666666667,169.83050847457628,18.982666666666667,170.84745762711864,18.8752C171.864406779661,18.767733333333332,172.8813559322034,18.611599999999996,173.89830508474577,18.561999999999998C174.91525423728814,18.5124,175.93220338983053,18.52,176.9491525423729,18.4876C177.96610169491527,18.4552,178.98305084745763,18.4114,180,18.3676"></path><path class="axis-ceiling" stroke-width="1" stroke="black" fill="none" d="M175,0L180,0"></path><text class="axis-ceiling-label" font-family="sans-serif" text-anchor="end" font-size="10px" x="170" y="2.5">100000</text></g></svg>