<svg xmlns="http://www.w3.org/2000/svg" viewBox="0 0 180 60"><g transform="translate(0,20)"><path class="area" fill="rgba(0, 0, 0, 0.2)" d="M0,25.00571428571429C1.0169491525423728,25.389523809523812,2.0338983050847457,25.773333333333337,3.0508474576271185,26.13714285714286C4.067796610169491,26.50095238095238,5.084745762711864,26.81142857142857,6.101694915254237,27.18857142857143C7.11864406779661,27.565714285714286,8.135593220338983,28.118095238095236,9.152542372881356,28.4C10.169491525423728,28.68190476190476,11.186440677966102,28.649523809523807,12.203389830508474,28.88C13.220338983050846,29.11047619047619,14.23728813559322,29.441904761904762,15.254237288135592,29.782857142857143C16.271186440677965,30.123809523809523,17.28813559322034,30.556190476190476,18.305084745762713,30.925714285714285C19.322033898305087,31.295238095238094,20.338983050847457,31.748571428571427,21.35593220338983,32C22.372881355932204,32.25142857142857,23.389830508474574,32.312380952380956,24.406779661016948,32.434285714285714C25.423728813559322,32.55619047619048,26.440677966101696,32.63428571428572,27.45762711864407,32.73142857142857C28.47457627118644,32.82857142857143,29.491525423728813,32.82666666666667,30.508474576271183,33.01714285714286C31.525423728813557,33.20761904761905,32.54237288135593,33.98095238095239,33.559322033898304,34.12571428571429C34.57627118644068,34.27047619047619,35.59322033898305,34.29333333333333,36.610169491525426,34.34285714285714C37.6271186440678,34.39238095238095,38.644067796610166,34.42285714285714,39.66101694915254,34.42285714285714C40.67796610169491,34.42285714285714,41.69491525423729,33.98857142857143,42.71186440677966,33.98857142857143C43.728813559322035,33.98857142857143,44.7457627118644,34.44571428571429,45.762711864406775,34.44571428571429C46.77966101694915,34.44571428571429,47.79661016949152,34.44571428571429,48.813559322033896,34.44571428571429C49.83050847457627,34.44571428571429,50.847457627118644,34.605714285714285,51.86440677966102,34.605714285714285C52.88135593220339,34.605714285714285,53.898305084745765,33.6,54.91525423728814,33.371428571428574C55.93220338983051,33.142857142857146,56.94915254237288,33.02857142857143,57.96610169491525,33.02857142857143C58.983050847457626,33.02857142857143,59.99999999999999,33.25714285714286,61.01694915254237,33.42857142857143C62.03389830508474,33.6,63.05084745762712,34.05714285714286,64.0677966101695,34.05714285714286C65.08474576271186,34.05714285714286,66.10169491525424,33.55428571428571,67.11864406779661,33.55428571428571C68.13559322033899,33.55428571428571,69.15254237288136,33.8552380952381,70.16949152542374,33.95428571428572C71.1864406779661,34.053333333333335,72.20338983050848,34.076190476190476,73.22033898305085,34.14857142857143C74.23728813559322,34.22095238095238,75.2542372881356,34.22857142857143,76.27118644067797,34.388571428571424C77.28813559322033,34.54857142857142,78.30508474576271,35.33714285714286,79.32203389830508,35.33714285714286C80.33898305084746,35.33714285714286,81.35593220338983,34.83428571428571,82.37288135593221,34.83428571428571C83.38983050847457,34.83428571428571,84.40677966101696,35.2,85.42372881355932,35.2C86.4406779661017,35.2,87.45762711864407,35.074285714285715,88.47457627118645,34.925714285714285C89.49152542372882,34.777142857142856,90.50847457627118,34.455238095238094,91.52542372881355,34.308571428571426C92.54237288135593,34.16190476190476,93.55932203389831,34.22095238095238,94.57627118644069,34.04571428571429C95.59322033898306,33.870476190476204,96.61016949152543,31.676190476190474,97.62711864406779,31.074285714285715C98.64406779661016,30.472380952380952,99.66101694915254,30.323809523809523,100.6779661016949,30.17142857142857C101.69491525423729,30.01904761904762,102.71186440677965,30.057142857142857,103.72881355932203,29.942857142857143C104.7457627118644,29.82857142857143,105.76271186440678,29.5847619047619,106.77966101694915,29.485714285714284C107.79661016949153,29.386666666666667,108.8135593220339,29.436190476190475,109.83050847457628,29.337142857142858C110.84745762711864,29.23809523809524,111.86440677966102,28.984761904761903,112.88135593220339,28.754285714285714C113.89830508474576,28.523809523809526,114.91525423728814,27.954285714285714,115.9322033898305,27.954285714285714C116.94915254237289,27.954285714285714,117.96610169491525,30.445714285714285,118.98305084745763,30.445714285714285C120,30.445714285714285,121.01694915254237,30.017142857142858,122.03389830508473,29.74857142857143C123.05084745762711,29.48,124.0677966101695,29.11809523809524,125.08474576271188,28.834285714285713C126.10169491525424,28.55047619047619,127.11864406779662,28.57142857142857,128.135593220339,28.045714285714283C129.15254237288136,27.52,130.16949152542372,25.567619047619043,131.1864406779661,24.537142857142857C132.20338983050846,23.50666666666666,133.22033898305085,22.72761904761905,134.23728813559322,21.862857142857145C135.25423728813558,20.99809523809524,136.27118644067798,20.093333333333337,137.28813559322035,19.348571428571432C138.3050847457627,18.603809523809527,139.3220338983051,17.760000000000005,140.33898305084747,17.394285714285715C141.35593220338984,17.02857142857143,142.3728813559322,17.121904761904762,143.38983050847457,16.845714285714287C144.40677966101694,16.56952380952381,145.42372881355934,16.327619047619056,146.4406779661017,15.737142857142858C147.45762711864407,15.146666666666668,148.47457627118644,13.30285714285714,149.4915254237288,13.30285714285714C150.50847457627117,13.30285714285714,151.52542372881356,13.876190476190478,152.54237288135593,14.068571428571431C153.5593220338983,14.260952380952384,154.5762711864407,14.19809523809524,155.59322033898306,14.457142857142857C156.61016949152543,14.716190476190473,157.6271186440678,16.194285714285712,158.64406779661016,16.194285714285712C159.66101694915253,16.194285714285712,160.67796610169492,15.923809523809522,161.6949152542373,15.382857142857143C162.71186440677965,14.841904761904763,163.72881355932205,13.310476190476196,164.74576271186442,12.285714285714286C165.76271186440678,11.260952380952386,166.77966101694915,10.159999999999998,167.79661016949152,9.234285714285715C168.81355932203388,8.308571428571424,169.83050847457628,7.41142857142857,170.84745762711864,6.73142857142857C171.864406779661,6.051428571428571,172.8813559322034,5.750476190476192,173.89830508474577,5.154285714285716C174.91525423728814,4.558095238095239,175.93220338983053,3.9790476190476243,176.9491525423729,3.154285714285714C177.96610169491527,2.329523809523811,178.98305084745763,1.2676190476190476,180,0.20571428571428463L180,40C178.98305084745763,40,177.96610169491527,40,176.9491525423729,40C175.93220338983053,40,174.91525423728814,40,173.89830508474577,40C172.8813559322034,40,171.864406779661,40,170.84745762711864,40C169.83050847457628,40,168.81355932203388,40,167.79661016949152,40C166.77966101694915,40,165.76271186440678,40,164.74576271186442,40C163.72881355932205,40,162.71186440677965,40,161.6949152542373,40C160.67796610169492,40,159.66101694915253,40,158.64406779661016,40C157.6271186440678,40,156.61016949152543,40,155.59322033898306,40C154.5762711864407,40,153.5593220338983,40,152.54237288135593,40C151.52542372881356,40,150.50847457627117,40,149.4915254237288,40C148.47457627118644,40,147.45762711864407,40,146.4406779661017,40C145.42372881355934,40,144.40677966101694,40,143.38983050847457,40C142.3728813559322,40,141.35593220338984,40,140.33898305084747,40C139.3220338983051,40,138.3050847457627,40,137.28813559322035,40C136.27118644067798,40,135.25423728813558,40,134.23728813559322,40C133.22033898305085,40,132.20338983050846,40,131.1864406779661,40C130.16949152542372,40,129.15254237288136,40,128.135593220339,40C127.11864406779662,40,126.10169491525424,40,125.08474576271188,40C124.0677966101695,40,123.05084745762711,40,122.03389830508473,40C121.01694915254237,40,120,40,118.98305084745763,40C117.96610169491525,40,116.94915254237289,40,115.9322033898305,40C114.91525423728814,40,113.89830508474576,40,112.88135593220339,40C111.86440677966102,40,110.84745762711864,40,109.83050847457628,40C108.8135593220339,40,107.79661016949153,40,106.77966101694915,40C105.76271186440678,40,104.7457627118644,40,103.72881355932203,40C102.71186440677965,40,101.69491525423729,40,100.6779661016949,40C99.66101694915254,40,98.64406779661016,40,97.62711864406779,40C96.61016949152543,40,95.59322033898306,40,94.57627118644069,40C93.55932203389831,40,92.54237288135593,40,91.52542372881355,40C90.50847457627118,40,89.49152542372882,40,88.47457627118645,40C87.45762711864407,40,86.4406779661017,40,85.42372881355932,40C84.40677966101696,40,83.38983050847457,40,82.37288135593221,40C81.35593220338983,40,80.33898305084746,40,79.32203389830508,40C78.30508474576271,40,77.28813559322033,40,76.27118644067797,40C75.2542372881356,40,74.23728813559322,40,73.22033898305085,40C72.20338983050848,40,71.1864406779661,40,70.16949152542374,40C69.15254237288136,40,68.13559322033899,40,67.11864406779661,40C66.10169491525424,40,65.08474576271186,40,64.0677966101695,40C63.05084745762712,40,62.03389830508474,40,61.01694915254237,40C59.99999999999999,40,58.983050847457626,40,57.96610169491525,40C56.94915254237288,40,55.93220338983051,40,54.91525423728814,40C53.898305084745765,40,52.88135593220339,40,51.86440677966102,40C50.847457627118644,40,49.83050847457627,40,48.813559322033896,40C47.79661016949152,40,46.77966101694915,40,45.762711864406775,40C44.7457627118644,40,43.728813559322035,40,42.71186440677966,40C41.69491525423729,40,40.67796610169491,40,39.66101694915254,40C38.644067796610166,40,37.6271186440678,40,36.610169491525426,40C35.59322033898305,40,34.57627118644068,40,33.559322033898304,40C32.54237288135593,40,31.525423728813557,40,30.508474576271183,40C29.491525423728813,40,28.47457627118644,40,27.45762711864407,40C26.440677966101696,40,25.423728813559322,40,24.406779661016948,40C23.389830508474574,40,22.372881355932204,40,21.35593220338983,40C20.338983050847457,40,19.322033898305087,40,18.305084745762713,40C17.28813559322034,40,16.271186440677965,40,15.254237288135592,40C14.23728813559322,40,13.220338983050846,40,12.203389830508474,40C11.186440677966102,40,10.169491525423728,40,9.152542372881356,40C8.135593220338983,40,7.11864406779661,40,6.101694915254237,40C5.084745762711864,40,4.067796610169491,40,3.0508474576271185,40C2.0338983050847457,40,1.0169491525423728,40,0,40Z"></path><path class="line" stroke="black" fill="none" d="M0,25.00571428571429C1.0169491525423728,25.389523809523812,2.0338983050847457,25.773333333333337,3.0508474576271185,26.13714285714286C4.067796610169491,26.50095238095238,5.084745762711864,26.81142857142857,6.101694915254237,27.18857142857143C7.11864406779661,27.565714285714286,8.135593220338983,28.118095238095236,9.152542372881356,28.4C10.169491525423728,28.68190476190476,11.186440677966102,28.649523809523807,12.203389830508474,28.88C13.220338983050846,29.11047619047619,14.23728813559322,29.441904761904762,15.254237288135592,29.782857142857143C16.271186440677965,30.123809523809523,17.28813559322034,30.556190476190476,18.305084745762713,30.925714285714285C19.322033898305087,31.295238095238094,20.338983050847457,31.748571428571427,21.35593220338983,32C22.372881355932204,32.25142857142857,23.389830508474574,32.312380952380956,24.406779661016948,32.434285714285714C25.423728813559322,32.55619047619048,26.440677966101696,32.63428571428572,27.45762711864407,32.73142857142857C28.47457627118644,32.82857142857143,29.491525423728813,32.82666666666667,30.508474576271183,33.01714285714286C31.525423728813557,33.20761904761905,32.54237288135593,33.98095238095239,33.559322033898304,34.12571428571429C34.57627118644068,34.27047619047619,35.59322033898305,34.29333333333333,36.610169491525426,34.34285714285714C37.6271186440678,34.39238095238095,38.644067796610166,34.42285714285714,39.66101694915254,34.42285714285714C40.67796610169491,34.42285714285714,41.69491525423729,33.98857142857143,42.71186440677966,33.98857142857143C43.728813559322035,33.98857142857143,44.7457627118644,34.44571428571429,45.762711864406775,34.44571428571429C46.77966101694915,34.44571428571429,47.79661016949152,34.44571428571429,48.813559322033896,34.44571428571429C49.83050847457627,34.44571428571429,50.847457627118644,34.605714285714285,51.86440677966102,34.605714285714285C52.88135593220339,34.605714285714285,53.898305084745765,33.6,54.91525423728814,33.371428571428574C55.93220338983051,33.142857142857146,56.94915254237288,33.02857142857143,57.96610169491525,33.02857142857143C58.983050847457626,33.02857142857143,59.99999999999999,33.25714285714286,61.01694915254237,33.42857142857143C62.03389830508474,33.6,63.05084745762712,34.05714285714286,64.0677966101695,34.05714285714286C65.08474576271186,34.05714285714286,66.10169491525424,33.55428571428571,67.11864406779661,33.55428571428571C68.13559322033899,33.55428571428571,69.15254237288136,33.8552380952381,70.16949152542374,33.95428571428572C71.1864406779661,34.053333333333335,72.20338983050848,34.076190476190476,73.22033898305085,34.14857142857143C74.23728813559322,34.22095238095238,75.2542372881356,34.22857142857143,76.27118644067797,34.388571428571424C77.28813559322033,34.54857142857142,78.30508474576271,35.33714285714286,79.32203389830508,35.33714285714286C80.33898305084746,35.33714285714286,81.35593220338983,34.83428571428571,82.37288135593221,34.83428571428571C83.38983050847457,34.83428571428571,84.40677966101696,35.2,85.42372881355932,35.2C86.4406779661017,35.2,87.45762711864407,35.074285714285715,88.47457627118645,34.925714285714285C89.49152542372882,34.777142857142856,90.50847457627118,34.455238095238094,91.52542372881355,34.308571428571426C92.54237288135593,34.16190476190476,93.55932203389831,34.22095238095238,94.57627118644069,34.04571428571429C95.59322033898306,33.870476190476204,96.61016949152543,31.676190476190474,97.62711864406779,31.074285714285715C98.64406779661016,30.472380952380952,99.66101694915254,30.323809523809523,100.6779661016949,30.17142857142857C101.69491525423729,30.01904761904762,102.71186440677965,30.057142857142857,103.72881355932203,29.942857142857143C104.7457627118644,29.82857142857143,105.76271186440678,29.5847619047619,106.77966101694915,29.485714285714284C107.79661016949153,29.386666666666667,108.8135593220339,29.436190476190475,109.83050847457628,29.337142857142858C110.84745762711864,29.23809523809524,111.86440677966102,28.984761904761903,112.88135593220339,28.754285714285714C113.89830508474576,28.523809523809526,114.91525423728814,27.954285714285714,115.9322033898305,27.954285714285714C116.94915254237289,27.954285714285714,117.96610169491525,30.445714285714285,118.98305084745763,30.445714285714285C120,30.445714285714285,121.01694915254237,30.017142857142858,122.03389830508473,29.74857142857143C123.05084745762711,29.48,124.0677966101695,29.11809523809524,125.08474576271188,28.834285714285713C126.10169491525424,28.55047619047619,127.11864406779662,28.57142857142857,128.135593220339,28.045714285714283C129.15254237288136,27.52,130.16949152542372,25.567619047619043,131.1864406779661,24.537142857142857C132.20338983050846,23.50666666666666,133.22033898305085,22.72761904761905,134.23728813559322,21.862857142857145C135.25423728813558,20.99809523809524,136.27118644067798,20.093333333333337,137.28813559322035,19.348571428571432C138.3050847457627,18.603809523809527,139.3220338983051,17.760000000000005,140.33898305084747,17.394285714285715C141.35593220338984,17.02857142857143,142.3728813559322,17.121904761904762,143.38983050847457,16.845714285714287C144.40677966101694,16.56952380952381,145.42372881355934,16.327619047619056,146.4406779661017,15.737142857142858C147.45762711864407,15.146666666666668,148.47457627118644,13.30285714285714,149.4915254237288,13.30285714285714C150.50847457627117,13.30285714285714,151.52542372881356,13.876190476190478,152.54237288135593,14.068571428571431C153.5593220338983,14.260952380952384,154.5762711864407,14.19809523809524,155.59322033898306,14.457142857142857C156.61016949152543,14.716190476190473,157.6271186440678,16.194285714285712,158.64406779661016,16.194285714285712C159.66101694915253,16.194285714285712,160.67796610169492,15.923809523809522,161.6949152542373,15.382857142857143C162.71186440677965,14.841904761904763,163.72881355932205,13.310476190476196,164.74576271186442,12.285714285714286C165.76271186440678,11.260952380952386,166.77966101694915,10.159999999999998,167.79661016949152,9.234285714285715C168.81355932203388,8.308571428571424,169.83050847457628,7.41142857142857,170.84745762711864,6.73142857142857C171.864406779661,6.051428571428571,172.8813559322034,5.750476190476192,173.89830508474577,5.154285714285716C174.91525423728814,4.558095238095239,175.93220338983053,3.9790476190476243,176.9491525423729,3.154285714285714C177.96610169491527,2.329523809523811,178.98305084745763,1.2676190476190476,180,0.20571428571428463"></path><path class="axis-ceiling" stroke-width="1" stroke="black" fill="none" d="M175,0L180,0"></path><text class="axis-ceiling-label" font-family="sans-serif" text-anchor="end" font-size="10px" x="170" y="2.5">3500</text></g></svg>