<svg xmlns="http://www.w3.org/2000/svg" viewBox="0 0 180 60"><g transform="translate(0,20)"><path class="area" fill="rgba(0, 0, 0, 0.2)" d="M0,1.0000000000000009C1.0256410256410258,19.000000000000004,2.051282051282051,37,3.076923076923077,37C8.717948717948719,37,14.358974358974358,23,20,23C20.512820512820515,23,21.025641025641026,38,21.53846153846154,38C24.102564102564106,38,26.666666666666668,36,29.230769230769234,36C29.743589743589745,36,30.25641025641026,38.666666666666664,30.76923076923077,39C31.794871794871796,39.666666666666664,32.82051282051282,40,33.84615384615385,40C37.43589743589744,40,41.02564102564102,38.601851851851855,44.61538461538461,38C49.23076923076923,37.226190476190474,53.84615384615385,36,58.46153846153847,36C59.48717948717949,36,60.51282051282052,40,61.53846153846154,40C68.2051282051282,40,74.87179487179486,35,81.53846153846153,35C84.61538461538461,35,87.6923076923077,35.666666666666664,90.76923076923077,37C91.28205128205128,37.22222222222222,91.79487179487178,40,92.30769230769229,40C92.82051282051282,40,93.33333333333333,40,93.84615384615385,40C96.41025641025641,40,98.97435897435898,39,101.53846153846153,39C102.56410256410257,39,103.58974358974359,39,104.61538461538463,39C105.12820512820514,39,105.64102564102565,40,106.15384615384616,40C106.66666666666667,40,107.17948717948718,40,107.6923076923077,40C108.71794871794872,40,109.74358974358975,40,110.76923076923077,40C111.28205128205128,40,111.7948717948718,40,112.3076923076923,40C112.82051282051282,40,113.33333333333333,40,113.84615384615384,40C114.35897435897436,40,114.87179487179488,40,115.3846153846154,40C117.43589743589745,40,119.4871794871795,40,121.53846153846155,40C122.56410256410257,40,123.58974358974359,39,124.61538461538461,39C125.12820512820512,39,125.64102564102564,40,126.15384615384615,40C126.66666666666666,40,127.17948717948718,40,127.6923076923077,40C128.2051282051282,40,128.71794871794873,39,129.23076923076923,39C129.74358974358975,39,130.25641025641025,40,130.76923076923077,40C131.2820512820513,40,131.7948717948718,40,132.30769230769232,40C133.33333333333334,40,134.35897435897436,40,135.3846153846154,40C135.89743589743588,40,136.4102564102564,40,136.9230769230769,40C137.43589743589743,40,137.94871794871796,37,138.46153846153848,37C138.97435897435898,37,139.4871794871795,40,140,40C140.51282051282053,40,141.02564102564102,40,141.53846153846155,40C142.05128205128204,40,142.56410256410257,40,143.07692307692307,40C143.5897435897436,40,144.1025641025641,29,144.6153846153846,29C145.12820512820514,29,145.64102564102564,40,146.15384615384616,40C146.66666666666666,40,147.17948717948718,40,147.69230769230768,40C148.2051282051282,40,148.7179487179487,40,149.23076923076923,40C149.74358974358975,40,150.25641025641025,39.666666666666664,150.76923076923077,39C151.28205128205127,38.33333333333334,151.7948717948718,34,152.3076923076923,34C152.82051282051282,34,153.33333333333331,40,153.84615384615384,40C154.35897435897436,40,154.87179487179486,38,155.3846153846154,38C155.8974358974359,38,156.4102564102564,40,156.92307692307693,40C157.43589743589743,40,157.94871794871796,37,158.46153846153845,37C158.97435897435898,37,159.48717948717947,37.5,160,38C160.51282051282053,38.5,161.02564102564102,40,161.53846153846155,40C162.05128205128204,40,162.56410256410257,37,163.07692307692307,37C163.5897435897436,37,164.1025641025641,38,164.6153846153846,38C165.12820512820514,38,165.64102564102564,33,166.15384615384616,33C166.66666666666669,33,167.17948717948718,40,167.6923076923077,40C168.2051282051282,40,168.71794871794873,36,169.23076923076923,36C169.74358974358975,36,170.25641025641025,40,170.76923076923077,40C171.2820512820513,40,171.7948717948718,33,172.30769230769232,33C172.82051282051282,33,173.33333333333334,40,173.84615384615384,40C174.35897435897436,40,174.87179487179486,39,175.3846153846154,37C175.89743589743588,35.000000000000036,176.4102564102564,24,176.9230769230769,24C177.43589743589743,24,177.94871794871793,40,178.46153846153845,40C178.97435897435898,40,179.48717948717947,40,180,40L180,40C179.48717948717947,40,178.97435897435898,40,178.46153846153845,40C177.94871794871793,40,177.43589743589743,40,176.9230769230769,40C176.4102564102564,40,175.89743589743588,40,175.3846153846154,40C174.87179487179486,40,174.35897435897436,40,173.84615384615384,40C173.33333333333334,40,172.82051282051282,40,172.30769230769232,40C171.7948717948718,40,171.2820512820513,40,170.76923076923077,40C170.25641025641025,40,169.74358974358975,40,169.23076923076923,40C168.71794871794873,40,168.2051282051282,40,167.6923076923077,40C167.17948717948718,40,166.66666666666669,40,166.15384615384616,40C165.64102564102564,40,165.12820512820514,40,164.6153846153846,40C164.1025641025641,40,163.5897435897436,40,163.07692307692307,40C162.56410256410257,40,162.05128205128204,40,161.53846153846155,40C161.02564102564102,40,160.51282051282053,40,160,40C159.48717948717947,40,158.97435897435898,40,158.46153846153845,40C157.94871794871796,40,157.43589743589743,40,156.92307692307693,40C156.4102564102564,40,155.8974358974359,40,155.3846153846154,40C154.87179487179486,40,154.35897435897436,40,153.84615384615384,40C153.33333333333331,40,152.82051282051282,40,152.3076923076923,40C151.7948717948718,40,151.28205128205127,40,150.76923076923077,40C150.25641025641025,40,149.74358974358975,40,149.23076923076923,40C148.7179487179487,40,148.2051282051282,40,147.69230769230768,40C147.17948717948718,40,146.66666666666666,40,146.15384615384616,40C145.64102564102564,40,145.12820512820514,40,144.6153846153846,40C144.1025641025641,40,143.5897435897436,40,143.07692307692307,40C142.56410256410257,40,142.05128205128204,40,141.53846153846155,40C141.02564102564102,40,140.51282051282053,40,140,40C139.4871794871795,40,138.97435897435898,40,138.46153846153848,40C137.94871794871796,40,137.43589743589743,40,136.9230769230769,40C136.4102564102564,40,135.89743589743588,40,135.3846153846154,40C134.35897435897436,40,133.33333333333334,40,132.30769230769232,40C131.7948717948718,40,131.2820512820513,40,130.76923076923077,40C130.25641025641025,40,129.74358974358975,40,129.23076923076923,40C128.71794871794873,40,128.2051282051282,40,127.6923076923077,40C127.17948717948718,40,126.66666666666666,40,126.15384615384615,40C125.64102564102564,40,125.12820512820512,40,124.61538461538461,40C123.58974358974359,40,122.56410256410257,40,121.53846153846155,40C119.4871794871795,40,117.43589743589745,40,115.3846153846154,40C114.87179487179488,40,114.35897435897436,40,113.84615384615384,40C113.33333333333333,40,112.82051282051282,40,112.3076923076923,40C111.7948717948718,40,111.28205128205128,40,110.76923076923077,40C109.74358974358975,40,108.71794871794872,40,107.6923076923077,40C107.17948717948718,40,106.66666666666667,40,106.15384615384616,40C105.64102564102565,40,105.12820512820514,40,104.61538461538463,40C103.58974358974359,40,102.56410256410257,40,101.53846153846153,40C98.97435897435898,40,96.41025641025641,40,93.84615384615385,40C93.33333333333333,40,92.82051282051282,40,92.30769230769229,40C91.79487179487178,40,91.28205128205128,40,90.76923076923077,40C87.6923076923077,40,84.61538461538461,40,81.53846153846153,40C74.87179487179486,40,68.2051282051282,40,61.53846153846154,40C60.51282051282052,40,59.48717948717949,40,58.46153846153847,40C53.84615384615385,40,49.23076923076923,40,44.61538461538461,40C41.02564102564102,40,37.43589743589744,40,33.84615384615385,40C32.82051282051282,40,31.794871794871796,40,30.76923076923077,40C30.25641025641026,40,29.743589743589745,40,29.230769230769234,40C26.666666666666668,40,24.102564102564106,40,21.53846153846154,40C21.025641025641026,40,20.512820512820515,40,20,40C14.358974358974358,40,8.717948717948719,40,3.076923076923077,40C2.051282051282051,40,1.0256410256410258,40,0,40Z"></path><path class="line" stroke="black" fill="none" d="M0,1.0000000000000009C1.0256410256410258,19.000000000000004,2.051282051282051,37,3.076923076923077,37C8.717948717948719,37,14.358974358974358,23,20,23C20.512820512820515,23,21.025641025641026,38,21.53846153846154,38C24.102564102564106,38,26.666666666666668,36,29.230769230769234,36C29.743589743589745,36,30.25641025641026,38.666666666666664,30.76923076923077,39C31.794871794871796,39.666666666666664,32.82051282051282,40,33.84615384615385,40C37.43589743589744,40,41.02564102564102,38.601851851851855,44.61538461538461,38C49.23076923076923,37.226190476190474,53.84615384615385,36,58.46153846153847,36C59.48717948717949,36,60.51282051282052,40,61.53846153846154,40C68.2051282051282,40,74.87179487179486,35,81.53846153846153,35C84.61538461538461,35,87.6923076923077,35.666666666666664,90.76923076923077,37C91.28205128205128,37.22222222222222,91.79487179487178,40,92.30769230769229,40C92.82051282051282,40,93.33333333333333,40,93.84615384615385,40C96.41025641025641,40,98.97435897435898,39,101.53846153846153,39C102.56410256410257,39,103.58974358974359,39,104.61538461538463,39C105.12820512820514,39,105.64102564102565,40,106.15384615384616,40C106.66666666666667,40,107.17948717948718,40,107.6923076923077,40C108.71794871794872,40,109.74358974358975,40,110.76923076923077,40C111.28205128205128,40,111.7948717948718,40,112.3076923076923,40C112.82051282051282,40,113.33333333333333,40,113.84615384615384,40C114.35897435897436,40,114.87179487179488,40,115.3846153846154,40C117.43589743589745,40,119.4871794871795,40,121.53846153846155,40C122.56410256410257,40,123.58974358974359,39,124.61538461538461,39C125.12820512820512,39,125.64102564102564,40,126.15384615384615,40C126.66666666666666,40,127.17948717948718,40,127.6923076923077,40C128.2051282051282,40,128.71794871794873,39,129.23076923076923,39C129.74358974358975,39,130.25641025641025,40,130.76923076923077,40C131.2820512820513,40,131.7948717948718,40,132.30769230769232,40C133.33333333333334,40,134.35897435897436,40,135.3846153846154,40C135.89743589743588,40,136.4102564102564,40,136.9230769230769,40C137.43589743589743,40,137.94871794871796,37,138.46153846153848,37C138.97435897435898,37,139.4871794871795,40,140,40C140.51282051282053,40,141.02564102564102,40,141.53846153846155,40C142.05128205128204,40,142.56410256410257,40,143.07692307692307,40C143.5897435897436,40,144.1025641025641,29,144.6153846153846,29C145.12820512820514,29,145.64102564102564,40,146.15384615384616,40C146.66666666666666,40,147.17948717948718,40,147.69230769230768,40C148.2051282051282,40,148.7179487179487,40,149.23076923076923,40C149.74358974358975,40,150.25641025641025,39.666666666666664,150.76923076923077,39C151.28205128205127,38.33333333333334,151.7948717948718,34,152.3076923076923,34C152.82051282051282,34,153.33333333333331,40,153.84615384615384,40C154.35897435897436,40,154.87179487179486,38,155.3846153846154,38C155.8974358974359,38,156.4102564102564,40,156.92307692307693,40C157.43589743589743,40,157.94871794871796,37,158.46153846153845,37C158.97435897435898,37,159.48717948717947,37.5,160,38C160.51282051282053,38.5,161.02564102564102,40,161.53846153846155,40C162.05128205128204,40,162.56410256410257,37,163.07692307692307,37C163.5897435897436,37,164.1025641025641,38,164.6153846153846,38C165.12820512820514,38,165.64102564102564,33,166.15384615384616,33C166.66666666666669,33,167.17948717948718,40,167.6923076923077,40C168.2051282051282,40,168.71794871794873,36,169.23076923076923,36C169.74358974358975,36,170.25641025641025,40,170.76923076923077,40C171.2820512820513,40,171.7948717948718,33,172.30769230769232,33C172.82051282051282,33,173.33333333333334,40,173.84615384615384,40C174.35897435897436,40,174.87179487179486,39,175.3846153846154,37C175.89743589743588,35.000000000000036,176.4102564102564,24,176.9230769230769,24C177.43589743589743,24,177.94871794871793,40,178.46153846153845,40C178.97435897435898,40,179.48717948717947,40,180,40"></path><path class="axis-ceiling" stroke-width="1" stroke="black" fill="none" d="M175,0L180,0"></path><text class="axis-ceiling-label" font-family="sans-serif" text-anchor="end" font-size="10px" x="170" y="2.5">40</text></g></svg>