<svg xmlns="http://www.w3.org/2000/svg" viewBox="0 0 180 60"><g transform="translate(0,20)"><path class="area" fill="rgba(0, 0, 0, 0.2)" d="M0,36.72C1.0169491525423728,36.266666666666666,2.0338983050847457,35.81333333333333,3.0508474576271185,35.81333333333333C4.067796610169491,35.81333333333333,5.084745762711864,35.84888888888889,6.101694915254237,35.92C7.11864406779661,35.99111111111112,8.135593220338983,36.14222222222222,9.152542372881356,36.266666666666666C10.169491525423728,36.39111111111111,11.186440677966102,36.666666666666664,12.203389830508474,36.666666666666664C13.220338983050846,36.666666666666664,14.23728813559322,36.46222222222222,15.254237288135592,36.29333333333334C16.271186440677965,36.12444444444445,17.28813559322034,35.86222222222223,18.305084745762713,35.653333333333336C19.322033898305087,35.44444444444445,20.338983050847457,35.04,21.35593220338983,35.04C22.372881355932204,35.04,23.389830508474574,35.275555555555556,24.406779661016948,35.36C25.423728813559322,35.44444444444444,26.440677966101696,35.54666666666667,27.45762711864407,35.54666666666667C28.47457627118644,35.54666666666667,29.491525423728813,33.75555555555555,30.508474576271183,32.45333333333333C31.525423728813557,31.15111111111111,32.54237288135593,28.177777777777777,33.559322033898304,27.733333333333334C34.57627118644068,27.28888888888889,35.59322033898305,27.240000000000002,36.610169491525426,27.06666666666667C37.6271186440678,26.893333333333338,38.644067796610166,26.728888888888893,39.66101694915254,26.693333333333335C40.67796610169491,26.657777777777778,41.69491525423729,26.675555555555555,42.71186440677966,26.639999999999997C43.728813559322035,26.60444444444444,44.7457627118644,26.54222222222222,45.762711864406775,26.34666666666667C46.77966101694915,26.15111111111112,47.79661016949152,25.25333333333333,48.813559322033896,25.25333333333333C49.83050847457627,25.25333333333333,50.847457627118644,26.404444444444444,51.86440677966102,27.279999999999998C52.88135593220339,28.15555555555555,53.898305084745765,30.506666666666664,54.91525423728814,30.506666666666664C55.93220338983051,30.506666666666664,56.94915254237288,30.448888888888888,57.96610169491525,30.4C58.983050847457626,30.35111111111111,59.99999999999999,30.337777777777774,61.01694915254237,30.21333333333333C62.03389830508474,30.08888888888889,63.05084745762712,29.853333333333335,64.0677966101695,29.653333333333336C65.08474576271186,29.453333333333337,66.10169491525424,29.173333333333336,67.11864406779661,29.013333333333335C68.13559322033899,28.853333333333335,69.15254237288136,28.822222222222226,70.16949152542374,28.693333333333335C71.1864406779661,28.564444444444447,72.20338983050848,28.342222222222222,73.22033898305085,28.24C74.23728813559322,28.137777777777774,75.2542372881356,28.159999999999997,76.27118644067797,28.08C77.28813559322033,28,78.30508474576271,27.86222222222222,79.32203389830508,27.759999999999998C80.33898305084746,27.657777777777774,81.35593220338983,27.66222222222222,82.37288135593221,27.466666666666665C83.38983050847457,27.27111111111111,84.40677966101696,25.93333333333333,85.42372881355932,25.226666666666667C86.4406779661017,24.52,87.45762711864407,23.73777777777778,88.47457627118645,23.226666666666667C89.49152542372882,22.71555555555556,90.50847457627118,22.160000000000004,91.52542372881355,22.160000000000004C92.54237288135593,22.160000000000004,93.55932203389831,22.160000000000004,94.57627118644069,22.160000000000004C95.59322033898306,22.160000000000004,96.61016949152543,21.617777777777775,97.62711864406779,21.173333333333332C98.64406779661016,20.728888888888886,99.66101694915254,20.124444444444443,100.6779661016949,19.493333333333332C101.69491525423729,18.86222222222222,102.71186440677965,17.42222222222222,103.72881355932203,17.386666666666667C104.7457627118644,17.351111111111113,105.76271186440678,17.36888888888889,106.77966101694915,17.333333333333336C107.79661016949153,17.29777777777778,108.8135593220339,17.12,109.83050847457628,16.693333333333335C110.84745762711864,16.26666666666667,111.86440677966102,15.075555555555558,112.88135593220339,14.133333333333336C113.89830508474576,13.191111111111114,114.91525423728814,12.137777777777776,115.9322033898305,11.040000000000001C116.94915254237289,9.94222222222222,117.96610169491525,8.364444444444445,118.98305084745763,7.546666666666666C120,6.728888888888895,121.01694915254237,6.631111111111107,122.03389830508473,6.133333333333333C123.05084745762711,5.635555555555552,124.0677966101695,5.04888888888889,125.08474576271188,4.56C126.10169491525424,4.071111111111113,127.11864406779662,3.3599999999999994,128.135593220339,3.1999999999999984C129.15254237288136,3.0399999999999983,130.16949152542372,3.106666666666663,131.1864406779661,2.959999999999998C132.20338983050846,2.813333333333332,133.22033898305085,2.551111111111113,134.23728813559322,2.320000000000002C135.25423728813558,2.0888888888888912,136.27118644067798,1.5733333333333333,137.28813559322035,1.5733333333333333C138.3050847457627,1.5733333333333333,139.3220338983051,1.635555555555556,140.33898305084747,1.7600000000000016C141.35593220338984,1.884444444444446,142.3728813559322,2.4177777777777796,143.38983050847457,2.6933333333333342C144.40677966101694,2.9688888888888916,145.42372881355934,3.164444444444445,146.4406779661017,3.413333333333335C147.45762711864407,3.6622222222222227,148.47457627118644,3.9200000000000026,149.4915254237288,4.186666666666667C150.50847457627117,4.453333333333335,151.52542372881356,4.4622222222222225,152.54237288135593,5.013333333333332C153.5593220338983,5.564444444444441,154.5762711864407,6.8044444444444405,155.59322033898306,7.653333333333334C156.61016949152543,8.502222222222219,157.6271186440678,9.226666666666674,158.64406779661016,10.10666666666667C159.66101694915253,10.986666666666672,160.67796610169492,12.275555555555556,161.6949152542373,12.933333333333334C162.71186440677965,13.591111111111111,163.72881355932205,13.515555555555553,164.74576271186442,14.053333333333335C165.76271186440678,14.591111111111111,166.77966101694915,15.36444444444445,167.79661016949152,16.16C168.81355932203388,16.95555555555556,169.83050847457628,17.964444444444446,170.84745762711864,18.826666666666668C171.864406779661,19.68888888888889,172.8813559322034,20.746666666666666,173.89830508474577,21.333333333333332C174.91525423728814,21.919999999999998,175.93220338983053,22.062222222222218,176.9491525423729,22.346666666666664C177.96610169491527,22.631111111111107,178.98305084745763,22.835555555555555,180,23.040000000000003L180,40C178.98305084745763,40,177.96610169491527,40,176.9491525423729,40C175.93220338983053,40,174.91525423728814,40,173.89830508474577,40C172.8813559322034,40,171.864406779661,40,170.84745762711864,40C169.83050847457628,40,168.81355932203388,40,167.79661016949152,40C166.77966101694915,40,165.76271186440678,40,164.74576271186442,40C163.72881355932205,40,162.71186440677965,40,161.6949152542373,40C160.67796610169492,40,159.66101694915253,40,158.64406779661016,40C157.6271186440678,40,156.61016949152543,40,155.59322033898306,40C154.5762711864407,40,153.5593220338983,40,152.54237288135593,40C151.52542372881356,40,150.50847457627117,40,149.4915254237288,40C148.47457627118644,40,147.45762711864407,40,146.4406779661017,40C145.42372881355934,40,144.40677966101694,40,143.38983050847457,40C142.3728813559322,40,141.35593220338984,40,140.33898305084747,40C139.3220338983051,40,138.3050847457627,40,137.28813559322035,40C136.27118644067798,40,135.25423728813558,40,134.23728813559322,40C133.22033898305085,40,132.20338983050846,40,131.1864406779661,40C130.16949152542372,40,129.15254237288136,40,128.135593220339,40C127.11864406779662,40,126.10169491525424,40,125.08474576271188,40C124.0677966101695,40,123.05084745762711,40,122.03389830508473,40C121.01694915254237,40,120,40,118.98305084745763,40C117.96610169491525,40,116.94915254237289,40,115.9322033898305,40C114.91525423728814,40,113.89830508474576,40,112.88135593220339,40C111.86440677966102,40,110.84745762711864,40,109.83050847457628,40C108.8135593220339,40,107.79661016949153,40,106.77966101694915,40C105.76271186440678,40,104.7457627118644,40,103.72881355932203,40C102.71186440677965,40,101.69491525423729,40,100.6779661016949,40C99.66101694915254,40,98.64406779661016,40,97.62711864406779,40C96.61016949152543,40,95.59322033898306,40,94.57627118644069,40C93.55932203389831,40,92.54237288135593,40,91.52542372881355,40C90.50847457627118,40,89.49152542372882,40,88.47457627118645,40C87.45762711864407,40,86.4406779661017,40,85.42372881355932,40C84.40677966101696,40,83.38983050847457,40,82.37288135593221,40C81.35593220338983,40,80.33898305084746,40,79.32203389830508,40C78.30508474576271,40,77.28813559322033,40,76.27118644067797,40C75.2542372881356,40,74.23728813559322,40,73.22033898305085,40C72.20338983050848,40,71.1864406779661,40,70.16949152542374,40C69.15254237288136,40,68.13559322033899,40,67.11864406779661,40C66.10169491525424,40,65.08474576271186,40,64.0677966101695,40C63.05084745762712,40,62.03389830508474,40,61.01694915254237,40C59.99999999999999,40,58.983050847457626,40,57.96610169491525,40C56.94915254237288,40,55.93220338983051,40,54.91525423728814,40C53.898305084745765,40,52.88135593220339,40,51.86440677966102,40C50.847457627118644,40,49.83050847457627,40,48.813559322033896,40C47.79661016949152,40,46.77966101694915,40,45.762711864406775,40C44.7457627118644,40,43.728813559322035,40,42.71186440677966,40C41.69491525423729,40,40.67796610169491,40,39.66101694915254,40C38.644067796610166,40,37.6271186440678,40,36.610169491525426,40C35.59322033898305,40,34.57627118644068,40,33.559322033898304,40C32.54237288135593,40,31.525423728813557,40,30.508474576271183,40C29.491525423728813,40,28.47457627118644,40,27.45762711864407,40C26.440677966101696,40,25.423728813559322,40,24.406779661016948,40C23.389830508474574,40,22.372881355932204,40,21.35593220338983,40C20.338983050847457,40,19.322033898305087,40,18.305084745762713,40C17.28813559322034,40,16.271186440677965,40,15.254237288135592,40C14.23728813559322,40,13.220338983050846,40,12.203389830508474,40C11.186440677966102,40,10.169491525423728,40,9.152542372881356,40C8.135593220338983,40,7.11864406779661,40,6.101694915254237,40C5.084745762711864,40,4.067796610169491,40,3.0508474576271185,40C2.0338983050847457,40,1.0169491525423728,40,0,40Z"></path><path class="line" stroke="black" fill="none" d="M0,36.72C1.0169491525423728,36.266666666666666,2.0338983050847457,35.81333333333333,3.0508474576271185,35.81333333333333C4.067796610169491,35.81333333333333,5.084745762711864,35.84888888888889,6.101694915254237,35.92C7.11864406779661,35.99111111111112,8.135593220338983,36.14222222222222,9.152542372881356,36.266666666666666C10.169491525423728,36.39111111111111,11.186440677966102,36.666666666666664,12.203389830508474,36.666666666666664C13.220338983050846,36.666666666666664,14.23728813559322,36.46222222222222,15.254237288135592,36.29333333333334C16.271186440677965,36.12444444444445,17.28813559322034,35.86222222222223,18.305084745762713,35.653333333333336C19.322033898305087,35.44444444444445,20.338983050847457,35.04,21.35593220338983,35.04C22.372881355932204,35.04,23.389830508474574,35.275555555555556,24.406779661016948,35.36C25.423728813559322,35.44444444444444,26.440677966101696,35.54666666666667,27.45762711864407,35.54666666666667C28.47457627118644,35.54666666666667,29.491525423728813,33.75555555555555,30.508474576271183,32.45333333333333C31.525423728813557,31.15111111111111,32.54237288135593,28.177777777777777,33.559322033898304,27.733333333333334C34.57627118644068,27.28888888888889,35.59322033898305,27.240000000000002,36.610169491525426,27.06666666666667C37.6271186440678,26.893333333333338,38.644067796610166,26.728888888888893,39.66101694915254,26.693333333333335C40.67796610169491,26.657777777777778,41.69491525423729,26.675555555555555,42.71186440677966,26.639999999999997C43.728813559322035,26.60444444444444,44.7457627118644,26.54222222222222,45.762711864406775,26.34666666666667C46.77966101694915,26.15111111111112,47.79661016949152,25.25333333333333,48.813559322033896,25.25333333333333C49.83050847457627,25.25333333333333,50.847457627118644,26.404444444444444,51.86440677966102,27.279999999999998C52.88135593220339,28.15555555555555,53.898305084745765,30.506666666666664,54.91525423728814,30.506666666666664C55.93220338983051,30.506666666666664,56.94915254237288,30.448888888888888,57.96610169491525,30.4C58.983050847457626,30.35111111111111,59.99999999999999,30.337777777777774,61.01694915254237,30.21333333333333C62.03389830508474,30.08888888888889,63.05084745762712,29.853333333333335,64.0677966101695,29.653333333333336C65.08474576271186,29.453333333333337,66.10169491525424,29.173333333333336,67.11864406779661,29.013333333333335C68.13559322033899,28.853333333333335,69.15254237288136,28.822222222222226,70.16949152542374,28.693333333333335C71.1864406779661,28.564444444444447,72.20338983050848,28.342222222222222,73.22033898305085,28.24C74.23728813559322,28.137777777777774,75.2542372881356,28.159999999999997,76.27118644067797,28.08C77.28813559322033,28,78.30508474576271,27.86222222222222,79.32203389830508,27.759999999999998C80.33898305084746,27.657777777777774,81.35593220338983,27.66222222222222,82.37288135593221,27.466666666666665C83.38983050847457,27.27111111111111,84.40677966101696,25.93333333333333,85.42372881355932,25.226666666666667C86.4406779661017,24.52,87.45762711864407,23.73777777777778,88.47457627118645,23.226666666666667C89.49152542372882,22.71555555555556,90.50847457627118,22.160000000000004,91.52542372881355,22.160000000000004C92.54237288135593,22.160000000000004,93.55932203389831,22.160000000000004,94.57627118644069,22.160000000000004C95.59322033898306,22.160000000000004,96.61016949152543,21.617777777777775,97.62711864406779,21.173333333333332C98.64406779661016,20.728888888888886,99.66101694915254,20.124444444444443,100.6779661016949,19.493333333333332C101.69491525423729,18.86222222222222,102.71186440677965,17.42222222222222,103.72881355932203,17.386666666666667C104.7457627118644,17.351111111111113,105.76271186440678,17.36888888888889,106.77966101694915,17.333333333333336C107.79661016949153,17.29777777777778,108.8135593220339,17.12,109.83050847457628,16.693333333333335C110.84745762711864,16.26666666666667,111.86440677966102,15.075555555555558,112.88135593220339,14.133333333333336C113.89830508474576,13.191111111111114,114.91525423728814,12.137777777777776,115.9322033898305,11.040000000000001C116.94915254237289,9.94222222222222,117.96610169491525,8.364444444444445,118.98305084745763,7.546666666666666C120,6.728888888888895,121.01694915254237,6.631111111111107,122.03389830508473,6.133333333333333C123.05084745762711,5.635555555555552,124.0677966101695,5.04888888888889,125.08474576271188,4.56C126.10169491525424,4.071111111111113,127.11864406779662,3.3599999999999994,128.135593220339,3.1999999999999984C129.15254237288136,3.0399999999999983,130.16949152542372,3.106666666666663,131.1864406779661,2.959999999999998C132.20338983050846,2.813333333333332,133.22033898305085,2.551111111111113,134.23728813559322,2.320000000000002C135.25423728813558,2.0888888888888912,136.27118644067798,1.5733333333333333,137.28813559322035,1.5733333333333333C138.3050847457627,1.5733333333333333,139.3220338983051,1.635555555555556,140.33898305084747,1.7600000000000016C141.35593220338984,1.884444444444446,142.3728813559322,2.4177777777777796,143.38983050847457,2.6933333333333342C144.40677966101694,2.9688888888888916,145.42372881355934,3.164444444444445,146.4406779661017,3.413333333333335C147.45762711864407,3.6622222222222227,148.47457627118644,3.9200000000000026,149.4915254237288,4.186666666666667C150.50847457627117,4.453333333333335,151.52542372881356,4.4622222222222225,152.54237288135593,5.013333333333332C153.5593220338983,5.564444444444441,154.5762711864407,6.8044444444444405,155.59322033898306,7.653333333333334C156.61016949152543,8.502222222222219,157.6271186440678,9.226666666666674,158.64406779661016,10.10666666666667C159.66101694915253,10.986666666666672,160.67796610169492,12.275555555555556,161.6949152542373,12.933333333333334C162.71186440677965,13.591111111111111,163.72881355932205,13.515555555555553,164.74576271186442,14.053333333333335C165.76271186440678,14.591111111111111,166.77966101694915,15.36444444444445,167.79661016949152,16.16C168.81355932203388,16.95555555555556,169.83050847457628,17.964444444444446,170.84745762711864,18.826666666666668C171.864406779661,19.68888888888889,172.8813559322034,20.746666666666666,173.89830508474577,21.333333333333332C174.91525423728814,21.919999999999998,175.93220338983053,22.062222222222218,176.9491525423729,22.346666666666664C177.96610169491527,22.631111111111107,178.98305084745763,22.835555555555555,180,23.040000000000003"></path><path class="axis-ceiling" stroke-width="1" stroke="black" fill="none" d="M175,0L180,0"></path><text class="axis-ceiling-label" font-family="sans-serif" text-anchor="end" font-size="10px" x="170" y="2.5">1500</text></g></svg>