<svg xmlns="http://www.w3.org/2000/svg" viewBox="0 0 180 60"><g transform="translate(0,20)"><path class="area" fill="rgba(0, 0, 0, 0.2)" d="M0,32.32C1.0169491525423728,32.32,2.0338983050847457,32.32,3.0508474576271185,32.32C4.067796610169491,32.32,5.084745762711864,32.32,6.101694915254237,32.32C7.11864406779661,32.32,8.135593220338983,32.32,9.152542372881356,32.32C10.169491525423728,32.32,11.186440677966102,32.18,12.203389830508474,32.08C13.220338983050846,31.979999999999997,14.23728813559322,31.840000000000003,15.254237288135592,31.720000000000002C16.271186440677965,31.6,17.28813559322034,31.48,18.305084745762713,31.36C19.322033898305087,31.24,20.338983050847457,31.133333333333333,21.35593220338983,31C22.372881355932204,30.866666666666667,23.389830508474574,30.71,24.406779661016948,30.560000000000002C25.423728813559322,30.41,26.440677966101696,30.27,27.45762711864407,30.099999999999998C28.47457627118644,29.929999999999996,29.491525423728813,29.686666666666664,30.508474576271183,29.54C31.525423728813557,29.39333333333333,32.54237288135593,29.369999999999997,33.559322033898304,29.22C34.57627118644068,29.07,35.59322033898305,28.833333333333332,36.610169491525426,28.64C37.6271186440678,28.44666666666667,38.644067796610166,28.253333333333334,39.66101694915254,28.060000000000002C40.67796610169491,27.86666666666667,41.69491525423729,27.67333333333334,42.71186440677966,27.480000000000004C43.728813559322035,27.28666666666667,44.7457627118644,27.13,45.762711864406775,26.9C46.77966101694915,26.669999999999998,47.79661016949152,26.35,48.813559322033896,26.1C49.83050847457627,25.85,50.847457627118644,25.639999999999997,51.86440677966102,25.4C52.88135593220339,25.16,53.898305084745765,24.850000000000005,54.91525423728814,24.660000000000004C55.93220338983051,24.470000000000006,56.94915254237288,24.403333333333336,57.96610169491525,24.26C58.983050847457626,24.116666666666667,59.99999999999999,23.956666666666663,61.01694915254237,23.799999999999997C62.03389830508474,23.64333333333333,63.05084745762712,23.463333333333335,64.0677966101695,23.32C65.08474576271186,23.17666666666667,66.10169491525424,23.033333333333335,67.11864406779661,22.94C68.13559322033899,22.846666666666668,69.15254237288136,22.82,70.16949152542374,22.759999999999998C71.1864406779661,22.7,72.20338983050848,22.636666666666663,73.22033898305085,22.58C74.23728813559322,22.523333333333333,75.2542372881356,22.46666666666667,76.27118644067797,22.42C77.28813559322033,22.373333333333335,78.30508474576271,22.333333333333336,79.32203389830508,22.3C80.33898305084746,22.266666666666666,81.35593220338983,22.243333333333332,82.37288135593221,22.22C83.38983050847457,22.196666666666665,84.40677966101696,22.173333333333336,85.42372881355932,22.160000000000004C86.4406779661017,22.146666666666672,87.45762711864407,22.153333333333336,88.47457627118645,22.14C89.49152542372882,22.12666666666667,90.50847457627118,22.1,91.52542372881355,22.080000000000002C92.54237288135593,22.060000000000002,93.55932203389831,22.036666666666665,94.57627118644069,22.02C95.59322033898306,22.003333333333334,96.61016949152543,21.993333333333332,97.62711864406779,21.98C98.64406779661016,21.966666666666665,99.66101694915254,21.966666666666665,100.6779661016949,21.939999999999998C101.69491525423729,21.91333333333333,102.71186440677965,21.856666666666662,103.72881355932203,21.799999999999997C104.7457627118644,21.743333333333332,105.76271186440678,21.683333333333334,106.77966101694915,21.6C107.79661016949153,21.51666666666667,108.8135593220339,21.406666666666663,109.83050847457628,21.299999999999997C110.84745762711864,21.19333333333333,111.86440677966102,21.083333333333332,112.88135593220339,20.96C113.89830508474576,20.83666666666667,114.91525423728814,20.71666666666667,115.9322033898305,20.560000000000002C116.94915254237289,20.403333333333336,117.96610169491525,20.21333333333333,118.98305084745763,20.019999999999996C120,19.826666666666664,121.01694915254237,19.596666666666664,122.03389830508473,19.4C123.05084745762711,19.20333333333333,124.0677966101695,19.03,125.08474576271188,18.84C126.10169491525424,18.650000000000002,127.11864406779662,18.46,128.135593220339,18.26C129.15254237288136,18.060000000000002,130.16949152542372,17.839999999999996,131.1864406779661,17.639999999999997C132.20338983050846,17.439999999999994,133.22033898305085,17.25,134.23728813559322,17.06C135.25423728813558,16.869999999999997,136.27118644067798,16.693333333333335,137.28813559322035,16.5C138.3050847457627,16.306666666666665,139.3220338983051,16.093333333333334,140.33898305084747,15.899999999999999C141.35593220338984,15.706666666666665,142.3728813559322,15.519999999999996,143.38983050847457,15.339999999999998C144.40677966101694,15.159999999999998,145.42372881355934,14.99666666666667,146.4406779661017,14.820000000000002C147.45762711864407,14.643333333333336,148.47457627118644,14.446666666666665,149.4915254237288,14.28C150.50847457627117,14.113333333333332,151.52542372881356,13.97,152.54237288135593,13.82C153.5593220338983,13.67,154.5762711864407,13.526666666666667,155.59322033898306,13.38C156.61016949152543,13.233333333333334,157.6271186440678,13.073333333333334,158.64406779661016,12.940000000000001C159.66101694915253,12.806666666666667,160.67796610169492,12.703333333333333,161.6949152542373,12.58C162.71186440677965,12.456666666666667,163.72881355932205,12.323333333333336,164.74576271186442,12.200000000000003C165.76271186440678,12.07666666666667,166.77966101694915,11.966666666666669,167.79661016949152,11.840000000000002C168.81355932203388,11.713333333333335,169.83050847457628,11.590000000000002,170.84745762711864,11.440000000000001C171.864406779661,11.290000000000001,172.8813559322034,11.113333333333332,173.89830508474577,10.939999999999998C174.91525423728814,10.766666666666664,175.93220338983053,10.593333333333334,176.9491525423729,10.4C177.96610169491527,10.206666666666669,178.98305084745763,9.993333333333334,180,9.780000000000001L180,40C178.98305084745763,40,177.96610169491527,40,176.9491525423729,40C175.93220338983053,40,174.91525423728814,40,173.89830508474577,40C172.8813559322034,40,171.864406779661,40,170.84745762711864,40C169.83050847457628,40,168.81355932203388,40,167.79661016949152,40C166.77966101694915,40,165.76271186440678,40,164.74576271186442,40C163.72881355932205,40,162.71186440677965,40,161.6949152542373,40C160.67796610169492,40,159.66101694915253,40,158.64406779661016,40C157.6271186440678,40,156.61016949152543,40,155.59322033898306,40C154.5762711864407,40,153.5593220338983,40,152.54237288135593,40C151.52542372881356,40,150.50847457627117,40,149.4915254237288,40C148.47457627118644,40,147.45762711864407,40,146.4406779661017,40C145.42372881355934,40,144.40677966101694,40,143.38983050847457,40C142.3728813559322,40,141.35593220338984,40,140.33898305084747,40C139.3220338983051,40,138.3050847457627,40,137.28813559322035,40C136.27118644067798,40,135.25423728813558,40,134.23728813559322,40C133.22033898305085,40,132.20338983050846,40,131.1864406779661,40C130.16949152542372,40,129.15254237288136,40,128.135593220339,40C127.11864406779662,40,126.10169491525424,40,125.08474576271188,40C124.0677966101695,40,123.05084745762711,40,122.03389830508473,40C121.01694915254237,40,120,40,118.98305084745763,40C117.96610169491525,40,116.94915254237289,40,115.9322033898305,40C114.91525423728814,40,113.89830508474576,40,112.88135593220339,40C111.86440677966102,40,110.84745762711864,40,109.83050847457628,40C108.8135593220339,40,107.79661016949153,40,106.77966101694915,40C105.76271186440678,40,104.7457627118644,40,103.72881355932203,40C102.71186440677965,40,101.69491525423729,40,100.6779661016949,40C99.66101694915254,40,98.64406779661016,40,97.62711864406779,40C96.61016949152543,40,95.59322033898306,40,94.57627118644069,40C93.55932203389831,40,92.54237288135593,40,91.52542372881355,40C90.50847457627118,40,89.49152542372882,40,88.47457627118645,40C87.45762711864407,40,86.4406779661017,40,85.42372881355932,40C84.40677966101696,40,83.38983050847457,40,82.37288135593221,40C81.35593220338983,40,80.33898305084746,40,79.32203389830508,40C78.30508474576271,40,77.28813559322033,40,76.27118644067797,40C75.2542372881356,40,74.23728813559322,40,73.22033898305085,40C72.20338983050848,40,71.1864406779661,40,70.16949152542374,40C69.15254237288136,40,68.13559322033899,40,67.11864406779661,40C66.10169491525424,40,65.08474576271186,40,64.0677966101695,40C63.05084745762712,40,62.03389830508474,40,61.01694915254237,40C59.99999999999999,40,58.983050847457626,40,57.96610169491525,40C56.94915254237288,40,55.93220338983051,40,54.91525423728814,40C53.898305084745765,40,52.88135593220339,40,51.86440677966102,40C50.847457627118644,40,49.83050847457627,40,48.813559322033896,40C47.79661016949152,40,46.77966101694915,40,45.762711864406775,40C44.7457627118644,40,43.728813559322035,40,42.71186440677966,40C41.69491525423729,40,40.67796610169491,40,39.66101694915254,40C38.644067796610166,40,37.6271186440678,40,36.610169491525426,40C35.59322033898305,40,34.57627118644068,40,33.559322033898304,40C32.54237288135593,40,31.525423728813557,40,30.508474576271183,40C29.491525423728813,40,28.47457627118644,40,27.45762711864407,40C26.440677966101696,40,25.423728813559322,40,24.406779661016948,40C23.389830508474574,40,22.372881355932204,40,21.35593220338983,40C20.338983050847457,40,19.322033898305087,40,18.305084745762713,40C17.28813559322034,40,16.271186440677965,40,15.254237288135592,40C14.23728813559322,40,13.220338983050846,40,12.203389830508474,40C11.186440677966102,40,10.169491525423728,40,9.152542372881356,40C8.135593220338983,40,7.11864406779661,40,6.101694915254237,40C5.084745762711864,40,4.067796610169491,40,3.0508474576271185,40C2.0338983050847457,40,1.0169491525423728,40,0,40Z"></path><path class="line" stroke="black" fill="none" d="M0,32.32C1.0169491525423728,32.32,2.0338983050847457,32.32,3.0508474576271185,32.32C4.067796610169491,32.32,5.084745762711864,32.32,6.101694915254237,32.32C7.11864406779661,32.32,8.135593220338983,32.32,9.152542372881356,32.32C10.169491525423728,32.32,11.186440677966102,32.18,12.203389830508474,32.08C13.220338983050846,31.979999999999997,14.23728813559322,31.840000000000003,15.254237288135592,31.720000000000002C16.271186440677965,31.6,17.28813559322034,31.48,18.305084745762713,31.36C19.322033898305087,31.24,20.338983050847457,31.133333333333333,21.35593220338983,31C22.372881355932204,30.866666666666667,23.389830508474574,30.71,24.406779661016948,30.560000000000002C25.423728813559322,30.41,26.440677966101696,30.27,27.45762711864407,30.099999999999998C28.47457627118644,29.929999999999996,29.491525423728813,29.686666666666664,30.508474576271183,29.54C31.525423728813557,29.39333333333333,32.54237288135593,29.369999999999997,33.559322033898304,29.22C34.57627118644068,29.07,35.59322033898305,28.833333333333332,36.610169491525426,28.64C37.6271186440678,28.44666666666667,38.644067796610166,28.253333333333334,39.66101694915254,28.060000000000002C40.67796610169491,27.86666666666667,41.69491525423729,27.67333333333334,42.71186440677966,27.480000000000004C43.728813559322035,27.28666666666667,44.7457627118644,27.13,45.762711864406775,26.9C46.77966101694915,26.669999999999998,47.79661016949152,26.35,48.813559322033896,26.1C49.83050847457627,25.85,50.847457627118644,25.639999999999997,51.86440677966102,25.4C52.88135593220339,25.16,53.898305084745765,24.850000000000005,54.91525423728814,24.660000000000004C55.93220338983051,24.470000000000006,56.94915254237288,24.403333333333336,57.96610169491525,24.26C58.983050847457626,24.116666666666667,59.99999999999999,23.956666666666663,61.01694915254237,23.799999999999997C62.03389830508474,23.64333333333333,63.05084745762712,23.463333333333335,64.0677966101695,23.32C65.08474576271186,23.17666666666667,66.10169491525424,23.033333333333335,67.11864406779661,22.94C68.13559322033899,22.846666666666668,69.15254237288136,22.82,70.16949152542374,22.759999999999998C71.1864406779661,22.7,72.20338983050848,22.636666666666663,73.22033898305085,22.58C74.23728813559322,22.523333333333333,75.2542372881356,22.46666666666667,76.27118644067797,22.42C77.28813559322033,22.373333333333335,78.30508474576271,22.333333333333336,79.32203389830508,22.3C80.33898305084746,22.266666666666666,81.35593220338983,22.243333333333332,82.37288135593221,22.22C83.38983050847457,22.196666666666665,84.40677966101696,22.173333333333336,85.42372881355932,22.160000000000004C86.4406779661017,22.146666666666672,87.45762711864407,22.153333333333336,88.47457627118645,22.14C89.49152542372882,22.12666666666667,90.50847457627118,22.1,91.52542372881355,22.080000000000002C92.54237288135593,22.060000000000002,93.55932203389831,22.036666666666665,94.57627118644069,22.02C95.59322033898306,22.003333333333334,96.61016949152543,21.993333333333332,97.62711864406779,21.98C98.64406779661016,21.966666666666665,99.66101694915254,21.966666666666665,100.6779661016949,21.939999999999998C101.69491525423729,21.91333333333333,102.71186440677965,21.856666666666662,103.72881355932203,21.799999999999997C104.7457627118644,21.743333333333332,105.76271186440678,21.683333333333334,106.77966101694915,21.6C107.79661016949153,21.51666666666667,108.8135593220339,21.406666666666663,109.83050847457628,21.299999999999997C110.84745762711864,21.19333333333333,111.86440677966102,21.083333333333332,112.88135593220339,20.96C113.89830508474576,20.83666666666667,114.91525423728814,20.71666666666667,115.9322033898305,20.560000000000002C116.94915254237289,20.403333333333336,117.96610169491525,20.21333333333333,118.98305084745763,20.019999999999996C120,19.826666666666664,121.01694915254237,19.596666666666664,122.03389830508473,19.4C123.05084745762711,19.20333333333333,124.0677966101695,19.03,125.08474576271188,18.84C126.10169491525424,18.650000000000002,127.11864406779662,18.46,128.135593220339,18.26C129.15254237288136,18.060000000000002,130.16949152542372,17.839999999999996,131.1864406779661,17.639999999999997C132.20338983050846,17.439999999999994,133.22033898305085,17.25,134.23728813559322,17.06C135.25423728813558,16.869999999999997,136.27118644067798,16.693333333333335,137.28813559322035,16.5C138.3050847457627,16.306666666666665,139.3220338983051,16.093333333333334,140.33898305084747,15.899999999999999C141.35593220338984,15.706666666666665,142.3728813559322,15.519999999999996,143.38983050847457,15.339999999999998C144.40677966101694,15.159999999999998,145.42372881355934,14.99666666666667,146.4406779661017,14.820000000000002C147.45762711864407,14.643333333333336,148.47457627118644,14.446666666666665,149.4915254237288,14.28C150.50847457627117,14.113333333333332,151.52542372881356,13.97,152.54237288135593,13.82C153.5593220338983,13.67,154.5762711864407,13.526666666666667,155.59322033898306,13.38C156.61016949152543,13.233333333333334,157.6271186440678,13.073333333333334,158.64406779661016,12.940000000000001C159.66101694915253,12.806666666666667,160.67796610169492,12.703333333333333,161.6949152542373,12.58C162.71186440677965,12.456666666666667,163.72881355932205,12.323333333333336,164.74576271186442,12.200000000000003C165.76271186440678,12.07666666666667,166.77966101694915,11.966666666666669,167.79661016949152,11.840000000000002C168.81355932203388,11.713333333333335,169.83050847457628,11.590000000000002,170.84745762711864,11.440000000000001C171.864406779661,11.290000000000001,172.8813559322034,11.113333333333332,173.89830508474577,10.939999999999998C174.91525423728814,10.766666666666664,175.93220338983053,10.593333333333334,176.9491525423729,10.4C177.96610169491527,10.206666666666669,178.98305084745763,9.993333333333334,180,9.780000000000001"></path><path class="axis-ceiling" stroke-width="1" stroke="black" fill="none" d="M175,0L180,0"></path><text class="axis-ceiling-label" font-family="sans-serif" text-anchor="end" font-size="10px" x="170" y="2.5">2000</text></g></svg>