<svg xmlns="http://www.w3.org/2000/svg" viewBox="0 0 180 60"><g transform="translate(0,20)"><path class="area" fill="rgba(0, 0, 0, 0.2)" d="M0,27.519999999999996C1.9672131147540985,27.519999999999996,3.9344262295081966,27.519999999999996,5.901639344262295,27.519999999999996C6.885245901639345,27.519999999999996,7.868852459016393,27.519999999999996,8.852459016393443,27.519999999999996C9.836065573770492,27.519999999999996,10.819672131147541,27.519999999999996,11.80327868852459,27.519999999999996C12.78688524590164,27.519999999999996,13.770491803278688,27.519999999999996,14.754098360655737,27.519999999999996C15.737704918032787,27.519999999999996,16.721311475409834,27.480000000000004,17.704918032786885,27.480000000000004C18.688524590163933,27.480000000000004,19.672131147540984,27.480000000000004,20.65573770491803,27.480000000000004C22.62295081967213,27.480000000000004,24.59016393442623,27.480000000000004,26.557377049180328,27.480000000000004C27.540983606557376,27.480000000000004,28.524590163934427,27.480000000000004,29.508196721311474,27.480000000000004C30.491803278688526,27.480000000000004,31.475409836065573,27.439999999999998,32.459016393442624,27.439999999999998C33.442622950819676,27.439999999999998,34.42622950819672,27.439999999999998,35.40983606557377,27.439999999999998C36.39344262295082,27.439999999999998,37.377049180327866,27.400000000000002,38.36065573770492,27.400000000000002C39.34426229508197,27.400000000000002,40.32786885245901,27.400000000000002,41.31147540983606,27.400000000000002C42.295081967213115,27.400000000000002,43.27868852459016,27.346666666666668,44.26229508196721,27.32C45.24590163934426,27.293333333333333,46.22950819672131,27.26666666666667,47.21311475409836,27.240000000000002C48.19672131147541,27.213333333333335,49.18032786885246,27.18666666666667,50.1639344262295,27.160000000000004C51.147540983606554,27.133333333333336,52.131147540983605,27.10666666666667,53.114754098360656,27.080000000000002C54.09836065573771,27.053333333333335,55.08196721311475,27.026666666666667,56.0655737704918,27C57.049180327868854,26.973333333333333,58.0327868852459,26.953333333333337,59.01639344262295,26.92C60,26.886666666666667,60.983606557377044,26.82666666666666,61.967213114754095,26.799999999999997C62.950819672131146,26.773333333333333,63.9344262295082,26.773333333333333,64.91803278688525,26.76C65.90163934426229,26.74666666666667,66.88524590163935,26.74,67.8688524590164,26.72C68.85245901639344,26.7,69.8360655737705,26.666666666666664,70.81967213114754,26.639999999999997C71.80327868852459,26.61333333333333,72.78688524590164,26.586666666666662,73.77049180327869,26.559999999999995C74.75409836065573,26.533333333333328,75.73770491803279,26.499999999999996,76.72131147540983,26.479999999999997C77.70491803278688,26.459999999999997,78.68852459016394,26.46,79.67213114754098,26.44C80.65573770491802,26.42,81.63934426229508,26.386666666666667,82.62295081967213,26.36C83.60655737704917,26.333333333333332,84.59016393442623,26.313333333333333,85.57377049180327,26.28C86.55737704918032,26.24666666666667,87.54098360655738,26.19333333333333,88.52459016393442,26.16C89.50819672131148,26.126666666666665,90.49180327868852,26.113333333333337,91.47540983606558,26.080000000000002C92.45901639344262,26.04666666666667,93.44262295081968,26,94.42622950819673,25.96C95.40983606557377,25.92,96.39344262295083,25.88,97.37704918032787,25.84C98.36065573770492,25.8,99.34426229508196,25.759999999999998,100.327868852459,25.72C101.31147540983606,25.68,102.29508196721311,25.64666666666667,103.27868852459017,25.6C104.26229508196721,25.553333333333335,105.24590163934427,25.493333333333336,106.22950819672131,25.44C107.21311475409836,25.386666666666667,108.19672131147541,25.333333333333336,109.18032786885246,25.28C110.1639344262295,25.226666666666667,111.14754098360656,25.173333333333336,112.1311475409836,25.12C113.11475409836066,25.066666666666666,114.09836065573771,25.006666666666668,115.08196721311477,24.96C116.06557377049181,24.913333333333334,117.04918032786885,24.873333333333335,118.0327868852459,24.84C119.01639344262294,24.806666666666665,120,24.79333333333333,120.98360655737704,24.759999999999998C121.96721311475409,24.726666666666667,122.95081967213115,24.64,123.93442622950819,24.64C124.91803278688525,24.64,125.90163934426229,24.64,126.88524590163935,24.64C127.8688524590164,24.64,128.85245901639345,24.64,129.8360655737705,24.64C130.81967213114754,24.64,131.8032786885246,24.64,132.78688524590166,24.64C133.7704918032787,24.64,134.75409836065575,24.64,135.7377049180328,24.64C136.72131147540983,24.64,137.70491803278688,24.64,138.68852459016392,24.64C139.67213114754097,24.64,140.65573770491804,24.36,141.63934426229508,24.16C142.62295081967213,23.96,143.6065573770492,23.680000000000007,144.59016393442624,23.440000000000005C145.5737704918033,23.200000000000006,146.55737704918033,22.96,147.54098360655738,22.720000000000002C148.52459016393442,22.48,149.5081967213115,22.26666666666667,150.49180327868854,22C151.47540983606558,21.733333333333334,152.45901639344262,21.42,153.44262295081967,21.12C154.4262295081967,20.82,155.40983606557376,20.54,156.3934426229508,20.2C157.37704918032784,19.859999999999996,158.36065573770492,19.37333333333333,159.34426229508196,19.08C160.327868852459,18.786666666666665,161.31147540983608,18.74,162.29508196721312,18.439999999999998C163.27868852459017,18.139999999999997,164.2622950819672,17.666666666666664,165.24590163934425,17.28C166.2295081967213,16.893333333333334,167.21311475409837,16.50666666666667,168.19672131147541,16.12C169.18032786885246,15.733333333333336,170.1639344262295,15.346666666666666,171.14754098360655,14.96C172.1311475409836,14.573333333333332,173.11475409836066,14.260000000000002,174.0983606557377,13.799999999999999C175.08196721311475,13.34,176.0655737704918,12.700000000000001,177.04918032786884,12.200000000000003C178.03278688524588,11.700000000000001,179.01639344262296,11.25,180,10.8L180,40C179.01639344262296,40,178.03278688524588,40,177.04918032786884,40C176.0655737704918,40,175.08196721311475,40,174.0983606557377,40C173.11475409836066,40,172.1311475409836,40,171.14754098360655,40C170.1639344262295,40,169.18032786885246,40,168.19672131147541,40C167.21311475409837,40,166.2295081967213,40,165.24590163934425,40C164.2622950819672,40,163.27868852459017,40,162.29508196721312,40C161.31147540983608,40,160.327868852459,40,159.34426229508196,40C158.36065573770492,40,157.37704918032784,40,156.3934426229508,40C155.40983606557376,40,154.4262295081967,40,153.44262295081967,40C152.45901639344262,40,151.47540983606558,40,150.49180327868854,40C149.5081967213115,40,148.52459016393442,40,147.54098360655738,40C146.55737704918033,40,145.5737704918033,40,144.59016393442624,40C143.6065573770492,40,142.62295081967213,40,141.63934426229508,40C140.65573770491804,40,139.67213114754097,40,138.68852459016392,40C137.70491803278688,40,136.72131147540983,40,135.7377049180328,40C134.75409836065575,40,133.7704918032787,40,132.78688524590166,40C131.8032786885246,40,130.81967213114754,40,129.8360655737705,40C128.85245901639345,40,127.8688524590164,40,126.88524590163935,40C125.90163934426229,40,124.91803278688525,40,123.93442622950819,40C122.95081967213115,40,121.96721311475409,40,120.98360655737704,40C120,40,119.01639344262294,40,118.0327868852459,40C117.04918032786885,40,116.06557377049181,40,115.08196721311477,40C114.09836065573771,40,113.11475409836066,40,112.1311475409836,40C111.14754098360656,40,110.1639344262295,40,109.18032786885246,40C108.19672131147541,40,107.21311475409836,40,106.22950819672131,40C105.24590163934427,40,104.26229508196721,40,103.27868852459017,40C102.29508196721311,40,101.31147540983606,40,100.327868852459,40C99.34426229508196,40,98.36065573770492,40,97.37704918032787,40C96.39344262295083,40,95.40983606557377,40,94.42622950819673,40C93.44262295081968,40,92.45901639344262,40,91.47540983606558,40C90.49180327868852,40,89.50819672131148,40,88.52459016393442,40C87.54098360655738,40,86.55737704918032,40,85.57377049180327,40C84.59016393442623,40,83.60655737704917,40,82.62295081967213,40C81.63934426229508,40,80.65573770491802,40,79.67213114754098,40C78.68852459016394,40,77.70491803278688,40,76.72131147540983,40C75.73770491803279,40,74.75409836065573,40,73.77049180327869,40C72.78688524590164,40,71.80327868852459,40,70.81967213114754,40C69.8360655737705,40,68.85245901639344,40,67.8688524590164,40C66.88524590163935,40,65.90163934426229,40,64.91803278688525,40C63.9344262295082,40,62.950819672131146,40,61.967213114754095,40C60.983606557377044,40,60,40,59.01639344262295,40C58.0327868852459,40,57.049180327868854,40,56.0655737704918,40C55.08196721311475,40,54.09836065573771,40,53.114754098360656,40C52.131147540983605,40,51.147540983606554,40,50.1639344262295,40C49.18032786885246,40,48.19672131147541,40,47.21311475409836,40C46.22950819672131,40,45.24590163934426,40,44.26229508196721,40C43.27868852459016,40,42.295081967213115,40,41.31147540983606,40C40.32786885245901,40,39.34426229508197,40,38.36065573770492,40C37.377049180327866,40,36.39344262295082,40,35.40983606557377,40C34.42622950819672,40,33.442622950819676,40,32.459016393442624,40C31.475409836065573,40,30.491803278688526,40,29.508196721311474,40C28.524590163934427,40,27.540983606557376,40,26.557377049180328,40C24.59016393442623,40,22.62295081967213,40,20.65573770491803,40C19.672131147540984,40,18.688524590163933,40,17.704918032786885,40C16.721311475409834,40,15.737704918032787,40,14.754098360655737,40C13.770491803278688,40,12.78688524590164,40,11.80327868852459,40C10.819672131147541,40,9.836065573770492,40,8.852459016393443,40C7.868852459016393,40,6.885245901639345,40,5.901639344262295,40C3.9344262295081966,40,1.9672131147540985,40,0,40Z"></path><path class="line" stroke="black" fill="none" d="M0,27.519999999999996C1.9672131147540985,27.519999999999996,3.9344262295081966,27.519999999999996,5.901639344262295,27.519999999999996C6.885245901639345,27.519999999999996,7.868852459016393,27.519999999999996,8.852459016393443,27.519999999999996C9.836065573770492,27.519999999999996,10.819672131147541,27.519999999999996,11.80327868852459,27.519999999999996C12.78688524590164,27.519999999999996,13.770491803278688,27.519999999999996,14.754098360655737,27.519999999999996C15.737704918032787,27.519999999999996,16.721311475409834,27.480000000000004,17.704918032786885,27.480000000000004C18.688524590163933,27.480000000000004,19.672131147540984,27.480000000000004,20.65573770491803,27.480000000000004C22.62295081967213,27.480000000000004,24.59016393442623,27.480000000000004,26.557377049180328,27.480000000000004C27.540983606557376,27.480000000000004,28.524590163934427,27.480000000000004,29.508196721311474,27.480000000000004C30.491803278688526,27.480000000000004,31.475409836065573,27.439999999999998,32.459016393442624,27.439999999999998C33.442622950819676,27.439999999999998,34.42622950819672,27.439999999999998,35.40983606557377,27.439999999999998C36.39344262295082,27.439999999999998,37.377049180327866,27.400000000000002,38.36065573770492,27.400000000000002C39.34426229508197,27.400000000000002,40.32786885245901,27.400000000000002,41.31147540983606,27.400000000000002C42.295081967213115,27.400000000000002,43.27868852459016,27.346666666666668,44.26229508196721,27.32C45.24590163934426,27.293333333333333,46.22950819672131,27.26666666666667,47.21311475409836,27.240000000000002C48.19672131147541,27.213333333333335,49.18032786885246,27.18666666666667,50.1639344262295,27.160000000000004C51.147540983606554,27.133333333333336,52.131147540983605,27.10666666666667,53.114754098360656,27.080000000000002C54.09836065573771,27.053333333333335,55.08196721311475,27.026666666666667,56.0655737704918,27C57.049180327868854,26.973333333333333,58.0327868852459,26.953333333333337,59.01639344262295,26.92C60,26.886666666666667,60.983606557377044,26.82666666666666,61.967213114754095,26.799999999999997C62.950819672131146,26.773333333333333,63.9344262295082,26.773333333333333,64.91803278688525,26.76C65.90163934426229,26.74666666666667,66.88524590163935,26.74,67.8688524590164,26.72C68.85245901639344,26.7,69.8360655737705,26.666666666666664,70.81967213114754,26.639999999999997C71.80327868852459,26.61333333333333,72.78688524590164,26.586666666666662,73.77049180327869,26.559999999999995C74.75409836065573,26.533333333333328,75.73770491803279,26.499999999999996,76.72131147540983,26.479999999999997C77.70491803278688,26.459999999999997,78.68852459016394,26.46,79.67213114754098,26.44C80.65573770491802,26.42,81.63934426229508,26.386666666666667,82.62295081967213,26.36C83.60655737704917,26.333333333333332,84.59016393442623,26.313333333333333,85.57377049180327,26.28C86.55737704918032,26.24666666666667,87.54098360655738,26.19333333333333,88.52459016393442,26.16C89.50819672131148,26.126666666666665,90.49180327868852,26.113333333333337,91.47540983606558,26.080000000000002C92.45901639344262,26.04666666666667,93.44262295081968,26,94.42622950819673,25.96C95.40983606557377,25.92,96.39344262295083,25.88,97.37704918032787,25.84C98.36065573770492,25.8,99.34426229508196,25.759999999999998,100.327868852459,25.72C101.31147540983606,25.68,102.29508196721311,25.64666666666667,103.27868852459017,25.6C104.26229508196721,25.553333333333335,105.24590163934427,25.493333333333336,106.22950819672131,25.44C107.21311475409836,25.386666666666667,108.19672131147541,25.333333333333336,109.18032786885246,25.28C110.1639344262295,25.226666666666667,111.14754098360656,25.173333333333336,112.1311475409836,25.12C113.11475409836066,25.066666666666666,114.09836065573771,25.006666666666668,115.08196721311477,24.96C116.06557377049181,24.913333333333334,117.04918032786885,24.873333333333335,118.0327868852459,24.84C119.01639344262294,24.806666666666665,120,24.79333333333333,120.98360655737704,24.759999999999998C121.96721311475409,24.726666666666667,122.95081967213115,24.64,123.93442622950819,24.64C124.91803278688525,24.64,125.90163934426229,24.64,126.88524590163935,24.64C127.8688524590164,24.64,128.85245901639345,24.64,129.8360655737705,24.64C130.81967213114754,24.64,131.8032786885246,24.64,132.78688524590166,24.64C133.7704918032787,24.64,134.75409836065575,24.64,135.7377049180328,24.64C136.72131147540983,24.64,137.70491803278688,24.64,138.68852459016392,24.64C139.67213114754097,24.64,140.65573770491804,24.36,141.63934426229508,24.16C142.62295081967213,23.96,143.6065573770492,23.680000000000007,144.59016393442624,23.440000000000005C145.5737704918033,23.200000000000006,146.55737704918033,22.96,147.54098360655738,22.720000000000002C148.52459016393442,22.48,149.5081967213115,22.26666666666667,150.49180327868854,22C151.47540983606558,21.733333333333334,152.45901639344262,21.42,153.44262295081967,21.12C154.4262295081967,20.82,155.40983606557376,20.54,156.3934426229508,20.2C157.37704918032784,19.859999999999996,158.36065573770492,19.37333333333333,159.34426229508196,19.08C160.327868852459,18.786666666666665,161.31147540983608,18.74,162.29508196721312,18.439999999999998C163.27868852459017,18.139999999999997,164.2622950819672,17.666666666666664,165.24590163934425,17.28C166.2295081967213,16.893333333333334,167.21311475409837,16.50666666666667,168.19672131147541,16.12C169.18032786885246,15.733333333333336,170.1639344262295,15.346666666666666,171.14754098360655,14.96C172.1311475409836,14.573333333333332,173.11475409836066,14.260000000000002,174.0983606557377,13.799999999999999C175.08196721311475,13.34,176.0655737704918,12.700000000000001,177.04918032786884,12.200000000000003C178.03278688524588,11.700000000000001,179.01639344262296,11.25,180,10.8"></path><path class="axis-ceiling" stroke-width="1" stroke="black" fill="none" d="M175,0L180,0"></path><text class="axis-ceiling-label" font-family="sans-serif" text-anchor="end" font-size="10px" x="170" y="2.5">1000</text></g></svg>