<svg xmlns="http://www.w3.org/2000/svg" viewBox="0 0 180 60"><g transform="translate(0,20)"><path class="area" fill="rgba(0, 0, 0, 0.2)" d="M0,38.16C1.0169491525423728,38.26,2.0338983050847457,38.36,3.0508474576271185,38.36C4.067796610169491,38.36,5.084745762711864,38.199999999999996,6.101694915254237,38.199999999999996C7.11864406779661,38.199999999999996,8.135593220338983,38.36,9.152542372881356,38.36C10.169491525423728,38.36,11.186440677966102,38.32,12.203389830508474,38.32C13.220338983050846,38.32,14.23728813559322,38.36,15.254237288135592,38.36C16.271186440677965,38.36,17.28813559322034,38.36,18.305084745762713,38.36C19.322033898305087,38.36,20.338983050847457,37.519999999999996,21.35593220338983,37.519999999999996C22.372881355932204,37.519999999999996,23.389830508474574,37.519999999999996,24.406779661016948,37.519999999999996C25.423728813559322,37.519999999999996,26.440677966101696,37.56,27.45762711864407,37.56C28.47457627118644,37.56,29.491525423728813,37.38666666666666,30.508474576271183,37.36C31.525423728813557,37.333333333333336,32.54237288135593,37.32,33.559322033898304,37.32C34.57627118644068,37.32,35.59322033898305,37.333333333333336,36.610169491525426,37.36C37.6271186440678,37.38666666666666,38.644067796610166,37.4,39.66101694915254,37.480000000000004C40.67796610169491,37.56000000000001,41.69491525423729,38.199999999999996,42.71186440677966,38.199999999999996C43.728813559322035,38.199999999999996,44.7457627118644,38.166666666666664,45.762711864406775,38.12C46.77966101694915,38.07333333333333,47.79661016949152,37.973333333333336,48.813559322033896,37.92C49.83050847457627,37.86666666666667,50.847457627118644,37.82666666666666,51.86440677966102,37.8C52.88135593220339,37.77333333333333,53.898305084745765,37.78666666666666,54.91525423728814,37.76C55.93220338983051,37.733333333333334,56.94915254237288,37.45333333333333,57.96610169491525,37.28C58.983050847457626,37.10666666666667,59.99999999999999,36.906666666666666,61.01694915254237,36.72C62.03389830508474,36.53333333333333,63.05084745762712,36.38666666666667,64.0677966101695,36.160000000000004C65.08474576271186,35.93333333333334,66.10169491525424,35.413333333333334,67.11864406779661,35.36C68.13559322033899,35.306666666666665,69.15254237288136,35.32,70.16949152542374,35.28C71.1864406779661,35.24,72.20338983050848,35.17333333333333,73.22033898305085,35.12C74.23728813559322,35.06666666666666,75.2542372881356,34.96,76.27118644067797,34.96C77.28813559322033,34.96,78.30508474576271,35.08,79.32203389830508,35.08C80.33898305084746,35.08,81.35593220338983,33.72,82.37288135593221,33.72C83.38983050847457,33.72,84.40677966101696,33.77333333333333,85.42372881355932,33.879999999999995C86.4406779661017,33.98666666666666,87.45762711864407,34.21333333333333,88.47457627118645,34.4C89.49152542372882,34.586666666666666,90.50847457627118,35,91.52542372881355,35C92.54237288135593,35,93.55932203389831,34.693333333333335,94.57627118644069,34.44C95.59322033898306,34.18666666666667,96.61016949152543,33.79333333333333,97.62711864406779,33.48C98.64406779661016,33.166666666666664,99.66101694915254,32.56,100.6779661016949,32.56C101.69491525423729,32.56,102.71186440677965,32.91333333333334,103.72881355932203,33.040000000000006C104.7457627118644,33.16666666666667,105.76271186440678,33.32,106.77966101694915,33.32C107.79661016949153,33.32,108.8135593220339,30.633333333333344,109.83050847457628,28.680000000000003C110.84745762711864,26.726666666666674,111.86440677966102,22.26666666666667,112.88135593220339,21.6C113.89830508474576,20.933333333333334,114.91525423728814,20.860000000000003,115.9322033898305,20.6C116.94915254237289,20.34,117.96610169491525,20.09333333333333,118.98305084745763,20.04C120,19.986666666666668,121.01694915254237,20.013333333333332,122.03389830508473,19.96C123.05084745762711,19.906666666666666,124.0677966101695,19.813333333333333,125.08474576271188,19.52C126.10169491525424,19.226666666666667,127.11864406779662,17.88,128.135593220339,17.88C129.15254237288136,17.88,130.16949152542372,19.606666666666676,131.1864406779661,20.92C132.20338983050846,22.233333333333338,133.22033898305085,25.76,134.23728813559322,25.76C135.25423728813558,25.76,136.27118644067798,25.673333333333336,137.28813559322035,25.6C138.3050847457627,25.526666666666667,139.3220338983051,25.506666666666668,140.33898305084747,25.32C141.35593220338984,25.133333333333333,142.3728813559322,24.779999999999998,143.38983050847457,24.48C144.40677966101694,24.18,145.42372881355934,23.76,146.4406779661017,23.520000000000003C147.45762711864407,23.280000000000005,148.47457627118644,23.233333333333334,149.4915254237288,23.040000000000003C150.50847457627117,22.846666666666668,151.52542372881356,22.513333333333335,152.54237288135593,22.36C153.5593220338983,22.206666666666663,154.5762711864407,22.24,155.59322033898306,22.119999999999997C156.61016949152543,21.999999999999996,157.6271186440678,21.79333333333333,158.64406779661016,21.639999999999997C159.66101694915253,21.486666666666665,160.67796610169492,21.493333333333332,161.6949152542373,21.200000000000003C162.71186440677965,20.906666666666673,163.72881355932205,18.900000000000002,164.74576271186442,17.839999999999996C165.76271186440678,16.78,166.77966101694915,15.606666666666666,167.79661016949152,14.84C168.81355932203388,14.073333333333327,169.83050847457628,13.239999999999998,170.84745762711864,13.239999999999998C171.864406779661,13.239999999999998,172.8813559322034,13.239999999999998,173.89830508474577,13.239999999999998C174.91525423728814,13.239999999999998,175.93220338983053,12.426666666666673,176.9491525423729,11.760000000000002C177.96610169491527,11.093333333333337,178.98305084745763,10.166666666666668,180,9.239999999999998L180,40C178.98305084745763,40,177.96610169491527,40,176.9491525423729,40C175.93220338983053,40,174.91525423728814,40,173.89830508474577,40C172.8813559322034,40,171.864406779661,40,170.84745762711864,40C169.83050847457628,40,168.81355932203388,40,167.79661016949152,40C166.77966101694915,40,165.76271186440678,40,164.74576271186442,40C163.72881355932205,40,162.71186440677965,40,161.6949152542373,40C160.67796610169492,40,159.66101694915253,40,158.64406779661016,40C157.6271186440678,40,156.61016949152543,40,155.59322033898306,40C154.5762711864407,40,153.5593220338983,40,152.54237288135593,40C151.52542372881356,40,150.50847457627117,40,149.4915254237288,40C148.47457627118644,40,147.45762711864407,40,146.4406779661017,40C145.42372881355934,40,144.40677966101694,40,143.38983050847457,40C142.3728813559322,40,141.35593220338984,40,140.33898305084747,40C139.3220338983051,40,138.3050847457627,40,137.28813559322035,40C136.27118644067798,40,135.25423728813558,40,134.23728813559322,40C133.22033898305085,40,132.20338983050846,40,131.1864406779661,40C130.16949152542372,40,129.15254237288136,40,128.135593220339,40C127.11864406779662,40,126.10169491525424,40,125.08474576271188,40C124.0677966101695,40,123.05084745762711,40,122.03389830508473,40C121.01694915254237,40,120,40,118.98305084745763,40C117.96610169491525,40,116.94915254237289,40,115.9322033898305,40C114.91525423728814,40,113.89830508474576,40,112.88135593220339,40C111.86440677966102,40,110.84745762711864,40,109.83050847457628,40C108.8135593220339,40,107.79661016949153,40,106.77966101694915,40C105.76271186440678,40,104.7457627118644,40,103.72881355932203,40C102.71186440677965,40,101.69491525423729,40,100.6779661016949,40C99.66101694915254,40,98.64406779661016,40,97.62711864406779,40C96.61016949152543,40,95.59322033898306,40,94.57627118644069,40C93.55932203389831,40,92.54237288135593,40,91.52542372881355,40C90.50847457627118,40,89.49152542372882,40,88.47457627118645,40C87.45762711864407,40,86.4406779661017,40,85.42372881355932,40C84.40677966101696,40,83.38983050847457,40,82.37288135593221,40C81.35593220338983,40,80.33898305084746,40,79.32203389830508,40C78.30508474576271,40,77.28813559322033,40,76.27118644067797,40C75.2542372881356,40,74.23728813559322,40,73.22033898305085,40C72.20338983050848,40,71.1864406779661,40,70.16949152542374,40C69.15254237288136,40,68.13559322033899,40,67.11864406779661,40C66.10169491525424,40,65.08474576271186,40,64.0677966101695,40C63.05084745762712,40,62.03389830508474,40,61.01694915254237,40C59.99999999999999,40,58.983050847457626,40,57.96610169491525,40C56.94915254237288,40,55.93220338983051,40,54.91525423728814,40C53.898305084745765,40,52.88135593220339,40,51.86440677966102,40C50.847457627118644,40,49.83050847457627,40,48.813559322033896,40C47.79661016949152,40,46.77966101694915,40,45.762711864406775,40C44.7457627118644,40,43.728813559322035,40,42.71186440677966,40C41.69491525423729,40,40.67796610169491,40,39.66101694915254,40C38.644067796610166,40,37.6271186440678,40,36.610169491525426,40C35.59322033898305,40,34.57627118644068,40,33.559322033898304,40C32.54237288135593,40,31.525423728813557,40,30.508474576271183,40C29.491525423728813,40,28.47457627118644,40,27.45762711864407,40C26.440677966101696,40,25.423728813559322,40,24.406779661016948,40C23.389830508474574,40,22.372881355932204,40,21.35593220338983,40C20.338983050847457,40,19.322033898305087,40,18.305084745762713,40C17.28813559322034,40,16.271186440677965,40,15.254237288135592,40C14.23728813559322,40,13.220338983050846,40,12.203389830508474,40C11.186440677966102,40,10.169491525423728,40,9.152542372881356,40C8.135593220338983,40,7.11864406779661,40,6.101694915254237,40C5.084745762711864,40,4.067796610169491,40,3.0508474576271185,40C2.0338983050847457,40,1.0169491525423728,40,0,40Z"></path><path class="line" stroke="black" fill="none" d="M0,38.16C1.0169491525423728,38.26,2.0338983050847457,38.36,3.0508474576271185,38.36C4.067796610169491,38.36,5.084745762711864,38.199999999999996,6.101694915254237,38.199999999999996C7.11864406779661,38.199999999999996,8.135593220338983,38.36,9.152542372881356,38.36C10.169491525423728,38.36,11.186440677966102,38.32,12.203389830508474,38.32C13.220338983050846,38.32,14.23728813559322,38.36,15.254237288135592,38.36C16.271186440677965,38.36,17.28813559322034,38.36,18.305084745762713,38.36C19.322033898305087,38.36,20.338983050847457,37.519999999999996,21.35593220338983,37.519999999999996C22.372881355932204,37.519999999999996,23.389830508474574,37.519999999999996,24.406779661016948,37.519999999999996C25.423728813559322,37.519999999999996,26.440677966101696,37.56,27.45762711864407,37.56C28.47457627118644,37.56,29.491525423728813,37.38666666666666,30.508474576271183,37.36C31.525423728813557,37.333333333333336,32.54237288135593,37.32,33.559322033898304,37.32C34.57627118644068,37.32,35.59322033898305,37.333333333333336,36.610169491525426,37.36C37.6271186440678,37.38666666666666,38.644067796610166,37.4,39.66101694915254,37.480000000000004C40.67796610169491,37.56000000000001,41.69491525423729,38.199999999999996,42.71186440677966,38.199999999999996C43.728813559322035,38.199999999999996,44.7457627118644,38.166666666666664,45.762711864406775,38.12C46.77966101694915,38.07333333333333,47.79661016949152,37.973333333333336,48.813559322033896,37.92C49.83050847457627,37.86666666666667,50.847457627118644,37.82666666666666,51.86440677966102,37.8C52.88135593220339,37.77333333333333,53.898305084745765,37.78666666666666,54.91525423728814,37.76C55.93220338983051,37.733333333333334,56.94915254237288,37.45333333333333,57.96610169491525,37.28C58.983050847457626,37.10666666666667,59.99999999999999,36.906666666666666,61.01694915254237,36.72C62.03389830508474,36.53333333333333,63.05084745762712,36.38666666666667,64.0677966101695,36.160000000000004C65.08474576271186,35.93333333333334,66.10169491525424,35.413333333333334,67.11864406779661,35.36C68.13559322033899,35.306666666666665,69.15254237288136,35.32,70.16949152542374,35.28C71.1864406779661,35.24,72.20338983050848,35.17333333333333,73.22033898305085,35.12C74.23728813559322,35.06666666666666,75.2542372881356,34.96,76.27118644067797,34.96C77.28813559322033,34.96,78.30508474576271,35.08,79.32203389830508,35.08C80.33898305084746,35.08,81.35593220338983,33.72,82.37288135593221,33.72C83.38983050847457,33.72,84.40677966101696,33.77333333333333,85.42372881355932,33.879999999999995C86.4406779661017,33.98666666666666,87.45762711864407,34.21333333333333,88.47457627118645,34.4C89.49152542372882,34.586666666666666,90.50847457627118,35,91.52542372881355,35C92.54237288135593,35,93.55932203389831,34.693333333333335,94.57627118644069,34.44C95.59322033898306,34.18666666666667,96.61016949152543,33.79333333333333,97.62711864406779,33.48C98.64406779661016,33.166666666666664,99.66101694915254,32.56,100.6779661016949,32.56C101.69491525423729,32.56,102.71186440677965,32.91333333333334,103.72881355932203,33.040000000000006C104.7457627118644,33.16666666666667,105.76271186440678,33.32,106.77966101694915,33.32C107.79661016949153,33.32,108.8135593220339,30.633333333333344,109.83050847457628,28.680000000000003C110.84745762711864,26.726666666666674,111.86440677966102,22.26666666666667,112.88135593220339,21.6C113.89830508474576,20.933333333333334,114.91525423728814,20.860000000000003,115.9322033898305,20.6C116.94915254237289,20.34,117.96610169491525,20.09333333333333,118.98305084745763,20.04C120,19.986666666666668,121.01694915254237,20.013333333333332,122.03389830508473,19.96C123.05084745762711,19.906666666666666,124.0677966101695,19.813333333333333,125.08474576271188,19.52C126.10169491525424,19.226666666666667,127.11864406779662,17.88,128.135593220339,17.88C129.15254237288136,17.88,130.16949152542372,19.606666666666676,131.1864406779661,20.92C132.20338983050846,22.233333333333338,133.22033898305085,25.76,134.23728813559322,25.76C135.25423728813558,25.76,136.27118644067798,25.673333333333336,137.28813559322035,25.6C138.3050847457627,25.526666666666667,139.3220338983051,25.506666666666668,140.33898305084747,25.32C141.35593220338984,25.133333333333333,142.3728813559322,24.779999999999998,143.38983050847457,24.48C144.40677966101694,24.18,145.42372881355934,23.76,146.4406779661017,23.520000000000003C147.45762711864407,23.280000000000005,148.47457627118644,23.233333333333334,149.4915254237288,23.040000000000003C150.50847457627117,22.846666666666668,151.52542372881356,22.513333333333335,152.54237288135593,22.36C153.5593220338983,22.206666666666663,154.5762711864407,22.24,155.59322033898306,22.119999999999997C156.61016949152543,21.999999999999996,157.6271186440678,21.79333333333333,158.64406779661016,21.639999999999997C159.66101694915253,21.486666666666665,160.67796610169492,21.493333333333332,161.6949152542373,21.200000000000003C162.71186440677965,20.906666666666673,163.72881355932205,18.900000000000002,164.74576271186442,17.839999999999996C165.76271186440678,16.78,166.77966101694915,15.606666666666666,167.79661016949152,14.84C168.81355932203388,14.073333333333327,169.83050847457628,13.239999999999998,170.84745762711864,13.239999999999998C171.864406779661,13.239999999999998,172.8813559322034,13.239999999999998,173.89830508474577,13.239999999999998C174.91525423728814,13.239999999999998,175.93220338983053,12.426666666666673,176.9491525423729,11.760000000000002C177.96610169491527,11.093333333333337,178.98305084745763,10.166666666666668,180,9.239999999999998"></path><path class="axis-ceiling" stroke-width="1" stroke="black" fill="none" d="M175,0L180,0"></path><text class="axis-ceiling-label" font-family="sans-serif" text-anchor="end" font-size="10px" x="170" y="2.5">1000</text></g></svg>