<svg xmlns="http://www.w3.org/2000/svg" viewBox="0 0 180 60"><g transform="translate(0,20)"><path class="area" fill="rgba(0, 0, 0, 0.2)" d="M0,37.691542288557216C1.0169491525423728,37.88059701492537,2.0338983050847457,38.069651741293534,3.0508474576271185,38.069651741293534C4.067796610169491,38.069651741293534,5.084745762711864,37.95688225538972,6.101694915254237,37.73134328358209C7.11864406779661,37.50580431177446,8.135593220338983,32.43781094527363,9.152542372881356,32.43781094527363C10.169491525423728,32.43781094527363,11.186440677966102,36.94859038142621,12.203389830508474,37.333333333333336C13.220338983050846,37.718076285240464,14.23728813559322,37.5257048092869,15.254237288135592,37.91044776119403C16.271186440677965,38.29519071310116,17.28813559322034,40,18.305084745762713,40C19.322033898305087,40,20.338983050847457,36.32504145936982,21.35593220338983,35.701492537313435C22.372881355932204,35.07794361525705,23.389830508474574,34.97844112769486,24.406779661016948,34.766169154228855C25.423728813559322,34.55389718076285,26.440677966101696,34.524046434494196,27.45762711864407,34.42786069651741C28.47457627118644,34.33167495854063,29.491525423728813,34.18905472636816,30.508474576271183,34.18905472636816C31.525423728813557,34.18905472636816,32.54237288135593,38.22885572139303,33.559322033898304,38.22885572139303C34.57627118644068,38.22885572139303,35.59322033898305,25.661691542288555,36.610169491525426,21.850746268656714C37.6271186440678,18.039800995024883,38.644067796610166,15.36318407960199,39.66101694915254,15.36318407960199C40.67796610169491,15.36318407960199,41.69491525423729,31.814262023217253,42.71186440677966,32.19900497512438C43.728813559322035,32.58374792703151,44.7457627118644,32.45107794361526,45.762711864406775,32.776119402985074C46.77966101694915,33.10116086235489,47.79661016949152,34.14925373134328,48.813559322033896,34.14925373134328C49.83050847457627,34.14925373134328,50.847457627118644,32.882255389718075,51.86440677966102,32.69651741293532C52.88135593220339,32.51077943615257,53.898305084745765,32.417910447761194,54.91525423728814,32.417910447761194C55.93220338983051,32.417910447761194,56.94915254237288,32.517412935323385,57.96610169491525,32.517412935323385C58.983050847457626,32.517412935323385,59.99999999999999,32.27197346600332,61.01694915254237,32.13930348258707C62.03389830508474,32.00663349917082,63.05084745762712,31.721393034825873,64.0677966101695,31.721393034825873C65.08474576271186,31.721393034825873,66.10169491525424,31.721393034825873,67.11864406779661,31.721393034825873C68.13559322033899,31.721393034825873,69.15254237288136,31.582089552238806,70.16949152542374,31.303482587064675C71.1864406779661,31.024875621890544,72.20338983050848,29.373134328358212,73.22033898305085,29.373134328358212C74.23728813559322,29.373134328358212,75.2542372881356,30.666666666666664,76.27118644067797,30.666666666666664C77.28813559322033,30.666666666666664,78.30508474576271,30.129353233830845,79.32203389830508,30.129353233830845C80.33898305084746,30.129353233830845,81.35593220338983,31.323383084577117,82.37288135593221,31.323383084577117C83.38983050847457,31.323383084577117,84.40677966101696,30.14262023217247,85.42372881355932,30.129353233830845C86.4406779661017,30.11608623548922,87.45762711864407,30.12271973466003,88.47457627118645,30.109452736318406C89.49152542372882,30.096185737976782,90.50847457627118,20.298507462686555,91.52542372881355,19.70149253731343C92.54237288135593,19.104477611940297,93.55932203389831,18.80597014925373,94.57627118644069,18.80597014925373C95.59322033898306,18.80597014925373,96.61016949152543,23.33996683250415,97.62711864406779,25.213930348258707C98.64406779661016,27.087893864013274,99.66101694915254,30.049751243781095,100.6779661016949,30.049751243781095C101.69491525423729,30.049751243781095,102.71186440677965,27.585406301824214,103.72881355932203,26.149253731343283C104.7457627118644,24.713101160862355,105.76271186440678,22.60364842454394,106.77966101694915,21.43283582089552C107.79661016949153,20.26202321724709,108.8135593220339,19.12437810945274,109.83050847457628,19.12437810945274C110.84745762711864,19.12437810945274,111.86440677966102,19.383084577114428,112.88135593220339,19.383084577114428C113.89830508474576,19.383084577114428,114.91525423728814,16.666666666666664,115.9322033898305,15.422885572139302C116.94915254237289,14.179104477611936,117.96610169491525,11.920398009950247,118.98305084745763,11.920398009950247C120,11.920398009950247,121.01694915254237,13.771144278606965,122.03389830508473,13.771144278606965C123.05084745762711,13.771144278606965,124.0677966101695,7.940298507462686,125.08474576271188,7.940298507462686C126.10169491525424,7.940298507462686,127.11864406779662,14.109452736318406,128.135593220339,14.109452736318406C129.15254237288136,14.109452736318406,130.16949152542372,10.925373134328357,131.1864406779661,10.925373134328357C132.20338983050846,10.925373134328357,133.22033898305085,11.615257048092872,134.23728813559322,12.159203980099505C135.25423728813558,12.703150912106139,136.27118644067798,14.189054726368159,137.28813559322035,14.189054726368159C138.3050847457627,14.189054726368159,139.3220338983051,8.55721393034826,140.33898305084747,8.55721393034826C141.35593220338984,8.55721393034826,142.3728813559322,9.890547263681594,143.38983050847457,9.890547263681594C144.40677966101694,9.890547263681594,145.42372881355934,8.995024875621889,146.4406779661017,8.995024875621889C147.45762711864407,8.995024875621889,148.47457627118644,18.925373134328357,149.4915254237288,18.925373134328357C150.50847457627117,18.925373134328357,151.52542372881356,14.64676616915423,152.54237288135593,14.64676616915423C153.5593220338983,14.64676616915423,154.5762711864407,15.558872305140957,155.59322033898306,16.218905472636816C156.61016949152543,16.87893864013267,157.6271186440678,17.58540630182422,158.64406779661016,18.606965174129357C159.66101694915253,19.6285240464345,160.67796610169492,22.189054726368155,161.6949152542373,22.34825870646766C162.71186440677965,22.507462686567166,163.72881355932205,22.427860696517413,164.74576271186442,22.58706467661692C165.76271186440678,22.746268656716424,166.77966101694915,23.412935323383085,167.79661016949152,23.781094527363184C168.81355932203388,24.149253731343286,169.83050847457628,24.4742951907131,170.84745762711864,24.796019900497512C171.864406779661,25.117744610281925,172.8813559322034,25.10116086235489,173.89830508474577,25.711442786069654C174.91525423728814,26.321724709784416,175.93220338983053,29.16086235489221,176.9491525423729,30.149253731343286C177.96610169491527,31.137645107794356,178.98305084745763,31.389718076285238,180,31.64179104477612L180,40C178.98305084745763,40,177.96610169491527,40,176.9491525423729,40C175.93220338983053,40,174.91525423728814,40,173.89830508474577,40C172.8813559322034,40,171.864406779661,40,170.84745762711864,40C169.83050847457628,40,168.81355932203388,40,167.79661016949152,40C166.77966101694915,40,165.76271186440678,40,164.74576271186442,40C163.72881355932205,40,162.71186440677965,40,161.6949152542373,40C160.67796610169492,40,159.66101694915253,40,158.64406779661016,40C157.6271186440678,40,156.61016949152543,40,155.59322033898306,40C154.5762711864407,40,153.5593220338983,40,152.54237288135593,40C151.52542372881356,40,150.50847457627117,40,149.4915254237288,40C148.47457627118644,40,147.45762711864407,40,146.4406779661017,40C145.42372881355934,40,144.40677966101694,40,143.38983050847457,40C142.3728813559322,40,141.35593220338984,40,140.33898305084747,40C139.3220338983051,40,138.3050847457627,40,137.28813559322035,40C136.27118644067798,40,135.25423728813558,40,134.23728813559322,40C133.22033898305085,40,132.20338983050846,40,131.1864406779661,40C130.16949152542372,40,129.15254237288136,40,128.135593220339,40C127.11864406779662,40,126.10169491525424,40,125.08474576271188,40C124.0677966101695,40,123.05084745762711,40,122.03389830508473,40C121.01694915254237,40,120,40,118.98305084745763,40C117.96610169491525,40,116.94915254237289,40,115.9322033898305,40C114.91525423728814,40,113.89830508474576,40,112.88135593220339,40C111.86440677966102,40,110.84745762711864,40,109.83050847457628,40C108.8135593220339,40,107.79661016949153,40,106.77966101694915,40C105.76271186440678,40,104.7457627118644,40,103.72881355932203,40C102.71186440677965,40,101.69491525423729,40,100.6779661016949,40C99.66101694915254,40,98.64406779661016,40,97.62711864406779,40C96.61016949152543,40,95.59322033898306,40,94.57627118644069,40C93.55932203389831,40,92.54237288135593,40,91.52542372881355,40C90.50847457627118,40,89.49152542372882,40,88.47457627118645,40C87.45762711864407,40,86.4406779661017,40,85.42372881355932,40C84.40677966101696,40,83.38983050847457,40,82.37288135593221,40C81.35593220338983,40,80.33898305084746,40,79.32203389830508,40C78.30508474576271,40,77.28813559322033,40,76.27118644067797,40C75.2542372881356,40,74.23728813559322,40,73.22033898305085,40C72.20338983050848,40,71.1864406779661,40,70.16949152542374,40C69.15254237288136,40,68.13559322033899,40,67.11864406779661,40C66.10169491525424,40,65.08474576271186,40,64.0677966101695,40C63.05084745762712,40,62.03389830508474,40,61.01694915254237,40C59.99999999999999,40,58.983050847457626,40,57.96610169491525,40C56.94915254237288,40,55.93220338983051,40,54.91525423728814,40C53.898305084745765,40,52.88135593220339,40,51.86440677966102,40C50.847457627118644,40,49.83050847457627,40,48.813559322033896,40C47.79661016949152,40,46.77966101694915,40,45.762711864406775,40C44.7457627118644,40,43.728813559322035,40,42.71186440677966,40C41.69491525423729,40,40.67796610169491,40,39.66101694915254,40C38.644067796610166,40,37.6271186440678,40,36.610169491525426,40C35.59322033898305,40,34.57627118644068,40,33.559322033898304,40C32.54237288135593,40,31.525423728813557,40,30.508474576271183,40C29.491525423728813,40,28.47457627118644,40,27.45762711864407,40C26.440677966101696,40,25.423728813559322,40,24.406779661016948,40C23.389830508474574,40,22.372881355932204,40,21.35593220338983,40C20.338983050847457,40,19.322033898305087,40,18.305084745762713,40C17.28813559322034,40,16.271186440677965,40,15.254237288135592,40C14.23728813559322,40,13.220338983050846,40,12.203389830508474,40C11.186440677966102,40,10.169491525423728,40,9.152542372881356,40C8.135593220338983,40,7.11864406779661,40,6.101694915254237,40C5.084745762711864,40,4.067796610169491,40,3.0508474576271185,40C2.0338983050847457,40,1.0169491525423728,40,0,40Z"></path><path class="line" stroke="black" fill="none" d="M0,37.691542288557216C1.0169491525423728,37.88059701492537,2.0338983050847457,38.069651741293534,3.0508474576271185,38.069651741293534C4.067796610169491,38.069651741293534,5.084745762711864,37.95688225538972,6.101694915254237,37.73134328358209C7.11864406779661,37.50580431177446,8.135593220338983,32.43781094527363,9.152542372881356,32.43781094527363C10.169491525423728,32.43781094527363,11.186440677966102,36.94859038142621,12.203389830508474,37.333333333333336C13.220338983050846,37.718076285240464,14.23728813559322,37.5257048092869,15.254237288135592,37.91044776119403C16.271186440677965,38.29519071310116,17.28813559322034,40,18.305084745762713,40C19.322033898305087,40,20.338983050847457,36.32504145936982,21.35593220338983,35.701492537313435C22.372881355932204,35.07794361525705,23.389830508474574,34.97844112769486,24.406779661016948,34.766169154228855C25.423728813559322,34.55389718076285,26.440677966101696,34.524046434494196,27.45762711864407,34.42786069651741C28.47457627118644,34.33167495854063,29.491525423728813,34.18905472636816,30.508474576271183,34.18905472636816C31.525423728813557,34.18905472636816,32.54237288135593,38.22885572139303,33.559322033898304,38.22885572139303C34.57627118644068,38.22885572139303,35.59322033898305,25.661691542288555,36.610169491525426,21.850746268656714C37.6271186440678,18.039800995024883,38.644067796610166,15.36318407960199,39.66101694915254,15.36318407960199C40.67796610169491,15.36318407960199,41.69491525423729,31.814262023217253,42.71186440677966,32.19900497512438C43.728813559322035,32.58374792703151,44.7457627118644,32.45107794361526,45.762711864406775,32.776119402985074C46.77966101694915,33.10116086235489,47.79661016949152,34.14925373134328,48.813559322033896,34.14925373134328C49.83050847457627,34.14925373134328,50.847457627118644,32.882255389718075,51.86440677966102,32.69651741293532C52.88135593220339,32.51077943615257,53.898305084745765,32.417910447761194,54.91525423728814,32.417910447761194C55.93220338983051,32.417910447761194,56.94915254237288,32.517412935323385,57.96610169491525,32.517412935323385C58.983050847457626,32.517412935323385,59.99999999999999,32.27197346600332,61.01694915254237,32.13930348258707C62.03389830508474,32.00663349917082,63.05084745762712,31.721393034825873,64.0677966101695,31.721393034825873C65.08474576271186,31.721393034825873,66.10169491525424,31.721393034825873,67.11864406779661,31.721393034825873C68.13559322033899,31.721393034825873,69.15254237288136,31.582089552238806,70.16949152542374,31.303482587064675C71.1864406779661,31.024875621890544,72.20338983050848,29.373134328358212,73.22033898305085,29.373134328358212C74.23728813559322,29.373134328358212,75.2542372881356,30.666666666666664,76.27118644067797,30.666666666666664C77.28813559322033,30.666666666666664,78.30508474576271,30.129353233830845,79.32203389830508,30.129353233830845C80.33898305084746,30.129353233830845,81.35593220338983,31.323383084577117,82.37288135593221,31.323383084577117C83.38983050847457,31.323383084577117,84.40677966101696,30.14262023217247,85.42372881355932,30.129353233830845C86.4406779661017,30.11608623548922,87.45762711864407,30.12271973466003,88.47457627118645,30.109452736318406C89.49152542372882,30.096185737976782,90.50847457627118,20.298507462686555,91.52542372881355,19.70149253731343C92.54237288135593,19.104477611940297,93.55932203389831,18.80597014925373,94.57627118644069,18.80597014925373C95.59322033898306,18.80597014925373,96.61016949152543,23.33996683250415,97.62711864406779,25.213930348258707C98.64406779661016,27.087893864013274,99.66101694915254,30.049751243781095,100.6779661016949,30.049751243781095C101.69491525423729,30.049751243781095,102.71186440677965,27.585406301824214,103.72881355932203,26.149253731343283C104.7457627118644,24.713101160862355,105.76271186440678,22.60364842454394,106.77966101694915,21.43283582089552C107.79661016949153,20.26202321724709,108.8135593220339,19.12437810945274,109.83050847457628,19.12437810945274C110.84745762711864,19.12437810945274,111.86440677966102,19.383084577114428,112.88135593220339,19.383084577114428C113.89830508474576,19.383084577114428,114.91525423728814,16.666666666666664,115.9322033898305,15.422885572139302C116.94915254237289,14.179104477611936,117.96610169491525,11.920398009950247,118.98305084745763,11.920398009950247C120,11.920398009950247,121.01694915254237,13.771144278606965,122.03389830508473,13.771144278606965C123.05084745762711,13.771144278606965,124.0677966101695,7.940298507462686,125.08474576271188,7.940298507462686C126.10169491525424,7.940298507462686,127.11864406779662,14.109452736318406,128.135593220339,14.109452736318406C129.15254237288136,14.109452736318406,130.16949152542372,10.925373134328357,131.1864406779661,10.925373134328357C132.20338983050846,10.925373134328357,133.22033898305085,11.615257048092872,134.23728813559322,12.159203980099505C135.25423728813558,12.703150912106139,136.27118644067798,14.189054726368159,137.28813559322035,14.189054726368159C138.3050847457627,14.189054726368159,139.3220338983051,8.55721393034826,140.33898305084747,8.55721393034826C141.35593220338984,8.55721393034826,142.3728813559322,9.890547263681594,143.38983050847457,9.890547263681594C144.40677966101694,9.890547263681594,145.42372881355934,8.995024875621889,146.4406779661017,8.995024875621889C147.45762711864407,8.995024875621889,148.47457627118644,18.925373134328357,149.4915254237288,18.925373134328357C150.50847457627117,18.925373134328357,151.52542372881356,14.64676616915423,152.54237288135593,14.64676616915423C153.5593220338983,14.64676616915423,154.5762711864407,15.558872305140957,155.59322033898306,16.218905472636816C156.61016949152543,16.87893864013267,157.6271186440678,17.58540630182422,158.64406779661016,18.606965174129357C159.66101694915253,19.6285240464345,160.67796610169492,22.189054726368155,161.6949152542373,22.34825870646766C162.71186440677965,22.507462686567166,163.72881355932205,22.427860696517413,164.74576271186442,22.58706467661692C165.76271186440678,22.746268656716424,166.77966101694915,23.412935323383085,167.79661016949152,23.781094527363184C168.81355932203388,24.149253731343286,169.83050847457628,24.4742951907131,170.84745762711864,24.796019900497512C171.864406779661,25.117744610281925,172.8813559322034,25.10116086235489,173.89830508474577,25.711442786069654C174.91525423728814,26.321724709784416,175.93220338983053,29.16086235489221,176.9491525423729,30.149253731343286C177.96610169491527,31.137645107794356,178.98305084745763,31.389718076285238,180,31.64179104477612"></path><path class="axis-ceiling" stroke-width="1" stroke="black" fill="none" d="M175,0L180,0"></path><text class="axis-ceiling-label" font-family="sans-serif" text-anchor="end" font-size="10px" x="170" y="2.5">2000</text></g></svg>