<svg xmlns="http://www.w3.org/2000/svg" viewBox="0 0 180 60"><g transform="translate(0,20)"><path class="area" fill="rgba(0, 0, 0, 0.2)" d="M0,17.392C1.0169491525423728,17.168,2.0338983050847457,16.944,3.0508474576271185,16.944C4.067796610169491,16.944,5.084745762711864,16.981333333333332,6.101694915254237,17.056C7.11864406779661,17.13066666666667,8.135593220338983,17.450666666666667,9.152542372881356,17.616C10.169491525423728,17.781333333333333,11.186440677966102,17.898666666666667,12.203389830508474,18.048000000000002C13.220338983050846,18.197333333333336,14.23728813559322,18.352,15.254237288135592,18.512C16.271186440677965,18.672,17.28813559322034,18.677333333333333,18.305084745762713,19.008C19.322033898305087,19.338666666666665,20.338983050847457,20.082666666666665,21.35593220338983,20.592C22.372881355932204,21.101333333333333,23.389830508474574,21.536,24.406779661016948,22.064C25.423728813559322,22.592,26.440677966101696,23.365333333333332,27.45762711864407,23.759999999999998C28.47457627118644,24.154666666666664,29.491525423728813,24.109333333333336,30.508474576271183,24.432000000000002C31.525423728813557,24.75466666666667,32.54237288135593,25.21866666666667,33.559322033898304,25.696000000000005C34.57627118644068,26.17333333333334,35.59322033898305,26.778666666666666,36.610169491525426,27.296C37.6271186440678,27.813333333333333,38.644067796610166,28.447999999999997,39.66101694915254,28.799999999999997C40.67796610169491,29.151999999999997,41.69491525423729,29.237333333333332,42.71186440677966,29.408C43.728813559322035,29.578666666666667,44.7457627118644,29.688000000000002,45.762711864406775,29.824C46.77966101694915,29.96,47.79661016949152,29.957333333333334,48.813559322033896,30.224000000000004C49.83050847457627,30.490666666666673,50.847457627118644,31.573333333333334,51.86440677966102,31.776C52.88135593220339,31.978666666666665,53.898305084745765,32.010666666666665,54.91525423728814,32.08C55.93220338983051,32.14933333333333,56.94915254237288,32.192,57.96610169491525,32.192C58.983050847457626,32.192,59.99999999999999,31.584,61.01694915254237,31.584C62.03389830508474,31.584,63.05084745762712,32.224,64.0677966101695,32.224C65.08474576271186,32.224,66.10169491525424,32.224,67.11864406779661,32.224C68.13559322033899,32.224,69.15254237288136,32.448,70.16949152542374,32.448C71.1864406779661,32.448,72.20338983050848,31.039999999999996,73.22033898305085,30.72C74.23728813559322,30.400000000000002,75.2542372881356,30.240000000000002,76.27118644067797,30.240000000000002C77.28813559322033,30.240000000000002,78.30508474576271,30.560000000000002,79.32203389830508,30.8C80.33898305084746,31.04,81.35593220338983,31.68,82.37288135593221,31.68C83.38983050847457,31.68,84.40677966101696,30.976,85.42372881355932,30.976C86.4406779661017,30.976,87.45762711864407,31.397333333333336,88.47457627118645,31.536C89.49152542372882,31.674666666666667,90.50847457627118,31.706666666666667,91.52542372881355,31.808C92.54237288135593,31.909333333333333,93.55932203389831,31.919999999999998,94.57627118644069,32.144C95.59322033898306,32.367999999999995,96.61016949152543,33.472,97.62711864406779,33.472C98.64406779661016,33.472,99.66101694915254,32.768,100.6779661016949,32.768C101.69491525423729,32.768,102.71186440677965,33.28,103.72881355932203,33.28C104.7457627118644,33.28,105.76271186440678,33.104,106.77966101694915,32.896C107.79661016949153,32.688,108.8135593220339,32.23733333333333,109.83050847457628,32.032C110.84745762711864,31.826666666666664,111.86440677966102,31.90933333333333,112.88135593220339,31.663999999999998C113.89830508474576,31.418666666666667,114.91525423728814,28.346666666666657,115.9322033898305,27.503999999999998C116.94915254237289,26.661333333333335,117.96610169491525,26.453333333333337,118.98305084745763,26.240000000000002C120,26.026666666666667,121.01694915254237,26.08,122.03389830508473,25.92C123.05084745762711,25.76,124.0677966101695,25.418666666666667,125.08474576271188,25.28C126.10169491525424,25.141333333333336,127.11864406779662,25.21066666666667,128.135593220339,25.072000000000003C129.15254237288136,24.933333333333337,130.16949152542372,24.578666666666663,131.1864406779661,24.256C132.20338983050846,23.933333333333334,133.22033898305085,23.136000000000003,134.23728813559322,23.136000000000003C135.25423728813558,23.136000000000003,136.27118644067798,26.624,137.28813559322035,26.624C138.3050847457627,26.624,139.3220338983051,26.024,140.33898305084747,25.648C141.35593220338984,25.272000000000002,142.3728813559322,24.76533333333333,143.38983050847457,24.368C144.40677966101694,23.970666666666663,145.42372881355934,24,146.4406779661017,23.264C147.45762711864407,22.528000000000006,148.47457627118644,19.79466666666666,149.4915254237288,18.352C150.50847457627117,16.909333333333326,151.52542372881356,15.818666666666665,152.54237288135593,14.607999999999999C153.5593220338983,13.397333333333332,154.5762711864407,12.13066666666667,155.59322033898306,11.088000000000001C156.61016949152543,10.04533333333334,157.6271186440678,8.863999999999995,158.64406779661016,8.352C159.66101694915253,7.84,160.67796610169492,7.970666666666666,161.6949152542373,7.584C162.71186440677965,7.197333333333333,163.72881355932205,6.858666666666675,164.74576271186442,6.032000000000002C165.76271186440678,5.2053333333333365,166.77966101694915,2.6239999999999997,167.79661016949152,2.6239999999999997C168.81355932203388,2.6239999999999997,169.83050847457628,3.426666666666668,170.84745762711864,3.6960000000000015C171.864406779661,3.965333333333335,172.8813559322034,3.877333333333334,173.89830508474577,4.239999999999999C174.91525423728814,4.602666666666664,175.93220338983053,6.671999999999998,176.9491525423729,6.671999999999998C177.96610169491527,6.671999999999998,178.98305084745763,6.103999999999998,180,5.535999999999999L180,40C178.98305084745763,40,177.96610169491527,40,176.9491525423729,40C175.93220338983053,40,174.91525423728814,40,173.89830508474577,40C172.8813559322034,40,171.864406779661,40,170.84745762711864,40C169.83050847457628,40,168.81355932203388,40,167.79661016949152,40C166.77966101694915,40,165.76271186440678,40,164.74576271186442,40C163.72881355932205,40,162.71186440677965,40,161.6949152542373,40C160.67796610169492,40,159.66101694915253,40,158.64406779661016,40C157.6271186440678,40,156.61016949152543,40,155.59322033898306,40C154.5762711864407,40,153.5593220338983,40,152.54237288135593,40C151.52542372881356,40,150.50847457627117,40,149.4915254237288,40C148.47457627118644,40,147.45762711864407,40,146.4406779661017,40C145.42372881355934,40,144.40677966101694,40,143.38983050847457,40C142.3728813559322,40,141.35593220338984,40,140.33898305084747,40C139.3220338983051,40,138.3050847457627,40,137.28813559322035,40C136.27118644067798,40,135.25423728813558,40,134.23728813559322,40C133.22033898305085,40,132.20338983050846,40,131.1864406779661,40C130.16949152542372,40,129.15254237288136,40,128.135593220339,40C127.11864406779662,40,126.10169491525424,40,125.08474576271188,40C124.0677966101695,40,123.05084745762711,40,122.03389830508473,40C121.01694915254237,40,120,40,118.98305084745763,40C117.96610169491525,40,116.94915254237289,40,115.9322033898305,40C114.91525423728814,40,113.89830508474576,40,112.88135593220339,40C111.86440677966102,40,110.84745762711864,40,109.83050847457628,40C108.8135593220339,40,107.79661016949153,40,106.77966101694915,40C105.76271186440678,40,104.7457627118644,40,103.72881355932203,40C102.71186440677965,40,101.69491525423729,40,100.6779661016949,40C99.66101694915254,40,98.64406779661016,40,97.62711864406779,40C96.61016949152543,40,95.59322033898306,40,94.57627118644069,40C93.55932203389831,40,92.54237288135593,40,91.52542372881355,40C90.50847457627118,40,89.49152542372882,40,88.47457627118645,40C87.45762711864407,40,86.4406779661017,40,85.42372881355932,40C84.40677966101696,40,83.38983050847457,40,82.37288135593221,40C81.35593220338983,40,80.33898305084746,40,79.32203389830508,40C78.30508474576271,40,77.28813559322033,40,76.27118644067797,40C75.2542372881356,40,74.23728813559322,40,73.22033898305085,40C72.20338983050848,40,71.1864406779661,40,70.16949152542374,40C69.15254237288136,40,68.13559322033899,40,67.11864406779661,40C66.10169491525424,40,65.08474576271186,40,64.0677966101695,40C63.05084745762712,40,62.03389830508474,40,61.01694915254237,40C59.99999999999999,40,58.983050847457626,40,57.96610169491525,40C56.94915254237288,40,55.93220338983051,40,54.91525423728814,40C53.898305084745765,40,52.88135593220339,40,51.86440677966102,40C50.847457627118644,40,49.83050847457627,40,48.813559322033896,40C47.79661016949152,40,46.77966101694915,40,45.762711864406775,40C44.7457627118644,40,43.728813559322035,40,42.71186440677966,40C41.69491525423729,40,40.67796610169491,40,39.66101694915254,40C38.644067796610166,40,37.6271186440678,40,36.610169491525426,40C35.59322033898305,40,34.57627118644068,40,33.559322033898304,40C32.54237288135593,40,31.525423728813557,40,30.508474576271183,40C29.491525423728813,40,28.47457627118644,40,27.45762711864407,40C26.440677966101696,40,25.423728813559322,40,24.406779661016948,40C23.389830508474574,40,22.372881355932204,40,21.35593220338983,40C20.338983050847457,40,19.322033898305087,40,18.305084745762713,40C17.28813559322034,40,16.271186440677965,40,15.254237288135592,40C14.23728813559322,40,13.220338983050846,40,12.203389830508474,40C11.186440677966102,40,10.169491525423728,40,9.152542372881356,40C8.135593220338983,40,7.11864406779661,40,6.101694915254237,40C5.084745762711864,40,4.067796610169491,40,3.0508474576271185,40C2.0338983050847457,40,1.0169491525423728,40,0,40Z"></path><path class="line" stroke="black" fill="none" d="M0,17.392C1.0169491525423728,17.168,2.0338983050847457,16.944,3.0508474576271185,16.944C4.067796610169491,16.944,5.084745762711864,16.981333333333332,6.101694915254237,17.056C7.11864406779661,17.13066666666667,8.135593220338983,17.450666666666667,9.152542372881356,17.616C10.169491525423728,17.781333333333333,11.186440677966102,17.898666666666667,12.203389830508474,18.048000000000002C13.220338983050846,18.197333333333336,14.23728813559322,18.352,15.254237288135592,18.512C16.271186440677965,18.672,17.28813559322034,18.677333333333333,18.305084745762713,19.008C19.322033898305087,19.338666666666665,20.338983050847457,20.082666666666665,21.35593220338983,20.592C22.372881355932204,21.101333333333333,23.389830508474574,21.536,24.406779661016948,22.064C25.423728813559322,22.592,26.440677966101696,23.365333333333332,27.45762711864407,23.759999999999998C28.47457627118644,24.154666666666664,29.491525423728813,24.109333333333336,30.508474576271183,24.432000000000002C31.525423728813557,24.75466666666667,32.54237288135593,25.21866666666667,33.559322033898304,25.696000000000005C34.57627118644068,26.17333333333334,35.59322033898305,26.778666666666666,36.610169491525426,27.296C37.6271186440678,27.813333333333333,38.644067796610166,28.447999999999997,39.66101694915254,28.799999999999997C40.67796610169491,29.151999999999997,41.69491525423729,29.237333333333332,42.71186440677966,29.408C43.728813559322035,29.578666666666667,44.7457627118644,29.688000000000002,45.762711864406775,29.824C46.77966101694915,29.96,47.79661016949152,29.957333333333334,48.813559322033896,30.224000000000004C49.83050847457627,30.490666666666673,50.847457627118644,31.573333333333334,51.86440677966102,31.776C52.88135593220339,31.978666666666665,53.898305084745765,32.010666666666665,54.91525423728814,32.08C55.93220338983051,32.14933333333333,56.94915254237288,32.192,57.96610169491525,32.192C58.983050847457626,32.192,59.99999999999999,31.584,61.01694915254237,31.584C62.03389830508474,31.584,63.05084745762712,32.224,64.0677966101695,32.224C65.08474576271186,32.224,66.10169491525424,32.224,67.11864406779661,32.224C68.13559322033899,32.224,69.15254237288136,32.448,70.16949152542374,32.448C71.1864406779661,32.448,72.20338983050848,31.039999999999996,73.22033898305085,30.72C74.23728813559322,30.400000000000002,75.2542372881356,30.240000000000002,76.27118644067797,30.240000000000002C77.28813559322033,30.240000000000002,78.30508474576271,30.560000000000002,79.32203389830508,30.8C80.33898305084746,31.04,81.35593220338983,31.68,82.37288135593221,31.68C83.38983050847457,31.68,84.40677966101696,30.976,85.42372881355932,30.976C86.4406779661017,30.976,87.45762711864407,31.397333333333336,88.47457627118645,31.536C89.49152542372882,31.674666666666667,90.50847457627118,31.706666666666667,91.52542372881355,31.808C92.54237288135593,31.909333333333333,93.55932203389831,31.919999999999998,94.57627118644069,32.144C95.59322033898306,32.367999999999995,96.61016949152543,33.472,97.62711864406779,33.472C98.64406779661016,33.472,99.66101694915254,32.768,100.6779661016949,32.768C101.69491525423729,32.768,102.71186440677965,33.28,103.72881355932203,33.28C104.7457627118644,33.28,105.76271186440678,33.104,106.77966101694915,32.896C107.79661016949153,32.688,108.8135593220339,32.23733333333333,109.83050847457628,32.032C110.84745762711864,31.826666666666664,111.86440677966102,31.90933333333333,112.88135593220339,31.663999999999998C113.89830508474576,31.418666666666667,114.91525423728814,28.346666666666657,115.9322033898305,27.503999999999998C116.94915254237289,26.661333333333335,117.96610169491525,26.453333333333337,118.98305084745763,26.240000000000002C120,26.026666666666667,121.01694915254237,26.08,122.03389830508473,25.92C123.05084745762711,25.76,124.0677966101695,25.418666666666667,125.08474576271188,25.28C126.10169491525424,25.141333333333336,127.11864406779662,25.21066666666667,128.135593220339,25.072000000000003C129.15254237288136,24.933333333333337,130.16949152542372,24.578666666666663,131.1864406779661,24.256C132.20338983050846,23.933333333333334,133.22033898305085,23.136000000000003,134.23728813559322,23.136000000000003C135.25423728813558,23.136000000000003,136.27118644067798,26.624,137.28813559322035,26.624C138.3050847457627,26.624,139.3220338983051,26.024,140.33898305084747,25.648C141.35593220338984,25.272000000000002,142.3728813559322,24.76533333333333,143.38983050847457,24.368C144.40677966101694,23.970666666666663,145.42372881355934,24,146.4406779661017,23.264C147.45762711864407,22.528000000000006,148.47457627118644,19.79466666666666,149.4915254237288,18.352C150.50847457627117,16.909333333333326,151.52542372881356,15.818666666666665,152.54237288135593,14.607999999999999C153.5593220338983,13.397333333333332,154.5762711864407,12.13066666666667,155.59322033898306,11.088000000000001C156.61016949152543,10.04533333333334,157.6271186440678,8.863999999999995,158.64406779661016,8.352C159.66101694915253,7.84,160.67796610169492,7.970666666666666,161.6949152542373,7.584C162.71186440677965,7.197333333333333,163.72881355932205,6.858666666666675,164.74576271186442,6.032000000000002C165.76271186440678,5.2053333333333365,166.77966101694915,2.6239999999999997,167.79661016949152,2.6239999999999997C168.81355932203388,2.6239999999999997,169.83050847457628,3.426666666666668,170.84745762711864,3.6960000000000015C171.864406779661,3.965333333333335,172.8813559322034,3.877333333333334,173.89830508474577,4.239999999999999C174.91525423728814,4.602666666666664,175.93220338983053,6.671999999999998,176.9491525423729,6.671999999999998C177.96610169491527,6.671999999999998,178.98305084745763,6.103999999999998,180,5.535999999999999"></path><path class="axis-ceiling" stroke-width="1" stroke="black" fill="none" d="M175,0L180,0"></path><text class="axis-ceiling-label" font-family="sans-serif" text-anchor="end" font-size="10px" x="170" y="2.5">2500</text></g></svg>