<svg xmlns="http://www.w3.org/2000/svg" viewBox="0 0 180 60"><g transform="translate(0,20)"><path class="area" fill="rgba(0, 0, 0, 0.2)" d="M0,36.428799999999995C1.0169491525423728,36.3964,2.0338983050847457,36.364,3.0508474576271185,36.3288C4.067796610169491,36.293600000000005,5.084745762711864,36.25786666666667,6.101694915254237,36.217600000000004C7.11864406779661,36.17733333333334,8.135593220338983,36.13386666666666,9.152542372881356,36.087199999999996C10.169491525423728,36.04053333333333,11.186440677966102,35.985733333333336,12.203389830508474,35.9376C13.220338983050846,35.88946666666667,14.23728813559322,35.844,15.254237288135592,35.7984C16.271186440677965,35.7528,17.28813559322034,35.724133333333334,18.305084745762713,35.664C19.322033898305087,35.60386666666667,20.338983050847457,35.53666666666666,21.35593220338983,35.437599999999996C22.372881355932204,35.33853333333333,23.389830508474574,35.19573333333334,24.406779661016948,35.0696C25.423728813559322,34.943466666666666,26.440677966101696,34.812133333333335,27.45762711864407,34.6808C28.47457627118644,34.54946666666667,29.491525423728813,34.41493333333333,30.508474576271183,34.2816C31.525423728813557,34.148266666666665,32.54237288135593,34.016,33.559322033898304,33.8808C34.57627118644068,33.7456,35.59322033898305,33.61253333333333,36.610169491525426,33.4704C37.6271186440678,33.328266666666664,38.644067796610166,33.16546666666667,39.66101694915254,33.028C40.67796610169491,32.89053333333333,41.69491525423729,32.756933333333336,42.71186440677966,32.6456C43.728813559322035,32.53426666666667,44.7457627118644,32.4556,45.762711864406775,32.36C46.77966101694915,32.2644,47.79661016949152,32.169066666666666,48.813559322033896,32.072C49.83050847457627,31.974933333333336,50.847457627118644,31.8784,51.86440677966102,31.7776C52.88135593220339,31.6768,53.898305084745765,31.573866666666667,54.91525423728814,31.467200000000002C55.93220338983051,31.360533333333336,56.94915254237288,31.2492,57.96610169491525,31.1376C58.983050847457626,31.026,59.99999999999999,30.913200000000003,61.01694915254237,30.797600000000003C62.03389830508474,30.682000000000002,63.05084745762712,30.562533333333334,64.0677966101695,30.444C65.08474576271186,30.325466666666664,66.10169491525424,30.20733333333333,67.11864406779661,30.086399999999998C68.13559322033899,29.965466666666664,69.15254237288136,29.8424,70.16949152542374,29.718400000000003C71.1864406779661,29.594400000000004,72.20338983050848,29.47893333333333,73.22033898305085,29.342399999999998C74.23728813559322,29.205866666666665,75.2542372881356,29.057066666666667,76.27118644067797,28.8992C77.28813559322033,28.741333333333333,78.30508474576271,28.568400000000004,79.32203389830508,28.395200000000003C80.33898305084746,28.222,81.35593220338983,28.038533333333334,82.37288135593221,27.86C83.38983050847457,27.681466666666665,84.40677966101696,27.50746666666667,85.42372881355932,27.324C86.4406779661017,27.140533333333334,87.45762711864407,26.956,88.47457627118645,26.7592C89.49152542372882,26.5624,90.50847457627118,26.358933333333333,91.52542372881355,26.1432C92.54237288135593,25.927466666666664,93.55932203389831,25.6912,94.57627118644069,25.464799999999997C95.59322033898306,25.2384,96.61016949152543,25.01466666666667,97.62711864406779,24.784800000000004C98.64406779661016,24.554933333333338,99.66101694915254,24.331466666666664,100.6779661016949,24.0856C101.69491525423729,23.83973333333333,102.71186440677965,23.583866666666673,103.72881355932203,23.309600000000003C104.7457627118644,23.035333333333337,105.76271186440678,22.74733333333333,106.77966101694915,22.439999999999998C107.79661016949153,22.132666666666662,108.8135593220339,21.797333333333334,109.83050847457628,21.465600000000002C110.84745762711864,21.13386666666667,111.86440677966102,20.796133333333334,112.88135593220339,20.4496C113.89830508474576,20.103066666666667,114.91525423728814,19.74773333333333,115.9322033898305,19.3864C116.94915254237289,19.025066666666664,117.96610169491525,18.65106666666667,118.98305084745763,18.2816C120,17.912133333333337,121.01694915254237,17.54333333333333,122.03389830508473,17.1696C123.05084745762711,16.79586666666666,124.0677966101695,16.41986666666667,125.08474576271188,16.0392C126.10169491525424,15.658533333333336,127.11864406779662,15.269066666666667,128.135593220339,14.8856C129.15254237288136,14.502133333333333,130.16949152542372,14.116266666666665,131.1864406779661,13.738399999999999C132.20338983050846,13.36053333333333,133.22033898305085,12.98813333333333,134.23728813559322,12.618399999999998C135.25423728813558,12.248666666666665,136.27118644067798,11.882133333333334,137.28813559322035,11.520000000000001C138.3050847457627,11.157866666666669,139.3220338983051,10.799600000000003,140.33898305084747,10.445600000000002C141.35593220338984,10.091600000000003,142.3728813559322,9.732666666666667,143.38983050847457,9.396C144.40677966101694,9.059333333333333,145.42372881355934,8.736933333333338,146.4406779661017,8.425600000000003C147.45762711864407,8.114266666666671,148.47457627118644,7.813066666666667,149.4915254237288,7.528000000000001C150.50847457627117,7.242933333333333,151.52542372881356,6.980533333333335,152.54237288135593,6.715200000000001C153.5593220338983,6.449866666666668,154.5762711864407,6.185066666666668,155.59322033898306,5.935999999999999C156.61016949152543,5.686933333333333,157.6271186440678,5.445866666666665,158.64406779661016,5.220799999999999C159.66101694915253,4.995733333333331,160.67796610169492,4.784799999999999,161.6949152542373,4.585599999999999C162.71186440677965,4.386399999999998,163.72881355932205,4.207333333333332,164.74576271186442,4.025599999999998C165.76271186440678,3.843866666666666,166.77966101694915,3.6683999999999997,167.79661016949152,3.4952000000000005C168.81355932203388,3.3219999999999996,169.83050847457628,3.152799999999998,170.84745762711864,2.986399999999998C171.864406779661,2.819999999999998,172.8813559322034,2.6470666666666673,173.89830508474577,2.4968000000000012C174.91525423728814,2.346533333333335,175.93220338983053,2.2194666666666696,176.9491525423729,2.084800000000002C177.96610169491527,1.9501333333333362,178.98305084745763,1.8194666666666688,180,1.6888000000000014L180,40C178.98305084745763,40,177.96610169491527,40,176.9491525423729,40C175.93220338983053,40,174.91525423728814,40,173.89830508474577,40C172.8813559322034,40,171.864406779661,40,170.84745762711864,40C169.83050847457628,40,168.81355932203388,40,167.79661016949152,40C166.77966101694915,40,165.76271186440678,40,164.74576271186442,40C163.72881355932205,40,162.71186440677965,40,161.6949152542373,40C160.67796610169492,40,159.66101694915253,40,158.64406779661016,40C157.6271186440678,40,156.61016949152543,40,155.59322033898306,40C154.5762711864407,40,153.5593220338983,40,152.54237288135593,40C151.52542372881356,40,150.50847457627117,40,149.4915254237288,40C148.47457627118644,40,147.45762711864407,40,146.4406779661017,40C145.42372881355934,40,144.40677966101694,40,143.38983050847457,40C142.3728813559322,40,141.35593220338984,40,140.33898305084747,40C139.3220338983051,40,138.3050847457627,40,137.28813559322035,40C136.27118644067798,40,135.25423728813558,40,134.23728813559322,40C133.22033898305085,40,132.20338983050846,40,131.1864406779661,40C130.16949152542372,40,129.15254237288136,40,128.135593220339,40C127.11864406779662,40,126.10169491525424,40,125.08474576271188,40C124.0677966101695,40,123.05084745762711,40,122.03389830508473,40C121.01694915254237,40,120,40,118.98305084745763,40C117.96610169491525,40,116.94915254237289,40,115.9322033898305,40C114.91525423728814,40,113.89830508474576,40,112.88135593220339,40C111.86440677966102,40,110.84745762711864,40,109.83050847457628,40C108.8135593220339,40,107.79661016949153,40,106.77966101694915,40C105.76271186440678,40,104.7457627118644,40,103.72881355932203,40C102.71186440677965,40,101.69491525423729,40,100.6779661016949,40C99.66101694915254,40,98.64406779661016,40,97.62711864406779,40C96.61016949152543,40,95.59322033898306,40,94.57627118644069,40C93.55932203389831,40,92.54237288135593,40,91.52542372881355,40C90.50847457627118,40,89.49152542372882,40,88.47457627118645,40C87.45762711864407,40,86.4406779661017,40,85.42372881355932,40C84.40677966101696,40,83.38983050847457,40,82.37288135593221,40C81.35593220338983,40,80.33898305084746,40,79.32203389830508,40C78.30508474576271,40,77.28813559322033,40,76.27118644067797,40C75.2542372881356,40,74.23728813559322,40,73.22033898305085,40C72.20338983050848,40,71.1864406779661,40,70.16949152542374,40C69.15254237288136,40,68.13559322033899,40,67.11864406779661,40C66.10169491525424,40,65.08474576271186,40,64.0677966101695,40C63.05084745762712,40,62.03389830508474,40,61.01694915254237,40C59.99999999999999,40,58.983050847457626,40,57.96610169491525,40C56.94915254237288,40,55.93220338983051,40,54.91525423728814,40C53.898305084745765,40,52.88135593220339,40,51.86440677966102,40C50.847457627118644,40,49.83050847457627,40,48.813559322033896,40C47.79661016949152,40,46.77966101694915,40,45.762711864406775,40C44.7457627118644,40,43.728813559322035,40,42.71186440677966,40C41.69491525423729,40,40.67796610169491,40,39.66101694915254,40C38.644067796610166,40,37.6271186440678,40,36.610169491525426,40C35.59322033898305,40,34.57627118644068,40,33.559322033898304,40C32.54237288135593,40,31.525423728813557,40,30.508474576271183,40C29.491525423728813,40,28.47457627118644,40,27.45762711864407,40C26.440677966101696,40,25.423728813559322,40,24.406779661016948,40C23.389830508474574,40,22.372881355932204,40,21.35593220338983,40C20.338983050847457,40,19.322033898305087,40,18.305084745762713,40C17.28813559322034,40,16.271186440677965,40,15.254237288135592,40C14.23728813559322,40,13.220338983050846,40,12.203389830508474,40C11.186440677966102,40,10.169491525423728,40,9.152542372881356,40C8.135593220338983,40,7.11864406779661,40,6.101694915254237,40C5.084745762711864,40,4.067796610169491,40,3.0508474576271185,40C2.0338983050847457,40,1.0169491525423728,40,0,40Z"></path><path class="line" stroke="black" fill="none" d="M0,36.428799999999995C1.0169491525423728,36.3964,2.0338983050847457,36.364,3.0508474576271185,36.3288C4.067796610169491,36.293600000000005,5.084745762711864,36.25786666666667,6.101694915254237,36.217600000000004C7.11864406779661,36.17733333333334,8.135593220338983,36.13386666666666,9.152542372881356,36.087199999999996C10.169491525423728,36.04053333333333,11.186440677966102,35.985733333333336,12.203389830508474,35.9376C13.220338983050846,35.88946666666667,14.23728813559322,35.844,15.254237288135592,35.7984C16.271186440677965,35.7528,17.28813559322034,35.724133333333334,18.305084745762713,35.664C19.322033898305087,35.60386666666667,20.338983050847457,35.53666666666666,21.35593220338983,35.437599999999996C22.372881355932204,35.33853333333333,23.389830508474574,35.19573333333334,24.406779661016948,35.0696C25.423728813559322,34.943466666666666,26.440677966101696,34.812133333333335,27.45762711864407,34.6808C28.47457627118644,34.54946666666667,29.491525423728813,34.41493333333333,30.508474576271183,34.2816C31.525423728813557,34.148266666666665,32.54237288135593,34.016,33.559322033898304,33.8808C34.57627118644068,33.7456,35.59322033898305,33.61253333333333,36.610169491525426,33.4704C37.6271186440678,33.328266666666664,38.644067796610166,33.16546666666667,39.66101694915254,33.028C40.67796610169491,32.89053333333333,41.69491525423729,32.756933333333336,42.71186440677966,32.6456C43.728813559322035,32.53426666666667,44.7457627118644,32.4556,45.762711864406775,32.36C46.77966101694915,32.2644,47.79661016949152,32.169066666666666,48.813559322033896,32.072C49.83050847457627,31.974933333333336,50.847457627118644,31.8784,51.86440677966102,31.7776C52.88135593220339,31.6768,53.898305084745765,31.573866666666667,54.91525423728814,31.467200000000002C55.93220338983051,31.360533333333336,56.94915254237288,31.2492,57.96610169491525,31.1376C58.983050847457626,31.026,59.99999999999999,30.913200000000003,61.01694915254237,30.797600000000003C62.03389830508474,30.682000000000002,63.05084745762712,30.562533333333334,64.0677966101695,30.444C65.08474576271186,30.325466666666664,66.10169491525424,30.20733333333333,67.11864406779661,30.086399999999998C68.13559322033899,29.965466666666664,69.15254237288136,29.8424,70.16949152542374,29.718400000000003C71.1864406779661,29.594400000000004,72.20338983050848,29.47893333333333,73.22033898305085,29.342399999999998C74.23728813559322,29.205866666666665,75.2542372881356,29.057066666666667,76.27118644067797,28.8992C77.28813559322033,28.741333333333333,78.30508474576271,28.568400000000004,79.32203389830508,28.395200000000003C80.33898305084746,28.222,81.35593220338983,28.038533333333334,82.37288135593221,27.86C83.38983050847457,27.681466666666665,84.40677966101696,27.50746666666667,85.42372881355932,27.324C86.4406779661017,27.140533333333334,87.45762711864407,26.956,88.47457627118645,26.7592C89.49152542372882,26.5624,90.50847457627118,26.358933333333333,91.52542372881355,26.1432C92.54237288135593,25.927466666666664,93.55932203389831,25.6912,94.57627118644069,25.464799999999997C95.59322033898306,25.2384,96.61016949152543,25.01466666666667,97.62711864406779,24.784800000000004C98.64406779661016,24.554933333333338,99.66101694915254,24.331466666666664,100.6779661016949,24.0856C101.69491525423729,23.83973333333333,102.71186440677965,23.583866666666673,103.72881355932203,23.309600000000003C104.7457627118644,23.035333333333337,105.76271186440678,22.74733333333333,106.77966101694915,22.439999999999998C107.79661016949153,22.132666666666662,108.8135593220339,21.797333333333334,109.83050847457628,21.465600000000002C110.84745762711864,21.13386666666667,111.86440677966102,20.796133333333334,112.88135593220339,20.4496C113.89830508474576,20.103066666666667,114.91525423728814,19.74773333333333,115.9322033898305,19.3864C116.94915254237289,19.025066666666664,117.96610169491525,18.65106666666667,118.98305084745763,18.2816C120,17.912133333333337,121.01694915254237,17.54333333333333,122.03389830508473,17.1696C123.05084745762711,16.79586666666666,124.0677966101695,16.41986666666667,125.08474576271188,16.0392C126.10169491525424,15.658533333333336,127.11864406779662,15.269066666666667,128.135593220339,14.8856C129.15254237288136,14.502133333333333,130.16949152542372,14.116266666666665,131.1864406779661,13.738399999999999C132.20338983050846,13.36053333333333,133.22033898305085,12.98813333333333,134.23728813559322,12.618399999999998C135.25423728813558,12.248666666666665,136.27118644067798,11.882133333333334,137.28813559322035,11.520000000000001C138.3050847457627,11.157866666666669,139.3220338983051,10.799600000000003,140.33898305084747,10.445600000000002C141.35593220338984,10.091600000000003,142.3728813559322,9.732666666666667,143.38983050847457,9.396C144.40677966101694,9.059333333333333,145.42372881355934,8.736933333333338,146.4406779661017,8.425600000000003C147.45762711864407,8.114266666666671,148.47457627118644,7.813066666666667,149.4915254237288,7.528000000000001C150.50847457627117,7.242933333333333,151.52542372881356,6.980533333333335,152.54237288135593,6.715200000000001C153.5593220338983,6.449866666666668,154.5762711864407,6.185066666666668,155.59322033898306,5.935999999999999C156.61016949152543,5.686933333333333,157.6271186440678,5.445866666666665,158.64406779661016,5.220799999999999C159.66101694915253,4.995733333333331,160.67796610169492,4.784799999999999,161.6949152542373,4.585599999999999C162.71186440677965,4.386399999999998,163.72881355932205,4.207333333333332,164.74576271186442,4.025599999999998C165.76271186440678,3.843866666666666,166.77966101694915,3.6683999999999997,167.79661016949152,3.4952000000000005C168.81355932203388,3.3219999999999996,169.83050847457628,3.152799999999998,170.84745762711864,2.986399999999998C171.864406779661,2.819999999999998,172.8813559322034,2.6470666666666673,173.89830508474577,2.4968000000000012C174.91525423728814,2.346533333333335,175.93220338983053,2.2194666666666696,176.9491525423729,2.084800000000002C177.96610169491527,1.9501333333333362,178.98305084745763,1.8194666666666688,180,1.6888000000000014"></path><path class="axis-ceiling" stroke-width="1" stroke="black" fill="none" d="M175,0L180,0"></path><text class="axis-ceiling-label" font-family="sans-serif" text-anchor="end" font-size="10px" x="170" y="2.5">50000</text></g></svg>