<svg xmlns="http://www.w3.org/2000/svg" viewBox="0 0 180 60"><g transform="translate(0,20)"><path class="area" fill="rgba(0, 0, 0, 0.2)" d="M0,20.528C1.0169491525423728,20.253333333333334,2.0338983050847457,19.978666666666665,3.0508474576271185,19.68C4.067796610169491,19.381333333333334,5.084745762711864,19.029333333333334,6.101694915254237,18.736C7.11864406779661,18.442666666666668,8.135593220338983,18.016,9.152542372881356,17.919999999999998C10.169491525423728,17.823999999999998,11.186440677966102,17.864,12.203389830508474,17.776C13.220338983050846,17.688,14.23728813559322,17.530666666666665,15.254237288135592,17.392C16.271186440677965,17.253333333333334,17.28813559322034,16.944,18.305084745762713,16.944C19.322033898305087,16.944,20.338983050847457,16.981333333333332,21.35593220338983,17.056C22.372881355932204,17.13066666666667,23.389830508474574,17.450666666666667,24.406779661016948,17.616C25.423728813559322,17.781333333333333,26.440677966101696,17.898666666666667,27.45762711864407,18.048000000000002C28.47457627118644,18.197333333333336,29.491525423728813,18.352,30.508474576271183,18.512C31.525423728813557,18.672,32.54237288135593,18.677333333333333,33.559322033898304,19.008C34.57627118644068,19.338666666666665,35.59322033898305,20.082666666666665,36.610169491525426,20.592C37.6271186440678,21.101333333333333,38.644067796610166,21.536,39.66101694915254,22.064C40.67796610169491,22.592,41.69491525423729,23.365333333333332,42.71186440677966,23.759999999999998C43.728813559322035,24.154666666666664,44.7457627118644,24.109333333333336,45.762711864406775,24.432000000000002C46.77966101694915,24.75466666666667,47.79661016949152,25.21866666666667,48.813559322033896,25.696000000000005C49.83050847457627,26.17333333333334,50.847457627118644,26.778666666666666,51.86440677966102,27.296C52.88135593220339,27.813333333333333,53.898305084745765,28.447999999999997,54.91525423728814,28.799999999999997C55.93220338983051,29.151999999999997,56.94915254237288,29.237333333333332,57.96610169491525,29.408C58.983050847457626,29.57866666666667,59.99999999999999,29.688000000000002,61.01694915254237,29.824C62.03389830508474,29.96,63.05084745762712,29.957333333333334,64.0677966101695,30.224000000000004C65.08474576271186,30.49066666666667,66.10169491525424,31.573333333333334,67.11864406779661,31.776C68.13559322033899,31.978666666666665,69.15254237288136,32.010666666666665,70.16949152542374,32.08C71.1864406779661,32.14933333333333,72.20338983050848,32.192,73.22033898305085,32.192C74.23728813559322,32.192,75.2542372881356,31.584,76.27118644067797,31.584C77.28813559322033,31.584,78.30508474576271,32.224,79.32203389830508,32.224C80.33898305084746,32.224,81.35593220338983,32.224,82.37288135593221,32.224C83.38983050847457,32.224,84.40677966101696,32.448,85.42372881355932,32.448C86.4406779661017,32.448,87.45762711864407,31.04,88.47457627118645,30.72C89.49152542372882,30.400000000000002,90.50847457627118,30.240000000000002,91.52542372881355,30.240000000000002C92.54237288135593,30.240000000000002,93.55932203389831,30.56,94.57627118644069,30.8C95.59322033898306,31.04,96.61016949152543,31.68,97.62711864406779,31.68C98.64406779661016,31.68,99.66101694915254,30.976,100.6779661016949,30.976C101.69491525423729,30.976,102.71186440677965,31.397333333333336,103.72881355932203,31.536C104.7457627118644,31.674666666666667,105.76271186440678,31.706666666666667,106.77966101694915,31.808C107.79661016949153,31.909333333333333,108.8135593220339,31.919999999999998,109.83050847457628,32.144C110.84745762711864,32.367999999999995,111.86440677966102,33.472,112.88135593220339,33.472C113.89830508474576,33.472,114.91525423728814,32.768,115.9322033898305,32.768C116.94915254237289,32.768,117.96610169491525,33.28,118.98305084745763,33.28C120,33.28,121.01694915254237,33.104,122.03389830508473,32.896C123.05084745762711,32.688,124.0677966101695,32.23733333333333,125.08474576271188,32.032C126.10169491525424,31.826666666666664,127.11864406779662,31.90933333333333,128.135593220339,31.663999999999998C129.15254237288136,31.418666666666667,130.16949152542372,28.346666666666653,131.1864406779661,27.503999999999998C132.20338983050846,26.661333333333335,133.22033898305085,26.453333333333337,134.23728813559322,26.240000000000002C135.25423728813558,26.026666666666667,136.27118644067798,26.080000000000002,137.28813559322035,25.92C138.3050847457627,25.76,139.3220338983051,25.418666666666667,140.33898305084747,25.28C141.35593220338984,25.141333333333336,142.3728813559322,25.21066666666667,143.38983050847457,25.072000000000003C144.40677966101694,24.933333333333337,145.42372881355934,24.57866666666667,146.4406779661017,24.256C147.45762711864407,23.933333333333334,148.47457627118644,23.136000000000003,149.4915254237288,23.136000000000003C150.50847457627117,23.136000000000003,151.52542372881356,26.624,152.54237288135593,26.624C153.5593220338983,26.624,154.5762711864407,26.024,155.59322033898306,25.648C156.61016949152543,25.272000000000002,157.6271186440678,24.76533333333333,158.64406779661016,24.368C159.66101694915253,23.970666666666663,160.67796610169492,24,161.6949152542373,23.264C162.71186440677965,22.528,163.72881355932205,19.79466666666667,164.74576271186442,18.352C165.76271186440678,16.909333333333343,166.77966101694915,15.81866666666666,167.79661016949152,14.607999999999999C168.81355932203388,13.397333333333327,169.83050847457628,12.130666666666666,170.84745762711864,11.088000000000001C171.864406779661,10.045333333333335,172.8813559322034,8.864,173.89830508474577,8.352C174.91525423728814,7.84,175.93220338983053,7.970666666666669,176.9491525423729,7.584C177.96610169491527,7.197333333333334,178.98305084745763,6.614666666666668,180,6.032000000000002L180,40C178.98305084745763,40,177.96610169491527,40,176.9491525423729,40C175.93220338983053,40,174.91525423728814,40,173.89830508474577,40C172.8813559322034,40,171.864406779661,40,170.84745762711864,40C169.83050847457628,40,168.81355932203388,40,167.79661016949152,40C166.77966101694915,40,165.76271186440678,40,164.74576271186442,40C163.72881355932205,40,162.71186440677965,40,161.6949152542373,40C160.67796610169492,40,159.66101694915253,40,158.64406779661016,40C157.6271186440678,40,156.61016949152543,40,155.59322033898306,40C154.5762711864407,40,153.5593220338983,40,152.54237288135593,40C151.52542372881356,40,150.50847457627117,40,149.4915254237288,40C148.47457627118644,40,147.45762711864407,40,146.4406779661017,40C145.42372881355934,40,144.40677966101694,40,143.38983050847457,40C142.3728813559322,40,141.35593220338984,40,140.33898305084747,40C139.3220338983051,40,138.3050847457627,40,137.28813559322035,40C136.27118644067798,40,135.25423728813558,40,134.23728813559322,40C133.22033898305085,40,132.20338983050846,40,131.1864406779661,40C130.16949152542372,40,129.15254237288136,40,128.135593220339,40C127.11864406779662,40,126.10169491525424,40,125.08474576271188,40C124.0677966101695,40,123.05084745762711,40,122.03389830508473,40C121.01694915254237,40,120,40,118.98305084745763,40C117.96610169491525,40,116.94915254237289,40,115.9322033898305,40C114.91525423728814,40,113.89830508474576,40,112.88135593220339,40C111.86440677966102,40,110.84745762711864,40,109.83050847457628,40C108.8135593220339,40,107.79661016949153,40,106.77966101694915,40C105.76271186440678,40,104.7457627118644,40,103.72881355932203,40C102.71186440677965,40,101.69491525423729,40,100.6779661016949,40C99.66101694915254,40,98.64406779661016,40,97.62711864406779,40C96.61016949152543,40,95.59322033898306,40,94.57627118644069,40C93.55932203389831,40,92.54237288135593,40,91.52542372881355,40C90.50847457627118,40,89.49152542372882,40,88.47457627118645,40C87.45762711864407,40,86.4406779661017,40,85.42372881355932,40C84.40677966101696,40,83.38983050847457,40,82.37288135593221,40C81.35593220338983,40,80.33898305084746,40,79.32203389830508,40C78.30508474576271,40,77.28813559322033,40,76.27118644067797,40C75.2542372881356,40,74.23728813559322,40,73.22033898305085,40C72.20338983050848,40,71.1864406779661,40,70.16949152542374,40C69.15254237288136,40,68.13559322033899,40,67.11864406779661,40C66.10169491525424,40,65.08474576271186,40,64.0677966101695,40C63.05084745762712,40,62.03389830508474,40,61.01694915254237,40C59.99999999999999,40,58.983050847457626,40,57.96610169491525,40C56.94915254237288,40,55.93220338983051,40,54.91525423728814,40C53.898305084745765,40,52.88135593220339,40,51.86440677966102,40C50.847457627118644,40,49.83050847457627,40,48.813559322033896,40C47.79661016949152,40,46.77966101694915,40,45.762711864406775,40C44.7457627118644,40,43.728813559322035,40,42.71186440677966,40C41.69491525423729,40,40.67796610169491,40,39.66101694915254,40C38.644067796610166,40,37.6271186440678,40,36.610169491525426,40C35.59322033898305,40,34.57627118644068,40,33.559322033898304,40C32.54237288135593,40,31.525423728813557,40,30.508474576271183,40C29.491525423728813,40,28.47457627118644,40,27.45762711864407,40C26.440677966101696,40,25.423728813559322,40,24.406779661016948,40C23.389830508474574,40,22.372881355932204,40,21.35593220338983,40C20.338983050847457,40,19.322033898305087,40,18.305084745762713,40C17.28813559322034,40,16.271186440677965,40,15.254237288135592,40C14.23728813559322,40,13.220338983050846,40,12.203389830508474,40C11.186440677966102,40,10.169491525423728,40,9.152542372881356,40C8.135593220338983,40,7.11864406779661,40,6.101694915254237,40C5.084745762711864,40,4.067796610169491,40,3.0508474576271185,40C2.0338983050847457,40,1.0169491525423728,40,0,40Z"></path><path class="line" stroke="black" fill="none" d="M0,20.528C1.0169491525423728,20.253333333333334,2.0338983050847457,19.978666666666665,3.0508474576271185,19.68C4.067796610169491,19.381333333333334,5.084745762711864,19.029333333333334,6.101694915254237,18.736C7.11864406779661,18.442666666666668,8.135593220338983,18.016,9.152542372881356,17.919999999999998C10.169491525423728,17.823999999999998,11.186440677966102,17.864,12.203389830508474,17.776C13.220338983050846,17.688,14.23728813559322,17.530666666666665,15.254237288135592,17.392C16.271186440677965,17.253333333333334,17.28813559322034,16.944,18.305084745762713,16.944C19.322033898305087,16.944,20.338983050847457,16.981333333333332,21.35593220338983,17.056C22.372881355932204,17.13066666666667,23.389830508474574,17.450666666666667,24.406779661016948,17.616C25.423728813559322,17.781333333333333,26.440677966101696,17.898666666666667,27.45762711864407,18.048000000000002C28.47457627118644,18.197333333333336,29.491525423728813,18.352,30.508474576271183,18.512C31.525423728813557,18.672,32.54237288135593,18.677333333333333,33.559322033898304,19.008C34.57627118644068,19.338666666666665,35.59322033898305,20.082666666666665,36.610169491525426,20.592C37.6271186440678,21.101333333333333,38.644067796610166,21.536,39.66101694915254,22.064C40.67796610169491,22.592,41.69491525423729,23.365333333333332,42.71186440677966,23.759999999999998C43.728813559322035,24.154666666666664,44.7457627118644,24.109333333333336,45.762711864406775,24.432000000000002C46.77966101694915,24.75466666666667,47.79661016949152,25.21866666666667,48.813559322033896,25.696000000000005C49.83050847457627,26.17333333333334,50.847457627118644,26.778666666666666,51.86440677966102,27.296C52.88135593220339,27.813333333333333,53.898305084745765,28.447999999999997,54.91525423728814,28.799999999999997C55.93220338983051,29.151999999999997,56.94915254237288,29.237333333333332,57.96610169491525,29.408C58.983050847457626,29.57866666666667,59.99999999999999,29.688000000000002,61.01694915254237,29.824C62.03389830508474,29.96,63.05084745762712,29.957333333333334,64.0677966101695,30.224000000000004C65.08474576271186,30.49066666666667,66.10169491525424,31.573333333333334,67.11864406779661,31.776C68.13559322033899,31.978666666666665,69.15254237288136,32.010666666666665,70.16949152542374,32.08C71.1864406779661,32.14933333333333,72.20338983050848,32.192,73.22033898305085,32.192C74.23728813559322,32.192,75.2542372881356,31.584,76.27118644067797,31.584C77.28813559322033,31.584,78.30508474576271,32.224,79.32203389830508,32.224C80.33898305084746,32.224,81.35593220338983,32.224,82.37288135593221,32.224C83.38983050847457,32.224,84.40677966101696,32.448,85.42372881355932,32.448C86.4406779661017,32.448,87.45762711864407,31.04,88.47457627118645,30.72C89.49152542372882,30.400000000000002,90.50847457627118,30.240000000000002,91.52542372881355,30.240000000000002C92.54237288135593,30.240000000000002,93.55932203389831,30.56,94.57627118644069,30.8C95.59322033898306,31.04,96.61016949152543,31.68,97.62711864406779,31.68C98.64406779661016,31.68,99.66101694915254,30.976,100.6779661016949,30.976C101.69491525423729,30.976,102.71186440677965,31.397333333333336,103.72881355932203,31.536C104.7457627118644,31.674666666666667,105.76271186440678,31.706666666666667,106.77966101694915,31.808C107.79661016949153,31.909333333333333,108.8135593220339,31.919999999999998,109.83050847457628,32.144C110.84745762711864,32.367999999999995,111.86440677966102,33.472,112.88135593220339,33.472C113.89830508474576,33.472,114.91525423728814,32.768,115.9322033898305,32.768C116.94915254237289,32.768,117.96610169491525,33.28,118.98305084745763,33.28C120,33.28,121.01694915254237,33.104,122.03389830508473,32.896C123.05084745762711,32.688,124.0677966101695,32.23733333333333,125.08474576271188,32.032C126.10169491525424,31.826666666666664,127.11864406779662,31.90933333333333,128.135593220339,31.663999999999998C129.15254237288136,31.418666666666667,130.16949152542372,28.346666666666653,131.1864406779661,27.503999999999998C132.20338983050846,26.661333333333335,133.22033898305085,26.453333333333337,134.23728813559322,26.240000000000002C135.25423728813558,26.026666666666667,136.27118644067798,26.080000000000002,137.28813559322035,25.92C138.3050847457627,25.76,139.3220338983051,25.418666666666667,140.33898305084747,25.28C141.35593220338984,25.141333333333336,142.3728813559322,25.21066666666667,143.38983050847457,25.072000000000003C144.40677966101694,24.933333333333337,145.42372881355934,24.57866666666667,146.4406779661017,24.256C147.45762711864407,23.933333333333334,148.47457627118644,23.136000000000003,149.4915254237288,23.136000000000003C150.50847457627117,23.136000000000003,151.52542372881356,26.624,152.54237288135593,26.624C153.5593220338983,26.624,154.5762711864407,26.024,155.59322033898306,25.648C156.61016949152543,25.272000000000002,157.6271186440678,24.76533333333333,158.64406779661016,24.368C159.66101694915253,23.970666666666663,160.67796610169492,24,161.6949152542373,23.264C162.71186440677965,22.528,163.72881355932205,19.79466666666667,164.74576271186442,18.352C165.76271186440678,16.909333333333343,166.77966101694915,15.81866666666666,167.79661016949152,14.607999999999999C168.81355932203388,13.397333333333327,169.83050847457628,12.130666666666666,170.84745762711864,11.088000000000001C171.864406779661,10.045333333333335,172.8813559322034,8.864,173.89830508474577,8.352C174.91525423728814,7.84,175.93220338983053,7.970666666666669,176.9491525423729,7.584C177.96610169491527,7.197333333333334,178.98305084745763,6.614666666666668,180,6.032000000000002"></path><path class="axis-ceiling" stroke-width="1" stroke="black" fill="none" d="M175,0L180,0"></path><text class="axis-ceiling-label" font-family="sans-serif" text-anchor="end" font-size="10px" x="170" y="2.5">2500</text></g></svg>