<svg xmlns="http://www.w3.org/2000/svg" viewBox="0 0 180 60"><g transform="translate(0,20)"><path class="area" fill="rgba(0, 0, 0, 0.2)" d="M0,35.916000000000004C1.0169491525423728,35.879000000000005,2.0338983050847457,35.842,3.0508474576271185,35.806C4.067796610169491,35.769999999999996,5.084745762711864,35.733,6.101694915254237,35.699999999999996C7.11864406779661,35.666999999999994,8.135593220338983,35.63733333333333,9.152542372881356,35.608C10.169491525423728,35.57866666666666,11.186440677966102,35.553000000000004,12.203389830508474,35.524C13.220338983050846,35.495,14.23728813559322,35.462999999999994,15.254237288135592,35.434C16.271186440677965,35.404999999999994,17.28813559322034,35.37833333333334,18.305084745762713,35.35C19.322033898305087,35.321666666666665,20.338983050847457,35.291999999999994,21.35593220338983,35.263999999999996C22.372881355932204,35.236,23.389830508474574,35.20933333333333,24.406779661016948,35.182C25.423728813559322,35.15466666666667,26.440677966101696,35.13433333333333,27.45762711864407,35.099999999999994C28.47457627118644,35.06566666666666,29.491525423728813,35.01766666666666,30.508474576271183,34.976C31.525423728813557,34.934333333333335,32.54237288135593,34.891666666666666,33.559322033898304,34.85C34.57627118644068,34.80833333333334,35.59322033898305,34.76866666666667,36.610169491525426,34.726C37.6271186440678,34.68333333333333,38.644067796610166,34.638666666666666,39.66101694915254,34.594C40.67796610169491,34.54933333333334,41.69491525423729,34.50266666666666,42.71186440677966,34.458C43.728813559322035,34.413333333333334,44.7457627118644,34.369,45.762711864406775,34.326C46.77966101694915,34.283,47.79661016949152,34.236000000000004,48.813559322033896,34.2C49.83050847457627,34.164,50.847457627118644,34.141,51.86440677966102,34.11C52.88135593220339,34.079,53.898305084745765,34.04733333333333,54.91525423728814,34.013999999999996C55.93220338983051,33.980666666666664,56.94915254237288,33.946,57.96610169491525,33.91C58.983050847457626,33.873999999999995,59.99999999999999,33.83533333333333,61.01694915254237,33.798C62.03389830508474,33.760666666666665,63.05084745762712,33.727333333333334,64.0677966101695,33.686C65.08474576271186,33.644666666666666,66.10169491525424,33.60033333333333,67.11864406779661,33.55C68.13559322033899,33.49966666666666,69.15254237288136,33.443666666666665,70.16949152542374,33.384C71.1864406779661,33.324333333333335,72.20338983050848,33.263,73.22033898305085,33.192C74.23728813559322,33.121,75.2542372881356,33.03633333333333,76.27118644067797,32.958C77.28813559322033,32.879666666666665,78.30508474576271,32.80199999999999,79.32203389830508,32.721999999999994C80.33898305084746,32.641999999999996,81.35593220338983,32.56099999999999,82.37288135593221,32.477999999999994C83.38983050847457,32.394999999999996,84.40677966101696,32.307333333333325,85.42372881355932,32.224C86.4406779661017,32.14066666666666,87.45762711864407,32.071666666666665,88.47457627118645,31.978C89.49152542372882,31.884333333333334,90.50847457627118,31.766,91.52542372881355,31.662C92.54237288135593,31.557999999999996,93.55932203389831,31.452333333333335,94.57627118644069,31.354C95.59322033898306,31.255666666666666,96.61016949152543,31.16066666666666,97.62711864406779,31.071999999999996C98.64406779661016,30.98333333333333,99.66101694915254,30.91,100.6779661016949,30.822000000000003C101.69491525423729,30.734000000000005,102.71186440677965,30.644666666666673,103.72881355932203,30.544000000000004C104.7457627118644,30.443333333333335,105.76271186440678,30.334666666666664,106.77966101694915,30.217999999999996C107.79661016949153,30.10133333333333,108.8135593220339,29.964333333333332,109.83050847457628,29.844C110.84745762711864,29.72366666666667,111.86440677966102,29.610000000000003,112.88135593220339,29.496000000000002C113.89830508474576,29.382,114.91525423728814,29.310333333333332,115.9322033898305,29.16C116.94915254237289,29.009666666666668,117.96610169491525,28.84166666666667,118.98305084745763,28.594C120,28.346333333333337,121.01694915254237,27.989333333333335,122.03389830508473,27.674000000000003C123.05084745762711,27.358666666666668,124.0677966101695,27.030333333333335,125.08474576271188,26.701999999999998C126.10169491525424,26.373666666666665,127.11864406779662,26.037333333333333,128.135593220339,25.704C129.15254237288136,25.37066666666667,130.16949152542372,25.04,131.1864406779661,24.702C132.20338983050846,24.364,133.22033898305085,24.031333333333333,134.23728813559322,23.676C135.25423728813558,23.320666666666664,136.27118644067798,22.913666666666664,137.28813559322035,22.569999999999997C138.3050847457627,22.22633333333333,139.3220338983051,21.892333333333333,140.33898305084747,21.614C141.35593220338984,21.33566666666667,142.3728813559322,21.139,143.38983050847457,20.9C144.40677966101694,20.660999999999998,145.42372881355934,20.422666666666668,146.4406779661017,20.18C147.45762711864407,19.937333333333335,148.47457627118644,19.695999999999998,149.4915254237288,19.444C150.50847457627117,19.191999999999997,151.52542372881356,18.934666666666665,152.54237288135593,18.668C153.5593220338983,18.401333333333334,154.5762711864407,18.123,155.59322033898306,17.844C156.61016949152543,17.565,157.6271186440678,17.282999999999998,158.64406779661016,16.994C159.66101694915253,16.705,160.67796610169492,16.406333333333336,161.6949152542373,16.110000000000003C162.71186440677965,15.81366666666667,163.72881355932205,15.518333333333333,164.74576271186442,15.215999999999998C165.76271186440678,14.913666666666666,166.77966101694915,14.606000000000002,167.79661016949152,14.296000000000003C168.81355932203388,13.986000000000002,169.83050847457628,13.697333333333331,170.84745762711864,13.355999999999998C171.864406779661,13.014666666666665,172.8813559322034,12.642666666666667,173.89830508474577,12.248000000000001C174.91525423728814,11.853333333333335,175.93220338983053,11.421000000000006,176.9491525423729,10.988000000000003C177.96610169491527,10.555000000000005,178.98305084745763,10.102500000000001,180,9.649999999999999L180,40C178.98305084745763,40,177.96610169491527,40,176.9491525423729,40C175.93220338983053,40,174.91525423728814,40,173.89830508474577,40C172.8813559322034,40,171.864406779661,40,170.84745762711864,40C169.83050847457628,40,168.81355932203388,40,167.79661016949152,40C166.77966101694915,40,165.76271186440678,40,164.74576271186442,40C163.72881355932205,40,162.71186440677965,40,161.6949152542373,40C160.67796610169492,40,159.66101694915253,40,158.64406779661016,40C157.6271186440678,40,156.61016949152543,40,155.59322033898306,40C154.5762711864407,40,153.5593220338983,40,152.54237288135593,40C151.52542372881356,40,150.50847457627117,40,149.4915254237288,40C148.47457627118644,40,147.45762711864407,40,146.4406779661017,40C145.42372881355934,40,144.40677966101694,40,143.38983050847457,40C142.3728813559322,40,141.35593220338984,40,140.33898305084747,40C139.3220338983051,40,138.3050847457627,40,137.28813559322035,40C136.27118644067798,40,135.25423728813558,40,134.23728813559322,40C133.22033898305085,40,132.20338983050846,40,131.1864406779661,40C130.16949152542372,40,129.15254237288136,40,128.135593220339,40C127.11864406779662,40,126.10169491525424,40,125.08474576271188,40C124.0677966101695,40,123.05084745762711,40,122.03389830508473,40C121.01694915254237,40,120,40,118.98305084745763,40C117.96610169491525,40,116.94915254237289,40,115.9322033898305,40C114.91525423728814,40,113.89830508474576,40,112.88135593220339,40C111.86440677966102,40,110.84745762711864,40,109.83050847457628,40C108.8135593220339,40,107.79661016949153,40,106.77966101694915,40C105.76271186440678,40,104.7457627118644,40,103.72881355932203,40C102.71186440677965,40,101.69491525423729,40,100.6779661016949,40C99.66101694915254,40,98.64406779661016,40,97.62711864406779,40C96.61016949152543,40,95.59322033898306,40,94.57627118644069,40C93.55932203389831,40,92.54237288135593,40,91.52542372881355,40C90.50847457627118,40,89.49152542372882,40,88.47457627118645,40C87.45762711864407,40,86.4406779661017,40,85.42372881355932,40C84.40677966101696,40,83.38983050847457,40,82.37288135593221,40C81.35593220338983,40,80.33898305084746,40,79.32203389830508,40C78.30508474576271,40,77.28813559322033,40,76.27118644067797,40C75.2542372881356,40,74.23728813559322,40,73.22033898305085,40C72.20338983050848,40,71.1864406779661,40,70.16949152542374,40C69.15254237288136,40,68.13559322033899,40,67.11864406779661,40C66.10169491525424,40,65.08474576271186,40,64.0677966101695,40C63.05084745762712,40,62.03389830508474,40,61.01694915254237,40C59.99999999999999,40,58.983050847457626,40,57.96610169491525,40C56.94915254237288,40,55.93220338983051,40,54.91525423728814,40C53.898305084745765,40,52.88135593220339,40,51.86440677966102,40C50.847457627118644,40,49.83050847457627,40,48.813559322033896,40C47.79661016949152,40,46.77966101694915,40,45.762711864406775,40C44.7457627118644,40,43.728813559322035,40,42.71186440677966,40C41.69491525423729,40,40.67796610169491,40,39.66101694915254,40C38.644067796610166,40,37.6271186440678,40,36.610169491525426,40C35.59322033898305,40,34.57627118644068,40,33.559322033898304,40C32.54237288135593,40,31.525423728813557,40,30.508474576271183,40C29.491525423728813,40,28.47457627118644,40,27.45762711864407,40C26.440677966101696,40,25.423728813559322,40,24.406779661016948,40C23.389830508474574,40,22.372881355932204,40,21.35593220338983,40C20.338983050847457,40,19.322033898305087,40,18.305084745762713,40C17.28813559322034,40,16.271186440677965,40,15.254237288135592,40C14.23728813559322,40,13.220338983050846,40,12.203389830508474,40C11.186440677966102,40,10.169491525423728,40,9.152542372881356,40C8.135593220338983,40,7.11864406779661,40,6.101694915254237,40C5.084745762711864,40,4.067796610169491,40,3.0508474576271185,40C2.0338983050847457,40,1.0169491525423728,40,0,40Z"></path><path class="line" stroke="black" fill="none" d="M0,35.916000000000004C1.0169491525423728,35.879000000000005,2.0338983050847457,35.842,3.0508474576271185,35.806C4.067796610169491,35.769999999999996,5.084745762711864,35.733,6.101694915254237,35.699999999999996C7.11864406779661,35.666999999999994,8.135593220338983,35.63733333333333,9.152542372881356,35.608C10.169491525423728,35.57866666666666,11.186440677966102,35.553000000000004,12.203389830508474,35.524C13.220338983050846,35.495,14.23728813559322,35.462999999999994,15.254237288135592,35.434C16.271186440677965,35.404999999999994,17.28813559322034,35.37833333333334,18.305084745762713,35.35C19.322033898305087,35.321666666666665,20.338983050847457,35.291999999999994,21.35593220338983,35.263999999999996C22.372881355932204,35.236,23.389830508474574,35.20933333333333,24.406779661016948,35.182C25.423728813559322,35.15466666666667,26.440677966101696,35.13433333333333,27.45762711864407,35.099999999999994C28.47457627118644,35.06566666666666,29.491525423728813,35.01766666666666,30.508474576271183,34.976C31.525423728813557,34.934333333333335,32.54237288135593,34.891666666666666,33.559322033898304,34.85C34.57627118644068,34.80833333333334,35.59322033898305,34.76866666666667,36.610169491525426,34.726C37.6271186440678,34.68333333333333,38.644067796610166,34.638666666666666,39.66101694915254,34.594C40.67796610169491,34.54933333333334,41.69491525423729,34.50266666666666,42.71186440677966,34.458C43.728813559322035,34.413333333333334,44.7457627118644,34.369,45.762711864406775,34.326C46.77966101694915,34.283,47.79661016949152,34.236000000000004,48.813559322033896,34.2C49.83050847457627,34.164,50.847457627118644,34.141,51.86440677966102,34.11C52.88135593220339,34.079,53.898305084745765,34.04733333333333,54.91525423728814,34.013999999999996C55.93220338983051,33.980666666666664,56.94915254237288,33.946,57.96610169491525,33.91C58.983050847457626,33.873999999999995,59.99999999999999,33.83533333333333,61.01694915254237,33.798C62.03389830508474,33.760666666666665,63.05084745762712,33.727333333333334,64.0677966101695,33.686C65.08474576271186,33.644666666666666,66.10169491525424,33.60033333333333,67.11864406779661,33.55C68.13559322033899,33.49966666666666,69.15254237288136,33.443666666666665,70.16949152542374,33.384C71.1864406779661,33.324333333333335,72.20338983050848,33.263,73.22033898305085,33.192C74.23728813559322,33.121,75.2542372881356,33.03633333333333,76.27118644067797,32.958C77.28813559322033,32.879666666666665,78.30508474576271,32.80199999999999,79.32203389830508,32.721999999999994C80.33898305084746,32.641999999999996,81.35593220338983,32.56099999999999,82.37288135593221,32.477999999999994C83.38983050847457,32.394999999999996,84.40677966101696,32.307333333333325,85.42372881355932,32.224C86.4406779661017,32.14066666666666,87.45762711864407,32.071666666666665,88.47457627118645,31.978C89.49152542372882,31.884333333333334,90.50847457627118,31.766,91.52542372881355,31.662C92.54237288135593,31.557999999999996,93.55932203389831,31.452333333333335,94.57627118644069,31.354C95.59322033898306,31.255666666666666,96.61016949152543,31.16066666666666,97.62711864406779,31.071999999999996C98.64406779661016,30.98333333333333,99.66101694915254,30.91,100.6779661016949,30.822000000000003C101.69491525423729,30.734000000000005,102.71186440677965,30.644666666666673,103.72881355932203,30.544000000000004C104.7457627118644,30.443333333333335,105.76271186440678,30.334666666666664,106.77966101694915,30.217999999999996C107.79661016949153,30.10133333333333,108.8135593220339,29.964333333333332,109.83050847457628,29.844C110.84745762711864,29.72366666666667,111.86440677966102,29.610000000000003,112.88135593220339,29.496000000000002C113.89830508474576,29.382,114.91525423728814,29.310333333333332,115.9322033898305,29.16C116.94915254237289,29.009666666666668,117.96610169491525,28.84166666666667,118.98305084745763,28.594C120,28.346333333333337,121.01694915254237,27.989333333333335,122.03389830508473,27.674000000000003C123.05084745762711,27.358666666666668,124.0677966101695,27.030333333333335,125.08474576271188,26.701999999999998C126.10169491525424,26.373666666666665,127.11864406779662,26.037333333333333,128.135593220339,25.704C129.15254237288136,25.37066666666667,130.16949152542372,25.04,131.1864406779661,24.702C132.20338983050846,24.364,133.22033898305085,24.031333333333333,134.23728813559322,23.676C135.25423728813558,23.320666666666664,136.27118644067798,22.913666666666664,137.28813559322035,22.569999999999997C138.3050847457627,22.22633333333333,139.3220338983051,21.892333333333333,140.33898305084747,21.614C141.35593220338984,21.33566666666667,142.3728813559322,21.139,143.38983050847457,20.9C144.40677966101694,20.660999999999998,145.42372881355934,20.422666666666668,146.4406779661017,20.18C147.45762711864407,19.937333333333335,148.47457627118644,19.695999999999998,149.4915254237288,19.444C150.50847457627117,19.191999999999997,151.52542372881356,18.934666666666665,152.54237288135593,18.668C153.5593220338983,18.401333333333334,154.5762711864407,18.123,155.59322033898306,17.844C156.61016949152543,17.565,157.6271186440678,17.282999999999998,158.64406779661016,16.994C159.66101694915253,16.705,160.67796610169492,16.406333333333336,161.6949152542373,16.110000000000003C162.71186440677965,15.81366666666667,163.72881355932205,15.518333333333333,164.74576271186442,15.215999999999998C165.76271186440678,14.913666666666666,166.77966101694915,14.606000000000002,167.79661016949152,14.296000000000003C168.81355932203388,13.986000000000002,169.83050847457628,13.697333333333331,170.84745762711864,13.355999999999998C171.864406779661,13.014666666666665,172.8813559322034,12.642666666666667,173.89830508474577,12.248000000000001C174.91525423728814,11.853333333333335,175.93220338983053,11.421000000000006,176.9491525423729,10.988000000000003C177.96610169491527,10.555000000000005,178.98305084745763,10.102500000000001,180,9.649999999999999"></path><path class="axis-ceiling" stroke-width="1" stroke="black" fill="none" d="M175,0L180,0"></path><text class="axis-ceiling-label" font-family="sans-serif" text-anchor="end" font-size="10px" x="170" y="2.5">20000</text></g></svg>