<svg xmlns="http://www.w3.org/2000/svg" viewBox="0 0 180 60"><g transform="translate(0,20)"><path class="area" fill="rgba(0, 0, 0, 0.2)" d="M0,37.333333333333336C8.965517241379311,36,17.93103448275862,34.66666666666667,26.896551724137932,34.66666666666667C31.03448275862069,34.66666666666667,35.172413793103445,34.66666666666667,39.310344827586206,34.66666666666667C40,34.66666666666667,40.689655172413794,34.66666666666667,41.37931034482759,34.66666666666667C42.06896551724138,34.66666666666667,42.758620689655174,34.66666666666667,43.44827586206897,34.66666666666667C46.896551724137936,34.66666666666667,50.3448275862069,37.333333333333336,53.793103448275865,37.333333333333336C55.17241379310345,37.333333333333336,56.55172413793103,37.333333333333336,57.93103448275862,37.333333333333336C58.62068965517241,37.333333333333336,59.310344827586206,37.333333333333336,60,37.333333333333336C60.689655172413794,37.333333333333336,61.37931034482759,40,62.06896551724138,40C63.44827586206897,40,64.82758620689656,40,66.20689655172414,40C66.89655172413794,40,67.58620689655172,40,68.27586206896551,40C68.9655172413793,40,69.65517241379311,40,70.3448275862069,40C71.0344827586207,40,71.72413793103448,40,72.41379310344827,40C75.17241379310344,40,77.93103448275862,40,80.6896551724138,40C82.06896551724138,40,83.44827586206895,40,84.82758620689654,40C85.51724137931033,40,86.20689655172414,40,86.89655172413794,40C87.58620689655173,40,88.27586206896552,40,88.96551724137932,40C89.65517241379311,40,90.3448275862069,40,91.0344827586207,40C91.72413793103449,40,92.41379310344828,40,93.10344827586208,40C93.79310344827587,40,94.48275862068967,40,95.17241379310346,40C96.55172413793105,40,97.93103448275862,40,99.3103448275862,40C100,40,100.6896551724138,40,101.37931034482759,40C102.06896551724138,40,102.75862068965516,40,103.44827586206895,40C104.13793103448275,40,104.82758620689654,40,105.51724137931033,40C106.20689655172413,40,106.89655172413794,40,107.58620689655173,40C108.27586206896552,40,108.96551724137932,40,109.65517241379311,40C110.3448275862069,40,111.0344827586207,34.66666666666667,111.72413793103449,34.66666666666667C112.41379310344828,34.66666666666667,113.10344827586206,34.66666666666667,113.79310344827586,34.66666666666667C114.48275862068965,34.66666666666667,115.17241379310344,34.66666666666667,115.86206896551724,34.66666666666667C116.55172413793103,34.66666666666667,117.24137931034483,37.333333333333336,117.93103448275862,37.333333333333336C118.62068965517241,37.333333333333336,119.3103448275862,37.333333333333336,120,37.333333333333336C120.6896551724138,37.333333333333336,121.37931034482757,34.66666666666667,122.06896551724137,34.66666666666667C122.75862068965516,34.66666666666667,123.44827586206897,34.66666666666667,124.13793103448276,34.66666666666667C124.82758620689656,34.66666666666667,125.51724137931035,37.333333333333336,126.20689655172414,37.333333333333336C126.89655172413794,37.333333333333336,127.58620689655173,37.333333333333336,128.27586206896552,37.333333333333336C128.9655172413793,37.333333333333336,129.6551724137931,37.333333333333336,130.3448275862069,37.333333333333336C131.0344827586207,37.333333333333336,131.72413793103448,34.66666666666667,132.41379310344828,34.66666666666667C133.10344827586206,34.66666666666667,133.79310344827587,37.333333333333336,134.48275862068965,37.333333333333336C135.17241379310343,37.333333333333336,135.86206896551724,37.333333333333336,136.55172413793102,37.333333333333336C137.24137931034483,37.333333333333336,137.9310344827586,37.333333333333336,138.6206896551724,37.333333333333336C139.31034482758622,37.333333333333336,140,34.66666666666667,140.6896551724138,34.66666666666667C141.3793103448276,34.66666666666667,142.0689655172414,34.66666666666667,142.75862068965517,34.66666666666667C143.44827586206895,34.66666666666667,144.13793103448276,34.66666666666667,144.82758620689654,34.66666666666667C145.51724137931035,34.66666666666667,146.20689655172413,34.66666666666667,146.89655172413794,34.66666666666667C147.58620689655172,34.66666666666667,148.27586206896552,32,148.9655172413793,32C149.6551724137931,32,150.3448275862069,34.66666666666667,151.0344827586207,34.66666666666667C151.72413793103448,34.66666666666667,152.41379310344828,32.888888888888886,153.10344827586206,32C153.79310344827584,31.11111111111111,154.48275862068965,29.333333333333336,155.17241379310343,29.333333333333336C155.86206896551724,29.333333333333336,156.55172413793102,29.333333333333336,157.24137931034483,29.333333333333336C157.93103448275863,29.333333333333336,158.6206896551724,32,159.31034482758622,32C160,32,160.6896551724138,32,161.3793103448276,32C162.06896551724137,32,162.75862068965517,34.66666666666667,163.44827586206895,34.66666666666667C164.13793103448276,34.66666666666667,164.82758620689654,34.66666666666667,165.51724137931035,34.66666666666667C166.20689655172413,34.66666666666667,166.89655172413794,34.66666666666667,167.58620689655172,34.66666666666667C168.2758620689655,34.66666666666667,168.9655172413793,40,169.65517241379308,40C170.3448275862069,40,171.03448275862067,40,171.72413793103448,40C172.41379310344828,40,173.10344827586206,40,173.79310344827587,40C174.48275862068965,40,175.17241379310346,40,175.86206896551724,40C176.55172413793105,40,177.24137931034483,40,177.93103448275863,40C178.6206896551724,40,179.31034482758622,23.999999999999996,180,7.999999999999998L180,40C179.31034482758622,40,178.6206896551724,40,177.93103448275863,40C177.24137931034483,40,176.55172413793105,40,175.86206896551724,40C175.17241379310346,40,174.48275862068965,40,173.79310344827587,40C173.10344827586206,40,172.41379310344828,40,171.72413793103448,40C171.03448275862067,40,170.3448275862069,40,169.65517241379308,40C168.9655172413793,40,168.2758620689655,40,167.58620689655172,40C166.89655172413794,40,166.20689655172413,40,165.51724137931035,40C164.82758620689654,40,164.13793103448276,40,163.44827586206895,40C162.75862068965517,40,162.06896551724137,40,161.3793103448276,40C160.6896551724138,40,160,40,159.31034482758622,40C158.6206896551724,40,157.93103448275863,40,157.24137931034483,40C156.55172413793102,40,155.86206896551724,40,155.17241379310343,40C154.48275862068965,40,153.79310344827584,40,153.10344827586206,40C152.41379310344828,40,151.72413793103448,40,151.0344827586207,40C150.3448275862069,40,149.6551724137931,40,148.9655172413793,40C148.27586206896552,40,147.58620689655172,40,146.89655172413794,40C146.20689655172413,40,145.51724137931035,40,144.82758620689654,40C144.13793103448276,40,143.44827586206895,40,142.75862068965517,40C142.0689655172414,40,141.3793103448276,40,140.6896551724138,40C140,40,139.31034482758622,40,138.6206896551724,40C137.9310344827586,40,137.24137931034483,40,136.55172413793102,40C135.86206896551724,40,135.17241379310343,40,134.48275862068965,40C133.79310344827587,40,133.10344827586206,40,132.41379310344828,40C131.72413793103448,40,131.0344827586207,40,130.3448275862069,40C129.6551724137931,40,128.9655172413793,40,128.27586206896552,40C127.58620689655173,40,126.89655172413794,40,126.20689655172414,40C125.51724137931035,40,124.82758620689656,40,124.13793103448276,40C123.44827586206897,40,122.75862068965516,40,122.06896551724137,40C121.37931034482757,40,120.6896551724138,40,120,40C119.3103448275862,40,118.62068965517241,40,117.93103448275862,40C117.24137931034483,40,116.55172413793103,40,115.86206896551724,40C115.17241379310344,40,114.48275862068965,40,113.79310344827586,40C113.10344827586206,40,112.41379310344828,40,111.72413793103449,40C111.0344827586207,40,110.3448275862069,40,109.65517241379311,40C108.96551724137932,40,108.27586206896552,40,107.58620689655173,40C106.89655172413794,40,106.20689655172413,40,105.51724137931033,40C104.82758620689654,40,104.13793103448275,40,103.44827586206895,40C102.75862068965516,40,102.06896551724138,40,101.37931034482759,40C100.6896551724138,40,100,40,99.3103448275862,40C97.93103448275862,40,96.55172413793105,40,95.17241379310346,40C94.48275862068967,40,93.79310344827587,40,93.10344827586208,40C92.41379310344828,40,91.72413793103449,40,91.0344827586207,40C90.3448275862069,40,89.65517241379311,40,88.96551724137932,40C88.27586206896552,40,87.58620689655173,40,86.89655172413794,40C86.20689655172414,40,85.51724137931033,40,84.82758620689654,40C83.44827586206895,40,82.06896551724138,40,80.6896551724138,40C77.93103448275862,40,75.17241379310344,40,72.41379310344827,40C71.72413793103448,40,71.0344827586207,40,70.3448275862069,40C69.65517241379311,40,68.9655172413793,40,68.27586206896551,40C67.58620689655172,40,66.89655172413794,40,66.20689655172414,40C64.82758620689656,40,63.44827586206897,40,62.06896551724138,40C61.37931034482759,40,60.689655172413794,40,60,40C59.310344827586206,40,58.62068965517241,40,57.93103448275862,40C56.55172413793103,40,55.17241379310345,40,53.793103448275865,40C50.3448275862069,40,46.896551724137936,40,43.44827586206897,40C42.758620689655174,40,42.06896551724138,40,41.37931034482759,40C40.689655172413794,40,40,40,39.310344827586206,40C35.172413793103445,40,31.03448275862069,40,26.896551724137932,40C17.93103448275862,40,8.965517241379311,40,0,40Z"></path><path class="line" stroke="black" fill="none" d="M0,37.333333333333336C8.965517241379311,36,17.93103448275862,34.66666666666667,26.896551724137932,34.66666666666667C31.03448275862069,34.66666666666667,35.172413793103445,34.66666666666667,39.310344827586206,34.66666666666667C40,34.66666666666667,40.689655172413794,34.66666666666667,41.37931034482759,34.66666666666667C42.06896551724138,34.66666666666667,42.758620689655174,34.66666666666667,43.44827586206897,34.66666666666667C46.896551724137936,34.66666666666667,50.3448275862069,37.333333333333336,53.793103448275865,37.333333333333336C55.17241379310345,37.333333333333336,56.55172413793103,37.333333333333336,57.93103448275862,37.333333333333336C58.62068965517241,37.333333333333336,59.310344827586206,37.333333333333336,60,37.333333333333336C60.689655172413794,37.333333333333336,61.37931034482759,40,62.06896551724138,40C63.44827586206897,40,64.82758620689656,40,66.20689655172414,40C66.89655172413794,40,67.58620689655172,40,68.27586206896551,40C68.9655172413793,40,69.65517241379311,40,70.3448275862069,40C71.0344827586207,40,71.72413793103448,40,72.41379310344827,40C75.17241379310344,40,77.93103448275862,40,80.6896551724138,40C82.06896551724138,40,83.44827586206895,40,84.82758620689654,40C85.51724137931033,40,86.20689655172414,40,86.89655172413794,40C87.58620689655173,40,88.27586206896552,40,88.96551724137932,40C89.65517241379311,40,90.3448275862069,40,91.0344827586207,40C91.72413793103449,40,92.41379310344828,40,93.10344827586208,40C93.79310344827587,40,94.48275862068967,40,95.17241379310346,40C96.55172413793105,40,97.93103448275862,40,99.3103448275862,40C100,40,100.6896551724138,40,101.37931034482759,40C102.06896551724138,40,102.75862068965516,40,103.44827586206895,40C104.13793103448275,40,104.82758620689654,40,105.51724137931033,40C106.20689655172413,40,106.89655172413794,40,107.58620689655173,40C108.27586206896552,40,108.96551724137932,40,109.65517241379311,40C110.3448275862069,40,111.0344827586207,34.66666666666667,111.72413793103449,34.66666666666667C112.41379310344828,34.66666666666667,113.10344827586206,34.66666666666667,113.79310344827586,34.66666666666667C114.48275862068965,34.66666666666667,115.17241379310344,34.66666666666667,115.86206896551724,34.66666666666667C116.55172413793103,34.66666666666667,117.24137931034483,37.333333333333336,117.93103448275862,37.333333333333336C118.62068965517241,37.333333333333336,119.3103448275862,37.333333333333336,120,37.333333333333336C120.6896551724138,37.333333333333336,121.37931034482757,34.66666666666667,122.06896551724137,34.66666666666667C122.75862068965516,34.66666666666667,123.44827586206897,34.66666666666667,124.13793103448276,34.66666666666667C124.82758620689656,34.66666666666667,125.51724137931035,37.333333333333336,126.20689655172414,37.333333333333336C126.89655172413794,37.333333333333336,127.58620689655173,37.333333333333336,128.27586206896552,37.333333333333336C128.9655172413793,37.333333333333336,129.6551724137931,37.333333333333336,130.3448275862069,37.333333333333336C131.0344827586207,37.333333333333336,131.72413793103448,34.66666666666667,132.41379310344828,34.66666666666667C133.10344827586206,34.66666666666667,133.79310344827587,37.333333333333336,134.48275862068965,37.333333333333336C135.17241379310343,37.333333333333336,135.86206896551724,37.333333333333336,136.55172413793102,37.333333333333336C137.24137931034483,37.333333333333336,137.9310344827586,37.333333333333336,138.6206896551724,37.333333333333336C139.31034482758622,37.333333333333336,140,34.66666666666667,140.6896551724138,34.66666666666667C141.3793103448276,34.66666666666667,142.0689655172414,34.66666666666667,142.75862068965517,34.66666666666667C143.44827586206895,34.66666666666667,144.13793103448276,34.66666666666667,144.82758620689654,34.66666666666667C145.51724137931035,34.66666666666667,146.20689655172413,34.66666666666667,146.89655172413794,34.66666666666667C147.58620689655172,34.66666666666667,148.27586206896552,32,148.9655172413793,32C149.6551724137931,32,150.3448275862069,34.66666666666667,151.0344827586207,34.66666666666667C151.72413793103448,34.66666666666667,152.41379310344828,32.888888888888886,153.10344827586206,32C153.79310344827584,31.11111111111111,154.48275862068965,29.333333333333336,155.17241379310343,29.333333333333336C155.86206896551724,29.333333333333336,156.55172413793102,29.333333333333336,157.24137931034483,29.333333333333336C157.93103448275863,29.333333333333336,158.6206896551724,32,159.31034482758622,32C160,32,160.6896551724138,32,161.3793103448276,32C162.06896551724137,32,162.75862068965517,34.66666666666667,163.44827586206895,34.66666666666667C164.13793103448276,34.66666666666667,164.82758620689654,34.66666666666667,165.51724137931035,34.66666666666667C166.20689655172413,34.66666666666667,166.89655172413794,34.66666666666667,167.58620689655172,34.66666666666667C168.2758620689655,34.66666666666667,168.9655172413793,40,169.65517241379308,40C170.3448275862069,40,171.03448275862067,40,171.72413793103448,40C172.41379310344828,40,173.10344827586206,40,173.79310344827587,40C174.48275862068965,40,175.17241379310346,40,175.86206896551724,40C176.55172413793105,40,177.24137931034483,40,177.93103448275863,40C178.6206896551724,40,179.31034482758622,23.999999999999996,180,7.999999999999998"></path><path class="axis-ceiling" stroke-width="1" stroke="black" fill="none" d="M175,0L180,0"></path><text class="axis-ceiling-label" font-family="sans-serif" text-anchor="end" font-size="10px" x="170" y="2.5">15</text></g></svg>