<svg xmlns="http://www.w3.org/2000/svg" viewBox="0 0 180 60"><g transform="translate(0,20)"><path class="area" fill="rgba(0, 0, 0, 0.2)" d="M0,27.599999999999998C0.8571428571428571,27.599999999999998,1.714285714285714,27.599999999999998,2.571428571428571,27.599999999999998C6.857142857142857,27.599999999999998,11.142857142857142,27.586666666666666,15.428571428571429,27.560000000000002C17.142857142857142,27.549333333333337,18.857142857142854,27.519999999999996,20.57142857142857,27.519999999999996C21.428571428571427,27.519999999999996,22.28571428571428,27.519999999999996,23.14285714285714,27.519999999999996C23.999999999999996,27.519999999999996,24.857142857142854,27.519999999999996,25.71428571428571,27.519999999999996C27.428571428571427,27.519999999999996,29.142857142857142,27.519999999999996,30.857142857142858,27.519999999999996C31.714285714285715,27.519999999999996,32.57142857142857,27.519999999999996,33.42857142857143,27.519999999999996C34.285714285714285,27.519999999999996,35.142857142857146,27.519999999999996,36,27.519999999999996C36.857142857142854,27.519999999999996,37.714285714285715,27.519999999999996,38.57142857142857,27.519999999999996C42,27.519999999999996,45.42857142857142,27.519999999999996,48.857142857142854,27.519999999999996C50.57142857142857,27.519999999999996,52.285714285714285,27.480000000000004,54,27.480000000000004C54.857142857142854,27.480000000000004,55.714285714285715,27.480000000000004,56.57142857142857,27.480000000000004C57.42857142857143,27.480000000000004,58.285714285714285,27.480000000000004,59.142857142857146,27.480000000000004C60,27.480000000000004,60.85714285714286,27.439999999999998,61.714285714285715,27.439999999999998C62.57142857142858,27.439999999999998,63.42857142857143,27.439999999999998,64.28571428571429,27.439999999999998C65.14285714285715,27.439999999999998,66,27.439999999999998,66.85714285714286,27.439999999999998C68.57142857142857,27.439999999999998,70.28571428571429,27.439999999999998,72,27.439999999999998C72.85714285714286,27.439999999999998,73.71428571428571,27.439999999999998,74.57142857142857,27.439999999999998C75.42857142857143,27.439999999999998,76.28571428571428,27.32,77.14285714285714,27.32C78,27.32,78.85714285714285,27.32,79.71428571428571,27.32C80.57142857142857,27.32,81.42857142857142,27.32,82.28571428571428,27.32C83.14285714285714,27.32,84,27.32,84.85714285714286,27.32C85.71428571428572,27.32,86.57142857142857,26.879999999999995,87.42857142857143,26.879999999999995C88.28571428571429,26.879999999999995,89.14285714285714,26.879999999999995,90,26.879999999999995C90.85714285714285,26.879999999999995,91.71428571428571,26.879999999999995,92.57142857142856,26.879999999999995C93.42857142857142,26.879999999999995,94.28571428571428,26.879999999999995,95.14285714285714,26.879999999999995C96,26.879999999999995,96.85714285714285,26.866666666666664,97.71428571428571,26.840000000000003C98.57142857142857,26.813333333333343,99.42857142857143,26.6,100.28571428571429,26.6C101.14285714285714,26.6,102,26.6,102.85714285714285,26.6C103.71428571428571,26.6,104.57142857142857,26.520000000000003,105.42857142857143,26.520000000000003C106.28571428571429,26.520000000000003,107.14285714285714,26.520000000000003,108,26.520000000000003C108.85714285714286,26.520000000000003,109.71428571428572,26.433333333333334,110.57142857142858,26.4C111.42857142857143,26.366666666666664,112.28571428571429,26.319999999999997,113.14285714285714,26.319999999999997C114,26.319999999999997,114.85714285714286,26.319999999999997,115.71428571428572,26.319999999999997C116.57142857142858,26.319999999999997,117.42857142857143,26.233333333333334,118.28571428571429,26.200000000000003C119.14285714285714,26.16666666666667,120,26.173333333333336,120.85714285714285,26.12C121.71428571428571,26.066666666666666,122.57142857142857,25.84,123.42857142857143,25.84C124.28571428571428,25.84,125.14285714285714,25.84,125.99999999999999,25.84C126.85714285714285,25.84,127.71428571428572,25.68,128.57142857142858,25.68C129.42857142857144,25.68,130.28571428571428,25.68,131.14285714285714,25.68C132,25.68,132.85714285714286,25.4,133.71428571428572,25.4C134.57142857142858,25.4,135.42857142857142,25.4,136.28571428571428,25.4C137.14285714285714,25.4,138,25.36,138.85714285714286,25.28C139.71428571428572,25.200000000000003,140.57142857142856,24.64,141.42857142857142,24.64C142.28571428571428,24.64,143.14285714285714,24.64,144,24.64C144.85714285714286,24.64,145.71428571428572,24.64,146.57142857142858,24.64C147.42857142857144,24.64,148.28571428571428,24.64,149.14285714285714,24.64C150,24.64,150.85714285714286,24.64,151.71428571428572,24.64C152.57142857142858,24.64,153.42857142857142,24.64,154.28571428571428,24.64C155.14285714285714,24.64,156,24.64,156.85714285714286,24.64C157.71428571428572,24.64,158.57142857142856,24.64,159.42857142857142,24.64C160.28571428571428,24.64,161.14285714285714,24.64,162,24.64C162.85714285714286,24.64,163.7142857142857,24.64,164.57142857142856,24.64C165.42857142857142,24.64,166.28571428571428,24.64,167.14285714285714,24.64C168,24.64,168.85714285714286,24.64,169.71428571428572,24.64C170.57142857142858,24.64,171.42857142857144,21.913333333333338,172.2857142857143,21.080000000000002C173.14285714285717,20.246666666666677,174,19.64,174.85714285714286,19.64C175.71428571428572,19.64,176.57142857142858,19.64,177.42857142857144,19.64C178.2857142857143,19.64,179.14285714285714,19.64,180,19.64L180,40C179.14285714285714,40,178.2857142857143,40,177.42857142857144,40C176.57142857142858,40,175.71428571428572,40,174.85714285714286,40C174,40,173.14285714285717,40,172.2857142857143,40C171.42857142857144,40,170.57142857142858,40,169.71428571428572,40C168.85714285714286,40,168,40,167.14285714285714,40C166.28571428571428,40,165.42857142857142,40,164.57142857142856,40C163.7142857142857,40,162.85714285714286,40,162,40C161.14285714285714,40,160.28571428571428,40,159.42857142857142,40C158.57142857142856,40,157.71428571428572,40,156.85714285714286,40C156,40,155.14285714285714,40,154.28571428571428,40C153.42857142857142,40,152.57142857142858,40,151.71428571428572,40C150.85714285714286,40,150,40,149.14285714285714,40C148.28571428571428,40,147.42857142857144,40,146.57142857142858,40C145.71428571428572,40,144.85714285714286,40,144,40C143.14285714285714,40,142.28571428571428,40,141.42857142857142,40C140.57142857142856,40,139.71428571428572,40,138.85714285714286,40C138,40,137.14285714285714,40,136.28571428571428,40C135.42857142857142,40,134.57142857142858,40,133.71428571428572,40C132.85714285714286,40,132,40,131.14285714285714,40C130.28571428571428,40,129.42857142857144,40,128.57142857142858,40C127.71428571428572,40,126.85714285714285,40,125.99999999999999,40C125.14285714285714,40,124.28571428571428,40,123.42857142857143,40C122.57142857142857,40,121.71428571428571,40,120.85714285714285,40C120,40,119.14285714285714,40,118.28571428571429,40C117.42857142857143,40,116.57142857142858,40,115.71428571428572,40C114.85714285714286,40,114,40,113.14285714285714,40C112.28571428571429,40,111.42857142857143,40,110.57142857142858,40C109.71428571428572,40,108.85714285714286,40,108,40C107.14285714285714,40,106.28571428571429,40,105.42857142857143,40C104.57142857142857,40,103.71428571428571,40,102.85714285714285,40C102,40,101.14285714285714,40,100.28571428571429,40C99.42857142857143,40,98.57142857142857,40,97.71428571428571,40C96.85714285714285,40,96,40,95.14285714285714,40C94.28571428571428,40,93.42857142857142,40,92.57142857142856,40C91.71428571428571,40,90.85714285714285,40,90,40C89.14285714285714,40,88.28571428571429,40,87.42857142857143,40C86.57142857142857,40,85.71428571428572,40,84.85714285714286,40C84,40,83.14285714285714,40,82.28571428571428,40C81.42857142857142,40,80.57142857142857,40,79.71428571428571,40C78.85714285714285,40,78,40,77.14285714285714,40C76.28571428571428,40,75.42857142857143,40,74.57142857142857,40C73.71428571428571,40,72.85714285714286,40,72,40C70.28571428571429,40,68.57142857142857,40,66.85714285714286,40C66,40,65.14285714285715,40,64.28571428571429,40C63.42857142857143,40,62.57142857142858,40,61.714285714285715,40C60.85714285714286,40,60,40,59.142857142857146,40C58.285714285714285,40,57.42857142857143,40,56.57142857142857,40C55.714285714285715,40,54.857142857142854,40,54,40C52.285714285714285,40,50.57142857142857,40,48.857142857142854,40C45.42857142857142,40,42,40,38.57142857142857,40C37.714285714285715,40,36.857142857142854,40,36,40C35.142857142857146,40,34.285714285714285,40,33.42857142857143,40C32.57142857142857,40,31.714285714285715,40,30.857142857142858,40C29.142857142857142,40,27.428571428571427,40,25.71428571428571,40C24.857142857142854,40,23.999999999999996,40,23.14285714285714,40C22.28571428571428,40,21.428571428571427,40,20.57142857142857,40C18.857142857142854,40,17.142857142857142,40,15.428571428571429,40C11.142857142857142,40,6.857142857142857,40,2.571428571428571,40C1.714285714285714,40,0.8571428571428571,40,0,40Z"></path><path class="line" stroke="black" fill="none" d="M0,27.599999999999998C0.8571428571428571,27.599999999999998,1.714285714285714,27.599999999999998,2.571428571428571,27.599999999999998C6.857142857142857,27.599999999999998,11.142857142857142,27.586666666666666,15.428571428571429,27.560000000000002C17.142857142857142,27.549333333333337,18.857142857142854,27.519999999999996,20.57142857142857,27.519999999999996C21.428571428571427,27.519999999999996,22.28571428571428,27.519999999999996,23.14285714285714,27.519999999999996C23.999999999999996,27.519999999999996,24.857142857142854,27.519999999999996,25.71428571428571,27.519999999999996C27.428571428571427,27.519999999999996,29.142857142857142,27.519999999999996,30.857142857142858,27.519999999999996C31.714285714285715,27.519999999999996,32.57142857142857,27.519999999999996,33.42857142857143,27.519999999999996C34.285714285714285,27.519999999999996,35.142857142857146,27.519999999999996,36,27.519999999999996C36.857142857142854,27.519999999999996,37.714285714285715,27.519999999999996,38.57142857142857,27.519999999999996C42,27.519999999999996,45.42857142857142,27.519999999999996,48.857142857142854,27.519999999999996C50.57142857142857,27.519999999999996,52.285714285714285,27.480000000000004,54,27.480000000000004C54.857142857142854,27.480000000000004,55.714285714285715,27.480000000000004,56.57142857142857,27.480000000000004C57.42857142857143,27.480000000000004,58.285714285714285,27.480000000000004,59.142857142857146,27.480000000000004C60,27.480000000000004,60.85714285714286,27.439999999999998,61.714285714285715,27.439999999999998C62.57142857142858,27.439999999999998,63.42857142857143,27.439999999999998,64.28571428571429,27.439999999999998C65.14285714285715,27.439999999999998,66,27.439999999999998,66.85714285714286,27.439999999999998C68.57142857142857,27.439999999999998,70.28571428571429,27.439999999999998,72,27.439999999999998C72.85714285714286,27.439999999999998,73.71428571428571,27.439999999999998,74.57142857142857,27.439999999999998C75.42857142857143,27.439999999999998,76.28571428571428,27.32,77.14285714285714,27.32C78,27.32,78.85714285714285,27.32,79.71428571428571,27.32C80.57142857142857,27.32,81.42857142857142,27.32,82.28571428571428,27.32C83.14285714285714,27.32,84,27.32,84.85714285714286,27.32C85.71428571428572,27.32,86.57142857142857,26.879999999999995,87.42857142857143,26.879999999999995C88.28571428571429,26.879999999999995,89.14285714285714,26.879999999999995,90,26.879999999999995C90.85714285714285,26.879999999999995,91.71428571428571,26.879999999999995,92.57142857142856,26.879999999999995C93.42857142857142,26.879999999999995,94.28571428571428,26.879999999999995,95.14285714285714,26.879999999999995C96,26.879999999999995,96.85714285714285,26.866666666666664,97.71428571428571,26.840000000000003C98.57142857142857,26.813333333333343,99.42857142857143,26.6,100.28571428571429,26.6C101.14285714285714,26.6,102,26.6,102.85714285714285,26.6C103.71428571428571,26.6,104.57142857142857,26.520000000000003,105.42857142857143,26.520000000000003C106.28571428571429,26.520000000000003,107.14285714285714,26.520000000000003,108,26.520000000000003C108.85714285714286,26.520000000000003,109.71428571428572,26.433333333333334,110.57142857142858,26.4C111.42857142857143,26.366666666666664,112.28571428571429,26.319999999999997,113.14285714285714,26.319999999999997C114,26.319999999999997,114.85714285714286,26.319999999999997,115.71428571428572,26.319999999999997C116.57142857142858,26.319999999999997,117.42857142857143,26.233333333333334,118.28571428571429,26.200000000000003C119.14285714285714,26.16666666666667,120,26.173333333333336,120.85714285714285,26.12C121.71428571428571,26.066666666666666,122.57142857142857,25.84,123.42857142857143,25.84C124.28571428571428,25.84,125.14285714285714,25.84,125.99999999999999,25.84C126.85714285714285,25.84,127.71428571428572,25.68,128.57142857142858,25.68C129.42857142857144,25.68,130.28571428571428,25.68,131.14285714285714,25.68C132,25.68,132.85714285714286,25.4,133.71428571428572,25.4C134.57142857142858,25.4,135.42857142857142,25.4,136.28571428571428,25.4C137.14285714285714,25.4,138,25.36,138.85714285714286,25.28C139.71428571428572,25.200000000000003,140.57142857142856,24.64,141.42857142857142,24.64C142.28571428571428,24.64,143.14285714285714,24.64,144,24.64C144.85714285714286,24.64,145.71428571428572,24.64,146.57142857142858,24.64C147.42857142857144,24.64,148.28571428571428,24.64,149.14285714285714,24.64C150,24.64,150.85714285714286,24.64,151.71428571428572,24.64C152.57142857142858,24.64,153.42857142857142,24.64,154.28571428571428,24.64C155.14285714285714,24.64,156,24.64,156.85714285714286,24.64C157.71428571428572,24.64,158.57142857142856,24.64,159.42857142857142,24.64C160.28571428571428,24.64,161.14285714285714,24.64,162,24.64C162.85714285714286,24.64,163.7142857142857,24.64,164.57142857142856,24.64C165.42857142857142,24.64,166.28571428571428,24.64,167.14285714285714,24.64C168,24.64,168.85714285714286,24.64,169.71428571428572,24.64C170.57142857142858,24.64,171.42857142857144,21.913333333333338,172.2857142857143,21.080000000000002C173.14285714285717,20.246666666666677,174,19.64,174.85714285714286,19.64C175.71428571428572,19.64,176.57142857142858,19.64,177.42857142857144,19.64C178.2857142857143,19.64,179.14285714285714,19.64,180,19.64"></path><path class="axis-ceiling" stroke-width="1" stroke="black" fill="none" d="M175,0L180,0"></path><text class="axis-ceiling-label" font-family="sans-serif" text-anchor="end" font-size="10px" x="170" y="2.5">1000</text></g></svg>