<svg xmlns="http://www.w3.org/2000/svg" viewBox="0 0 180 60"><g transform="translate(0,20)"><path class="area" fill="rgba(0, 0, 0, 0.2)" d="M0,10.666666666666668C0.5607476635514018,12.000000000000002,1.1214953271028039,13.333333333333336,1.6822429906542056,13.333333333333336C4.485981308411215,13.333333333333336,7.289719626168225,13.333333333333336,10.093457943925234,13.333333333333336C10.654205607476635,13.333333333333336,11.214953271028037,13.333333333333336,11.775700934579438,13.333333333333336C12.897196261682241,13.333333333333336,14.018691588785046,15.026455026455027,15.140186915887849,16C19.06542056074766,19.407407407407405,22.990654205607477,29.333333333333336,26.91588785046729,29.333333333333336C31.962616822429904,29.333333333333336,37.00934579439252,29.333333333333336,42.05607476635514,29.333333333333336C43.17757009345794,29.333333333333336,44.299065420560744,37.333333333333336,45.420560747663544,37.333333333333336C52.71028037383177,37.333333333333336,59.99999999999999,34.66666666666667,67.28971962616822,34.66666666666667C70.65420560747663,34.66666666666667,74.01869158878505,34.66666666666667,77.38317757009345,34.66666666666667C77.94392523364486,34.66666666666667,78.50467289719626,34.66666666666667,79.06542056074767,34.66666666666667C79.62616822429906,34.66666666666667,80.18691588785047,34.66666666666667,80.74766355140187,34.66666666666667C83.55140186915888,34.66666666666667,86.35514018691589,37.333333333333336,89.1588785046729,37.333333333333336C90.2803738317757,37.333333333333336,91.4018691588785,37.333333333333336,92.5233644859813,37.333333333333336C93.0841121495327,37.333333333333336,93.64485981308411,37.333333333333336,94.2056074766355,37.333333333333336C94.7663551401869,37.333333333333336,95.32710280373831,40,95.88785046728971,40C97.00934579439252,40,98.13084112149532,40,99.25233644859813,40C99.81308411214953,40,100.37383177570094,40,100.93457943925233,40C101.49532710280373,40,102.05607476635514,40,102.61682242990653,40C103.17757009345793,40,103.73831775700934,40,104.29906542056074,40C106.54205607476635,40,108.78504672897195,40,111.02803738317756,40C112.14953271028037,40,113.27102803738316,40,114.39252336448597,40C114.95327102803738,40,115.51401869158877,40,116.07476635514018,40C116.63551401869158,40,117.19626168224299,40,117.75700934579439,40C118.31775700934578,40,118.8785046728972,40,119.43925233644859,40C119.99999999999999,40,120.5607476635514,40,121.12149532710279,40C121.6822429906542,40,122.2429906542056,40,122.80373831775701,40C123.92523364485982,40,125.04672897196261,40,126.16822429906541,40C126.72897196261681,40,127.28971962616822,40,127.85046728971962,40C128.411214953271,40,128.97196261682242,40,129.53271028037383,40C130.09345794392524,40,130.65420560747663,40,131.21495327102804,40C131.77570093457945,40,132.33644859813083,40,132.89719626168224,40C133.45794392523365,40,134.01869158878503,40,134.57943925233644,40C135.14018691588785,40,135.70093457943923,34.66666666666667,136.26168224299064,34.66666666666667C136.82242990654206,34.66666666666667,137.38317757009344,34.66666666666667,137.94392523364485,34.66666666666667C138.50467289719626,34.66666666666667,139.06542056074764,34.66666666666667,139.62616822429905,34.66666666666667C140.18691588785046,34.66666666666667,140.74766355140184,37.333333333333336,141.30841121495325,37.333333333333336C141.86915887850466,37.333333333333336,142.42990654205607,37.333333333333336,142.99065420560748,37.333333333333336C143.5514018691589,37.333333333333336,144.11214953271028,34.66666666666667,144.6728971962617,34.66666666666667C145.2336448598131,34.66666666666667,145.79439252336448,34.66666666666667,146.3551401869159,34.66666666666667C146.9158878504673,34.66666666666667,147.47663551401868,37.333333333333336,148.0373831775701,37.333333333333336C148.5981308411215,37.333333333333336,149.15887850467288,37.333333333333336,149.7196261682243,37.333333333333336C150.2803738317757,37.333333333333336,150.8411214953271,37.333333333333336,151.4018691588785,37.333333333333336C151.9626168224299,37.333333333333336,152.5233644859813,34.66666666666667,153.0841121495327,34.66666666666667C153.6448598130841,34.66666666666667,154.2056074766355,37.333333333333336,154.7663551401869,37.333333333333336C155.3271028037383,37.333333333333336,155.8878504672897,37.333333333333336,156.4485981308411,37.333333333333336C157.00934579439252,37.333333333333336,157.57009345794393,37.333333333333336,158.13084112149534,37.333333333333336C158.69158878504675,37.333333333333336,159.25233644859813,34.66666666666667,159.81308411214954,34.66666666666667C160.37383177570095,34.66666666666667,160.93457943925233,34.66666666666667,161.49532710280374,34.66666666666667C162.05607476635515,34.66666666666667,162.61682242990653,34.66666666666667,163.17757009345794,34.66666666666667C163.73831775700936,34.66666666666667,164.29906542056074,34.66666666666667,164.85981308411215,34.66666666666667C165.42056074766356,34.66666666666667,165.98130841121494,32,166.54205607476635,32C167.10280373831776,32,167.66355140186914,34.66666666666667,168.22429906542055,34.66666666666667C168.78504672897196,34.66666666666667,169.34579439252335,32.888888888888886,169.90654205607476,32C170.46728971962617,31.11111111111111,171.02803738317755,29.333333333333336,171.58878504672896,29.333333333333336C172.14953271028037,29.333333333333336,172.71028037383178,29.333333333333336,173.2710280373832,29.333333333333336C173.8317757009346,29.333333333333336,174.39252336448598,32,174.9532710280374,32C175.5140186915888,32,176.07476635514018,32,176.6355140186916,32C177.196261682243,32,177.7570093457944,34.66666666666667,178.3177570093458,34.66666666666667C178.8785046728972,34.66666666666667,179.4392523364486,34.66666666666667,180,34.66666666666667L180,40C179.4392523364486,40,178.8785046728972,40,178.3177570093458,40C177.7570093457944,40,177.196261682243,40,176.6355140186916,40C176.07476635514018,40,175.5140186915888,40,174.9532710280374,40C174.39252336448598,40,173.8317757009346,40,173.2710280373832,40C172.71028037383178,40,172.14953271028037,40,171.58878504672896,40C171.02803738317755,40,170.46728971962617,40,169.90654205607476,40C169.34579439252335,40,168.78504672897196,40,168.22429906542055,40C167.66355140186914,40,167.10280373831776,40,166.54205607476635,40C165.98130841121494,40,165.42056074766356,40,164.85981308411215,40C164.29906542056074,40,163.73831775700936,40,163.17757009345794,40C162.61682242990653,40,162.05607476635515,40,161.49532710280374,40C160.93457943925233,40,160.37383177570095,40,159.81308411214954,40C159.25233644859813,40,158.69158878504675,40,158.13084112149534,40C157.57009345794393,40,157.00934579439252,40,156.4485981308411,40C155.8878504672897,40,155.3271028037383,40,154.7663551401869,40C154.2056074766355,40,153.6448598130841,40,153.0841121495327,40C152.5233644859813,40,151.9626168224299,40,151.4018691588785,40C150.8411214953271,40,150.2803738317757,40,149.7196261682243,40C149.15887850467288,40,148.5981308411215,40,148.0373831775701,40C147.47663551401868,40,146.9158878504673,40,146.3551401869159,40C145.79439252336448,40,145.2336448598131,40,144.6728971962617,40C144.11214953271028,40,143.5514018691589,40,142.99065420560748,40C142.42990654205607,40,141.86915887850466,40,141.30841121495325,40C140.74766355140184,40,140.18691588785046,40,139.62616822429905,40C139.06542056074764,40,138.50467289719626,40,137.94392523364485,40C137.38317757009344,40,136.82242990654206,40,136.26168224299064,40C135.70093457943923,40,135.14018691588785,40,134.57943925233644,40C134.01869158878503,40,133.45794392523365,40,132.89719626168224,40C132.33644859813083,40,131.77570093457945,40,131.21495327102804,40C130.65420560747663,40,130.09345794392524,40,129.53271028037383,40C128.97196261682242,40,128.411214953271,40,127.85046728971962,40C127.28971962616822,40,126.72897196261681,40,126.16822429906541,40C125.04672897196261,40,123.92523364485982,40,122.80373831775701,40C122.2429906542056,40,121.6822429906542,40,121.12149532710279,40C120.5607476635514,40,119.99999999999999,40,119.43925233644859,40C118.8785046728972,40,118.31775700934578,40,117.75700934579439,40C117.19626168224299,40,116.63551401869158,40,116.07476635514018,40C115.51401869158877,40,114.95327102803738,40,114.39252336448597,40C113.27102803738316,40,112.14953271028037,40,111.02803738317756,40C108.78504672897195,40,106.54205607476635,40,104.29906542056074,40C103.73831775700934,40,103.17757009345793,40,102.61682242990653,40C102.05607476635514,40,101.49532710280373,40,100.93457943925233,40C100.37383177570094,40,99.81308411214953,40,99.25233644859813,40C98.13084112149532,40,97.00934579439252,40,95.88785046728971,40C95.32710280373831,40,94.7663551401869,40,94.2056074766355,40C93.64485981308411,40,93.0841121495327,40,92.5233644859813,40C91.4018691588785,40,90.2803738317757,40,89.1588785046729,40C86.35514018691589,40,83.55140186915888,40,80.74766355140187,40C80.18691588785047,40,79.62616822429906,40,79.06542056074767,40C78.50467289719626,40,77.94392523364486,40,77.38317757009345,40C74.01869158878505,40,70.65420560747663,40,67.28971962616822,40C59.99999999999999,40,52.71028037383177,40,45.420560747663544,40C44.299065420560744,40,43.17757009345794,40,42.05607476635514,40C37.00934579439252,40,31.962616822429904,40,26.91588785046729,40C22.990654205607477,40,19.06542056074766,40,15.140186915887849,40C14.018691588785046,40,12.897196261682241,40,11.775700934579438,40C11.214953271028037,40,10.654205607476635,40,10.093457943925234,40C7.289719626168225,40,4.485981308411215,40,1.6822429906542056,40C1.1214953271028039,40,0.5607476635514018,40,0,40Z"></path><path class="line" stroke="black" fill="none" d="M0,10.666666666666668C0.5607476635514018,12.000000000000002,1.1214953271028039,13.333333333333336,1.6822429906542056,13.333333333333336C4.485981308411215,13.333333333333336,7.289719626168225,13.333333333333336,10.093457943925234,13.333333333333336C10.654205607476635,13.333333333333336,11.214953271028037,13.333333333333336,11.775700934579438,13.333333333333336C12.897196261682241,13.333333333333336,14.018691588785046,15.026455026455027,15.140186915887849,16C19.06542056074766,19.407407407407405,22.990654205607477,29.333333333333336,26.91588785046729,29.333333333333336C31.962616822429904,29.333333333333336,37.00934579439252,29.333333333333336,42.05607476635514,29.333333333333336C43.17757009345794,29.333333333333336,44.299065420560744,37.333333333333336,45.420560747663544,37.333333333333336C52.71028037383177,37.333333333333336,59.99999999999999,34.66666666666667,67.28971962616822,34.66666666666667C70.65420560747663,34.66666666666667,74.01869158878505,34.66666666666667,77.38317757009345,34.66666666666667C77.94392523364486,34.66666666666667,78.50467289719626,34.66666666666667,79.06542056074767,34.66666666666667C79.62616822429906,34.66666666666667,80.18691588785047,34.66666666666667,80.74766355140187,34.66666666666667C83.55140186915888,34.66666666666667,86.35514018691589,37.333333333333336,89.1588785046729,37.333333333333336C90.2803738317757,37.333333333333336,91.4018691588785,37.333333333333336,92.5233644859813,37.333333333333336C93.0841121495327,37.333333333333336,93.64485981308411,37.333333333333336,94.2056074766355,37.333333333333336C94.7663551401869,37.333333333333336,95.32710280373831,40,95.88785046728971,40C97.00934579439252,40,98.13084112149532,40,99.25233644859813,40C99.81308411214953,40,100.37383177570094,40,100.93457943925233,40C101.49532710280373,40,102.05607476635514,40,102.61682242990653,40C103.17757009345793,40,103.73831775700934,40,104.29906542056074,40C106.54205607476635,40,108.78504672897195,40,111.02803738317756,40C112.14953271028037,40,113.27102803738316,40,114.39252336448597,40C114.95327102803738,40,115.51401869158877,40,116.07476635514018,40C116.63551401869158,40,117.19626168224299,40,117.75700934579439,40C118.31775700934578,40,118.8785046728972,40,119.43925233644859,40C119.99999999999999,40,120.5607476635514,40,121.12149532710279,40C121.6822429906542,40,122.2429906542056,40,122.80373831775701,40C123.92523364485982,40,125.04672897196261,40,126.16822429906541,40C126.72897196261681,40,127.28971962616822,40,127.85046728971962,40C128.411214953271,40,128.97196261682242,40,129.53271028037383,40C130.09345794392524,40,130.65420560747663,40,131.21495327102804,40C131.77570093457945,40,132.33644859813083,40,132.89719626168224,40C133.45794392523365,40,134.01869158878503,40,134.57943925233644,40C135.14018691588785,40,135.70093457943923,34.66666666666667,136.26168224299064,34.66666666666667C136.82242990654206,34.66666666666667,137.38317757009344,34.66666666666667,137.94392523364485,34.66666666666667C138.50467289719626,34.66666666666667,139.06542056074764,34.66666666666667,139.62616822429905,34.66666666666667C140.18691588785046,34.66666666666667,140.74766355140184,37.333333333333336,141.30841121495325,37.333333333333336C141.86915887850466,37.333333333333336,142.42990654205607,37.333333333333336,142.99065420560748,37.333333333333336C143.5514018691589,37.333333333333336,144.11214953271028,34.66666666666667,144.6728971962617,34.66666666666667C145.2336448598131,34.66666666666667,145.79439252336448,34.66666666666667,146.3551401869159,34.66666666666667C146.9158878504673,34.66666666666667,147.47663551401868,37.333333333333336,148.0373831775701,37.333333333333336C148.5981308411215,37.333333333333336,149.15887850467288,37.333333333333336,149.7196261682243,37.333333333333336C150.2803738317757,37.333333333333336,150.8411214953271,37.333333333333336,151.4018691588785,37.333333333333336C151.9626168224299,37.333333333333336,152.5233644859813,34.66666666666667,153.0841121495327,34.66666666666667C153.6448598130841,34.66666666666667,154.2056074766355,37.333333333333336,154.7663551401869,37.333333333333336C155.3271028037383,37.333333333333336,155.8878504672897,37.333333333333336,156.4485981308411,37.333333333333336C157.00934579439252,37.333333333333336,157.57009345794393,37.333333333333336,158.13084112149534,37.333333333333336C158.69158878504675,37.333333333333336,159.25233644859813,34.66666666666667,159.81308411214954,34.66666666666667C160.37383177570095,34.66666666666667,160.93457943925233,34.66666666666667,161.49532710280374,34.66666666666667C162.05607476635515,34.66666666666667,162.61682242990653,34.66666666666667,163.17757009345794,34.66666666666667C163.73831775700936,34.66666666666667,164.29906542056074,34.66666666666667,164.85981308411215,34.66666666666667C165.42056074766356,34.66666666666667,165.98130841121494,32,166.54205607476635,32C167.10280373831776,32,167.66355140186914,34.66666666666667,168.22429906542055,34.66666666666667C168.78504672897196,34.66666666666667,169.34579439252335,32.888888888888886,169.90654205607476,32C170.46728971962617,31.11111111111111,171.02803738317755,29.333333333333336,171.58878504672896,29.333333333333336C172.14953271028037,29.333333333333336,172.71028037383178,29.333333333333336,173.2710280373832,29.333333333333336C173.8317757009346,29.333333333333336,174.39252336448598,32,174.9532710280374,32C175.5140186915888,32,176.07476635514018,32,176.6355140186916,32C177.196261682243,32,177.7570093457944,34.66666666666667,178.3177570093458,34.66666666666667C178.8785046728972,34.66666666666667,179.4392523364486,34.66666666666667,180,34.66666666666667"></path><path class="axis-ceiling" stroke-width="1" stroke="black" fill="none" d="M175,0L180,0"></path><text class="axis-ceiling-label" font-family="sans-serif" text-anchor="end" font-size="10px" x="170" y="2.5">15</text></g></svg>