<svg xmlns="http://www.w3.org/2000/svg" viewBox="0 0 180 60"><g transform="translate(0,20)"><path class="area" fill="rgba(0, 0, 0, 0.2)" d="M0,28.053333333333335C1.0169491525423728,28.053333333333335,2.0338983050847457,28.053333333333335,3.0508474576271185,28.053333333333335C4.067796610169491,28.053333333333335,5.084745762711864,27.880000000000003,6.101694915254237,27.880000000000003C7.11864406779661,27.880000000000003,8.135593220338983,27.880000000000003,9.152542372881356,27.880000000000003C10.169491525423728,27.880000000000003,11.186440677966102,27.880000000000003,12.203389830508474,27.880000000000003C13.220338983050846,27.880000000000003,14.23728813559322,27.880000000000003,15.254237288135592,27.880000000000003C16.271186440677965,27.880000000000003,17.28813559322034,27.502222222222226,18.305084745762713,27.373333333333335C19.322033898305087,27.244444444444447,20.338983050847457,27.21333333333333,21.35593220338983,27.106666666666666C22.372881355932204,27,23.389830508474574,26.88,24.406779661016948,26.733333333333334C25.423728813559322,26.586666666666666,26.440677966101696,26.34,27.45762711864407,26.226666666666667C28.47457627118644,26.113333333333333,29.491525423728813,26.16888888888889,30.508474576271183,26.053333333333335C31.525423728813557,25.93777777777778,32.54237288135593,25.54888888888889,33.559322033898304,25.373333333333335C34.57627118644068,25.19777777777778,35.59322033898305,25.115555555555556,36.610169491525426,25C37.6271186440678,24.884444444444444,38.644067796610166,24.77777777777778,39.66101694915254,24.68C40.67796610169491,24.58222222222222,41.69491525423729,24.551111111111112,42.71186440677966,24.413333333333334C43.728813559322035,24.275555555555556,44.7457627118644,24.002222222222223,45.762711864406775,23.853333333333335C46.77966101694915,23.704444444444448,47.79661016949152,23.59111111111112,48.813559322033896,23.520000000000003C49.83050847457627,23.448888888888888,50.847457627118644,23.484444444444446,51.86440677966102,23.41333333333333C52.88135593220339,23.342222222222215,53.898305084745765,22.786666666666665,54.91525423728814,22.626666666666665C55.93220338983051,22.466666666666665,56.94915254237288,22.453333333333333,57.96610169491525,22.386666666666667C58.983050847457626,22.32,59.99999999999999,22.308888888888887,61.01694915254237,22.226666666666667C62.03389830508474,22.144444444444446,63.05084745762712,21.977777777777778,64.0677966101695,21.893333333333334C65.08474576271186,21.80888888888889,66.10169491525424,21.795555555555556,67.11864406779661,21.72C68.13559322033899,21.644444444444442,69.15254237288136,21.493333333333336,70.16949152542374,21.44C71.1864406779661,21.386666666666667,72.20338983050848,21.413333333333334,73.22033898305085,21.36C74.23728813559322,21.306666666666665,75.2542372881356,21.046666666666667,76.27118644067797,20.933333333333334C77.28813559322033,20.82,78.30508474576271,20.753333333333334,79.32203389830508,20.68C80.33898305084746,20.606666666666666,81.35593220338983,20.59111111111111,82.37288135593221,20.493333333333332C83.38983050847457,20.395555555555553,84.40677966101696,20.27777777777778,85.42372881355932,20.093333333333334C86.4406779661017,19.90888888888889,87.45762711864407,19.58888888888889,88.47457627118645,19.386666666666667C89.49152542372882,19.184444444444445,90.50847457627118,19.04,91.52542372881355,18.88C92.54237288135593,18.72,93.55932203389831,18.551111111111112,94.57627118644069,18.426666666666666C95.59322033898306,18.302222222222223,96.61016949152543,18.211111111111112,97.62711864406779,18.133333333333333C98.64406779661016,18.055555555555554,99.66101694915254,18.05333333333333,100.6779661016949,17.959999999999997C101.69491525423729,17.866666666666664,102.71186440677965,17.702222222222222,103.72881355932203,17.573333333333334C104.7457627118644,17.444444444444446,105.76271186440678,17.36,106.77966101694915,17.186666666666667C107.79661016949153,17.013333333333332,108.8135593220339,16.68,109.83050847457628,16.53333333333333C110.84745762711864,16.386666666666667,111.86440677966102,16.4,112.88135593220339,16.306666666666665C113.89830508474576,16.21333333333333,114.91525423728814,16.066666666666666,115.9322033898305,15.973333333333333C116.94915254237289,15.879999999999999,117.96610169491525,15.844444444444449,118.98305084745763,15.74666666666667C120,15.648888888888893,121.01694915254237,15.486666666666668,122.03389830508473,15.386666666666668C123.05084745762711,15.286666666666667,124.0677966101695,15.306666666666668,125.08474576271188,15.146666666666668C126.10169491525424,14.98666666666667,127.11864406779662,14.535555555555556,128.135593220339,14.226666666666667C129.15254237288136,13.91777777777778,130.16949152542372,13.597777777777777,131.1864406779661,13.293333333333335C132.20338983050846,12.988888888888889,133.22033898305085,12.608888888888892,134.23728813559322,12.400000000000002C135.25423728813558,12.191111111111113,136.27118644067798,12.217777777777782,137.28813559322035,12.040000000000003C138.3050847457627,11.862222222222224,139.3220338983051,11.524444444444445,140.33898305084747,11.333333333333332C141.35593220338984,11.142222222222221,142.3728813559322,11.113333333333332,143.38983050847457,10.893333333333333C144.40677966101694,10.673333333333332,145.42372881355934,10.27111111111111,146.4406779661017,10.013333333333332C147.45762711864407,9.755555555555556,148.47457627118644,9.526666666666667,149.4915254237288,9.346666666666668C150.50847457627117,9.166666666666666,151.52542372881356,9.06888888888889,152.54237288135593,8.933333333333335C153.5593220338983,8.79777777777778,154.5762711864407,8.722222222222227,155.59322033898306,8.533333333333335C156.61016949152543,8.344444444444445,157.6271186440678,7.98222222222222,158.64406779661016,7.799999999999998C159.66101694915253,7.617777777777775,160.67796610169492,7.586666666666668,161.6949152542373,7.440000000000002C162.71186440677965,7.2933333333333366,163.72881355932205,7.135555555555559,164.74576271186442,6.920000000000002C165.76271186440678,6.704444444444446,166.77966101694915,6.384444444444442,167.79661016949152,6.146666666666665C168.81355932203388,5.908888888888885,169.83050847457628,5.9288888888888875,170.84745762711864,5.493333333333332C171.864406779661,5.057777777777777,172.8813559322034,3.4177777777777805,173.89830508474577,3.1333333333333346C174.91525423728814,2.848888888888889,175.93220338983053,2.8888888888888893,176.9491525423729,2.706666666666666C177.96610169491527,2.5244444444444443,178.98305084745763,2.2822222222222233,180,2.040000000000002L180,40C178.98305084745763,40,177.96610169491527,40,176.9491525423729,40C175.93220338983053,40,174.91525423728814,40,173.89830508474577,40C172.8813559322034,40,171.864406779661,40,170.84745762711864,40C169.83050847457628,40,168.81355932203388,40,167.79661016949152,40C166.77966101694915,40,165.76271186440678,40,164.74576271186442,40C163.72881355932205,40,162.71186440677965,40,161.6949152542373,40C160.67796610169492,40,159.66101694915253,40,158.64406779661016,40C157.6271186440678,40,156.61016949152543,40,155.59322033898306,40C154.5762711864407,40,153.5593220338983,40,152.54237288135593,40C151.52542372881356,40,150.50847457627117,40,149.4915254237288,40C148.47457627118644,40,147.45762711864407,40,146.4406779661017,40C145.42372881355934,40,144.40677966101694,40,143.38983050847457,40C142.3728813559322,40,141.35593220338984,40,140.33898305084747,40C139.3220338983051,40,138.3050847457627,40,137.28813559322035,40C136.27118644067798,40,135.25423728813558,40,134.23728813559322,40C133.22033898305085,40,132.20338983050846,40,131.1864406779661,40C130.16949152542372,40,129.15254237288136,40,128.135593220339,40C127.11864406779662,40,126.10169491525424,40,125.08474576271188,40C124.0677966101695,40,123.05084745762711,40,122.03389830508473,40C121.01694915254237,40,120,40,118.98305084745763,40C117.96610169491525,40,116.94915254237289,40,115.9322033898305,40C114.91525423728814,40,113.89830508474576,40,112.88135593220339,40C111.86440677966102,40,110.84745762711864,40,109.83050847457628,40C108.8135593220339,40,107.79661016949153,40,106.77966101694915,40C105.76271186440678,40,104.7457627118644,40,103.72881355932203,40C102.71186440677965,40,101.69491525423729,40,100.6779661016949,40C99.66101694915254,40,98.64406779661016,40,97.62711864406779,40C96.61016949152543,40,95.59322033898306,40,94.57627118644069,40C93.55932203389831,40,92.54237288135593,40,91.52542372881355,40C90.50847457627118,40,89.49152542372882,40,88.47457627118645,40C87.45762711864407,40,86.4406779661017,40,85.42372881355932,40C84.40677966101696,40,83.38983050847457,40,82.37288135593221,40C81.35593220338983,40,80.33898305084746,40,79.32203389830508,40C78.30508474576271,40,77.28813559322033,40,76.27118644067797,40C75.2542372881356,40,74.23728813559322,40,73.22033898305085,40C72.20338983050848,40,71.1864406779661,40,70.16949152542374,40C69.15254237288136,40,68.13559322033899,40,67.11864406779661,40C66.10169491525424,40,65.08474576271186,40,64.0677966101695,40C63.05084745762712,40,62.03389830508474,40,61.01694915254237,40C59.99999999999999,40,58.983050847457626,40,57.96610169491525,40C56.94915254237288,40,55.93220338983051,40,54.91525423728814,40C53.898305084745765,40,52.88135593220339,40,51.86440677966102,40C50.847457627118644,40,49.83050847457627,40,48.813559322033896,40C47.79661016949152,40,46.77966101694915,40,45.762711864406775,40C44.7457627118644,40,43.728813559322035,40,42.71186440677966,40C41.69491525423729,40,40.67796610169491,40,39.66101694915254,40C38.644067796610166,40,37.6271186440678,40,36.610169491525426,40C35.59322033898305,40,34.57627118644068,40,33.559322033898304,40C32.54237288135593,40,31.525423728813557,40,30.508474576271183,40C29.491525423728813,40,28.47457627118644,40,27.45762711864407,40C26.440677966101696,40,25.423728813559322,40,24.406779661016948,40C23.389830508474574,40,22.372881355932204,40,21.35593220338983,40C20.338983050847457,40,19.322033898305087,40,18.305084745762713,40C17.28813559322034,40,16.271186440677965,40,15.254237288135592,40C14.23728813559322,40,13.220338983050846,40,12.203389830508474,40C11.186440677966102,40,10.169491525423728,40,9.152542372881356,40C8.135593220338983,40,7.11864406779661,40,6.101694915254237,40C5.084745762711864,40,4.067796610169491,40,3.0508474576271185,40C2.0338983050847457,40,1.0169491525423728,40,0,40Z"></path><path class="line" stroke="black" fill="none" d="M0,28.053333333333335C1.0169491525423728,28.053333333333335,2.0338983050847457,28.053333333333335,3.0508474576271185,28.053333333333335C4.067796610169491,28.053333333333335,5.084745762711864,27.880000000000003,6.101694915254237,27.880000000000003C7.11864406779661,27.880000000000003,8.135593220338983,27.880000000000003,9.152542372881356,27.880000000000003C10.169491525423728,27.880000000000003,11.186440677966102,27.880000000000003,12.203389830508474,27.880000000000003C13.220338983050846,27.880000000000003,14.23728813559322,27.880000000000003,15.254237288135592,27.880000000000003C16.271186440677965,27.880000000000003,17.28813559322034,27.502222222222226,18.305084745762713,27.373333333333335C19.322033898305087,27.244444444444447,20.338983050847457,27.21333333333333,21.35593220338983,27.106666666666666C22.372881355932204,27,23.389830508474574,26.88,24.406779661016948,26.733333333333334C25.423728813559322,26.586666666666666,26.440677966101696,26.34,27.45762711864407,26.226666666666667C28.47457627118644,26.113333333333333,29.491525423728813,26.16888888888889,30.508474576271183,26.053333333333335C31.525423728813557,25.93777777777778,32.54237288135593,25.54888888888889,33.559322033898304,25.373333333333335C34.57627118644068,25.19777777777778,35.59322033898305,25.115555555555556,36.610169491525426,25C37.6271186440678,24.884444444444444,38.644067796610166,24.77777777777778,39.66101694915254,24.68C40.67796610169491,24.58222222222222,41.69491525423729,24.551111111111112,42.71186440677966,24.413333333333334C43.728813559322035,24.275555555555556,44.7457627118644,24.002222222222223,45.762711864406775,23.853333333333335C46.77966101694915,23.704444444444448,47.79661016949152,23.59111111111112,48.813559322033896,23.520000000000003C49.83050847457627,23.448888888888888,50.847457627118644,23.484444444444446,51.86440677966102,23.41333333333333C52.88135593220339,23.342222222222215,53.898305084745765,22.786666666666665,54.91525423728814,22.626666666666665C55.93220338983051,22.466666666666665,56.94915254237288,22.453333333333333,57.96610169491525,22.386666666666667C58.983050847457626,22.32,59.99999999999999,22.308888888888887,61.01694915254237,22.226666666666667C62.03389830508474,22.144444444444446,63.05084745762712,21.977777777777778,64.0677966101695,21.893333333333334C65.08474576271186,21.80888888888889,66.10169491525424,21.795555555555556,67.11864406779661,21.72C68.13559322033899,21.644444444444442,69.15254237288136,21.493333333333336,70.16949152542374,21.44C71.1864406779661,21.386666666666667,72.20338983050848,21.413333333333334,73.22033898305085,21.36C74.23728813559322,21.306666666666665,75.2542372881356,21.046666666666667,76.27118644067797,20.933333333333334C77.28813559322033,20.82,78.30508474576271,20.753333333333334,79.32203389830508,20.68C80.33898305084746,20.606666666666666,81.35593220338983,20.59111111111111,82.37288135593221,20.493333333333332C83.38983050847457,20.395555555555553,84.40677966101696,20.27777777777778,85.42372881355932,20.093333333333334C86.4406779661017,19.90888888888889,87.45762711864407,19.58888888888889,88.47457627118645,19.386666666666667C89.49152542372882,19.184444444444445,90.50847457627118,19.04,91.52542372881355,18.88C92.54237288135593,18.72,93.55932203389831,18.551111111111112,94.57627118644069,18.426666666666666C95.59322033898306,18.302222222222223,96.61016949152543,18.211111111111112,97.62711864406779,18.133333333333333C98.64406779661016,18.055555555555554,99.66101694915254,18.05333333333333,100.6779661016949,17.959999999999997C101.69491525423729,17.866666666666664,102.71186440677965,17.702222222222222,103.72881355932203,17.573333333333334C104.7457627118644,17.444444444444446,105.76271186440678,17.36,106.77966101694915,17.186666666666667C107.79661016949153,17.013333333333332,108.8135593220339,16.68,109.83050847457628,16.53333333333333C110.84745762711864,16.386666666666667,111.86440677966102,16.4,112.88135593220339,16.306666666666665C113.89830508474576,16.21333333333333,114.91525423728814,16.066666666666666,115.9322033898305,15.973333333333333C116.94915254237289,15.879999999999999,117.96610169491525,15.844444444444449,118.98305084745763,15.74666666666667C120,15.648888888888893,121.01694915254237,15.486666666666668,122.03389830508473,15.386666666666668C123.05084745762711,15.286666666666667,124.0677966101695,15.306666666666668,125.08474576271188,15.146666666666668C126.10169491525424,14.98666666666667,127.11864406779662,14.535555555555556,128.135593220339,14.226666666666667C129.15254237288136,13.91777777777778,130.16949152542372,13.597777777777777,131.1864406779661,13.293333333333335C132.20338983050846,12.988888888888889,133.22033898305085,12.608888888888892,134.23728813559322,12.400000000000002C135.25423728813558,12.191111111111113,136.27118644067798,12.217777777777782,137.28813559322035,12.040000000000003C138.3050847457627,11.862222222222224,139.3220338983051,11.524444444444445,140.33898305084747,11.333333333333332C141.35593220338984,11.142222222222221,142.3728813559322,11.113333333333332,143.38983050847457,10.893333333333333C144.40677966101694,10.673333333333332,145.42372881355934,10.27111111111111,146.4406779661017,10.013333333333332C147.45762711864407,9.755555555555556,148.47457627118644,9.526666666666667,149.4915254237288,9.346666666666668C150.50847457627117,9.166666666666666,151.52542372881356,9.06888888888889,152.54237288135593,8.933333333333335C153.5593220338983,8.79777777777778,154.5762711864407,8.722222222222227,155.59322033898306,8.533333333333335C156.61016949152543,8.344444444444445,157.6271186440678,7.98222222222222,158.64406779661016,7.799999999999998C159.66101694915253,7.617777777777775,160.67796610169492,7.586666666666668,161.6949152542373,7.440000000000002C162.71186440677965,7.2933333333333366,163.72881355932205,7.135555555555559,164.74576271186442,6.920000000000002C165.76271186440678,6.704444444444446,166.77966101694915,6.384444444444442,167.79661016949152,6.146666666666665C168.81355932203388,5.908888888888885,169.83050847457628,5.9288888888888875,170.84745762711864,5.493333333333332C171.864406779661,5.057777777777777,172.8813559322034,3.4177777777777805,173.89830508474577,3.1333333333333346C174.91525423728814,2.848888888888889,175.93220338983053,2.8888888888888893,176.9491525423729,2.706666666666666C177.96610169491527,2.5244444444444443,178.98305084745763,2.2822222222222233,180,2.040000000000002"></path><path class="axis-ceiling" stroke-width="1" stroke="black" fill="none" d="M175,0L180,0"></path><text class="axis-ceiling-label" font-family="sans-serif" text-anchor="end" font-size="10px" x="170" y="2.5">3000</text></g></svg>