<svg xmlns="http://www.w3.org/2000/svg" viewBox="0 0 180 60"><g transform="translate(0,20)"><path class="area" fill="rgba(0, 0, 0, 0.2)" d="M0,34.50666666666667C1.0344827586206897,34.63777777777778,2.068965517241379,34.76888888888889,3.103448275862069,34.906666666666666C4.137931034482759,35.044444444444444,5.172413793103448,35.33333333333333,6.206896551724138,35.33333333333333C7.241379310344827,35.33333333333333,8.275862068965516,33.74666666666667,9.310344827586206,32.88C10.344827586206897,32.013333333333335,11.379310344827585,30.133333333333333,12.413793103448276,30.133333333333333C13.448275862068966,30.133333333333333,14.482758620689655,31.013333333333332,15.517241379310345,31.493333333333332C16.551724137931036,31.973333333333333,17.586206896551722,33.013333333333335,18.620689655172413,33.013333333333335C19.655172413793103,33.013333333333335,20.689655172413794,29.404444444444447,21.724137931034484,29.333333333333336C22.758620689655174,29.262222222222224,23.79310344827586,29.226666666666667,24.82758620689655,29.226666666666667C25.862068965517242,29.226666666666667,26.896551724137932,30.64,27.931034482758623,31.253333333333334C28.965517241379313,31.866666666666667,30,32.906666666666666,31.03448275862069,32.906666666666666C32.06896551724138,32.906666666666666,33.103448275862064,29.573333333333338,34.137931034482754,29.573333333333338C35.172413793103445,29.573333333333338,36.206896551724135,33.81333333333333,37.241379310344826,33.81333333333333C38.275862068965516,33.81333333333333,39.310344827586206,26.782222222222227,40.3448275862069,26.58666666666667C41.37931034482759,26.391111111111112,42.41379310344828,26.48888888888889,43.44827586206897,26.293333333333333C44.48275862068966,26.097777777777775,45.51724137931035,20.506666666666664,46.55172413793104,20.506666666666664C47.58620689655173,20.506666666666664,48.62068965517241,27.751111111111104,49.6551724137931,27.839999999999996C50.689655172413794,27.92888888888889,51.72413793103448,27.973333333333336,52.75862068965517,27.973333333333336C53.79310344827586,27.973333333333336,54.827586206896555,23.200000000000003,55.862068965517246,23.200000000000003C56.896551724137936,23.200000000000003,57.93103448275862,23.520000000000003,58.96551724137931,23.520000000000003C60,23.520000000000003,61.03448275862069,19.6,62.06896551724138,19.6C63.10344827586207,19.6,64.13793103448276,24.05333333333333,65.17241379310344,24.05333333333333C66.20689655172413,24.05333333333333,67.24137931034483,19.911111111111104,68.27586206896551,17.706666666666667C69.3103448275862,15.502222222222219,70.34482758620689,10.826666666666668,71.37931034482759,10.826666666666668C72.41379310344827,10.826666666666668,73.44827586206897,22.560000000000002,74.48275862068965,22.560000000000002C75.51724137931033,22.560000000000002,76.55172413793103,12.799999999999997,77.58620689655172,12.799999999999997C78.62068965517241,12.799999999999997,79.6551724137931,16.133333333333333,80.6896551724138,16.133333333333333C81.72413793103448,16.133333333333333,82.75862068965517,7.466666666666666,83.79310344827586,7.466666666666666C84.82758620689656,7.466666666666666,85.86206896551724,19.546666666666667,86.89655172413794,19.546666666666667C87.93103448275862,19.546666666666667,88.96551724137932,7.626666666666666,90,7.626666666666666C91.0344827586207,7.626666666666666,92.06896551724138,12.293333333333333,93.10344827586208,12.293333333333333C94.13793103448276,12.293333333333333,95.17241379310344,6.800000000000002,96.20689655172413,6.800000000000002C97.24137931034483,6.800000000000002,98.27586206896551,10.58666666666667,99.3103448275862,10.58666666666667C100.3448275862069,10.58666666666667,101.37931034482759,9.493333333333332,102.41379310344828,9.493333333333332C103.44827586206897,9.493333333333332,104.48275862068965,9.644444444444444,105.51724137931033,9.946666666666669C106.55172413793103,10.248888888888896,107.58620689655172,20.16,108.62068965517241,20.16C109.65517241379311,20.16,110.6896551724138,16.02666666666667,111.72413793103449,14.48C112.75862068965517,12.933333333333339,113.79310344827587,10.88,114.82758620689656,10.88C115.86206896551724,10.88,116.89655172413794,16.96,117.93103448275862,16.96C118.96551724137932,16.96,120,8.266666666666666,121.0344827586207,8.266666666666666C122.06896551724138,8.266666666666666,123.10344827586208,8.293333333333333,124.13793103448276,8.346666666666668C125.17241379310344,8.400000000000002,126.20689655172414,10.142222222222223,127.24137931034483,11.760000000000002C128.27586206896552,13.37777777777778,129.3103448275862,18.053333333333335,130.3448275862069,18.053333333333335C131.3793103448276,18.053333333333335,132.41379310344828,17.10666666666668,133.44827586206898,16.133333333333333C134.48275862068965,15.160000000000002,135.51724137931035,12.213333333333335,136.55172413793102,12.213333333333335C137.58620689655172,12.213333333333335,138.6206896551724,16.315555555555548,139.6551724137931,17.919999999999998C140.6896551724138,19.524444444444434,141.72413793103448,21.840000000000003,142.75862068965517,21.840000000000003C143.79310344827587,21.840000000000003,144.82758620689654,21.288888888888888,145.86206896551724,21.04C146.89655172413794,20.79111111111111,147.9310344827586,20.346666666666664,148.9655172413793,20.346666666666664C150,20.346666666666664,151.0344827586207,22.90222222222221,152.0689655172414,24.186666666666667C153.10344827586206,25.4711111111111,154.13793103448276,28.053333333333335,155.17241379310343,28.053333333333335C156.20689655172413,28.053333333333335,157.24137931034483,27.759999999999998,158.27586206896552,27.626666666666665C159.31034482758622,27.493333333333332,160.3448275862069,27.253333333333334,161.3793103448276,27.253333333333334C162.41379310344828,27.253333333333334,163.44827586206895,27.413333333333334,164.48275862068965,27.413333333333334C165.51724137931035,27.413333333333334,166.55172413793102,26.240000000000002,167.58620689655172,26.240000000000002C168.6206896551724,26.240000000000002,169.6551724137931,26.284444444444446,170.6896551724138,26.373333333333335C171.7241379310345,26.462222222222223,172.75862068965517,26.506666666666668,173.79310344827587,26.773333333333333C174.82758620689657,27.04,175.86206896551724,31.520000000000003,176.89655172413794,31.520000000000003C177.93103448275863,31.520000000000003,178.9655172413793,29.2,180,26.879999999999995L180,40C178.9655172413793,40,177.93103448275863,40,176.89655172413794,40C175.86206896551724,40,174.82758620689657,40,173.79310344827587,40C172.75862068965517,40,171.7241379310345,40,170.6896551724138,40C169.6551724137931,40,168.6206896551724,40,167.58620689655172,40C166.55172413793102,40,165.51724137931035,40,164.48275862068965,40C163.44827586206895,40,162.41379310344828,40,161.3793103448276,40C160.3448275862069,40,159.31034482758622,40,158.27586206896552,40C157.24137931034483,40,156.20689655172413,40,155.17241379310343,40C154.13793103448276,40,153.10344827586206,40,152.0689655172414,40C151.0344827586207,40,150,40,148.9655172413793,40C147.9310344827586,40,146.89655172413794,40,145.86206896551724,40C144.82758620689654,40,143.79310344827587,40,142.75862068965517,40C141.72413793103448,40,140.6896551724138,40,139.6551724137931,40C138.6206896551724,40,137.58620689655172,40,136.55172413793102,40C135.51724137931035,40,134.48275862068965,40,133.44827586206898,40C132.41379310344828,40,131.3793103448276,40,130.3448275862069,40C129.3103448275862,40,128.27586206896552,40,127.24137931034483,40C126.20689655172414,40,125.17241379310344,40,124.13793103448276,40C123.10344827586208,40,122.06896551724138,40,121.0344827586207,40C120,40,118.96551724137932,40,117.93103448275862,40C116.89655172413794,40,115.86206896551724,40,114.82758620689656,40C113.79310344827587,40,112.75862068965517,40,111.72413793103449,40C110.6896551724138,40,109.65517241379311,40,108.62068965517241,40C107.58620689655172,40,106.55172413793103,40,105.51724137931033,40C104.48275862068965,40,103.44827586206897,40,102.41379310344828,40C101.37931034482759,40,100.3448275862069,40,99.3103448275862,40C98.27586206896551,40,97.24137931034483,40,96.20689655172413,40C95.17241379310344,40,94.13793103448276,40,93.10344827586208,40C92.06896551724138,40,91.0344827586207,40,90,40C88.96551724137932,40,87.93103448275862,40,86.89655172413794,40C85.86206896551724,40,84.82758620689656,40,83.79310344827586,40C82.75862068965517,40,81.72413793103448,40,80.6896551724138,40C79.6551724137931,40,78.62068965517241,40,77.58620689655172,40C76.55172413793103,40,75.51724137931033,40,74.48275862068965,40C73.44827586206897,40,72.41379310344827,40,71.37931034482759,40C70.34482758620689,40,69.3103448275862,40,68.27586206896551,40C67.24137931034483,40,66.20689655172413,40,65.17241379310344,40C64.13793103448276,40,63.10344827586207,40,62.06896551724138,40C61.03448275862069,40,60,40,58.96551724137931,40C57.93103448275862,40,56.896551724137936,40,55.862068965517246,40C54.827586206896555,40,53.79310344827586,40,52.75862068965517,40C51.72413793103448,40,50.689655172413794,40,49.6551724137931,40C48.62068965517241,40,47.58620689655173,40,46.55172413793104,40C45.51724137931035,40,44.48275862068966,40,43.44827586206897,40C42.41379310344828,40,41.37931034482759,40,40.3448275862069,40C39.310344827586206,40,38.275862068965516,40,37.241379310344826,40C36.206896551724135,40,35.172413793103445,40,34.137931034482754,40C33.103448275862064,40,32.06896551724138,40,31.03448275862069,40C30,40,28.965517241379313,40,27.931034482758623,40C26.896551724137932,40,25.862068965517242,40,24.82758620689655,40C23.79310344827586,40,22.758620689655174,40,21.724137931034484,40C20.689655172413794,40,19.655172413793103,40,18.620689655172413,40C17.586206896551722,40,16.551724137931036,40,15.517241379310345,40C14.482758620689655,40,13.448275862068966,40,12.413793103448276,40C11.379310344827585,40,10.344827586206897,40,9.310344827586206,40C8.275862068965516,40,7.241379310344827,40,6.206896551724138,40C5.172413793103448,40,4.137931034482759,40,3.103448275862069,40C2.068965517241379,40,1.0344827586206897,40,0,40Z"></path><path class="line" stroke="black" fill="none" d="M0,34.50666666666667C1.0344827586206897,34.63777777777778,2.068965517241379,34.76888888888889,3.103448275862069,34.906666666666666C4.137931034482759,35.044444444444444,5.172413793103448,35.33333333333333,6.206896551724138,35.33333333333333C7.241379310344827,35.33333333333333,8.275862068965516,33.74666666666667,9.310344827586206,32.88C10.344827586206897,32.013333333333335,11.379310344827585,30.133333333333333,12.413793103448276,30.133333333333333C13.448275862068966,30.133333333333333,14.482758620689655,31.013333333333332,15.517241379310345,31.493333333333332C16.551724137931036,31.973333333333333,17.586206896551722,33.013333333333335,18.620689655172413,33.013333333333335C19.655172413793103,33.013333333333335,20.689655172413794,29.404444444444447,21.724137931034484,29.333333333333336C22.758620689655174,29.262222222222224,23.79310344827586,29.226666666666667,24.82758620689655,29.226666666666667C25.862068965517242,29.226666666666667,26.896551724137932,30.64,27.931034482758623,31.253333333333334C28.965517241379313,31.866666666666667,30,32.906666666666666,31.03448275862069,32.906666666666666C32.06896551724138,32.906666666666666,33.103448275862064,29.573333333333338,34.137931034482754,29.573333333333338C35.172413793103445,29.573333333333338,36.206896551724135,33.81333333333333,37.241379310344826,33.81333333333333C38.275862068965516,33.81333333333333,39.310344827586206,26.782222222222227,40.3448275862069,26.58666666666667C41.37931034482759,26.391111111111112,42.41379310344828,26.48888888888889,43.44827586206897,26.293333333333333C44.48275862068966,26.097777777777775,45.51724137931035,20.506666666666664,46.55172413793104,20.506666666666664C47.58620689655173,20.506666666666664,48.62068965517241,27.751111111111104,49.6551724137931,27.839999999999996C50.689655172413794,27.92888888888889,51.72413793103448,27.973333333333336,52.75862068965517,27.973333333333336C53.79310344827586,27.973333333333336,54.827586206896555,23.200000000000003,55.862068965517246,23.200000000000003C56.896551724137936,23.200000000000003,57.93103448275862,23.520000000000003,58.96551724137931,23.520000000000003C60,23.520000000000003,61.03448275862069,19.6,62.06896551724138,19.6C63.10344827586207,19.6,64.13793103448276,24.05333333333333,65.17241379310344,24.05333333333333C66.20689655172413,24.05333333333333,67.24137931034483,19.911111111111104,68.27586206896551,17.706666666666667C69.3103448275862,15.502222222222219,70.34482758620689,10.826666666666668,71.37931034482759,10.826666666666668C72.41379310344827,10.826666666666668,73.44827586206897,22.560000000000002,74.48275862068965,22.560000000000002C75.51724137931033,22.560000000000002,76.55172413793103,12.799999999999997,77.58620689655172,12.799999999999997C78.62068965517241,12.799999999999997,79.6551724137931,16.133333333333333,80.6896551724138,16.133333333333333C81.72413793103448,16.133333333333333,82.75862068965517,7.466666666666666,83.79310344827586,7.466666666666666C84.82758620689656,7.466666666666666,85.86206896551724,19.546666666666667,86.89655172413794,19.546666666666667C87.93103448275862,19.546666666666667,88.96551724137932,7.626666666666666,90,7.626666666666666C91.0344827586207,7.626666666666666,92.06896551724138,12.293333333333333,93.10344827586208,12.293333333333333C94.13793103448276,12.293333333333333,95.17241379310344,6.800000000000002,96.20689655172413,6.800000000000002C97.24137931034483,6.800000000000002,98.27586206896551,10.58666666666667,99.3103448275862,10.58666666666667C100.3448275862069,10.58666666666667,101.37931034482759,9.493333333333332,102.41379310344828,9.493333333333332C103.44827586206897,9.493333333333332,104.48275862068965,9.644444444444444,105.51724137931033,9.946666666666669C106.55172413793103,10.248888888888896,107.58620689655172,20.16,108.62068965517241,20.16C109.65517241379311,20.16,110.6896551724138,16.02666666666667,111.72413793103449,14.48C112.75862068965517,12.933333333333339,113.79310344827587,10.88,114.82758620689656,10.88C115.86206896551724,10.88,116.89655172413794,16.96,117.93103448275862,16.96C118.96551724137932,16.96,120,8.266666666666666,121.0344827586207,8.266666666666666C122.06896551724138,8.266666666666666,123.10344827586208,8.293333333333333,124.13793103448276,8.346666666666668C125.17241379310344,8.400000000000002,126.20689655172414,10.142222222222223,127.24137931034483,11.760000000000002C128.27586206896552,13.37777777777778,129.3103448275862,18.053333333333335,130.3448275862069,18.053333333333335C131.3793103448276,18.053333333333335,132.41379310344828,17.10666666666668,133.44827586206898,16.133333333333333C134.48275862068965,15.160000000000002,135.51724137931035,12.213333333333335,136.55172413793102,12.213333333333335C137.58620689655172,12.213333333333335,138.6206896551724,16.315555555555548,139.6551724137931,17.919999999999998C140.6896551724138,19.524444444444434,141.72413793103448,21.840000000000003,142.75862068965517,21.840000000000003C143.79310344827587,21.840000000000003,144.82758620689654,21.288888888888888,145.86206896551724,21.04C146.89655172413794,20.79111111111111,147.9310344827586,20.346666666666664,148.9655172413793,20.346666666666664C150,20.346666666666664,151.0344827586207,22.90222222222221,152.0689655172414,24.186666666666667C153.10344827586206,25.4711111111111,154.13793103448276,28.053333333333335,155.17241379310343,28.053333333333335C156.20689655172413,28.053333333333335,157.24137931034483,27.759999999999998,158.27586206896552,27.626666666666665C159.31034482758622,27.493333333333332,160.3448275862069,27.253333333333334,161.3793103448276,27.253333333333334C162.41379310344828,27.253333333333334,163.44827586206895,27.413333333333334,164.48275862068965,27.413333333333334C165.51724137931035,27.413333333333334,166.55172413793102,26.240000000000002,167.58620689655172,26.240000000000002C168.6206896551724,26.240000000000002,169.6551724137931,26.284444444444446,170.6896551724138,26.373333333333335C171.7241379310345,26.462222222222223,172.75862068965517,26.506666666666668,173.79310344827587,26.773333333333333C174.82758620689657,27.04,175.86206896551724,31.520000000000003,176.89655172413794,31.520000000000003C177.93103448275863,31.520000000000003,178.9655172413793,29.2,180,26.879999999999995"></path><path class="axis-ceiling" stroke-width="1" stroke="black" fill="none" d="M175,0L180,0"></path><text class="axis-ceiling-label" font-family="sans-serif" text-anchor="end" font-size="10px" x="170" y="2.5">1500</text></g></svg>