<svg xmlns="http://www.w3.org/2000/svg" viewBox="0 0 180 60"><g transform="translate(0,20)"><path class="area" fill="rgba(0, 0, 0, 0.2)" d="M0,31.653333333333332C1.0169491525423728,31.36,2.0338983050847457,31.066666666666663,3.0508474576271185,31.066666666666663C4.067796610169491,31.066666666666663,5.084745762711864,31.066666666666663,6.101694915254237,31.066666666666663C7.11864406779661,31.066666666666663,8.135593220338983,30.986666666666665,9.152542372881356,30.986666666666665C10.169491525423728,30.986666666666665,11.186440677966102,31.306666666666665,12.203389830508474,31.306666666666665C13.220338983050846,31.306666666666665,14.23728813559322,30.62222222222222,15.254237288135592,30.4C16.271186440677965,30.177777777777777,17.28813559322034,30.253333333333337,18.305084745762713,29.973333333333336C19.322033898305087,29.693333333333335,20.338983050847457,29.00888888888889,21.35593220338983,28.72C22.372881355932204,28.431111111111107,23.389830508474574,28.439999999999998,24.406779661016948,28.24C25.423728813559322,28.04,26.440677966101696,27.791111111111107,27.45762711864407,27.519999999999996C28.47457627118644,27.248888888888885,29.491525423728813,27.008888888888887,30.508474576271183,26.613333333333333C31.525423728813557,26.21777777777778,32.54237288135593,25.560000000000002,33.559322033898304,25.14666666666667C34.57627118644068,24.733333333333334,35.59322033898305,24.346666666666668,36.610169491525426,24.133333333333333C37.6271186440678,23.919999999999998,38.644067796610166,23.933333333333334,39.66101694915254,23.813333333333333C40.67796610169491,23.69333333333333,41.69491525423729,23.68,42.71186440677966,23.41333333333333C43.728813559322035,23.146666666666665,44.7457627118644,21.502222222222215,45.762711864406775,20.986666666666665C46.77966101694915,20.471111111111114,47.79661016949152,20.586666666666673,48.813559322033896,20.21333333333334C49.83050847457627,19.840000000000003,50.847457627118644,19.16888888888889,51.86440677966102,18.746666666666666C52.88135593220339,18.324444444444442,53.898305084745765,18.14666666666667,54.91525423728814,17.68C55.93220338983051,17.213333333333335,56.94915254237288,16.34222222222222,57.96610169491525,15.946666666666665C58.983050847457626,15.55111111111111,59.99999999999999,15.653333333333334,61.01694915254237,15.306666666666668C62.03389830508474,14.960000000000003,63.05084745762712,13.866666666666667,64.0677966101695,13.866666666666667C65.08474576271186,13.866666666666667,66.10169491525424,14.079999999999998,67.11864406779661,14.079999999999998C68.13559322033899,14.079999999999998,69.15254237288136,12.026666666666667,70.16949152542374,11.813333333333333C71.1864406779661,11.6,72.20338983050848,11.70222222222222,73.22033898305085,11.493333333333332C74.23728813559322,11.284444444444444,75.2542372881356,10.56,76.27118644067797,10.56C77.28813559322033,10.56,78.30508474576271,10.853333333333332,79.32203389830508,10.906666666666665C80.33898305084746,10.959999999999997,81.35593220338983,10.933333333333332,82.37288135593221,10.986666666666665C83.38983050847457,11.039999999999997,84.40677966101696,11.973333333333333,85.42372881355932,11.973333333333333C86.4406779661017,11.973333333333333,87.45762711864407,11.786666666666665,88.47457627118645,11.786666666666665C89.49152542372882,11.786666666666665,90.50847457627118,13.226666666666667,91.52542372881355,13.226666666666667C92.54237288135593,13.226666666666667,93.55932203389831,12.991111111111111,94.57627118644069,12.906666666666666C95.59322033898306,12.822222222222223,96.61016949152543,12.719999999999999,97.62711864406779,12.719999999999999C98.64406779661016,12.719999999999999,99.66101694915254,12.986666666666666,100.6779661016949,12.986666666666666C101.69491525423729,12.986666666666666,102.71186440677965,12.693333333333335,103.72881355932203,12.693333333333335C104.7457627118644,12.693333333333335,105.76271186440678,12.862222222222224,106.77966101694915,12.933333333333334C107.79661016949153,13.004444444444443,108.8135593220339,13.066666666666665,109.83050847457628,13.119999999999997C110.84745762711864,13.17333333333333,111.86440677966102,13.164444444444444,112.88135593220339,13.253333333333334C113.89830508474576,13.342222222222224,114.91525423728814,14.573333333333334,115.9322033898305,15.2C116.94915254237289,15.826666666666668,117.96610169491525,16.506666666666668,118.98305084745763,17.013333333333335C120,17.52,121.01694915254237,17.88888888888889,122.03389830508473,18.24C123.05084745762711,18.59111111111111,124.0677966101695,18.693333333333328,125.08474576271188,19.119999999999997C126.10169491525424,19.546666666666663,127.11864406779662,20.15111111111111,128.135593220339,20.8C129.15254237288136,21.448888888888888,130.16949152542372,22.422222222222217,131.1864406779661,23.01333333333333C132.20338983050846,23.604444444444443,133.22033898305085,23.99111111111111,134.23728813559322,24.346666666666668C135.25423728813558,24.702222222222225,136.27118644067798,24.88888888888889,137.28813559322035,25.14666666666667C138.3050847457627,25.404444444444447,139.3220338983051,25.62666666666666,140.33898305084747,25.89333333333333C141.35593220338984,26.159999999999997,142.3728813559322,26.542222222222225,143.38983050847457,26.74666666666667C144.40677966101694,26.951111111111114,145.42372881355934,26.977777777777774,146.4406779661017,27.119999999999997C147.45762711864407,27.262222222222217,148.47457627118644,27.599999999999998,149.4915254237288,27.599999999999998C150.50847457627117,27.599999999999998,151.52542372881356,27.493333333333332,152.54237288135593,27.493333333333332C153.5593220338983,27.493333333333332,154.5762711864407,27.573333333333334,155.59322033898306,27.573333333333334C156.61016949152543,27.573333333333334,157.6271186440678,27.22666666666667,158.64406779661016,27.06666666666667C159.66101694915253,26.90666666666667,160.67796610169492,26.613333333333333,161.6949152542373,26.613333333333333C162.71186440677965,26.613333333333333,163.72881355932205,26.693333333333335,164.74576271186442,26.693333333333335C165.76271186440678,26.693333333333335,166.77966101694915,26.573333333333338,167.79661016949152,26.34666666666667C168.81355932203388,26.120000000000005,169.83050847457628,25.595555555555556,170.84745762711864,25.333333333333332C171.864406779661,25.071111111111108,172.8813559322034,24.968888888888888,173.89830508474577,24.773333333333333C174.91525423728814,24.57777777777778,175.93220338983053,24.342222222222222,176.9491525423729,24.16C177.96610169491527,23.977777777777778,178.98305084745763,23.82888888888889,180,23.680000000000003L180,40C178.98305084745763,40,177.96610169491527,40,176.9491525423729,40C175.93220338983053,40,174.91525423728814,40,173.89830508474577,40C172.8813559322034,40,171.864406779661,40,170.84745762711864,40C169.83050847457628,40,168.81355932203388,40,167.79661016949152,40C166.77966101694915,40,165.76271186440678,40,164.74576271186442,40C163.72881355932205,40,162.71186440677965,40,161.6949152542373,40C160.67796610169492,40,159.66101694915253,40,158.64406779661016,40C157.6271186440678,40,156.61016949152543,40,155.59322033898306,40C154.5762711864407,40,153.5593220338983,40,152.54237288135593,40C151.52542372881356,40,150.50847457627117,40,149.4915254237288,40C148.47457627118644,40,147.45762711864407,40,146.4406779661017,40C145.42372881355934,40,144.40677966101694,40,143.38983050847457,40C142.3728813559322,40,141.35593220338984,40,140.33898305084747,40C139.3220338983051,40,138.3050847457627,40,137.28813559322035,40C136.27118644067798,40,135.25423728813558,40,134.23728813559322,40C133.22033898305085,40,132.20338983050846,40,131.1864406779661,40C130.16949152542372,40,129.15254237288136,40,128.135593220339,40C127.11864406779662,40,126.10169491525424,40,125.08474576271188,40C124.0677966101695,40,123.05084745762711,40,122.03389830508473,40C121.01694915254237,40,120,40,118.98305084745763,40C117.96610169491525,40,116.94915254237289,40,115.9322033898305,40C114.91525423728814,40,113.89830508474576,40,112.88135593220339,40C111.86440677966102,40,110.84745762711864,40,109.83050847457628,40C108.8135593220339,40,107.79661016949153,40,106.77966101694915,40C105.76271186440678,40,104.7457627118644,40,103.72881355932203,40C102.71186440677965,40,101.69491525423729,40,100.6779661016949,40C99.66101694915254,40,98.64406779661016,40,97.62711864406779,40C96.61016949152543,40,95.59322033898306,40,94.57627118644069,40C93.55932203389831,40,92.54237288135593,40,91.52542372881355,40C90.50847457627118,40,89.49152542372882,40,88.47457627118645,40C87.45762711864407,40,86.4406779661017,40,85.42372881355932,40C84.40677966101696,40,83.38983050847457,40,82.37288135593221,40C81.35593220338983,40,80.33898305084746,40,79.32203389830508,40C78.30508474576271,40,77.28813559322033,40,76.27118644067797,40C75.2542372881356,40,74.23728813559322,40,73.22033898305085,40C72.20338983050848,40,71.1864406779661,40,70.16949152542374,40C69.15254237288136,40,68.13559322033899,40,67.11864406779661,40C66.10169491525424,40,65.08474576271186,40,64.0677966101695,40C63.05084745762712,40,62.03389830508474,40,61.01694915254237,40C59.99999999999999,40,58.983050847457626,40,57.96610169491525,40C56.94915254237288,40,55.93220338983051,40,54.91525423728814,40C53.898305084745765,40,52.88135593220339,40,51.86440677966102,40C50.847457627118644,40,49.83050847457627,40,48.813559322033896,40C47.79661016949152,40,46.77966101694915,40,45.762711864406775,40C44.7457627118644,40,43.728813559322035,40,42.71186440677966,40C41.69491525423729,40,40.67796610169491,40,39.66101694915254,40C38.644067796610166,40,37.6271186440678,40,36.610169491525426,40C35.59322033898305,40,34.57627118644068,40,33.559322033898304,40C32.54237288135593,40,31.525423728813557,40,30.508474576271183,40C29.491525423728813,40,28.47457627118644,40,27.45762711864407,40C26.440677966101696,40,25.423728813559322,40,24.406779661016948,40C23.389830508474574,40,22.372881355932204,40,21.35593220338983,40C20.338983050847457,40,19.322033898305087,40,18.305084745762713,40C17.28813559322034,40,16.271186440677965,40,15.254237288135592,40C14.23728813559322,40,13.220338983050846,40,12.203389830508474,40C11.186440677966102,40,10.169491525423728,40,9.152542372881356,40C8.135593220338983,40,7.11864406779661,40,6.101694915254237,40C5.084745762711864,40,4.067796610169491,40,3.0508474576271185,40C2.0338983050847457,40,1.0169491525423728,40,0,40Z"></path><path class="line" stroke="black" fill="none" d="M0,31.653333333333332C1.0169491525423728,31.36,2.0338983050847457,31.066666666666663,3.0508474576271185,31.066666666666663C4.067796610169491,31.066666666666663,5.084745762711864,31.066666666666663,6.101694915254237,31.066666666666663C7.11864406779661,31.066666666666663,8.135593220338983,30.986666666666665,9.152542372881356,30.986666666666665C10.169491525423728,30.986666666666665,11.186440677966102,31.306666666666665,12.203389830508474,31.306666666666665C13.220338983050846,31.306666666666665,14.23728813559322,30.62222222222222,15.254237288135592,30.4C16.271186440677965,30.177777777777777,17.28813559322034,30.253333333333337,18.305084745762713,29.973333333333336C19.322033898305087,29.693333333333335,20.338983050847457,29.00888888888889,21.35593220338983,28.72C22.372881355932204,28.431111111111107,23.389830508474574,28.439999999999998,24.406779661016948,28.24C25.423728813559322,28.04,26.440677966101696,27.791111111111107,27.45762711864407,27.519999999999996C28.47457627118644,27.248888888888885,29.491525423728813,27.008888888888887,30.508474576271183,26.613333333333333C31.525423728813557,26.21777777777778,32.54237288135593,25.560000000000002,33.559322033898304,25.14666666666667C34.57627118644068,24.733333333333334,35.59322033898305,24.346666666666668,36.610169491525426,24.133333333333333C37.6271186440678,23.919999999999998,38.644067796610166,23.933333333333334,39.66101694915254,23.813333333333333C40.67796610169491,23.69333333333333,41.69491525423729,23.68,42.71186440677966,23.41333333333333C43.728813559322035,23.146666666666665,44.7457627118644,21.502222222222215,45.762711864406775,20.986666666666665C46.77966101694915,20.471111111111114,47.79661016949152,20.586666666666673,48.813559322033896,20.21333333333334C49.83050847457627,19.840000000000003,50.847457627118644,19.16888888888889,51.86440677966102,18.746666666666666C52.88135593220339,18.324444444444442,53.898305084745765,18.14666666666667,54.91525423728814,17.68C55.93220338983051,17.213333333333335,56.94915254237288,16.34222222222222,57.96610169491525,15.946666666666665C58.983050847457626,15.55111111111111,59.99999999999999,15.653333333333334,61.01694915254237,15.306666666666668C62.03389830508474,14.960000000000003,63.05084745762712,13.866666666666667,64.0677966101695,13.866666666666667C65.08474576271186,13.866666666666667,66.10169491525424,14.079999999999998,67.11864406779661,14.079999999999998C68.13559322033899,14.079999999999998,69.15254237288136,12.026666666666667,70.16949152542374,11.813333333333333C71.1864406779661,11.6,72.20338983050848,11.70222222222222,73.22033898305085,11.493333333333332C74.23728813559322,11.284444444444444,75.2542372881356,10.56,76.27118644067797,10.56C77.28813559322033,10.56,78.30508474576271,10.853333333333332,79.32203389830508,10.906666666666665C80.33898305084746,10.959999999999997,81.35593220338983,10.933333333333332,82.37288135593221,10.986666666666665C83.38983050847457,11.039999999999997,84.40677966101696,11.973333333333333,85.42372881355932,11.973333333333333C86.4406779661017,11.973333333333333,87.45762711864407,11.786666666666665,88.47457627118645,11.786666666666665C89.49152542372882,11.786666666666665,90.50847457627118,13.226666666666667,91.52542372881355,13.226666666666667C92.54237288135593,13.226666666666667,93.55932203389831,12.991111111111111,94.57627118644069,12.906666666666666C95.59322033898306,12.822222222222223,96.61016949152543,12.719999999999999,97.62711864406779,12.719999999999999C98.64406779661016,12.719999999999999,99.66101694915254,12.986666666666666,100.6779661016949,12.986666666666666C101.69491525423729,12.986666666666666,102.71186440677965,12.693333333333335,103.72881355932203,12.693333333333335C104.7457627118644,12.693333333333335,105.76271186440678,12.862222222222224,106.77966101694915,12.933333333333334C107.79661016949153,13.004444444444443,108.8135593220339,13.066666666666665,109.83050847457628,13.119999999999997C110.84745762711864,13.17333333333333,111.86440677966102,13.164444444444444,112.88135593220339,13.253333333333334C113.89830508474576,13.342222222222224,114.91525423728814,14.573333333333334,115.9322033898305,15.2C116.94915254237289,15.826666666666668,117.96610169491525,16.506666666666668,118.98305084745763,17.013333333333335C120,17.52,121.01694915254237,17.88888888888889,122.03389830508473,18.24C123.05084745762711,18.59111111111111,124.0677966101695,18.693333333333328,125.08474576271188,19.119999999999997C126.10169491525424,19.546666666666663,127.11864406779662,20.15111111111111,128.135593220339,20.8C129.15254237288136,21.448888888888888,130.16949152542372,22.422222222222217,131.1864406779661,23.01333333333333C132.20338983050846,23.604444444444443,133.22033898305085,23.99111111111111,134.23728813559322,24.346666666666668C135.25423728813558,24.702222222222225,136.27118644067798,24.88888888888889,137.28813559322035,25.14666666666667C138.3050847457627,25.404444444444447,139.3220338983051,25.62666666666666,140.33898305084747,25.89333333333333C141.35593220338984,26.159999999999997,142.3728813559322,26.542222222222225,143.38983050847457,26.74666666666667C144.40677966101694,26.951111111111114,145.42372881355934,26.977777777777774,146.4406779661017,27.119999999999997C147.45762711864407,27.262222222222217,148.47457627118644,27.599999999999998,149.4915254237288,27.599999999999998C150.50847457627117,27.599999999999998,151.52542372881356,27.493333333333332,152.54237288135593,27.493333333333332C153.5593220338983,27.493333333333332,154.5762711864407,27.573333333333334,155.59322033898306,27.573333333333334C156.61016949152543,27.573333333333334,157.6271186440678,27.22666666666667,158.64406779661016,27.06666666666667C159.66101694915253,26.90666666666667,160.67796610169492,26.613333333333333,161.6949152542373,26.613333333333333C162.71186440677965,26.613333333333333,163.72881355932205,26.693333333333335,164.74576271186442,26.693333333333335C165.76271186440678,26.693333333333335,166.77966101694915,26.573333333333338,167.79661016949152,26.34666666666667C168.81355932203388,26.120000000000005,169.83050847457628,25.595555555555556,170.84745762711864,25.333333333333332C171.864406779661,25.071111111111108,172.8813559322034,24.968888888888888,173.89830508474577,24.773333333333333C174.91525423728814,24.57777777777778,175.93220338983053,24.342222222222222,176.9491525423729,24.16C177.96610169491527,23.977777777777778,178.98305084745763,23.82888888888889,180,23.680000000000003"></path><path class="axis-ceiling" stroke-width="1" stroke="black" fill="none" d="M175,0L180,0"></path><text class="axis-ceiling-label" font-family="sans-serif" text-anchor="end" font-size="10px" x="170" y="2.5">1500</text></g></svg>