<svg xmlns="http://www.w3.org/2000/svg" viewBox="0 0 180 60"><g transform="translate(0,20)"><path class="area" fill="rgba(0, 0, 0, 0.2)" d="M0,38.8C1.0344827586206897,39.1,2.068965517241379,39.4,3.103448275862069,39.6C4.137931034482759,39.800000000000004,5.172413793103448,40,6.206896551724138,40C7.241379310344827,40,8.275862068965516,40,9.310344827586206,40C10.344827586206897,40,11.379310344827585,40,12.413793103448276,40C13.448275862068966,40,14.482758620689655,40,15.517241379310345,40C16.551724137931036,40,17.586206896551722,40,18.620689655172413,40C19.655172413793103,40,20.689655172413794,40,21.724137931034484,40C22.758620689655174,40,23.79310344827586,40,24.82758620689655,40C25.862068965517242,40,26.896551724137932,40,27.931034482758623,40C28.965517241379313,40,30,40,31.03448275862069,40C32.06896551724138,40,33.103448275862064,40,34.137931034482754,40C35.172413793103445,40,36.206896551724135,40,37.241379310344826,40C38.275862068965516,40,39.310344827586206,40,40.3448275862069,40C41.37931034482759,40,42.41379310344828,40,43.44827586206897,40C44.48275862068966,40,45.51724137931035,39.53333333333334,46.55172413793104,39.2C47.58620689655173,38.86666666666667,48.62068965517241,38,49.6551724137931,38C50.689655172413794,38,51.72413793103448,39.2,52.75862068965517,39.2C53.79310344827586,39.2,54.827586206896555,36.4,55.862068965517246,36.4C56.896551724137936,36.4,57.93103448275862,38.4,58.96551724137931,38.4C60,38.4,61.03448275862069,38.4,62.06896551724138,38.4C63.10344827586207,38.4,64.13793103448276,37.53333333333333,65.17241379310344,37.199999999999996C66.20689655172413,36.86666666666666,67.24137931034483,36.93333333333333,68.27586206896551,36.4C69.3103448275862,35.86666666666667,70.34482758620689,33.33333333333334,71.37931034482759,32.800000000000004C72.41379310344827,32.266666666666666,73.44827586206897,32.333333333333336,74.48275862068965,32C75.51724137931033,31.666666666666668,76.55172413793103,30.8,77.58620689655172,30.8C78.62068965517241,30.8,79.6551724137931,40,80.6896551724138,40C81.72413793103448,40,82.75862068965517,25.866666666666656,83.79310344827586,24C84.82758620689656,22.133333333333336,85.86206896551724,21.200000000000003,86.89655172413794,21.200000000000003C87.93103448275862,21.200000000000003,88.96551724137932,28.4,90,28.4C91.0344827586207,28.4,92.06896551724138,23.6,93.10344827586208,23.6C94.13793103448276,23.6,95.17241379310344,34.8,96.20689655172413,34.8C97.24137931034483,34.8,98.27586206896551,18,99.3103448275862,18C100.3448275862069,18,101.37931034482759,23.6,102.41379310344828,23.6C103.44827586206897,23.6,104.48275862068965,9.6,105.51724137931033,9.6C106.55172413793103,9.6,107.58620689655172,22,108.62068965517241,22C109.65517241379311,22,110.6896551724138,16,111.72413793103449,16C112.75862068965517,16,113.79310344827587,25.6,114.82758620689656,25.6C115.86206896551724,25.6,116.89655172413794,20.799999999999997,117.93103448275862,20C118.96551724137932,19.2,120,19.599999999999998,121.0344827586207,18.799999999999997C122.06896551724138,18,123.10344827586208,10,124.13793103448276,10C125.17241379310344,10,126.20689655172414,29.2,127.24137931034483,29.2C128.27586206896552,29.2,129.3103448275862,14,130.3448275862069,14C131.3793103448276,14,132.41379310344828,33.19999999999997,133.44827586206898,34.8C134.48275862068965,36.4,135.51724137931035,37.199999999999996,136.55172413793102,37.199999999999996C137.58620689655172,37.199999999999996,138.6206896551724,28,139.6551724137931,28C140.6896551724138,28,141.72413793103448,31.6,142.75862068965517,31.6C143.79310344827587,31.6,144.82758620689654,27.066666666666666,145.86206896551724,25.2C146.89655172413794,23.333333333333332,147.9310344827586,20.4,148.9655172413793,20.4C150,20.4,151.0344827586207,26,152.0689655172414,26C153.10344827586206,26,154.13793103448276,20.8,155.17241379310343,20.8C156.20689655172413,20.8,157.24137931034483,29.46666666666667,158.27586206896552,32.400000000000006C159.31034482758622,35.333333333333314,160.3448275862069,38.13333333333333,161.3793103448276,38.4C162.41379310344828,38.666666666666664,163.44827586206895,38.53333333333333,164.48275862068965,38.8C165.51724137931035,39.06666666666666,166.55172413793102,40,167.58620689655172,40C168.6206896551724,40,169.6551724137931,20,170.6896551724138,20C171.7241379310345,20,172.75862068965517,25.13333333333333,173.79310344827587,26.799999999999997C174.82758620689657,28.466666666666665,175.86206896551724,29.066666666666666,176.89655172413794,30C177.93103448275863,30.933333333333334,178.9655172413793,31.66666666666667,180,32.400000000000006L180,40C178.9655172413793,40,177.93103448275863,40,176.89655172413794,40C175.86206896551724,40,174.82758620689657,40,173.79310344827587,40C172.75862068965517,40,171.7241379310345,40,170.6896551724138,40C169.6551724137931,40,168.6206896551724,40,167.58620689655172,40C166.55172413793102,40,165.51724137931035,40,164.48275862068965,40C163.44827586206895,40,162.41379310344828,40,161.3793103448276,40C160.3448275862069,40,159.31034482758622,40,158.27586206896552,40C157.24137931034483,40,156.20689655172413,40,155.17241379310343,40C154.13793103448276,40,153.10344827586206,40,152.0689655172414,40C151.0344827586207,40,150,40,148.9655172413793,40C147.9310344827586,40,146.89655172413794,40,145.86206896551724,40C144.82758620689654,40,143.79310344827587,40,142.75862068965517,40C141.72413793103448,40,140.6896551724138,40,139.6551724137931,40C138.6206896551724,40,137.58620689655172,40,136.55172413793102,40C135.51724137931035,40,134.48275862068965,40,133.44827586206898,40C132.41379310344828,40,131.3793103448276,40,130.3448275862069,40C129.3103448275862,40,128.27586206896552,40,127.24137931034483,40C126.20689655172414,40,125.17241379310344,40,124.13793103448276,40C123.10344827586208,40,122.06896551724138,40,121.0344827586207,40C120,40,118.96551724137932,40,117.93103448275862,40C116.89655172413794,40,115.86206896551724,40,114.82758620689656,40C113.79310344827587,40,112.75862068965517,40,111.72413793103449,40C110.6896551724138,40,109.65517241379311,40,108.62068965517241,40C107.58620689655172,40,106.55172413793103,40,105.51724137931033,40C104.48275862068965,40,103.44827586206897,40,102.41379310344828,40C101.37931034482759,40,100.3448275862069,40,99.3103448275862,40C98.27586206896551,40,97.24137931034483,40,96.20689655172413,40C95.17241379310344,40,94.13793103448276,40,93.10344827586208,40C92.06896551724138,40,91.0344827586207,40,90,40C88.96551724137932,40,87.93103448275862,40,86.89655172413794,40C85.86206896551724,40,84.82758620689656,40,83.79310344827586,40C82.75862068965517,40,81.72413793103448,40,80.6896551724138,40C79.6551724137931,40,78.62068965517241,40,77.58620689655172,40C76.55172413793103,40,75.51724137931033,40,74.48275862068965,40C73.44827586206897,40,72.41379310344827,40,71.37931034482759,40C70.34482758620689,40,69.3103448275862,40,68.27586206896551,40C67.24137931034483,40,66.20689655172413,40,65.17241379310344,40C64.13793103448276,40,63.10344827586207,40,62.06896551724138,40C61.03448275862069,40,60,40,58.96551724137931,40C57.93103448275862,40,56.896551724137936,40,55.862068965517246,40C54.827586206896555,40,53.79310344827586,40,52.75862068965517,40C51.72413793103448,40,50.689655172413794,40,49.6551724137931,40C48.62068965517241,40,47.58620689655173,40,46.55172413793104,40C45.51724137931035,40,44.48275862068966,40,43.44827586206897,40C42.41379310344828,40,41.37931034482759,40,40.3448275862069,40C39.310344827586206,40,38.275862068965516,40,37.241379310344826,40C36.206896551724135,40,35.172413793103445,40,34.137931034482754,40C33.103448275862064,40,32.06896551724138,40,31.03448275862069,40C30,40,28.965517241379313,40,27.931034482758623,40C26.896551724137932,40,25.862068965517242,40,24.82758620689655,40C23.79310344827586,40,22.758620689655174,40,21.724137931034484,40C20.689655172413794,40,19.655172413793103,40,18.620689655172413,40C17.586206896551722,40,16.551724137931036,40,15.517241379310345,40C14.482758620689655,40,13.448275862068966,40,12.413793103448276,40C11.379310344827585,40,10.344827586206897,40,9.310344827586206,40C8.275862068965516,40,7.241379310344827,40,6.206896551724138,40C5.172413793103448,40,4.137931034482759,40,3.103448275862069,40C2.068965517241379,40,1.0344827586206897,40,0,40Z"></path><path class="line" stroke="black" fill="none" d="M0,38.8C1.0344827586206897,39.1,2.068965517241379,39.4,3.103448275862069,39.6C4.137931034482759,39.800000000000004,5.172413793103448,40,6.206896551724138,40C7.241379310344827,40,8.275862068965516,40,9.310344827586206,40C10.344827586206897,40,11.379310344827585,40,12.413793103448276,40C13.448275862068966,40,14.482758620689655,40,15.517241379310345,40C16.551724137931036,40,17.586206896551722,40,18.620689655172413,40C19.655172413793103,40,20.689655172413794,40,21.724137931034484,40C22.758620689655174,40,23.79310344827586,40,24.82758620689655,40C25.862068965517242,40,26.896551724137932,40,27.931034482758623,40C28.965517241379313,40,30,40,31.03448275862069,40C32.06896551724138,40,33.103448275862064,40,34.137931034482754,40C35.172413793103445,40,36.206896551724135,40,37.241379310344826,40C38.275862068965516,40,39.310344827586206,40,40.3448275862069,40C41.37931034482759,40,42.41379310344828,40,43.44827586206897,40C44.48275862068966,40,45.51724137931035,39.53333333333334,46.55172413793104,39.2C47.58620689655173,38.86666666666667,48.62068965517241,38,49.6551724137931,38C50.689655172413794,38,51.72413793103448,39.2,52.75862068965517,39.2C53.79310344827586,39.2,54.827586206896555,36.4,55.862068965517246,36.4C56.896551724137936,36.4,57.93103448275862,38.4,58.96551724137931,38.4C60,38.4,61.03448275862069,38.4,62.06896551724138,38.4C63.10344827586207,38.4,64.13793103448276,37.53333333333333,65.17241379310344,37.199999999999996C66.20689655172413,36.86666666666666,67.24137931034483,36.93333333333333,68.27586206896551,36.4C69.3103448275862,35.86666666666667,70.34482758620689,33.33333333333334,71.37931034482759,32.800000000000004C72.41379310344827,32.266666666666666,73.44827586206897,32.333333333333336,74.48275862068965,32C75.51724137931033,31.666666666666668,76.55172413793103,30.8,77.58620689655172,30.8C78.62068965517241,30.8,79.6551724137931,40,80.6896551724138,40C81.72413793103448,40,82.75862068965517,25.866666666666656,83.79310344827586,24C84.82758620689656,22.133333333333336,85.86206896551724,21.200000000000003,86.89655172413794,21.200000000000003C87.93103448275862,21.200000000000003,88.96551724137932,28.4,90,28.4C91.0344827586207,28.4,92.06896551724138,23.6,93.10344827586208,23.6C94.13793103448276,23.6,95.17241379310344,34.8,96.20689655172413,34.8C97.24137931034483,34.8,98.27586206896551,18,99.3103448275862,18C100.3448275862069,18,101.37931034482759,23.6,102.41379310344828,23.6C103.44827586206897,23.6,104.48275862068965,9.6,105.51724137931033,9.6C106.55172413793103,9.6,107.58620689655172,22,108.62068965517241,22C109.65517241379311,22,110.6896551724138,16,111.72413793103449,16C112.75862068965517,16,113.79310344827587,25.6,114.82758620689656,25.6C115.86206896551724,25.6,116.89655172413794,20.799999999999997,117.93103448275862,20C118.96551724137932,19.2,120,19.599999999999998,121.0344827586207,18.799999999999997C122.06896551724138,18,123.10344827586208,10,124.13793103448276,10C125.17241379310344,10,126.20689655172414,29.2,127.24137931034483,29.2C128.27586206896552,29.2,129.3103448275862,14,130.3448275862069,14C131.3793103448276,14,132.41379310344828,33.19999999999997,133.44827586206898,34.8C134.48275862068965,36.4,135.51724137931035,37.199999999999996,136.55172413793102,37.199999999999996C137.58620689655172,37.199999999999996,138.6206896551724,28,139.6551724137931,28C140.6896551724138,28,141.72413793103448,31.6,142.75862068965517,31.6C143.79310344827587,31.6,144.82758620689654,27.066666666666666,145.86206896551724,25.2C146.89655172413794,23.333333333333332,147.9310344827586,20.4,148.9655172413793,20.4C150,20.4,151.0344827586207,26,152.0689655172414,26C153.10344827586206,26,154.13793103448276,20.8,155.17241379310343,20.8C156.20689655172413,20.8,157.24137931034483,29.46666666666667,158.27586206896552,32.400000000000006C159.31034482758622,35.333333333333314,160.3448275862069,38.13333333333333,161.3793103448276,38.4C162.41379310344828,38.666666666666664,163.44827586206895,38.53333333333333,164.48275862068965,38.8C165.51724137931035,39.06666666666666,166.55172413793102,40,167.58620689655172,40C168.6206896551724,40,169.6551724137931,20,170.6896551724138,20C171.7241379310345,20,172.75862068965517,25.13333333333333,173.79310344827587,26.799999999999997C174.82758620689657,28.466666666666665,175.86206896551724,29.066666666666666,176.89655172413794,30C177.93103448275863,30.933333333333334,178.9655172413793,31.66666666666667,180,32.400000000000006"></path><path class="axis-ceiling" stroke-width="1" stroke="black" fill="none" d="M175,0L180,0"></path><text class="axis-ceiling-label" font-family="sans-serif" text-anchor="end" font-size="10px" x="170" y="2.5">100</text></g></svg>