<svg xmlns="http://www.w3.org/2000/svg" viewBox="0 0 180 60"><g transform="translate(0,20)"><path class="area" fill="rgba(0, 0, 0, 0.2)" d="M0,37.333333333333336C1.0169491525423728,37.333333333333336,2.0338983050847457,37.333333333333336,3.0508474576271185,37.333333333333336C4.067796610169491,37.333333333333336,5.084745762711864,36.14814814814815,6.101694915254237,35.55555555555556C7.11864406779661,34.96296296296296,8.135593220338983,33.77777777777778,9.152542372881356,33.77777777777778C10.169491525423728,33.77777777777778,11.186440677966102,34.66666666666667,12.203389830508474,34.66666666666667C13.220338983050846,34.66666666666667,14.23728813559322,32.888888888888886,15.254237288135592,32.888888888888886C16.271186440677965,32.888888888888886,17.28813559322034,32.888888888888886,18.305084745762713,32.888888888888886C19.322033898305087,32.888888888888886,20.338983050847457,32.888888888888886,21.35593220338983,32.888888888888886C22.372881355932204,32.888888888888886,23.389830508474574,32,24.406779661016948,32C25.423728813559322,32,26.440677966101696,33.18518518518518,27.45762711864407,33.77777777777778C28.47457627118644,34.370370370370374,29.491525423728813,35.55555555555556,30.508474576271183,35.55555555555556C31.525423728813557,35.55555555555556,32.54237288135593,35.55555555555556,33.559322033898304,35.55555555555556C34.57627118644068,35.55555555555556,35.59322033898305,36.44444444444444,36.610169491525426,36.44444444444444C37.6271186440678,36.44444444444444,38.644067796610166,36.44444444444444,39.66101694915254,36.44444444444444C40.67796610169491,36.44444444444444,41.69491525423729,36.44444444444444,42.71186440677966,36.44444444444444C43.728813559322035,36.44444444444444,44.7457627118644,37.333333333333336,45.762711864406775,37.333333333333336C46.77966101694915,37.333333333333336,47.79661016949152,37.333333333333336,48.813559322033896,37.333333333333336C49.83050847457627,37.333333333333336,50.847457627118644,37.333333333333336,51.86440677966102,37.333333333333336C52.88135593220339,37.333333333333336,53.898305084745765,37.333333333333336,54.91525423728814,37.333333333333336C55.93220338983051,37.333333333333336,56.94915254237288,38.22222222222222,57.96610169491525,38.22222222222222C58.983050847457626,38.22222222222222,59.99999999999999,38.22222222222222,61.01694915254237,38.22222222222222C62.03389830508474,38.22222222222222,63.05084745762712,37.333333333333336,64.0677966101695,37.333333333333336C65.08474576271186,37.333333333333336,66.10169491525424,37.333333333333336,67.11864406779661,37.333333333333336C68.13559322033899,37.333333333333336,69.15254237288136,38.22222222222222,70.16949152542374,38.22222222222222C71.1864406779661,38.22222222222222,72.20338983050848,38.22222222222222,73.22033898305085,38.22222222222222C74.23728813559322,38.22222222222222,75.2542372881356,38.22222222222222,76.27118644067797,38.22222222222222C77.28813559322033,38.22222222222222,78.30508474576271,38.22222222222222,79.32203389830508,38.22222222222222C80.33898305084746,38.22222222222222,81.35593220338983,38.22222222222222,82.37288135593221,38.22222222222222C83.38983050847457,38.22222222222222,84.40677966101696,40,85.42372881355932,40C86.4406779661017,40,87.45762711864407,40,88.47457627118645,40C89.49152542372882,40,90.50847457627118,40,91.52542372881355,40C92.54237288135593,40,93.55932203389831,40,94.57627118644069,40C95.59322033898306,40,96.61016949152543,39.11111111111111,97.62711864406779,39.11111111111111C98.64406779661016,39.11111111111111,99.66101694915254,39.11111111111111,100.6779661016949,39.11111111111111C101.69491525423729,39.11111111111111,102.71186440677965,38.22222222222222,103.72881355932203,38.22222222222222C104.7457627118644,38.22222222222222,105.76271186440678,38.22222222222222,106.77966101694915,38.22222222222222C107.79661016949153,38.22222222222222,108.8135593220339,37.333333333333336,109.83050847457628,37.333333333333336C110.84745762711864,37.333333333333336,111.86440677966102,37.333333333333336,112.88135593220339,37.333333333333336C113.89830508474576,37.333333333333336,114.91525423728814,36.44444444444444,115.9322033898305,36.44444444444444C116.94915254237289,36.44444444444444,117.96610169491525,37.333333333333336,118.98305084745763,37.333333333333336C120,37.333333333333336,121.01694915254237,35.55555555555556,122.03389830508473,35.55555555555556C123.05084745762711,35.55555555555556,124.0677966101695,36.44444444444444,125.08474576271188,36.44444444444444C126.10169491525424,36.44444444444444,127.11864406779662,36,128.135593220339,35.55555555555556C129.15254237288136,35.111111111111114,130.16949152542372,33.77777777777778,131.1864406779661,33.77777777777778C132.20338983050846,33.77777777777778,133.22033898305085,33.77777777777778,134.23728813559322,33.77777777777778C135.25423728813558,33.77777777777778,136.27118644067798,32.888888888888886,137.28813559322035,32C138.3050847457627,31.11111111111111,139.3220338983051,29.037037037037045,140.33898305084747,28.444444444444446C141.35593220338984,27.851851851851855,142.3728813559322,28.14814814814815,143.38983050847457,27.555555555555557C144.40677966101694,26.96296296296296,145.42372881355934,25.03703703703704,146.4406779661017,24C147.45762711864407,22.96296296296297,148.47457627118644,22.814814814814802,149.4915254237288,21.333333333333332C150.50847457627117,19.851851851851848,151.52542372881356,17.037037037037038,152.54237288135593,15.11111111111111C153.5593220338983,13.185185185185185,154.5762711864407,10.370370370370377,155.59322033898306,9.777777777777779C156.61016949152543,9.185185185185185,157.6271186440678,9.33333333333333,158.64406779661016,8.88888888888889C159.66101694915253,8.444444444444445,160.67796610169492,7.555555555555557,161.6949152542373,7.1111111111111125C162.71186440677965,6.666666666666668,163.72881355932205,6.814814814814816,164.74576271186442,6.222222222222222C165.76271186440678,5.629629629629634,166.77966101694915,4.296296296296295,167.79661016949152,3.5555555555555562C168.81355932203388,2.8148148148148104,169.83050847457628,1.777777777777776,170.84745762711864,1.777777777777776C171.864406779661,1.777777777777776,172.8813559322034,6.518518518518522,173.89830508474577,7.1111111111111125C174.91525423728814,7.703703703703703,175.93220338983053,7.407407407407407,176.9491525423729,7.999999999999998C177.96610169491527,8.592592592592583,178.98305084745763,9.629629629629626,180,10.666666666666668L180,40C178.98305084745763,40,177.96610169491527,40,176.9491525423729,40C175.93220338983053,40,174.91525423728814,40,173.89830508474577,40C172.8813559322034,40,171.864406779661,40,170.84745762711864,40C169.83050847457628,40,168.81355932203388,40,167.79661016949152,40C166.77966101694915,40,165.76271186440678,40,164.74576271186442,40C163.72881355932205,40,162.71186440677965,40,161.6949152542373,40C160.67796610169492,40,159.66101694915253,40,158.64406779661016,40C157.6271186440678,40,156.61016949152543,40,155.59322033898306,40C154.5762711864407,40,153.5593220338983,40,152.54237288135593,40C151.52542372881356,40,150.50847457627117,40,149.4915254237288,40C148.47457627118644,40,147.45762711864407,40,146.4406779661017,40C145.42372881355934,40,144.40677966101694,40,143.38983050847457,40C142.3728813559322,40,141.35593220338984,40,140.33898305084747,40C139.3220338983051,40,138.3050847457627,40,137.28813559322035,40C136.27118644067798,40,135.25423728813558,40,134.23728813559322,40C133.22033898305085,40,132.20338983050846,40,131.1864406779661,40C130.16949152542372,40,129.15254237288136,40,128.135593220339,40C127.11864406779662,40,126.10169491525424,40,125.08474576271188,40C124.0677966101695,40,123.05084745762711,40,122.03389830508473,40C121.01694915254237,40,120,40,118.98305084745763,40C117.96610169491525,40,116.94915254237289,40,115.9322033898305,40C114.91525423728814,40,113.89830508474576,40,112.88135593220339,40C111.86440677966102,40,110.84745762711864,40,109.83050847457628,40C108.8135593220339,40,107.79661016949153,40,106.77966101694915,40C105.76271186440678,40,104.7457627118644,40,103.72881355932203,40C102.71186440677965,40,101.69491525423729,40,100.6779661016949,40C99.66101694915254,40,98.64406779661016,40,97.62711864406779,40C96.61016949152543,40,95.59322033898306,40,94.57627118644069,40C93.55932203389831,40,92.54237288135593,40,91.52542372881355,40C90.50847457627118,40,89.49152542372882,40,88.47457627118645,40C87.45762711864407,40,86.4406779661017,40,85.42372881355932,40C84.40677966101696,40,83.38983050847457,40,82.37288135593221,40C81.35593220338983,40,80.33898305084746,40,79.32203389830508,40C78.30508474576271,40,77.28813559322033,40,76.27118644067797,40C75.2542372881356,40,74.23728813559322,40,73.22033898305085,40C72.20338983050848,40,71.1864406779661,40,70.16949152542374,40C69.15254237288136,40,68.13559322033899,40,67.11864406779661,40C66.10169491525424,40,65.08474576271186,40,64.0677966101695,40C63.05084745762712,40,62.03389830508474,40,61.01694915254237,40C59.99999999999999,40,58.983050847457626,40,57.96610169491525,40C56.94915254237288,40,55.93220338983051,40,54.91525423728814,40C53.898305084745765,40,52.88135593220339,40,51.86440677966102,40C50.847457627118644,40,49.83050847457627,40,48.813559322033896,40C47.79661016949152,40,46.77966101694915,40,45.762711864406775,40C44.7457627118644,40,43.728813559322035,40,42.71186440677966,40C41.69491525423729,40,40.67796610169491,40,39.66101694915254,40C38.644067796610166,40,37.6271186440678,40,36.610169491525426,40C35.59322033898305,40,34.57627118644068,40,33.559322033898304,40C32.54237288135593,40,31.525423728813557,40,30.508474576271183,40C29.491525423728813,40,28.47457627118644,40,27.45762711864407,40C26.440677966101696,40,25.423728813559322,40,24.406779661016948,40C23.389830508474574,40,22.372881355932204,40,21.35593220338983,40C20.338983050847457,40,19.322033898305087,40,18.305084745762713,40C17.28813559322034,40,16.271186440677965,40,15.254237288135592,40C14.23728813559322,40,13.220338983050846,40,12.203389830508474,40C11.186440677966102,40,10.169491525423728,40,9.152542372881356,40C8.135593220338983,40,7.11864406779661,40,6.101694915254237,40C5.084745762711864,40,4.067796610169491,40,3.0508474576271185,40C2.0338983050847457,40,1.0169491525423728,40,0,40Z"></path><path class="line" stroke="black" fill="none" d="M0,37.333333333333336C1.0169491525423728,37.333333333333336,2.0338983050847457,37.333333333333336,3.0508474576271185,37.333333333333336C4.067796610169491,37.333333333333336,5.084745762711864,36.14814814814815,6.101694915254237,35.55555555555556C7.11864406779661,34.96296296296296,8.135593220338983,33.77777777777778,9.152542372881356,33.77777777777778C10.169491525423728,33.77777777777778,11.186440677966102,34.66666666666667,12.203389830508474,34.66666666666667C13.220338983050846,34.66666666666667,14.23728813559322,32.888888888888886,15.254237288135592,32.888888888888886C16.271186440677965,32.888888888888886,17.28813559322034,32.888888888888886,18.305084745762713,32.888888888888886C19.322033898305087,32.888888888888886,20.338983050847457,32.888888888888886,21.35593220338983,32.888888888888886C22.372881355932204,32.888888888888886,23.389830508474574,32,24.406779661016948,32C25.423728813559322,32,26.440677966101696,33.18518518518518,27.45762711864407,33.77777777777778C28.47457627118644,34.370370370370374,29.491525423728813,35.55555555555556,30.508474576271183,35.55555555555556C31.525423728813557,35.55555555555556,32.54237288135593,35.55555555555556,33.559322033898304,35.55555555555556C34.57627118644068,35.55555555555556,35.59322033898305,36.44444444444444,36.610169491525426,36.44444444444444C37.6271186440678,36.44444444444444,38.644067796610166,36.44444444444444,39.66101694915254,36.44444444444444C40.67796610169491,36.44444444444444,41.69491525423729,36.44444444444444,42.71186440677966,36.44444444444444C43.728813559322035,36.44444444444444,44.7457627118644,37.333333333333336,45.762711864406775,37.333333333333336C46.77966101694915,37.333333333333336,47.79661016949152,37.333333333333336,48.813559322033896,37.333333333333336C49.83050847457627,37.333333333333336,50.847457627118644,37.333333333333336,51.86440677966102,37.333333333333336C52.88135593220339,37.333333333333336,53.898305084745765,37.333333333333336,54.91525423728814,37.333333333333336C55.93220338983051,37.333333333333336,56.94915254237288,38.22222222222222,57.96610169491525,38.22222222222222C58.983050847457626,38.22222222222222,59.99999999999999,38.22222222222222,61.01694915254237,38.22222222222222C62.03389830508474,38.22222222222222,63.05084745762712,37.333333333333336,64.0677966101695,37.333333333333336C65.08474576271186,37.333333333333336,66.10169491525424,37.333333333333336,67.11864406779661,37.333333333333336C68.13559322033899,37.333333333333336,69.15254237288136,38.22222222222222,70.16949152542374,38.22222222222222C71.1864406779661,38.22222222222222,72.20338983050848,38.22222222222222,73.22033898305085,38.22222222222222C74.23728813559322,38.22222222222222,75.2542372881356,38.22222222222222,76.27118644067797,38.22222222222222C77.28813559322033,38.22222222222222,78.30508474576271,38.22222222222222,79.32203389830508,38.22222222222222C80.33898305084746,38.22222222222222,81.35593220338983,38.22222222222222,82.37288135593221,38.22222222222222C83.38983050847457,38.22222222222222,84.40677966101696,40,85.42372881355932,40C86.4406779661017,40,87.45762711864407,40,88.47457627118645,40C89.49152542372882,40,90.50847457627118,40,91.52542372881355,40C92.54237288135593,40,93.55932203389831,40,94.57627118644069,40C95.59322033898306,40,96.61016949152543,39.11111111111111,97.62711864406779,39.11111111111111C98.64406779661016,39.11111111111111,99.66101694915254,39.11111111111111,100.6779661016949,39.11111111111111C101.69491525423729,39.11111111111111,102.71186440677965,38.22222222222222,103.72881355932203,38.22222222222222C104.7457627118644,38.22222222222222,105.76271186440678,38.22222222222222,106.77966101694915,38.22222222222222C107.79661016949153,38.22222222222222,108.8135593220339,37.333333333333336,109.83050847457628,37.333333333333336C110.84745762711864,37.333333333333336,111.86440677966102,37.333333333333336,112.88135593220339,37.333333333333336C113.89830508474576,37.333333333333336,114.91525423728814,36.44444444444444,115.9322033898305,36.44444444444444C116.94915254237289,36.44444444444444,117.96610169491525,37.333333333333336,118.98305084745763,37.333333333333336C120,37.333333333333336,121.01694915254237,35.55555555555556,122.03389830508473,35.55555555555556C123.05084745762711,35.55555555555556,124.0677966101695,36.44444444444444,125.08474576271188,36.44444444444444C126.10169491525424,36.44444444444444,127.11864406779662,36,128.135593220339,35.55555555555556C129.15254237288136,35.111111111111114,130.16949152542372,33.77777777777778,131.1864406779661,33.77777777777778C132.20338983050846,33.77777777777778,133.22033898305085,33.77777777777778,134.23728813559322,33.77777777777778C135.25423728813558,33.77777777777778,136.27118644067798,32.888888888888886,137.28813559322035,32C138.3050847457627,31.11111111111111,139.3220338983051,29.037037037037045,140.33898305084747,28.444444444444446C141.35593220338984,27.851851851851855,142.3728813559322,28.14814814814815,143.38983050847457,27.555555555555557C144.40677966101694,26.96296296296296,145.42372881355934,25.03703703703704,146.4406779661017,24C147.45762711864407,22.96296296296297,148.47457627118644,22.814814814814802,149.4915254237288,21.333333333333332C150.50847457627117,19.851851851851848,151.52542372881356,17.037037037037038,152.54237288135593,15.11111111111111C153.5593220338983,13.185185185185185,154.5762711864407,10.370370370370377,155.59322033898306,9.777777777777779C156.61016949152543,9.185185185185185,157.6271186440678,9.33333333333333,158.64406779661016,8.88888888888889C159.66101694915253,8.444444444444445,160.67796610169492,7.555555555555557,161.6949152542373,7.1111111111111125C162.71186440677965,6.666666666666668,163.72881355932205,6.814814814814816,164.74576271186442,6.222222222222222C165.76271186440678,5.629629629629634,166.77966101694915,4.296296296296295,167.79661016949152,3.5555555555555562C168.81355932203388,2.8148148148148104,169.83050847457628,1.777777777777776,170.84745762711864,1.777777777777776C171.864406779661,1.777777777777776,172.8813559322034,6.518518518518522,173.89830508474577,7.1111111111111125C174.91525423728814,7.703703703703703,175.93220338983053,7.407407407407407,176.9491525423729,7.999999999999998C177.96610169491527,8.592592592592583,178.98305084745763,9.629629629629626,180,10.666666666666668"></path><path class="axis-ceiling" stroke-width="1" stroke="black" fill="none" d="M175,0L180,0"></path><text class="axis-ceiling-label" font-family="sans-serif" text-anchor="end" font-size="10px" x="170" y="2.5">45</text></g></svg>