<svg xmlns="http://www.w3.org/2000/svg" viewBox="0 0 180 60"><g transform="translate(0,20)"><path class="area" fill="rgba(0, 0, 0, 0.2)" d="M0,20.860000000000003C1.0169491525423728,19.509999999999998,2.0338983050847457,18.159999999999997,3.0508474576271185,18.159999999999997C4.067796610169491,18.159999999999997,5.084745762711864,22.720000000000002,6.101694915254237,22.720000000000002C7.11864406779661,22.720000000000002,8.135593220338983,16.200000000000003,9.152542372881356,16.200000000000003C10.169491525423728,16.200000000000003,11.186440677966102,16.220000000000002,12.203389830508474,16.259999999999998C13.220338983050846,16.299999999999994,14.23728813559322,17.60666666666667,15.254237288135592,18.82C16.271186440677965,20.033333333333335,17.28813559322034,23.54,18.305084745762713,23.54C19.322033898305087,23.54,20.338983050847457,22.830000000000002,21.35593220338983,22.1C22.372881355932204,21.37,23.389830508474574,19.16,24.406779661016948,19.16C25.423728813559322,19.16,26.440677966101696,22.23666666666667,27.45762711864407,23.440000000000005C28.47457627118644,24.643333333333338,29.491525423728813,26.38,30.508474576271183,26.38C31.525423728813557,26.38,32.54237288135593,25.96666666666667,33.559322033898304,25.78C34.57627118644068,25.593333333333334,35.59322033898305,25.259999999999998,36.610169491525426,25.259999999999998C37.6271186440678,25.259999999999998,38.644067796610166,27.17666666666667,39.66101694915254,28.14C40.67796610169491,29.103333333333335,41.69491525423729,31.04,42.71186440677966,31.04C43.728813559322035,31.04,44.7457627118644,30.819999999999997,45.762711864406775,30.72C46.77966101694915,30.619999999999997,47.79661016949152,30.44,48.813559322033896,30.44C49.83050847457627,30.44,50.847457627118644,30.560000000000002,51.86440677966102,30.560000000000002C52.88135593220339,30.560000000000002,53.898305084745765,29.68,54.91525423728814,29.68C55.93220338983051,29.68,56.94915254237288,29.71333333333333,57.96610169491525,29.779999999999998C58.983050847457626,29.846666666666664,59.99999999999999,29.88,61.01694915254237,30.08C62.03389830508474,30.28,63.05084745762712,33.64,64.0677966101695,33.64C65.08474576271186,33.64,66.10169491525424,30.16,67.11864406779661,30.16C68.13559322033899,30.16,69.15254237288136,30.779999999999998,70.16949152542374,30.779999999999998C71.1864406779661,30.779999999999998,72.20338983050848,28.406666666666666,73.22033898305085,27.94C74.23728813559322,27.473333333333336,75.2542372881356,27.240000000000002,76.27118644067797,27.240000000000002C77.28813559322033,27.240000000000002,78.30508474576271,30.18,79.32203389830508,30.18C80.33898305084746,30.18,81.35593220338983,28.48666666666667,82.37288135593221,28.380000000000003C83.38983050847457,28.273333333333333,84.40677966101696,28.326666666666668,85.42372881355932,28.22C86.4406779661017,28.11333333333333,87.45762711864407,27.32,88.47457627118645,27.32C89.49152542372882,27.32,90.50847457627118,27.5,91.52542372881355,27.5C92.54237288135593,27.5,93.55932203389831,25.419999999999998,94.57627118644069,25.419999999999998C95.59322033898306,25.419999999999998,96.61016949152543,26.38,97.62711864406779,26.38C98.64406779661016,26.38,99.66101694915254,23.28,100.6779661016949,23.28C101.69491525423729,23.28,102.71186440677965,23.326666666666668,103.72881355932203,23.42C104.7457627118644,23.513333333333335,105.76271186440678,26.38,106.77966101694915,26.38C107.79661016949153,26.38,108.8135593220339,18.96,109.83050847457628,18.96C110.84745762711864,18.96,111.86440677966102,22.34,112.88135593220339,22.34C113.89830508474576,22.34,114.91525423728814,20.916666666666668,115.9322033898305,20.220000000000002C116.94915254237289,19.523333333333333,117.96610169491525,18.159999999999997,118.98305084745763,18.159999999999997C120,18.159999999999997,121.01694915254237,18.71000000000001,122.03389830508473,19.46C123.05084745762711,20.21,124.0677966101695,22.66,125.08474576271188,22.66C126.10169491525424,22.66,127.11864406779662,20.866666666666667,128.135593220339,20.76C129.15254237288136,20.653333333333336,130.16949152542372,20.6,131.1864406779661,20.6C132.20338983050846,20.6,133.22033898305085,20.9,134.23728813559322,20.9C135.25423728813558,20.9,136.27118644067798,19.083333333333332,137.28813559322035,18C138.3050847457627,16.916666666666668,139.3220338983051,15.726666666666674,140.33898305084747,14.399999999999999C141.35593220338984,13.073333333333338,142.3728813559322,11.273333333333328,143.38983050847457,10.04C144.40677966101694,8.806666666666658,145.42372881355934,7.33333333333334,146.4406779661017,7.000000000000002C147.45762711864407,6.666666666666667,148.47457627118644,6.8333333333333295,149.4915254237288,6.499999999999999C150.50847457627117,6.166666666666665,151.52542372881356,5,152.54237288135593,5C153.5593220338983,5,154.5762711864407,5.339999999999998,155.59322033898306,5.339999999999998C156.61016949152543,5.339999999999998,157.6271186440678,2.4933333333333367,158.64406779661016,2.480000000000002C159.66101694915253,2.4666666666666672,160.67796610169492,2.46,161.6949152542373,2.46C162.71186440677965,2.46,163.72881355932205,7.283333333333331,164.74576271186442,8.860000000000001C165.76271186440678,10.436666666666657,166.77966101694915,11.02666666666667,167.79661016949152,11.920000000000002C168.81355932203388,12.813333333333341,169.83050847457628,13.470000000000002,170.84745762711864,14.220000000000002C171.864406779661,14.970000000000002,172.8813559322034,16.419999999999998,173.89830508474577,16.419999999999998C174.91525423728814,16.419999999999998,175.93220338983053,10.36,176.9491525423729,10.36C177.96610169491527,10.36,178.98305084745763,12.87,180,15.379999999999999L180,40C178.98305084745763,40,177.96610169491527,40,176.9491525423729,40C175.93220338983053,40,174.91525423728814,40,173.89830508474577,40C172.8813559322034,40,171.864406779661,40,170.84745762711864,40C169.83050847457628,40,168.81355932203388,40,167.79661016949152,40C166.77966101694915,40,165.76271186440678,40,164.74576271186442,40C163.72881355932205,40,162.71186440677965,40,161.6949152542373,40C160.67796610169492,40,159.66101694915253,40,158.64406779661016,40C157.6271186440678,40,156.61016949152543,40,155.59322033898306,40C154.5762711864407,40,153.5593220338983,40,152.54237288135593,40C151.52542372881356,40,150.50847457627117,40,149.4915254237288,40C148.47457627118644,40,147.45762711864407,40,146.4406779661017,40C145.42372881355934,40,144.40677966101694,40,143.38983050847457,40C142.3728813559322,40,141.35593220338984,40,140.33898305084747,40C139.3220338983051,40,138.3050847457627,40,137.28813559322035,40C136.27118644067798,40,135.25423728813558,40,134.23728813559322,40C133.22033898305085,40,132.20338983050846,40,131.1864406779661,40C130.16949152542372,40,129.15254237288136,40,128.135593220339,40C127.11864406779662,40,126.10169491525424,40,125.08474576271188,40C124.0677966101695,40,123.05084745762711,40,122.03389830508473,40C121.01694915254237,40,120,40,118.98305084745763,40C117.96610169491525,40,116.94915254237289,40,115.9322033898305,40C114.91525423728814,40,113.89830508474576,40,112.88135593220339,40C111.86440677966102,40,110.84745762711864,40,109.83050847457628,40C108.8135593220339,40,107.79661016949153,40,106.77966101694915,40C105.76271186440678,40,104.7457627118644,40,103.72881355932203,40C102.71186440677965,40,101.69491525423729,40,100.6779661016949,40C99.66101694915254,40,98.64406779661016,40,97.62711864406779,40C96.61016949152543,40,95.59322033898306,40,94.57627118644069,40C93.55932203389831,40,92.54237288135593,40,91.52542372881355,40C90.50847457627118,40,89.49152542372882,40,88.47457627118645,40C87.45762711864407,40,86.4406779661017,40,85.42372881355932,40C84.40677966101696,40,83.38983050847457,40,82.37288135593221,40C81.35593220338983,40,80.33898305084746,40,79.32203389830508,40C78.30508474576271,40,77.28813559322033,40,76.27118644067797,40C75.2542372881356,40,74.23728813559322,40,73.22033898305085,40C72.20338983050848,40,71.1864406779661,40,70.16949152542374,40C69.15254237288136,40,68.13559322033899,40,67.11864406779661,40C66.10169491525424,40,65.08474576271186,40,64.0677966101695,40C63.05084745762712,40,62.03389830508474,40,61.01694915254237,40C59.99999999999999,40,58.983050847457626,40,57.96610169491525,40C56.94915254237288,40,55.93220338983051,40,54.91525423728814,40C53.898305084745765,40,52.88135593220339,40,51.86440677966102,40C50.847457627118644,40,49.83050847457627,40,48.813559322033896,40C47.79661016949152,40,46.77966101694915,40,45.762711864406775,40C44.7457627118644,40,43.728813559322035,40,42.71186440677966,40C41.69491525423729,40,40.67796610169491,40,39.66101694915254,40C38.644067796610166,40,37.6271186440678,40,36.610169491525426,40C35.59322033898305,40,34.57627118644068,40,33.559322033898304,40C32.54237288135593,40,31.525423728813557,40,30.508474576271183,40C29.491525423728813,40,28.47457627118644,40,27.45762711864407,40C26.440677966101696,40,25.423728813559322,40,24.406779661016948,40C23.389830508474574,40,22.372881355932204,40,21.35593220338983,40C20.338983050847457,40,19.322033898305087,40,18.305084745762713,40C17.28813559322034,40,16.271186440677965,40,15.254237288135592,40C14.23728813559322,40,13.220338983050846,40,12.203389830508474,40C11.186440677966102,40,10.169491525423728,40,9.152542372881356,40C8.135593220338983,40,7.11864406779661,40,6.101694915254237,40C5.084745762711864,40,4.067796610169491,40,3.0508474576271185,40C2.0338983050847457,40,1.0169491525423728,40,0,40Z"></path><path class="line" stroke="black" fill="none" d="M0,20.860000000000003C1.0169491525423728,19.509999999999998,2.0338983050847457,18.159999999999997,3.0508474576271185,18.159999999999997C4.067796610169491,18.159999999999997,5.084745762711864,22.720000000000002,6.101694915254237,22.720000000000002C7.11864406779661,22.720000000000002,8.135593220338983,16.200000000000003,9.152542372881356,16.200000000000003C10.169491525423728,16.200000000000003,11.186440677966102,16.220000000000002,12.203389830508474,16.259999999999998C13.220338983050846,16.299999999999994,14.23728813559322,17.60666666666667,15.254237288135592,18.82C16.271186440677965,20.033333333333335,17.28813559322034,23.54,18.305084745762713,23.54C19.322033898305087,23.54,20.338983050847457,22.830000000000002,21.35593220338983,22.1C22.372881355932204,21.37,23.389830508474574,19.16,24.406779661016948,19.16C25.423728813559322,19.16,26.440677966101696,22.23666666666667,27.45762711864407,23.440000000000005C28.47457627118644,24.643333333333338,29.491525423728813,26.38,30.508474576271183,26.38C31.525423728813557,26.38,32.54237288135593,25.96666666666667,33.559322033898304,25.78C34.57627118644068,25.593333333333334,35.59322033898305,25.259999999999998,36.610169491525426,25.259999999999998C37.6271186440678,25.259999999999998,38.644067796610166,27.17666666666667,39.66101694915254,28.14C40.67796610169491,29.103333333333335,41.69491525423729,31.04,42.71186440677966,31.04C43.728813559322035,31.04,44.7457627118644,30.819999999999997,45.762711864406775,30.72C46.77966101694915,30.619999999999997,47.79661016949152,30.44,48.813559322033896,30.44C49.83050847457627,30.44,50.847457627118644,30.560000000000002,51.86440677966102,30.560000000000002C52.88135593220339,30.560000000000002,53.898305084745765,29.68,54.91525423728814,29.68C55.93220338983051,29.68,56.94915254237288,29.71333333333333,57.96610169491525,29.779999999999998C58.983050847457626,29.846666666666664,59.99999999999999,29.88,61.01694915254237,30.08C62.03389830508474,30.28,63.05084745762712,33.64,64.0677966101695,33.64C65.08474576271186,33.64,66.10169491525424,30.16,67.11864406779661,30.16C68.13559322033899,30.16,69.15254237288136,30.779999999999998,70.16949152542374,30.779999999999998C71.1864406779661,30.779999999999998,72.20338983050848,28.406666666666666,73.22033898305085,27.94C74.23728813559322,27.473333333333336,75.2542372881356,27.240000000000002,76.27118644067797,27.240000000000002C77.28813559322033,27.240000000000002,78.30508474576271,30.18,79.32203389830508,30.18C80.33898305084746,30.18,81.35593220338983,28.48666666666667,82.37288135593221,28.380000000000003C83.38983050847457,28.273333333333333,84.40677966101696,28.326666666666668,85.42372881355932,28.22C86.4406779661017,28.11333333333333,87.45762711864407,27.32,88.47457627118645,27.32C89.49152542372882,27.32,90.50847457627118,27.5,91.52542372881355,27.5C92.54237288135593,27.5,93.55932203389831,25.419999999999998,94.57627118644069,25.419999999999998C95.59322033898306,25.419999999999998,96.61016949152543,26.38,97.62711864406779,26.38C98.64406779661016,26.38,99.66101694915254,23.28,100.6779661016949,23.28C101.69491525423729,23.28,102.71186440677965,23.326666666666668,103.72881355932203,23.42C104.7457627118644,23.513333333333335,105.76271186440678,26.38,106.77966101694915,26.38C107.79661016949153,26.38,108.8135593220339,18.96,109.83050847457628,18.96C110.84745762711864,18.96,111.86440677966102,22.34,112.88135593220339,22.34C113.89830508474576,22.34,114.91525423728814,20.916666666666668,115.9322033898305,20.220000000000002C116.94915254237289,19.523333333333333,117.96610169491525,18.159999999999997,118.98305084745763,18.159999999999997C120,18.159999999999997,121.01694915254237,18.71000000000001,122.03389830508473,19.46C123.05084745762711,20.21,124.0677966101695,22.66,125.08474576271188,22.66C126.10169491525424,22.66,127.11864406779662,20.866666666666667,128.135593220339,20.76C129.15254237288136,20.653333333333336,130.16949152542372,20.6,131.1864406779661,20.6C132.20338983050846,20.6,133.22033898305085,20.9,134.23728813559322,20.9C135.25423728813558,20.9,136.27118644067798,19.083333333333332,137.28813559322035,18C138.3050847457627,16.916666666666668,139.3220338983051,15.726666666666674,140.33898305084747,14.399999999999999C141.35593220338984,13.073333333333338,142.3728813559322,11.273333333333328,143.38983050847457,10.04C144.40677966101694,8.806666666666658,145.42372881355934,7.33333333333334,146.4406779661017,7.000000000000002C147.45762711864407,6.666666666666667,148.47457627118644,6.8333333333333295,149.4915254237288,6.499999999999999C150.50847457627117,6.166666666666665,151.52542372881356,5,152.54237288135593,5C153.5593220338983,5,154.5762711864407,5.339999999999998,155.59322033898306,5.339999999999998C156.61016949152543,5.339999999999998,157.6271186440678,2.4933333333333367,158.64406779661016,2.480000000000002C159.66101694915253,2.4666666666666672,160.67796610169492,2.46,161.6949152542373,2.46C162.71186440677965,2.46,163.72881355932205,7.283333333333331,164.74576271186442,8.860000000000001C165.76271186440678,10.436666666666657,166.77966101694915,11.02666666666667,167.79661016949152,11.920000000000002C168.81355932203388,12.813333333333341,169.83050847457628,13.470000000000002,170.84745762711864,14.220000000000002C171.864406779661,14.970000000000002,172.8813559322034,16.419999999999998,173.89830508474577,16.419999999999998C174.91525423728814,16.419999999999998,175.93220338983053,10.36,176.9491525423729,10.36C177.96610169491527,10.36,178.98305084745763,12.87,180,15.379999999999999"></path><path class="axis-ceiling" stroke-width="1" stroke="black" fill="none" d="M175,0L180,0"></path><text class="axis-ceiling-label" font-family="sans-serif" text-anchor="end" font-size="10px" x="170" y="2.5">2000</text></g></svg>