<svg xmlns="http://www.w3.org/2000/svg" viewBox="0 0 180 60"><g transform="translate(0,20)"><path class="area" fill="rgba(0, 0, 0, 0.2)" d="M0,15.099999999999998C1.0344827586206897,16.52,2.068965517241379,17.94,3.103448275862069,17.94C4.137931034482759,17.94,5.172413793103448,17.12,6.206896551724138,17.12C7.241379310344827,17.12,8.275862068965516,17.233333333333334,9.310344827586206,17.46C10.344827586206897,17.686666666666667,11.379310344827585,25.12,12.413793103448276,25.12C13.448275862068966,25.12,14.482758620689655,22.020000000000003,15.517241379310345,20.860000000000003C16.551724137931036,19.700000000000003,17.586206896551722,18.159999999999997,18.620689655172413,18.159999999999997C19.655172413793103,18.159999999999997,20.689655172413794,22.720000000000002,21.724137931034484,22.720000000000002C22.758620689655174,22.720000000000002,23.79310344827586,16.200000000000003,24.82758620689655,16.200000000000003C25.862068965517242,16.200000000000003,26.896551724137932,16.220000000000002,27.931034482758623,16.259999999999998C28.965517241379313,16.299999999999994,30,17.606666666666666,31.03448275862069,18.82C32.06896551724138,20.033333333333335,33.103448275862064,23.54,34.137931034482754,23.54C35.172413793103445,23.54,36.206896551724135,22.830000000000002,37.241379310344826,22.1C38.275862068965516,21.37,39.310344827586206,19.16,40.3448275862069,19.16C41.37931034482759,19.16,42.41379310344828,22.23666666666667,43.44827586206897,23.440000000000005C44.48275862068966,24.643333333333338,45.51724137931035,26.38,46.55172413793104,26.38C47.58620689655173,26.38,48.62068965517241,25.96666666666667,49.6551724137931,25.78C50.689655172413794,25.593333333333334,51.72413793103448,25.259999999999998,52.75862068965517,25.259999999999998C53.79310344827586,25.259999999999998,54.827586206896555,27.176666666666666,55.862068965517246,28.14C56.896551724137936,29.10333333333333,57.93103448275862,31.04,58.96551724137931,31.04C60,31.04,61.03448275862069,30.82,62.06896551724138,30.72C63.10344827586207,30.62,64.13793103448276,30.44,65.17241379310344,30.44C66.20689655172413,30.44,67.24137931034483,30.560000000000002,68.27586206896551,30.560000000000002C69.3103448275862,30.560000000000002,70.34482758620689,29.68,71.37931034482759,29.68C72.41379310344827,29.68,73.44827586206897,29.71333333333333,74.48275862068965,29.779999999999998C75.51724137931033,29.846666666666664,76.55172413793103,29.88,77.58620689655172,30.08C78.62068965517241,30.28,79.6551724137931,33.64,80.6896551724138,33.64C81.72413793103448,33.64,82.75862068965517,30.16,83.79310344827586,30.16C84.82758620689656,30.16,85.86206896551724,30.779999999999998,86.89655172413794,30.779999999999998C87.93103448275862,30.779999999999998,88.96551724137932,28.406666666666666,90,27.94C91.0344827586207,27.473333333333336,92.06896551724138,27.240000000000002,93.10344827586208,27.240000000000002C94.13793103448276,27.240000000000002,95.17241379310344,30.18,96.20689655172413,30.18C97.24137931034483,30.18,98.27586206896551,28.48666666666667,99.3103448275862,28.380000000000003C100.3448275862069,28.273333333333333,101.37931034482759,28.326666666666668,102.41379310344828,28.22C103.44827586206897,28.11333333333333,104.48275862068965,27.32,105.51724137931033,27.32C106.55172413793103,27.32,107.58620689655172,27.5,108.62068965517241,27.5C109.65517241379311,27.5,110.6896551724138,25.419999999999998,111.72413793103449,25.419999999999998C112.75862068965517,25.419999999999998,113.79310344827587,26.38,114.82758620689656,26.38C115.86206896551724,26.38,116.89655172413794,23.28,117.93103448275862,23.28C118.96551724137932,23.28,120,23.326666666666668,121.0344827586207,23.42C122.06896551724138,23.513333333333335,123.10344827586208,26.38,124.13793103448276,26.38C125.17241379310344,26.38,126.20689655172414,18.96,127.24137931034483,18.96C128.27586206896552,18.96,129.3103448275862,22.34,130.3448275862069,22.34C131.3793103448276,22.34,132.41379310344828,20.916666666666675,133.44827586206898,20.220000000000002C134.48275862068965,19.52333333333334,135.51724137931035,18.159999999999997,136.55172413793102,18.159999999999997C137.58620689655172,18.159999999999997,138.6206896551724,18.709999999999994,139.6551724137931,19.46C140.6896551724138,20.21,141.72413793103448,22.66,142.75862068965517,22.66C143.79310344827587,22.66,144.82758620689654,20.866666666666667,145.86206896551724,20.76C146.89655172413794,20.653333333333336,147.9310344827586,20.6,148.9655172413793,20.6C150,20.6,151.0344827586207,20.9,152.0689655172414,20.9C153.10344827586206,20.9,154.13793103448276,19.08333333333332,155.17241379310343,18C156.20689655172413,16.916666666666657,157.24137931034483,15.726666666666672,158.27586206896552,14.399999999999999C159.31034482758622,13.073333333333338,160.3448275862069,11.273333333333332,161.3793103448276,10.04C162.41379310344828,8.806666666666667,163.44827586206895,7.333333333333337,164.48275862068965,7.000000000000002C165.51724137931035,6.666666666666667,166.55172413793102,6.8333333333333295,167.58620689655172,6.499999999999999C168.6206896551724,6.166666666666665,169.6551724137931,5,170.6896551724138,5C171.7241379310345,5,172.75862068965517,5.339999999999998,173.79310344827587,5.339999999999998C174.82758620689657,5.339999999999998,175.86206896551724,2.493333333333337,176.89655172413794,2.480000000000002C177.93103448275863,2.4666666666666672,178.9655172413793,2.463333333333334,180,2.46L180,40C178.9655172413793,40,177.93103448275863,40,176.89655172413794,40C175.86206896551724,40,174.82758620689657,40,173.79310344827587,40C172.75862068965517,40,171.7241379310345,40,170.6896551724138,40C169.6551724137931,40,168.6206896551724,40,167.58620689655172,40C166.55172413793102,40,165.51724137931035,40,164.48275862068965,40C163.44827586206895,40,162.41379310344828,40,161.3793103448276,40C160.3448275862069,40,159.31034482758622,40,158.27586206896552,40C157.24137931034483,40,156.20689655172413,40,155.17241379310343,40C154.13793103448276,40,153.10344827586206,40,152.0689655172414,40C151.0344827586207,40,150,40,148.9655172413793,40C147.9310344827586,40,146.89655172413794,40,145.86206896551724,40C144.82758620689654,40,143.79310344827587,40,142.75862068965517,40C141.72413793103448,40,140.6896551724138,40,139.6551724137931,40C138.6206896551724,40,137.58620689655172,40,136.55172413793102,40C135.51724137931035,40,134.48275862068965,40,133.44827586206898,40C132.41379310344828,40,131.3793103448276,40,130.3448275862069,40C129.3103448275862,40,128.27586206896552,40,127.24137931034483,40C126.20689655172414,40,125.17241379310344,40,124.13793103448276,40C123.10344827586208,40,122.06896551724138,40,121.0344827586207,40C120,40,118.96551724137932,40,117.93103448275862,40C116.89655172413794,40,115.86206896551724,40,114.82758620689656,40C113.79310344827587,40,112.75862068965517,40,111.72413793103449,40C110.6896551724138,40,109.65517241379311,40,108.62068965517241,40C107.58620689655172,40,106.55172413793103,40,105.51724137931033,40C104.48275862068965,40,103.44827586206897,40,102.41379310344828,40C101.37931034482759,40,100.3448275862069,40,99.3103448275862,40C98.27586206896551,40,97.24137931034483,40,96.20689655172413,40C95.17241379310344,40,94.13793103448276,40,93.10344827586208,40C92.06896551724138,40,91.0344827586207,40,90,40C88.96551724137932,40,87.93103448275862,40,86.89655172413794,40C85.86206896551724,40,84.82758620689656,40,83.79310344827586,40C82.75862068965517,40,81.72413793103448,40,80.6896551724138,40C79.6551724137931,40,78.62068965517241,40,77.58620689655172,40C76.55172413793103,40,75.51724137931033,40,74.48275862068965,40C73.44827586206897,40,72.41379310344827,40,71.37931034482759,40C70.34482758620689,40,69.3103448275862,40,68.27586206896551,40C67.24137931034483,40,66.20689655172413,40,65.17241379310344,40C64.13793103448276,40,63.10344827586207,40,62.06896551724138,40C61.03448275862069,40,60,40,58.96551724137931,40C57.93103448275862,40,56.896551724137936,40,55.862068965517246,40C54.827586206896555,40,53.79310344827586,40,52.75862068965517,40C51.72413793103448,40,50.689655172413794,40,49.6551724137931,40C48.62068965517241,40,47.58620689655173,40,46.55172413793104,40C45.51724137931035,40,44.48275862068966,40,43.44827586206897,40C42.41379310344828,40,41.37931034482759,40,40.3448275862069,40C39.310344827586206,40,38.275862068965516,40,37.241379310344826,40C36.206896551724135,40,35.172413793103445,40,34.137931034482754,40C33.103448275862064,40,32.06896551724138,40,31.03448275862069,40C30,40,28.965517241379313,40,27.931034482758623,40C26.896551724137932,40,25.862068965517242,40,24.82758620689655,40C23.79310344827586,40,22.758620689655174,40,21.724137931034484,40C20.689655172413794,40,19.655172413793103,40,18.620689655172413,40C17.586206896551722,40,16.551724137931036,40,15.517241379310345,40C14.482758620689655,40,13.448275862068966,40,12.413793103448276,40C11.379310344827585,40,10.344827586206897,40,9.310344827586206,40C8.275862068965516,40,7.241379310344827,40,6.206896551724138,40C5.172413793103448,40,4.137931034482759,40,3.103448275862069,40C2.068965517241379,40,1.0344827586206897,40,0,40Z"></path><path class="line" stroke="black" fill="none" d="M0,15.099999999999998C1.0344827586206897,16.52,2.068965517241379,17.94,3.103448275862069,17.94C4.137931034482759,17.94,5.172413793103448,17.12,6.206896551724138,17.12C7.241379310344827,17.12,8.275862068965516,17.233333333333334,9.310344827586206,17.46C10.344827586206897,17.686666666666667,11.379310344827585,25.12,12.413793103448276,25.12C13.448275862068966,25.12,14.482758620689655,22.020000000000003,15.517241379310345,20.860000000000003C16.551724137931036,19.700000000000003,17.586206896551722,18.159999999999997,18.620689655172413,18.159999999999997C19.655172413793103,18.159999999999997,20.689655172413794,22.720000000000002,21.724137931034484,22.720000000000002C22.758620689655174,22.720000000000002,23.79310344827586,16.200000000000003,24.82758620689655,16.200000000000003C25.862068965517242,16.200000000000003,26.896551724137932,16.220000000000002,27.931034482758623,16.259999999999998C28.965517241379313,16.299999999999994,30,17.606666666666666,31.03448275862069,18.82C32.06896551724138,20.033333333333335,33.103448275862064,23.54,34.137931034482754,23.54C35.172413793103445,23.54,36.206896551724135,22.830000000000002,37.241379310344826,22.1C38.275862068965516,21.37,39.310344827586206,19.16,40.3448275862069,19.16C41.37931034482759,19.16,42.41379310344828,22.23666666666667,43.44827586206897,23.440000000000005C44.48275862068966,24.643333333333338,45.51724137931035,26.38,46.55172413793104,26.38C47.58620689655173,26.38,48.62068965517241,25.96666666666667,49.6551724137931,25.78C50.689655172413794,25.593333333333334,51.72413793103448,25.259999999999998,52.75862068965517,25.259999999999998C53.79310344827586,25.259999999999998,54.827586206896555,27.176666666666666,55.862068965517246,28.14C56.896551724137936,29.10333333333333,57.93103448275862,31.04,58.96551724137931,31.04C60,31.04,61.03448275862069,30.82,62.06896551724138,30.72C63.10344827586207,30.62,64.13793103448276,30.44,65.17241379310344,30.44C66.20689655172413,30.44,67.24137931034483,30.560000000000002,68.27586206896551,30.560000000000002C69.3103448275862,30.560000000000002,70.34482758620689,29.68,71.37931034482759,29.68C72.41379310344827,29.68,73.44827586206897,29.71333333333333,74.48275862068965,29.779999999999998C75.51724137931033,29.846666666666664,76.55172413793103,29.88,77.58620689655172,30.08C78.62068965517241,30.28,79.6551724137931,33.64,80.6896551724138,33.64C81.72413793103448,33.64,82.75862068965517,30.16,83.79310344827586,30.16C84.82758620689656,30.16,85.86206896551724,30.779999999999998,86.89655172413794,30.779999999999998C87.93103448275862,30.779999999999998,88.96551724137932,28.406666666666666,90,27.94C91.0344827586207,27.473333333333336,92.06896551724138,27.240000000000002,93.10344827586208,27.240000000000002C94.13793103448276,27.240000000000002,95.17241379310344,30.18,96.20689655172413,30.18C97.24137931034483,30.18,98.27586206896551,28.48666666666667,99.3103448275862,28.380000000000003C100.3448275862069,28.273333333333333,101.37931034482759,28.326666666666668,102.41379310344828,28.22C103.44827586206897,28.11333333333333,104.48275862068965,27.32,105.51724137931033,27.32C106.55172413793103,27.32,107.58620689655172,27.5,108.62068965517241,27.5C109.65517241379311,27.5,110.6896551724138,25.419999999999998,111.72413793103449,25.419999999999998C112.75862068965517,25.419999999999998,113.79310344827587,26.38,114.82758620689656,26.38C115.86206896551724,26.38,116.89655172413794,23.28,117.93103448275862,23.28C118.96551724137932,23.28,120,23.326666666666668,121.0344827586207,23.42C122.06896551724138,23.513333333333335,123.10344827586208,26.38,124.13793103448276,26.38C125.17241379310344,26.38,126.20689655172414,18.96,127.24137931034483,18.96C128.27586206896552,18.96,129.3103448275862,22.34,130.3448275862069,22.34C131.3793103448276,22.34,132.41379310344828,20.916666666666675,133.44827586206898,20.220000000000002C134.48275862068965,19.52333333333334,135.51724137931035,18.159999999999997,136.55172413793102,18.159999999999997C137.58620689655172,18.159999999999997,138.6206896551724,18.709999999999994,139.6551724137931,19.46C140.6896551724138,20.21,141.72413793103448,22.66,142.75862068965517,22.66C143.79310344827587,22.66,144.82758620689654,20.866666666666667,145.86206896551724,20.76C146.89655172413794,20.653333333333336,147.9310344827586,20.6,148.9655172413793,20.6C150,20.6,151.0344827586207,20.9,152.0689655172414,20.9C153.10344827586206,20.9,154.13793103448276,19.08333333333332,155.17241379310343,18C156.20689655172413,16.916666666666657,157.24137931034483,15.726666666666672,158.27586206896552,14.399999999999999C159.31034482758622,13.073333333333338,160.3448275862069,11.273333333333332,161.3793103448276,10.04C162.41379310344828,8.806666666666667,163.44827586206895,7.333333333333337,164.48275862068965,7.000000000000002C165.51724137931035,6.666666666666667,166.55172413793102,6.8333333333333295,167.58620689655172,6.499999999999999C168.6206896551724,6.166666666666665,169.6551724137931,5,170.6896551724138,5C171.7241379310345,5,172.75862068965517,5.339999999999998,173.79310344827587,5.339999999999998C174.82758620689657,5.339999999999998,175.86206896551724,2.493333333333337,176.89655172413794,2.480000000000002C177.93103448275863,2.4666666666666672,178.9655172413793,2.463333333333334,180,2.46"></path><path class="axis-ceiling" stroke-width="1" stroke="black" fill="none" d="M175,0L180,0"></path><text class="axis-ceiling-label" font-family="sans-serif" text-anchor="end" font-size="10px" x="170" y="2.5">2000</text></g></svg>