<svg xmlns="http://www.w3.org/2000/svg" viewBox="0 0 180 60"><g transform="translate(0,20)"><path class="area" fill="rgba(0, 0, 0, 0.2)" d="M0,38.857142857142854C1.0169491525423728,38.285714285714285,2.0338983050847457,37.714285714285715,3.0508474576271185,37.714285714285715C4.067796610169491,37.714285714285715,5.084745762711864,37.714285714285715,6.101694915254237,37.714285714285715C7.11864406779661,37.714285714285715,8.135593220338983,37.714285714285715,9.152542372881356,37.714285714285715C10.169491525423728,37.714285714285715,11.186440677966102,37.714285714285715,12.203389830508474,37.714285714285715C13.220338983050846,37.714285714285715,14.23728813559322,38.857142857142854,15.254237288135592,38.857142857142854C16.271186440677965,38.857142857142854,17.28813559322034,37.714285714285715,18.305084745762713,37.714285714285715C19.322033898305087,37.714285714285715,20.338983050847457,38.857142857142854,21.35593220338983,38.857142857142854C22.372881355932204,38.857142857142854,23.389830508474574,38.857142857142854,24.406779661016948,38.857142857142854C25.423728813559322,38.857142857142854,26.440677966101696,38.857142857142854,27.45762711864407,38.857142857142854C28.47457627118644,38.857142857142854,29.491525423728813,38.857142857142854,30.508474576271183,38.857142857142854C31.525423728813557,38.857142857142854,32.54237288135593,38.857142857142854,33.559322033898304,38.857142857142854C34.57627118644068,38.857142857142854,35.59322033898305,38.857142857142854,36.610169491525426,38.857142857142854C37.6271186440678,38.857142857142854,38.644067796610166,40,39.66101694915254,40C40.67796610169491,40,41.69491525423729,40,42.71186440677966,40C43.728813559322035,40,44.7457627118644,40,45.762711864406775,40C46.77966101694915,40,47.79661016949152,40,48.813559322033896,40C49.83050847457627,40,50.847457627118644,40,51.86440677966102,40C52.88135593220339,40,53.898305084745765,40,54.91525423728814,40C55.93220338983051,40,56.94915254237288,40,57.96610169491525,40C58.983050847457626,40,59.99999999999999,40,61.01694915254237,40C62.03389830508474,40,63.05084745762712,40,64.0677966101695,40C65.08474576271186,40,66.10169491525424,40,67.11864406779661,40C68.13559322033899,40,69.15254237288136,40,70.16949152542374,40C71.1864406779661,40,72.20338983050848,40,73.22033898305085,40C74.23728813559322,40,75.2542372881356,40,76.27118644067797,40C77.28813559322033,40,78.30508474576271,40,79.32203389830508,40C80.33898305084746,40,81.35593220338983,38.47619047619048,82.37288135593221,37.714285714285715C83.38983050847457,36.952380952380956,84.40677966101696,36.19047619047619,85.42372881355932,35.42857142857143C86.4406779661017,34.666666666666664,87.45762711864407,33.14285714285714,88.47457627118645,33.14285714285714C89.49152542372882,33.14285714285714,90.50847457627118,33.14285714285714,91.52542372881355,33.14285714285714C92.54237288135593,33.14285714285714,93.55932203389831,33.14285714285714,94.57627118644069,33.14285714285714C95.59322033898306,33.14285714285714,96.61016949152543,30.857142857142858,97.62711864406779,30.857142857142858C98.64406779661016,30.857142857142858,99.66101694915254,30.857142857142858,100.6779661016949,30.857142857142858C101.69491525423729,30.857142857142858,102.71186440677965,31.428571428571427,103.72881355932203,32C104.7457627118644,32.57142857142857,105.76271186440678,34.28571428571429,106.77966101694915,34.28571428571429C107.79661016949153,34.28571428571429,108.8135593220339,34.28571428571429,109.83050847457628,34.28571428571429C110.84745762711864,34.28571428571429,111.86440677966102,32,112.88135593220339,32C113.89830508474576,32,114.91525423728814,33.14285714285714,115.9322033898305,33.14285714285714C116.94915254237289,33.14285714285714,117.96610169491525,29.71428571428572,118.98305084745763,28.571428571428573C120,27.428571428571438,121.01694915254237,26.857142857142854,122.03389830508473,26.285714285714285C123.05084745762711,25.714285714285705,124.0677966101695,25.904761904761905,125.08474576271188,25.142857142857142C126.10169491525424,24.380952380952387,127.11864406779662,21.714285714285715,128.135593220339,21.714285714285715C129.15254237288136,21.714285714285715,130.16949152542372,21.714285714285715,131.1864406779661,21.714285714285715C132.20338983050846,21.714285714285715,133.22033898305085,21.142857142857142,134.23728813559322,20.57142857142857C135.25423728813558,19.999999999999996,136.27118644067798,18.28571428571429,137.28813559322035,18.28571428571429C138.3050847457627,18.28571428571429,139.3220338983051,22.857142857142854,140.33898305084747,22.857142857142854C141.35593220338984,22.857142857142854,142.3728813559322,21.714285714285715,143.38983050847457,21.714285714285715C144.40677966101694,21.714285714285715,145.42372881355934,22.285714285714278,146.4406779661017,22.857142857142854C147.45762711864407,23.428571428571423,148.47457627118644,25.142857142857142,149.4915254237288,25.142857142857142C150.50847457627117,25.142857142857142,151.52542372881356,25.142857142857142,152.54237288135593,25.142857142857142C153.5593220338983,25.142857142857142,154.5762711864407,21.714285714285715,155.59322033898306,21.714285714285715C156.61016949152543,21.714285714285715,157.6271186440678,22.857142857142854,158.64406779661016,22.857142857142854C159.66101694915253,22.857142857142854,160.67796610169492,19.42857142857143,161.6949152542373,19.42857142857143C162.71186440677965,19.42857142857143,163.72881355932205,20.57142857142857,164.74576271186442,20.57142857142857C165.76271186440678,20.57142857142857,166.77966101694915,17.90476190476189,167.79661016949152,16C168.81355932203388,14.09523809523809,169.83050847457628,11.047619047619047,170.84745762711864,9.142857142857142C171.864406779661,7.238095238095237,172.8813559322034,4.571428571428573,173.89830508474577,4.571428571428573C174.91525423728814,4.571428571428573,175.93220338983053,4.571428571428573,176.9491525423729,4.571428571428573C177.96610169491527,4.571428571428573,178.98305084745763,5.142857142857144,180,5.714285714285716L180,40C178.98305084745763,40,177.96610169491527,40,176.9491525423729,40C175.93220338983053,40,174.91525423728814,40,173.89830508474577,40C172.8813559322034,40,171.864406779661,40,170.84745762711864,40C169.83050847457628,40,168.81355932203388,40,167.79661016949152,40C166.77966101694915,40,165.76271186440678,40,164.74576271186442,40C163.72881355932205,40,162.71186440677965,40,161.6949152542373,40C160.67796610169492,40,159.66101694915253,40,158.64406779661016,40C157.6271186440678,40,156.61016949152543,40,155.59322033898306,40C154.5762711864407,40,153.5593220338983,40,152.54237288135593,40C151.52542372881356,40,150.50847457627117,40,149.4915254237288,40C148.47457627118644,40,147.45762711864407,40,146.4406779661017,40C145.42372881355934,40,144.40677966101694,40,143.38983050847457,40C142.3728813559322,40,141.35593220338984,40,140.33898305084747,40C139.3220338983051,40,138.3050847457627,40,137.28813559322035,40C136.27118644067798,40,135.25423728813558,40,134.23728813559322,40C133.22033898305085,40,132.20338983050846,40,131.1864406779661,40C130.16949152542372,40,129.15254237288136,40,128.135593220339,40C127.11864406779662,40,126.10169491525424,40,125.08474576271188,40C124.0677966101695,40,123.05084745762711,40,122.03389830508473,40C121.01694915254237,40,120,40,118.98305084745763,40C117.96610169491525,40,116.94915254237289,40,115.9322033898305,40C114.91525423728814,40,113.89830508474576,40,112.88135593220339,40C111.86440677966102,40,110.84745762711864,40,109.83050847457628,40C108.8135593220339,40,107.79661016949153,40,106.77966101694915,40C105.76271186440678,40,104.7457627118644,40,103.72881355932203,40C102.71186440677965,40,101.69491525423729,40,100.6779661016949,40C99.66101694915254,40,98.64406779661016,40,97.62711864406779,40C96.61016949152543,40,95.59322033898306,40,94.57627118644069,40C93.55932203389831,40,92.54237288135593,40,91.52542372881355,40C90.50847457627118,40,89.49152542372882,40,88.47457627118645,40C87.45762711864407,40,86.4406779661017,40,85.42372881355932,40C84.40677966101696,40,83.38983050847457,40,82.37288135593221,40C81.35593220338983,40,80.33898305084746,40,79.32203389830508,40C78.30508474576271,40,77.28813559322033,40,76.27118644067797,40C75.2542372881356,40,74.23728813559322,40,73.22033898305085,40C72.20338983050848,40,71.1864406779661,40,70.16949152542374,40C69.15254237288136,40,68.13559322033899,40,67.11864406779661,40C66.10169491525424,40,65.08474576271186,40,64.0677966101695,40C63.05084745762712,40,62.03389830508474,40,61.01694915254237,40C59.99999999999999,40,58.983050847457626,40,57.96610169491525,40C56.94915254237288,40,55.93220338983051,40,54.91525423728814,40C53.898305084745765,40,52.88135593220339,40,51.86440677966102,40C50.847457627118644,40,49.83050847457627,40,48.813559322033896,40C47.79661016949152,40,46.77966101694915,40,45.762711864406775,40C44.7457627118644,40,43.728813559322035,40,42.71186440677966,40C41.69491525423729,40,40.67796610169491,40,39.66101694915254,40C38.644067796610166,40,37.6271186440678,40,36.610169491525426,40C35.59322033898305,40,34.57627118644068,40,33.559322033898304,40C32.54237288135593,40,31.525423728813557,40,30.508474576271183,40C29.491525423728813,40,28.47457627118644,40,27.45762711864407,40C26.440677966101696,40,25.423728813559322,40,24.406779661016948,40C23.389830508474574,40,22.372881355932204,40,21.35593220338983,40C20.338983050847457,40,19.322033898305087,40,18.305084745762713,40C17.28813559322034,40,16.271186440677965,40,15.254237288135592,40C14.23728813559322,40,13.220338983050846,40,12.203389830508474,40C11.186440677966102,40,10.169491525423728,40,9.152542372881356,40C8.135593220338983,40,7.11864406779661,40,6.101694915254237,40C5.084745762711864,40,4.067796610169491,40,3.0508474576271185,40C2.0338983050847457,40,1.0169491525423728,40,0,40Z"></path><path class="line" stroke="black" fill="none" d="M0,38.857142857142854C1.0169491525423728,38.285714285714285,2.0338983050847457,37.714285714285715,3.0508474576271185,37.714285714285715C4.067796610169491,37.714285714285715,5.084745762711864,37.714285714285715,6.101694915254237,37.714285714285715C7.11864406779661,37.714285714285715,8.135593220338983,37.714285714285715,9.152542372881356,37.714285714285715C10.169491525423728,37.714285714285715,11.186440677966102,37.714285714285715,12.203389830508474,37.714285714285715C13.220338983050846,37.714285714285715,14.23728813559322,38.857142857142854,15.254237288135592,38.857142857142854C16.271186440677965,38.857142857142854,17.28813559322034,37.714285714285715,18.305084745762713,37.714285714285715C19.322033898305087,37.714285714285715,20.338983050847457,38.857142857142854,21.35593220338983,38.857142857142854C22.372881355932204,38.857142857142854,23.389830508474574,38.857142857142854,24.406779661016948,38.857142857142854C25.423728813559322,38.857142857142854,26.440677966101696,38.857142857142854,27.45762711864407,38.857142857142854C28.47457627118644,38.857142857142854,29.491525423728813,38.857142857142854,30.508474576271183,38.857142857142854C31.525423728813557,38.857142857142854,32.54237288135593,38.857142857142854,33.559322033898304,38.857142857142854C34.57627118644068,38.857142857142854,35.59322033898305,38.857142857142854,36.610169491525426,38.857142857142854C37.6271186440678,38.857142857142854,38.644067796610166,40,39.66101694915254,40C40.67796610169491,40,41.69491525423729,40,42.71186440677966,40C43.728813559322035,40,44.7457627118644,40,45.762711864406775,40C46.77966101694915,40,47.79661016949152,40,48.813559322033896,40C49.83050847457627,40,50.847457627118644,40,51.86440677966102,40C52.88135593220339,40,53.898305084745765,40,54.91525423728814,40C55.93220338983051,40,56.94915254237288,40,57.96610169491525,40C58.983050847457626,40,59.99999999999999,40,61.01694915254237,40C62.03389830508474,40,63.05084745762712,40,64.0677966101695,40C65.08474576271186,40,66.10169491525424,40,67.11864406779661,40C68.13559322033899,40,69.15254237288136,40,70.16949152542374,40C71.1864406779661,40,72.20338983050848,40,73.22033898305085,40C74.23728813559322,40,75.2542372881356,40,76.27118644067797,40C77.28813559322033,40,78.30508474576271,40,79.32203389830508,40C80.33898305084746,40,81.35593220338983,38.47619047619048,82.37288135593221,37.714285714285715C83.38983050847457,36.952380952380956,84.40677966101696,36.19047619047619,85.42372881355932,35.42857142857143C86.4406779661017,34.666666666666664,87.45762711864407,33.14285714285714,88.47457627118645,33.14285714285714C89.49152542372882,33.14285714285714,90.50847457627118,33.14285714285714,91.52542372881355,33.14285714285714C92.54237288135593,33.14285714285714,93.55932203389831,33.14285714285714,94.57627118644069,33.14285714285714C95.59322033898306,33.14285714285714,96.61016949152543,30.857142857142858,97.62711864406779,30.857142857142858C98.64406779661016,30.857142857142858,99.66101694915254,30.857142857142858,100.6779661016949,30.857142857142858C101.69491525423729,30.857142857142858,102.71186440677965,31.428571428571427,103.72881355932203,32C104.7457627118644,32.57142857142857,105.76271186440678,34.28571428571429,106.77966101694915,34.28571428571429C107.79661016949153,34.28571428571429,108.8135593220339,34.28571428571429,109.83050847457628,34.28571428571429C110.84745762711864,34.28571428571429,111.86440677966102,32,112.88135593220339,32C113.89830508474576,32,114.91525423728814,33.14285714285714,115.9322033898305,33.14285714285714C116.94915254237289,33.14285714285714,117.96610169491525,29.71428571428572,118.98305084745763,28.571428571428573C120,27.428571428571438,121.01694915254237,26.857142857142854,122.03389830508473,26.285714285714285C123.05084745762711,25.714285714285705,124.0677966101695,25.904761904761905,125.08474576271188,25.142857142857142C126.10169491525424,24.380952380952387,127.11864406779662,21.714285714285715,128.135593220339,21.714285714285715C129.15254237288136,21.714285714285715,130.16949152542372,21.714285714285715,131.1864406779661,21.714285714285715C132.20338983050846,21.714285714285715,133.22033898305085,21.142857142857142,134.23728813559322,20.57142857142857C135.25423728813558,19.999999999999996,136.27118644067798,18.28571428571429,137.28813559322035,18.28571428571429C138.3050847457627,18.28571428571429,139.3220338983051,22.857142857142854,140.33898305084747,22.857142857142854C141.35593220338984,22.857142857142854,142.3728813559322,21.714285714285715,143.38983050847457,21.714285714285715C144.40677966101694,21.714285714285715,145.42372881355934,22.285714285714278,146.4406779661017,22.857142857142854C147.45762711864407,23.428571428571423,148.47457627118644,25.142857142857142,149.4915254237288,25.142857142857142C150.50847457627117,25.142857142857142,151.52542372881356,25.142857142857142,152.54237288135593,25.142857142857142C153.5593220338983,25.142857142857142,154.5762711864407,21.714285714285715,155.59322033898306,21.714285714285715C156.61016949152543,21.714285714285715,157.6271186440678,22.857142857142854,158.64406779661016,22.857142857142854C159.66101694915253,22.857142857142854,160.67796610169492,19.42857142857143,161.6949152542373,19.42857142857143C162.71186440677965,19.42857142857143,163.72881355932205,20.57142857142857,164.74576271186442,20.57142857142857C165.76271186440678,20.57142857142857,166.77966101694915,17.90476190476189,167.79661016949152,16C168.81355932203388,14.09523809523809,169.83050847457628,11.047619047619047,170.84745762711864,9.142857142857142C171.864406779661,7.238095238095237,172.8813559322034,4.571428571428573,173.89830508474577,4.571428571428573C174.91525423728814,4.571428571428573,175.93220338983053,4.571428571428573,176.9491525423729,4.571428571428573C177.96610169491527,4.571428571428573,178.98305084745763,5.142857142857144,180,5.714285714285716"></path><path class="axis-ceiling" stroke-width="1" stroke="black" fill="none" d="M175,0L180,0"></path><text class="axis-ceiling-label" font-family="sans-serif" text-anchor="end" font-size="10px" x="170" y="2.5">35</text></g></svg>