<svg xmlns="http://www.w3.org/2000/svg" viewBox="0 0 180 60"><g transform="translate(0,20)"><path class="area" fill="rgba(0, 0, 0, 0.2)" d="M0,36.29333333333334C1.0169491525423728,36.333333333333336,2.0338983050847457,36.373333333333335,3.0508474576271185,36.373333333333335C4.067796610169491,36.373333333333335,5.084745762711864,36.32,6.101694915254237,36.24C7.11864406779661,36.160000000000004,8.135593220338983,35.99111111111111,9.152542372881356,35.89333333333333C10.169491525423728,35.79555555555555,11.186440677966102,35.724444444444444,12.203389830508474,35.653333333333336C13.220338983050846,35.58222222222223,14.23728813559322,35.57333333333334,15.254237288135592,35.46666666666667C16.271186440677965,35.36,17.28813559322034,35.22222222222223,18.305084745762713,35.013333333333335C19.322033898305087,34.80444444444445,20.338983050847457,34.45777777777778,21.35593220338983,34.21333333333333C22.372881355932204,33.968888888888884,23.389830508474574,33.715555555555554,24.406779661016948,33.54666666666667C25.423728813559322,33.37777777777778,26.440677966101696,33.38222222222222,27.45762711864407,33.199999999999996C28.47457627118644,33.01777777777777,29.491525423728813,32.71111111111111,30.508474576271183,32.45333333333333C31.525423728813557,32.19555555555556,32.54237288135593,31.884444444444444,33.559322033898304,31.653333333333332C34.57627118644068,31.42222222222222,35.59322033898305,31.066666666666663,36.610169491525426,31.066666666666663C37.6271186440678,31.066666666666663,38.644067796610166,31.066666666666663,39.66101694915254,31.066666666666663C40.67796610169491,31.066666666666663,41.69491525423729,30.986666666666665,42.71186440677966,30.986666666666665C43.728813559322035,30.986666666666665,44.7457627118644,31.306666666666665,45.762711864406775,31.306666666666665C46.77966101694915,31.306666666666665,47.79661016949152,30.62222222222222,48.813559322033896,30.4C49.83050847457627,30.177777777777777,50.847457627118644,30.253333333333337,51.86440677966102,29.973333333333336C52.88135593220339,29.693333333333335,53.898305084745765,29.00888888888889,54.91525423728814,28.72C55.93220338983051,28.43111111111111,56.94915254237288,28.439999999999998,57.96610169491525,28.24C58.983050847457626,28.04,59.99999999999999,27.791111111111107,61.01694915254237,27.519999999999996C62.03389830508474,27.248888888888885,63.05084745762712,27.00888888888889,64.0677966101695,26.613333333333333C65.08474576271186,26.21777777777778,66.10169491525424,25.560000000000002,67.11864406779661,25.14666666666667C68.13559322033899,24.733333333333334,69.15254237288136,24.346666666666668,70.16949152542374,24.133333333333333C71.1864406779661,23.919999999999998,72.20338983050848,23.933333333333334,73.22033898305085,23.813333333333333C74.23728813559322,23.69333333333333,75.2542372881356,23.68,76.27118644067797,23.41333333333333C77.28813559322033,23.14666666666666,78.30508474576271,21.502222222222212,79.32203389830508,20.986666666666665C80.33898305084746,20.471111111111114,81.35593220338983,20.586666666666673,82.37288135593221,20.21333333333334C83.38983050847457,19.840000000000007,84.40677966101696,19.168888888888887,85.42372881355932,18.746666666666666C86.4406779661017,18.324444444444442,87.45762711864407,18.14666666666667,88.47457627118645,17.68C89.49152542372882,17.213333333333335,90.50847457627118,16.34222222222222,91.52542372881355,15.946666666666665C92.54237288135593,15.551111111111105,93.55932203389831,15.65333333333334,94.57627118644069,15.306666666666668C95.59322033898306,14.960000000000003,96.61016949152543,13.866666666666667,97.62711864406779,13.866666666666667C98.64406779661016,13.866666666666667,99.66101694915254,14.079999999999998,100.6779661016949,14.079999999999998C101.69491525423729,14.079999999999998,102.71186440677965,12.026666666666667,103.72881355932203,11.813333333333333C104.7457627118644,11.6,105.76271186440678,11.70222222222222,106.77966101694915,11.493333333333332C107.79661016949153,11.284444444444443,108.8135593220339,10.56,109.83050847457628,10.56C110.84745762711864,10.56,111.86440677966102,10.853333333333332,112.88135593220339,10.906666666666665C113.89830508474576,10.959999999999997,114.91525423728814,10.933333333333332,115.9322033898305,10.986666666666665C116.94915254237289,11.039999999999997,117.96610169491525,11.973333333333333,118.98305084745763,11.973333333333333C120,11.973333333333333,121.01694915254237,11.786666666666665,122.03389830508473,11.786666666666665C123.05084745762711,11.786666666666665,124.0677966101695,13.226666666666667,125.08474576271188,13.226666666666667C126.10169491525424,13.226666666666667,127.11864406779662,12.991111111111111,128.135593220339,12.906666666666666C129.15254237288136,12.822222222222223,130.16949152542372,12.719999999999999,131.1864406779661,12.719999999999999C132.20338983050846,12.719999999999999,133.22033898305085,12.986666666666666,134.23728813559322,12.986666666666666C135.25423728813558,12.986666666666666,136.27118644067798,12.693333333333335,137.28813559322035,12.693333333333335C138.3050847457627,12.693333333333335,139.3220338983051,12.862222222222224,140.33898305084747,12.933333333333334C141.35593220338984,13.004444444444443,142.3728813559322,13.066666666666665,143.38983050847457,13.119999999999997C144.40677966101694,13.173333333333332,145.42372881355934,13.164444444444444,146.4406779661017,13.253333333333334C147.45762711864407,13.342222222222224,148.47457627118644,14.573333333333336,149.4915254237288,15.2C150.50847457627117,15.82666666666667,151.52542372881356,16.506666666666668,152.54237288135593,17.013333333333335C153.5593220338983,17.520000000000003,154.5762711864407,17.888888888888886,155.59322033898306,18.24C156.61016949152543,18.591111111111108,157.6271186440678,18.693333333333335,158.64406779661016,19.119999999999997C159.66101694915253,19.546666666666667,160.67796610169492,20.151111111111113,161.6949152542373,20.8C162.71186440677965,21.448888888888888,163.72881355932205,22.422222222222217,164.74576271186442,23.01333333333333C165.76271186440678,23.604444444444436,166.77966101694915,23.991111111111113,167.79661016949152,24.346666666666668C168.81355932203388,24.702222222222225,169.83050847457628,24.88888888888889,170.84745762711864,25.14666666666667C171.864406779661,25.404444444444447,172.8813559322034,25.626666666666665,173.89830508474577,25.89333333333333C174.91525423728814,26.159999999999997,175.93220338983053,26.226666666666663,176.9491525423729,26.74666666666667C177.96610169491527,27.26666666666667,178.98305084745763,28.140000000000004,180,29.013333333333335L180,40C178.98305084745763,40,177.96610169491527,40,176.9491525423729,40C175.93220338983053,40,174.91525423728814,40,173.89830508474577,40C172.8813559322034,40,171.864406779661,40,170.84745762711864,40C169.83050847457628,40,168.81355932203388,40,167.79661016949152,40C166.77966101694915,40,165.76271186440678,40,164.74576271186442,40C163.72881355932205,40,162.71186440677965,40,161.6949152542373,40C160.67796610169492,40,159.66101694915253,40,158.64406779661016,40C157.6271186440678,40,156.61016949152543,40,155.59322033898306,40C154.5762711864407,40,153.5593220338983,40,152.54237288135593,40C151.52542372881356,40,150.50847457627117,40,149.4915254237288,40C148.47457627118644,40,147.45762711864407,40,146.4406779661017,40C145.42372881355934,40,144.40677966101694,40,143.38983050847457,40C142.3728813559322,40,141.35593220338984,40,140.33898305084747,40C139.3220338983051,40,138.3050847457627,40,137.28813559322035,40C136.27118644067798,40,135.25423728813558,40,134.23728813559322,40C133.22033898305085,40,132.20338983050846,40,131.1864406779661,40C130.16949152542372,40,129.15254237288136,40,128.135593220339,40C127.11864406779662,40,126.10169491525424,40,125.08474576271188,40C124.0677966101695,40,123.05084745762711,40,122.03389830508473,40C121.01694915254237,40,120,40,118.98305084745763,40C117.96610169491525,40,116.94915254237289,40,115.9322033898305,40C114.91525423728814,40,113.89830508474576,40,112.88135593220339,40C111.86440677966102,40,110.84745762711864,40,109.83050847457628,40C108.8135593220339,40,107.79661016949153,40,106.77966101694915,40C105.76271186440678,40,104.7457627118644,40,103.72881355932203,40C102.71186440677965,40,101.69491525423729,40,100.6779661016949,40C99.66101694915254,40,98.64406779661016,40,97.62711864406779,40C96.61016949152543,40,95.59322033898306,40,94.57627118644069,40C93.55932203389831,40,92.54237288135593,40,91.52542372881355,40C90.50847457627118,40,89.49152542372882,40,88.47457627118645,40C87.45762711864407,40,86.4406779661017,40,85.42372881355932,40C84.40677966101696,40,83.38983050847457,40,82.37288135593221,40C81.35593220338983,40,80.33898305084746,40,79.32203389830508,40C78.30508474576271,40,77.28813559322033,40,76.27118644067797,40C75.2542372881356,40,74.23728813559322,40,73.22033898305085,40C72.20338983050848,40,71.1864406779661,40,70.16949152542374,40C69.15254237288136,40,68.13559322033899,40,67.11864406779661,40C66.10169491525424,40,65.08474576271186,40,64.0677966101695,40C63.05084745762712,40,62.03389830508474,40,61.01694915254237,40C59.99999999999999,40,58.983050847457626,40,57.96610169491525,40C56.94915254237288,40,55.93220338983051,40,54.91525423728814,40C53.898305084745765,40,52.88135593220339,40,51.86440677966102,40C50.847457627118644,40,49.83050847457627,40,48.813559322033896,40C47.79661016949152,40,46.77966101694915,40,45.762711864406775,40C44.7457627118644,40,43.728813559322035,40,42.71186440677966,40C41.69491525423729,40,40.67796610169491,40,39.66101694915254,40C38.644067796610166,40,37.6271186440678,40,36.610169491525426,40C35.59322033898305,40,34.57627118644068,40,33.559322033898304,40C32.54237288135593,40,31.525423728813557,40,30.508474576271183,40C29.491525423728813,40,28.47457627118644,40,27.45762711864407,40C26.440677966101696,40,25.423728813559322,40,24.406779661016948,40C23.389830508474574,40,22.372881355932204,40,21.35593220338983,40C20.338983050847457,40,19.322033898305087,40,18.305084745762713,40C17.28813559322034,40,16.271186440677965,40,15.254237288135592,40C14.23728813559322,40,13.220338983050846,40,12.203389830508474,40C11.186440677966102,40,10.169491525423728,40,9.152542372881356,40C8.135593220338983,40,7.11864406779661,40,6.101694915254237,40C5.084745762711864,40,4.067796610169491,40,3.0508474576271185,40C2.0338983050847457,40,1.0169491525423728,40,0,40Z"></path><path class="line" stroke="black" fill="none" d="M0,36.29333333333334C1.0169491525423728,36.333333333333336,2.0338983050847457,36.373333333333335,3.0508474576271185,36.373333333333335C4.067796610169491,36.373333333333335,5.084745762711864,36.32,6.101694915254237,36.24C7.11864406779661,36.160000000000004,8.135593220338983,35.99111111111111,9.152542372881356,35.89333333333333C10.169491525423728,35.79555555555555,11.186440677966102,35.724444444444444,12.203389830508474,35.653333333333336C13.220338983050846,35.58222222222223,14.23728813559322,35.57333333333334,15.254237288135592,35.46666666666667C16.271186440677965,35.36,17.28813559322034,35.22222222222223,18.305084745762713,35.013333333333335C19.322033898305087,34.80444444444445,20.338983050847457,34.45777777777778,21.35593220338983,34.21333333333333C22.372881355932204,33.968888888888884,23.389830508474574,33.715555555555554,24.406779661016948,33.54666666666667C25.423728813559322,33.37777777777778,26.440677966101696,33.38222222222222,27.45762711864407,33.199999999999996C28.47457627118644,33.01777777777777,29.491525423728813,32.71111111111111,30.508474576271183,32.45333333333333C31.525423728813557,32.19555555555556,32.54237288135593,31.884444444444444,33.559322033898304,31.653333333333332C34.57627118644068,31.42222222222222,35.59322033898305,31.066666666666663,36.610169491525426,31.066666666666663C37.6271186440678,31.066666666666663,38.644067796610166,31.066666666666663,39.66101694915254,31.066666666666663C40.67796610169491,31.066666666666663,41.69491525423729,30.986666666666665,42.71186440677966,30.986666666666665C43.728813559322035,30.986666666666665,44.7457627118644,31.306666666666665,45.762711864406775,31.306666666666665C46.77966101694915,31.306666666666665,47.79661016949152,30.62222222222222,48.813559322033896,30.4C49.83050847457627,30.177777777777777,50.847457627118644,30.253333333333337,51.86440677966102,29.973333333333336C52.88135593220339,29.693333333333335,53.898305084745765,29.00888888888889,54.91525423728814,28.72C55.93220338983051,28.43111111111111,56.94915254237288,28.439999999999998,57.96610169491525,28.24C58.983050847457626,28.04,59.99999999999999,27.791111111111107,61.01694915254237,27.519999999999996C62.03389830508474,27.248888888888885,63.05084745762712,27.00888888888889,64.0677966101695,26.613333333333333C65.08474576271186,26.21777777777778,66.10169491525424,25.560000000000002,67.11864406779661,25.14666666666667C68.13559322033899,24.733333333333334,69.15254237288136,24.346666666666668,70.16949152542374,24.133333333333333C71.1864406779661,23.919999999999998,72.20338983050848,23.933333333333334,73.22033898305085,23.813333333333333C74.23728813559322,23.69333333333333,75.2542372881356,23.68,76.27118644067797,23.41333333333333C77.28813559322033,23.14666666666666,78.30508474576271,21.502222222222212,79.32203389830508,20.986666666666665C80.33898305084746,20.471111111111114,81.35593220338983,20.586666666666673,82.37288135593221,20.21333333333334C83.38983050847457,19.840000000000007,84.40677966101696,19.168888888888887,85.42372881355932,18.746666666666666C86.4406779661017,18.324444444444442,87.45762711864407,18.14666666666667,88.47457627118645,17.68C89.49152542372882,17.213333333333335,90.50847457627118,16.34222222222222,91.52542372881355,15.946666666666665C92.54237288135593,15.551111111111105,93.55932203389831,15.65333333333334,94.57627118644069,15.306666666666668C95.59322033898306,14.960000000000003,96.61016949152543,13.866666666666667,97.62711864406779,13.866666666666667C98.64406779661016,13.866666666666667,99.66101694915254,14.079999999999998,100.6779661016949,14.079999999999998C101.69491525423729,14.079999999999998,102.71186440677965,12.026666666666667,103.72881355932203,11.813333333333333C104.7457627118644,11.6,105.76271186440678,11.70222222222222,106.77966101694915,11.493333333333332C107.79661016949153,11.284444444444443,108.8135593220339,10.56,109.83050847457628,10.56C110.84745762711864,10.56,111.86440677966102,10.853333333333332,112.88135593220339,10.906666666666665C113.89830508474576,10.959999999999997,114.91525423728814,10.933333333333332,115.9322033898305,10.986666666666665C116.94915254237289,11.039999999999997,117.96610169491525,11.973333333333333,118.98305084745763,11.973333333333333C120,11.973333333333333,121.01694915254237,11.786666666666665,122.03389830508473,11.786666666666665C123.05084745762711,11.786666666666665,124.0677966101695,13.226666666666667,125.08474576271188,13.226666666666667C126.10169491525424,13.226666666666667,127.11864406779662,12.991111111111111,128.135593220339,12.906666666666666C129.15254237288136,12.822222222222223,130.16949152542372,12.719999999999999,131.1864406779661,12.719999999999999C132.20338983050846,12.719999999999999,133.22033898305085,12.986666666666666,134.23728813559322,12.986666666666666C135.25423728813558,12.986666666666666,136.27118644067798,12.693333333333335,137.28813559322035,12.693333333333335C138.3050847457627,12.693333333333335,139.3220338983051,12.862222222222224,140.33898305084747,12.933333333333334C141.35593220338984,13.004444444444443,142.3728813559322,13.066666666666665,143.38983050847457,13.119999999999997C144.40677966101694,13.173333333333332,145.42372881355934,13.164444444444444,146.4406779661017,13.253333333333334C147.45762711864407,13.342222222222224,148.47457627118644,14.573333333333336,149.4915254237288,15.2C150.50847457627117,15.82666666666667,151.52542372881356,16.506666666666668,152.54237288135593,17.013333333333335C153.5593220338983,17.520000000000003,154.5762711864407,17.888888888888886,155.59322033898306,18.24C156.61016949152543,18.591111111111108,157.6271186440678,18.693333333333335,158.64406779661016,19.119999999999997C159.66101694915253,19.546666666666667,160.67796610169492,20.151111111111113,161.6949152542373,20.8C162.71186440677965,21.448888888888888,163.72881355932205,22.422222222222217,164.74576271186442,23.01333333333333C165.76271186440678,23.604444444444436,166.77966101694915,23.991111111111113,167.79661016949152,24.346666666666668C168.81355932203388,24.702222222222225,169.83050847457628,24.88888888888889,170.84745762711864,25.14666666666667C171.864406779661,25.404444444444447,172.8813559322034,25.626666666666665,173.89830508474577,25.89333333333333C174.91525423728814,26.159999999999997,175.93220338983053,26.226666666666663,176.9491525423729,26.74666666666667C177.96610169491527,27.26666666666667,178.98305084745763,28.140000000000004,180,29.013333333333335"></path><path class="axis-ceiling" stroke-width="1" stroke="black" fill="none" d="M175,0L180,0"></path><text class="axis-ceiling-label" font-family="sans-serif" text-anchor="end" font-size="10px" x="170" y="2.5">1500</text></g></svg>