<svg xmlns="http://www.w3.org/2000/svg" viewBox="0 0 180 60"><g transform="translate(0,20)"><path class="area" fill="rgba(0, 0, 0, 0.2)" d="M0,37.44C1.0344827586206897,37.666666666666664,2.068965517241379,37.89333333333333,3.103448275862069,37.89333333333333C4.137931034482759,37.89333333333333,5.172413793103448,37.68,6.206896551724138,37.28C7.241379310344827,36.88,8.275862068965516,35.49333333333333,9.310344827586206,35.49333333333333C10.344827586206897,35.49333333333333,11.379310344827585,36.453333333333326,12.413793103448276,36.61333333333333C13.448275862068966,36.77333333333333,14.482758620689655,36.85333333333333,15.517241379310345,36.85333333333333C16.551724137931036,36.85333333333333,17.586206896551722,36.68888888888889,18.620689655172413,36.64C19.655172413793103,36.59111111111111,20.689655172413794,36.61333333333334,21.724137931034484,36.56C22.758620689655174,36.50666666666667,23.79310344827586,36.16444444444445,24.82758620689655,36.02666666666667C25.862068965517242,35.88888888888889,26.896551724137932,35.733333333333334,27.931034482758623,35.733333333333334C28.965517241379313,35.733333333333334,30,36.18666666666667,31.03448275862069,36.18666666666667C32.06896551724138,36.18666666666667,33.103448275862064,35.800000000000004,34.137931034482754,35.52C35.172413793103445,35.24,36.206896551724135,34.50666666666667,37.241379310344826,34.50666666666667C38.275862068965516,34.50666666666667,39.310344827586206,34.76888888888889,40.3448275862069,34.906666666666666C41.37931034482759,35.044444444444444,42.41379310344828,35.33333333333333,43.44827586206897,35.33333333333333C44.48275862068966,35.33333333333333,45.51724137931035,33.74666666666667,46.55172413793104,32.88C47.58620689655173,32.013333333333335,48.62068965517241,30.133333333333333,49.6551724137931,30.133333333333333C50.689655172413794,30.133333333333333,51.72413793103448,31.013333333333332,52.75862068965517,31.493333333333332C53.79310344827586,31.973333333333333,54.827586206896555,33.013333333333335,55.862068965517246,33.013333333333335C56.896551724137936,33.013333333333335,57.93103448275862,29.404444444444447,58.96551724137931,29.333333333333336C60,29.262222222222224,61.03448275862069,29.226666666666667,62.06896551724138,29.226666666666667C63.10344827586207,29.226666666666667,64.13793103448276,30.64,65.17241379310344,31.253333333333334C66.20689655172413,31.866666666666667,67.24137931034483,32.906666666666666,68.27586206896551,32.906666666666666C69.3103448275862,32.906666666666666,70.34482758620689,29.573333333333338,71.37931034482759,29.573333333333338C72.41379310344827,29.573333333333338,73.44827586206897,33.81333333333333,74.48275862068965,33.81333333333333C75.51724137931033,33.81333333333333,76.55172413793103,26.782222222222227,77.58620689655172,26.58666666666667C78.62068965517241,26.391111111111112,79.6551724137931,26.48888888888889,80.6896551724138,26.293333333333333C81.72413793103448,26.097777777777775,82.75862068965517,20.506666666666664,83.79310344827586,20.506666666666664C84.82758620689656,20.506666666666664,85.86206896551724,27.751111111111104,86.89655172413794,27.839999999999996C87.93103448275862,27.92888888888889,88.96551724137932,27.973333333333336,90,27.973333333333336C91.0344827586207,27.973333333333336,92.06896551724138,23.200000000000003,93.10344827586208,23.200000000000003C94.13793103448276,23.200000000000003,95.17241379310344,23.520000000000003,96.20689655172413,23.520000000000003C97.24137931034483,23.520000000000003,98.27586206896551,19.6,99.3103448275862,19.6C100.3448275862069,19.6,101.37931034482759,24.05333333333333,102.41379310344828,24.05333333333333C103.44827586206897,24.05333333333333,104.48275862068965,19.9111111111111,105.51724137931033,17.706666666666667C106.55172413793103,15.502222222222214,107.58620689655172,10.826666666666668,108.62068965517241,10.826666666666668C109.65517241379311,10.826666666666668,110.6896551724138,22.560000000000002,111.72413793103449,22.560000000000002C112.75862068965517,22.560000000000002,113.79310344827587,12.799999999999997,114.82758620689656,12.799999999999997C115.86206896551724,12.799999999999997,116.89655172413794,16.133333333333333,117.93103448275862,16.133333333333333C118.96551724137932,16.133333333333333,120,7.466666666666666,121.0344827586207,7.466666666666666C122.06896551724138,7.466666666666666,123.10344827586208,19.546666666666667,124.13793103448276,19.546666666666667C125.17241379310344,19.546666666666667,126.20689655172414,7.626666666666666,127.24137931034483,7.626666666666666C128.27586206896552,7.626666666666666,129.3103448275862,12.293333333333333,130.3448275862069,12.293333333333333C131.3793103448276,12.293333333333333,132.41379310344828,6.800000000000002,133.44827586206898,6.800000000000002C134.48275862068965,6.800000000000002,135.51724137931035,10.58666666666667,136.55172413793102,10.58666666666667C137.58620689655172,10.58666666666667,138.6206896551724,9.493333333333332,139.6551724137931,9.493333333333332C140.6896551724138,9.493333333333332,141.72413793103448,9.644444444444444,142.75862068965517,9.946666666666669C143.79310344827587,10.248888888888894,144.82758620689654,20.16,145.86206896551724,20.16C146.89655172413794,20.16,147.9310344827586,16.026666666666664,148.9655172413793,14.48C150,12.933333333333323,151.0344827586207,10.88,152.0689655172414,10.88C153.10344827586206,10.88,154.13793103448276,16.96,155.17241379310343,16.96C156.20689655172413,16.96,157.24137931034483,8.266666666666666,158.27586206896552,8.266666666666666C159.31034482758622,8.266666666666666,160.3448275862069,8.293333333333333,161.3793103448276,8.346666666666668C162.41379310344828,8.400000000000002,163.44827586206895,10.142222222222223,164.48275862068965,11.760000000000002C165.51724137931035,13.37777777777778,166.55172413793102,18.053333333333335,167.58620689655172,18.053333333333335C168.6206896551724,18.053333333333335,169.6551724137931,17.106666666666673,170.6896551724138,16.133333333333333C171.7241379310345,15.160000000000002,172.75862068965517,12.213333333333335,173.79310344827587,12.213333333333335C174.82758620689657,12.213333333333335,175.86206896551724,16.315555555555555,176.89655172413794,17.919999999999998C177.93103448275863,19.52444444444444,178.9655172413793,20.682222222222222,180,21.840000000000003L180,40C178.9655172413793,40,177.93103448275863,40,176.89655172413794,40C175.86206896551724,40,174.82758620689657,40,173.79310344827587,40C172.75862068965517,40,171.7241379310345,40,170.6896551724138,40C169.6551724137931,40,168.6206896551724,40,167.58620689655172,40C166.55172413793102,40,165.51724137931035,40,164.48275862068965,40C163.44827586206895,40,162.41379310344828,40,161.3793103448276,40C160.3448275862069,40,159.31034482758622,40,158.27586206896552,40C157.24137931034483,40,156.20689655172413,40,155.17241379310343,40C154.13793103448276,40,153.10344827586206,40,152.0689655172414,40C151.0344827586207,40,150,40,148.9655172413793,40C147.9310344827586,40,146.89655172413794,40,145.86206896551724,40C144.82758620689654,40,143.79310344827587,40,142.75862068965517,40C141.72413793103448,40,140.6896551724138,40,139.6551724137931,40C138.6206896551724,40,137.58620689655172,40,136.55172413793102,40C135.51724137931035,40,134.48275862068965,40,133.44827586206898,40C132.41379310344828,40,131.3793103448276,40,130.3448275862069,40C129.3103448275862,40,128.27586206896552,40,127.24137931034483,40C126.20689655172414,40,125.17241379310344,40,124.13793103448276,40C123.10344827586208,40,122.06896551724138,40,121.0344827586207,40C120,40,118.96551724137932,40,117.93103448275862,40C116.89655172413794,40,115.86206896551724,40,114.82758620689656,40C113.79310344827587,40,112.75862068965517,40,111.72413793103449,40C110.6896551724138,40,109.65517241379311,40,108.62068965517241,40C107.58620689655172,40,106.55172413793103,40,105.51724137931033,40C104.48275862068965,40,103.44827586206897,40,102.41379310344828,40C101.37931034482759,40,100.3448275862069,40,99.3103448275862,40C98.27586206896551,40,97.24137931034483,40,96.20689655172413,40C95.17241379310344,40,94.13793103448276,40,93.10344827586208,40C92.06896551724138,40,91.0344827586207,40,90,40C88.96551724137932,40,87.93103448275862,40,86.89655172413794,40C85.86206896551724,40,84.82758620689656,40,83.79310344827586,40C82.75862068965517,40,81.72413793103448,40,80.6896551724138,40C79.6551724137931,40,78.62068965517241,40,77.58620689655172,40C76.55172413793103,40,75.51724137931033,40,74.48275862068965,40C73.44827586206897,40,72.41379310344827,40,71.37931034482759,40C70.34482758620689,40,69.3103448275862,40,68.27586206896551,40C67.24137931034483,40,66.20689655172413,40,65.17241379310344,40C64.13793103448276,40,63.10344827586207,40,62.06896551724138,40C61.03448275862069,40,60,40,58.96551724137931,40C57.93103448275862,40,56.896551724137936,40,55.862068965517246,40C54.827586206896555,40,53.79310344827586,40,52.75862068965517,40C51.72413793103448,40,50.689655172413794,40,49.6551724137931,40C48.62068965517241,40,47.58620689655173,40,46.55172413793104,40C45.51724137931035,40,44.48275862068966,40,43.44827586206897,40C42.41379310344828,40,41.37931034482759,40,40.3448275862069,40C39.310344827586206,40,38.275862068965516,40,37.241379310344826,40C36.206896551724135,40,35.172413793103445,40,34.137931034482754,40C33.103448275862064,40,32.06896551724138,40,31.03448275862069,40C30,40,28.965517241379313,40,27.931034482758623,40C26.896551724137932,40,25.862068965517242,40,24.82758620689655,40C23.79310344827586,40,22.758620689655174,40,21.724137931034484,40C20.689655172413794,40,19.655172413793103,40,18.620689655172413,40C17.586206896551722,40,16.551724137931036,40,15.517241379310345,40C14.482758620689655,40,13.448275862068966,40,12.413793103448276,40C11.379310344827585,40,10.344827586206897,40,9.310344827586206,40C8.275862068965516,40,7.241379310344827,40,6.206896551724138,40C5.172413793103448,40,4.137931034482759,40,3.103448275862069,40C2.068965517241379,40,1.0344827586206897,40,0,40Z"></path><path class="line" stroke="black" fill="none" d="M0,37.44C1.0344827586206897,37.666666666666664,2.068965517241379,37.89333333333333,3.103448275862069,37.89333333333333C4.137931034482759,37.89333333333333,5.172413793103448,37.68,6.206896551724138,37.28C7.241379310344827,36.88,8.275862068965516,35.49333333333333,9.310344827586206,35.49333333333333C10.344827586206897,35.49333333333333,11.379310344827585,36.453333333333326,12.413793103448276,36.61333333333333C13.448275862068966,36.77333333333333,14.482758620689655,36.85333333333333,15.517241379310345,36.85333333333333C16.551724137931036,36.85333333333333,17.586206896551722,36.68888888888889,18.620689655172413,36.64C19.655172413793103,36.59111111111111,20.689655172413794,36.61333333333334,21.724137931034484,36.56C22.758620689655174,36.50666666666667,23.79310344827586,36.16444444444445,24.82758620689655,36.02666666666667C25.862068965517242,35.88888888888889,26.896551724137932,35.733333333333334,27.931034482758623,35.733333333333334C28.965517241379313,35.733333333333334,30,36.18666666666667,31.03448275862069,36.18666666666667C32.06896551724138,36.18666666666667,33.103448275862064,35.800000000000004,34.137931034482754,35.52C35.172413793103445,35.24,36.206896551724135,34.50666666666667,37.241379310344826,34.50666666666667C38.275862068965516,34.50666666666667,39.310344827586206,34.76888888888889,40.3448275862069,34.906666666666666C41.37931034482759,35.044444444444444,42.41379310344828,35.33333333333333,43.44827586206897,35.33333333333333C44.48275862068966,35.33333333333333,45.51724137931035,33.74666666666667,46.55172413793104,32.88C47.58620689655173,32.013333333333335,48.62068965517241,30.133333333333333,49.6551724137931,30.133333333333333C50.689655172413794,30.133333333333333,51.72413793103448,31.013333333333332,52.75862068965517,31.493333333333332C53.79310344827586,31.973333333333333,54.827586206896555,33.013333333333335,55.862068965517246,33.013333333333335C56.896551724137936,33.013333333333335,57.93103448275862,29.404444444444447,58.96551724137931,29.333333333333336C60,29.262222222222224,61.03448275862069,29.226666666666667,62.06896551724138,29.226666666666667C63.10344827586207,29.226666666666667,64.13793103448276,30.64,65.17241379310344,31.253333333333334C66.20689655172413,31.866666666666667,67.24137931034483,32.906666666666666,68.27586206896551,32.906666666666666C69.3103448275862,32.906666666666666,70.34482758620689,29.573333333333338,71.37931034482759,29.573333333333338C72.41379310344827,29.573333333333338,73.44827586206897,33.81333333333333,74.48275862068965,33.81333333333333C75.51724137931033,33.81333333333333,76.55172413793103,26.782222222222227,77.58620689655172,26.58666666666667C78.62068965517241,26.391111111111112,79.6551724137931,26.48888888888889,80.6896551724138,26.293333333333333C81.72413793103448,26.097777777777775,82.75862068965517,20.506666666666664,83.79310344827586,20.506666666666664C84.82758620689656,20.506666666666664,85.86206896551724,27.751111111111104,86.89655172413794,27.839999999999996C87.93103448275862,27.92888888888889,88.96551724137932,27.973333333333336,90,27.973333333333336C91.0344827586207,27.973333333333336,92.06896551724138,23.200000000000003,93.10344827586208,23.200000000000003C94.13793103448276,23.200000000000003,95.17241379310344,23.520000000000003,96.20689655172413,23.520000000000003C97.24137931034483,23.520000000000003,98.27586206896551,19.6,99.3103448275862,19.6C100.3448275862069,19.6,101.37931034482759,24.05333333333333,102.41379310344828,24.05333333333333C103.44827586206897,24.05333333333333,104.48275862068965,19.9111111111111,105.51724137931033,17.706666666666667C106.55172413793103,15.502222222222214,107.58620689655172,10.826666666666668,108.62068965517241,10.826666666666668C109.65517241379311,10.826666666666668,110.6896551724138,22.560000000000002,111.72413793103449,22.560000000000002C112.75862068965517,22.560000000000002,113.79310344827587,12.799999999999997,114.82758620689656,12.799999999999997C115.86206896551724,12.799999999999997,116.89655172413794,16.133333333333333,117.93103448275862,16.133333333333333C118.96551724137932,16.133333333333333,120,7.466666666666666,121.0344827586207,7.466666666666666C122.06896551724138,7.466666666666666,123.10344827586208,19.546666666666667,124.13793103448276,19.546666666666667C125.17241379310344,19.546666666666667,126.20689655172414,7.626666666666666,127.24137931034483,7.626666666666666C128.27586206896552,7.626666666666666,129.3103448275862,12.293333333333333,130.3448275862069,12.293333333333333C131.3793103448276,12.293333333333333,132.41379310344828,6.800000000000002,133.44827586206898,6.800000000000002C134.48275862068965,6.800000000000002,135.51724137931035,10.58666666666667,136.55172413793102,10.58666666666667C137.58620689655172,10.58666666666667,138.6206896551724,9.493333333333332,139.6551724137931,9.493333333333332C140.6896551724138,9.493333333333332,141.72413793103448,9.644444444444444,142.75862068965517,9.946666666666669C143.79310344827587,10.248888888888894,144.82758620689654,20.16,145.86206896551724,20.16C146.89655172413794,20.16,147.9310344827586,16.026666666666664,148.9655172413793,14.48C150,12.933333333333323,151.0344827586207,10.88,152.0689655172414,10.88C153.10344827586206,10.88,154.13793103448276,16.96,155.17241379310343,16.96C156.20689655172413,16.96,157.24137931034483,8.266666666666666,158.27586206896552,8.266666666666666C159.31034482758622,8.266666666666666,160.3448275862069,8.293333333333333,161.3793103448276,8.346666666666668C162.41379310344828,8.400000000000002,163.44827586206895,10.142222222222223,164.48275862068965,11.760000000000002C165.51724137931035,13.37777777777778,166.55172413793102,18.053333333333335,167.58620689655172,18.053333333333335C168.6206896551724,18.053333333333335,169.6551724137931,17.106666666666673,170.6896551724138,16.133333333333333C171.7241379310345,15.160000000000002,172.75862068965517,12.213333333333335,173.79310344827587,12.213333333333335C174.82758620689657,12.213333333333335,175.86206896551724,16.315555555555555,176.89655172413794,17.919999999999998C177.93103448275863,19.52444444444444,178.9655172413793,20.682222222222222,180,21.840000000000003"></path><path class="axis-ceiling" stroke-width="1" stroke="black" fill="none" d="M175,0L180,0"></path><text class="axis-ceiling-label" font-family="sans-serif" text-anchor="end" font-size="10px" x="170" y="2.5">1500</text></g></svg>