<svg xmlns="http://www.w3.org/2000/svg" viewBox="0 0 180 60"><g transform="translate(0,20)"><path class="area" fill="rgba(0, 0, 0, 0.2)" d="M0,22.1C1.0344827586206897,18.85,2.068965517241379,15.600000000000001,3.103448275862069,15.600000000000001C4.137931034482759,15.600000000000001,5.172413793103448,24.660000000000004,6.206896551724138,24.660000000000004C7.241379310344827,24.660000000000004,8.275862068965516,15.72,9.310344827586206,15.72C10.344827586206897,15.72,11.379310344827585,19.220000000000002,12.413793103448276,19.220000000000002C13.448275862068966,19.220000000000002,14.482758620689655,15.099999999999998,15.517241379310345,15.099999999999998C16.551724137931036,15.099999999999998,17.586206896551722,17.94,18.620689655172413,17.94C19.655172413793103,17.94,20.689655172413794,17.12,21.724137931034484,17.12C22.758620689655174,17.12,23.79310344827586,17.233333333333334,24.82758620689655,17.46C25.862068965517242,17.686666666666667,26.896551724137932,25.12,27.931034482758623,25.12C28.965517241379313,25.12,30,22.020000000000003,31.03448275862069,20.860000000000003C32.06896551724138,19.700000000000003,33.103448275862064,18.159999999999997,34.137931034482754,18.159999999999997C35.172413793103445,18.159999999999997,36.206896551724135,22.720000000000002,37.241379310344826,22.720000000000002C38.275862068965516,22.720000000000002,39.310344827586206,16.200000000000003,40.3448275862069,16.200000000000003C41.37931034482759,16.200000000000003,42.41379310344828,16.220000000000002,43.44827586206897,16.259999999999998C44.48275862068966,16.299999999999994,45.51724137931035,17.606666666666666,46.55172413793104,18.82C47.58620689655173,20.03333333333333,48.62068965517241,23.54,49.6551724137931,23.54C50.689655172413794,23.54,51.72413793103448,22.83,52.75862068965517,22.1C53.79310344827586,21.37,54.827586206896555,19.16,55.862068965517246,19.16C56.896551724137936,19.16,57.93103448275862,22.23666666666667,58.96551724137931,23.440000000000005C60,24.64333333333334,61.03448275862069,26.38,62.06896551724138,26.38C63.10344827586207,26.38,64.13793103448276,25.96666666666667,65.17241379310344,25.78C66.20689655172413,25.593333333333334,67.24137931034483,25.259999999999998,68.27586206896551,25.259999999999998C69.3103448275862,25.259999999999998,70.34482758620689,27.176666666666666,71.37931034482759,28.14C72.41379310344827,29.10333333333333,73.44827586206897,31.04,74.48275862068965,31.04C75.51724137931033,31.04,76.55172413793103,30.819999999999997,77.58620689655172,30.72C78.62068965517241,30.619999999999997,79.6551724137931,30.44,80.6896551724138,30.44C81.72413793103448,30.44,82.75862068965517,30.560000000000002,83.79310344827586,30.560000000000002C84.82758620689656,30.560000000000002,85.86206896551724,29.68,86.89655172413794,29.68C87.93103448275862,29.68,88.96551724137932,29.71333333333333,90,29.779999999999998C91.0344827586207,29.846666666666664,92.06896551724138,29.88,93.10344827586208,30.08C94.13793103448276,30.279999999999998,95.17241379310344,33.64,96.20689655172413,33.64C97.24137931034483,33.64,98.27586206896551,30.16,99.3103448275862,30.16C100.3448275862069,30.16,101.37931034482759,30.779999999999998,102.41379310344828,30.779999999999998C103.44827586206897,30.779999999999998,104.48275862068965,28.406666666666663,105.51724137931033,27.94C106.55172413793103,27.473333333333336,107.58620689655172,27.240000000000002,108.62068965517241,27.240000000000002C109.65517241379311,27.240000000000002,110.6896551724138,30.18,111.72413793103449,30.18C112.75862068965517,30.18,113.79310344827587,28.48666666666667,114.82758620689656,28.380000000000003C115.86206896551724,28.273333333333333,116.89655172413794,28.326666666666668,117.93103448275862,28.22C118.96551724137932,28.11333333333333,120,27.32,121.0344827586207,27.32C122.06896551724138,27.32,123.10344827586208,27.5,124.13793103448276,27.5C125.17241379310344,27.5,126.20689655172414,25.419999999999998,127.24137931034483,25.419999999999998C128.27586206896552,25.419999999999998,129.3103448275862,26.38,130.3448275862069,26.38C131.3793103448276,26.38,132.41379310344828,23.28,133.44827586206898,23.28C134.48275862068965,23.28,135.51724137931035,23.326666666666668,136.55172413793102,23.42C137.58620689655172,23.513333333333335,138.6206896551724,26.38,139.6551724137931,26.38C140.6896551724138,26.38,141.72413793103448,18.96,142.75862068965517,18.96C143.79310344827587,18.96,144.82758620689654,22.34,145.86206896551724,22.34C146.89655172413794,22.34,147.9310344827586,20.916666666666668,148.9655172413793,20.220000000000002C150,19.523333333333333,151.0344827586207,18.159999999999997,152.0689655172414,18.159999999999997C153.10344827586206,18.159999999999997,154.13793103448276,18.71000000000001,155.17241379310343,19.46C156.20689655172413,20.21,157.24137931034483,22.66,158.27586206896552,22.66C159.31034482758622,22.66,160.3448275862069,20.866666666666667,161.3793103448276,20.76C162.41379310344828,20.653333333333336,163.44827586206895,20.6,164.48275862068965,20.6C165.51724137931035,20.6,166.55172413793102,20.9,167.58620689655172,20.9C168.6206896551724,20.9,169.6551724137931,19.08333333333334,170.6896551724138,18C171.7241379310345,16.91666666666667,172.75862068965517,15.726666666666665,173.79310344827587,14.399999999999999C174.82758620689657,13.073333333333332,175.86206896551724,11.273333333333332,176.89655172413794,10.04C177.93103448275863,8.806666666666667,178.9655172413793,7.903333333333334,180,7.000000000000002L180,40C178.9655172413793,40,177.93103448275863,40,176.89655172413794,40C175.86206896551724,40,174.82758620689657,40,173.79310344827587,40C172.75862068965517,40,171.7241379310345,40,170.6896551724138,40C169.6551724137931,40,168.6206896551724,40,167.58620689655172,40C166.55172413793102,40,165.51724137931035,40,164.48275862068965,40C163.44827586206895,40,162.41379310344828,40,161.3793103448276,40C160.3448275862069,40,159.31034482758622,40,158.27586206896552,40C157.24137931034483,40,156.20689655172413,40,155.17241379310343,40C154.13793103448276,40,153.10344827586206,40,152.0689655172414,40C151.0344827586207,40,150,40,148.9655172413793,40C147.9310344827586,40,146.89655172413794,40,145.86206896551724,40C144.82758620689654,40,143.79310344827587,40,142.75862068965517,40C141.72413793103448,40,140.6896551724138,40,139.6551724137931,40C138.6206896551724,40,137.58620689655172,40,136.55172413793102,40C135.51724137931035,40,134.48275862068965,40,133.44827586206898,40C132.41379310344828,40,131.3793103448276,40,130.3448275862069,40C129.3103448275862,40,128.27586206896552,40,127.24137931034483,40C126.20689655172414,40,125.17241379310344,40,124.13793103448276,40C123.10344827586208,40,122.06896551724138,40,121.0344827586207,40C120,40,118.96551724137932,40,117.93103448275862,40C116.89655172413794,40,115.86206896551724,40,114.82758620689656,40C113.79310344827587,40,112.75862068965517,40,111.72413793103449,40C110.6896551724138,40,109.65517241379311,40,108.62068965517241,40C107.58620689655172,40,106.55172413793103,40,105.51724137931033,40C104.48275862068965,40,103.44827586206897,40,102.41379310344828,40C101.37931034482759,40,100.3448275862069,40,99.3103448275862,40C98.27586206896551,40,97.24137931034483,40,96.20689655172413,40C95.17241379310344,40,94.13793103448276,40,93.10344827586208,40C92.06896551724138,40,91.0344827586207,40,90,40C88.96551724137932,40,87.93103448275862,40,86.89655172413794,40C85.86206896551724,40,84.82758620689656,40,83.79310344827586,40C82.75862068965517,40,81.72413793103448,40,80.6896551724138,40C79.6551724137931,40,78.62068965517241,40,77.58620689655172,40C76.55172413793103,40,75.51724137931033,40,74.48275862068965,40C73.44827586206897,40,72.41379310344827,40,71.37931034482759,40C70.34482758620689,40,69.3103448275862,40,68.27586206896551,40C67.24137931034483,40,66.20689655172413,40,65.17241379310344,40C64.13793103448276,40,63.10344827586207,40,62.06896551724138,40C61.03448275862069,40,60,40,58.96551724137931,40C57.93103448275862,40,56.896551724137936,40,55.862068965517246,40C54.827586206896555,40,53.79310344827586,40,52.75862068965517,40C51.72413793103448,40,50.689655172413794,40,49.6551724137931,40C48.62068965517241,40,47.58620689655173,40,46.55172413793104,40C45.51724137931035,40,44.48275862068966,40,43.44827586206897,40C42.41379310344828,40,41.37931034482759,40,40.3448275862069,40C39.310344827586206,40,38.275862068965516,40,37.241379310344826,40C36.206896551724135,40,35.172413793103445,40,34.137931034482754,40C33.103448275862064,40,32.06896551724138,40,31.03448275862069,40C30,40,28.965517241379313,40,27.931034482758623,40C26.896551724137932,40,25.862068965517242,40,24.82758620689655,40C23.79310344827586,40,22.758620689655174,40,21.724137931034484,40C20.689655172413794,40,19.655172413793103,40,18.620689655172413,40C17.586206896551722,40,16.551724137931036,40,15.517241379310345,40C14.482758620689655,40,13.448275862068966,40,12.413793103448276,40C11.379310344827585,40,10.344827586206897,40,9.310344827586206,40C8.275862068965516,40,7.241379310344827,40,6.206896551724138,40C5.172413793103448,40,4.137931034482759,40,3.103448275862069,40C2.068965517241379,40,1.0344827586206897,40,0,40Z"></path><path class="line" stroke="black" fill="none" d="M0,22.1C1.0344827586206897,18.85,2.068965517241379,15.600000000000001,3.103448275862069,15.600000000000001C4.137931034482759,15.600000000000001,5.172413793103448,24.660000000000004,6.206896551724138,24.660000000000004C7.241379310344827,24.660000000000004,8.275862068965516,15.72,9.310344827586206,15.72C10.344827586206897,15.72,11.379310344827585,19.220000000000002,12.413793103448276,19.220000000000002C13.448275862068966,19.220000000000002,14.482758620689655,15.099999999999998,15.517241379310345,15.099999999999998C16.551724137931036,15.099999999999998,17.586206896551722,17.94,18.620689655172413,17.94C19.655172413793103,17.94,20.689655172413794,17.12,21.724137931034484,17.12C22.758620689655174,17.12,23.79310344827586,17.233333333333334,24.82758620689655,17.46C25.862068965517242,17.686666666666667,26.896551724137932,25.12,27.931034482758623,25.12C28.965517241379313,25.12,30,22.020000000000003,31.03448275862069,20.860000000000003C32.06896551724138,19.700000000000003,33.103448275862064,18.159999999999997,34.137931034482754,18.159999999999997C35.172413793103445,18.159999999999997,36.206896551724135,22.720000000000002,37.241379310344826,22.720000000000002C38.275862068965516,22.720000000000002,39.310344827586206,16.200000000000003,40.3448275862069,16.200000000000003C41.37931034482759,16.200000000000003,42.41379310344828,16.220000000000002,43.44827586206897,16.259999999999998C44.48275862068966,16.299999999999994,45.51724137931035,17.606666666666666,46.55172413793104,18.82C47.58620689655173,20.03333333333333,48.62068965517241,23.54,49.6551724137931,23.54C50.689655172413794,23.54,51.72413793103448,22.83,52.75862068965517,22.1C53.79310344827586,21.37,54.827586206896555,19.16,55.862068965517246,19.16C56.896551724137936,19.16,57.93103448275862,22.23666666666667,58.96551724137931,23.440000000000005C60,24.64333333333334,61.03448275862069,26.38,62.06896551724138,26.38C63.10344827586207,26.38,64.13793103448276,25.96666666666667,65.17241379310344,25.78C66.20689655172413,25.593333333333334,67.24137931034483,25.259999999999998,68.27586206896551,25.259999999999998C69.3103448275862,25.259999999999998,70.34482758620689,27.176666666666666,71.37931034482759,28.14C72.41379310344827,29.10333333333333,73.44827586206897,31.04,74.48275862068965,31.04C75.51724137931033,31.04,76.55172413793103,30.819999999999997,77.58620689655172,30.72C78.62068965517241,30.619999999999997,79.6551724137931,30.44,80.6896551724138,30.44C81.72413793103448,30.44,82.75862068965517,30.560000000000002,83.79310344827586,30.560000000000002C84.82758620689656,30.560000000000002,85.86206896551724,29.68,86.89655172413794,29.68C87.93103448275862,29.68,88.96551724137932,29.71333333333333,90,29.779999999999998C91.0344827586207,29.846666666666664,92.06896551724138,29.88,93.10344827586208,30.08C94.13793103448276,30.279999999999998,95.17241379310344,33.64,96.20689655172413,33.64C97.24137931034483,33.64,98.27586206896551,30.16,99.3103448275862,30.16C100.3448275862069,30.16,101.37931034482759,30.779999999999998,102.41379310344828,30.779999999999998C103.44827586206897,30.779999999999998,104.48275862068965,28.406666666666663,105.51724137931033,27.94C106.55172413793103,27.473333333333336,107.58620689655172,27.240000000000002,108.62068965517241,27.240000000000002C109.65517241379311,27.240000000000002,110.6896551724138,30.18,111.72413793103449,30.18C112.75862068965517,30.18,113.79310344827587,28.48666666666667,114.82758620689656,28.380000000000003C115.86206896551724,28.273333333333333,116.89655172413794,28.326666666666668,117.93103448275862,28.22C118.96551724137932,28.11333333333333,120,27.32,121.0344827586207,27.32C122.06896551724138,27.32,123.10344827586208,27.5,124.13793103448276,27.5C125.17241379310344,27.5,126.20689655172414,25.419999999999998,127.24137931034483,25.419999999999998C128.27586206896552,25.419999999999998,129.3103448275862,26.38,130.3448275862069,26.38C131.3793103448276,26.38,132.41379310344828,23.28,133.44827586206898,23.28C134.48275862068965,23.28,135.51724137931035,23.326666666666668,136.55172413793102,23.42C137.58620689655172,23.513333333333335,138.6206896551724,26.38,139.6551724137931,26.38C140.6896551724138,26.38,141.72413793103448,18.96,142.75862068965517,18.96C143.79310344827587,18.96,144.82758620689654,22.34,145.86206896551724,22.34C146.89655172413794,22.34,147.9310344827586,20.916666666666668,148.9655172413793,20.220000000000002C150,19.523333333333333,151.0344827586207,18.159999999999997,152.0689655172414,18.159999999999997C153.10344827586206,18.159999999999997,154.13793103448276,18.71000000000001,155.17241379310343,19.46C156.20689655172413,20.21,157.24137931034483,22.66,158.27586206896552,22.66C159.31034482758622,22.66,160.3448275862069,20.866666666666667,161.3793103448276,20.76C162.41379310344828,20.653333333333336,163.44827586206895,20.6,164.48275862068965,20.6C165.51724137931035,20.6,166.55172413793102,20.9,167.58620689655172,20.9C168.6206896551724,20.9,169.6551724137931,19.08333333333334,170.6896551724138,18C171.7241379310345,16.91666666666667,172.75862068965517,15.726666666666665,173.79310344827587,14.399999999999999C174.82758620689657,13.073333333333332,175.86206896551724,11.273333333333332,176.89655172413794,10.04C177.93103448275863,8.806666666666667,178.9655172413793,7.903333333333334,180,7.000000000000002"></path><path class="axis-ceiling" stroke-width="1" stroke="black" fill="none" d="M175,0L180,0"></path><text class="axis-ceiling-label" font-family="sans-serif" text-anchor="end" font-size="10px" x="170" y="2.5">2000</text></g></svg>