<svg xmlns="http://www.w3.org/2000/svg" viewBox="0 0 180 60"><g transform="translate(0,20)"><path class="area" fill="rgba(0, 0, 0, 0.2)" d="M0,19.16C1.0169491525423728,20.698333333333334,2.0338983050847457,22.23666666666667,3.0508474576271185,23.440000000000005C4.067796610169491,24.643333333333338,5.084745762711864,26.38,6.101694915254237,26.38C7.11864406779661,26.38,8.135593220338983,25.96666666666667,9.152542372881356,25.78C10.169491525423728,25.593333333333334,11.186440677966102,25.259999999999998,12.203389830508474,25.259999999999998C13.220338983050846,25.259999999999998,14.23728813559322,27.176666666666666,15.254237288135592,28.14C16.271186440677965,29.103333333333335,17.28813559322034,31.04,18.305084745762713,31.04C19.322033898305087,31.04,20.338983050847457,30.82,21.35593220338983,30.72C22.372881355932204,30.619999999999997,23.389830508474574,30.44,24.406779661016948,30.44C25.423728813559322,30.44,26.440677966101696,30.560000000000002,27.45762711864407,30.560000000000002C28.47457627118644,30.560000000000002,29.491525423728813,29.68,30.508474576271183,29.68C31.525423728813557,29.68,32.54237288135593,29.71333333333333,33.559322033898304,29.779999999999998C34.57627118644068,29.846666666666664,35.59322033898305,29.88,36.610169491525426,30.08C37.6271186440678,30.279999999999998,38.644067796610166,33.64,39.66101694915254,33.64C40.67796610169491,33.64,41.69491525423729,30.16,42.71186440677966,30.16C43.728813559322035,30.16,44.7457627118644,30.779999999999998,45.762711864406775,30.779999999999998C46.77966101694915,30.779999999999998,47.79661016949152,28.406666666666666,48.813559322033896,27.94C49.83050847457627,27.473333333333336,50.847457627118644,27.240000000000002,51.86440677966102,27.240000000000002C52.88135593220339,27.240000000000002,53.898305084745765,30.18,54.91525423728814,30.18C55.93220338983051,30.18,56.94915254237288,28.48666666666667,57.96610169491525,28.380000000000003C58.983050847457626,28.273333333333333,59.99999999999999,28.326666666666668,61.01694915254237,28.22C62.03389830508474,28.11333333333333,63.05084745762712,27.32,64.0677966101695,27.32C65.08474576271186,27.32,66.10169491525424,27.5,67.11864406779661,27.5C68.13559322033899,27.5,69.15254237288136,25.419999999999998,70.16949152542374,25.419999999999998C71.1864406779661,25.419999999999998,72.20338983050848,26.38,73.22033898305085,26.38C74.23728813559322,26.38,75.2542372881356,23.28,76.27118644067797,23.28C77.28813559322033,23.28,78.30508474576271,23.326666666666668,79.32203389830508,23.42C80.33898305084746,23.513333333333335,81.35593220338983,26.38,82.37288135593221,26.38C83.38983050847457,26.38,84.40677966101696,18.96,85.42372881355932,18.96C86.4406779661017,18.96,87.45762711864407,22.34,88.47457627118645,22.34C89.49152542372882,22.34,90.50847457627118,20.916666666666664,91.52542372881355,20.220000000000002C92.54237288135593,19.52333333333333,93.55932203389831,18.159999999999997,94.57627118644069,18.159999999999997C95.59322033898306,18.159999999999997,96.61016949152543,18.710000000000004,97.62711864406779,19.46C98.64406779661016,20.21,99.66101694915254,22.66,100.6779661016949,22.66C101.69491525423729,22.66,102.71186440677965,20.866666666666667,103.72881355932203,20.76C104.7457627118644,20.653333333333336,105.76271186440678,20.6,106.77966101694915,20.6C107.79661016949153,20.6,108.8135593220339,20.9,109.83050847457628,20.9C110.84745762711864,20.9,111.86440677966102,19.083333333333332,112.88135593220339,18C113.89830508474576,16.916666666666668,114.91525423728814,15.726666666666661,115.9322033898305,14.399999999999999C116.94915254237289,13.073333333333329,117.96610169491525,11.273333333333335,118.98305084745763,10.04C120,8.806666666666674,121.01694915254237,7.333333333333332,122.03389830508473,7.000000000000002C123.05084745762711,6.666666666666667,124.0677966101695,6.833333333333334,125.08474576271188,6.499999999999999C126.10169491525424,6.166666666666667,127.11864406779662,5,128.135593220339,5C129.15254237288136,5,130.16949152542372,5.339999999999998,131.1864406779661,5.339999999999998C132.20338983050846,5.339999999999998,133.22033898305085,2.493333333333337,134.23728813559322,2.480000000000002C135.25423728813558,2.4666666666666672,136.27118644067798,2.46,137.28813559322035,2.46C138.3050847457627,2.46,139.3220338983051,7.283333333333331,140.33898305084747,8.860000000000001C141.35593220338984,10.436666666666657,142.3728813559322,11.02666666666667,143.38983050847457,11.920000000000002C144.40677966101694,12.813333333333341,145.42372881355934,13.469999999999999,146.4406779661017,14.220000000000002C147.45762711864407,14.969999999999999,148.47457627118644,16.419999999999998,149.4915254237288,16.419999999999998C150.50847457627117,16.419999999999998,151.52542372881356,10.36,152.54237288135593,10.36C153.5593220338983,10.36,154.5762711864407,15.326666666666666,155.59322033898306,15.379999999999999C156.61016949152543,15.433333333333332,157.6271186440678,15.459999999999997,158.64406779661016,15.459999999999997C159.66101694915253,15.459999999999997,160.67796610169492,9.620000000000001,161.6949152542373,9.620000000000001C162.71186440677965,9.620000000000001,163.72881355932205,19.686666666666657,164.74576271186442,20.339999999999996C165.76271186440678,20.99333333333333,166.77966101694915,21.319999999999997,167.79661016949152,21.319999999999997C168.81355932203388,21.319999999999997,169.83050847457628,14.326666666666672,170.84745762711864,13.100000000000001C171.864406779661,11.873333333333331,172.8813559322034,11.756666666666664,173.89830508474577,11.259999999999998C174.91525423728814,10.763333333333332,175.93220338983053,10.120000000000001,176.9491525423729,10.120000000000001C177.96610169491527,10.120000000000001,178.98305084745763,10.740000000000002,180,11.360000000000001L180,40C178.98305084745763,40,177.96610169491527,40,176.9491525423729,40C175.93220338983053,40,174.91525423728814,40,173.89830508474577,40C172.8813559322034,40,171.864406779661,40,170.84745762711864,40C169.83050847457628,40,168.81355932203388,40,167.79661016949152,40C166.77966101694915,40,165.76271186440678,40,164.74576271186442,40C163.72881355932205,40,162.71186440677965,40,161.6949152542373,40C160.67796610169492,40,159.66101694915253,40,158.64406779661016,40C157.6271186440678,40,156.61016949152543,40,155.59322033898306,40C154.5762711864407,40,153.5593220338983,40,152.54237288135593,40C151.52542372881356,40,150.50847457627117,40,149.4915254237288,40C148.47457627118644,40,147.45762711864407,40,146.4406779661017,40C145.42372881355934,40,144.40677966101694,40,143.38983050847457,40C142.3728813559322,40,141.35593220338984,40,140.33898305084747,40C139.3220338983051,40,138.3050847457627,40,137.28813559322035,40C136.27118644067798,40,135.25423728813558,40,134.23728813559322,40C133.22033898305085,40,132.20338983050846,40,131.1864406779661,40C130.16949152542372,40,129.15254237288136,40,128.135593220339,40C127.11864406779662,40,126.10169491525424,40,125.08474576271188,40C124.0677966101695,40,123.05084745762711,40,122.03389830508473,40C121.01694915254237,40,120,40,118.98305084745763,40C117.96610169491525,40,116.94915254237289,40,115.9322033898305,40C114.91525423728814,40,113.89830508474576,40,112.88135593220339,40C111.86440677966102,40,110.84745762711864,40,109.83050847457628,40C108.8135593220339,40,107.79661016949153,40,106.77966101694915,40C105.76271186440678,40,104.7457627118644,40,103.72881355932203,40C102.71186440677965,40,101.69491525423729,40,100.6779661016949,40C99.66101694915254,40,98.64406779661016,40,97.62711864406779,40C96.61016949152543,40,95.59322033898306,40,94.57627118644069,40C93.55932203389831,40,92.54237288135593,40,91.52542372881355,40C90.50847457627118,40,89.49152542372882,40,88.47457627118645,40C87.45762711864407,40,86.4406779661017,40,85.42372881355932,40C84.40677966101696,40,83.38983050847457,40,82.37288135593221,40C81.35593220338983,40,80.33898305084746,40,79.32203389830508,40C78.30508474576271,40,77.28813559322033,40,76.27118644067797,40C75.2542372881356,40,74.23728813559322,40,73.22033898305085,40C72.20338983050848,40,71.1864406779661,40,70.16949152542374,40C69.15254237288136,40,68.13559322033899,40,67.11864406779661,40C66.10169491525424,40,65.08474576271186,40,64.0677966101695,40C63.05084745762712,40,62.03389830508474,40,61.01694915254237,40C59.99999999999999,40,58.983050847457626,40,57.96610169491525,40C56.94915254237288,40,55.93220338983051,40,54.91525423728814,40C53.898305084745765,40,52.88135593220339,40,51.86440677966102,40C50.847457627118644,40,49.83050847457627,40,48.813559322033896,40C47.79661016949152,40,46.77966101694915,40,45.762711864406775,40C44.7457627118644,40,43.728813559322035,40,42.71186440677966,40C41.69491525423729,40,40.67796610169491,40,39.66101694915254,40C38.644067796610166,40,37.6271186440678,40,36.610169491525426,40C35.59322033898305,40,34.57627118644068,40,33.559322033898304,40C32.54237288135593,40,31.525423728813557,40,30.508474576271183,40C29.491525423728813,40,28.47457627118644,40,27.45762711864407,40C26.440677966101696,40,25.423728813559322,40,24.406779661016948,40C23.389830508474574,40,22.372881355932204,40,21.35593220338983,40C20.338983050847457,40,19.322033898305087,40,18.305084745762713,40C17.28813559322034,40,16.271186440677965,40,15.254237288135592,40C14.23728813559322,40,13.220338983050846,40,12.203389830508474,40C11.186440677966102,40,10.169491525423728,40,9.152542372881356,40C8.135593220338983,40,7.11864406779661,40,6.101694915254237,40C5.084745762711864,40,4.067796610169491,40,3.0508474576271185,40C2.0338983050847457,40,1.0169491525423728,40,0,40Z"></path><path class="line" stroke="black" fill="none" d="M0,19.16C1.0169491525423728,20.698333333333334,2.0338983050847457,22.23666666666667,3.0508474576271185,23.440000000000005C4.067796610169491,24.643333333333338,5.084745762711864,26.38,6.101694915254237,26.38C7.11864406779661,26.38,8.135593220338983,25.96666666666667,9.152542372881356,25.78C10.169491525423728,25.593333333333334,11.186440677966102,25.259999999999998,12.203389830508474,25.259999999999998C13.220338983050846,25.259999999999998,14.23728813559322,27.176666666666666,15.254237288135592,28.14C16.271186440677965,29.103333333333335,17.28813559322034,31.04,18.305084745762713,31.04C19.322033898305087,31.04,20.338983050847457,30.82,21.35593220338983,30.72C22.372881355932204,30.619999999999997,23.389830508474574,30.44,24.406779661016948,30.44C25.423728813559322,30.44,26.440677966101696,30.560000000000002,27.45762711864407,30.560000000000002C28.47457627118644,30.560000000000002,29.491525423728813,29.68,30.508474576271183,29.68C31.525423728813557,29.68,32.54237288135593,29.71333333333333,33.559322033898304,29.779999999999998C34.57627118644068,29.846666666666664,35.59322033898305,29.88,36.610169491525426,30.08C37.6271186440678,30.279999999999998,38.644067796610166,33.64,39.66101694915254,33.64C40.67796610169491,33.64,41.69491525423729,30.16,42.71186440677966,30.16C43.728813559322035,30.16,44.7457627118644,30.779999999999998,45.762711864406775,30.779999999999998C46.77966101694915,30.779999999999998,47.79661016949152,28.406666666666666,48.813559322033896,27.94C49.83050847457627,27.473333333333336,50.847457627118644,27.240000000000002,51.86440677966102,27.240000000000002C52.88135593220339,27.240000000000002,53.898305084745765,30.18,54.91525423728814,30.18C55.93220338983051,30.18,56.94915254237288,28.48666666666667,57.96610169491525,28.380000000000003C58.983050847457626,28.273333333333333,59.99999999999999,28.326666666666668,61.01694915254237,28.22C62.03389830508474,28.11333333333333,63.05084745762712,27.32,64.0677966101695,27.32C65.08474576271186,27.32,66.10169491525424,27.5,67.11864406779661,27.5C68.13559322033899,27.5,69.15254237288136,25.419999999999998,70.16949152542374,25.419999999999998C71.1864406779661,25.419999999999998,72.20338983050848,26.38,73.22033898305085,26.38C74.23728813559322,26.38,75.2542372881356,23.28,76.27118644067797,23.28C77.28813559322033,23.28,78.30508474576271,23.326666666666668,79.32203389830508,23.42C80.33898305084746,23.513333333333335,81.35593220338983,26.38,82.37288135593221,26.38C83.38983050847457,26.38,84.40677966101696,18.96,85.42372881355932,18.96C86.4406779661017,18.96,87.45762711864407,22.34,88.47457627118645,22.34C89.49152542372882,22.34,90.50847457627118,20.916666666666664,91.52542372881355,20.220000000000002C92.54237288135593,19.52333333333333,93.55932203389831,18.159999999999997,94.57627118644069,18.159999999999997C95.59322033898306,18.159999999999997,96.61016949152543,18.710000000000004,97.62711864406779,19.46C98.64406779661016,20.21,99.66101694915254,22.66,100.6779661016949,22.66C101.69491525423729,22.66,102.71186440677965,20.866666666666667,103.72881355932203,20.76C104.7457627118644,20.653333333333336,105.76271186440678,20.6,106.77966101694915,20.6C107.79661016949153,20.6,108.8135593220339,20.9,109.83050847457628,20.9C110.84745762711864,20.9,111.86440677966102,19.083333333333332,112.88135593220339,18C113.89830508474576,16.916666666666668,114.91525423728814,15.726666666666661,115.9322033898305,14.399999999999999C116.94915254237289,13.073333333333329,117.96610169491525,11.273333333333335,118.98305084745763,10.04C120,8.806666666666674,121.01694915254237,7.333333333333332,122.03389830508473,7.000000000000002C123.05084745762711,6.666666666666667,124.0677966101695,6.833333333333334,125.08474576271188,6.499999999999999C126.10169491525424,6.166666666666667,127.11864406779662,5,128.135593220339,5C129.15254237288136,5,130.16949152542372,5.339999999999998,131.1864406779661,5.339999999999998C132.20338983050846,5.339999999999998,133.22033898305085,2.493333333333337,134.23728813559322,2.480000000000002C135.25423728813558,2.4666666666666672,136.27118644067798,2.46,137.28813559322035,2.46C138.3050847457627,2.46,139.3220338983051,7.283333333333331,140.33898305084747,8.860000000000001C141.35593220338984,10.436666666666657,142.3728813559322,11.02666666666667,143.38983050847457,11.920000000000002C144.40677966101694,12.813333333333341,145.42372881355934,13.469999999999999,146.4406779661017,14.220000000000002C147.45762711864407,14.969999999999999,148.47457627118644,16.419999999999998,149.4915254237288,16.419999999999998C150.50847457627117,16.419999999999998,151.52542372881356,10.36,152.54237288135593,10.36C153.5593220338983,10.36,154.5762711864407,15.326666666666666,155.59322033898306,15.379999999999999C156.61016949152543,15.433333333333332,157.6271186440678,15.459999999999997,158.64406779661016,15.459999999999997C159.66101694915253,15.459999999999997,160.67796610169492,9.620000000000001,161.6949152542373,9.620000000000001C162.71186440677965,9.620000000000001,163.72881355932205,19.686666666666657,164.74576271186442,20.339999999999996C165.76271186440678,20.99333333333333,166.77966101694915,21.319999999999997,167.79661016949152,21.319999999999997C168.81355932203388,21.319999999999997,169.83050847457628,14.326666666666672,170.84745762711864,13.100000000000001C171.864406779661,11.873333333333331,172.8813559322034,11.756666666666664,173.89830508474577,11.259999999999998C174.91525423728814,10.763333333333332,175.93220338983053,10.120000000000001,176.9491525423729,10.120000000000001C177.96610169491527,10.120000000000001,178.98305084745763,10.740000000000002,180,11.360000000000001"></path><path class="axis-ceiling" stroke-width="1" stroke="black" fill="none" d="M175,0L180,0"></path><text class="axis-ceiling-label" font-family="sans-serif" text-anchor="end" font-size="10px" x="170" y="2.5">2000</text></g></svg>