<svg xmlns="http://www.w3.org/2000/svg" viewBox="0 0 180 60"><g transform="translate(0,20)"><path class="area" fill="rgba(0, 0, 0, 0.2)" d="M0,29.573333333333338C1.0344827586206897,31.693333333333335,2.068965517241379,33.81333333333333,3.103448275862069,33.81333333333333C4.137931034482759,33.81333333333333,5.172413793103448,26.782222222222227,6.206896551724138,26.58666666666667C7.241379310344827,26.391111111111112,8.275862068965516,26.48888888888889,9.310344827586206,26.293333333333333C10.344827586206897,26.097777777777775,11.379310344827585,20.506666666666664,12.413793103448276,20.506666666666664C13.448275862068966,20.506666666666664,14.482758620689655,27.751111111111104,15.517241379310345,27.839999999999996C16.551724137931036,27.92888888888889,17.586206896551722,27.973333333333336,18.620689655172413,27.973333333333336C19.655172413793103,27.973333333333336,20.689655172413794,23.200000000000003,21.724137931034484,23.200000000000003C22.758620689655174,23.200000000000003,23.79310344827586,23.520000000000003,24.82758620689655,23.520000000000003C25.862068965517242,23.520000000000003,26.896551724137932,19.6,27.931034482758623,19.6C28.965517241379313,19.6,30,24.05333333333333,31.03448275862069,24.05333333333333C32.06896551724138,24.05333333333333,33.103448275862064,19.911111111111108,34.137931034482754,17.706666666666667C35.172413793103445,15.50222222222222,36.206896551724135,10.826666666666668,37.241379310344826,10.826666666666668C38.275862068965516,10.826666666666668,39.310344827586206,22.560000000000002,40.3448275862069,22.560000000000002C41.37931034482759,22.560000000000002,42.41379310344828,12.799999999999997,43.44827586206897,12.799999999999997C44.48275862068966,12.799999999999997,45.51724137931035,16.133333333333333,46.55172413793104,16.133333333333333C47.58620689655173,16.133333333333333,48.62068965517241,7.466666666666666,49.6551724137931,7.466666666666666C50.689655172413794,7.466666666666666,51.72413793103448,19.546666666666667,52.75862068965517,19.546666666666667C53.79310344827586,19.546666666666667,54.827586206896555,7.626666666666666,55.862068965517246,7.626666666666666C56.896551724137936,7.626666666666666,57.93103448275862,12.293333333333333,58.96551724137931,12.293333333333333C60,12.293333333333333,61.03448275862069,6.800000000000002,62.06896551724138,6.800000000000002C63.10344827586207,6.800000000000002,64.13793103448276,10.58666666666667,65.17241379310344,10.58666666666667C66.20689655172413,10.58666666666667,67.24137931034483,9.493333333333332,68.27586206896551,9.493333333333332C69.3103448275862,9.493333333333332,70.34482758620689,9.644444444444444,71.37931034482759,9.946666666666669C72.41379310344827,10.248888888888892,73.44827586206897,20.16,74.48275862068965,20.16C75.51724137931033,20.16,76.55172413793103,16.026666666666664,77.58620689655172,14.48C78.62068965517241,12.933333333333328,79.6551724137931,10.88,80.6896551724138,10.88C81.72413793103448,10.88,82.75862068965517,16.96,83.79310344827586,16.96C84.82758620689656,16.96,85.86206896551724,8.266666666666666,86.89655172413794,8.266666666666666C87.93103448275862,8.266666666666666,88.96551724137932,8.293333333333333,90,8.346666666666668C91.0344827586207,8.400000000000002,92.06896551724138,10.142222222222212,93.10344827586208,11.760000000000002C94.13793103448276,13.377777777777776,95.17241379310344,18.053333333333335,96.20689655172413,18.053333333333335C97.24137931034483,18.053333333333335,98.27586206896551,17.106666666666666,99.3103448275862,16.133333333333333C100.3448275862069,15.16,101.37931034482759,12.213333333333335,102.41379310344828,12.213333333333335C103.44827586206897,12.213333333333335,104.48275862068965,16.31555555555556,105.51724137931033,17.919999999999998C106.55172413793103,19.524444444444452,107.58620689655172,21.840000000000003,108.62068965517241,21.840000000000003C109.65517241379311,21.840000000000003,110.6896551724138,21.288888888888888,111.72413793103449,21.04C112.75862068965517,20.79111111111111,113.79310344827587,20.346666666666664,114.82758620689656,20.346666666666664C115.86206896551724,20.346666666666664,116.89655172413794,22.902222222222225,117.93103448275862,24.186666666666667C118.96551724137932,25.471111111111117,120,28.053333333333335,121.0344827586207,28.053333333333335C122.06896551724138,28.053333333333335,123.10344827586208,27.759999999999998,124.13793103448276,27.626666666666665C125.17241379310344,27.493333333333332,126.20689655172414,27.253333333333334,127.24137931034483,27.253333333333334C128.27586206896552,27.253333333333334,129.3103448275862,27.413333333333334,130.3448275862069,27.413333333333334C131.3793103448276,27.413333333333334,132.41379310344828,26.240000000000002,133.44827586206898,26.240000000000002C134.48275862068965,26.240000000000002,135.51724137931035,26.284444444444446,136.55172413793102,26.373333333333335C137.58620689655172,26.462222222222223,138.6206896551724,26.506666666666668,139.6551724137931,26.773333333333333C140.6896551724138,27.039999999999996,141.72413793103448,31.520000000000003,142.75862068965517,31.520000000000003C143.79310344827587,31.520000000000003,144.82758620689654,26.879999999999995,145.86206896551724,26.879999999999995C146.89655172413794,26.879999999999995,147.9310344827586,27.706666666666667,148.9655172413793,27.706666666666667C150,27.706666666666667,151.0344827586207,24.542222222222232,152.0689655172414,23.919999999999998C153.10344827586206,23.297777777777775,154.13793103448276,22.986666666666665,155.17241379310343,22.986666666666665C156.20689655172413,22.986666666666665,157.24137931034483,26.90666666666667,158.27586206896552,26.90666666666667C159.31034482758622,26.90666666666667,160.3448275862069,24.648888888888894,161.3793103448276,24.506666666666668C162.41379310344828,24.36444444444444,163.44827586206895,24.435555555555556,164.48275862068965,24.29333333333333C165.51724137931035,24.151111111111103,166.55172413793102,23.09333333333333,167.58620689655172,23.09333333333333C168.6206896551724,23.09333333333333,169.6551724137931,23.33333333333333,170.6896551724138,23.33333333333333C171.7241379310345,23.33333333333333,172.75862068965517,20.560000000000002,173.79310344827587,20.560000000000002C174.82758620689657,20.560000000000002,175.86206896551724,21.840000000000003,176.89655172413794,21.840000000000003C177.93103448275863,21.840000000000003,178.9655172413793,19.773333333333333,180,17.706666666666667L180,40C178.9655172413793,40,177.93103448275863,40,176.89655172413794,40C175.86206896551724,40,174.82758620689657,40,173.79310344827587,40C172.75862068965517,40,171.7241379310345,40,170.6896551724138,40C169.6551724137931,40,168.6206896551724,40,167.58620689655172,40C166.55172413793102,40,165.51724137931035,40,164.48275862068965,40C163.44827586206895,40,162.41379310344828,40,161.3793103448276,40C160.3448275862069,40,159.31034482758622,40,158.27586206896552,40C157.24137931034483,40,156.20689655172413,40,155.17241379310343,40C154.13793103448276,40,153.10344827586206,40,152.0689655172414,40C151.0344827586207,40,150,40,148.9655172413793,40C147.9310344827586,40,146.89655172413794,40,145.86206896551724,40C144.82758620689654,40,143.79310344827587,40,142.75862068965517,40C141.72413793103448,40,140.6896551724138,40,139.6551724137931,40C138.6206896551724,40,137.58620689655172,40,136.55172413793102,40C135.51724137931035,40,134.48275862068965,40,133.44827586206898,40C132.41379310344828,40,131.3793103448276,40,130.3448275862069,40C129.3103448275862,40,128.27586206896552,40,127.24137931034483,40C126.20689655172414,40,125.17241379310344,40,124.13793103448276,40C123.10344827586208,40,122.06896551724138,40,121.0344827586207,40C120,40,118.96551724137932,40,117.93103448275862,40C116.89655172413794,40,115.86206896551724,40,114.82758620689656,40C113.79310344827587,40,112.75862068965517,40,111.72413793103449,40C110.6896551724138,40,109.65517241379311,40,108.62068965517241,40C107.58620689655172,40,106.55172413793103,40,105.51724137931033,40C104.48275862068965,40,103.44827586206897,40,102.41379310344828,40C101.37931034482759,40,100.3448275862069,40,99.3103448275862,40C98.27586206896551,40,97.24137931034483,40,96.20689655172413,40C95.17241379310344,40,94.13793103448276,40,93.10344827586208,40C92.06896551724138,40,91.0344827586207,40,90,40C88.96551724137932,40,87.93103448275862,40,86.89655172413794,40C85.86206896551724,40,84.82758620689656,40,83.79310344827586,40C82.75862068965517,40,81.72413793103448,40,80.6896551724138,40C79.6551724137931,40,78.62068965517241,40,77.58620689655172,40C76.55172413793103,40,75.51724137931033,40,74.48275862068965,40C73.44827586206897,40,72.41379310344827,40,71.37931034482759,40C70.34482758620689,40,69.3103448275862,40,68.27586206896551,40C67.24137931034483,40,66.20689655172413,40,65.17241379310344,40C64.13793103448276,40,63.10344827586207,40,62.06896551724138,40C61.03448275862069,40,60,40,58.96551724137931,40C57.93103448275862,40,56.896551724137936,40,55.862068965517246,40C54.827586206896555,40,53.79310344827586,40,52.75862068965517,40C51.72413793103448,40,50.689655172413794,40,49.6551724137931,40C48.62068965517241,40,47.58620689655173,40,46.55172413793104,40C45.51724137931035,40,44.48275862068966,40,43.44827586206897,40C42.41379310344828,40,41.37931034482759,40,40.3448275862069,40C39.310344827586206,40,38.275862068965516,40,37.241379310344826,40C36.206896551724135,40,35.172413793103445,40,34.137931034482754,40C33.103448275862064,40,32.06896551724138,40,31.03448275862069,40C30,40,28.965517241379313,40,27.931034482758623,40C26.896551724137932,40,25.862068965517242,40,24.82758620689655,40C23.79310344827586,40,22.758620689655174,40,21.724137931034484,40C20.689655172413794,40,19.655172413793103,40,18.620689655172413,40C17.586206896551722,40,16.551724137931036,40,15.517241379310345,40C14.482758620689655,40,13.448275862068966,40,12.413793103448276,40C11.379310344827585,40,10.344827586206897,40,9.310344827586206,40C8.275862068965516,40,7.241379310344827,40,6.206896551724138,40C5.172413793103448,40,4.137931034482759,40,3.103448275862069,40C2.068965517241379,40,1.0344827586206897,40,0,40Z"></path><path class="line" stroke="black" fill="none" d="M0,29.573333333333338C1.0344827586206897,31.693333333333335,2.068965517241379,33.81333333333333,3.103448275862069,33.81333333333333C4.137931034482759,33.81333333333333,5.172413793103448,26.782222222222227,6.206896551724138,26.58666666666667C7.241379310344827,26.391111111111112,8.275862068965516,26.48888888888889,9.310344827586206,26.293333333333333C10.344827586206897,26.097777777777775,11.379310344827585,20.506666666666664,12.413793103448276,20.506666666666664C13.448275862068966,20.506666666666664,14.482758620689655,27.751111111111104,15.517241379310345,27.839999999999996C16.551724137931036,27.92888888888889,17.586206896551722,27.973333333333336,18.620689655172413,27.973333333333336C19.655172413793103,27.973333333333336,20.689655172413794,23.200000000000003,21.724137931034484,23.200000000000003C22.758620689655174,23.200000000000003,23.79310344827586,23.520000000000003,24.82758620689655,23.520000000000003C25.862068965517242,23.520000000000003,26.896551724137932,19.6,27.931034482758623,19.6C28.965517241379313,19.6,30,24.05333333333333,31.03448275862069,24.05333333333333C32.06896551724138,24.05333333333333,33.103448275862064,19.911111111111108,34.137931034482754,17.706666666666667C35.172413793103445,15.50222222222222,36.206896551724135,10.826666666666668,37.241379310344826,10.826666666666668C38.275862068965516,10.826666666666668,39.310344827586206,22.560000000000002,40.3448275862069,22.560000000000002C41.37931034482759,22.560000000000002,42.41379310344828,12.799999999999997,43.44827586206897,12.799999999999997C44.48275862068966,12.799999999999997,45.51724137931035,16.133333333333333,46.55172413793104,16.133333333333333C47.58620689655173,16.133333333333333,48.62068965517241,7.466666666666666,49.6551724137931,7.466666666666666C50.689655172413794,7.466666666666666,51.72413793103448,19.546666666666667,52.75862068965517,19.546666666666667C53.79310344827586,19.546666666666667,54.827586206896555,7.626666666666666,55.862068965517246,7.626666666666666C56.896551724137936,7.626666666666666,57.93103448275862,12.293333333333333,58.96551724137931,12.293333333333333C60,12.293333333333333,61.03448275862069,6.800000000000002,62.06896551724138,6.800000000000002C63.10344827586207,6.800000000000002,64.13793103448276,10.58666666666667,65.17241379310344,10.58666666666667C66.20689655172413,10.58666666666667,67.24137931034483,9.493333333333332,68.27586206896551,9.493333333333332C69.3103448275862,9.493333333333332,70.34482758620689,9.644444444444444,71.37931034482759,9.946666666666669C72.41379310344827,10.248888888888892,73.44827586206897,20.16,74.48275862068965,20.16C75.51724137931033,20.16,76.55172413793103,16.026666666666664,77.58620689655172,14.48C78.62068965517241,12.933333333333328,79.6551724137931,10.88,80.6896551724138,10.88C81.72413793103448,10.88,82.75862068965517,16.96,83.79310344827586,16.96C84.82758620689656,16.96,85.86206896551724,8.266666666666666,86.89655172413794,8.266666666666666C87.93103448275862,8.266666666666666,88.96551724137932,8.293333333333333,90,8.346666666666668C91.0344827586207,8.400000000000002,92.06896551724138,10.142222222222212,93.10344827586208,11.760000000000002C94.13793103448276,13.377777777777776,95.17241379310344,18.053333333333335,96.20689655172413,18.053333333333335C97.24137931034483,18.053333333333335,98.27586206896551,17.106666666666666,99.3103448275862,16.133333333333333C100.3448275862069,15.16,101.37931034482759,12.213333333333335,102.41379310344828,12.213333333333335C103.44827586206897,12.213333333333335,104.48275862068965,16.31555555555556,105.51724137931033,17.919999999999998C106.55172413793103,19.524444444444452,107.58620689655172,21.840000000000003,108.62068965517241,21.840000000000003C109.65517241379311,21.840000000000003,110.6896551724138,21.288888888888888,111.72413793103449,21.04C112.75862068965517,20.79111111111111,113.79310344827587,20.346666666666664,114.82758620689656,20.346666666666664C115.86206896551724,20.346666666666664,116.89655172413794,22.902222222222225,117.93103448275862,24.186666666666667C118.96551724137932,25.471111111111117,120,28.053333333333335,121.0344827586207,28.053333333333335C122.06896551724138,28.053333333333335,123.10344827586208,27.759999999999998,124.13793103448276,27.626666666666665C125.17241379310344,27.493333333333332,126.20689655172414,27.253333333333334,127.24137931034483,27.253333333333334C128.27586206896552,27.253333333333334,129.3103448275862,27.413333333333334,130.3448275862069,27.413333333333334C131.3793103448276,27.413333333333334,132.41379310344828,26.240000000000002,133.44827586206898,26.240000000000002C134.48275862068965,26.240000000000002,135.51724137931035,26.284444444444446,136.55172413793102,26.373333333333335C137.58620689655172,26.462222222222223,138.6206896551724,26.506666666666668,139.6551724137931,26.773333333333333C140.6896551724138,27.039999999999996,141.72413793103448,31.520000000000003,142.75862068965517,31.520000000000003C143.79310344827587,31.520000000000003,144.82758620689654,26.879999999999995,145.86206896551724,26.879999999999995C146.89655172413794,26.879999999999995,147.9310344827586,27.706666666666667,148.9655172413793,27.706666666666667C150,27.706666666666667,151.0344827586207,24.542222222222232,152.0689655172414,23.919999999999998C153.10344827586206,23.297777777777775,154.13793103448276,22.986666666666665,155.17241379310343,22.986666666666665C156.20689655172413,22.986666666666665,157.24137931034483,26.90666666666667,158.27586206896552,26.90666666666667C159.31034482758622,26.90666666666667,160.3448275862069,24.648888888888894,161.3793103448276,24.506666666666668C162.41379310344828,24.36444444444444,163.44827586206895,24.435555555555556,164.48275862068965,24.29333333333333C165.51724137931035,24.151111111111103,166.55172413793102,23.09333333333333,167.58620689655172,23.09333333333333C168.6206896551724,23.09333333333333,169.6551724137931,23.33333333333333,170.6896551724138,23.33333333333333C171.7241379310345,23.33333333333333,172.75862068965517,20.560000000000002,173.79310344827587,20.560000000000002C174.82758620689657,20.560000000000002,175.86206896551724,21.840000000000003,176.89655172413794,21.840000000000003C177.93103448275863,21.840000000000003,178.9655172413793,19.773333333333333,180,17.706666666666667"></path><path class="axis-ceiling" stroke-width="1" stroke="black" fill="none" d="M175,0L180,0"></path><text class="axis-ceiling-label" font-family="sans-serif" text-anchor="end" font-size="10px" x="170" y="2.5">1500</text></g></svg>