<svg xmlns="http://www.w3.org/2000/svg" viewBox="0 0 180 60"><g transform="translate(0,20)"><path class="area" fill="rgba(0, 0, 0, 0.2)" d="M0,18.18C1.0169491525423728,18.189999999999998,2.0338983050847457,18.2,3.0508474576271185,18.24C4.067796610169491,18.279999999999998,5.084745762711864,18.98,6.101694915254237,18.98C7.11864406779661,18.98,8.135593220338983,18.84,9.152542372881356,18.84C10.169491525423728,18.84,11.186440677966102,19.92,12.203389830508474,19.92C13.220338983050846,19.92,14.23728813559322,19.743333333333332,15.254237288135592,19.68C16.271186440677965,19.616666666666667,17.28813559322034,19.540000000000003,18.305084745762713,19.540000000000003C19.322033898305087,19.540000000000003,20.338983050847457,19.740000000000002,21.35593220338983,19.740000000000002C22.372881355932204,19.740000000000002,23.389830508474574,19.52,24.406779661016948,19.52C25.423728813559322,19.52,26.440677966101696,19.64666666666667,27.45762711864407,19.700000000000003C28.47457627118644,19.753333333333337,29.491525423728813,19.8,30.508474576271183,19.84C31.525423728813557,19.88,32.54237288135593,19.873333333333335,33.559322033898304,19.94C34.57627118644068,20.006666666666668,35.59322033898305,20.93,36.610169491525426,21.4C37.6271186440678,21.869999999999997,38.644067796610166,22.38,39.66101694915254,22.759999999999998C40.67796610169491,23.14,41.69491525423729,23.416666666666668,42.71186440677966,23.680000000000003C43.728813559322035,23.94333333333334,44.7457627118644,24.020000000000003,45.762711864406775,24.340000000000003C46.77966101694915,24.660000000000004,47.79661016949152,25.113333333333337,48.813559322033896,25.6C49.83050847457627,26.086666666666666,50.847457627118644,26.816666666666663,51.86440677966102,27.259999999999998C52.88135593220339,27.703333333333333,53.898305084745765,27.993333333333336,54.91525423728814,28.26C55.93220338983051,28.526666666666667,56.94915254237288,28.666666666666664,57.96610169491525,28.86C58.983050847457626,29.053333333333335,59.99999999999999,29.220000000000002,61.01694915254237,29.42C62.03389830508474,29.62,63.05084745762712,29.90666666666667,64.0677966101695,30.060000000000002C65.08474576271186,30.213333333333335,66.10169491525424,30.23333333333333,67.11864406779661,30.339999999999996C68.13559322033899,30.446666666666662,69.15254237288136,30.7,70.16949152542374,30.7C71.1864406779661,30.7,72.20338983050848,30.620000000000005,73.22033898305085,30.620000000000005C74.23728813559322,30.620000000000005,75.2542372881356,30.68,76.27118644067797,30.68C77.28813559322033,30.68,78.30508474576271,30.420000000000005,79.32203389830508,30.300000000000004C80.33898305084746,30.180000000000003,81.35593220338983,29.96,82.37288135593221,29.96C83.38983050847457,29.96,84.40677966101696,30.019999999999996,85.42372881355932,30.019999999999996C86.4406779661017,30.019999999999996,87.45762711864407,29.93,88.47457627118645,29.759999999999998C89.49152542372882,29.59,90.50847457627118,29.196666666666665,91.52542372881355,29C92.54237288135593,28.80333333333333,93.55932203389831,28.72666666666667,94.57627118644069,28.580000000000002C95.59322033898306,28.433333333333337,96.61016949152543,28.25666666666667,97.62711864406779,28.120000000000005C98.64406779661016,27.983333333333338,99.66101694915254,27.839999999999996,100.6779661016949,27.759999999999998C101.69491525423729,27.68,102.71186440677965,27.72,103.72881355932203,27.64C104.7457627118644,27.560000000000002,105.76271186440678,26.94333333333333,106.77966101694915,26.66C107.79661016949153,26.376666666666665,108.8135593220339,26.10333333333334,109.83050847457628,25.940000000000005C110.84745762711864,25.77666666666667,111.86440677966102,25.853333333333335,112.88135593220339,25.68C113.89830508474576,25.506666666666664,114.91525423728814,24.803333333333335,115.9322033898305,24.48C116.94915254237289,24.156666666666666,117.96610169491525,23.98666666666667,118.98305084745763,23.740000000000002C120,23.493333333333336,121.01694915254237,23.316666666666663,122.03389830508473,23C123.05084745762711,22.683333333333334,124.0677966101695,22.12666666666667,125.08474576271188,21.840000000000003C126.10169491525424,21.553333333333338,127.11864406779662,21.346666666666668,128.135593220339,21.28C129.15254237288136,21.213333333333335,130.16949152542372,21.24666666666667,131.1864406779661,21.180000000000003C132.20338983050846,21.113333333333337,133.22033898305085,20.380000000000003,134.23728813559322,20.380000000000003C135.25423728813558,20.380000000000003,136.27118644067798,20.6,137.28813559322035,20.6C138.3050847457627,20.6,139.3220338983051,20.486666666666665,140.33898305084747,20.4C141.35593220338984,20.313333333333333,142.3728813559322,20.22333333333333,143.38983050847457,20.08C144.40677966101694,19.936666666666664,145.42372881355934,19.85333333333334,146.4406779661017,19.540000000000003C147.45762711864407,19.22666666666667,148.47457627118644,18.796666666666663,149.4915254237288,18.2C150.50847457627117,17.60333333333333,151.52542372881356,16.673333333333336,152.54237288135593,15.96C153.5593220338983,15.246666666666668,154.5762711864407,14.630000000000003,155.59322033898306,13.919999999999998C156.61016949152543,13.21,157.6271186440678,12.439999999999996,158.64406779661016,11.7C159.66101694915253,10.959999999999996,160.67796610169492,10.22,161.6949152542373,9.48C162.71186440677965,8.74,163.72881355932205,7.913333333333335,164.74576271186442,7.26C165.76271186440678,6.606666666666671,166.77966101694915,5.680000000000001,167.79661016949152,5.5600000000000005C168.81355932203388,5.439999999999999,169.83050847457628,5.379999999999998,170.84745762711864,5.379999999999998C171.864406779661,5.379999999999998,172.8813559322034,5.776666666666667,173.89830508474577,6.080000000000001C174.91525423728814,6.383333333333335,175.93220338983053,6.453333333333335,176.9491525423729,7.200000000000002C177.96610169491527,7.946666666666662,178.98305084745763,10.073333333333332,180,12.200000000000003L180,40C178.98305084745763,40,177.96610169491527,40,176.9491525423729,40C175.93220338983053,40,174.91525423728814,40,173.89830508474577,40C172.8813559322034,40,171.864406779661,40,170.84745762711864,40C169.83050847457628,40,168.81355932203388,40,167.79661016949152,40C166.77966101694915,40,165.76271186440678,40,164.74576271186442,40C163.72881355932205,40,162.71186440677965,40,161.6949152542373,40C160.67796610169492,40,159.66101694915253,40,158.64406779661016,40C157.6271186440678,40,156.61016949152543,40,155.59322033898306,40C154.5762711864407,40,153.5593220338983,40,152.54237288135593,40C151.52542372881356,40,150.50847457627117,40,149.4915254237288,40C148.47457627118644,40,147.45762711864407,40,146.4406779661017,40C145.42372881355934,40,144.40677966101694,40,143.38983050847457,40C142.3728813559322,40,141.35593220338984,40,140.33898305084747,40C139.3220338983051,40,138.3050847457627,40,137.28813559322035,40C136.27118644067798,40,135.25423728813558,40,134.23728813559322,40C133.22033898305085,40,132.20338983050846,40,131.1864406779661,40C130.16949152542372,40,129.15254237288136,40,128.135593220339,40C127.11864406779662,40,126.10169491525424,40,125.08474576271188,40C124.0677966101695,40,123.05084745762711,40,122.03389830508473,40C121.01694915254237,40,120,40,118.98305084745763,40C117.96610169491525,40,116.94915254237289,40,115.9322033898305,40C114.91525423728814,40,113.89830508474576,40,112.88135593220339,40C111.86440677966102,40,110.84745762711864,40,109.83050847457628,40C108.8135593220339,40,107.79661016949153,40,106.77966101694915,40C105.76271186440678,40,104.7457627118644,40,103.72881355932203,40C102.71186440677965,40,101.69491525423729,40,100.6779661016949,40C99.66101694915254,40,98.64406779661016,40,97.62711864406779,40C96.61016949152543,40,95.59322033898306,40,94.57627118644069,40C93.55932203389831,40,92.54237288135593,40,91.52542372881355,40C90.50847457627118,40,89.49152542372882,40,88.47457627118645,40C87.45762711864407,40,86.4406779661017,40,85.42372881355932,40C84.40677966101696,40,83.38983050847457,40,82.37288135593221,40C81.35593220338983,40,80.33898305084746,40,79.32203389830508,40C78.30508474576271,40,77.28813559322033,40,76.27118644067797,40C75.2542372881356,40,74.23728813559322,40,73.22033898305085,40C72.20338983050848,40,71.1864406779661,40,70.16949152542374,40C69.15254237288136,40,68.13559322033899,40,67.11864406779661,40C66.10169491525424,40,65.08474576271186,40,64.0677966101695,40C63.05084745762712,40,62.03389830508474,40,61.01694915254237,40C59.99999999999999,40,58.983050847457626,40,57.96610169491525,40C56.94915254237288,40,55.93220338983051,40,54.91525423728814,40C53.898305084745765,40,52.88135593220339,40,51.86440677966102,40C50.847457627118644,40,49.83050847457627,40,48.813559322033896,40C47.79661016949152,40,46.77966101694915,40,45.762711864406775,40C44.7457627118644,40,43.728813559322035,40,42.71186440677966,40C41.69491525423729,40,40.67796610169491,40,39.66101694915254,40C38.644067796610166,40,37.6271186440678,40,36.610169491525426,40C35.59322033898305,40,34.57627118644068,40,33.559322033898304,40C32.54237288135593,40,31.525423728813557,40,30.508474576271183,40C29.491525423728813,40,28.47457627118644,40,27.45762711864407,40C26.440677966101696,40,25.423728813559322,40,24.406779661016948,40C23.389830508474574,40,22.372881355932204,40,21.35593220338983,40C20.338983050847457,40,19.322033898305087,40,18.305084745762713,40C17.28813559322034,40,16.271186440677965,40,15.254237288135592,40C14.23728813559322,40,13.220338983050846,40,12.203389830508474,40C11.186440677966102,40,10.169491525423728,40,9.152542372881356,40C8.135593220338983,40,7.11864406779661,40,6.101694915254237,40C5.084745762711864,40,4.067796610169491,40,3.0508474576271185,40C2.0338983050847457,40,1.0169491525423728,40,0,40Z"></path><path class="line" stroke="black" fill="none" d="M0,18.18C1.0169491525423728,18.189999999999998,2.0338983050847457,18.2,3.0508474576271185,18.24C4.067796610169491,18.279999999999998,5.084745762711864,18.98,6.101694915254237,18.98C7.11864406779661,18.98,8.135593220338983,18.84,9.152542372881356,18.84C10.169491525423728,18.84,11.186440677966102,19.92,12.203389830508474,19.92C13.220338983050846,19.92,14.23728813559322,19.743333333333332,15.254237288135592,19.68C16.271186440677965,19.616666666666667,17.28813559322034,19.540000000000003,18.305084745762713,19.540000000000003C19.322033898305087,19.540000000000003,20.338983050847457,19.740000000000002,21.35593220338983,19.740000000000002C22.372881355932204,19.740000000000002,23.389830508474574,19.52,24.406779661016948,19.52C25.423728813559322,19.52,26.440677966101696,19.64666666666667,27.45762711864407,19.700000000000003C28.47457627118644,19.753333333333337,29.491525423728813,19.8,30.508474576271183,19.84C31.525423728813557,19.88,32.54237288135593,19.873333333333335,33.559322033898304,19.94C34.57627118644068,20.006666666666668,35.59322033898305,20.93,36.610169491525426,21.4C37.6271186440678,21.869999999999997,38.644067796610166,22.38,39.66101694915254,22.759999999999998C40.67796610169491,23.14,41.69491525423729,23.416666666666668,42.71186440677966,23.680000000000003C43.728813559322035,23.94333333333334,44.7457627118644,24.020000000000003,45.762711864406775,24.340000000000003C46.77966101694915,24.660000000000004,47.79661016949152,25.113333333333337,48.813559322033896,25.6C49.83050847457627,26.086666666666666,50.847457627118644,26.816666666666663,51.86440677966102,27.259999999999998C52.88135593220339,27.703333333333333,53.898305084745765,27.993333333333336,54.91525423728814,28.26C55.93220338983051,28.526666666666667,56.94915254237288,28.666666666666664,57.96610169491525,28.86C58.983050847457626,29.053333333333335,59.99999999999999,29.220000000000002,61.01694915254237,29.42C62.03389830508474,29.62,63.05084745762712,29.90666666666667,64.0677966101695,30.060000000000002C65.08474576271186,30.213333333333335,66.10169491525424,30.23333333333333,67.11864406779661,30.339999999999996C68.13559322033899,30.446666666666662,69.15254237288136,30.7,70.16949152542374,30.7C71.1864406779661,30.7,72.20338983050848,30.620000000000005,73.22033898305085,30.620000000000005C74.23728813559322,30.620000000000005,75.2542372881356,30.68,76.27118644067797,30.68C77.28813559322033,30.68,78.30508474576271,30.420000000000005,79.32203389830508,30.300000000000004C80.33898305084746,30.180000000000003,81.35593220338983,29.96,82.37288135593221,29.96C83.38983050847457,29.96,84.40677966101696,30.019999999999996,85.42372881355932,30.019999999999996C86.4406779661017,30.019999999999996,87.45762711864407,29.93,88.47457627118645,29.759999999999998C89.49152542372882,29.59,90.50847457627118,29.196666666666665,91.52542372881355,29C92.54237288135593,28.80333333333333,93.55932203389831,28.72666666666667,94.57627118644069,28.580000000000002C95.59322033898306,28.433333333333337,96.61016949152543,28.25666666666667,97.62711864406779,28.120000000000005C98.64406779661016,27.983333333333338,99.66101694915254,27.839999999999996,100.6779661016949,27.759999999999998C101.69491525423729,27.68,102.71186440677965,27.72,103.72881355932203,27.64C104.7457627118644,27.560000000000002,105.76271186440678,26.94333333333333,106.77966101694915,26.66C107.79661016949153,26.376666666666665,108.8135593220339,26.10333333333334,109.83050847457628,25.940000000000005C110.84745762711864,25.77666666666667,111.86440677966102,25.853333333333335,112.88135593220339,25.68C113.89830508474576,25.506666666666664,114.91525423728814,24.803333333333335,115.9322033898305,24.48C116.94915254237289,24.156666666666666,117.96610169491525,23.98666666666667,118.98305084745763,23.740000000000002C120,23.493333333333336,121.01694915254237,23.316666666666663,122.03389830508473,23C123.05084745762711,22.683333333333334,124.0677966101695,22.12666666666667,125.08474576271188,21.840000000000003C126.10169491525424,21.553333333333338,127.11864406779662,21.346666666666668,128.135593220339,21.28C129.15254237288136,21.213333333333335,130.16949152542372,21.24666666666667,131.1864406779661,21.180000000000003C132.20338983050846,21.113333333333337,133.22033898305085,20.380000000000003,134.23728813559322,20.380000000000003C135.25423728813558,20.380000000000003,136.27118644067798,20.6,137.28813559322035,20.6C138.3050847457627,20.6,139.3220338983051,20.486666666666665,140.33898305084747,20.4C141.35593220338984,20.313333333333333,142.3728813559322,20.22333333333333,143.38983050847457,20.08C144.40677966101694,19.936666666666664,145.42372881355934,19.85333333333334,146.4406779661017,19.540000000000003C147.45762711864407,19.22666666666667,148.47457627118644,18.796666666666663,149.4915254237288,18.2C150.50847457627117,17.60333333333333,151.52542372881356,16.673333333333336,152.54237288135593,15.96C153.5593220338983,15.246666666666668,154.5762711864407,14.630000000000003,155.59322033898306,13.919999999999998C156.61016949152543,13.21,157.6271186440678,12.439999999999996,158.64406779661016,11.7C159.66101694915253,10.959999999999996,160.67796610169492,10.22,161.6949152542373,9.48C162.71186440677965,8.74,163.72881355932205,7.913333333333335,164.74576271186442,7.26C165.76271186440678,6.606666666666671,166.77966101694915,5.680000000000001,167.79661016949152,5.5600000000000005C168.81355932203388,5.439999999999999,169.83050847457628,5.379999999999998,170.84745762711864,5.379999999999998C171.864406779661,5.379999999999998,172.8813559322034,5.776666666666667,173.89830508474577,6.080000000000001C174.91525423728814,6.383333333333335,175.93220338983053,6.453333333333335,176.9491525423729,7.200000000000002C177.96610169491527,7.946666666666662,178.98305084745763,10.073333333333332,180,12.200000000000003"></path><path class="axis-ceiling" stroke-width="1" stroke="black" fill="none" d="M175,0L180,0"></path><text class="axis-ceiling-label" font-family="sans-serif" text-anchor="end" font-size="10px" x="170" y="2.5">2000</text></g></svg>