<svg xmlns="http://www.w3.org/2000/svg" viewBox="0 0 180 60"><g transform="translate(0,20)"><path class="area" fill="rgba(0, 0, 0, 0.2)" d="M0,28.26C1.0169491525423728,28.463333333333335,2.0338983050847457,28.666666666666664,3.0508474576271185,28.86C4.067796610169491,29.053333333333335,5.084745762711864,29.220000000000002,6.101694915254237,29.42C7.11864406779661,29.62,8.135593220338983,29.90666666666667,9.152542372881356,30.060000000000002C10.169491525423728,30.213333333333335,11.186440677966102,30.23333333333333,12.203389830508474,30.339999999999996C13.220338983050846,30.446666666666662,14.23728813559322,30.7,15.254237288135592,30.7C16.271186440677965,30.7,17.28813559322034,30.620000000000005,18.305084745762713,30.620000000000005C19.322033898305087,30.620000000000005,20.338983050847457,30.68,21.35593220338983,30.68C22.372881355932204,30.68,23.389830508474574,30.420000000000005,24.406779661016948,30.300000000000004C25.423728813559322,30.180000000000003,26.440677966101696,29.96,27.45762711864407,29.96C28.47457627118644,29.96,29.491525423728813,30.019999999999996,30.508474576271183,30.019999999999996C31.525423728813557,30.019999999999996,32.54237288135593,29.929999999999996,33.559322033898304,29.759999999999998C34.57627118644068,29.59,35.59322033898305,29.196666666666665,36.610169491525426,29C37.6271186440678,28.803333333333335,38.644067796610166,28.726666666666667,39.66101694915254,28.580000000000002C40.67796610169491,28.433333333333337,41.69491525423729,28.25666666666667,42.71186440677966,28.120000000000005C43.728813559322035,27.983333333333338,44.7457627118644,27.839999999999996,45.762711864406775,27.759999999999998C46.77966101694915,27.68,47.79661016949152,27.72,48.813559322033896,27.64C49.83050847457627,27.560000000000002,50.847457627118644,26.94333333333333,51.86440677966102,26.66C52.88135593220339,26.37666666666667,53.898305084745765,26.10333333333334,54.91525423728814,25.940000000000005C55.93220338983051,25.77666666666667,56.94915254237288,25.853333333333335,57.96610169491525,25.68C58.983050847457626,25.506666666666664,59.99999999999999,24.803333333333335,61.01694915254237,24.48C62.03389830508474,24.156666666666666,63.05084745762712,23.986666666666668,64.0677966101695,23.740000000000002C65.08474576271186,23.493333333333336,66.10169491525424,23.316666666666666,67.11864406779661,23C68.13559322033899,22.683333333333334,69.15254237288136,22.12666666666667,70.16949152542374,21.840000000000003C71.1864406779661,21.553333333333338,72.20338983050848,21.346666666666668,73.22033898305085,21.28C74.23728813559322,21.213333333333335,75.2542372881356,21.24666666666667,76.27118644067797,21.180000000000003C77.28813559322033,21.113333333333337,78.30508474576271,20.380000000000003,79.32203389830508,20.380000000000003C80.33898305084746,20.380000000000003,81.35593220338983,20.6,82.37288135593221,20.6C83.38983050847457,20.6,84.40677966101696,20.486666666666665,85.42372881355932,20.4C86.4406779661017,20.313333333333333,87.45762711864407,20.223333333333333,88.47457627118645,20.08C89.49152542372882,19.936666666666667,90.50847457627118,19.85333333333333,91.52542372881355,19.540000000000003C92.54237288135593,19.22666666666667,93.55932203389831,18.796666666666674,94.57627118644069,18.2C95.59322033898306,17.603333333333335,96.61016949152543,16.673333333333332,97.62711864406779,15.96C98.64406779661016,15.246666666666666,99.66101694915254,14.629999999999997,100.6779661016949,13.919999999999998C101.69491525423729,13.209999999999997,102.71186440677965,12.440000000000001,103.72881355932203,11.7C104.7457627118644,10.96,105.76271186440678,10.219999999999999,106.77966101694915,9.48C107.79661016949153,8.739999999999998,108.8135593220339,7.913333333333334,109.83050847457628,7.26C110.84745762711864,6.606666666666668,111.86440677966102,5.680000000000002,112.88135593220339,5.5600000000000005C113.89830508474576,5.439999999999999,114.91525423728814,5.379999999999998,115.9322033898305,5.379999999999998C116.94915254237289,5.379999999999998,117.96610169491525,5.776666666666665,118.98305084745763,6.080000000000001C120,6.383333333333335,121.01694915254237,6.743333333333339,122.03389830508473,7.200000000000002C123.05084745762711,7.656666666666671,124.0677966101695,8.43,125.08474576271188,8.82C126.10169491525424,9.209999999999997,127.11864406779662,9.113333333333335,128.135593220339,9.540000000000003C129.15254237288136,9.966666666666669,130.16949152542372,10.763333333333335,131.1864406779661,11.379999999999999C132.20338983050846,11.996666666666668,133.22033898305085,13.17333333333333,134.23728813559322,13.239999999999998C135.25423728813558,13.306666666666667,136.27118644067798,13.273333333333332,137.28813559322035,13.34C138.3050847457627,13.406666666666668,139.3220338983051,14.189999999999998,140.33898305084747,14.559999999999999C141.35593220338984,14.929999999999996,142.3728813559322,15.56,143.38983050847457,15.56C144.40677966101694,15.56,145.42372881355934,15.099999999999998,146.4406779661017,15.099999999999998C147.45762711864407,15.099999999999998,148.47457627118644,15.219999999999999,149.4915254237288,15.219999999999999C150.50847457627117,15.219999999999999,151.52542372881356,14.683333333333334,152.54237288135593,14.46C153.5593220338983,14.236666666666668,154.5762711864407,13.879999999999999,155.59322033898306,13.879999999999999C156.61016949152543,13.879999999999999,157.6271186440678,14.340000000000002,158.64406779661016,14.500000000000002C159.66101694915253,14.660000000000004,160.67796610169492,14.799999999999999,161.6949152542373,14.84C162.71186440677965,14.88,163.72881355932205,14.860000000000001,164.74576271186442,14.900000000000002C165.76271186440678,14.940000000000003,166.77966101694915,15.093333333333335,167.79661016949152,15.48C168.81355932203388,15.866666666666669,169.83050847457628,17.200000000000003,170.84745762711864,17.44C171.864406779661,17.68,172.8813559322034,17.56,173.89830508474577,17.799999999999997C174.91525423728814,18.039999999999996,175.93220338983053,18.186666666666664,176.9491525423729,18.96C177.96610169491527,19.73333333333333,178.98305084745763,21.206666666666663,180,22.68L180,40C178.98305084745763,40,177.96610169491527,40,176.9491525423729,40C175.93220338983053,40,174.91525423728814,40,173.89830508474577,40C172.8813559322034,40,171.864406779661,40,170.84745762711864,40C169.83050847457628,40,168.81355932203388,40,167.79661016949152,40C166.77966101694915,40,165.76271186440678,40,164.74576271186442,40C163.72881355932205,40,162.71186440677965,40,161.6949152542373,40C160.67796610169492,40,159.66101694915253,40,158.64406779661016,40C157.6271186440678,40,156.61016949152543,40,155.59322033898306,40C154.5762711864407,40,153.5593220338983,40,152.54237288135593,40C151.52542372881356,40,150.50847457627117,40,149.4915254237288,40C148.47457627118644,40,147.45762711864407,40,146.4406779661017,40C145.42372881355934,40,144.40677966101694,40,143.38983050847457,40C142.3728813559322,40,141.35593220338984,40,140.33898305084747,40C139.3220338983051,40,138.3050847457627,40,137.28813559322035,40C136.27118644067798,40,135.25423728813558,40,134.23728813559322,40C133.22033898305085,40,132.20338983050846,40,131.1864406779661,40C130.16949152542372,40,129.15254237288136,40,128.135593220339,40C127.11864406779662,40,126.10169491525424,40,125.08474576271188,40C124.0677966101695,40,123.05084745762711,40,122.03389830508473,40C121.01694915254237,40,120,40,118.98305084745763,40C117.96610169491525,40,116.94915254237289,40,115.9322033898305,40C114.91525423728814,40,113.89830508474576,40,112.88135593220339,40C111.86440677966102,40,110.84745762711864,40,109.83050847457628,40C108.8135593220339,40,107.79661016949153,40,106.77966101694915,40C105.76271186440678,40,104.7457627118644,40,103.72881355932203,40C102.71186440677965,40,101.69491525423729,40,100.6779661016949,40C99.66101694915254,40,98.64406779661016,40,97.62711864406779,40C96.61016949152543,40,95.59322033898306,40,94.57627118644069,40C93.55932203389831,40,92.54237288135593,40,91.52542372881355,40C90.50847457627118,40,89.49152542372882,40,88.47457627118645,40C87.45762711864407,40,86.4406779661017,40,85.42372881355932,40C84.40677966101696,40,83.38983050847457,40,82.37288135593221,40C81.35593220338983,40,80.33898305084746,40,79.32203389830508,40C78.30508474576271,40,77.28813559322033,40,76.27118644067797,40C75.2542372881356,40,74.23728813559322,40,73.22033898305085,40C72.20338983050848,40,71.1864406779661,40,70.16949152542374,40C69.15254237288136,40,68.13559322033899,40,67.11864406779661,40C66.10169491525424,40,65.08474576271186,40,64.0677966101695,40C63.05084745762712,40,62.03389830508474,40,61.01694915254237,40C59.99999999999999,40,58.983050847457626,40,57.96610169491525,40C56.94915254237288,40,55.93220338983051,40,54.91525423728814,40C53.898305084745765,40,52.88135593220339,40,51.86440677966102,40C50.847457627118644,40,49.83050847457627,40,48.813559322033896,40C47.79661016949152,40,46.77966101694915,40,45.762711864406775,40C44.7457627118644,40,43.728813559322035,40,42.71186440677966,40C41.69491525423729,40,40.67796610169491,40,39.66101694915254,40C38.644067796610166,40,37.6271186440678,40,36.610169491525426,40C35.59322033898305,40,34.57627118644068,40,33.559322033898304,40C32.54237288135593,40,31.525423728813557,40,30.508474576271183,40C29.491525423728813,40,28.47457627118644,40,27.45762711864407,40C26.440677966101696,40,25.423728813559322,40,24.406779661016948,40C23.389830508474574,40,22.372881355932204,40,21.35593220338983,40C20.338983050847457,40,19.322033898305087,40,18.305084745762713,40C17.28813559322034,40,16.271186440677965,40,15.254237288135592,40C14.23728813559322,40,13.220338983050846,40,12.203389830508474,40C11.186440677966102,40,10.169491525423728,40,9.152542372881356,40C8.135593220338983,40,7.11864406779661,40,6.101694915254237,40C5.084745762711864,40,4.067796610169491,40,3.0508474576271185,40C2.0338983050847457,40,1.0169491525423728,40,0,40Z"></path><path class="line" stroke="black" fill="none" d="M0,28.26C1.0169491525423728,28.463333333333335,2.0338983050847457,28.666666666666664,3.0508474576271185,28.86C4.067796610169491,29.053333333333335,5.084745762711864,29.220000000000002,6.101694915254237,29.42C7.11864406779661,29.62,8.135593220338983,29.90666666666667,9.152542372881356,30.060000000000002C10.169491525423728,30.213333333333335,11.186440677966102,30.23333333333333,12.203389830508474,30.339999999999996C13.220338983050846,30.446666666666662,14.23728813559322,30.7,15.254237288135592,30.7C16.271186440677965,30.7,17.28813559322034,30.620000000000005,18.305084745762713,30.620000000000005C19.322033898305087,30.620000000000005,20.338983050847457,30.68,21.35593220338983,30.68C22.372881355932204,30.68,23.389830508474574,30.420000000000005,24.406779661016948,30.300000000000004C25.423728813559322,30.180000000000003,26.440677966101696,29.96,27.45762711864407,29.96C28.47457627118644,29.96,29.491525423728813,30.019999999999996,30.508474576271183,30.019999999999996C31.525423728813557,30.019999999999996,32.54237288135593,29.929999999999996,33.559322033898304,29.759999999999998C34.57627118644068,29.59,35.59322033898305,29.196666666666665,36.610169491525426,29C37.6271186440678,28.803333333333335,38.644067796610166,28.726666666666667,39.66101694915254,28.580000000000002C40.67796610169491,28.433333333333337,41.69491525423729,28.25666666666667,42.71186440677966,28.120000000000005C43.728813559322035,27.983333333333338,44.7457627118644,27.839999999999996,45.762711864406775,27.759999999999998C46.77966101694915,27.68,47.79661016949152,27.72,48.813559322033896,27.64C49.83050847457627,27.560000000000002,50.847457627118644,26.94333333333333,51.86440677966102,26.66C52.88135593220339,26.37666666666667,53.898305084745765,26.10333333333334,54.91525423728814,25.940000000000005C55.93220338983051,25.77666666666667,56.94915254237288,25.853333333333335,57.96610169491525,25.68C58.983050847457626,25.506666666666664,59.99999999999999,24.803333333333335,61.01694915254237,24.48C62.03389830508474,24.156666666666666,63.05084745762712,23.986666666666668,64.0677966101695,23.740000000000002C65.08474576271186,23.493333333333336,66.10169491525424,23.316666666666666,67.11864406779661,23C68.13559322033899,22.683333333333334,69.15254237288136,22.12666666666667,70.16949152542374,21.840000000000003C71.1864406779661,21.553333333333338,72.20338983050848,21.346666666666668,73.22033898305085,21.28C74.23728813559322,21.213333333333335,75.2542372881356,21.24666666666667,76.27118644067797,21.180000000000003C77.28813559322033,21.113333333333337,78.30508474576271,20.380000000000003,79.32203389830508,20.380000000000003C80.33898305084746,20.380000000000003,81.35593220338983,20.6,82.37288135593221,20.6C83.38983050847457,20.6,84.40677966101696,20.486666666666665,85.42372881355932,20.4C86.4406779661017,20.313333333333333,87.45762711864407,20.223333333333333,88.47457627118645,20.08C89.49152542372882,19.936666666666667,90.50847457627118,19.85333333333333,91.52542372881355,19.540000000000003C92.54237288135593,19.22666666666667,93.55932203389831,18.796666666666674,94.57627118644069,18.2C95.59322033898306,17.603333333333335,96.61016949152543,16.673333333333332,97.62711864406779,15.96C98.64406779661016,15.246666666666666,99.66101694915254,14.629999999999997,100.6779661016949,13.919999999999998C101.69491525423729,13.209999999999997,102.71186440677965,12.440000000000001,103.72881355932203,11.7C104.7457627118644,10.96,105.76271186440678,10.219999999999999,106.77966101694915,9.48C107.79661016949153,8.739999999999998,108.8135593220339,7.913333333333334,109.83050847457628,7.26C110.84745762711864,6.606666666666668,111.86440677966102,5.680000000000002,112.88135593220339,5.5600000000000005C113.89830508474576,5.439999999999999,114.91525423728814,5.379999999999998,115.9322033898305,5.379999999999998C116.94915254237289,5.379999999999998,117.96610169491525,5.776666666666665,118.98305084745763,6.080000000000001C120,6.383333333333335,121.01694915254237,6.743333333333339,122.03389830508473,7.200000000000002C123.05084745762711,7.656666666666671,124.0677966101695,8.43,125.08474576271188,8.82C126.10169491525424,9.209999999999997,127.11864406779662,9.113333333333335,128.135593220339,9.540000000000003C129.15254237288136,9.966666666666669,130.16949152542372,10.763333333333335,131.1864406779661,11.379999999999999C132.20338983050846,11.996666666666668,133.22033898305085,13.17333333333333,134.23728813559322,13.239999999999998C135.25423728813558,13.306666666666667,136.27118644067798,13.273333333333332,137.28813559322035,13.34C138.3050847457627,13.406666666666668,139.3220338983051,14.189999999999998,140.33898305084747,14.559999999999999C141.35593220338984,14.929999999999996,142.3728813559322,15.56,143.38983050847457,15.56C144.40677966101694,15.56,145.42372881355934,15.099999999999998,146.4406779661017,15.099999999999998C147.45762711864407,15.099999999999998,148.47457627118644,15.219999999999999,149.4915254237288,15.219999999999999C150.50847457627117,15.219999999999999,151.52542372881356,14.683333333333334,152.54237288135593,14.46C153.5593220338983,14.236666666666668,154.5762711864407,13.879999999999999,155.59322033898306,13.879999999999999C156.61016949152543,13.879999999999999,157.6271186440678,14.340000000000002,158.64406779661016,14.500000000000002C159.66101694915253,14.660000000000004,160.67796610169492,14.799999999999999,161.6949152542373,14.84C162.71186440677965,14.88,163.72881355932205,14.860000000000001,164.74576271186442,14.900000000000002C165.76271186440678,14.940000000000003,166.77966101694915,15.093333333333335,167.79661016949152,15.48C168.81355932203388,15.866666666666669,169.83050847457628,17.200000000000003,170.84745762711864,17.44C171.864406779661,17.68,172.8813559322034,17.56,173.89830508474577,17.799999999999997C174.91525423728814,18.039999999999996,175.93220338983053,18.186666666666664,176.9491525423729,18.96C177.96610169491527,19.73333333333333,178.98305084745763,21.206666666666663,180,22.68"></path><path class="axis-ceiling" stroke-width="1" stroke="black" fill="none" d="M175,0L180,0"></path><text class="axis-ceiling-label" font-family="sans-serif" text-anchor="end" font-size="10px" x="170" y="2.5">2000</text></g></svg>