<svg xmlns="http://www.w3.org/2000/svg" viewBox="0 0 480 160"><g transform="translate(10,10)"><rect class="bar" x="0.15328223925359907" width="13.174941686104631" y="115.5639097744361" height="24.436090225563902" fill="rgb(164,173,192)"></rect><rect class="bar" x="15.481506164611814" width="13.174941686104631" y="134.3609022556391" height="5.639097744360896" fill="rgb(164,173,192)"></rect><rect class="bar" x="30.809730089970028" width="13.174941686104631" y="128.72180451127818" height="11.27819548872182" fill="rgb(164,173,192)"></rect><rect class="bar" x="46.13795401532824" width="13.174941686104631" y="134.3609022556391" height="5.639097744360896" fill="rgb(164,173,192)"></rect><rect class="bar" x="61.46617794068646" width="13.174941686104631" y="134.3609022556391" height="5.639097744360896" fill="rgb(164,173,192)"></rect><rect class="bar" x="76.79440186604467" width="13.174941686104631" y="140" height="0" fill="rgb(164,173,192)"></rect><rect class="bar" x="92.12262579140288" width="13.174941686104631" y="140" height="0" fill="rgb(164,173,192)"></rect><rect class="bar" x="107.4508497167611" width="13.174941686104631" y="128.72180451127818" height="11.27819548872182" fill="rgb(164,173,192)"></rect><rect class="bar" x="122.77907364211931" width="13.174941686104631" y="123.08270676691728" height="16.917293233082717" fill="rgb(164,173,192)"></rect><rect class="bar" x="138.10729756747753" width="13.174941686104631" y="132.4812030075188" height="7.518796992481214" fill="rgb(164,173,192)"></rect><rect class="bar" x="153.43552149283573" width="13.174941686104631" y="126.84210526315789" height="13.15789473684211" fill="rgb(164,173,192)"></rect><rect class="bar" x="168.76374541819396" width="13.174941686104631" y="109.92481203007517" height="30.075187969924826" fill="rgb(164,173,192)"></rect><rect class="bar" x="184.09196934355217" width="13.174941686104631" y="138.1203007518797" height="1.8796992481202892" fill="rgb(164,173,192)"></rect><rect class="bar" x="199.4201932689104" width="13.174941686104631" y="132.4812030075188" height="7.518796992481214" fill="rgb(164,173,192)"></rect><rect class="bar" x="214.7484171942686" width="13.174941686104631" y="93.00751879699249" height="46.992481203007515" fill="rgb(164,173,192)"></rect><rect class="bar" x="230.07664111962683" width="13.174941686104631" y="123.08270676691728" height="16.917293233082717" fill="rgb(164,173,192)"></rect><rect class="bar" x="245.40486504498503" width="13.174941686104631" y="102.40601503759397" height="37.593984962406026" fill="rgb(164,173,192)"></rect><rect class="bar" x="260.73308897034326" width="13.174941686104631" y="109.92481203007517" height="30.075187969924826" fill="rgb(164,173,192)"></rect><rect class="bar" x="276.06131289570146" width="13.174941686104631" y="113.68421052631578" height="26.31578947368422" fill="rgb(164,173,192)"></rect><rect class="bar" x="291.38953682105966" width="13.174941686104631" y="117.44360902255639" height="22.556390977443613" fill="rgb(164,173,192)"></rect><rect class="bar" x="306.71776074641787" width="13.174941686104631" y="117.44360902255639" height="22.556390977443613" fill="rgb(164,173,192)"></rect><rect class="bar" x="322.0459846717761" width="13.174941686104631" y="117.44360902255639" height="22.556390977443613" fill="rgb(164,173,192)"></rect><rect class="bar" x="337.3742085971343" width="13.174941686104631" y="117.44360902255639" height="22.556390977443613" fill="rgb(164,173,192)"></rect><rect class="bar" x="352.70243252249253" width="13.174941686104631" y="119.3233082706767" height="20.676691729323295" fill="rgb(164,173,192)"></rect><rect class="bar" x="368.03065644785073" width="13.174941686104631" y="119.3233082706767" height="20.676691729323295" fill="rgb(164,173,192)"></rect><rect class="bar" x="383.35888037320893" width="13.174941686104631" y="119.3233082706767" height="20.676691729323295" fill="rgb(164,173,192)"></rect><rect class="bar" x="398.6871042985672" width="13.174941686104631" y="140" height="0" fill="rgb(164,173,192)"></rect><rect class="bar" x="414.0153282239254" width="13.174941686104631" y="140" height="0" fill="rgb(164,173,192)"></rect><rect class="bar" x="429.3435521492836" width="13.174941686104631" y="34.736842105263165" height="105.26315789473684" fill="rgb(164,173,192)"></rect><rect class="bar" x="444.6717760746418" width="13.174941686104631" y="49.77443609022557" height="90.22556390977442" fill="rgb(164,173,192)"></rect></g></svg>