<svg xmlns="http://www.w3.org/2000/svg" viewBox="0 0 180 60"><g transform="translate(0,20)"><path class="area" fill="rgba(0, 0, 0, 0.2)" d="M0,27.258C1.0344827586206897,28.683666666666667,2.068965517241379,30.109333333333332,3.103448275862069,31.5332C4.137931034482759,32.95706666666667,5.172413793103448,35.8012,6.206896551724138,35.8012C7.241379310344827,35.8012,8.275862068965516,28.17,9.310344827586206,28.17C10.344827586206897,28.17,11.379310344827585,29.083866666666665,12.413793103448276,29.36C13.448275862068966,29.636133333333333,14.482758620689655,29.826800000000002,15.517241379310345,29.826800000000002C16.551724137931036,29.826800000000002,17.586206896551722,28.53093333333333,18.620689655172413,28.036399999999997C19.655172413793103,27.541866666666664,20.689655172413794,26.859599999999997,21.724137931034484,26.859599999999997C22.758620689655174,26.859599999999997,23.79310344827586,30.6328,24.82758620689655,31.9912C25.862068965517242,33.3496,26.896551724137932,35.01,27.931034482758623,35.01C28.965517241379313,35.01,30,29.21973333333333,31.03448275862069,28.089599999999997C32.06896551724138,26.959466666666668,33.103448275862064,26.492266666666666,34.137931034482754,26.3944C35.172413793103445,26.296533333333336,36.206896551724135,26.247600000000002,37.241379310344826,26.247600000000002C38.275862068965516,26.247600000000002,39.310344827586206,27.287600000000005,40.3448275862069,27.287600000000005C41.37931034482759,27.287600000000005,42.41379310344828,22.827599999999997,43.44827586206897,22.827599999999997C44.48275862068966,22.827599999999997,45.51724137931035,29.024799999999995,46.55172413793104,29.9504C47.58620689655173,30.875999999999998,48.62068965517241,31.3388,49.6551724137931,31.3388C50.689655172413794,31.3388,51.72413793103448,17.095733333333328,52.75862068965517,16.761599999999998C53.79310344827586,16.427466666666668,54.827586206896555,16.2604,55.862068965517246,16.2604C56.896551724137936,16.2604,57.93103448275862,22.452399999999997,58.96551724137931,22.452399999999997C60,22.452399999999997,61.03448275862069,8.013599999999999,62.06896551724138,8.013599999999999C63.10344827586207,8.013599999999999,64.13793103448276,13.357999999999999,65.17241379310344,13.357999999999999C66.20689655172413,13.357999999999999,67.24137931034483,11.6188,68.27586206896551,11.6188C69.3103448275862,11.6188,70.34482758620689,17.2648,71.37931034482759,17.2648C72.41379310344827,17.2648,73.44827586206897,8.756000000000004,74.48275862068965,6.600000000000001C75.51724137931033,4.443999999999999,76.55172413793103,4.133133333333331,77.58620689655172,3.365999999999998C78.62068965517241,2.598866666666661,79.6551724137931,2.367000000000001,80.6896551724138,1.9972000000000012C81.72413793103448,1.6274000000000033,82.75862068965517,1.1472000000000016,83.79310344827586,1.1472000000000016C84.82758620689656,1.1472000000000016,85.86206896551724,11.327600000000002,86.89655172413794,11.327600000000002C87.93103448275862,11.327600000000002,88.96551724137932,10.693866666666668,90,9.4264C91.0344827586207,8.158933333333325,92.06896551724138,0.8232000000000017,93.10344827586208,0.8232000000000017C94.13793103448276,0.8232000000000017,95.17241379310344,6.2936000000000245,96.20689655172413,10.0332C97.24137931034483,13.77280000000001,98.27586206896551,20.265466666666672,99.3103448275862,23.260800000000003C100.3448275862069,26.256133333333334,101.37931034482759,26.68066666666666,102.41379310344828,28.005199999999995C103.44827586206897,29.32973333333332,104.48275862068965,31.208,105.51724137931033,31.208C106.55172413793103,31.208,107.58620689655172,27.232400000000002,108.62068965517241,27.232400000000002C109.65517241379311,27.232400000000002,110.6896551724138,32.4008,111.72413793103449,32.4008C112.75862068965517,32.4008,113.79310344827587,32.19333333333333,114.82758620689656,31.778399999999998C115.86206896551724,31.363466666666664,116.89655172413794,27.588666666666665,117.93103448275862,26.328C118.96551724137932,25.067333333333327,120,24.849466666666668,121.0344827586207,24.2144C122.06896551724138,23.579333333333338,123.10344827586208,22.5176,124.13793103448276,22.5176C125.17241379310344,22.5176,126.20689655172414,25.086,127.24137931034483,25.086C128.27586206896552,25.086,129.3103448275862,19.6284,130.3448275862069,19.6284C131.3793103448276,19.6284,132.41379310344828,26.86346666666664,133.44827586206898,28.2536C134.48275862068965,29.643733333333333,135.51724137931035,29.560666666666673,136.55172413793102,30.3388C137.58620689655172,31.11693333333334,138.6206896551724,32.9224,139.6551724137931,32.9224C140.6896551724138,32.9224,141.72413793103448,29.034133333333333,142.75862068965517,27.5868C143.79310344827587,26.139466666666667,144.82758620689654,24.238400000000002,145.86206896551724,24.238400000000002C146.89655172413794,24.238400000000002,147.9310344827586,24.294400000000003,148.9655172413793,24.4064C150,24.518400000000003,151.0344827586207,25.269666666666666,152.0689655172414,25.6616C153.10344827586206,26.053533333333327,154.13793103448276,26.027066666666666,155.17241379310343,26.757999999999996C156.20689655172413,27.48893333333334,157.24137931034483,31.009600000000002,158.27586206896552,31.009600000000002C159.31034482758622,31.009600000000002,160.3448275862069,30.36553333333334,161.3793103448276,29.864800000000002C162.41379310344828,29.364066666666666,163.44827586206895,28.509133333333327,164.48275862068965,28.005199999999995C165.51724137931035,27.501266666666663,166.55172413793102,27.572999999999993,167.58620689655172,26.8412C168.6206896551724,26.1094,169.6551724137931,23.6144,170.6896551724138,23.6144C171.7241379310345,23.6144,172.75862068965517,25.522000000000006,173.79310344827587,26.674800000000005C174.82758620689657,27.827600000000004,175.86206896551724,29.324066666666667,176.89655172413794,30.5312C177.93103448275863,31.73833333333333,178.9655172413793,32.82796666666667,180,33.9176L180,40C178.9655172413793,40,177.93103448275863,40,176.89655172413794,40C175.86206896551724,40,174.82758620689657,40,173.79310344827587,40C172.75862068965517,40,171.7241379310345,40,170.6896551724138,40C169.6551724137931,40,168.6206896551724,40,167.58620689655172,40C166.55172413793102,40,165.51724137931035,40,164.48275862068965,40C163.44827586206895,40,162.41379310344828,40,161.3793103448276,40C160.3448275862069,40,159.31034482758622,40,158.27586206896552,40C157.24137931034483,40,156.20689655172413,40,155.17241379310343,40C154.13793103448276,40,153.10344827586206,40,152.0689655172414,40C151.0344827586207,40,150,40,148.9655172413793,40C147.9310344827586,40,146.89655172413794,40,145.86206896551724,40C144.82758620689654,40,143.79310344827587,40,142.75862068965517,40C141.72413793103448,40,140.6896551724138,40,139.6551724137931,40C138.6206896551724,40,137.58620689655172,40,136.55172413793102,40C135.51724137931035,40,134.48275862068965,40,133.44827586206898,40C132.41379310344828,40,131.3793103448276,40,130.3448275862069,40C129.3103448275862,40,128.27586206896552,40,127.24137931034483,40C126.20689655172414,40,125.17241379310344,40,124.13793103448276,40C123.10344827586208,40,122.06896551724138,40,121.0344827586207,40C120,40,118.96551724137932,40,117.93103448275862,40C116.89655172413794,40,115.86206896551724,40,114.82758620689656,40C113.79310344827587,40,112.75862068965517,40,111.72413793103449,40C110.6896551724138,40,109.65517241379311,40,108.62068965517241,40C107.58620689655172,40,106.55172413793103,40,105.51724137931033,40C104.48275862068965,40,103.44827586206897,40,102.41379310344828,40C101.37931034482759,40,100.3448275862069,40,99.3103448275862,40C98.27586206896551,40,97.24137931034483,40,96.20689655172413,40C95.17241379310344,40,94.13793103448276,40,93.10344827586208,40C92.06896551724138,40,91.0344827586207,40,90,40C88.96551724137932,40,87.93103448275862,40,86.89655172413794,40C85.86206896551724,40,84.82758620689656,40,83.79310344827586,40C82.75862068965517,40,81.72413793103448,40,80.6896551724138,40C79.6551724137931,40,78.62068965517241,40,77.58620689655172,40C76.55172413793103,40,75.51724137931033,40,74.48275862068965,40C73.44827586206897,40,72.41379310344827,40,71.37931034482759,40C70.34482758620689,40,69.3103448275862,40,68.27586206896551,40C67.24137931034483,40,66.20689655172413,40,65.17241379310344,40C64.13793103448276,40,63.10344827586207,40,62.06896551724138,40C61.03448275862069,40,60,40,58.96551724137931,40C57.93103448275862,40,56.896551724137936,40,55.862068965517246,40C54.827586206896555,40,53.79310344827586,40,52.75862068965517,40C51.72413793103448,40,50.689655172413794,40,49.6551724137931,40C48.62068965517241,40,47.58620689655173,40,46.55172413793104,40C45.51724137931035,40,44.48275862068966,40,43.44827586206897,40C42.41379310344828,40,41.37931034482759,40,40.3448275862069,40C39.310344827586206,40,38.275862068965516,40,37.241379310344826,40C36.206896551724135,40,35.172413793103445,40,34.137931034482754,40C33.103448275862064,40,32.06896551724138,40,31.03448275862069,40C30,40,28.965517241379313,40,27.931034482758623,40C26.896551724137932,40,25.862068965517242,40,24.82758620689655,40C23.79310344827586,40,22.758620689655174,40,21.724137931034484,40C20.689655172413794,40,19.655172413793103,40,18.620689655172413,40C17.586206896551722,40,16.551724137931036,40,15.517241379310345,40C14.482758620689655,40,13.448275862068966,40,12.413793103448276,40C11.379310344827585,40,10.344827586206897,40,9.310344827586206,40C8.275862068965516,40,7.241379310344827,40,6.206896551724138,40C5.172413793103448,40,4.137931034482759,40,3.103448275862069,40C2.068965517241379,40,1.0344827586206897,40,0,40Z"></path><path class="line" stroke="black" fill="none" d="M0,27.258C1.0344827586206897,28.683666666666667,2.068965517241379,30.109333333333332,3.103448275862069,31.5332C4.137931034482759,32.95706666666667,5.172413793103448,35.8012,6.206896551724138,35.8012C7.241379310344827,35.8012,8.275862068965516,28.17,9.310344827586206,28.17C10.344827586206897,28.17,11.379310344827585,29.083866666666665,12.413793103448276,29.36C13.448275862068966,29.636133333333333,14.482758620689655,29.826800000000002,15.517241379310345,29.826800000000002C16.551724137931036,29.826800000000002,17.586206896551722,28.53093333333333,18.620689655172413,28.036399999999997C19.655172413793103,27.541866666666664,20.689655172413794,26.859599999999997,21.724137931034484,26.859599999999997C22.758620689655174,26.859599999999997,23.79310344827586,30.6328,24.82758620689655,31.9912C25.862068965517242,33.3496,26.896551724137932,35.01,27.931034482758623,35.01C28.965517241379313,35.01,30,29.21973333333333,31.03448275862069,28.089599999999997C32.06896551724138,26.959466666666668,33.103448275862064,26.492266666666666,34.137931034482754,26.3944C35.172413793103445,26.296533333333336,36.206896551724135,26.247600000000002,37.241379310344826,26.247600000000002C38.275862068965516,26.247600000000002,39.310344827586206,27.287600000000005,40.3448275862069,27.287600000000005C41.37931034482759,27.287600000000005,42.41379310344828,22.827599999999997,43.44827586206897,22.827599999999997C44.48275862068966,22.827599999999997,45.51724137931035,29.024799999999995,46.55172413793104,29.9504C47.58620689655173,30.875999999999998,48.62068965517241,31.3388,49.6551724137931,31.3388C50.689655172413794,31.3388,51.72413793103448,17.095733333333328,52.75862068965517,16.761599999999998C53.79310344827586,16.427466666666668,54.827586206896555,16.2604,55.862068965517246,16.2604C56.896551724137936,16.2604,57.93103448275862,22.452399999999997,58.96551724137931,22.452399999999997C60,22.452399999999997,61.03448275862069,8.013599999999999,62.06896551724138,8.013599999999999C63.10344827586207,8.013599999999999,64.13793103448276,13.357999999999999,65.17241379310344,13.357999999999999C66.20689655172413,13.357999999999999,67.24137931034483,11.6188,68.27586206896551,11.6188C69.3103448275862,11.6188,70.34482758620689,17.2648,71.37931034482759,17.2648C72.41379310344827,17.2648,73.44827586206897,8.756000000000004,74.48275862068965,6.600000000000001C75.51724137931033,4.443999999999999,76.55172413793103,4.133133333333331,77.58620689655172,3.365999999999998C78.62068965517241,2.598866666666661,79.6551724137931,2.367000000000001,80.6896551724138,1.9972000000000012C81.72413793103448,1.6274000000000033,82.75862068965517,1.1472000000000016,83.79310344827586,1.1472000000000016C84.82758620689656,1.1472000000000016,85.86206896551724,11.327600000000002,86.89655172413794,11.327600000000002C87.93103448275862,11.327600000000002,88.96551724137932,10.693866666666668,90,9.4264C91.0344827586207,8.158933333333325,92.06896551724138,0.8232000000000017,93.10344827586208,0.8232000000000017C94.13793103448276,0.8232000000000017,95.17241379310344,6.2936000000000245,96.20689655172413,10.0332C97.24137931034483,13.77280000000001,98.27586206896551,20.265466666666672,99.3103448275862,23.260800000000003C100.3448275862069,26.256133333333334,101.37931034482759,26.68066666666666,102.41379310344828,28.005199999999995C103.44827586206897,29.32973333333332,104.48275862068965,31.208,105.51724137931033,31.208C106.55172413793103,31.208,107.58620689655172,27.232400000000002,108.62068965517241,27.232400000000002C109.65517241379311,27.232400000000002,110.6896551724138,32.4008,111.72413793103449,32.4008C112.75862068965517,32.4008,113.79310344827587,32.19333333333333,114.82758620689656,31.778399999999998C115.86206896551724,31.363466666666664,116.89655172413794,27.588666666666665,117.93103448275862,26.328C118.96551724137932,25.067333333333327,120,24.849466666666668,121.0344827586207,24.2144C122.06896551724138,23.579333333333338,123.10344827586208,22.5176,124.13793103448276,22.5176C125.17241379310344,22.5176,126.20689655172414,25.086,127.24137931034483,25.086C128.27586206896552,25.086,129.3103448275862,19.6284,130.3448275862069,19.6284C131.3793103448276,19.6284,132.41379310344828,26.86346666666664,133.44827586206898,28.2536C134.48275862068965,29.643733333333333,135.51724137931035,29.560666666666673,136.55172413793102,30.3388C137.58620689655172,31.11693333333334,138.6206896551724,32.9224,139.6551724137931,32.9224C140.6896551724138,32.9224,141.72413793103448,29.034133333333333,142.75862068965517,27.5868C143.79310344827587,26.139466666666667,144.82758620689654,24.238400000000002,145.86206896551724,24.238400000000002C146.89655172413794,24.238400000000002,147.9310344827586,24.294400000000003,148.9655172413793,24.4064C150,24.518400000000003,151.0344827586207,25.269666666666666,152.0689655172414,25.6616C153.10344827586206,26.053533333333327,154.13793103448276,26.027066666666666,155.17241379310343,26.757999999999996C156.20689655172413,27.48893333333334,157.24137931034483,31.009600000000002,158.27586206896552,31.009600000000002C159.31034482758622,31.009600000000002,160.3448275862069,30.36553333333334,161.3793103448276,29.864800000000002C162.41379310344828,29.364066666666666,163.44827586206895,28.509133333333327,164.48275862068965,28.005199999999995C165.51724137931035,27.501266666666663,166.55172413793102,27.572999999999993,167.58620689655172,26.8412C168.6206896551724,26.1094,169.6551724137931,23.6144,170.6896551724138,23.6144C171.7241379310345,23.6144,172.75862068965517,25.522000000000006,173.79310344827587,26.674800000000005C174.82758620689657,27.827600000000004,175.86206896551724,29.324066666666667,176.89655172413794,30.5312C177.93103448275863,31.73833333333333,178.9655172413793,32.82796666666667,180,33.9176"></path><path class="axis-ceiling" stroke-width="1" stroke="black" fill="none" d="M175,0L180,0"></path><text class="axis-ceiling-label" font-family="sans-serif" text-anchor="end" font-size="10px" x="170" y="2.5">100000</text></g></svg>