<svg xmlns="http://www.w3.org/2000/svg" viewBox="0 0 180 60"><g transform="translate(0,20)"><path class="area" fill="rgba(0, 0, 0, 0.2)" d="M0,4.039999999999999C1.0169491525423728,3.8773333333333326,2.0338983050847457,3.714666666666666,3.0508474576271185,3.714666666666666C4.067796610169491,3.714666666666666,5.084745762711864,3.9422222222222203,6.101694915254237,4.127999999999998C7.11864406779661,4.313777777777776,8.135593220338983,4.829333333333334,9.152542372881356,4.829333333333334C10.169491525423728,4.829333333333334,11.186440677966102,3.4915555555555535,12.203389830508474,3.0426666666666646C13.220338983050846,2.5937777777777757,14.23728813559322,2.136,15.254237288135592,2.136C16.271186440677965,2.136,17.28813559322034,2.6239999999999997,18.305084745762713,2.6239999999999997C19.322033898305087,2.6239999999999997,20.338983050847457,2.4715555555555566,21.35593220338983,2.368000000000001C22.372881355932204,2.264444444444446,23.389830508474574,2.002666666666668,24.406779661016948,2.002666666666668C25.423728813559322,2.002666666666668,26.440677966101696,3.0515555555555585,27.45762711864407,3.0906666666666682C28.47457627118644,3.129777777777778,29.491525423728813,3.110222222222223,30.508474576271183,3.149333333333333C31.525423728813557,3.1884444444444426,32.54237288135593,4.175999999999998,33.559322033898304,4.490666666666665C34.57627118644068,4.805333333333332,35.59322033898305,4.868888888888889,36.610169491525426,5.037333333333334C37.6271186440678,5.205777777777778,38.644067796610166,5.501333333333331,39.66101694915254,5.501333333333331C40.67796610169491,5.501333333333331,41.69491525423729,5.290666666666666,42.71186440677966,5.290666666666666C43.728813559322035,5.290666666666666,44.7457627118644,6.643555555555557,45.762711864406775,7.040000000000002C46.77966101694915,7.436444444444447,47.79661016949152,7.306666666666666,48.813559322033896,7.6693333333333324C49.83050847457627,8.031999999999998,50.847457627118644,8.83288888888889,51.86440677966102,9.216000000000001C52.88135593220339,9.599111111111112,53.898305084745765,9.729333333333333,54.91525423728814,9.968C55.93220338983051,10.206666666666665,56.94915254237288,10.621333333333334,57.96610169491525,10.648C58.983050847457626,10.674666666666665,59.99999999999999,10.661333333333333,61.01694915254237,10.687999999999999C62.03389830508474,10.714666666666664,63.05084745762712,12.596444444444444,64.0677966101695,12.770666666666667C65.08474576271186,12.944888888888888,66.10169491525424,12.890222222222222,67.11864406779661,13.032C68.13559322033899,13.173777777777778,69.15254237288136,13.621333333333334,70.16949152542374,13.621333333333334C71.1864406779661,13.621333333333334,72.20338983050848,13.034666666666666,73.22033898305085,13.034666666666666C74.23728813559322,13.034666666666666,75.2542372881356,13.175111111111113,76.27118644067797,13.373333333333335C77.28813559322033,13.571555555555557,78.30508474576271,13.941777777777778,79.32203389830508,14.224C80.33898305084746,14.506222222222224,81.35593220338983,14.75288888888889,82.37288135593221,15.066666666666668C83.38983050847457,15.380444444444445,84.40677966101696,15.732444444444445,85.42372881355932,16.106666666666666C86.4406779661017,16.480888888888888,87.45762711864407,17.040888888888887,88.47457627118645,17.311999999999998C89.49152542372882,17.583111111111105,90.50847457627118,17.579111111111114,91.52542372881355,17.733333333333334C92.54237288135593,17.887555555555558,93.55932203389831,18.19822222222222,94.57627118644069,18.237333333333332C95.59322033898306,18.276444444444444,96.61016949152543,18.296,97.62711864406779,18.296C98.64406779661016,18.296,99.66101694915254,18.08,100.6779661016949,18.08C101.69491525423729,18.08,102.71186440677965,18.136000000000003,103.72881355932203,18.136000000000003C104.7457627118644,18.136000000000003,105.76271186440678,17.746666666666666,106.77966101694915,17.421333333333333C107.79661016949153,17.096,108.8135593220339,16.48933333333333,109.83050847457628,16.183999999999997C110.84745762711864,15.878666666666666,111.86440677966102,15.62844444444445,112.88135593220339,15.589333333333336C113.89830508474576,15.550222222222223,114.91525423728814,15.530666666666665,115.9322033898305,15.530666666666665C116.94915254237289,15.530666666666665,117.96610169491525,15.53422222222222,118.98305084745763,15.54133333333333C120,15.54844444444444,121.01694915254237,16.176,122.03389830508473,16.176C123.05084745762711,16.176,124.0677966101695,15.418666666666665,125.08474576271188,15.418666666666665C126.10169491525424,15.418666666666665,127.11864406779662,15.606666666666666,128.135593220339,15.677333333333333C129.15254237288136,15.748,130.16949152542372,15.80311111111111,131.1864406779661,15.842666666666666C132.20338983050846,15.882222222222223,133.22033898305085,15.914666666666669,134.23728813559322,15.914666666666669C135.25423728813558,15.914666666666669,136.27118644067798,15.024000000000001,137.28813559322035,15.024000000000001C138.3050847457627,15.024000000000001,139.3220338983051,15.709333333333335,140.33898305084747,15.709333333333335C141.35593220338984,15.709333333333335,142.3728813559322,14.345777777777773,143.38983050847457,13.594666666666665C144.40677966101694,12.84355555555555,145.42372881355934,12.052000000000005,146.4406779661017,11.202666666666667C147.45762711864407,10.353333333333339,148.47457627118644,9.154222222222224,149.4915254237288,8.498666666666669C150.50847457627117,7.843111111111107,151.52542372881356,7.269333333333332,152.54237288135593,7.269333333333332C153.5593220338983,7.269333333333332,154.5762711864407,7.446666666666666,155.59322033898306,7.6480000000000015C156.61016949152543,7.849333333333335,157.6271186440678,8.44711111111111,158.64406779661016,8.477333333333332C159.66101694915253,8.507555555555555,160.67796610169492,8.492444444444443,161.6949152542373,8.522666666666666C162.71186440677965,8.552888888888889,163.72881355932205,9.435999999999993,164.74576271186442,10.050666666666665C165.76271186440678,10.66533333333333,166.77966101694915,11.53066666666667,167.79661016949152,12.210666666666668C168.81355932203388,12.890666666666672,169.83050847457628,13.743111111111109,170.84745762711864,14.130666666666665C171.864406779661,14.51822222222222,172.8813559322034,14.712,173.89830508474577,14.712C174.91525423728814,14.712,175.93220338983053,13.392000000000001,176.9491525423729,12.981333333333334C177.96610169491527,12.570666666666671,178.98305084745763,12.409333333333336,180,12.248000000000001L180,40C178.98305084745763,40,177.96610169491527,40,176.9491525423729,40C175.93220338983053,40,174.91525423728814,40,173.89830508474577,40C172.8813559322034,40,171.864406779661,40,170.84745762711864,40C169.83050847457628,40,168.81355932203388,40,167.79661016949152,40C166.77966101694915,40,165.76271186440678,40,164.74576271186442,40C163.72881355932205,40,162.71186440677965,40,161.6949152542373,40C160.67796610169492,40,159.66101694915253,40,158.64406779661016,40C157.6271186440678,40,156.61016949152543,40,155.59322033898306,40C154.5762711864407,40,153.5593220338983,40,152.54237288135593,40C151.52542372881356,40,150.50847457627117,40,149.4915254237288,40C148.47457627118644,40,147.45762711864407,40,146.4406779661017,40C145.42372881355934,40,144.40677966101694,40,143.38983050847457,40C142.3728813559322,40,141.35593220338984,40,140.33898305084747,40C139.3220338983051,40,138.3050847457627,40,137.28813559322035,40C136.27118644067798,40,135.25423728813558,40,134.23728813559322,40C133.22033898305085,40,132.20338983050846,40,131.1864406779661,40C130.16949152542372,40,129.15254237288136,40,128.135593220339,40C127.11864406779662,40,126.10169491525424,40,125.08474576271188,40C124.0677966101695,40,123.05084745762711,40,122.03389830508473,40C121.01694915254237,40,120,40,118.98305084745763,40C117.96610169491525,40,116.94915254237289,40,115.9322033898305,40C114.91525423728814,40,113.89830508474576,40,112.88135593220339,40C111.86440677966102,40,110.84745762711864,40,109.83050847457628,40C108.8135593220339,40,107.79661016949153,40,106.77966101694915,40C105.76271186440678,40,104.7457627118644,40,103.72881355932203,40C102.71186440677965,40,101.69491525423729,40,100.6779661016949,40C99.66101694915254,40,98.64406779661016,40,97.62711864406779,40C96.61016949152543,40,95.59322033898306,40,94.57627118644069,40C93.55932203389831,40,92.54237288135593,40,91.52542372881355,40C90.50847457627118,40,89.49152542372882,40,88.47457627118645,40C87.45762711864407,40,86.4406779661017,40,85.42372881355932,40C84.40677966101696,40,83.38983050847457,40,82.37288135593221,40C81.35593220338983,40,80.33898305084746,40,79.32203389830508,40C78.30508474576271,40,77.28813559322033,40,76.27118644067797,40C75.2542372881356,40,74.23728813559322,40,73.22033898305085,40C72.20338983050848,40,71.1864406779661,40,70.16949152542374,40C69.15254237288136,40,68.13559322033899,40,67.11864406779661,40C66.10169491525424,40,65.08474576271186,40,64.0677966101695,40C63.05084745762712,40,62.03389830508474,40,61.01694915254237,40C59.99999999999999,40,58.983050847457626,40,57.96610169491525,40C56.94915254237288,40,55.93220338983051,40,54.91525423728814,40C53.898305084745765,40,52.88135593220339,40,51.86440677966102,40C50.847457627118644,40,49.83050847457627,40,48.813559322033896,40C47.79661016949152,40,46.77966101694915,40,45.762711864406775,40C44.7457627118644,40,43.728813559322035,40,42.71186440677966,40C41.69491525423729,40,40.67796610169491,40,39.66101694915254,40C38.644067796610166,40,37.6271186440678,40,36.610169491525426,40C35.59322033898305,40,34.57627118644068,40,33.559322033898304,40C32.54237288135593,40,31.525423728813557,40,30.508474576271183,40C29.491525423728813,40,28.47457627118644,40,27.45762711864407,40C26.440677966101696,40,25.423728813559322,40,24.406779661016948,40C23.389830508474574,40,22.372881355932204,40,21.35593220338983,40C20.338983050847457,40,19.322033898305087,40,18.305084745762713,40C17.28813559322034,40,16.271186440677965,40,15.254237288135592,40C14.23728813559322,40,13.220338983050846,40,12.203389830508474,40C11.186440677966102,40,10.169491525423728,40,9.152542372881356,40C8.135593220338983,40,7.11864406779661,40,6.101694915254237,40C5.084745762711864,40,4.067796610169491,40,3.0508474576271185,40C2.0338983050847457,40,1.0169491525423728,40,0,40Z"></path><path class="line" stroke="black" fill="none" d="M0,4.039999999999999C1.0169491525423728,3.8773333333333326,2.0338983050847457,3.714666666666666,3.0508474576271185,3.714666666666666C4.067796610169491,3.714666666666666,5.084745762711864,3.9422222222222203,6.101694915254237,4.127999999999998C7.11864406779661,4.313777777777776,8.135593220338983,4.829333333333334,9.152542372881356,4.829333333333334C10.169491525423728,4.829333333333334,11.186440677966102,3.4915555555555535,12.203389830508474,3.0426666666666646C13.220338983050846,2.5937777777777757,14.23728813559322,2.136,15.254237288135592,2.136C16.271186440677965,2.136,17.28813559322034,2.6239999999999997,18.305084745762713,2.6239999999999997C19.322033898305087,2.6239999999999997,20.338983050847457,2.4715555555555566,21.35593220338983,2.368000000000001C22.372881355932204,2.264444444444446,23.389830508474574,2.002666666666668,24.406779661016948,2.002666666666668C25.423728813559322,2.002666666666668,26.440677966101696,3.0515555555555585,27.45762711864407,3.0906666666666682C28.47457627118644,3.129777777777778,29.491525423728813,3.110222222222223,30.508474576271183,3.149333333333333C31.525423728813557,3.1884444444444426,32.54237288135593,4.175999999999998,33.559322033898304,4.490666666666665C34.57627118644068,4.805333333333332,35.59322033898305,4.868888888888889,36.610169491525426,5.037333333333334C37.6271186440678,5.205777777777778,38.644067796610166,5.501333333333331,39.66101694915254,5.501333333333331C40.67796610169491,5.501333333333331,41.69491525423729,5.290666666666666,42.71186440677966,5.290666666666666C43.728813559322035,5.290666666666666,44.7457627118644,6.643555555555557,45.762711864406775,7.040000000000002C46.77966101694915,7.436444444444447,47.79661016949152,7.306666666666666,48.813559322033896,7.6693333333333324C49.83050847457627,8.031999999999998,50.847457627118644,8.83288888888889,51.86440677966102,9.216000000000001C52.88135593220339,9.599111111111112,53.898305084745765,9.729333333333333,54.91525423728814,9.968C55.93220338983051,10.206666666666665,56.94915254237288,10.621333333333334,57.96610169491525,10.648C58.983050847457626,10.674666666666665,59.99999999999999,10.661333333333333,61.01694915254237,10.687999999999999C62.03389830508474,10.714666666666664,63.05084745762712,12.596444444444444,64.0677966101695,12.770666666666667C65.08474576271186,12.944888888888888,66.10169491525424,12.890222222222222,67.11864406779661,13.032C68.13559322033899,13.173777777777778,69.15254237288136,13.621333333333334,70.16949152542374,13.621333333333334C71.1864406779661,13.621333333333334,72.20338983050848,13.034666666666666,73.22033898305085,13.034666666666666C74.23728813559322,13.034666666666666,75.2542372881356,13.175111111111113,76.27118644067797,13.373333333333335C77.28813559322033,13.571555555555557,78.30508474576271,13.941777777777778,79.32203389830508,14.224C80.33898305084746,14.506222222222224,81.35593220338983,14.75288888888889,82.37288135593221,15.066666666666668C83.38983050847457,15.380444444444445,84.40677966101696,15.732444444444445,85.42372881355932,16.106666666666666C86.4406779661017,16.480888888888888,87.45762711864407,17.040888888888887,88.47457627118645,17.311999999999998C89.49152542372882,17.583111111111105,90.50847457627118,17.579111111111114,91.52542372881355,17.733333333333334C92.54237288135593,17.887555555555558,93.55932203389831,18.19822222222222,94.57627118644069,18.237333333333332C95.59322033898306,18.276444444444444,96.61016949152543,18.296,97.62711864406779,18.296C98.64406779661016,18.296,99.66101694915254,18.08,100.6779661016949,18.08C101.69491525423729,18.08,102.71186440677965,18.136000000000003,103.72881355932203,18.136000000000003C104.7457627118644,18.136000000000003,105.76271186440678,17.746666666666666,106.77966101694915,17.421333333333333C107.79661016949153,17.096,108.8135593220339,16.48933333333333,109.83050847457628,16.183999999999997C110.84745762711864,15.878666666666666,111.86440677966102,15.62844444444445,112.88135593220339,15.589333333333336C113.89830508474576,15.550222222222223,114.91525423728814,15.530666666666665,115.9322033898305,15.530666666666665C116.94915254237289,15.530666666666665,117.96610169491525,15.53422222222222,118.98305084745763,15.54133333333333C120,15.54844444444444,121.01694915254237,16.176,122.03389830508473,16.176C123.05084745762711,16.176,124.0677966101695,15.418666666666665,125.08474576271188,15.418666666666665C126.10169491525424,15.418666666666665,127.11864406779662,15.606666666666666,128.135593220339,15.677333333333333C129.15254237288136,15.748,130.16949152542372,15.80311111111111,131.1864406779661,15.842666666666666C132.20338983050846,15.882222222222223,133.22033898305085,15.914666666666669,134.23728813559322,15.914666666666669C135.25423728813558,15.914666666666669,136.27118644067798,15.024000000000001,137.28813559322035,15.024000000000001C138.3050847457627,15.024000000000001,139.3220338983051,15.709333333333335,140.33898305084747,15.709333333333335C141.35593220338984,15.709333333333335,142.3728813559322,14.345777777777773,143.38983050847457,13.594666666666665C144.40677966101694,12.84355555555555,145.42372881355934,12.052000000000005,146.4406779661017,11.202666666666667C147.45762711864407,10.353333333333339,148.47457627118644,9.154222222222224,149.4915254237288,8.498666666666669C150.50847457627117,7.843111111111107,151.52542372881356,7.269333333333332,152.54237288135593,7.269333333333332C153.5593220338983,7.269333333333332,154.5762711864407,7.446666666666666,155.59322033898306,7.6480000000000015C156.61016949152543,7.849333333333335,157.6271186440678,8.44711111111111,158.64406779661016,8.477333333333332C159.66101694915253,8.507555555555555,160.67796610169492,8.492444444444443,161.6949152542373,8.522666666666666C162.71186440677965,8.552888888888889,163.72881355932205,9.435999999999993,164.74576271186442,10.050666666666665C165.76271186440678,10.66533333333333,166.77966101694915,11.53066666666667,167.79661016949152,12.210666666666668C168.81355932203388,12.890666666666672,169.83050847457628,13.743111111111109,170.84745762711864,14.130666666666665C171.864406779661,14.51822222222222,172.8813559322034,14.712,173.89830508474577,14.712C174.91525423728814,14.712,175.93220338983053,13.392000000000001,176.9491525423729,12.981333333333334C177.96610169491527,12.570666666666671,178.98305084745763,12.409333333333336,180,12.248000000000001"></path><path class="axis-ceiling" stroke-width="1" stroke="black" fill="none" d="M175,0L180,0"></path><text class="axis-ceiling-label" font-family="sans-serif" text-anchor="end" font-size="10px" x="170" y="2.5">15000</text></g></svg>