<svg xmlns="http://www.w3.org/2000/svg" viewBox="0 0 180 60"><g transform="translate(0,20)"><path class="area" fill="rgba(0, 0, 0, 0.2)" d="M0,39.7988C0.8695652173913043,39.77292444444444,1.7391304347826089,39.74704888888889,2.608695652173913,39.7172C6.9565217391304355,39.56795555555555,11.304347826086957,39.0708,15.652173913043478,39.0708C17.391304347826086,39.0708,19.130434782608695,39.20413333333333,20.869565217391305,39.342C21.73913043478261,39.41093333333333,22.60869565217391,39.5112,23.478260869565215,39.5844C24.34782608695652,39.6576,25.217391304347828,39.7812,26.086956521739133,39.7812C27.826086956521742,39.7812,29.565217391304348,39.747600000000006,31.304347826086957,39.739200000000004C32.17391304347826,39.73500000000001,33.04347826086956,39.7308,33.91304347826087,39.7308C34.78260869565217,39.7308,35.65217391304348,39.852,36.52173913043478,39.852C37.391304347826086,39.852,38.26086956521739,39.846133333333334,39.130434782608695,39.8344C42.608695652173914,39.78746666666668,46.08695652173913,38.7368,49.56521739130435,38.7368C51.30434782608696,38.7368,53.04347826086957,39.24702222222223,54.78260869565218,39.4928C55.65217391304348,39.61568888888889,56.52173913043478,39.82933333333334,57.39130434782608,39.8568C58.260869565217384,39.88426666666666,59.130434782608695,39.897999999999996,60,39.897999999999996C60.869565217391305,39.897999999999996,61.73913043478261,39.7592,62.608695652173914,39.7592C63.47826086956522,39.7592,64.34782608695653,39.8136,65.21739130434783,39.8136C66.08695652173913,39.8136,66.95652173913044,39.72691111111111,67.82608695652173,39.693999999999996C69.56521739130434,39.62817777777777,71.30434782608695,39.58,73.04347826086956,39.58C73.91304347826086,39.58,74.78260869565217,39.7944,75.65217391304347,39.7984C76.52173913043478,39.8024,77.39130434782608,39.8044,78.26086956521739,39.8044C79.13043478260869,39.8044,80,39.77846666666667,80.8695652173913,39.7424C81.73913043478261,39.70633333333333,82.6086956521739,39.588,83.47826086956522,39.588C84.34782608695653,39.588,85.21739130434783,39.670399999999994,86.08695652173914,39.672C86.95652173913044,39.6736,87.82608695652175,39.6744,88.69565217391305,39.6744C89.56521739130436,39.6744,90.43478260869566,39.272800000000004,91.30434782608697,39.272800000000004C92.17391304347827,39.272800000000004,93.04347826086956,39.2952,93.91304347826086,39.2952C94.78260869565217,39.2952,95.65217391304348,35.2532,96.5217391304348,35.2532C97.3913043478261,35.2532,98.2608695652174,37.1676,99.1304347826087,37.1676C100,37.1676,100.8695652173913,36.306400000000004,101.7391304347826,36.306400000000004C102.6086956521739,36.306400000000004,103.47826086956522,37.692800000000005,104.34782608695653,37.692800000000005C105.21739130434783,37.692800000000005,106.08695652173914,33.010799999999996,106.95652173913044,33.010799999999996C107.82608695652175,33.010799999999996,108.69565217391305,35.4128,109.56521739130436,35.4128C110.43478260869566,35.4128,111.30434782608697,30.437599999999996,112.17391304347827,30.437599999999996C113.04347826086956,30.437599999999996,113.91304347826086,34.708800000000004,114.78260869565216,34.708800000000004C115.65217391304347,34.708800000000004,116.52173913043478,24.153599999999997,117.3913043478261,24.153599999999997C118.26086956521739,24.153599999999997,119.1304347826087,27.95266666666667,120,28.1508C120.86956521739131,28.348933333333335,121.73913043478261,28.249866666666666,122.60869565217392,28.448C123.47826086956522,28.64613333333333,124.34782608695653,30.8572,125.21739130434783,31.173199999999998C126.08695652173914,31.489199999999997,126.95652173913044,31.647199999999998,127.82608695652175,31.647199999999998C128.69565217391306,31.647199999999998,129.56521739130434,29.714,130.43478260869566,29.714C131.30434782608697,29.714,132.17391304347825,29.824133333333332,133.04347826086956,30.044399999999996C133.91304347826087,30.26466666666666,134.78260869565216,33.3904,135.65217391304347,33.3904C136.52173913043478,33.3904,137.39130434782606,32.9596,138.26086956521738,32.098C139.1304347826087,31.23639999999999,140,19.368333333333336,140.8695652173913,15.5016C141.73913043478262,11.634866666666705,142.6086956521739,8.897599999999999,143.47826086956522,8.897599999999999C144.34782608695653,8.897599999999999,145.2173913043478,18.508266666666664,146.08695652173913,20.9672C146.95652173913044,23.426133333333333,147.82608695652172,24.6556,148.69565217391303,24.6556C149.56521739130434,24.6556,150.43478260869563,18.0932,151.30434782608694,18.0932C152.17391304347825,18.0932,153.04347826086956,28.89679999999999,153.91304347826087,29.6224C154.7826086956522,30.348000000000003,155.65217391304347,30.710800000000003,156.52173913043478,30.710800000000003C157.3913043478261,30.710800000000003,158.2608695652174,30.320800000000002,159.13043478260872,30.320800000000002C160,30.320800000000002,160.8695652173913,30.43746666666667,161.7391304347826,30.6708C162.6086956521739,30.904133333333334,163.4782608695652,36.2464,164.3478260869565,36.2464C165.2173913043478,36.2464,166.08695652173913,35.06326666666667,166.95652173913044,34.6156C167.82608695652175,34.16793333333334,168.69565217391303,33.5604,169.56521739130434,33.5604C170.43478260869566,33.5604,171.30434782608697,34.870799999999996,172.17391304347828,34.8908C173.04347826086956,34.9108,173.91304347826087,34.9208,174.78260869565216,34.9208C175.65217391304347,34.9208,176.52173913043478,33.8952,177.3913043478261,33.8952C178.2608695652174,33.8952,179.1304347826087,35.2644,180,36.6336L180,40C179.1304347826087,40,178.2608695652174,40,177.3913043478261,40C176.52173913043478,40,175.65217391304347,40,174.78260869565216,40C173.91304347826087,40,173.04347826086956,40,172.17391304347828,40C171.30434782608697,40,170.43478260869566,40,169.56521739130434,40C168.69565217391303,40,167.82608695652175,40,166.95652173913044,40C166.08695652173913,40,165.2173913043478,40,164.3478260869565,40C163.4782608695652,40,162.6086956521739,40,161.7391304347826,40C160.8695652173913,40,160,40,159.13043478260872,40C158.2608695652174,40,157.3913043478261,40,156.52173913043478,40C155.65217391304347,40,154.7826086956522,40,153.91304347826087,40C153.04347826086956,40,152.17391304347825,40,151.30434782608694,40C150.43478260869563,40,149.56521739130434,40,148.69565217391303,40C147.82608695652172,40,146.95652173913044,40,146.08695652173913,40C145.2173913043478,40,144.34782608695653,40,143.47826086956522,40C142.6086956521739,40,141.73913043478262,40,140.8695652173913,40C140,40,139.1304347826087,40,138.26086956521738,40C137.39130434782606,40,136.52173913043478,40,135.65217391304347,40C134.78260869565216,40,133.91304347826087,40,133.04347826086956,40C132.17391304347825,40,131.30434782608697,40,130.43478260869566,40C129.56521739130434,40,128.69565217391306,40,127.82608695652175,40C126.95652173913044,40,126.08695652173914,40,125.21739130434783,40C124.34782608695653,40,123.47826086956522,40,122.60869565217392,40C121.73913043478261,40,120.86956521739131,40,120,40C119.1304347826087,40,118.26086956521739,40,117.3913043478261,40C116.52173913043478,40,115.65217391304347,40,114.78260869565216,40C113.91304347826086,40,113.04347826086956,40,112.17391304347827,40C111.30434782608697,40,110.43478260869566,40,109.56521739130436,40C108.69565217391305,40,107.82608695652175,40,106.95652173913044,40C106.08695652173914,40,105.21739130434783,40,104.34782608695653,40C103.47826086956522,40,102.6086956521739,40,101.7391304347826,40C100.8695652173913,40,100,40,99.1304347826087,40C98.2608695652174,40,97.3913043478261,40,96.5217391304348,40C95.65217391304348,40,94.78260869565217,40,93.91304347826086,40C93.04347826086956,40,92.17391304347827,40,91.30434782608697,40C90.43478260869566,40,89.56521739130436,40,88.69565217391305,40C87.82608695652175,40,86.95652173913044,40,86.08695652173914,40C85.21739130434783,40,84.34782608695653,40,83.47826086956522,40C82.6086956521739,40,81.73913043478261,40,80.8695652173913,40C80,40,79.13043478260869,40,78.26086956521739,40C77.39130434782608,40,76.52173913043478,40,75.65217391304347,40C74.78260869565217,40,73.91304347826086,40,73.04347826086956,40C71.30434782608695,40,69.56521739130434,40,67.82608695652173,40C66.95652173913044,40,66.08695652173913,40,65.21739130434783,40C64.34782608695653,40,63.47826086956522,40,62.608695652173914,40C61.73913043478261,40,60.869565217391305,40,60,40C59.130434782608695,40,58.260869565217384,40,57.39130434782608,40C56.52173913043478,40,55.65217391304348,40,54.78260869565218,40C53.04347826086957,40,51.30434782608696,40,49.56521739130435,40C46.08695652173913,40,42.608695652173914,40,39.130434782608695,40C38.26086956521739,40,37.391304347826086,40,36.52173913043478,40C35.65217391304348,40,34.78260869565217,40,33.91304347826087,40C33.04347826086956,40,32.17391304347826,40,31.304347826086957,40C29.565217391304348,40,27.826086956521742,40,26.086956521739133,40C25.217391304347828,40,24.34782608695652,40,23.478260869565215,40C22.60869565217391,40,21.73913043478261,40,20.869565217391305,40C19.130434782608695,40,17.391304347826086,40,15.652173913043478,40C11.304347826086957,40,6.9565217391304355,40,2.608695652173913,40C1.7391304347826089,40,0.8695652173913043,40,0,40Z"></path><path class="line" stroke="black" fill="none" d="M0,39.7988C0.8695652173913043,39.77292444444444,1.7391304347826089,39.74704888888889,2.608695652173913,39.7172C6.9565217391304355,39.56795555555555,11.304347826086957,39.0708,15.652173913043478,39.0708C17.391304347826086,39.0708,19.130434782608695,39.20413333333333,20.869565217391305,39.342C21.73913043478261,39.41093333333333,22.60869565217391,39.5112,23.478260869565215,39.5844C24.34782608695652,39.6576,25.217391304347828,39.7812,26.086956521739133,39.7812C27.826086956521742,39.7812,29.565217391304348,39.747600000000006,31.304347826086957,39.739200000000004C32.17391304347826,39.73500000000001,33.04347826086956,39.7308,33.91304347826087,39.7308C34.78260869565217,39.7308,35.65217391304348,39.852,36.52173913043478,39.852C37.391304347826086,39.852,38.26086956521739,39.846133333333334,39.130434782608695,39.8344C42.608695652173914,39.78746666666668,46.08695652173913,38.7368,49.56521739130435,38.7368C51.30434782608696,38.7368,53.04347826086957,39.24702222222223,54.78260869565218,39.4928C55.65217391304348,39.61568888888889,56.52173913043478,39.82933333333334,57.39130434782608,39.8568C58.260869565217384,39.88426666666666,59.130434782608695,39.897999999999996,60,39.897999999999996C60.869565217391305,39.897999999999996,61.73913043478261,39.7592,62.608695652173914,39.7592C63.47826086956522,39.7592,64.34782608695653,39.8136,65.21739130434783,39.8136C66.08695652173913,39.8136,66.95652173913044,39.72691111111111,67.82608695652173,39.693999999999996C69.56521739130434,39.62817777777777,71.30434782608695,39.58,73.04347826086956,39.58C73.91304347826086,39.58,74.78260869565217,39.7944,75.65217391304347,39.7984C76.52173913043478,39.8024,77.39130434782608,39.8044,78.26086956521739,39.8044C79.13043478260869,39.8044,80,39.77846666666667,80.8695652173913,39.7424C81.73913043478261,39.70633333333333,82.6086956521739,39.588,83.47826086956522,39.588C84.34782608695653,39.588,85.21739130434783,39.670399999999994,86.08695652173914,39.672C86.95652173913044,39.6736,87.82608695652175,39.6744,88.69565217391305,39.6744C89.56521739130436,39.6744,90.43478260869566,39.272800000000004,91.30434782608697,39.272800000000004C92.17391304347827,39.272800000000004,93.04347826086956,39.2952,93.91304347826086,39.2952C94.78260869565217,39.2952,95.65217391304348,35.2532,96.5217391304348,35.2532C97.3913043478261,35.2532,98.2608695652174,37.1676,99.1304347826087,37.1676C100,37.1676,100.8695652173913,36.306400000000004,101.7391304347826,36.306400000000004C102.6086956521739,36.306400000000004,103.47826086956522,37.692800000000005,104.34782608695653,37.692800000000005C105.21739130434783,37.692800000000005,106.08695652173914,33.010799999999996,106.95652173913044,33.010799999999996C107.82608695652175,33.010799999999996,108.69565217391305,35.4128,109.56521739130436,35.4128C110.43478260869566,35.4128,111.30434782608697,30.437599999999996,112.17391304347827,30.437599999999996C113.04347826086956,30.437599999999996,113.91304347826086,34.708800000000004,114.78260869565216,34.708800000000004C115.65217391304347,34.708800000000004,116.52173913043478,24.153599999999997,117.3913043478261,24.153599999999997C118.26086956521739,24.153599999999997,119.1304347826087,27.95266666666667,120,28.1508C120.86956521739131,28.348933333333335,121.73913043478261,28.249866666666666,122.60869565217392,28.448C123.47826086956522,28.64613333333333,124.34782608695653,30.8572,125.21739130434783,31.173199999999998C126.08695652173914,31.489199999999997,126.95652173913044,31.647199999999998,127.82608695652175,31.647199999999998C128.69565217391306,31.647199999999998,129.56521739130434,29.714,130.43478260869566,29.714C131.30434782608697,29.714,132.17391304347825,29.824133333333332,133.04347826086956,30.044399999999996C133.91304347826087,30.26466666666666,134.78260869565216,33.3904,135.65217391304347,33.3904C136.52173913043478,33.3904,137.39130434782606,32.9596,138.26086956521738,32.098C139.1304347826087,31.23639999999999,140,19.368333333333336,140.8695652173913,15.5016C141.73913043478262,11.634866666666705,142.6086956521739,8.897599999999999,143.47826086956522,8.897599999999999C144.34782608695653,8.897599999999999,145.2173913043478,18.508266666666664,146.08695652173913,20.9672C146.95652173913044,23.426133333333333,147.82608695652172,24.6556,148.69565217391303,24.6556C149.56521739130434,24.6556,150.43478260869563,18.0932,151.30434782608694,18.0932C152.17391304347825,18.0932,153.04347826086956,28.89679999999999,153.91304347826087,29.6224C154.7826086956522,30.348000000000003,155.65217391304347,30.710800000000003,156.52173913043478,30.710800000000003C157.3913043478261,30.710800000000003,158.2608695652174,30.320800000000002,159.13043478260872,30.320800000000002C160,30.320800000000002,160.8695652173913,30.43746666666667,161.7391304347826,30.6708C162.6086956521739,30.904133333333334,163.4782608695652,36.2464,164.3478260869565,36.2464C165.2173913043478,36.2464,166.08695652173913,35.06326666666667,166.95652173913044,34.6156C167.82608695652175,34.16793333333334,168.69565217391303,33.5604,169.56521739130434,33.5604C170.43478260869566,33.5604,171.30434782608697,34.870799999999996,172.17391304347828,34.8908C173.04347826086956,34.9108,173.91304347826087,34.9208,174.78260869565216,34.9208C175.65217391304347,34.9208,176.52173913043478,33.8952,177.3913043478261,33.8952C178.2608695652174,33.8952,179.1304347826087,35.2644,180,36.6336"></path><path class="axis-ceiling" stroke-width="1" stroke="black" fill="none" d="M175,0L180,0"></path><text class="axis-ceiling-label" font-family="sans-serif" text-anchor="end" font-size="10px" x="170" y="2.5">100000</text></g></svg>