<svg xmlns="http://www.w3.org/2000/svg" viewBox="0 0 180 60"><g transform="translate(0,20)"><path class="area" fill="rgba(0, 0, 0, 0.2)" d="M0,28.4972C1.0169491525423728,28.498733333333334,2.0338983050847457,28.50026666666667,3.0508474576271185,28.506400000000003C4.067796610169491,28.512533333333337,5.084745762711864,28.7728,6.101694915254237,28.8612C7.11864406779661,28.9496,8.135593220338983,28.941066666666668,9.152542372881356,29.0368C10.169491525423728,29.13253333333333,11.186440677966102,29.377466666666663,12.203389830508474,29.435599999999997C13.220338983050846,29.49373333333333,14.23728813559322,29.475066666666667,15.254237288135592,29.5228C16.271186440677965,29.570533333333334,17.28813559322034,29.671533333333333,18.305084745762713,29.722C19.322033898305087,29.772466666666666,20.338983050847457,29.762600000000003,21.35593220338983,29.8256C22.372881355932204,29.8886,23.389830508474574,30.099999999999998,24.406779661016948,30.099999999999998C25.423728813559322,30.099999999999998,26.440677966101696,30.042,27.45762711864407,30.042C28.47457627118644,30.042,29.491525423728813,30.050400000000003,30.508474576271183,30.050400000000003C31.525423728813557,30.050400000000003,32.54237288135593,30.0162,33.559322033898304,29.998C34.57627118644068,29.9798,35.59322033898305,29.941199999999995,36.610169491525426,29.941199999999995C37.6271186440678,29.941199999999995,38.644067796610166,30.0068,39.66101694915254,30.0068C40.67796610169491,30.0068,41.69491525423729,29.901333333333334,42.71186440677966,29.8936C43.728813559322035,29.885866666666665,44.7457627118644,29.889733333333332,45.762711864406775,29.881999999999998C46.77966101694915,29.874266666666664,47.79661016949152,29.6142,48.813559322033896,29.4584C49.83050847457627,29.3026,50.847457627118644,29.018666666666665,51.86440677966102,28.9472C52.88135593220339,28.875733333333333,53.898305084745765,28.911466666666666,54.91525423728814,28.84C55.93220338983051,28.768533333333334,56.94915254237288,28.40853333333333,57.96610169491525,28.264C58.983050847457626,28.119466666666668,59.99999999999999,28.1088,61.01694915254237,27.9728C62.03389830508474,27.8368,63.05084745762712,27.797866666666664,64.0677966101695,27.447999999999997C65.08474576271186,27.09813333333333,66.10169491525424,26.341,67.11864406779661,25.830000000000002C68.13559322033899,25.319000000000003,69.15254237288136,24.71366666666667,70.16949152542374,24.382C71.1864406779661,24.050333333333334,72.20338983050848,24.201333333333334,73.22033898305085,23.84C74.23728813559322,23.478666666666665,75.2542372881356,21.770800000000005,76.27118644067797,21.086400000000005C77.28813559322033,20.402000000000005,78.30508474576271,20.39553333333333,79.32203389830508,19.7336C80.33898305084746,19.071666666666665,81.35593220338983,17.886333333333333,82.37288135593221,17.1148C83.38983050847457,16.34326666666667,84.40677966101696,15.681399999999998,85.42372881355932,15.1044C86.4406779661017,14.527399999999998,87.45762711864407,14.201733333333335,88.47457627118645,13.6528C89.49152542372882,13.103866666666669,90.50847457627118,12.60486666666666,91.52542372881355,11.8108C92.54237288135593,11.016733333333331,93.55932203389831,9.538933333333334,94.57627118644069,8.8884C95.59322033898306,8.237866666666676,96.61016949152543,8.100933333333334,97.62711864406779,7.907600000000001C98.64406779661016,7.714266666666669,99.66101694915254,7.718133333333335,100.6779661016949,7.617600000000002C101.69491525423729,7.517066666666668,102.71186440677965,7.513200000000002,103.72881355932203,7.304400000000002C104.7457627118644,7.095600000000003,105.76271186440678,4.955599999999998,106.77966101694915,4.955599999999998C107.79661016949153,4.955599999999998,108.8135593220339,5.119066666666665,109.83050847457628,5.446C110.84745762711864,5.772933333333333,111.86440677966102,7.195066666666669,112.88135593220339,8.288000000000002C113.89830508474576,9.380933333333335,114.91525423728814,10.668600000000003,115.9322033898305,12.003599999999999C116.94915254237289,13.338600000000001,117.96610169491525,15.203599999999996,118.98305084745763,16.298C120,17.39239999999999,121.01694915254237,17.644333333333343,122.03389830508473,18.57C123.05084745762711,19.495666666666672,124.0677966101695,20.567933333333325,125.08474576271188,21.852C126.10169491525424,23.13606666666666,127.11864406779662,25.1494,128.135593220339,26.2744C129.15254237288136,27.399399999999996,130.16949152542372,28.511066666666665,131.1864406779661,28.601999999999997C132.20338983050846,28.692933333333333,133.22033898305085,28.7384,134.23728813559322,28.7384C135.25423728813558,28.7384,136.27118644067798,28.2308,137.28813559322035,27.9544C138.3050847457627,27.678,139.3220338983051,27.406800000000004,140.33898305084747,27.080000000000002C141.35593220338984,26.753200000000003,142.3728813559322,26.273400000000002,143.38983050847457,25.9936C144.40677966101694,25.7138,145.42372881355934,25.5342,146.4406779661017,25.4012C147.45762711864407,25.2682,148.47457627118644,25.195600000000002,149.4915254237288,25.195600000000002C150.50847457627117,25.195600000000002,151.52542372881356,25.900333333333332,152.54237288135593,26.1376C153.5593220338983,26.374866666666666,154.5762711864407,26.497933333333336,155.59322033898306,26.619200000000003C156.61016949152543,26.74046666666667,157.6271186440678,26.865199999999998,158.64406779661016,26.865199999999998C159.66101694915253,26.865199999999998,160.67796610169492,26.768,161.6949152542373,26.768C162.71186440677965,26.768,163.72881355932205,27.63,164.74576271186442,27.63C165.76271186440678,27.63,166.77966101694915,27.416400000000003,167.79661016949152,27.416400000000003C168.81355932203388,27.416400000000003,169.83050847457628,27.512,170.84745762711864,27.512C171.864406779661,27.512,172.8813559322034,27.075199999999995,173.89830508474577,27.075199999999995C174.91525423728814,27.075199999999995,175.93220338983053,27.095199999999995,176.9491525423729,27.135199999999998C177.96610169491527,27.1752,178.98305084745763,28.281,180,29.386799999999997L180,40C178.98305084745763,40,177.96610169491527,40,176.9491525423729,40C175.93220338983053,40,174.91525423728814,40,173.89830508474577,40C172.8813559322034,40,171.864406779661,40,170.84745762711864,40C169.83050847457628,40,168.81355932203388,40,167.79661016949152,40C166.77966101694915,40,165.76271186440678,40,164.74576271186442,40C163.72881355932205,40,162.71186440677965,40,161.6949152542373,40C160.67796610169492,40,159.66101694915253,40,158.64406779661016,40C157.6271186440678,40,156.61016949152543,40,155.59322033898306,40C154.5762711864407,40,153.5593220338983,40,152.54237288135593,40C151.52542372881356,40,150.50847457627117,40,149.4915254237288,40C148.47457627118644,40,147.45762711864407,40,146.4406779661017,40C145.42372881355934,40,144.40677966101694,40,143.38983050847457,40C142.3728813559322,40,141.35593220338984,40,140.33898305084747,40C139.3220338983051,40,138.3050847457627,40,137.28813559322035,40C136.27118644067798,40,135.25423728813558,40,134.23728813559322,40C133.22033898305085,40,132.20338983050846,40,131.1864406779661,40C130.16949152542372,40,129.15254237288136,40,128.135593220339,40C127.11864406779662,40,126.10169491525424,40,125.08474576271188,40C124.0677966101695,40,123.05084745762711,40,122.03389830508473,40C121.01694915254237,40,120,40,118.98305084745763,40C117.96610169491525,40,116.94915254237289,40,115.9322033898305,40C114.91525423728814,40,113.89830508474576,40,112.88135593220339,40C111.86440677966102,40,110.84745762711864,40,109.83050847457628,40C108.8135593220339,40,107.79661016949153,40,106.77966101694915,40C105.76271186440678,40,104.7457627118644,40,103.72881355932203,40C102.71186440677965,40,101.69491525423729,40,100.6779661016949,40C99.66101694915254,40,98.64406779661016,40,97.62711864406779,40C96.61016949152543,40,95.59322033898306,40,94.57627118644069,40C93.55932203389831,40,92.54237288135593,40,91.52542372881355,40C90.50847457627118,40,89.49152542372882,40,88.47457627118645,40C87.45762711864407,40,86.4406779661017,40,85.42372881355932,40C84.40677966101696,40,83.38983050847457,40,82.37288135593221,40C81.35593220338983,40,80.33898305084746,40,79.32203389830508,40C78.30508474576271,40,77.28813559322033,40,76.27118644067797,40C75.2542372881356,40,74.23728813559322,40,73.22033898305085,40C72.20338983050848,40,71.1864406779661,40,70.16949152542374,40C69.15254237288136,40,68.13559322033899,40,67.11864406779661,40C66.10169491525424,40,65.08474576271186,40,64.0677966101695,40C63.05084745762712,40,62.03389830508474,40,61.01694915254237,40C59.99999999999999,40,58.983050847457626,40,57.96610169491525,40C56.94915254237288,40,55.93220338983051,40,54.91525423728814,40C53.898305084745765,40,52.88135593220339,40,51.86440677966102,40C50.847457627118644,40,49.83050847457627,40,48.813559322033896,40C47.79661016949152,40,46.77966101694915,40,45.762711864406775,40C44.7457627118644,40,43.728813559322035,40,42.71186440677966,40C41.69491525423729,40,40.67796610169491,40,39.66101694915254,40C38.644067796610166,40,37.6271186440678,40,36.610169491525426,40C35.59322033898305,40,34.57627118644068,40,33.559322033898304,40C32.54237288135593,40,31.525423728813557,40,30.508474576271183,40C29.491525423728813,40,28.47457627118644,40,27.45762711864407,40C26.440677966101696,40,25.423728813559322,40,24.406779661016948,40C23.389830508474574,40,22.372881355932204,40,21.35593220338983,40C20.338983050847457,40,19.322033898305087,40,18.305084745762713,40C17.28813559322034,40,16.271186440677965,40,15.254237288135592,40C14.23728813559322,40,13.220338983050846,40,12.203389830508474,40C11.186440677966102,40,10.169491525423728,40,9.152542372881356,40C8.135593220338983,40,7.11864406779661,40,6.101694915254237,40C5.084745762711864,40,4.067796610169491,40,3.0508474576271185,40C2.0338983050847457,40,1.0169491525423728,40,0,40Z"></path><path class="line" stroke="black" fill="none" d="M0,28.4972C1.0169491525423728,28.498733333333334,2.0338983050847457,28.50026666666667,3.0508474576271185,28.506400000000003C4.067796610169491,28.512533333333337,5.084745762711864,28.7728,6.101694915254237,28.8612C7.11864406779661,28.9496,8.135593220338983,28.941066666666668,9.152542372881356,29.0368C10.169491525423728,29.13253333333333,11.186440677966102,29.377466666666663,12.203389830508474,29.435599999999997C13.220338983050846,29.49373333333333,14.23728813559322,29.475066666666667,15.254237288135592,29.5228C16.271186440677965,29.570533333333334,17.28813559322034,29.671533333333333,18.305084745762713,29.722C19.322033898305087,29.772466666666666,20.338983050847457,29.762600000000003,21.35593220338983,29.8256C22.372881355932204,29.8886,23.389830508474574,30.099999999999998,24.406779661016948,30.099999999999998C25.423728813559322,30.099999999999998,26.440677966101696,30.042,27.45762711864407,30.042C28.47457627118644,30.042,29.491525423728813,30.050400000000003,30.508474576271183,30.050400000000003C31.525423728813557,30.050400000000003,32.54237288135593,30.0162,33.559322033898304,29.998C34.57627118644068,29.9798,35.59322033898305,29.941199999999995,36.610169491525426,29.941199999999995C37.6271186440678,29.941199999999995,38.644067796610166,30.0068,39.66101694915254,30.0068C40.67796610169491,30.0068,41.69491525423729,29.901333333333334,42.71186440677966,29.8936C43.728813559322035,29.885866666666665,44.7457627118644,29.889733333333332,45.762711864406775,29.881999999999998C46.77966101694915,29.874266666666664,47.79661016949152,29.6142,48.813559322033896,29.4584C49.83050847457627,29.3026,50.847457627118644,29.018666666666665,51.86440677966102,28.9472C52.88135593220339,28.875733333333333,53.898305084745765,28.911466666666666,54.91525423728814,28.84C55.93220338983051,28.768533333333334,56.94915254237288,28.40853333333333,57.96610169491525,28.264C58.983050847457626,28.119466666666668,59.99999999999999,28.1088,61.01694915254237,27.9728C62.03389830508474,27.8368,63.05084745762712,27.797866666666664,64.0677966101695,27.447999999999997C65.08474576271186,27.09813333333333,66.10169491525424,26.341,67.11864406779661,25.830000000000002C68.13559322033899,25.319000000000003,69.15254237288136,24.71366666666667,70.16949152542374,24.382C71.1864406779661,24.050333333333334,72.20338983050848,24.201333333333334,73.22033898305085,23.84C74.23728813559322,23.478666666666665,75.2542372881356,21.770800000000005,76.27118644067797,21.086400000000005C77.28813559322033,20.402000000000005,78.30508474576271,20.39553333333333,79.32203389830508,19.7336C80.33898305084746,19.071666666666665,81.35593220338983,17.886333333333333,82.37288135593221,17.1148C83.38983050847457,16.34326666666667,84.40677966101696,15.681399999999998,85.42372881355932,15.1044C86.4406779661017,14.527399999999998,87.45762711864407,14.201733333333335,88.47457627118645,13.6528C89.49152542372882,13.103866666666669,90.50847457627118,12.60486666666666,91.52542372881355,11.8108C92.54237288135593,11.016733333333331,93.55932203389831,9.538933333333334,94.57627118644069,8.8884C95.59322033898306,8.237866666666676,96.61016949152543,8.100933333333334,97.62711864406779,7.907600000000001C98.64406779661016,7.714266666666669,99.66101694915254,7.718133333333335,100.6779661016949,7.617600000000002C101.69491525423729,7.517066666666668,102.71186440677965,7.513200000000002,103.72881355932203,7.304400000000002C104.7457627118644,7.095600000000003,105.76271186440678,4.955599999999998,106.77966101694915,4.955599999999998C107.79661016949153,4.955599999999998,108.8135593220339,5.119066666666665,109.83050847457628,5.446C110.84745762711864,5.772933333333333,111.86440677966102,7.195066666666669,112.88135593220339,8.288000000000002C113.89830508474576,9.380933333333335,114.91525423728814,10.668600000000003,115.9322033898305,12.003599999999999C116.94915254237289,13.338600000000001,117.96610169491525,15.203599999999996,118.98305084745763,16.298C120,17.39239999999999,121.01694915254237,17.644333333333343,122.03389830508473,18.57C123.05084745762711,19.495666666666672,124.0677966101695,20.567933333333325,125.08474576271188,21.852C126.10169491525424,23.13606666666666,127.11864406779662,25.1494,128.135593220339,26.2744C129.15254237288136,27.399399999999996,130.16949152542372,28.511066666666665,131.1864406779661,28.601999999999997C132.20338983050846,28.692933333333333,133.22033898305085,28.7384,134.23728813559322,28.7384C135.25423728813558,28.7384,136.27118644067798,28.2308,137.28813559322035,27.9544C138.3050847457627,27.678,139.3220338983051,27.406800000000004,140.33898305084747,27.080000000000002C141.35593220338984,26.753200000000003,142.3728813559322,26.273400000000002,143.38983050847457,25.9936C144.40677966101694,25.7138,145.42372881355934,25.5342,146.4406779661017,25.4012C147.45762711864407,25.2682,148.47457627118644,25.195600000000002,149.4915254237288,25.195600000000002C150.50847457627117,25.195600000000002,151.52542372881356,25.900333333333332,152.54237288135593,26.1376C153.5593220338983,26.374866666666666,154.5762711864407,26.497933333333336,155.59322033898306,26.619200000000003C156.61016949152543,26.74046666666667,157.6271186440678,26.865199999999998,158.64406779661016,26.865199999999998C159.66101694915253,26.865199999999998,160.67796610169492,26.768,161.6949152542373,26.768C162.71186440677965,26.768,163.72881355932205,27.63,164.74576271186442,27.63C165.76271186440678,27.63,166.77966101694915,27.416400000000003,167.79661016949152,27.416400000000003C168.81355932203388,27.416400000000003,169.83050847457628,27.512,170.84745762711864,27.512C171.864406779661,27.512,172.8813559322034,27.075199999999995,173.89830508474577,27.075199999999995C174.91525423728814,27.075199999999995,175.93220338983053,27.095199999999995,176.9491525423729,27.135199999999998C177.96610169491527,27.1752,178.98305084745763,28.281,180,29.386799999999997"></path><path class="axis-ceiling" stroke-width="1" stroke="black" fill="none" d="M175,0L180,0"></path><text class="axis-ceiling-label" font-family="sans-serif" text-anchor="end" font-size="10px" x="170" y="2.5">100000</text></g></svg>