<svg xmlns="http://www.w3.org/2000/svg" viewBox="0 0 180 60"><g transform="translate(0,20)"><path class="area" fill="rgba(0, 0, 0, 0.2)" d="M0,35.9168C0.576923076923077,36.14672,1.1538461538461537,36.37664,1.7307692307692308,36.37664C2.307692307692308,36.37664,2.8846153846153846,36.18197333333333,3.4615384615384617,36.024159999999995C4.038461538461538,35.86634666666666,4.615384615384616,35.51141333333334,5.1923076923076925,35.42976C6.346153846153847,35.26645333333333,7.500000000000001,35.283546666666666,8.653846153846155,35.184799999999996C9.807692307692308,35.08605333333333,10.961538461538462,34.83728,12.115384615384615,34.83728C13.269230769230768,34.83728,14.423076923076923,35.396,15.576923076923077,35.396C16.73076923076923,35.396,17.884615384615383,34.75626666666667,19.038461538461537,34.40576C20.19230769230769,34.05525333333333,21.346153846153847,33.66493333333334,22.5,33.29296C24.807692307692307,32.549013333333335,27.115384615384617,31.776751515151513,29.423076923076923,31.04864C33.46153846153846,29.774444848484848,37.5,27.40976,41.53846153846154,27.40976C42.11538461538462,27.40976,42.69230769230769,27.54928,43.269230769230774,27.54928C45.57692307692308,27.54928,47.88461538461539,26.543611428571428,50.19230769230769,26.09312C51.92307692307693,25.755251428571427,53.65384615384615,25.1384,55.38461538461539,25.1384C55.96153846153846,25.1384,56.53846153846154,25.4868,57.11538461538461,25.78176C57.69230769230769,26.076719999999998,58.26923076923077,26.554026666666665,58.84615384615385,26.90816C60,27.616426666666666,61.15384615384615,28.776960000000003,62.30769230769231,28.776960000000003C66.92307692307692,28.776960000000003,71.53846153846153,27.897173333333335,76.15384615384615,26.1376C77.3076923076923,25.697706666666665,78.46153846153845,24.753642666666668,79.61538461538461,23.96976C84.23076923076923,20.83422933333334,88.84615384615385,14.699061333333345,93.46153846153847,11.622240000000001C94.61538461538461,10.853034666666668,95.76923076923077,10.15150222222222,96.92307692307692,9.509439999999998C99.23076923076923,8.22531555555555,101.53846153846153,6.900544,103.84615384615384,6.40352C104.42307692307692,6.2792639999999995,105,6.131679999999999,105.57692307692308,6.131679999999999C106.15384615384616,6.131679999999999,106.73076923076923,6.456919999999998,107.3076923076923,6.663199999999998C109.61538461538461,7.488319999999997,111.92307692307692,9.743519999999998,114.23076923076923,10.53568C115.38461538461539,10.93176,116.53846153846153,10.807093333333333,117.6923076923077,11.349920000000001C118.26923076923077,11.621333333333334,118.84615384615384,22.864906666666688,119.42307692307692,25.15408C120,27.443253333333335,120.57692307692308,27.440159999999995,121.15384615384616,28.58784C121.73076923076924,29.735519999999994,122.3076923076923,32.026720000000005,122.88461538461539,32.04016C123.46153846153847,32.053599999999996,124.03846153846153,32.06032,124.61538461538461,32.06032C125.1923076923077,32.06032,125.76923076923076,31.59392,126.34615384615384,31.59392C126.92307692307692,31.59392,127.50000000000001,33.70832,128.0769230769231,33.85504C129.23076923076923,34.14848,130.3846153846154,34.17624888888889,131.53846153846152,34.2952C132.1153846153846,34.35467555555556,132.69230769230768,34.452799999999996,133.26923076923077,34.452799999999996C133.84615384615384,34.452799999999996,134.42307692307693,34.44373333333333,135,34.425599999999996C135.57692307692307,34.407466666666664,136.15384615384616,34.17301333333334,136.73076923076923,34.14464C137.30769230769232,34.11626666666667,137.8846153846154,34.130453333333335,138.46153846153848,34.10208C139.6153846153846,34.04533333333333,140.76923076923077,33.30496,141.9230769230769,33.30496C142.5,33.30496,143.07692307692307,33.42165333333333,143.65384615384616,33.65504C144.23076923076923,33.88842666666666,144.80769230769232,34.883359999999996,145.3846153846154,34.883359999999996C145.96153846153845,34.883359999999996,146.53846153846155,34.79168,147.1153846153846,34.79168C147.69230769230768,34.79168,148.26923076923077,34.83869333333333,148.84615384615384,34.86976C149.42307692307693,34.90082666666667,150,34.938959999999994,150.5769230769231,34.97808C151.15384615384616,35.017199999999995,151.73076923076923,35.02021333333333,152.3076923076923,35.10448C152.88461538461536,35.188746666666674,153.46153846153845,36.06960000000001,154.03846153846152,36.129760000000005C154.6153846153846,36.18992,155.19230769230768,36.22,155.76923076923077,36.22C156.34615384615384,36.22,156.92307692307693,36.060426666666665,157.5,36.03344C158.07692307692307,36.00645333333333,158.65384615384616,36.01994666666666,159.23076923076923,35.99296C159.80769230769232,35.96597333333333,160.3846153846154,35.92506666666667,160.96153846153848,35.850080000000005C161.53846153846155,35.77509333333334,162.11538461538464,35.543040000000005,162.6923076923077,35.543040000000005C163.26923076923077,35.543040000000005,163.84615384615384,35.89696,164.4230769230769,35.89696C165,35.89696,165.57692307692307,35.816453333333335,166.15384615384616,35.78064C166.73076923076923,35.74482666666667,167.30769230769232,35.68208,167.8846153846154,35.68208C168.46153846153845,35.68208,169.03846153846155,35.77712,169.6153846153846,35.77712C170.19230769230768,35.77712,170.76923076923077,35.725120000000004,171.34615384615384,35.725120000000004C171.92307692307693,35.725120000000004,172.5,35.97010666666666,173.0769230769231,36.14512C173.65384615384616,36.32013333333333,174.23076923076923,36.7752,174.8076923076923,36.7752C175.38461538461536,36.7752,175.96153846153845,36.75424,176.53846153846152,36.75424C177.1153846153846,36.75424,177.69230769230768,37.00653333333333,178.26923076923077,37.11568C178.84615384615384,37.224826666666665,179.42307692307693,37.31697333333333,180,37.40912L180,40C179.42307692307693,40,178.84615384615384,40,178.26923076923077,40C177.69230769230768,40,177.1153846153846,40,176.53846153846152,40C175.96153846153845,40,175.38461538461536,40,174.8076923076923,40C174.23076923076923,40,173.65384615384616,40,173.0769230769231,40C172.5,40,171.92307692307693,40,171.34615384615384,40C170.76923076923077,40,170.19230769230768,40,169.6153846153846,40C169.03846153846155,40,168.46153846153845,40,167.8846153846154,40C167.30769230769232,40,166.73076923076923,40,166.15384615384616,40C165.57692307692307,40,165,40,164.4230769230769,40C163.84615384615384,40,163.26923076923077,40,162.6923076923077,40C162.11538461538464,40,161.53846153846155,40,160.96153846153848,40C160.3846153846154,40,159.80769230769232,40,159.23076923076923,40C158.65384615384616,40,158.07692307692307,40,157.5,40C156.92307692307693,40,156.34615384615384,40,155.76923076923077,40C155.19230769230768,40,154.6153846153846,40,154.03846153846152,40C153.46153846153845,40,152.88461538461536,40,152.3076923076923,40C151.73076923076923,40,151.15384615384616,40,150.5769230769231,40C150,40,149.42307692307693,40,148.84615384615384,40C148.26923076923077,40,147.69230769230768,40,147.1153846153846,40C146.53846153846155,40,145.96153846153845,40,145.3846153846154,40C144.80769230769232,40,144.23076923076923,40,143.65384615384616,40C143.07692307692307,40,142.5,40,141.9230769230769,40C140.76923076923077,40,139.6153846153846,40,138.46153846153848,40C137.8846153846154,40,137.30769230769232,40,136.73076923076923,40C136.15384615384616,40,135.57692307692307,40,135,40C134.42307692307693,40,133.84615384615384,40,133.26923076923077,40C132.69230769230768,40,132.1153846153846,40,131.53846153846152,40C130.3846153846154,40,129.23076923076923,40,128.0769230769231,40C127.50000000000001,40,126.92307692307692,40,126.34615384615384,40C125.76923076923076,40,125.1923076923077,40,124.61538461538461,40C124.03846153846153,40,123.46153846153847,40,122.88461538461539,40C122.3076923076923,40,121.73076923076924,40,121.15384615384616,40C120.57692307692308,40,120,40,119.42307692307692,40C118.84615384615384,40,118.26923076923077,40,117.6923076923077,40C116.53846153846153,40,115.38461538461539,40,114.23076923076923,40C111.92307692307692,40,109.61538461538461,40,107.3076923076923,40C106.73076923076923,40,106.15384615384616,40,105.57692307692308,40C105,40,104.42307692307692,40,103.84615384615384,40C101.53846153846153,40,99.23076923076923,40,96.92307692307692,40C95.76923076923077,40,94.61538461538461,40,93.46153846153847,40C88.84615384615385,40,84.23076923076923,40,79.61538461538461,40C78.46153846153845,40,77.3076923076923,40,76.15384615384615,40C71.53846153846153,40,66.92307692307692,40,62.30769230769231,40C61.15384615384615,40,60,40,58.84615384615385,40C58.26923076923077,40,57.69230769230769,40,57.11538461538461,40C56.53846153846154,40,55.96153846153846,40,55.38461538461539,40C53.65384615384615,40,51.92307692307693,40,50.19230769230769,40C47.88461538461539,40,45.57692307692308,40,43.269230769230774,40C42.69230769230769,40,42.11538461538462,40,41.53846153846154,40C37.5,40,33.46153846153846,40,29.423076923076923,40C27.115384615384617,40,24.807692307692307,40,22.5,40C21.346153846153847,40,20.19230769230769,40,19.038461538461537,40C17.884615384615383,40,16.73076923076923,40,15.576923076923077,40C14.423076923076923,40,13.269230769230768,40,12.115384615384615,40C10.961538461538462,40,9.807692307692308,40,8.653846153846155,40C7.500000000000001,40,6.346153846153847,40,5.1923076923076925,40C4.615384615384616,40,4.038461538461538,40,3.4615384615384617,40C2.8846153846153846,40,2.307692307692308,40,1.7307692307692308,40C1.1538461538461537,40,0.576923076923077,40,0,40Z"></path><path class="line" stroke="black" fill="none" d="M0,35.9168C0.576923076923077,36.14672,1.1538461538461537,36.37664,1.7307692307692308,36.37664C2.307692307692308,36.37664,2.8846153846153846,36.18197333333333,3.4615384615384617,36.024159999999995C4.038461538461538,35.86634666666666,4.615384615384616,35.51141333333334,5.1923076923076925,35.42976C6.346153846153847,35.26645333333333,7.500000000000001,35.283546666666666,8.653846153846155,35.184799999999996C9.807692307692308,35.08605333333333,10.961538461538462,34.83728,12.115384615384615,34.83728C13.269230769230768,34.83728,14.423076923076923,35.396,15.576923076923077,35.396C16.73076923076923,35.396,17.884615384615383,34.75626666666667,19.038461538461537,34.40576C20.19230769230769,34.05525333333333,21.346153846153847,33.66493333333334,22.5,33.29296C24.807692307692307,32.549013333333335,27.115384615384617,31.776751515151513,29.423076923076923,31.04864C33.46153846153846,29.774444848484848,37.5,27.40976,41.53846153846154,27.40976C42.11538461538462,27.40976,42.69230769230769,27.54928,43.269230769230774,27.54928C45.57692307692308,27.54928,47.88461538461539,26.543611428571428,50.19230769230769,26.09312C51.92307692307693,25.755251428571427,53.65384615384615,25.1384,55.38461538461539,25.1384C55.96153846153846,25.1384,56.53846153846154,25.4868,57.11538461538461,25.78176C57.69230769230769,26.076719999999998,58.26923076923077,26.554026666666665,58.84615384615385,26.90816C60,27.616426666666666,61.15384615384615,28.776960000000003,62.30769230769231,28.776960000000003C66.92307692307692,28.776960000000003,71.53846153846153,27.897173333333335,76.15384615384615,26.1376C77.3076923076923,25.697706666666665,78.46153846153845,24.753642666666668,79.61538461538461,23.96976C84.23076923076923,20.83422933333334,88.84615384615385,14.699061333333345,93.46153846153847,11.622240000000001C94.61538461538461,10.853034666666668,95.76923076923077,10.15150222222222,96.92307692307692,9.509439999999998C99.23076923076923,8.22531555555555,101.53846153846153,6.900544,103.84615384615384,6.40352C104.42307692307692,6.2792639999999995,105,6.131679999999999,105.57692307692308,6.131679999999999C106.15384615384616,6.131679999999999,106.73076923076923,6.456919999999998,107.3076923076923,6.663199999999998C109.61538461538461,7.488319999999997,111.92307692307692,9.743519999999998,114.23076923076923,10.53568C115.38461538461539,10.93176,116.53846153846153,10.807093333333333,117.6923076923077,11.349920000000001C118.26923076923077,11.621333333333334,118.84615384615384,22.864906666666688,119.42307692307692,25.15408C120,27.443253333333335,120.57692307692308,27.440159999999995,121.15384615384616,28.58784C121.73076923076924,29.735519999999994,122.3076923076923,32.026720000000005,122.88461538461539,32.04016C123.46153846153847,32.053599999999996,124.03846153846153,32.06032,124.61538461538461,32.06032C125.1923076923077,32.06032,125.76923076923076,31.59392,126.34615384615384,31.59392C126.92307692307692,31.59392,127.50000000000001,33.70832,128.0769230769231,33.85504C129.23076923076923,34.14848,130.3846153846154,34.17624888888889,131.53846153846152,34.2952C132.1153846153846,34.35467555555556,132.69230769230768,34.452799999999996,133.26923076923077,34.452799999999996C133.84615384615384,34.452799999999996,134.42307692307693,34.44373333333333,135,34.425599999999996C135.57692307692307,34.407466666666664,136.15384615384616,34.17301333333334,136.73076923076923,34.14464C137.30769230769232,34.11626666666667,137.8846153846154,34.130453333333335,138.46153846153848,34.10208C139.6153846153846,34.04533333333333,140.76923076923077,33.30496,141.9230769230769,33.30496C142.5,33.30496,143.07692307692307,33.42165333333333,143.65384615384616,33.65504C144.23076923076923,33.88842666666666,144.80769230769232,34.883359999999996,145.3846153846154,34.883359999999996C145.96153846153845,34.883359999999996,146.53846153846155,34.79168,147.1153846153846,34.79168C147.69230769230768,34.79168,148.26923076923077,34.83869333333333,148.84615384615384,34.86976C149.42307692307693,34.90082666666667,150,34.938959999999994,150.5769230769231,34.97808C151.15384615384616,35.017199999999995,151.73076923076923,35.02021333333333,152.3076923076923,35.10448C152.88461538461536,35.188746666666674,153.46153846153845,36.06960000000001,154.03846153846152,36.129760000000005C154.6153846153846,36.18992,155.19230769230768,36.22,155.76923076923077,36.22C156.34615384615384,36.22,156.92307692307693,36.060426666666665,157.5,36.03344C158.07692307692307,36.00645333333333,158.65384615384616,36.01994666666666,159.23076923076923,35.99296C159.80769230769232,35.96597333333333,160.3846153846154,35.92506666666667,160.96153846153848,35.850080000000005C161.53846153846155,35.77509333333334,162.11538461538464,35.543040000000005,162.6923076923077,35.543040000000005C163.26923076923077,35.543040000000005,163.84615384615384,35.89696,164.4230769230769,35.89696C165,35.89696,165.57692307692307,35.816453333333335,166.15384615384616,35.78064C166.73076923076923,35.74482666666667,167.30769230769232,35.68208,167.8846153846154,35.68208C168.46153846153845,35.68208,169.03846153846155,35.77712,169.6153846153846,35.77712C170.19230769230768,35.77712,170.76923076923077,35.725120000000004,171.34615384615384,35.725120000000004C171.92307692307693,35.725120000000004,172.5,35.97010666666666,173.0769230769231,36.14512C173.65384615384616,36.32013333333333,174.23076923076923,36.7752,174.8076923076923,36.7752C175.38461538461536,36.7752,175.96153846153845,36.75424,176.53846153846152,36.75424C177.1153846153846,36.75424,177.69230769230768,37.00653333333333,178.26923076923077,37.11568C178.84615384615384,37.224826666666665,179.42307692307693,37.31697333333333,180,37.40912"></path><path class="axis-ceiling" stroke-width="1" stroke="black" fill="none" d="M175,0L180,0"></path><text class="axis-ceiling-label" font-family="sans-serif" text-anchor="end" font-size="10px" x="170" y="2.5">250000</text></g></svg>