<svg xmlns="http://www.w3.org/2000/svg" viewBox="0 0 180 60"><g transform="translate(0,20)"><path class="area" fill="rgba(0, 0, 0, 0.2)" d="M0,21.240336C1.0169491525423728,21.223814333333333,2.0338983050847457,21.207292666666664,3.0508474576271185,21.187095999999997C4.067796610169491,21.16689933333333,5.084745762711864,21.140101999999995,6.101694915254237,21.119155999999997C7.11864406779661,21.098209999999998,8.135593220338983,21.07887266666667,9.152542372881356,21.061420000000002C10.169491525423728,21.043967333333335,11.186440677966102,21.032886,12.203389830508474,21.01444C13.220338983050846,20.995994,14.23728813559322,20.970902666666664,15.254237288135592,20.950743999999997C16.271186440677965,20.93058533333333,17.28813559322034,20.909813999999997,18.305084745762713,20.893487999999998C19.322033898305087,20.877162,20.338983050847457,20.868345333333338,21.35593220338983,20.852788000000004C22.372881355932204,20.83723066666667,23.389830508474574,20.817890666666667,24.406779661016948,20.800144C25.423728813559322,20.782397333333332,26.440677966101696,20.763950666666666,27.45762711864407,20.746308C28.47457627118644,20.728665333333332,29.491525423728813,20.709976,30.508474576271183,20.694288C31.525423728813557,20.6786,32.54237288135593,20.67018,33.559322033898304,20.652179999999998C34.57627118644068,20.634179999999997,35.59322033898305,20.603752000000004,36.610169491525426,20.586288000000003C37.6271186440678,20.568824000000003,38.644067796610166,20.559560666666666,39.66101694915254,20.547396C40.67796610169491,20.535231333333332,41.69491525423729,20.52505,42.71186440677966,20.5133C43.728813559322035,20.50155,44.7457627118644,20.49061933333333,45.762711864406775,20.476896C46.77966101694915,20.463172666666665,47.79661016949152,20.44609666666667,48.813559322033896,20.430960000000002C49.83050847457627,20.415823333333336,50.847457627118644,20.400504666666663,51.86440677966102,20.386075999999996C52.88135593220339,20.37164733333333,53.898305084745765,20.358672000000002,54.91525423728814,20.344388000000002C55.93220338983051,20.330104000000002,56.94915254237288,20.313732666666663,57.96610169491525,20.300371999999996C58.983050847457626,20.28701133333333,59.99999999999999,20.274902666666666,61.01694915254237,20.264224C62.03389830508474,20.25354533333333,63.05084745762712,20.248046,64.0677966101695,20.2363C65.08474576271186,20.224554,66.10169491525424,20.207904666666664,67.11864406779661,20.193748C68.13559322033899,20.17959133333333,69.15254237288136,20.164416666666668,70.16949152542374,20.15136C71.1864406779661,20.138303333333333,72.20338983050848,20.12687333333333,73.22033898305085,20.115407999999995C74.23728813559322,20.10394266666666,75.2542372881356,20.093556,76.27118644067797,20.082568C77.28813559322033,20.071579999999997,78.30508474576271,20.058909999999994,79.32203389830508,20.049479999999996C80.33898305084746,20.040049999999994,81.35593220338983,20.033821333333332,82.37288135593221,20.025987999999998C83.38983050847457,20.018154666666664,84.40677966101696,20.012605999999998,85.42372881355932,20.00248C86.4406779661017,19.992354,87.45762711864407,19.978404,88.47457627118645,19.965232C89.49152542372882,19.95206,90.50847457627118,19.936782666666666,91.52542372881355,19.923448C92.54237288135593,19.910113333333335,93.55932203389831,19.896966000000003,94.57627118644069,19.885224C95.59322033898306,19.873482,96.61016949152543,19.86513333333333,97.62711864406779,19.852995999999997C98.64406779661016,19.840858666666662,99.66101694915254,19.82525,100.6779661016949,19.8124C101.69491525423729,19.79955,102.71186440677965,19.786936,103.72881355932203,19.775896C104.7457627118644,19.764856,105.76271186440678,19.757427333333336,106.77966101694915,19.746160000000003C107.79661016949153,19.73489266666667,108.8135593220339,19.721547333333334,109.83050847457628,19.708292C110.84745762711864,19.695036666666667,111.86440677966102,19.678835333333332,112.88135593220339,19.666628C113.89830508474576,19.654420666666667,114.91525423728814,19.647005999999998,115.9322033898305,19.635047999999998C116.94915254237289,19.623089999999998,117.96610169491525,19.607886,118.98305084745763,19.59488C120,19.581874,121.01694915254237,19.569118,122.03389830508473,19.557012C123.05084745762711,19.544906,124.0677966101695,19.532869333333334,125.08474576271188,19.522244C126.10169491525424,19.511618666666667,127.11864406779662,19.50596,128.135593220339,19.49326C129.15254237288136,19.48056,130.16949152542372,19.459658666666662,131.1864406779661,19.446043999999997C132.20338983050846,19.43242933333333,133.22033898305085,19.426282,134.23728813559322,19.411572C135.25423728813558,19.396862,136.27118644067798,19.377632,137.28813559322035,19.357784C138.3050847457627,19.337936,139.3220338983051,19.31440866666667,140.33898305084747,19.292484C141.35593220338984,19.270559333333335,142.3728813559322,19.245224666666665,143.38983050847457,19.226236C144.40677966101694,19.20724733333333,145.42372881355934,19.193641333333332,146.4406779661017,19.178552C147.45762711864407,19.163462666666668,148.47457627118644,19.153718666666666,149.4915254237288,19.1357C150.50847457627117,19.117681333333334,151.52542372881356,19.091494666666666,152.54237288135593,19.070439999999998C153.5593220338983,19.04938533333333,154.5762711864407,19.02824933333333,155.59322033898306,19.009372C156.61016949152543,18.990494666666667,157.6271186440678,18.977264666666663,158.64406779661016,18.957175999999997C159.66101694915253,18.93708733333333,160.67796610169492,18.91276666666667,161.6949152542373,18.888840000000002C162.71186440677965,18.864913333333334,163.72881355932205,18.836127333333334,164.74576271186442,18.813616C165.76271186440678,18.791104666666666,166.77966101694915,18.77351933333333,167.79661016949152,18.753771999999998C168.81355932203388,18.734024666666663,169.83050847457628,18.718310000000002,170.84745762711864,18.695132C171.864406779661,18.671954,172.8813559322034,18.637224,173.89830508474577,18.614704C174.91525423728814,18.592184,175.93220338983053,18.576820666666666,176.9491525423729,18.560012C177.96610169491527,18.543203333333334,178.98305084745763,18.528527666666665,180,18.513852L180,40C178.98305084745763,40,177.96610169491527,40,176.9491525423729,40C175.93220338983053,40,174.91525423728814,40,173.89830508474577,40C172.8813559322034,40,171.864406779661,40,170.84745762711864,40C169.83050847457628,40,168.81355932203388,40,167.79661016949152,40C166.77966101694915,40,165.76271186440678,40,164.74576271186442,40C163.72881355932205,40,162.71186440677965,40,161.6949152542373,40C160.67796610169492,40,159.66101694915253,40,158.64406779661016,40C157.6271186440678,40,156.61016949152543,40,155.59322033898306,40C154.5762711864407,40,153.5593220338983,40,152.54237288135593,40C151.52542372881356,40,150.50847457627117,40,149.4915254237288,40C148.47457627118644,40,147.45762711864407,40,146.4406779661017,40C145.42372881355934,40,144.40677966101694,40,143.38983050847457,40C142.3728813559322,40,141.35593220338984,40,140.33898305084747,40C139.3220338983051,40,138.3050847457627,40,137.28813559322035,40C136.27118644067798,40,135.25423728813558,40,134.23728813559322,40C133.22033898305085,40,132.20338983050846,40,131.1864406779661,40C130.16949152542372,40,129.15254237288136,40,128.135593220339,40C127.11864406779662,40,126.10169491525424,40,125.08474576271188,40C124.0677966101695,40,123.05084745762711,40,122.03389830508473,40C121.01694915254237,40,120,40,118.98305084745763,40C117.96610169491525,40,116.94915254237289,40,115.9322033898305,40C114.91525423728814,40,113.89830508474576,40,112.88135593220339,40C111.86440677966102,40,110.84745762711864,40,109.83050847457628,40C108.8135593220339,40,107.79661016949153,40,106.77966101694915,40C105.76271186440678,40,104.7457627118644,40,103.72881355932203,40C102.71186440677965,40,101.69491525423729,40,100.6779661016949,40C99.66101694915254,40,98.64406779661016,40,97.62711864406779,40C96.61016949152543,40,95.59322033898306,40,94.57627118644069,40C93.55932203389831,40,92.54237288135593,40,91.52542372881355,40C90.50847457627118,40,89.49152542372882,40,88.47457627118645,40C87.45762711864407,40,86.4406779661017,40,85.42372881355932,40C84.40677966101696,40,83.38983050847457,40,82.37288135593221,40C81.35593220338983,40,80.33898305084746,40,79.32203389830508,40C78.30508474576271,40,77.28813559322033,40,76.27118644067797,40C75.2542372881356,40,74.23728813559322,40,73.22033898305085,40C72.20338983050848,40,71.1864406779661,40,70.16949152542374,40C69.15254237288136,40,68.13559322033899,40,67.11864406779661,40C66.10169491525424,40,65.08474576271186,40,64.0677966101695,40C63.05084745762712,40,62.03389830508474,40,61.01694915254237,40C59.99999999999999,40,58.983050847457626,40,57.96610169491525,40C56.94915254237288,40,55.93220338983051,40,54.91525423728814,40C53.898305084745765,40,52.88135593220339,40,51.86440677966102,40C50.847457627118644,40,49.83050847457627,40,48.813559322033896,40C47.79661016949152,40,46.77966101694915,40,45.762711864406775,40C44.7457627118644,40,43.728813559322035,40,42.71186440677966,40C41.69491525423729,40,40.67796610169491,40,39.66101694915254,40C38.644067796610166,40,37.6271186440678,40,36.610169491525426,40C35.59322033898305,40,34.57627118644068,40,33.559322033898304,40C32.54237288135593,40,31.525423728813557,40,30.508474576271183,40C29.491525423728813,40,28.47457627118644,40,27.45762711864407,40C26.440677966101696,40,25.423728813559322,40,24.406779661016948,40C23.389830508474574,40,22.372881355932204,40,21.35593220338983,40C20.338983050847457,40,19.322033898305087,40,18.305084745762713,40C17.28813559322034,40,16.271186440677965,40,15.254237288135592,40C14.23728813559322,40,13.220338983050846,40,12.203389830508474,40C11.186440677966102,40,10.169491525423728,40,9.152542372881356,40C8.135593220338983,40,7.11864406779661,40,6.101694915254237,40C5.084745762711864,40,4.067796610169491,40,3.0508474576271185,40C2.0338983050847457,40,1.0169491525423728,40,0,40Z"></path><path class="line" stroke="black" fill="none" d="M0,21.240336C1.0169491525423728,21.223814333333333,2.0338983050847457,21.207292666666664,3.0508474576271185,21.187095999999997C4.067796610169491,21.16689933333333,5.084745762711864,21.140101999999995,6.101694915254237,21.119155999999997C7.11864406779661,21.098209999999998,8.135593220338983,21.07887266666667,9.152542372881356,21.061420000000002C10.169491525423728,21.043967333333335,11.186440677966102,21.032886,12.203389830508474,21.01444C13.220338983050846,20.995994,14.23728813559322,20.970902666666664,15.254237288135592,20.950743999999997C16.271186440677965,20.93058533333333,17.28813559322034,20.909813999999997,18.305084745762713,20.893487999999998C19.322033898305087,20.877162,20.338983050847457,20.868345333333338,21.35593220338983,20.852788000000004C22.372881355932204,20.83723066666667,23.389830508474574,20.817890666666667,24.406779661016948,20.800144C25.423728813559322,20.782397333333332,26.440677966101696,20.763950666666666,27.45762711864407,20.746308C28.47457627118644,20.728665333333332,29.491525423728813,20.709976,30.508474576271183,20.694288C31.525423728813557,20.6786,32.54237288135593,20.67018,33.559322033898304,20.652179999999998C34.57627118644068,20.634179999999997,35.59322033898305,20.603752000000004,36.610169491525426,20.586288000000003C37.6271186440678,20.568824000000003,38.644067796610166,20.559560666666666,39.66101694915254,20.547396C40.67796610169491,20.535231333333332,41.69491525423729,20.52505,42.71186440677966,20.5133C43.728813559322035,20.50155,44.7457627118644,20.49061933333333,45.762711864406775,20.476896C46.77966101694915,20.463172666666665,47.79661016949152,20.44609666666667,48.813559322033896,20.430960000000002C49.83050847457627,20.415823333333336,50.847457627118644,20.400504666666663,51.86440677966102,20.386075999999996C52.88135593220339,20.37164733333333,53.898305084745765,20.358672000000002,54.91525423728814,20.344388000000002C55.93220338983051,20.330104000000002,56.94915254237288,20.313732666666663,57.96610169491525,20.300371999999996C58.983050847457626,20.28701133333333,59.99999999999999,20.274902666666666,61.01694915254237,20.264224C62.03389830508474,20.25354533333333,63.05084745762712,20.248046,64.0677966101695,20.2363C65.08474576271186,20.224554,66.10169491525424,20.207904666666664,67.11864406779661,20.193748C68.13559322033899,20.17959133333333,69.15254237288136,20.164416666666668,70.16949152542374,20.15136C71.1864406779661,20.138303333333333,72.20338983050848,20.12687333333333,73.22033898305085,20.115407999999995C74.23728813559322,20.10394266666666,75.2542372881356,20.093556,76.27118644067797,20.082568C77.28813559322033,20.071579999999997,78.30508474576271,20.058909999999994,79.32203389830508,20.049479999999996C80.33898305084746,20.040049999999994,81.35593220338983,20.033821333333332,82.37288135593221,20.025987999999998C83.38983050847457,20.018154666666664,84.40677966101696,20.012605999999998,85.42372881355932,20.00248C86.4406779661017,19.992354,87.45762711864407,19.978404,88.47457627118645,19.965232C89.49152542372882,19.95206,90.50847457627118,19.936782666666666,91.52542372881355,19.923448C92.54237288135593,19.910113333333335,93.55932203389831,19.896966000000003,94.57627118644069,19.885224C95.59322033898306,19.873482,96.61016949152543,19.86513333333333,97.62711864406779,19.852995999999997C98.64406779661016,19.840858666666662,99.66101694915254,19.82525,100.6779661016949,19.8124C101.69491525423729,19.79955,102.71186440677965,19.786936,103.72881355932203,19.775896C104.7457627118644,19.764856,105.76271186440678,19.757427333333336,106.77966101694915,19.746160000000003C107.79661016949153,19.73489266666667,108.8135593220339,19.721547333333334,109.83050847457628,19.708292C110.84745762711864,19.695036666666667,111.86440677966102,19.678835333333332,112.88135593220339,19.666628C113.89830508474576,19.654420666666667,114.91525423728814,19.647005999999998,115.9322033898305,19.635047999999998C116.94915254237289,19.623089999999998,117.96610169491525,19.607886,118.98305084745763,19.59488C120,19.581874,121.01694915254237,19.569118,122.03389830508473,19.557012C123.05084745762711,19.544906,124.0677966101695,19.532869333333334,125.08474576271188,19.522244C126.10169491525424,19.511618666666667,127.11864406779662,19.50596,128.135593220339,19.49326C129.15254237288136,19.48056,130.16949152542372,19.459658666666662,131.1864406779661,19.446043999999997C132.20338983050846,19.43242933333333,133.22033898305085,19.426282,134.23728813559322,19.411572C135.25423728813558,19.396862,136.27118644067798,19.377632,137.28813559322035,19.357784C138.3050847457627,19.337936,139.3220338983051,19.31440866666667,140.33898305084747,19.292484C141.35593220338984,19.270559333333335,142.3728813559322,19.245224666666665,143.38983050847457,19.226236C144.40677966101694,19.20724733333333,145.42372881355934,19.193641333333332,146.4406779661017,19.178552C147.45762711864407,19.163462666666668,148.47457627118644,19.153718666666666,149.4915254237288,19.1357C150.50847457627117,19.117681333333334,151.52542372881356,19.091494666666666,152.54237288135593,19.070439999999998C153.5593220338983,19.04938533333333,154.5762711864407,19.02824933333333,155.59322033898306,19.009372C156.61016949152543,18.990494666666667,157.6271186440678,18.977264666666663,158.64406779661016,18.957175999999997C159.66101694915253,18.93708733333333,160.67796610169492,18.91276666666667,161.6949152542373,18.888840000000002C162.71186440677965,18.864913333333334,163.72881355932205,18.836127333333334,164.74576271186442,18.813616C165.76271186440678,18.791104666666666,166.77966101694915,18.77351933333333,167.79661016949152,18.753771999999998C168.81355932203388,18.734024666666663,169.83050847457628,18.718310000000002,170.84745762711864,18.695132C171.864406779661,18.671954,172.8813559322034,18.637224,173.89830508474577,18.614704C174.91525423728814,18.592184,175.93220338983053,18.576820666666666,176.9491525423729,18.560012C177.96610169491527,18.543203333333334,178.98305084745763,18.528527666666665,180,18.513852"></path><path class="axis-ceiling" stroke-width="1" stroke="black" fill="none" d="M175,0L180,0"></path><text class="axis-ceiling-label" font-family="sans-serif" text-anchor="end" font-size="10px" x="170" y="2.5">10000000</text></g></svg>