<svg xmlns="http://www.w3.org/2000/svg" viewBox="0 0 180 60"><g transform="translate(0,20)"><path class="area" fill="rgba(0, 0, 0, 0.2)" d="M0,38.443200000000004C5.625,38.215,11.25,37.9868,16.875,37.9868C18.125,37.9868,19.375,39.6804,20.625,39.6804C28.75,39.6804,36.875,36.782,45,36.782C48.75,36.782,52.5,37.367599999999996,56.25,38.5388C56.875,38.734,57.5,39.7988,58.125,39.7988C58.75,39.7988,59.375,39.74704888888889,60,39.7172C63.125,39.56795555555555,66.25,39.0708,69.375,39.0708C70.625,39.0708,71.875,39.20413333333333,73.125,39.342C73.75,39.41093333333333,74.375,39.5112,75,39.5844C75.625,39.6576,76.25,39.7812,76.875,39.7812C78.125,39.7812,79.375,39.747600000000006,80.625,39.739200000000004C81.25,39.73500000000001,81.875,39.7308,82.5,39.7308C83.125,39.7308,83.75,39.852,84.375,39.852C85,39.852,85.625,39.846133333333334,86.25,39.8344C88.75,39.78746666666668,91.25,38.7368,93.75,38.7368C95,38.7368,96.25,39.24702222222223,97.5,39.4928C98.125,39.61568888888889,98.75,39.82933333333334,99.375,39.8568C100,39.88426666666666,100.625,39.897999999999996,101.25,39.897999999999996C101.875,39.897999999999996,102.5,39.7592,103.125,39.7592C103.75,39.7592,104.375,39.8136,105,39.8136C105.625,39.8136,106.25,39.72691111111111,106.875,39.693999999999996C108.125,39.62817777777777,109.375,39.58,110.625,39.58C111.25,39.58,111.875,39.7944,112.5,39.7984C113.125,39.8024,113.75,39.8044,114.375,39.8044C115,39.8044,115.625,39.778466666666674,116.25,39.7424C116.875,39.70633333333333,117.5,39.588,118.125,39.588C118.75,39.588,119.375,39.670399999999994,120,39.672C120.625,39.6736,121.25,39.6744,121.875,39.6744C122.5,39.6744,123.125,39.272800000000004,123.75,39.272800000000004C124.375,39.272800000000004,125,39.2952,125.625,39.2952C126.25,39.2952,126.875,35.2532,127.5,35.2532C128.125,35.2532,128.75,37.1676,129.375,37.1676C130,37.1676,130.625,36.306400000000004,131.25,36.306400000000004C131.875,36.306400000000004,132.5,37.692800000000005,133.125,37.692800000000005C133.75,37.692800000000005,134.375,33.010799999999996,135,33.010799999999996C135.625,33.010799999999996,136.25,35.4128,136.875,35.4128C137.5,35.4128,138.125,30.437599999999996,138.75,30.437599999999996C139.375,30.437599999999996,140,34.708800000000004,140.625,34.708800000000004C141.25,34.708800000000004,141.875,24.153599999999997,142.5,24.153599999999997C143.125,24.153599999999997,143.75,27.952666666666666,144.375,28.1508C145,28.348933333333335,145.625,28.249866666666666,146.25,28.448C146.875,28.646133333333335,147.5,30.8572,148.125,31.173199999999998C148.75,31.489199999999997,149.375,31.647199999999998,150,31.647199999999998C150.625,31.647199999999998,151.25,29.714,151.875,29.714C152.5,29.714,153.125,29.824133333333332,153.75,30.044399999999996C154.375,30.26466666666666,155,33.3904,155.625,33.3904C156.25,33.3904,156.875,32.9596,157.5,32.098C158.125,31.2364,158.75,19.368333333333332,159.375,15.5016C160,11.634866666666666,160.625,8.897599999999999,161.25,8.897599999999999C161.875,8.897599999999999,162.5,18.508266666666664,163.125,20.9672C163.75,23.426133333333333,164.375,24.6556,165,24.6556C165.625,24.6556,166.25,18.0932,166.875,18.0932C167.5,18.0932,168.125,28.896799999999995,168.75,29.6224C169.375,30.348000000000003,170,30.710800000000003,170.625,30.710800000000003C171.25,30.710800000000003,171.875,30.320800000000002,172.5,30.320800000000002C173.125,30.320800000000002,173.75,30.43746666666667,174.375,30.6708C175,30.90413333333333,175.625,36.2464,176.25,36.2464C176.875,36.2464,177.5,34.6156,178.125,34.6156C178.75,34.6156,179.375,34.7656,180,34.9156L180,40C179.375,40,178.75,40,178.125,40C177.5,40,176.875,40,176.25,40C175.625,40,175,40,174.375,40C173.75,40,173.125,40,172.5,40C171.875,40,171.25,40,170.625,40C170,40,169.375,40,168.75,40C168.125,40,167.5,40,166.875,40C166.25,40,165.625,40,165,40C164.375,40,163.75,40,163.125,40C162.5,40,161.875,40,161.25,40C160.625,40,160,40,159.375,40C158.75,40,158.125,40,157.5,40C156.875,40,156.25,40,155.625,40C155,40,154.375,40,153.75,40C153.125,40,152.5,40,151.875,40C151.25,40,150.625,40,150,40C149.375,40,148.75,40,148.125,40C147.5,40,146.875,40,146.25,40C145.625,40,145,40,144.375,40C143.75,40,143.125,40,142.5,40C141.875,40,141.25,40,140.625,40C140,40,139.375,40,138.75,40C138.125,40,137.5,40,136.875,40C136.25,40,135.625,40,135,40C134.375,40,133.75,40,133.125,40C132.5,40,131.875,40,131.25,40C130.625,40,130,40,129.375,40C128.75,40,128.125,40,127.5,40C126.875,40,126.25,40,125.625,40C125,40,124.375,40,123.75,40C123.125,40,122.5,40,121.875,40C121.25,40,120.625,40,120,40C119.375,40,118.75,40,118.125,40C117.5,40,116.875,40,116.25,40C115.625,40,115,40,114.375,40C113.75,40,113.125,40,112.5,40C111.875,40,111.25,40,110.625,40C109.375,40,108.125,40,106.875,40C106.25,40,105.625,40,105,40C104.375,40,103.75,40,103.125,40C102.5,40,101.875,40,101.25,40C100.625,40,100,40,99.375,40C98.75,40,98.125,40,97.5,40C96.25,40,95,40,93.75,40C91.25,40,88.75,40,86.25,40C85.625,40,85,40,84.375,40C83.75,40,83.125,40,82.5,40C81.875,40,81.25,40,80.625,40C79.375,40,78.125,40,76.875,40C76.25,40,75.625,40,75,40C74.375,40,73.75,40,73.125,40C71.875,40,70.625,40,69.375,40C66.25,40,63.125,40,60,40C59.375,40,58.75,40,58.125,40C57.5,40,56.875,40,56.25,40C52.5,40,48.75,40,45,40C36.875,40,28.75,40,20.625,40C19.375,40,18.125,40,16.875,40C11.25,40,5.625,40,0,40Z"></path><path class="line" stroke="black" fill="none" d="M0,38.443200000000004C5.625,38.215,11.25,37.9868,16.875,37.9868C18.125,37.9868,19.375,39.6804,20.625,39.6804C28.75,39.6804,36.875,36.782,45,36.782C48.75,36.782,52.5,37.367599999999996,56.25,38.5388C56.875,38.734,57.5,39.7988,58.125,39.7988C58.75,39.7988,59.375,39.74704888888889,60,39.7172C63.125,39.56795555555555,66.25,39.0708,69.375,39.0708C70.625,39.0708,71.875,39.20413333333333,73.125,39.342C73.75,39.41093333333333,74.375,39.5112,75,39.5844C75.625,39.6576,76.25,39.7812,76.875,39.7812C78.125,39.7812,79.375,39.747600000000006,80.625,39.739200000000004C81.25,39.73500000000001,81.875,39.7308,82.5,39.7308C83.125,39.7308,83.75,39.852,84.375,39.852C85,39.852,85.625,39.846133333333334,86.25,39.8344C88.75,39.78746666666668,91.25,38.7368,93.75,38.7368C95,38.7368,96.25,39.24702222222223,97.5,39.4928C98.125,39.61568888888889,98.75,39.82933333333334,99.375,39.8568C100,39.88426666666666,100.625,39.897999999999996,101.25,39.897999999999996C101.875,39.897999999999996,102.5,39.7592,103.125,39.7592C103.75,39.7592,104.375,39.8136,105,39.8136C105.625,39.8136,106.25,39.72691111111111,106.875,39.693999999999996C108.125,39.62817777777777,109.375,39.58,110.625,39.58C111.25,39.58,111.875,39.7944,112.5,39.7984C113.125,39.8024,113.75,39.8044,114.375,39.8044C115,39.8044,115.625,39.778466666666674,116.25,39.7424C116.875,39.70633333333333,117.5,39.588,118.125,39.588C118.75,39.588,119.375,39.670399999999994,120,39.672C120.625,39.6736,121.25,39.6744,121.875,39.6744C122.5,39.6744,123.125,39.272800000000004,123.75,39.272800000000004C124.375,39.272800000000004,125,39.2952,125.625,39.2952C126.25,39.2952,126.875,35.2532,127.5,35.2532C128.125,35.2532,128.75,37.1676,129.375,37.1676C130,37.1676,130.625,36.306400000000004,131.25,36.306400000000004C131.875,36.306400000000004,132.5,37.692800000000005,133.125,37.692800000000005C133.75,37.692800000000005,134.375,33.010799999999996,135,33.010799999999996C135.625,33.010799999999996,136.25,35.4128,136.875,35.4128C137.5,35.4128,138.125,30.437599999999996,138.75,30.437599999999996C139.375,30.437599999999996,140,34.708800000000004,140.625,34.708800000000004C141.25,34.708800000000004,141.875,24.153599999999997,142.5,24.153599999999997C143.125,24.153599999999997,143.75,27.952666666666666,144.375,28.1508C145,28.348933333333335,145.625,28.249866666666666,146.25,28.448C146.875,28.646133333333335,147.5,30.8572,148.125,31.173199999999998C148.75,31.489199999999997,149.375,31.647199999999998,150,31.647199999999998C150.625,31.647199999999998,151.25,29.714,151.875,29.714C152.5,29.714,153.125,29.824133333333332,153.75,30.044399999999996C154.375,30.26466666666666,155,33.3904,155.625,33.3904C156.25,33.3904,156.875,32.9596,157.5,32.098C158.125,31.2364,158.75,19.368333333333332,159.375,15.5016C160,11.634866666666666,160.625,8.897599999999999,161.25,8.897599999999999C161.875,8.897599999999999,162.5,18.508266666666664,163.125,20.9672C163.75,23.426133333333333,164.375,24.6556,165,24.6556C165.625,24.6556,166.25,18.0932,166.875,18.0932C167.5,18.0932,168.125,28.896799999999995,168.75,29.6224C169.375,30.348000000000003,170,30.710800000000003,170.625,30.710800000000003C171.25,30.710800000000003,171.875,30.320800000000002,172.5,30.320800000000002C173.125,30.320800000000002,173.75,30.43746666666667,174.375,30.6708C175,30.90413333333333,175.625,36.2464,176.25,36.2464C176.875,36.2464,177.5,34.6156,178.125,34.6156C178.75,34.6156,179.375,34.7656,180,34.9156"></path><path class="axis-ceiling" stroke-width="1" stroke="black" fill="none" d="M175,0L180,0"></path><text class="axis-ceiling-label" font-family="sans-serif" text-anchor="end" font-size="10px" x="170" y="2.5">100000</text></g></svg>