<svg xmlns="http://www.w3.org/2000/svg" viewBox="0 0 180 60"><g transform="translate(0,20)"><path class="area" fill="rgba(0, 0, 0, 0.2)" d="M0,11.606864274570983C1.4634146341463417,15.059802392095683,2.926829268292683,18.512740509620382,4.390243902439025,32.32449297971919C4.634146341463415,34.62645172473565,4.878048780487805,40,5.121951219512195,40C5.365853658536586,40,5.609756097560976,23.712948517940717,5.853658536585367,23.712948517940717C62.92682926829268,23.712948517940717,120,28.081123244929795,177.0731707317073,28.081123244929795C177.3170731707317,28.081123244929795,177.5609756097561,28.081123244929795,177.8048780487805,28.081123244929795C178.0487804878049,28.081123244929795,178.29268292682926,28.081123244929795,178.53658536585365,28.081123244929795C178.78048780487805,28.081123244929795,179.02439024390245,28.081123244929795,179.26829268292684,28.081123244929795C179.51219512195124,28.081123244929795,179.7560975609756,15.163806552262091,180,2.2464898595943827L180,40C179.7560975609756,40,179.51219512195124,40,179.26829268292684,40C179.02439024390245,40,178.78048780487805,40,178.53658536585365,40C178.29268292682926,40,178.0487804878049,40,177.8048780487805,40C177.5609756097561,40,177.3170731707317,40,177.0731707317073,40C120,40,62.92682926829268,40,5.853658536585367,40C5.609756097560976,40,5.365853658536586,40,5.121951219512195,40C4.878048780487805,40,4.634146341463415,40,4.390243902439025,40C2.926829268292683,40,1.4634146341463417,40,0,40Z"></path><path class="line" stroke="black" fill="none" d="M0,11.606864274570983C1.4634146341463417,15.059802392095683,2.926829268292683,18.512740509620382,4.390243902439025,32.32449297971919C4.634146341463415,34.62645172473565,4.878048780487805,40,5.121951219512195,40C5.365853658536586,40,5.609756097560976,23.712948517940717,5.853658536585367,23.712948517940717C62.92682926829268,23.712948517940717,120,28.081123244929795,177.0731707317073,28.081123244929795C177.3170731707317,28.081123244929795,177.5609756097561,28.081123244929795,177.8048780487805,28.081123244929795C178.0487804878049,28.081123244929795,178.29268292682926,28.081123244929795,178.53658536585365,28.081123244929795C178.78048780487805,28.081123244929795,179.02439024390245,28.081123244929795,179.26829268292684,28.081123244929795C179.51219512195124,28.081123244929795,179.7560975609756,15.163806552262091,180,2.2464898595943827"></path><path class="axis-ceiling" stroke-width="1" stroke="black" fill="none" d="M175,0L180,0"></path><text class="axis-ceiling-label" font-family="sans-serif" text-anchor="end" font-size="10px" x="170" y="2.5">450</text></g></svg>