<svg xmlns="http://www.w3.org/2000/svg" viewBox="0 0 180 60"><g transform="translate(0,20)"><path class="area" fill="rgba(0, 0, 0, 0.2)" d="M0,35.4128C1.0169491525423728,32.9252,2.0338983050847457,30.437599999999996,3.0508474576271185,30.437599999999996C4.067796610169491,30.437599999999996,5.084745762711864,34.708800000000004,6.101694915254237,34.708800000000004C7.11864406779661,34.708800000000004,8.135593220338983,24.153599999999997,9.152542372881356,24.153599999999997C10.169491525423728,24.153599999999997,11.186440677966102,27.952666666666666,12.203389830508474,28.1508C13.220338983050846,28.348933333333335,14.23728813559322,28.249866666666666,15.254237288135592,28.448C16.271186440677965,28.646133333333335,17.28813559322034,30.8572,18.305084745762713,31.173199999999998C19.322033898305087,31.489199999999997,20.338983050847457,31.647199999999998,21.35593220338983,31.647199999999998C22.372881355932204,31.647199999999998,23.389830508474574,29.714,24.406779661016948,29.714C25.423728813559322,29.714,26.440677966101696,29.824133333333332,27.45762711864407,30.044399999999996C28.47457627118644,30.26466666666666,29.491525423728813,33.3904,30.508474576271183,33.3904C31.525423728813557,33.3904,32.54237288135593,32.9596,33.559322033898304,32.098C34.57627118644068,31.2364,35.59322033898305,19.368333333333332,36.610169491525426,15.5016C37.6271186440678,11.634866666666674,38.644067796610166,8.897599999999999,39.66101694915254,8.897599999999999C40.67796610169491,8.897599999999999,41.69491525423729,18.508266666666657,42.71186440677966,20.9672C43.728813559322035,23.426133333333333,44.7457627118644,24.6556,45.762711864406775,24.6556C46.77966101694915,24.6556,47.79661016949152,18.0932,48.813559322033896,18.0932C49.83050847457627,18.0932,50.847457627118644,28.896799999999995,51.86440677966102,29.6224C52.88135593220339,30.348000000000003,53.898305084745765,30.710800000000003,54.91525423728814,30.710800000000003C55.93220338983051,30.710800000000003,56.94915254237288,30.320800000000002,57.96610169491525,30.320800000000002C58.983050847457626,30.320800000000002,59.99999999999999,30.43746666666667,61.01694915254237,30.6708C62.03389830508474,30.904133333333334,63.05084745762712,36.2464,64.0677966101695,36.2464C65.08474576271186,36.2464,66.10169491525424,35.063266666666664,67.11864406779661,34.6156C68.13559322033899,34.16793333333333,69.15254237288136,33.5604,70.16949152542374,33.5604C71.1864406779661,33.5604,72.20338983050848,34.870799999999996,73.22033898305085,34.8908C74.23728813559322,34.9108,75.2542372881356,34.9208,76.27118644067797,34.9208C77.28813559322033,34.9208,78.30508474576271,33.8952,79.32203389830508,33.8952C80.33898305084746,33.8952,81.35593220338983,35.2644,82.37288135593221,35.8388C83.38983050847457,36.413199999999996,84.40677966101696,37.3416,85.42372881355932,37.3416C86.4406779661017,37.3416,87.45762711864407,33.029199999999996,88.47457627118645,33.029199999999996C89.49152542372882,33.029199999999996,90.50847457627118,37.2164,91.52542372881355,37.2164C92.54237288135593,37.2164,93.55932203389831,34.3292,94.57627118644069,34.3292C95.59322033898306,34.3292,96.61016949152543,35.7328,97.62711864406779,35.7328C98.64406779661016,35.7328,99.66101694915254,28.6416,100.6779661016949,28.6416C101.69491525423729,28.6416,102.71186440677965,29.062999999999995,103.72881355932203,29.7776C104.7457627118644,30.4922,105.76271186440678,32.9292,106.77966101694915,32.9292C107.79661016949153,32.9292,108.8135593220339,32.2966,109.83050847457628,31.7536C110.84745762711864,31.2106,111.86440677966102,30.473866666666666,112.88135593220339,29.6712C113.89830508474576,28.868533333333332,114.91525423728814,26.937600000000003,115.9322033898305,26.937600000000003C116.94915254237289,26.937600000000003,117.96610169491525,30.03066666666666,118.98305084745763,31.3152C120,32.599733333333326,121.01694915254237,33.87246666666667,122.03389830508473,34.644800000000004C123.05084745762711,35.41713333333335,124.0677966101695,35.949200000000005,125.08474576271188,35.949200000000005C126.10169491525424,35.949200000000005,127.11864406779662,32.2972,128.135593220339,32.2972C129.15254237288136,32.2972,130.16949152542372,37.1588,131.1864406779661,37.1588C132.20338983050846,37.1588,133.22033898305085,26.7712,134.23728813559322,26.7712C135.25423728813558,26.7712,136.27118644067798,28.510400000000004,137.28813559322035,28.510400000000004C138.3050847457627,28.510400000000004,139.3220338983051,27.408933333333334,140.33898305084747,27.0916C141.35593220338984,26.77426666666667,142.3728813559322,26.84313333333333,143.38983050847457,26.6064C144.40677966101694,26.369666666666667,145.42372881355934,25.6712,146.4406779661017,25.6712C147.45762711864407,25.6712,148.47457627118644,28.391200000000005,149.4915254237288,28.391200000000005C150.50847457627117,28.391200000000005,151.52542372881356,26.1856,152.54237288135593,26.1856C153.5593220338983,26.1856,154.5762711864407,26.888266666666667,155.59322033898306,27.2804C156.61016949152543,27.67253333333333,157.6271186440678,28.5384,158.64406779661016,28.5384C159.66101694915253,28.5384,160.67796610169492,25.612399999999997,161.6949152542373,25.612399999999997C162.71186440677965,25.612399999999997,163.72881355932205,25.957066666666666,164.74576271186442,26.6464C165.76271186440678,27.33573333333333,166.77966101694915,28.73333333333334,167.79661016949152,30.1384C168.81355932203388,31.54346666666667,169.83050847457628,35.0768,170.84745762711864,35.0768C171.864406779661,35.0768,172.8813559322034,26.25,173.89830508474577,26.25C174.91525423728814,26.25,175.93220338983053,28.33659999999999,176.9491525423729,29.7656C177.96610169491527,31.194599999999994,178.98305084745763,33.009299999999996,180,34.824L180,40C178.98305084745763,40,177.96610169491527,40,176.9491525423729,40C175.93220338983053,40,174.91525423728814,40,173.89830508474577,40C172.8813559322034,40,171.864406779661,40,170.84745762711864,40C169.83050847457628,40,168.81355932203388,40,167.79661016949152,40C166.77966101694915,40,165.76271186440678,40,164.74576271186442,40C163.72881355932205,40,162.71186440677965,40,161.6949152542373,40C160.67796610169492,40,159.66101694915253,40,158.64406779661016,40C157.6271186440678,40,156.61016949152543,40,155.59322033898306,40C154.5762711864407,40,153.5593220338983,40,152.54237288135593,40C151.52542372881356,40,150.50847457627117,40,149.4915254237288,40C148.47457627118644,40,147.45762711864407,40,146.4406779661017,40C145.42372881355934,40,144.40677966101694,40,143.38983050847457,40C142.3728813559322,40,141.35593220338984,40,140.33898305084747,40C139.3220338983051,40,138.3050847457627,40,137.28813559322035,40C136.27118644067798,40,135.25423728813558,40,134.23728813559322,40C133.22033898305085,40,132.20338983050846,40,131.1864406779661,40C130.16949152542372,40,129.15254237288136,40,128.135593220339,40C127.11864406779662,40,126.10169491525424,40,125.08474576271188,40C124.0677966101695,40,123.05084745762711,40,122.03389830508473,40C121.01694915254237,40,120,40,118.98305084745763,40C117.96610169491525,40,116.94915254237289,40,115.9322033898305,40C114.91525423728814,40,113.89830508474576,40,112.88135593220339,40C111.86440677966102,40,110.84745762711864,40,109.83050847457628,40C108.8135593220339,40,107.79661016949153,40,106.77966101694915,40C105.76271186440678,40,104.7457627118644,40,103.72881355932203,40C102.71186440677965,40,101.69491525423729,40,100.6779661016949,40C99.66101694915254,40,98.64406779661016,40,97.62711864406779,40C96.61016949152543,40,95.59322033898306,40,94.57627118644069,40C93.55932203389831,40,92.54237288135593,40,91.52542372881355,40C90.50847457627118,40,89.49152542372882,40,88.47457627118645,40C87.45762711864407,40,86.4406779661017,40,85.42372881355932,40C84.40677966101696,40,83.38983050847457,40,82.37288135593221,40C81.35593220338983,40,80.33898305084746,40,79.32203389830508,40C78.30508474576271,40,77.28813559322033,40,76.27118644067797,40C75.2542372881356,40,74.23728813559322,40,73.22033898305085,40C72.20338983050848,40,71.1864406779661,40,70.16949152542374,40C69.15254237288136,40,68.13559322033899,40,67.11864406779661,40C66.10169491525424,40,65.08474576271186,40,64.0677966101695,40C63.05084745762712,40,62.03389830508474,40,61.01694915254237,40C59.99999999999999,40,58.983050847457626,40,57.96610169491525,40C56.94915254237288,40,55.93220338983051,40,54.91525423728814,40C53.898305084745765,40,52.88135593220339,40,51.86440677966102,40C50.847457627118644,40,49.83050847457627,40,48.813559322033896,40C47.79661016949152,40,46.77966101694915,40,45.762711864406775,40C44.7457627118644,40,43.728813559322035,40,42.71186440677966,40C41.69491525423729,40,40.67796610169491,40,39.66101694915254,40C38.644067796610166,40,37.6271186440678,40,36.610169491525426,40C35.59322033898305,40,34.57627118644068,40,33.559322033898304,40C32.54237288135593,40,31.525423728813557,40,30.508474576271183,40C29.491525423728813,40,28.47457627118644,40,27.45762711864407,40C26.440677966101696,40,25.423728813559322,40,24.406779661016948,40C23.389830508474574,40,22.372881355932204,40,21.35593220338983,40C20.338983050847457,40,19.322033898305087,40,18.305084745762713,40C17.28813559322034,40,16.271186440677965,40,15.254237288135592,40C14.23728813559322,40,13.220338983050846,40,12.203389830508474,40C11.186440677966102,40,10.169491525423728,40,9.152542372881356,40C8.135593220338983,40,7.11864406779661,40,6.101694915254237,40C5.084745762711864,40,4.067796610169491,40,3.0508474576271185,40C2.0338983050847457,40,1.0169491525423728,40,0,40Z"></path><path class="line" stroke="black" fill="none" d="M0,35.4128C1.0169491525423728,32.9252,2.0338983050847457,30.437599999999996,3.0508474576271185,30.437599999999996C4.067796610169491,30.437599999999996,5.084745762711864,34.708800000000004,6.101694915254237,34.708800000000004C7.11864406779661,34.708800000000004,8.135593220338983,24.153599999999997,9.152542372881356,24.153599999999997C10.169491525423728,24.153599999999997,11.186440677966102,27.952666666666666,12.203389830508474,28.1508C13.220338983050846,28.348933333333335,14.23728813559322,28.249866666666666,15.254237288135592,28.448C16.271186440677965,28.646133333333335,17.28813559322034,30.8572,18.305084745762713,31.173199999999998C19.322033898305087,31.489199999999997,20.338983050847457,31.647199999999998,21.35593220338983,31.647199999999998C22.372881355932204,31.647199999999998,23.389830508474574,29.714,24.406779661016948,29.714C25.423728813559322,29.714,26.440677966101696,29.824133333333332,27.45762711864407,30.044399999999996C28.47457627118644,30.26466666666666,29.491525423728813,33.3904,30.508474576271183,33.3904C31.525423728813557,33.3904,32.54237288135593,32.9596,33.559322033898304,32.098C34.57627118644068,31.2364,35.59322033898305,19.368333333333332,36.610169491525426,15.5016C37.6271186440678,11.634866666666674,38.644067796610166,8.897599999999999,39.66101694915254,8.897599999999999C40.67796610169491,8.897599999999999,41.69491525423729,18.508266666666657,42.71186440677966,20.9672C43.728813559322035,23.426133333333333,44.7457627118644,24.6556,45.762711864406775,24.6556C46.77966101694915,24.6556,47.79661016949152,18.0932,48.813559322033896,18.0932C49.83050847457627,18.0932,50.847457627118644,28.896799999999995,51.86440677966102,29.6224C52.88135593220339,30.348000000000003,53.898305084745765,30.710800000000003,54.91525423728814,30.710800000000003C55.93220338983051,30.710800000000003,56.94915254237288,30.320800000000002,57.96610169491525,30.320800000000002C58.983050847457626,30.320800000000002,59.99999999999999,30.43746666666667,61.01694915254237,30.6708C62.03389830508474,30.904133333333334,63.05084745762712,36.2464,64.0677966101695,36.2464C65.08474576271186,36.2464,66.10169491525424,35.063266666666664,67.11864406779661,34.6156C68.13559322033899,34.16793333333333,69.15254237288136,33.5604,70.16949152542374,33.5604C71.1864406779661,33.5604,72.20338983050848,34.870799999999996,73.22033898305085,34.8908C74.23728813559322,34.9108,75.2542372881356,34.9208,76.27118644067797,34.9208C77.28813559322033,34.9208,78.30508474576271,33.8952,79.32203389830508,33.8952C80.33898305084746,33.8952,81.35593220338983,35.2644,82.37288135593221,35.8388C83.38983050847457,36.413199999999996,84.40677966101696,37.3416,85.42372881355932,37.3416C86.4406779661017,37.3416,87.45762711864407,33.029199999999996,88.47457627118645,33.029199999999996C89.49152542372882,33.029199999999996,90.50847457627118,37.2164,91.52542372881355,37.2164C92.54237288135593,37.2164,93.55932203389831,34.3292,94.57627118644069,34.3292C95.59322033898306,34.3292,96.61016949152543,35.7328,97.62711864406779,35.7328C98.64406779661016,35.7328,99.66101694915254,28.6416,100.6779661016949,28.6416C101.69491525423729,28.6416,102.71186440677965,29.062999999999995,103.72881355932203,29.7776C104.7457627118644,30.4922,105.76271186440678,32.9292,106.77966101694915,32.9292C107.79661016949153,32.9292,108.8135593220339,32.2966,109.83050847457628,31.7536C110.84745762711864,31.2106,111.86440677966102,30.473866666666666,112.88135593220339,29.6712C113.89830508474576,28.868533333333332,114.91525423728814,26.937600000000003,115.9322033898305,26.937600000000003C116.94915254237289,26.937600000000003,117.96610169491525,30.03066666666666,118.98305084745763,31.3152C120,32.599733333333326,121.01694915254237,33.87246666666667,122.03389830508473,34.644800000000004C123.05084745762711,35.41713333333335,124.0677966101695,35.949200000000005,125.08474576271188,35.949200000000005C126.10169491525424,35.949200000000005,127.11864406779662,32.2972,128.135593220339,32.2972C129.15254237288136,32.2972,130.16949152542372,37.1588,131.1864406779661,37.1588C132.20338983050846,37.1588,133.22033898305085,26.7712,134.23728813559322,26.7712C135.25423728813558,26.7712,136.27118644067798,28.510400000000004,137.28813559322035,28.510400000000004C138.3050847457627,28.510400000000004,139.3220338983051,27.408933333333334,140.33898305084747,27.0916C141.35593220338984,26.77426666666667,142.3728813559322,26.84313333333333,143.38983050847457,26.6064C144.40677966101694,26.369666666666667,145.42372881355934,25.6712,146.4406779661017,25.6712C147.45762711864407,25.6712,148.47457627118644,28.391200000000005,149.4915254237288,28.391200000000005C150.50847457627117,28.391200000000005,151.52542372881356,26.1856,152.54237288135593,26.1856C153.5593220338983,26.1856,154.5762711864407,26.888266666666667,155.59322033898306,27.2804C156.61016949152543,27.67253333333333,157.6271186440678,28.5384,158.64406779661016,28.5384C159.66101694915253,28.5384,160.67796610169492,25.612399999999997,161.6949152542373,25.612399999999997C162.71186440677965,25.612399999999997,163.72881355932205,25.957066666666666,164.74576271186442,26.6464C165.76271186440678,27.33573333333333,166.77966101694915,28.73333333333334,167.79661016949152,30.1384C168.81355932203388,31.54346666666667,169.83050847457628,35.0768,170.84745762711864,35.0768C171.864406779661,35.0768,172.8813559322034,26.25,173.89830508474577,26.25C174.91525423728814,26.25,175.93220338983053,28.33659999999999,176.9491525423729,29.7656C177.96610169491527,31.194599999999994,178.98305084745763,33.009299999999996,180,34.824"></path><path class="axis-ceiling" stroke-width="1" stroke="black" fill="none" d="M175,0L180,0"></path><text class="axis-ceiling-label" font-family="sans-serif" text-anchor="end" font-size="10px" x="170" y="2.5">100000</text></g></svg>