<svg xmlns="http://www.w3.org/2000/svg" viewBox="0 0 180 60"><g transform="translate(0,20)"><path class="area" fill="rgba(0, 0, 0, 0.2)" d="M0,37.216C0.5607476635514018,38.4974,1.1214953271028039,39.7788,1.6822429906542056,39.7788C4.485981308411215,39.7788,7.289719626168225,38.896,10.093457943925234,38.896C10.654205607476635,38.896,11.214953271028037,39.806400000000004,11.775700934579438,39.806400000000004C12.897196261682241,39.806400000000004,14.018691588785046,39.7112126984127,15.140186915887849,39.6436C19.06542056074766,39.40695555555555,22.990654205607477,38.67985185185186,26.91588785046729,38.443200000000004C31.962616822429904,38.138933333333334,37.00934579439252,37.9868,42.05607476635514,37.9868C43.17757009345794,37.9868,44.299065420560744,39.6804,45.420560747663544,39.6804C52.71028037383177,39.6804,59.99999999999999,36.782,67.28971962616822,36.782C70.65420560747663,36.782,74.01869158878505,37.367599999999996,77.38317757009345,38.5388C77.94392523364486,38.734,78.50467289719626,39.7988,79.06542056074767,39.7988C79.62616822429906,39.7988,80.18691588785047,39.74704888888889,80.74766355140187,39.7172C83.55140186915888,39.56795555555555,86.35514018691589,39.0708,89.1588785046729,39.0708C90.2803738317757,39.0708,91.4018691588785,39.20413333333333,92.5233644859813,39.342C93.0841121495327,39.41093333333333,93.64485981308411,39.5112,94.2056074766355,39.5844C94.7663551401869,39.6576,95.32710280373831,39.7812,95.88785046728971,39.7812C97.00934579439252,39.7812,98.13084112149532,39.747600000000006,99.25233644859813,39.739200000000004C99.81308411214953,39.73500000000001,100.37383177570094,39.7308,100.93457943925233,39.7308C101.49532710280373,39.7308,102.05607476635514,39.852,102.61682242990653,39.852C103.17757009345793,39.852,103.73831775700934,39.846133333333334,104.29906542056074,39.8344C106.54205607476635,39.78746666666668,108.78504672897195,38.7368,111.02803738317756,38.7368C112.14953271028037,38.7368,113.27102803738316,39.24702222222223,114.39252336448597,39.4928C114.95327102803738,39.61568888888889,115.51401869158877,39.82933333333334,116.07476635514018,39.8568C116.63551401869158,39.88426666666666,117.19626168224299,39.897999999999996,117.75700934579439,39.897999999999996C118.31775700934578,39.897999999999996,118.8785046728972,39.7592,119.43925233644859,39.7592C119.99999999999999,39.7592,120.5607476635514,39.8136,121.12149532710279,39.8136C121.6822429906542,39.8136,122.2429906542056,39.72691111111111,122.80373831775701,39.693999999999996C123.92523364485982,39.62817777777777,125.04672897196261,39.58,126.16822429906541,39.58C126.72897196261681,39.58,127.28971962616822,39.7944,127.85046728971962,39.7984C128.411214953271,39.8024,128.97196261682242,39.8044,129.53271028037383,39.8044C130.09345794392524,39.8044,130.65420560747663,39.778466666666674,131.21495327102804,39.7424C131.77570093457945,39.70633333333333,132.33644859813083,39.588,132.89719626168224,39.588C133.45794392523365,39.588,134.01869158878503,39.670399999999994,134.57943925233644,39.672C135.14018691588785,39.6736,135.70093457943923,39.6744,136.26168224299064,39.6744C136.82242990654206,39.6744,137.38317757009344,39.272800000000004,137.94392523364485,39.272800000000004C138.50467289719626,39.272800000000004,139.06542056074764,39.2952,139.62616822429905,39.2952C140.18691588785046,39.2952,140.74766355140184,35.2532,141.30841121495325,35.2532C141.86915887850466,35.2532,142.42990654205607,37.1676,142.99065420560748,37.1676C143.5514018691589,37.1676,144.11214953271028,36.306400000000004,144.6728971962617,36.306400000000004C145.2336448598131,36.306400000000004,145.79439252336448,37.692800000000005,146.3551401869159,37.692800000000005C146.9158878504673,37.692800000000005,147.47663551401868,33.010799999999996,148.0373831775701,33.010799999999996C148.5981308411215,33.010799999999996,149.15887850467288,35.4128,149.7196261682243,35.4128C150.2803738317757,35.4128,150.8411214953271,30.437599999999996,151.4018691588785,30.437599999999996C151.9626168224299,30.437599999999996,152.5233644859813,34.708800000000004,153.0841121495327,34.708800000000004C153.6448598130841,34.708800000000004,154.2056074766355,24.153599999999997,154.7663551401869,24.153599999999997C155.3271028037383,24.153599999999997,155.8878504672897,27.95266666666667,156.4485981308411,28.1508C157.00934579439252,28.348933333333335,157.57009345794393,28.249866666666666,158.13084112149534,28.448C158.69158878504675,28.64613333333333,159.25233644859813,30.8572,159.81308411214954,31.173199999999998C160.37383177570095,31.489199999999997,160.93457943925233,31.647199999999998,161.49532710280374,31.647199999999998C162.05607476635515,31.647199999999998,162.61682242990653,29.714,163.17757009345794,29.714C163.73831775700936,29.714,164.29906542056074,29.824133333333332,164.85981308411215,30.044399999999996C165.42056074766356,30.26466666666666,165.98130841121494,33.3904,166.54205607476635,33.3904C167.10280373831776,33.3904,167.66355140186914,32.9596,168.22429906542055,32.098C168.78504672897196,31.2364,169.34579439252335,19.368333333333332,169.90654205607476,15.5016C170.46728971962617,11.634866666666666,171.02803738317755,8.897599999999999,171.58878504672896,8.897599999999999C172.14953271028037,8.897599999999999,172.71028037383178,18.50826666666662,173.2710280373832,20.9672C173.8317757009346,23.426133333333333,174.39252336448598,24.6556,174.9532710280374,24.6556C175.5140186915888,24.6556,176.07476635514018,18.0932,176.6355140186916,18.0932C177.196261682243,18.0932,177.7570093457944,28.896799999999995,178.3177570093458,29.6224C178.8785046728972,30.348000000000003,179.4392523364486,30.529400000000003,180,30.710800000000003L180,40C179.4392523364486,40,178.8785046728972,40,178.3177570093458,40C177.7570093457944,40,177.196261682243,40,176.6355140186916,40C176.07476635514018,40,175.5140186915888,40,174.9532710280374,40C174.39252336448598,40,173.8317757009346,40,173.2710280373832,40C172.71028037383178,40,172.14953271028037,40,171.58878504672896,40C171.02803738317755,40,170.46728971962617,40,169.90654205607476,40C169.34579439252335,40,168.78504672897196,40,168.22429906542055,40C167.66355140186914,40,167.10280373831776,40,166.54205607476635,40C165.98130841121494,40,165.42056074766356,40,164.85981308411215,40C164.29906542056074,40,163.73831775700936,40,163.17757009345794,40C162.61682242990653,40,162.05607476635515,40,161.49532710280374,40C160.93457943925233,40,160.37383177570095,40,159.81308411214954,40C159.25233644859813,40,158.69158878504675,40,158.13084112149534,40C157.57009345794393,40,157.00934579439252,40,156.4485981308411,40C155.8878504672897,40,155.3271028037383,40,154.7663551401869,40C154.2056074766355,40,153.6448598130841,40,153.0841121495327,40C152.5233644859813,40,151.9626168224299,40,151.4018691588785,40C150.8411214953271,40,150.2803738317757,40,149.7196261682243,40C149.15887850467288,40,148.5981308411215,40,148.0373831775701,40C147.47663551401868,40,146.9158878504673,40,146.3551401869159,40C145.79439252336448,40,145.2336448598131,40,144.6728971962617,40C144.11214953271028,40,143.5514018691589,40,142.99065420560748,40C142.42990654205607,40,141.86915887850466,40,141.30841121495325,40C140.74766355140184,40,140.18691588785046,40,139.62616822429905,40C139.06542056074764,40,138.50467289719626,40,137.94392523364485,40C137.38317757009344,40,136.82242990654206,40,136.26168224299064,40C135.70093457943923,40,135.14018691588785,40,134.57943925233644,40C134.01869158878503,40,133.45794392523365,40,132.89719626168224,40C132.33644859813083,40,131.77570093457945,40,131.21495327102804,40C130.65420560747663,40,130.09345794392524,40,129.53271028037383,40C128.97196261682242,40,128.411214953271,40,127.85046728971962,40C127.28971962616822,40,126.72897196261681,40,126.16822429906541,40C125.04672897196261,40,123.92523364485982,40,122.80373831775701,40C122.2429906542056,40,121.6822429906542,40,121.12149532710279,40C120.5607476635514,40,119.99999999999999,40,119.43925233644859,40C118.8785046728972,40,118.31775700934578,40,117.75700934579439,40C117.19626168224299,40,116.63551401869158,40,116.07476635514018,40C115.51401869158877,40,114.95327102803738,40,114.39252336448597,40C113.27102803738316,40,112.14953271028037,40,111.02803738317756,40C108.78504672897195,40,106.54205607476635,40,104.29906542056074,40C103.73831775700934,40,103.17757009345793,40,102.61682242990653,40C102.05607476635514,40,101.49532710280373,40,100.93457943925233,40C100.37383177570094,40,99.81308411214953,40,99.25233644859813,40C98.13084112149532,40,97.00934579439252,40,95.88785046728971,40C95.32710280373831,40,94.7663551401869,40,94.2056074766355,40C93.64485981308411,40,93.0841121495327,40,92.5233644859813,40C91.4018691588785,40,90.2803738317757,40,89.1588785046729,40C86.35514018691589,40,83.55140186915888,40,80.74766355140187,40C80.18691588785047,40,79.62616822429906,40,79.06542056074767,40C78.50467289719626,40,77.94392523364486,40,77.38317757009345,40C74.01869158878505,40,70.65420560747663,40,67.28971962616822,40C59.99999999999999,40,52.71028037383177,40,45.420560747663544,40C44.299065420560744,40,43.17757009345794,40,42.05607476635514,40C37.00934579439252,40,31.962616822429904,40,26.91588785046729,40C22.990654205607477,40,19.06542056074766,40,15.140186915887849,40C14.018691588785046,40,12.897196261682241,40,11.775700934579438,40C11.214953271028037,40,10.654205607476635,40,10.093457943925234,40C7.289719626168225,40,4.485981308411215,40,1.6822429906542056,40C1.1214953271028039,40,0.5607476635514018,40,0,40Z"></path><path class="line" stroke="black" fill="none" d="M0,37.216C0.5607476635514018,38.4974,1.1214953271028039,39.7788,1.6822429906542056,39.7788C4.485981308411215,39.7788,7.289719626168225,38.896,10.093457943925234,38.896C10.654205607476635,38.896,11.214953271028037,39.806400000000004,11.775700934579438,39.806400000000004C12.897196261682241,39.806400000000004,14.018691588785046,39.7112126984127,15.140186915887849,39.6436C19.06542056074766,39.40695555555555,22.990654205607477,38.67985185185186,26.91588785046729,38.443200000000004C31.962616822429904,38.138933333333334,37.00934579439252,37.9868,42.05607476635514,37.9868C43.17757009345794,37.9868,44.299065420560744,39.6804,45.420560747663544,39.6804C52.71028037383177,39.6804,59.99999999999999,36.782,67.28971962616822,36.782C70.65420560747663,36.782,74.01869158878505,37.367599999999996,77.38317757009345,38.5388C77.94392523364486,38.734,78.50467289719626,39.7988,79.06542056074767,39.7988C79.62616822429906,39.7988,80.18691588785047,39.74704888888889,80.74766355140187,39.7172C83.55140186915888,39.56795555555555,86.35514018691589,39.0708,89.1588785046729,39.0708C90.2803738317757,39.0708,91.4018691588785,39.20413333333333,92.5233644859813,39.342C93.0841121495327,39.41093333333333,93.64485981308411,39.5112,94.2056074766355,39.5844C94.7663551401869,39.6576,95.32710280373831,39.7812,95.88785046728971,39.7812C97.00934579439252,39.7812,98.13084112149532,39.747600000000006,99.25233644859813,39.739200000000004C99.81308411214953,39.73500000000001,100.37383177570094,39.7308,100.93457943925233,39.7308C101.49532710280373,39.7308,102.05607476635514,39.852,102.61682242990653,39.852C103.17757009345793,39.852,103.73831775700934,39.846133333333334,104.29906542056074,39.8344C106.54205607476635,39.78746666666668,108.78504672897195,38.7368,111.02803738317756,38.7368C112.14953271028037,38.7368,113.27102803738316,39.24702222222223,114.39252336448597,39.4928C114.95327102803738,39.61568888888889,115.51401869158877,39.82933333333334,116.07476635514018,39.8568C116.63551401869158,39.88426666666666,117.19626168224299,39.897999999999996,117.75700934579439,39.897999999999996C118.31775700934578,39.897999999999996,118.8785046728972,39.7592,119.43925233644859,39.7592C119.99999999999999,39.7592,120.5607476635514,39.8136,121.12149532710279,39.8136C121.6822429906542,39.8136,122.2429906542056,39.72691111111111,122.80373831775701,39.693999999999996C123.92523364485982,39.62817777777777,125.04672897196261,39.58,126.16822429906541,39.58C126.72897196261681,39.58,127.28971962616822,39.7944,127.85046728971962,39.7984C128.411214953271,39.8024,128.97196261682242,39.8044,129.53271028037383,39.8044C130.09345794392524,39.8044,130.65420560747663,39.778466666666674,131.21495327102804,39.7424C131.77570093457945,39.70633333333333,132.33644859813083,39.588,132.89719626168224,39.588C133.45794392523365,39.588,134.01869158878503,39.670399999999994,134.57943925233644,39.672C135.14018691588785,39.6736,135.70093457943923,39.6744,136.26168224299064,39.6744C136.82242990654206,39.6744,137.38317757009344,39.272800000000004,137.94392523364485,39.272800000000004C138.50467289719626,39.272800000000004,139.06542056074764,39.2952,139.62616822429905,39.2952C140.18691588785046,39.2952,140.74766355140184,35.2532,141.30841121495325,35.2532C141.86915887850466,35.2532,142.42990654205607,37.1676,142.99065420560748,37.1676C143.5514018691589,37.1676,144.11214953271028,36.306400000000004,144.6728971962617,36.306400000000004C145.2336448598131,36.306400000000004,145.79439252336448,37.692800000000005,146.3551401869159,37.692800000000005C146.9158878504673,37.692800000000005,147.47663551401868,33.010799999999996,148.0373831775701,33.010799999999996C148.5981308411215,33.010799999999996,149.15887850467288,35.4128,149.7196261682243,35.4128C150.2803738317757,35.4128,150.8411214953271,30.437599999999996,151.4018691588785,30.437599999999996C151.9626168224299,30.437599999999996,152.5233644859813,34.708800000000004,153.0841121495327,34.708800000000004C153.6448598130841,34.708800000000004,154.2056074766355,24.153599999999997,154.7663551401869,24.153599999999997C155.3271028037383,24.153599999999997,155.8878504672897,27.95266666666667,156.4485981308411,28.1508C157.00934579439252,28.348933333333335,157.57009345794393,28.249866666666666,158.13084112149534,28.448C158.69158878504675,28.64613333333333,159.25233644859813,30.8572,159.81308411214954,31.173199999999998C160.37383177570095,31.489199999999997,160.93457943925233,31.647199999999998,161.49532710280374,31.647199999999998C162.05607476635515,31.647199999999998,162.61682242990653,29.714,163.17757009345794,29.714C163.73831775700936,29.714,164.29906542056074,29.824133333333332,164.85981308411215,30.044399999999996C165.42056074766356,30.26466666666666,165.98130841121494,33.3904,166.54205607476635,33.3904C167.10280373831776,33.3904,167.66355140186914,32.9596,168.22429906542055,32.098C168.78504672897196,31.2364,169.34579439252335,19.368333333333332,169.90654205607476,15.5016C170.46728971962617,11.634866666666666,171.02803738317755,8.897599999999999,171.58878504672896,8.897599999999999C172.14953271028037,8.897599999999999,172.71028037383178,18.50826666666662,173.2710280373832,20.9672C173.8317757009346,23.426133333333333,174.39252336448598,24.6556,174.9532710280374,24.6556C175.5140186915888,24.6556,176.07476635514018,18.0932,176.6355140186916,18.0932C177.196261682243,18.0932,177.7570093457944,28.896799999999995,178.3177570093458,29.6224C178.8785046728972,30.348000000000003,179.4392523364486,30.529400000000003,180,30.710800000000003"></path><path class="axis-ceiling" stroke-width="1" stroke="black" fill="none" d="M175,0L180,0"></path><text class="axis-ceiling-label" font-family="sans-serif" text-anchor="end" font-size="10px" x="170" y="2.5">100000</text></g></svg>