<svg xmlns="http://www.w3.org/2000/svg" viewBox="0 0 180 60"><g transform="translate(0,20)"><path class="area" fill="rgba(0, 0, 0, 0.2)" d="M0,38.896C0.5825242718446602,39.351200000000006,1.1650485436893203,39.806400000000004,1.7475728155339805,39.806400000000004C2.912621359223301,39.806400000000004,4.077669902912621,39.7112126984127,5.242718446601942,39.6436C9.320388349514563,39.40695555555555,13.398058252427184,38.67985185185186,17.475728155339805,38.443200000000004C22.718446601941746,38.138933333333334,27.96116504854369,37.9868,33.20388349514563,37.9868C34.36893203883495,37.9868,35.53398058252427,39.6804,36.69902912621359,39.6804C44.271844660194176,39.6804,51.84466019417476,36.782,59.417475728155345,36.782C62.9126213592233,36.782,66.40776699029126,37.367599999999996,69.90291262135922,38.5388C70.48543689320388,38.734,71.06796116504854,39.7988,71.6504854368932,39.7988C72.23300970873787,39.7988,72.81553398058252,39.74704888888889,73.39805825242718,39.7172C76.31067961165049,39.56795555555555,79.22330097087378,39.0708,82.13592233009709,39.0708C83.30097087378641,39.0708,84.46601941747572,39.20413333333333,85.63106796116504,39.342C86.2135922330097,39.41093333333333,86.79611650485437,39.5112,87.37864077669903,39.5844C87.96116504854369,39.6576,88.54368932038835,39.7812,89.12621359223301,39.7812C90.29126213592234,39.7812,91.45631067961165,39.747600000000006,92.62135922330097,39.739200000000004C93.20388349514563,39.73500000000001,93.7864077669903,39.7308,94.36893203883496,39.7308C94.95145631067962,39.7308,95.53398058252426,39.852,96.11650485436893,39.852C96.69902912621359,39.852,97.28155339805825,39.846133333333334,97.86407766990291,39.8344C100.19417475728154,39.78746666666668,102.52427184466019,38.7368,104.85436893203882,38.7368C106.01941747572815,38.7368,107.18446601941747,39.24702222222223,108.3495145631068,39.4928C108.93203883495146,39.61568888888889,109.5145631067961,39.82933333333334,110.09708737864077,39.8568C110.67961165048543,39.88426666666666,111.26213592233009,39.897999999999996,111.84466019417475,39.897999999999996C112.42718446601941,39.897999999999996,113.00970873786409,39.7592,113.59223300970875,39.7592C114.17475728155341,39.7592,114.75728155339806,39.8136,115.33980582524272,39.8136C115.92233009708738,39.8136,116.50485436893204,39.72691111111111,117.0873786407767,39.693999999999996C118.25242718446603,39.62817777777777,119.41747572815534,39.58,120.58252427184466,39.58C121.16504854368932,39.58,121.74757281553399,39.7944,122.33009708737865,39.7984C122.91262135922331,39.8024,123.49514563106797,39.8044,124.07766990291263,39.8044C124.6601941747573,39.8044,125.24271844660194,39.77846666666667,125.8252427184466,39.7424C126.40776699029126,39.70633333333333,126.99029126213593,39.588,127.57281553398059,39.588C128.15533980582524,39.588,128.7378640776699,39.670399999999994,129.32038834951456,39.672C129.90291262135923,39.6736,130.48543689320388,39.6744,131.06796116504856,39.6744C131.6504854368932,39.6744,132.23300970873788,39.272800000000004,132.81553398058253,39.272800000000004C133.39805825242718,39.272800000000004,133.98058252427185,39.2952,134.5631067961165,39.2952C135.14563106796115,39.2952,135.72815533980582,35.2532,136.31067961165047,35.2532C136.89320388349515,35.2532,137.4757281553398,37.1676,138.05825242718447,37.1676C138.64077669902912,37.1676,139.2233009708738,36.306400000000004,139.80582524271844,36.306400000000004C140.3883495145631,36.306400000000004,140.97087378640776,37.692800000000005,141.5533980582524,37.692800000000005C142.1359223300971,37.692800000000005,142.71844660194174,33.010799999999996,143.3009708737864,33.010799999999996C143.88349514563106,33.010799999999996,144.46601941747574,35.4128,145.04854368932038,35.4128C145.63106796116503,35.4128,146.2135922330097,30.437599999999996,146.79611650485435,30.437599999999996C147.37864077669903,30.437599999999996,147.96116504854368,34.708800000000004,148.54368932038835,34.708800000000004C149.126213592233,34.708800000000004,149.70873786407768,24.153599999999997,150.29126213592232,24.153599999999997C150.87378640776697,24.153599999999997,151.45631067961165,27.95266666666667,152.0388349514563,28.1508C152.62135922330097,28.348933333333335,153.20388349514562,28.249866666666666,153.7864077669903,28.448C154.36893203883494,28.64613333333333,154.95145631067962,30.8572,155.53398058252426,31.173199999999998C156.1165048543689,31.489199999999997,156.6990291262136,31.647199999999998,157.28155339805824,31.647199999999998C157.8640776699029,31.647199999999998,158.44660194174756,29.714,159.02912621359224,29.714C159.6116504854369,29.714,160.19417475728156,29.824133333333332,160.77669902912623,30.044399999999996C161.35922330097088,30.264666666666656,161.94174757281556,33.3904,162.5242718446602,33.3904C163.10679611650485,33.3904,163.68932038834953,32.9596,164.27184466019418,32.098C164.85436893203885,31.236399999999986,165.4368932038835,19.36833333333334,166.01941747572818,15.5016C166.60194174757282,11.634866666666724,167.1844660194175,8.897599999999999,167.76699029126215,8.897599999999999C168.3495145631068,8.897599999999999,168.93203883495147,18.508266666666664,169.51456310679612,20.9672C170.09708737864077,23.426133333333333,170.67961165048544,24.6556,171.2621359223301,24.6556C171.84466019417476,24.6556,172.4271844660194,18.0932,173.0097087378641,18.0932C173.59223300970874,18.0932,174.1747572815534,28.896799999999995,174.75728155339806,29.6224C175.3398058252427,30.348000000000003,175.92233009708738,30.710800000000003,176.50485436893203,30.710800000000003C177.0873786407767,30.710800000000003,177.66990291262135,30.320800000000002,178.25242718446603,30.320800000000002C178.83495145631068,30.320800000000002,179.41747572815535,32.163000000000004,180,34.0052L180,40C179.41747572815535,40,178.83495145631068,40,178.25242718446603,40C177.66990291262135,40,177.0873786407767,40,176.50485436893203,40C175.92233009708738,40,175.3398058252427,40,174.75728155339806,40C174.1747572815534,40,173.59223300970874,40,173.0097087378641,40C172.4271844660194,40,171.84466019417476,40,171.2621359223301,40C170.67961165048544,40,170.09708737864077,40,169.51456310679612,40C168.93203883495147,40,168.3495145631068,40,167.76699029126215,40C167.1844660194175,40,166.60194174757282,40,166.01941747572818,40C165.4368932038835,40,164.85436893203885,40,164.27184466019418,40C163.68932038834953,40,163.10679611650485,40,162.5242718446602,40C161.94174757281556,40,161.35922330097088,40,160.77669902912623,40C160.19417475728156,40,159.6116504854369,40,159.02912621359224,40C158.44660194174756,40,157.8640776699029,40,157.28155339805824,40C156.6990291262136,40,156.1165048543689,40,155.53398058252426,40C154.95145631067962,40,154.36893203883494,40,153.7864077669903,40C153.20388349514562,40,152.62135922330097,40,152.0388349514563,40C151.45631067961165,40,150.87378640776697,40,150.29126213592232,40C149.70873786407768,40,149.126213592233,40,148.54368932038835,40C147.96116504854368,40,147.37864077669903,40,146.79611650485435,40C146.2135922330097,40,145.63106796116503,40,145.04854368932038,40C144.46601941747574,40,143.88349514563106,40,143.3009708737864,40C142.71844660194174,40,142.1359223300971,40,141.5533980582524,40C140.97087378640776,40,140.3883495145631,40,139.80582524271844,40C139.2233009708738,40,138.64077669902912,40,138.05825242718447,40C137.4757281553398,40,136.89320388349515,40,136.31067961165047,40C135.72815533980582,40,135.14563106796115,40,134.5631067961165,40C133.98058252427185,40,133.39805825242718,40,132.81553398058253,40C132.23300970873788,40,131.6504854368932,40,131.06796116504856,40C130.48543689320388,40,129.90291262135923,40,129.32038834951456,40C128.7378640776699,40,128.15533980582524,40,127.57281553398059,40C126.99029126213593,40,126.40776699029126,40,125.8252427184466,40C125.24271844660194,40,124.6601941747573,40,124.07766990291263,40C123.49514563106797,40,122.91262135922331,40,122.33009708737865,40C121.74757281553399,40,121.16504854368932,40,120.58252427184466,40C119.41747572815534,40,118.25242718446603,40,117.0873786407767,40C116.50485436893204,40,115.92233009708738,40,115.33980582524272,40C114.75728155339806,40,114.17475728155341,40,113.59223300970875,40C113.00970873786409,40,112.42718446601941,40,111.84466019417475,40C111.26213592233009,40,110.67961165048543,40,110.09708737864077,40C109.5145631067961,40,108.93203883495146,40,108.3495145631068,40C107.18446601941747,40,106.01941747572815,40,104.85436893203882,40C102.52427184466019,40,100.19417475728154,40,97.86407766990291,40C97.28155339805825,40,96.69902912621359,40,96.11650485436893,40C95.53398058252426,40,94.95145631067962,40,94.36893203883496,40C93.7864077669903,40,93.20388349514563,40,92.62135922330097,40C91.45631067961165,40,90.29126213592234,40,89.12621359223301,40C88.54368932038835,40,87.96116504854369,40,87.37864077669903,40C86.79611650485437,40,86.2135922330097,40,85.63106796116504,40C84.46601941747572,40,83.30097087378641,40,82.13592233009709,40C79.22330097087378,40,76.31067961165049,40,73.39805825242718,40C72.81553398058252,40,72.23300970873787,40,71.6504854368932,40C71.06796116504854,40,70.48543689320388,40,69.90291262135922,40C66.40776699029126,40,62.9126213592233,40,59.417475728155345,40C51.84466019417476,40,44.271844660194176,40,36.69902912621359,40C35.53398058252427,40,34.36893203883495,40,33.20388349514563,40C27.96116504854369,40,22.718446601941746,40,17.475728155339805,40C13.398058252427184,40,9.320388349514563,40,5.242718446601942,40C4.077669902912621,40,2.912621359223301,40,1.7475728155339805,40C1.1650485436893203,40,0.5825242718446602,40,0,40Z"></path><path class="line" stroke="black" fill="none" d="M0,38.896C0.5825242718446602,39.351200000000006,1.1650485436893203,39.806400000000004,1.7475728155339805,39.806400000000004C2.912621359223301,39.806400000000004,4.077669902912621,39.7112126984127,5.242718446601942,39.6436C9.320388349514563,39.40695555555555,13.398058252427184,38.67985185185186,17.475728155339805,38.443200000000004C22.718446601941746,38.138933333333334,27.96116504854369,37.9868,33.20388349514563,37.9868C34.36893203883495,37.9868,35.53398058252427,39.6804,36.69902912621359,39.6804C44.271844660194176,39.6804,51.84466019417476,36.782,59.417475728155345,36.782C62.9126213592233,36.782,66.40776699029126,37.367599999999996,69.90291262135922,38.5388C70.48543689320388,38.734,71.06796116504854,39.7988,71.6504854368932,39.7988C72.23300970873787,39.7988,72.81553398058252,39.74704888888889,73.39805825242718,39.7172C76.31067961165049,39.56795555555555,79.22330097087378,39.0708,82.13592233009709,39.0708C83.30097087378641,39.0708,84.46601941747572,39.20413333333333,85.63106796116504,39.342C86.2135922330097,39.41093333333333,86.79611650485437,39.5112,87.37864077669903,39.5844C87.96116504854369,39.6576,88.54368932038835,39.7812,89.12621359223301,39.7812C90.29126213592234,39.7812,91.45631067961165,39.747600000000006,92.62135922330097,39.739200000000004C93.20388349514563,39.73500000000001,93.7864077669903,39.7308,94.36893203883496,39.7308C94.95145631067962,39.7308,95.53398058252426,39.852,96.11650485436893,39.852C96.69902912621359,39.852,97.28155339805825,39.846133333333334,97.86407766990291,39.8344C100.19417475728154,39.78746666666668,102.52427184466019,38.7368,104.85436893203882,38.7368C106.01941747572815,38.7368,107.18446601941747,39.24702222222223,108.3495145631068,39.4928C108.93203883495146,39.61568888888889,109.5145631067961,39.82933333333334,110.09708737864077,39.8568C110.67961165048543,39.88426666666666,111.26213592233009,39.897999999999996,111.84466019417475,39.897999999999996C112.42718446601941,39.897999999999996,113.00970873786409,39.7592,113.59223300970875,39.7592C114.17475728155341,39.7592,114.75728155339806,39.8136,115.33980582524272,39.8136C115.92233009708738,39.8136,116.50485436893204,39.72691111111111,117.0873786407767,39.693999999999996C118.25242718446603,39.62817777777777,119.41747572815534,39.58,120.58252427184466,39.58C121.16504854368932,39.58,121.74757281553399,39.7944,122.33009708737865,39.7984C122.91262135922331,39.8024,123.49514563106797,39.8044,124.07766990291263,39.8044C124.6601941747573,39.8044,125.24271844660194,39.77846666666667,125.8252427184466,39.7424C126.40776699029126,39.70633333333333,126.99029126213593,39.588,127.57281553398059,39.588C128.15533980582524,39.588,128.7378640776699,39.670399999999994,129.32038834951456,39.672C129.90291262135923,39.6736,130.48543689320388,39.6744,131.06796116504856,39.6744C131.6504854368932,39.6744,132.23300970873788,39.272800000000004,132.81553398058253,39.272800000000004C133.39805825242718,39.272800000000004,133.98058252427185,39.2952,134.5631067961165,39.2952C135.14563106796115,39.2952,135.72815533980582,35.2532,136.31067961165047,35.2532C136.89320388349515,35.2532,137.4757281553398,37.1676,138.05825242718447,37.1676C138.64077669902912,37.1676,139.2233009708738,36.306400000000004,139.80582524271844,36.306400000000004C140.3883495145631,36.306400000000004,140.97087378640776,37.692800000000005,141.5533980582524,37.692800000000005C142.1359223300971,37.692800000000005,142.71844660194174,33.010799999999996,143.3009708737864,33.010799999999996C143.88349514563106,33.010799999999996,144.46601941747574,35.4128,145.04854368932038,35.4128C145.63106796116503,35.4128,146.2135922330097,30.437599999999996,146.79611650485435,30.437599999999996C147.37864077669903,30.437599999999996,147.96116504854368,34.708800000000004,148.54368932038835,34.708800000000004C149.126213592233,34.708800000000004,149.70873786407768,24.153599999999997,150.29126213592232,24.153599999999997C150.87378640776697,24.153599999999997,151.45631067961165,27.95266666666667,152.0388349514563,28.1508C152.62135922330097,28.348933333333335,153.20388349514562,28.249866666666666,153.7864077669903,28.448C154.36893203883494,28.64613333333333,154.95145631067962,30.8572,155.53398058252426,31.173199999999998C156.1165048543689,31.489199999999997,156.6990291262136,31.647199999999998,157.28155339805824,31.647199999999998C157.8640776699029,31.647199999999998,158.44660194174756,29.714,159.02912621359224,29.714C159.6116504854369,29.714,160.19417475728156,29.824133333333332,160.77669902912623,30.044399999999996C161.35922330097088,30.264666666666656,161.94174757281556,33.3904,162.5242718446602,33.3904C163.10679611650485,33.3904,163.68932038834953,32.9596,164.27184466019418,32.098C164.85436893203885,31.236399999999986,165.4368932038835,19.36833333333334,166.01941747572818,15.5016C166.60194174757282,11.634866666666724,167.1844660194175,8.897599999999999,167.76699029126215,8.897599999999999C168.3495145631068,8.897599999999999,168.93203883495147,18.508266666666664,169.51456310679612,20.9672C170.09708737864077,23.426133333333333,170.67961165048544,24.6556,171.2621359223301,24.6556C171.84466019417476,24.6556,172.4271844660194,18.0932,173.0097087378641,18.0932C173.59223300970874,18.0932,174.1747572815534,28.896799999999995,174.75728155339806,29.6224C175.3398058252427,30.348000000000003,175.92233009708738,30.710800000000003,176.50485436893203,30.710800000000003C177.0873786407767,30.710800000000003,177.66990291262135,30.320800000000002,178.25242718446603,30.320800000000002C178.83495145631068,30.320800000000002,179.41747572815535,32.163000000000004,180,34.0052"></path><path class="axis-ceiling" stroke-width="1" stroke="black" fill="none" d="M175,0L180,0"></path><text class="axis-ceiling-label" font-family="sans-serif" text-anchor="end" font-size="10px" x="170" y="2.5">100000</text></g></svg>