<svg xmlns="http://www.w3.org/2000/svg" viewBox="0 0 180 60"><g transform="translate(0,20)"><path class="area" fill="rgba(0, 0, 0, 0.2)" d="M0,36.72468571428571C0.851063829787234,36.69665714285714,1.7021276595744683,36.66862857142857,2.5531914893617023,36.64308571428571C3.404255319148936,36.61754285714285,4.25531914893617,36.60758095238095,5.1063829787234045,36.57142857142857C5.531914893617022,36.553352380952376,5.957446808510639,36.528443537414965,6.382978723404256,36.507999999999996C8.936170212765958,36.3853387755102,11.48936170212766,36.324102857142854,14.042553191489361,36.21554285714286C15.74468085106383,36.143169523809526,17.4468085106383,36.075916190476185,19.148936170212767,35.98365714285714C19.574468085106385,35.96059238095238,20,35.93377142857143,20.425531914893618,35.911657142857145C22.127659574468087,35.82320000000001,23.829787234042556,35.801097835497835,25.531914893617024,35.7368C30.21276595744681,35.559980952380954,34.8936170212766,35.29667692307692,39.57446808510638,35.069942857142856C40.42553191489362,35.02871848151848,41.27659574468085,34.98825174825175,42.12765957446808,34.94582857142857C46.80851063829787,34.7125010989011,51.48936170212766,34.38491746031747,56.170212765957444,34.1504C56.59574468085106,34.12908023088023,57.02127659574468,34.108260317460314,57.4468085106383,34.087199999999996C59.57446808510638,33.981898412698406,61.70212765957447,33.866120634920634,63.829787234042556,33.77177142857143C64.25531914893617,33.75290158730159,64.68085106382979,33.734406349206346,65.1063829787234,33.71645714285714C65.95744680851064,33.68055873015872,66.80851063829788,33.650442328042324,67.65957446808511,33.61462857142857C70.63829787234043,33.48928042328042,73.61702127659575,33.31847116402116,76.59574468085107,33.16982857142857C80.42553191489363,32.978716666666664,84.25531914893617,32.741556709956704,88.08510638297872,32.59462857142857C88.93617021276596,32.561977873977874,89.78723404255318,32.53598065934066,90.63829787234042,32.50331428571429C96.17021276595744,32.290982857142865,101.70212765957446,31.886969089390142,107.23404255319149,31.583885714285714C109.7872340425532,31.444001079622133,112.34042553191489,31.28482721088435,114.8936170212766,31.1664C115.31914893617022,31.146662131519275,115.74468085106383,31.131961904761905,116.17021276595746,31.108914285714285C116.59574468085107,31.085866666666664,117.0212765957447,31.05350857142857,117.4468085106383,31.028114285714285C119.57446808510639,30.901142857142855,121.70212765957447,30.89981768707483,123.82978723404256,30.76262857142857C124.68085106382979,30.70775292517007,125.53191489361703,30.648292063492065,126.38297872340426,30.574628571428573C126.80851063829788,30.537796825396825,127.2340425531915,30.48609523809524,127.65957446808511,30.455885714285714C128.08510638297872,30.42567619047619,128.51063829787236,30.411403174603173,128.93617021276597,30.393371428571427C129.7872340425532,30.357307936507937,130.63829787234044,30.361320634920634,131.48936170212767,30.31885714285714C131.91489361702128,30.297625396825396,132.3404255319149,30.26180952380952,132.7659574468085,30.241942857142856C133.1914893617021,30.22207619047619,133.61702127659575,30.214590476190473,134.04255319148936,30.19965714285714C134.46808510638297,30.18472380952381,134.8936170212766,30.170975238095238,135.31914893617022,30.152342857142855C137.0212765957447,30.07781333333333,138.72340425531914,29.791428571428572,140.4255319148936,29.791428571428572C141.27659574468086,29.791428571428572,142.12765957446808,29.791428571428572,142.97872340425533,29.791428571428572C143.40425531914894,29.791428571428572,143.82978723404256,29.791428571428572,144.25531914893617,29.791428571428572C144.68085106382978,29.791428571428572,145.1063829787234,29.791428571428572,145.531914893617,29.791428571428572C145.9574468085106,29.791428571428572,146.38297872340425,29.791428571428572,146.80851063829786,29.791428571428572C147.23404255319147,29.791428571428572,147.6595744680851,29.791428571428572,148.08510638297872,29.791428571428572C148.51063829787233,29.791428571428572,148.93617021276597,29.791428571428572,149.36170212765958,29.791428571428572C150.2127659574468,29.791428571428572,151.06382978723406,29.791428571428572,151.91489361702128,29.791428571428572C152.3404255319149,29.791428571428572,152.76595744680853,29.791428571428572,153.19148936170214,29.791428571428572C153.61702127659575,29.791428571428572,154.04255319148936,29.791428571428572,154.46808510638297,29.791428571428572C154.89361702127658,29.791428571428572,155.31914893617022,29.791428571428572,155.74468085106383,29.791428571428572C156.17021276595744,29.791428571428572,156.59574468085108,29.791428571428572,157.0212765957447,29.791428571428572C157.4468085106383,29.791428571428572,157.87234042553192,29.791428571428572,158.29787234042553,29.791428571428572C158.72340425531914,29.791428571428572,159.14893617021275,29.791428571428572,159.57446808510636,29.791428571428572C159.99999999999997,29.791428571428572,160.4255319148936,29.791428571428572,160.85106382978722,29.791428571428572C161.27659574468083,29.791428571428572,161.70212765957447,29.791428571428572,162.12765957446808,29.791428571428572C162.5531914893617,29.791428571428572,162.97872340425533,29.791428571428572,163.40425531914894,29.791428571428572C163.82978723404256,29.791428571428572,164.25531914893617,29.791428571428572,164.68085106382978,29.791428571428572C165.1063829787234,29.791428571428572,165.53191489361703,29.791428571428572,165.95744680851064,29.791428571428572C166.38297872340425,29.791428571428572,166.8085106382979,29.791428571428572,167.2340425531915,29.791428571428572C167.6595744680851,29.791428571428572,168.08510638297872,29.791428571428572,168.51063829787233,29.791428571428572C168.93617021276594,29.791428571428572,169.36170212765958,29.791428571428572,169.7872340425532,29.791428571428572C170.2127659574468,29.791428571428572,170.63829787234044,29.791428571428572,171.06382978723406,29.791428571428572C171.48936170212767,29.791428571428572,171.91489361702128,29.791428571428572,172.3404255319149,29.791428571428572C172.7659574468085,29.791428571428572,173.1914893617021,29.791428571428572,173.61702127659572,29.791428571428572C174.04255319148933,29.791428571428572,174.46808510638297,29.791428571428572,174.89361702127658,29.791428571428572C175.3191489361702,29.791428571428572,175.74468085106383,29.791428571428572,176.17021276595744,29.791428571428572C176.59574468085106,29.791428571428572,177.0212765957447,4.770323809523849,177.4468085106383,3.1793142857142875C177.87234042553192,1.5883047619047612,178.29787234042553,0.792799999999998,178.72340425531914,0.792799999999998C179.14893617021275,0.792799999999998,179.5744680851064,0.792799999999998,180,0.792799999999998L180,40C179.5744680851064,40,179.14893617021275,40,178.72340425531914,40C178.29787234042553,40,177.87234042553192,40,177.4468085106383,40C177.0212765957447,40,176.59574468085106,40,176.17021276595744,40C175.74468085106383,40,175.3191489361702,40,174.89361702127658,40C174.46808510638297,40,174.04255319148933,40,173.61702127659572,40C173.1914893617021,40,172.7659574468085,40,172.3404255319149,40C171.91489361702128,40,171.48936170212767,40,171.06382978723406,40C170.63829787234044,40,170.2127659574468,40,169.7872340425532,40C169.36170212765958,40,168.93617021276594,40,168.51063829787233,40C168.08510638297872,40,167.6595744680851,40,167.2340425531915,40C166.8085106382979,40,166.38297872340425,40,165.95744680851064,40C165.53191489361703,40,165.1063829787234,40,164.68085106382978,40C164.25531914893617,40,163.82978723404256,40,163.40425531914894,40C162.97872340425533,40,162.5531914893617,40,162.12765957446808,40C161.70212765957447,40,161.27659574468083,40,160.85106382978722,40C160.4255319148936,40,159.99999999999997,40,159.57446808510636,40C159.14893617021275,40,158.72340425531914,40,158.29787234042553,40C157.87234042553192,40,157.4468085106383,40,157.0212765957447,40C156.59574468085108,40,156.17021276595744,40,155.74468085106383,40C155.31914893617022,40,154.89361702127658,40,154.46808510638297,40C154.04255319148936,40,153.61702127659575,40,153.19148936170214,40C152.76595744680853,40,152.3404255319149,40,151.91489361702128,40C151.06382978723406,40,150.2127659574468,40,149.36170212765958,40C148.93617021276597,40,148.51063829787233,40,148.08510638297872,40C147.6595744680851,40,147.23404255319147,40,146.80851063829786,40C146.38297872340425,40,145.9574468085106,40,145.531914893617,40C145.1063829787234,40,144.68085106382978,40,144.25531914893617,40C143.82978723404256,40,143.40425531914894,40,142.97872340425533,40C142.12765957446808,40,141.27659574468086,40,140.4255319148936,40C138.72340425531914,40,137.0212765957447,40,135.31914893617022,40C134.8936170212766,40,134.46808510638297,40,134.04255319148936,40C133.61702127659575,40,133.1914893617021,40,132.7659574468085,40C132.3404255319149,40,131.91489361702128,40,131.48936170212767,40C130.63829787234044,40,129.7872340425532,40,128.93617021276597,40C128.51063829787236,40,128.08510638297872,40,127.65957446808511,40C127.2340425531915,40,126.80851063829788,40,126.38297872340426,40C125.53191489361703,40,124.68085106382979,40,123.82978723404256,40C121.70212765957447,40,119.57446808510639,40,117.4468085106383,40C117.0212765957447,40,116.59574468085107,40,116.17021276595746,40C115.74468085106383,40,115.31914893617022,40,114.8936170212766,40C112.34042553191489,40,109.7872340425532,40,107.23404255319149,40C101.70212765957446,40,96.17021276595744,40,90.63829787234042,40C89.78723404255318,40,88.93617021276596,40,88.08510638297872,40C84.25531914893617,40,80.42553191489363,40,76.59574468085107,40C73.61702127659575,40,70.63829787234043,40,67.65957446808511,40C66.80851063829788,40,65.95744680851064,40,65.1063829787234,40C64.68085106382979,40,64.25531914893617,40,63.829787234042556,40C61.70212765957447,40,59.57446808510638,40,57.4468085106383,40C57.02127659574468,40,56.59574468085106,40,56.170212765957444,40C51.48936170212766,40,46.80851063829787,40,42.12765957446808,40C41.27659574468085,40,40.42553191489362,40,39.57446808510638,40C34.8936170212766,40,30.21276595744681,40,25.531914893617024,40C23.829787234042556,40,22.127659574468087,40,20.425531914893618,40C20,40,19.574468085106385,40,19.148936170212767,40C17.4468085106383,40,15.74468085106383,40,14.042553191489361,40C11.48936170212766,40,8.936170212765958,40,6.382978723404256,40C5.957446808510639,40,5.531914893617022,40,5.1063829787234045,40C4.25531914893617,40,3.404255319148936,40,2.5531914893617023,40C1.7021276595744683,40,0.851063829787234,40,0,40Z"></path><path class="line" stroke="black" fill="none" d="M0,36.72468571428571C0.851063829787234,36.69665714285714,1.7021276595744683,36.66862857142857,2.5531914893617023,36.64308571428571C3.404255319148936,36.61754285714285,4.25531914893617,36.60758095238095,5.1063829787234045,36.57142857142857C5.531914893617022,36.553352380952376,5.957446808510639,36.528443537414965,6.382978723404256,36.507999999999996C8.936170212765958,36.3853387755102,11.48936170212766,36.324102857142854,14.042553191489361,36.21554285714286C15.74468085106383,36.143169523809526,17.4468085106383,36.075916190476185,19.148936170212767,35.98365714285714C19.574468085106385,35.96059238095238,20,35.93377142857143,20.425531914893618,35.911657142857145C22.127659574468087,35.82320000000001,23.829787234042556,35.801097835497835,25.531914893617024,35.7368C30.21276595744681,35.559980952380954,34.8936170212766,35.29667692307692,39.57446808510638,35.069942857142856C40.42553191489362,35.02871848151848,41.27659574468085,34.98825174825175,42.12765957446808,34.94582857142857C46.80851063829787,34.7125010989011,51.48936170212766,34.38491746031747,56.170212765957444,34.1504C56.59574468085106,34.12908023088023,57.02127659574468,34.108260317460314,57.4468085106383,34.087199999999996C59.57446808510638,33.981898412698406,61.70212765957447,33.866120634920634,63.829787234042556,33.77177142857143C64.25531914893617,33.75290158730159,64.68085106382979,33.734406349206346,65.1063829787234,33.71645714285714C65.95744680851064,33.68055873015872,66.80851063829788,33.650442328042324,67.65957446808511,33.61462857142857C70.63829787234043,33.48928042328042,73.61702127659575,33.31847116402116,76.59574468085107,33.16982857142857C80.42553191489363,32.978716666666664,84.25531914893617,32.741556709956704,88.08510638297872,32.59462857142857C88.93617021276596,32.561977873977874,89.78723404255318,32.53598065934066,90.63829787234042,32.50331428571429C96.17021276595744,32.290982857142865,101.70212765957446,31.886969089390142,107.23404255319149,31.583885714285714C109.7872340425532,31.444001079622133,112.34042553191489,31.28482721088435,114.8936170212766,31.1664C115.31914893617022,31.146662131519275,115.74468085106383,31.131961904761905,116.17021276595746,31.108914285714285C116.59574468085107,31.085866666666664,117.0212765957447,31.05350857142857,117.4468085106383,31.028114285714285C119.57446808510639,30.901142857142855,121.70212765957447,30.89981768707483,123.82978723404256,30.76262857142857C124.68085106382979,30.70775292517007,125.53191489361703,30.648292063492065,126.38297872340426,30.574628571428573C126.80851063829788,30.537796825396825,127.2340425531915,30.48609523809524,127.65957446808511,30.455885714285714C128.08510638297872,30.42567619047619,128.51063829787236,30.411403174603173,128.93617021276597,30.393371428571427C129.7872340425532,30.357307936507937,130.63829787234044,30.361320634920634,131.48936170212767,30.31885714285714C131.91489361702128,30.297625396825396,132.3404255319149,30.26180952380952,132.7659574468085,30.241942857142856C133.1914893617021,30.22207619047619,133.61702127659575,30.214590476190473,134.04255319148936,30.19965714285714C134.46808510638297,30.18472380952381,134.8936170212766,30.170975238095238,135.31914893617022,30.152342857142855C137.0212765957447,30.07781333333333,138.72340425531914,29.791428571428572,140.4255319148936,29.791428571428572C141.27659574468086,29.791428571428572,142.12765957446808,29.791428571428572,142.97872340425533,29.791428571428572C143.40425531914894,29.791428571428572,143.82978723404256,29.791428571428572,144.25531914893617,29.791428571428572C144.68085106382978,29.791428571428572,145.1063829787234,29.791428571428572,145.531914893617,29.791428571428572C145.9574468085106,29.791428571428572,146.38297872340425,29.791428571428572,146.80851063829786,29.791428571428572C147.23404255319147,29.791428571428572,147.6595744680851,29.791428571428572,148.08510638297872,29.791428571428572C148.51063829787233,29.791428571428572,148.93617021276597,29.791428571428572,149.36170212765958,29.791428571428572C150.2127659574468,29.791428571428572,151.06382978723406,29.791428571428572,151.91489361702128,29.791428571428572C152.3404255319149,29.791428571428572,152.76595744680853,29.791428571428572,153.19148936170214,29.791428571428572C153.61702127659575,29.791428571428572,154.04255319148936,29.791428571428572,154.46808510638297,29.791428571428572C154.89361702127658,29.791428571428572,155.31914893617022,29.791428571428572,155.74468085106383,29.791428571428572C156.17021276595744,29.791428571428572,156.59574468085108,29.791428571428572,157.0212765957447,29.791428571428572C157.4468085106383,29.791428571428572,157.87234042553192,29.791428571428572,158.29787234042553,29.791428571428572C158.72340425531914,29.791428571428572,159.14893617021275,29.791428571428572,159.57446808510636,29.791428571428572C159.99999999999997,29.791428571428572,160.4255319148936,29.791428571428572,160.85106382978722,29.791428571428572C161.27659574468083,29.791428571428572,161.70212765957447,29.791428571428572,162.12765957446808,29.791428571428572C162.5531914893617,29.791428571428572,162.97872340425533,29.791428571428572,163.40425531914894,29.791428571428572C163.82978723404256,29.791428571428572,164.25531914893617,29.791428571428572,164.68085106382978,29.791428571428572C165.1063829787234,29.791428571428572,165.53191489361703,29.791428571428572,165.95744680851064,29.791428571428572C166.38297872340425,29.791428571428572,166.8085106382979,29.791428571428572,167.2340425531915,29.791428571428572C167.6595744680851,29.791428571428572,168.08510638297872,29.791428571428572,168.51063829787233,29.791428571428572C168.93617021276594,29.791428571428572,169.36170212765958,29.791428571428572,169.7872340425532,29.791428571428572C170.2127659574468,29.791428571428572,170.63829787234044,29.791428571428572,171.06382978723406,29.791428571428572C171.48936170212767,29.791428571428572,171.91489361702128,29.791428571428572,172.3404255319149,29.791428571428572C172.7659574468085,29.791428571428572,173.1914893617021,29.791428571428572,173.61702127659572,29.791428571428572C174.04255319148933,29.791428571428572,174.46808510638297,29.791428571428572,174.89361702127658,29.791428571428572C175.3191489361702,29.791428571428572,175.74468085106383,29.791428571428572,176.17021276595744,29.791428571428572C176.59574468085106,29.791428571428572,177.0212765957447,4.770323809523849,177.4468085106383,3.1793142857142875C177.87234042553192,1.5883047619047612,178.29787234042553,0.792799999999998,178.72340425531914,0.792799999999998C179.14893617021275,0.792799999999998,179.5744680851064,0.792799999999998,180,0.792799999999998"></path><path class="axis-ceiling" stroke-width="1" stroke="black" fill="none" d="M175,0L180,0"></path><text class="axis-ceiling-label" font-family="sans-serif" text-anchor="end" font-size="10px" x="170" y="2.5">350000</text></g></svg>