<svg xmlns="http://www.w3.org/2000/svg" viewBox="0 0 180 60"><g transform="translate(0,20)"><path class="area" fill="rgba(0, 0, 0, 0.2)" d="M0,26.979504C1.0169491525423728,26.892516,2.0338983050847457,26.805528,3.0508474576271185,26.723648C4.067796610169491,26.641768000000003,5.084745762711864,26.561776000000002,6.101694915254237,26.488224000000002C7.11864406779661,26.414672000000003,8.135593220338983,26.34992533333333,9.152542372881356,26.282335999999997C10.169491525423728,26.214746666666663,11.186440677966102,26.15074666666667,12.203389830508474,26.082688000000005C13.220338983050846,26.01462933333334,14.23728813559322,25.940069333333334,15.254237288135592,25.873984C16.271186440677965,25.807898666666667,17.28813559322034,25.749314666666667,18.305084745762713,25.686176C19.322033898305087,25.623037333333333,20.338983050847457,25.558053333333334,21.35593220338983,25.495152C22.372881355932204,25.43225066666667,23.389830508474574,25.375898666666664,24.406779661016948,25.308767999999997C25.423728813559322,25.24163733333333,26.440677966101696,25.170274666666668,27.45762711864407,25.092368C28.47457627118644,25.014461333333337,29.491525423728813,24.92921066666667,30.508474576271183,24.841328000000004C31.525423728813557,24.75344533333334,32.54237288135593,24.65837066666667,33.559322033898304,24.565072C34.57627118644068,24.47177333333333,35.59322033898305,24.383234666666667,36.610169491525426,24.281536C37.6271186440678,24.17983733333333,38.644067796610166,24.070805333333336,39.66101694915254,23.954880000000003C40.67796610169491,23.83895466666667,41.69491525423729,23.713154666666668,42.71186440677966,23.585984C43.728813559322035,23.45881333333333,44.7457627118644,23.317517333333335,45.762711864406775,23.191856C46.77966101694915,23.066194666666668,47.79661016949152,22.946082666666666,48.813559322033896,22.832016C49.83050847457627,22.717949333333333,50.847457627118644,22.616245333333335,51.86440677966102,22.507456C52.88135593220339,22.398666666666667,53.898305084745765,22.283525333333333,54.91525423728814,22.17928C55.93220338983051,22.075034666666667,56.94915254237288,21.983845333333335,57.96610169491525,21.881984000000003C58.983050847457626,21.78012266666667,59.99999999999999,21.671234666666667,61.01694915254237,21.568112C62.03389830508474,21.46498933333333,63.05084745762712,21.368893333333332,64.0677966101695,21.263247999999997C65.08474576271186,21.157602666666662,66.10169491525424,21.05156533333333,67.11864406779661,20.934239999999996C68.13559322033899,20.816914666666662,69.15254237288136,20.694066666666664,70.16949152542374,20.559295999999996C71.1864406779661,20.42452533333333,72.20338983050848,20.273895999999997,73.22033898305085,20.125615999999997C74.23728813559322,19.977335999999998,75.2542372881356,19.832066666666663,76.27118644067797,19.669615999999998C77.28813559322033,19.507165333333333,78.30508474576271,19.32332533333333,79.32203389830508,19.150911999999998C80.33898305084746,18.978498666666667,81.35593220338983,18.807037333333337,82.37288135593221,18.635136000000003C83.38983050847457,18.463234666666672,84.40677966101696,18.292789333333335,85.42372881355932,18.119504000000003C86.4406779661017,17.94621866666667,87.45762711864407,17.770080000000004,88.47457627118645,17.595424C89.49152542372882,17.420768000000002,90.50847457627118,17.241933333333332,91.52542372881355,17.071568C92.54237288135593,16.901202666666663,93.55932203389831,16.732973333333334,94.57627118644069,16.573232C95.59322033898306,16.413490666666668,96.61016949152543,16.266432,97.62711864406779,16.11312C98.64406779661016,15.959807999999997,99.66101694915254,15.804245333333332,100.6779661016949,15.65336C101.69491525423729,15.502474666666666,102.71186440677965,15.355154666666666,103.72881355932203,15.207807999999998C104.7457627118644,15.060461333333333,105.76271186440678,14.912799999999999,106.77966101694915,14.76928C107.79661016949153,14.62576,108.8135593220339,14.486968,109.83050847457628,14.346687999999999C110.84745762711864,14.206408,111.86440677966102,14.065968,112.88135593220339,13.9276C113.89830508474576,13.789232,114.91525423728814,13.652829333333333,115.9322033898305,13.51648C116.94915254237289,13.380130666666666,117.96610169491525,13.243335999999998,118.98305084745763,13.109503999999998C120,12.975672,121.01694915254237,12.845877333333334,122.03389830508473,12.713488000000002C123.05084745762711,12.581098666666668,124.0677966101695,12.447888,125.08474576271188,12.315168C126.10169491525424,12.182448,127.11864406779662,12.050181333333335,128.135593220339,11.917168C129.15254237288136,11.784154666666668,130.16949152542372,11.650826666666667,131.1864406779661,11.517088000000001C132.20338983050846,11.383349333333333,133.22033898305085,11.248418666666668,134.23728813559322,11.114736C135.25423728813558,10.981053333333334,136.27118644067798,10.848994666666666,137.28813559322035,10.714991999999999C138.3050847457627,10.580989333333331,139.3220338983051,10.445552,140.33898305084747,10.31072C141.35593220338984,10.175888,142.3728813559322,10.043730666666669,143.38983050847457,9.906000000000002C144.40677966101694,9.768269333333334,145.42372881355934,9.628301333333333,146.4406779661017,9.484335999999999C147.45762711864407,9.340370666666667,148.47457627118644,9.190296,149.4915254237288,9.042208C150.50847457627117,8.89412,151.52542372881356,8.748447999999998,152.54237288135593,8.595807999999998C153.5593220338983,8.443167999999998,154.5762711864407,8.284789333333334,155.59322033898306,8.126368C156.61016949152543,7.967946666666667,157.6271186440678,7.809141333333331,158.64406779661016,7.645279999999999C159.66101694915253,7.481418666666665,160.67796610169492,7.321349333333331,161.6949152542373,7.143199999999998C162.71186440677965,6.965050666666666,163.72881355932205,6.774973333333335,164.74576271186442,6.576384000000002C165.76271186440678,6.37779466666667,166.77966101694915,6.16352,167.79661016949152,5.951664000000001C168.81355932203388,5.739807999999999,169.83050847457628,5.539074666666665,170.84745762711864,5.305247999999998C171.864406779661,5.071421333333331,172.8813559322034,4.809903999999999,173.89830508474577,4.548703999999999C174.91525423728814,4.287503999999999,175.93220338983053,4.025725333333333,176.9491525423729,3.7380479999999983C177.96610169491527,3.4503706666666663,178.98305084745763,3.1365053333333335,180,2.8226400000000007L180,40C178.98305084745763,40,177.96610169491527,40,176.9491525423729,40C175.93220338983053,40,174.91525423728814,40,173.89830508474577,40C172.8813559322034,40,171.864406779661,40,170.84745762711864,40C169.83050847457628,40,168.81355932203388,40,167.79661016949152,40C166.77966101694915,40,165.76271186440678,40,164.74576271186442,40C163.72881355932205,40,162.71186440677965,40,161.6949152542373,40C160.67796610169492,40,159.66101694915253,40,158.64406779661016,40C157.6271186440678,40,156.61016949152543,40,155.59322033898306,40C154.5762711864407,40,153.5593220338983,40,152.54237288135593,40C151.52542372881356,40,150.50847457627117,40,149.4915254237288,40C148.47457627118644,40,147.45762711864407,40,146.4406779661017,40C145.42372881355934,40,144.40677966101694,40,143.38983050847457,40C142.3728813559322,40,141.35593220338984,40,140.33898305084747,40C139.3220338983051,40,138.3050847457627,40,137.28813559322035,40C136.27118644067798,40,135.25423728813558,40,134.23728813559322,40C133.22033898305085,40,132.20338983050846,40,131.1864406779661,40C130.16949152542372,40,129.15254237288136,40,128.135593220339,40C127.11864406779662,40,126.10169491525424,40,125.08474576271188,40C124.0677966101695,40,123.05084745762711,40,122.03389830508473,40C121.01694915254237,40,120,40,118.98305084745763,40C117.96610169491525,40,116.94915254237289,40,115.9322033898305,40C114.91525423728814,40,113.89830508474576,40,112.88135593220339,40C111.86440677966102,40,110.84745762711864,40,109.83050847457628,40C108.8135593220339,40,107.79661016949153,40,106.77966101694915,40C105.76271186440678,40,104.7457627118644,40,103.72881355932203,40C102.71186440677965,40,101.69491525423729,40,100.6779661016949,40C99.66101694915254,40,98.64406779661016,40,97.62711864406779,40C96.61016949152543,40,95.59322033898306,40,94.57627118644069,40C93.55932203389831,40,92.54237288135593,40,91.52542372881355,40C90.50847457627118,40,89.49152542372882,40,88.47457627118645,40C87.45762711864407,40,86.4406779661017,40,85.42372881355932,40C84.40677966101696,40,83.38983050847457,40,82.37288135593221,40C81.35593220338983,40,80.33898305084746,40,79.32203389830508,40C78.30508474576271,40,77.28813559322033,40,76.27118644067797,40C75.2542372881356,40,74.23728813559322,40,73.22033898305085,40C72.20338983050848,40,71.1864406779661,40,70.16949152542374,40C69.15254237288136,40,68.13559322033899,40,67.11864406779661,40C66.10169491525424,40,65.08474576271186,40,64.0677966101695,40C63.05084745762712,40,62.03389830508474,40,61.01694915254237,40C59.99999999999999,40,58.983050847457626,40,57.96610169491525,40C56.94915254237288,40,55.93220338983051,40,54.91525423728814,40C53.898305084745765,40,52.88135593220339,40,51.86440677966102,40C50.847457627118644,40,49.83050847457627,40,48.813559322033896,40C47.79661016949152,40,46.77966101694915,40,45.762711864406775,40C44.7457627118644,40,43.728813559322035,40,42.71186440677966,40C41.69491525423729,40,40.67796610169491,40,39.66101694915254,40C38.644067796610166,40,37.6271186440678,40,36.610169491525426,40C35.59322033898305,40,34.57627118644068,40,33.559322033898304,40C32.54237288135593,40,31.525423728813557,40,30.508474576271183,40C29.491525423728813,40,28.47457627118644,40,27.45762711864407,40C26.440677966101696,40,25.423728813559322,40,24.406779661016948,40C23.389830508474574,40,22.372881355932204,40,21.35593220338983,40C20.338983050847457,40,19.322033898305087,40,18.305084745762713,40C17.28813559322034,40,16.271186440677965,40,15.254237288135592,40C14.23728813559322,40,13.220338983050846,40,12.203389830508474,40C11.186440677966102,40,10.169491525423728,40,9.152542372881356,40C8.135593220338983,40,7.11864406779661,40,6.101694915254237,40C5.084745762711864,40,4.067796610169491,40,3.0508474576271185,40C2.0338983050847457,40,1.0169491525423728,40,0,40Z"></path><path class="line" stroke="black" fill="none" d="M0,26.979504C1.0169491525423728,26.892516,2.0338983050847457,26.805528,3.0508474576271185,26.723648C4.067796610169491,26.641768000000003,5.084745762711864,26.561776000000002,6.101694915254237,26.488224000000002C7.11864406779661,26.414672000000003,8.135593220338983,26.34992533333333,9.152542372881356,26.282335999999997C10.169491525423728,26.214746666666663,11.186440677966102,26.15074666666667,12.203389830508474,26.082688000000005C13.220338983050846,26.01462933333334,14.23728813559322,25.940069333333334,15.254237288135592,25.873984C16.271186440677965,25.807898666666667,17.28813559322034,25.749314666666667,18.305084745762713,25.686176C19.322033898305087,25.623037333333333,20.338983050847457,25.558053333333334,21.35593220338983,25.495152C22.372881355932204,25.43225066666667,23.389830508474574,25.375898666666664,24.406779661016948,25.308767999999997C25.423728813559322,25.24163733333333,26.440677966101696,25.170274666666668,27.45762711864407,25.092368C28.47457627118644,25.014461333333337,29.491525423728813,24.92921066666667,30.508474576271183,24.841328000000004C31.525423728813557,24.75344533333334,32.54237288135593,24.65837066666667,33.559322033898304,24.565072C34.57627118644068,24.47177333333333,35.59322033898305,24.383234666666667,36.610169491525426,24.281536C37.6271186440678,24.17983733333333,38.644067796610166,24.070805333333336,39.66101694915254,23.954880000000003C40.67796610169491,23.83895466666667,41.69491525423729,23.713154666666668,42.71186440677966,23.585984C43.728813559322035,23.45881333333333,44.7457627118644,23.317517333333335,45.762711864406775,23.191856C46.77966101694915,23.066194666666668,47.79661016949152,22.946082666666666,48.813559322033896,22.832016C49.83050847457627,22.717949333333333,50.847457627118644,22.616245333333335,51.86440677966102,22.507456C52.88135593220339,22.398666666666667,53.898305084745765,22.283525333333333,54.91525423728814,22.17928C55.93220338983051,22.075034666666667,56.94915254237288,21.983845333333335,57.96610169491525,21.881984000000003C58.983050847457626,21.78012266666667,59.99999999999999,21.671234666666667,61.01694915254237,21.568112C62.03389830508474,21.46498933333333,63.05084745762712,21.368893333333332,64.0677966101695,21.263247999999997C65.08474576271186,21.157602666666662,66.10169491525424,21.05156533333333,67.11864406779661,20.934239999999996C68.13559322033899,20.816914666666662,69.15254237288136,20.694066666666664,70.16949152542374,20.559295999999996C71.1864406779661,20.42452533333333,72.20338983050848,20.273895999999997,73.22033898305085,20.125615999999997C74.23728813559322,19.977335999999998,75.2542372881356,19.832066666666663,76.27118644067797,19.669615999999998C77.28813559322033,19.507165333333333,78.30508474576271,19.32332533333333,79.32203389830508,19.150911999999998C80.33898305084746,18.978498666666667,81.35593220338983,18.807037333333337,82.37288135593221,18.635136000000003C83.38983050847457,18.463234666666672,84.40677966101696,18.292789333333335,85.42372881355932,18.119504000000003C86.4406779661017,17.94621866666667,87.45762711864407,17.770080000000004,88.47457627118645,17.595424C89.49152542372882,17.420768000000002,90.50847457627118,17.241933333333332,91.52542372881355,17.071568C92.54237288135593,16.901202666666663,93.55932203389831,16.732973333333334,94.57627118644069,16.573232C95.59322033898306,16.413490666666668,96.61016949152543,16.266432,97.62711864406779,16.11312C98.64406779661016,15.959807999999997,99.66101694915254,15.804245333333332,100.6779661016949,15.65336C101.69491525423729,15.502474666666666,102.71186440677965,15.355154666666666,103.72881355932203,15.207807999999998C104.7457627118644,15.060461333333333,105.76271186440678,14.912799999999999,106.77966101694915,14.76928C107.79661016949153,14.62576,108.8135593220339,14.486968,109.83050847457628,14.346687999999999C110.84745762711864,14.206408,111.86440677966102,14.065968,112.88135593220339,13.9276C113.89830508474576,13.789232,114.91525423728814,13.652829333333333,115.9322033898305,13.51648C116.94915254237289,13.380130666666666,117.96610169491525,13.243335999999998,118.98305084745763,13.109503999999998C120,12.975672,121.01694915254237,12.845877333333334,122.03389830508473,12.713488000000002C123.05084745762711,12.581098666666668,124.0677966101695,12.447888,125.08474576271188,12.315168C126.10169491525424,12.182448,127.11864406779662,12.050181333333335,128.135593220339,11.917168C129.15254237288136,11.784154666666668,130.16949152542372,11.650826666666667,131.1864406779661,11.517088000000001C132.20338983050846,11.383349333333333,133.22033898305085,11.248418666666668,134.23728813559322,11.114736C135.25423728813558,10.981053333333334,136.27118644067798,10.848994666666666,137.28813559322035,10.714991999999999C138.3050847457627,10.580989333333331,139.3220338983051,10.445552,140.33898305084747,10.31072C141.35593220338984,10.175888,142.3728813559322,10.043730666666669,143.38983050847457,9.906000000000002C144.40677966101694,9.768269333333334,145.42372881355934,9.628301333333333,146.4406779661017,9.484335999999999C147.45762711864407,9.340370666666667,148.47457627118644,9.190296,149.4915254237288,9.042208C150.50847457627117,8.89412,151.52542372881356,8.748447999999998,152.54237288135593,8.595807999999998C153.5593220338983,8.443167999999998,154.5762711864407,8.284789333333334,155.59322033898306,8.126368C156.61016949152543,7.967946666666667,157.6271186440678,7.809141333333331,158.64406779661016,7.645279999999999C159.66101694915253,7.481418666666665,160.67796610169492,7.321349333333331,161.6949152542373,7.143199999999998C162.71186440677965,6.965050666666666,163.72881355932205,6.774973333333335,164.74576271186442,6.576384000000002C165.76271186440678,6.37779466666667,166.77966101694915,6.16352,167.79661016949152,5.951664000000001C168.81355932203388,5.739807999999999,169.83050847457628,5.539074666666665,170.84745762711864,5.305247999999998C171.864406779661,5.071421333333331,172.8813559322034,4.809903999999999,173.89830508474577,4.548703999999999C174.91525423728814,4.287503999999999,175.93220338983053,4.025725333333333,176.9491525423729,3.7380479999999983C177.96610169491527,3.4503706666666663,178.98305084745763,3.1365053333333335,180,2.8226400000000007"></path><path class="axis-ceiling" stroke-width="1" stroke="black" fill="none" d="M175,0L180,0"></path><text class="axis-ceiling-label" font-family="sans-serif" text-anchor="end" font-size="10px" x="170" y="2.5">2500000</text></g></svg>