<svg xmlns="http://www.w3.org/2000/svg" viewBox="0 0 180 60"><g transform="translate(0,20)"><path class="area" fill="rgba(0, 0, 0, 0.2)" d="M0,38.443200000000004C5.68421052631579,38.215,11.368421052631579,37.9868,17.05263157894737,37.9868C18.315789473684212,37.9868,19.57894736842105,39.6804,20.842105263157894,39.6804C29.05263157894737,39.6804,37.26315789473684,36.782,45.473684210526315,36.782C49.26315789473684,36.782,53.05263157894736,37.367599999999996,56.84210526315789,38.5388C57.473684210526315,38.734,58.10526315789473,39.7988,58.73684210526316,39.7988C59.368421052631575,39.7988,60,39.74704888888889,60.63157894736842,39.7172C63.78947368421053,39.56795555555555,66.94736842105263,39.0708,70.10526315789474,39.0708C71.36842105263158,39.0708,72.63157894736842,39.20413333333333,73.89473684210526,39.342C74.52631578947368,39.41093333333333,75.1578947368421,39.5112,75.78947368421052,39.5844C76.42105263157895,39.6576,77.05263157894737,39.7812,77.6842105263158,39.7812C78.94736842105263,39.7812,80.21052631578948,39.747600000000006,81.47368421052632,39.739200000000004C82.10526315789474,39.73500000000001,82.73684210526315,39.7308,83.36842105263158,39.7308C84,39.7308,84.63157894736841,39.852,85.26315789473684,39.852C85.89473684210526,39.852,86.52631578947368,39.846133333333334,87.15789473684211,39.8344C89.6842105263158,39.78746666666668,92.21052631578947,38.7368,94.73684210526315,38.7368C96,38.7368,97.26315789473684,39.24702222222223,98.52631578947368,39.4928C99.15789473684211,39.61568888888889,99.78947368421052,39.82933333333334,100.42105263157895,39.8568C101.05263157894737,39.88426666666666,101.68421052631578,39.897999999999996,102.3157894736842,39.897999999999996C102.94736842105263,39.897999999999996,103.57894736842105,39.7592,104.21052631578948,39.7592C104.84210526315789,39.7592,105.47368421052632,39.8136,106.10526315789473,39.8136C106.73684210526315,39.8136,107.36842105263158,39.72691111111111,108,39.693999999999996C109.26315789473685,39.62817777777777,110.52631578947368,39.58,111.78947368421053,39.58C112.42105263157895,39.58,113.05263157894737,39.7944,113.68421052631578,39.7984C114.3157894736842,39.8024,114.94736842105263,39.8044,115.57894736842105,39.8044C116.21052631578948,39.8044,116.84210526315789,39.778466666666674,117.47368421052632,39.7424C118.10526315789474,39.70633333333333,118.73684210526315,39.588,119.36842105263158,39.588C120,39.588,120.63157894736841,39.670399999999994,121.26315789473684,39.672C121.89473684210526,39.6736,122.52631578947368,39.6744,123.15789473684211,39.6744C123.78947368421053,39.6744,124.42105263157896,39.272800000000004,125.05263157894738,39.272800000000004C125.6842105263158,39.272800000000004,126.31578947368422,39.2952,126.94736842105263,39.2952C127.57894736842105,39.2952,128.21052631578948,35.2532,128.8421052631579,35.2532C129.47368421052633,35.2532,130.10526315789474,37.1676,130.73684210526318,37.1676C131.3684210526316,37.1676,132,36.306400000000004,132.6315789473684,36.306400000000004C133.26315789473682,36.306400000000004,133.89473684210526,37.692800000000005,134.52631578947367,37.692800000000005C135.1578947368421,37.692800000000005,135.78947368421052,33.010799999999996,136.42105263157896,33.010799999999996C137.05263157894737,33.010799999999996,137.68421052631578,35.4128,138.3157894736842,35.4128C138.94736842105263,35.4128,139.57894736842104,30.437599999999996,140.21052631578948,30.437599999999996C140.8421052631579,30.437599999999996,141.47368421052633,34.708800000000004,142.10526315789474,34.708800000000004C142.73684210526315,34.708800000000004,143.3684210526316,24.153599999999997,144,24.153599999999997C144.6315789473684,24.153599999999997,145.26315789473685,27.952666666666666,145.89473684210526,28.1508C146.52631578947367,28.348933333333335,147.1578947368421,28.249866666666666,147.78947368421052,28.448C148.42105263157896,28.64613333333334,149.05263157894737,30.857199999999988,149.6842105263158,31.173199999999998C150.31578947368422,31.489199999999997,150.94736842105263,31.647199999999998,151.57894736842104,31.647199999999998C152.21052631578945,31.647199999999998,152.8421052631579,29.714,153.4736842105263,29.714C154.10526315789474,29.714,154.73684210526315,29.824133333333332,155.3684210526316,30.044399999999996C156,30.264666666666656,156.63157894736844,33.3904,157.26315789473685,33.3904C157.89473684210526,33.3904,158.5263157894737,32.9596,159.1578947368421,32.098C159.78947368421052,31.2364,160.42105263157896,19.368333333333332,161.05263157894737,15.5016C161.68421052631578,11.634866666666666,162.31578947368422,8.897599999999999,162.94736842105263,8.897599999999999C163.57894736842104,8.897599999999999,164.21052631578948,18.508266666666664,164.8421052631579,20.9672C165.4736842105263,23.426133333333333,166.10526315789474,24.6556,166.73684210526315,24.6556C167.3684210526316,24.6556,168,18.0932,168.63157894736844,18.0932C169.26315789473685,18.0932,169.89473684210526,28.896800000000006,170.52631578947367,29.6224C171.15789473684208,30.348000000000003,171.78947368421052,30.710800000000003,172.42105263157893,30.710800000000003C173.05263157894737,30.710800000000003,173.68421052631578,30.320800000000002,174.31578947368422,30.320800000000002C174.94736842105263,30.320800000000002,175.57894736842107,30.43746666666667,176.21052631578948,30.6708C176.8421052631579,30.90413333333333,177.47368421052633,36.2464,178.10526315789474,36.2464C178.73684210526315,36.2464,179.3684210526316,35.431,180,34.6156L180,40C179.3684210526316,40,178.73684210526315,40,178.10526315789474,40C177.47368421052633,40,176.8421052631579,40,176.21052631578948,40C175.57894736842107,40,174.94736842105263,40,174.31578947368422,40C173.68421052631578,40,173.05263157894737,40,172.42105263157893,40C171.78947368421052,40,171.15789473684208,40,170.52631578947367,40C169.89473684210526,40,169.26315789473685,40,168.63157894736844,40C168,40,167.3684210526316,40,166.73684210526315,40C166.10526315789474,40,165.4736842105263,40,164.8421052631579,40C164.21052631578948,40,163.57894736842104,40,162.94736842105263,40C162.31578947368422,40,161.68421052631578,40,161.05263157894737,40C160.42105263157896,40,159.78947368421052,40,159.1578947368421,40C158.5263157894737,40,157.89473684210526,40,157.26315789473685,40C156.63157894736844,40,156,40,155.3684210526316,40C154.73684210526315,40,154.10526315789474,40,153.4736842105263,40C152.8421052631579,40,152.21052631578945,40,151.57894736842104,40C150.94736842105263,40,150.31578947368422,40,149.6842105263158,40C149.05263157894737,40,148.42105263157896,40,147.78947368421052,40C147.1578947368421,40,146.52631578947367,40,145.89473684210526,40C145.26315789473685,40,144.6315789473684,40,144,40C143.3684210526316,40,142.73684210526315,40,142.10526315789474,40C141.47368421052633,40,140.8421052631579,40,140.21052631578948,40C139.57894736842104,40,138.94736842105263,40,138.3157894736842,40C137.68421052631578,40,137.05263157894737,40,136.42105263157896,40C135.78947368421052,40,135.1578947368421,40,134.52631578947367,40C133.89473684210526,40,133.26315789473682,40,132.6315789473684,40C132,40,131.3684210526316,40,130.73684210526318,40C130.10526315789474,40,129.47368421052633,40,128.8421052631579,40C128.21052631578948,40,127.57894736842105,40,126.94736842105263,40C126.31578947368422,40,125.6842105263158,40,125.05263157894738,40C124.42105263157896,40,123.78947368421053,40,123.15789473684211,40C122.52631578947368,40,121.89473684210526,40,121.26315789473684,40C120.63157894736841,40,120,40,119.36842105263158,40C118.73684210526315,40,118.10526315789474,40,117.47368421052632,40C116.84210526315789,40,116.21052631578948,40,115.57894736842105,40C114.94736842105263,40,114.3157894736842,40,113.68421052631578,40C113.05263157894737,40,112.42105263157895,40,111.78947368421053,40C110.52631578947368,40,109.26315789473685,40,108,40C107.36842105263158,40,106.73684210526315,40,106.10526315789473,40C105.47368421052632,40,104.84210526315789,40,104.21052631578948,40C103.57894736842105,40,102.94736842105263,40,102.3157894736842,40C101.68421052631578,40,101.05263157894737,40,100.42105263157895,40C99.78947368421052,40,99.15789473684211,40,98.52631578947368,40C97.26315789473684,40,96,40,94.73684210526315,40C92.21052631578947,40,89.6842105263158,40,87.15789473684211,40C86.52631578947368,40,85.89473684210526,40,85.26315789473684,40C84.63157894736841,40,84,40,83.36842105263158,40C82.73684210526315,40,82.10526315789474,40,81.47368421052632,40C80.21052631578948,40,78.94736842105263,40,77.6842105263158,40C77.05263157894737,40,76.42105263157895,40,75.78947368421052,40C75.1578947368421,40,74.52631578947368,40,73.89473684210526,40C72.63157894736842,40,71.36842105263158,40,70.10526315789474,40C66.94736842105263,40,63.78947368421053,40,60.63157894736842,40C60,40,59.368421052631575,40,58.73684210526316,40C58.10526315789473,40,57.473684210526315,40,56.84210526315789,40C53.05263157894736,40,49.26315789473684,40,45.473684210526315,40C37.26315789473684,40,29.05263157894737,40,20.842105263157894,40C19.57894736842105,40,18.315789473684212,40,17.05263157894737,40C11.368421052631579,40,5.68421052631579,40,0,40Z"></path><path class="line" stroke="black" fill="none" d="M0,38.443200000000004C5.68421052631579,38.215,11.368421052631579,37.9868,17.05263157894737,37.9868C18.315789473684212,37.9868,19.57894736842105,39.6804,20.842105263157894,39.6804C29.05263157894737,39.6804,37.26315789473684,36.782,45.473684210526315,36.782C49.26315789473684,36.782,53.05263157894736,37.367599999999996,56.84210526315789,38.5388C57.473684210526315,38.734,58.10526315789473,39.7988,58.73684210526316,39.7988C59.368421052631575,39.7988,60,39.74704888888889,60.63157894736842,39.7172C63.78947368421053,39.56795555555555,66.94736842105263,39.0708,70.10526315789474,39.0708C71.36842105263158,39.0708,72.63157894736842,39.20413333333333,73.89473684210526,39.342C74.52631578947368,39.41093333333333,75.1578947368421,39.5112,75.78947368421052,39.5844C76.42105263157895,39.6576,77.05263157894737,39.7812,77.6842105263158,39.7812C78.94736842105263,39.7812,80.21052631578948,39.747600000000006,81.47368421052632,39.739200000000004C82.10526315789474,39.73500000000001,82.73684210526315,39.7308,83.36842105263158,39.7308C84,39.7308,84.63157894736841,39.852,85.26315789473684,39.852C85.89473684210526,39.852,86.52631578947368,39.846133333333334,87.15789473684211,39.8344C89.6842105263158,39.78746666666668,92.21052631578947,38.7368,94.73684210526315,38.7368C96,38.7368,97.26315789473684,39.24702222222223,98.52631578947368,39.4928C99.15789473684211,39.61568888888889,99.78947368421052,39.82933333333334,100.42105263157895,39.8568C101.05263157894737,39.88426666666666,101.68421052631578,39.897999999999996,102.3157894736842,39.897999999999996C102.94736842105263,39.897999999999996,103.57894736842105,39.7592,104.21052631578948,39.7592C104.84210526315789,39.7592,105.47368421052632,39.8136,106.10526315789473,39.8136C106.73684210526315,39.8136,107.36842105263158,39.72691111111111,108,39.693999999999996C109.26315789473685,39.62817777777777,110.52631578947368,39.58,111.78947368421053,39.58C112.42105263157895,39.58,113.05263157894737,39.7944,113.68421052631578,39.7984C114.3157894736842,39.8024,114.94736842105263,39.8044,115.57894736842105,39.8044C116.21052631578948,39.8044,116.84210526315789,39.778466666666674,117.47368421052632,39.7424C118.10526315789474,39.70633333333333,118.73684210526315,39.588,119.36842105263158,39.588C120,39.588,120.63157894736841,39.670399999999994,121.26315789473684,39.672C121.89473684210526,39.6736,122.52631578947368,39.6744,123.15789473684211,39.6744C123.78947368421053,39.6744,124.42105263157896,39.272800000000004,125.05263157894738,39.272800000000004C125.6842105263158,39.272800000000004,126.31578947368422,39.2952,126.94736842105263,39.2952C127.57894736842105,39.2952,128.21052631578948,35.2532,128.8421052631579,35.2532C129.47368421052633,35.2532,130.10526315789474,37.1676,130.73684210526318,37.1676C131.3684210526316,37.1676,132,36.306400000000004,132.6315789473684,36.306400000000004C133.26315789473682,36.306400000000004,133.89473684210526,37.692800000000005,134.52631578947367,37.692800000000005C135.1578947368421,37.692800000000005,135.78947368421052,33.010799999999996,136.42105263157896,33.010799999999996C137.05263157894737,33.010799999999996,137.68421052631578,35.4128,138.3157894736842,35.4128C138.94736842105263,35.4128,139.57894736842104,30.437599999999996,140.21052631578948,30.437599999999996C140.8421052631579,30.437599999999996,141.47368421052633,34.708800000000004,142.10526315789474,34.708800000000004C142.73684210526315,34.708800000000004,143.3684210526316,24.153599999999997,144,24.153599999999997C144.6315789473684,24.153599999999997,145.26315789473685,27.952666666666666,145.89473684210526,28.1508C146.52631578947367,28.348933333333335,147.1578947368421,28.249866666666666,147.78947368421052,28.448C148.42105263157896,28.64613333333334,149.05263157894737,30.857199999999988,149.6842105263158,31.173199999999998C150.31578947368422,31.489199999999997,150.94736842105263,31.647199999999998,151.57894736842104,31.647199999999998C152.21052631578945,31.647199999999998,152.8421052631579,29.714,153.4736842105263,29.714C154.10526315789474,29.714,154.73684210526315,29.824133333333332,155.3684210526316,30.044399999999996C156,30.264666666666656,156.63157894736844,33.3904,157.26315789473685,33.3904C157.89473684210526,33.3904,158.5263157894737,32.9596,159.1578947368421,32.098C159.78947368421052,31.2364,160.42105263157896,19.368333333333332,161.05263157894737,15.5016C161.68421052631578,11.634866666666666,162.31578947368422,8.897599999999999,162.94736842105263,8.897599999999999C163.57894736842104,8.897599999999999,164.21052631578948,18.508266666666664,164.8421052631579,20.9672C165.4736842105263,23.426133333333333,166.10526315789474,24.6556,166.73684210526315,24.6556C167.3684210526316,24.6556,168,18.0932,168.63157894736844,18.0932C169.26315789473685,18.0932,169.89473684210526,28.896800000000006,170.52631578947367,29.6224C171.15789473684208,30.348000000000003,171.78947368421052,30.710800000000003,172.42105263157893,30.710800000000003C173.05263157894737,30.710800000000003,173.68421052631578,30.320800000000002,174.31578947368422,30.320800000000002C174.94736842105263,30.320800000000002,175.57894736842107,30.43746666666667,176.21052631578948,30.6708C176.8421052631579,30.90413333333333,177.47368421052633,36.2464,178.10526315789474,36.2464C178.73684210526315,36.2464,179.3684210526316,35.431,180,34.6156"></path><path class="axis-ceiling" stroke-width="1" stroke="black" fill="none" d="M175,0L180,0"></path><text class="axis-ceiling-label" font-family="sans-serif" text-anchor="end" font-size="10px" x="170" y="2.5">100000</text></g></svg>