<svg xmlns="http://www.w3.org/2000/svg" viewBox="0 0 180 60"><g transform="translate(0,20)"><path class="area" fill="rgba(0, 0, 0, 0.2)" d="M0,8.7472C1.0169491525423728,8.429400000000001,2.0338983050847457,8.111600000000001,3.0508474576271185,7.301600000000001C4.067796610169491,6.491600000000002,5.084745762711864,4.605066666666669,6.101694915254237,3.8872000000000018C7.11864406779661,3.169333333333334,8.135593220338983,3.0558666666666667,9.152542372881356,2.8103999999999996C10.169491525423728,2.5649333333333324,11.186440677966102,2.4143999999999988,12.203389830508474,2.4143999999999988C13.220338983050846,2.4143999999999988,14.23728813559322,4.9056000000000015,15.254237288135592,6.648000000000001C16.271186440677965,8.390400000000001,17.28813559322034,11.1044,18.305084745762713,12.8688C19.322033898305087,14.633199999999999,20.338983050847457,16.032533333333333,21.35593220338983,17.2344C22.372881355932204,18.43626666666667,23.389830508474574,18.8692,24.406779661016948,20.08C25.423728813559322,21.290799999999997,26.440677966101696,23.511733333333336,27.45762711864407,24.499200000000002C28.47457627118644,25.486666666666668,29.491525423728813,25.553333333333338,30.508474576271183,26.004800000000003C31.525423728813557,26.45626666666667,32.54237288135593,26.837333333333337,33.559322033898304,27.208000000000002C34.57627118644068,27.578666666666667,35.59322033898305,27.812533333333334,36.610169491525426,28.2288C37.6271186440678,28.645066666666665,38.644067796610166,29.49706666666666,39.66101694915254,29.705599999999997C40.67796610169491,29.914133333333332,41.69491525423729,30.0184,42.71186440677966,30.0184C43.728813559322035,30.0184,44.7457627118644,29.564799999999998,45.762711864406775,29.564799999999998C46.77966101694915,29.564799999999998,47.79661016949152,30.6096,48.813559322033896,30.6096C49.83050847457627,30.6096,50.847457627118644,30.4496,51.86440677966102,30.4496C52.88135593220339,30.4496,53.898305084745765,30.681599999999996,54.91525423728814,30.681599999999996C55.93220338983051,30.681599999999996,56.94915254237288,29.718799999999998,57.96610169491525,29.18C58.983050847457626,28.6412,59.99999999999999,27.947466666666667,61.01694915254237,27.448800000000002C62.03389830508474,26.950133333333333,63.05084745762712,26.431200000000004,64.0677966101695,26.188000000000002C65.08474576271186,25.9448,66.10169491525424,26.0664,67.11864406779661,25.8232C68.13559322033899,25.58,69.15254237288136,24.378400000000003,70.16949152542374,23.6672C71.1864406779661,22.956000000000003,72.20338983050848,22.118266666666663,73.22033898305085,21.555999999999997C74.23728813559322,20.99373333333333,75.2542372881356,20.2936,76.27118644067797,20.2936C77.28813559322033,20.2936,78.30508474576271,21.429066666666664,79.32203389830508,22.008799999999997C80.33898305084746,22.58853333333333,81.35593220338983,23.772000000000002,82.37288135593221,23.772000000000002C83.38983050847457,23.772000000000002,84.40677966101696,23.5912,85.42372881355932,23.5912C86.4406779661017,23.5912,87.45762711864407,25.136000000000003,88.47457627118645,25.136000000000003C89.49152542372882,25.136000000000003,90.50847457627118,24.3072,91.52542372881355,24.3072C92.54237288135593,24.3072,93.55932203389831,24.756800000000002,94.57627118644069,24.756800000000002C95.59322033898306,24.756800000000002,96.61016949152543,24.1336,97.62711864406779,23.5496C98.64406779661016,22.965600000000002,99.66101694915254,22.12493333333333,100.6779661016949,21.2528C101.69491525423729,20.380666666666666,102.71186440677965,18.992133333333335,103.72881355932203,18.3168C104.7457627118644,17.64146666666667,105.76271186440678,17.90933333333333,106.77966101694915,17.200799999999997C107.79661016949153,16.492266666666662,108.8135593220339,14.065599999999998,109.83050847457628,14.065599999999998C110.84745762711864,14.065599999999998,111.86440677966102,14.205866666666669,112.88135593220339,14.211200000000002C113.89830508474576,14.216533333333334,114.91525423728814,14.2192,115.9322033898305,14.2192C116.94915254237289,14.2192,117.96610169491525,13.796,118.98305084745763,13.796C120,13.796,121.01694915254237,13.799999999999999,122.03389830508473,13.807999999999998C123.05084745762711,13.815999999999997,124.0677966101695,14.552933333333328,125.08474576271188,15.084C126.10169491525424,15.615066666666666,127.11864406779662,16.98213333333333,128.135593220339,16.9944C129.15254237288136,17.006666666666668,130.16949152542372,17.000533333333333,131.1864406779661,17.012800000000002C132.20338983050846,17.02506666666667,133.22033898305085,17.5456,134.23728813559322,17.7224C135.25423728813558,17.8992,136.27118644067798,17.882133333333332,137.28813559322035,18.0736C138.3050847457627,18.265066666666666,139.3220338983051,18.75493333333333,140.33898305084747,18.871199999999998C141.35593220338984,18.987466666666666,142.3728813559322,18.950133333333333,143.38983050847457,19.0456C144.40677966101694,19.141066666666667,145.42372881355934,19.343066666666665,146.4406779661017,19.444C147.45762711864407,19.544933333333333,148.47457627118644,19.525200000000005,149.4915254237288,19.651200000000003C150.50847457627117,19.777200000000004,151.52542372881356,20.2,152.54237288135593,20.2C153.5593220338983,20.2,154.5762711864407,20.084,155.59322033898306,20.084C156.61016949152543,20.084,157.6271186440678,20.100800000000003,158.64406779661016,20.100800000000003C159.66101694915253,20.100800000000003,160.67796610169492,20.032400000000003,161.6949152542373,19.996000000000002C162.71186440677965,19.959600000000002,163.72881355932205,19.882399999999997,164.74576271186442,19.882399999999997C165.76271186440678,19.882399999999997,166.77966101694915,20.0136,167.79661016949152,20.0136C168.81355932203388,20.0136,169.83050847457628,19.802666666666664,170.84745762711864,19.7872C171.864406779661,19.771733333333334,172.8813559322034,19.779466666666664,173.89830508474577,19.764C174.91525423728814,19.748533333333334,175.93220338983053,19.228400000000004,176.9491525423729,18.916800000000002C177.96610169491527,18.605200000000004,178.98305084745763,18.2498,180,17.894399999999997L180,40C178.98305084745763,40,177.96610169491527,40,176.9491525423729,40C175.93220338983053,40,174.91525423728814,40,173.89830508474577,40C172.8813559322034,40,171.864406779661,40,170.84745762711864,40C169.83050847457628,40,168.81355932203388,40,167.79661016949152,40C166.77966101694915,40,165.76271186440678,40,164.74576271186442,40C163.72881355932205,40,162.71186440677965,40,161.6949152542373,40C160.67796610169492,40,159.66101694915253,40,158.64406779661016,40C157.6271186440678,40,156.61016949152543,40,155.59322033898306,40C154.5762711864407,40,153.5593220338983,40,152.54237288135593,40C151.52542372881356,40,150.50847457627117,40,149.4915254237288,40C148.47457627118644,40,147.45762711864407,40,146.4406779661017,40C145.42372881355934,40,144.40677966101694,40,143.38983050847457,40C142.3728813559322,40,141.35593220338984,40,140.33898305084747,40C139.3220338983051,40,138.3050847457627,40,137.28813559322035,40C136.27118644067798,40,135.25423728813558,40,134.23728813559322,40C133.22033898305085,40,132.20338983050846,40,131.1864406779661,40C130.16949152542372,40,129.15254237288136,40,128.135593220339,40C127.11864406779662,40,126.10169491525424,40,125.08474576271188,40C124.0677966101695,40,123.05084745762711,40,122.03389830508473,40C121.01694915254237,40,120,40,118.98305084745763,40C117.96610169491525,40,116.94915254237289,40,115.9322033898305,40C114.91525423728814,40,113.89830508474576,40,112.88135593220339,40C111.86440677966102,40,110.84745762711864,40,109.83050847457628,40C108.8135593220339,40,107.79661016949153,40,106.77966101694915,40C105.76271186440678,40,104.7457627118644,40,103.72881355932203,40C102.71186440677965,40,101.69491525423729,40,100.6779661016949,40C99.66101694915254,40,98.64406779661016,40,97.62711864406779,40C96.61016949152543,40,95.59322033898306,40,94.57627118644069,40C93.55932203389831,40,92.54237288135593,40,91.52542372881355,40C90.50847457627118,40,89.49152542372882,40,88.47457627118645,40C87.45762711864407,40,86.4406779661017,40,85.42372881355932,40C84.40677966101696,40,83.38983050847457,40,82.37288135593221,40C81.35593220338983,40,80.33898305084746,40,79.32203389830508,40C78.30508474576271,40,77.28813559322033,40,76.27118644067797,40C75.2542372881356,40,74.23728813559322,40,73.22033898305085,40C72.20338983050848,40,71.1864406779661,40,70.16949152542374,40C69.15254237288136,40,68.13559322033899,40,67.11864406779661,40C66.10169491525424,40,65.08474576271186,40,64.0677966101695,40C63.05084745762712,40,62.03389830508474,40,61.01694915254237,40C59.99999999999999,40,58.983050847457626,40,57.96610169491525,40C56.94915254237288,40,55.93220338983051,40,54.91525423728814,40C53.898305084745765,40,52.88135593220339,40,51.86440677966102,40C50.847457627118644,40,49.83050847457627,40,48.813559322033896,40C47.79661016949152,40,46.77966101694915,40,45.762711864406775,40C44.7457627118644,40,43.728813559322035,40,42.71186440677966,40C41.69491525423729,40,40.67796610169491,40,39.66101694915254,40C38.644067796610166,40,37.6271186440678,40,36.610169491525426,40C35.59322033898305,40,34.57627118644068,40,33.559322033898304,40C32.54237288135593,40,31.525423728813557,40,30.508474576271183,40C29.491525423728813,40,28.47457627118644,40,27.45762711864407,40C26.440677966101696,40,25.423728813559322,40,24.406779661016948,40C23.389830508474574,40,22.372881355932204,40,21.35593220338983,40C20.338983050847457,40,19.322033898305087,40,18.305084745762713,40C17.28813559322034,40,16.271186440677965,40,15.254237288135592,40C14.23728813559322,40,13.220338983050846,40,12.203389830508474,40C11.186440677966102,40,10.169491525423728,40,9.152542372881356,40C8.135593220338983,40,7.11864406779661,40,6.101694915254237,40C5.084745762711864,40,4.067796610169491,40,3.0508474576271185,40C2.0338983050847457,40,1.0169491525423728,40,0,40Z"></path><path class="line" stroke="black" fill="none" d="M0,8.7472C1.0169491525423728,8.429400000000001,2.0338983050847457,8.111600000000001,3.0508474576271185,7.301600000000001C4.067796610169491,6.491600000000002,5.084745762711864,4.605066666666669,6.101694915254237,3.8872000000000018C7.11864406779661,3.169333333333334,8.135593220338983,3.0558666666666667,9.152542372881356,2.8103999999999996C10.169491525423728,2.5649333333333324,11.186440677966102,2.4143999999999988,12.203389830508474,2.4143999999999988C13.220338983050846,2.4143999999999988,14.23728813559322,4.9056000000000015,15.254237288135592,6.648000000000001C16.271186440677965,8.390400000000001,17.28813559322034,11.1044,18.305084745762713,12.8688C19.322033898305087,14.633199999999999,20.338983050847457,16.032533333333333,21.35593220338983,17.2344C22.372881355932204,18.43626666666667,23.389830508474574,18.8692,24.406779661016948,20.08C25.423728813559322,21.290799999999997,26.440677966101696,23.511733333333336,27.45762711864407,24.499200000000002C28.47457627118644,25.486666666666668,29.491525423728813,25.553333333333338,30.508474576271183,26.004800000000003C31.525423728813557,26.45626666666667,32.54237288135593,26.837333333333337,33.559322033898304,27.208000000000002C34.57627118644068,27.578666666666667,35.59322033898305,27.812533333333334,36.610169491525426,28.2288C37.6271186440678,28.645066666666665,38.644067796610166,29.49706666666666,39.66101694915254,29.705599999999997C40.67796610169491,29.914133333333332,41.69491525423729,30.0184,42.71186440677966,30.0184C43.728813559322035,30.0184,44.7457627118644,29.564799999999998,45.762711864406775,29.564799999999998C46.77966101694915,29.564799999999998,47.79661016949152,30.6096,48.813559322033896,30.6096C49.83050847457627,30.6096,50.847457627118644,30.4496,51.86440677966102,30.4496C52.88135593220339,30.4496,53.898305084745765,30.681599999999996,54.91525423728814,30.681599999999996C55.93220338983051,30.681599999999996,56.94915254237288,29.718799999999998,57.96610169491525,29.18C58.983050847457626,28.6412,59.99999999999999,27.947466666666667,61.01694915254237,27.448800000000002C62.03389830508474,26.950133333333333,63.05084745762712,26.431200000000004,64.0677966101695,26.188000000000002C65.08474576271186,25.9448,66.10169491525424,26.0664,67.11864406779661,25.8232C68.13559322033899,25.58,69.15254237288136,24.378400000000003,70.16949152542374,23.6672C71.1864406779661,22.956000000000003,72.20338983050848,22.118266666666663,73.22033898305085,21.555999999999997C74.23728813559322,20.99373333333333,75.2542372881356,20.2936,76.27118644067797,20.2936C77.28813559322033,20.2936,78.30508474576271,21.429066666666664,79.32203389830508,22.008799999999997C80.33898305084746,22.58853333333333,81.35593220338983,23.772000000000002,82.37288135593221,23.772000000000002C83.38983050847457,23.772000000000002,84.40677966101696,23.5912,85.42372881355932,23.5912C86.4406779661017,23.5912,87.45762711864407,25.136000000000003,88.47457627118645,25.136000000000003C89.49152542372882,25.136000000000003,90.50847457627118,24.3072,91.52542372881355,24.3072C92.54237288135593,24.3072,93.55932203389831,24.756800000000002,94.57627118644069,24.756800000000002C95.59322033898306,24.756800000000002,96.61016949152543,24.1336,97.62711864406779,23.5496C98.64406779661016,22.965600000000002,99.66101694915254,22.12493333333333,100.6779661016949,21.2528C101.69491525423729,20.380666666666666,102.71186440677965,18.992133333333335,103.72881355932203,18.3168C104.7457627118644,17.64146666666667,105.76271186440678,17.90933333333333,106.77966101694915,17.200799999999997C107.79661016949153,16.492266666666662,108.8135593220339,14.065599999999998,109.83050847457628,14.065599999999998C110.84745762711864,14.065599999999998,111.86440677966102,14.205866666666669,112.88135593220339,14.211200000000002C113.89830508474576,14.216533333333334,114.91525423728814,14.2192,115.9322033898305,14.2192C116.94915254237289,14.2192,117.96610169491525,13.796,118.98305084745763,13.796C120,13.796,121.01694915254237,13.799999999999999,122.03389830508473,13.807999999999998C123.05084745762711,13.815999999999997,124.0677966101695,14.552933333333328,125.08474576271188,15.084C126.10169491525424,15.615066666666666,127.11864406779662,16.98213333333333,128.135593220339,16.9944C129.15254237288136,17.006666666666668,130.16949152542372,17.000533333333333,131.1864406779661,17.012800000000002C132.20338983050846,17.02506666666667,133.22033898305085,17.5456,134.23728813559322,17.7224C135.25423728813558,17.8992,136.27118644067798,17.882133333333332,137.28813559322035,18.0736C138.3050847457627,18.265066666666666,139.3220338983051,18.75493333333333,140.33898305084747,18.871199999999998C141.35593220338984,18.987466666666666,142.3728813559322,18.950133333333333,143.38983050847457,19.0456C144.40677966101694,19.141066666666667,145.42372881355934,19.343066666666665,146.4406779661017,19.444C147.45762711864407,19.544933333333333,148.47457627118644,19.525200000000005,149.4915254237288,19.651200000000003C150.50847457627117,19.777200000000004,151.52542372881356,20.2,152.54237288135593,20.2C153.5593220338983,20.2,154.5762711864407,20.084,155.59322033898306,20.084C156.61016949152543,20.084,157.6271186440678,20.100800000000003,158.64406779661016,20.100800000000003C159.66101694915253,20.100800000000003,160.67796610169492,20.032400000000003,161.6949152542373,19.996000000000002C162.71186440677965,19.959600000000002,163.72881355932205,19.882399999999997,164.74576271186442,19.882399999999997C165.76271186440678,19.882399999999997,166.77966101694915,20.0136,167.79661016949152,20.0136C168.81355932203388,20.0136,169.83050847457628,19.802666666666664,170.84745762711864,19.7872C171.864406779661,19.771733333333334,172.8813559322034,19.779466666666664,173.89830508474577,19.764C174.91525423728814,19.748533333333334,175.93220338983053,19.228400000000004,176.9491525423729,18.916800000000002C177.96610169491527,18.605200000000004,178.98305084745763,18.2498,180,17.894399999999997"></path><path class="axis-ceiling" stroke-width="1" stroke="black" fill="none" d="M175,0L180,0"></path><text class="axis-ceiling-label" font-family="sans-serif" text-anchor="end" font-size="10px" x="170" y="2.5">50000</text></g></svg>