<svg xmlns="http://www.w3.org/2000/svg" viewBox="0 0 180 60"><g transform="translate(0,20)"><path class="area" fill="rgba(0, 0, 0, 0.2)" d="M0,37.1676C1.0169491525423728,36.737,2.0338983050847457,36.306400000000004,3.0508474576271185,36.306400000000004C4.067796610169491,36.306400000000004,5.084745762711864,37.692800000000005,6.101694915254237,37.692800000000005C7.11864406779661,37.692800000000005,8.135593220338983,33.010799999999996,9.152542372881356,33.010799999999996C10.169491525423728,33.010799999999996,11.186440677966102,35.4128,12.203389830508474,35.4128C13.220338983050846,35.4128,14.23728813559322,30.437599999999996,15.254237288135592,30.437599999999996C16.271186440677965,30.437599999999996,17.28813559322034,34.708800000000004,18.305084745762713,34.708800000000004C19.322033898305087,34.708800000000004,20.338983050847457,24.153599999999997,21.35593220338983,24.153599999999997C22.372881355932204,24.153599999999997,23.389830508474574,27.952666666666666,24.406779661016948,28.1508C25.423728813559322,28.348933333333335,26.440677966101696,28.249866666666666,27.45762711864407,28.448C28.47457627118644,28.646133333333335,29.491525423728813,30.8572,30.508474576271183,31.173199999999998C31.525423728813557,31.489199999999997,32.54237288135593,31.647199999999998,33.559322033898304,31.647199999999998C34.57627118644068,31.647199999999998,35.59322033898305,29.714,36.610169491525426,29.714C37.6271186440678,29.714,38.644067796610166,29.824133333333332,39.66101694915254,30.044399999999996C40.67796610169491,30.26466666666666,41.69491525423729,33.3904,42.71186440677966,33.3904C43.728813559322035,33.3904,44.7457627118644,32.9596,45.762711864406775,32.098C46.77966101694915,31.236399999999996,47.79661016949152,19.368333333333332,48.813559322033896,15.5016C49.83050847457627,11.634866666666667,50.847457627118644,8.897599999999999,51.86440677966102,8.897599999999999C52.88135593220339,8.897599999999999,53.898305084745765,18.508266666666657,54.91525423728814,20.9672C55.93220338983051,23.426133333333333,56.94915254237288,24.6556,57.96610169491525,24.6556C58.983050847457626,24.6556,59.99999999999999,18.0932,61.01694915254237,18.0932C62.03389830508474,18.0932,63.05084745762712,28.896799999999992,64.0677966101695,29.6224C65.08474576271186,30.348000000000003,66.10169491525424,30.710800000000003,67.11864406779661,30.710800000000003C68.13559322033899,30.710800000000003,69.15254237288136,30.320800000000002,70.16949152542374,30.320800000000002C71.1864406779661,30.320800000000002,72.20338983050848,30.43746666666667,73.22033898305085,30.6708C74.23728813559322,30.90413333333333,75.2542372881356,36.2464,76.27118644067797,36.2464C77.28813559322033,36.2464,78.30508474576271,35.063266666666664,79.32203389830508,34.6156C80.33898305084746,34.16793333333333,81.35593220338983,33.5604,82.37288135593221,33.5604C83.38983050847457,33.5604,84.40677966101696,34.870799999999996,85.42372881355932,34.8908C86.4406779661017,34.9108,87.45762711864407,34.9208,88.47457627118645,34.9208C89.49152542372882,34.9208,90.50847457627118,33.8952,91.52542372881355,33.8952C92.54237288135593,33.8952,93.55932203389831,35.264399999999995,94.57627118644069,35.8388C95.59322033898306,36.413199999999996,96.61016949152543,37.3416,97.62711864406779,37.3416C98.64406779661016,37.3416,99.66101694915254,33.029199999999996,100.6779661016949,33.029199999999996C101.69491525423729,33.029199999999996,102.71186440677965,37.2164,103.72881355932203,37.2164C104.7457627118644,37.2164,105.76271186440678,34.3292,106.77966101694915,34.3292C107.79661016949153,34.3292,108.8135593220339,35.7328,109.83050847457628,35.7328C110.84745762711864,35.7328,111.86440677966102,28.6416,112.88135593220339,28.6416C113.89830508474576,28.6416,114.91525423728814,29.063000000000002,115.9322033898305,29.7776C116.94915254237289,30.4922,117.96610169491525,32.9292,118.98305084745763,32.9292C120,32.9292,121.01694915254237,32.29659999999999,122.03389830508473,31.7536C123.05084745762711,31.210599999999996,124.0677966101695,30.47386666666667,125.08474576271188,29.6712C126.10169491525424,28.868533333333335,127.11864406779662,26.937600000000003,128.135593220339,26.937600000000003C129.15254237288136,26.937600000000003,130.16949152542372,30.030666666666672,131.1864406779661,31.3152C132.20338983050846,32.59973333333334,133.22033898305085,33.87246666666667,134.23728813559322,34.644800000000004C135.25423728813558,35.41713333333334,136.27118644067798,35.949200000000005,137.28813559322035,35.949200000000005C138.3050847457627,35.949200000000005,139.3220338983051,32.2972,140.33898305084747,32.2972C141.35593220338984,32.2972,142.3728813559322,37.1588,143.38983050847457,37.1588C144.40677966101694,37.1588,145.42372881355934,26.7712,146.4406779661017,26.7712C147.45762711864407,26.7712,148.47457627118644,28.510400000000004,149.4915254237288,28.510400000000004C150.50847457627117,28.510400000000004,151.52542372881356,27.408933333333334,152.54237288135593,27.0916C153.5593220338983,26.774266666666666,154.5762711864407,26.843133333333338,155.59322033898306,26.6064C156.61016949152543,26.369666666666667,157.6271186440678,25.6712,158.64406779661016,25.6712C159.66101694915253,25.6712,160.67796610169492,28.391200000000005,161.6949152542373,28.391200000000005C162.71186440677965,28.391200000000005,163.72881355932205,26.1856,164.74576271186442,26.1856C165.76271186440678,26.1856,166.77966101694915,26.88826666666667,167.79661016949152,27.2804C168.81355932203388,27.672533333333334,169.83050847457628,28.5384,170.84745762711864,28.5384C171.864406779661,28.5384,172.8813559322034,25.612399999999997,173.89830508474577,25.612399999999997C174.91525423728814,25.612399999999997,175.93220338983053,25.957066666666666,176.9491525423729,26.6464C177.96610169491527,27.33573333333333,178.98305084745763,28.737066666666664,180,30.1384L180,40C178.98305084745763,40,177.96610169491527,40,176.9491525423729,40C175.93220338983053,40,174.91525423728814,40,173.89830508474577,40C172.8813559322034,40,171.864406779661,40,170.84745762711864,40C169.83050847457628,40,168.81355932203388,40,167.79661016949152,40C166.77966101694915,40,165.76271186440678,40,164.74576271186442,40C163.72881355932205,40,162.71186440677965,40,161.6949152542373,40C160.67796610169492,40,159.66101694915253,40,158.64406779661016,40C157.6271186440678,40,156.61016949152543,40,155.59322033898306,40C154.5762711864407,40,153.5593220338983,40,152.54237288135593,40C151.52542372881356,40,150.50847457627117,40,149.4915254237288,40C148.47457627118644,40,147.45762711864407,40,146.4406779661017,40C145.42372881355934,40,144.40677966101694,40,143.38983050847457,40C142.3728813559322,40,141.35593220338984,40,140.33898305084747,40C139.3220338983051,40,138.3050847457627,40,137.28813559322035,40C136.27118644067798,40,135.25423728813558,40,134.23728813559322,40C133.22033898305085,40,132.20338983050846,40,131.1864406779661,40C130.16949152542372,40,129.15254237288136,40,128.135593220339,40C127.11864406779662,40,126.10169491525424,40,125.08474576271188,40C124.0677966101695,40,123.05084745762711,40,122.03389830508473,40C121.01694915254237,40,120,40,118.98305084745763,40C117.96610169491525,40,116.94915254237289,40,115.9322033898305,40C114.91525423728814,40,113.89830508474576,40,112.88135593220339,40C111.86440677966102,40,110.84745762711864,40,109.83050847457628,40C108.8135593220339,40,107.79661016949153,40,106.77966101694915,40C105.76271186440678,40,104.7457627118644,40,103.72881355932203,40C102.71186440677965,40,101.69491525423729,40,100.6779661016949,40C99.66101694915254,40,98.64406779661016,40,97.62711864406779,40C96.61016949152543,40,95.59322033898306,40,94.57627118644069,40C93.55932203389831,40,92.54237288135593,40,91.52542372881355,40C90.50847457627118,40,89.49152542372882,40,88.47457627118645,40C87.45762711864407,40,86.4406779661017,40,85.42372881355932,40C84.40677966101696,40,83.38983050847457,40,82.37288135593221,40C81.35593220338983,40,80.33898305084746,40,79.32203389830508,40C78.30508474576271,40,77.28813559322033,40,76.27118644067797,40C75.2542372881356,40,74.23728813559322,40,73.22033898305085,40C72.20338983050848,40,71.1864406779661,40,70.16949152542374,40C69.15254237288136,40,68.13559322033899,40,67.11864406779661,40C66.10169491525424,40,65.08474576271186,40,64.0677966101695,40C63.05084745762712,40,62.03389830508474,40,61.01694915254237,40C59.99999999999999,40,58.983050847457626,40,57.96610169491525,40C56.94915254237288,40,55.93220338983051,40,54.91525423728814,40C53.898305084745765,40,52.88135593220339,40,51.86440677966102,40C50.847457627118644,40,49.83050847457627,40,48.813559322033896,40C47.79661016949152,40,46.77966101694915,40,45.762711864406775,40C44.7457627118644,40,43.728813559322035,40,42.71186440677966,40C41.69491525423729,40,40.67796610169491,40,39.66101694915254,40C38.644067796610166,40,37.6271186440678,40,36.610169491525426,40C35.59322033898305,40,34.57627118644068,40,33.559322033898304,40C32.54237288135593,40,31.525423728813557,40,30.508474576271183,40C29.491525423728813,40,28.47457627118644,40,27.45762711864407,40C26.440677966101696,40,25.423728813559322,40,24.406779661016948,40C23.389830508474574,40,22.372881355932204,40,21.35593220338983,40C20.338983050847457,40,19.322033898305087,40,18.305084745762713,40C17.28813559322034,40,16.271186440677965,40,15.254237288135592,40C14.23728813559322,40,13.220338983050846,40,12.203389830508474,40C11.186440677966102,40,10.169491525423728,40,9.152542372881356,40C8.135593220338983,40,7.11864406779661,40,6.101694915254237,40C5.084745762711864,40,4.067796610169491,40,3.0508474576271185,40C2.0338983050847457,40,1.0169491525423728,40,0,40Z"></path><path class="line" stroke="black" fill="none" d="M0,37.1676C1.0169491525423728,36.737,2.0338983050847457,36.306400000000004,3.0508474576271185,36.306400000000004C4.067796610169491,36.306400000000004,5.084745762711864,37.692800000000005,6.101694915254237,37.692800000000005C7.11864406779661,37.692800000000005,8.135593220338983,33.010799999999996,9.152542372881356,33.010799999999996C10.169491525423728,33.010799999999996,11.186440677966102,35.4128,12.203389830508474,35.4128C13.220338983050846,35.4128,14.23728813559322,30.437599999999996,15.254237288135592,30.437599999999996C16.271186440677965,30.437599999999996,17.28813559322034,34.708800000000004,18.305084745762713,34.708800000000004C19.322033898305087,34.708800000000004,20.338983050847457,24.153599999999997,21.35593220338983,24.153599999999997C22.372881355932204,24.153599999999997,23.389830508474574,27.952666666666666,24.406779661016948,28.1508C25.423728813559322,28.348933333333335,26.440677966101696,28.249866666666666,27.45762711864407,28.448C28.47457627118644,28.646133333333335,29.491525423728813,30.8572,30.508474576271183,31.173199999999998C31.525423728813557,31.489199999999997,32.54237288135593,31.647199999999998,33.559322033898304,31.647199999999998C34.57627118644068,31.647199999999998,35.59322033898305,29.714,36.610169491525426,29.714C37.6271186440678,29.714,38.644067796610166,29.824133333333332,39.66101694915254,30.044399999999996C40.67796610169491,30.26466666666666,41.69491525423729,33.3904,42.71186440677966,33.3904C43.728813559322035,33.3904,44.7457627118644,32.9596,45.762711864406775,32.098C46.77966101694915,31.236399999999996,47.79661016949152,19.368333333333332,48.813559322033896,15.5016C49.83050847457627,11.634866666666667,50.847457627118644,8.897599999999999,51.86440677966102,8.897599999999999C52.88135593220339,8.897599999999999,53.898305084745765,18.508266666666657,54.91525423728814,20.9672C55.93220338983051,23.426133333333333,56.94915254237288,24.6556,57.96610169491525,24.6556C58.983050847457626,24.6556,59.99999999999999,18.0932,61.01694915254237,18.0932C62.03389830508474,18.0932,63.05084745762712,28.896799999999992,64.0677966101695,29.6224C65.08474576271186,30.348000000000003,66.10169491525424,30.710800000000003,67.11864406779661,30.710800000000003C68.13559322033899,30.710800000000003,69.15254237288136,30.320800000000002,70.16949152542374,30.320800000000002C71.1864406779661,30.320800000000002,72.20338983050848,30.43746666666667,73.22033898305085,30.6708C74.23728813559322,30.90413333333333,75.2542372881356,36.2464,76.27118644067797,36.2464C77.28813559322033,36.2464,78.30508474576271,35.063266666666664,79.32203389830508,34.6156C80.33898305084746,34.16793333333333,81.35593220338983,33.5604,82.37288135593221,33.5604C83.38983050847457,33.5604,84.40677966101696,34.870799999999996,85.42372881355932,34.8908C86.4406779661017,34.9108,87.45762711864407,34.9208,88.47457627118645,34.9208C89.49152542372882,34.9208,90.50847457627118,33.8952,91.52542372881355,33.8952C92.54237288135593,33.8952,93.55932203389831,35.264399999999995,94.57627118644069,35.8388C95.59322033898306,36.413199999999996,96.61016949152543,37.3416,97.62711864406779,37.3416C98.64406779661016,37.3416,99.66101694915254,33.029199999999996,100.6779661016949,33.029199999999996C101.69491525423729,33.029199999999996,102.71186440677965,37.2164,103.72881355932203,37.2164C104.7457627118644,37.2164,105.76271186440678,34.3292,106.77966101694915,34.3292C107.79661016949153,34.3292,108.8135593220339,35.7328,109.83050847457628,35.7328C110.84745762711864,35.7328,111.86440677966102,28.6416,112.88135593220339,28.6416C113.89830508474576,28.6416,114.91525423728814,29.063000000000002,115.9322033898305,29.7776C116.94915254237289,30.4922,117.96610169491525,32.9292,118.98305084745763,32.9292C120,32.9292,121.01694915254237,32.29659999999999,122.03389830508473,31.7536C123.05084745762711,31.210599999999996,124.0677966101695,30.47386666666667,125.08474576271188,29.6712C126.10169491525424,28.868533333333335,127.11864406779662,26.937600000000003,128.135593220339,26.937600000000003C129.15254237288136,26.937600000000003,130.16949152542372,30.030666666666672,131.1864406779661,31.3152C132.20338983050846,32.59973333333334,133.22033898305085,33.87246666666667,134.23728813559322,34.644800000000004C135.25423728813558,35.41713333333334,136.27118644067798,35.949200000000005,137.28813559322035,35.949200000000005C138.3050847457627,35.949200000000005,139.3220338983051,32.2972,140.33898305084747,32.2972C141.35593220338984,32.2972,142.3728813559322,37.1588,143.38983050847457,37.1588C144.40677966101694,37.1588,145.42372881355934,26.7712,146.4406779661017,26.7712C147.45762711864407,26.7712,148.47457627118644,28.510400000000004,149.4915254237288,28.510400000000004C150.50847457627117,28.510400000000004,151.52542372881356,27.408933333333334,152.54237288135593,27.0916C153.5593220338983,26.774266666666666,154.5762711864407,26.843133333333338,155.59322033898306,26.6064C156.61016949152543,26.369666666666667,157.6271186440678,25.6712,158.64406779661016,25.6712C159.66101694915253,25.6712,160.67796610169492,28.391200000000005,161.6949152542373,28.391200000000005C162.71186440677965,28.391200000000005,163.72881355932205,26.1856,164.74576271186442,26.1856C165.76271186440678,26.1856,166.77966101694915,26.88826666666667,167.79661016949152,27.2804C168.81355932203388,27.672533333333334,169.83050847457628,28.5384,170.84745762711864,28.5384C171.864406779661,28.5384,172.8813559322034,25.612399999999997,173.89830508474577,25.612399999999997C174.91525423728814,25.612399999999997,175.93220338983053,25.957066666666666,176.9491525423729,26.6464C177.96610169491527,27.33573333333333,178.98305084745763,28.737066666666664,180,30.1384"></path><path class="axis-ceiling" stroke-width="1" stroke="black" fill="none" d="M175,0L180,0"></path><text class="axis-ceiling-label" font-family="sans-serif" text-anchor="end" font-size="10px" x="170" y="2.5">100000</text></g></svg>