<svg xmlns="http://www.w3.org/2000/svg" viewBox="0 0 180 60"><g transform="translate(0,20)"><path class="area" fill="rgba(0, 0, 0, 0.2)" d="M0,21.401176C1.0169491525423728,21.38381233333333,2.0338983050847457,21.366448666666663,3.0508474576271185,21.348415999999997C4.067796610169491,21.33038333333333,5.084745762711864,21.311685333333333,6.101694915254237,21.29298C7.11864406779661,21.274274666666667,8.135593220338983,21.254994666666665,9.152542372881356,21.236183999999998C10.169491525423728,21.21737333333333,11.186440677966102,21.198868666666666,12.203389830508474,21.180115999999998C13.220338983050846,21.16136333333333,14.23728813559322,21.142575333333333,15.254237288135592,21.123668000000002C16.271186440677965,21.104760666666667,17.28813559322034,21.085398666666666,18.305084745762713,21.066672C19.322033898305087,21.047945333333335,20.338983050847457,21.029748666666666,21.35593220338983,21.011308C22.372881355932204,20.992867333333333,23.389830508474574,20.974118666666666,24.406779661016948,20.956028C25.423728813559322,20.937937333333334,26.440677966101696,20.92038266666667,27.45762711864407,20.902764C28.47457627118644,20.885145333333334,29.491525423728813,20.867682666666667,30.508474576271183,20.850316C31.525423728813557,20.83294933333333,32.54237288135593,20.815866666666665,33.559322033898304,20.798564C34.57627118644068,20.781261333333333,35.59322033898305,20.763418,36.610169491525426,20.7465C37.6271186440678,20.729582,38.644067796610166,20.71337933333333,39.66101694915254,20.697055999999996C40.67796610169491,20.68073266666666,41.69491525423729,20.66433933333333,42.71186440677966,20.648559999999996C43.728813559322035,20.632780666666665,44.7457627118644,20.617584666666666,45.762711864406775,20.60238C46.77966101694915,20.587175333333334,47.79661016949152,20.572178666666662,48.813559322033896,20.557331999999995C49.83050847457627,20.542485333333328,50.847457627118644,20.527966666666668,51.86440677966102,20.5133C52.88135593220339,20.498633333333334,53.898305084745765,20.483468,54.91525423728814,20.469331999999998C55.93220338983051,20.455195999999997,56.94915254237288,20.442034,57.96610169491525,20.428484C58.983050847457626,20.414934000000002,59.99999999999999,20.401369333333335,61.01694915254237,20.388032000000003C62.03389830508474,20.37469466666667,63.05084745762712,20.361796666666667,64.0677966101695,20.34846C65.08474576271186,20.335123333333332,66.10169491525424,20.321410666666665,67.11864406779661,20.308011999999998C68.13559322033899,20.29461333333333,69.15254237288136,20.28117,70.16949152542374,20.268068C71.1864406779661,20.254966,72.20338983050848,20.242078000000003,73.22033898305085,20.229400000000002C74.23728813559322,20.216722,75.2542372881356,20.204207333333333,76.27118644067797,20.192C77.28813559322033,20.179792666666668,78.30508474576271,20.167802000000002,79.32203389830508,20.156156000000003C80.33898305084746,20.144510000000004,81.35593220338983,20.13336333333333,82.37288135593221,20.122124C83.38983050847457,20.110884666666667,84.40677966101696,20.099728000000002,85.42372881355932,20.088720000000002C86.4406779661017,20.077712000000002,87.45762711864407,20.066943333333338,88.47457627118645,20.056076000000004C89.49152542372882,20.04520866666667,90.50847457627118,20.034423333333333,91.52542372881355,20.023516C92.54237288135593,20.012608666666665,93.55932203389831,20.001578666666667,94.57627118644069,19.990632C95.59322033898306,19.979685333333336,96.61016949152543,19.968946666666668,97.62711864406779,19.957836C98.64406779661016,19.946725333333333,99.66101694915254,19.93556733333333,100.6779661016949,19.923968C101.69491525423729,19.912368666666666,102.71186440677965,19.900297333333338,103.72881355932203,19.888240000000003C104.7457627118644,19.876182666666672,105.76271186440678,19.863844,106.77966101694915,19.851624C107.79661016949153,19.839404,108.8135593220339,19.827152666666663,109.83050847457628,19.814919999999997C110.84745762711864,19.80268733333333,111.86440677966102,19.790299333333337,112.88135593220339,19.778228000000002C113.89830508474576,19.766156666666667,114.91525423728814,19.754593999999997,115.9322033898305,19.742492C116.94915254237289,19.730389999999996,117.96610169491525,19.717842666666666,118.98305084745763,19.705616C120,19.693389333333332,121.01694915254237,19.681252,122.03389830508473,19.669132C123.05084745762711,19.657012,124.0677966101695,19.644956666666666,125.08474576271188,19.632896C126.10169491525424,19.620835333333332,127.11864406779662,19.609033333333333,128.135593220339,19.596768C129.15254237288136,19.58450266666667,130.16949152542372,19.571620666666668,131.1864406779661,19.559304C132.20338983050846,19.546987333333334,133.22033898305085,19.535542,134.23728813559322,19.522868C135.25423728813558,19.510194,136.27118644067798,19.49706133333333,137.28813559322035,19.483259999999998C138.3050847457627,19.469458666666664,139.3220338983051,19.455136,140.33898305084747,19.44006C141.35593220338984,19.424984,142.3728813559322,19.408862666666664,143.38983050847457,19.392803999999998C144.40677966101694,19.376745333333332,145.42372881355934,19.360404,146.4406779661017,19.343708C147.45762711864407,19.327012,148.47457627118644,19.31008466666667,149.4915254237288,19.292628C150.50847457627117,19.275171333333333,151.52542372881356,19.257487333333334,152.54237288135593,19.238968C153.5593220338983,19.220448666666666,154.5762711864407,19.20062666666667,155.59322033898306,19.181512C156.61016949152543,19.162397333333335,157.6271186440678,19.143428666666665,158.64406779661016,19.12428C159.66101694915253,19.105131333333333,160.67796610169492,19.086054666666666,161.6949152542373,19.06662C162.71186440677965,19.047185333333335,163.72881355932205,19.02761066666667,164.74576271186442,19.007672000000003C165.76271186440678,18.98773333333334,166.77966101694915,18.967591333333335,167.79661016949152,18.946988C168.81355932203388,18.926384666666667,169.83050847457628,18.905392,170.84745762711864,18.884051999999997C171.864406779661,18.862711999999995,172.8813559322034,18.840497999999997,173.89830508474577,18.818948C174.91525423728814,18.797398,175.93220338983053,18.776006666666667,176.9491525423729,18.754752C177.96610169491527,18.733497333333332,178.98305084745763,18.712458666666667,180,18.69142L180,40C178.98305084745763,40,177.96610169491527,40,176.9491525423729,40C175.93220338983053,40,174.91525423728814,40,173.89830508474577,40C172.8813559322034,40,171.864406779661,40,170.84745762711864,40C169.83050847457628,40,168.81355932203388,40,167.79661016949152,40C166.77966101694915,40,165.76271186440678,40,164.74576271186442,40C163.72881355932205,40,162.71186440677965,40,161.6949152542373,40C160.67796610169492,40,159.66101694915253,40,158.64406779661016,40C157.6271186440678,40,156.61016949152543,40,155.59322033898306,40C154.5762711864407,40,153.5593220338983,40,152.54237288135593,40C151.52542372881356,40,150.50847457627117,40,149.4915254237288,40C148.47457627118644,40,147.45762711864407,40,146.4406779661017,40C145.42372881355934,40,144.40677966101694,40,143.38983050847457,40C142.3728813559322,40,141.35593220338984,40,140.33898305084747,40C139.3220338983051,40,138.3050847457627,40,137.28813559322035,40C136.27118644067798,40,135.25423728813558,40,134.23728813559322,40C133.22033898305085,40,132.20338983050846,40,131.1864406779661,40C130.16949152542372,40,129.15254237288136,40,128.135593220339,40C127.11864406779662,40,126.10169491525424,40,125.08474576271188,40C124.0677966101695,40,123.05084745762711,40,122.03389830508473,40C121.01694915254237,40,120,40,118.98305084745763,40C117.96610169491525,40,116.94915254237289,40,115.9322033898305,40C114.91525423728814,40,113.89830508474576,40,112.88135593220339,40C111.86440677966102,40,110.84745762711864,40,109.83050847457628,40C108.8135593220339,40,107.79661016949153,40,106.77966101694915,40C105.76271186440678,40,104.7457627118644,40,103.72881355932203,40C102.71186440677965,40,101.69491525423729,40,100.6779661016949,40C99.66101694915254,40,98.64406779661016,40,97.62711864406779,40C96.61016949152543,40,95.59322033898306,40,94.57627118644069,40C93.55932203389831,40,92.54237288135593,40,91.52542372881355,40C90.50847457627118,40,89.49152542372882,40,88.47457627118645,40C87.45762711864407,40,86.4406779661017,40,85.42372881355932,40C84.40677966101696,40,83.38983050847457,40,82.37288135593221,40C81.35593220338983,40,80.33898305084746,40,79.32203389830508,40C78.30508474576271,40,77.28813559322033,40,76.27118644067797,40C75.2542372881356,40,74.23728813559322,40,73.22033898305085,40C72.20338983050848,40,71.1864406779661,40,70.16949152542374,40C69.15254237288136,40,68.13559322033899,40,67.11864406779661,40C66.10169491525424,40,65.08474576271186,40,64.0677966101695,40C63.05084745762712,40,62.03389830508474,40,61.01694915254237,40C59.99999999999999,40,58.983050847457626,40,57.96610169491525,40C56.94915254237288,40,55.93220338983051,40,54.91525423728814,40C53.898305084745765,40,52.88135593220339,40,51.86440677966102,40C50.847457627118644,40,49.83050847457627,40,48.813559322033896,40C47.79661016949152,40,46.77966101694915,40,45.762711864406775,40C44.7457627118644,40,43.728813559322035,40,42.71186440677966,40C41.69491525423729,40,40.67796610169491,40,39.66101694915254,40C38.644067796610166,40,37.6271186440678,40,36.610169491525426,40C35.59322033898305,40,34.57627118644068,40,33.559322033898304,40C32.54237288135593,40,31.525423728813557,40,30.508474576271183,40C29.491525423728813,40,28.47457627118644,40,27.45762711864407,40C26.440677966101696,40,25.423728813559322,40,24.406779661016948,40C23.389830508474574,40,22.372881355932204,40,21.35593220338983,40C20.338983050847457,40,19.322033898305087,40,18.305084745762713,40C17.28813559322034,40,16.271186440677965,40,15.254237288135592,40C14.23728813559322,40,13.220338983050846,40,12.203389830508474,40C11.186440677966102,40,10.169491525423728,40,9.152542372881356,40C8.135593220338983,40,7.11864406779661,40,6.101694915254237,40C5.084745762711864,40,4.067796610169491,40,3.0508474576271185,40C2.0338983050847457,40,1.0169491525423728,40,0,40Z"></path><path class="line" stroke="black" fill="none" d="M0,21.401176C1.0169491525423728,21.38381233333333,2.0338983050847457,21.366448666666663,3.0508474576271185,21.348415999999997C4.067796610169491,21.33038333333333,5.084745762711864,21.311685333333333,6.101694915254237,21.29298C7.11864406779661,21.274274666666667,8.135593220338983,21.254994666666665,9.152542372881356,21.236183999999998C10.169491525423728,21.21737333333333,11.186440677966102,21.198868666666666,12.203389830508474,21.180115999999998C13.220338983050846,21.16136333333333,14.23728813559322,21.142575333333333,15.254237288135592,21.123668000000002C16.271186440677965,21.104760666666667,17.28813559322034,21.085398666666666,18.305084745762713,21.066672C19.322033898305087,21.047945333333335,20.338983050847457,21.029748666666666,21.35593220338983,21.011308C22.372881355932204,20.992867333333333,23.389830508474574,20.974118666666666,24.406779661016948,20.956028C25.423728813559322,20.937937333333334,26.440677966101696,20.92038266666667,27.45762711864407,20.902764C28.47457627118644,20.885145333333334,29.491525423728813,20.867682666666667,30.508474576271183,20.850316C31.525423728813557,20.83294933333333,32.54237288135593,20.815866666666665,33.559322033898304,20.798564C34.57627118644068,20.781261333333333,35.59322033898305,20.763418,36.610169491525426,20.7465C37.6271186440678,20.729582,38.644067796610166,20.71337933333333,39.66101694915254,20.697055999999996C40.67796610169491,20.68073266666666,41.69491525423729,20.66433933333333,42.71186440677966,20.648559999999996C43.728813559322035,20.632780666666665,44.7457627118644,20.617584666666666,45.762711864406775,20.60238C46.77966101694915,20.587175333333334,47.79661016949152,20.572178666666662,48.813559322033896,20.557331999999995C49.83050847457627,20.542485333333328,50.847457627118644,20.527966666666668,51.86440677966102,20.5133C52.88135593220339,20.498633333333334,53.898305084745765,20.483468,54.91525423728814,20.469331999999998C55.93220338983051,20.455195999999997,56.94915254237288,20.442034,57.96610169491525,20.428484C58.983050847457626,20.414934000000002,59.99999999999999,20.401369333333335,61.01694915254237,20.388032000000003C62.03389830508474,20.37469466666667,63.05084745762712,20.361796666666667,64.0677966101695,20.34846C65.08474576271186,20.335123333333332,66.10169491525424,20.321410666666665,67.11864406779661,20.308011999999998C68.13559322033899,20.29461333333333,69.15254237288136,20.28117,70.16949152542374,20.268068C71.1864406779661,20.254966,72.20338983050848,20.242078000000003,73.22033898305085,20.229400000000002C74.23728813559322,20.216722,75.2542372881356,20.204207333333333,76.27118644067797,20.192C77.28813559322033,20.179792666666668,78.30508474576271,20.167802000000002,79.32203389830508,20.156156000000003C80.33898305084746,20.144510000000004,81.35593220338983,20.13336333333333,82.37288135593221,20.122124C83.38983050847457,20.110884666666667,84.40677966101696,20.099728000000002,85.42372881355932,20.088720000000002C86.4406779661017,20.077712000000002,87.45762711864407,20.066943333333338,88.47457627118645,20.056076000000004C89.49152542372882,20.04520866666667,90.50847457627118,20.034423333333333,91.52542372881355,20.023516C92.54237288135593,20.012608666666665,93.55932203389831,20.001578666666667,94.57627118644069,19.990632C95.59322033898306,19.979685333333336,96.61016949152543,19.968946666666668,97.62711864406779,19.957836C98.64406779661016,19.946725333333333,99.66101694915254,19.93556733333333,100.6779661016949,19.923968C101.69491525423729,19.912368666666666,102.71186440677965,19.900297333333338,103.72881355932203,19.888240000000003C104.7457627118644,19.876182666666672,105.76271186440678,19.863844,106.77966101694915,19.851624C107.79661016949153,19.839404,108.8135593220339,19.827152666666663,109.83050847457628,19.814919999999997C110.84745762711864,19.80268733333333,111.86440677966102,19.790299333333337,112.88135593220339,19.778228000000002C113.89830508474576,19.766156666666667,114.91525423728814,19.754593999999997,115.9322033898305,19.742492C116.94915254237289,19.730389999999996,117.96610169491525,19.717842666666666,118.98305084745763,19.705616C120,19.693389333333332,121.01694915254237,19.681252,122.03389830508473,19.669132C123.05084745762711,19.657012,124.0677966101695,19.644956666666666,125.08474576271188,19.632896C126.10169491525424,19.620835333333332,127.11864406779662,19.609033333333333,128.135593220339,19.596768C129.15254237288136,19.58450266666667,130.16949152542372,19.571620666666668,131.1864406779661,19.559304C132.20338983050846,19.546987333333334,133.22033898305085,19.535542,134.23728813559322,19.522868C135.25423728813558,19.510194,136.27118644067798,19.49706133333333,137.28813559322035,19.483259999999998C138.3050847457627,19.469458666666664,139.3220338983051,19.455136,140.33898305084747,19.44006C141.35593220338984,19.424984,142.3728813559322,19.408862666666664,143.38983050847457,19.392803999999998C144.40677966101694,19.376745333333332,145.42372881355934,19.360404,146.4406779661017,19.343708C147.45762711864407,19.327012,148.47457627118644,19.31008466666667,149.4915254237288,19.292628C150.50847457627117,19.275171333333333,151.52542372881356,19.257487333333334,152.54237288135593,19.238968C153.5593220338983,19.220448666666666,154.5762711864407,19.20062666666667,155.59322033898306,19.181512C156.61016949152543,19.162397333333335,157.6271186440678,19.143428666666665,158.64406779661016,19.12428C159.66101694915253,19.105131333333333,160.67796610169492,19.086054666666666,161.6949152542373,19.06662C162.71186440677965,19.047185333333335,163.72881355932205,19.02761066666667,164.74576271186442,19.007672000000003C165.76271186440678,18.98773333333334,166.77966101694915,18.967591333333335,167.79661016949152,18.946988C168.81355932203388,18.926384666666667,169.83050847457628,18.905392,170.84745762711864,18.884051999999997C171.864406779661,18.862711999999995,172.8813559322034,18.840497999999997,173.89830508474577,18.818948C174.91525423728814,18.797398,175.93220338983053,18.776006666666667,176.9491525423729,18.754752C177.96610169491527,18.733497333333332,178.98305084745763,18.712458666666667,180,18.69142"></path><path class="axis-ceiling" stroke-width="1" stroke="black" fill="none" d="M175,0L180,0"></path><text class="axis-ceiling-label" font-family="sans-serif" text-anchor="end" font-size="10px" x="170" y="2.5">10000000</text></g></svg>