<svg xmlns="http://www.w3.org/2000/svg" viewBox="0 0 180 60"><g transform="translate(0,20)"><path class="area" fill="rgba(0, 0, 0, 0.2)" d="M0,39.647999999999996C1.3636363636363635,39.66311111111111,2.7272727272727275,39.67822222222222,4.090909090909091,39.73866666666667C4.318181818181818,39.74874074074074,4.545454545454545,39.99333333333333,4.7727272727272725,39.99333333333333C5,39.99333333333333,5.2272727272727275,39.900000000000006,5.454545454545455,39.900000000000006C58.63636363636363,39.900000000000006,111.81818181818181,39.900000000000006,165,39.900000000000006C165.22727272727272,39.900000000000006,165.45454545454547,39.900000000000006,165.6818181818182,39.900000000000006C165.9090909090909,39.900000000000006,166.13636363636363,39.900000000000006,166.36363636363635,39.900000000000006C166.59090909090907,39.900000000000006,166.8181818181818,39.900000000000006,167.04545454545453,39.900000000000006C167.27272727272725,39.900000000000006,167.5,39.568781045751635,167.72727272727272,39.348C171.36363636363635,35.81550326797384,175,0.5026666666666646,178.63636363636363,0.5026666666666646C178.86363636363635,0.5026666666666646,179.0909090909091,0.8328888888888876,179.3181818181818,1.4933333333333332C179.54545454545453,2.153777777777779,179.77272727272728,6.881555555555557,180,11.609333333333334L180,40C179.77272727272728,40,179.54545454545453,40,179.3181818181818,40C179.0909090909091,40,178.86363636363635,40,178.63636363636363,40C175,40,171.36363636363635,40,167.72727272727272,40C167.5,40,167.27272727272725,40,167.04545454545453,40C166.8181818181818,40,166.59090909090907,40,166.36363636363635,40C166.13636363636363,40,165.9090909090909,40,165.6818181818182,40C165.45454545454547,40,165.22727272727272,40,165,40C111.81818181818181,40,58.63636363636363,40,5.454545454545455,40C5.2272727272727275,40,5,40,4.7727272727272725,40C4.545454545454545,40,4.318181818181818,40,4.090909090909091,40C2.7272727272727275,40,1.3636363636363635,40,0,40Z"></path><path class="line" stroke="black" fill="none" d="M0,39.647999999999996C1.3636363636363635,39.66311111111111,2.7272727272727275,39.67822222222222,4.090909090909091,39.73866666666667C4.318181818181818,39.74874074074074,4.545454545454545,39.99333333333333,4.7727272727272725,39.99333333333333C5,39.99333333333333,5.2272727272727275,39.900000000000006,5.454545454545455,39.900000000000006C58.63636363636363,39.900000000000006,111.81818181818181,39.900000000000006,165,39.900000000000006C165.22727272727272,39.900000000000006,165.45454545454547,39.900000000000006,165.6818181818182,39.900000000000006C165.9090909090909,39.900000000000006,166.13636363636363,39.900000000000006,166.36363636363635,39.900000000000006C166.59090909090907,39.900000000000006,166.8181818181818,39.900000000000006,167.04545454545453,39.900000000000006C167.27272727272725,39.900000000000006,167.5,39.568781045751635,167.72727272727272,39.348C171.36363636363635,35.81550326797384,175,0.5026666666666646,178.63636363636363,0.5026666666666646C178.86363636363635,0.5026666666666646,179.0909090909091,0.8328888888888876,179.3181818181818,1.4933333333333332C179.54545454545453,2.153777777777779,179.77272727272728,6.881555555555557,180,11.609333333333334"></path><path class="axis-ceiling" stroke-width="1" stroke="black" fill="none" d="M175,0L180,0"></path><text class="axis-ceiling-label" font-family="sans-serif" text-anchor="end" font-size="10px" x="170" y="2.5">30000</text></g></svg>