<svg xmlns="http://www.w3.org/2000/svg" viewBox="0 0 180 60"><g transform="translate(0,20)"><path class="area" fill="rgba(0, 0, 0, 0.2)" d="M0,36.90824C0.8571428571428571,36.902213333333336,1.714285714285714,36.896186666666665,2.571428571428571,36.88812C3.4285714285714284,36.880053333333336,4.285714285714286,36.868728,5.142857142857142,36.85984C9.428571428571427,36.8154,13.714285714285715,36.81493619047619,18,36.76692C19.71428571428571,36.74771352380952,21.428571428571427,36.72690222222223,23.14285714285714,36.70112C23.999999999999996,36.688228888888894,24.857142857142854,36.67013333333333,25.71428571428571,36.65956C26.57142857142857,36.648986666666666,27.428571428571427,36.64399111111111,28.285714285714285,36.63768C30,36.62505777777778,31.714285714285715,36.62646222222223,33.42857142857143,36.6116C34.285714285714285,36.60416888888889,35.142857142857146,36.591633333333334,36,36.58468C36.857142857142854,36.57772666666666,37.714285714285715,36.57510666666666,38.57142857142857,36.56988C39.42857142857142,36.56465333333333,40.285714285714285,36.55984133333333,41.14285714285714,36.55332C44.57142857142857,36.527234666666665,47.99999999999999,36.46357777777778,51.42857142857142,36.427C53.14285714285714,36.40871111111111,54.857142857142854,36.38828,56.57142857142857,36.37628C57.42857142857143,36.37028,58.285714285714285,36.36604666666666,59.142857142857146,36.361959999999996C60,36.35787333333333,60.85714285714286,36.35747333333333,61.714285714285715,36.35176C62.57142857142858,36.346046666666666,63.42857142857143,36.3348,64.28571428571429,36.32768C65.14285714285715,36.32056,66,36.31724666666667,66.85714285714286,36.30904C67.71428571428572,36.30083333333334,68.57142857142857,36.287573333333334,69.42857142857143,36.27844C71.14285714285714,36.260173333333334,72.85714285714286,36.25006666666667,74.57142857142857,36.23644C75.42857142857143,36.22962666666667,76.28571428571428,36.222899999999996,77.14285714285714,36.21628C78,36.20966,78.85714285714285,36.20427333333333,79.71428571428571,36.19672C80.57142857142857,36.189166666666665,81.42857142857142,36.18212,82.28571428571428,36.17096C83.14285714285714,36.159800000000004,84,36.142093333333335,84.85714285714286,36.129760000000005C85.71428571428572,36.117426666666674,86.57142857142857,36.10785333333334,87.42857142857143,36.09696C88.28571428571429,36.08606666666667,89.14285714285714,36.08194666666667,90,36.0644C90.85714285714285,36.04685333333333,91.71428571428571,36.015546666666665,92.57142857142856,35.99168C93.42857142857142,35.96781333333333,94.28571428571428,35.96818666666667,95.14285714285714,35.9212C96,35.87421333333333,96.85714285714285,35.57284,97.71428571428571,35.44652C98.57142857142857,35.3202,99.42857142857143,35.27204666666667,100.28571428571429,35.16328C101.14285714285714,35.05451333333333,102,34.89393333333334,102.85714285714285,34.79392C103.71428571428571,34.69390666666666,104.57142857142857,34.717013333333334,105.42857142857143,34.563199999999995C106.28571428571429,34.409386666666656,107.14285714285714,34.05722,108,33.86428C108.85714285714286,33.67134,109.71428571428572,33.64138666666667,110.57142857142858,33.40556C111.42857142857143,33.16973333333333,112.28571428571429,32.69688,113.14285714285714,32.44932C114,32.20176,114.85714285714286,32.27249333333333,115.71428571428572,31.920199999999998C116.57142857142858,31.567906666666666,117.42857142857143,30.797153333333334,118.28571428571429,30.33556C119.14285714285714,29.87396666666667,120,29.54066,120.85714285714285,29.150640000000003C121.71428571428571,28.76062,122.57142857142857,28.335086666666673,123.42857142857143,27.995440000000002C124.28571428571428,27.655793333333335,125.14285714285714,27.399086666666662,125.99999999999999,27.112759999999998C126.85714285714285,26.826433333333327,127.71428571428572,26.58812666666667,128.57142857142858,26.27748C129.42857142857144,25.966833333333337,130.28571428571428,25.586239999999997,131.14285714285714,25.24888C132,24.91152,132.85714285714286,24.52940666666667,133.71428571428572,24.253320000000002C134.57142857142858,23.977233333333338,135.42857142857142,23.83422,136.28571428571428,23.59236C137.14285714285714,23.350499999999997,138,23.32896,138.85714285714286,22.80216C139.71428571428572,22.275360000000006,140.57142857142856,21.278999999999993,141.42857142857142,20.35232C142.28571428571428,19.425639999999994,143.14285714285714,18.07766666666667,144,17.24208C144.85714285714286,16.406493333333334,145.71428571428572,15.911753333333335,146.57142857142858,15.338799999999999C147.42857142857144,14.76584666666667,148.28571428571428,14.425213333333328,149.14285714285714,13.804359999999999C150,13.183506666666663,150.85714285714286,12.151753333333332,151.71428571428572,11.613679999999999C152.57142857142858,11.07560666666667,153.42857142857142,10.903699999999997,154.28571428571428,10.57592C155.14285714285714,10.24814,156,9.963140000000005,156.85714285714286,9.647000000000002C157.71428571428572,9.330860000000003,158.57142857142856,8.995886666666664,159.42857142857142,8.679079999999999C160.28571428571428,8.36227333333333,161.14285714285714,7.964206666666666,162,7.74616C162.85714285714286,7.528113333333335,163.7142857142857,7.5231,164.57142857142856,7.370800000000002C165.42857142857142,7.2185000000000015,166.28571428571428,7.029426666666667,167.14285714285714,6.8323599999999995C168,6.635293333333332,168.85714285714286,6.38088,169.71428571428572,6.188400000000001C170.57142857142858,5.995920000000001,171.42857142857144,5.847286666666667,172.2857142857143,5.677479999999999C173.14285714285717,5.507673333333333,174,5.355959999999999,174.85714285714286,5.16956C175.71428571428572,4.983159999999999,176.57142857142858,4.716933333333333,177.42857142857144,4.55908C178.2857142857143,4.401226666666668,179.14285714285714,4.311833333333334,180,4.222440000000001L180,40C179.14285714285714,40,178.2857142857143,40,177.42857142857144,40C176.57142857142858,40,175.71428571428572,40,174.85714285714286,40C174,40,173.14285714285717,40,172.2857142857143,40C171.42857142857144,40,170.57142857142858,40,169.71428571428572,40C168.85714285714286,40,168,40,167.14285714285714,40C166.28571428571428,40,165.42857142857142,40,164.57142857142856,40C163.7142857142857,40,162.85714285714286,40,162,40C161.14285714285714,40,160.28571428571428,40,159.42857142857142,40C158.57142857142856,40,157.71428571428572,40,156.85714285714286,40C156,40,155.14285714285714,40,154.28571428571428,40C153.42857142857142,40,152.57142857142858,40,151.71428571428572,40C150.85714285714286,40,150,40,149.14285714285714,40C148.28571428571428,40,147.42857142857144,40,146.57142857142858,40C145.71428571428572,40,144.85714285714286,40,144,40C143.14285714285714,40,142.28571428571428,40,141.42857142857142,40C140.57142857142856,40,139.71428571428572,40,138.85714285714286,40C138,40,137.14285714285714,40,136.28571428571428,40C135.42857142857142,40,134.57142857142858,40,133.71428571428572,40C132.85714285714286,40,132,40,131.14285714285714,40C130.28571428571428,40,129.42857142857144,40,128.57142857142858,40C127.71428571428572,40,126.85714285714285,40,125.99999999999999,40C125.14285714285714,40,124.28571428571428,40,123.42857142857143,40C122.57142857142857,40,121.71428571428571,40,120.85714285714285,40C120,40,119.14285714285714,40,118.28571428571429,40C117.42857142857143,40,116.57142857142858,40,115.71428571428572,40C114.85714285714286,40,114,40,113.14285714285714,40C112.28571428571429,40,111.42857142857143,40,110.57142857142858,40C109.71428571428572,40,108.85714285714286,40,108,40C107.14285714285714,40,106.28571428571429,40,105.42857142857143,40C104.57142857142857,40,103.71428571428571,40,102.85714285714285,40C102,40,101.14285714285714,40,100.28571428571429,40C99.42857142857143,40,98.57142857142857,40,97.71428571428571,40C96.85714285714285,40,96,40,95.14285714285714,40C94.28571428571428,40,93.42857142857142,40,92.57142857142856,40C91.71428571428571,40,90.85714285714285,40,90,40C89.14285714285714,40,88.28571428571429,40,87.42857142857143,40C86.57142857142857,40,85.71428571428572,40,84.85714285714286,40C84,40,83.14285714285714,40,82.28571428571428,40C81.42857142857142,40,80.57142857142857,40,79.71428571428571,40C78.85714285714285,40,78,40,77.14285714285714,40C76.28571428571428,40,75.42857142857143,40,74.57142857142857,40C72.85714285714286,40,71.14285714285714,40,69.42857142857143,40C68.57142857142857,40,67.71428571428572,40,66.85714285714286,40C66,40,65.14285714285715,40,64.28571428571429,40C63.42857142857143,40,62.57142857142858,40,61.714285714285715,40C60.85714285714286,40,60,40,59.142857142857146,40C58.285714285714285,40,57.42857142857143,40,56.57142857142857,40C54.857142857142854,40,53.14285714285714,40,51.42857142857142,40C47.99999999999999,40,44.57142857142857,40,41.14285714285714,40C40.285714285714285,40,39.42857142857142,40,38.57142857142857,40C37.714285714285715,40,36.857142857142854,40,36,40C35.142857142857146,40,34.285714285714285,40,33.42857142857143,40C31.714285714285715,40,30,40,28.285714285714285,40C27.428571428571427,40,26.57142857142857,40,25.71428571428571,40C24.857142857142854,40,23.999999999999996,40,23.14285714285714,40C21.428571428571427,40,19.71428571428571,40,18,40C13.714285714285715,40,9.428571428571427,40,5.142857142857142,40C4.285714285714286,40,3.4285714285714284,40,2.571428571428571,40C1.714285714285714,40,0.8571428571428571,40,0,40Z"></path><path class="line" stroke="black" fill="none" d="M0,36.90824C0.8571428571428571,36.902213333333336,1.714285714285714,36.896186666666665,2.571428571428571,36.88812C3.4285714285714284,36.880053333333336,4.285714285714286,36.868728,5.142857142857142,36.85984C9.428571428571427,36.8154,13.714285714285715,36.81493619047619,18,36.76692C19.71428571428571,36.74771352380952,21.428571428571427,36.72690222222223,23.14285714285714,36.70112C23.999999999999996,36.688228888888894,24.857142857142854,36.67013333333333,25.71428571428571,36.65956C26.57142857142857,36.648986666666666,27.428571428571427,36.64399111111111,28.285714285714285,36.63768C30,36.62505777777778,31.714285714285715,36.62646222222223,33.42857142857143,36.6116C34.285714285714285,36.60416888888889,35.142857142857146,36.591633333333334,36,36.58468C36.857142857142854,36.57772666666666,37.714285714285715,36.57510666666666,38.57142857142857,36.56988C39.42857142857142,36.56465333333333,40.285714285714285,36.55984133333333,41.14285714285714,36.55332C44.57142857142857,36.527234666666665,47.99999999999999,36.46357777777778,51.42857142857142,36.427C53.14285714285714,36.40871111111111,54.857142857142854,36.38828,56.57142857142857,36.37628C57.42857142857143,36.37028,58.285714285714285,36.36604666666666,59.142857142857146,36.361959999999996C60,36.35787333333333,60.85714285714286,36.35747333333333,61.714285714285715,36.35176C62.57142857142858,36.346046666666666,63.42857142857143,36.3348,64.28571428571429,36.32768C65.14285714285715,36.32056,66,36.31724666666667,66.85714285714286,36.30904C67.71428571428572,36.30083333333334,68.57142857142857,36.287573333333334,69.42857142857143,36.27844C71.14285714285714,36.260173333333334,72.85714285714286,36.25006666666667,74.57142857142857,36.23644C75.42857142857143,36.22962666666667,76.28571428571428,36.222899999999996,77.14285714285714,36.21628C78,36.20966,78.85714285714285,36.20427333333333,79.71428571428571,36.19672C80.57142857142857,36.189166666666665,81.42857142857142,36.18212,82.28571428571428,36.17096C83.14285714285714,36.159800000000004,84,36.142093333333335,84.85714285714286,36.129760000000005C85.71428571428572,36.117426666666674,86.57142857142857,36.10785333333334,87.42857142857143,36.09696C88.28571428571429,36.08606666666667,89.14285714285714,36.08194666666667,90,36.0644C90.85714285714285,36.04685333333333,91.71428571428571,36.015546666666665,92.57142857142856,35.99168C93.42857142857142,35.96781333333333,94.28571428571428,35.96818666666667,95.14285714285714,35.9212C96,35.87421333333333,96.85714285714285,35.57284,97.71428571428571,35.44652C98.57142857142857,35.3202,99.42857142857143,35.27204666666667,100.28571428571429,35.16328C101.14285714285714,35.05451333333333,102,34.89393333333334,102.85714285714285,34.79392C103.71428571428571,34.69390666666666,104.57142857142857,34.717013333333334,105.42857142857143,34.563199999999995C106.28571428571429,34.409386666666656,107.14285714285714,34.05722,108,33.86428C108.85714285714286,33.67134,109.71428571428572,33.64138666666667,110.57142857142858,33.40556C111.42857142857143,33.16973333333333,112.28571428571429,32.69688,113.14285714285714,32.44932C114,32.20176,114.85714285714286,32.27249333333333,115.71428571428572,31.920199999999998C116.57142857142858,31.567906666666666,117.42857142857143,30.797153333333334,118.28571428571429,30.33556C119.14285714285714,29.87396666666667,120,29.54066,120.85714285714285,29.150640000000003C121.71428571428571,28.76062,122.57142857142857,28.335086666666673,123.42857142857143,27.995440000000002C124.28571428571428,27.655793333333335,125.14285714285714,27.399086666666662,125.99999999999999,27.112759999999998C126.85714285714285,26.826433333333327,127.71428571428572,26.58812666666667,128.57142857142858,26.27748C129.42857142857144,25.966833333333337,130.28571428571428,25.586239999999997,131.14285714285714,25.24888C132,24.91152,132.85714285714286,24.52940666666667,133.71428571428572,24.253320000000002C134.57142857142858,23.977233333333338,135.42857142857142,23.83422,136.28571428571428,23.59236C137.14285714285714,23.350499999999997,138,23.32896,138.85714285714286,22.80216C139.71428571428572,22.275360000000006,140.57142857142856,21.278999999999993,141.42857142857142,20.35232C142.28571428571428,19.425639999999994,143.14285714285714,18.07766666666667,144,17.24208C144.85714285714286,16.406493333333334,145.71428571428572,15.911753333333335,146.57142857142858,15.338799999999999C147.42857142857144,14.76584666666667,148.28571428571428,14.425213333333328,149.14285714285714,13.804359999999999C150,13.183506666666663,150.85714285714286,12.151753333333332,151.71428571428572,11.613679999999999C152.57142857142858,11.07560666666667,153.42857142857142,10.903699999999997,154.28571428571428,10.57592C155.14285714285714,10.24814,156,9.963140000000005,156.85714285714286,9.647000000000002C157.71428571428572,9.330860000000003,158.57142857142856,8.995886666666664,159.42857142857142,8.679079999999999C160.28571428571428,8.36227333333333,161.14285714285714,7.964206666666666,162,7.74616C162.85714285714286,7.528113333333335,163.7142857142857,7.5231,164.57142857142856,7.370800000000002C165.42857142857142,7.2185000000000015,166.28571428571428,7.029426666666667,167.14285714285714,6.8323599999999995C168,6.635293333333332,168.85714285714286,6.38088,169.71428571428572,6.188400000000001C170.57142857142858,5.995920000000001,171.42857142857144,5.847286666666667,172.2857142857143,5.677479999999999C173.14285714285717,5.507673333333333,174,5.355959999999999,174.85714285714286,5.16956C175.71428571428572,4.983159999999999,176.57142857142858,4.716933333333333,177.42857142857144,4.55908C178.2857142857143,4.401226666666668,179.14285714285714,4.311833333333334,180,4.222440000000001"></path><path class="axis-ceiling" stroke-width="1" stroke="black" fill="none" d="M175,0L180,0"></path><text class="axis-ceiling-label" font-family="sans-serif" text-anchor="end" font-size="10px" x="170" y="2.5">1000000</text></g></svg>