<svg xmlns="http://www.w3.org/2000/svg" viewBox="0 0 180 60"><g transform="translate(0,20)"><path class="area" fill="rgba(0, 0, 0, 0.2)" d="M0,24.619537777777776C1.0169491525423728,24.545930370370368,2.0338983050847457,24.472322962962963,3.0508474576271185,24.398426666666666C4.067796610169491,24.32453037037037,5.084745762711864,24.250459259259255,6.101694915254237,24.176159999999996C7.11864406779661,24.101860740740737,8.135593220338983,24.02689925925926,9.152542372881356,23.952631111111113C10.169491525423728,23.878362962962967,11.186440677966102,23.804997037037037,12.203389830508474,23.73055111111111C13.220338983050846,23.656105185185186,14.23728813559322,23.580862222222223,15.254237288135592,23.505955555555555C16.271186440677965,23.43104888888889,17.28813559322034,23.357628148148148,18.305084745762713,23.281111111111112C19.322033898305087,23.204594074074077,20.338983050847457,23.126834074074075,21.35593220338983,23.046853333333335C22.372881355932204,22.966872592592594,23.389830508474574,22.88349777777778,24.406779661016948,22.80122666666667C25.423728813559322,22.718955555555556,26.440677966101696,22.638026666666665,27.45762711864407,22.553226666666664C28.47457627118644,22.468426666666666,29.491525423728813,22.380438518518524,30.508474576271183,22.29242666666667C31.525423728813557,22.204414814814818,32.54237288135593,22.116189629629627,33.559322033898304,22.025155555555553C34.57627118644068,21.93412148148148,35.59322033898305,21.845194074074076,36.610169491525426,21.746222222222222C37.6271186440678,21.647250370370372,38.644067796610166,21.54165185185185,39.66101694915254,21.431324444444442C40.67796610169491,21.320997037037035,41.69491525423729,21.201955555555557,42.71186440677966,21.08425777777778C43.728813559322035,20.96656,44.7457627118644,20.855041481481486,45.762711864406775,20.725137777777782C46.77966101694915,20.595234074074078,47.79661016949152,20.44994666666667,48.813559322033896,20.304835555555556C49.83050847457627,20.159724444444443,50.847457627118644,20.01429185185185,51.86440677966102,19.85447111111111C52.88135593220339,19.69465037037037,53.898305084745765,19.522877037037038,54.91525423728814,19.34591111111111C55.93220338983051,19.168945185185184,56.94915254237288,18.982465185185184,57.96610169491525,18.792675555555554C58.983050847457626,18.602885925925925,59.99999999999999,18.409161481481487,61.01694915254237,18.207173333333337C62.03389830508474,18.005185185185187,63.05084745762712,17.800379259259255,64.0677966101695,17.580746666666663C65.08474576271186,17.36111407407407,66.10169491525424,17.12346814814815,67.11864406779661,16.889377777777778C68.13559322033899,16.655287407407407,69.15254237288136,16.415001481481482,70.16949152542374,16.176204444444444C71.1864406779661,15.937407407407408,72.20338983050848,15.697626666666666,73.22033898305085,15.456595555555555C74.23728813559322,15.215564444444444,75.2542372881356,14.98090962962963,76.27118644067797,14.730017777777778C77.28813559322033,14.479125925925926,78.30508474576271,14.209017777777778,79.32203389830508,13.951244444444445C80.33898305084746,13.69347111111111,81.35593220338983,13.428807407407408,82.37288135593221,13.183377777777778C83.38983050847457,12.937948148148148,84.40677966101696,12.699810370370368,85.42372881355932,12.478666666666665C86.4406779661017,12.25752296296296,87.45762711864407,12.04799259259259,88.47457627118645,11.856515555555553C89.49152542372882,11.665038518518518,90.50847457627118,11.496961481481478,91.52542372881355,11.329804444444441C92.54237288135593,11.162647407407404,93.55932203389831,11.000160000000001,94.57627118644069,10.853573333333335C95.59322033898306,10.70698666666667,96.61016949152543,10.568334814814817,97.62711864406779,10.450284444444446C98.64406779661016,10.332234074074075,99.66101694915254,10.238322962962963,100.6779661016949,10.14527111111111C101.69491525423729,10.052219259259259,102.71186440677965,9.975899259259258,103.72881355932203,9.891973333333333C104.7457627118644,9.808047407407408,105.76271186440678,9.72804,106.77966101694915,9.641715555555557C107.79661016949153,9.555391111111113,108.8135593220339,9.466493333333336,109.83050847457628,9.37402666666667C110.84745762711864,9.281560000000002,111.86440677966102,9.186644444444443,112.88135593220339,9.086915555555555C113.89830508474576,8.987186666666666,114.91525423728814,8.881601481481482,115.9322033898305,8.775653333333334C116.94915254237289,8.669705185185187,117.96610169491525,8.560130370370372,118.98305084745763,8.451226666666667C120,8.342322962962964,121.01694915254237,8.228405925925923,122.03389830508473,8.122231111111109C123.05084745762711,8.016056296296293,124.0677966101695,7.915080000000002,125.08474576271188,7.81417777777778C126.10169491525424,7.713275555555558,127.11864406779662,7.615025185185186,128.135593220339,7.516817777777778C129.15254237288136,7.41861037037037,130.16949152542372,7.32258962962963,131.1864406779661,7.224933333333334C132.20338983050846,7.127277037037038,133.22033898305085,7.025703703703703,134.23728813559322,6.930879999999999C135.25423728813558,6.836056296296295,136.27118644067798,6.7484133333333345,137.28813559322035,6.6559911111111125C138.3050847457627,6.563568888888891,139.3220338983051,6.469207407407407,140.33898305084747,6.376346666666666C141.35593220338984,6.283485925925925,142.3728813559322,6.192949629629628,143.38983050847457,6.098826666666666C144.40677966101694,6.0047037037037025,145.42372881355934,5.9071274074074065,146.4406779661017,5.811608888888888C147.45762711864407,5.71609037037037,148.47457627118644,5.619635555555557,149.4915254237288,5.525715555555557C150.50847457627117,5.431795555555556,151.52542372881356,5.34105037037037,152.54237288135593,5.248088888888889C153.5593220338983,5.155127407407408,154.5762711864407,5.0607911111111115,155.59322033898306,4.967946666666667C156.61016949152543,4.875102222222223,157.6271186440678,4.781334814814815,158.64406779661016,4.691022222222223C159.66101694915253,4.60070962962963,160.67796610169492,4.51284888888889,161.6949152542373,4.426071111111112C162.71186440677965,4.339293333333334,163.72881355932205,4.2558385185185195,164.74576271186442,4.170355555555556C165.76271186440678,4.0848725925925935,166.77966101694915,3.9971940740740735,167.79661016949152,3.913173333333333C168.81355932203388,3.8291525925925916,169.83050847457628,3.7469244444444447,170.84745762711864,3.666231111111111C171.864406779661,3.5855377777777777,172.8813559322034,3.505208888888888,173.89830508474577,3.429013333333333C174.91525423728814,3.3528177777777777,175.93220338983053,3.275325925925928,176.9491525423729,3.2090577777777796C177.96610169491527,3.1427896296296316,178.98305084745763,3.0870970370370374,180,3.0314044444444432L180,40C178.98305084745763,40,177.96610169491527,40,176.9491525423729,40C175.93220338983053,40,174.91525423728814,40,173.89830508474577,40C172.8813559322034,40,171.864406779661,40,170.84745762711864,40C169.83050847457628,40,168.81355932203388,40,167.79661016949152,40C166.77966101694915,40,165.76271186440678,40,164.74576271186442,40C163.72881355932205,40,162.71186440677965,40,161.6949152542373,40C160.67796610169492,40,159.66101694915253,40,158.64406779661016,40C157.6271186440678,40,156.61016949152543,40,155.59322033898306,40C154.5762711864407,40,153.5593220338983,40,152.54237288135593,40C151.52542372881356,40,150.50847457627117,40,149.4915254237288,40C148.47457627118644,40,147.45762711864407,40,146.4406779661017,40C145.42372881355934,40,144.40677966101694,40,143.38983050847457,40C142.3728813559322,40,141.35593220338984,40,140.33898305084747,40C139.3220338983051,40,138.3050847457627,40,137.28813559322035,40C136.27118644067798,40,135.25423728813558,40,134.23728813559322,40C133.22033898305085,40,132.20338983050846,40,131.1864406779661,40C130.16949152542372,40,129.15254237288136,40,128.135593220339,40C127.11864406779662,40,126.10169491525424,40,125.08474576271188,40C124.0677966101695,40,123.05084745762711,40,122.03389830508473,40C121.01694915254237,40,120,40,118.98305084745763,40C117.96610169491525,40,116.94915254237289,40,115.9322033898305,40C114.91525423728814,40,113.89830508474576,40,112.88135593220339,40C111.86440677966102,40,110.84745762711864,40,109.83050847457628,40C108.8135593220339,40,107.79661016949153,40,106.77966101694915,40C105.76271186440678,40,104.7457627118644,40,103.72881355932203,40C102.71186440677965,40,101.69491525423729,40,100.6779661016949,40C99.66101694915254,40,98.64406779661016,40,97.62711864406779,40C96.61016949152543,40,95.59322033898306,40,94.57627118644069,40C93.55932203389831,40,92.54237288135593,40,91.52542372881355,40C90.50847457627118,40,89.49152542372882,40,88.47457627118645,40C87.45762711864407,40,86.4406779661017,40,85.42372881355932,40C84.40677966101696,40,83.38983050847457,40,82.37288135593221,40C81.35593220338983,40,80.33898305084746,40,79.32203389830508,40C78.30508474576271,40,77.28813559322033,40,76.27118644067797,40C75.2542372881356,40,74.23728813559322,40,73.22033898305085,40C72.20338983050848,40,71.1864406779661,40,70.16949152542374,40C69.15254237288136,40,68.13559322033899,40,67.11864406779661,40C66.10169491525424,40,65.08474576271186,40,64.0677966101695,40C63.05084745762712,40,62.03389830508474,40,61.01694915254237,40C59.99999999999999,40,58.983050847457626,40,57.96610169491525,40C56.94915254237288,40,55.93220338983051,40,54.91525423728814,40C53.898305084745765,40,52.88135593220339,40,51.86440677966102,40C50.847457627118644,40,49.83050847457627,40,48.813559322033896,40C47.79661016949152,40,46.77966101694915,40,45.762711864406775,40C44.7457627118644,40,43.728813559322035,40,42.71186440677966,40C41.69491525423729,40,40.67796610169491,40,39.66101694915254,40C38.644067796610166,40,37.6271186440678,40,36.610169491525426,40C35.59322033898305,40,34.57627118644068,40,33.559322033898304,40C32.54237288135593,40,31.525423728813557,40,30.508474576271183,40C29.491525423728813,40,28.47457627118644,40,27.45762711864407,40C26.440677966101696,40,25.423728813559322,40,24.406779661016948,40C23.389830508474574,40,22.372881355932204,40,21.35593220338983,40C20.338983050847457,40,19.322033898305087,40,18.305084745762713,40C17.28813559322034,40,16.271186440677965,40,15.254237288135592,40C14.23728813559322,40,13.220338983050846,40,12.203389830508474,40C11.186440677966102,40,10.169491525423728,40,9.152542372881356,40C8.135593220338983,40,7.11864406779661,40,6.101694915254237,40C5.084745762711864,40,4.067796610169491,40,3.0508474576271185,40C2.0338983050847457,40,1.0169491525423728,40,0,40Z"></path><path class="line" stroke="black" fill="none" d="M0,24.619537777777776C1.0169491525423728,24.545930370370368,2.0338983050847457,24.472322962962963,3.0508474576271185,24.398426666666666C4.067796610169491,24.32453037037037,5.084745762711864,24.250459259259255,6.101694915254237,24.176159999999996C7.11864406779661,24.101860740740737,8.135593220338983,24.02689925925926,9.152542372881356,23.952631111111113C10.169491525423728,23.878362962962967,11.186440677966102,23.804997037037037,12.203389830508474,23.73055111111111C13.220338983050846,23.656105185185186,14.23728813559322,23.580862222222223,15.254237288135592,23.505955555555555C16.271186440677965,23.43104888888889,17.28813559322034,23.357628148148148,18.305084745762713,23.281111111111112C19.322033898305087,23.204594074074077,20.338983050847457,23.126834074074075,21.35593220338983,23.046853333333335C22.372881355932204,22.966872592592594,23.389830508474574,22.88349777777778,24.406779661016948,22.80122666666667C25.423728813559322,22.718955555555556,26.440677966101696,22.638026666666665,27.45762711864407,22.553226666666664C28.47457627118644,22.468426666666666,29.491525423728813,22.380438518518524,30.508474576271183,22.29242666666667C31.525423728813557,22.204414814814818,32.54237288135593,22.116189629629627,33.559322033898304,22.025155555555553C34.57627118644068,21.93412148148148,35.59322033898305,21.845194074074076,36.610169491525426,21.746222222222222C37.6271186440678,21.647250370370372,38.644067796610166,21.54165185185185,39.66101694915254,21.431324444444442C40.67796610169491,21.320997037037035,41.69491525423729,21.201955555555557,42.71186440677966,21.08425777777778C43.728813559322035,20.96656,44.7457627118644,20.855041481481486,45.762711864406775,20.725137777777782C46.77966101694915,20.595234074074078,47.79661016949152,20.44994666666667,48.813559322033896,20.304835555555556C49.83050847457627,20.159724444444443,50.847457627118644,20.01429185185185,51.86440677966102,19.85447111111111C52.88135593220339,19.69465037037037,53.898305084745765,19.522877037037038,54.91525423728814,19.34591111111111C55.93220338983051,19.168945185185184,56.94915254237288,18.982465185185184,57.96610169491525,18.792675555555554C58.983050847457626,18.602885925925925,59.99999999999999,18.409161481481487,61.01694915254237,18.207173333333337C62.03389830508474,18.005185185185187,63.05084745762712,17.800379259259255,64.0677966101695,17.580746666666663C65.08474576271186,17.36111407407407,66.10169491525424,17.12346814814815,67.11864406779661,16.889377777777778C68.13559322033899,16.655287407407407,69.15254237288136,16.415001481481482,70.16949152542374,16.176204444444444C71.1864406779661,15.937407407407408,72.20338983050848,15.697626666666666,73.22033898305085,15.456595555555555C74.23728813559322,15.215564444444444,75.2542372881356,14.98090962962963,76.27118644067797,14.730017777777778C77.28813559322033,14.479125925925926,78.30508474576271,14.209017777777778,79.32203389830508,13.951244444444445C80.33898305084746,13.69347111111111,81.35593220338983,13.428807407407408,82.37288135593221,13.183377777777778C83.38983050847457,12.937948148148148,84.40677966101696,12.699810370370368,85.42372881355932,12.478666666666665C86.4406779661017,12.25752296296296,87.45762711864407,12.04799259259259,88.47457627118645,11.856515555555553C89.49152542372882,11.665038518518518,90.50847457627118,11.496961481481478,91.52542372881355,11.329804444444441C92.54237288135593,11.162647407407404,93.55932203389831,11.000160000000001,94.57627118644069,10.853573333333335C95.59322033898306,10.70698666666667,96.61016949152543,10.568334814814817,97.62711864406779,10.450284444444446C98.64406779661016,10.332234074074075,99.66101694915254,10.238322962962963,100.6779661016949,10.14527111111111C101.69491525423729,10.052219259259259,102.71186440677965,9.975899259259258,103.72881355932203,9.891973333333333C104.7457627118644,9.808047407407408,105.76271186440678,9.72804,106.77966101694915,9.641715555555557C107.79661016949153,9.555391111111113,108.8135593220339,9.466493333333336,109.83050847457628,9.37402666666667C110.84745762711864,9.281560000000002,111.86440677966102,9.186644444444443,112.88135593220339,9.086915555555555C113.89830508474576,8.987186666666666,114.91525423728814,8.881601481481482,115.9322033898305,8.775653333333334C116.94915254237289,8.669705185185187,117.96610169491525,8.560130370370372,118.98305084745763,8.451226666666667C120,8.342322962962964,121.01694915254237,8.228405925925923,122.03389830508473,8.122231111111109C123.05084745762711,8.016056296296293,124.0677966101695,7.915080000000002,125.08474576271188,7.81417777777778C126.10169491525424,7.713275555555558,127.11864406779662,7.615025185185186,128.135593220339,7.516817777777778C129.15254237288136,7.41861037037037,130.16949152542372,7.32258962962963,131.1864406779661,7.224933333333334C132.20338983050846,7.127277037037038,133.22033898305085,7.025703703703703,134.23728813559322,6.930879999999999C135.25423728813558,6.836056296296295,136.27118644067798,6.7484133333333345,137.28813559322035,6.6559911111111125C138.3050847457627,6.563568888888891,139.3220338983051,6.469207407407407,140.33898305084747,6.376346666666666C141.35593220338984,6.283485925925925,142.3728813559322,6.192949629629628,143.38983050847457,6.098826666666666C144.40677966101694,6.0047037037037025,145.42372881355934,5.9071274074074065,146.4406779661017,5.811608888888888C147.45762711864407,5.71609037037037,148.47457627118644,5.619635555555557,149.4915254237288,5.525715555555557C150.50847457627117,5.431795555555556,151.52542372881356,5.34105037037037,152.54237288135593,5.248088888888889C153.5593220338983,5.155127407407408,154.5762711864407,5.0607911111111115,155.59322033898306,4.967946666666667C156.61016949152543,4.875102222222223,157.6271186440678,4.781334814814815,158.64406779661016,4.691022222222223C159.66101694915253,4.60070962962963,160.67796610169492,4.51284888888889,161.6949152542373,4.426071111111112C162.71186440677965,4.339293333333334,163.72881355932205,4.2558385185185195,164.74576271186442,4.170355555555556C165.76271186440678,4.0848725925925935,166.77966101694915,3.9971940740740735,167.79661016949152,3.913173333333333C168.81355932203388,3.8291525925925916,169.83050847457628,3.7469244444444447,170.84745762711864,3.666231111111111C171.864406779661,3.5855377777777777,172.8813559322034,3.505208888888888,173.89830508474577,3.429013333333333C174.91525423728814,3.3528177777777777,175.93220338983053,3.275325925925928,176.9491525423729,3.2090577777777796C177.96610169491527,3.1427896296296316,178.98305084745763,3.0870970370370374,180,3.0314044444444432"></path><path class="axis-ceiling" stroke-width="1" stroke="black" fill="none" d="M175,0L180,0"></path><text class="axis-ceiling-label" font-family="sans-serif" text-anchor="end" font-size="10px" x="170" y="2.5">4500000</text></g></svg>