<svg xmlns="http://www.w3.org/2000/svg" viewBox="0 0 180 60"><g transform="translate(0,20)"><path class="area" fill="rgba(0, 0, 0, 0.2)" d="M0,11.76122336473239C1,11.75523117854318,2,11.74923899235397,3,11.74923899235397C5,11.74923899235397,7,11.80175717531006,9,11.821384914072048C10,11.831198783453042,11,11.847510845857002,12,11.847510845857002C13,11.847510845857002,14,11.845912929539882,15,11.842956784353206C16,11.84000063916653,17,11.834407932056596,18,11.829773974736941C19,11.825140017417286,20,11.819627206123217,21,11.815153040435273C22,11.81067887474733,23,11.80404752203127,24,11.802928980609284C25,11.801810439187298,26,11.802369709898292,27,11.801251168476306C28,11.80013262705432,29,11.786430494634997,30,11.774885549243788C31,11.763340603852578,32,11.76058419820554,33,11.731981496129048C34,11.703378794052556,35,11.443917132059793,36,11.342249706382876C37,11.24058228070596,38,11.205508017545121,39,11.121976942067544C40,11.038445866589967,41,10.916125372514243,42,10.841063253517413C43,10.766001134520584,44,10.784576911707132,45,10.671604228086572C46,10.558631544466012,47,10.251312288775438,48,10.101148102873854C49,9.95098391697227,50,9.952062510486329,51,9.770619112677071C52,9.589175714867814,53,9.043647084202199,54,9.012487716018311C55,8.981328347834424,56,8.996908031926369,57,8.965748663742481C58,8.934589295558593,59,8.153927278828409,60,7.85192109489226C61,7.5499149109561134,61.99999999999999,7.401987807898498,62.99999999999999,7.153711560125595C63.99999999999999,6.90543531235269,65,6.467086918658069,66,6.3622636082548345C67,6.2574402978516,68,6.284964406414034,69,6.205028642649983C70,6.1250928788859325,71,5.923875266652289,72,5.882649025670528C73,5.841422784688766,74,5.862035905179647,75,5.820809664197886C76,5.779583423216124,77,5.421490376548981,78,5.421490376548981C79,5.421490376548981,80,6.024144515551722,81,6.212219266077037C82,6.400294016602352,83,6.5499388797008695,84,6.5499388797008695C85,6.5499388797008695,86,5.944368543419383,87,5.441863809592293C88,4.9393590757652035,89,4.005097353051621,90,3.5349104767383333C91,3.0647236004250438,92.00000000000001,2.845289742176203,93.00000000000001,2.620742551712567C94.00000000000001,2.3961953612489335,95,2.4303108746194946,96,2.187627333956521C97,1.9449437932935452,98.00000000000001,1.3797208440193984,99.00000000000001,1.1646413077347129C100.00000000000001,0.9495617714500293,101,0.915566101803249,102,0.8420220033076875C103,0.7684779048121256,104,0.7233767167613436,105,0.7233767167613436C106,0.7233767167613436,107,1.4697634284892511,108,1.9918026892931628C109,2.5138419500970746,110,3.3269816159727736,111,3.855612281584815C112,4.3842429471968565,113,4.803496240901862,114,5.163586682965411C115,5.52367712502896,116,5.653387982071379,117,6.016154933966109C118,6.378921885860839,119,7.044334188218565,120,7.340188394333791C121,7.6360426004490165,122,7.6560165544130445,123,7.791280170657462C124,7.926543786901878,124.99999999999999,8.040714907760282,125.99999999999999,8.151770091800294C126.99999999999999,8.262825275840306,128,8.332893906346126,129,8.457611274897534C130,8.582328643448943,131,8.83759577510926,132,8.900074303108747C133,8.962552831108233,134,8.993792095107978,135,8.993792095107978C136,8.993792095107978,137,8.857889312336713,138,8.857889312336713C139,8.857889312336713,140,9.170921118861006,141,9.170921118861006C142,9.170921118861006,143,9.122983629347331,144,9.122983629347331C145,9.122983629347331,146,9.192492989142158,147,9.192492989142158C148,9.192492989142158,149,8.904029145993626,150,8.742599650056327C151,8.581170154119029,152,8.373321189169324,153,8.223916013518373C154,8.074510837867422,155,7.919033580211405,156,7.84616859615062C157,7.773303612089835,158,7.809736104120228,159,7.736871120059443C160,7.664006135998658,161,7.303995589750965,162,7.0909134488626835C163,6.877831307974402,164,6.626838602462389,165,6.4583782747297525C166,6.289917946997116,167,6.0801514824668645,168,6.0801514824668645C169,6.0801514824668645,170,6.420347866382238,171,6.594041370053452C172,6.767734873724665,173,7.1223125044941415,174,7.1223125044941415C175,7.1223125044941415,176,7.068143141343688,177,7.068143141343688C178,7.068143141343688,179,23.534071570671845,180,40L180,40C179,40,178,40,177,40C176,40,175,40,174,40C173,40,172,40,171,40C170,40,169,40,168,40C167,40,166,40,165,40C164,40,163,40,162,40C161,40,160,40,159,40C158,40,157,40,156,40C155,40,154,40,153,40C152,40,151,40,150,40C149,40,148,40,147,40C146,40,145,40,144,40C143,40,142,40,141,40C140,40,139,40,138,40C137,40,136,40,135,40C134,40,133,40,132,40C131,40,130,40,129,40C128,40,126.99999999999999,40,125.99999999999999,40C124.99999999999999,40,124,40,123,40C122,40,121,40,120,40C119,40,118,40,117,40C116,40,115,40,114,40C113,40,112,40,111,40C110,40,109,40,108,40C107,40,106,40,105,40C104,40,103,40,102,40C101,40,100.00000000000001,40,99.00000000000001,40C98.00000000000001,40,97,40,96,40C95,40,94.00000000000001,40,93.00000000000001,40C92.00000000000001,40,91,40,90,40C89,40,88,40,87,40C86,40,85,40,84,40C83,40,82,40,81,40C80,40,79,40,78,40C77,40,76,40,75,40C74,40,73,40,72,40C71,40,70,40,69,40C68,40,67,40,66,40C65,40,63.99999999999999,40,62.99999999999999,40C61.99999999999999,40,61,40,60,40C59,40,58,40,57,40C56,40,55,40,54,40C53,40,52,40,51,40C50,40,49,40,48,40C47,40,46,40,45,40C44,40,43,40,42,40C41,40,40,40,39,40C38,40,37,40,36,40C35,40,34,40,33,40C32,40,31,40,30,40C29,40,28,40,27,40C26,40,25,40,24,40C23,40,22,40,21,40C20,40,19,40,18,40C17,40,16,40,15,40C14,40,13,40,12,40C11,40,10,40,9,40C7,40,5,40,3,40C2,40,1,40,0,40Z"></path><path class="line" stroke="black" fill="none" d="M0,11.76122336473239C1,11.75523117854318,2,11.74923899235397,3,11.74923899235397C5,11.74923899235397,7,11.80175717531006,9,11.821384914072048C10,11.831198783453042,11,11.847510845857002,12,11.847510845857002C13,11.847510845857002,14,11.845912929539882,15,11.842956784353206C16,11.84000063916653,17,11.834407932056596,18,11.829773974736941C19,11.825140017417286,20,11.819627206123217,21,11.815153040435273C22,11.81067887474733,23,11.80404752203127,24,11.802928980609284C25,11.801810439187298,26,11.802369709898292,27,11.801251168476306C28,11.80013262705432,29,11.786430494634997,30,11.774885549243788C31,11.763340603852578,32,11.76058419820554,33,11.731981496129048C34,11.703378794052556,35,11.443917132059793,36,11.342249706382876C37,11.24058228070596,38,11.205508017545121,39,11.121976942067544C40,11.038445866589967,41,10.916125372514243,42,10.841063253517413C43,10.766001134520584,44,10.784576911707132,45,10.671604228086572C46,10.558631544466012,47,10.251312288775438,48,10.101148102873854C49,9.95098391697227,50,9.952062510486329,51,9.770619112677071C52,9.589175714867814,53,9.043647084202199,54,9.012487716018311C55,8.981328347834424,56,8.996908031926369,57,8.965748663742481C58,8.934589295558593,59,8.153927278828409,60,7.85192109489226C61,7.5499149109561134,61.99999999999999,7.401987807898498,62.99999999999999,7.153711560125595C63.99999999999999,6.90543531235269,65,6.467086918658069,66,6.3622636082548345C67,6.2574402978516,68,6.284964406414034,69,6.205028642649983C70,6.1250928788859325,71,5.923875266652289,72,5.882649025670528C73,5.841422784688766,74,5.862035905179647,75,5.820809664197886C76,5.779583423216124,77,5.421490376548981,78,5.421490376548981C79,5.421490376548981,80,6.024144515551722,81,6.212219266077037C82,6.400294016602352,83,6.5499388797008695,84,6.5499388797008695C85,6.5499388797008695,86,5.944368543419383,87,5.441863809592293C88,4.9393590757652035,89,4.005097353051621,90,3.5349104767383333C91,3.0647236004250438,92.00000000000001,2.845289742176203,93.00000000000001,2.620742551712567C94.00000000000001,2.3961953612489335,95,2.4303108746194946,96,2.187627333956521C97,1.9449437932935452,98.00000000000001,1.3797208440193984,99.00000000000001,1.1646413077347129C100.00000000000001,0.9495617714500293,101,0.915566101803249,102,0.8420220033076875C103,0.7684779048121256,104,0.7233767167613436,105,0.7233767167613436C106,0.7233767167613436,107,1.4697634284892511,108,1.9918026892931628C109,2.5138419500970746,110,3.3269816159727736,111,3.855612281584815C112,4.3842429471968565,113,4.803496240901862,114,5.163586682965411C115,5.52367712502896,116,5.653387982071379,117,6.016154933966109C118,6.378921885860839,119,7.044334188218565,120,7.340188394333791C121,7.6360426004490165,122,7.6560165544130445,123,7.791280170657462C124,7.926543786901878,124.99999999999999,8.040714907760282,125.99999999999999,8.151770091800294C126.99999999999999,8.262825275840306,128,8.332893906346126,129,8.457611274897534C130,8.582328643448943,131,8.83759577510926,132,8.900074303108747C133,8.962552831108233,134,8.993792095107978,135,8.993792095107978C136,8.993792095107978,137,8.857889312336713,138,8.857889312336713C139,8.857889312336713,140,9.170921118861006,141,9.170921118861006C142,9.170921118861006,143,9.122983629347331,144,9.122983629347331C145,9.122983629347331,146,9.192492989142158,147,9.192492989142158C148,9.192492989142158,149,8.904029145993626,150,8.742599650056327C151,8.581170154119029,152,8.373321189169324,153,8.223916013518373C154,8.074510837867422,155,7.919033580211405,156,7.84616859615062C157,7.773303612089835,158,7.809736104120228,159,7.736871120059443C160,7.664006135998658,161,7.303995589750965,162,7.0909134488626835C163,6.877831307974402,164,6.626838602462389,165,6.4583782747297525C166,6.289917946997116,167,6.0801514824668645,168,6.0801514824668645C169,6.0801514824668645,170,6.420347866382238,171,6.594041370053452C172,6.767734873724665,173,7.1223125044941415,174,7.1223125044941415C175,7.1223125044941415,176,7.068143141343688,177,7.068143141343688C178,7.068143141343688,179,23.534071570671845,180,40"></path><path class="axis-ceiling" stroke-width="1" stroke="black" fill="none" d="M175,0L180,0"></path><text class="axis-ceiling-label" font-family="sans-serif" text-anchor="end" font-size="10px" x="170" y="2.5">50000</text></g></svg>