<svg xmlns="http://www.w3.org/2000/svg" viewBox="0 0 180 60"><g transform="translate(0,20)"><path class="area" fill="rgba(0, 0, 0, 0.2)" d="M0,39.736C1.3636363636363635,39.74733333333333,2.7272727272727275,39.75866666666666,4.090909090909091,39.804C4.318181818181818,39.81155555555556,4.545454545454545,39.995,4.7727272727272725,39.995C5,39.995,5.2272727272727275,39.926206751054856,5.454545454545455,39.925000000000004C59.318181818181806,39.639,113.18181818181819,39.496,167.04545454545453,39.496C167.27272727272725,39.496,167.5,39.510999999999996,167.72727272727272,39.510999999999996C167.95454545454544,39.510999999999996,168.1818181818182,39.44616666666667,168.4090909090909,39.356C168.63636363636363,39.26583333333333,168.86363636363637,38.97,169.0909090909091,38.97C169.3181818181818,38.97,169.54545454545456,39.18,169.77272727272728,39.18C170.22727272727275,39.18,170.6818181818182,38.182,171.13636363636365,38.182C171.36363636363637,38.182,171.5909090909091,38.238,171.8181818181818,38.238C172.04545454545453,38.238,172.27272727272728,28.133,172.5,28.133C172.72727272727272,28.133,172.95454545454547,32.919,173.1818181818182,32.919C173.4090909090909,32.919,173.63636363636365,30.766,173.86363636363637,30.766C174.0909090909091,30.766,174.31818181818184,34.232,174.54545454545456,34.232C174.77272727272728,34.232,175,22.527,175.22727272727272,22.527C175.45454545454544,22.527,175.6818181818182,28.532000000000004,175.9090909090909,28.532000000000004C176.13636363636363,28.532000000000004,176.36363636363637,16.094,176.5909090909091,16.094C176.8181818181818,16.094,177.04545454545456,26.772,177.27272727272728,26.772C177.5,26.772,177.72727272727275,0.3840000000000021,177.95454545454547,0.3840000000000021C178.1818181818182,0.3840000000000021,178.4090909090909,9.881666666666687,178.63636363636363,10.377C178.86363636363635,10.872333333333334,179.0909090909091,10.624666666666668,179.3181818181818,11.120000000000001C179.54545454545453,11.615333333333334,179.77272727272728,15.161166666666666,180,18.706999999999997L180,40C179.77272727272728,40,179.54545454545453,40,179.3181818181818,40C179.0909090909091,40,178.86363636363635,40,178.63636363636363,40C178.4090909090909,40,178.1818181818182,40,177.95454545454547,40C177.72727272727275,40,177.5,40,177.27272727272728,40C177.04545454545456,40,176.8181818181818,40,176.5909090909091,40C176.36363636363637,40,176.13636363636363,40,175.9090909090909,40C175.6818181818182,40,175.45454545454544,40,175.22727272727272,40C175,40,174.77272727272728,40,174.54545454545456,40C174.31818181818184,40,174.0909090909091,40,173.86363636363637,40C173.63636363636365,40,173.4090909090909,40,173.1818181818182,40C172.95454545454547,40,172.72727272727272,40,172.5,40C172.27272727272728,40,172.04545454545453,40,171.8181818181818,40C171.5909090909091,40,171.36363636363637,40,171.13636363636365,40C170.6818181818182,40,170.22727272727275,40,169.77272727272728,40C169.54545454545456,40,169.3181818181818,40,169.0909090909091,40C168.86363636363637,40,168.63636363636363,40,168.4090909090909,40C168.1818181818182,40,167.95454545454544,40,167.72727272727272,40C167.5,40,167.27272727272725,40,167.04545454545453,40C113.18181818181819,40,59.318181818181806,40,5.454545454545455,40C5.2272727272727275,40,5,40,4.7727272727272725,40C4.545454545454545,40,4.318181818181818,40,4.090909090909091,40C2.7272727272727275,40,1.3636363636363635,40,0,40Z"></path><path class="line" stroke="black" fill="none" d="M0,39.736C1.3636363636363635,39.74733333333333,2.7272727272727275,39.75866666666666,4.090909090909091,39.804C4.318181818181818,39.81155555555556,4.545454545454545,39.995,4.7727272727272725,39.995C5,39.995,5.2272727272727275,39.926206751054856,5.454545454545455,39.925000000000004C59.318181818181806,39.639,113.18181818181819,39.496,167.04545454545453,39.496C167.27272727272725,39.496,167.5,39.510999999999996,167.72727272727272,39.510999999999996C167.95454545454544,39.510999999999996,168.1818181818182,39.44616666666667,168.4090909090909,39.356C168.63636363636363,39.26583333333333,168.86363636363637,38.97,169.0909090909091,38.97C169.3181818181818,38.97,169.54545454545456,39.18,169.77272727272728,39.18C170.22727272727275,39.18,170.6818181818182,38.182,171.13636363636365,38.182C171.36363636363637,38.182,171.5909090909091,38.238,171.8181818181818,38.238C172.04545454545453,38.238,172.27272727272728,28.133,172.5,28.133C172.72727272727272,28.133,172.95454545454547,32.919,173.1818181818182,32.919C173.4090909090909,32.919,173.63636363636365,30.766,173.86363636363637,30.766C174.0909090909091,30.766,174.31818181818184,34.232,174.54545454545456,34.232C174.77272727272728,34.232,175,22.527,175.22727272727272,22.527C175.45454545454544,22.527,175.6818181818182,28.532000000000004,175.9090909090909,28.532000000000004C176.13636363636363,28.532000000000004,176.36363636363637,16.094,176.5909090909091,16.094C176.8181818181818,16.094,177.04545454545456,26.772,177.27272727272728,26.772C177.5,26.772,177.72727272727275,0.3840000000000021,177.95454545454547,0.3840000000000021C178.1818181818182,0.3840000000000021,178.4090909090909,9.881666666666687,178.63636363636363,10.377C178.86363636363635,10.872333333333334,179.0909090909091,10.624666666666668,179.3181818181818,11.120000000000001C179.54545454545453,11.615333333333334,179.77272727272728,15.161166666666666,180,18.706999999999997"></path><path class="axis-ceiling" stroke-width="1" stroke="black" fill="none" d="M175,0L180,0"></path><text class="axis-ceiling-label" font-family="sans-serif" text-anchor="end" font-size="10px" x="170" y="2.5">40000</text></g></svg>