<svg xmlns="http://www.w3.org/2000/svg" viewBox="0 0 180 60"><g transform="translate(0,20)"><path class="area" fill="rgba(0, 0, 0, 0.2)" d="M0,9.488944C1.0169491525423728,9.402679333333333,2.0338983050847457,9.316414666666667,3.0508474576271185,9.230447999999999C4.067796610169491,9.144481333333331,5.084745762711864,9.057672,6.101694915254237,8.973144C7.11864406779661,8.888615999999999,8.135593220338983,8.806945333333331,9.152542372881356,8.723279999999999C10.169491525423728,8.639614666666667,11.186440677966102,8.554712000000002,12.203389830508474,8.471152000000002C13.220338983050846,8.387592000000001,14.23728813559322,8.30320133333333,15.254237288135592,8.221919999999997C16.271186440677965,8.140638666666662,17.28813559322034,8.061563999999997,18.305084745762713,7.983463999999998C19.322033898305087,7.905363999999999,20.338983050847457,7.830254666666668,21.35593220338983,7.753320000000001C22.372881355932204,7.676385333333335,23.389830508474574,7.597474666666664,24.406779661016948,7.521855999999998C25.423728813559322,7.446237333333332,26.440677966101696,7.372232000000001,27.45762711864407,7.299608000000002C28.47457627118644,7.2269840000000025,29.491525423728813,7.154688,30.508474576271183,7.086112C31.525423728813557,7.017536,32.54237288135593,6.953397333333334,33.559322033898304,6.888152000000001C34.57627118644068,6.822906666666667,35.59322033898305,6.758392000000001,36.610169491525426,6.694640000000001C37.6271186440678,6.630888000000001,38.644067796610166,6.570196000000001,39.66101694915254,6.505640000000001C40.67796610169491,6.441084000000001,41.69491525423729,6.3737520000000005,42.71186440677966,6.307304C43.728813559322035,6.240856,44.7457627118644,6.174927999999999,45.762711864406775,6.106951999999999C46.77966101694915,6.038975999999999,47.79661016949152,5.971174666666667,48.813559322033896,5.8994480000000005C49.83050847457627,5.827721333333334,50.847457627118644,5.747926666666667,51.86440677966102,5.676592C52.88135593220339,5.605257333333333,53.898305084745765,5.540794666666666,54.91525423728814,5.4714399999999985C55.93220338983051,5.402085333333331,56.94915254237288,5.331609333333331,57.96610169491525,5.260463999999998C58.983050847457626,5.189318666666665,59.99999999999999,5.115741333333331,61.01694915254237,5.044567999999998C62.03389830508474,4.973394666666665,63.05084745762712,4.904238666666668,64.0677966101695,4.833424000000002C65.08474576271186,4.7626093333333355,66.10169491525424,4.688922666666668,67.11864406779661,4.619680000000002C68.13559322033899,4.550437333333335,69.15254237288136,4.480278666666669,70.16949152542374,4.417968000000001C71.1864406779661,4.355657333333334,72.20338983050848,4.304079999999998,73.22033898305085,4.245815999999998C74.23728813559322,4.1875519999999975,75.2542372881356,4.125199999999998,76.27118644067797,4.068383999999998C77.28813559322033,4.011567999999999,78.30508474576271,3.9572106666666667,79.32203389830508,3.9049200000000006C80.33898305084746,3.852629333333334,81.35593220338983,3.8037640000000006,82.37288135593221,3.75464C83.38983050847457,3.705516,84.40677966101696,3.655399999999998,85.42372881355932,3.6101759999999983C86.4406779661017,3.564951999999998,87.45762711864407,3.5245706666666665,88.47457627118645,3.483296C89.49152542372882,3.442021333333334,90.50847457627118,3.402638666666667,91.52542372881355,3.362528C92.54237288135593,3.322417333333333,93.55932203389831,3.281935999999999,94.57627118644069,3.2426319999999986C95.59322033898306,3.203327999999999,96.61016949152543,3.164005333333333,97.62711864406779,3.126704C98.64406779661016,3.0894026666666674,99.66101694915254,3.054946666666669,100.6779661016949,3.018824000000002C101.69491525423729,2.982701333333335,102.71186440677965,2.946046666666666,103.72881355932203,2.9099679999999983C104.7457627118644,2.8738893333333313,105.76271186440678,2.8378746666666657,106.77966101694915,2.802351999999999C107.79661016949153,2.766829333333332,108.8135593220339,2.7328973333333315,109.83050847457628,2.696831999999998C110.84745762711864,2.6607666666666647,111.86440677966102,2.6233706666666645,112.88135593220339,2.5859599999999983C113.89830508474576,2.548549333333332,114.91525423728814,2.5099893333333334,115.9322033898305,2.4723680000000003C116.94915254237289,2.4347466666666673,117.96610169491525,2.3977373333333336,118.98305084745763,2.360232C120,2.3227266666666666,121.01694915254237,2.285150666666666,122.03389830508473,2.247336C123.05084745762711,2.2095213333333326,124.0677966101695,2.170797333333333,125.08474576271188,2.1333439999999992C126.10169491525424,2.095890666666666,127.11864406779662,2.059497333333333,128.135593220339,2.0226159999999993C129.15254237288136,1.9857346666666662,130.16949152542372,1.9482373333333327,131.1864406779661,1.9120559999999998C132.20338983050846,1.8758746666666666,133.22033898305085,1.840765333333334,134.23728813559322,1.8055280000000007C135.25423728813558,1.7702906666666673,136.27118644067798,1.7353653333333334,137.28813559322035,1.7006319999999997C138.3050847457627,1.665898666666666,139.3220338983051,1.631733333333332,140.33898305084747,1.5971279999999988C141.35593220338984,1.562522666666666,142.3728813559322,1.5268360000000016,143.38983050847457,1.493000000000002C144.40677966101694,1.4591640000000023,145.42372881355934,1.4267586666666678,146.4406779661017,1.3941120000000007C147.45762711864407,1.361465333333334,148.47457627118644,1.328678666666667,149.4915254237288,1.2971200000000005C150.50847457627117,1.2655613333333335,151.52542372881356,1.235169333333334,152.54237288135593,1.2047600000000003C153.5593220338983,1.1743506666666665,154.5762711864407,1.1443573333333317,155.59322033898306,1.1146639999999985C156.61016949152543,1.0849706666666656,157.6271186440678,1.055933333333335,158.64406779661016,1.026600000000002C159.66101694915253,0.9972666666666687,160.67796610169492,0.9669360000000005,161.6949152542373,0.9386640000000002C162.71186440677965,0.9103919999999999,163.72881355932205,0.8840680000000002,164.74576271186442,0.8569680000000002C165.76271186440678,0.8298680000000004,166.77966101694915,0.8027386666666676,167.79661016949152,0.7760640000000008C168.81355932203388,0.7493893333333337,169.83050847457628,0.7235933333333322,170.84745762711864,0.6969199999999987C171.864406779661,0.6702466666666651,172.8813559322034,0.6422306666666663,173.89830508474577,0.6160239999999995C174.91525423728814,0.5898173333333326,175.93220338983053,0.5629919999999978,176.9491525423729,0.5396799999999979C177.96610169491527,0.5163679999999983,178.98305084745763,0.49625999999999953,180,0.4761520000000008L180,40C178.98305084745763,40,177.96610169491527,40,176.9491525423729,40C175.93220338983053,40,174.91525423728814,40,173.89830508474577,40C172.8813559322034,40,171.864406779661,40,170.84745762711864,40C169.83050847457628,40,168.81355932203388,40,167.79661016949152,40C166.77966101694915,40,165.76271186440678,40,164.74576271186442,40C163.72881355932205,40,162.71186440677965,40,161.6949152542373,40C160.67796610169492,40,159.66101694915253,40,158.64406779661016,40C157.6271186440678,40,156.61016949152543,40,155.59322033898306,40C154.5762711864407,40,153.5593220338983,40,152.54237288135593,40C151.52542372881356,40,150.50847457627117,40,149.4915254237288,40C148.47457627118644,40,147.45762711864407,40,146.4406779661017,40C145.42372881355934,40,144.40677966101694,40,143.38983050847457,40C142.3728813559322,40,141.35593220338984,40,140.33898305084747,40C139.3220338983051,40,138.3050847457627,40,137.28813559322035,40C136.27118644067798,40,135.25423728813558,40,134.23728813559322,40C133.22033898305085,40,132.20338983050846,40,131.1864406779661,40C130.16949152542372,40,129.15254237288136,40,128.135593220339,40C127.11864406779662,40,126.10169491525424,40,125.08474576271188,40C124.0677966101695,40,123.05084745762711,40,122.03389830508473,40C121.01694915254237,40,120,40,118.98305084745763,40C117.96610169491525,40,116.94915254237289,40,115.9322033898305,40C114.91525423728814,40,113.89830508474576,40,112.88135593220339,40C111.86440677966102,40,110.84745762711864,40,109.83050847457628,40C108.8135593220339,40,107.79661016949153,40,106.77966101694915,40C105.76271186440678,40,104.7457627118644,40,103.72881355932203,40C102.71186440677965,40,101.69491525423729,40,100.6779661016949,40C99.66101694915254,40,98.64406779661016,40,97.62711864406779,40C96.61016949152543,40,95.59322033898306,40,94.57627118644069,40C93.55932203389831,40,92.54237288135593,40,91.52542372881355,40C90.50847457627118,40,89.49152542372882,40,88.47457627118645,40C87.45762711864407,40,86.4406779661017,40,85.42372881355932,40C84.40677966101696,40,83.38983050847457,40,82.37288135593221,40C81.35593220338983,40,80.33898305084746,40,79.32203389830508,40C78.30508474576271,40,77.28813559322033,40,76.27118644067797,40C75.2542372881356,40,74.23728813559322,40,73.22033898305085,40C72.20338983050848,40,71.1864406779661,40,70.16949152542374,40C69.15254237288136,40,68.13559322033899,40,67.11864406779661,40C66.10169491525424,40,65.08474576271186,40,64.0677966101695,40C63.05084745762712,40,62.03389830508474,40,61.01694915254237,40C59.99999999999999,40,58.983050847457626,40,57.96610169491525,40C56.94915254237288,40,55.93220338983051,40,54.91525423728814,40C53.898305084745765,40,52.88135593220339,40,51.86440677966102,40C50.847457627118644,40,49.83050847457627,40,48.813559322033896,40C47.79661016949152,40,46.77966101694915,40,45.762711864406775,40C44.7457627118644,40,43.728813559322035,40,42.71186440677966,40C41.69491525423729,40,40.67796610169491,40,39.66101694915254,40C38.644067796610166,40,37.6271186440678,40,36.610169491525426,40C35.59322033898305,40,34.57627118644068,40,33.559322033898304,40C32.54237288135593,40,31.525423728813557,40,30.508474576271183,40C29.491525423728813,40,28.47457627118644,40,27.45762711864407,40C26.440677966101696,40,25.423728813559322,40,24.406779661016948,40C23.389830508474574,40,22.372881355932204,40,21.35593220338983,40C20.338983050847457,40,19.322033898305087,40,18.305084745762713,40C17.28813559322034,40,16.271186440677965,40,15.254237288135592,40C14.23728813559322,40,13.220338983050846,40,12.203389830508474,40C11.186440677966102,40,10.169491525423728,40,9.152542372881356,40C8.135593220338983,40,7.11864406779661,40,6.101694915254237,40C5.084745762711864,40,4.067796610169491,40,3.0508474576271185,40C2.0338983050847457,40,1.0169491525423728,40,0,40Z"></path><path class="line" stroke="black" fill="none" d="M0,9.488944C1.0169491525423728,9.402679333333333,2.0338983050847457,9.316414666666667,3.0508474576271185,9.230447999999999C4.067796610169491,9.144481333333331,5.084745762711864,9.057672,6.101694915254237,8.973144C7.11864406779661,8.888615999999999,8.135593220338983,8.806945333333331,9.152542372881356,8.723279999999999C10.169491525423728,8.639614666666667,11.186440677966102,8.554712000000002,12.203389830508474,8.471152000000002C13.220338983050846,8.387592000000001,14.23728813559322,8.30320133333333,15.254237288135592,8.221919999999997C16.271186440677965,8.140638666666662,17.28813559322034,8.061563999999997,18.305084745762713,7.983463999999998C19.322033898305087,7.905363999999999,20.338983050847457,7.830254666666668,21.35593220338983,7.753320000000001C22.372881355932204,7.676385333333335,23.389830508474574,7.597474666666664,24.406779661016948,7.521855999999998C25.423728813559322,7.446237333333332,26.440677966101696,7.372232000000001,27.45762711864407,7.299608000000002C28.47457627118644,7.2269840000000025,29.491525423728813,7.154688,30.508474576271183,7.086112C31.525423728813557,7.017536,32.54237288135593,6.953397333333334,33.559322033898304,6.888152000000001C34.57627118644068,6.822906666666667,35.59322033898305,6.758392000000001,36.610169491525426,6.694640000000001C37.6271186440678,6.630888000000001,38.644067796610166,6.570196000000001,39.66101694915254,6.505640000000001C40.67796610169491,6.441084000000001,41.69491525423729,6.3737520000000005,42.71186440677966,6.307304C43.728813559322035,6.240856,44.7457627118644,6.174927999999999,45.762711864406775,6.106951999999999C46.77966101694915,6.038975999999999,47.79661016949152,5.971174666666667,48.813559322033896,5.8994480000000005C49.83050847457627,5.827721333333334,50.847457627118644,5.747926666666667,51.86440677966102,5.676592C52.88135593220339,5.605257333333333,53.898305084745765,5.540794666666666,54.91525423728814,5.4714399999999985C55.93220338983051,5.402085333333331,56.94915254237288,5.331609333333331,57.96610169491525,5.260463999999998C58.983050847457626,5.189318666666665,59.99999999999999,5.115741333333331,61.01694915254237,5.044567999999998C62.03389830508474,4.973394666666665,63.05084745762712,4.904238666666668,64.0677966101695,4.833424000000002C65.08474576271186,4.7626093333333355,66.10169491525424,4.688922666666668,67.11864406779661,4.619680000000002C68.13559322033899,4.550437333333335,69.15254237288136,4.480278666666669,70.16949152542374,4.417968000000001C71.1864406779661,4.355657333333334,72.20338983050848,4.304079999999998,73.22033898305085,4.245815999999998C74.23728813559322,4.1875519999999975,75.2542372881356,4.125199999999998,76.27118644067797,4.068383999999998C77.28813559322033,4.011567999999999,78.30508474576271,3.9572106666666667,79.32203389830508,3.9049200000000006C80.33898305084746,3.852629333333334,81.35593220338983,3.8037640000000006,82.37288135593221,3.75464C83.38983050847457,3.705516,84.40677966101696,3.655399999999998,85.42372881355932,3.6101759999999983C86.4406779661017,3.564951999999998,87.45762711864407,3.5245706666666665,88.47457627118645,3.483296C89.49152542372882,3.442021333333334,90.50847457627118,3.402638666666667,91.52542372881355,3.362528C92.54237288135593,3.322417333333333,93.55932203389831,3.281935999999999,94.57627118644069,3.2426319999999986C95.59322033898306,3.203327999999999,96.61016949152543,3.164005333333333,97.62711864406779,3.126704C98.64406779661016,3.0894026666666674,99.66101694915254,3.054946666666669,100.6779661016949,3.018824000000002C101.69491525423729,2.982701333333335,102.71186440677965,2.946046666666666,103.72881355932203,2.9099679999999983C104.7457627118644,2.8738893333333313,105.76271186440678,2.8378746666666657,106.77966101694915,2.802351999999999C107.79661016949153,2.766829333333332,108.8135593220339,2.7328973333333315,109.83050847457628,2.696831999999998C110.84745762711864,2.6607666666666647,111.86440677966102,2.6233706666666645,112.88135593220339,2.5859599999999983C113.89830508474576,2.548549333333332,114.91525423728814,2.5099893333333334,115.9322033898305,2.4723680000000003C116.94915254237289,2.4347466666666673,117.96610169491525,2.3977373333333336,118.98305084745763,2.360232C120,2.3227266666666666,121.01694915254237,2.285150666666666,122.03389830508473,2.247336C123.05084745762711,2.2095213333333326,124.0677966101695,2.170797333333333,125.08474576271188,2.1333439999999992C126.10169491525424,2.095890666666666,127.11864406779662,2.059497333333333,128.135593220339,2.0226159999999993C129.15254237288136,1.9857346666666662,130.16949152542372,1.9482373333333327,131.1864406779661,1.9120559999999998C132.20338983050846,1.8758746666666666,133.22033898305085,1.840765333333334,134.23728813559322,1.8055280000000007C135.25423728813558,1.7702906666666673,136.27118644067798,1.7353653333333334,137.28813559322035,1.7006319999999997C138.3050847457627,1.665898666666666,139.3220338983051,1.631733333333332,140.33898305084747,1.5971279999999988C141.35593220338984,1.562522666666666,142.3728813559322,1.5268360000000016,143.38983050847457,1.493000000000002C144.40677966101694,1.4591640000000023,145.42372881355934,1.4267586666666678,146.4406779661017,1.3941120000000007C147.45762711864407,1.361465333333334,148.47457627118644,1.328678666666667,149.4915254237288,1.2971200000000005C150.50847457627117,1.2655613333333335,151.52542372881356,1.235169333333334,152.54237288135593,1.2047600000000003C153.5593220338983,1.1743506666666665,154.5762711864407,1.1443573333333317,155.59322033898306,1.1146639999999985C156.61016949152543,1.0849706666666656,157.6271186440678,1.055933333333335,158.64406779661016,1.026600000000002C159.66101694915253,0.9972666666666687,160.67796610169492,0.9669360000000005,161.6949152542373,0.9386640000000002C162.71186440677965,0.9103919999999999,163.72881355932205,0.8840680000000002,164.74576271186442,0.8569680000000002C165.76271186440678,0.8298680000000004,166.77966101694915,0.8027386666666676,167.79661016949152,0.7760640000000008C168.81355932203388,0.7493893333333337,169.83050847457628,0.7235933333333322,170.84745762711864,0.6969199999999987C171.864406779661,0.6702466666666651,172.8813559322034,0.6422306666666663,173.89830508474577,0.6160239999999995C174.91525423728814,0.5898173333333326,175.93220338983053,0.5629919999999978,176.9491525423729,0.5396799999999979C177.96610169491527,0.5163679999999983,178.98305084745763,0.49625999999999953,180,0.4761520000000008"></path><path class="axis-ceiling" stroke-width="1" stroke="black" fill="none" d="M175,0L180,0"></path><text class="axis-ceiling-label" font-family="sans-serif" text-anchor="end" font-size="10px" x="170" y="2.5">5000000</text></g></svg>