<svg xmlns="http://www.w3.org/2000/svg" viewBox="0 0 180 60"><g transform="translate(0,20)"><path class="area" fill="rgba(0, 0, 0, 0.2)" d="M0,38.776C0.45801526717557245,38.88,0.916030534351145,38.984,1.3740458015267174,38.984C3.2061068702290076,38.984,5.038167938931298,38.842949494949494,6.870229007633588,38.766C11.908396946564885,38.55438888888889,16.94656488549618,38.17392307692307,21.98473282442748,38.034C22.900763358778626,38.00855944055944,23.81679389312977,37.995146853146856,24.732824427480917,37.968C29.770992366412216,37.81869230769232,34.80916030534351,37.053,39.84732824427481,37.053C40.30534351145038,37.053,40.76335877862596,37.34,41.221374045801525,37.34C43.51145038167939,37.34,45.80152671755725,37.236000000000004,48.091603053435115,37.236000000000004C48.54961832061069,37.236000000000004,49.00763358778626,37.24644444444444,49.465648854961835,37.256C50.38167938931298,37.27511111111111,51.29770992366412,37.318285714285715,52.213740458015266,37.348C55.41984732824427,37.452,58.62595419847329,37.625,61.832061068702295,37.625C65.95419847328245,37.625,70.07633587786259,37.061,74.19847328244275,37.061C75.1145038167939,37.061,76.03053435114504,37.942,76.94656488549619,37.942C82.90076335877863,37.942,88.85496183206106,37.04649415204679,94.80916030534351,36.871C97.55725190839695,36.790002699055336,100.30534351145037,36.75519047619048,103.05343511450381,36.744C103.51145038167938,36.74213492063492,103.96946564885496,36.741,104.42748091603053,36.741C104.8854961832061,36.741,105.34351145038168,36.75728888888889,105.80152671755725,36.766999999999996C108.09160305343512,36.81555555555555,110.38167938931298,36.84166666666666,112.67175572519085,36.991C113.58778625954199,37.05073333333333,114.50381679389314,37.475,115.41984732824427,37.475C115.87786259541984,37.475,116.33587786259542,37.441,116.79389312977099,37.441C117.25190839694656,37.441,117.70992366412214,38.369,118.16793893129771,38.512C119.08396946564886,38.798,120,38.941,120.91603053435115,38.941C121.37404580152672,38.941,121.8320610687023,38.917,122.29007633587787,38.917C122.74809160305344,38.917,123.20610687022902,38.933,123.66412213740459,38.965C124.12213740458016,38.99700000000001,124.58015267175574,39.238,125.03816793893131,39.238C126.8702290076336,39.238,128.70229007633588,39.059333333333335,130.53435114503816,39.021C131.4503816793893,39.00183333333333,132.36641221374046,38.989,133.2824427480916,38.989C133.74045801526717,38.989,134.19847328244276,39.00216666666667,134.65648854961833,39.016000000000005C135.1145038167939,39.029833333333336,135.57251908396947,39.064666666666675,136.03053435114504,39.072C136.4885496183206,39.07933333333333,136.9465648854962,39.083,137.40458015267177,39.083C137.86259541984734,39.083,138.3206106870229,39.07833333333333,138.77862595419847,39.068999999999996C139.23664122137404,39.05966666666666,139.6946564885496,39.019,140.15267175572518,39.019C141.06870229007632,39.019,141.98473282442748,39.23811111111111,142.90076335877862,39.32C143.3587786259542,39.36094444444444,143.81679389312978,39.429,144.27480916030535,39.429C144.73282442748092,39.429,145.1908396946565,39.42233333333333,145.64885496183206,39.41C146.10687022900763,39.397666666666666,146.56488549618322,39.37433333333334,147.0229007633588,39.355000000000004C147.48091603053436,39.335666666666675,147.93893129770993,39.31266666666667,148.3969465648855,39.294000000000004C148.85496183206106,39.275333333333336,149.31297709923666,39.247666666666674,149.77099236641223,39.243C150.2290076335878,39.23833333333333,150.68702290076337,39.24066666666667,151.14503816793894,39.236C151.6030534351145,39.231333333333325,152.06106870229007,39.174166666666665,152.51908396946564,39.126C152.9770992366412,39.07783333333333,153.4351145038168,39.06633333333333,153.89312977099237,38.946999999999996C154.35114503816794,38.827666666666666,154.8091603053435,37.74516666666666,155.26717557251908,37.321C155.72519083969465,36.896833333333326,156.18320610687024,36.7505,156.6412213740458,36.402C157.09923664122138,36.05350000000001,157.55725190839695,35.54316666666667,158.01526717557252,35.230000000000004C158.4732824427481,34.91683333333333,158.93129770992368,34.99433333333334,159.38931297709925,34.523C159.84732824427482,34.05166666666668,160.3053435114504,32.7695,160.76335877862596,32.143C161.22137404580153,31.5165,161.6793893129771,31.520999999999987,162.13740458015266,30.764C162.59541984732823,30.006999999999998,163.05343511450383,27.731,163.5114503816794,27.601C163.96946564885496,27.471,164.42748091603053,27.535999999999998,164.8854961832061,27.406C165.34351145038167,27.275999999999996,165.80152671755727,24.019000000000005,166.25954198473283,22.759C166.7175572519084,21.49900000000002,167.17557251908397,20.881833333333322,167.63358778625954,19.846C168.0916030534351,18.810166666666657,168.5496183206107,16.98133333333334,169.00763358778627,16.543999999999997C169.46564885496184,16.106666666666666,169.9236641221374,16.221499999999995,170.38167938931298,15.888C170.83969465648855,15.554499999999999,171.29770992366414,14.715000000000002,171.7557251908397,14.543C172.21374045801528,14.371,172.67175572519085,14.456999999999999,173.12977099236642,14.285C173.58778625954199,14.113000000000001,174.04580152671755,12.618999999999998,174.50381679389312,12.618999999999998C174.9618320610687,12.618999999999998,175.41984732824426,15.133333333333336,175.87786259541983,15.918000000000001C176.3358778625954,16.702666666666683,176.793893129771,17.326999999999998,177.25190839694656,17.326999999999998C177.70992366412213,17.326999999999998,178.1679389312977,14.800499999999968,178.62595419847327,12.704C179.08396946564883,10.607499999999991,179.54198473282443,7.677749999999996,180,4.748000000000001L180,40C179.54198473282443,40,179.08396946564883,40,178.62595419847327,40C178.1679389312977,40,177.70992366412213,40,177.25190839694656,40C176.793893129771,40,176.3358778625954,40,175.87786259541983,40C175.41984732824426,40,174.9618320610687,40,174.50381679389312,40C174.04580152671755,40,173.58778625954199,40,173.12977099236642,40C172.67175572519085,40,172.21374045801528,40,171.7557251908397,40C171.29770992366414,40,170.83969465648855,40,170.38167938931298,40C169.9236641221374,40,169.46564885496184,40,169.00763358778627,40C168.5496183206107,40,168.0916030534351,40,167.63358778625954,40C167.17557251908397,40,166.7175572519084,40,166.25954198473283,40C165.80152671755727,40,165.34351145038167,40,164.8854961832061,40C164.42748091603053,40,163.96946564885496,40,163.5114503816794,40C163.05343511450383,40,162.59541984732823,40,162.13740458015266,40C161.6793893129771,40,161.22137404580153,40,160.76335877862596,40C160.3053435114504,40,159.84732824427482,40,159.38931297709925,40C158.93129770992368,40,158.4732824427481,40,158.01526717557252,40C157.55725190839695,40,157.09923664122138,40,156.6412213740458,40C156.18320610687024,40,155.72519083969465,40,155.26717557251908,40C154.8091603053435,40,154.35114503816794,40,153.89312977099237,40C153.4351145038168,40,152.9770992366412,40,152.51908396946564,40C152.06106870229007,40,151.6030534351145,40,151.14503816793894,40C150.68702290076337,40,150.2290076335878,40,149.77099236641223,40C149.31297709923666,40,148.85496183206106,40,148.3969465648855,40C147.93893129770993,40,147.48091603053436,40,147.0229007633588,40C146.56488549618322,40,146.10687022900763,40,145.64885496183206,40C145.1908396946565,40,144.73282442748092,40,144.27480916030535,40C143.81679389312978,40,143.3587786259542,40,142.90076335877862,40C141.98473282442748,40,141.06870229007632,40,140.15267175572518,40C139.6946564885496,40,139.23664122137404,40,138.77862595419847,40C138.3206106870229,40,137.86259541984734,40,137.40458015267177,40C136.9465648854962,40,136.4885496183206,40,136.03053435114504,40C135.57251908396947,40,135.1145038167939,40,134.65648854961833,40C134.19847328244276,40,133.74045801526717,40,133.2824427480916,40C132.36641221374046,40,131.4503816793893,40,130.53435114503816,40C128.70229007633588,40,126.8702290076336,40,125.03816793893131,40C124.58015267175574,40,124.12213740458016,40,123.66412213740459,40C123.20610687022902,40,122.74809160305344,40,122.29007633587787,40C121.8320610687023,40,121.37404580152672,40,120.91603053435115,40C120,40,119.08396946564886,40,118.16793893129771,40C117.70992366412214,40,117.25190839694656,40,116.79389312977099,40C116.33587786259542,40,115.87786259541984,40,115.41984732824427,40C114.50381679389314,40,113.58778625954199,40,112.67175572519085,40C110.38167938931298,40,108.09160305343512,40,105.80152671755725,40C105.34351145038168,40,104.8854961832061,40,104.42748091603053,40C103.96946564885496,40,103.51145038167938,40,103.05343511450381,40C100.30534351145037,40,97.55725190839695,40,94.80916030534351,40C88.85496183206106,40,82.90076335877863,40,76.94656488549619,40C76.03053435114504,40,75.1145038167939,40,74.19847328244275,40C70.07633587786259,40,65.95419847328245,40,61.832061068702295,40C58.62595419847329,40,55.41984732824427,40,52.213740458015266,40C51.29770992366412,40,50.38167938931298,40,49.465648854961835,40C49.00763358778626,40,48.54961832061069,40,48.091603053435115,40C45.80152671755725,40,43.51145038167939,40,41.221374045801525,40C40.76335877862596,40,40.30534351145038,40,39.84732824427481,40C34.80916030534351,40,29.770992366412216,40,24.732824427480917,40C23.81679389312977,40,22.900763358778626,40,21.98473282442748,40C16.94656488549618,40,11.908396946564885,40,6.870229007633588,40C5.038167938931298,40,3.2061068702290076,40,1.3740458015267174,40C0.916030534351145,40,0.45801526717557245,40,0,40Z"></path><path class="line" stroke="black" fill="none" d="M0,38.776C0.45801526717557245,38.88,0.916030534351145,38.984,1.3740458015267174,38.984C3.2061068702290076,38.984,5.038167938931298,38.842949494949494,6.870229007633588,38.766C11.908396946564885,38.55438888888889,16.94656488549618,38.17392307692307,21.98473282442748,38.034C22.900763358778626,38.00855944055944,23.81679389312977,37.995146853146856,24.732824427480917,37.968C29.770992366412216,37.81869230769232,34.80916030534351,37.053,39.84732824427481,37.053C40.30534351145038,37.053,40.76335877862596,37.34,41.221374045801525,37.34C43.51145038167939,37.34,45.80152671755725,37.236000000000004,48.091603053435115,37.236000000000004C48.54961832061069,37.236000000000004,49.00763358778626,37.24644444444444,49.465648854961835,37.256C50.38167938931298,37.27511111111111,51.29770992366412,37.318285714285715,52.213740458015266,37.348C55.41984732824427,37.452,58.62595419847329,37.625,61.832061068702295,37.625C65.95419847328245,37.625,70.07633587786259,37.061,74.19847328244275,37.061C75.1145038167939,37.061,76.03053435114504,37.942,76.94656488549619,37.942C82.90076335877863,37.942,88.85496183206106,37.04649415204679,94.80916030534351,36.871C97.55725190839695,36.790002699055336,100.30534351145037,36.75519047619048,103.05343511450381,36.744C103.51145038167938,36.74213492063492,103.96946564885496,36.741,104.42748091603053,36.741C104.8854961832061,36.741,105.34351145038168,36.75728888888889,105.80152671755725,36.766999999999996C108.09160305343512,36.81555555555555,110.38167938931298,36.84166666666666,112.67175572519085,36.991C113.58778625954199,37.05073333333333,114.50381679389314,37.475,115.41984732824427,37.475C115.87786259541984,37.475,116.33587786259542,37.441,116.79389312977099,37.441C117.25190839694656,37.441,117.70992366412214,38.369,118.16793893129771,38.512C119.08396946564886,38.798,120,38.941,120.91603053435115,38.941C121.37404580152672,38.941,121.8320610687023,38.917,122.29007633587787,38.917C122.74809160305344,38.917,123.20610687022902,38.933,123.66412213740459,38.965C124.12213740458016,38.99700000000001,124.58015267175574,39.238,125.03816793893131,39.238C126.8702290076336,39.238,128.70229007633588,39.059333333333335,130.53435114503816,39.021C131.4503816793893,39.00183333333333,132.36641221374046,38.989,133.2824427480916,38.989C133.74045801526717,38.989,134.19847328244276,39.00216666666667,134.65648854961833,39.016000000000005C135.1145038167939,39.029833333333336,135.57251908396947,39.064666666666675,136.03053435114504,39.072C136.4885496183206,39.07933333333333,136.9465648854962,39.083,137.40458015267177,39.083C137.86259541984734,39.083,138.3206106870229,39.07833333333333,138.77862595419847,39.068999999999996C139.23664122137404,39.05966666666666,139.6946564885496,39.019,140.15267175572518,39.019C141.06870229007632,39.019,141.98473282442748,39.23811111111111,142.90076335877862,39.32C143.3587786259542,39.36094444444444,143.81679389312978,39.429,144.27480916030535,39.429C144.73282442748092,39.429,145.1908396946565,39.42233333333333,145.64885496183206,39.41C146.10687022900763,39.397666666666666,146.56488549618322,39.37433333333334,147.0229007633588,39.355000000000004C147.48091603053436,39.335666666666675,147.93893129770993,39.31266666666667,148.3969465648855,39.294000000000004C148.85496183206106,39.275333333333336,149.31297709923666,39.247666666666674,149.77099236641223,39.243C150.2290076335878,39.23833333333333,150.68702290076337,39.24066666666667,151.14503816793894,39.236C151.6030534351145,39.231333333333325,152.06106870229007,39.174166666666665,152.51908396946564,39.126C152.9770992366412,39.07783333333333,153.4351145038168,39.06633333333333,153.89312977099237,38.946999999999996C154.35114503816794,38.827666666666666,154.8091603053435,37.74516666666666,155.26717557251908,37.321C155.72519083969465,36.896833333333326,156.18320610687024,36.7505,156.6412213740458,36.402C157.09923664122138,36.05350000000001,157.55725190839695,35.54316666666667,158.01526717557252,35.230000000000004C158.4732824427481,34.91683333333333,158.93129770992368,34.99433333333334,159.38931297709925,34.523C159.84732824427482,34.05166666666668,160.3053435114504,32.7695,160.76335877862596,32.143C161.22137404580153,31.5165,161.6793893129771,31.520999999999987,162.13740458015266,30.764C162.59541984732823,30.006999999999998,163.05343511450383,27.731,163.5114503816794,27.601C163.96946564885496,27.471,164.42748091603053,27.535999999999998,164.8854961832061,27.406C165.34351145038167,27.275999999999996,165.80152671755727,24.019000000000005,166.25954198473283,22.759C166.7175572519084,21.49900000000002,167.17557251908397,20.881833333333322,167.63358778625954,19.846C168.0916030534351,18.810166666666657,168.5496183206107,16.98133333333334,169.00763358778627,16.543999999999997C169.46564885496184,16.106666666666666,169.9236641221374,16.221499999999995,170.38167938931298,15.888C170.83969465648855,15.554499999999999,171.29770992366414,14.715000000000002,171.7557251908397,14.543C172.21374045801528,14.371,172.67175572519085,14.456999999999999,173.12977099236642,14.285C173.58778625954199,14.113000000000001,174.04580152671755,12.618999999999998,174.50381679389312,12.618999999999998C174.9618320610687,12.618999999999998,175.41984732824426,15.133333333333336,175.87786259541983,15.918000000000001C176.3358778625954,16.702666666666683,176.793893129771,17.326999999999998,177.25190839694656,17.326999999999998C177.70992366412213,17.326999999999998,178.1679389312977,14.800499999999968,178.62595419847327,12.704C179.08396946564883,10.607499999999991,179.54198473282443,7.677749999999996,180,4.748000000000001"></path><path class="axis-ceiling" stroke-width="1" stroke="black" fill="none" d="M175,0L180,0"></path><text class="axis-ceiling-label" font-family="sans-serif" text-anchor="end" font-size="10px" x="170" y="2.5">40000</text></g></svg>