<svg xmlns="http://www.w3.org/2000/svg" viewBox="0 0 180 60"><g transform="translate(0,20)"><path class="area" fill="rgba(0, 0, 0, 0.2)" d="M0,31.43704C0.576923076923077,31.343243555555553,1.1538461538461537,31.24944711111111,1.7307692307692308,31.175791999999998C2.884615384615385,31.028481777777774,4.038461538461538,30.980970666666668,5.1923076923076925,30.894992000000002C6.346153846153847,30.809013333333336,7.500000000000001,30.752665333333333,8.653846153846155,30.65992C9.807692307692308,30.567174666666666,10.961538461538462,30.473413333333333,12.115384615384615,30.33852C13.269230769230768,30.203626666666665,14.423076923076923,30.02429466666667,15.576923076923077,29.85056C16.73076923076923,29.676825333333337,17.884615384615383,29.474438666666668,19.038461538461537,29.296112C21.346153846153843,28.939458666666667,23.653846153846153,28.62077672727273,25.96153846153846,28.304024000000002C29.999999999999996,27.74970672727273,34.03846153846153,27.306696666666664,38.07692307692307,26.769175999999998C38.65384615384615,26.692387333333333,39.230769230769226,26.611490399999997,39.80769230769231,26.537224C42.11538461538461,26.2401584,44.42307692307693,26.06535047619048,46.73076923076923,25.792472000000004C48.46153846153846,25.587813142857147,50.19230769230769,25.388669999999998,51.92307692307692,25.136936C52.5,25.053024666666666,53.07692307692307,24.94462533333333,53.65384615384615,24.874128C54.23076923076923,24.803630666666667,54.80769230769231,24.768324888888888,55.38461538461539,24.713952C56.53846153846154,24.605206222222222,57.69230769230769,24.507056666666667,58.84615384615385,24.375944C63.46153846153846,23.851493333333334,68.07692307692308,23.137946133333333,72.6923076923077,21.917312C73.84615384615384,21.612153466666665,75,21.275253466666666,76.15384615384615,20.926632C80.76923076923076,19.532146133333335,85.38461538461539,17.685993066666665,90,15.860224C91.15384615384616,15.403781733333334,92.3076923076923,14.85020977777778,93.46153846153847,14.465216000000002C95.76923076923077,13.695228444444448,98.07692307692308,13.477725866666665,100.38461538461539,13.115359999999999C100.96153846153847,13.024768533333333,101.53846153846153,12.927897333333334,102.11538461538461,12.860008C102.6923076923077,12.792118666666667,103.26923076923076,12.766940266666667,103.84615384615384,12.708024C106.15384615384615,12.472358933333332,108.46153846153847,12.041023111111116,110.76923076923077,11.604792000000002C111.92307692307692,11.386676444444445,113.07692307692308,11.081904888888886,114.23076923076923,10.899079999999998C114.8076923076923,10.807667555555552,115.38461538461539,10.735510666666665,115.96153846153847,10.664151999999998C116.53846153846155,10.592793333333333,117.11538461538461,10.526724,117.6923076923077,10.470928C118.26923076923077,10.415132000000002,118.84615384615384,10.394345333333332,119.42307692307692,10.329376C120,10.264406666666666,120.57692307692308,10.175028000000001,121.15384615384616,10.081112000000001C121.73076923076924,9.987196,122.3076923076923,9.870397333333333,122.88461538461539,9.76588C123.46153846153847,9.661362666666665,124.03846153846153,9.553957777777775,124.61538461538461,9.454007999999998C125.76923076923077,9.25410844444444,126.92307692307693,9.043604444444446,128.0769230769231,8.9024C128.65384615384616,8.831797777777778,129.23076923076923,8.786343999999998,129.8076923076923,8.722591999999999C130.38461538461536,8.658839999999998,130.96153846153845,8.593654666666666,131.53846153846152,8.519888C132.1153846153846,8.446121333333332,132.69230769230768,8.363837333333333,133.26923076923077,8.279991999999998C133.84615384615384,8.196146666666666,134.42307692307693,8.108311555555556,135,8.016816000000002C136.15384615384616,7.833824888888891,137.30769230769232,7.572791111111112,138.46153846153848,7.422599999999999C139.03846153846155,7.347504444444444,139.61538461538464,7.285061333333331,140.1923076923077,7.233223999999998C140.76923076923077,7.181386666666666,141.34615384615384,7.167173333333332,141.9230769230769,7.1115759999999995C142.5,7.0559786666666655,143.07692307692307,6.964186666666665,143.65384615384616,6.899639999999998C144.23076923076923,6.835093333333332,144.80769230769232,6.787185333333333,145.3846153846154,6.724296000000001C145.96153846153845,6.661406666666668,146.53846153846155,6.592456000000001,147.1153846153846,6.522304000000001C147.69230769230768,6.452152000000001,148.26923076923077,6.379098666666665,148.84615384615384,6.3033839999999985C149.42307692307693,6.227669333333331,150,6.133543999999999,150.5769230769231,6.068015999999998C151.15384615384616,6.002488,151.73076923076923,5.967679999999999,152.3076923076923,5.910215999999999C152.88461538461536,5.852751999999999,153.46153846153845,5.792073333333333,154.03846153846152,5.723232C154.6153846153846,5.654390666666667,155.19230769230768,5.572410666666669,155.76923076923077,5.497168000000001C156.34615384615384,5.421925333333335,156.92307692307693,5.360916,157.5,5.271775999999999C158.07692307692307,5.182635999999999,158.65384615384616,5.025666666666666,159.23076923076923,4.962328C159.80769230769232,4.898989333333333,160.3846153846154,4.929174666666667,160.96153846153848,4.867319999999999C161.53846153846155,4.805465333333332,162.11538461538464,4.669266666666667,162.6923076923077,4.5912C163.26923076923077,4.513133333333334,163.84615384615384,4.456583999999999,164.4230769230769,4.3989199999999995C165,4.341255999999998,165.57692307692307,4.311542666666666,166.15384615384616,4.245215999999998C166.73076923076923,4.178889333333332,167.30769230769232,4.065194666666667,167.8846153846154,4.00096C168.46153846153845,3.936725333333334,169.03846153846155,3.9004266666666667,169.6153846153846,3.859808C170.19230769230768,3.8191893333333335,170.76923076923077,3.7963319999999996,171.34615384615384,3.7572479999999997C171.92307692307693,3.718163999999999,172.5,3.677021333333333,173.0769230769231,3.625303999999998C173.65384615384616,3.573586666666665,174.23076923076923,3.493335999999998,174.8076923076923,3.4469439999999985C175.38461538461536,3.4005519999999985,175.96153846153845,3.3817386666666667,176.53846153846152,3.346952000000001C177.1153846153846,3.312165333333334,177.69230769230768,3.2738120000000013,178.26923076923077,3.2382240000000007C178.84615384615384,3.2026360000000005,179.42307692307693,3.168029999999999,180,3.133423999999998L180,40C179.42307692307693,40,178.84615384615384,40,178.26923076923077,40C177.69230769230768,40,177.1153846153846,40,176.53846153846152,40C175.96153846153845,40,175.38461538461536,40,174.8076923076923,40C174.23076923076923,40,173.65384615384616,40,173.0769230769231,40C172.5,40,171.92307692307693,40,171.34615384615384,40C170.76923076923077,40,170.19230769230768,40,169.6153846153846,40C169.03846153846155,40,168.46153846153845,40,167.8846153846154,40C167.30769230769232,40,166.73076923076923,40,166.15384615384616,40C165.57692307692307,40,165,40,164.4230769230769,40C163.84615384615384,40,163.26923076923077,40,162.6923076923077,40C162.11538461538464,40,161.53846153846155,40,160.96153846153848,40C160.3846153846154,40,159.80769230769232,40,159.23076923076923,40C158.65384615384616,40,158.07692307692307,40,157.5,40C156.92307692307693,40,156.34615384615384,40,155.76923076923077,40C155.19230769230768,40,154.6153846153846,40,154.03846153846152,40C153.46153846153845,40,152.88461538461536,40,152.3076923076923,40C151.73076923076923,40,151.15384615384616,40,150.5769230769231,40C150,40,149.42307692307693,40,148.84615384615384,40C148.26923076923077,40,147.69230769230768,40,147.1153846153846,40C146.53846153846155,40,145.96153846153845,40,145.3846153846154,40C144.80769230769232,40,144.23076923076923,40,143.65384615384616,40C143.07692307692307,40,142.5,40,141.9230769230769,40C141.34615384615384,40,140.76923076923077,40,140.1923076923077,40C139.61538461538464,40,139.03846153846155,40,138.46153846153848,40C137.30769230769232,40,136.15384615384616,40,135,40C134.42307692307693,40,133.84615384615384,40,133.26923076923077,40C132.69230769230768,40,132.1153846153846,40,131.53846153846152,40C130.96153846153845,40,130.38461538461536,40,129.8076923076923,40C129.23076923076923,40,128.65384615384616,40,128.0769230769231,40C126.92307692307693,40,125.76923076923077,40,124.61538461538461,40C124.03846153846153,40,123.46153846153847,40,122.88461538461539,40C122.3076923076923,40,121.73076923076924,40,121.15384615384616,40C120.57692307692308,40,120,40,119.42307692307692,40C118.84615384615384,40,118.26923076923077,40,117.6923076923077,40C117.11538461538461,40,116.53846153846155,40,115.96153846153847,40C115.38461538461539,40,114.8076923076923,40,114.23076923076923,40C113.07692307692308,40,111.92307692307692,40,110.76923076923077,40C108.46153846153847,40,106.15384615384615,40,103.84615384615384,40C103.26923076923076,40,102.6923076923077,40,102.11538461538461,40C101.53846153846153,40,100.96153846153847,40,100.38461538461539,40C98.07692307692308,40,95.76923076923077,40,93.46153846153847,40C92.3076923076923,40,91.15384615384616,40,90,40C85.38461538461539,40,80.76923076923076,40,76.15384615384615,40C75,40,73.84615384615384,40,72.6923076923077,40C68.07692307692308,40,63.46153846153846,40,58.84615384615385,40C57.69230769230769,40,56.53846153846154,40,55.38461538461539,40C54.80769230769231,40,54.23076923076923,40,53.65384615384615,40C53.07692307692307,40,52.5,40,51.92307692307692,40C50.19230769230769,40,48.46153846153846,40,46.73076923076923,40C44.42307692307693,40,42.11538461538461,40,39.80769230769231,40C39.230769230769226,40,38.65384615384615,40,38.07692307692307,40C34.03846153846153,40,29.999999999999996,40,25.96153846153846,40C23.653846153846153,40,21.346153846153843,40,19.038461538461537,40C17.884615384615383,40,16.73076923076923,40,15.576923076923077,40C14.423076923076923,40,13.269230769230768,40,12.115384615384615,40C10.961538461538462,40,9.807692307692308,40,8.653846153846155,40C7.500000000000001,40,6.346153846153847,40,5.1923076923076925,40C4.038461538461538,40,2.884615384615385,40,1.7307692307692308,40C1.1538461538461537,40,0.576923076923077,40,0,40Z"></path><path class="line" stroke="black" fill="none" d="M0,31.43704C0.576923076923077,31.343243555555553,1.1538461538461537,31.24944711111111,1.7307692307692308,31.175791999999998C2.884615384615385,31.028481777777774,4.038461538461538,30.980970666666668,5.1923076923076925,30.894992000000002C6.346153846153847,30.809013333333336,7.500000000000001,30.752665333333333,8.653846153846155,30.65992C9.807692307692308,30.567174666666666,10.961538461538462,30.473413333333333,12.115384615384615,30.33852C13.269230769230768,30.203626666666665,14.423076923076923,30.02429466666667,15.576923076923077,29.85056C16.73076923076923,29.676825333333337,17.884615384615383,29.474438666666668,19.038461538461537,29.296112C21.346153846153843,28.939458666666667,23.653846153846153,28.62077672727273,25.96153846153846,28.304024000000002C29.999999999999996,27.74970672727273,34.03846153846153,27.306696666666664,38.07692307692307,26.769175999999998C38.65384615384615,26.692387333333333,39.230769230769226,26.611490399999997,39.80769230769231,26.537224C42.11538461538461,26.2401584,44.42307692307693,26.06535047619048,46.73076923076923,25.792472000000004C48.46153846153846,25.587813142857147,50.19230769230769,25.388669999999998,51.92307692307692,25.136936C52.5,25.053024666666666,53.07692307692307,24.94462533333333,53.65384615384615,24.874128C54.23076923076923,24.803630666666667,54.80769230769231,24.768324888888888,55.38461538461539,24.713952C56.53846153846154,24.605206222222222,57.69230769230769,24.507056666666667,58.84615384615385,24.375944C63.46153846153846,23.851493333333334,68.07692307692308,23.137946133333333,72.6923076923077,21.917312C73.84615384615384,21.612153466666665,75,21.275253466666666,76.15384615384615,20.926632C80.76923076923076,19.532146133333335,85.38461538461539,17.685993066666665,90,15.860224C91.15384615384616,15.403781733333334,92.3076923076923,14.85020977777778,93.46153846153847,14.465216000000002C95.76923076923077,13.695228444444448,98.07692307692308,13.477725866666665,100.38461538461539,13.115359999999999C100.96153846153847,13.024768533333333,101.53846153846153,12.927897333333334,102.11538461538461,12.860008C102.6923076923077,12.792118666666667,103.26923076923076,12.766940266666667,103.84615384615384,12.708024C106.15384615384615,12.472358933333332,108.46153846153847,12.041023111111116,110.76923076923077,11.604792000000002C111.92307692307692,11.386676444444445,113.07692307692308,11.081904888888886,114.23076923076923,10.899079999999998C114.8076923076923,10.807667555555552,115.38461538461539,10.735510666666665,115.96153846153847,10.664151999999998C116.53846153846155,10.592793333333333,117.11538461538461,10.526724,117.6923076923077,10.470928C118.26923076923077,10.415132000000002,118.84615384615384,10.394345333333332,119.42307692307692,10.329376C120,10.264406666666666,120.57692307692308,10.175028000000001,121.15384615384616,10.081112000000001C121.73076923076924,9.987196,122.3076923076923,9.870397333333333,122.88461538461539,9.76588C123.46153846153847,9.661362666666665,124.03846153846153,9.553957777777775,124.61538461538461,9.454007999999998C125.76923076923077,9.25410844444444,126.92307692307693,9.043604444444446,128.0769230769231,8.9024C128.65384615384616,8.831797777777778,129.23076923076923,8.786343999999998,129.8076923076923,8.722591999999999C130.38461538461536,8.658839999999998,130.96153846153845,8.593654666666666,131.53846153846152,8.519888C132.1153846153846,8.446121333333332,132.69230769230768,8.363837333333333,133.26923076923077,8.279991999999998C133.84615384615384,8.196146666666666,134.42307692307693,8.108311555555556,135,8.016816000000002C136.15384615384616,7.833824888888891,137.30769230769232,7.572791111111112,138.46153846153848,7.422599999999999C139.03846153846155,7.347504444444444,139.61538461538464,7.285061333333331,140.1923076923077,7.233223999999998C140.76923076923077,7.181386666666666,141.34615384615384,7.167173333333332,141.9230769230769,7.1115759999999995C142.5,7.0559786666666655,143.07692307692307,6.964186666666665,143.65384615384616,6.899639999999998C144.23076923076923,6.835093333333332,144.80769230769232,6.787185333333333,145.3846153846154,6.724296000000001C145.96153846153845,6.661406666666668,146.53846153846155,6.592456000000001,147.1153846153846,6.522304000000001C147.69230769230768,6.452152000000001,148.26923076923077,6.379098666666665,148.84615384615384,6.3033839999999985C149.42307692307693,6.227669333333331,150,6.133543999999999,150.5769230769231,6.068015999999998C151.15384615384616,6.002488,151.73076923076923,5.967679999999999,152.3076923076923,5.910215999999999C152.88461538461536,5.852751999999999,153.46153846153845,5.792073333333333,154.03846153846152,5.723232C154.6153846153846,5.654390666666667,155.19230769230768,5.572410666666669,155.76923076923077,5.497168000000001C156.34615384615384,5.421925333333335,156.92307692307693,5.360916,157.5,5.271775999999999C158.07692307692307,5.182635999999999,158.65384615384616,5.025666666666666,159.23076923076923,4.962328C159.80769230769232,4.898989333333333,160.3846153846154,4.929174666666667,160.96153846153848,4.867319999999999C161.53846153846155,4.805465333333332,162.11538461538464,4.669266666666667,162.6923076923077,4.5912C163.26923076923077,4.513133333333334,163.84615384615384,4.456583999999999,164.4230769230769,4.3989199999999995C165,4.341255999999998,165.57692307692307,4.311542666666666,166.15384615384616,4.245215999999998C166.73076923076923,4.178889333333332,167.30769230769232,4.065194666666667,167.8846153846154,4.00096C168.46153846153845,3.936725333333334,169.03846153846155,3.9004266666666667,169.6153846153846,3.859808C170.19230769230768,3.8191893333333335,170.76923076923077,3.7963319999999996,171.34615384615384,3.7572479999999997C171.92307692307693,3.718163999999999,172.5,3.677021333333333,173.0769230769231,3.625303999999998C173.65384615384616,3.573586666666665,174.23076923076923,3.493335999999998,174.8076923076923,3.4469439999999985C175.38461538461536,3.4005519999999985,175.96153846153845,3.3817386666666667,176.53846153846152,3.346952000000001C177.1153846153846,3.312165333333334,177.69230769230768,3.2738120000000013,178.26923076923077,3.2382240000000007C178.84615384615384,3.2026360000000005,179.42307692307693,3.168029999999999,180,3.133423999999998"></path><path class="axis-ceiling" stroke-width="1" stroke="black" fill="none" d="M175,0L180,0"></path><text class="axis-ceiling-label" font-family="sans-serif" text-anchor="end" font-size="10px" x="170" y="2.5">5000000</text></g></svg>