<svg xmlns="http://www.w3.org/2000/svg" viewBox="0 0 180 60"><g transform="translate(0,20)"><path class="area" fill="rgba(0, 0, 0, 0.2)" d="M0,28.965776C1.0169491525423728,28.777625333333333,2.0338983050847457,28.589474666666668,3.0508474576271185,28.423151999999998C4.067796610169491,28.25682933333333,5.084745762711864,28.11012533333333,6.101694915254237,27.967839999999995C7.11864406779661,27.82555466666666,8.135593220338983,27.68750933333333,9.152542372881356,27.56944C10.169491525423728,27.45137066666667,11.186440677966102,27.35774666666667,12.203389830508474,27.259424000000003C13.220338983050846,27.161101333333335,14.23728813559322,27.0688,15.254237288135592,26.979504C16.271186440677965,26.890207999999998,17.28813559322034,26.805528,18.305084745762713,26.723648C19.322033898305087,26.641768000000003,20.338983050847457,26.561776000000002,21.35593220338983,26.488224000000002C22.372881355932204,26.414672000000003,23.389830508474574,26.34992533333333,24.406779661016948,26.282335999999997C25.423728813559322,26.214746666666663,26.440677966101696,26.15074666666667,27.45762711864407,26.082688000000005C28.47457627118644,26.01462933333334,29.491525423728813,25.940069333333334,30.508474576271183,25.873984C31.525423728813557,25.807898666666667,32.54237288135593,25.749314666666667,33.559322033898304,25.686176C34.57627118644068,25.623037333333333,35.59322033898305,25.558053333333334,36.610169491525426,25.495152C37.6271186440678,25.43225066666667,38.644067796610166,25.375898666666664,39.66101694915254,25.308767999999997C40.67796610169491,25.24163733333333,41.69491525423729,25.170274666666668,42.71186440677966,25.092368C43.728813559322035,25.014461333333337,44.7457627118644,24.92921066666667,45.762711864406775,24.841328000000004C46.77966101694915,24.75344533333334,47.79661016949152,24.65837066666667,48.813559322033896,24.565072C49.83050847457627,24.47177333333333,50.847457627118644,24.383234666666667,51.86440677966102,24.281536C52.88135593220339,24.17983733333333,53.898305084745765,24.070805333333336,54.91525423728814,23.954880000000003C55.93220338983051,23.83895466666667,56.94915254237288,23.713154666666668,57.96610169491525,23.585984C58.983050847457626,23.45881333333333,59.99999999999999,23.317517333333335,61.01694915254237,23.191856C62.03389830508474,23.066194666666668,63.05084745762712,22.946082666666666,64.0677966101695,22.832016C65.08474576271186,22.717949333333333,66.10169491525424,22.616245333333335,67.11864406779661,22.507456C68.13559322033899,22.398666666666667,69.15254237288136,22.283525333333333,70.16949152542374,22.17928C71.1864406779661,22.075034666666667,72.20338983050848,21.983845333333335,73.22033898305085,21.881984000000003C74.23728813559322,21.78012266666667,75.2542372881356,21.671234666666667,76.27118644067797,21.568112C77.28813559322033,21.46498933333333,78.30508474576271,21.368893333333332,79.32203389830508,21.263247999999997C80.33898305084746,21.157602666666662,81.35593220338983,21.05156533333333,82.37288135593221,20.934239999999996C83.38983050847457,20.816914666666662,84.40677966101696,20.69406666666666,85.42372881355932,20.559295999999996C86.4406779661017,20.424525333333328,87.45762711864407,20.273895999999997,88.47457627118645,20.125615999999997C89.49152542372882,19.977335999999998,90.50847457627118,19.832066666666663,91.52542372881355,19.669615999999998C92.54237288135593,19.50716533333333,93.55932203389831,19.323325333333333,94.57627118644069,19.150911999999998C95.59322033898306,18.978498666666667,96.61016949152543,18.807037333333334,97.62711864406779,18.635136000000003C98.64406779661016,18.46323466666667,99.66101694915254,18.292789333333335,100.6779661016949,18.119504000000003C101.69491525423729,17.94621866666667,102.71186440677965,17.770080000000004,103.72881355932203,17.595424C104.7457627118644,17.420768000000002,105.76271186440678,17.241933333333332,106.77966101694915,17.071568C107.79661016949153,16.901202666666666,108.8135593220339,16.732973333333334,109.83050847457628,16.573232C110.84745762711864,16.413490666666668,111.86440677966102,16.266432,112.88135593220339,16.11312C113.89830508474576,15.959807999999999,114.91525423728814,15.804245333333332,115.9322033898305,15.65336C116.94915254237289,15.502474666666666,117.96610169491525,15.355154666666666,118.98305084745763,15.207807999999998C120,15.060461333333333,121.01694915254237,14.912799999999999,122.03389830508473,14.76928C123.05084745762711,14.62576,124.0677966101695,14.486968,125.08474576271188,14.346687999999999C126.10169491525424,14.206408,127.11864406779662,14.065968,128.135593220339,13.9276C129.15254237288136,13.789232,130.16949152542372,13.652829333333333,131.1864406779661,13.51648C132.20338983050846,13.380130666666664,133.22033898305085,13.243335999999998,134.23728813559322,13.109503999999998C135.25423728813558,12.975671999999998,136.27118644067798,12.845877333333334,137.28813559322035,12.713488000000002C138.3050847457627,12.58109866666667,139.3220338983051,12.447888,140.33898305084747,12.315168C141.35593220338984,12.182448,142.3728813559322,12.050181333333333,143.38983050847457,11.917168C144.40677966101694,11.784154666666666,145.42372881355934,11.650826666666669,146.4406779661017,11.517088000000001C147.45762711864407,11.383349333333335,148.47457627118644,11.248418666666668,149.4915254237288,11.114736C150.50847457627117,10.981053333333334,151.52542372881356,10.848994666666666,152.54237288135593,10.714991999999999C153.5593220338983,10.580989333333331,154.5762711864407,10.445552,155.59322033898306,10.31072C156.61016949152543,10.175888,157.6271186440678,10.043730666666669,158.64406779661016,9.906000000000002C159.66101694915253,9.768269333333334,160.67796610169492,9.628301333333333,161.6949152542373,9.484335999999999C162.71186440677965,9.340370666666665,163.72881355932205,9.190296000000002,164.74576271186442,9.042208C165.76271186440678,8.894120000000001,166.77966101694915,8.748447999999998,167.79661016949152,8.595807999999998C168.81355932203388,8.443167999999996,169.83050847457628,8.284789333333332,170.84745762711864,8.126368C171.864406779661,7.967946666666666,172.8813559322034,7.805559999999999,173.89830508474577,7.645279999999999C174.91525423728814,7.4849999999999985,175.93220338983053,7.320733333333333,176.9491525423729,7.164687999999999C177.96610169491527,7.008642666666667,178.98305084745763,6.858825333333334,180,6.709008000000001L180,40C178.98305084745763,40,177.96610169491527,40,176.9491525423729,40C175.93220338983053,40,174.91525423728814,40,173.89830508474577,40C172.8813559322034,40,171.864406779661,40,170.84745762711864,40C169.83050847457628,40,168.81355932203388,40,167.79661016949152,40C166.77966101694915,40,165.76271186440678,40,164.74576271186442,40C163.72881355932205,40,162.71186440677965,40,161.6949152542373,40C160.67796610169492,40,159.66101694915253,40,158.64406779661016,40C157.6271186440678,40,156.61016949152543,40,155.59322033898306,40C154.5762711864407,40,153.5593220338983,40,152.54237288135593,40C151.52542372881356,40,150.50847457627117,40,149.4915254237288,40C148.47457627118644,40,147.45762711864407,40,146.4406779661017,40C145.42372881355934,40,144.40677966101694,40,143.38983050847457,40C142.3728813559322,40,141.35593220338984,40,140.33898305084747,40C139.3220338983051,40,138.3050847457627,40,137.28813559322035,40C136.27118644067798,40,135.25423728813558,40,134.23728813559322,40C133.22033898305085,40,132.20338983050846,40,131.1864406779661,40C130.16949152542372,40,129.15254237288136,40,128.135593220339,40C127.11864406779662,40,126.10169491525424,40,125.08474576271188,40C124.0677966101695,40,123.05084745762711,40,122.03389830508473,40C121.01694915254237,40,120,40,118.98305084745763,40C117.96610169491525,40,116.94915254237289,40,115.9322033898305,40C114.91525423728814,40,113.89830508474576,40,112.88135593220339,40C111.86440677966102,40,110.84745762711864,40,109.83050847457628,40C108.8135593220339,40,107.79661016949153,40,106.77966101694915,40C105.76271186440678,40,104.7457627118644,40,103.72881355932203,40C102.71186440677965,40,101.69491525423729,40,100.6779661016949,40C99.66101694915254,40,98.64406779661016,40,97.62711864406779,40C96.61016949152543,40,95.59322033898306,40,94.57627118644069,40C93.55932203389831,40,92.54237288135593,40,91.52542372881355,40C90.50847457627118,40,89.49152542372882,40,88.47457627118645,40C87.45762711864407,40,86.4406779661017,40,85.42372881355932,40C84.40677966101696,40,83.38983050847457,40,82.37288135593221,40C81.35593220338983,40,80.33898305084746,40,79.32203389830508,40C78.30508474576271,40,77.28813559322033,40,76.27118644067797,40C75.2542372881356,40,74.23728813559322,40,73.22033898305085,40C72.20338983050848,40,71.1864406779661,40,70.16949152542374,40C69.15254237288136,40,68.13559322033899,40,67.11864406779661,40C66.10169491525424,40,65.08474576271186,40,64.0677966101695,40C63.05084745762712,40,62.03389830508474,40,61.01694915254237,40C59.99999999999999,40,58.983050847457626,40,57.96610169491525,40C56.94915254237288,40,55.93220338983051,40,54.91525423728814,40C53.898305084745765,40,52.88135593220339,40,51.86440677966102,40C50.847457627118644,40,49.83050847457627,40,48.813559322033896,40C47.79661016949152,40,46.77966101694915,40,45.762711864406775,40C44.7457627118644,40,43.728813559322035,40,42.71186440677966,40C41.69491525423729,40,40.67796610169491,40,39.66101694915254,40C38.644067796610166,40,37.6271186440678,40,36.610169491525426,40C35.59322033898305,40,34.57627118644068,40,33.559322033898304,40C32.54237288135593,40,31.525423728813557,40,30.508474576271183,40C29.491525423728813,40,28.47457627118644,40,27.45762711864407,40C26.440677966101696,40,25.423728813559322,40,24.406779661016948,40C23.389830508474574,40,22.372881355932204,40,21.35593220338983,40C20.338983050847457,40,19.322033898305087,40,18.305084745762713,40C17.28813559322034,40,16.271186440677965,40,15.254237288135592,40C14.23728813559322,40,13.220338983050846,40,12.203389830508474,40C11.186440677966102,40,10.169491525423728,40,9.152542372881356,40C8.135593220338983,40,7.11864406779661,40,6.101694915254237,40C5.084745762711864,40,4.067796610169491,40,3.0508474576271185,40C2.0338983050847457,40,1.0169491525423728,40,0,40Z"></path><path class="line" stroke="black" fill="none" d="M0,28.965776C1.0169491525423728,28.777625333333333,2.0338983050847457,28.589474666666668,3.0508474576271185,28.423151999999998C4.067796610169491,28.25682933333333,5.084745762711864,28.11012533333333,6.101694915254237,27.967839999999995C7.11864406779661,27.82555466666666,8.135593220338983,27.68750933333333,9.152542372881356,27.56944C10.169491525423728,27.45137066666667,11.186440677966102,27.35774666666667,12.203389830508474,27.259424000000003C13.220338983050846,27.161101333333335,14.23728813559322,27.0688,15.254237288135592,26.979504C16.271186440677965,26.890207999999998,17.28813559322034,26.805528,18.305084745762713,26.723648C19.322033898305087,26.641768000000003,20.338983050847457,26.561776000000002,21.35593220338983,26.488224000000002C22.372881355932204,26.414672000000003,23.389830508474574,26.34992533333333,24.406779661016948,26.282335999999997C25.423728813559322,26.214746666666663,26.440677966101696,26.15074666666667,27.45762711864407,26.082688000000005C28.47457627118644,26.01462933333334,29.491525423728813,25.940069333333334,30.508474576271183,25.873984C31.525423728813557,25.807898666666667,32.54237288135593,25.749314666666667,33.559322033898304,25.686176C34.57627118644068,25.623037333333333,35.59322033898305,25.558053333333334,36.610169491525426,25.495152C37.6271186440678,25.43225066666667,38.644067796610166,25.375898666666664,39.66101694915254,25.308767999999997C40.67796610169491,25.24163733333333,41.69491525423729,25.170274666666668,42.71186440677966,25.092368C43.728813559322035,25.014461333333337,44.7457627118644,24.92921066666667,45.762711864406775,24.841328000000004C46.77966101694915,24.75344533333334,47.79661016949152,24.65837066666667,48.813559322033896,24.565072C49.83050847457627,24.47177333333333,50.847457627118644,24.383234666666667,51.86440677966102,24.281536C52.88135593220339,24.17983733333333,53.898305084745765,24.070805333333336,54.91525423728814,23.954880000000003C55.93220338983051,23.83895466666667,56.94915254237288,23.713154666666668,57.96610169491525,23.585984C58.983050847457626,23.45881333333333,59.99999999999999,23.317517333333335,61.01694915254237,23.191856C62.03389830508474,23.066194666666668,63.05084745762712,22.946082666666666,64.0677966101695,22.832016C65.08474576271186,22.717949333333333,66.10169491525424,22.616245333333335,67.11864406779661,22.507456C68.13559322033899,22.398666666666667,69.15254237288136,22.283525333333333,70.16949152542374,22.17928C71.1864406779661,22.075034666666667,72.20338983050848,21.983845333333335,73.22033898305085,21.881984000000003C74.23728813559322,21.78012266666667,75.2542372881356,21.671234666666667,76.27118644067797,21.568112C77.28813559322033,21.46498933333333,78.30508474576271,21.368893333333332,79.32203389830508,21.263247999999997C80.33898305084746,21.157602666666662,81.35593220338983,21.05156533333333,82.37288135593221,20.934239999999996C83.38983050847457,20.816914666666662,84.40677966101696,20.69406666666666,85.42372881355932,20.559295999999996C86.4406779661017,20.424525333333328,87.45762711864407,20.273895999999997,88.47457627118645,20.125615999999997C89.49152542372882,19.977335999999998,90.50847457627118,19.832066666666663,91.52542372881355,19.669615999999998C92.54237288135593,19.50716533333333,93.55932203389831,19.323325333333333,94.57627118644069,19.150911999999998C95.59322033898306,18.978498666666667,96.61016949152543,18.807037333333334,97.62711864406779,18.635136000000003C98.64406779661016,18.46323466666667,99.66101694915254,18.292789333333335,100.6779661016949,18.119504000000003C101.69491525423729,17.94621866666667,102.71186440677965,17.770080000000004,103.72881355932203,17.595424C104.7457627118644,17.420768000000002,105.76271186440678,17.241933333333332,106.77966101694915,17.071568C107.79661016949153,16.901202666666666,108.8135593220339,16.732973333333334,109.83050847457628,16.573232C110.84745762711864,16.413490666666668,111.86440677966102,16.266432,112.88135593220339,16.11312C113.89830508474576,15.959807999999999,114.91525423728814,15.804245333333332,115.9322033898305,15.65336C116.94915254237289,15.502474666666666,117.96610169491525,15.355154666666666,118.98305084745763,15.207807999999998C120,15.060461333333333,121.01694915254237,14.912799999999999,122.03389830508473,14.76928C123.05084745762711,14.62576,124.0677966101695,14.486968,125.08474576271188,14.346687999999999C126.10169491525424,14.206408,127.11864406779662,14.065968,128.135593220339,13.9276C129.15254237288136,13.789232,130.16949152542372,13.652829333333333,131.1864406779661,13.51648C132.20338983050846,13.380130666666664,133.22033898305085,13.243335999999998,134.23728813559322,13.109503999999998C135.25423728813558,12.975671999999998,136.27118644067798,12.845877333333334,137.28813559322035,12.713488000000002C138.3050847457627,12.58109866666667,139.3220338983051,12.447888,140.33898305084747,12.315168C141.35593220338984,12.182448,142.3728813559322,12.050181333333333,143.38983050847457,11.917168C144.40677966101694,11.784154666666666,145.42372881355934,11.650826666666669,146.4406779661017,11.517088000000001C147.45762711864407,11.383349333333335,148.47457627118644,11.248418666666668,149.4915254237288,11.114736C150.50847457627117,10.981053333333334,151.52542372881356,10.848994666666666,152.54237288135593,10.714991999999999C153.5593220338983,10.580989333333331,154.5762711864407,10.445552,155.59322033898306,10.31072C156.61016949152543,10.175888,157.6271186440678,10.043730666666669,158.64406779661016,9.906000000000002C159.66101694915253,9.768269333333334,160.67796610169492,9.628301333333333,161.6949152542373,9.484335999999999C162.71186440677965,9.340370666666665,163.72881355932205,9.190296000000002,164.74576271186442,9.042208C165.76271186440678,8.894120000000001,166.77966101694915,8.748447999999998,167.79661016949152,8.595807999999998C168.81355932203388,8.443167999999996,169.83050847457628,8.284789333333332,170.84745762711864,8.126368C171.864406779661,7.967946666666666,172.8813559322034,7.805559999999999,173.89830508474577,7.645279999999999C174.91525423728814,7.4849999999999985,175.93220338983053,7.320733333333333,176.9491525423729,7.164687999999999C177.96610169491527,7.008642666666667,178.98305084745763,6.858825333333334,180,6.709008000000001"></path><path class="axis-ceiling" stroke-width="1" stroke="black" fill="none" d="M175,0L180,0"></path><text class="axis-ceiling-label" font-family="sans-serif" text-anchor="end" font-size="10px" x="170" y="2.5">2500000</text></g></svg>