<svg xmlns="http://www.w3.org/2000/svg" viewBox="0 0 180 60"><g transform="translate(0,20)"><path class="area" fill="rgba(0, 0, 0, 0.2)" d="M0,37.49096C1.0169491525423728,37.486446666666666,2.0338983050847457,37.48193333333333,3.0508474576271185,37.47752C4.067796610169491,37.473106666666666,5.084745762711864,37.46951555555556,6.101694915254237,37.46448C7.11864406779661,37.45944444444444,8.135593220338983,37.454746666666665,9.152542372881356,37.44730666666666C10.169491525423728,37.43986666666666,11.186440677966102,37.42806222222222,12.203389830508474,37.41984C13.220338983050846,37.41161777777778,14.23728813559322,37.40523555555556,15.254237288135592,37.39797333333333C16.271186440677965,37.39071111111111,17.28813559322034,37.38796444444444,18.305084745762713,37.376266666666666C19.322033898305087,37.36456888888889,20.338983050847457,37.34369777777778,21.35593220338983,37.32778666666667C22.372881355932204,37.31187555555556,23.389830508474574,37.31212444444444,24.406779661016948,37.2808C25.423728813559322,37.249475555555556,26.440677966101696,37.04856,27.45762711864407,36.96434666666667C28.47457627118644,36.88013333333334,29.491525423728813,36.84803111111111,30.508474576271183,36.77552C31.525423728813557,36.70300888888889,32.54237288135593,36.595955555555555,33.559322033898304,36.52928C34.57627118644068,36.462604444444445,35.59322033898305,36.47800888888889,36.610169491525426,36.37546666666667C37.6271186440678,36.27292444444445,38.644067796610166,36.03814666666667,39.66101694915254,35.90952C40.67796610169491,35.78089333333333,41.69491525423729,35.76092444444445,42.71186440677966,35.60370666666667C43.728813559322035,35.446488888888894,44.7457627118644,35.13125333333333,45.762711864406775,34.966213333333336C46.77966101694915,34.80117333333334,47.79661016949152,34.84832888888889,48.813559322033896,34.61346666666667C49.83050847457627,34.37860444444445,50.847457627118644,33.86476888888889,51.86440677966102,33.55704C52.88135593220339,33.24931111111111,53.898305084745765,33.02710666666667,54.91525423728814,32.767093333333335C55.93220338983051,32.50708,56.94915254237288,32.223391111111106,57.96610169491525,31.996959999999998C58.983050847457626,31.770528888888887,59.99999999999999,31.59939111111111,61.01694915254237,31.408506666666668C62.03389830508474,31.21762222222222,63.05084745762712,31.05875111111111,64.0677966101695,30.85165333333333C65.08474576271186,30.644555555555552,66.10169491525424,30.390826666666666,67.11864406779661,30.16592C68.13559322033899,29.941013333333334,69.15254237288136,29.68627111111111,70.16949152542374,29.502213333333334C71.1864406779661,29.318155555555556,72.20338983050848,29.22281333333333,73.22033898305085,29.06157333333333C74.23728813559322,28.900333333333332,75.2542372881356,28.885973333333332,76.27118644067797,28.534773333333334C77.28813559322033,28.183573333333335,78.30508474576271,27.51933333333333,79.32203389830508,26.901546666666665C80.33898305084746,26.283759999999997,81.35593220338983,25.38511111111111,82.37288135593221,24.828053333333333C83.38983050847457,24.270995555555558,84.40677966101696,23.941168888888892,85.42372881355932,23.559200000000004C86.4406779661017,23.177231111111116,87.45762711864407,22.95014222222223,88.47457627118645,22.536240000000003C89.49152542372882,22.12233777777778,90.50847457627118,21.434502222222225,91.52542372881355,21.07578666666667C92.54237288135593,20.71707111111111,93.55932203389831,20.60246666666667,94.57627118644069,20.383946666666667C95.59322033898306,20.16542666666667,96.61016949152543,19.975426666666667,97.62711864406779,19.764666666666667C98.64406779661016,19.553906666666666,99.66101694915254,19.330591111111108,100.6779661016949,19.119386666666664C101.69491525423729,18.90818222222222,102.71186440677965,18.64280444444444,103.72881355932203,18.497439999999997C104.7457627118644,18.352075555555555,105.76271186440678,18.348733333333332,106.77966101694915,18.2472C107.79661016949153,18.145666666666667,108.8135593220339,18.01961777777778,109.83050847457628,17.88824C110.84745762711864,17.75686222222222,111.86440677966102,17.587253333333337,112.88135593220339,17.458933333333334C113.89830508474576,17.330613333333332,114.91525423728814,17.231524444444442,115.9322033898305,17.118319999999997C116.94915254237289,17.00511555555555,117.96610169491525,16.903973333333333,118.98305084745763,16.779706666666666C120,16.65544,121.01694915254237,16.486786666666664,122.03389830508473,16.372719999999997C123.05084745762711,16.25865333333333,124.0677966101695,16.17108,125.08474576271188,16.095306666666666C126.10169491525424,16.01953333333333,127.11864406779662,16.02507111111111,128.135593220339,15.91808C129.15254237288136,15.81108888888889,130.16949152542372,15.56174222222222,131.1864406779661,15.453359999999998C132.20338983050846,15.344977777777775,133.22033898305085,15.361724444444443,134.23728813559322,15.267786666666666C135.25423728813558,15.17384888888889,136.27118644067798,15.000155555555558,137.28813559322035,14.889733333333336C138.3050847457627,14.779311111111113,139.3220338983051,14.778871111111114,140.33898305084747,14.605253333333334C141.35593220338984,14.431635555555555,142.3728813559322,14.087813333333335,143.38983050847457,13.84802666666667C144.40677966101694,13.608240000000002,145.42372881355934,13.358680000000001,146.4406779661017,13.166533333333334C147.45762711864407,12.974386666666668,148.47457627118644,12.865337777777778,149.4915254237288,12.695146666666668C150.50847457627117,12.524955555555556,151.52542372881356,12.35177777777778,152.54237288135593,12.145386666666669C153.5593220338983,11.938995555555557,154.5762711864407,11.716702222222226,155.59322033898306,11.456800000000001C156.61016949152543,11.19689777777778,157.6271186440678,10.827608888888888,158.64406779661016,10.585973333333332C159.66101694915253,10.344337777777774,160.67796610169492,10.162986666666667,161.6949152542373,10.006986666666666C162.71186440677965,9.850986666666666,163.72881355932205,9.754484444444444,164.74576271186442,9.649973333333332C165.76271186440678,9.545462222222222,166.77966101694915,9.510515555555553,167.79661016949152,9.379919999999998C168.81355932203388,9.249324444444444,169.83050847457628,8.983555555555554,170.84745762711864,8.866399999999999C171.864406779661,8.749244444444443,172.8813559322034,8.781342222222221,173.89830508474577,8.676986666666666C174.91525423728814,8.57263111111111,175.93220338983053,8.367275555555556,176.9491525423729,8.240266666666667C177.96610169491527,8.113257777777779,178.98305084745763,8.014095555555556,180,7.914933333333334L180,40C178.98305084745763,40,177.96610169491527,40,176.9491525423729,40C175.93220338983053,40,174.91525423728814,40,173.89830508474577,40C172.8813559322034,40,171.864406779661,40,170.84745762711864,40C169.83050847457628,40,168.81355932203388,40,167.79661016949152,40C166.77966101694915,40,165.76271186440678,40,164.74576271186442,40C163.72881355932205,40,162.71186440677965,40,161.6949152542373,40C160.67796610169492,40,159.66101694915253,40,158.64406779661016,40C157.6271186440678,40,156.61016949152543,40,155.59322033898306,40C154.5762711864407,40,153.5593220338983,40,152.54237288135593,40C151.52542372881356,40,150.50847457627117,40,149.4915254237288,40C148.47457627118644,40,147.45762711864407,40,146.4406779661017,40C145.42372881355934,40,144.40677966101694,40,143.38983050847457,40C142.3728813559322,40,141.35593220338984,40,140.33898305084747,40C139.3220338983051,40,138.3050847457627,40,137.28813559322035,40C136.27118644067798,40,135.25423728813558,40,134.23728813559322,40C133.22033898305085,40,132.20338983050846,40,131.1864406779661,40C130.16949152542372,40,129.15254237288136,40,128.135593220339,40C127.11864406779662,40,126.10169491525424,40,125.08474576271188,40C124.0677966101695,40,123.05084745762711,40,122.03389830508473,40C121.01694915254237,40,120,40,118.98305084745763,40C117.96610169491525,40,116.94915254237289,40,115.9322033898305,40C114.91525423728814,40,113.89830508474576,40,112.88135593220339,40C111.86440677966102,40,110.84745762711864,40,109.83050847457628,40C108.8135593220339,40,107.79661016949153,40,106.77966101694915,40C105.76271186440678,40,104.7457627118644,40,103.72881355932203,40C102.71186440677965,40,101.69491525423729,40,100.6779661016949,40C99.66101694915254,40,98.64406779661016,40,97.62711864406779,40C96.61016949152543,40,95.59322033898306,40,94.57627118644069,40C93.55932203389831,40,92.54237288135593,40,91.52542372881355,40C90.50847457627118,40,89.49152542372882,40,88.47457627118645,40C87.45762711864407,40,86.4406779661017,40,85.42372881355932,40C84.40677966101696,40,83.38983050847457,40,82.37288135593221,40C81.35593220338983,40,80.33898305084746,40,79.32203389830508,40C78.30508474576271,40,77.28813559322033,40,76.27118644067797,40C75.2542372881356,40,74.23728813559322,40,73.22033898305085,40C72.20338983050848,40,71.1864406779661,40,70.16949152542374,40C69.15254237288136,40,68.13559322033899,40,67.11864406779661,40C66.10169491525424,40,65.08474576271186,40,64.0677966101695,40C63.05084745762712,40,62.03389830508474,40,61.01694915254237,40C59.99999999999999,40,58.983050847457626,40,57.96610169491525,40C56.94915254237288,40,55.93220338983051,40,54.91525423728814,40C53.898305084745765,40,52.88135593220339,40,51.86440677966102,40C50.847457627118644,40,49.83050847457627,40,48.813559322033896,40C47.79661016949152,40,46.77966101694915,40,45.762711864406775,40C44.7457627118644,40,43.728813559322035,40,42.71186440677966,40C41.69491525423729,40,40.67796610169491,40,39.66101694915254,40C38.644067796610166,40,37.6271186440678,40,36.610169491525426,40C35.59322033898305,40,34.57627118644068,40,33.559322033898304,40C32.54237288135593,40,31.525423728813557,40,30.508474576271183,40C29.491525423728813,40,28.47457627118644,40,27.45762711864407,40C26.440677966101696,40,25.423728813559322,40,24.406779661016948,40C23.389830508474574,40,22.372881355932204,40,21.35593220338983,40C20.338983050847457,40,19.322033898305087,40,18.305084745762713,40C17.28813559322034,40,16.271186440677965,40,15.254237288135592,40C14.23728813559322,40,13.220338983050846,40,12.203389830508474,40C11.186440677966102,40,10.169491525423728,40,9.152542372881356,40C8.135593220338983,40,7.11864406779661,40,6.101694915254237,40C5.084745762711864,40,4.067796610169491,40,3.0508474576271185,40C2.0338983050847457,40,1.0169491525423728,40,0,40Z"></path><path class="line" stroke="black" fill="none" d="M0,37.49096C1.0169491525423728,37.486446666666666,2.0338983050847457,37.48193333333333,3.0508474576271185,37.47752C4.067796610169491,37.473106666666666,5.084745762711864,37.46951555555556,6.101694915254237,37.46448C7.11864406779661,37.45944444444444,8.135593220338983,37.454746666666665,9.152542372881356,37.44730666666666C10.169491525423728,37.43986666666666,11.186440677966102,37.42806222222222,12.203389830508474,37.41984C13.220338983050846,37.41161777777778,14.23728813559322,37.40523555555556,15.254237288135592,37.39797333333333C16.271186440677965,37.39071111111111,17.28813559322034,37.38796444444444,18.305084745762713,37.376266666666666C19.322033898305087,37.36456888888889,20.338983050847457,37.34369777777778,21.35593220338983,37.32778666666667C22.372881355932204,37.31187555555556,23.389830508474574,37.31212444444444,24.406779661016948,37.2808C25.423728813559322,37.249475555555556,26.440677966101696,37.04856,27.45762711864407,36.96434666666667C28.47457627118644,36.88013333333334,29.491525423728813,36.84803111111111,30.508474576271183,36.77552C31.525423728813557,36.70300888888889,32.54237288135593,36.595955555555555,33.559322033898304,36.52928C34.57627118644068,36.462604444444445,35.59322033898305,36.47800888888889,36.610169491525426,36.37546666666667C37.6271186440678,36.27292444444445,38.644067796610166,36.03814666666667,39.66101694915254,35.90952C40.67796610169491,35.78089333333333,41.69491525423729,35.76092444444445,42.71186440677966,35.60370666666667C43.728813559322035,35.446488888888894,44.7457627118644,35.13125333333333,45.762711864406775,34.966213333333336C46.77966101694915,34.80117333333334,47.79661016949152,34.84832888888889,48.813559322033896,34.61346666666667C49.83050847457627,34.37860444444445,50.847457627118644,33.86476888888889,51.86440677966102,33.55704C52.88135593220339,33.24931111111111,53.898305084745765,33.02710666666667,54.91525423728814,32.767093333333335C55.93220338983051,32.50708,56.94915254237288,32.223391111111106,57.96610169491525,31.996959999999998C58.983050847457626,31.770528888888887,59.99999999999999,31.59939111111111,61.01694915254237,31.408506666666668C62.03389830508474,31.21762222222222,63.05084745762712,31.05875111111111,64.0677966101695,30.85165333333333C65.08474576271186,30.644555555555552,66.10169491525424,30.390826666666666,67.11864406779661,30.16592C68.13559322033899,29.941013333333334,69.15254237288136,29.68627111111111,70.16949152542374,29.502213333333334C71.1864406779661,29.318155555555556,72.20338983050848,29.22281333333333,73.22033898305085,29.06157333333333C74.23728813559322,28.900333333333332,75.2542372881356,28.885973333333332,76.27118644067797,28.534773333333334C77.28813559322033,28.183573333333335,78.30508474576271,27.51933333333333,79.32203389830508,26.901546666666665C80.33898305084746,26.283759999999997,81.35593220338983,25.38511111111111,82.37288135593221,24.828053333333333C83.38983050847457,24.270995555555558,84.40677966101696,23.941168888888892,85.42372881355932,23.559200000000004C86.4406779661017,23.177231111111116,87.45762711864407,22.95014222222223,88.47457627118645,22.536240000000003C89.49152542372882,22.12233777777778,90.50847457627118,21.434502222222225,91.52542372881355,21.07578666666667C92.54237288135593,20.71707111111111,93.55932203389831,20.60246666666667,94.57627118644069,20.383946666666667C95.59322033898306,20.16542666666667,96.61016949152543,19.975426666666667,97.62711864406779,19.764666666666667C98.64406779661016,19.553906666666666,99.66101694915254,19.330591111111108,100.6779661016949,19.119386666666664C101.69491525423729,18.90818222222222,102.71186440677965,18.64280444444444,103.72881355932203,18.497439999999997C104.7457627118644,18.352075555555555,105.76271186440678,18.348733333333332,106.77966101694915,18.2472C107.79661016949153,18.145666666666667,108.8135593220339,18.01961777777778,109.83050847457628,17.88824C110.84745762711864,17.75686222222222,111.86440677966102,17.587253333333337,112.88135593220339,17.458933333333334C113.89830508474576,17.330613333333332,114.91525423728814,17.231524444444442,115.9322033898305,17.118319999999997C116.94915254237289,17.00511555555555,117.96610169491525,16.903973333333333,118.98305084745763,16.779706666666666C120,16.65544,121.01694915254237,16.486786666666664,122.03389830508473,16.372719999999997C123.05084745762711,16.25865333333333,124.0677966101695,16.17108,125.08474576271188,16.095306666666666C126.10169491525424,16.01953333333333,127.11864406779662,16.02507111111111,128.135593220339,15.91808C129.15254237288136,15.81108888888889,130.16949152542372,15.56174222222222,131.1864406779661,15.453359999999998C132.20338983050846,15.344977777777775,133.22033898305085,15.361724444444443,134.23728813559322,15.267786666666666C135.25423728813558,15.17384888888889,136.27118644067798,15.000155555555558,137.28813559322035,14.889733333333336C138.3050847457627,14.779311111111113,139.3220338983051,14.778871111111114,140.33898305084747,14.605253333333334C141.35593220338984,14.431635555555555,142.3728813559322,14.087813333333335,143.38983050847457,13.84802666666667C144.40677966101694,13.608240000000002,145.42372881355934,13.358680000000001,146.4406779661017,13.166533333333334C147.45762711864407,12.974386666666668,148.47457627118644,12.865337777777778,149.4915254237288,12.695146666666668C150.50847457627117,12.524955555555556,151.52542372881356,12.35177777777778,152.54237288135593,12.145386666666669C153.5593220338983,11.938995555555557,154.5762711864407,11.716702222222226,155.59322033898306,11.456800000000001C156.61016949152543,11.19689777777778,157.6271186440678,10.827608888888888,158.64406779661016,10.585973333333332C159.66101694915253,10.344337777777774,160.67796610169492,10.162986666666667,161.6949152542373,10.006986666666666C162.71186440677965,9.850986666666666,163.72881355932205,9.754484444444444,164.74576271186442,9.649973333333332C165.76271186440678,9.545462222222222,166.77966101694915,9.510515555555553,167.79661016949152,9.379919999999998C168.81355932203388,9.249324444444444,169.83050847457628,8.983555555555554,170.84745762711864,8.866399999999999C171.864406779661,8.749244444444443,172.8813559322034,8.781342222222221,173.89830508474577,8.676986666666666C174.91525423728814,8.57263111111111,175.93220338983053,8.367275555555556,176.9491525423729,8.240266666666667C177.96610169491527,8.113257777777779,178.98305084745763,8.014095555555556,180,7.914933333333334"></path><path class="axis-ceiling" stroke-width="1" stroke="black" fill="none" d="M175,0L180,0"></path><text class="axis-ceiling-label" font-family="sans-serif" text-anchor="end" font-size="10px" x="170" y="2.5">1500000</text></g></svg>