<svg xmlns="http://www.w3.org/2000/svg" viewBox="0 0 180 60"><g transform="translate(0,20)"><path class="area" fill="rgba(0, 0, 0, 0.2)" d="M0,31.7956C1.0169491525423728,32.181799999999996,2.0338983050847457,32.568,3.0508474576271185,32.568C4.067796610169491,32.568,5.084745762711864,32.1536,6.101694915254237,32.1536C7.11864406779661,32.1536,8.135593220338983,32.3784,9.152542372881356,32.3784C10.169491525423728,32.3784,11.186440677966102,32.0668,12.203389830508474,31.7748C13.220338983050846,31.482799999999997,14.23728813559322,31.062466666666666,15.254237288135592,30.6264C16.271186440677965,30.190333333333335,17.28813559322034,29.496066666666668,18.305084745762713,29.1584C19.322033898305087,28.820733333333333,20.338983050847457,28.954666666666665,21.35593220338983,28.600399999999997C22.372881355932204,28.24613333333333,23.389830508474574,27.032799999999998,24.406779661016948,27.032799999999998C25.423728813559322,27.032799999999998,26.440677966101696,27.102933333333336,27.45762711864407,27.105600000000003C28.47457627118644,27.10826666666667,29.491525423728813,27.1096,30.508474576271183,27.1096C31.525423728813557,27.1096,32.54237288135593,26.898,33.559322033898304,26.898C34.57627118644068,26.898,35.59322033898305,26.9,36.610169491525426,26.904C37.6271186440678,26.908,38.644067796610166,27.276466666666668,39.66101694915254,27.542C40.67796610169491,27.807533333333335,41.69491525423729,28.491066666666665,42.71186440677966,28.4972C43.728813559322035,28.503333333333334,44.7457627118644,28.50026666666667,45.762711864406775,28.506400000000003C46.77966101694915,28.512533333333337,47.79661016949152,28.7728,48.813559322033896,28.8612C49.83050847457627,28.9496,50.847457627118644,28.941066666666668,51.86440677966102,29.0368C52.88135593220339,29.13253333333333,53.898305084745765,29.377466666666663,54.91525423728814,29.435599999999997C55.93220338983051,29.49373333333333,56.94915254237288,29.475066666666667,57.96610169491525,29.5228C58.983050847457626,29.570533333333334,59.99999999999999,29.671533333333336,61.01694915254237,29.722C62.03389830508474,29.77246666666667,63.05084745762712,29.762600000000003,64.0677966101695,29.8256C65.08474576271186,29.8886,66.10169491525424,30.099999999999998,67.11864406779661,30.099999999999998C68.13559322033899,30.099999999999998,69.15254237288136,30.042,70.16949152542374,30.042C71.1864406779661,30.042,72.20338983050848,30.050400000000003,73.22033898305085,30.050400000000003C74.23728813559322,30.050400000000003,75.2542372881356,30.0162,76.27118644067797,29.998C77.28813559322033,29.9798,78.30508474576271,29.941199999999995,79.32203389830508,29.941199999999995C80.33898305084746,29.941199999999995,81.35593220338983,30.0068,82.37288135593221,30.0068C83.38983050847457,30.0068,84.40677966101696,29.901333333333334,85.42372881355932,29.8936C86.4406779661017,29.885866666666665,87.45762711864407,29.889733333333332,88.47457627118645,29.881999999999998C89.49152542372882,29.874266666666664,90.50847457627118,29.6142,91.52542372881355,29.4584C92.54237288135593,29.3026,93.55932203389831,29.018666666666665,94.57627118644069,28.9472C95.59322033898306,28.875733333333333,96.61016949152543,28.911466666666666,97.62711864406779,28.84C98.64406779661016,28.768533333333334,99.66101694915254,28.40853333333333,100.6779661016949,28.264C101.69491525423729,28.119466666666664,102.71186440677965,28.1088,103.72881355932203,27.9728C104.7457627118644,27.8368,105.76271186440678,27.797866666666664,106.77966101694915,27.447999999999997C107.79661016949153,27.098133333333326,108.8135593220339,26.341,109.83050847457628,25.830000000000002C110.84745762711864,25.319000000000003,111.86440677966102,24.71366666666667,112.88135593220339,24.382C113.89830508474576,24.050333333333334,114.91525423728814,24.201333333333334,115.9322033898305,23.84C116.94915254237289,23.478666666666665,117.96610169491525,21.770800000000005,118.98305084745763,21.086400000000005C120,20.40200000000001,121.01694915254237,20.395533333333326,122.03389830508473,19.7336C123.05084745762711,19.071666666666662,124.0677966101695,17.886333333333333,125.08474576271188,17.1148C126.10169491525424,16.343266666666672,127.11864406779662,15.6814,128.135593220339,15.1044C129.15254237288136,14.527400000000002,130.16949152542372,14.20173333333333,131.1864406779661,13.6528C132.20338983050846,13.103866666666663,133.22033898305085,12.604866666666666,134.23728813559322,11.8108C135.25423728813558,11.016733333333335,136.27118644067798,9.538933333333334,137.28813559322035,8.8884C138.3050847457627,8.237866666666667,139.3220338983051,8.100933333333336,140.33898305084747,7.907600000000001C141.35593220338984,7.714266666666669,142.3728813559322,7.718133333333335,143.38983050847457,7.617600000000002C144.40677966101694,7.517066666666668,145.42372881355934,7.513200000000002,146.4406779661017,7.304400000000002C147.45762711864407,7.095600000000004,148.47457627118644,4.955599999999998,149.4915254237288,4.955599999999998C150.50847457627117,4.955599999999998,151.52542372881356,5.119066666666665,152.54237288135593,5.446C153.5593220338983,5.772933333333334,154.5762711864407,7.195066666666662,155.59322033898306,8.288000000000002C156.61016949152543,9.380933333333331,157.6271186440678,10.668600000000007,158.64406779661016,12.003599999999999C159.66101694915253,13.338600000000003,160.67796610169492,15.203599999999998,161.6949152542373,16.298C162.71186440677965,17.3924,163.72881355932205,17.64433333333333,164.74576271186442,18.57C165.76271186440678,19.495666666666665,166.77966101694915,20.48560000000001,167.79661016949152,21.852C168.81355932203388,23.218400000000006,169.83050847457628,25.360333333333337,170.84745762711864,26.768400000000003C171.864406779661,28.17646666666667,172.8813559322034,29.480133333333335,173.89830508474577,30.3004C174.91525423728814,31.120666666666665,175.93220338983053,31.3586,176.9491525423729,31.69C177.96610169491527,32.0214,178.98305084745763,32.1551,180,32.2888L180,40C178.98305084745763,40,177.96610169491527,40,176.9491525423729,40C175.93220338983053,40,174.91525423728814,40,173.89830508474577,40C172.8813559322034,40,171.864406779661,40,170.84745762711864,40C169.83050847457628,40,168.81355932203388,40,167.79661016949152,40C166.77966101694915,40,165.76271186440678,40,164.74576271186442,40C163.72881355932205,40,162.71186440677965,40,161.6949152542373,40C160.67796610169492,40,159.66101694915253,40,158.64406779661016,40C157.6271186440678,40,156.61016949152543,40,155.59322033898306,40C154.5762711864407,40,153.5593220338983,40,152.54237288135593,40C151.52542372881356,40,150.50847457627117,40,149.4915254237288,40C148.47457627118644,40,147.45762711864407,40,146.4406779661017,40C145.42372881355934,40,144.40677966101694,40,143.38983050847457,40C142.3728813559322,40,141.35593220338984,40,140.33898305084747,40C139.3220338983051,40,138.3050847457627,40,137.28813559322035,40C136.27118644067798,40,135.25423728813558,40,134.23728813559322,40C133.22033898305085,40,132.20338983050846,40,131.1864406779661,40C130.16949152542372,40,129.15254237288136,40,128.135593220339,40C127.11864406779662,40,126.10169491525424,40,125.08474576271188,40C124.0677966101695,40,123.05084745762711,40,122.03389830508473,40C121.01694915254237,40,120,40,118.98305084745763,40C117.96610169491525,40,116.94915254237289,40,115.9322033898305,40C114.91525423728814,40,113.89830508474576,40,112.88135593220339,40C111.86440677966102,40,110.84745762711864,40,109.83050847457628,40C108.8135593220339,40,107.79661016949153,40,106.77966101694915,40C105.76271186440678,40,104.7457627118644,40,103.72881355932203,40C102.71186440677965,40,101.69491525423729,40,100.6779661016949,40C99.66101694915254,40,98.64406779661016,40,97.62711864406779,40C96.61016949152543,40,95.59322033898306,40,94.57627118644069,40C93.55932203389831,40,92.54237288135593,40,91.52542372881355,40C90.50847457627118,40,89.49152542372882,40,88.47457627118645,40C87.45762711864407,40,86.4406779661017,40,85.42372881355932,40C84.40677966101696,40,83.38983050847457,40,82.37288135593221,40C81.35593220338983,40,80.33898305084746,40,79.32203389830508,40C78.30508474576271,40,77.28813559322033,40,76.27118644067797,40C75.2542372881356,40,74.23728813559322,40,73.22033898305085,40C72.20338983050848,40,71.1864406779661,40,70.16949152542374,40C69.15254237288136,40,68.13559322033899,40,67.11864406779661,40C66.10169491525424,40,65.08474576271186,40,64.0677966101695,40C63.05084745762712,40,62.03389830508474,40,61.01694915254237,40C59.99999999999999,40,58.983050847457626,40,57.96610169491525,40C56.94915254237288,40,55.93220338983051,40,54.91525423728814,40C53.898305084745765,40,52.88135593220339,40,51.86440677966102,40C50.847457627118644,40,49.83050847457627,40,48.813559322033896,40C47.79661016949152,40,46.77966101694915,40,45.762711864406775,40C44.7457627118644,40,43.728813559322035,40,42.71186440677966,40C41.69491525423729,40,40.67796610169491,40,39.66101694915254,40C38.644067796610166,40,37.6271186440678,40,36.610169491525426,40C35.59322033898305,40,34.57627118644068,40,33.559322033898304,40C32.54237288135593,40,31.525423728813557,40,30.508474576271183,40C29.491525423728813,40,28.47457627118644,40,27.45762711864407,40C26.440677966101696,40,25.423728813559322,40,24.406779661016948,40C23.389830508474574,40,22.372881355932204,40,21.35593220338983,40C20.338983050847457,40,19.322033898305087,40,18.305084745762713,40C17.28813559322034,40,16.271186440677965,40,15.254237288135592,40C14.23728813559322,40,13.220338983050846,40,12.203389830508474,40C11.186440677966102,40,10.169491525423728,40,9.152542372881356,40C8.135593220338983,40,7.11864406779661,40,6.101694915254237,40C5.084745762711864,40,4.067796610169491,40,3.0508474576271185,40C2.0338983050847457,40,1.0169491525423728,40,0,40Z"></path><path class="line" stroke="black" fill="none" d="M0,31.7956C1.0169491525423728,32.181799999999996,2.0338983050847457,32.568,3.0508474576271185,32.568C4.067796610169491,32.568,5.084745762711864,32.1536,6.101694915254237,32.1536C7.11864406779661,32.1536,8.135593220338983,32.3784,9.152542372881356,32.3784C10.169491525423728,32.3784,11.186440677966102,32.0668,12.203389830508474,31.7748C13.220338983050846,31.482799999999997,14.23728813559322,31.062466666666666,15.254237288135592,30.6264C16.271186440677965,30.190333333333335,17.28813559322034,29.496066666666668,18.305084745762713,29.1584C19.322033898305087,28.820733333333333,20.338983050847457,28.954666666666665,21.35593220338983,28.600399999999997C22.372881355932204,28.24613333333333,23.389830508474574,27.032799999999998,24.406779661016948,27.032799999999998C25.423728813559322,27.032799999999998,26.440677966101696,27.102933333333336,27.45762711864407,27.105600000000003C28.47457627118644,27.10826666666667,29.491525423728813,27.1096,30.508474576271183,27.1096C31.525423728813557,27.1096,32.54237288135593,26.898,33.559322033898304,26.898C34.57627118644068,26.898,35.59322033898305,26.9,36.610169491525426,26.904C37.6271186440678,26.908,38.644067796610166,27.276466666666668,39.66101694915254,27.542C40.67796610169491,27.807533333333335,41.69491525423729,28.491066666666665,42.71186440677966,28.4972C43.728813559322035,28.503333333333334,44.7457627118644,28.50026666666667,45.762711864406775,28.506400000000003C46.77966101694915,28.512533333333337,47.79661016949152,28.7728,48.813559322033896,28.8612C49.83050847457627,28.9496,50.847457627118644,28.941066666666668,51.86440677966102,29.0368C52.88135593220339,29.13253333333333,53.898305084745765,29.377466666666663,54.91525423728814,29.435599999999997C55.93220338983051,29.49373333333333,56.94915254237288,29.475066666666667,57.96610169491525,29.5228C58.983050847457626,29.570533333333334,59.99999999999999,29.671533333333336,61.01694915254237,29.722C62.03389830508474,29.77246666666667,63.05084745762712,29.762600000000003,64.0677966101695,29.8256C65.08474576271186,29.8886,66.10169491525424,30.099999999999998,67.11864406779661,30.099999999999998C68.13559322033899,30.099999999999998,69.15254237288136,30.042,70.16949152542374,30.042C71.1864406779661,30.042,72.20338983050848,30.050400000000003,73.22033898305085,30.050400000000003C74.23728813559322,30.050400000000003,75.2542372881356,30.0162,76.27118644067797,29.998C77.28813559322033,29.9798,78.30508474576271,29.941199999999995,79.32203389830508,29.941199999999995C80.33898305084746,29.941199999999995,81.35593220338983,30.0068,82.37288135593221,30.0068C83.38983050847457,30.0068,84.40677966101696,29.901333333333334,85.42372881355932,29.8936C86.4406779661017,29.885866666666665,87.45762711864407,29.889733333333332,88.47457627118645,29.881999999999998C89.49152542372882,29.874266666666664,90.50847457627118,29.6142,91.52542372881355,29.4584C92.54237288135593,29.3026,93.55932203389831,29.018666666666665,94.57627118644069,28.9472C95.59322033898306,28.875733333333333,96.61016949152543,28.911466666666666,97.62711864406779,28.84C98.64406779661016,28.768533333333334,99.66101694915254,28.40853333333333,100.6779661016949,28.264C101.69491525423729,28.119466666666664,102.71186440677965,28.1088,103.72881355932203,27.9728C104.7457627118644,27.8368,105.76271186440678,27.797866666666664,106.77966101694915,27.447999999999997C107.79661016949153,27.098133333333326,108.8135593220339,26.341,109.83050847457628,25.830000000000002C110.84745762711864,25.319000000000003,111.86440677966102,24.71366666666667,112.88135593220339,24.382C113.89830508474576,24.050333333333334,114.91525423728814,24.201333333333334,115.9322033898305,23.84C116.94915254237289,23.478666666666665,117.96610169491525,21.770800000000005,118.98305084745763,21.086400000000005C120,20.40200000000001,121.01694915254237,20.395533333333326,122.03389830508473,19.7336C123.05084745762711,19.071666666666662,124.0677966101695,17.886333333333333,125.08474576271188,17.1148C126.10169491525424,16.343266666666672,127.11864406779662,15.6814,128.135593220339,15.1044C129.15254237288136,14.527400000000002,130.16949152542372,14.20173333333333,131.1864406779661,13.6528C132.20338983050846,13.103866666666663,133.22033898305085,12.604866666666666,134.23728813559322,11.8108C135.25423728813558,11.016733333333335,136.27118644067798,9.538933333333334,137.28813559322035,8.8884C138.3050847457627,8.237866666666667,139.3220338983051,8.100933333333336,140.33898305084747,7.907600000000001C141.35593220338984,7.714266666666669,142.3728813559322,7.718133333333335,143.38983050847457,7.617600000000002C144.40677966101694,7.517066666666668,145.42372881355934,7.513200000000002,146.4406779661017,7.304400000000002C147.45762711864407,7.095600000000004,148.47457627118644,4.955599999999998,149.4915254237288,4.955599999999998C150.50847457627117,4.955599999999998,151.52542372881356,5.119066666666665,152.54237288135593,5.446C153.5593220338983,5.772933333333334,154.5762711864407,7.195066666666662,155.59322033898306,8.288000000000002C156.61016949152543,9.380933333333331,157.6271186440678,10.668600000000007,158.64406779661016,12.003599999999999C159.66101694915253,13.338600000000003,160.67796610169492,15.203599999999998,161.6949152542373,16.298C162.71186440677965,17.3924,163.72881355932205,17.64433333333333,164.74576271186442,18.57C165.76271186440678,19.495666666666665,166.77966101694915,20.48560000000001,167.79661016949152,21.852C168.81355932203388,23.218400000000006,169.83050847457628,25.360333333333337,170.84745762711864,26.768400000000003C171.864406779661,28.17646666666667,172.8813559322034,29.480133333333335,173.89830508474577,30.3004C174.91525423728814,31.120666666666665,175.93220338983053,31.3586,176.9491525423729,31.69C177.96610169491527,32.0214,178.98305084745763,32.1551,180,32.2888"></path><path class="axis-ceiling" stroke-width="1" stroke="black" fill="none" d="M175,0L180,0"></path><text class="axis-ceiling-label" font-family="sans-serif" text-anchor="end" font-size="10px" x="170" y="2.5">100000</text></g></svg>