<svg xmlns="http://www.w3.org/2000/svg" viewBox="0 0 180 60"><g transform="translate(0,20)"><path class="area" fill="rgba(0, 0, 0, 0.2)" d="M0,8.9024C1.0169491525423728,8.844372,2.0338983050847457,8.786344,3.0508474576271185,8.722591999999999C4.067796610169491,8.658839999999998,5.084745762711864,8.593654666666666,6.101694915254237,8.519888C7.11864406779661,8.446121333333332,8.135593220338983,8.363837333333331,9.152542372881356,8.279991999999998C10.169491525423728,8.196146666666666,11.186440677966102,8.115297333333334,12.203389830508474,8.016816000000002C13.220338983050846,7.918334666666669,14.23728813559322,7.788140000000003,15.254237288135592,7.689104000000002C16.271186440677965,7.590068000000001,17.28813559322034,7.49858,18.305084745762713,7.422599999999999C19.322033898305087,7.346619999999999,20.338983050847457,7.285061333333331,21.35593220338983,7.233223999999998C22.372881355932204,7.181386666666665,23.389830508474574,7.1671733333333325,24.406779661016948,7.1115759999999995C25.423728813559322,7.055978666666666,26.440677966101696,6.964186666666665,27.45762711864407,6.899639999999998C28.47457627118644,6.835093333333331,29.491525423728813,6.787185333333333,30.508474576271183,6.724296000000001C31.525423728813557,6.661406666666668,32.54237288135593,6.592456000000001,33.559322033898304,6.522304000000001C34.57627118644068,6.452152000000001,35.59322033898305,6.379098666666666,36.610169491525426,6.3033839999999985C37.6271186440678,6.227669333333331,38.644067796610166,6.133543999999998,39.66101694915254,6.068015999999998C40.67796610169491,6.002487999999999,41.69491525423729,5.967679999999999,42.71186440677966,5.910215999999999C43.728813559322035,5.852752,44.7457627118644,5.792073333333334,45.762711864406775,5.723232C46.77966101694915,5.654390666666667,47.79661016949152,5.572410666666668,48.813559322033896,5.497168000000001C49.83050847457627,5.421925333333334,50.847457627118644,5.360916,51.86440677966102,5.271775999999999C52.88135593220339,5.182635999999999,53.898305084745765,5.025666666666668,54.91525423728814,4.962328C55.93220338983051,4.898989333333333,56.94915254237288,4.9291746666666665,57.96610169491525,4.867319999999999C58.983050847457626,4.805465333333332,59.99999999999999,4.669266666666666,61.01694915254237,4.5912C62.03389830508474,4.513133333333333,63.05084745762712,4.456583999999999,64.0677966101695,4.3989199999999995C65.08474576271186,4.341256,66.10169491525424,4.311542666666664,67.11864406779661,4.245215999999998C68.13559322033899,4.1788893333333315,69.15254237288136,4.065194666666667,70.16949152542374,4.00096C71.1864406779661,3.936725333333334,72.20338983050848,3.9004266666666667,73.22033898305085,3.859808C74.23728813559322,3.8191893333333335,75.2542372881356,3.796332,76.27118644067797,3.7572479999999997C77.28813559322033,3.7181639999999994,78.30508474576271,3.6770213333333315,79.32203389830508,3.625303999999998C80.33898305084746,3.5735866666666642,81.35593220338983,3.493335999999998,82.37288135593221,3.4469439999999985C83.38983050847457,3.400551999999999,84.40677966101696,3.3824440000000005,85.42372881355932,3.346952000000001C86.4406779661017,3.3114600000000007,87.45762711864407,3.273018666666666,88.47457627118645,3.233991999999999C89.49152542372882,3.1949653333333323,90.50847457627118,3.1493839999999995,91.52542372881355,3.112792C92.54237288135593,3.0761999999999996,93.55932203389831,3.0469066666666675,94.57627118644069,3.0144400000000005C95.59322033898306,2.981973333333334,96.61016949152543,2.9514306666666648,97.62711864406779,2.917991999999998C98.64406779661016,2.8845533333333315,99.66101694915254,2.851509333333333,100.6779661016949,2.813808C101.69491525423729,2.7761066666666667,102.71186440677965,2.7299306666666663,103.72881355932203,2.6917839999999993C104.7457627118644,2.6536373333333327,105.76271186440678,2.620113333333333,106.77966101694915,2.5849279999999997C107.79661016949153,2.549742666666666,108.8135593220339,2.515794666666666,109.83050847457628,2.4806719999999993C110.84745762711864,2.445549333333333,111.86440677966102,2.4145853333333354,112.88135593220339,2.3741920000000016C113.89830508474576,2.333798666666668,114.91525423728814,2.280203999999998,115.9322033898305,2.238311999999998C116.94915254237289,2.196419999999997,117.96610169491525,2.157745333333332,118.98305084745763,2.122839999999999C120,2.0879346666666665,121.01694915254237,2.0657720000000017,122.03389830508473,2.028880000000002C123.05084745762711,1.9919880000000014,124.0677966101695,1.9418053333333316,125.08474576271188,1.9014879999999978C126.10169491525424,1.8611706666666645,127.11864406779662,1.8196279999999998,128.135593220339,1.7869760000000001C129.15254237288136,1.7543240000000004,130.16949152542372,1.7366906666666662,131.1864406779661,1.7055759999999998C132.20338983050846,1.6744613333333331,133.22033898305085,1.6357813333333342,134.23728813559322,1.6002880000000008C135.25423728813558,1.5647946666666674,136.27118644067798,1.5279013333333331,137.28813559322035,1.492616C138.3050847457627,1.4573306666666668,139.3220338983051,1.4199520000000014,140.33898305084747,1.3885760000000014C141.35593220338984,1.3572000000000015,142.3728813559322,1.3403600000000002,143.38983050847457,1.30436C144.40677966101694,1.2683599999999995,145.42372881355934,1.2075039999999986,146.4406779661017,1.1725759999999985C147.45762711864407,1.1376479999999987,148.47457627118644,1.1191213333333327,149.4915254237288,1.094792C150.50847457627117,1.070462666666667,151.52542372881356,1.050100000000002,152.54237288135593,1.026600000000002C153.5593220338983,1.0031000000000019,154.5762711864407,0.981238666666667,155.59322033898306,0.953792C156.61016949152543,0.9263453333333331,157.6271186440678,0.8921933333333337,158.64406779661016,0.8619200000000005C159.66101694915253,0.8316466666666669,160.67796610169492,0.8010093333333327,161.6949152542373,0.7721519999999993C162.71186440677965,0.7432946666666659,163.72881355932205,0.7173439999999999,164.74576271186442,0.6887759999999998C165.76271186440678,0.660208,166.77966101694915,0.6274653333333331,167.79661016949152,0.6007439999999997C168.81355932203388,0.5740226666666661,169.83050847457628,0.5498053333333323,170.84745762711864,0.5284479999999991C171.864406779661,0.507090666666666,172.8813559322034,0.4960920000000006,173.89830508474577,0.4726000000000008C174.91525423728814,0.449108000000001,175.93220338983053,0.411680000000001,176.9491525423729,0.3874960000000005C177.96610169491527,0.36331200000000025,178.98305084745763,0.3454039999999992,180,0.32749599999999823L180,40C178.98305084745763,40,177.96610169491527,40,176.9491525423729,40C175.93220338983053,40,174.91525423728814,40,173.89830508474577,40C172.8813559322034,40,171.864406779661,40,170.84745762711864,40C169.83050847457628,40,168.81355932203388,40,167.79661016949152,40C166.77966101694915,40,165.76271186440678,40,164.74576271186442,40C163.72881355932205,40,162.71186440677965,40,161.6949152542373,40C160.67796610169492,40,159.66101694915253,40,158.64406779661016,40C157.6271186440678,40,156.61016949152543,40,155.59322033898306,40C154.5762711864407,40,153.5593220338983,40,152.54237288135593,40C151.52542372881356,40,150.50847457627117,40,149.4915254237288,40C148.47457627118644,40,147.45762711864407,40,146.4406779661017,40C145.42372881355934,40,144.40677966101694,40,143.38983050847457,40C142.3728813559322,40,141.35593220338984,40,140.33898305084747,40C139.3220338983051,40,138.3050847457627,40,137.28813559322035,40C136.27118644067798,40,135.25423728813558,40,134.23728813559322,40C133.22033898305085,40,132.20338983050846,40,131.1864406779661,40C130.16949152542372,40,129.15254237288136,40,128.135593220339,40C127.11864406779662,40,126.10169491525424,40,125.08474576271188,40C124.0677966101695,40,123.05084745762711,40,122.03389830508473,40C121.01694915254237,40,120,40,118.98305084745763,40C117.96610169491525,40,116.94915254237289,40,115.9322033898305,40C114.91525423728814,40,113.89830508474576,40,112.88135593220339,40C111.86440677966102,40,110.84745762711864,40,109.83050847457628,40C108.8135593220339,40,107.79661016949153,40,106.77966101694915,40C105.76271186440678,40,104.7457627118644,40,103.72881355932203,40C102.71186440677965,40,101.69491525423729,40,100.6779661016949,40C99.66101694915254,40,98.64406779661016,40,97.62711864406779,40C96.61016949152543,40,95.59322033898306,40,94.57627118644069,40C93.55932203389831,40,92.54237288135593,40,91.52542372881355,40C90.50847457627118,40,89.49152542372882,40,88.47457627118645,40C87.45762711864407,40,86.4406779661017,40,85.42372881355932,40C84.40677966101696,40,83.38983050847457,40,82.37288135593221,40C81.35593220338983,40,80.33898305084746,40,79.32203389830508,40C78.30508474576271,40,77.28813559322033,40,76.27118644067797,40C75.2542372881356,40,74.23728813559322,40,73.22033898305085,40C72.20338983050848,40,71.1864406779661,40,70.16949152542374,40C69.15254237288136,40,68.13559322033899,40,67.11864406779661,40C66.10169491525424,40,65.08474576271186,40,64.0677966101695,40C63.05084745762712,40,62.03389830508474,40,61.01694915254237,40C59.99999999999999,40,58.983050847457626,40,57.96610169491525,40C56.94915254237288,40,55.93220338983051,40,54.91525423728814,40C53.898305084745765,40,52.88135593220339,40,51.86440677966102,40C50.847457627118644,40,49.83050847457627,40,48.813559322033896,40C47.79661016949152,40,46.77966101694915,40,45.762711864406775,40C44.7457627118644,40,43.728813559322035,40,42.71186440677966,40C41.69491525423729,40,40.67796610169491,40,39.66101694915254,40C38.644067796610166,40,37.6271186440678,40,36.610169491525426,40C35.59322033898305,40,34.57627118644068,40,33.559322033898304,40C32.54237288135593,40,31.525423728813557,40,30.508474576271183,40C29.491525423728813,40,28.47457627118644,40,27.45762711864407,40C26.440677966101696,40,25.423728813559322,40,24.406779661016948,40C23.389830508474574,40,22.372881355932204,40,21.35593220338983,40C20.338983050847457,40,19.322033898305087,40,18.305084745762713,40C17.28813559322034,40,16.271186440677965,40,15.254237288135592,40C14.23728813559322,40,13.220338983050846,40,12.203389830508474,40C11.186440677966102,40,10.169491525423728,40,9.152542372881356,40C8.135593220338983,40,7.11864406779661,40,6.101694915254237,40C5.084745762711864,40,4.067796610169491,40,3.0508474576271185,40C2.0338983050847457,40,1.0169491525423728,40,0,40Z"></path><path class="line" stroke="black" fill="none" d="M0,8.9024C1.0169491525423728,8.844372,2.0338983050847457,8.786344,3.0508474576271185,8.722591999999999C4.067796610169491,8.658839999999998,5.084745762711864,8.593654666666666,6.101694915254237,8.519888C7.11864406779661,8.446121333333332,8.135593220338983,8.363837333333331,9.152542372881356,8.279991999999998C10.169491525423728,8.196146666666666,11.186440677966102,8.115297333333334,12.203389830508474,8.016816000000002C13.220338983050846,7.918334666666669,14.23728813559322,7.788140000000003,15.254237288135592,7.689104000000002C16.271186440677965,7.590068000000001,17.28813559322034,7.49858,18.305084745762713,7.422599999999999C19.322033898305087,7.346619999999999,20.338983050847457,7.285061333333331,21.35593220338983,7.233223999999998C22.372881355932204,7.181386666666665,23.389830508474574,7.1671733333333325,24.406779661016948,7.1115759999999995C25.423728813559322,7.055978666666666,26.440677966101696,6.964186666666665,27.45762711864407,6.899639999999998C28.47457627118644,6.835093333333331,29.491525423728813,6.787185333333333,30.508474576271183,6.724296000000001C31.525423728813557,6.661406666666668,32.54237288135593,6.592456000000001,33.559322033898304,6.522304000000001C34.57627118644068,6.452152000000001,35.59322033898305,6.379098666666666,36.610169491525426,6.3033839999999985C37.6271186440678,6.227669333333331,38.644067796610166,6.133543999999998,39.66101694915254,6.068015999999998C40.67796610169491,6.002487999999999,41.69491525423729,5.967679999999999,42.71186440677966,5.910215999999999C43.728813559322035,5.852752,44.7457627118644,5.792073333333334,45.762711864406775,5.723232C46.77966101694915,5.654390666666667,47.79661016949152,5.572410666666668,48.813559322033896,5.497168000000001C49.83050847457627,5.421925333333334,50.847457627118644,5.360916,51.86440677966102,5.271775999999999C52.88135593220339,5.182635999999999,53.898305084745765,5.025666666666668,54.91525423728814,4.962328C55.93220338983051,4.898989333333333,56.94915254237288,4.9291746666666665,57.96610169491525,4.867319999999999C58.983050847457626,4.805465333333332,59.99999999999999,4.669266666666666,61.01694915254237,4.5912C62.03389830508474,4.513133333333333,63.05084745762712,4.456583999999999,64.0677966101695,4.3989199999999995C65.08474576271186,4.341256,66.10169491525424,4.311542666666664,67.11864406779661,4.245215999999998C68.13559322033899,4.1788893333333315,69.15254237288136,4.065194666666667,70.16949152542374,4.00096C71.1864406779661,3.936725333333334,72.20338983050848,3.9004266666666667,73.22033898305085,3.859808C74.23728813559322,3.8191893333333335,75.2542372881356,3.796332,76.27118644067797,3.7572479999999997C77.28813559322033,3.7181639999999994,78.30508474576271,3.6770213333333315,79.32203389830508,3.625303999999998C80.33898305084746,3.5735866666666642,81.35593220338983,3.493335999999998,82.37288135593221,3.4469439999999985C83.38983050847457,3.400551999999999,84.40677966101696,3.3824440000000005,85.42372881355932,3.346952000000001C86.4406779661017,3.3114600000000007,87.45762711864407,3.273018666666666,88.47457627118645,3.233991999999999C89.49152542372882,3.1949653333333323,90.50847457627118,3.1493839999999995,91.52542372881355,3.112792C92.54237288135593,3.0761999999999996,93.55932203389831,3.0469066666666675,94.57627118644069,3.0144400000000005C95.59322033898306,2.981973333333334,96.61016949152543,2.9514306666666648,97.62711864406779,2.917991999999998C98.64406779661016,2.8845533333333315,99.66101694915254,2.851509333333333,100.6779661016949,2.813808C101.69491525423729,2.7761066666666667,102.71186440677965,2.7299306666666663,103.72881355932203,2.6917839999999993C104.7457627118644,2.6536373333333327,105.76271186440678,2.620113333333333,106.77966101694915,2.5849279999999997C107.79661016949153,2.549742666666666,108.8135593220339,2.515794666666666,109.83050847457628,2.4806719999999993C110.84745762711864,2.445549333333333,111.86440677966102,2.4145853333333354,112.88135593220339,2.3741920000000016C113.89830508474576,2.333798666666668,114.91525423728814,2.280203999999998,115.9322033898305,2.238311999999998C116.94915254237289,2.196419999999997,117.96610169491525,2.157745333333332,118.98305084745763,2.122839999999999C120,2.0879346666666665,121.01694915254237,2.0657720000000017,122.03389830508473,2.028880000000002C123.05084745762711,1.9919880000000014,124.0677966101695,1.9418053333333316,125.08474576271188,1.9014879999999978C126.10169491525424,1.8611706666666645,127.11864406779662,1.8196279999999998,128.135593220339,1.7869760000000001C129.15254237288136,1.7543240000000004,130.16949152542372,1.7366906666666662,131.1864406779661,1.7055759999999998C132.20338983050846,1.6744613333333331,133.22033898305085,1.6357813333333342,134.23728813559322,1.6002880000000008C135.25423728813558,1.5647946666666674,136.27118644067798,1.5279013333333331,137.28813559322035,1.492616C138.3050847457627,1.4573306666666668,139.3220338983051,1.4199520000000014,140.33898305084747,1.3885760000000014C141.35593220338984,1.3572000000000015,142.3728813559322,1.3403600000000002,143.38983050847457,1.30436C144.40677966101694,1.2683599999999995,145.42372881355934,1.2075039999999986,146.4406779661017,1.1725759999999985C147.45762711864407,1.1376479999999987,148.47457627118644,1.1191213333333327,149.4915254237288,1.094792C150.50847457627117,1.070462666666667,151.52542372881356,1.050100000000002,152.54237288135593,1.026600000000002C153.5593220338983,1.0031000000000019,154.5762711864407,0.981238666666667,155.59322033898306,0.953792C156.61016949152543,0.9263453333333331,157.6271186440678,0.8921933333333337,158.64406779661016,0.8619200000000005C159.66101694915253,0.8316466666666669,160.67796610169492,0.8010093333333327,161.6949152542373,0.7721519999999993C162.71186440677965,0.7432946666666659,163.72881355932205,0.7173439999999999,164.74576271186442,0.6887759999999998C165.76271186440678,0.660208,166.77966101694915,0.6274653333333331,167.79661016949152,0.6007439999999997C168.81355932203388,0.5740226666666661,169.83050847457628,0.5498053333333323,170.84745762711864,0.5284479999999991C171.864406779661,0.507090666666666,172.8813559322034,0.4960920000000006,173.89830508474577,0.4726000000000008C174.91525423728814,0.449108000000001,175.93220338983053,0.411680000000001,176.9491525423729,0.3874960000000005C177.96610169491527,0.36331200000000025,178.98305084745763,0.3454039999999992,180,0.32749599999999823"></path><path class="axis-ceiling" stroke-width="1" stroke="black" fill="none" d="M175,0L180,0"></path><text class="axis-ceiling-label" font-family="sans-serif" text-anchor="end" font-size="10px" x="170" y="2.5">5000000</text></g></svg>