<svg xmlns="http://www.w3.org/2000/svg" viewBox="0 0 180 60"><g transform="translate(0,20)"><path class="area" fill="rgba(0, 0, 0, 0.2)" d="M0,27.505325714285714C1.0169491525423728,27.425350476190477,2.0338983050847457,27.34537523809524,3.0508474576271185,27.270914285714287C4.067796610169491,27.196453333333334,5.084745762711864,27.131318095238093,6.101694915254237,27.05856C7.11864406779661,26.985801904761903,8.135593220338983,26.908024761904766,9.152542372881356,26.834365714285717C10.169491525423728,26.76070666666667,11.186440677966102,26.69206666666667,12.203389830508474,26.616605714285715C13.220338983050846,26.54114476190476,14.23728813559322,26.465403809523806,15.254237288135592,26.3816C16.271186440677965,26.297796190476188,17.28813559322034,26.21004761904762,18.305084745762713,26.11378285714286C19.322033898305087,26.0175180952381,20.338983050847457,25.909925714285716,21.35593220338983,25.80401142857143C22.372881355932204,25.698097142857147,23.389830508474574,25.594333333333335,24.406779661016948,25.478297142857144C25.423728813559322,25.362260952380954,26.440677966101696,25.230946666666664,27.45762711864407,25.107794285714284C28.47457627118644,24.984641904761904,29.491525423728813,24.862169523809523,30.508474576271183,24.739382857142857C31.525423728813557,24.61659619047619,32.54237288135593,24.49484952380952,33.559322033898304,24.371074285714283C34.57627118644068,24.247299047619045,35.59322033898305,24.121485714285715,36.610169491525426,23.99673142857143C37.6271186440678,23.871977142857144,38.644067796610166,23.7442380952381,39.66101694915254,23.622548571428574C40.67796610169491,23.50085904761905,41.69491525423729,23.380695238095235,42.71186440677966,23.266594285714284C43.728813559322035,23.152493333333332,44.7457627118644,23.047451428571428,45.762711864406775,22.937942857142858C46.77966101694915,22.828434285714287,47.79661016949152,22.7173180952381,48.813559322033896,22.60954285714286C49.83050847457627,22.50176761904762,50.847457627118644,22.39653904761905,51.86440677966102,22.29129142857143C52.88135593220339,22.18604380952381,53.898305084745765,22.080571428571428,54.91525423728814,21.978057142857143C55.93220338983051,21.875542857142857,56.94915254237288,21.776405714285715,57.96610169491525,21.676205714285715C58.983050847457626,21.576005714285714,59.99999999999999,21.47569142857143,61.01694915254237,21.376857142857144C62.03389830508474,21.278022857142858,63.05084745762712,21.18059238095238,64.0677966101695,21.083199999999998C65.08474576271186,20.985807619047616,66.10169491525424,20.88809714285714,67.11864406779661,20.792502857142857C68.13559322033899,20.696908571428573,69.15254237288136,20.604198095238093,70.16949152542374,20.509634285714284C71.1864406779661,20.415070476190476,72.20338983050848,20.319919999999996,73.22033898305085,20.225119999999997C74.23728813559322,20.130319999999998,75.2542372881356,20.035843809523808,76.27118644067797,19.940834285714285C77.28813559322033,19.845824761904762,78.30508474576271,19.750590476190474,79.32203389830508,19.655062857142855C80.33898305084746,19.559535238095236,81.35593220338983,19.46315619047619,82.37288135593221,19.36766857142857C83.38983050847457,19.272180952380953,84.40677966101696,19.17785333333333,85.42372881355932,19.082137142857142C86.4406779661017,18.986420952380954,87.45762711864407,18.889680000000002,88.47457627118645,18.79337142857143C89.49152542372882,18.697062857142857,90.50847457627118,18.602664761904762,91.52542372881355,18.504285714285714C92.54237288135593,18.405906666666667,93.55932203389831,18.30592952380952,94.57627118644069,18.20309714285714C95.59322033898306,18.10026476190476,96.61016949152543,17.993068571428573,97.62711864406779,17.88729142857143C98.64406779661016,17.781514285714287,99.66101694915254,17.677462857142856,100.6779661016949,17.568434285714286C101.69491525423729,17.459405714285715,102.71186440677965,17.346278095238095,103.72881355932203,17.23312C104.7457627118644,17.119961904761904,105.76271186440678,17.006529523809526,106.77966101694915,16.889485714285716C107.79661016949153,16.772441904761905,108.8135593220339,16.65810666666667,109.83050847457628,16.530857142857144C110.84745762711864,16.40360761904762,111.86440677966102,16.267838095238098,112.88135593220339,16.12598857142857C113.89830508474576,15.984139047619047,114.91525423728814,15.831085714285713,115.9322033898305,15.679759999999998C116.94915254237289,15.528434285714283,117.96610169491525,15.385053333333332,118.98305084745763,15.218034285714284C120,15.051015238095237,121.01694915254237,14.864217142857141,122.03389830508473,14.677645714285713C123.05084745762711,14.491074285714284,124.0677966101695,14.304089523809523,125.08474576271188,14.098605714285712C126.10169491525424,13.893121904761903,127.11864406779662,13.672270476190475,128.135593220339,13.444742857142856C129.15254237288136,13.217215238095237,130.16949152542372,12.977455238095235,131.1864406779661,12.733439999999998C132.20338983050846,12.48942476190476,133.22033898305085,12.240350476190475,134.23728813559322,11.980651428571427C135.25423728813558,11.72095238095238,136.27118644067798,11.457630476190477,137.28813559322035,11.175245714285715C138.3050847457627,10.892860952380953,139.3220338983051,10.587316190476194,140.33898305084747,10.28634285714286C141.35593220338984,9.985369523809528,142.3728813559322,9.676430476190477,143.38983050847457,9.369405714285715C144.40677966101694,9.062380952380952,145.42372881355934,8.754091428571428,146.4406779661017,8.444194285714284C147.45762711864407,8.134297142857141,148.47457627118644,7.832598095238094,149.4915254237288,7.510022857142857C150.50847457627117,7.187447619047618,151.52542372881356,6.840165714285712,152.54237288135593,6.508742857142855C153.5593220338983,6.177319999999998,154.5762711864407,5.837038095238096,155.59322033898306,5.521485714285714C156.61016949152543,5.205933333333335,157.6271186440678,4.89975619047619,158.64406779661016,4.6154285714285725C159.66101694915253,4.331100952380952,160.67796610169492,4.061704761904763,161.6949152542373,3.815520000000001C162.71186440677965,3.5693352380952392,163.72881355932205,3.353236190476193,164.74576271186442,3.138320000000001C165.76271186440678,2.923403809523811,166.77966101694915,2.714491428571426,167.79661016949152,2.5260228571428556C168.81355932203388,2.3375542857142833,169.83050847457628,2.15693523809524,170.84745762711864,2.0075085714285734C171.864406779661,1.8580819047619073,172.8813559322034,1.7386590476190489,173.89830508474577,1.6294628571428582C174.91525423728814,1.5202666666666675,175.93220338983053,1.4380914285714297,176.9491525423729,1.3523314285714294C177.96610169491527,1.26657142857143,178.98305084745763,1.1907371428571443,180,1.1149028571428587L180,40C178.98305084745763,40,177.96610169491527,40,176.9491525423729,40C175.93220338983053,40,174.91525423728814,40,173.89830508474577,40C172.8813559322034,40,171.864406779661,40,170.84745762711864,40C169.83050847457628,40,168.81355932203388,40,167.79661016949152,40C166.77966101694915,40,165.76271186440678,40,164.74576271186442,40C163.72881355932205,40,162.71186440677965,40,161.6949152542373,40C160.67796610169492,40,159.66101694915253,40,158.64406779661016,40C157.6271186440678,40,156.61016949152543,40,155.59322033898306,40C154.5762711864407,40,153.5593220338983,40,152.54237288135593,40C151.52542372881356,40,150.50847457627117,40,149.4915254237288,40C148.47457627118644,40,147.45762711864407,40,146.4406779661017,40C145.42372881355934,40,144.40677966101694,40,143.38983050847457,40C142.3728813559322,40,141.35593220338984,40,140.33898305084747,40C139.3220338983051,40,138.3050847457627,40,137.28813559322035,40C136.27118644067798,40,135.25423728813558,40,134.23728813559322,40C133.22033898305085,40,132.20338983050846,40,131.1864406779661,40C130.16949152542372,40,129.15254237288136,40,128.135593220339,40C127.11864406779662,40,126.10169491525424,40,125.08474576271188,40C124.0677966101695,40,123.05084745762711,40,122.03389830508473,40C121.01694915254237,40,120,40,118.98305084745763,40C117.96610169491525,40,116.94915254237289,40,115.9322033898305,40C114.91525423728814,40,113.89830508474576,40,112.88135593220339,40C111.86440677966102,40,110.84745762711864,40,109.83050847457628,40C108.8135593220339,40,107.79661016949153,40,106.77966101694915,40C105.76271186440678,40,104.7457627118644,40,103.72881355932203,40C102.71186440677965,40,101.69491525423729,40,100.6779661016949,40C99.66101694915254,40,98.64406779661016,40,97.62711864406779,40C96.61016949152543,40,95.59322033898306,40,94.57627118644069,40C93.55932203389831,40,92.54237288135593,40,91.52542372881355,40C90.50847457627118,40,89.49152542372882,40,88.47457627118645,40C87.45762711864407,40,86.4406779661017,40,85.42372881355932,40C84.40677966101696,40,83.38983050847457,40,82.37288135593221,40C81.35593220338983,40,80.33898305084746,40,79.32203389830508,40C78.30508474576271,40,77.28813559322033,40,76.27118644067797,40C75.2542372881356,40,74.23728813559322,40,73.22033898305085,40C72.20338983050848,40,71.1864406779661,40,70.16949152542374,40C69.15254237288136,40,68.13559322033899,40,67.11864406779661,40C66.10169491525424,40,65.08474576271186,40,64.0677966101695,40C63.05084745762712,40,62.03389830508474,40,61.01694915254237,40C59.99999999999999,40,58.983050847457626,40,57.96610169491525,40C56.94915254237288,40,55.93220338983051,40,54.91525423728814,40C53.898305084745765,40,52.88135593220339,40,51.86440677966102,40C50.847457627118644,40,49.83050847457627,40,48.813559322033896,40C47.79661016949152,40,46.77966101694915,40,45.762711864406775,40C44.7457627118644,40,43.728813559322035,40,42.71186440677966,40C41.69491525423729,40,40.67796610169491,40,39.66101694915254,40C38.644067796610166,40,37.6271186440678,40,36.610169491525426,40C35.59322033898305,40,34.57627118644068,40,33.559322033898304,40C32.54237288135593,40,31.525423728813557,40,30.508474576271183,40C29.491525423728813,40,28.47457627118644,40,27.45762711864407,40C26.440677966101696,40,25.423728813559322,40,24.406779661016948,40C23.389830508474574,40,22.372881355932204,40,21.35593220338983,40C20.338983050847457,40,19.322033898305087,40,18.305084745762713,40C17.28813559322034,40,16.271186440677965,40,15.254237288135592,40C14.23728813559322,40,13.220338983050846,40,12.203389830508474,40C11.186440677966102,40,10.169491525423728,40,9.152542372881356,40C8.135593220338983,40,7.11864406779661,40,6.101694915254237,40C5.084745762711864,40,4.067796610169491,40,3.0508474576271185,40C2.0338983050847457,40,1.0169491525423728,40,0,40Z"></path><path class="line" stroke="black" fill="none" d="M0,27.505325714285714C1.0169491525423728,27.425350476190477,2.0338983050847457,27.34537523809524,3.0508474576271185,27.270914285714287C4.067796610169491,27.196453333333334,5.084745762711864,27.131318095238093,6.101694915254237,27.05856C7.11864406779661,26.985801904761903,8.135593220338983,26.908024761904766,9.152542372881356,26.834365714285717C10.169491525423728,26.76070666666667,11.186440677966102,26.69206666666667,12.203389830508474,26.616605714285715C13.220338983050846,26.54114476190476,14.23728813559322,26.465403809523806,15.254237288135592,26.3816C16.271186440677965,26.297796190476188,17.28813559322034,26.21004761904762,18.305084745762713,26.11378285714286C19.322033898305087,26.0175180952381,20.338983050847457,25.909925714285716,21.35593220338983,25.80401142857143C22.372881355932204,25.698097142857147,23.389830508474574,25.594333333333335,24.406779661016948,25.478297142857144C25.423728813559322,25.362260952380954,26.440677966101696,25.230946666666664,27.45762711864407,25.107794285714284C28.47457627118644,24.984641904761904,29.491525423728813,24.862169523809523,30.508474576271183,24.739382857142857C31.525423728813557,24.61659619047619,32.54237288135593,24.49484952380952,33.559322033898304,24.371074285714283C34.57627118644068,24.247299047619045,35.59322033898305,24.121485714285715,36.610169491525426,23.99673142857143C37.6271186440678,23.871977142857144,38.644067796610166,23.7442380952381,39.66101694915254,23.622548571428574C40.67796610169491,23.50085904761905,41.69491525423729,23.380695238095235,42.71186440677966,23.266594285714284C43.728813559322035,23.152493333333332,44.7457627118644,23.047451428571428,45.762711864406775,22.937942857142858C46.77966101694915,22.828434285714287,47.79661016949152,22.7173180952381,48.813559322033896,22.60954285714286C49.83050847457627,22.50176761904762,50.847457627118644,22.39653904761905,51.86440677966102,22.29129142857143C52.88135593220339,22.18604380952381,53.898305084745765,22.080571428571428,54.91525423728814,21.978057142857143C55.93220338983051,21.875542857142857,56.94915254237288,21.776405714285715,57.96610169491525,21.676205714285715C58.983050847457626,21.576005714285714,59.99999999999999,21.47569142857143,61.01694915254237,21.376857142857144C62.03389830508474,21.278022857142858,63.05084745762712,21.18059238095238,64.0677966101695,21.083199999999998C65.08474576271186,20.985807619047616,66.10169491525424,20.88809714285714,67.11864406779661,20.792502857142857C68.13559322033899,20.696908571428573,69.15254237288136,20.604198095238093,70.16949152542374,20.509634285714284C71.1864406779661,20.415070476190476,72.20338983050848,20.319919999999996,73.22033898305085,20.225119999999997C74.23728813559322,20.130319999999998,75.2542372881356,20.035843809523808,76.27118644067797,19.940834285714285C77.28813559322033,19.845824761904762,78.30508474576271,19.750590476190474,79.32203389830508,19.655062857142855C80.33898305084746,19.559535238095236,81.35593220338983,19.46315619047619,82.37288135593221,19.36766857142857C83.38983050847457,19.272180952380953,84.40677966101696,19.17785333333333,85.42372881355932,19.082137142857142C86.4406779661017,18.986420952380954,87.45762711864407,18.889680000000002,88.47457627118645,18.79337142857143C89.49152542372882,18.697062857142857,90.50847457627118,18.602664761904762,91.52542372881355,18.504285714285714C92.54237288135593,18.405906666666667,93.55932203389831,18.30592952380952,94.57627118644069,18.20309714285714C95.59322033898306,18.10026476190476,96.61016949152543,17.993068571428573,97.62711864406779,17.88729142857143C98.64406779661016,17.781514285714287,99.66101694915254,17.677462857142856,100.6779661016949,17.568434285714286C101.69491525423729,17.459405714285715,102.71186440677965,17.346278095238095,103.72881355932203,17.23312C104.7457627118644,17.119961904761904,105.76271186440678,17.006529523809526,106.77966101694915,16.889485714285716C107.79661016949153,16.772441904761905,108.8135593220339,16.65810666666667,109.83050847457628,16.530857142857144C110.84745762711864,16.40360761904762,111.86440677966102,16.267838095238098,112.88135593220339,16.12598857142857C113.89830508474576,15.984139047619047,114.91525423728814,15.831085714285713,115.9322033898305,15.679759999999998C116.94915254237289,15.528434285714283,117.96610169491525,15.385053333333332,118.98305084745763,15.218034285714284C120,15.051015238095237,121.01694915254237,14.864217142857141,122.03389830508473,14.677645714285713C123.05084745762711,14.491074285714284,124.0677966101695,14.304089523809523,125.08474576271188,14.098605714285712C126.10169491525424,13.893121904761903,127.11864406779662,13.672270476190475,128.135593220339,13.444742857142856C129.15254237288136,13.217215238095237,130.16949152542372,12.977455238095235,131.1864406779661,12.733439999999998C132.20338983050846,12.48942476190476,133.22033898305085,12.240350476190475,134.23728813559322,11.980651428571427C135.25423728813558,11.72095238095238,136.27118644067798,11.457630476190477,137.28813559322035,11.175245714285715C138.3050847457627,10.892860952380953,139.3220338983051,10.587316190476194,140.33898305084747,10.28634285714286C141.35593220338984,9.985369523809528,142.3728813559322,9.676430476190477,143.38983050847457,9.369405714285715C144.40677966101694,9.062380952380952,145.42372881355934,8.754091428571428,146.4406779661017,8.444194285714284C147.45762711864407,8.134297142857141,148.47457627118644,7.832598095238094,149.4915254237288,7.510022857142857C150.50847457627117,7.187447619047618,151.52542372881356,6.840165714285712,152.54237288135593,6.508742857142855C153.5593220338983,6.177319999999998,154.5762711864407,5.837038095238096,155.59322033898306,5.521485714285714C156.61016949152543,5.205933333333335,157.6271186440678,4.89975619047619,158.64406779661016,4.6154285714285725C159.66101694915253,4.331100952380952,160.67796610169492,4.061704761904763,161.6949152542373,3.815520000000001C162.71186440677965,3.5693352380952392,163.72881355932205,3.353236190476193,164.74576271186442,3.138320000000001C165.76271186440678,2.923403809523811,166.77966101694915,2.714491428571426,167.79661016949152,2.5260228571428556C168.81355932203388,2.3375542857142833,169.83050847457628,2.15693523809524,170.84745762711864,2.0075085714285734C171.864406779661,1.8580819047619073,172.8813559322034,1.7386590476190489,173.89830508474577,1.6294628571428582C174.91525423728814,1.5202666666666675,175.93220338983053,1.4380914285714297,176.9491525423729,1.3523314285714294C177.96610169491527,1.26657142857143,178.98305084745763,1.1907371428571443,180,1.1149028571428587"></path><path class="axis-ceiling" stroke-width="1" stroke="black" fill="none" d="M175,0L180,0"></path><text class="axis-ceiling-label" font-family="sans-serif" text-anchor="end" font-size="10px" x="170" y="2.5">3500000</text></g></svg>