<svg xmlns="http://www.w3.org/2000/svg" viewBox="0 0 180 60"><g transform="translate(0,20)"><path class="area" fill="rgba(0, 0, 0, 0.2)" d="M0,13.622C1.0169491525423728,13.120333333333335,2.0338983050847457,12.618666666666668,3.0508474576271185,12.282000000000002C4.067796610169491,11.945333333333336,5.084745762711864,11.602,6.101694915254237,11.602C7.11864406779661,11.602,8.135593220338983,11.968,9.152542372881356,11.968C10.169491525423728,11.968,11.186440677966102,11.853666666666667,12.203389830508474,11.776C13.220338983050846,11.698333333333332,14.23728813559322,11.501999999999999,15.254237288135592,11.501999999999999C16.271186440677965,11.501999999999999,17.28813559322034,12.288666666666662,18.305084745762713,12.317999999999998C19.322033898305087,12.347333333333333,20.338983050847457,12.332666666666666,21.35593220338983,12.362000000000002C22.372881355932204,12.391333333333337,23.389830508474574,13.132000000000001,24.406779661016948,13.368000000000002C25.423728813559322,13.604000000000003,26.440677966101696,13.651666666666669,27.45762711864407,13.778000000000002C28.47457627118644,13.904333333333335,29.491525423728813,14.125999999999998,30.508474576271183,14.125999999999998C31.525423728813557,14.125999999999998,32.54237288135593,13.967999999999998,33.559322033898304,13.967999999999998C34.57627118644068,13.967999999999998,35.59322033898305,14.982666666666667,36.610169491525426,15.280000000000001C37.6271186440678,15.577333333333334,38.644067796610166,15.480000000000004,39.66101694915254,15.752000000000002C40.67796610169491,16.024,41.69491525423729,16.624666666666666,42.71186440677966,16.912C43.728813559322035,17.199333333333332,44.7457627118644,17.297,45.762711864406775,17.476C46.77966101694915,17.655,47.79661016949152,17.966,48.813559322033896,17.986C49.83050847457627,18.006,50.847457627118644,17.996000000000002,51.86440677966102,18.016000000000002C52.88135593220339,18.036,53.898305084745765,19.44733333333334,54.91525423728814,19.578000000000003C55.93220338983051,19.708666666666666,56.94915254237288,19.667666666666666,57.96610169491525,19.773999999999997C58.983050847457626,19.88033333333333,59.99999999999999,20.216,61.01694915254237,20.216C62.03389830508474,20.216,63.05084745762712,19.775999999999996,64.0677966101695,19.775999999999996C65.08474576271186,19.775999999999996,66.10169491525424,19.881333333333334,67.11864406779661,20.03C68.13559322033899,20.17866666666667,69.15254237288136,20.456333333333333,70.16949152542374,20.668C71.1864406779661,20.879666666666665,72.20338983050848,21.064666666666664,73.22033898305085,21.299999999999997C74.23728813559322,21.53533333333333,75.2542372881356,21.799333333333333,76.27118644067797,22.080000000000002C77.28813559322033,22.36066666666667,78.30508474576271,22.78066666666667,79.32203389830508,22.984C80.33898305084746,23.187333333333335,81.35593220338983,23.184333333333335,82.37288135593221,23.3C83.38983050847457,23.415666666666667,84.40677966101696,23.64866666666666,85.42372881355932,23.677999999999997C86.4406779661017,23.707333333333334,87.45762711864407,23.722,88.47457627118645,23.722C89.49152542372882,23.722,90.50847457627118,23.56,91.52542372881355,23.56C92.54237288135593,23.56,93.55932203389831,23.601999999999997,94.57627118644069,23.601999999999997C95.59322033898306,23.601999999999997,96.61016949152543,23.31,97.62711864406779,23.066C98.64406779661016,22.822,99.66101694915254,22.366999999999997,100.6779661016949,22.137999999999998C101.69491525423729,21.909,102.71186440677965,21.721333333333334,103.72881355932203,21.692C104.7457627118644,21.662666666666667,105.76271186440678,21.648,106.77966101694915,21.648C107.79661016949153,21.648,108.8135593220339,21.650666666666666,109.83050847457628,21.656C110.84745762711864,21.66133333333333,111.86440677966102,22.132,112.88135593220339,22.132C113.89830508474576,22.132,114.91525423728814,21.564,115.9322033898305,21.564C116.94915254237289,21.564,117.96610169491525,21.704999999999995,118.98305084745763,21.757999999999996C120,21.810999999999996,121.01694915254237,21.852333333333334,122.03389830508473,21.882C123.05084745762711,21.91166666666667,124.0677966101695,21.936,125.08474576271188,21.936C126.10169491525424,21.936,127.11864406779662,21.268,128.135593220339,21.268C129.15254237288136,21.268,130.16949152542372,21.782,131.1864406779661,21.782C132.20338983050846,21.782,133.22033898305085,20.759333333333334,134.23728813559322,20.196C135.25423728813558,19.63266666666667,136.27118644067798,19.038999999999998,137.28813559322035,18.401999999999997C138.3050847457627,17.764999999999997,139.3220338983051,16.865666666666666,140.33898305084747,16.374C141.35593220338984,15.882333333333337,142.3728813559322,15.770999999999995,143.38983050847457,15.451999999999998C144.40677966101694,15.132999999999997,145.42372881355934,14.840000000000003,146.4406779661017,14.46C147.45762711864407,14.080000000000002,148.47457627118644,13.70333333333333,149.4915254237288,13.172C150.50847457627117,12.640666666666666,151.52542372881356,11.272000000000002,152.54237288135593,11.272000000000002C153.5593220338983,11.272000000000002,154.5762711864407,11.386,155.59322033898306,11.386C156.61016949152543,11.386,157.6271186440678,11.312999999999999,158.64406779661016,11.17C159.66101694915253,11.027,160.67796610169492,10.779666666666666,161.6949152542373,10.527999999999999C162.71186440677965,10.276333333333332,163.72881355932205,9.99266666666667,164.74576271186442,9.660000000000002C165.76271186440678,9.327333333333337,166.77966101694915,8.900666666666666,167.79661016949152,8.532000000000002C168.81355932203388,8.163333333333334,169.83050847457628,7.448000000000001,170.84745762711864,7.448000000000001C171.864406779661,7.448000000000001,172.8813559322034,7.756333333333333,173.89830508474577,7.904C174.91525423728814,8.051666666666666,175.93220338983053,8.047333333333334,176.9491525423729,8.334000000000001C177.96610169491527,8.620666666666667,178.98305084745763,9.279333333333332,180,9.937999999999999L180,40C178.98305084745763,40,177.96610169491527,40,176.9491525423729,40C175.93220338983053,40,174.91525423728814,40,173.89830508474577,40C172.8813559322034,40,171.864406779661,40,170.84745762711864,40C169.83050847457628,40,168.81355932203388,40,167.79661016949152,40C166.77966101694915,40,165.76271186440678,40,164.74576271186442,40C163.72881355932205,40,162.71186440677965,40,161.6949152542373,40C160.67796610169492,40,159.66101694915253,40,158.64406779661016,40C157.6271186440678,40,156.61016949152543,40,155.59322033898306,40C154.5762711864407,40,153.5593220338983,40,152.54237288135593,40C151.52542372881356,40,150.50847457627117,40,149.4915254237288,40C148.47457627118644,40,147.45762711864407,40,146.4406779661017,40C145.42372881355934,40,144.40677966101694,40,143.38983050847457,40C142.3728813559322,40,141.35593220338984,40,140.33898305084747,40C139.3220338983051,40,138.3050847457627,40,137.28813559322035,40C136.27118644067798,40,135.25423728813558,40,134.23728813559322,40C133.22033898305085,40,132.20338983050846,40,131.1864406779661,40C130.16949152542372,40,129.15254237288136,40,128.135593220339,40C127.11864406779662,40,126.10169491525424,40,125.08474576271188,40C124.0677966101695,40,123.05084745762711,40,122.03389830508473,40C121.01694915254237,40,120,40,118.98305084745763,40C117.96610169491525,40,116.94915254237289,40,115.9322033898305,40C114.91525423728814,40,113.89830508474576,40,112.88135593220339,40C111.86440677966102,40,110.84745762711864,40,109.83050847457628,40C108.8135593220339,40,107.79661016949153,40,106.77966101694915,40C105.76271186440678,40,104.7457627118644,40,103.72881355932203,40C102.71186440677965,40,101.69491525423729,40,100.6779661016949,40C99.66101694915254,40,98.64406779661016,40,97.62711864406779,40C96.61016949152543,40,95.59322033898306,40,94.57627118644069,40C93.55932203389831,40,92.54237288135593,40,91.52542372881355,40C90.50847457627118,40,89.49152542372882,40,88.47457627118645,40C87.45762711864407,40,86.4406779661017,40,85.42372881355932,40C84.40677966101696,40,83.38983050847457,40,82.37288135593221,40C81.35593220338983,40,80.33898305084746,40,79.32203389830508,40C78.30508474576271,40,77.28813559322033,40,76.27118644067797,40C75.2542372881356,40,74.23728813559322,40,73.22033898305085,40C72.20338983050848,40,71.1864406779661,40,70.16949152542374,40C69.15254237288136,40,68.13559322033899,40,67.11864406779661,40C66.10169491525424,40,65.08474576271186,40,64.0677966101695,40C63.05084745762712,40,62.03389830508474,40,61.01694915254237,40C59.99999999999999,40,58.983050847457626,40,57.96610169491525,40C56.94915254237288,40,55.93220338983051,40,54.91525423728814,40C53.898305084745765,40,52.88135593220339,40,51.86440677966102,40C50.847457627118644,40,49.83050847457627,40,48.813559322033896,40C47.79661016949152,40,46.77966101694915,40,45.762711864406775,40C44.7457627118644,40,43.728813559322035,40,42.71186440677966,40C41.69491525423729,40,40.67796610169491,40,39.66101694915254,40C38.644067796610166,40,37.6271186440678,40,36.610169491525426,40C35.59322033898305,40,34.57627118644068,40,33.559322033898304,40C32.54237288135593,40,31.525423728813557,40,30.508474576271183,40C29.491525423728813,40,28.47457627118644,40,27.45762711864407,40C26.440677966101696,40,25.423728813559322,40,24.406779661016948,40C23.389830508474574,40,22.372881355932204,40,21.35593220338983,40C20.338983050847457,40,19.322033898305087,40,18.305084745762713,40C17.28813559322034,40,16.271186440677965,40,15.254237288135592,40C14.23728813559322,40,13.220338983050846,40,12.203389830508474,40C11.186440677966102,40,10.169491525423728,40,9.152542372881356,40C8.135593220338983,40,7.11864406779661,40,6.101694915254237,40C5.084745762711864,40,4.067796610169491,40,3.0508474576271185,40C2.0338983050847457,40,1.0169491525423728,40,0,40Z"></path><path class="line" stroke="black" fill="none" d="M0,13.622C1.0169491525423728,13.120333333333335,2.0338983050847457,12.618666666666668,3.0508474576271185,12.282000000000002C4.067796610169491,11.945333333333336,5.084745762711864,11.602,6.101694915254237,11.602C7.11864406779661,11.602,8.135593220338983,11.968,9.152542372881356,11.968C10.169491525423728,11.968,11.186440677966102,11.853666666666667,12.203389830508474,11.776C13.220338983050846,11.698333333333332,14.23728813559322,11.501999999999999,15.254237288135592,11.501999999999999C16.271186440677965,11.501999999999999,17.28813559322034,12.288666666666662,18.305084745762713,12.317999999999998C19.322033898305087,12.347333333333333,20.338983050847457,12.332666666666666,21.35593220338983,12.362000000000002C22.372881355932204,12.391333333333337,23.389830508474574,13.132000000000001,24.406779661016948,13.368000000000002C25.423728813559322,13.604000000000003,26.440677966101696,13.651666666666669,27.45762711864407,13.778000000000002C28.47457627118644,13.904333333333335,29.491525423728813,14.125999999999998,30.508474576271183,14.125999999999998C31.525423728813557,14.125999999999998,32.54237288135593,13.967999999999998,33.559322033898304,13.967999999999998C34.57627118644068,13.967999999999998,35.59322033898305,14.982666666666667,36.610169491525426,15.280000000000001C37.6271186440678,15.577333333333334,38.644067796610166,15.480000000000004,39.66101694915254,15.752000000000002C40.67796610169491,16.024,41.69491525423729,16.624666666666666,42.71186440677966,16.912C43.728813559322035,17.199333333333332,44.7457627118644,17.297,45.762711864406775,17.476C46.77966101694915,17.655,47.79661016949152,17.966,48.813559322033896,17.986C49.83050847457627,18.006,50.847457627118644,17.996000000000002,51.86440677966102,18.016000000000002C52.88135593220339,18.036,53.898305084745765,19.44733333333334,54.91525423728814,19.578000000000003C55.93220338983051,19.708666666666666,56.94915254237288,19.667666666666666,57.96610169491525,19.773999999999997C58.983050847457626,19.88033333333333,59.99999999999999,20.216,61.01694915254237,20.216C62.03389830508474,20.216,63.05084745762712,19.775999999999996,64.0677966101695,19.775999999999996C65.08474576271186,19.775999999999996,66.10169491525424,19.881333333333334,67.11864406779661,20.03C68.13559322033899,20.17866666666667,69.15254237288136,20.456333333333333,70.16949152542374,20.668C71.1864406779661,20.879666666666665,72.20338983050848,21.064666666666664,73.22033898305085,21.299999999999997C74.23728813559322,21.53533333333333,75.2542372881356,21.799333333333333,76.27118644067797,22.080000000000002C77.28813559322033,22.36066666666667,78.30508474576271,22.78066666666667,79.32203389830508,22.984C80.33898305084746,23.187333333333335,81.35593220338983,23.184333333333335,82.37288135593221,23.3C83.38983050847457,23.415666666666667,84.40677966101696,23.64866666666666,85.42372881355932,23.677999999999997C86.4406779661017,23.707333333333334,87.45762711864407,23.722,88.47457627118645,23.722C89.49152542372882,23.722,90.50847457627118,23.56,91.52542372881355,23.56C92.54237288135593,23.56,93.55932203389831,23.601999999999997,94.57627118644069,23.601999999999997C95.59322033898306,23.601999999999997,96.61016949152543,23.31,97.62711864406779,23.066C98.64406779661016,22.822,99.66101694915254,22.366999999999997,100.6779661016949,22.137999999999998C101.69491525423729,21.909,102.71186440677965,21.721333333333334,103.72881355932203,21.692C104.7457627118644,21.662666666666667,105.76271186440678,21.648,106.77966101694915,21.648C107.79661016949153,21.648,108.8135593220339,21.650666666666666,109.83050847457628,21.656C110.84745762711864,21.66133333333333,111.86440677966102,22.132,112.88135593220339,22.132C113.89830508474576,22.132,114.91525423728814,21.564,115.9322033898305,21.564C116.94915254237289,21.564,117.96610169491525,21.704999999999995,118.98305084745763,21.757999999999996C120,21.810999999999996,121.01694915254237,21.852333333333334,122.03389830508473,21.882C123.05084745762711,21.91166666666667,124.0677966101695,21.936,125.08474576271188,21.936C126.10169491525424,21.936,127.11864406779662,21.268,128.135593220339,21.268C129.15254237288136,21.268,130.16949152542372,21.782,131.1864406779661,21.782C132.20338983050846,21.782,133.22033898305085,20.759333333333334,134.23728813559322,20.196C135.25423728813558,19.63266666666667,136.27118644067798,19.038999999999998,137.28813559322035,18.401999999999997C138.3050847457627,17.764999999999997,139.3220338983051,16.865666666666666,140.33898305084747,16.374C141.35593220338984,15.882333333333337,142.3728813559322,15.770999999999995,143.38983050847457,15.451999999999998C144.40677966101694,15.132999999999997,145.42372881355934,14.840000000000003,146.4406779661017,14.46C147.45762711864407,14.080000000000002,148.47457627118644,13.70333333333333,149.4915254237288,13.172C150.50847457627117,12.640666666666666,151.52542372881356,11.272000000000002,152.54237288135593,11.272000000000002C153.5593220338983,11.272000000000002,154.5762711864407,11.386,155.59322033898306,11.386C156.61016949152543,11.386,157.6271186440678,11.312999999999999,158.64406779661016,11.17C159.66101694915253,11.027,160.67796610169492,10.779666666666666,161.6949152542373,10.527999999999999C162.71186440677965,10.276333333333332,163.72881355932205,9.99266666666667,164.74576271186442,9.660000000000002C165.76271186440678,9.327333333333337,166.77966101694915,8.900666666666666,167.79661016949152,8.532000000000002C168.81355932203388,8.163333333333334,169.83050847457628,7.448000000000001,170.84745762711864,7.448000000000001C171.864406779661,7.448000000000001,172.8813559322034,7.756333333333333,173.89830508474577,7.904C174.91525423728814,8.051666666666666,175.93220338983053,8.047333333333334,176.9491525423729,8.334000000000001C177.96610169491527,8.620666666666667,178.98305084745763,9.279333333333332,180,9.937999999999999"></path><path class="axis-ceiling" stroke-width="1" stroke="black" fill="none" d="M175,0L180,0"></path><text class="axis-ceiling-label" font-family="sans-serif" text-anchor="end" font-size="10px" x="170" y="2.5">20000</text></g></svg>