<svg xmlns="http://www.w3.org/2000/svg" viewBox="0 0 180 60"><g transform="translate(0,20)"><path class="area" fill="rgba(0, 0, 0, 0.2)" d="M0,20.08C1.0169491525423728,21.795866666666665,2.0338983050847457,23.511733333333336,3.0508474576271185,24.499200000000002C4.067796610169491,25.486666666666668,5.084745762711864,25.553333333333338,6.101694915254237,26.004800000000003C7.11864406779661,26.45626666666667,8.135593220338983,26.837333333333337,9.152542372881356,27.208000000000002C10.169491525423728,27.578666666666667,11.186440677966102,27.812533333333334,12.203389830508474,28.2288C13.220338983050846,28.645066666666665,14.23728813559322,29.49706666666666,15.254237288135592,29.705599999999997C16.271186440677965,29.914133333333332,17.28813559322034,30.0184,18.305084745762713,30.0184C19.322033898305087,30.0184,20.338983050847457,29.564799999999998,21.35593220338983,29.564799999999998C22.372881355932204,29.564799999999998,23.389830508474574,30.6096,24.406779661016948,30.6096C25.423728813559322,30.6096,26.440677966101696,30.4496,27.45762711864407,30.4496C28.47457627118644,30.4496,29.491525423728813,30.681599999999996,30.508474576271183,30.681599999999996C31.525423728813557,30.681599999999996,32.54237288135593,29.718799999999998,33.559322033898304,29.18C34.57627118644068,28.6412,35.59322033898305,27.947466666666667,36.610169491525426,27.448800000000002C37.6271186440678,26.950133333333337,38.644067796610166,26.431200000000004,39.66101694915254,26.188000000000002C40.67796610169491,25.9448,41.69491525423729,26.0664,42.71186440677966,25.8232C43.728813559322035,25.58,44.7457627118644,24.3784,45.762711864406775,23.6672C46.77966101694915,22.956,47.79661016949152,22.118266666666663,48.813559322033896,21.555999999999997C49.83050847457627,20.99373333333333,50.847457627118644,20.2936,51.86440677966102,20.2936C52.88135593220339,20.2936,53.898305084745765,21.429066666666664,54.91525423728814,22.008799999999997C55.93220338983051,22.58853333333333,56.94915254237288,23.772000000000002,57.96610169491525,23.772000000000002C58.983050847457626,23.772000000000002,59.99999999999999,23.5912,61.01694915254237,23.5912C62.03389830508474,23.5912,63.05084745762712,25.136000000000003,64.0677966101695,25.136000000000003C65.08474576271186,25.136000000000003,66.10169491525424,24.3072,67.11864406779661,24.3072C68.13559322033899,24.3072,69.15254237288136,24.756800000000002,70.16949152542374,24.756800000000002C71.1864406779661,24.756800000000002,72.20338983050848,24.1336,73.22033898305085,23.5496C74.23728813559322,22.965600000000002,75.2542372881356,22.124933333333335,76.27118644067797,21.2528C77.28813559322033,20.380666666666666,78.30508474576271,18.992133333333335,79.32203389830508,18.3168C80.33898305084746,17.641466666666663,81.35593220338983,17.909333333333336,82.37288135593221,17.200799999999997C83.38983050847457,16.492266666666662,84.40677966101696,14.065599999999998,85.42372881355932,14.065599999999998C86.4406779661017,14.065599999999998,87.45762711864407,14.205866666666669,88.47457627118645,14.211200000000002C89.49152542372882,14.216533333333334,90.50847457627118,14.2192,91.52542372881355,14.2192C92.54237288135593,14.2192,93.55932203389831,13.796,94.57627118644069,13.796C95.59322033898306,13.796,96.61016949152543,13.799999999999999,97.62711864406779,13.807999999999998C98.64406779661016,13.815999999999997,99.66101694915254,14.552933333333335,100.6779661016949,15.084C101.69491525423729,15.615066666666667,102.71186440677965,16.98213333333333,103.72881355932203,16.9944C104.7457627118644,17.006666666666668,105.76271186440678,17.000533333333333,106.77966101694915,17.012800000000002C107.79661016949153,17.02506666666667,108.8135593220339,17.5456,109.83050847457628,17.7224C110.84745762711864,17.8992,111.86440677966102,17.882133333333332,112.88135593220339,18.0736C113.89830508474576,18.265066666666666,114.91525423728814,18.75493333333333,115.9322033898305,18.871199999999998C116.94915254237289,18.987466666666666,117.96610169491525,18.950133333333333,118.98305084745763,19.0456C120,19.141066666666667,121.01694915254237,19.343066666666665,122.03389830508473,19.444C123.05084745762711,19.544933333333333,124.0677966101695,19.5252,125.08474576271188,19.651200000000003C126.10169491525424,19.777200000000004,127.11864406779662,20.2,128.135593220339,20.2C129.15254237288136,20.2,130.16949152542372,20.084,131.1864406779661,20.084C132.20338983050846,20.084,133.22033898305085,20.100800000000003,134.23728813559322,20.100800000000003C135.25423728813558,20.100800000000003,136.27118644067798,20.032400000000003,137.28813559322035,19.996000000000002C138.3050847457627,19.959600000000002,139.3220338983051,19.882399999999997,140.33898305084747,19.882399999999997C141.35593220338984,19.882399999999997,142.3728813559322,20.0136,143.38983050847457,20.0136C144.40677966101694,20.0136,145.42372881355934,19.802666666666664,146.4406779661017,19.7872C147.45762711864407,19.771733333333334,148.47457627118644,19.779466666666664,149.4915254237288,19.764C150.50847457627117,19.748533333333334,151.52542372881356,19.2284,152.54237288135593,18.916800000000002C153.5593220338983,18.605200000000004,154.5762711864407,18.03733333333333,155.59322033898306,17.894399999999997C156.61016949152543,17.751466666666666,157.6271186440678,17.82293333333333,158.64406779661016,17.68C159.66101694915253,17.537066666666668,160.67796610169492,16.817066666666665,161.6949152542373,16.528C162.71186440677965,16.238933333333332,163.72881355932205,16.2176,164.74576271186442,15.945599999999999C165.76271186440678,15.673599999999999,166.77966101694915,15.595733333333332,167.79661016949152,14.895999999999997C168.81355932203388,14.196266666666656,169.83050847457628,12.682,170.84745762711864,11.66C171.864406779661,10.638,172.8813559322034,9.427333333333333,173.89830508474577,8.764C174.91525423728814,8.100666666666665,175.93220338983053,8.402666666666665,176.9491525423729,7.679999999999998C177.96610169491527,6.957333333333337,178.98305084745763,4.565066666666668,180,2.1728000000000014L180,40C178.98305084745763,40,177.96610169491527,40,176.9491525423729,40C175.93220338983053,40,174.91525423728814,40,173.89830508474577,40C172.8813559322034,40,171.864406779661,40,170.84745762711864,40C169.83050847457628,40,168.81355932203388,40,167.79661016949152,40C166.77966101694915,40,165.76271186440678,40,164.74576271186442,40C163.72881355932205,40,162.71186440677965,40,161.6949152542373,40C160.67796610169492,40,159.66101694915253,40,158.64406779661016,40C157.6271186440678,40,156.61016949152543,40,155.59322033898306,40C154.5762711864407,40,153.5593220338983,40,152.54237288135593,40C151.52542372881356,40,150.50847457627117,40,149.4915254237288,40C148.47457627118644,40,147.45762711864407,40,146.4406779661017,40C145.42372881355934,40,144.40677966101694,40,143.38983050847457,40C142.3728813559322,40,141.35593220338984,40,140.33898305084747,40C139.3220338983051,40,138.3050847457627,40,137.28813559322035,40C136.27118644067798,40,135.25423728813558,40,134.23728813559322,40C133.22033898305085,40,132.20338983050846,40,131.1864406779661,40C130.16949152542372,40,129.15254237288136,40,128.135593220339,40C127.11864406779662,40,126.10169491525424,40,125.08474576271188,40C124.0677966101695,40,123.05084745762711,40,122.03389830508473,40C121.01694915254237,40,120,40,118.98305084745763,40C117.96610169491525,40,116.94915254237289,40,115.9322033898305,40C114.91525423728814,40,113.89830508474576,40,112.88135593220339,40C111.86440677966102,40,110.84745762711864,40,109.83050847457628,40C108.8135593220339,40,107.79661016949153,40,106.77966101694915,40C105.76271186440678,40,104.7457627118644,40,103.72881355932203,40C102.71186440677965,40,101.69491525423729,40,100.6779661016949,40C99.66101694915254,40,98.64406779661016,40,97.62711864406779,40C96.61016949152543,40,95.59322033898306,40,94.57627118644069,40C93.55932203389831,40,92.54237288135593,40,91.52542372881355,40C90.50847457627118,40,89.49152542372882,40,88.47457627118645,40C87.45762711864407,40,86.4406779661017,40,85.42372881355932,40C84.40677966101696,40,83.38983050847457,40,82.37288135593221,40C81.35593220338983,40,80.33898305084746,40,79.32203389830508,40C78.30508474576271,40,77.28813559322033,40,76.27118644067797,40C75.2542372881356,40,74.23728813559322,40,73.22033898305085,40C72.20338983050848,40,71.1864406779661,40,70.16949152542374,40C69.15254237288136,40,68.13559322033899,40,67.11864406779661,40C66.10169491525424,40,65.08474576271186,40,64.0677966101695,40C63.05084745762712,40,62.03389830508474,40,61.01694915254237,40C59.99999999999999,40,58.983050847457626,40,57.96610169491525,40C56.94915254237288,40,55.93220338983051,40,54.91525423728814,40C53.898305084745765,40,52.88135593220339,40,51.86440677966102,40C50.847457627118644,40,49.83050847457627,40,48.813559322033896,40C47.79661016949152,40,46.77966101694915,40,45.762711864406775,40C44.7457627118644,40,43.728813559322035,40,42.71186440677966,40C41.69491525423729,40,40.67796610169491,40,39.66101694915254,40C38.644067796610166,40,37.6271186440678,40,36.610169491525426,40C35.59322033898305,40,34.57627118644068,40,33.559322033898304,40C32.54237288135593,40,31.525423728813557,40,30.508474576271183,40C29.491525423728813,40,28.47457627118644,40,27.45762711864407,40C26.440677966101696,40,25.423728813559322,40,24.406779661016948,40C23.389830508474574,40,22.372881355932204,40,21.35593220338983,40C20.338983050847457,40,19.322033898305087,40,18.305084745762713,40C17.28813559322034,40,16.271186440677965,40,15.254237288135592,40C14.23728813559322,40,13.220338983050846,40,12.203389830508474,40C11.186440677966102,40,10.169491525423728,40,9.152542372881356,40C8.135593220338983,40,7.11864406779661,40,6.101694915254237,40C5.084745762711864,40,4.067796610169491,40,3.0508474576271185,40C2.0338983050847457,40,1.0169491525423728,40,0,40Z"></path><path class="line" stroke="black" fill="none" d="M0,20.08C1.0169491525423728,21.795866666666665,2.0338983050847457,23.511733333333336,3.0508474576271185,24.499200000000002C4.067796610169491,25.486666666666668,5.084745762711864,25.553333333333338,6.101694915254237,26.004800000000003C7.11864406779661,26.45626666666667,8.135593220338983,26.837333333333337,9.152542372881356,27.208000000000002C10.169491525423728,27.578666666666667,11.186440677966102,27.812533333333334,12.203389830508474,28.2288C13.220338983050846,28.645066666666665,14.23728813559322,29.49706666666666,15.254237288135592,29.705599999999997C16.271186440677965,29.914133333333332,17.28813559322034,30.0184,18.305084745762713,30.0184C19.322033898305087,30.0184,20.338983050847457,29.564799999999998,21.35593220338983,29.564799999999998C22.372881355932204,29.564799999999998,23.389830508474574,30.6096,24.406779661016948,30.6096C25.423728813559322,30.6096,26.440677966101696,30.4496,27.45762711864407,30.4496C28.47457627118644,30.4496,29.491525423728813,30.681599999999996,30.508474576271183,30.681599999999996C31.525423728813557,30.681599999999996,32.54237288135593,29.718799999999998,33.559322033898304,29.18C34.57627118644068,28.6412,35.59322033898305,27.947466666666667,36.610169491525426,27.448800000000002C37.6271186440678,26.950133333333337,38.644067796610166,26.431200000000004,39.66101694915254,26.188000000000002C40.67796610169491,25.9448,41.69491525423729,26.0664,42.71186440677966,25.8232C43.728813559322035,25.58,44.7457627118644,24.3784,45.762711864406775,23.6672C46.77966101694915,22.956,47.79661016949152,22.118266666666663,48.813559322033896,21.555999999999997C49.83050847457627,20.99373333333333,50.847457627118644,20.2936,51.86440677966102,20.2936C52.88135593220339,20.2936,53.898305084745765,21.429066666666664,54.91525423728814,22.008799999999997C55.93220338983051,22.58853333333333,56.94915254237288,23.772000000000002,57.96610169491525,23.772000000000002C58.983050847457626,23.772000000000002,59.99999999999999,23.5912,61.01694915254237,23.5912C62.03389830508474,23.5912,63.05084745762712,25.136000000000003,64.0677966101695,25.136000000000003C65.08474576271186,25.136000000000003,66.10169491525424,24.3072,67.11864406779661,24.3072C68.13559322033899,24.3072,69.15254237288136,24.756800000000002,70.16949152542374,24.756800000000002C71.1864406779661,24.756800000000002,72.20338983050848,24.1336,73.22033898305085,23.5496C74.23728813559322,22.965600000000002,75.2542372881356,22.124933333333335,76.27118644067797,21.2528C77.28813559322033,20.380666666666666,78.30508474576271,18.992133333333335,79.32203389830508,18.3168C80.33898305084746,17.641466666666663,81.35593220338983,17.909333333333336,82.37288135593221,17.200799999999997C83.38983050847457,16.492266666666662,84.40677966101696,14.065599999999998,85.42372881355932,14.065599999999998C86.4406779661017,14.065599999999998,87.45762711864407,14.205866666666669,88.47457627118645,14.211200000000002C89.49152542372882,14.216533333333334,90.50847457627118,14.2192,91.52542372881355,14.2192C92.54237288135593,14.2192,93.55932203389831,13.796,94.57627118644069,13.796C95.59322033898306,13.796,96.61016949152543,13.799999999999999,97.62711864406779,13.807999999999998C98.64406779661016,13.815999999999997,99.66101694915254,14.552933333333335,100.6779661016949,15.084C101.69491525423729,15.615066666666667,102.71186440677965,16.98213333333333,103.72881355932203,16.9944C104.7457627118644,17.006666666666668,105.76271186440678,17.000533333333333,106.77966101694915,17.012800000000002C107.79661016949153,17.02506666666667,108.8135593220339,17.5456,109.83050847457628,17.7224C110.84745762711864,17.8992,111.86440677966102,17.882133333333332,112.88135593220339,18.0736C113.89830508474576,18.265066666666666,114.91525423728814,18.75493333333333,115.9322033898305,18.871199999999998C116.94915254237289,18.987466666666666,117.96610169491525,18.950133333333333,118.98305084745763,19.0456C120,19.141066666666667,121.01694915254237,19.343066666666665,122.03389830508473,19.444C123.05084745762711,19.544933333333333,124.0677966101695,19.5252,125.08474576271188,19.651200000000003C126.10169491525424,19.777200000000004,127.11864406779662,20.2,128.135593220339,20.2C129.15254237288136,20.2,130.16949152542372,20.084,131.1864406779661,20.084C132.20338983050846,20.084,133.22033898305085,20.100800000000003,134.23728813559322,20.100800000000003C135.25423728813558,20.100800000000003,136.27118644067798,20.032400000000003,137.28813559322035,19.996000000000002C138.3050847457627,19.959600000000002,139.3220338983051,19.882399999999997,140.33898305084747,19.882399999999997C141.35593220338984,19.882399999999997,142.3728813559322,20.0136,143.38983050847457,20.0136C144.40677966101694,20.0136,145.42372881355934,19.802666666666664,146.4406779661017,19.7872C147.45762711864407,19.771733333333334,148.47457627118644,19.779466666666664,149.4915254237288,19.764C150.50847457627117,19.748533333333334,151.52542372881356,19.2284,152.54237288135593,18.916800000000002C153.5593220338983,18.605200000000004,154.5762711864407,18.03733333333333,155.59322033898306,17.894399999999997C156.61016949152543,17.751466666666666,157.6271186440678,17.82293333333333,158.64406779661016,17.68C159.66101694915253,17.537066666666668,160.67796610169492,16.817066666666665,161.6949152542373,16.528C162.71186440677965,16.238933333333332,163.72881355932205,16.2176,164.74576271186442,15.945599999999999C165.76271186440678,15.673599999999999,166.77966101694915,15.595733333333332,167.79661016949152,14.895999999999997C168.81355932203388,14.196266666666656,169.83050847457628,12.682,170.84745762711864,11.66C171.864406779661,10.638,172.8813559322034,9.427333333333333,173.89830508474577,8.764C174.91525423728814,8.100666666666665,175.93220338983053,8.402666666666665,176.9491525423729,7.679999999999998C177.96610169491527,6.957333333333337,178.98305084745763,4.565066666666668,180,2.1728000000000014"></path><path class="axis-ceiling" stroke-width="1" stroke="black" fill="none" d="M175,0L180,0"></path><text class="axis-ceiling-label" font-family="sans-serif" text-anchor="end" font-size="10px" x="170" y="2.5">50000</text></g></svg>