<svg xmlns="http://www.w3.org/2000/svg" viewBox="0 0 180 60"><g transform="translate(0,20)"><path class="area" fill="rgba(0, 0, 0, 0.2)" d="M0,30.133333333333333C1.4457831325301207,28.4271186440678,2.8915662650602414,26.720903954802264,4.337349397590362,26.66666666666667C61.20481927710843,24.533333333333335,118.07228915662651,25.600000000000005,174.93975903614458,23.46666666666667C175.18072289156626,23.45762711864407,175.42168674698797,21.15555555555558,175.66265060240966,20C175.90361445783134,18.844444444444466,176.14457831325302,17.644444444444442,176.3855421686747,16.53333333333333C176.6265060240964,15.42222222222222,176.86746987951807,13.911111111111103,177.10843373493975,13.333333333333336C178.0722891566265,11.022222222222222,179.03614457831324,10.444444444444445,180,9.866666666666667L180,40C179.03614457831324,40,178.0722891566265,40,177.10843373493975,40C176.86746987951807,40,176.6265060240964,40,176.3855421686747,40C176.14457831325302,40,175.90361445783134,40,175.66265060240966,40C175.42168674698797,40,175.18072289156626,40,174.93975903614458,40C118.07228915662651,40,61.20481927710843,40,4.337349397590362,40C2.8915662650602414,40,1.4457831325301207,40,0,40Z"></path><path class="line" stroke="black" fill="none" d="M0,30.133333333333333C1.4457831325301207,28.4271186440678,2.8915662650602414,26.720903954802264,4.337349397590362,26.66666666666667C61.20481927710843,24.533333333333335,118.07228915662651,25.600000000000005,174.93975903614458,23.46666666666667C175.18072289156626,23.45762711864407,175.42168674698797,21.15555555555558,175.66265060240966,20C175.90361445783134,18.844444444444466,176.14457831325302,17.644444444444442,176.3855421686747,16.53333333333333C176.6265060240964,15.42222222222222,176.86746987951807,13.911111111111103,177.10843373493975,13.333333333333336C178.0722891566265,11.022222222222222,179.03614457831324,10.444444444444445,180,9.866666666666667"></path><path class="axis-ceiling" stroke-width="1" stroke="black" fill="none" d="M175,0L180,0"></path><text class="axis-ceiling-label" font-family="sans-serif" text-anchor="end" font-size="10px" x="170" y="2.5">150</text></g></svg>