<svg xmlns="http://www.w3.org/2000/svg" viewBox="0 0 180 60"><g transform="translate(0,20)"><path class="area" fill="rgba(0, 0, 0, 0.2)" d="M0,0.03733333333333366C1.0169491525423728,0.36377777777777875,2.0338983050847457,0.6902222222222238,3.0508474576271185,1.3573333333333348C4.067796610169491,2.0244444444444456,5.084745762711864,4.039999999999999,6.101694915254237,4.039999999999999C7.11864406779661,4.039999999999999,8.135593220338983,3.714666666666666,9.152542372881356,3.714666666666666C10.169491525423728,3.714666666666666,11.186440677966102,3.9422222222222203,12.203389830508474,4.127999999999998C13.220338983050846,4.313777777777776,14.23728813559322,4.829333333333334,15.254237288135592,4.829333333333334C16.271186440677965,4.829333333333334,17.28813559322034,3.491555555555554,18.305084745762713,3.0426666666666646C19.322033898305087,2.5937777777777757,20.338983050847457,2.136,21.35593220338983,2.136C22.372881355932204,2.136,23.389830508474574,2.6239999999999997,24.406779661016948,2.6239999999999997C25.423728813559322,2.6239999999999997,26.440677966101696,2.4715555555555566,27.45762711864407,2.368000000000001C28.47457627118644,2.2644444444444463,29.491525423728813,2.002666666666668,30.508474576271183,2.002666666666668C31.525423728813557,2.002666666666668,32.54237288135593,3.0515555555555585,33.559322033898304,3.0906666666666682C34.57627118644068,3.129777777777778,35.59322033898305,3.110222222222223,36.610169491525426,3.149333333333333C37.6271186440678,3.1884444444444426,38.644067796610166,4.175999999999998,39.66101694915254,4.490666666666665C40.67796610169491,4.805333333333333,41.69491525423729,4.868888888888889,42.71186440677966,5.037333333333334C43.728813559322035,5.205777777777778,44.7457627118644,5.501333333333331,45.762711864406775,5.501333333333331C46.77966101694915,5.501333333333331,47.79661016949152,5.290666666666666,48.813559322033896,5.290666666666666C49.83050847457627,5.290666666666666,50.847457627118644,6.643555555555557,51.86440677966102,7.040000000000002C52.88135593220339,7.436444444444446,53.898305084745765,7.306666666666665,54.91525423728814,7.6693333333333324C55.93220338983051,8.031999999999998,56.94915254237288,8.83288888888889,57.96610169491525,9.216000000000001C58.983050847457626,9.599111111111112,59.99999999999999,9.729333333333335,61.01694915254237,9.968C62.03389830508474,10.206666666666667,63.05084745762712,10.621333333333334,64.0677966101695,10.648C65.08474576271186,10.674666666666665,66.10169491525424,10.661333333333333,67.11864406779661,10.687999999999999C68.13559322033899,10.714666666666664,69.15254237288136,12.596444444444444,70.16949152542374,12.770666666666667C71.1864406779661,12.944888888888888,72.20338983050848,12.890222222222222,73.22033898305085,13.032C74.23728813559322,13.173777777777778,75.2542372881356,13.621333333333334,76.27118644067797,13.621333333333334C77.28813559322033,13.621333333333334,78.30508474576271,13.034666666666666,79.32203389830508,13.034666666666666C80.33898305084746,13.034666666666666,81.35593220338983,13.175111111111113,82.37288135593221,13.373333333333335C83.38983050847457,13.571555555555557,84.40677966101696,13.941777777777778,85.42372881355932,14.224C86.4406779661017,14.506222222222224,87.45762711864407,14.752888888888888,88.47457627118645,15.066666666666668C89.49152542372882,15.380444444444445,90.50847457627118,15.732444444444447,91.52542372881355,16.106666666666666C92.54237288135593,16.480888888888888,93.55932203389831,17.040888888888887,94.57627118644069,17.311999999999998C95.59322033898306,17.583111111111105,96.61016949152543,17.57911111111111,97.62711864406779,17.733333333333334C98.64406779661016,17.887555555555558,99.66101694915254,18.19822222222222,100.6779661016949,18.237333333333332C101.69491525423729,18.276444444444444,102.71186440677965,18.296,103.72881355932203,18.296C104.7457627118644,18.296,105.76271186440678,18.08,106.77966101694915,18.08C107.79661016949153,18.08,108.8135593220339,18.136000000000003,109.83050847457628,18.136000000000003C110.84745762711864,18.136000000000003,111.86440677966102,17.746666666666666,112.88135593220339,17.421333333333333C113.89830508474576,17.096,114.91525423728814,16.48933333333333,115.9322033898305,16.183999999999997C116.94915254237289,15.878666666666664,117.96610169491525,15.628444444444451,118.98305084745763,15.589333333333336C120,15.550222222222223,121.01694915254237,15.530666666666665,122.03389830508473,15.530666666666665C123.05084745762711,15.530666666666665,124.0677966101695,15.53422222222222,125.08474576271188,15.54133333333333C126.10169491525424,15.54844444444444,127.11864406779662,16.176,128.135593220339,16.176C129.15254237288136,16.176,130.16949152542372,15.418666666666665,131.1864406779661,15.418666666666665C132.20338983050846,15.418666666666665,133.22033898305085,15.606666666666666,134.23728813559322,15.677333333333333C135.25423728813558,15.748000000000001,136.27118644067798,15.80311111111111,137.28813559322035,15.842666666666666C138.3050847457627,15.882222222222222,139.3220338983051,15.914666666666669,140.33898305084747,15.914666666666669C141.35593220338984,15.914666666666669,142.3728813559322,15.024000000000001,143.38983050847457,15.024000000000001C144.40677966101694,15.024000000000001,145.42372881355934,15.709333333333335,146.4406779661017,15.709333333333335C147.45762711864407,15.709333333333335,148.47457627118644,14.345777777777773,149.4915254237288,13.594666666666665C150.50847457627117,12.84355555555555,151.52542372881356,12.052,152.54237288135593,11.202666666666667C153.5593220338983,10.353333333333335,154.5762711864407,9.154222222222225,155.59322033898306,8.498666666666669C156.61016949152543,7.843111111111118,157.6271186440678,7.269333333333332,158.64406779661016,7.269333333333332C159.66101694915253,7.269333333333332,160.67796610169492,7.446666666666668,161.6949152542373,7.6480000000000015C162.71186440677965,7.849333333333335,163.72881355932205,8.44711111111111,164.74576271186442,8.477333333333332C165.76271186440678,8.507555555555555,166.77966101694915,8.492444444444443,167.79661016949152,8.522666666666666C168.81355932203388,8.552888888888889,169.83050847457628,9.435999999999998,170.84745762711864,10.050666666666665C171.864406779661,10.665333333333331,172.8813559322034,11.530666666666669,173.89830508474577,12.210666666666668C174.91525423728814,12.890666666666668,175.93220338983053,13.743111111111105,176.9491525423729,14.130666666666665C177.96610169491527,14.51822222222222,178.98305084745763,14.61511111111111,180,14.712L180,40C178.98305084745763,40,177.96610169491527,40,176.9491525423729,40C175.93220338983053,40,174.91525423728814,40,173.89830508474577,40C172.8813559322034,40,171.864406779661,40,170.84745762711864,40C169.83050847457628,40,168.81355932203388,40,167.79661016949152,40C166.77966101694915,40,165.76271186440678,40,164.74576271186442,40C163.72881355932205,40,162.71186440677965,40,161.6949152542373,40C160.67796610169492,40,159.66101694915253,40,158.64406779661016,40C157.6271186440678,40,156.61016949152543,40,155.59322033898306,40C154.5762711864407,40,153.5593220338983,40,152.54237288135593,40C151.52542372881356,40,150.50847457627117,40,149.4915254237288,40C148.47457627118644,40,147.45762711864407,40,146.4406779661017,40C145.42372881355934,40,144.40677966101694,40,143.38983050847457,40C142.3728813559322,40,141.35593220338984,40,140.33898305084747,40C139.3220338983051,40,138.3050847457627,40,137.28813559322035,40C136.27118644067798,40,135.25423728813558,40,134.23728813559322,40C133.22033898305085,40,132.20338983050846,40,131.1864406779661,40C130.16949152542372,40,129.15254237288136,40,128.135593220339,40C127.11864406779662,40,126.10169491525424,40,125.08474576271188,40C124.0677966101695,40,123.05084745762711,40,122.03389830508473,40C121.01694915254237,40,120,40,118.98305084745763,40C117.96610169491525,40,116.94915254237289,40,115.9322033898305,40C114.91525423728814,40,113.89830508474576,40,112.88135593220339,40C111.86440677966102,40,110.84745762711864,40,109.83050847457628,40C108.8135593220339,40,107.79661016949153,40,106.77966101694915,40C105.76271186440678,40,104.7457627118644,40,103.72881355932203,40C102.71186440677965,40,101.69491525423729,40,100.6779661016949,40C99.66101694915254,40,98.64406779661016,40,97.62711864406779,40C96.61016949152543,40,95.59322033898306,40,94.57627118644069,40C93.55932203389831,40,92.54237288135593,40,91.52542372881355,40C90.50847457627118,40,89.49152542372882,40,88.47457627118645,40C87.45762711864407,40,86.4406779661017,40,85.42372881355932,40C84.40677966101696,40,83.38983050847457,40,82.37288135593221,40C81.35593220338983,40,80.33898305084746,40,79.32203389830508,40C78.30508474576271,40,77.28813559322033,40,76.27118644067797,40C75.2542372881356,40,74.23728813559322,40,73.22033898305085,40C72.20338983050848,40,71.1864406779661,40,70.16949152542374,40C69.15254237288136,40,68.13559322033899,40,67.11864406779661,40C66.10169491525424,40,65.08474576271186,40,64.0677966101695,40C63.05084745762712,40,62.03389830508474,40,61.01694915254237,40C59.99999999999999,40,58.983050847457626,40,57.96610169491525,40C56.94915254237288,40,55.93220338983051,40,54.91525423728814,40C53.898305084745765,40,52.88135593220339,40,51.86440677966102,40C50.847457627118644,40,49.83050847457627,40,48.813559322033896,40C47.79661016949152,40,46.77966101694915,40,45.762711864406775,40C44.7457627118644,40,43.728813559322035,40,42.71186440677966,40C41.69491525423729,40,40.67796610169491,40,39.66101694915254,40C38.644067796610166,40,37.6271186440678,40,36.610169491525426,40C35.59322033898305,40,34.57627118644068,40,33.559322033898304,40C32.54237288135593,40,31.525423728813557,40,30.508474576271183,40C29.491525423728813,40,28.47457627118644,40,27.45762711864407,40C26.440677966101696,40,25.423728813559322,40,24.406779661016948,40C23.389830508474574,40,22.372881355932204,40,21.35593220338983,40C20.338983050847457,40,19.322033898305087,40,18.305084745762713,40C17.28813559322034,40,16.271186440677965,40,15.254237288135592,40C14.23728813559322,40,13.220338983050846,40,12.203389830508474,40C11.186440677966102,40,10.169491525423728,40,9.152542372881356,40C8.135593220338983,40,7.11864406779661,40,6.101694915254237,40C5.084745762711864,40,4.067796610169491,40,3.0508474576271185,40C2.0338983050847457,40,1.0169491525423728,40,0,40Z"></path><path class="line" stroke="black" fill="none" d="M0,0.03733333333333366C1.0169491525423728,0.36377777777777875,2.0338983050847457,0.6902222222222238,3.0508474576271185,1.3573333333333348C4.067796610169491,2.0244444444444456,5.084745762711864,4.039999999999999,6.101694915254237,4.039999999999999C7.11864406779661,4.039999999999999,8.135593220338983,3.714666666666666,9.152542372881356,3.714666666666666C10.169491525423728,3.714666666666666,11.186440677966102,3.9422222222222203,12.203389830508474,4.127999999999998C13.220338983050846,4.313777777777776,14.23728813559322,4.829333333333334,15.254237288135592,4.829333333333334C16.271186440677965,4.829333333333334,17.28813559322034,3.491555555555554,18.305084745762713,3.0426666666666646C19.322033898305087,2.5937777777777757,20.338983050847457,2.136,21.35593220338983,2.136C22.372881355932204,2.136,23.389830508474574,2.6239999999999997,24.406779661016948,2.6239999999999997C25.423728813559322,2.6239999999999997,26.440677966101696,2.4715555555555566,27.45762711864407,2.368000000000001C28.47457627118644,2.2644444444444463,29.491525423728813,2.002666666666668,30.508474576271183,2.002666666666668C31.525423728813557,2.002666666666668,32.54237288135593,3.0515555555555585,33.559322033898304,3.0906666666666682C34.57627118644068,3.129777777777778,35.59322033898305,3.110222222222223,36.610169491525426,3.149333333333333C37.6271186440678,3.1884444444444426,38.644067796610166,4.175999999999998,39.66101694915254,4.490666666666665C40.67796610169491,4.805333333333333,41.69491525423729,4.868888888888889,42.71186440677966,5.037333333333334C43.728813559322035,5.205777777777778,44.7457627118644,5.501333333333331,45.762711864406775,5.501333333333331C46.77966101694915,5.501333333333331,47.79661016949152,5.290666666666666,48.813559322033896,5.290666666666666C49.83050847457627,5.290666666666666,50.847457627118644,6.643555555555557,51.86440677966102,7.040000000000002C52.88135593220339,7.436444444444446,53.898305084745765,7.306666666666665,54.91525423728814,7.6693333333333324C55.93220338983051,8.031999999999998,56.94915254237288,8.83288888888889,57.96610169491525,9.216000000000001C58.983050847457626,9.599111111111112,59.99999999999999,9.729333333333335,61.01694915254237,9.968C62.03389830508474,10.206666666666667,63.05084745762712,10.621333333333334,64.0677966101695,10.648C65.08474576271186,10.674666666666665,66.10169491525424,10.661333333333333,67.11864406779661,10.687999999999999C68.13559322033899,10.714666666666664,69.15254237288136,12.596444444444444,70.16949152542374,12.770666666666667C71.1864406779661,12.944888888888888,72.20338983050848,12.890222222222222,73.22033898305085,13.032C74.23728813559322,13.173777777777778,75.2542372881356,13.621333333333334,76.27118644067797,13.621333333333334C77.28813559322033,13.621333333333334,78.30508474576271,13.034666666666666,79.32203389830508,13.034666666666666C80.33898305084746,13.034666666666666,81.35593220338983,13.175111111111113,82.37288135593221,13.373333333333335C83.38983050847457,13.571555555555557,84.40677966101696,13.941777777777778,85.42372881355932,14.224C86.4406779661017,14.506222222222224,87.45762711864407,14.752888888888888,88.47457627118645,15.066666666666668C89.49152542372882,15.380444444444445,90.50847457627118,15.732444444444447,91.52542372881355,16.106666666666666C92.54237288135593,16.480888888888888,93.55932203389831,17.040888888888887,94.57627118644069,17.311999999999998C95.59322033898306,17.583111111111105,96.61016949152543,17.57911111111111,97.62711864406779,17.733333333333334C98.64406779661016,17.887555555555558,99.66101694915254,18.19822222222222,100.6779661016949,18.237333333333332C101.69491525423729,18.276444444444444,102.71186440677965,18.296,103.72881355932203,18.296C104.7457627118644,18.296,105.76271186440678,18.08,106.77966101694915,18.08C107.79661016949153,18.08,108.8135593220339,18.136000000000003,109.83050847457628,18.136000000000003C110.84745762711864,18.136000000000003,111.86440677966102,17.746666666666666,112.88135593220339,17.421333333333333C113.89830508474576,17.096,114.91525423728814,16.48933333333333,115.9322033898305,16.183999999999997C116.94915254237289,15.878666666666664,117.96610169491525,15.628444444444451,118.98305084745763,15.589333333333336C120,15.550222222222223,121.01694915254237,15.530666666666665,122.03389830508473,15.530666666666665C123.05084745762711,15.530666666666665,124.0677966101695,15.53422222222222,125.08474576271188,15.54133333333333C126.10169491525424,15.54844444444444,127.11864406779662,16.176,128.135593220339,16.176C129.15254237288136,16.176,130.16949152542372,15.418666666666665,131.1864406779661,15.418666666666665C132.20338983050846,15.418666666666665,133.22033898305085,15.606666666666666,134.23728813559322,15.677333333333333C135.25423728813558,15.748000000000001,136.27118644067798,15.80311111111111,137.28813559322035,15.842666666666666C138.3050847457627,15.882222222222222,139.3220338983051,15.914666666666669,140.33898305084747,15.914666666666669C141.35593220338984,15.914666666666669,142.3728813559322,15.024000000000001,143.38983050847457,15.024000000000001C144.40677966101694,15.024000000000001,145.42372881355934,15.709333333333335,146.4406779661017,15.709333333333335C147.45762711864407,15.709333333333335,148.47457627118644,14.345777777777773,149.4915254237288,13.594666666666665C150.50847457627117,12.84355555555555,151.52542372881356,12.052,152.54237288135593,11.202666666666667C153.5593220338983,10.353333333333335,154.5762711864407,9.154222222222225,155.59322033898306,8.498666666666669C156.61016949152543,7.843111111111118,157.6271186440678,7.269333333333332,158.64406779661016,7.269333333333332C159.66101694915253,7.269333333333332,160.67796610169492,7.446666666666668,161.6949152542373,7.6480000000000015C162.71186440677965,7.849333333333335,163.72881355932205,8.44711111111111,164.74576271186442,8.477333333333332C165.76271186440678,8.507555555555555,166.77966101694915,8.492444444444443,167.79661016949152,8.522666666666666C168.81355932203388,8.552888888888889,169.83050847457628,9.435999999999998,170.84745762711864,10.050666666666665C171.864406779661,10.665333333333331,172.8813559322034,11.530666666666669,173.89830508474577,12.210666666666668C174.91525423728814,12.890666666666668,175.93220338983053,13.743111111111105,176.9491525423729,14.130666666666665C177.96610169491527,14.51822222222222,178.98305084745763,14.61511111111111,180,14.712"></path><path class="axis-ceiling" stroke-width="1" stroke="black" fill="none" d="M175,0L180,0"></path><text class="axis-ceiling-label" font-family="sans-serif" text-anchor="end" font-size="10px" x="170" y="2.5">15000</text></g></svg>