<svg xmlns="http://www.w3.org/2000/svg" viewBox="0 0 180 60"><g transform="translate(0,20)"><path class="area" fill="rgba(0, 0, 0, 0.2)" d="M0,16.55612C1.0169491525423728,16.321023333333333,2.0338983050847457,16.085926666666666,3.0508474576271185,15.86504C4.067796610169491,15.644153333333334,5.084745762711864,15.429829333333336,6.101694915254237,15.230800000000002C7.11864406779661,15.031770666666668,8.135593220338983,14.843193333333332,9.152542372881356,14.670863999999998C10.169491525423728,14.498534666666664,11.186440677966102,14.347265333333334,12.203389830508474,14.196824000000001C13.220338983050846,14.046382666666668,14.23728813559322,13.900144,15.254237288135592,13.768215999999999C16.271186440677965,13.636287999999999,17.28813559322034,13.511501333333332,18.305084745762713,13.405255999999998C19.322033898305087,13.299010666666664,20.338983050847457,13.214490666666666,21.35593220338983,13.130744C22.372881355932204,13.046997333333334,23.389830508474574,12.978309333333334,24.406779661016948,12.902776C25.423728813559322,12.827242666666665,26.440677966101696,12.755235999999998,27.45762711864407,12.677543999999997C28.47457627118644,12.599851999999997,29.491525423728813,12.519843999999997,30.508474576271183,12.436623999999998C31.525423728813557,12.353404,32.54237288135593,12.267980000000001,33.559322033898304,12.178224000000002C34.57627118644068,12.088468000000002,35.59322033898305,11.993441333333335,36.610169491525426,11.898088000000001C37.6271186440678,11.802734666666668,38.644067796610166,11.704117333333333,39.66101694915254,11.606103999999998C40.67796610169491,11.508090666666664,41.69491525423729,11.405565333333332,42.71186440677966,11.310007999999998C43.728813559322035,11.214450666666666,44.7457627118644,11.123572000000001,45.762711864406775,11.032760000000001C46.77966101694915,10.941948000000002,47.79661016949152,10.853522666666668,48.813559322033896,10.765136000000002C49.83050847457627,10.676749333333335,50.847457627118644,10.590330666666668,51.86440677966102,10.502440000000002C52.88135593220339,10.414549333333335,53.898305084745765,10.323133333333333,54.91525423728814,10.237791999999999C55.93220338983051,10.152450666666665,56.94915254237288,10.073572,57.96610169491525,9.990392C58.983050847457626,9.907212,59.99999999999999,9.822286666666667,61.01694915254237,9.738712C62.03389830508474,9.655137333333332,63.05084745762712,9.573654666666666,64.0677966101695,9.488944C65.08474576271186,9.404233333333334,66.10169491525424,9.316414666666665,67.11864406779661,9.230447999999999C68.13559322033899,9.144481333333331,69.15254237288136,9.057672,70.16949152542374,8.973144C71.1864406779661,8.888615999999999,72.20338983050848,8.806945333333331,73.22033898305085,8.723279999999999C74.23728813559322,8.639614666666667,75.2542372881356,8.554712000000002,76.27118644067797,8.471152000000002C77.28813559322033,8.387592000000001,78.30508474576271,8.30320133333333,79.32203389830508,8.221919999999997C80.33898305084746,8.140638666666662,81.35593220338983,8.061563999999997,82.37288135593221,7.983463999999998C83.38983050847457,7.905363999999999,84.40677966101696,7.830254666666668,85.42372881355932,7.753320000000001C86.4406779661017,7.676385333333334,87.45762711864407,7.597474666666665,88.47457627118645,7.521855999999998C89.49152542372882,7.446237333333332,90.50847457627118,7.372232000000001,91.52542372881355,7.299608000000002C92.54237288135593,7.226984000000002,93.55932203389831,7.154688,94.57627118644069,7.086112C95.59322033898306,7.017536000000001,96.61016949152543,6.953397333333334,97.62711864406779,6.888152000000001C98.64406779661016,6.822906666666667,99.66101694915254,6.758392000000001,100.6779661016949,6.694640000000001C101.69491525423729,6.630888000000001,102.71186440677965,6.570196000000002,103.72881355932203,6.505640000000001C104.7457627118644,6.441084000000002,105.76271186440678,6.3737520000000005,106.77966101694915,6.307304C107.79661016949153,6.240856,108.8135593220339,6.174927999999999,109.83050847457628,6.106951999999999C110.84745762711864,6.038975999999999,111.86440677966102,5.971174666666667,112.88135593220339,5.8994480000000005C113.89830508474576,5.827721333333334,114.91525423728814,5.747926666666667,115.9322033898305,5.676592C116.94915254237289,5.605257333333333,117.96610169491525,5.540794666666666,118.98305084745763,5.4714399999999985C120,5.402085333333332,121.01694915254237,5.331609333333331,122.03389830508473,5.260463999999998C123.05084745762711,5.189318666666664,124.0677966101695,5.1157413333333315,125.08474576271188,5.044567999999998C126.10169491525424,4.973394666666666,127.11864406779662,4.904238666666668,128.135593220339,4.833424000000002C129.15254237288136,4.7626093333333355,130.16949152542372,4.688922666666668,131.1864406779661,4.619680000000002C132.20338983050846,4.550437333333335,133.22033898305085,4.480278666666669,134.23728813559322,4.417968000000001C135.25423728813558,4.355657333333333,136.27118644067798,4.304079999999998,137.28813559322035,4.245815999999998C138.3050847457627,4.1875519999999975,139.3220338983051,4.125199999999998,140.33898305084747,4.068383999999998C141.35593220338984,4.011567999999999,142.3728813559322,3.9572106666666667,143.38983050847457,3.9049200000000006C144.40677966101694,3.852629333333334,145.42372881355934,3.803764000000001,146.4406779661017,3.75464C147.45762711864407,3.7055160000000003,148.47457627118644,3.655399999999998,149.4915254237288,3.6101759999999983C150.50847457627117,3.564951999999998,151.52542372881356,3.5245706666666665,152.54237288135593,3.483296C153.5593220338983,3.442021333333334,154.5762711864407,3.4026386666666673,155.59322033898306,3.362528C156.61016949152543,3.3224173333333336,157.6271186440678,3.2819359999999986,158.64406779661016,3.2426319999999986C159.66101694915253,3.2033279999999986,160.67796610169492,3.164005333333333,161.6949152542373,3.126704C162.71186440677965,3.0894026666666674,163.72881355932205,3.054946666666669,164.74576271186442,3.018824000000002C165.76271186440678,2.982701333333335,166.77966101694915,2.9460466666666654,167.79661016949152,2.9099679999999983C168.81355932203388,2.873889333333331,169.83050847457628,2.8378746666666657,170.84745762711864,2.802351999999999C171.864406779661,2.7668293333333325,172.8813559322034,2.7325199999999974,173.89830508474577,2.696831999999998C174.91525423728814,2.6611439999999984,175.93220338983053,2.622132000000001,176.9491525423729,2.588224000000001C177.96610169491527,2.554316000000002,178.98305084745763,2.5238500000000013,180,2.4933840000000007L180,40C178.98305084745763,40,177.96610169491527,40,176.9491525423729,40C175.93220338983053,40,174.91525423728814,40,173.89830508474577,40C172.8813559322034,40,171.864406779661,40,170.84745762711864,40C169.83050847457628,40,168.81355932203388,40,167.79661016949152,40C166.77966101694915,40,165.76271186440678,40,164.74576271186442,40C163.72881355932205,40,162.71186440677965,40,161.6949152542373,40C160.67796610169492,40,159.66101694915253,40,158.64406779661016,40C157.6271186440678,40,156.61016949152543,40,155.59322033898306,40C154.5762711864407,40,153.5593220338983,40,152.54237288135593,40C151.52542372881356,40,150.50847457627117,40,149.4915254237288,40C148.47457627118644,40,147.45762711864407,40,146.4406779661017,40C145.42372881355934,40,144.40677966101694,40,143.38983050847457,40C142.3728813559322,40,141.35593220338984,40,140.33898305084747,40C139.3220338983051,40,138.3050847457627,40,137.28813559322035,40C136.27118644067798,40,135.25423728813558,40,134.23728813559322,40C133.22033898305085,40,132.20338983050846,40,131.1864406779661,40C130.16949152542372,40,129.15254237288136,40,128.135593220339,40C127.11864406779662,40,126.10169491525424,40,125.08474576271188,40C124.0677966101695,40,123.05084745762711,40,122.03389830508473,40C121.01694915254237,40,120,40,118.98305084745763,40C117.96610169491525,40,116.94915254237289,40,115.9322033898305,40C114.91525423728814,40,113.89830508474576,40,112.88135593220339,40C111.86440677966102,40,110.84745762711864,40,109.83050847457628,40C108.8135593220339,40,107.79661016949153,40,106.77966101694915,40C105.76271186440678,40,104.7457627118644,40,103.72881355932203,40C102.71186440677965,40,101.69491525423729,40,100.6779661016949,40C99.66101694915254,40,98.64406779661016,40,97.62711864406779,40C96.61016949152543,40,95.59322033898306,40,94.57627118644069,40C93.55932203389831,40,92.54237288135593,40,91.52542372881355,40C90.50847457627118,40,89.49152542372882,40,88.47457627118645,40C87.45762711864407,40,86.4406779661017,40,85.42372881355932,40C84.40677966101696,40,83.38983050847457,40,82.37288135593221,40C81.35593220338983,40,80.33898305084746,40,79.32203389830508,40C78.30508474576271,40,77.28813559322033,40,76.27118644067797,40C75.2542372881356,40,74.23728813559322,40,73.22033898305085,40C72.20338983050848,40,71.1864406779661,40,70.16949152542374,40C69.15254237288136,40,68.13559322033899,40,67.11864406779661,40C66.10169491525424,40,65.08474576271186,40,64.0677966101695,40C63.05084745762712,40,62.03389830508474,40,61.01694915254237,40C59.99999999999999,40,58.983050847457626,40,57.96610169491525,40C56.94915254237288,40,55.93220338983051,40,54.91525423728814,40C53.898305084745765,40,52.88135593220339,40,51.86440677966102,40C50.847457627118644,40,49.83050847457627,40,48.813559322033896,40C47.79661016949152,40,46.77966101694915,40,45.762711864406775,40C44.7457627118644,40,43.728813559322035,40,42.71186440677966,40C41.69491525423729,40,40.67796610169491,40,39.66101694915254,40C38.644067796610166,40,37.6271186440678,40,36.610169491525426,40C35.59322033898305,40,34.57627118644068,40,33.559322033898304,40C32.54237288135593,40,31.525423728813557,40,30.508474576271183,40C29.491525423728813,40,28.47457627118644,40,27.45762711864407,40C26.440677966101696,40,25.423728813559322,40,24.406779661016948,40C23.389830508474574,40,22.372881355932204,40,21.35593220338983,40C20.338983050847457,40,19.322033898305087,40,18.305084745762713,40C17.28813559322034,40,16.271186440677965,40,15.254237288135592,40C14.23728813559322,40,13.220338983050846,40,12.203389830508474,40C11.186440677966102,40,10.169491525423728,40,9.152542372881356,40C8.135593220338983,40,7.11864406779661,40,6.101694915254237,40C5.084745762711864,40,4.067796610169491,40,3.0508474576271185,40C2.0338983050847457,40,1.0169491525423728,40,0,40Z"></path><path class="line" stroke="black" fill="none" d="M0,16.55612C1.0169491525423728,16.321023333333333,2.0338983050847457,16.085926666666666,3.0508474576271185,15.86504C4.067796610169491,15.644153333333334,5.084745762711864,15.429829333333336,6.101694915254237,15.230800000000002C7.11864406779661,15.031770666666668,8.135593220338983,14.843193333333332,9.152542372881356,14.670863999999998C10.169491525423728,14.498534666666664,11.186440677966102,14.347265333333334,12.203389830508474,14.196824000000001C13.220338983050846,14.046382666666668,14.23728813559322,13.900144,15.254237288135592,13.768215999999999C16.271186440677965,13.636287999999999,17.28813559322034,13.511501333333332,18.305084745762713,13.405255999999998C19.322033898305087,13.299010666666664,20.338983050847457,13.214490666666666,21.35593220338983,13.130744C22.372881355932204,13.046997333333334,23.389830508474574,12.978309333333334,24.406779661016948,12.902776C25.423728813559322,12.827242666666665,26.440677966101696,12.755235999999998,27.45762711864407,12.677543999999997C28.47457627118644,12.599851999999997,29.491525423728813,12.519843999999997,30.508474576271183,12.436623999999998C31.525423728813557,12.353404,32.54237288135593,12.267980000000001,33.559322033898304,12.178224000000002C34.57627118644068,12.088468000000002,35.59322033898305,11.993441333333335,36.610169491525426,11.898088000000001C37.6271186440678,11.802734666666668,38.644067796610166,11.704117333333333,39.66101694915254,11.606103999999998C40.67796610169491,11.508090666666664,41.69491525423729,11.405565333333332,42.71186440677966,11.310007999999998C43.728813559322035,11.214450666666666,44.7457627118644,11.123572000000001,45.762711864406775,11.032760000000001C46.77966101694915,10.941948000000002,47.79661016949152,10.853522666666668,48.813559322033896,10.765136000000002C49.83050847457627,10.676749333333335,50.847457627118644,10.590330666666668,51.86440677966102,10.502440000000002C52.88135593220339,10.414549333333335,53.898305084745765,10.323133333333333,54.91525423728814,10.237791999999999C55.93220338983051,10.152450666666665,56.94915254237288,10.073572,57.96610169491525,9.990392C58.983050847457626,9.907212,59.99999999999999,9.822286666666667,61.01694915254237,9.738712C62.03389830508474,9.655137333333332,63.05084745762712,9.573654666666666,64.0677966101695,9.488944C65.08474576271186,9.404233333333334,66.10169491525424,9.316414666666665,67.11864406779661,9.230447999999999C68.13559322033899,9.144481333333331,69.15254237288136,9.057672,70.16949152542374,8.973144C71.1864406779661,8.888615999999999,72.20338983050848,8.806945333333331,73.22033898305085,8.723279999999999C74.23728813559322,8.639614666666667,75.2542372881356,8.554712000000002,76.27118644067797,8.471152000000002C77.28813559322033,8.387592000000001,78.30508474576271,8.30320133333333,79.32203389830508,8.221919999999997C80.33898305084746,8.140638666666662,81.35593220338983,8.061563999999997,82.37288135593221,7.983463999999998C83.38983050847457,7.905363999999999,84.40677966101696,7.830254666666668,85.42372881355932,7.753320000000001C86.4406779661017,7.676385333333334,87.45762711864407,7.597474666666665,88.47457627118645,7.521855999999998C89.49152542372882,7.446237333333332,90.50847457627118,7.372232000000001,91.52542372881355,7.299608000000002C92.54237288135593,7.226984000000002,93.55932203389831,7.154688,94.57627118644069,7.086112C95.59322033898306,7.017536000000001,96.61016949152543,6.953397333333334,97.62711864406779,6.888152000000001C98.64406779661016,6.822906666666667,99.66101694915254,6.758392000000001,100.6779661016949,6.694640000000001C101.69491525423729,6.630888000000001,102.71186440677965,6.570196000000002,103.72881355932203,6.505640000000001C104.7457627118644,6.441084000000002,105.76271186440678,6.3737520000000005,106.77966101694915,6.307304C107.79661016949153,6.240856,108.8135593220339,6.174927999999999,109.83050847457628,6.106951999999999C110.84745762711864,6.038975999999999,111.86440677966102,5.971174666666667,112.88135593220339,5.8994480000000005C113.89830508474576,5.827721333333334,114.91525423728814,5.747926666666667,115.9322033898305,5.676592C116.94915254237289,5.605257333333333,117.96610169491525,5.540794666666666,118.98305084745763,5.4714399999999985C120,5.402085333333332,121.01694915254237,5.331609333333331,122.03389830508473,5.260463999999998C123.05084745762711,5.189318666666664,124.0677966101695,5.1157413333333315,125.08474576271188,5.044567999999998C126.10169491525424,4.973394666666666,127.11864406779662,4.904238666666668,128.135593220339,4.833424000000002C129.15254237288136,4.7626093333333355,130.16949152542372,4.688922666666668,131.1864406779661,4.619680000000002C132.20338983050846,4.550437333333335,133.22033898305085,4.480278666666669,134.23728813559322,4.417968000000001C135.25423728813558,4.355657333333333,136.27118644067798,4.304079999999998,137.28813559322035,4.245815999999998C138.3050847457627,4.1875519999999975,139.3220338983051,4.125199999999998,140.33898305084747,4.068383999999998C141.35593220338984,4.011567999999999,142.3728813559322,3.9572106666666667,143.38983050847457,3.9049200000000006C144.40677966101694,3.852629333333334,145.42372881355934,3.803764000000001,146.4406779661017,3.75464C147.45762711864407,3.7055160000000003,148.47457627118644,3.655399999999998,149.4915254237288,3.6101759999999983C150.50847457627117,3.564951999999998,151.52542372881356,3.5245706666666665,152.54237288135593,3.483296C153.5593220338983,3.442021333333334,154.5762711864407,3.4026386666666673,155.59322033898306,3.362528C156.61016949152543,3.3224173333333336,157.6271186440678,3.2819359999999986,158.64406779661016,3.2426319999999986C159.66101694915253,3.2033279999999986,160.67796610169492,3.164005333333333,161.6949152542373,3.126704C162.71186440677965,3.0894026666666674,163.72881355932205,3.054946666666669,164.74576271186442,3.018824000000002C165.76271186440678,2.982701333333335,166.77966101694915,2.9460466666666654,167.79661016949152,2.9099679999999983C168.81355932203388,2.873889333333331,169.83050847457628,2.8378746666666657,170.84745762711864,2.802351999999999C171.864406779661,2.7668293333333325,172.8813559322034,2.7325199999999974,173.89830508474577,2.696831999999998C174.91525423728814,2.6611439999999984,175.93220338983053,2.622132000000001,176.9491525423729,2.588224000000001C177.96610169491527,2.554316000000002,178.98305084745763,2.5238500000000013,180,2.4933840000000007"></path><path class="axis-ceiling" stroke-width="1" stroke="black" fill="none" d="M175,0L180,0"></path><text class="axis-ceiling-label" font-family="sans-serif" text-anchor="end" font-size="10px" x="170" y="2.5">5000000</text></g></svg>