<svg xmlns="http://www.w3.org/2000/svg" viewBox="0 0 180 60"><g transform="translate(0,20)"><path class="area" fill="rgba(0, 0, 0, 0.2)" d="M0,38.56666666666666C2.589928057553957,38.62533333333333,5.179856115107913,38.684,7.769784172661871,38.684C9.496402877697841,38.684,11.223021582733812,38.368,12.949640287769784,38.368C13.381294964028775,38.368,13.81294964028777,38.64533333333333,14.244604316546761,38.64533333333333C15.971223021582732,38.64533333333333,17.697841726618705,38.45726599326599,19.424460431654676,38.35466666666667C24.1726618705036,38.07251851851852,28.92086330935252,37.56523076923077,33.66906474820144,37.37866666666667C34.53237410071943,37.34474592074592,35.39568345323741,37.32686247086247,36.2589928057554,37.29066666666667C41.007194244604314,37.09158974358974,45.75539568345324,36.07066666666667,50.50359712230215,36.07066666666667C50.93525179856115,36.07066666666667,51.36690647482014,36.45333333333333,51.798561151079134,36.45333333333333C53.956834532374096,36.45333333333333,56.115107913669064,36.31466666666667,58.273381294964025,36.31466666666667C58.70503597122302,36.31466666666667,59.13669064748201,36.32859259259259,59.568345323741006,36.34133333333333C60.431654676258994,36.36681481481481,61.29496402877698,36.42438095238095,62.15827338129497,36.464C65.17985611510791,36.602666666666664,68.20143884892086,36.833333333333336,71.22302158273381,36.833333333333336C75.10791366906474,36.833333333333336,78.9928057553957,36.08133333333333,82.87769784172663,36.08133333333333C83.74100719424462,36.08133333333333,84.60431654676259,37.256,85.46762589928058,37.256C91.07913669064749,37.256,96.69064748201438,36.061992202729044,102.3021582733813,35.827999999999996C104.89208633093526,35.72000359874043,107.4820143884892,35.67358730158729,110.07194244604317,35.65866666666666C110.50359712230217,35.65617989417989,110.93525179856115,35.654666666666664,111.36690647482015,35.654666666666664C111.79856115107914,35.654666666666664,112.23021582733813,35.67638518518518,112.66187050359711,35.68933333333333C114.82014388489208,35.75407407407407,116.97841726618705,35.788888888888884,119.13669064748201,35.988C120,36.06764444444445,120.86330935251799,36.63333333333333,121.72661870503597,36.63333333333333C122.15827338129496,36.63333333333333,122.58992805755396,36.588,123.02158273381295,36.588C123.45323741007195,36.588,123.88489208633094,37.825333333333326,124.31654676258994,38.016C125.17985611510791,38.397333333333336,126.0431654676259,38.588,126.90647482014387,38.588C127.33812949640287,38.588,127.76978417266187,38.556,128.20143884892087,38.556C128.63309352517987,38.556,129.06474820143885,38.577333333333335,129.49640287769785,38.620000000000005C129.92805755395685,38.662666666666674,130.35971223021582,38.984,130.79136690647482,38.984C132.5179856115108,38.984,134.24460431654674,38.74577777777778,135.97122302158272,38.69466666666667C136.83453237410072,38.669111111111114,137.6978417266187,38.652,138.5611510791367,38.652C138.9928057553957,38.652,139.42446043165467,38.66955555555555,139.85611510791367,38.687999999999995C140.28776978417267,38.70644444444444,140.71942446043164,38.75288888888889,141.15107913669064,38.76266666666667C141.58273381294964,38.772444444444446,142.0143884892086,38.77733333333333,142.44604316546761,38.77733333333333C142.87769784172662,38.77733333333333,143.30935251798562,38.77111111111111,143.74100719424462,38.75866666666666C144.17266187050362,38.746222222222215,144.6043165467626,38.692,145.0359712230216,38.692C145.89928057553956,38.692,146.76258992805757,38.98414814814815,147.62589928057554,39.093333333333334C148.05755395683454,39.147925925925925,148.4892086330935,39.23866666666667,148.9208633093525,39.23866666666667C149.3525179856115,39.23866666666667,149.7841726618705,39.22977777777778,150.21582733812951,39.21333333333333C150.6474820143885,39.196888888888886,151.0791366906475,39.16577777777778,151.51079136690646,39.14C151.94244604316546,39.114222222222224,152.37410071942446,39.083555555555556,152.80575539568346,39.05866666666667C153.23741007194246,39.03377777777778,153.66906474820144,38.9968888888889,154.10071942446044,38.99066666666667C154.53237410071944,38.98444444444444,154.9640287769784,38.98755555555556,155.3956834532374,38.98133333333333C155.8273381294964,38.975111111111104,156.25899280575538,38.898888888888884,156.69064748201438,38.834666666666664C157.12230215827338,38.77044444444444,157.55395683453236,38.755111111111106,157.98561151079136,38.596C158.41726618705036,38.43688888888888,158.84892086330936,36.99355555555555,159.28057553956836,36.428C159.71223021582736,35.86244444444445,160.14388489208633,35.66733333333333,160.57553956834533,35.202666666666666C161.00719424460434,34.738,161.4388489208633,34.05755555555555,161.8705035971223,33.64C162.3021582733813,33.22244444444445,162.73381294964028,33.32577777777778,163.16546762589928,32.69733333333333C163.59712230215828,32.068888888888885,164.02877697841726,30.35933333333333,164.46043165467626,29.524C164.89208633093526,28.688666666666652,165.32374100719426,28.694666666666706,165.75539568345326,27.685333333333332C166.18705035971223,26.676000000000002,166.61870503597123,23.64133333333333,167.0503597122302,23.468C167.4820143884892,23.294666666666668,167.91366906474818,23.381333333333334,168.34532374100718,23.208000000000002C168.77697841726618,23.034666666666666,169.20863309352518,18.69200000000001,169.64028776978418,17.012C170.07194244604318,15.332000000000027,170.50359712230215,14.509111111111114,170.93525179856115,13.128000000000002C171.36690647482015,11.74688888888889,171.79856115107913,9.30844444444444,172.23021582733813,8.725333333333332C172.66187050359713,8.142222222222223,173.0935251798561,8.295333333333334,173.5251798561151,7.850666666666668C173.9568345323741,7.4060000000000015,174.38848920863308,6.286666666666659,174.82014388489208,6.057333333333332C175.25179856115108,5.828,175.68345323741008,5.942666666666667,176.11510791366908,5.713333333333335C176.54676258992808,5.484000000000008,176.97841726618705,3.4920000000000018,177.41007194244605,3.4920000000000018C177.84172661870505,3.4920000000000018,178.27338129496403,6.844444444444447,178.70503597122303,7.890666666666668C179.13669064748203,8.93688888888889,179.568345323741,9.353111111111112,180,9.769333333333332L180,40C179.568345323741,40,179.13669064748203,40,178.70503597122303,40C178.27338129496403,40,177.84172661870505,40,177.41007194244605,40C176.97841726618705,40,176.54676258992808,40,176.11510791366908,40C175.68345323741008,40,175.25179856115108,40,174.82014388489208,40C174.38848920863308,40,173.9568345323741,40,173.5251798561151,40C173.0935251798561,40,172.66187050359713,40,172.23021582733813,40C171.79856115107913,40,171.36690647482015,40,170.93525179856115,40C170.50359712230215,40,170.07194244604318,40,169.64028776978418,40C169.20863309352518,40,168.77697841726618,40,168.34532374100718,40C167.91366906474818,40,167.4820143884892,40,167.0503597122302,40C166.61870503597123,40,166.18705035971223,40,165.75539568345326,40C165.32374100719426,40,164.89208633093526,40,164.46043165467626,40C164.02877697841726,40,163.59712230215828,40,163.16546762589928,40C162.73381294964028,40,162.3021582733813,40,161.8705035971223,40C161.4388489208633,40,161.00719424460434,40,160.57553956834533,40C160.14388489208633,40,159.71223021582736,40,159.28057553956836,40C158.84892086330936,40,158.41726618705036,40,157.98561151079136,40C157.55395683453236,40,157.12230215827338,40,156.69064748201438,40C156.25899280575538,40,155.8273381294964,40,155.3956834532374,40C154.9640287769784,40,154.53237410071944,40,154.10071942446044,40C153.66906474820144,40,153.23741007194246,40,152.80575539568346,40C152.37410071942446,40,151.94244604316546,40,151.51079136690646,40C151.0791366906475,40,150.6474820143885,40,150.21582733812951,40C149.7841726618705,40,149.3525179856115,40,148.9208633093525,40C148.4892086330935,40,148.05755395683454,40,147.62589928057554,40C146.76258992805757,40,145.89928057553956,40,145.0359712230216,40C144.6043165467626,40,144.17266187050362,40,143.74100719424462,40C143.30935251798562,40,142.87769784172662,40,142.44604316546761,40C142.0143884892086,40,141.58273381294964,40,141.15107913669064,40C140.71942446043164,40,140.28776978417267,40,139.85611510791367,40C139.42446043165467,40,138.9928057553957,40,138.5611510791367,40C137.6978417266187,40,136.83453237410072,40,135.97122302158272,40C134.24460431654674,40,132.5179856115108,40,130.79136690647482,40C130.35971223021582,40,129.92805755395685,40,129.49640287769785,40C129.06474820143885,40,128.63309352517987,40,128.20143884892087,40C127.76978417266187,40,127.33812949640287,40,126.90647482014387,40C126.0431654676259,40,125.17985611510791,40,124.31654676258994,40C123.88489208633094,40,123.45323741007195,40,123.02158273381295,40C122.58992805755396,40,122.15827338129496,40,121.72661870503597,40C120.86330935251799,40,120,40,119.13669064748201,40C116.97841726618705,40,114.82014388489208,40,112.66187050359711,40C112.23021582733813,40,111.79856115107914,40,111.36690647482015,40C110.93525179856115,40,110.50359712230217,40,110.07194244604317,40C107.4820143884892,40,104.89208633093526,40,102.3021582733813,40C96.69064748201438,40,91.07913669064749,40,85.46762589928058,40C84.60431654676259,40,83.74100719424462,40,82.87769784172663,40C78.9928057553957,40,75.10791366906474,40,71.22302158273381,40C68.20143884892086,40,65.17985611510791,40,62.15827338129497,40C61.29496402877698,40,60.431654676258994,40,59.568345323741006,40C59.13669064748201,40,58.70503597122302,40,58.273381294964025,40C56.115107913669064,40,53.956834532374096,40,51.798561151079134,40C51.36690647482014,40,50.93525179856115,40,50.50359712230215,40C45.75539568345324,40,41.007194244604314,40,36.2589928057554,40C35.39568345323741,40,34.53237410071943,40,33.66906474820144,40C28.92086330935252,40,24.1726618705036,40,19.424460431654676,40C17.697841726618705,40,15.971223021582732,40,14.244604316546761,40C13.81294964028777,40,13.381294964028775,40,12.949640287769784,40C11.223021582733812,40,9.496402877697841,40,7.769784172661871,40C5.179856115107913,40,2.589928057553957,40,0,40Z"></path><path class="line" stroke="black" fill="none" d="M0,38.56666666666666C2.589928057553957,38.62533333333333,5.179856115107913,38.684,7.769784172661871,38.684C9.496402877697841,38.684,11.223021582733812,38.368,12.949640287769784,38.368C13.381294964028775,38.368,13.81294964028777,38.64533333333333,14.244604316546761,38.64533333333333C15.971223021582732,38.64533333333333,17.697841726618705,38.45726599326599,19.424460431654676,38.35466666666667C24.1726618705036,38.07251851851852,28.92086330935252,37.56523076923077,33.66906474820144,37.37866666666667C34.53237410071943,37.34474592074592,35.39568345323741,37.32686247086247,36.2589928057554,37.29066666666667C41.007194244604314,37.09158974358974,45.75539568345324,36.07066666666667,50.50359712230215,36.07066666666667C50.93525179856115,36.07066666666667,51.36690647482014,36.45333333333333,51.798561151079134,36.45333333333333C53.956834532374096,36.45333333333333,56.115107913669064,36.31466666666667,58.273381294964025,36.31466666666667C58.70503597122302,36.31466666666667,59.13669064748201,36.32859259259259,59.568345323741006,36.34133333333333C60.431654676258994,36.36681481481481,61.29496402877698,36.42438095238095,62.15827338129497,36.464C65.17985611510791,36.602666666666664,68.20143884892086,36.833333333333336,71.22302158273381,36.833333333333336C75.10791366906474,36.833333333333336,78.9928057553957,36.08133333333333,82.87769784172663,36.08133333333333C83.74100719424462,36.08133333333333,84.60431654676259,37.256,85.46762589928058,37.256C91.07913669064749,37.256,96.69064748201438,36.061992202729044,102.3021582733813,35.827999999999996C104.89208633093526,35.72000359874043,107.4820143884892,35.67358730158729,110.07194244604317,35.65866666666666C110.50359712230217,35.65617989417989,110.93525179856115,35.654666666666664,111.36690647482015,35.654666666666664C111.79856115107914,35.654666666666664,112.23021582733813,35.67638518518518,112.66187050359711,35.68933333333333C114.82014388489208,35.75407407407407,116.97841726618705,35.788888888888884,119.13669064748201,35.988C120,36.06764444444445,120.86330935251799,36.63333333333333,121.72661870503597,36.63333333333333C122.15827338129496,36.63333333333333,122.58992805755396,36.588,123.02158273381295,36.588C123.45323741007195,36.588,123.88489208633094,37.825333333333326,124.31654676258994,38.016C125.17985611510791,38.397333333333336,126.0431654676259,38.588,126.90647482014387,38.588C127.33812949640287,38.588,127.76978417266187,38.556,128.20143884892087,38.556C128.63309352517987,38.556,129.06474820143885,38.577333333333335,129.49640287769785,38.620000000000005C129.92805755395685,38.662666666666674,130.35971223021582,38.984,130.79136690647482,38.984C132.5179856115108,38.984,134.24460431654674,38.74577777777778,135.97122302158272,38.69466666666667C136.83453237410072,38.669111111111114,137.6978417266187,38.652,138.5611510791367,38.652C138.9928057553957,38.652,139.42446043165467,38.66955555555555,139.85611510791367,38.687999999999995C140.28776978417267,38.70644444444444,140.71942446043164,38.75288888888889,141.15107913669064,38.76266666666667C141.58273381294964,38.772444444444446,142.0143884892086,38.77733333333333,142.44604316546761,38.77733333333333C142.87769784172662,38.77733333333333,143.30935251798562,38.77111111111111,143.74100719424462,38.75866666666666C144.17266187050362,38.746222222222215,144.6043165467626,38.692,145.0359712230216,38.692C145.89928057553956,38.692,146.76258992805757,38.98414814814815,147.62589928057554,39.093333333333334C148.05755395683454,39.147925925925925,148.4892086330935,39.23866666666667,148.9208633093525,39.23866666666667C149.3525179856115,39.23866666666667,149.7841726618705,39.22977777777778,150.21582733812951,39.21333333333333C150.6474820143885,39.196888888888886,151.0791366906475,39.16577777777778,151.51079136690646,39.14C151.94244604316546,39.114222222222224,152.37410071942446,39.083555555555556,152.80575539568346,39.05866666666667C153.23741007194246,39.03377777777778,153.66906474820144,38.9968888888889,154.10071942446044,38.99066666666667C154.53237410071944,38.98444444444444,154.9640287769784,38.98755555555556,155.3956834532374,38.98133333333333C155.8273381294964,38.975111111111104,156.25899280575538,38.898888888888884,156.69064748201438,38.834666666666664C157.12230215827338,38.77044444444444,157.55395683453236,38.755111111111106,157.98561151079136,38.596C158.41726618705036,38.43688888888888,158.84892086330936,36.99355555555555,159.28057553956836,36.428C159.71223021582736,35.86244444444445,160.14388489208633,35.66733333333333,160.57553956834533,35.202666666666666C161.00719424460434,34.738,161.4388489208633,34.05755555555555,161.8705035971223,33.64C162.3021582733813,33.22244444444445,162.73381294964028,33.32577777777778,163.16546762589928,32.69733333333333C163.59712230215828,32.068888888888885,164.02877697841726,30.35933333333333,164.46043165467626,29.524C164.89208633093526,28.688666666666652,165.32374100719426,28.694666666666706,165.75539568345326,27.685333333333332C166.18705035971223,26.676000000000002,166.61870503597123,23.64133333333333,167.0503597122302,23.468C167.4820143884892,23.294666666666668,167.91366906474818,23.381333333333334,168.34532374100718,23.208000000000002C168.77697841726618,23.034666666666666,169.20863309352518,18.69200000000001,169.64028776978418,17.012C170.07194244604318,15.332000000000027,170.50359712230215,14.509111111111114,170.93525179856115,13.128000000000002C171.36690647482015,11.74688888888889,171.79856115107913,9.30844444444444,172.23021582733813,8.725333333333332C172.66187050359713,8.142222222222223,173.0935251798561,8.295333333333334,173.5251798561151,7.850666666666668C173.9568345323741,7.4060000000000015,174.38848920863308,6.286666666666659,174.82014388489208,6.057333333333332C175.25179856115108,5.828,175.68345323741008,5.942666666666667,176.11510791366908,5.713333333333335C176.54676258992808,5.484000000000008,176.97841726618705,3.4920000000000018,177.41007194244605,3.4920000000000018C177.84172661870505,3.4920000000000018,178.27338129496403,6.844444444444447,178.70503597122303,7.890666666666668C179.13669064748203,8.93688888888889,179.568345323741,9.353111111111112,180,9.769333333333332"></path><path class="axis-ceiling" stroke-width="1" stroke="black" fill="none" d="M175,0L180,0"></path><text class="axis-ceiling-label" font-family="sans-serif" text-anchor="end" font-size="10px" x="170" y="2.5">30000</text></g></svg>