<svg xmlns="http://www.w3.org/2000/svg" viewBox="0 0 180 60"><g transform="translate(0,20)"><path class="area" fill="rgba(0, 0, 0, 0.2)" d="M0,38.3744C5.641025641025641,38.0084,11.282051282051281,37.6424,16.923076923076923,37.6424C17.435897435897434,37.6424,17.94871794871795,37.872,18.46153846153846,37.872C21.025641025641026,37.872,23.58974358974359,37.7888,26.153846153846157,37.7888C26.666666666666668,37.7888,27.179487179487182,37.797155555555555,27.692307692307693,37.8048C28.71794871794872,37.82008888888889,29.743589743589745,37.85462857142857,30.76923076923077,37.8784C34.35897435897436,37.9616,37.94871794871795,38.1,41.53846153846154,38.1C46.15384615384615,38.1,50.769230769230774,37.648799999999994,55.38461538461539,37.648799999999994C56.410256410256416,37.648799999999994,57.43589743589744,38.3536,58.46153846153847,38.3536C65.12820512820514,38.3536,71.7948717948718,37.63719532163743,78.46153846153847,37.4968C81.53846153846155,37.43200215924426,84.61538461538461,37.40415238095239,87.6923076923077,37.3952C88.2051282051282,37.39370793650794,88.71794871794872,37.3928,89.23076923076923,37.3928C89.74358974358974,37.3928,90.25641025641026,37.40583111111111,90.76923076923077,37.4136C93.33333333333334,37.452444444444446,95.8974358974359,37.473333333333336,98.46153846153847,37.5928C99.48717948717949,37.640586666666664,100.51282051282051,37.980000000000004,101.53846153846153,37.980000000000004C102.05128205128204,37.980000000000004,102.56410256410255,37.952799999999996,103.07692307692307,37.952799999999996C103.58974358974359,37.952799999999996,104.1025641025641,38.6952,104.61538461538463,38.8096C105.64102564102565,39.0384,106.66666666666667,39.1528,107.6923076923077,39.1528C108.2051282051282,39.1528,108.71794871794872,39.1336,109.23076923076923,39.1336C109.74358974358974,39.1336,110.25641025641026,39.1464,110.76923076923077,39.172C111.28205128205128,39.197599999999994,111.7948717948718,39.3904,112.3076923076923,39.3904C114.35897435897436,39.3904,116.41025641025641,39.24746666666667,118.46153846153847,39.2168C119.48717948717949,39.20146666666667,120.51282051282053,39.1912,121.53846153846155,39.1912C122.05128205128206,39.1912,122.56410256410257,39.20173333333334,123.07692307692308,39.2128C123.58974358974359,39.223866666666666,124.1025641025641,39.25173333333333,124.61538461538461,39.2576C125.12820512820512,39.263466666666666,125.64102564102564,39.2664,126.15384615384615,39.2664C126.66666666666666,39.2664,127.17948717948718,39.26266666666667,127.6923076923077,39.2552C128.2051282051282,39.247733333333336,128.71794871794873,39.2152,129.23076923076923,39.2152C130.25641025641025,39.2152,131.2820512820513,39.390488888888896,132.30769230769232,39.456C132.82051282051282,39.48875555555556,133.33333333333334,39.5432,133.84615384615384,39.5432C134.35897435897436,39.5432,134.87179487179486,39.537866666666666,135.3846153846154,39.528C135.89743589743588,39.51813333333333,136.4102564102564,39.49946666666667,136.9230769230769,39.484C137.43589743589743,39.46853333333333,137.94871794871796,39.45013333333333,138.46153846153848,39.4352C138.97435897435898,39.42026666666667,139.4871794871795,39.39813333333333,140,39.3944C140.51282051282053,39.39066666666667,141.02564102564102,39.39253333333333,141.53846153846155,39.3888C142.05128205128204,39.385066666666674,142.56410256410257,39.33933333333333,143.07692307692307,39.300799999999995C143.5897435897436,39.26226666666666,144.1025641025641,39.25306666666666,144.6153846153846,39.1576C145.12820512820514,39.06213333333334,145.64102564102564,38.196133333333336,146.15384615384616,37.8568C146.66666666666666,37.51746666666667,147.17948717948718,37.4004,147.69230769230768,37.1216C148.2051282051282,36.8428,148.7179487179487,36.434533333333334,149.23076923076923,36.184C149.74358974358975,35.93346666666666,150.25641025641025,35.995466666666665,150.76923076923077,35.6184C151.28205128205127,35.241333333333344,151.7948717948718,34.215599999999995,152.3076923076923,33.7144C152.82051282051282,33.213199999999986,153.33333333333331,33.2168,153.84615384615384,32.6112C154.35897435897436,32.005599999999994,154.87179487179486,30.1848,155.3846153846154,30.0808C155.8974358974359,29.9768,156.4102564102564,30.0288,156.92307692307693,29.9248C157.43589743589743,29.820800000000006,157.94871794871796,27.215199999999996,158.46153846153845,26.2072C158.97435897435898,25.199199999999987,159.48717948717947,24.705466666666666,160,23.8768C160.51282051282053,23.048133333333332,161.02564102564102,21.58506666666667,161.53846153846155,21.2352C162.05128205128204,20.88533333333333,162.56410256410257,20.977199999999996,163.07692307692307,20.7104C163.5897435897436,20.4436,164.1025641025641,19.772,164.6153846153846,19.6344C165.12820512820514,19.4968,165.64102564102564,19.5656,166.15384615384616,19.428C166.66666666666669,19.2904,167.17948717948718,18.0952,167.6923076923077,18.0952C168.2051282051282,18.0952,168.71794871794873,20.106666666666666,169.23076923076923,20.734399999999997C169.74358974358975,21.362133333333343,170.25641025641025,21.861600000000003,170.76923076923077,21.861600000000003C171.2820512820513,21.861600000000003,171.7948717948718,19.840400000000027,172.30769230769232,18.163200000000003C172.82051282051282,16.48600000000001,173.33333333333334,13.36773333333333,173.84615384615384,11.7984C174.35897435897436,10.229066666666643,174.87179487179486,9.496666666666668,175.3846153846154,8.7472C175.89743589743588,7.997733333333345,176.4102564102564,8.111599999999987,176.9230769230769,7.301600000000001C177.43589743589743,6.4916,177.94871794871793,4.2642666666666695,178.46153846153845,3.8872000000000018C178.97435897435898,3.510133333333334,179.48717948717947,3.415866666666667,180,3.3216L180,40C179.48717948717947,40,178.97435897435898,40,178.46153846153845,40C177.94871794871793,40,177.43589743589743,40,176.9230769230769,40C176.4102564102564,40,175.89743589743588,40,175.3846153846154,40C174.87179487179486,40,174.35897435897436,40,173.84615384615384,40C173.33333333333334,40,172.82051282051282,40,172.30769230769232,40C171.7948717948718,40,171.2820512820513,40,170.76923076923077,40C170.25641025641025,40,169.74358974358975,40,169.23076923076923,40C168.71794871794873,40,168.2051282051282,40,167.6923076923077,40C167.17948717948718,40,166.66666666666669,40,166.15384615384616,40C165.64102564102564,40,165.12820512820514,40,164.6153846153846,40C164.1025641025641,40,163.5897435897436,40,163.07692307692307,40C162.56410256410257,40,162.05128205128204,40,161.53846153846155,40C161.02564102564102,40,160.51282051282053,40,160,40C159.48717948717947,40,158.97435897435898,40,158.46153846153845,40C157.94871794871796,40,157.43589743589743,40,156.92307692307693,40C156.4102564102564,40,155.8974358974359,40,155.3846153846154,40C154.87179487179486,40,154.35897435897436,40,153.84615384615384,40C153.33333333333331,40,152.82051282051282,40,152.3076923076923,40C151.7948717948718,40,151.28205128205127,40,150.76923076923077,40C150.25641025641025,40,149.74358974358975,40,149.23076923076923,40C148.7179487179487,40,148.2051282051282,40,147.69230769230768,40C147.17948717948718,40,146.66666666666666,40,146.15384615384616,40C145.64102564102564,40,145.12820512820514,40,144.6153846153846,40C144.1025641025641,40,143.5897435897436,40,143.07692307692307,40C142.56410256410257,40,142.05128205128204,40,141.53846153846155,40C141.02564102564102,40,140.51282051282053,40,140,40C139.4871794871795,40,138.97435897435898,40,138.46153846153848,40C137.94871794871796,40,137.43589743589743,40,136.9230769230769,40C136.4102564102564,40,135.89743589743588,40,135.3846153846154,40C134.87179487179486,40,134.35897435897436,40,133.84615384615384,40C133.33333333333334,40,132.82051282051282,40,132.30769230769232,40C131.2820512820513,40,130.25641025641025,40,129.23076923076923,40C128.71794871794873,40,128.2051282051282,40,127.6923076923077,40C127.17948717948718,40,126.66666666666666,40,126.15384615384615,40C125.64102564102564,40,125.12820512820512,40,124.61538461538461,40C124.1025641025641,40,123.58974358974359,40,123.07692307692308,40C122.56410256410257,40,122.05128205128206,40,121.53846153846155,40C120.51282051282053,40,119.48717948717949,40,118.46153846153847,40C116.41025641025641,40,114.35897435897436,40,112.3076923076923,40C111.7948717948718,40,111.28205128205128,40,110.76923076923077,40C110.25641025641026,40,109.74358974358974,40,109.23076923076923,40C108.71794871794872,40,108.2051282051282,40,107.6923076923077,40C106.66666666666667,40,105.64102564102565,40,104.61538461538463,40C104.1025641025641,40,103.58974358974359,40,103.07692307692307,40C102.56410256410255,40,102.05128205128204,40,101.53846153846153,40C100.51282051282051,40,99.48717948717949,40,98.46153846153847,40C95.8974358974359,40,93.33333333333334,40,90.76923076923077,40C90.25641025641026,40,89.74358974358974,40,89.23076923076923,40C88.71794871794872,40,88.2051282051282,40,87.6923076923077,40C84.61538461538461,40,81.53846153846155,40,78.46153846153847,40C71.7948717948718,40,65.12820512820514,40,58.46153846153847,40C57.43589743589744,40,56.410256410256416,40,55.38461538461539,40C50.769230769230774,40,46.15384615384615,40,41.53846153846154,40C37.94871794871795,40,34.35897435897436,40,30.76923076923077,40C29.743589743589745,40,28.71794871794872,40,27.692307692307693,40C27.179487179487182,40,26.666666666666668,40,26.153846153846157,40C23.58974358974359,40,21.025641025641026,40,18.46153846153846,40C17.94871794871795,40,17.435897435897434,40,16.923076923076923,40C11.282051282051281,40,5.641025641025641,40,0,40Z"></path><path class="line" stroke="black" fill="none" d="M0,38.3744C5.641025641025641,38.0084,11.282051282051281,37.6424,16.923076923076923,37.6424C17.435897435897434,37.6424,17.94871794871795,37.872,18.46153846153846,37.872C21.025641025641026,37.872,23.58974358974359,37.7888,26.153846153846157,37.7888C26.666666666666668,37.7888,27.179487179487182,37.797155555555555,27.692307692307693,37.8048C28.71794871794872,37.82008888888889,29.743589743589745,37.85462857142857,30.76923076923077,37.8784C34.35897435897436,37.9616,37.94871794871795,38.1,41.53846153846154,38.1C46.15384615384615,38.1,50.769230769230774,37.648799999999994,55.38461538461539,37.648799999999994C56.410256410256416,37.648799999999994,57.43589743589744,38.3536,58.46153846153847,38.3536C65.12820512820514,38.3536,71.7948717948718,37.63719532163743,78.46153846153847,37.4968C81.53846153846155,37.43200215924426,84.61538461538461,37.40415238095239,87.6923076923077,37.3952C88.2051282051282,37.39370793650794,88.71794871794872,37.3928,89.23076923076923,37.3928C89.74358974358974,37.3928,90.25641025641026,37.40583111111111,90.76923076923077,37.4136C93.33333333333334,37.452444444444446,95.8974358974359,37.473333333333336,98.46153846153847,37.5928C99.48717948717949,37.640586666666664,100.51282051282051,37.980000000000004,101.53846153846153,37.980000000000004C102.05128205128204,37.980000000000004,102.56410256410255,37.952799999999996,103.07692307692307,37.952799999999996C103.58974358974359,37.952799999999996,104.1025641025641,38.6952,104.61538461538463,38.8096C105.64102564102565,39.0384,106.66666666666667,39.1528,107.6923076923077,39.1528C108.2051282051282,39.1528,108.71794871794872,39.1336,109.23076923076923,39.1336C109.74358974358974,39.1336,110.25641025641026,39.1464,110.76923076923077,39.172C111.28205128205128,39.197599999999994,111.7948717948718,39.3904,112.3076923076923,39.3904C114.35897435897436,39.3904,116.41025641025641,39.24746666666667,118.46153846153847,39.2168C119.48717948717949,39.20146666666667,120.51282051282053,39.1912,121.53846153846155,39.1912C122.05128205128206,39.1912,122.56410256410257,39.20173333333334,123.07692307692308,39.2128C123.58974358974359,39.223866666666666,124.1025641025641,39.25173333333333,124.61538461538461,39.2576C125.12820512820512,39.263466666666666,125.64102564102564,39.2664,126.15384615384615,39.2664C126.66666666666666,39.2664,127.17948717948718,39.26266666666667,127.6923076923077,39.2552C128.2051282051282,39.247733333333336,128.71794871794873,39.2152,129.23076923076923,39.2152C130.25641025641025,39.2152,131.2820512820513,39.390488888888896,132.30769230769232,39.456C132.82051282051282,39.48875555555556,133.33333333333334,39.5432,133.84615384615384,39.5432C134.35897435897436,39.5432,134.87179487179486,39.537866666666666,135.3846153846154,39.528C135.89743589743588,39.51813333333333,136.4102564102564,39.49946666666667,136.9230769230769,39.484C137.43589743589743,39.46853333333333,137.94871794871796,39.45013333333333,138.46153846153848,39.4352C138.97435897435898,39.42026666666667,139.4871794871795,39.39813333333333,140,39.3944C140.51282051282053,39.39066666666667,141.02564102564102,39.39253333333333,141.53846153846155,39.3888C142.05128205128204,39.385066666666674,142.56410256410257,39.33933333333333,143.07692307692307,39.300799999999995C143.5897435897436,39.26226666666666,144.1025641025641,39.25306666666666,144.6153846153846,39.1576C145.12820512820514,39.06213333333334,145.64102564102564,38.196133333333336,146.15384615384616,37.8568C146.66666666666666,37.51746666666667,147.17948717948718,37.4004,147.69230769230768,37.1216C148.2051282051282,36.8428,148.7179487179487,36.434533333333334,149.23076923076923,36.184C149.74358974358975,35.93346666666666,150.25641025641025,35.995466666666665,150.76923076923077,35.6184C151.28205128205127,35.241333333333344,151.7948717948718,34.215599999999995,152.3076923076923,33.7144C152.82051282051282,33.213199999999986,153.33333333333331,33.2168,153.84615384615384,32.6112C154.35897435897436,32.005599999999994,154.87179487179486,30.1848,155.3846153846154,30.0808C155.8974358974359,29.9768,156.4102564102564,30.0288,156.92307692307693,29.9248C157.43589743589743,29.820800000000006,157.94871794871796,27.215199999999996,158.46153846153845,26.2072C158.97435897435898,25.199199999999987,159.48717948717947,24.705466666666666,160,23.8768C160.51282051282053,23.048133333333332,161.02564102564102,21.58506666666667,161.53846153846155,21.2352C162.05128205128204,20.88533333333333,162.56410256410257,20.977199999999996,163.07692307692307,20.7104C163.5897435897436,20.4436,164.1025641025641,19.772,164.6153846153846,19.6344C165.12820512820514,19.4968,165.64102564102564,19.5656,166.15384615384616,19.428C166.66666666666669,19.2904,167.17948717948718,18.0952,167.6923076923077,18.0952C168.2051282051282,18.0952,168.71794871794873,20.106666666666666,169.23076923076923,20.734399999999997C169.74358974358975,21.362133333333343,170.25641025641025,21.861600000000003,170.76923076923077,21.861600000000003C171.2820512820513,21.861600000000003,171.7948717948718,19.840400000000027,172.30769230769232,18.163200000000003C172.82051282051282,16.48600000000001,173.33333333333334,13.36773333333333,173.84615384615384,11.7984C174.35897435897436,10.229066666666643,174.87179487179486,9.496666666666668,175.3846153846154,8.7472C175.89743589743588,7.997733333333345,176.4102564102564,8.111599999999987,176.9230769230769,7.301600000000001C177.43589743589743,6.4916,177.94871794871793,4.2642666666666695,178.46153846153845,3.8872000000000018C178.97435897435898,3.510133333333334,179.48717948717947,3.415866666666667,180,3.3216"></path><path class="axis-ceiling" stroke-width="1" stroke="black" fill="none" d="M175,0L180,0"></path><text class="axis-ceiling-label" font-family="sans-serif" text-anchor="end" font-size="10px" x="170" y="2.5">50000</text></g></svg>