<svg xmlns="http://www.w3.org/2000/svg" viewBox="0 0 180 60"><g transform="translate(0,20)"><path class="area" fill="rgba(0, 0, 0, 0.2)" d="M0,23.555788C1.0169491525423728,23.518940666666666,2.0338983050847457,23.48209333333333,3.0508474576271185,23.44982C4.067796610169491,23.417546666666667,5.084745762711864,23.393592666666667,6.101694915254237,23.362148C7.11864406779661,23.330703333333336,8.135593220338983,23.296228000000003,9.152542372881356,23.261152000000003C10.169491525423728,23.226076000000003,11.186440677966102,23.189549333333332,12.203389830508474,23.151691999999997C13.220338983050846,23.113834666666662,14.23728813559322,23.066772,15.254237288135592,23.034008C16.271186440677965,23.001244,17.28813559322034,22.983839999999997,18.305084745762713,22.955107999999996C19.322033898305087,22.926375999999994,20.338983050847457,22.896036666666664,21.35593220338983,22.861615999999998C22.372881355932204,22.827195333333332,23.389830508474574,22.786205333333335,24.406779661016948,22.748584C25.423728813559322,22.710962666666667,26.440677966101696,22.680458,27.45762711864407,22.635888C28.47457627118644,22.591318,29.491525423728813,22.512833333333333,30.508474576271183,22.481164C31.525423728813557,22.449494666666666,32.54237288135593,22.464587333333334,33.559322033898304,22.43366C34.57627118644068,22.402732666666665,35.59322033898305,22.334633333333333,36.610169491525426,22.2956C37.6271186440678,22.256566666666668,38.644067796610166,22.228292000000003,39.66101694915254,22.199460000000002C40.67796610169491,22.170628,41.69491525423729,22.155771333333334,42.71186440677966,22.122608C43.728813559322035,22.089444666666665,44.7457627118644,22.032597333333328,45.762711864406775,22.000479999999996C46.77966101694915,21.968362666666664,47.79661016949152,21.950213333333334,48.813559322033896,21.929904C49.83050847457627,21.909594666666667,50.847457627118644,21.898166000000003,51.86440677966102,21.878624000000002C52.88135593220339,21.859082,53.898305084745765,21.838510666666668,54.91525423728814,21.812652C55.93220338983051,21.786793333333332,56.94915254237288,21.746668,57.96610169491525,21.723472C58.983050847457626,21.700276000000002,59.99999999999999,21.691222,61.01694915254237,21.673476C62.03389830508474,21.655730000000002,63.05084745762712,21.636509333333333,64.0677966101695,21.616996C65.08474576271186,21.597482666666668,66.10169491525424,21.574692,67.11864406779661,21.556396C68.13559322033899,21.5381,69.15254237288136,21.523453333333332,70.16949152542374,21.50722C71.1864406779661,21.490986666666668,72.20338983050848,21.475715333333333,73.22033898305085,21.458996C74.23728813559322,21.442276666666665,75.2542372881356,21.425754666666666,76.27118644067797,21.406904C77.28813559322033,21.388053333333335,78.30508474576271,21.364965333333334,79.32203389830508,21.345892C80.33898305084746,21.326818666666664,81.35593220338983,21.310056666666664,82.37288135593221,21.292464C83.38983050847457,21.274871333333333,84.40677966101696,21.257897333333332,85.42372881355932,21.240336C86.4406779661017,21.222774666666666,87.45762711864407,21.207292666666664,88.47457627118645,21.187095999999997C89.49152542372882,21.16689933333333,90.50847457627118,21.140101999999995,91.52542372881355,21.119155999999997C92.54237288135593,21.098209999999998,93.55932203389831,21.07887266666667,94.57627118644069,21.061420000000002C95.59322033898306,21.043967333333335,96.61016949152543,21.032886,97.62711864406779,21.01444C98.64406779661016,20.995994,99.66101694915254,20.970902666666664,100.6779661016949,20.950743999999997C101.69491525423729,20.93058533333333,102.71186440677965,20.909813999999997,103.72881355932203,20.893487999999998C104.7457627118644,20.877162,105.76271186440678,20.868345333333338,106.77966101694915,20.852788000000004C107.79661016949153,20.83723066666667,108.8135593220339,20.817890666666667,109.83050847457628,20.800144C110.84745762711864,20.782397333333332,111.86440677966102,20.763950666666666,112.88135593220339,20.746308C113.89830508474576,20.728665333333332,114.91525423728814,20.709976,115.9322033898305,20.694288C116.94915254237289,20.6786,117.96610169491525,20.67018,118.98305084745763,20.652179999999998C120,20.634179999999997,121.01694915254237,20.603752000000004,122.03389830508473,20.586288000000003C123.05084745762711,20.568824000000003,124.0677966101695,20.559560666666666,125.08474576271188,20.547396C126.10169491525424,20.535231333333332,127.11864406779662,20.52505,128.135593220339,20.5133C129.15254237288136,20.50155,130.16949152542372,20.49061933333333,131.1864406779661,20.476896C132.20338983050846,20.463172666666665,133.22033898305085,20.44609666666667,134.23728813559322,20.430960000000002C135.25423728813558,20.415823333333336,136.27118644067798,20.400504666666663,137.28813559322035,20.386075999999996C138.3050847457627,20.37164733333333,139.3220338983051,20.358672000000002,140.33898305084747,20.344388000000002C141.35593220338984,20.330104000000002,142.3728813559322,20.313732666666663,143.38983050847457,20.300371999999996C144.40677966101694,20.28701133333333,145.42372881355934,20.274902666666666,146.4406779661017,20.264224C147.45762711864407,20.25354533333333,148.47457627118644,20.248046,149.4915254237288,20.2363C150.50847457627117,20.224554,151.52542372881356,20.207904666666668,152.54237288135593,20.193748C153.5593220338983,20.17959133333333,154.5762711864407,20.164416666666668,155.59322033898306,20.15136C156.61016949152543,20.138303333333333,157.6271186440678,20.12687333333333,158.64406779661016,20.115407999999995C159.66101694915253,20.10394266666666,160.67796610169492,20.093556,161.6949152542373,20.082568C162.71186440677965,20.071579999999997,163.72881355932205,20.058909999999997,164.74576271186442,20.049479999999996C165.76271186440678,20.040049999999997,166.77966101694915,20.033821333333332,167.79661016949152,20.025987999999998C168.81355932203388,20.018154666666664,169.83050847457628,20.011592,170.84745762711864,20.00248C171.864406779661,19.993367999999997,172.8813559322034,19.983473999999998,173.89830508474577,19.971315999999998C174.91525423728814,19.959158,175.93220338983053,19.941918,176.9491525423729,19.929532000000002C177.96610169491527,19.917146000000002,178.98305084745763,19.907073,180,19.897L180,40C178.98305084745763,40,177.96610169491527,40,176.9491525423729,40C175.93220338983053,40,174.91525423728814,40,173.89830508474577,40C172.8813559322034,40,171.864406779661,40,170.84745762711864,40C169.83050847457628,40,168.81355932203388,40,167.79661016949152,40C166.77966101694915,40,165.76271186440678,40,164.74576271186442,40C163.72881355932205,40,162.71186440677965,40,161.6949152542373,40C160.67796610169492,40,159.66101694915253,40,158.64406779661016,40C157.6271186440678,40,156.61016949152543,40,155.59322033898306,40C154.5762711864407,40,153.5593220338983,40,152.54237288135593,40C151.52542372881356,40,150.50847457627117,40,149.4915254237288,40C148.47457627118644,40,147.45762711864407,40,146.4406779661017,40C145.42372881355934,40,144.40677966101694,40,143.38983050847457,40C142.3728813559322,40,141.35593220338984,40,140.33898305084747,40C139.3220338983051,40,138.3050847457627,40,137.28813559322035,40C136.27118644067798,40,135.25423728813558,40,134.23728813559322,40C133.22033898305085,40,132.20338983050846,40,131.1864406779661,40C130.16949152542372,40,129.15254237288136,40,128.135593220339,40C127.11864406779662,40,126.10169491525424,40,125.08474576271188,40C124.0677966101695,40,123.05084745762711,40,122.03389830508473,40C121.01694915254237,40,120,40,118.98305084745763,40C117.96610169491525,40,116.94915254237289,40,115.9322033898305,40C114.91525423728814,40,113.89830508474576,40,112.88135593220339,40C111.86440677966102,40,110.84745762711864,40,109.83050847457628,40C108.8135593220339,40,107.79661016949153,40,106.77966101694915,40C105.76271186440678,40,104.7457627118644,40,103.72881355932203,40C102.71186440677965,40,101.69491525423729,40,100.6779661016949,40C99.66101694915254,40,98.64406779661016,40,97.62711864406779,40C96.61016949152543,40,95.59322033898306,40,94.57627118644069,40C93.55932203389831,40,92.54237288135593,40,91.52542372881355,40C90.50847457627118,40,89.49152542372882,40,88.47457627118645,40C87.45762711864407,40,86.4406779661017,40,85.42372881355932,40C84.40677966101696,40,83.38983050847457,40,82.37288135593221,40C81.35593220338983,40,80.33898305084746,40,79.32203389830508,40C78.30508474576271,40,77.28813559322033,40,76.27118644067797,40C75.2542372881356,40,74.23728813559322,40,73.22033898305085,40C72.20338983050848,40,71.1864406779661,40,70.16949152542374,40C69.15254237288136,40,68.13559322033899,40,67.11864406779661,40C66.10169491525424,40,65.08474576271186,40,64.0677966101695,40C63.05084745762712,40,62.03389830508474,40,61.01694915254237,40C59.99999999999999,40,58.983050847457626,40,57.96610169491525,40C56.94915254237288,40,55.93220338983051,40,54.91525423728814,40C53.898305084745765,40,52.88135593220339,40,51.86440677966102,40C50.847457627118644,40,49.83050847457627,40,48.813559322033896,40C47.79661016949152,40,46.77966101694915,40,45.762711864406775,40C44.7457627118644,40,43.728813559322035,40,42.71186440677966,40C41.69491525423729,40,40.67796610169491,40,39.66101694915254,40C38.644067796610166,40,37.6271186440678,40,36.610169491525426,40C35.59322033898305,40,34.57627118644068,40,33.559322033898304,40C32.54237288135593,40,31.525423728813557,40,30.508474576271183,40C29.491525423728813,40,28.47457627118644,40,27.45762711864407,40C26.440677966101696,40,25.423728813559322,40,24.406779661016948,40C23.389830508474574,40,22.372881355932204,40,21.35593220338983,40C20.338983050847457,40,19.322033898305087,40,18.305084745762713,40C17.28813559322034,40,16.271186440677965,40,15.254237288135592,40C14.23728813559322,40,13.220338983050846,40,12.203389830508474,40C11.186440677966102,40,10.169491525423728,40,9.152542372881356,40C8.135593220338983,40,7.11864406779661,40,6.101694915254237,40C5.084745762711864,40,4.067796610169491,40,3.0508474576271185,40C2.0338983050847457,40,1.0169491525423728,40,0,40Z"></path><path class="line" stroke="black" fill="none" d="M0,23.555788C1.0169491525423728,23.518940666666666,2.0338983050847457,23.48209333333333,3.0508474576271185,23.44982C4.067796610169491,23.417546666666667,5.084745762711864,23.393592666666667,6.101694915254237,23.362148C7.11864406779661,23.330703333333336,8.135593220338983,23.296228000000003,9.152542372881356,23.261152000000003C10.169491525423728,23.226076000000003,11.186440677966102,23.189549333333332,12.203389830508474,23.151691999999997C13.220338983050846,23.113834666666662,14.23728813559322,23.066772,15.254237288135592,23.034008C16.271186440677965,23.001244,17.28813559322034,22.983839999999997,18.305084745762713,22.955107999999996C19.322033898305087,22.926375999999994,20.338983050847457,22.896036666666664,21.35593220338983,22.861615999999998C22.372881355932204,22.827195333333332,23.389830508474574,22.786205333333335,24.406779661016948,22.748584C25.423728813559322,22.710962666666667,26.440677966101696,22.680458,27.45762711864407,22.635888C28.47457627118644,22.591318,29.491525423728813,22.512833333333333,30.508474576271183,22.481164C31.525423728813557,22.449494666666666,32.54237288135593,22.464587333333334,33.559322033898304,22.43366C34.57627118644068,22.402732666666665,35.59322033898305,22.334633333333333,36.610169491525426,22.2956C37.6271186440678,22.256566666666668,38.644067796610166,22.228292000000003,39.66101694915254,22.199460000000002C40.67796610169491,22.170628,41.69491525423729,22.155771333333334,42.71186440677966,22.122608C43.728813559322035,22.089444666666665,44.7457627118644,22.032597333333328,45.762711864406775,22.000479999999996C46.77966101694915,21.968362666666664,47.79661016949152,21.950213333333334,48.813559322033896,21.929904C49.83050847457627,21.909594666666667,50.847457627118644,21.898166000000003,51.86440677966102,21.878624000000002C52.88135593220339,21.859082,53.898305084745765,21.838510666666668,54.91525423728814,21.812652C55.93220338983051,21.786793333333332,56.94915254237288,21.746668,57.96610169491525,21.723472C58.983050847457626,21.700276000000002,59.99999999999999,21.691222,61.01694915254237,21.673476C62.03389830508474,21.655730000000002,63.05084745762712,21.636509333333333,64.0677966101695,21.616996C65.08474576271186,21.597482666666668,66.10169491525424,21.574692,67.11864406779661,21.556396C68.13559322033899,21.5381,69.15254237288136,21.523453333333332,70.16949152542374,21.50722C71.1864406779661,21.490986666666668,72.20338983050848,21.475715333333333,73.22033898305085,21.458996C74.23728813559322,21.442276666666665,75.2542372881356,21.425754666666666,76.27118644067797,21.406904C77.28813559322033,21.388053333333335,78.30508474576271,21.364965333333334,79.32203389830508,21.345892C80.33898305084746,21.326818666666664,81.35593220338983,21.310056666666664,82.37288135593221,21.292464C83.38983050847457,21.274871333333333,84.40677966101696,21.257897333333332,85.42372881355932,21.240336C86.4406779661017,21.222774666666666,87.45762711864407,21.207292666666664,88.47457627118645,21.187095999999997C89.49152542372882,21.16689933333333,90.50847457627118,21.140101999999995,91.52542372881355,21.119155999999997C92.54237288135593,21.098209999999998,93.55932203389831,21.07887266666667,94.57627118644069,21.061420000000002C95.59322033898306,21.043967333333335,96.61016949152543,21.032886,97.62711864406779,21.01444C98.64406779661016,20.995994,99.66101694915254,20.970902666666664,100.6779661016949,20.950743999999997C101.69491525423729,20.93058533333333,102.71186440677965,20.909813999999997,103.72881355932203,20.893487999999998C104.7457627118644,20.877162,105.76271186440678,20.868345333333338,106.77966101694915,20.852788000000004C107.79661016949153,20.83723066666667,108.8135593220339,20.817890666666667,109.83050847457628,20.800144C110.84745762711864,20.782397333333332,111.86440677966102,20.763950666666666,112.88135593220339,20.746308C113.89830508474576,20.728665333333332,114.91525423728814,20.709976,115.9322033898305,20.694288C116.94915254237289,20.6786,117.96610169491525,20.67018,118.98305084745763,20.652179999999998C120,20.634179999999997,121.01694915254237,20.603752000000004,122.03389830508473,20.586288000000003C123.05084745762711,20.568824000000003,124.0677966101695,20.559560666666666,125.08474576271188,20.547396C126.10169491525424,20.535231333333332,127.11864406779662,20.52505,128.135593220339,20.5133C129.15254237288136,20.50155,130.16949152542372,20.49061933333333,131.1864406779661,20.476896C132.20338983050846,20.463172666666665,133.22033898305085,20.44609666666667,134.23728813559322,20.430960000000002C135.25423728813558,20.415823333333336,136.27118644067798,20.400504666666663,137.28813559322035,20.386075999999996C138.3050847457627,20.37164733333333,139.3220338983051,20.358672000000002,140.33898305084747,20.344388000000002C141.35593220338984,20.330104000000002,142.3728813559322,20.313732666666663,143.38983050847457,20.300371999999996C144.40677966101694,20.28701133333333,145.42372881355934,20.274902666666666,146.4406779661017,20.264224C147.45762711864407,20.25354533333333,148.47457627118644,20.248046,149.4915254237288,20.2363C150.50847457627117,20.224554,151.52542372881356,20.207904666666668,152.54237288135593,20.193748C153.5593220338983,20.17959133333333,154.5762711864407,20.164416666666668,155.59322033898306,20.15136C156.61016949152543,20.138303333333333,157.6271186440678,20.12687333333333,158.64406779661016,20.115407999999995C159.66101694915253,20.10394266666666,160.67796610169492,20.093556,161.6949152542373,20.082568C162.71186440677965,20.071579999999997,163.72881355932205,20.058909999999997,164.74576271186442,20.049479999999996C165.76271186440678,20.040049999999997,166.77966101694915,20.033821333333332,167.79661016949152,20.025987999999998C168.81355932203388,20.018154666666664,169.83050847457628,20.011592,170.84745762711864,20.00248C171.864406779661,19.993367999999997,172.8813559322034,19.983473999999998,173.89830508474577,19.971315999999998C174.91525423728814,19.959158,175.93220338983053,19.941918,176.9491525423729,19.929532000000002C177.96610169491527,19.917146000000002,178.98305084745763,19.907073,180,19.897"></path><path class="axis-ceiling" stroke-width="1" stroke="black" fill="none" d="M175,0L180,0"></path><text class="axis-ceiling-label" font-family="sans-serif" text-anchor="end" font-size="10px" x="170" y="2.5">10000000</text></g></svg>