<svg xmlns="http://www.w3.org/2000/svg" viewBox="0 0 180 60"><g transform="translate(0,20)"><path class="area" fill="rgba(0, 0, 0, 0.2)" d="M0,32.094552C0.576923076923077,32.01237088888889,1.1538461538461537,31.930189777777777,1.7307692307692308,31.866032C2.884615384615385,31.737716444444445,4.038461538461538,31.708422666666667,5.1923076923076925,31.625272C6.346153846153847,31.54212133333333,7.500000000000001,31.44852,8.653846153846155,31.367127999999997C9.807692307692308,31.285735999999996,10.961538461538462,31.221906666666666,12.115384615384615,31.13692C13.269230769230768,31.051933333333334,14.423076923076923,30.95972,15.576923076923077,30.857208C16.73076923076923,30.754696,17.884615384615383,30.621237333333333,19.038461538461537,30.521848C21.346153846153843,30.323069333333333,23.653846153846153,30.212821783549785,25.96153846153846,30.07428C29.999999999999996,29.83183187878788,34.03846153846153,29.864440000000002,38.07692307692307,29.44476C38.65384615384615,29.38480571428571,39.230769230769226,28.938115999999997,39.80769230769231,28.822224C42.11538461538461,28.358656,44.42307692307693,28.41492673015873,46.73076923076923,28.126872C48.46153846153846,27.91083095238095,50.19230769230769,27.879178666666665,51.92307692307692,27.383792C52.5,27.21866311111111,53.07692307692307,26.900457333333335,53.65384615384615,26.672872C54.23076923076923,26.445286666666668,54.80769230769231,26.19492044444445,55.38461538461539,26.018280000000004C56.53846153846154,25.66499911111112,57.69230769230769,25.57264,58.84615384615385,25.45712C63.46153846153846,24.99504,68.07692307692308,25.22608,72.6923076923077,24.764C73.84615384615384,24.64848,75,24.198970666666668,76.15384615384615,23.962488C80.76923076923076,23.01655733333333,85.38461538461539,23.489522666666666,90,22.543591999999997C91.15384615384616,22.30710933333333,92.3076923076923,21.451171555555554,93.46153846153847,21.019064C95.76923076923077,20.154848888888893,98.07692307692308,20.45912266666667,100.38461538461539,19.339240000000004C100.96153846153847,19.05926933333334,101.53846153846153,18.205861333333335,102.11538461538461,17.645816C102.6923076923077,17.085770666666665,103.26923076923076,16.224504,103.84615384615384,15.978968C106.15384615384615,14.996823999999998,108.46153846153847,15.306111111111111,110.76923076923077,14.505751999999998C111.92307692307692,14.105572444444443,113.07692307692308,13.56232444444444,114.23076923076923,13.073248C114.8076923076923,12.828709777777778,115.38461538461539,12.549770666666669,115.96153846153847,12.330952000000002C116.53846153846155,12.112133333333336,117.11538461538461,11.921770666666665,117.6923076923077,11.760335999999999C118.26923076923077,11.598901333333332,118.84615384615384,11.494841333333335,119.42307692307692,11.362344000000002C120,11.229846666666669,120.57692307692308,11.101568,121.15384615384616,10.965352C121.73076923076924,10.829136,122.3076923076923,10.666308,122.88461538461539,10.545048000000001C123.46153846153847,10.423788000000002,124.03846153846153,10.321917777777777,124.61538461538461,10.237791999999999C125.76923076923077,10.06954044444444,126.92307692307693,10.107516444444446,128.0769230769231,9.952551999999999C128.65384615384616,9.875069777777776,129.23076923076923,9.767871999999999,129.8076923076923,9.675192C130.38461538461536,9.582511999999998,130.96153846153845,9.49172133333333,131.53846153846152,9.396472C132.1153846153846,9.301222666666666,132.69230769230768,9.201641333333335,133.26923076923077,9.103696000000001C133.84615384615384,9.005750666666668,134.42307692307693,8.892929777777777,135,8.808799999999998C136.15384615384616,8.64054044444444,137.30769230769232,8.652245333333335,138.46153846153848,8.474048C139.03846153846155,8.384949333333333,139.61538461538464,8.252306666666666,140.1923076923077,8.156792C140.76923076923077,8.061277333333335,141.34615384615384,7.987002666666666,141.9230769230769,7.900960000000001C142.5,7.814917333333334,143.07692307692307,7.726692000000001,143.65384615384616,7.640536C144.23076923076923,7.55438,144.80769230769232,7.468625333333334,145.3846153846154,7.384024C145.96153846153845,7.299422666666667,146.53846153846155,7.215573333333333,147.1153846153846,7.132928000000001C147.69230769230768,7.050282666666668,148.26923076923077,6.9612,148.84615384615384,6.888152000000001C149.42307692307693,6.815104,150,6.7583920000000015,150.5769230769231,6.694640000000001C151.15384615384616,6.6308880000000014,151.73076923076923,6.570196000000001,152.3076923076923,6.505640000000001C152.88461538461536,6.441084000000001,153.46153846153845,6.3737520000000005,154.03846153846152,6.307304C154.6153846153846,6.240855999999999,155.19230769230768,6.1749279999999995,155.76923076923077,6.106951999999999C156.34615384615384,6.038975999999999,156.92307692307693,5.971174666666667,157.5,5.8994480000000005C158.07692307692307,5.827721333333334,158.65384615384616,5.747926666666666,159.23076923076923,5.676592C159.80769230769232,5.605257333333332,160.3846153846154,5.540794666666666,160.96153846153848,5.4714399999999985C161.53846153846155,5.402085333333332,162.11538461538464,5.331609333333332,162.6923076923077,5.260463999999998C163.26923076923077,5.189318666666665,163.84615384615384,5.11574133333333,164.4230769230769,5.044567999999998C165,4.973394666666664,165.57692307692307,4.904238666666668,166.15384615384616,4.833424000000002C166.73076923076923,4.762609333333336,167.30769230769232,4.688922666666668,167.8846153846154,4.619680000000002C168.46153846153845,4.550437333333335,169.03846153846155,4.480278666666668,169.6153846153846,4.417968000000001C170.19230769230768,4.355657333333334,170.76923076923077,4.304079999999998,171.34615384615384,4.245815999999998C171.92307692307693,4.187551999999997,172.5,4.125199999999999,173.0769230769231,4.068383999999998C173.65384615384616,4.011568,174.23076923076923,3.9572106666666667,174.8076923076923,3.9049200000000006C175.38461538461536,3.8526293333333337,175.96153846153845,3.803662666666667,176.53846153846152,3.75464C177.1153846153846,3.7056173333333327,177.69230769230768,3.6554159999999984,178.26923076923077,3.610783999999998C178.84615384615384,3.5661519999999984,179.42307692307693,3.526499999999999,180,3.486848L180,40C179.42307692307693,40,178.84615384615384,40,178.26923076923077,40C177.69230769230768,40,177.1153846153846,40,176.53846153846152,40C175.96153846153845,40,175.38461538461536,40,174.8076923076923,40C174.23076923076923,40,173.65384615384616,40,173.0769230769231,40C172.5,40,171.92307692307693,40,171.34615384615384,40C170.76923076923077,40,170.19230769230768,40,169.6153846153846,40C169.03846153846155,40,168.46153846153845,40,167.8846153846154,40C167.30769230769232,40,166.73076923076923,40,166.15384615384616,40C165.57692307692307,40,165,40,164.4230769230769,40C163.84615384615384,40,163.26923076923077,40,162.6923076923077,40C162.11538461538464,40,161.53846153846155,40,160.96153846153848,40C160.3846153846154,40,159.80769230769232,40,159.23076923076923,40C158.65384615384616,40,158.07692307692307,40,157.5,40C156.92307692307693,40,156.34615384615384,40,155.76923076923077,40C155.19230769230768,40,154.6153846153846,40,154.03846153846152,40C153.46153846153845,40,152.88461538461536,40,152.3076923076923,40C151.73076923076923,40,151.15384615384616,40,150.5769230769231,40C150,40,149.42307692307693,40,148.84615384615384,40C148.26923076923077,40,147.69230769230768,40,147.1153846153846,40C146.53846153846155,40,145.96153846153845,40,145.3846153846154,40C144.80769230769232,40,144.23076923076923,40,143.65384615384616,40C143.07692307692307,40,142.5,40,141.9230769230769,40C141.34615384615384,40,140.76923076923077,40,140.1923076923077,40C139.61538461538464,40,139.03846153846155,40,138.46153846153848,40C137.30769230769232,40,136.15384615384616,40,135,40C134.42307692307693,40,133.84615384615384,40,133.26923076923077,40C132.69230769230768,40,132.1153846153846,40,131.53846153846152,40C130.96153846153845,40,130.38461538461536,40,129.8076923076923,40C129.23076923076923,40,128.65384615384616,40,128.0769230769231,40C126.92307692307693,40,125.76923076923077,40,124.61538461538461,40C124.03846153846153,40,123.46153846153847,40,122.88461538461539,40C122.3076923076923,40,121.73076923076924,40,121.15384615384616,40C120.57692307692308,40,120,40,119.42307692307692,40C118.84615384615384,40,118.26923076923077,40,117.6923076923077,40C117.11538461538461,40,116.53846153846155,40,115.96153846153847,40C115.38461538461539,40,114.8076923076923,40,114.23076923076923,40C113.07692307692308,40,111.92307692307692,40,110.76923076923077,40C108.46153846153847,40,106.15384615384615,40,103.84615384615384,40C103.26923076923076,40,102.6923076923077,40,102.11538461538461,40C101.53846153846153,40,100.96153846153847,40,100.38461538461539,40C98.07692307692308,40,95.76923076923077,40,93.46153846153847,40C92.3076923076923,40,91.15384615384616,40,90,40C85.38461538461539,40,80.76923076923076,40,76.15384615384615,40C75,40,73.84615384615384,40,72.6923076923077,40C68.07692307692308,40,63.46153846153846,40,58.84615384615385,40C57.69230769230769,40,56.53846153846154,40,55.38461538461539,40C54.80769230769231,40,54.23076923076923,40,53.65384615384615,40C53.07692307692307,40,52.5,40,51.92307692307692,40C50.19230769230769,40,48.46153846153846,40,46.73076923076923,40C44.42307692307693,40,42.11538461538461,40,39.80769230769231,40C39.230769230769226,40,38.65384615384615,40,38.07692307692307,40C34.03846153846153,40,29.999999999999996,40,25.96153846153846,40C23.653846153846153,40,21.346153846153843,40,19.038461538461537,40C17.884615384615383,40,16.73076923076923,40,15.576923076923077,40C14.423076923076923,40,13.269230769230768,40,12.115384615384615,40C10.961538461538462,40,9.807692307692308,40,8.653846153846155,40C7.500000000000001,40,6.346153846153847,40,5.1923076923076925,40C4.038461538461538,40,2.884615384615385,40,1.7307692307692308,40C1.1538461538461537,40,0.576923076923077,40,0,40Z"></path><path class="line" stroke="black" fill="none" d="M0,32.094552C0.576923076923077,32.01237088888889,1.1538461538461537,31.930189777777777,1.7307692307692308,31.866032C2.884615384615385,31.737716444444445,4.038461538461538,31.708422666666667,5.1923076923076925,31.625272C6.346153846153847,31.54212133333333,7.500000000000001,31.44852,8.653846153846155,31.367127999999997C9.807692307692308,31.285735999999996,10.961538461538462,31.221906666666666,12.115384615384615,31.13692C13.269230769230768,31.051933333333334,14.423076923076923,30.95972,15.576923076923077,30.857208C16.73076923076923,30.754696,17.884615384615383,30.621237333333333,19.038461538461537,30.521848C21.346153846153843,30.323069333333333,23.653846153846153,30.212821783549785,25.96153846153846,30.07428C29.999999999999996,29.83183187878788,34.03846153846153,29.864440000000002,38.07692307692307,29.44476C38.65384615384615,29.38480571428571,39.230769230769226,28.938115999999997,39.80769230769231,28.822224C42.11538461538461,28.358656,44.42307692307693,28.41492673015873,46.73076923076923,28.126872C48.46153846153846,27.91083095238095,50.19230769230769,27.879178666666665,51.92307692307692,27.383792C52.5,27.21866311111111,53.07692307692307,26.900457333333335,53.65384615384615,26.672872C54.23076923076923,26.445286666666668,54.80769230769231,26.19492044444445,55.38461538461539,26.018280000000004C56.53846153846154,25.66499911111112,57.69230769230769,25.57264,58.84615384615385,25.45712C63.46153846153846,24.99504,68.07692307692308,25.22608,72.6923076923077,24.764C73.84615384615384,24.64848,75,24.198970666666668,76.15384615384615,23.962488C80.76923076923076,23.01655733333333,85.38461538461539,23.489522666666666,90,22.543591999999997C91.15384615384616,22.30710933333333,92.3076923076923,21.451171555555554,93.46153846153847,21.019064C95.76923076923077,20.154848888888893,98.07692307692308,20.45912266666667,100.38461538461539,19.339240000000004C100.96153846153847,19.05926933333334,101.53846153846153,18.205861333333335,102.11538461538461,17.645816C102.6923076923077,17.085770666666665,103.26923076923076,16.224504,103.84615384615384,15.978968C106.15384615384615,14.996823999999998,108.46153846153847,15.306111111111111,110.76923076923077,14.505751999999998C111.92307692307692,14.105572444444443,113.07692307692308,13.56232444444444,114.23076923076923,13.073248C114.8076923076923,12.828709777777778,115.38461538461539,12.549770666666669,115.96153846153847,12.330952000000002C116.53846153846155,12.112133333333336,117.11538461538461,11.921770666666665,117.6923076923077,11.760335999999999C118.26923076923077,11.598901333333332,118.84615384615384,11.494841333333335,119.42307692307692,11.362344000000002C120,11.229846666666669,120.57692307692308,11.101568,121.15384615384616,10.965352C121.73076923076924,10.829136,122.3076923076923,10.666308,122.88461538461539,10.545048000000001C123.46153846153847,10.423788000000002,124.03846153846153,10.321917777777777,124.61538461538461,10.237791999999999C125.76923076923077,10.06954044444444,126.92307692307693,10.107516444444446,128.0769230769231,9.952551999999999C128.65384615384616,9.875069777777776,129.23076923076923,9.767871999999999,129.8076923076923,9.675192C130.38461538461536,9.582511999999998,130.96153846153845,9.49172133333333,131.53846153846152,9.396472C132.1153846153846,9.301222666666666,132.69230769230768,9.201641333333335,133.26923076923077,9.103696000000001C133.84615384615384,9.005750666666668,134.42307692307693,8.892929777777777,135,8.808799999999998C136.15384615384616,8.64054044444444,137.30769230769232,8.652245333333335,138.46153846153848,8.474048C139.03846153846155,8.384949333333333,139.61538461538464,8.252306666666666,140.1923076923077,8.156792C140.76923076923077,8.061277333333335,141.34615384615384,7.987002666666666,141.9230769230769,7.900960000000001C142.5,7.814917333333334,143.07692307692307,7.726692000000001,143.65384615384616,7.640536C144.23076923076923,7.55438,144.80769230769232,7.468625333333334,145.3846153846154,7.384024C145.96153846153845,7.299422666666667,146.53846153846155,7.215573333333333,147.1153846153846,7.132928000000001C147.69230769230768,7.050282666666668,148.26923076923077,6.9612,148.84615384615384,6.888152000000001C149.42307692307693,6.815104,150,6.7583920000000015,150.5769230769231,6.694640000000001C151.15384615384616,6.6308880000000014,151.73076923076923,6.570196000000001,152.3076923076923,6.505640000000001C152.88461538461536,6.441084000000001,153.46153846153845,6.3737520000000005,154.03846153846152,6.307304C154.6153846153846,6.240855999999999,155.19230769230768,6.1749279999999995,155.76923076923077,6.106951999999999C156.34615384615384,6.038975999999999,156.92307692307693,5.971174666666667,157.5,5.8994480000000005C158.07692307692307,5.827721333333334,158.65384615384616,5.747926666666666,159.23076923076923,5.676592C159.80769230769232,5.605257333333332,160.3846153846154,5.540794666666666,160.96153846153848,5.4714399999999985C161.53846153846155,5.402085333333332,162.11538461538464,5.331609333333332,162.6923076923077,5.260463999999998C163.26923076923077,5.189318666666665,163.84615384615384,5.11574133333333,164.4230769230769,5.044567999999998C165,4.973394666666664,165.57692307692307,4.904238666666668,166.15384615384616,4.833424000000002C166.73076923076923,4.762609333333336,167.30769230769232,4.688922666666668,167.8846153846154,4.619680000000002C168.46153846153845,4.550437333333335,169.03846153846155,4.480278666666668,169.6153846153846,4.417968000000001C170.19230769230768,4.355657333333334,170.76923076923077,4.304079999999998,171.34615384615384,4.245815999999998C171.92307692307693,4.187551999999997,172.5,4.125199999999999,173.0769230769231,4.068383999999998C173.65384615384616,4.011568,174.23076923076923,3.9572106666666667,174.8076923076923,3.9049200000000006C175.38461538461536,3.8526293333333337,175.96153846153845,3.803662666666667,176.53846153846152,3.75464C177.1153846153846,3.7056173333333327,177.69230769230768,3.6554159999999984,178.26923076923077,3.610783999999998C178.84615384615384,3.5661519999999984,179.42307692307693,3.526499999999999,180,3.486848"></path><path class="axis-ceiling" stroke-width="1" stroke="black" fill="none" d="M175,0L180,0"></path><text class="axis-ceiling-label" font-family="sans-serif" text-anchor="end" font-size="10px" x="170" y="2.5">5000000</text></g></svg>