<svg xmlns="http://www.w3.org/2000/svg" viewBox="0 0 180 60"><g transform="translate(0,20)"><path class="area" fill="rgba(0, 0, 0, 0.2)" d="M0,12.41511111111111C1.0169491525423728,8.694666666666665,2.0338983050847457,4.974222222222222,3.0508474576271185,4.974222222222222C4.067796610169491,4.974222222222222,5.084745762711864,5.0986666666666665,6.101694915254237,5.347555555555554C7.11864406779661,5.596444444444442,8.135593220338983,7.265925925925924,9.152542372881356,8.136888888888887C10.169491525423728,9.00785185185185,11.186440677966102,8.949037037037035,12.203389830508474,10.573333333333332C13.220338983050846,12.19762962962963,14.23728813559322,20.02133333333333,15.254237288135592,20.02133333333333C16.271186440677965,20.02133333333333,17.28813559322034,18.59007407407407,18.305084745762713,17.47733333333333C19.322033898305087,16.36459259259259,20.338983050847457,14.464740740740742,21.35593220338983,13.34488888888889C22.372881355932204,12.225037037037039,23.389830508474574,12.38444444444444,24.406779661016948,10.75822222222222C25.423728813559322,9.131999999999998,26.440677966101696,3.587555555555557,27.45762711864407,3.587555555555557C28.47457627118644,3.587555555555557,29.491525423728813,7.8266666666666715,30.508474576271183,10.388444444444445C31.525423728813557,12.950222222222225,32.54237288135593,16.275703703703705,33.559322033898304,18.958222222222222C34.57627118644068,21.64074074074074,35.59322033898305,26.483555555555558,36.610169491525426,26.483555555555558C37.6271186440678,26.483555555555558,38.644067796610166,16.451555555555558,39.66101694915254,16.451555555555558C40.67796610169491,16.451555555555558,41.69491525423729,20.517333333333333,42.71186440677966,20.517333333333333C43.728813559322035,20.517333333333333,44.7457627118644,18.363407407407408,45.762711864406775,17.556444444444445C46.77966101694915,16.74948148148148,47.79661016949152,16.293629629629628,48.813559322033896,15.675555555555555C49.83050847457627,15.05748148148148,50.847457627118644,13.847999999999999,51.86440677966102,13.847999999999999C52.88135593220339,13.847999999999999,53.898305084745765,22.466666666666665,54.91525423728814,22.466666666666665C55.93220338983051,22.466666666666665,56.94915254237288,20.48814814814815,57.96610169491525,19.224C58.983050847457626,17.95985185185185,59.99999999999999,14.881777777777776,61.01694915254237,14.881777777777776C62.03389830508474,14.881777777777776,63.05084745762712,14.956444444444443,64.0677966101695,14.956444444444443C65.08474576271186,14.956444444444443,66.10169491525424,5.616888888888889,67.11864406779661,5.616888888888889C68.13559322033899,5.616888888888889,69.15254237288136,29.443555555555555,70.16949152542374,29.443555555555555C71.1864406779661,29.443555555555555,72.20338983050848,9.32,73.22033898305085,9.32C74.23728813559322,9.32,75.2542372881356,16.36859259259259,76.27118644067797,18.635555555555555C77.28813559322033,20.90251851851852,78.30508474576271,22.921777777777777,79.32203389830508,22.921777777777777C80.33898305084746,22.921777777777777,81.35593220338983,12.860444444444443,82.37288135593221,12.860444444444443C83.38983050847457,12.860444444444443,84.40677966101696,21.692444444444444,85.42372881355932,24.316444444444443C86.4406779661017,26.940444444444452,87.45762711864407,28.60444444444444,88.47457627118645,28.60444444444444C89.49152542372882,28.60444444444444,90.50847457627118,26.743259259259244,91.52542372881355,25.339555555555556C92.54237288135593,23.935851851851847,93.55932203389831,20.182222222222222,94.57627118644069,20.182222222222222C95.59322033898306,20.182222222222222,96.61016949152543,28.88977777777778,97.62711864406779,28.88977777777778C98.64406779661016,28.88977777777778,99.66101694915254,27.841629629629633,100.6779661016949,27.44888888888889C101.69491525423729,27.05614814814815,102.71186440677965,26.53333333333333,103.72881355932203,26.53333333333333C104.7457627118644,26.53333333333333,105.76271186440678,28.930962962962962,106.77966101694915,29.072C107.79661016949153,29.213037037037036,108.8135593220339,29.283555555555555,109.83050847457628,29.283555555555555C110.84745762711864,29.283555555555555,111.86440677966102,28.89762962962963,112.88135593220339,28.424C113.89830508474576,27.95037037037037,114.91525423728814,26.441777777777776,115.9322033898305,26.441777777777776C116.94915254237289,26.441777777777776,117.96610169491525,27.93451851851852,118.98305084745763,28.127111111111113C120,28.319703703703702,121.01694915254237,28.415999999999997,122.03389830508473,28.415999999999997C123.05084745762711,28.415999999999997,124.0677966101695,28.33362962962963,125.08474576271188,28.168888888888894C126.10169491525424,28.00414814814816,127.11864406779662,24.90222222222222,128.135593220339,24.90222222222222C129.15254237288136,24.90222222222222,130.16949152542372,26.393481481481487,131.1864406779661,27.169777777777778C132.20338983050846,27.946074074074076,133.22033898305085,29.56,134.23728813559322,29.56C135.25423728813558,29.56,136.27118644067798,25.845333333333333,137.28813559322035,25.845333333333333C138.3050847457627,25.845333333333333,139.3220338983051,26.42474074074073,140.33898305084747,27.276444444444444C141.35593220338984,28.128148148148146,142.3728813559322,30.955555555555556,143.38983050847457,30.955555555555556C144.40677966101694,30.955555555555556,145.42372881355934,28.477925925925927,146.4406779661017,28.301333333333332C147.45762711864407,28.124740740740737,148.47457627118644,28.03644444444444,149.4915254237288,28.03644444444444C150.50847457627117,28.03644444444444,151.52542372881356,28.170962962962964,152.54237288135593,28.440000000000005C153.5593220338983,28.709037037037046,154.5762711864407,30.642666666666667,155.59322033898306,30.642666666666667C156.61016949152543,30.642666666666667,157.6271186440678,25.357333333333333,158.64406779661016,25.357333333333333C159.66101694915253,25.357333333333333,160.67796610169492,30.64681481481482,161.6949152542373,31.357333333333337C162.71186440677965,32.067851851851856,163.72881355932205,32.42311111111111,164.74576271186442,32.42311111111111C165.76271186440678,32.42311111111111,166.77966101694915,32.25214814814815,167.79661016949152,31.910222222222224C168.81355932203388,31.568296296296296,169.83050847457628,29.792,170.84745762711864,29.792C171.864406779661,29.792,172.8813559322034,29.869925925925926,173.89830508474577,30.025777777777776C174.91525423728814,30.181629629629626,175.93220338983053,32.45777777777778,176.9491525423729,32.45777777777778C177.96610169491527,32.45777777777778,178.98305084745763,32.154222222222224,180,31.85066666666667L180,40C178.98305084745763,40,177.96610169491527,40,176.9491525423729,40C175.93220338983053,40,174.91525423728814,40,173.89830508474577,40C172.8813559322034,40,171.864406779661,40,170.84745762711864,40C169.83050847457628,40,168.81355932203388,40,167.79661016949152,40C166.77966101694915,40,165.76271186440678,40,164.74576271186442,40C163.72881355932205,40,162.71186440677965,40,161.6949152542373,40C160.67796610169492,40,159.66101694915253,40,158.64406779661016,40C157.6271186440678,40,156.61016949152543,40,155.59322033898306,40C154.5762711864407,40,153.5593220338983,40,152.54237288135593,40C151.52542372881356,40,150.50847457627117,40,149.4915254237288,40C148.47457627118644,40,147.45762711864407,40,146.4406779661017,40C145.42372881355934,40,144.40677966101694,40,143.38983050847457,40C142.3728813559322,40,141.35593220338984,40,140.33898305084747,40C139.3220338983051,40,138.3050847457627,40,137.28813559322035,40C136.27118644067798,40,135.25423728813558,40,134.23728813559322,40C133.22033898305085,40,132.20338983050846,40,131.1864406779661,40C130.16949152542372,40,129.15254237288136,40,128.135593220339,40C127.11864406779662,40,126.10169491525424,40,125.08474576271188,40C124.0677966101695,40,123.05084745762711,40,122.03389830508473,40C121.01694915254237,40,120,40,118.98305084745763,40C117.96610169491525,40,116.94915254237289,40,115.9322033898305,40C114.91525423728814,40,113.89830508474576,40,112.88135593220339,40C111.86440677966102,40,110.84745762711864,40,109.83050847457628,40C108.8135593220339,40,107.79661016949153,40,106.77966101694915,40C105.76271186440678,40,104.7457627118644,40,103.72881355932203,40C102.71186440677965,40,101.69491525423729,40,100.6779661016949,40C99.66101694915254,40,98.64406779661016,40,97.62711864406779,40C96.61016949152543,40,95.59322033898306,40,94.57627118644069,40C93.55932203389831,40,92.54237288135593,40,91.52542372881355,40C90.50847457627118,40,89.49152542372882,40,88.47457627118645,40C87.45762711864407,40,86.4406779661017,40,85.42372881355932,40C84.40677966101696,40,83.38983050847457,40,82.37288135593221,40C81.35593220338983,40,80.33898305084746,40,79.32203389830508,40C78.30508474576271,40,77.28813559322033,40,76.27118644067797,40C75.2542372881356,40,74.23728813559322,40,73.22033898305085,40C72.20338983050848,40,71.1864406779661,40,70.16949152542374,40C69.15254237288136,40,68.13559322033899,40,67.11864406779661,40C66.10169491525424,40,65.08474576271186,40,64.0677966101695,40C63.05084745762712,40,62.03389830508474,40,61.01694915254237,40C59.99999999999999,40,58.983050847457626,40,57.96610169491525,40C56.94915254237288,40,55.93220338983051,40,54.91525423728814,40C53.898305084745765,40,52.88135593220339,40,51.86440677966102,40C50.847457627118644,40,49.83050847457627,40,48.813559322033896,40C47.79661016949152,40,46.77966101694915,40,45.762711864406775,40C44.7457627118644,40,43.728813559322035,40,42.71186440677966,40C41.69491525423729,40,40.67796610169491,40,39.66101694915254,40C38.644067796610166,40,37.6271186440678,40,36.610169491525426,40C35.59322033898305,40,34.57627118644068,40,33.559322033898304,40C32.54237288135593,40,31.525423728813557,40,30.508474576271183,40C29.491525423728813,40,28.47457627118644,40,27.45762711864407,40C26.440677966101696,40,25.423728813559322,40,24.406779661016948,40C23.389830508474574,40,22.372881355932204,40,21.35593220338983,40C20.338983050847457,40,19.322033898305087,40,18.305084745762713,40C17.28813559322034,40,16.271186440677965,40,15.254237288135592,40C14.23728813559322,40,13.220338983050846,40,12.203389830508474,40C11.186440677966102,40,10.169491525423728,40,9.152542372881356,40C8.135593220338983,40,7.11864406779661,40,6.101694915254237,40C5.084745762711864,40,4.067796610169491,40,3.0508474576271185,40C2.0338983050847457,40,1.0169491525423728,40,0,40Z"></path><path class="line" stroke="black" fill="none" d="M0,12.41511111111111C1.0169491525423728,8.694666666666665,2.0338983050847457,4.974222222222222,3.0508474576271185,4.974222222222222C4.067796610169491,4.974222222222222,5.084745762711864,5.0986666666666665,6.101694915254237,5.347555555555554C7.11864406779661,5.596444444444442,8.135593220338983,7.265925925925924,9.152542372881356,8.136888888888887C10.169491525423728,9.00785185185185,11.186440677966102,8.949037037037035,12.203389830508474,10.573333333333332C13.220338983050846,12.19762962962963,14.23728813559322,20.02133333333333,15.254237288135592,20.02133333333333C16.271186440677965,20.02133333333333,17.28813559322034,18.59007407407407,18.305084745762713,17.47733333333333C19.322033898305087,16.36459259259259,20.338983050847457,14.464740740740742,21.35593220338983,13.34488888888889C22.372881355932204,12.225037037037039,23.389830508474574,12.38444444444444,24.406779661016948,10.75822222222222C25.423728813559322,9.131999999999998,26.440677966101696,3.587555555555557,27.45762711864407,3.587555555555557C28.47457627118644,3.587555555555557,29.491525423728813,7.8266666666666715,30.508474576271183,10.388444444444445C31.525423728813557,12.950222222222225,32.54237288135593,16.275703703703705,33.559322033898304,18.958222222222222C34.57627118644068,21.64074074074074,35.59322033898305,26.483555555555558,36.610169491525426,26.483555555555558C37.6271186440678,26.483555555555558,38.644067796610166,16.451555555555558,39.66101694915254,16.451555555555558C40.67796610169491,16.451555555555558,41.69491525423729,20.517333333333333,42.71186440677966,20.517333333333333C43.728813559322035,20.517333333333333,44.7457627118644,18.363407407407408,45.762711864406775,17.556444444444445C46.77966101694915,16.74948148148148,47.79661016949152,16.293629629629628,48.813559322033896,15.675555555555555C49.83050847457627,15.05748148148148,50.847457627118644,13.847999999999999,51.86440677966102,13.847999999999999C52.88135593220339,13.847999999999999,53.898305084745765,22.466666666666665,54.91525423728814,22.466666666666665C55.93220338983051,22.466666666666665,56.94915254237288,20.48814814814815,57.96610169491525,19.224C58.983050847457626,17.95985185185185,59.99999999999999,14.881777777777776,61.01694915254237,14.881777777777776C62.03389830508474,14.881777777777776,63.05084745762712,14.956444444444443,64.0677966101695,14.956444444444443C65.08474576271186,14.956444444444443,66.10169491525424,5.616888888888889,67.11864406779661,5.616888888888889C68.13559322033899,5.616888888888889,69.15254237288136,29.443555555555555,70.16949152542374,29.443555555555555C71.1864406779661,29.443555555555555,72.20338983050848,9.32,73.22033898305085,9.32C74.23728813559322,9.32,75.2542372881356,16.36859259259259,76.27118644067797,18.635555555555555C77.28813559322033,20.90251851851852,78.30508474576271,22.921777777777777,79.32203389830508,22.921777777777777C80.33898305084746,22.921777777777777,81.35593220338983,12.860444444444443,82.37288135593221,12.860444444444443C83.38983050847457,12.860444444444443,84.40677966101696,21.692444444444444,85.42372881355932,24.316444444444443C86.4406779661017,26.940444444444452,87.45762711864407,28.60444444444444,88.47457627118645,28.60444444444444C89.49152542372882,28.60444444444444,90.50847457627118,26.743259259259244,91.52542372881355,25.339555555555556C92.54237288135593,23.935851851851847,93.55932203389831,20.182222222222222,94.57627118644069,20.182222222222222C95.59322033898306,20.182222222222222,96.61016949152543,28.88977777777778,97.62711864406779,28.88977777777778C98.64406779661016,28.88977777777778,99.66101694915254,27.841629629629633,100.6779661016949,27.44888888888889C101.69491525423729,27.05614814814815,102.71186440677965,26.53333333333333,103.72881355932203,26.53333333333333C104.7457627118644,26.53333333333333,105.76271186440678,28.930962962962962,106.77966101694915,29.072C107.79661016949153,29.213037037037036,108.8135593220339,29.283555555555555,109.83050847457628,29.283555555555555C110.84745762711864,29.283555555555555,111.86440677966102,28.89762962962963,112.88135593220339,28.424C113.89830508474576,27.95037037037037,114.91525423728814,26.441777777777776,115.9322033898305,26.441777777777776C116.94915254237289,26.441777777777776,117.96610169491525,27.93451851851852,118.98305084745763,28.127111111111113C120,28.319703703703702,121.01694915254237,28.415999999999997,122.03389830508473,28.415999999999997C123.05084745762711,28.415999999999997,124.0677966101695,28.33362962962963,125.08474576271188,28.168888888888894C126.10169491525424,28.00414814814816,127.11864406779662,24.90222222222222,128.135593220339,24.90222222222222C129.15254237288136,24.90222222222222,130.16949152542372,26.393481481481487,131.1864406779661,27.169777777777778C132.20338983050846,27.946074074074076,133.22033898305085,29.56,134.23728813559322,29.56C135.25423728813558,29.56,136.27118644067798,25.845333333333333,137.28813559322035,25.845333333333333C138.3050847457627,25.845333333333333,139.3220338983051,26.42474074074073,140.33898305084747,27.276444444444444C141.35593220338984,28.128148148148146,142.3728813559322,30.955555555555556,143.38983050847457,30.955555555555556C144.40677966101694,30.955555555555556,145.42372881355934,28.477925925925927,146.4406779661017,28.301333333333332C147.45762711864407,28.124740740740737,148.47457627118644,28.03644444444444,149.4915254237288,28.03644444444444C150.50847457627117,28.03644444444444,151.52542372881356,28.170962962962964,152.54237288135593,28.440000000000005C153.5593220338983,28.709037037037046,154.5762711864407,30.642666666666667,155.59322033898306,30.642666666666667C156.61016949152543,30.642666666666667,157.6271186440678,25.357333333333333,158.64406779661016,25.357333333333333C159.66101694915253,25.357333333333333,160.67796610169492,30.64681481481482,161.6949152542373,31.357333333333337C162.71186440677965,32.067851851851856,163.72881355932205,32.42311111111111,164.74576271186442,32.42311111111111C165.76271186440678,32.42311111111111,166.77966101694915,32.25214814814815,167.79661016949152,31.910222222222224C168.81355932203388,31.568296296296296,169.83050847457628,29.792,170.84745762711864,29.792C171.864406779661,29.792,172.8813559322034,29.869925925925926,173.89830508474577,30.025777777777776C174.91525423728814,30.181629629629626,175.93220338983053,32.45777777777778,176.9491525423729,32.45777777777778C177.96610169491527,32.45777777777778,178.98305084745763,32.154222222222224,180,31.85066666666667"></path><path class="axis-ceiling" stroke-width="1" stroke="black" fill="none" d="M175,0L180,0"></path><text class="axis-ceiling-label" font-family="sans-serif" text-anchor="end" font-size="10px" x="170" y="2.5">45000</text></g></svg>