<svg xmlns="http://www.w3.org/2000/svg" viewBox="0 0 180 60"><g transform="translate(0,20)"><path class="area" fill="rgba(0, 0, 0, 0.2)" d="M0,19.7336C1.0169491525423728,18.809966666666664,2.0338983050847457,17.886333333333333,3.0508474576271185,17.1148C4.067796610169491,16.343266666666665,5.084745762711864,15.6814,6.101694915254237,15.1044C7.11864406779661,14.5274,8.135593220338983,14.201733333333333,9.152542372881356,13.6528C10.169491525423728,13.103866666666667,11.186440677966102,12.604866666666666,12.203389830508474,11.8108C13.220338983050846,11.016733333333335,14.23728813559322,9.538933333333334,15.254237288135592,8.8884C16.271186440677965,8.237866666666667,17.28813559322034,8.100933333333334,18.305084745762713,7.907600000000001C19.322033898305087,7.714266666666669,20.338983050847457,7.718133333333335,21.35593220338983,7.617600000000002C22.372881355932204,7.517066666666669,23.389830508474574,7.513200000000002,24.406779661016948,7.304400000000002C25.423728813559322,7.095600000000002,26.440677966101696,4.955599999999998,27.45762711864407,4.955599999999998C28.47457627118644,4.955599999999998,29.491525423728813,5.119066666666665,30.508474576271183,5.446C31.525423728813557,5.772933333333335,32.54237288135593,7.195066666666669,33.559322033898304,8.288000000000002C34.57627118644068,9.380933333333335,35.59322033898305,10.668599999999998,36.610169491525426,12.003599999999999C37.6271186440678,13.338599999999996,38.644067796610166,15.203599999999998,39.66101694915254,16.298C40.67796610169491,17.392400000000002,41.69491525423729,17.644333333333332,42.71186440677966,18.57C43.728813559322035,19.495666666666665,44.7457627118644,20.567933333333336,45.762711864406775,21.852C46.77966101694915,23.136066666666668,47.79661016949152,25.1494,48.813559322033896,26.2744C49.83050847457627,27.3994,50.847457627118644,28.51106666666666,51.86440677966102,28.601999999999997C52.88135593220339,28.692933333333333,53.898305084745765,28.7384,54.91525423728814,28.7384C55.93220338983051,28.7384,56.94915254237288,28.2308,57.96610169491525,27.9544C58.983050847457626,27.678,59.99999999999999,27.4068,61.01694915254237,27.080000000000002C62.03389830508474,26.7532,63.05084745762712,26.273400000000002,64.0677966101695,25.9936C65.08474576271186,25.713800000000003,66.10169491525424,25.5342,67.11864406779661,25.4012C68.13559322033899,25.2682,69.15254237288136,25.195600000000002,70.16949152542374,25.195600000000002C71.1864406779661,25.195600000000002,72.20338983050848,25.900333333333332,73.22033898305085,26.1376C74.23728813559322,26.374866666666666,75.2542372881356,26.497933333333336,76.27118644067797,26.619200000000003C77.28813559322033,26.74046666666667,78.30508474576271,26.865199999999998,79.32203389830508,26.865199999999998C80.33898305084746,26.865199999999998,81.35593220338983,26.768,82.37288135593221,26.768C83.38983050847457,26.768,84.40677966101696,27.63,85.42372881355932,27.63C86.4406779661017,27.63,87.45762711864407,27.416400000000003,88.47457627118645,27.416400000000003C89.49152542372882,27.416400000000003,90.50847457627118,27.512,91.52542372881355,27.512C92.54237288135593,27.512,93.55932203389831,27.075199999999995,94.57627118644069,27.075199999999995C95.59322033898306,27.075199999999995,96.61016949152543,27.095199999999995,97.62711864406779,27.135199999999998C98.64406779661016,27.1752,99.66101694915254,27.5068,100.6779661016949,27.5068C101.69491525423729,27.5068,102.71186440677965,27.3936,103.72881355932203,27.3936C104.7457627118644,27.3936,105.76271186440678,27.441866666666666,106.77966101694915,27.538400000000003C107.79661016949153,27.63493333333334,108.8135593220339,27.918533333333333,109.83050847457628,28.0776C110.84745762711864,28.236666666666668,111.86440677966102,28.492800000000003,112.88135593220339,28.492800000000003C113.89830508474576,28.492800000000003,114.91525423728814,28.4268,115.9322033898305,28.4268C116.94915254237289,28.4268,117.96610169491525,28.738266666666664,118.98305084745763,28.887999999999998C120,29.037733333333332,121.01694915254237,29.12286666666667,122.03389830508473,29.325200000000002C123.05084745762711,29.527533333333338,124.0677966101695,29.953733333333336,125.08474576271188,30.102000000000004C126.10169491525424,30.250266666666672,127.11864406779662,30.24973333333334,128.135593220339,30.324400000000004C129.15254237288136,30.39906666666667,130.16949152542372,30.55,131.1864406779661,30.55C132.20338983050846,30.55,133.22033898305085,30.15106666666667,134.23728813559322,30.0836C135.25423728813558,30.016133333333332,136.27118644067798,30.049866666666667,137.28813559322035,29.9824C138.3050847457627,29.91493333333333,139.3220338983051,29.812666666666665,140.33898305084747,29.6252C141.35593220338984,29.437733333333334,142.3728813559322,28.857600000000005,143.38983050847457,28.857600000000005C144.40677966101694,28.857600000000005,145.42372881355934,29.7424,146.4406779661017,29.7424C147.45762711864407,29.7424,148.47457627118644,29.54113333333333,149.4915254237288,29.4516C150.50847457627117,29.362066666666664,151.52542372881356,29.205199999999998,152.54237288135593,29.205199999999998C153.5593220338983,29.205199999999998,154.5762711864407,29.4428,155.59322033898306,29.4428C156.61016949152543,29.4428,157.6271186440678,29.312800000000003,158.64406779661016,29.312800000000003C159.66101694915253,29.312800000000003,160.67796610169492,29.5682,161.6949152542373,29.9148C162.71186440677965,30.2614,163.72881355932205,31.392400000000002,164.74576271186442,31.392400000000002C165.76271186440678,31.392400000000002,166.77966101694915,31.128800000000002,167.79661016949152,31.128800000000002C168.81355932203388,31.128800000000002,169.83050847457628,31.6006,170.84745762711864,31.8268C171.864406779661,32.053,172.8813559322034,32.3226,173.89830508474577,32.486000000000004C174.91525423728814,32.64940000000001,175.93220338983053,32.59306666666667,176.9491525423729,32.8072C177.96610169491527,33.02133333333333,178.98305084745763,33.41246666666667,180,33.8036L180,40C178.98305084745763,40,177.96610169491527,40,176.9491525423729,40C175.93220338983053,40,174.91525423728814,40,173.89830508474577,40C172.8813559322034,40,171.864406779661,40,170.84745762711864,40C169.83050847457628,40,168.81355932203388,40,167.79661016949152,40C166.77966101694915,40,165.76271186440678,40,164.74576271186442,40C163.72881355932205,40,162.71186440677965,40,161.6949152542373,40C160.67796610169492,40,159.66101694915253,40,158.64406779661016,40C157.6271186440678,40,156.61016949152543,40,155.59322033898306,40C154.5762711864407,40,153.5593220338983,40,152.54237288135593,40C151.52542372881356,40,150.50847457627117,40,149.4915254237288,40C148.47457627118644,40,147.45762711864407,40,146.4406779661017,40C145.42372881355934,40,144.40677966101694,40,143.38983050847457,40C142.3728813559322,40,141.35593220338984,40,140.33898305084747,40C139.3220338983051,40,138.3050847457627,40,137.28813559322035,40C136.27118644067798,40,135.25423728813558,40,134.23728813559322,40C133.22033898305085,40,132.20338983050846,40,131.1864406779661,40C130.16949152542372,40,129.15254237288136,40,128.135593220339,40C127.11864406779662,40,126.10169491525424,40,125.08474576271188,40C124.0677966101695,40,123.05084745762711,40,122.03389830508473,40C121.01694915254237,40,120,40,118.98305084745763,40C117.96610169491525,40,116.94915254237289,40,115.9322033898305,40C114.91525423728814,40,113.89830508474576,40,112.88135593220339,40C111.86440677966102,40,110.84745762711864,40,109.83050847457628,40C108.8135593220339,40,107.79661016949153,40,106.77966101694915,40C105.76271186440678,40,104.7457627118644,40,103.72881355932203,40C102.71186440677965,40,101.69491525423729,40,100.6779661016949,40C99.66101694915254,40,98.64406779661016,40,97.62711864406779,40C96.61016949152543,40,95.59322033898306,40,94.57627118644069,40C93.55932203389831,40,92.54237288135593,40,91.52542372881355,40C90.50847457627118,40,89.49152542372882,40,88.47457627118645,40C87.45762711864407,40,86.4406779661017,40,85.42372881355932,40C84.40677966101696,40,83.38983050847457,40,82.37288135593221,40C81.35593220338983,40,80.33898305084746,40,79.32203389830508,40C78.30508474576271,40,77.28813559322033,40,76.27118644067797,40C75.2542372881356,40,74.23728813559322,40,73.22033898305085,40C72.20338983050848,40,71.1864406779661,40,70.16949152542374,40C69.15254237288136,40,68.13559322033899,40,67.11864406779661,40C66.10169491525424,40,65.08474576271186,40,64.0677966101695,40C63.05084745762712,40,62.03389830508474,40,61.01694915254237,40C59.99999999999999,40,58.983050847457626,40,57.96610169491525,40C56.94915254237288,40,55.93220338983051,40,54.91525423728814,40C53.898305084745765,40,52.88135593220339,40,51.86440677966102,40C50.847457627118644,40,49.83050847457627,40,48.813559322033896,40C47.79661016949152,40,46.77966101694915,40,45.762711864406775,40C44.7457627118644,40,43.728813559322035,40,42.71186440677966,40C41.69491525423729,40,40.67796610169491,40,39.66101694915254,40C38.644067796610166,40,37.6271186440678,40,36.610169491525426,40C35.59322033898305,40,34.57627118644068,40,33.559322033898304,40C32.54237288135593,40,31.525423728813557,40,30.508474576271183,40C29.491525423728813,40,28.47457627118644,40,27.45762711864407,40C26.440677966101696,40,25.423728813559322,40,24.406779661016948,40C23.389830508474574,40,22.372881355932204,40,21.35593220338983,40C20.338983050847457,40,19.322033898305087,40,18.305084745762713,40C17.28813559322034,40,16.271186440677965,40,15.254237288135592,40C14.23728813559322,40,13.220338983050846,40,12.203389830508474,40C11.186440677966102,40,10.169491525423728,40,9.152542372881356,40C8.135593220338983,40,7.11864406779661,40,6.101694915254237,40C5.084745762711864,40,4.067796610169491,40,3.0508474576271185,40C2.0338983050847457,40,1.0169491525423728,40,0,40Z"></path><path class="line" stroke="black" fill="none" d="M0,19.7336C1.0169491525423728,18.809966666666664,2.0338983050847457,17.886333333333333,3.0508474576271185,17.1148C4.067796610169491,16.343266666666665,5.084745762711864,15.6814,6.101694915254237,15.1044C7.11864406779661,14.5274,8.135593220338983,14.201733333333333,9.152542372881356,13.6528C10.169491525423728,13.103866666666667,11.186440677966102,12.604866666666666,12.203389830508474,11.8108C13.220338983050846,11.016733333333335,14.23728813559322,9.538933333333334,15.254237288135592,8.8884C16.271186440677965,8.237866666666667,17.28813559322034,8.100933333333334,18.305084745762713,7.907600000000001C19.322033898305087,7.714266666666669,20.338983050847457,7.718133333333335,21.35593220338983,7.617600000000002C22.372881355932204,7.517066666666669,23.389830508474574,7.513200000000002,24.406779661016948,7.304400000000002C25.423728813559322,7.095600000000002,26.440677966101696,4.955599999999998,27.45762711864407,4.955599999999998C28.47457627118644,4.955599999999998,29.491525423728813,5.119066666666665,30.508474576271183,5.446C31.525423728813557,5.772933333333335,32.54237288135593,7.195066666666669,33.559322033898304,8.288000000000002C34.57627118644068,9.380933333333335,35.59322033898305,10.668599999999998,36.610169491525426,12.003599999999999C37.6271186440678,13.338599999999996,38.644067796610166,15.203599999999998,39.66101694915254,16.298C40.67796610169491,17.392400000000002,41.69491525423729,17.644333333333332,42.71186440677966,18.57C43.728813559322035,19.495666666666665,44.7457627118644,20.567933333333336,45.762711864406775,21.852C46.77966101694915,23.136066666666668,47.79661016949152,25.1494,48.813559322033896,26.2744C49.83050847457627,27.3994,50.847457627118644,28.51106666666666,51.86440677966102,28.601999999999997C52.88135593220339,28.692933333333333,53.898305084745765,28.7384,54.91525423728814,28.7384C55.93220338983051,28.7384,56.94915254237288,28.2308,57.96610169491525,27.9544C58.983050847457626,27.678,59.99999999999999,27.4068,61.01694915254237,27.080000000000002C62.03389830508474,26.7532,63.05084745762712,26.273400000000002,64.0677966101695,25.9936C65.08474576271186,25.713800000000003,66.10169491525424,25.5342,67.11864406779661,25.4012C68.13559322033899,25.2682,69.15254237288136,25.195600000000002,70.16949152542374,25.195600000000002C71.1864406779661,25.195600000000002,72.20338983050848,25.900333333333332,73.22033898305085,26.1376C74.23728813559322,26.374866666666666,75.2542372881356,26.497933333333336,76.27118644067797,26.619200000000003C77.28813559322033,26.74046666666667,78.30508474576271,26.865199999999998,79.32203389830508,26.865199999999998C80.33898305084746,26.865199999999998,81.35593220338983,26.768,82.37288135593221,26.768C83.38983050847457,26.768,84.40677966101696,27.63,85.42372881355932,27.63C86.4406779661017,27.63,87.45762711864407,27.416400000000003,88.47457627118645,27.416400000000003C89.49152542372882,27.416400000000003,90.50847457627118,27.512,91.52542372881355,27.512C92.54237288135593,27.512,93.55932203389831,27.075199999999995,94.57627118644069,27.075199999999995C95.59322033898306,27.075199999999995,96.61016949152543,27.095199999999995,97.62711864406779,27.135199999999998C98.64406779661016,27.1752,99.66101694915254,27.5068,100.6779661016949,27.5068C101.69491525423729,27.5068,102.71186440677965,27.3936,103.72881355932203,27.3936C104.7457627118644,27.3936,105.76271186440678,27.441866666666666,106.77966101694915,27.538400000000003C107.79661016949153,27.63493333333334,108.8135593220339,27.918533333333333,109.83050847457628,28.0776C110.84745762711864,28.236666666666668,111.86440677966102,28.492800000000003,112.88135593220339,28.492800000000003C113.89830508474576,28.492800000000003,114.91525423728814,28.4268,115.9322033898305,28.4268C116.94915254237289,28.4268,117.96610169491525,28.738266666666664,118.98305084745763,28.887999999999998C120,29.037733333333332,121.01694915254237,29.12286666666667,122.03389830508473,29.325200000000002C123.05084745762711,29.527533333333338,124.0677966101695,29.953733333333336,125.08474576271188,30.102000000000004C126.10169491525424,30.250266666666672,127.11864406779662,30.24973333333334,128.135593220339,30.324400000000004C129.15254237288136,30.39906666666667,130.16949152542372,30.55,131.1864406779661,30.55C132.20338983050846,30.55,133.22033898305085,30.15106666666667,134.23728813559322,30.0836C135.25423728813558,30.016133333333332,136.27118644067798,30.049866666666667,137.28813559322035,29.9824C138.3050847457627,29.91493333333333,139.3220338983051,29.812666666666665,140.33898305084747,29.6252C141.35593220338984,29.437733333333334,142.3728813559322,28.857600000000005,143.38983050847457,28.857600000000005C144.40677966101694,28.857600000000005,145.42372881355934,29.7424,146.4406779661017,29.7424C147.45762711864407,29.7424,148.47457627118644,29.54113333333333,149.4915254237288,29.4516C150.50847457627117,29.362066666666664,151.52542372881356,29.205199999999998,152.54237288135593,29.205199999999998C153.5593220338983,29.205199999999998,154.5762711864407,29.4428,155.59322033898306,29.4428C156.61016949152543,29.4428,157.6271186440678,29.312800000000003,158.64406779661016,29.312800000000003C159.66101694915253,29.312800000000003,160.67796610169492,29.5682,161.6949152542373,29.9148C162.71186440677965,30.2614,163.72881355932205,31.392400000000002,164.74576271186442,31.392400000000002C165.76271186440678,31.392400000000002,166.77966101694915,31.128800000000002,167.79661016949152,31.128800000000002C168.81355932203388,31.128800000000002,169.83050847457628,31.6006,170.84745762711864,31.8268C171.864406779661,32.053,172.8813559322034,32.3226,173.89830508474577,32.486000000000004C174.91525423728814,32.64940000000001,175.93220338983053,32.59306666666667,176.9491525423729,32.8072C177.96610169491527,33.02133333333333,178.98305084745763,33.41246666666667,180,33.8036"></path><path class="axis-ceiling" stroke-width="1" stroke="black" fill="none" d="M175,0L180,0"></path><text class="axis-ceiling-label" font-family="sans-serif" text-anchor="end" font-size="10px" x="170" y="2.5">100000</text></g></svg>