<svg xmlns="http://www.w3.org/2000/svg" viewBox="0 0 180 60"><g transform="translate(0,20)"><path class="area" fill="rgba(0, 0, 0, 0.2)" d="M0,5.417333333333332C1.0169491525423728,4.138,2.0338983050847457,2.858666666666667,3.0508474576271185,2.858666666666667C4.067796610169491,2.858666666666667,5.084745762711864,5.808,6.101694915254237,5.808C7.11864406779661,5.808,8.135593220338983,5.1371111111111105,9.152542372881356,4.838666666666667C10.169491525423728,4.540222222222223,11.186440677966102,4.017333333333335,12.203389830508474,4.017333333333335C13.220338983050846,4.017333333333335,14.23728813559322,4.809333333333332,15.254237288135592,4.809333333333332C16.271186440677965,4.809333333333332,17.28813559322034,4.376000000000002,18.305084745762713,4.376000000000002C19.322033898305087,4.376000000000002,20.338983050847457,5.227333333333332,21.35593220338983,6.382666666666665C22.372881355932204,7.5379999999999985,23.389830508474574,11.307999999999998,24.406779661016948,11.307999999999998C25.423728813559322,11.307999999999998,26.440677966101696,10.429333333333336,27.45762711864407,10.429333333333336C28.47457627118644,10.429333333333336,29.491525423728813,12.001999999999999,30.508474576271183,12.755999999999998C31.525423728813557,13.509999999999998,32.54237288135593,14.425333333333333,33.559322033898304,14.953333333333333C34.57627118644068,15.481333333333334,35.59322033898305,15.27688888888889,36.610169491525426,15.924C37.6271186440678,16.571111111111108,38.644067796610166,18.195111111111114,39.66101694915254,18.853333333333335C40.67796610169491,19.51155555555556,41.69491525423729,19.776444444444447,42.71186440677966,19.873333333333335C43.728813559322035,19.970222222222223,44.7457627118644,19.921777777777777,45.762711864406775,20.018666666666665C46.77966101694915,20.115555555555552,47.79661016949152,20.345111111111112,48.813559322033896,20.67866666666667C49.83050847457627,21.012222222222224,50.847457627118644,22.02,51.86440677966102,22.02C52.88135593220339,22.02,53.898305084745765,21.857333333333333,54.91525423728814,21.857333333333333C55.93220338983051,21.857333333333333,56.94915254237288,21.97111111111111,57.96610169491525,22.064C58.983050847457626,22.15688888888889,59.99999999999999,22.41466666666667,61.01694915254237,22.41466666666667C62.03389830508474,22.41466666666667,63.05084745762712,21.74577777777778,64.0677966101695,21.521333333333335C65.08474576271186,21.29688888888889,66.10169491525424,21.067999999999998,67.11864406779661,21.067999999999998C68.13559322033899,21.067999999999998,69.15254237288136,21.311999999999998,70.16949152542374,21.311999999999998C71.1864406779661,21.311999999999998,72.20338983050848,21.23577777777778,73.22033898305085,21.184000000000005C74.23728813559322,21.13222222222223,75.2542372881356,21.001333333333335,76.27118644067797,21.001333333333335C77.28813559322033,21.001333333333335,78.30508474576271,21.525777777777776,79.32203389830508,21.545333333333332C80.33898305084746,21.564888888888888,81.35593220338983,21.55511111111111,82.37288135593221,21.574666666666666C83.38983050847457,21.59422222222222,84.40677966101696,22.088,85.42372881355932,22.245333333333335C86.4406779661017,22.40266666666667,87.45762711864407,22.43444444444444,88.47457627118645,22.518666666666665C89.49152542372882,22.602888888888888,90.50847457627118,22.750666666666667,91.52542372881355,22.750666666666667C92.54237288135593,22.750666666666667,93.55932203389831,22.645333333333333,94.57627118644069,22.645333333333333C95.59322033898306,22.645333333333333,96.61016949152543,23.321777777777783,97.62711864406779,23.520000000000003C98.64406779661016,23.718222222222227,99.66101694915254,23.653333333333336,100.6779661016949,23.834666666666667C101.69491525423729,24.016,102.71186440677965,24.41644444444444,103.72881355932203,24.607999999999997C104.7457627118644,24.799555555555553,105.76271186440678,24.86466666666667,106.77966101694915,24.984C107.79661016949153,25.103333333333335,108.8135593220339,25.310666666666666,109.83050847457628,25.323999999999998C110.84745762711864,25.33733333333333,111.86440677966102,25.330666666666666,112.88135593220339,25.343999999999998C113.89830508474576,25.35733333333333,114.91525423728814,26.29822222222222,115.9322033898305,26.38533333333333C116.94915254237289,26.472444444444445,117.96610169491525,26.445111111111114,118.98305084745763,26.516000000000002C120,26.58688888888889,121.01694915254237,26.810666666666666,122.03389830508473,26.810666666666666C123.05084745762711,26.810666666666666,124.0677966101695,26.517333333333333,125.08474576271188,26.517333333333333C126.10169491525424,26.517333333333333,127.11864406779662,26.587555555555557,128.135593220339,26.686666666666667C129.15254237288136,26.785777777777778,130.16949152542372,26.970888888888886,131.1864406779661,27.112C132.20338983050846,27.25311111111111,133.22033898305085,27.376444444444445,134.23728813559322,27.533333333333335C135.25423728813558,27.690222222222225,136.27118644067798,27.866222222222223,137.28813559322035,28.053333333333335C138.3050847457627,28.240444444444446,139.3220338983051,28.520444444444443,140.33898305084747,28.656C141.35593220338984,28.791555555555554,142.3728813559322,28.789555555555555,143.38983050847457,28.866666666666667C144.40677966101694,28.94377777777778,145.42372881355934,29.09911111111111,146.4406779661017,29.118666666666666C147.45762711864407,29.138222222222222,148.47457627118644,29.148,149.4915254237288,29.148C150.50847457627117,29.148,151.52542372881356,29.04,152.54237288135593,29.04C153.5593220338983,29.04,154.5762711864407,29.068,155.59322033898306,29.068C156.61016949152543,29.068,157.6271186440678,28.873333333333335,158.64406779661016,28.71066666666667C159.66101694915253,28.548000000000002,160.67796610169492,28.244666666666664,161.6949152542373,28.092C162.71186440677965,27.939333333333334,163.72881355932205,27.81422222222223,164.74576271186442,27.79466666666667C165.76271186440678,27.775111111111112,166.77966101694915,27.76533333333333,167.79661016949152,27.76533333333333C168.81355932203388,27.76533333333333,169.83050847457628,27.76711111111111,170.84745762711864,27.770666666666664C171.864406779661,27.774222222222217,172.8813559322034,28.31111111111111,173.89830508474577,28.402666666666665C174.91525423728814,28.49422222222222,175.93220338983053,28.46822222222222,176.9491525423729,28.54C177.96610169491527,28.611777777777778,178.98305084745763,28.722555555555555,180,28.833333333333332L180,40C178.98305084745763,40,177.96610169491527,40,176.9491525423729,40C175.93220338983053,40,174.91525423728814,40,173.89830508474577,40C172.8813559322034,40,171.864406779661,40,170.84745762711864,40C169.83050847457628,40,168.81355932203388,40,167.79661016949152,40C166.77966101694915,40,165.76271186440678,40,164.74576271186442,40C163.72881355932205,40,162.71186440677965,40,161.6949152542373,40C160.67796610169492,40,159.66101694915253,40,158.64406779661016,40C157.6271186440678,40,156.61016949152543,40,155.59322033898306,40C154.5762711864407,40,153.5593220338983,40,152.54237288135593,40C151.52542372881356,40,150.50847457627117,40,149.4915254237288,40C148.47457627118644,40,147.45762711864407,40,146.4406779661017,40C145.42372881355934,40,144.40677966101694,40,143.38983050847457,40C142.3728813559322,40,141.35593220338984,40,140.33898305084747,40C139.3220338983051,40,138.3050847457627,40,137.28813559322035,40C136.27118644067798,40,135.25423728813558,40,134.23728813559322,40C133.22033898305085,40,132.20338983050846,40,131.1864406779661,40C130.16949152542372,40,129.15254237288136,40,128.135593220339,40C127.11864406779662,40,126.10169491525424,40,125.08474576271188,40C124.0677966101695,40,123.05084745762711,40,122.03389830508473,40C121.01694915254237,40,120,40,118.98305084745763,40C117.96610169491525,40,116.94915254237289,40,115.9322033898305,40C114.91525423728814,40,113.89830508474576,40,112.88135593220339,40C111.86440677966102,40,110.84745762711864,40,109.83050847457628,40C108.8135593220339,40,107.79661016949153,40,106.77966101694915,40C105.76271186440678,40,104.7457627118644,40,103.72881355932203,40C102.71186440677965,40,101.69491525423729,40,100.6779661016949,40C99.66101694915254,40,98.64406779661016,40,97.62711864406779,40C96.61016949152543,40,95.59322033898306,40,94.57627118644069,40C93.55932203389831,40,92.54237288135593,40,91.52542372881355,40C90.50847457627118,40,89.49152542372882,40,88.47457627118645,40C87.45762711864407,40,86.4406779661017,40,85.42372881355932,40C84.40677966101696,40,83.38983050847457,40,82.37288135593221,40C81.35593220338983,40,80.33898305084746,40,79.32203389830508,40C78.30508474576271,40,77.28813559322033,40,76.27118644067797,40C75.2542372881356,40,74.23728813559322,40,73.22033898305085,40C72.20338983050848,40,71.1864406779661,40,70.16949152542374,40C69.15254237288136,40,68.13559322033899,40,67.11864406779661,40C66.10169491525424,40,65.08474576271186,40,64.0677966101695,40C63.05084745762712,40,62.03389830508474,40,61.01694915254237,40C59.99999999999999,40,58.983050847457626,40,57.96610169491525,40C56.94915254237288,40,55.93220338983051,40,54.91525423728814,40C53.898305084745765,40,52.88135593220339,40,51.86440677966102,40C50.847457627118644,40,49.83050847457627,40,48.813559322033896,40C47.79661016949152,40,46.77966101694915,40,45.762711864406775,40C44.7457627118644,40,43.728813559322035,40,42.71186440677966,40C41.69491525423729,40,40.67796610169491,40,39.66101694915254,40C38.644067796610166,40,37.6271186440678,40,36.610169491525426,40C35.59322033898305,40,34.57627118644068,40,33.559322033898304,40C32.54237288135593,40,31.525423728813557,40,30.508474576271183,40C29.491525423728813,40,28.47457627118644,40,27.45762711864407,40C26.440677966101696,40,25.423728813559322,40,24.406779661016948,40C23.389830508474574,40,22.372881355932204,40,21.35593220338983,40C20.338983050847457,40,19.322033898305087,40,18.305084745762713,40C17.28813559322034,40,16.271186440677965,40,15.254237288135592,40C14.23728813559322,40,13.220338983050846,40,12.203389830508474,40C11.186440677966102,40,10.169491525423728,40,9.152542372881356,40C8.135593220338983,40,7.11864406779661,40,6.101694915254237,40C5.084745762711864,40,4.067796610169491,40,3.0508474576271185,40C2.0338983050847457,40,1.0169491525423728,40,0,40Z"></path><path class="line" stroke="black" fill="none" d="M0,5.417333333333332C1.0169491525423728,4.138,2.0338983050847457,2.858666666666667,3.0508474576271185,2.858666666666667C4.067796610169491,2.858666666666667,5.084745762711864,5.808,6.101694915254237,5.808C7.11864406779661,5.808,8.135593220338983,5.1371111111111105,9.152542372881356,4.838666666666667C10.169491525423728,4.540222222222223,11.186440677966102,4.017333333333335,12.203389830508474,4.017333333333335C13.220338983050846,4.017333333333335,14.23728813559322,4.809333333333332,15.254237288135592,4.809333333333332C16.271186440677965,4.809333333333332,17.28813559322034,4.376000000000002,18.305084745762713,4.376000000000002C19.322033898305087,4.376000000000002,20.338983050847457,5.227333333333332,21.35593220338983,6.382666666666665C22.372881355932204,7.5379999999999985,23.389830508474574,11.307999999999998,24.406779661016948,11.307999999999998C25.423728813559322,11.307999999999998,26.440677966101696,10.429333333333336,27.45762711864407,10.429333333333336C28.47457627118644,10.429333333333336,29.491525423728813,12.001999999999999,30.508474576271183,12.755999999999998C31.525423728813557,13.509999999999998,32.54237288135593,14.425333333333333,33.559322033898304,14.953333333333333C34.57627118644068,15.481333333333334,35.59322033898305,15.27688888888889,36.610169491525426,15.924C37.6271186440678,16.571111111111108,38.644067796610166,18.195111111111114,39.66101694915254,18.853333333333335C40.67796610169491,19.51155555555556,41.69491525423729,19.776444444444447,42.71186440677966,19.873333333333335C43.728813559322035,19.970222222222223,44.7457627118644,19.921777777777777,45.762711864406775,20.018666666666665C46.77966101694915,20.115555555555552,47.79661016949152,20.345111111111112,48.813559322033896,20.67866666666667C49.83050847457627,21.012222222222224,50.847457627118644,22.02,51.86440677966102,22.02C52.88135593220339,22.02,53.898305084745765,21.857333333333333,54.91525423728814,21.857333333333333C55.93220338983051,21.857333333333333,56.94915254237288,21.97111111111111,57.96610169491525,22.064C58.983050847457626,22.15688888888889,59.99999999999999,22.41466666666667,61.01694915254237,22.41466666666667C62.03389830508474,22.41466666666667,63.05084745762712,21.74577777777778,64.0677966101695,21.521333333333335C65.08474576271186,21.29688888888889,66.10169491525424,21.067999999999998,67.11864406779661,21.067999999999998C68.13559322033899,21.067999999999998,69.15254237288136,21.311999999999998,70.16949152542374,21.311999999999998C71.1864406779661,21.311999999999998,72.20338983050848,21.23577777777778,73.22033898305085,21.184000000000005C74.23728813559322,21.13222222222223,75.2542372881356,21.001333333333335,76.27118644067797,21.001333333333335C77.28813559322033,21.001333333333335,78.30508474576271,21.525777777777776,79.32203389830508,21.545333333333332C80.33898305084746,21.564888888888888,81.35593220338983,21.55511111111111,82.37288135593221,21.574666666666666C83.38983050847457,21.59422222222222,84.40677966101696,22.088,85.42372881355932,22.245333333333335C86.4406779661017,22.40266666666667,87.45762711864407,22.43444444444444,88.47457627118645,22.518666666666665C89.49152542372882,22.602888888888888,90.50847457627118,22.750666666666667,91.52542372881355,22.750666666666667C92.54237288135593,22.750666666666667,93.55932203389831,22.645333333333333,94.57627118644069,22.645333333333333C95.59322033898306,22.645333333333333,96.61016949152543,23.321777777777783,97.62711864406779,23.520000000000003C98.64406779661016,23.718222222222227,99.66101694915254,23.653333333333336,100.6779661016949,23.834666666666667C101.69491525423729,24.016,102.71186440677965,24.41644444444444,103.72881355932203,24.607999999999997C104.7457627118644,24.799555555555553,105.76271186440678,24.86466666666667,106.77966101694915,24.984C107.79661016949153,25.103333333333335,108.8135593220339,25.310666666666666,109.83050847457628,25.323999999999998C110.84745762711864,25.33733333333333,111.86440677966102,25.330666666666666,112.88135593220339,25.343999999999998C113.89830508474576,25.35733333333333,114.91525423728814,26.29822222222222,115.9322033898305,26.38533333333333C116.94915254237289,26.472444444444445,117.96610169491525,26.445111111111114,118.98305084745763,26.516000000000002C120,26.58688888888889,121.01694915254237,26.810666666666666,122.03389830508473,26.810666666666666C123.05084745762711,26.810666666666666,124.0677966101695,26.517333333333333,125.08474576271188,26.517333333333333C126.10169491525424,26.517333333333333,127.11864406779662,26.587555555555557,128.135593220339,26.686666666666667C129.15254237288136,26.785777777777778,130.16949152542372,26.970888888888886,131.1864406779661,27.112C132.20338983050846,27.25311111111111,133.22033898305085,27.376444444444445,134.23728813559322,27.533333333333335C135.25423728813558,27.690222222222225,136.27118644067798,27.866222222222223,137.28813559322035,28.053333333333335C138.3050847457627,28.240444444444446,139.3220338983051,28.520444444444443,140.33898305084747,28.656C141.35593220338984,28.791555555555554,142.3728813559322,28.789555555555555,143.38983050847457,28.866666666666667C144.40677966101694,28.94377777777778,145.42372881355934,29.09911111111111,146.4406779661017,29.118666666666666C147.45762711864407,29.138222222222222,148.47457627118644,29.148,149.4915254237288,29.148C150.50847457627117,29.148,151.52542372881356,29.04,152.54237288135593,29.04C153.5593220338983,29.04,154.5762711864407,29.068,155.59322033898306,29.068C156.61016949152543,29.068,157.6271186440678,28.873333333333335,158.64406779661016,28.71066666666667C159.66101694915253,28.548000000000002,160.67796610169492,28.244666666666664,161.6949152542373,28.092C162.71186440677965,27.939333333333334,163.72881355932205,27.81422222222223,164.74576271186442,27.79466666666667C165.76271186440678,27.775111111111112,166.77966101694915,27.76533333333333,167.79661016949152,27.76533333333333C168.81355932203388,27.76533333333333,169.83050847457628,27.76711111111111,170.84745762711864,27.770666666666664C171.864406779661,27.774222222222217,172.8813559322034,28.31111111111111,173.89830508474577,28.402666666666665C174.91525423728814,28.49422222222222,175.93220338983053,28.46822222222222,176.9491525423729,28.54C177.96610169491527,28.611777777777778,178.98305084745763,28.722555555555555,180,28.833333333333332"></path><path class="axis-ceiling" stroke-width="1" stroke="black" fill="none" d="M175,0L180,0"></path><text class="axis-ceiling-label" font-family="sans-serif" text-anchor="end" font-size="10px" x="170" y="2.5">30000</text></g></svg>