<svg xmlns="http://www.w3.org/2000/svg" viewBox="0 0 180 60"><g transform="translate(0,20)"><path class="area" fill="rgba(0, 0, 0, 0.2)" d="M0,37.3928C0.8571428571428571,37.39931555555556,1.714285714285714,37.40583111111111,2.571428571428571,37.4136C6.857142857142857,37.452444444444446,11.142857142857142,37.473333333333336,15.428571428571429,37.5928C17.142857142857142,37.640586666666664,18.857142857142854,37.980000000000004,20.57142857142857,37.980000000000004C21.428571428571427,37.980000000000004,22.28571428571428,37.952799999999996,23.14285714285714,37.952799999999996C23.999999999999996,37.952799999999996,24.857142857142854,38.69520000000001,25.71428571428571,38.8096C27.428571428571427,39.0384,29.142857142857142,39.1528,30.857142857142858,39.1528C31.714285714285715,39.1528,32.57142857142857,39.1336,33.42857142857143,39.1336C34.285714285714285,39.1336,35.142857142857146,39.1464,36,39.172C36.857142857142854,39.197599999999994,37.714285714285715,39.3904,38.57142857142857,39.3904C42,39.3904,45.42857142857142,39.24746666666667,48.857142857142854,39.2168C50.57142857142857,39.20146666666667,52.285714285714285,39.1912,54,39.1912C54.857142857142854,39.1912,55.714285714285715,39.20173333333334,56.57142857142857,39.2128C57.42857142857143,39.223866666666666,58.285714285714285,39.25173333333333,59.142857142857146,39.2576C60,39.263466666666666,60.85714285714286,39.2664,61.714285714285715,39.2664C62.57142857142858,39.2664,63.42857142857143,39.26266666666667,64.28571428571429,39.2552C65.14285714285715,39.247733333333336,66,39.2152,66.85714285714286,39.2152C68.57142857142857,39.2152,70.28571428571429,39.390488888888896,72,39.456C72.85714285714286,39.48875555555556,73.71428571428571,39.5432,74.57142857142857,39.5432C75.42857142857143,39.5432,76.28571428571428,39.537866666666666,77.14285714285714,39.528C78,39.51813333333333,78.85714285714285,39.49946666666667,79.71428571428571,39.484C80.57142857142857,39.46853333333333,81.42857142857142,39.45013333333333,82.28571428571428,39.4352C83.14285714285714,39.42026666666667,84,39.39813333333333,84.85714285714286,39.3944C85.71428571428572,39.39066666666667,86.57142857142857,39.39253333333333,87.42857142857143,39.3888C88.28571428571429,39.385066666666674,89.14285714285714,39.33933333333333,90,39.300799999999995C90.85714285714285,39.26226666666666,91.71428571428571,39.25306666666666,92.57142857142856,39.1576C93.42857142857142,39.06213333333334,94.28571428571428,38.196133333333336,95.14285714285714,37.8568C96,37.51746666666667,96.85714285714285,37.4004,97.71428571428571,37.1216C98.57142857142857,36.8428,99.42857142857143,36.434533333333334,100.28571428571429,36.184C101.14285714285714,35.93346666666667,102,35.995466666666665,102.85714285714285,35.6184C103.71428571428571,35.24133333333333,104.57142857142857,34.2156,105.42857142857143,33.7144C106.28571428571429,33.2132,107.14285714285714,33.21679999999999,108,32.6112C108.85714285714286,32.005599999999994,109.71428571428572,30.1848,110.57142857142858,30.0808C111.42857142857143,29.9768,112.28571428571429,30.0288,113.14285714285714,29.9248C114,29.820800000000002,114.85714285714286,27.215200000000003,115.71428571428572,26.2072C116.57142857142858,25.199200000000005,117.42857142857143,24.70546666666667,118.28571428571429,23.8768C119.14285714285714,23.048133333333336,120,21.585066666666663,120.85714285714285,21.2352C121.71428571428571,20.88533333333333,122.57142857142857,20.977200000000003,123.42857142857143,20.7104C124.28571428571428,20.4436,125.14285714285714,19.771999999999995,125.99999999999999,19.6344C126.85714285714285,19.4968,127.71428571428572,19.5656,128.57142857142858,19.428C129.42857142857144,19.290400000000005,130.28571428571428,18.0952,131.14285714285714,18.0952C132,18.0952,132.85714285714286,20.106666666666662,133.71428571428572,20.734399999999997C134.57142857142858,21.362133333333325,135.42857142857142,21.861600000000003,136.28571428571428,21.861600000000003C137.14285714285714,21.861600000000003,138,19.840400000000017,138.85714285714286,18.163200000000003C139.71428571428572,16.486000000000008,140.57142857142856,13.367733333333332,141.42857142857142,11.7984C142.28571428571428,10.229066666666652,143.14285714285714,9.496666666666666,144,8.7472C144.85714285714286,7.997733333333333,145.71428571428572,8.11160000000001,146.57142857142858,7.301600000000001C147.42857142857144,6.491600000000003,148.28571428571428,4.605066666666662,149.14285714285714,3.8872000000000018C150,3.169333333333334,150.85714285714286,3.0558666666666667,151.71428571428572,2.8103999999999996C152.57142857142858,2.564933333333335,153.42857142857142,2.4143999999999988,154.28571428571428,2.4143999999999988C155.14285714285714,2.4143999999999988,156,4.905599999999986,156.85714285714286,6.648000000000001C157.71428571428572,8.390399999999996,158.57142857142856,11.104400000000007,159.42857142857142,12.8688C160.28571428571428,14.633200000000013,161.14285714285714,16.03253333333333,162,17.2344C162.85714285714286,18.436266666666658,163.7142857142857,18.869200000000006,164.57142857142856,20.08C165.42857142857142,21.2908,166.28571428571428,23.511733333333336,167.14285714285714,24.499200000000002C168,25.486666666666668,168.85714285714286,25.553333333333335,169.71428571428572,26.004800000000003C170.57142857142858,26.45626666666667,171.42857142857144,26.837333333333333,172.2857142857143,27.208000000000002C173.14285714285717,27.578666666666667,174,27.812533333333338,174.85714285714286,28.2288C175.71428571428572,28.64506666666667,176.57142857142858,29.444799999999994,177.42857142857144,29.705599999999997C178.2857142857143,29.966399999999997,179.14285714285714,30.031599999999997,180,30.096799999999998L180,40C179.14285714285714,40,178.2857142857143,40,177.42857142857144,40C176.57142857142858,40,175.71428571428572,40,174.85714285714286,40C174,40,173.14285714285717,40,172.2857142857143,40C171.42857142857144,40,170.57142857142858,40,169.71428571428572,40C168.85714285714286,40,168,40,167.14285714285714,40C166.28571428571428,40,165.42857142857142,40,164.57142857142856,40C163.7142857142857,40,162.85714285714286,40,162,40C161.14285714285714,40,160.28571428571428,40,159.42857142857142,40C158.57142857142856,40,157.71428571428572,40,156.85714285714286,40C156,40,155.14285714285714,40,154.28571428571428,40C153.42857142857142,40,152.57142857142858,40,151.71428571428572,40C150.85714285714286,40,150,40,149.14285714285714,40C148.28571428571428,40,147.42857142857144,40,146.57142857142858,40C145.71428571428572,40,144.85714285714286,40,144,40C143.14285714285714,40,142.28571428571428,40,141.42857142857142,40C140.57142857142856,40,139.71428571428572,40,138.85714285714286,40C138,40,137.14285714285714,40,136.28571428571428,40C135.42857142857142,40,134.57142857142858,40,133.71428571428572,40C132.85714285714286,40,132,40,131.14285714285714,40C130.28571428571428,40,129.42857142857144,40,128.57142857142858,40C127.71428571428572,40,126.85714285714285,40,125.99999999999999,40C125.14285714285714,40,124.28571428571428,40,123.42857142857143,40C122.57142857142857,40,121.71428571428571,40,120.85714285714285,40C120,40,119.14285714285714,40,118.28571428571429,40C117.42857142857143,40,116.57142857142858,40,115.71428571428572,40C114.85714285714286,40,114,40,113.14285714285714,40C112.28571428571429,40,111.42857142857143,40,110.57142857142858,40C109.71428571428572,40,108.85714285714286,40,108,40C107.14285714285714,40,106.28571428571429,40,105.42857142857143,40C104.57142857142857,40,103.71428571428571,40,102.85714285714285,40C102,40,101.14285714285714,40,100.28571428571429,40C99.42857142857143,40,98.57142857142857,40,97.71428571428571,40C96.85714285714285,40,96,40,95.14285714285714,40C94.28571428571428,40,93.42857142857142,40,92.57142857142856,40C91.71428571428571,40,90.85714285714285,40,90,40C89.14285714285714,40,88.28571428571429,40,87.42857142857143,40C86.57142857142857,40,85.71428571428572,40,84.85714285714286,40C84,40,83.14285714285714,40,82.28571428571428,40C81.42857142857142,40,80.57142857142857,40,79.71428571428571,40C78.85714285714285,40,78,40,77.14285714285714,40C76.28571428571428,40,75.42857142857143,40,74.57142857142857,40C73.71428571428571,40,72.85714285714286,40,72,40C70.28571428571429,40,68.57142857142857,40,66.85714285714286,40C66,40,65.14285714285715,40,64.28571428571429,40C63.42857142857143,40,62.57142857142858,40,61.714285714285715,40C60.85714285714286,40,60,40,59.142857142857146,40C58.285714285714285,40,57.42857142857143,40,56.57142857142857,40C55.714285714285715,40,54.857142857142854,40,54,40C52.285714285714285,40,50.57142857142857,40,48.857142857142854,40C45.42857142857142,40,42,40,38.57142857142857,40C37.714285714285715,40,36.857142857142854,40,36,40C35.142857142857146,40,34.285714285714285,40,33.42857142857143,40C32.57142857142857,40,31.714285714285715,40,30.857142857142858,40C29.142857142857142,40,27.428571428571427,40,25.71428571428571,40C24.857142857142854,40,23.999999999999996,40,23.14285714285714,40C22.28571428571428,40,21.428571428571427,40,20.57142857142857,40C18.857142857142854,40,17.142857142857142,40,15.428571428571429,40C11.142857142857142,40,6.857142857142857,40,2.571428571428571,40C1.714285714285714,40,0.8571428571428571,40,0,40Z"></path><path class="line" stroke="black" fill="none" d="M0,37.3928C0.8571428571428571,37.39931555555556,1.714285714285714,37.40583111111111,2.571428571428571,37.4136C6.857142857142857,37.452444444444446,11.142857142857142,37.473333333333336,15.428571428571429,37.5928C17.142857142857142,37.640586666666664,18.857142857142854,37.980000000000004,20.57142857142857,37.980000000000004C21.428571428571427,37.980000000000004,22.28571428571428,37.952799999999996,23.14285714285714,37.952799999999996C23.999999999999996,37.952799999999996,24.857142857142854,38.69520000000001,25.71428571428571,38.8096C27.428571428571427,39.0384,29.142857142857142,39.1528,30.857142857142858,39.1528C31.714285714285715,39.1528,32.57142857142857,39.1336,33.42857142857143,39.1336C34.285714285714285,39.1336,35.142857142857146,39.1464,36,39.172C36.857142857142854,39.197599999999994,37.714285714285715,39.3904,38.57142857142857,39.3904C42,39.3904,45.42857142857142,39.24746666666667,48.857142857142854,39.2168C50.57142857142857,39.20146666666667,52.285714285714285,39.1912,54,39.1912C54.857142857142854,39.1912,55.714285714285715,39.20173333333334,56.57142857142857,39.2128C57.42857142857143,39.223866666666666,58.285714285714285,39.25173333333333,59.142857142857146,39.2576C60,39.263466666666666,60.85714285714286,39.2664,61.714285714285715,39.2664C62.57142857142858,39.2664,63.42857142857143,39.26266666666667,64.28571428571429,39.2552C65.14285714285715,39.247733333333336,66,39.2152,66.85714285714286,39.2152C68.57142857142857,39.2152,70.28571428571429,39.390488888888896,72,39.456C72.85714285714286,39.48875555555556,73.71428571428571,39.5432,74.57142857142857,39.5432C75.42857142857143,39.5432,76.28571428571428,39.537866666666666,77.14285714285714,39.528C78,39.51813333333333,78.85714285714285,39.49946666666667,79.71428571428571,39.484C80.57142857142857,39.46853333333333,81.42857142857142,39.45013333333333,82.28571428571428,39.4352C83.14285714285714,39.42026666666667,84,39.39813333333333,84.85714285714286,39.3944C85.71428571428572,39.39066666666667,86.57142857142857,39.39253333333333,87.42857142857143,39.3888C88.28571428571429,39.385066666666674,89.14285714285714,39.33933333333333,90,39.300799999999995C90.85714285714285,39.26226666666666,91.71428571428571,39.25306666666666,92.57142857142856,39.1576C93.42857142857142,39.06213333333334,94.28571428571428,38.196133333333336,95.14285714285714,37.8568C96,37.51746666666667,96.85714285714285,37.4004,97.71428571428571,37.1216C98.57142857142857,36.8428,99.42857142857143,36.434533333333334,100.28571428571429,36.184C101.14285714285714,35.93346666666667,102,35.995466666666665,102.85714285714285,35.6184C103.71428571428571,35.24133333333333,104.57142857142857,34.2156,105.42857142857143,33.7144C106.28571428571429,33.2132,107.14285714285714,33.21679999999999,108,32.6112C108.85714285714286,32.005599999999994,109.71428571428572,30.1848,110.57142857142858,30.0808C111.42857142857143,29.9768,112.28571428571429,30.0288,113.14285714285714,29.9248C114,29.820800000000002,114.85714285714286,27.215200000000003,115.71428571428572,26.2072C116.57142857142858,25.199200000000005,117.42857142857143,24.70546666666667,118.28571428571429,23.8768C119.14285714285714,23.048133333333336,120,21.585066666666663,120.85714285714285,21.2352C121.71428571428571,20.88533333333333,122.57142857142857,20.977200000000003,123.42857142857143,20.7104C124.28571428571428,20.4436,125.14285714285714,19.771999999999995,125.99999999999999,19.6344C126.85714285714285,19.4968,127.71428571428572,19.5656,128.57142857142858,19.428C129.42857142857144,19.290400000000005,130.28571428571428,18.0952,131.14285714285714,18.0952C132,18.0952,132.85714285714286,20.106666666666662,133.71428571428572,20.734399999999997C134.57142857142858,21.362133333333325,135.42857142857142,21.861600000000003,136.28571428571428,21.861600000000003C137.14285714285714,21.861600000000003,138,19.840400000000017,138.85714285714286,18.163200000000003C139.71428571428572,16.486000000000008,140.57142857142856,13.367733333333332,141.42857142857142,11.7984C142.28571428571428,10.229066666666652,143.14285714285714,9.496666666666666,144,8.7472C144.85714285714286,7.997733333333333,145.71428571428572,8.11160000000001,146.57142857142858,7.301600000000001C147.42857142857144,6.491600000000003,148.28571428571428,4.605066666666662,149.14285714285714,3.8872000000000018C150,3.169333333333334,150.85714285714286,3.0558666666666667,151.71428571428572,2.8103999999999996C152.57142857142858,2.564933333333335,153.42857142857142,2.4143999999999988,154.28571428571428,2.4143999999999988C155.14285714285714,2.4143999999999988,156,4.905599999999986,156.85714285714286,6.648000000000001C157.71428571428572,8.390399999999996,158.57142857142856,11.104400000000007,159.42857142857142,12.8688C160.28571428571428,14.633200000000013,161.14285714285714,16.03253333333333,162,17.2344C162.85714285714286,18.436266666666658,163.7142857142857,18.869200000000006,164.57142857142856,20.08C165.42857142857142,21.2908,166.28571428571428,23.511733333333336,167.14285714285714,24.499200000000002C168,25.486666666666668,168.85714285714286,25.553333333333335,169.71428571428572,26.004800000000003C170.57142857142858,26.45626666666667,171.42857142857144,26.837333333333333,172.2857142857143,27.208000000000002C173.14285714285717,27.578666666666667,174,27.812533333333338,174.85714285714286,28.2288C175.71428571428572,28.64506666666667,176.57142857142858,29.444799999999994,177.42857142857144,29.705599999999997C178.2857142857143,29.966399999999997,179.14285714285714,30.031599999999997,180,30.096799999999998"></path><path class="axis-ceiling" stroke-width="1" stroke="black" fill="none" d="M175,0L180,0"></path><text class="axis-ceiling-label" font-family="sans-serif" text-anchor="end" font-size="10px" x="170" y="2.5">50000</text></g></svg>