<svg xmlns="http://www.w3.org/2000/svg" viewBox="0 0 180 60"><g transform="translate(0,20)"><path class="area" fill="rgba(0, 0, 0, 0.2)" d="M0,36.70112C0.923076923076923,36.685626666666664,1.8461538461538463,36.67013333333333,2.769230769230769,36.65956C3.692307692307692,36.648986666666666,4.615384615384615,36.64399111111111,5.538461538461538,36.63768C7.384615384615384,36.62505777777778,9.23076923076923,36.62646222222223,11.076923076923077,36.6116C12,36.60416888888889,12.923076923076923,36.591633333333334,13.846153846153847,36.58468C14.76923076923077,36.57772666666666,15.692307692307693,36.57510666666666,16.615384615384617,36.56988C17.53846153846154,36.56465333333333,18.461538461538463,36.55984133333333,19.384615384615387,36.55332C23.07692307692308,36.527234666666665,26.76923076923077,36.46357777777778,30.461538461538463,36.427C32.30769230769231,36.40871111111111,34.15384615384615,36.38828,36,36.37628C36.92307692307693,36.37028,37.84615384615385,36.36604666666666,38.769230769230774,36.361959999999996C39.69230769230769,36.35787333333333,40.61538461538462,36.35747333333333,41.53846153846154,36.35176C42.46153846153846,36.346046666666666,43.38461538461539,36.3348,44.30769230769231,36.32768C45.23076923076923,36.32056,46.15384615384615,36.31724666666667,47.07692307692308,36.30904C48,36.30083333333334,48.92307692307693,36.287573333333334,49.84615384615385,36.27844C51.69230769230769,36.260173333333334,53.53846153846154,36.25006666666667,55.38461538461539,36.23644C56.307692307692314,36.22962666666667,57.23076923076923,36.222899999999996,58.15384615384616,36.21628C59.07692307692308,36.20966,60.00000000000001,36.20427333333333,60.92307692307693,36.19672C61.84615384615385,36.189166666666665,62.769230769230774,36.18212,63.69230769230769,36.17096C64.61538461538461,36.159800000000004,65.53846153846155,36.142093333333335,66.46153846153847,36.129760000000005C67.38461538461539,36.117426666666674,68.30769230769232,36.10785333333334,69.23076923076924,36.09696C70.15384615384616,36.08606666666667,71.07692307692308,36.08194666666667,72,36.0644C72.92307692307692,36.04685333333333,73.84615384615385,36.01554666666667,74.76923076923077,35.99168C75.6923076923077,35.96781333333333,76.61538461538463,35.96818666666667,77.53846153846155,35.9212C78.46153846153847,35.87421333333333,79.38461538461539,35.57284,80.3076923076923,35.44652C81.23076923076923,35.3202,82.15384615384616,35.27204666666667,83.07692307692308,35.16328C84,35.05451333333333,84.92307692307693,34.89393333333334,85.84615384615385,34.79392C86.76923076923077,34.69390666666666,87.6923076923077,34.717013333333334,88.61538461538461,34.563199999999995C89.53846153846153,34.409386666666656,90.46153846153847,34.05722,91.38461538461539,33.86428C92.3076923076923,33.67134,93.23076923076924,33.64138666666667,94.15384615384616,33.40556C95.07692307692308,33.16973333333333,96,32.69688,96.92307692307692,32.44932C97.84615384615384,32.20176,98.76923076923077,32.27249333333333,99.6923076923077,31.920199999999998C100.61538461538461,31.567906666666666,101.53846153846153,30.79715333333333,102.46153846153845,30.33556C103.38461538461539,29.873966666666664,104.3076923076923,29.540660000000006,105.23076923076924,29.150640000000003C106.15384615384616,28.760620000000007,107.07692307692308,28.33508666666667,108,27.995440000000002C108.92307692307692,27.655793333333335,109.84615384615385,27.399086666666665,110.76923076923077,27.112759999999998C111.6923076923077,26.82643333333333,112.61538461538461,26.588126666666664,113.53846153846153,26.27748C114.46153846153847,25.966833333333334,115.38461538461539,25.58624,116.30769230769232,25.24888C117.23076923076924,24.911520000000003,118.15384615384616,24.52940666666667,119.07692307692308,24.253320000000002C120,23.977233333333334,120.92307692307693,23.834220000000002,121.84615384615385,23.59236C122.76923076923077,23.3505,123.6923076923077,23.32896,124.61538461538461,22.80216C125.53846153846153,22.27536,126.46153846153847,21.279,127.38461538461539,20.35232C128.30769230769232,19.425639999999998,129.23076923076923,18.07766666666667,130.15384615384616,17.24208C131.0769230769231,16.406493333333334,132,15.911753333333335,132.92307692307693,15.338799999999999C133.84615384615384,14.765846666666668,134.76923076923077,14.425213333333325,135.69230769230768,13.804359999999999C136.6153846153846,13.183506666666661,137.53846153846155,12.151753333333334,138.46153846153848,11.613679999999999C139.3846153846154,11.075606666666674,140.30769230769232,10.903699999999997,141.23076923076923,10.57592C142.15384615384616,10.24814,143.07692307692307,9.963140000000003,144,9.647000000000002C144.92307692307693,9.330860000000001,145.84615384615384,8.995886666666665,146.76923076923077,8.679079999999999C147.6923076923077,8.362273333333333,148.6153846153846,7.964206666666666,149.53846153846155,7.74616C150.46153846153845,7.528113333333335,151.3846153846154,7.5230999999999995,152.3076923076923,7.370800000000002C153.23076923076923,7.218500000000001,154.15384615384616,7.0294266666666685,155.0769230769231,6.8323599999999995C156,6.635293333333334,156.92307692307693,6.380879999999999,157.84615384615384,6.188400000000001C158.76923076923077,5.995919999999999,159.69230769230768,5.847286666666666,160.6153846153846,5.677479999999999C161.53846153846155,5.507673333333332,162.46153846153845,5.35596,163.3846153846154,5.16956C164.30769230769232,4.98316,165.23076923076923,4.730179999999999,166.15384615384616,4.55908C167.0769230769231,4.387980000000001,168,4.256620000000002,168.92307692307693,4.142960000000002C169.84615384615387,4.029300000000003,170.76923076923077,4.037606666666669,171.6923076923077,3.8771200000000006C172.6153846153846,3.716633333333334,173.53846153846155,3.342613333333335,174.46153846153845,3.1800400000000018C175.3846153846154,3.0174666666666665,176.3076923076923,3.0425866666666668,177.23076923076923,2.90168C178.15384615384616,2.760773333333333,179.07692307692307,2.5476866666666664,180,2.3346L180,40C179.07692307692307,40,178.15384615384616,40,177.23076923076923,40C176.3076923076923,40,175.3846153846154,40,174.46153846153845,40C173.53846153846155,40,172.6153846153846,40,171.6923076923077,40C170.76923076923077,40,169.84615384615387,40,168.92307692307693,40C168,40,167.0769230769231,40,166.15384615384616,40C165.23076923076923,40,164.30769230769232,40,163.3846153846154,40C162.46153846153845,40,161.53846153846155,40,160.6153846153846,40C159.69230769230768,40,158.76923076923077,40,157.84615384615384,40C156.92307692307693,40,156,40,155.0769230769231,40C154.15384615384616,40,153.23076923076923,40,152.3076923076923,40C151.3846153846154,40,150.46153846153845,40,149.53846153846155,40C148.6153846153846,40,147.6923076923077,40,146.76923076923077,40C145.84615384615384,40,144.92307692307693,40,144,40C143.07692307692307,40,142.15384615384616,40,141.23076923076923,40C140.30769230769232,40,139.3846153846154,40,138.46153846153848,40C137.53846153846155,40,136.6153846153846,40,135.69230769230768,40C134.76923076923077,40,133.84615384615384,40,132.92307692307693,40C132,40,131.0769230769231,40,130.15384615384616,40C129.23076923076923,40,128.30769230769232,40,127.38461538461539,40C126.46153846153847,40,125.53846153846153,40,124.61538461538461,40C123.6923076923077,40,122.76923076923077,40,121.84615384615385,40C120.92307692307693,40,120,40,119.07692307692308,40C118.15384615384616,40,117.23076923076924,40,116.30769230769232,40C115.38461538461539,40,114.46153846153847,40,113.53846153846153,40C112.61538461538461,40,111.6923076923077,40,110.76923076923077,40C109.84615384615385,40,108.92307692307692,40,108,40C107.07692307692308,40,106.15384615384616,40,105.23076923076924,40C104.3076923076923,40,103.38461538461539,40,102.46153846153845,40C101.53846153846153,40,100.61538461538461,40,99.6923076923077,40C98.76923076923077,40,97.84615384615384,40,96.92307692307692,40C96,40,95.07692307692308,40,94.15384615384616,40C93.23076923076924,40,92.3076923076923,40,91.38461538461539,40C90.46153846153847,40,89.53846153846153,40,88.61538461538461,40C87.6923076923077,40,86.76923076923077,40,85.84615384615385,40C84.92307692307693,40,84,40,83.07692307692308,40C82.15384615384616,40,81.23076923076923,40,80.3076923076923,40C79.38461538461539,40,78.46153846153847,40,77.53846153846155,40C76.61538461538463,40,75.6923076923077,40,74.76923076923077,40C73.84615384615385,40,72.92307692307692,40,72,40C71.07692307692308,40,70.15384615384616,40,69.23076923076924,40C68.30769230769232,40,67.38461538461539,40,66.46153846153847,40C65.53846153846155,40,64.61538461538461,40,63.69230769230769,40C62.769230769230774,40,61.84615384615385,40,60.92307692307693,40C60.00000000000001,40,59.07692307692308,40,58.15384615384616,40C57.23076923076923,40,56.307692307692314,40,55.38461538461539,40C53.53846153846154,40,51.69230769230769,40,49.84615384615385,40C48.92307692307693,40,48,40,47.07692307692308,40C46.15384615384615,40,45.23076923076923,40,44.30769230769231,40C43.38461538461539,40,42.46153846153846,40,41.53846153846154,40C40.61538461538462,40,39.69230769230769,40,38.769230769230774,40C37.84615384615385,40,36.92307692307693,40,36,40C34.15384615384615,40,32.30769230769231,40,30.461538461538463,40C26.76923076923077,40,23.07692307692308,40,19.384615384615387,40C18.461538461538463,40,17.53846153846154,40,16.615384615384617,40C15.692307692307693,40,14.76923076923077,40,13.846153846153847,40C12.923076923076923,40,12,40,11.076923076923077,40C9.23076923076923,40,7.384615384615384,40,5.538461538461538,40C4.615384615384615,40,3.692307692307692,40,2.769230769230769,40C1.8461538461538463,40,0.923076923076923,40,0,40Z"></path><path class="line" stroke="black" fill="none" d="M0,36.70112C0.923076923076923,36.685626666666664,1.8461538461538463,36.67013333333333,2.769230769230769,36.65956C3.692307692307692,36.648986666666666,4.615384615384615,36.64399111111111,5.538461538461538,36.63768C7.384615384615384,36.62505777777778,9.23076923076923,36.62646222222223,11.076923076923077,36.6116C12,36.60416888888889,12.923076923076923,36.591633333333334,13.846153846153847,36.58468C14.76923076923077,36.57772666666666,15.692307692307693,36.57510666666666,16.615384615384617,36.56988C17.53846153846154,36.56465333333333,18.461538461538463,36.55984133333333,19.384615384615387,36.55332C23.07692307692308,36.527234666666665,26.76923076923077,36.46357777777778,30.461538461538463,36.427C32.30769230769231,36.40871111111111,34.15384615384615,36.38828,36,36.37628C36.92307692307693,36.37028,37.84615384615385,36.36604666666666,38.769230769230774,36.361959999999996C39.69230769230769,36.35787333333333,40.61538461538462,36.35747333333333,41.53846153846154,36.35176C42.46153846153846,36.346046666666666,43.38461538461539,36.3348,44.30769230769231,36.32768C45.23076923076923,36.32056,46.15384615384615,36.31724666666667,47.07692307692308,36.30904C48,36.30083333333334,48.92307692307693,36.287573333333334,49.84615384615385,36.27844C51.69230769230769,36.260173333333334,53.53846153846154,36.25006666666667,55.38461538461539,36.23644C56.307692307692314,36.22962666666667,57.23076923076923,36.222899999999996,58.15384615384616,36.21628C59.07692307692308,36.20966,60.00000000000001,36.20427333333333,60.92307692307693,36.19672C61.84615384615385,36.189166666666665,62.769230769230774,36.18212,63.69230769230769,36.17096C64.61538461538461,36.159800000000004,65.53846153846155,36.142093333333335,66.46153846153847,36.129760000000005C67.38461538461539,36.117426666666674,68.30769230769232,36.10785333333334,69.23076923076924,36.09696C70.15384615384616,36.08606666666667,71.07692307692308,36.08194666666667,72,36.0644C72.92307692307692,36.04685333333333,73.84615384615385,36.01554666666667,74.76923076923077,35.99168C75.6923076923077,35.96781333333333,76.61538461538463,35.96818666666667,77.53846153846155,35.9212C78.46153846153847,35.87421333333333,79.38461538461539,35.57284,80.3076923076923,35.44652C81.23076923076923,35.3202,82.15384615384616,35.27204666666667,83.07692307692308,35.16328C84,35.05451333333333,84.92307692307693,34.89393333333334,85.84615384615385,34.79392C86.76923076923077,34.69390666666666,87.6923076923077,34.717013333333334,88.61538461538461,34.563199999999995C89.53846153846153,34.409386666666656,90.46153846153847,34.05722,91.38461538461539,33.86428C92.3076923076923,33.67134,93.23076923076924,33.64138666666667,94.15384615384616,33.40556C95.07692307692308,33.16973333333333,96,32.69688,96.92307692307692,32.44932C97.84615384615384,32.20176,98.76923076923077,32.27249333333333,99.6923076923077,31.920199999999998C100.61538461538461,31.567906666666666,101.53846153846153,30.79715333333333,102.46153846153845,30.33556C103.38461538461539,29.873966666666664,104.3076923076923,29.540660000000006,105.23076923076924,29.150640000000003C106.15384615384616,28.760620000000007,107.07692307692308,28.33508666666667,108,27.995440000000002C108.92307692307692,27.655793333333335,109.84615384615385,27.399086666666665,110.76923076923077,27.112759999999998C111.6923076923077,26.82643333333333,112.61538461538461,26.588126666666664,113.53846153846153,26.27748C114.46153846153847,25.966833333333334,115.38461538461539,25.58624,116.30769230769232,25.24888C117.23076923076924,24.911520000000003,118.15384615384616,24.52940666666667,119.07692307692308,24.253320000000002C120,23.977233333333334,120.92307692307693,23.834220000000002,121.84615384615385,23.59236C122.76923076923077,23.3505,123.6923076923077,23.32896,124.61538461538461,22.80216C125.53846153846153,22.27536,126.46153846153847,21.279,127.38461538461539,20.35232C128.30769230769232,19.425639999999998,129.23076923076923,18.07766666666667,130.15384615384616,17.24208C131.0769230769231,16.406493333333334,132,15.911753333333335,132.92307692307693,15.338799999999999C133.84615384615384,14.765846666666668,134.76923076923077,14.425213333333325,135.69230769230768,13.804359999999999C136.6153846153846,13.183506666666661,137.53846153846155,12.151753333333334,138.46153846153848,11.613679999999999C139.3846153846154,11.075606666666674,140.30769230769232,10.903699999999997,141.23076923076923,10.57592C142.15384615384616,10.24814,143.07692307692307,9.963140000000003,144,9.647000000000002C144.92307692307693,9.330860000000001,145.84615384615384,8.995886666666665,146.76923076923077,8.679079999999999C147.6923076923077,8.362273333333333,148.6153846153846,7.964206666666666,149.53846153846155,7.74616C150.46153846153845,7.528113333333335,151.3846153846154,7.5230999999999995,152.3076923076923,7.370800000000002C153.23076923076923,7.218500000000001,154.15384615384616,7.0294266666666685,155.0769230769231,6.8323599999999995C156,6.635293333333334,156.92307692307693,6.380879999999999,157.84615384615384,6.188400000000001C158.76923076923077,5.995919999999999,159.69230769230768,5.847286666666666,160.6153846153846,5.677479999999999C161.53846153846155,5.507673333333332,162.46153846153845,5.35596,163.3846153846154,5.16956C164.30769230769232,4.98316,165.23076923076923,4.730179999999999,166.15384615384616,4.55908C167.0769230769231,4.387980000000001,168,4.256620000000002,168.92307692307693,4.142960000000002C169.84615384615387,4.029300000000003,170.76923076923077,4.037606666666669,171.6923076923077,3.8771200000000006C172.6153846153846,3.716633333333334,173.53846153846155,3.342613333333335,174.46153846153845,3.1800400000000018C175.3846153846154,3.0174666666666665,176.3076923076923,3.0425866666666668,177.23076923076923,2.90168C178.15384615384616,2.760773333333333,179.07692307692307,2.5476866666666664,180,2.3346"></path><path class="axis-ceiling" stroke-width="1" stroke="black" fill="none" d="M175,0L180,0"></path><text class="axis-ceiling-label" font-family="sans-serif" text-anchor="end" font-size="10px" x="170" y="2.5">1000000</text></g></svg>