<svg xmlns="http://www.w3.org/2000/svg" viewBox="0 0 180 60"><g transform="translate(0,20)"><path class="area" fill="rgba(0, 0, 0, 0.2)" d="M0,23.324800000000003C1.0169491525423728,22.8592,2.0338983050847457,22.3936,3.0508474576271185,22.3936C4.067796610169491,22.3936,5.084745762711864,24.467999999999996,6.101694915254237,25.540799999999997C7.11864406779661,26.613599999999998,8.135593220338983,28.830400000000004,9.152542372881356,28.830400000000004C10.169491525423728,28.830400000000004,11.186440677966102,22.9792,12.203389830508474,22.9792C13.220338983050846,22.9792,14.23728813559322,23.001066666666667,15.254237288135592,23.0448C16.271186440677965,23.08853333333333,17.28813559322034,24.982666666666667,18.305084745762713,25.6192C19.322033898305087,26.255733333333332,20.338983050847457,26.863999999999997,21.35593220338983,26.863999999999997C22.372881355932204,26.863999999999997,23.389830508474574,26.764799999999997,24.406779661016948,26.764799999999997C25.423728813559322,26.764799999999997,26.440677966101696,30.6032,27.45762711864407,30.6032C28.47457627118644,30.6032,29.491525423728813,30.601066666666668,30.508474576271183,30.5968C31.525423728813557,30.592533333333336,32.54237288135593,26.310400000000005,33.559322033898304,25.100800000000003C34.57627118644068,23.8912,35.59322033898305,23.2864,36.610169491525426,23.2864C37.6271186440678,23.2864,38.644067796610166,24.073333333333334,39.66101694915254,24.7104C40.67796610169491,25.347466666666666,41.69491525423729,27.1088,42.71186440677966,27.1088C43.728813559322035,27.1088,44.7457627118644,23.7616,45.762711864406775,23.7616C46.77966101694915,23.7616,47.79661016949152,24.6744,48.813559322033896,25.3984C49.83050847457627,26.1224,50.847457627118644,28.105599999999995,51.86440677966102,28.105599999999995C52.88135593220339,28.105599999999995,53.898305084745765,25.648,54.91525423728814,24.8528C55.93220338983051,24.0576,56.94915254237288,23.3344,57.96610169491525,23.3344C58.983050847457626,23.3344,59.99999999999999,27.367999999999995,61.01694915254237,27.367999999999995C62.03389830508474,27.367999999999995,63.05084745762712,23.9328,64.0677966101695,23.9328C65.08474576271186,23.9328,66.10169491525424,24.4928,67.11864406779661,24.8528C68.13559322033899,25.212799999999998,69.15254237288136,25.50053333333333,70.16949152542374,26.0928C71.1864406779661,26.685066666666668,72.20338983050848,28.4064,73.22033898305085,28.4064C74.23728813559322,28.4064,75.2542372881356,21.113599999999998,76.27118644067797,21.113599999999998C77.28813559322033,21.113599999999998,78.30508474576271,26.211199999999998,79.32203389830508,26.211199999999998C80.33898305084746,26.211199999999998,81.35593220338983,20.540000000000003,82.37288135593221,18.4848C83.38983050847457,16.429600000000008,84.40677966101696,14.132799999999996,85.42372881355932,13.879999999999999C86.4406779661017,13.6272,87.45762711864407,13.500800000000002,88.47457627118645,13.500800000000002C89.49152542372882,13.500800000000002,90.50847457627118,19.637866666666685,91.52542372881355,20.9264C92.54237288135593,22.214933333333335,93.55932203389831,22.8592,94.57627118644069,22.8592C95.59322033898306,22.8592,96.61016949152543,13.896,97.62711864406779,13.896C98.64406779661016,13.896,99.66101694915254,14.701866666666671,100.6779661016949,15.5728C101.69491525423729,16.443733333333334,102.71186440677965,19.1216,103.72881355932203,19.1216C104.7457627118644,19.1216,105.76271186440678,14.200800000000001,106.77966101694915,12.665600000000001C107.79661016949153,11.130399999999995,108.8135593220339,9.9104,109.83050847457628,9.9104C110.84745762711864,9.9104,111.86440677966102,15.741333333333335,112.88135593220339,16.0624C113.89830508474576,16.383466666666664,114.91525423728814,16.543999999999997,115.9322033898305,16.543999999999997C116.94915254237289,16.543999999999997,117.96610169491525,7.8288,118.98305084745763,7.8288C120,7.8288,121.01694915254237,15.848000000000033,122.03389830508473,18.1232C123.05084745762711,20.398400000000002,124.0677966101695,21.467733333333335,125.08474576271188,21.536C126.10169491525424,21.604266666666668,127.11864406779662,21.6384,128.135593220339,21.6384C129.15254237288136,21.6384,130.16949152542372,19.416000000000004,131.1864406779661,19.416000000000004C132.20338983050846,19.416000000000004,133.22033898305085,23.32,134.23728813559322,23.32C135.25423728813558,23.32,136.27118644067798,22.285333333333334,137.28813559322035,21.928C138.3050847457627,21.570666666666668,139.3220338983051,21.176,140.33898305084747,21.176C141.35593220338984,21.176,142.3728813559322,21.9088,143.38983050847457,21.9088C144.40677966101694,21.9088,145.42372881355934,18.940800000000003,146.4406779661017,18.940800000000003C147.45762711864407,18.940800000000003,148.47457627118644,19.528533333333336,149.4915254237288,19.9056C150.50847457627117,20.282666666666668,151.52542372881356,20.637866666666664,152.54237288135593,21.2032C153.5593220338983,21.768533333333334,154.5762711864407,23.297600000000003,155.59322033898306,23.297600000000003C156.61016949152543,23.297600000000003,157.6271186440678,23.297600000000003,158.64406779661016,23.297600000000003C159.66101694915253,23.297600000000003,160.67796610169492,25.464000000000002,161.6949152542373,25.464000000000002C162.71186440677965,25.464000000000002,163.72881355932205,22.3232,164.74576271186442,22.3232C165.76271186440678,22.3232,166.77966101694915,25.6432,167.79661016949152,25.6432C168.81355932203388,25.6432,169.83050847457628,25.065066666666667,170.84745762711864,24.824C171.864406779661,24.582933333333337,172.8813559322034,24.1968,173.89830508474577,24.1968C174.91525423728814,24.1968,175.93220338983053,25.721600000000002,176.9491525423729,25.8656C177.96610169491527,26.0096,178.98305084745763,26.0456,180,26.081599999999998L180,40C178.98305084745763,40,177.96610169491527,40,176.9491525423729,40C175.93220338983053,40,174.91525423728814,40,173.89830508474577,40C172.8813559322034,40,171.864406779661,40,170.84745762711864,40C169.83050847457628,40,168.81355932203388,40,167.79661016949152,40C166.77966101694915,40,165.76271186440678,40,164.74576271186442,40C163.72881355932205,40,162.71186440677965,40,161.6949152542373,40C160.67796610169492,40,159.66101694915253,40,158.64406779661016,40C157.6271186440678,40,156.61016949152543,40,155.59322033898306,40C154.5762711864407,40,153.5593220338983,40,152.54237288135593,40C151.52542372881356,40,150.50847457627117,40,149.4915254237288,40C148.47457627118644,40,147.45762711864407,40,146.4406779661017,40C145.42372881355934,40,144.40677966101694,40,143.38983050847457,40C142.3728813559322,40,141.35593220338984,40,140.33898305084747,40C139.3220338983051,40,138.3050847457627,40,137.28813559322035,40C136.27118644067798,40,135.25423728813558,40,134.23728813559322,40C133.22033898305085,40,132.20338983050846,40,131.1864406779661,40C130.16949152542372,40,129.15254237288136,40,128.135593220339,40C127.11864406779662,40,126.10169491525424,40,125.08474576271188,40C124.0677966101695,40,123.05084745762711,40,122.03389830508473,40C121.01694915254237,40,120,40,118.98305084745763,40C117.96610169491525,40,116.94915254237289,40,115.9322033898305,40C114.91525423728814,40,113.89830508474576,40,112.88135593220339,40C111.86440677966102,40,110.84745762711864,40,109.83050847457628,40C108.8135593220339,40,107.79661016949153,40,106.77966101694915,40C105.76271186440678,40,104.7457627118644,40,103.72881355932203,40C102.71186440677965,40,101.69491525423729,40,100.6779661016949,40C99.66101694915254,40,98.64406779661016,40,97.62711864406779,40C96.61016949152543,40,95.59322033898306,40,94.57627118644069,40C93.55932203389831,40,92.54237288135593,40,91.52542372881355,40C90.50847457627118,40,89.49152542372882,40,88.47457627118645,40C87.45762711864407,40,86.4406779661017,40,85.42372881355932,40C84.40677966101696,40,83.38983050847457,40,82.37288135593221,40C81.35593220338983,40,80.33898305084746,40,79.32203389830508,40C78.30508474576271,40,77.28813559322033,40,76.27118644067797,40C75.2542372881356,40,74.23728813559322,40,73.22033898305085,40C72.20338983050848,40,71.1864406779661,40,70.16949152542374,40C69.15254237288136,40,68.13559322033899,40,67.11864406779661,40C66.10169491525424,40,65.08474576271186,40,64.0677966101695,40C63.05084745762712,40,62.03389830508474,40,61.01694915254237,40C59.99999999999999,40,58.983050847457626,40,57.96610169491525,40C56.94915254237288,40,55.93220338983051,40,54.91525423728814,40C53.898305084745765,40,52.88135593220339,40,51.86440677966102,40C50.847457627118644,40,49.83050847457627,40,48.813559322033896,40C47.79661016949152,40,46.77966101694915,40,45.762711864406775,40C44.7457627118644,40,43.728813559322035,40,42.71186440677966,40C41.69491525423729,40,40.67796610169491,40,39.66101694915254,40C38.644067796610166,40,37.6271186440678,40,36.610169491525426,40C35.59322033898305,40,34.57627118644068,40,33.559322033898304,40C32.54237288135593,40,31.525423728813557,40,30.508474576271183,40C29.491525423728813,40,28.47457627118644,40,27.45762711864407,40C26.440677966101696,40,25.423728813559322,40,24.406779661016948,40C23.389830508474574,40,22.372881355932204,40,21.35593220338983,40C20.338983050847457,40,19.322033898305087,40,18.305084745762713,40C17.28813559322034,40,16.271186440677965,40,15.254237288135592,40C14.23728813559322,40,13.220338983050846,40,12.203389830508474,40C11.186440677966102,40,10.169491525423728,40,9.152542372881356,40C8.135593220338983,40,7.11864406779661,40,6.101694915254237,40C5.084745762711864,40,4.067796610169491,40,3.0508474576271185,40C2.0338983050847457,40,1.0169491525423728,40,0,40Z"></path><path class="line" stroke="black" fill="none" d="M0,23.324800000000003C1.0169491525423728,22.8592,2.0338983050847457,22.3936,3.0508474576271185,22.3936C4.067796610169491,22.3936,5.084745762711864,24.467999999999996,6.101694915254237,25.540799999999997C7.11864406779661,26.613599999999998,8.135593220338983,28.830400000000004,9.152542372881356,28.830400000000004C10.169491525423728,28.830400000000004,11.186440677966102,22.9792,12.203389830508474,22.9792C13.220338983050846,22.9792,14.23728813559322,23.001066666666667,15.254237288135592,23.0448C16.271186440677965,23.08853333333333,17.28813559322034,24.982666666666667,18.305084745762713,25.6192C19.322033898305087,26.255733333333332,20.338983050847457,26.863999999999997,21.35593220338983,26.863999999999997C22.372881355932204,26.863999999999997,23.389830508474574,26.764799999999997,24.406779661016948,26.764799999999997C25.423728813559322,26.764799999999997,26.440677966101696,30.6032,27.45762711864407,30.6032C28.47457627118644,30.6032,29.491525423728813,30.601066666666668,30.508474576271183,30.5968C31.525423728813557,30.592533333333336,32.54237288135593,26.310400000000005,33.559322033898304,25.100800000000003C34.57627118644068,23.8912,35.59322033898305,23.2864,36.610169491525426,23.2864C37.6271186440678,23.2864,38.644067796610166,24.073333333333334,39.66101694915254,24.7104C40.67796610169491,25.347466666666666,41.69491525423729,27.1088,42.71186440677966,27.1088C43.728813559322035,27.1088,44.7457627118644,23.7616,45.762711864406775,23.7616C46.77966101694915,23.7616,47.79661016949152,24.6744,48.813559322033896,25.3984C49.83050847457627,26.1224,50.847457627118644,28.105599999999995,51.86440677966102,28.105599999999995C52.88135593220339,28.105599999999995,53.898305084745765,25.648,54.91525423728814,24.8528C55.93220338983051,24.0576,56.94915254237288,23.3344,57.96610169491525,23.3344C58.983050847457626,23.3344,59.99999999999999,27.367999999999995,61.01694915254237,27.367999999999995C62.03389830508474,27.367999999999995,63.05084745762712,23.9328,64.0677966101695,23.9328C65.08474576271186,23.9328,66.10169491525424,24.4928,67.11864406779661,24.8528C68.13559322033899,25.212799999999998,69.15254237288136,25.50053333333333,70.16949152542374,26.0928C71.1864406779661,26.685066666666668,72.20338983050848,28.4064,73.22033898305085,28.4064C74.23728813559322,28.4064,75.2542372881356,21.113599999999998,76.27118644067797,21.113599999999998C77.28813559322033,21.113599999999998,78.30508474576271,26.211199999999998,79.32203389830508,26.211199999999998C80.33898305084746,26.211199999999998,81.35593220338983,20.540000000000003,82.37288135593221,18.4848C83.38983050847457,16.429600000000008,84.40677966101696,14.132799999999996,85.42372881355932,13.879999999999999C86.4406779661017,13.6272,87.45762711864407,13.500800000000002,88.47457627118645,13.500800000000002C89.49152542372882,13.500800000000002,90.50847457627118,19.637866666666685,91.52542372881355,20.9264C92.54237288135593,22.214933333333335,93.55932203389831,22.8592,94.57627118644069,22.8592C95.59322033898306,22.8592,96.61016949152543,13.896,97.62711864406779,13.896C98.64406779661016,13.896,99.66101694915254,14.701866666666671,100.6779661016949,15.5728C101.69491525423729,16.443733333333334,102.71186440677965,19.1216,103.72881355932203,19.1216C104.7457627118644,19.1216,105.76271186440678,14.200800000000001,106.77966101694915,12.665600000000001C107.79661016949153,11.130399999999995,108.8135593220339,9.9104,109.83050847457628,9.9104C110.84745762711864,9.9104,111.86440677966102,15.741333333333335,112.88135593220339,16.0624C113.89830508474576,16.383466666666664,114.91525423728814,16.543999999999997,115.9322033898305,16.543999999999997C116.94915254237289,16.543999999999997,117.96610169491525,7.8288,118.98305084745763,7.8288C120,7.8288,121.01694915254237,15.848000000000033,122.03389830508473,18.1232C123.05084745762711,20.398400000000002,124.0677966101695,21.467733333333335,125.08474576271188,21.536C126.10169491525424,21.604266666666668,127.11864406779662,21.6384,128.135593220339,21.6384C129.15254237288136,21.6384,130.16949152542372,19.416000000000004,131.1864406779661,19.416000000000004C132.20338983050846,19.416000000000004,133.22033898305085,23.32,134.23728813559322,23.32C135.25423728813558,23.32,136.27118644067798,22.285333333333334,137.28813559322035,21.928C138.3050847457627,21.570666666666668,139.3220338983051,21.176,140.33898305084747,21.176C141.35593220338984,21.176,142.3728813559322,21.9088,143.38983050847457,21.9088C144.40677966101694,21.9088,145.42372881355934,18.940800000000003,146.4406779661017,18.940800000000003C147.45762711864407,18.940800000000003,148.47457627118644,19.528533333333336,149.4915254237288,19.9056C150.50847457627117,20.282666666666668,151.52542372881356,20.637866666666664,152.54237288135593,21.2032C153.5593220338983,21.768533333333334,154.5762711864407,23.297600000000003,155.59322033898306,23.297600000000003C156.61016949152543,23.297600000000003,157.6271186440678,23.297600000000003,158.64406779661016,23.297600000000003C159.66101694915253,23.297600000000003,160.67796610169492,25.464000000000002,161.6949152542373,25.464000000000002C162.71186440677965,25.464000000000002,163.72881355932205,22.3232,164.74576271186442,22.3232C165.76271186440678,22.3232,166.77966101694915,25.6432,167.79661016949152,25.6432C168.81355932203388,25.6432,169.83050847457628,25.065066666666667,170.84745762711864,24.824C171.864406779661,24.582933333333337,172.8813559322034,24.1968,173.89830508474577,24.1968C174.91525423728814,24.1968,175.93220338983053,25.721600000000002,176.9491525423729,25.8656C177.96610169491527,26.0096,178.98305084745763,26.0456,180,26.081599999999998"></path><path class="axis-ceiling" stroke-width="1" stroke="black" fill="none" d="M175,0L180,0"></path><text class="axis-ceiling-label" font-family="sans-serif" text-anchor="end" font-size="10px" x="170" y="2.5">25000</text></g></svg>