<svg xmlns="http://www.w3.org/2000/svg" viewBox="0 0 180 60"><g transform="translate(0,20)"><path class="area" fill="rgba(0, 0, 0, 0.2)" d="M0,39.8044C1.0169491525423728,39.79143333333334,2.0338983050847457,39.778466666666674,3.0508474576271185,39.7424C4.067796610169491,39.70633333333333,5.084745762711864,39.588,6.101694915254237,39.588C7.11864406779661,39.588,8.135593220338983,39.670399999999994,9.152542372881356,39.672C10.169491525423728,39.6736,11.186440677966102,39.6744,12.203389830508474,39.6744C13.220338983050846,39.6744,14.23728813559322,39.272800000000004,15.254237288135592,39.272800000000004C16.271186440677965,39.272800000000004,17.28813559322034,39.2952,18.305084745762713,39.2952C19.322033898305087,39.2952,20.338983050847457,35.2532,21.35593220338983,35.2532C22.372881355932204,35.2532,23.389830508474574,37.1676,24.406779661016948,37.1676C25.423728813559322,37.1676,26.440677966101696,36.306400000000004,27.45762711864407,36.306400000000004C28.47457627118644,36.306400000000004,29.491525423728813,37.692800000000005,30.508474576271183,37.692800000000005C31.525423728813557,37.692800000000005,32.54237288135593,33.010799999999996,33.559322033898304,33.010799999999996C34.57627118644068,33.010799999999996,35.59322033898305,35.4128,36.610169491525426,35.4128C37.6271186440678,35.4128,38.644067796610166,30.437599999999996,39.66101694915254,30.437599999999996C40.67796610169491,30.437599999999996,41.69491525423729,34.708800000000004,42.71186440677966,34.708800000000004C43.728813559322035,34.708800000000004,44.7457627118644,24.153599999999997,45.762711864406775,24.153599999999997C46.77966101694915,24.153599999999997,47.79661016949152,27.952666666666666,48.813559322033896,28.1508C49.83050847457627,28.348933333333335,50.847457627118644,28.249866666666666,51.86440677966102,28.448C52.88135593220339,28.646133333333335,53.898305084745765,30.857199999999995,54.91525423728814,31.173199999999998C55.93220338983051,31.489199999999997,56.94915254237288,31.647199999999998,57.96610169491525,31.647199999999998C58.983050847457626,31.647199999999998,59.99999999999999,29.714,61.01694915254237,29.714C62.03389830508474,29.714,63.05084745762712,29.824133333333332,64.0677966101695,30.044399999999996C65.08474576271186,30.26466666666666,66.10169491525424,33.3904,67.11864406779661,33.3904C68.13559322033899,33.3904,69.15254237288136,32.9596,70.16949152542374,32.098C71.1864406779661,31.236400000000003,72.20338983050848,19.368333333333332,73.22033898305085,15.5016C74.23728813559322,11.634866666666667,75.2542372881356,8.897599999999999,76.27118644067797,8.897599999999999C77.28813559322033,8.897599999999999,78.30508474576271,18.508266666666675,79.32203389830508,20.9672C80.33898305084746,23.426133333333333,81.35593220338983,24.6556,82.37288135593221,24.6556C83.38983050847457,24.6556,84.40677966101696,18.0932,85.42372881355932,18.0932C86.4406779661017,18.0932,87.45762711864407,28.89679999999999,88.47457627118645,29.6224C89.49152542372882,30.348000000000003,90.50847457627118,30.710800000000003,91.52542372881355,30.710800000000003C92.54237288135593,30.710800000000003,93.55932203389831,30.320800000000002,94.57627118644069,30.320800000000002C95.59322033898306,30.320800000000002,96.61016949152543,30.43746666666667,97.62711864406779,30.6708C98.64406779661016,30.904133333333334,99.66101694915254,36.2464,100.6779661016949,36.2464C101.69491525423729,36.2464,102.71186440677965,35.06326666666667,103.72881355932203,34.6156C104.7457627118644,34.16793333333334,105.76271186440678,33.5604,106.77966101694915,33.5604C107.79661016949153,33.5604,108.8135593220339,34.870799999999996,109.83050847457628,34.8908C110.84745762711864,34.9108,111.86440677966102,34.9208,112.88135593220339,34.9208C113.89830508474576,34.9208,114.91525423728814,33.8952,115.9322033898305,33.8952C116.94915254237289,33.8952,117.96610169491525,35.264399999999995,118.98305084745763,35.8388C120,36.413199999999996,121.01694915254237,37.3416,122.03389830508473,37.3416C123.05084745762711,37.3416,124.0677966101695,33.029199999999996,125.08474576271188,33.029199999999996C126.10169491525424,33.029199999999996,127.11864406779662,37.2164,128.135593220339,37.2164C129.15254237288136,37.2164,130.16949152542372,34.3292,131.1864406779661,34.3292C132.20338983050846,34.3292,133.22033898305085,35.7328,134.23728813559322,35.7328C135.25423728813558,35.7328,136.27118644067798,28.6416,137.28813559322035,28.6416C138.3050847457627,28.6416,139.3220338983051,29.06299999999999,140.33898305084747,29.7776C141.35593220338984,30.4922,142.3728813559322,32.9292,143.38983050847457,32.9292C144.40677966101694,32.9292,145.42372881355934,32.296600000000005,146.4406779661017,31.7536C147.45762711864407,31.2106,148.47457627118644,30.47386666666666,149.4915254237288,29.6712C150.50847457627117,28.868533333333332,151.52542372881356,26.937600000000003,152.54237288135593,26.937600000000003C153.5593220338983,26.937600000000003,154.5762711864407,30.03066666666666,155.59322033898306,31.3152C156.61016949152543,32.599733333333326,157.6271186440678,33.87246666666667,158.64406779661016,34.644800000000004C159.66101694915253,35.41713333333335,160.67796610169492,35.949200000000005,161.6949152542373,35.949200000000005C162.71186440677965,35.949200000000005,163.72881355932205,32.2972,164.74576271186442,32.2972C165.76271186440678,32.2972,166.77966101694915,37.1588,167.79661016949152,37.1588C168.81355932203388,37.1588,169.83050847457628,33.449200000000005,170.84745762711864,33.449200000000005C171.864406779661,33.449200000000005,172.8813559322034,35.12,173.89830508474577,35.12C174.91525423728814,35.12,175.93220338983053,34.31,176.9491525423729,34.31C177.96610169491527,34.31,178.98305084745763,34.400400000000005,180,34.4908L180,40C178.98305084745763,40,177.96610169491527,40,176.9491525423729,40C175.93220338983053,40,174.91525423728814,40,173.89830508474577,40C172.8813559322034,40,171.864406779661,40,170.84745762711864,40C169.83050847457628,40,168.81355932203388,40,167.79661016949152,40C166.77966101694915,40,165.76271186440678,40,164.74576271186442,40C163.72881355932205,40,162.71186440677965,40,161.6949152542373,40C160.67796610169492,40,159.66101694915253,40,158.64406779661016,40C157.6271186440678,40,156.61016949152543,40,155.59322033898306,40C154.5762711864407,40,153.5593220338983,40,152.54237288135593,40C151.52542372881356,40,150.50847457627117,40,149.4915254237288,40C148.47457627118644,40,147.45762711864407,40,146.4406779661017,40C145.42372881355934,40,144.40677966101694,40,143.38983050847457,40C142.3728813559322,40,141.35593220338984,40,140.33898305084747,40C139.3220338983051,40,138.3050847457627,40,137.28813559322035,40C136.27118644067798,40,135.25423728813558,40,134.23728813559322,40C133.22033898305085,40,132.20338983050846,40,131.1864406779661,40C130.16949152542372,40,129.15254237288136,40,128.135593220339,40C127.11864406779662,40,126.10169491525424,40,125.08474576271188,40C124.0677966101695,40,123.05084745762711,40,122.03389830508473,40C121.01694915254237,40,120,40,118.98305084745763,40C117.96610169491525,40,116.94915254237289,40,115.9322033898305,40C114.91525423728814,40,113.89830508474576,40,112.88135593220339,40C111.86440677966102,40,110.84745762711864,40,109.83050847457628,40C108.8135593220339,40,107.79661016949153,40,106.77966101694915,40C105.76271186440678,40,104.7457627118644,40,103.72881355932203,40C102.71186440677965,40,101.69491525423729,40,100.6779661016949,40C99.66101694915254,40,98.64406779661016,40,97.62711864406779,40C96.61016949152543,40,95.59322033898306,40,94.57627118644069,40C93.55932203389831,40,92.54237288135593,40,91.52542372881355,40C90.50847457627118,40,89.49152542372882,40,88.47457627118645,40C87.45762711864407,40,86.4406779661017,40,85.42372881355932,40C84.40677966101696,40,83.38983050847457,40,82.37288135593221,40C81.35593220338983,40,80.33898305084746,40,79.32203389830508,40C78.30508474576271,40,77.28813559322033,40,76.27118644067797,40C75.2542372881356,40,74.23728813559322,40,73.22033898305085,40C72.20338983050848,40,71.1864406779661,40,70.16949152542374,40C69.15254237288136,40,68.13559322033899,40,67.11864406779661,40C66.10169491525424,40,65.08474576271186,40,64.0677966101695,40C63.05084745762712,40,62.03389830508474,40,61.01694915254237,40C59.99999999999999,40,58.983050847457626,40,57.96610169491525,40C56.94915254237288,40,55.93220338983051,40,54.91525423728814,40C53.898305084745765,40,52.88135593220339,40,51.86440677966102,40C50.847457627118644,40,49.83050847457627,40,48.813559322033896,40C47.79661016949152,40,46.77966101694915,40,45.762711864406775,40C44.7457627118644,40,43.728813559322035,40,42.71186440677966,40C41.69491525423729,40,40.67796610169491,40,39.66101694915254,40C38.644067796610166,40,37.6271186440678,40,36.610169491525426,40C35.59322033898305,40,34.57627118644068,40,33.559322033898304,40C32.54237288135593,40,31.525423728813557,40,30.508474576271183,40C29.491525423728813,40,28.47457627118644,40,27.45762711864407,40C26.440677966101696,40,25.423728813559322,40,24.406779661016948,40C23.389830508474574,40,22.372881355932204,40,21.35593220338983,40C20.338983050847457,40,19.322033898305087,40,18.305084745762713,40C17.28813559322034,40,16.271186440677965,40,15.254237288135592,40C14.23728813559322,40,13.220338983050846,40,12.203389830508474,40C11.186440677966102,40,10.169491525423728,40,9.152542372881356,40C8.135593220338983,40,7.11864406779661,40,6.101694915254237,40C5.084745762711864,40,4.067796610169491,40,3.0508474576271185,40C2.0338983050847457,40,1.0169491525423728,40,0,40Z"></path><path class="line" stroke="black" fill="none" d="M0,39.8044C1.0169491525423728,39.79143333333334,2.0338983050847457,39.778466666666674,3.0508474576271185,39.7424C4.067796610169491,39.70633333333333,5.084745762711864,39.588,6.101694915254237,39.588C7.11864406779661,39.588,8.135593220338983,39.670399999999994,9.152542372881356,39.672C10.169491525423728,39.6736,11.186440677966102,39.6744,12.203389830508474,39.6744C13.220338983050846,39.6744,14.23728813559322,39.272800000000004,15.254237288135592,39.272800000000004C16.271186440677965,39.272800000000004,17.28813559322034,39.2952,18.305084745762713,39.2952C19.322033898305087,39.2952,20.338983050847457,35.2532,21.35593220338983,35.2532C22.372881355932204,35.2532,23.389830508474574,37.1676,24.406779661016948,37.1676C25.423728813559322,37.1676,26.440677966101696,36.306400000000004,27.45762711864407,36.306400000000004C28.47457627118644,36.306400000000004,29.491525423728813,37.692800000000005,30.508474576271183,37.692800000000005C31.525423728813557,37.692800000000005,32.54237288135593,33.010799999999996,33.559322033898304,33.010799999999996C34.57627118644068,33.010799999999996,35.59322033898305,35.4128,36.610169491525426,35.4128C37.6271186440678,35.4128,38.644067796610166,30.437599999999996,39.66101694915254,30.437599999999996C40.67796610169491,30.437599999999996,41.69491525423729,34.708800000000004,42.71186440677966,34.708800000000004C43.728813559322035,34.708800000000004,44.7457627118644,24.153599999999997,45.762711864406775,24.153599999999997C46.77966101694915,24.153599999999997,47.79661016949152,27.952666666666666,48.813559322033896,28.1508C49.83050847457627,28.348933333333335,50.847457627118644,28.249866666666666,51.86440677966102,28.448C52.88135593220339,28.646133333333335,53.898305084745765,30.857199999999995,54.91525423728814,31.173199999999998C55.93220338983051,31.489199999999997,56.94915254237288,31.647199999999998,57.96610169491525,31.647199999999998C58.983050847457626,31.647199999999998,59.99999999999999,29.714,61.01694915254237,29.714C62.03389830508474,29.714,63.05084745762712,29.824133333333332,64.0677966101695,30.044399999999996C65.08474576271186,30.26466666666666,66.10169491525424,33.3904,67.11864406779661,33.3904C68.13559322033899,33.3904,69.15254237288136,32.9596,70.16949152542374,32.098C71.1864406779661,31.236400000000003,72.20338983050848,19.368333333333332,73.22033898305085,15.5016C74.23728813559322,11.634866666666667,75.2542372881356,8.897599999999999,76.27118644067797,8.897599999999999C77.28813559322033,8.897599999999999,78.30508474576271,18.508266666666675,79.32203389830508,20.9672C80.33898305084746,23.426133333333333,81.35593220338983,24.6556,82.37288135593221,24.6556C83.38983050847457,24.6556,84.40677966101696,18.0932,85.42372881355932,18.0932C86.4406779661017,18.0932,87.45762711864407,28.89679999999999,88.47457627118645,29.6224C89.49152542372882,30.348000000000003,90.50847457627118,30.710800000000003,91.52542372881355,30.710800000000003C92.54237288135593,30.710800000000003,93.55932203389831,30.320800000000002,94.57627118644069,30.320800000000002C95.59322033898306,30.320800000000002,96.61016949152543,30.43746666666667,97.62711864406779,30.6708C98.64406779661016,30.904133333333334,99.66101694915254,36.2464,100.6779661016949,36.2464C101.69491525423729,36.2464,102.71186440677965,35.06326666666667,103.72881355932203,34.6156C104.7457627118644,34.16793333333334,105.76271186440678,33.5604,106.77966101694915,33.5604C107.79661016949153,33.5604,108.8135593220339,34.870799999999996,109.83050847457628,34.8908C110.84745762711864,34.9108,111.86440677966102,34.9208,112.88135593220339,34.9208C113.89830508474576,34.9208,114.91525423728814,33.8952,115.9322033898305,33.8952C116.94915254237289,33.8952,117.96610169491525,35.264399999999995,118.98305084745763,35.8388C120,36.413199999999996,121.01694915254237,37.3416,122.03389830508473,37.3416C123.05084745762711,37.3416,124.0677966101695,33.029199999999996,125.08474576271188,33.029199999999996C126.10169491525424,33.029199999999996,127.11864406779662,37.2164,128.135593220339,37.2164C129.15254237288136,37.2164,130.16949152542372,34.3292,131.1864406779661,34.3292C132.20338983050846,34.3292,133.22033898305085,35.7328,134.23728813559322,35.7328C135.25423728813558,35.7328,136.27118644067798,28.6416,137.28813559322035,28.6416C138.3050847457627,28.6416,139.3220338983051,29.06299999999999,140.33898305084747,29.7776C141.35593220338984,30.4922,142.3728813559322,32.9292,143.38983050847457,32.9292C144.40677966101694,32.9292,145.42372881355934,32.296600000000005,146.4406779661017,31.7536C147.45762711864407,31.2106,148.47457627118644,30.47386666666666,149.4915254237288,29.6712C150.50847457627117,28.868533333333332,151.52542372881356,26.937600000000003,152.54237288135593,26.937600000000003C153.5593220338983,26.937600000000003,154.5762711864407,30.03066666666666,155.59322033898306,31.3152C156.61016949152543,32.599733333333326,157.6271186440678,33.87246666666667,158.64406779661016,34.644800000000004C159.66101694915253,35.41713333333335,160.67796610169492,35.949200000000005,161.6949152542373,35.949200000000005C162.71186440677965,35.949200000000005,163.72881355932205,32.2972,164.74576271186442,32.2972C165.76271186440678,32.2972,166.77966101694915,37.1588,167.79661016949152,37.1588C168.81355932203388,37.1588,169.83050847457628,33.449200000000005,170.84745762711864,33.449200000000005C171.864406779661,33.449200000000005,172.8813559322034,35.12,173.89830508474577,35.12C174.91525423728814,35.12,175.93220338983053,34.31,176.9491525423729,34.31C177.96610169491527,34.31,178.98305084745763,34.400400000000005,180,34.4908"></path><path class="axis-ceiling" stroke-width="1" stroke="black" fill="none" d="M175,0L180,0"></path><text class="axis-ceiling-label" font-family="sans-serif" text-anchor="end" font-size="10px" x="170" y="2.5">100000</text></g></svg>