<svg xmlns="http://www.w3.org/2000/svg" viewBox="0 0 180 60"><g transform="translate(0,20)"><path class="area" fill="rgba(0, 0, 0, 0.2)" d="M0,20.34846C1.0169491525423728,20.33493533333333,2.0338983050847457,20.321410666666665,3.0508474576271185,20.308011999999998C4.067796610169491,20.29461333333333,5.084745762711864,20.28117,6.101694915254237,20.268068C7.11864406779661,20.254966,8.135593220338983,20.242078000000003,9.152542372881356,20.229400000000002C10.169491525423728,20.216722,11.186440677966102,20.204207333333333,12.203389830508474,20.192C13.220338983050846,20.179792666666668,14.23728813559322,20.167802000000002,15.254237288135592,20.156156000000003C16.271186440677965,20.144510000000004,17.28813559322034,20.13336333333333,18.305084745762713,20.122124C19.322033898305087,20.110884666666667,20.338983050847457,20.099728000000002,21.35593220338983,20.088720000000002C22.372881355932204,20.077712000000002,23.389830508474574,20.066943333333338,24.406779661016948,20.056076000000004C25.423728813559322,20.04520866666667,26.440677966101696,20.034423333333336,27.45762711864407,20.023516C28.47457627118644,20.01260866666667,29.491525423728813,20.001578666666667,30.508474576271183,19.990632C31.525423728813557,19.979685333333336,32.54237288135593,19.968946666666668,33.559322033898304,19.957836C34.57627118644068,19.946725333333333,35.59322033898305,19.93556733333333,36.610169491525426,19.923968C37.6271186440678,19.912368666666666,38.644067796610166,19.900297333333334,39.66101694915254,19.888240000000003C40.67796610169491,19.87618266666667,41.69491525423729,19.863844000000004,42.71186440677966,19.851624C43.728813559322035,19.839404000000002,44.7457627118644,19.827152666666663,45.762711864406775,19.814919999999997C46.77966101694915,19.80268733333333,47.79661016949152,19.790299333333337,48.813559322033896,19.778228000000002C49.83050847457627,19.766156666666667,50.847457627118644,19.754593999999997,51.86440677966102,19.742492C52.88135593220339,19.73039,53.898305084745765,19.717842666666666,54.91525423728814,19.705616C55.93220338983051,19.693389333333332,56.94915254237288,19.681252,57.96610169491525,19.669132C58.983050847457626,19.657012,59.99999999999999,19.644956666666666,61.01694915254237,19.632896C62.03389830508474,19.620835333333332,63.05084745762712,19.609033333333333,64.0677966101695,19.596768C65.08474576271186,19.58450266666667,66.10169491525424,19.571620666666668,67.11864406779661,19.559304C68.13559322033899,19.546987333333334,69.15254237288136,19.535542,70.16949152542374,19.522868C71.1864406779661,19.510194,72.20338983050848,19.49706133333333,73.22033898305085,19.483259999999998C74.23728813559322,19.469458666666664,75.2542372881356,19.455136,76.27118644067797,19.44006C77.28813559322033,19.424984,78.30508474576271,19.408862666666664,79.32203389830508,19.392803999999998C80.33898305084746,19.376745333333332,81.35593220338983,19.360404,82.37288135593221,19.343708C83.38983050847457,19.327012,84.40677966101696,19.31008466666667,85.42372881355932,19.292628C86.4406779661017,19.275171333333333,87.45762711864407,19.257487333333334,88.47457627118645,19.238968C89.49152542372882,19.220448666666666,90.50847457627118,19.20062666666667,91.52542372881355,19.181512C92.54237288135593,19.162397333333335,93.55932203389831,19.143428666666665,94.57627118644069,19.12428C95.59322033898306,19.105131333333333,96.61016949152543,19.086054666666666,97.62711864406779,19.06662C98.64406779661016,19.047185333333335,99.66101694915254,19.027610666666668,100.6779661016949,19.007672000000003C101.69491525423729,18.987733333333335,102.71186440677965,18.967591333333335,103.72881355932203,18.946988C104.7457627118644,18.926384666666667,105.76271186440678,18.905391999999996,106.77966101694915,18.884051999999997C107.79661016949153,18.862711999999995,108.8135593220339,18.840498,109.83050847457628,18.818948C110.84745762711864,18.797398,111.86440677966102,18.776006666666667,112.88135593220339,18.754752C113.89830508474576,18.733497333333332,114.91525423728814,18.711996666666668,115.9322033898305,18.69142C116.94915254237289,18.670843333333334,117.96610169491525,18.650768666666664,118.98305084745763,18.631292C120,18.611815333333332,121.01694915254237,18.593038666666665,122.03389830508473,18.574559999999998C123.05084745762711,18.55608133333333,124.0677966101695,18.538146666666666,125.08474576271188,18.52042C126.10169491525424,18.502693333333337,127.11864406779662,18.484811333333337,128.135593220339,18.468200000000003C129.15254237288136,18.45158866666667,130.16949152542372,18.436343333333333,131.1864406779661,18.420752C132.20338983050846,18.405160666666667,133.22033898305085,18.39017266666667,134.23728813559322,18.374652C135.25423728813558,18.359131333333334,136.27118644067798,18.343406666666663,137.28813559322035,18.327627999999997C138.3050847457627,18.31184933333333,139.3220338983051,18.295755333333336,140.33898305084747,18.279980000000002C141.35593220338984,18.264204666666668,142.3728813559322,18.248646,143.38983050847457,18.232976C144.40677966101694,18.217306,145.42372881355934,18.201549999999997,146.4406779661017,18.185959999999998C147.45762711864407,18.17037,148.47457627118644,18.154688666666665,149.4915254237288,18.139436C150.50847457627117,18.124183333333335,151.52542372881356,18.109417333333333,152.54237288135593,18.094444C153.5593220338983,18.079470666666666,154.5762711864407,18.064146,155.59322033898306,18.049596C156.61016949152543,18.035046,157.6271186440678,18.021002,158.64406779661016,18.007144C159.66101694915253,17.993286,160.67796610169492,17.979834666666665,161.6949152542373,17.966448C162.71186440677965,17.953061333333334,163.72881355932205,17.93988,164.74576271186442,17.926824C165.76271186440678,17.913768,166.77966101694915,17.900849333333333,167.79661016949152,17.888112C168.81355932203388,17.875374666666666,169.83050847457628,17.863006666666667,170.84745762711864,17.8504C171.864406779661,17.837793333333334,172.8813559322034,17.824969333333332,173.89830508474577,17.812472C174.91525423728814,17.799974666666667,175.93220338983053,17.787770000000002,176.9491525423729,17.775416C177.96610169491527,17.763062,178.98305084745763,17.750705,180,17.738348L180,40C178.98305084745763,40,177.96610169491527,40,176.9491525423729,40C175.93220338983053,40,174.91525423728814,40,173.89830508474577,40C172.8813559322034,40,171.864406779661,40,170.84745762711864,40C169.83050847457628,40,168.81355932203388,40,167.79661016949152,40C166.77966101694915,40,165.76271186440678,40,164.74576271186442,40C163.72881355932205,40,162.71186440677965,40,161.6949152542373,40C160.67796610169492,40,159.66101694915253,40,158.64406779661016,40C157.6271186440678,40,156.61016949152543,40,155.59322033898306,40C154.5762711864407,40,153.5593220338983,40,152.54237288135593,40C151.52542372881356,40,150.50847457627117,40,149.4915254237288,40C148.47457627118644,40,147.45762711864407,40,146.4406779661017,40C145.42372881355934,40,144.40677966101694,40,143.38983050847457,40C142.3728813559322,40,141.35593220338984,40,140.33898305084747,40C139.3220338983051,40,138.3050847457627,40,137.28813559322035,40C136.27118644067798,40,135.25423728813558,40,134.23728813559322,40C133.22033898305085,40,132.20338983050846,40,131.1864406779661,40C130.16949152542372,40,129.15254237288136,40,128.135593220339,40C127.11864406779662,40,126.10169491525424,40,125.08474576271188,40C124.0677966101695,40,123.05084745762711,40,122.03389830508473,40C121.01694915254237,40,120,40,118.98305084745763,40C117.96610169491525,40,116.94915254237289,40,115.9322033898305,40C114.91525423728814,40,113.89830508474576,40,112.88135593220339,40C111.86440677966102,40,110.84745762711864,40,109.83050847457628,40C108.8135593220339,40,107.79661016949153,40,106.77966101694915,40C105.76271186440678,40,104.7457627118644,40,103.72881355932203,40C102.71186440677965,40,101.69491525423729,40,100.6779661016949,40C99.66101694915254,40,98.64406779661016,40,97.62711864406779,40C96.61016949152543,40,95.59322033898306,40,94.57627118644069,40C93.55932203389831,40,92.54237288135593,40,91.52542372881355,40C90.50847457627118,40,89.49152542372882,40,88.47457627118645,40C87.45762711864407,40,86.4406779661017,40,85.42372881355932,40C84.40677966101696,40,83.38983050847457,40,82.37288135593221,40C81.35593220338983,40,80.33898305084746,40,79.32203389830508,40C78.30508474576271,40,77.28813559322033,40,76.27118644067797,40C75.2542372881356,40,74.23728813559322,40,73.22033898305085,40C72.20338983050848,40,71.1864406779661,40,70.16949152542374,40C69.15254237288136,40,68.13559322033899,40,67.11864406779661,40C66.10169491525424,40,65.08474576271186,40,64.0677966101695,40C63.05084745762712,40,62.03389830508474,40,61.01694915254237,40C59.99999999999999,40,58.983050847457626,40,57.96610169491525,40C56.94915254237288,40,55.93220338983051,40,54.91525423728814,40C53.898305084745765,40,52.88135593220339,40,51.86440677966102,40C50.847457627118644,40,49.83050847457627,40,48.813559322033896,40C47.79661016949152,40,46.77966101694915,40,45.762711864406775,40C44.7457627118644,40,43.728813559322035,40,42.71186440677966,40C41.69491525423729,40,40.67796610169491,40,39.66101694915254,40C38.644067796610166,40,37.6271186440678,40,36.610169491525426,40C35.59322033898305,40,34.57627118644068,40,33.559322033898304,40C32.54237288135593,40,31.525423728813557,40,30.508474576271183,40C29.491525423728813,40,28.47457627118644,40,27.45762711864407,40C26.440677966101696,40,25.423728813559322,40,24.406779661016948,40C23.389830508474574,40,22.372881355932204,40,21.35593220338983,40C20.338983050847457,40,19.322033898305087,40,18.305084745762713,40C17.28813559322034,40,16.271186440677965,40,15.254237288135592,40C14.23728813559322,40,13.220338983050846,40,12.203389830508474,40C11.186440677966102,40,10.169491525423728,40,9.152542372881356,40C8.135593220338983,40,7.11864406779661,40,6.101694915254237,40C5.084745762711864,40,4.067796610169491,40,3.0508474576271185,40C2.0338983050847457,40,1.0169491525423728,40,0,40Z"></path><path class="line" stroke="black" fill="none" d="M0,20.34846C1.0169491525423728,20.33493533333333,2.0338983050847457,20.321410666666665,3.0508474576271185,20.308011999999998C4.067796610169491,20.29461333333333,5.084745762711864,20.28117,6.101694915254237,20.268068C7.11864406779661,20.254966,8.135593220338983,20.242078000000003,9.152542372881356,20.229400000000002C10.169491525423728,20.216722,11.186440677966102,20.204207333333333,12.203389830508474,20.192C13.220338983050846,20.179792666666668,14.23728813559322,20.167802000000002,15.254237288135592,20.156156000000003C16.271186440677965,20.144510000000004,17.28813559322034,20.13336333333333,18.305084745762713,20.122124C19.322033898305087,20.110884666666667,20.338983050847457,20.099728000000002,21.35593220338983,20.088720000000002C22.372881355932204,20.077712000000002,23.389830508474574,20.066943333333338,24.406779661016948,20.056076000000004C25.423728813559322,20.04520866666667,26.440677966101696,20.034423333333336,27.45762711864407,20.023516C28.47457627118644,20.01260866666667,29.491525423728813,20.001578666666667,30.508474576271183,19.990632C31.525423728813557,19.979685333333336,32.54237288135593,19.968946666666668,33.559322033898304,19.957836C34.57627118644068,19.946725333333333,35.59322033898305,19.93556733333333,36.610169491525426,19.923968C37.6271186440678,19.912368666666666,38.644067796610166,19.900297333333334,39.66101694915254,19.888240000000003C40.67796610169491,19.87618266666667,41.69491525423729,19.863844000000004,42.71186440677966,19.851624C43.728813559322035,19.839404000000002,44.7457627118644,19.827152666666663,45.762711864406775,19.814919999999997C46.77966101694915,19.80268733333333,47.79661016949152,19.790299333333337,48.813559322033896,19.778228000000002C49.83050847457627,19.766156666666667,50.847457627118644,19.754593999999997,51.86440677966102,19.742492C52.88135593220339,19.73039,53.898305084745765,19.717842666666666,54.91525423728814,19.705616C55.93220338983051,19.693389333333332,56.94915254237288,19.681252,57.96610169491525,19.669132C58.983050847457626,19.657012,59.99999999999999,19.644956666666666,61.01694915254237,19.632896C62.03389830508474,19.620835333333332,63.05084745762712,19.609033333333333,64.0677966101695,19.596768C65.08474576271186,19.58450266666667,66.10169491525424,19.571620666666668,67.11864406779661,19.559304C68.13559322033899,19.546987333333334,69.15254237288136,19.535542,70.16949152542374,19.522868C71.1864406779661,19.510194,72.20338983050848,19.49706133333333,73.22033898305085,19.483259999999998C74.23728813559322,19.469458666666664,75.2542372881356,19.455136,76.27118644067797,19.44006C77.28813559322033,19.424984,78.30508474576271,19.408862666666664,79.32203389830508,19.392803999999998C80.33898305084746,19.376745333333332,81.35593220338983,19.360404,82.37288135593221,19.343708C83.38983050847457,19.327012,84.40677966101696,19.31008466666667,85.42372881355932,19.292628C86.4406779661017,19.275171333333333,87.45762711864407,19.257487333333334,88.47457627118645,19.238968C89.49152542372882,19.220448666666666,90.50847457627118,19.20062666666667,91.52542372881355,19.181512C92.54237288135593,19.162397333333335,93.55932203389831,19.143428666666665,94.57627118644069,19.12428C95.59322033898306,19.105131333333333,96.61016949152543,19.086054666666666,97.62711864406779,19.06662C98.64406779661016,19.047185333333335,99.66101694915254,19.027610666666668,100.6779661016949,19.007672000000003C101.69491525423729,18.987733333333335,102.71186440677965,18.967591333333335,103.72881355932203,18.946988C104.7457627118644,18.926384666666667,105.76271186440678,18.905391999999996,106.77966101694915,18.884051999999997C107.79661016949153,18.862711999999995,108.8135593220339,18.840498,109.83050847457628,18.818948C110.84745762711864,18.797398,111.86440677966102,18.776006666666667,112.88135593220339,18.754752C113.89830508474576,18.733497333333332,114.91525423728814,18.711996666666668,115.9322033898305,18.69142C116.94915254237289,18.670843333333334,117.96610169491525,18.650768666666664,118.98305084745763,18.631292C120,18.611815333333332,121.01694915254237,18.593038666666665,122.03389830508473,18.574559999999998C123.05084745762711,18.55608133333333,124.0677966101695,18.538146666666666,125.08474576271188,18.52042C126.10169491525424,18.502693333333337,127.11864406779662,18.484811333333337,128.135593220339,18.468200000000003C129.15254237288136,18.45158866666667,130.16949152542372,18.436343333333333,131.1864406779661,18.420752C132.20338983050846,18.405160666666667,133.22033898305085,18.39017266666667,134.23728813559322,18.374652C135.25423728813558,18.359131333333334,136.27118644067798,18.343406666666663,137.28813559322035,18.327627999999997C138.3050847457627,18.31184933333333,139.3220338983051,18.295755333333336,140.33898305084747,18.279980000000002C141.35593220338984,18.264204666666668,142.3728813559322,18.248646,143.38983050847457,18.232976C144.40677966101694,18.217306,145.42372881355934,18.201549999999997,146.4406779661017,18.185959999999998C147.45762711864407,18.17037,148.47457627118644,18.154688666666665,149.4915254237288,18.139436C150.50847457627117,18.124183333333335,151.52542372881356,18.109417333333333,152.54237288135593,18.094444C153.5593220338983,18.079470666666666,154.5762711864407,18.064146,155.59322033898306,18.049596C156.61016949152543,18.035046,157.6271186440678,18.021002,158.64406779661016,18.007144C159.66101694915253,17.993286,160.67796610169492,17.979834666666665,161.6949152542373,17.966448C162.71186440677965,17.953061333333334,163.72881355932205,17.93988,164.74576271186442,17.926824C165.76271186440678,17.913768,166.77966101694915,17.900849333333333,167.79661016949152,17.888112C168.81355932203388,17.875374666666666,169.83050847457628,17.863006666666667,170.84745762711864,17.8504C171.864406779661,17.837793333333334,172.8813559322034,17.824969333333332,173.89830508474577,17.812472C174.91525423728814,17.799974666666667,175.93220338983053,17.787770000000002,176.9491525423729,17.775416C177.96610169491527,17.763062,178.98305084745763,17.750705,180,17.738348"></path><path class="axis-ceiling" stroke-width="1" stroke="black" fill="none" d="M175,0L180,0"></path><text class="axis-ceiling-label" font-family="sans-serif" text-anchor="end" font-size="10px" x="170" y="2.5">10000000</text></g></svg>