<svg xmlns="http://www.w3.org/2000/svg" viewBox="0 0 180 60"><g transform="translate(0,20)"><path class="area" fill="rgba(0, 0, 0, 0.2)" d="M0,24.213857777777783C1.0169491525423728,24.13417851851852,2.0338983050847457,24.05449925925926,3.0508474576271185,23.97741333333333C4.067796610169491,23.900327407407403,5.084745762711864,23.83333037037037,6.101694915254237,23.75134222222222C7.11864406779661,23.66935407407407,8.135593220338983,23.57846222222222,9.152542372881356,23.485484444444445C10.169491525423728,23.39250666666667,11.186440677966102,23.27180592592593,12.203389830508474,23.19347555555556C13.220338983050846,23.115145185185188,14.23728813559322,23.063645925925925,15.254237288135592,23.01550222222222C16.271186440677965,22.967358518518516,17.28813559322034,22.967207407407404,18.305084745762713,22.90461333333333C19.322033898305087,22.842019259259256,20.338983050847457,22.734441481481483,21.35593220338983,22.639937777777778C22.372881355932204,22.545434074074073,23.389830508474574,22.438917037037033,24.406779661016948,22.33759111111111C25.423728813559322,22.236265185185182,26.440677966101696,22.130000000000003,27.45762711864407,22.031982222222226C28.47457627118644,21.93396444444445,29.491525423728813,21.86016888888889,30.508474576271183,21.749484444444445C31.525423728813557,21.6388,32.54237288135593,21.468697777777777,33.559322033898304,21.367875555555553C34.57627118644068,21.26705333333333,35.59322033898305,21.21385037037037,36.610169491525426,21.14455111111111C37.6271186440678,21.07525185185185,38.644067796610166,21.070226666666667,39.66101694915254,20.95208C40.67796610169491,20.83393333333333,41.69491525423729,20.609663703703703,42.71186440677966,20.43567111111111C43.728813559322035,20.261678518518515,44.7457627118644,20.06104,45.762711864406775,19.908124444444443C46.77966101694915,19.755208888888887,47.79661016949152,19.701637037037038,48.813559322033896,19.51817777777778C49.83050847457627,19.33471851851852,50.847457627118644,19.02451111111111,51.86440677966102,18.807368888888888C52.88135593220339,18.590226666666666,53.898305084745765,18.41911407407407,54.91525423728814,18.21532444444444C55.93220338983051,18.011534814814812,56.94915254237288,17.773951111111113,57.96610169491525,17.584631111111115C58.983050847457626,17.395311111111116,59.99999999999999,17.287312592592592,61.01694915254237,17.079404444444446C62.03389830508474,16.871496296296296,63.05084745762712,16.59656740740741,64.0677966101695,16.337182222222225C65.08474576271186,16.07779703703704,66.10169491525424,15.799525925925927,67.11864406779661,15.523093333333335C68.13559322033899,15.246660740740742,69.15254237288136,14.96323703703704,70.16949152542374,14.678586666666668C71.1864406779661,14.393936296296298,72.20338983050848,14.065284444444442,73.22033898305085,13.815191111111108C74.23728813559322,13.565097777777774,75.2542372881356,13.397456296296296,76.27118644067797,13.178026666666668C77.28813559322033,12.95859703703704,78.30508474576271,12.75694814814815,79.32203389830508,12.498613333333335C80.33898305084746,12.240278518518519,81.35593220338983,11.884105185185186,82.37288135593221,11.628017777777778C83.38983050847457,11.371930370370372,84.40677966101696,11.135074074074074,85.42372881355932,10.96208888888889C86.4406779661017,10.789103703703702,87.45762711864407,10.696528888888889,88.47457627118645,10.590106666666665C89.49152542372882,10.483684444444444,90.50847457627118,10.400543703703706,91.52542372881355,10.323555555555558C92.54237288135593,10.24656740740741,93.55932203389831,10.20802814814815,94.57627118644069,10.128177777777779C95.59322033898306,10.04832740740741,96.61016949152543,9.919885925925927,97.62711864406779,9.844453333333334C98.64406779661016,9.769020740740741,99.66101694915254,9.734177777777779,100.6779661016949,9.675582222222223C101.69491525423729,9.616986666666667,102.71186440677965,9.573967407407409,103.72881355932203,9.492880000000001C104.7457627118644,9.411792592592594,105.76271186440678,9.29816,106.77966101694915,9.189057777777778C107.79661016949153,9.079955555555555,108.8135593220339,8.961481481481483,109.83050847457628,8.838266666666668C110.84745762711864,8.715051851851854,111.86440677966102,8.569755555555558,112.88135593220339,8.44976888888889C113.89830508474576,8.329782222222223,114.91525423728814,8.249034074074071,115.9322033898305,8.118346666666664C116.94915254237289,7.987659259259257,117.96610169491525,7.784600000000002,118.98305084745763,7.665644444444446C120,7.546688888888892,121.01694915254237,7.483900740740739,122.03389830508473,7.404613333333332C123.05084745762711,7.325325925925924,124.0677966101695,7.251915555555557,125.08474576271188,7.189920000000001C126.10169491525424,7.127924444444446,127.11864406779662,7.1048281481481474,128.135593220339,7.032639999999999C129.15254237288136,6.96045185185185,130.16949152542372,6.861142222222221,131.1864406779661,6.756791111111111C132.20338983050846,6.6524399999999995,133.22033898305085,6.522663703703703,134.23728813559322,6.406533333333333C135.25423728813558,6.290402962962963,136.27118644067798,6.17086814814815,137.28813559322035,6.06000888888889C138.3050847457627,5.9491496296296305,139.3220338983051,5.843527407407407,140.33898305084747,5.741377777777776C141.35593220338984,5.639228148148146,142.3728813559322,5.529453333333331,143.38983050847457,5.447111111111109C144.40677966101694,5.364768888888887,145.42372881355934,5.318160000000001,146.4406779661017,5.247324444444446C147.45762711864407,5.1764888888888905,148.47457627118644,5.104060740740741,149.4915254237288,5.022097777777779C150.50847457627117,4.940134814814815,151.52542372881356,4.848708148148147,152.54237288135593,4.755546666666666C153.5593220338983,4.662385185185184,154.5762711864407,4.5725525925925945,155.59322033898306,4.46312888888889C156.61016949152543,4.353705185185186,157.6271186440678,4.209044444444443,158.64406779661016,4.099004444444443C159.66101694915253,3.9889644444444423,160.67796610169492,3.8873111111111105,161.6949152542373,3.802888888888889C162.71186440677965,3.7184666666666675,163.72881355932205,3.65006814814815,164.74576271186442,3.592471111111113C165.76271186440678,3.5348740740740765,166.77966101694915,3.5190814814814835,167.79661016949152,3.4573066666666685C168.81355932203388,3.395531851851853,169.83050847457628,3.2935407407407404,170.84745762711864,3.2218222222222215C171.864406779661,3.1501037037037025,172.8813559322034,3.096872592592591,173.89830508474577,3.026995555555554C174.91525423728814,2.957118518518517,175.93220338983053,2.8025600000000006,176.9491525423729,2.8025600000000006C177.96610169491527,2.8025600000000006,178.98305084745763,2.8025600000000006,180,2.8025600000000006L180,40C178.98305084745763,40,177.96610169491527,40,176.9491525423729,40C175.93220338983053,40,174.91525423728814,40,173.89830508474577,40C172.8813559322034,40,171.864406779661,40,170.84745762711864,40C169.83050847457628,40,168.81355932203388,40,167.79661016949152,40C166.77966101694915,40,165.76271186440678,40,164.74576271186442,40C163.72881355932205,40,162.71186440677965,40,161.6949152542373,40C160.67796610169492,40,159.66101694915253,40,158.64406779661016,40C157.6271186440678,40,156.61016949152543,40,155.59322033898306,40C154.5762711864407,40,153.5593220338983,40,152.54237288135593,40C151.52542372881356,40,150.50847457627117,40,149.4915254237288,40C148.47457627118644,40,147.45762711864407,40,146.4406779661017,40C145.42372881355934,40,144.40677966101694,40,143.38983050847457,40C142.3728813559322,40,141.35593220338984,40,140.33898305084747,40C139.3220338983051,40,138.3050847457627,40,137.28813559322035,40C136.27118644067798,40,135.25423728813558,40,134.23728813559322,40C133.22033898305085,40,132.20338983050846,40,131.1864406779661,40C130.16949152542372,40,129.15254237288136,40,128.135593220339,40C127.11864406779662,40,126.10169491525424,40,125.08474576271188,40C124.0677966101695,40,123.05084745762711,40,122.03389830508473,40C121.01694915254237,40,120,40,118.98305084745763,40C117.96610169491525,40,116.94915254237289,40,115.9322033898305,40C114.91525423728814,40,113.89830508474576,40,112.88135593220339,40C111.86440677966102,40,110.84745762711864,40,109.83050847457628,40C108.8135593220339,40,107.79661016949153,40,106.77966101694915,40C105.76271186440678,40,104.7457627118644,40,103.72881355932203,40C102.71186440677965,40,101.69491525423729,40,100.6779661016949,40C99.66101694915254,40,98.64406779661016,40,97.62711864406779,40C96.61016949152543,40,95.59322033898306,40,94.57627118644069,40C93.55932203389831,40,92.54237288135593,40,91.52542372881355,40C90.50847457627118,40,89.49152542372882,40,88.47457627118645,40C87.45762711864407,40,86.4406779661017,40,85.42372881355932,40C84.40677966101696,40,83.38983050847457,40,82.37288135593221,40C81.35593220338983,40,80.33898305084746,40,79.32203389830508,40C78.30508474576271,40,77.28813559322033,40,76.27118644067797,40C75.2542372881356,40,74.23728813559322,40,73.22033898305085,40C72.20338983050848,40,71.1864406779661,40,70.16949152542374,40C69.15254237288136,40,68.13559322033899,40,67.11864406779661,40C66.10169491525424,40,65.08474576271186,40,64.0677966101695,40C63.05084745762712,40,62.03389830508474,40,61.01694915254237,40C59.99999999999999,40,58.983050847457626,40,57.96610169491525,40C56.94915254237288,40,55.93220338983051,40,54.91525423728814,40C53.898305084745765,40,52.88135593220339,40,51.86440677966102,40C50.847457627118644,40,49.83050847457627,40,48.813559322033896,40C47.79661016949152,40,46.77966101694915,40,45.762711864406775,40C44.7457627118644,40,43.728813559322035,40,42.71186440677966,40C41.69491525423729,40,40.67796610169491,40,39.66101694915254,40C38.644067796610166,40,37.6271186440678,40,36.610169491525426,40C35.59322033898305,40,34.57627118644068,40,33.559322033898304,40C32.54237288135593,40,31.525423728813557,40,30.508474576271183,40C29.491525423728813,40,28.47457627118644,40,27.45762711864407,40C26.440677966101696,40,25.423728813559322,40,24.406779661016948,40C23.389830508474574,40,22.372881355932204,40,21.35593220338983,40C20.338983050847457,40,19.322033898305087,40,18.305084745762713,40C17.28813559322034,40,16.271186440677965,40,15.254237288135592,40C14.23728813559322,40,13.220338983050846,40,12.203389830508474,40C11.186440677966102,40,10.169491525423728,40,9.152542372881356,40C8.135593220338983,40,7.11864406779661,40,6.101694915254237,40C5.084745762711864,40,4.067796610169491,40,3.0508474576271185,40C2.0338983050847457,40,1.0169491525423728,40,0,40Z"></path><path class="line" stroke="black" fill="none" d="M0,24.213857777777783C1.0169491525423728,24.13417851851852,2.0338983050847457,24.05449925925926,3.0508474576271185,23.97741333333333C4.067796610169491,23.900327407407403,5.084745762711864,23.83333037037037,6.101694915254237,23.75134222222222C7.11864406779661,23.66935407407407,8.135593220338983,23.57846222222222,9.152542372881356,23.485484444444445C10.169491525423728,23.39250666666667,11.186440677966102,23.27180592592593,12.203389830508474,23.19347555555556C13.220338983050846,23.115145185185188,14.23728813559322,23.063645925925925,15.254237288135592,23.01550222222222C16.271186440677965,22.967358518518516,17.28813559322034,22.967207407407404,18.305084745762713,22.90461333333333C19.322033898305087,22.842019259259256,20.338983050847457,22.734441481481483,21.35593220338983,22.639937777777778C22.372881355932204,22.545434074074073,23.389830508474574,22.438917037037033,24.406779661016948,22.33759111111111C25.423728813559322,22.236265185185182,26.440677966101696,22.130000000000003,27.45762711864407,22.031982222222226C28.47457627118644,21.93396444444445,29.491525423728813,21.86016888888889,30.508474576271183,21.749484444444445C31.525423728813557,21.6388,32.54237288135593,21.468697777777777,33.559322033898304,21.367875555555553C34.57627118644068,21.26705333333333,35.59322033898305,21.21385037037037,36.610169491525426,21.14455111111111C37.6271186440678,21.07525185185185,38.644067796610166,21.070226666666667,39.66101694915254,20.95208C40.67796610169491,20.83393333333333,41.69491525423729,20.609663703703703,42.71186440677966,20.43567111111111C43.728813559322035,20.261678518518515,44.7457627118644,20.06104,45.762711864406775,19.908124444444443C46.77966101694915,19.755208888888887,47.79661016949152,19.701637037037038,48.813559322033896,19.51817777777778C49.83050847457627,19.33471851851852,50.847457627118644,19.02451111111111,51.86440677966102,18.807368888888888C52.88135593220339,18.590226666666666,53.898305084745765,18.41911407407407,54.91525423728814,18.21532444444444C55.93220338983051,18.011534814814812,56.94915254237288,17.773951111111113,57.96610169491525,17.584631111111115C58.983050847457626,17.395311111111116,59.99999999999999,17.287312592592592,61.01694915254237,17.079404444444446C62.03389830508474,16.871496296296296,63.05084745762712,16.59656740740741,64.0677966101695,16.337182222222225C65.08474576271186,16.07779703703704,66.10169491525424,15.799525925925927,67.11864406779661,15.523093333333335C68.13559322033899,15.246660740740742,69.15254237288136,14.96323703703704,70.16949152542374,14.678586666666668C71.1864406779661,14.393936296296298,72.20338983050848,14.065284444444442,73.22033898305085,13.815191111111108C74.23728813559322,13.565097777777774,75.2542372881356,13.397456296296296,76.27118644067797,13.178026666666668C77.28813559322033,12.95859703703704,78.30508474576271,12.75694814814815,79.32203389830508,12.498613333333335C80.33898305084746,12.240278518518519,81.35593220338983,11.884105185185186,82.37288135593221,11.628017777777778C83.38983050847457,11.371930370370372,84.40677966101696,11.135074074074074,85.42372881355932,10.96208888888889C86.4406779661017,10.789103703703702,87.45762711864407,10.696528888888889,88.47457627118645,10.590106666666665C89.49152542372882,10.483684444444444,90.50847457627118,10.400543703703706,91.52542372881355,10.323555555555558C92.54237288135593,10.24656740740741,93.55932203389831,10.20802814814815,94.57627118644069,10.128177777777779C95.59322033898306,10.04832740740741,96.61016949152543,9.919885925925927,97.62711864406779,9.844453333333334C98.64406779661016,9.769020740740741,99.66101694915254,9.734177777777779,100.6779661016949,9.675582222222223C101.69491525423729,9.616986666666667,102.71186440677965,9.573967407407409,103.72881355932203,9.492880000000001C104.7457627118644,9.411792592592594,105.76271186440678,9.29816,106.77966101694915,9.189057777777778C107.79661016949153,9.079955555555555,108.8135593220339,8.961481481481483,109.83050847457628,8.838266666666668C110.84745762711864,8.715051851851854,111.86440677966102,8.569755555555558,112.88135593220339,8.44976888888889C113.89830508474576,8.329782222222223,114.91525423728814,8.249034074074071,115.9322033898305,8.118346666666664C116.94915254237289,7.987659259259257,117.96610169491525,7.784600000000002,118.98305084745763,7.665644444444446C120,7.546688888888892,121.01694915254237,7.483900740740739,122.03389830508473,7.404613333333332C123.05084745762711,7.325325925925924,124.0677966101695,7.251915555555557,125.08474576271188,7.189920000000001C126.10169491525424,7.127924444444446,127.11864406779662,7.1048281481481474,128.135593220339,7.032639999999999C129.15254237288136,6.96045185185185,130.16949152542372,6.861142222222221,131.1864406779661,6.756791111111111C132.20338983050846,6.6524399999999995,133.22033898305085,6.522663703703703,134.23728813559322,6.406533333333333C135.25423728813558,6.290402962962963,136.27118644067798,6.17086814814815,137.28813559322035,6.06000888888889C138.3050847457627,5.9491496296296305,139.3220338983051,5.843527407407407,140.33898305084747,5.741377777777776C141.35593220338984,5.639228148148146,142.3728813559322,5.529453333333331,143.38983050847457,5.447111111111109C144.40677966101694,5.364768888888887,145.42372881355934,5.318160000000001,146.4406779661017,5.247324444444446C147.45762711864407,5.1764888888888905,148.47457627118644,5.104060740740741,149.4915254237288,5.022097777777779C150.50847457627117,4.940134814814815,151.52542372881356,4.848708148148147,152.54237288135593,4.755546666666666C153.5593220338983,4.662385185185184,154.5762711864407,4.5725525925925945,155.59322033898306,4.46312888888889C156.61016949152543,4.353705185185186,157.6271186440678,4.209044444444443,158.64406779661016,4.099004444444443C159.66101694915253,3.9889644444444423,160.67796610169492,3.8873111111111105,161.6949152542373,3.802888888888889C162.71186440677965,3.7184666666666675,163.72881355932205,3.65006814814815,164.74576271186442,3.592471111111113C165.76271186440678,3.5348740740740765,166.77966101694915,3.5190814814814835,167.79661016949152,3.4573066666666685C168.81355932203388,3.395531851851853,169.83050847457628,3.2935407407407404,170.84745762711864,3.2218222222222215C171.864406779661,3.1501037037037025,172.8813559322034,3.096872592592591,173.89830508474577,3.026995555555554C174.91525423728814,2.957118518518517,175.93220338983053,2.8025600000000006,176.9491525423729,2.8025600000000006C177.96610169491527,2.8025600000000006,178.98305084745763,2.8025600000000006,180,2.8025600000000006"></path><path class="axis-ceiling" stroke-width="1" stroke="black" fill="none" d="M175,0L180,0"></path><text class="axis-ceiling-label" font-family="sans-serif" text-anchor="end" font-size="10px" x="170" y="2.5">4500000</text></g></svg>