<svg xmlns="http://www.w3.org/2000/svg" viewBox="0 0 180 60"><g transform="translate(0,20)"><path class="area" fill="rgba(0, 0, 0, 0.2)" d="M0,27.313200000000002C1.0169491525423728,27.203535,2.0338983050847457,27.093869999999995,3.0508474576271185,26.978359999999995C4.067796610169491,26.862849999999995,5.084745762711864,26.728213333333333,6.101694915254237,26.62014C7.11864406779661,26.512066666666666,8.135593220338983,26.43585,9.152542372881356,26.329919999999998C10.169491525423728,26.223989999999997,11.186440677966102,26.095118333333335,12.203389830508474,25.984560000000002C13.220338983050846,25.87400166666667,14.23728813559322,25.767325,15.254237288135592,25.66657C16.271186440677965,25.565815,17.28813559322034,25.487734999999997,18.305084745762713,25.380029999999998C19.322033898305087,25.272325,20.338983050847457,25.135928333333332,21.35593220338983,25.02034C22.372881355932204,24.90475166666667,23.389830508474574,24.783230000000003,24.406779661016948,24.686500000000002C25.423728813559322,24.58977,26.440677966101696,24.501563333333337,27.45762711864407,24.439960000000003C28.47457627118644,24.37835666666667,29.491525423728813,24.394685000000006,30.508474576271183,24.316880000000005C31.525423728813557,24.239075000000003,32.54237288135593,24.073065000000003,33.559322033898304,23.97313C34.57627118644068,23.873195,35.59322033898305,23.802546666666665,36.610169491525426,23.71727C37.6271186440678,23.631993333333334,38.644067796610166,23.55242666666667,39.66101694915254,23.461470000000002C40.67796610169491,23.370513333333335,41.69491525423729,23.272945000000004,42.71186440677966,23.171530000000004C43.728813559322035,23.070115000000005,44.7457627118644,22.941350000000003,45.762711864406775,22.852980000000002C46.77966101694915,22.76461,47.79661016949152,22.69408333333333,48.813559322033896,22.641309999999997C49.83050847457627,22.588536666666663,50.847457627118644,22.603126666666665,51.86440677966102,22.53634C52.88135593220339,22.469553333333334,53.898305084745765,22.334215,54.91525423728814,22.24059C55.93220338983051,22.146965,56.94915254237288,22.06131166666667,57.96610169491525,21.974590000000003C58.983050847457626,21.887868333333337,59.99999999999999,21.812496666666664,61.01694915254237,21.720259999999996C62.03389830508474,21.628023333333328,63.05084745762712,21.525769999999998,64.0677966101695,21.421169999999996C65.08474576271186,21.31657,66.10169491525424,21.180781666666665,67.11864406779661,21.09266C68.13559322033899,21.004538333333333,69.15254237288136,20.946601666666666,70.16949152542374,20.89244C71.1864406779661,20.838278333333335,72.20338983050848,20.838108333333334,73.22033898305085,20.76769C74.23728813559322,20.69727166666667,75.2542372881356,20.57624666666667,76.27118644067797,20.46993C77.28813559322033,20.363613333333333,78.30508474576271,20.243781666666667,79.32203389830508,20.12979C80.33898305084746,20.015798333333333,81.35593220338983,19.89625,82.37288135593221,19.78598C83.38983050847457,19.67571,84.40677966101696,19.592689999999997,85.42372881355932,19.468169999999997C86.4406779661017,19.343649999999997,87.45762711864407,19.152285,88.47457627118645,19.03886C89.49152542372882,18.925435,90.50847457627118,18.865581666666667,91.52542372881355,18.78762C92.54237288135593,18.709658333333334,93.55932203389831,18.704005,94.57627118644069,18.571089999999998C95.59322033898306,18.438174999999998,96.61016949152543,18.185871666666667,97.62711864406779,17.99013C98.64406779661016,17.794388333333334,99.66101694915254,17.568669999999997,100.6779661016949,17.396639999999998C101.69491525423729,17.22461,102.71186440677965,17.16434166666667,103.72881355932203,16.95795C104.7457627118644,16.751558333333335,105.76271186440678,16.402575,106.77966101694915,16.15829C107.79661016949153,15.914005000000001,108.8135593220339,15.721503333333336,109.83050847457628,15.492240000000002C110.84745762711864,15.262976666666669,111.86440677966102,14.995694999999998,112.88135593220339,14.782709999999998C113.89830508474576,14.569724999999998,114.91525423728814,14.448226666666667,115.9322033898305,14.21433C116.94915254237289,13.980433333333334,117.96610169491525,13.671138333333335,118.98305084745763,13.37933C120,13.087521666666667,121.01694915254237,12.774466666666662,122.03389830508473,12.463479999999997C123.05084745762711,12.152493333333329,124.0677966101695,11.833641666666669,125.08474576271188,11.51341C126.10169491525424,11.193178333333336,127.11864406779662,10.823445000000003,128.135593220339,10.542090000000002C129.15254237288136,10.260735000000002,130.16949152542372,10.072138333333331,131.1864406779661,9.82528C132.20338983050846,9.578421666666664,133.22033898305085,9.351566666666665,134.23728813559322,9.060939999999999C135.25423728813558,8.770313333333332,136.27118644067798,8.369618333333333,137.28813559322035,8.081520000000001C138.3050847457627,7.793421666666668,139.3220338983051,7.526958333333335,140.33898305084747,7.332350000000001C141.35593220338984,7.137741666666669,142.3728813559322,7.033595000000002,143.38983050847457,6.913870000000002C144.40677966101694,6.794145000000001,145.42372881355934,6.700611666666667,146.4406779661017,6.614C147.45762711864407,6.527388333333334,148.47457627118644,6.484031666666665,149.4915254237288,6.394199999999999C150.50847457627117,6.304368333333332,151.52542372881356,6.159871666666667,152.54237288135593,6.075010000000001C153.5593220338983,5.990148333333335,154.5762711864407,5.950950000000002,155.59322033898306,5.885030000000002C156.61016949152543,5.819110000000002,157.6271186440678,5.770713333333333,158.64406779661016,5.67949C159.66101694915253,5.588266666666667,160.67796610169492,5.460429999999999,161.6949152542373,5.337689999999999C162.71186440677965,5.21495,163.72881355932205,5.08166666666667,164.74576271186442,4.943050000000002C165.76271186440678,4.804433333333336,166.77966101694915,4.640974999999999,167.79661016949152,4.50599C168.81355932203388,4.3710049999999985,169.83050847457628,4.280163333333335,170.84745762711864,4.133140000000002C171.864406779661,3.986116666666669,172.8813559322034,3.7576750000000017,173.89830508474577,3.623850000000002C174.91525423728814,3.490025000000002,175.93220338983053,3.4193883333333357,176.9491525423729,3.3301900000000018C177.96610169491527,3.2409916666666687,178.98305084745763,3.164825833333335,180,3.088660000000001L180,40C178.98305084745763,40,177.96610169491527,40,176.9491525423729,40C175.93220338983053,40,174.91525423728814,40,173.89830508474577,40C172.8813559322034,40,171.864406779661,40,170.84745762711864,40C169.83050847457628,40,168.81355932203388,40,167.79661016949152,40C166.77966101694915,40,165.76271186440678,40,164.74576271186442,40C163.72881355932205,40,162.71186440677965,40,161.6949152542373,40C160.67796610169492,40,159.66101694915253,40,158.64406779661016,40C157.6271186440678,40,156.61016949152543,40,155.59322033898306,40C154.5762711864407,40,153.5593220338983,40,152.54237288135593,40C151.52542372881356,40,150.50847457627117,40,149.4915254237288,40C148.47457627118644,40,147.45762711864407,40,146.4406779661017,40C145.42372881355934,40,144.40677966101694,40,143.38983050847457,40C142.3728813559322,40,141.35593220338984,40,140.33898305084747,40C139.3220338983051,40,138.3050847457627,40,137.28813559322035,40C136.27118644067798,40,135.25423728813558,40,134.23728813559322,40C133.22033898305085,40,132.20338983050846,40,131.1864406779661,40C130.16949152542372,40,129.15254237288136,40,128.135593220339,40C127.11864406779662,40,126.10169491525424,40,125.08474576271188,40C124.0677966101695,40,123.05084745762711,40,122.03389830508473,40C121.01694915254237,40,120,40,118.98305084745763,40C117.96610169491525,40,116.94915254237289,40,115.9322033898305,40C114.91525423728814,40,113.89830508474576,40,112.88135593220339,40C111.86440677966102,40,110.84745762711864,40,109.83050847457628,40C108.8135593220339,40,107.79661016949153,40,106.77966101694915,40C105.76271186440678,40,104.7457627118644,40,103.72881355932203,40C102.71186440677965,40,101.69491525423729,40,100.6779661016949,40C99.66101694915254,40,98.64406779661016,40,97.62711864406779,40C96.61016949152543,40,95.59322033898306,40,94.57627118644069,40C93.55932203389831,40,92.54237288135593,40,91.52542372881355,40C90.50847457627118,40,89.49152542372882,40,88.47457627118645,40C87.45762711864407,40,86.4406779661017,40,85.42372881355932,40C84.40677966101696,40,83.38983050847457,40,82.37288135593221,40C81.35593220338983,40,80.33898305084746,40,79.32203389830508,40C78.30508474576271,40,77.28813559322033,40,76.27118644067797,40C75.2542372881356,40,74.23728813559322,40,73.22033898305085,40C72.20338983050848,40,71.1864406779661,40,70.16949152542374,40C69.15254237288136,40,68.13559322033899,40,67.11864406779661,40C66.10169491525424,40,65.08474576271186,40,64.0677966101695,40C63.05084745762712,40,62.03389830508474,40,61.01694915254237,40C59.99999999999999,40,58.983050847457626,40,57.96610169491525,40C56.94915254237288,40,55.93220338983051,40,54.91525423728814,40C53.898305084745765,40,52.88135593220339,40,51.86440677966102,40C50.847457627118644,40,49.83050847457627,40,48.813559322033896,40C47.79661016949152,40,46.77966101694915,40,45.762711864406775,40C44.7457627118644,40,43.728813559322035,40,42.71186440677966,40C41.69491525423729,40,40.67796610169491,40,39.66101694915254,40C38.644067796610166,40,37.6271186440678,40,36.610169491525426,40C35.59322033898305,40,34.57627118644068,40,33.559322033898304,40C32.54237288135593,40,31.525423728813557,40,30.508474576271183,40C29.491525423728813,40,28.47457627118644,40,27.45762711864407,40C26.440677966101696,40,25.423728813559322,40,24.406779661016948,40C23.389830508474574,40,22.372881355932204,40,21.35593220338983,40C20.338983050847457,40,19.322033898305087,40,18.305084745762713,40C17.28813559322034,40,16.271186440677965,40,15.254237288135592,40C14.23728813559322,40,13.220338983050846,40,12.203389830508474,40C11.186440677966102,40,10.169491525423728,40,9.152542372881356,40C8.135593220338983,40,7.11864406779661,40,6.101694915254237,40C5.084745762711864,40,4.067796610169491,40,3.0508474576271185,40C2.0338983050847457,40,1.0169491525423728,40,0,40Z"></path><path class="line" stroke="black" fill="none" d="M0,27.313200000000002C1.0169491525423728,27.203535,2.0338983050847457,27.093869999999995,3.0508474576271185,26.978359999999995C4.067796610169491,26.862849999999995,5.084745762711864,26.728213333333333,6.101694915254237,26.62014C7.11864406779661,26.512066666666666,8.135593220338983,26.43585,9.152542372881356,26.329919999999998C10.169491525423728,26.223989999999997,11.186440677966102,26.095118333333335,12.203389830508474,25.984560000000002C13.220338983050846,25.87400166666667,14.23728813559322,25.767325,15.254237288135592,25.66657C16.271186440677965,25.565815,17.28813559322034,25.487734999999997,18.305084745762713,25.380029999999998C19.322033898305087,25.272325,20.338983050847457,25.135928333333332,21.35593220338983,25.02034C22.372881355932204,24.90475166666667,23.389830508474574,24.783230000000003,24.406779661016948,24.686500000000002C25.423728813559322,24.58977,26.440677966101696,24.501563333333337,27.45762711864407,24.439960000000003C28.47457627118644,24.37835666666667,29.491525423728813,24.394685000000006,30.508474576271183,24.316880000000005C31.525423728813557,24.239075000000003,32.54237288135593,24.073065000000003,33.559322033898304,23.97313C34.57627118644068,23.873195,35.59322033898305,23.802546666666665,36.610169491525426,23.71727C37.6271186440678,23.631993333333334,38.644067796610166,23.55242666666667,39.66101694915254,23.461470000000002C40.67796610169491,23.370513333333335,41.69491525423729,23.272945000000004,42.71186440677966,23.171530000000004C43.728813559322035,23.070115000000005,44.7457627118644,22.941350000000003,45.762711864406775,22.852980000000002C46.77966101694915,22.76461,47.79661016949152,22.69408333333333,48.813559322033896,22.641309999999997C49.83050847457627,22.588536666666663,50.847457627118644,22.603126666666665,51.86440677966102,22.53634C52.88135593220339,22.469553333333334,53.898305084745765,22.334215,54.91525423728814,22.24059C55.93220338983051,22.146965,56.94915254237288,22.06131166666667,57.96610169491525,21.974590000000003C58.983050847457626,21.887868333333337,59.99999999999999,21.812496666666664,61.01694915254237,21.720259999999996C62.03389830508474,21.628023333333328,63.05084745762712,21.525769999999998,64.0677966101695,21.421169999999996C65.08474576271186,21.31657,66.10169491525424,21.180781666666665,67.11864406779661,21.09266C68.13559322033899,21.004538333333333,69.15254237288136,20.946601666666666,70.16949152542374,20.89244C71.1864406779661,20.838278333333335,72.20338983050848,20.838108333333334,73.22033898305085,20.76769C74.23728813559322,20.69727166666667,75.2542372881356,20.57624666666667,76.27118644067797,20.46993C77.28813559322033,20.363613333333333,78.30508474576271,20.243781666666667,79.32203389830508,20.12979C80.33898305084746,20.015798333333333,81.35593220338983,19.89625,82.37288135593221,19.78598C83.38983050847457,19.67571,84.40677966101696,19.592689999999997,85.42372881355932,19.468169999999997C86.4406779661017,19.343649999999997,87.45762711864407,19.152285,88.47457627118645,19.03886C89.49152542372882,18.925435,90.50847457627118,18.865581666666667,91.52542372881355,18.78762C92.54237288135593,18.709658333333334,93.55932203389831,18.704005,94.57627118644069,18.571089999999998C95.59322033898306,18.438174999999998,96.61016949152543,18.185871666666667,97.62711864406779,17.99013C98.64406779661016,17.794388333333334,99.66101694915254,17.568669999999997,100.6779661016949,17.396639999999998C101.69491525423729,17.22461,102.71186440677965,17.16434166666667,103.72881355932203,16.95795C104.7457627118644,16.751558333333335,105.76271186440678,16.402575,106.77966101694915,16.15829C107.79661016949153,15.914005000000001,108.8135593220339,15.721503333333336,109.83050847457628,15.492240000000002C110.84745762711864,15.262976666666669,111.86440677966102,14.995694999999998,112.88135593220339,14.782709999999998C113.89830508474576,14.569724999999998,114.91525423728814,14.448226666666667,115.9322033898305,14.21433C116.94915254237289,13.980433333333334,117.96610169491525,13.671138333333335,118.98305084745763,13.37933C120,13.087521666666667,121.01694915254237,12.774466666666662,122.03389830508473,12.463479999999997C123.05084745762711,12.152493333333329,124.0677966101695,11.833641666666669,125.08474576271188,11.51341C126.10169491525424,11.193178333333336,127.11864406779662,10.823445000000003,128.135593220339,10.542090000000002C129.15254237288136,10.260735000000002,130.16949152542372,10.072138333333331,131.1864406779661,9.82528C132.20338983050846,9.578421666666664,133.22033898305085,9.351566666666665,134.23728813559322,9.060939999999999C135.25423728813558,8.770313333333332,136.27118644067798,8.369618333333333,137.28813559322035,8.081520000000001C138.3050847457627,7.793421666666668,139.3220338983051,7.526958333333335,140.33898305084747,7.332350000000001C141.35593220338984,7.137741666666669,142.3728813559322,7.033595000000002,143.38983050847457,6.913870000000002C144.40677966101694,6.794145000000001,145.42372881355934,6.700611666666667,146.4406779661017,6.614C147.45762711864407,6.527388333333334,148.47457627118644,6.484031666666665,149.4915254237288,6.394199999999999C150.50847457627117,6.304368333333332,151.52542372881356,6.159871666666667,152.54237288135593,6.075010000000001C153.5593220338983,5.990148333333335,154.5762711864407,5.950950000000002,155.59322033898306,5.885030000000002C156.61016949152543,5.819110000000002,157.6271186440678,5.770713333333333,158.64406779661016,5.67949C159.66101694915253,5.588266666666667,160.67796610169492,5.460429999999999,161.6949152542373,5.337689999999999C162.71186440677965,5.21495,163.72881355932205,5.08166666666667,164.74576271186442,4.943050000000002C165.76271186440678,4.804433333333336,166.77966101694915,4.640974999999999,167.79661016949152,4.50599C168.81355932203388,4.3710049999999985,169.83050847457628,4.280163333333335,170.84745762711864,4.133140000000002C171.864406779661,3.986116666666669,172.8813559322034,3.7576750000000017,173.89830508474577,3.623850000000002C174.91525423728814,3.490025000000002,175.93220338983053,3.4193883333333357,176.9491525423729,3.3301900000000018C177.96610169491527,3.2409916666666687,178.98305084745763,3.164825833333335,180,3.088660000000001"></path><path class="axis-ceiling" stroke-width="1" stroke="black" fill="none" d="M175,0L180,0"></path><text class="axis-ceiling-label" font-family="sans-serif" text-anchor="end" font-size="10px" x="170" y="2.5">4000000</text></g></svg>