<svg xmlns="http://www.w3.org/2000/svg" viewBox="0 0 180 60"><g transform="translate(0,20)"><path class="area" fill="rgba(0, 0, 0, 0.2)" d="M0,24.316880000000005C1.0169491525423728,24.194972500000002,2.0338983050847457,24.073065000000003,3.0508474576271185,23.97313C4.067796610169491,23.873195,5.084745762711864,23.802546666666665,6.101694915254237,23.71727C7.11864406779661,23.631993333333334,8.135593220338983,23.55242666666667,9.152542372881356,23.461470000000002C10.169491525423728,23.370513333333335,11.186440677966102,23.272945000000004,12.203389830508474,23.171530000000004C13.220338983050846,23.070115000000005,14.23728813559322,22.941350000000003,15.254237288135592,22.852980000000002C16.271186440677965,22.76461,17.28813559322034,22.69408333333333,18.305084745762713,22.641309999999997C19.322033898305087,22.588536666666663,20.338983050847457,22.603126666666665,21.35593220338983,22.53634C22.372881355932204,22.469553333333334,23.389830508474574,22.334215,24.406779661016948,22.24059C25.423728813559322,22.146965,26.440677966101696,22.061311666666672,27.45762711864407,21.974590000000003C28.47457627118644,21.887868333333337,29.491525423728813,21.812496666666664,30.508474576271183,21.720259999999996C31.525423728813557,21.628023333333328,32.54237288135593,21.525769999999994,33.559322033898304,21.421169999999996C34.57627118644068,21.31657,35.59322033898305,21.180781666666665,36.610169491525426,21.09266C37.6271186440678,21.004538333333333,38.644067796610166,20.946601666666666,39.66101694915254,20.89244C40.67796610169491,20.838278333333335,41.69491525423729,20.838108333333334,42.71186440677966,20.76769C43.728813559322035,20.69727166666667,44.7457627118644,20.57624666666667,45.762711864406775,20.46993C46.77966101694915,20.363613333333333,47.79661016949152,20.243781666666667,48.813559322033896,20.12979C49.83050847457627,20.015798333333333,50.847457627118644,19.89625,51.86440677966102,19.78598C52.88135593220339,19.67571,53.898305084745765,19.592689999999997,54.91525423728814,19.468169999999997C55.93220338983051,19.343649999999997,56.94915254237288,19.152285,57.96610169491525,19.03886C58.983050847457626,18.925435,59.99999999999999,18.865581666666667,61.01694915254237,18.78762C62.03389830508474,18.709658333333334,63.05084745762712,18.704005,64.0677966101695,18.571089999999998C65.08474576271186,18.438174999999998,66.10169491525424,18.185871666666667,67.11864406779661,17.99013C68.13559322033899,17.794388333333334,69.15254237288136,17.568669999999997,70.16949152542374,17.396639999999998C71.1864406779661,17.22461,72.20338983050848,17.164341666666665,73.22033898305085,16.95795C74.23728813559322,16.751558333333335,75.2542372881356,16.402575,76.27118644067797,16.15829C77.28813559322033,15.914005000000001,78.30508474576271,15.721503333333336,79.32203389830508,15.492240000000002C80.33898305084746,15.262976666666669,81.35593220338983,14.995695,82.37288135593221,14.782709999999998C83.38983050847457,14.569724999999998,84.40677966101696,14.448226666666667,85.42372881355932,14.21433C86.4406779661017,13.980433333333334,87.45762711864407,13.671138333333335,88.47457627118645,13.37933C89.49152542372882,13.087521666666667,90.50847457627118,12.774466666666662,91.52542372881355,12.463479999999997C92.54237288135593,12.152493333333329,93.55932203389831,11.833641666666669,94.57627118644069,11.51341C95.59322033898306,11.193178333333337,96.61016949152543,10.823445000000001,97.62711864406779,10.542090000000002C98.64406779661016,10.260735,99.66101694915254,10.072138333333333,100.6779661016949,9.82528C101.69491525423729,9.578421666666666,102.71186440677965,9.351566666666667,103.72881355932203,9.060939999999999C104.7457627118644,8.770313333333332,105.76271186440678,8.369618333333333,106.77966101694915,8.081520000000001C107.79661016949153,7.793421666666667,108.8135593220339,7.526958333333334,109.83050847457628,7.332350000000001C110.84745762711864,7.137741666666669,111.86440677966102,7.033595000000002,112.88135593220339,6.913870000000002C113.89830508474576,6.794145000000002,114.91525423728814,6.700611666666667,115.9322033898305,6.614C116.94915254237289,6.527388333333333,117.96610169491525,6.484031666666666,118.98305084745763,6.394199999999999C120,6.304368333333333,121.01694915254237,6.159871666666667,122.03389830508473,6.075010000000001C123.05084745762711,5.990148333333334,124.0677966101695,5.950950000000002,125.08474576271188,5.885030000000002C126.10169491525424,5.819110000000002,127.11864406779662,5.770713333333335,128.135593220339,5.67949C129.15254237288136,5.588266666666667,130.16949152542372,5.460429999999999,131.1864406779661,5.337689999999999C132.20338983050846,5.214949999999999,133.22033898305085,5.081666666666669,134.23728813559322,4.943050000000002C135.25423728813558,4.8044333333333356,136.27118644067798,4.640975,137.28813559322035,4.50599C138.3050847457627,4.371004999999999,139.3220338983051,4.280163333333336,140.33898305084747,4.133140000000002C141.35593220338984,3.9861166666666694,142.3728813559322,3.7576750000000017,143.38983050847457,3.623850000000002C144.40677966101694,3.490025000000001,145.42372881355934,3.4193883333333357,146.4406779661017,3.3301900000000018C147.45762711864407,3.2409916666666687,148.47457627118644,3.158405000000001,149.4915254237288,3.088660000000001C150.50847457627117,3.0189150000000002,151.52542372881356,2.9929316666666663,152.54237288135593,2.91172C153.5593220338983,2.8305083333333334,154.5762711864407,2.7187850000000022,155.59322033898306,2.601390000000001C156.61016949152543,2.4839950000000015,157.6271186440678,2.337996666666665,158.64406779661016,2.207349999999999C159.66101694915253,2.076703333333332,160.67796610169492,1.9422266666666688,161.6949152542373,1.8175100000000022C162.71186440677965,1.6927933333333356,163.72881355932205,1.5739683333333336,164.74576271186442,1.4590499999999995C165.76271186440678,1.3441316666666665,166.77966101694915,1.2206350000000001,167.79661016949152,1.1280000000000001C168.81355932203388,1.0353649999999994,169.83050847457628,0.9829299999999982,170.84745762711864,0.9032399999999985C171.864406779661,0.8235499999999988,172.8813559322034,0.7420683333333352,173.89830508474577,0.6498600000000021C174.91525423728814,0.557651666666669,175.93220338983053,0.34999,176.9491525423729,0.34999C177.96610169491527,0.34999,178.98305084745763,0.34999,180,0.34999L180,40C178.98305084745763,40,177.96610169491527,40,176.9491525423729,40C175.93220338983053,40,174.91525423728814,40,173.89830508474577,40C172.8813559322034,40,171.864406779661,40,170.84745762711864,40C169.83050847457628,40,168.81355932203388,40,167.79661016949152,40C166.77966101694915,40,165.76271186440678,40,164.74576271186442,40C163.72881355932205,40,162.71186440677965,40,161.6949152542373,40C160.67796610169492,40,159.66101694915253,40,158.64406779661016,40C157.6271186440678,40,156.61016949152543,40,155.59322033898306,40C154.5762711864407,40,153.5593220338983,40,152.54237288135593,40C151.52542372881356,40,150.50847457627117,40,149.4915254237288,40C148.47457627118644,40,147.45762711864407,40,146.4406779661017,40C145.42372881355934,40,144.40677966101694,40,143.38983050847457,40C142.3728813559322,40,141.35593220338984,40,140.33898305084747,40C139.3220338983051,40,138.3050847457627,40,137.28813559322035,40C136.27118644067798,40,135.25423728813558,40,134.23728813559322,40C133.22033898305085,40,132.20338983050846,40,131.1864406779661,40C130.16949152542372,40,129.15254237288136,40,128.135593220339,40C127.11864406779662,40,126.10169491525424,40,125.08474576271188,40C124.0677966101695,40,123.05084745762711,40,122.03389830508473,40C121.01694915254237,40,120,40,118.98305084745763,40C117.96610169491525,40,116.94915254237289,40,115.9322033898305,40C114.91525423728814,40,113.89830508474576,40,112.88135593220339,40C111.86440677966102,40,110.84745762711864,40,109.83050847457628,40C108.8135593220339,40,107.79661016949153,40,106.77966101694915,40C105.76271186440678,40,104.7457627118644,40,103.72881355932203,40C102.71186440677965,40,101.69491525423729,40,100.6779661016949,40C99.66101694915254,40,98.64406779661016,40,97.62711864406779,40C96.61016949152543,40,95.59322033898306,40,94.57627118644069,40C93.55932203389831,40,92.54237288135593,40,91.52542372881355,40C90.50847457627118,40,89.49152542372882,40,88.47457627118645,40C87.45762711864407,40,86.4406779661017,40,85.42372881355932,40C84.40677966101696,40,83.38983050847457,40,82.37288135593221,40C81.35593220338983,40,80.33898305084746,40,79.32203389830508,40C78.30508474576271,40,77.28813559322033,40,76.27118644067797,40C75.2542372881356,40,74.23728813559322,40,73.22033898305085,40C72.20338983050848,40,71.1864406779661,40,70.16949152542374,40C69.15254237288136,40,68.13559322033899,40,67.11864406779661,40C66.10169491525424,40,65.08474576271186,40,64.0677966101695,40C63.05084745762712,40,62.03389830508474,40,61.01694915254237,40C59.99999999999999,40,58.983050847457626,40,57.96610169491525,40C56.94915254237288,40,55.93220338983051,40,54.91525423728814,40C53.898305084745765,40,52.88135593220339,40,51.86440677966102,40C50.847457627118644,40,49.83050847457627,40,48.813559322033896,40C47.79661016949152,40,46.77966101694915,40,45.762711864406775,40C44.7457627118644,40,43.728813559322035,40,42.71186440677966,40C41.69491525423729,40,40.67796610169491,40,39.66101694915254,40C38.644067796610166,40,37.6271186440678,40,36.610169491525426,40C35.59322033898305,40,34.57627118644068,40,33.559322033898304,40C32.54237288135593,40,31.525423728813557,40,30.508474576271183,40C29.491525423728813,40,28.47457627118644,40,27.45762711864407,40C26.440677966101696,40,25.423728813559322,40,24.406779661016948,40C23.389830508474574,40,22.372881355932204,40,21.35593220338983,40C20.338983050847457,40,19.322033898305087,40,18.305084745762713,40C17.28813559322034,40,16.271186440677965,40,15.254237288135592,40C14.23728813559322,40,13.220338983050846,40,12.203389830508474,40C11.186440677966102,40,10.169491525423728,40,9.152542372881356,40C8.135593220338983,40,7.11864406779661,40,6.101694915254237,40C5.084745762711864,40,4.067796610169491,40,3.0508474576271185,40C2.0338983050847457,40,1.0169491525423728,40,0,40Z"></path><path class="line" stroke="black" fill="none" d="M0,24.316880000000005C1.0169491525423728,24.194972500000002,2.0338983050847457,24.073065000000003,3.0508474576271185,23.97313C4.067796610169491,23.873195,5.084745762711864,23.802546666666665,6.101694915254237,23.71727C7.11864406779661,23.631993333333334,8.135593220338983,23.55242666666667,9.152542372881356,23.461470000000002C10.169491525423728,23.370513333333335,11.186440677966102,23.272945000000004,12.203389830508474,23.171530000000004C13.220338983050846,23.070115000000005,14.23728813559322,22.941350000000003,15.254237288135592,22.852980000000002C16.271186440677965,22.76461,17.28813559322034,22.69408333333333,18.305084745762713,22.641309999999997C19.322033898305087,22.588536666666663,20.338983050847457,22.603126666666665,21.35593220338983,22.53634C22.372881355932204,22.469553333333334,23.389830508474574,22.334215,24.406779661016948,22.24059C25.423728813559322,22.146965,26.440677966101696,22.061311666666672,27.45762711864407,21.974590000000003C28.47457627118644,21.887868333333337,29.491525423728813,21.812496666666664,30.508474576271183,21.720259999999996C31.525423728813557,21.628023333333328,32.54237288135593,21.525769999999994,33.559322033898304,21.421169999999996C34.57627118644068,21.31657,35.59322033898305,21.180781666666665,36.610169491525426,21.09266C37.6271186440678,21.004538333333333,38.644067796610166,20.946601666666666,39.66101694915254,20.89244C40.67796610169491,20.838278333333335,41.69491525423729,20.838108333333334,42.71186440677966,20.76769C43.728813559322035,20.69727166666667,44.7457627118644,20.57624666666667,45.762711864406775,20.46993C46.77966101694915,20.363613333333333,47.79661016949152,20.243781666666667,48.813559322033896,20.12979C49.83050847457627,20.015798333333333,50.847457627118644,19.89625,51.86440677966102,19.78598C52.88135593220339,19.67571,53.898305084745765,19.592689999999997,54.91525423728814,19.468169999999997C55.93220338983051,19.343649999999997,56.94915254237288,19.152285,57.96610169491525,19.03886C58.983050847457626,18.925435,59.99999999999999,18.865581666666667,61.01694915254237,18.78762C62.03389830508474,18.709658333333334,63.05084745762712,18.704005,64.0677966101695,18.571089999999998C65.08474576271186,18.438174999999998,66.10169491525424,18.185871666666667,67.11864406779661,17.99013C68.13559322033899,17.794388333333334,69.15254237288136,17.568669999999997,70.16949152542374,17.396639999999998C71.1864406779661,17.22461,72.20338983050848,17.164341666666665,73.22033898305085,16.95795C74.23728813559322,16.751558333333335,75.2542372881356,16.402575,76.27118644067797,16.15829C77.28813559322033,15.914005000000001,78.30508474576271,15.721503333333336,79.32203389830508,15.492240000000002C80.33898305084746,15.262976666666669,81.35593220338983,14.995695,82.37288135593221,14.782709999999998C83.38983050847457,14.569724999999998,84.40677966101696,14.448226666666667,85.42372881355932,14.21433C86.4406779661017,13.980433333333334,87.45762711864407,13.671138333333335,88.47457627118645,13.37933C89.49152542372882,13.087521666666667,90.50847457627118,12.774466666666662,91.52542372881355,12.463479999999997C92.54237288135593,12.152493333333329,93.55932203389831,11.833641666666669,94.57627118644069,11.51341C95.59322033898306,11.193178333333337,96.61016949152543,10.823445000000001,97.62711864406779,10.542090000000002C98.64406779661016,10.260735,99.66101694915254,10.072138333333333,100.6779661016949,9.82528C101.69491525423729,9.578421666666666,102.71186440677965,9.351566666666667,103.72881355932203,9.060939999999999C104.7457627118644,8.770313333333332,105.76271186440678,8.369618333333333,106.77966101694915,8.081520000000001C107.79661016949153,7.793421666666667,108.8135593220339,7.526958333333334,109.83050847457628,7.332350000000001C110.84745762711864,7.137741666666669,111.86440677966102,7.033595000000002,112.88135593220339,6.913870000000002C113.89830508474576,6.794145000000002,114.91525423728814,6.700611666666667,115.9322033898305,6.614C116.94915254237289,6.527388333333333,117.96610169491525,6.484031666666666,118.98305084745763,6.394199999999999C120,6.304368333333333,121.01694915254237,6.159871666666667,122.03389830508473,6.075010000000001C123.05084745762711,5.990148333333334,124.0677966101695,5.950950000000002,125.08474576271188,5.885030000000002C126.10169491525424,5.819110000000002,127.11864406779662,5.770713333333335,128.135593220339,5.67949C129.15254237288136,5.588266666666667,130.16949152542372,5.460429999999999,131.1864406779661,5.337689999999999C132.20338983050846,5.214949999999999,133.22033898305085,5.081666666666669,134.23728813559322,4.943050000000002C135.25423728813558,4.8044333333333356,136.27118644067798,4.640975,137.28813559322035,4.50599C138.3050847457627,4.371004999999999,139.3220338983051,4.280163333333336,140.33898305084747,4.133140000000002C141.35593220338984,3.9861166666666694,142.3728813559322,3.7576750000000017,143.38983050847457,3.623850000000002C144.40677966101694,3.490025000000001,145.42372881355934,3.4193883333333357,146.4406779661017,3.3301900000000018C147.45762711864407,3.2409916666666687,148.47457627118644,3.158405000000001,149.4915254237288,3.088660000000001C150.50847457627117,3.0189150000000002,151.52542372881356,2.9929316666666663,152.54237288135593,2.91172C153.5593220338983,2.8305083333333334,154.5762711864407,2.7187850000000022,155.59322033898306,2.601390000000001C156.61016949152543,2.4839950000000015,157.6271186440678,2.337996666666665,158.64406779661016,2.207349999999999C159.66101694915253,2.076703333333332,160.67796610169492,1.9422266666666688,161.6949152542373,1.8175100000000022C162.71186440677965,1.6927933333333356,163.72881355932205,1.5739683333333336,164.74576271186442,1.4590499999999995C165.76271186440678,1.3441316666666665,166.77966101694915,1.2206350000000001,167.79661016949152,1.1280000000000001C168.81355932203388,1.0353649999999994,169.83050847457628,0.9829299999999982,170.84745762711864,0.9032399999999985C171.864406779661,0.8235499999999988,172.8813559322034,0.7420683333333352,173.89830508474577,0.6498600000000021C174.91525423728814,0.557651666666669,175.93220338983053,0.34999,176.9491525423729,0.34999C177.96610169491527,0.34999,178.98305084745763,0.34999,180,0.34999"></path><path class="axis-ceiling" stroke-width="1" stroke="black" fill="none" d="M175,0L180,0"></path><text class="axis-ceiling-label" font-family="sans-serif" text-anchor="end" font-size="10px" x="170" y="2.5">4000000</text></g></svg>