<svg xmlns="http://www.w3.org/2000/svg" viewBox="0 0 180 60"><g transform="translate(0,20)"><path class="area" fill="rgba(0, 0, 0, 0.2)" d="M0,34.7824C1.0169491525423728,35.0436,2.0338983050847457,35.3048,3.0508474576271185,35.3048C4.067796610169491,35.3048,5.084745762711864,35.2248,6.101694915254237,35.2248C7.11864406779661,35.2248,8.135593220338983,35.3408,9.152542372881356,35.3408C10.169491525423728,35.3408,11.186440677966102,34.8594,12.203389830508474,34.59C13.220338983050846,34.320600000000006,14.23728813559322,33.973733333333335,15.254237288135592,33.7244C16.271186440677965,33.47506666666667,17.28813559322034,33.2156,18.305084745762713,33.094C19.322033898305087,32.9724,20.338983050847457,33.0332,21.35593220338983,32.9116C22.372881355932204,32.79,23.389830508474574,32.1892,24.406779661016948,31.8336C25.423728813559322,31.478,26.440677966101696,31.05913333333333,27.45762711864407,30.778C28.47457627118644,30.496866666666666,29.491525423728813,30.146800000000002,30.508474576271183,30.146800000000002C31.525423728813557,30.146800000000002,32.54237288135593,30.71453333333333,33.559322033898304,31.004399999999997C34.57627118644068,31.294266666666665,35.59322033898305,31.886000000000003,36.610169491525426,31.886000000000003C37.6271186440678,31.886000000000003,38.644067796610166,31.7956,39.66101694915254,31.7956C40.67796610169491,31.7956,41.69491525423729,32.568,42.71186440677966,32.568C43.728813559322035,32.568,44.7457627118644,32.1536,45.762711864406775,32.1536C46.77966101694915,32.1536,47.79661016949152,32.3784,48.813559322033896,32.3784C49.83050847457627,32.3784,50.847457627118644,32.0668,51.86440677966102,31.7748C52.88135593220339,31.482799999999997,53.898305084745765,31.06246666666667,54.91525423728814,30.6264C55.93220338983051,30.190333333333335,56.94915254237288,29.496066666666668,57.96610169491525,29.1584C58.983050847457626,28.820733333333333,59.99999999999999,28.95466666666666,61.01694915254237,28.600399999999997C62.03389830508474,28.24613333333333,63.05084745762712,27.032799999999998,64.0677966101695,27.032799999999998C65.08474576271186,27.032799999999998,66.10169491525424,27.102933333333336,67.11864406779661,27.105600000000003C68.13559322033899,27.10826666666667,69.15254237288136,27.1096,70.16949152542374,27.1096C71.1864406779661,27.1096,72.20338983050848,26.898,73.22033898305085,26.898C74.23728813559322,26.898,75.2542372881356,26.9,76.27118644067797,26.904C77.28813559322033,26.908,78.30508474576271,27.276466666666668,79.32203389830508,27.542C80.33898305084746,27.807533333333335,81.35593220338983,28.491066666666665,82.37288135593221,28.4972C83.38983050847457,28.503333333333334,84.40677966101696,28.50026666666667,85.42372881355932,28.506400000000003C86.4406779661017,28.512533333333337,87.45762711864407,28.7728,88.47457627118645,28.8612C89.49152542372882,28.9496,90.50847457627118,28.941066666666668,91.52542372881355,29.0368C92.54237288135593,29.13253333333333,93.55932203389831,29.37746666666666,94.57627118644069,29.435599999999997C95.59322033898306,29.49373333333333,96.61016949152543,29.475066666666667,97.62711864406779,29.5228C98.64406779661016,29.570533333333334,99.66101694915254,29.671533333333336,100.6779661016949,29.722C101.69491525423729,29.77246666666667,102.71186440677965,29.762600000000003,103.72881355932203,29.8256C104.7457627118644,29.8886,105.76271186440678,30.099999999999998,106.77966101694915,30.099999999999998C107.79661016949153,30.099999999999998,108.8135593220339,30.042,109.83050847457628,30.042C110.84745762711864,30.042,111.86440677966102,30.050400000000003,112.88135593220339,30.050400000000003C113.89830508474576,30.050400000000003,114.91525423728814,30.0162,115.9322033898305,29.998C116.94915254237289,29.9798,117.96610169491525,29.941199999999995,118.98305084745763,29.941199999999995C120,29.941199999999995,121.01694915254237,30.0068,122.03389830508473,30.0068C123.05084745762711,30.0068,124.0677966101695,29.901333333333334,125.08474576271188,29.8936C126.10169491525424,29.885866666666665,127.11864406779662,29.889733333333332,128.135593220339,29.881999999999998C129.15254237288136,29.874266666666664,130.16949152542372,29.6142,131.1864406779661,29.4584C132.20338983050846,29.3026,133.22033898305085,29.018666666666665,134.23728813559322,28.9472C135.25423728813558,28.875733333333333,136.27118644067798,28.911466666666666,137.28813559322035,28.84C138.3050847457627,28.768533333333334,139.3220338983051,28.408533333333335,140.33898305084747,28.264C141.35593220338984,28.119466666666668,142.3728813559322,28.1088,143.38983050847457,27.9728C144.40677966101694,27.8368,145.42372881355934,27.797866666666664,146.4406779661017,27.447999999999997C147.45762711864407,27.098133333333333,148.47457627118644,26.340999999999998,149.4915254237288,25.830000000000002C150.50847457627117,25.319,151.52542372881356,24.71366666666667,152.54237288135593,24.382C153.5593220338983,24.050333333333334,154.5762711864407,24.201333333333334,155.59322033898306,23.84C156.61016949152543,23.47866666666667,157.6271186440678,21.770800000000005,158.64406779661016,21.086400000000005C159.66101694915253,20.401999999999997,160.67796610169492,20.395533333333333,161.6949152542373,19.7336C162.71186440677965,19.071666666666665,163.72881355932205,17.886333333333337,164.74576271186442,17.1148C165.76271186440678,16.343266666666672,166.77966101694915,15.681399999999998,167.79661016949152,15.1044C168.81355932203388,14.527399999999997,169.83050847457628,14.201733333333333,170.84745762711864,13.6528C171.864406779661,13.103866666666665,172.8813559322034,12.604866666666666,173.89830508474577,11.8108C174.91525423728814,11.016733333333335,175.93220338983053,9.538933333333334,176.9491525423729,8.8884C177.96610169491527,8.237866666666674,178.98305084745763,8.072733333333337,180,7.907600000000001L180,40C178.98305084745763,40,177.96610169491527,40,176.9491525423729,40C175.93220338983053,40,174.91525423728814,40,173.89830508474577,40C172.8813559322034,40,171.864406779661,40,170.84745762711864,40C169.83050847457628,40,168.81355932203388,40,167.79661016949152,40C166.77966101694915,40,165.76271186440678,40,164.74576271186442,40C163.72881355932205,40,162.71186440677965,40,161.6949152542373,40C160.67796610169492,40,159.66101694915253,40,158.64406779661016,40C157.6271186440678,40,156.61016949152543,40,155.59322033898306,40C154.5762711864407,40,153.5593220338983,40,152.54237288135593,40C151.52542372881356,40,150.50847457627117,40,149.4915254237288,40C148.47457627118644,40,147.45762711864407,40,146.4406779661017,40C145.42372881355934,40,144.40677966101694,40,143.38983050847457,40C142.3728813559322,40,141.35593220338984,40,140.33898305084747,40C139.3220338983051,40,138.3050847457627,40,137.28813559322035,40C136.27118644067798,40,135.25423728813558,40,134.23728813559322,40C133.22033898305085,40,132.20338983050846,40,131.1864406779661,40C130.16949152542372,40,129.15254237288136,40,128.135593220339,40C127.11864406779662,40,126.10169491525424,40,125.08474576271188,40C124.0677966101695,40,123.05084745762711,40,122.03389830508473,40C121.01694915254237,40,120,40,118.98305084745763,40C117.96610169491525,40,116.94915254237289,40,115.9322033898305,40C114.91525423728814,40,113.89830508474576,40,112.88135593220339,40C111.86440677966102,40,110.84745762711864,40,109.83050847457628,40C108.8135593220339,40,107.79661016949153,40,106.77966101694915,40C105.76271186440678,40,104.7457627118644,40,103.72881355932203,40C102.71186440677965,40,101.69491525423729,40,100.6779661016949,40C99.66101694915254,40,98.64406779661016,40,97.62711864406779,40C96.61016949152543,40,95.59322033898306,40,94.57627118644069,40C93.55932203389831,40,92.54237288135593,40,91.52542372881355,40C90.50847457627118,40,89.49152542372882,40,88.47457627118645,40C87.45762711864407,40,86.4406779661017,40,85.42372881355932,40C84.40677966101696,40,83.38983050847457,40,82.37288135593221,40C81.35593220338983,40,80.33898305084746,40,79.32203389830508,40C78.30508474576271,40,77.28813559322033,40,76.27118644067797,40C75.2542372881356,40,74.23728813559322,40,73.22033898305085,40C72.20338983050848,40,71.1864406779661,40,70.16949152542374,40C69.15254237288136,40,68.13559322033899,40,67.11864406779661,40C66.10169491525424,40,65.08474576271186,40,64.0677966101695,40C63.05084745762712,40,62.03389830508474,40,61.01694915254237,40C59.99999999999999,40,58.983050847457626,40,57.96610169491525,40C56.94915254237288,40,55.93220338983051,40,54.91525423728814,40C53.898305084745765,40,52.88135593220339,40,51.86440677966102,40C50.847457627118644,40,49.83050847457627,40,48.813559322033896,40C47.79661016949152,40,46.77966101694915,40,45.762711864406775,40C44.7457627118644,40,43.728813559322035,40,42.71186440677966,40C41.69491525423729,40,40.67796610169491,40,39.66101694915254,40C38.644067796610166,40,37.6271186440678,40,36.610169491525426,40C35.59322033898305,40,34.57627118644068,40,33.559322033898304,40C32.54237288135593,40,31.525423728813557,40,30.508474576271183,40C29.491525423728813,40,28.47457627118644,40,27.45762711864407,40C26.440677966101696,40,25.423728813559322,40,24.406779661016948,40C23.389830508474574,40,22.372881355932204,40,21.35593220338983,40C20.338983050847457,40,19.322033898305087,40,18.305084745762713,40C17.28813559322034,40,16.271186440677965,40,15.254237288135592,40C14.23728813559322,40,13.220338983050846,40,12.203389830508474,40C11.186440677966102,40,10.169491525423728,40,9.152542372881356,40C8.135593220338983,40,7.11864406779661,40,6.101694915254237,40C5.084745762711864,40,4.067796610169491,40,3.0508474576271185,40C2.0338983050847457,40,1.0169491525423728,40,0,40Z"></path><path class="line" stroke="black" fill="none" d="M0,34.7824C1.0169491525423728,35.0436,2.0338983050847457,35.3048,3.0508474576271185,35.3048C4.067796610169491,35.3048,5.084745762711864,35.2248,6.101694915254237,35.2248C7.11864406779661,35.2248,8.135593220338983,35.3408,9.152542372881356,35.3408C10.169491525423728,35.3408,11.186440677966102,34.8594,12.203389830508474,34.59C13.220338983050846,34.320600000000006,14.23728813559322,33.973733333333335,15.254237288135592,33.7244C16.271186440677965,33.47506666666667,17.28813559322034,33.2156,18.305084745762713,33.094C19.322033898305087,32.9724,20.338983050847457,33.0332,21.35593220338983,32.9116C22.372881355932204,32.79,23.389830508474574,32.1892,24.406779661016948,31.8336C25.423728813559322,31.478,26.440677966101696,31.05913333333333,27.45762711864407,30.778C28.47457627118644,30.496866666666666,29.491525423728813,30.146800000000002,30.508474576271183,30.146800000000002C31.525423728813557,30.146800000000002,32.54237288135593,30.71453333333333,33.559322033898304,31.004399999999997C34.57627118644068,31.294266666666665,35.59322033898305,31.886000000000003,36.610169491525426,31.886000000000003C37.6271186440678,31.886000000000003,38.644067796610166,31.7956,39.66101694915254,31.7956C40.67796610169491,31.7956,41.69491525423729,32.568,42.71186440677966,32.568C43.728813559322035,32.568,44.7457627118644,32.1536,45.762711864406775,32.1536C46.77966101694915,32.1536,47.79661016949152,32.3784,48.813559322033896,32.3784C49.83050847457627,32.3784,50.847457627118644,32.0668,51.86440677966102,31.7748C52.88135593220339,31.482799999999997,53.898305084745765,31.06246666666667,54.91525423728814,30.6264C55.93220338983051,30.190333333333335,56.94915254237288,29.496066666666668,57.96610169491525,29.1584C58.983050847457626,28.820733333333333,59.99999999999999,28.95466666666666,61.01694915254237,28.600399999999997C62.03389830508474,28.24613333333333,63.05084745762712,27.032799999999998,64.0677966101695,27.032799999999998C65.08474576271186,27.032799999999998,66.10169491525424,27.102933333333336,67.11864406779661,27.105600000000003C68.13559322033899,27.10826666666667,69.15254237288136,27.1096,70.16949152542374,27.1096C71.1864406779661,27.1096,72.20338983050848,26.898,73.22033898305085,26.898C74.23728813559322,26.898,75.2542372881356,26.9,76.27118644067797,26.904C77.28813559322033,26.908,78.30508474576271,27.276466666666668,79.32203389830508,27.542C80.33898305084746,27.807533333333335,81.35593220338983,28.491066666666665,82.37288135593221,28.4972C83.38983050847457,28.503333333333334,84.40677966101696,28.50026666666667,85.42372881355932,28.506400000000003C86.4406779661017,28.512533333333337,87.45762711864407,28.7728,88.47457627118645,28.8612C89.49152542372882,28.9496,90.50847457627118,28.941066666666668,91.52542372881355,29.0368C92.54237288135593,29.13253333333333,93.55932203389831,29.37746666666666,94.57627118644069,29.435599999999997C95.59322033898306,29.49373333333333,96.61016949152543,29.475066666666667,97.62711864406779,29.5228C98.64406779661016,29.570533333333334,99.66101694915254,29.671533333333336,100.6779661016949,29.722C101.69491525423729,29.77246666666667,102.71186440677965,29.762600000000003,103.72881355932203,29.8256C104.7457627118644,29.8886,105.76271186440678,30.099999999999998,106.77966101694915,30.099999999999998C107.79661016949153,30.099999999999998,108.8135593220339,30.042,109.83050847457628,30.042C110.84745762711864,30.042,111.86440677966102,30.050400000000003,112.88135593220339,30.050400000000003C113.89830508474576,30.050400000000003,114.91525423728814,30.0162,115.9322033898305,29.998C116.94915254237289,29.9798,117.96610169491525,29.941199999999995,118.98305084745763,29.941199999999995C120,29.941199999999995,121.01694915254237,30.0068,122.03389830508473,30.0068C123.05084745762711,30.0068,124.0677966101695,29.901333333333334,125.08474576271188,29.8936C126.10169491525424,29.885866666666665,127.11864406779662,29.889733333333332,128.135593220339,29.881999999999998C129.15254237288136,29.874266666666664,130.16949152542372,29.6142,131.1864406779661,29.4584C132.20338983050846,29.3026,133.22033898305085,29.018666666666665,134.23728813559322,28.9472C135.25423728813558,28.875733333333333,136.27118644067798,28.911466666666666,137.28813559322035,28.84C138.3050847457627,28.768533333333334,139.3220338983051,28.408533333333335,140.33898305084747,28.264C141.35593220338984,28.119466666666668,142.3728813559322,28.1088,143.38983050847457,27.9728C144.40677966101694,27.8368,145.42372881355934,27.797866666666664,146.4406779661017,27.447999999999997C147.45762711864407,27.098133333333333,148.47457627118644,26.340999999999998,149.4915254237288,25.830000000000002C150.50847457627117,25.319,151.52542372881356,24.71366666666667,152.54237288135593,24.382C153.5593220338983,24.050333333333334,154.5762711864407,24.201333333333334,155.59322033898306,23.84C156.61016949152543,23.47866666666667,157.6271186440678,21.770800000000005,158.64406779661016,21.086400000000005C159.66101694915253,20.401999999999997,160.67796610169492,20.395533333333333,161.6949152542373,19.7336C162.71186440677965,19.071666666666665,163.72881355932205,17.886333333333337,164.74576271186442,17.1148C165.76271186440678,16.343266666666672,166.77966101694915,15.681399999999998,167.79661016949152,15.1044C168.81355932203388,14.527399999999997,169.83050847457628,14.201733333333333,170.84745762711864,13.6528C171.864406779661,13.103866666666665,172.8813559322034,12.604866666666666,173.89830508474577,11.8108C174.91525423728814,11.016733333333335,175.93220338983053,9.538933333333334,176.9491525423729,8.8884C177.96610169491527,8.237866666666674,178.98305084745763,8.072733333333337,180,7.907600000000001"></path><path class="axis-ceiling" stroke-width="1" stroke="black" fill="none" d="M175,0L180,0"></path><text class="axis-ceiling-label" font-family="sans-serif" text-anchor="end" font-size="10px" x="170" y="2.5">100000</text></g></svg>