<svg xmlns="http://www.w3.org/2000/svg" viewBox="0 0 180 60"><g transform="translate(0,20)"><path class="area" fill="rgba(0, 0, 0, 0.2)" d="M0,25.540799999999997C1.0169491525423728,27.1856,2.0338983050847457,28.830400000000004,3.0508474576271185,28.830400000000004C4.067796610169491,28.830400000000004,5.084745762711864,22.9792,6.101694915254237,22.9792C7.11864406779661,22.9792,8.135593220338983,23.001066666666667,9.152542372881356,23.0448C10.169491525423728,23.08853333333333,11.186440677966102,24.982666666666667,12.203389830508474,25.6192C13.220338983050846,26.255733333333332,14.23728813559322,26.863999999999997,15.254237288135592,26.863999999999997C16.271186440677965,26.863999999999997,17.28813559322034,26.764799999999997,18.305084745762713,26.764799999999997C19.322033898305087,26.764799999999997,20.338983050847457,30.6032,21.35593220338983,30.6032C22.372881355932204,30.6032,23.389830508474574,30.601066666666668,24.406779661016948,30.5968C25.423728813559322,30.592533333333336,26.440677966101696,26.31040000000001,27.45762711864407,25.100800000000003C28.47457627118644,23.8912,29.491525423728813,23.2864,30.508474576271183,23.2864C31.525423728813557,23.2864,32.54237288135593,24.073333333333334,33.559322033898304,24.7104C34.57627118644068,25.347466666666666,35.59322033898305,27.1088,36.610169491525426,27.1088C37.6271186440678,27.1088,38.644067796610166,23.7616,39.66101694915254,23.7616C40.67796610169491,23.7616,41.69491525423729,24.6744,42.71186440677966,25.3984C43.728813559322035,26.1224,44.7457627118644,28.105599999999995,45.762711864406775,28.105599999999995C46.77966101694915,28.105599999999995,47.79661016949152,25.647999999999996,48.813559322033896,24.8528C49.83050847457627,24.0576,50.847457627118644,23.3344,51.86440677966102,23.3344C52.88135593220339,23.3344,53.898305084745765,27.367999999999995,54.91525423728814,27.367999999999995C55.93220338983051,27.367999999999995,56.94915254237288,23.9328,57.96610169491525,23.9328C58.983050847457626,23.9328,59.99999999999999,24.4928,61.01694915254237,24.8528C62.03389830508474,25.212799999999998,63.05084745762712,25.50053333333333,64.0677966101695,26.0928C65.08474576271186,26.685066666666668,66.10169491525424,28.4064,67.11864406779661,28.4064C68.13559322033899,28.4064,69.15254237288136,21.113599999999998,70.16949152542374,21.113599999999998C71.1864406779661,21.113599999999998,72.20338983050848,26.211199999999998,73.22033898305085,26.211199999999998C74.23728813559322,26.211199999999998,75.2542372881356,20.54,76.27118644067797,18.4848C77.28813559322033,16.4296,78.30508474576271,14.132799999999996,79.32203389830508,13.879999999999999C80.33898305084746,13.6272,81.35593220338983,13.500800000000002,82.37288135593221,13.500800000000002C83.38983050847457,13.500800000000002,84.40677966101696,19.637866666666675,85.42372881355932,20.9264C86.4406779661017,22.214933333333335,87.45762711864407,22.8592,88.47457627118645,22.8592C89.49152542372882,22.8592,90.50847457627118,13.896,91.52542372881355,13.896C92.54237288135593,13.896,93.55932203389831,14.701866666666657,94.57627118644069,15.5728C95.59322033898306,16.443733333333334,96.61016949152543,19.1216,97.62711864406779,19.1216C98.64406779661016,19.1216,99.66101694915254,14.200800000000001,100.6779661016949,12.665600000000001C101.69491525423729,11.130399999999995,102.71186440677965,9.9104,103.72881355932203,9.9104C104.7457627118644,9.9104,105.76271186440678,15.741333333333337,106.77966101694915,16.0624C107.79661016949153,16.383466666666664,108.8135593220339,16.543999999999997,109.83050847457628,16.543999999999997C110.84745762711864,16.543999999999997,111.86440677966102,7.8288,112.88135593220339,7.8288C113.89830508474576,7.8288,114.91525423728814,15.848000000000011,115.9322033898305,18.1232C116.94915254237289,20.398400000000002,117.96610169491525,21.467733333333335,118.98305084745763,21.536C120,21.604266666666668,121.01694915254237,21.6384,122.03389830508473,21.6384C123.05084745762711,21.6384,124.0677966101695,19.416000000000004,125.08474576271188,19.416000000000004C126.10169491525424,19.416000000000004,127.11864406779662,23.32,128.135593220339,23.32C129.15254237288136,23.32,130.16949152542372,22.285333333333334,131.1864406779661,21.928C132.20338983050846,21.570666666666664,133.22033898305085,21.176,134.23728813559322,21.176C135.25423728813558,21.176,136.27118644067798,21.9088,137.28813559322035,21.9088C138.3050847457627,21.9088,139.3220338983051,18.940800000000003,140.33898305084747,18.940800000000003C141.35593220338984,18.940800000000003,142.3728813559322,19.528533333333336,143.38983050847457,19.9056C144.40677966101694,20.282666666666668,145.42372881355934,20.63786666666666,146.4406779661017,21.2032C147.45762711864407,21.76853333333333,148.47457627118644,23.297600000000003,149.4915254237288,23.297600000000003C150.50847457627117,23.297600000000003,151.52542372881356,23.297600000000003,152.54237288135593,23.297600000000003C153.5593220338983,23.297600000000003,154.5762711864407,25.464000000000002,155.59322033898306,25.464000000000002C156.61016949152543,25.464000000000002,157.6271186440678,22.3232,158.64406779661016,22.3232C159.66101694915253,22.3232,160.67796610169492,25.6432,161.6949152542373,25.6432C162.71186440677965,25.6432,163.72881355932205,25.06506666666667,164.74576271186442,24.824C165.76271186440678,24.582933333333337,166.77966101694915,24.1968,167.79661016949152,24.1968C168.81355932203388,24.1968,169.83050847457628,25.721600000000002,170.84745762711864,25.8656C171.864406779661,26.0096,172.8813559322034,26.081599999999998,173.89830508474577,26.081599999999998C174.91525423728814,26.081599999999998,175.93220338983053,24.930133333333334,176.9491525423729,24.8672C177.96610169491527,24.804266666666667,178.98305084745763,24.788533333333334,180,24.7728L180,40C178.98305084745763,40,177.96610169491527,40,176.9491525423729,40C175.93220338983053,40,174.91525423728814,40,173.89830508474577,40C172.8813559322034,40,171.864406779661,40,170.84745762711864,40C169.83050847457628,40,168.81355932203388,40,167.79661016949152,40C166.77966101694915,40,165.76271186440678,40,164.74576271186442,40C163.72881355932205,40,162.71186440677965,40,161.6949152542373,40C160.67796610169492,40,159.66101694915253,40,158.64406779661016,40C157.6271186440678,40,156.61016949152543,40,155.59322033898306,40C154.5762711864407,40,153.5593220338983,40,152.54237288135593,40C151.52542372881356,40,150.50847457627117,40,149.4915254237288,40C148.47457627118644,40,147.45762711864407,40,146.4406779661017,40C145.42372881355934,40,144.40677966101694,40,143.38983050847457,40C142.3728813559322,40,141.35593220338984,40,140.33898305084747,40C139.3220338983051,40,138.3050847457627,40,137.28813559322035,40C136.27118644067798,40,135.25423728813558,40,134.23728813559322,40C133.22033898305085,40,132.20338983050846,40,131.1864406779661,40C130.16949152542372,40,129.15254237288136,40,128.135593220339,40C127.11864406779662,40,126.10169491525424,40,125.08474576271188,40C124.0677966101695,40,123.05084745762711,40,122.03389830508473,40C121.01694915254237,40,120,40,118.98305084745763,40C117.96610169491525,40,116.94915254237289,40,115.9322033898305,40C114.91525423728814,40,113.89830508474576,40,112.88135593220339,40C111.86440677966102,40,110.84745762711864,40,109.83050847457628,40C108.8135593220339,40,107.79661016949153,40,106.77966101694915,40C105.76271186440678,40,104.7457627118644,40,103.72881355932203,40C102.71186440677965,40,101.69491525423729,40,100.6779661016949,40C99.66101694915254,40,98.64406779661016,40,97.62711864406779,40C96.61016949152543,40,95.59322033898306,40,94.57627118644069,40C93.55932203389831,40,92.54237288135593,40,91.52542372881355,40C90.50847457627118,40,89.49152542372882,40,88.47457627118645,40C87.45762711864407,40,86.4406779661017,40,85.42372881355932,40C84.40677966101696,40,83.38983050847457,40,82.37288135593221,40C81.35593220338983,40,80.33898305084746,40,79.32203389830508,40C78.30508474576271,40,77.28813559322033,40,76.27118644067797,40C75.2542372881356,40,74.23728813559322,40,73.22033898305085,40C72.20338983050848,40,71.1864406779661,40,70.16949152542374,40C69.15254237288136,40,68.13559322033899,40,67.11864406779661,40C66.10169491525424,40,65.08474576271186,40,64.0677966101695,40C63.05084745762712,40,62.03389830508474,40,61.01694915254237,40C59.99999999999999,40,58.983050847457626,40,57.96610169491525,40C56.94915254237288,40,55.93220338983051,40,54.91525423728814,40C53.898305084745765,40,52.88135593220339,40,51.86440677966102,40C50.847457627118644,40,49.83050847457627,40,48.813559322033896,40C47.79661016949152,40,46.77966101694915,40,45.762711864406775,40C44.7457627118644,40,43.728813559322035,40,42.71186440677966,40C41.69491525423729,40,40.67796610169491,40,39.66101694915254,40C38.644067796610166,40,37.6271186440678,40,36.610169491525426,40C35.59322033898305,40,34.57627118644068,40,33.559322033898304,40C32.54237288135593,40,31.525423728813557,40,30.508474576271183,40C29.491525423728813,40,28.47457627118644,40,27.45762711864407,40C26.440677966101696,40,25.423728813559322,40,24.406779661016948,40C23.389830508474574,40,22.372881355932204,40,21.35593220338983,40C20.338983050847457,40,19.322033898305087,40,18.305084745762713,40C17.28813559322034,40,16.271186440677965,40,15.254237288135592,40C14.23728813559322,40,13.220338983050846,40,12.203389830508474,40C11.186440677966102,40,10.169491525423728,40,9.152542372881356,40C8.135593220338983,40,7.11864406779661,40,6.101694915254237,40C5.084745762711864,40,4.067796610169491,40,3.0508474576271185,40C2.0338983050847457,40,1.0169491525423728,40,0,40Z"></path><path class="line" stroke="black" fill="none" d="M0,25.540799999999997C1.0169491525423728,27.1856,2.0338983050847457,28.830400000000004,3.0508474576271185,28.830400000000004C4.067796610169491,28.830400000000004,5.084745762711864,22.9792,6.101694915254237,22.9792C7.11864406779661,22.9792,8.135593220338983,23.001066666666667,9.152542372881356,23.0448C10.169491525423728,23.08853333333333,11.186440677966102,24.982666666666667,12.203389830508474,25.6192C13.220338983050846,26.255733333333332,14.23728813559322,26.863999999999997,15.254237288135592,26.863999999999997C16.271186440677965,26.863999999999997,17.28813559322034,26.764799999999997,18.305084745762713,26.764799999999997C19.322033898305087,26.764799999999997,20.338983050847457,30.6032,21.35593220338983,30.6032C22.372881355932204,30.6032,23.389830508474574,30.601066666666668,24.406779661016948,30.5968C25.423728813559322,30.592533333333336,26.440677966101696,26.31040000000001,27.45762711864407,25.100800000000003C28.47457627118644,23.8912,29.491525423728813,23.2864,30.508474576271183,23.2864C31.525423728813557,23.2864,32.54237288135593,24.073333333333334,33.559322033898304,24.7104C34.57627118644068,25.347466666666666,35.59322033898305,27.1088,36.610169491525426,27.1088C37.6271186440678,27.1088,38.644067796610166,23.7616,39.66101694915254,23.7616C40.67796610169491,23.7616,41.69491525423729,24.6744,42.71186440677966,25.3984C43.728813559322035,26.1224,44.7457627118644,28.105599999999995,45.762711864406775,28.105599999999995C46.77966101694915,28.105599999999995,47.79661016949152,25.647999999999996,48.813559322033896,24.8528C49.83050847457627,24.0576,50.847457627118644,23.3344,51.86440677966102,23.3344C52.88135593220339,23.3344,53.898305084745765,27.367999999999995,54.91525423728814,27.367999999999995C55.93220338983051,27.367999999999995,56.94915254237288,23.9328,57.96610169491525,23.9328C58.983050847457626,23.9328,59.99999999999999,24.4928,61.01694915254237,24.8528C62.03389830508474,25.212799999999998,63.05084745762712,25.50053333333333,64.0677966101695,26.0928C65.08474576271186,26.685066666666668,66.10169491525424,28.4064,67.11864406779661,28.4064C68.13559322033899,28.4064,69.15254237288136,21.113599999999998,70.16949152542374,21.113599999999998C71.1864406779661,21.113599999999998,72.20338983050848,26.211199999999998,73.22033898305085,26.211199999999998C74.23728813559322,26.211199999999998,75.2542372881356,20.54,76.27118644067797,18.4848C77.28813559322033,16.4296,78.30508474576271,14.132799999999996,79.32203389830508,13.879999999999999C80.33898305084746,13.6272,81.35593220338983,13.500800000000002,82.37288135593221,13.500800000000002C83.38983050847457,13.500800000000002,84.40677966101696,19.637866666666675,85.42372881355932,20.9264C86.4406779661017,22.214933333333335,87.45762711864407,22.8592,88.47457627118645,22.8592C89.49152542372882,22.8592,90.50847457627118,13.896,91.52542372881355,13.896C92.54237288135593,13.896,93.55932203389831,14.701866666666657,94.57627118644069,15.5728C95.59322033898306,16.443733333333334,96.61016949152543,19.1216,97.62711864406779,19.1216C98.64406779661016,19.1216,99.66101694915254,14.200800000000001,100.6779661016949,12.665600000000001C101.69491525423729,11.130399999999995,102.71186440677965,9.9104,103.72881355932203,9.9104C104.7457627118644,9.9104,105.76271186440678,15.741333333333337,106.77966101694915,16.0624C107.79661016949153,16.383466666666664,108.8135593220339,16.543999999999997,109.83050847457628,16.543999999999997C110.84745762711864,16.543999999999997,111.86440677966102,7.8288,112.88135593220339,7.8288C113.89830508474576,7.8288,114.91525423728814,15.848000000000011,115.9322033898305,18.1232C116.94915254237289,20.398400000000002,117.96610169491525,21.467733333333335,118.98305084745763,21.536C120,21.604266666666668,121.01694915254237,21.6384,122.03389830508473,21.6384C123.05084745762711,21.6384,124.0677966101695,19.416000000000004,125.08474576271188,19.416000000000004C126.10169491525424,19.416000000000004,127.11864406779662,23.32,128.135593220339,23.32C129.15254237288136,23.32,130.16949152542372,22.285333333333334,131.1864406779661,21.928C132.20338983050846,21.570666666666664,133.22033898305085,21.176,134.23728813559322,21.176C135.25423728813558,21.176,136.27118644067798,21.9088,137.28813559322035,21.9088C138.3050847457627,21.9088,139.3220338983051,18.940800000000003,140.33898305084747,18.940800000000003C141.35593220338984,18.940800000000003,142.3728813559322,19.528533333333336,143.38983050847457,19.9056C144.40677966101694,20.282666666666668,145.42372881355934,20.63786666666666,146.4406779661017,21.2032C147.45762711864407,21.76853333333333,148.47457627118644,23.297600000000003,149.4915254237288,23.297600000000003C150.50847457627117,23.297600000000003,151.52542372881356,23.297600000000003,152.54237288135593,23.297600000000003C153.5593220338983,23.297600000000003,154.5762711864407,25.464000000000002,155.59322033898306,25.464000000000002C156.61016949152543,25.464000000000002,157.6271186440678,22.3232,158.64406779661016,22.3232C159.66101694915253,22.3232,160.67796610169492,25.6432,161.6949152542373,25.6432C162.71186440677965,25.6432,163.72881355932205,25.06506666666667,164.74576271186442,24.824C165.76271186440678,24.582933333333337,166.77966101694915,24.1968,167.79661016949152,24.1968C168.81355932203388,24.1968,169.83050847457628,25.721600000000002,170.84745762711864,25.8656C171.864406779661,26.0096,172.8813559322034,26.081599999999998,173.89830508474577,26.081599999999998C174.91525423728814,26.081599999999998,175.93220338983053,24.930133333333334,176.9491525423729,24.8672C177.96610169491527,24.804266666666667,178.98305084745763,24.788533333333334,180,24.7728"></path><path class="axis-ceiling" stroke-width="1" stroke="black" fill="none" d="M175,0L180,0"></path><text class="axis-ceiling-label" font-family="sans-serif" text-anchor="end" font-size="10px" x="170" y="2.5">25000</text></g></svg>