<svg xmlns="http://www.w3.org/2000/svg" viewBox="0 0 180 60"><g transform="translate(0,20)"><path class="area" fill="rgba(0, 0, 0, 0.2)" d="M0,39.7984C1.0169491525423728,39.8014,2.0338983050847457,39.8044,3.0508474576271185,39.8044C4.067796610169491,39.8044,5.084745762711864,39.77846666666667,6.101694915254237,39.7424C7.11864406779661,39.70633333333333,8.135593220338983,39.588,9.152542372881356,39.588C10.169491525423728,39.588,11.186440677966102,39.670399999999994,12.203389830508474,39.672C13.220338983050846,39.6736,14.23728813559322,39.6744,15.254237288135592,39.6744C16.271186440677965,39.6744,17.28813559322034,39.272800000000004,18.305084745762713,39.272800000000004C19.322033898305087,39.272800000000004,20.338983050847457,39.2952,21.35593220338983,39.2952C22.372881355932204,39.2952,23.389830508474574,35.2532,24.406779661016948,35.2532C25.423728813559322,35.2532,26.440677966101696,37.1676,27.45762711864407,37.1676C28.47457627118644,37.1676,29.491525423728813,36.306400000000004,30.508474576271183,36.306400000000004C31.525423728813557,36.306400000000004,32.54237288135593,37.692800000000005,33.559322033898304,37.692800000000005C34.57627118644068,37.692800000000005,35.59322033898305,33.010799999999996,36.610169491525426,33.010799999999996C37.6271186440678,33.010799999999996,38.644067796610166,35.4128,39.66101694915254,35.4128C40.67796610169491,35.4128,41.69491525423729,30.437599999999996,42.71186440677966,30.437599999999996C43.728813559322035,30.437599999999996,44.7457627118644,34.708800000000004,45.762711864406775,34.708800000000004C46.77966101694915,34.708800000000004,47.79661016949152,24.153599999999997,48.813559322033896,24.153599999999997C49.83050847457627,24.153599999999997,50.847457627118644,27.952666666666666,51.86440677966102,28.1508C52.88135593220339,28.348933333333335,53.898305084745765,28.249866666666666,54.91525423728814,28.448C55.93220338983051,28.646133333333335,56.94915254237288,30.8572,57.96610169491525,31.173199999999998C58.983050847457626,31.489199999999997,59.99999999999999,31.647199999999998,61.01694915254237,31.647199999999998C62.03389830508474,31.647199999999998,63.05084745762712,29.714,64.0677966101695,29.714C65.08474576271186,29.714,66.10169491525424,29.824133333333332,67.11864406779661,30.044399999999996C68.13559322033899,30.264666666666663,69.15254237288136,33.3904,70.16949152542374,33.3904C71.1864406779661,33.3904,72.20338983050848,32.9596,73.22033898305085,32.098C74.23728813559322,31.2364,75.2542372881356,19.368333333333332,76.27118644067797,15.5016C77.28813559322033,11.634866666666667,78.30508474576271,8.897599999999999,79.32203389830508,8.897599999999999C80.33898305084746,8.897599999999999,81.35593220338983,18.508266666666653,82.37288135593221,20.9672C83.38983050847457,23.426133333333333,84.40677966101696,24.6556,85.42372881355932,24.6556C86.4406779661017,24.6556,87.45762711864407,18.0932,88.47457627118645,18.0932C89.49152542372882,18.0932,90.50847457627118,28.896800000000006,91.52542372881355,29.6224C92.54237288135593,30.348000000000003,93.55932203389831,30.710800000000003,94.57627118644069,30.710800000000003C95.59322033898306,30.710800000000003,96.61016949152543,30.320800000000002,97.62711864406779,30.320800000000002C98.64406779661016,30.320800000000002,99.66101694915254,30.43746666666667,100.6779661016949,30.6708C101.69491525423729,30.904133333333334,102.71186440677965,36.2464,103.72881355932203,36.2464C104.7457627118644,36.2464,105.76271186440678,35.063266666666664,106.77966101694915,34.6156C107.79661016949153,34.16793333333333,108.8135593220339,33.5604,109.83050847457628,33.5604C110.84745762711864,33.5604,111.86440677966102,34.870799999999996,112.88135593220339,34.8908C113.89830508474576,34.9108,114.91525423728814,34.9208,115.9322033898305,34.9208C116.94915254237289,34.9208,117.96610169491525,33.8952,118.98305084745763,33.8952C120,33.8952,121.01694915254237,35.2644,122.03389830508473,35.8388C123.05084745762711,36.4132,124.0677966101695,37.3416,125.08474576271188,37.3416C126.10169491525424,37.3416,127.11864406779662,33.029199999999996,128.135593220339,33.029199999999996C129.15254237288136,33.029199999999996,130.16949152542372,37.2164,131.1864406779661,37.2164C132.20338983050846,37.2164,133.22033898305085,34.3292,134.23728813559322,34.3292C135.25423728813558,34.3292,136.27118644067798,35.7328,137.28813559322035,35.7328C138.3050847457627,35.7328,139.3220338983051,28.6416,140.33898305084747,28.6416C141.35593220338984,28.6416,142.3728813559322,29.063000000000006,143.38983050847457,29.7776C144.40677966101694,30.4922,145.42372881355934,32.9292,146.4406779661017,32.9292C147.45762711864407,32.9292,148.47457627118644,32.2966,149.4915254237288,31.7536C150.50847457627117,31.210599999999996,151.52542372881356,30.473866666666666,152.54237288135593,29.6712C153.5593220338983,28.868533333333332,154.5762711864407,26.937600000000003,155.59322033898306,26.937600000000003C156.61016949152543,26.937600000000003,157.6271186440678,30.030666666666672,158.64406779661016,31.3152C159.66101694915253,32.59973333333334,160.67796610169492,33.87246666666667,161.6949152542373,34.644800000000004C162.71186440677965,35.41713333333334,163.72881355932205,35.949200000000005,164.74576271186442,35.949200000000005C165.76271186440678,35.949200000000005,166.77966101694915,32.2972,167.79661016949152,32.2972C168.81355932203388,32.2972,169.83050847457628,37.1588,170.84745762711864,37.1588C171.864406779661,37.1588,172.8813559322034,33.449200000000005,173.89830508474577,33.449200000000005C174.91525423728814,33.449200000000005,175.93220338983053,35.12,176.9491525423729,35.12C177.96610169491527,35.12,178.98305084745763,34.715,180,34.31L180,40C178.98305084745763,40,177.96610169491527,40,176.9491525423729,40C175.93220338983053,40,174.91525423728814,40,173.89830508474577,40C172.8813559322034,40,171.864406779661,40,170.84745762711864,40C169.83050847457628,40,168.81355932203388,40,167.79661016949152,40C166.77966101694915,40,165.76271186440678,40,164.74576271186442,40C163.72881355932205,40,162.71186440677965,40,161.6949152542373,40C160.67796610169492,40,159.66101694915253,40,158.64406779661016,40C157.6271186440678,40,156.61016949152543,40,155.59322033898306,40C154.5762711864407,40,153.5593220338983,40,152.54237288135593,40C151.52542372881356,40,150.50847457627117,40,149.4915254237288,40C148.47457627118644,40,147.45762711864407,40,146.4406779661017,40C145.42372881355934,40,144.40677966101694,40,143.38983050847457,40C142.3728813559322,40,141.35593220338984,40,140.33898305084747,40C139.3220338983051,40,138.3050847457627,40,137.28813559322035,40C136.27118644067798,40,135.25423728813558,40,134.23728813559322,40C133.22033898305085,40,132.20338983050846,40,131.1864406779661,40C130.16949152542372,40,129.15254237288136,40,128.135593220339,40C127.11864406779662,40,126.10169491525424,40,125.08474576271188,40C124.0677966101695,40,123.05084745762711,40,122.03389830508473,40C121.01694915254237,40,120,40,118.98305084745763,40C117.96610169491525,40,116.94915254237289,40,115.9322033898305,40C114.91525423728814,40,113.89830508474576,40,112.88135593220339,40C111.86440677966102,40,110.84745762711864,40,109.83050847457628,40C108.8135593220339,40,107.79661016949153,40,106.77966101694915,40C105.76271186440678,40,104.7457627118644,40,103.72881355932203,40C102.71186440677965,40,101.69491525423729,40,100.6779661016949,40C99.66101694915254,40,98.64406779661016,40,97.62711864406779,40C96.61016949152543,40,95.59322033898306,40,94.57627118644069,40C93.55932203389831,40,92.54237288135593,40,91.52542372881355,40C90.50847457627118,40,89.49152542372882,40,88.47457627118645,40C87.45762711864407,40,86.4406779661017,40,85.42372881355932,40C84.40677966101696,40,83.38983050847457,40,82.37288135593221,40C81.35593220338983,40,80.33898305084746,40,79.32203389830508,40C78.30508474576271,40,77.28813559322033,40,76.27118644067797,40C75.2542372881356,40,74.23728813559322,40,73.22033898305085,40C72.20338983050848,40,71.1864406779661,40,70.16949152542374,40C69.15254237288136,40,68.13559322033899,40,67.11864406779661,40C66.10169491525424,40,65.08474576271186,40,64.0677966101695,40C63.05084745762712,40,62.03389830508474,40,61.01694915254237,40C59.99999999999999,40,58.983050847457626,40,57.96610169491525,40C56.94915254237288,40,55.93220338983051,40,54.91525423728814,40C53.898305084745765,40,52.88135593220339,40,51.86440677966102,40C50.847457627118644,40,49.83050847457627,40,48.813559322033896,40C47.79661016949152,40,46.77966101694915,40,45.762711864406775,40C44.7457627118644,40,43.728813559322035,40,42.71186440677966,40C41.69491525423729,40,40.67796610169491,40,39.66101694915254,40C38.644067796610166,40,37.6271186440678,40,36.610169491525426,40C35.59322033898305,40,34.57627118644068,40,33.559322033898304,40C32.54237288135593,40,31.525423728813557,40,30.508474576271183,40C29.491525423728813,40,28.47457627118644,40,27.45762711864407,40C26.440677966101696,40,25.423728813559322,40,24.406779661016948,40C23.389830508474574,40,22.372881355932204,40,21.35593220338983,40C20.338983050847457,40,19.322033898305087,40,18.305084745762713,40C17.28813559322034,40,16.271186440677965,40,15.254237288135592,40C14.23728813559322,40,13.220338983050846,40,12.203389830508474,40C11.186440677966102,40,10.169491525423728,40,9.152542372881356,40C8.135593220338983,40,7.11864406779661,40,6.101694915254237,40C5.084745762711864,40,4.067796610169491,40,3.0508474576271185,40C2.0338983050847457,40,1.0169491525423728,40,0,40Z"></path><path class="line" stroke="black" fill="none" d="M0,39.7984C1.0169491525423728,39.8014,2.0338983050847457,39.8044,3.0508474576271185,39.8044C4.067796610169491,39.8044,5.084745762711864,39.77846666666667,6.101694915254237,39.7424C7.11864406779661,39.70633333333333,8.135593220338983,39.588,9.152542372881356,39.588C10.169491525423728,39.588,11.186440677966102,39.670399999999994,12.203389830508474,39.672C13.220338983050846,39.6736,14.23728813559322,39.6744,15.254237288135592,39.6744C16.271186440677965,39.6744,17.28813559322034,39.272800000000004,18.305084745762713,39.272800000000004C19.322033898305087,39.272800000000004,20.338983050847457,39.2952,21.35593220338983,39.2952C22.372881355932204,39.2952,23.389830508474574,35.2532,24.406779661016948,35.2532C25.423728813559322,35.2532,26.440677966101696,37.1676,27.45762711864407,37.1676C28.47457627118644,37.1676,29.491525423728813,36.306400000000004,30.508474576271183,36.306400000000004C31.525423728813557,36.306400000000004,32.54237288135593,37.692800000000005,33.559322033898304,37.692800000000005C34.57627118644068,37.692800000000005,35.59322033898305,33.010799999999996,36.610169491525426,33.010799999999996C37.6271186440678,33.010799999999996,38.644067796610166,35.4128,39.66101694915254,35.4128C40.67796610169491,35.4128,41.69491525423729,30.437599999999996,42.71186440677966,30.437599999999996C43.728813559322035,30.437599999999996,44.7457627118644,34.708800000000004,45.762711864406775,34.708800000000004C46.77966101694915,34.708800000000004,47.79661016949152,24.153599999999997,48.813559322033896,24.153599999999997C49.83050847457627,24.153599999999997,50.847457627118644,27.952666666666666,51.86440677966102,28.1508C52.88135593220339,28.348933333333335,53.898305084745765,28.249866666666666,54.91525423728814,28.448C55.93220338983051,28.646133333333335,56.94915254237288,30.8572,57.96610169491525,31.173199999999998C58.983050847457626,31.489199999999997,59.99999999999999,31.647199999999998,61.01694915254237,31.647199999999998C62.03389830508474,31.647199999999998,63.05084745762712,29.714,64.0677966101695,29.714C65.08474576271186,29.714,66.10169491525424,29.824133333333332,67.11864406779661,30.044399999999996C68.13559322033899,30.264666666666663,69.15254237288136,33.3904,70.16949152542374,33.3904C71.1864406779661,33.3904,72.20338983050848,32.9596,73.22033898305085,32.098C74.23728813559322,31.2364,75.2542372881356,19.368333333333332,76.27118644067797,15.5016C77.28813559322033,11.634866666666667,78.30508474576271,8.897599999999999,79.32203389830508,8.897599999999999C80.33898305084746,8.897599999999999,81.35593220338983,18.508266666666653,82.37288135593221,20.9672C83.38983050847457,23.426133333333333,84.40677966101696,24.6556,85.42372881355932,24.6556C86.4406779661017,24.6556,87.45762711864407,18.0932,88.47457627118645,18.0932C89.49152542372882,18.0932,90.50847457627118,28.896800000000006,91.52542372881355,29.6224C92.54237288135593,30.348000000000003,93.55932203389831,30.710800000000003,94.57627118644069,30.710800000000003C95.59322033898306,30.710800000000003,96.61016949152543,30.320800000000002,97.62711864406779,30.320800000000002C98.64406779661016,30.320800000000002,99.66101694915254,30.43746666666667,100.6779661016949,30.6708C101.69491525423729,30.904133333333334,102.71186440677965,36.2464,103.72881355932203,36.2464C104.7457627118644,36.2464,105.76271186440678,35.063266666666664,106.77966101694915,34.6156C107.79661016949153,34.16793333333333,108.8135593220339,33.5604,109.83050847457628,33.5604C110.84745762711864,33.5604,111.86440677966102,34.870799999999996,112.88135593220339,34.8908C113.89830508474576,34.9108,114.91525423728814,34.9208,115.9322033898305,34.9208C116.94915254237289,34.9208,117.96610169491525,33.8952,118.98305084745763,33.8952C120,33.8952,121.01694915254237,35.2644,122.03389830508473,35.8388C123.05084745762711,36.4132,124.0677966101695,37.3416,125.08474576271188,37.3416C126.10169491525424,37.3416,127.11864406779662,33.029199999999996,128.135593220339,33.029199999999996C129.15254237288136,33.029199999999996,130.16949152542372,37.2164,131.1864406779661,37.2164C132.20338983050846,37.2164,133.22033898305085,34.3292,134.23728813559322,34.3292C135.25423728813558,34.3292,136.27118644067798,35.7328,137.28813559322035,35.7328C138.3050847457627,35.7328,139.3220338983051,28.6416,140.33898305084747,28.6416C141.35593220338984,28.6416,142.3728813559322,29.063000000000006,143.38983050847457,29.7776C144.40677966101694,30.4922,145.42372881355934,32.9292,146.4406779661017,32.9292C147.45762711864407,32.9292,148.47457627118644,32.2966,149.4915254237288,31.7536C150.50847457627117,31.210599999999996,151.52542372881356,30.473866666666666,152.54237288135593,29.6712C153.5593220338983,28.868533333333332,154.5762711864407,26.937600000000003,155.59322033898306,26.937600000000003C156.61016949152543,26.937600000000003,157.6271186440678,30.030666666666672,158.64406779661016,31.3152C159.66101694915253,32.59973333333334,160.67796610169492,33.87246666666667,161.6949152542373,34.644800000000004C162.71186440677965,35.41713333333334,163.72881355932205,35.949200000000005,164.74576271186442,35.949200000000005C165.76271186440678,35.949200000000005,166.77966101694915,32.2972,167.79661016949152,32.2972C168.81355932203388,32.2972,169.83050847457628,37.1588,170.84745762711864,37.1588C171.864406779661,37.1588,172.8813559322034,33.449200000000005,173.89830508474577,33.449200000000005C174.91525423728814,33.449200000000005,175.93220338983053,35.12,176.9491525423729,35.12C177.96610169491527,35.12,178.98305084745763,34.715,180,34.31"></path><path class="axis-ceiling" stroke-width="1" stroke="black" fill="none" d="M175,0L180,0"></path><text class="axis-ceiling-label" font-family="sans-serif" text-anchor="end" font-size="10px" x="170" y="2.5">100000</text></g></svg>