<svg xmlns="http://www.w3.org/2000/svg" viewBox="0 0 180 60"><g transform="translate(0,20)"><path class="area" fill="rgba(0, 0, 0, 0.2)" d="M0,16.094C10,21.433,20,26.772,30,26.772C40,26.772,50,0.3840000000000021,60,0.3840000000000021C70,0.3840000000000021,80,9.881666666666668,90,10.377C100,10.872333333333334,110,10.624666666666668,120,11.120000000000001C130,11.615333333333334,140,18.432999999999996,150,18.706999999999997C160,18.980999999999998,170,19.0495,180,19.118L180,40C170,40,160,40,150,40C140,40,130,40,120,40C110,40,100,40,90,40C80,40,70,40,60,40C50,40,40,40,30,40C20,40,10,40,0,40Z"></path><path class="line" stroke="black" fill="none" d="M0,16.094C10,21.433,20,26.772,30,26.772C40,26.772,50,0.3840000000000021,60,0.3840000000000021C70,0.3840000000000021,80,9.881666666666668,90,10.377C100,10.872333333333334,110,10.624666666666668,120,11.120000000000001C130,11.615333333333334,140,18.432999999999996,150,18.706999999999997C160,18.980999999999998,170,19.0495,180,19.118"></path><path class="axis-ceiling" stroke-width="1" stroke="black" fill="none" d="M175,0L180,0"></path><text class="axis-ceiling-label" font-family="sans-serif" text-anchor="end" font-size="10px" x="170" y="2.5">40000</text></g></svg>