<svg xmlns="http://www.w3.org/2000/svg" viewBox="0 0 180 60"><g transform="translate(0,20)"><path class="area" fill="rgba(0, 0, 0, 0.2)" d="M0,17.476C1.0169491525423728,17.721,2.0338983050847457,17.966,3.0508474576271185,17.986C4.067796610169491,18.006,5.084745762711864,17.996000000000002,6.101694915254237,18.016000000000002C7.11864406779661,18.036,8.135593220338983,19.44733333333334,9.152542372881356,19.578000000000003C10.169491525423728,19.708666666666666,11.186440677966102,19.667666666666666,12.203389830508474,19.773999999999997C13.220338983050846,19.88033333333333,14.23728813559322,20.216,15.254237288135592,20.216C16.271186440677965,20.216,17.28813559322034,19.775999999999996,18.305084745762713,19.775999999999996C19.322033898305087,19.775999999999996,20.338983050847457,19.881333333333334,21.35593220338983,20.03C22.372881355932204,20.17866666666667,23.389830508474574,20.456333333333333,24.406779661016948,20.668C25.423728813559322,20.879666666666665,26.440677966101696,21.064666666666664,27.45762711864407,21.299999999999997C28.47457627118644,21.53533333333333,29.491525423728813,21.799333333333333,30.508474576271183,22.080000000000002C31.525423728813557,22.36066666666667,32.54237288135593,22.78066666666667,33.559322033898304,22.984C34.57627118644068,23.187333333333335,35.59322033898305,23.184333333333335,36.610169491525426,23.3C37.6271186440678,23.415666666666667,38.644067796610166,23.64866666666666,39.66101694915254,23.677999999999997C40.67796610169491,23.707333333333334,41.69491525423729,23.722,42.71186440677966,23.722C43.728813559322035,23.722,44.7457627118644,23.56,45.762711864406775,23.56C46.77966101694915,23.56,47.79661016949152,23.601999999999997,48.813559322033896,23.601999999999997C49.83050847457627,23.601999999999997,50.847457627118644,23.31,51.86440677966102,23.066C52.88135593220339,22.822,53.898305084745765,22.366999999999997,54.91525423728814,22.137999999999998C55.93220338983051,21.909,56.94915254237288,21.721333333333334,57.96610169491525,21.692C58.983050847457626,21.662666666666667,59.99999999999999,21.648,61.01694915254237,21.648C62.03389830508474,21.648,63.05084745762712,21.650666666666666,64.0677966101695,21.656C65.08474576271186,21.66133333333333,66.10169491525424,22.132,67.11864406779661,22.132C68.13559322033899,22.132,69.15254237288136,21.564,70.16949152542374,21.564C71.1864406779661,21.564,72.20338983050848,21.704999999999995,73.22033898305085,21.757999999999996C74.23728813559322,21.810999999999996,75.2542372881356,21.852333333333334,76.27118644067797,21.882C77.28813559322033,21.91166666666667,78.30508474576271,21.936,79.32203389830508,21.936C80.33898305084746,21.936,81.35593220338983,21.268,82.37288135593221,21.268C83.38983050847457,21.268,84.40677966101696,21.782,85.42372881355932,21.782C86.4406779661017,21.782,87.45762711864407,20.759333333333338,88.47457627118645,20.196C89.49152542372882,19.63266666666667,90.50847457627118,19.038999999999994,91.52542372881355,18.401999999999997C92.54237288135593,17.764999999999993,93.55932203389831,16.865666666666666,94.57627118644069,16.374C95.59322033898306,15.882333333333339,96.61016949152543,15.770999999999997,97.62711864406779,15.451999999999998C98.64406779661016,15.132999999999997,99.66101694915254,14.84,100.6779661016949,14.46C101.69491525423729,14.08,102.71186440677965,13.703333333333335,103.72881355932203,13.172C104.7457627118644,12.640666666666668,105.76271186440678,11.272000000000002,106.77966101694915,11.272000000000002C107.79661016949153,11.272000000000002,108.8135593220339,11.386,109.83050847457628,11.386C110.84745762711864,11.386,111.86440677966102,11.313,112.88135593220339,11.17C113.89830508474576,11.027,114.91525423728814,10.779666666666664,115.9322033898305,10.527999999999999C116.94915254237289,10.276333333333332,117.96610169491525,9.99266666666667,118.98305084745763,9.660000000000002C120,9.327333333333337,121.01694915254237,8.900666666666666,122.03389830508473,8.532000000000002C123.05084745762711,8.163333333333332,124.0677966101695,7.448000000000001,125.08474576271188,7.448000000000001C126.10169491525424,7.448000000000001,127.11864406779662,7.756333333333333,128.135593220339,7.904C129.15254237288136,8.051666666666666,130.16949152542372,8.047333333333334,131.1864406779661,8.334000000000001C132.20338983050846,8.620666666666672,133.22033898305085,9.387999999999998,134.23728813559322,9.937999999999999C135.25423728813558,10.488,136.27118644067798,11.135333333333335,137.28813559322035,11.634000000000002C138.3050847457627,12.132666666666669,139.3220338983051,12.553666666666667,140.33898305084747,12.930000000000001C141.35593220338984,13.306333333333333,142.3728813559322,13.33433333333334,143.38983050847457,13.892000000000003C144.40677966101694,14.44966666666667,145.42372881355934,15.825333333333337,146.4406779661017,16.276000000000003C147.45762711864407,16.726666666666667,148.47457627118644,16.951999999999998,149.4915254237288,16.951999999999998C150.50847457627117,16.951999999999998,151.52542372881356,16.617,152.54237288135593,16.488C153.5593220338983,16.358999999999998,154.5762711864407,16.177999999999997,155.59322033898306,16.177999999999997C156.61016949152543,16.177999999999997,157.6271186440678,16.497999999999998,158.64406779661016,16.497999999999998C159.66101694915253,16.497999999999998,160.67796610169492,16.494,161.6949152542373,16.494C162.71186440677965,16.494,163.72881355932205,16.575333333333333,164.74576271186442,16.738C165.76271186440678,16.900666666666666,166.77966101694915,17.454666666666665,167.79661016949152,17.503999999999998C168.81355932203388,17.55333333333333,169.83050847457628,17.528666666666666,170.84745762711864,17.578C171.864406779661,17.627333333333333,172.8813559322034,18.428,173.89830508474577,18.774C174.91525423728814,19.12,175.93220338983053,19.41833333333333,176.9491525423729,19.653999999999996C177.96610169491527,19.88966666666666,178.98305084745763,20.03883333333333,180,20.187999999999995L180,40C178.98305084745763,40,177.96610169491527,40,176.9491525423729,40C175.93220338983053,40,174.91525423728814,40,173.89830508474577,40C172.8813559322034,40,171.864406779661,40,170.84745762711864,40C169.83050847457628,40,168.81355932203388,40,167.79661016949152,40C166.77966101694915,40,165.76271186440678,40,164.74576271186442,40C163.72881355932205,40,162.71186440677965,40,161.6949152542373,40C160.67796610169492,40,159.66101694915253,40,158.64406779661016,40C157.6271186440678,40,156.61016949152543,40,155.59322033898306,40C154.5762711864407,40,153.5593220338983,40,152.54237288135593,40C151.52542372881356,40,150.50847457627117,40,149.4915254237288,40C148.47457627118644,40,147.45762711864407,40,146.4406779661017,40C145.42372881355934,40,144.40677966101694,40,143.38983050847457,40C142.3728813559322,40,141.35593220338984,40,140.33898305084747,40C139.3220338983051,40,138.3050847457627,40,137.28813559322035,40C136.27118644067798,40,135.25423728813558,40,134.23728813559322,40C133.22033898305085,40,132.20338983050846,40,131.1864406779661,40C130.16949152542372,40,129.15254237288136,40,128.135593220339,40C127.11864406779662,40,126.10169491525424,40,125.08474576271188,40C124.0677966101695,40,123.05084745762711,40,122.03389830508473,40C121.01694915254237,40,120,40,118.98305084745763,40C117.96610169491525,40,116.94915254237289,40,115.9322033898305,40C114.91525423728814,40,113.89830508474576,40,112.88135593220339,40C111.86440677966102,40,110.84745762711864,40,109.83050847457628,40C108.8135593220339,40,107.79661016949153,40,106.77966101694915,40C105.76271186440678,40,104.7457627118644,40,103.72881355932203,40C102.71186440677965,40,101.69491525423729,40,100.6779661016949,40C99.66101694915254,40,98.64406779661016,40,97.62711864406779,40C96.61016949152543,40,95.59322033898306,40,94.57627118644069,40C93.55932203389831,40,92.54237288135593,40,91.52542372881355,40C90.50847457627118,40,89.49152542372882,40,88.47457627118645,40C87.45762711864407,40,86.4406779661017,40,85.42372881355932,40C84.40677966101696,40,83.38983050847457,40,82.37288135593221,40C81.35593220338983,40,80.33898305084746,40,79.32203389830508,40C78.30508474576271,40,77.28813559322033,40,76.27118644067797,40C75.2542372881356,40,74.23728813559322,40,73.22033898305085,40C72.20338983050848,40,71.1864406779661,40,70.16949152542374,40C69.15254237288136,40,68.13559322033899,40,67.11864406779661,40C66.10169491525424,40,65.08474576271186,40,64.0677966101695,40C63.05084745762712,40,62.03389830508474,40,61.01694915254237,40C59.99999999999999,40,58.983050847457626,40,57.96610169491525,40C56.94915254237288,40,55.93220338983051,40,54.91525423728814,40C53.898305084745765,40,52.88135593220339,40,51.86440677966102,40C50.847457627118644,40,49.83050847457627,40,48.813559322033896,40C47.79661016949152,40,46.77966101694915,40,45.762711864406775,40C44.7457627118644,40,43.728813559322035,40,42.71186440677966,40C41.69491525423729,40,40.67796610169491,40,39.66101694915254,40C38.644067796610166,40,37.6271186440678,40,36.610169491525426,40C35.59322033898305,40,34.57627118644068,40,33.559322033898304,40C32.54237288135593,40,31.525423728813557,40,30.508474576271183,40C29.491525423728813,40,28.47457627118644,40,27.45762711864407,40C26.440677966101696,40,25.423728813559322,40,24.406779661016948,40C23.389830508474574,40,22.372881355932204,40,21.35593220338983,40C20.338983050847457,40,19.322033898305087,40,18.305084745762713,40C17.28813559322034,40,16.271186440677965,40,15.254237288135592,40C14.23728813559322,40,13.220338983050846,40,12.203389830508474,40C11.186440677966102,40,10.169491525423728,40,9.152542372881356,40C8.135593220338983,40,7.11864406779661,40,6.101694915254237,40C5.084745762711864,40,4.067796610169491,40,3.0508474576271185,40C2.0338983050847457,40,1.0169491525423728,40,0,40Z"></path><path class="line" stroke="black" fill="none" d="M0,17.476C1.0169491525423728,17.721,2.0338983050847457,17.966,3.0508474576271185,17.986C4.067796610169491,18.006,5.084745762711864,17.996000000000002,6.101694915254237,18.016000000000002C7.11864406779661,18.036,8.135593220338983,19.44733333333334,9.152542372881356,19.578000000000003C10.169491525423728,19.708666666666666,11.186440677966102,19.667666666666666,12.203389830508474,19.773999999999997C13.220338983050846,19.88033333333333,14.23728813559322,20.216,15.254237288135592,20.216C16.271186440677965,20.216,17.28813559322034,19.775999999999996,18.305084745762713,19.775999999999996C19.322033898305087,19.775999999999996,20.338983050847457,19.881333333333334,21.35593220338983,20.03C22.372881355932204,20.17866666666667,23.389830508474574,20.456333333333333,24.406779661016948,20.668C25.423728813559322,20.879666666666665,26.440677966101696,21.064666666666664,27.45762711864407,21.299999999999997C28.47457627118644,21.53533333333333,29.491525423728813,21.799333333333333,30.508474576271183,22.080000000000002C31.525423728813557,22.36066666666667,32.54237288135593,22.78066666666667,33.559322033898304,22.984C34.57627118644068,23.187333333333335,35.59322033898305,23.184333333333335,36.610169491525426,23.3C37.6271186440678,23.415666666666667,38.644067796610166,23.64866666666666,39.66101694915254,23.677999999999997C40.67796610169491,23.707333333333334,41.69491525423729,23.722,42.71186440677966,23.722C43.728813559322035,23.722,44.7457627118644,23.56,45.762711864406775,23.56C46.77966101694915,23.56,47.79661016949152,23.601999999999997,48.813559322033896,23.601999999999997C49.83050847457627,23.601999999999997,50.847457627118644,23.31,51.86440677966102,23.066C52.88135593220339,22.822,53.898305084745765,22.366999999999997,54.91525423728814,22.137999999999998C55.93220338983051,21.909,56.94915254237288,21.721333333333334,57.96610169491525,21.692C58.983050847457626,21.662666666666667,59.99999999999999,21.648,61.01694915254237,21.648C62.03389830508474,21.648,63.05084745762712,21.650666666666666,64.0677966101695,21.656C65.08474576271186,21.66133333333333,66.10169491525424,22.132,67.11864406779661,22.132C68.13559322033899,22.132,69.15254237288136,21.564,70.16949152542374,21.564C71.1864406779661,21.564,72.20338983050848,21.704999999999995,73.22033898305085,21.757999999999996C74.23728813559322,21.810999999999996,75.2542372881356,21.852333333333334,76.27118644067797,21.882C77.28813559322033,21.91166666666667,78.30508474576271,21.936,79.32203389830508,21.936C80.33898305084746,21.936,81.35593220338983,21.268,82.37288135593221,21.268C83.38983050847457,21.268,84.40677966101696,21.782,85.42372881355932,21.782C86.4406779661017,21.782,87.45762711864407,20.759333333333338,88.47457627118645,20.196C89.49152542372882,19.63266666666667,90.50847457627118,19.038999999999994,91.52542372881355,18.401999999999997C92.54237288135593,17.764999999999993,93.55932203389831,16.865666666666666,94.57627118644069,16.374C95.59322033898306,15.882333333333339,96.61016949152543,15.770999999999997,97.62711864406779,15.451999999999998C98.64406779661016,15.132999999999997,99.66101694915254,14.84,100.6779661016949,14.46C101.69491525423729,14.08,102.71186440677965,13.703333333333335,103.72881355932203,13.172C104.7457627118644,12.640666666666668,105.76271186440678,11.272000000000002,106.77966101694915,11.272000000000002C107.79661016949153,11.272000000000002,108.8135593220339,11.386,109.83050847457628,11.386C110.84745762711864,11.386,111.86440677966102,11.313,112.88135593220339,11.17C113.89830508474576,11.027,114.91525423728814,10.779666666666664,115.9322033898305,10.527999999999999C116.94915254237289,10.276333333333332,117.96610169491525,9.99266666666667,118.98305084745763,9.660000000000002C120,9.327333333333337,121.01694915254237,8.900666666666666,122.03389830508473,8.532000000000002C123.05084745762711,8.163333333333332,124.0677966101695,7.448000000000001,125.08474576271188,7.448000000000001C126.10169491525424,7.448000000000001,127.11864406779662,7.756333333333333,128.135593220339,7.904C129.15254237288136,8.051666666666666,130.16949152542372,8.047333333333334,131.1864406779661,8.334000000000001C132.20338983050846,8.620666666666672,133.22033898305085,9.387999999999998,134.23728813559322,9.937999999999999C135.25423728813558,10.488,136.27118644067798,11.135333333333335,137.28813559322035,11.634000000000002C138.3050847457627,12.132666666666669,139.3220338983051,12.553666666666667,140.33898305084747,12.930000000000001C141.35593220338984,13.306333333333333,142.3728813559322,13.33433333333334,143.38983050847457,13.892000000000003C144.40677966101694,14.44966666666667,145.42372881355934,15.825333333333337,146.4406779661017,16.276000000000003C147.45762711864407,16.726666666666667,148.47457627118644,16.951999999999998,149.4915254237288,16.951999999999998C150.50847457627117,16.951999999999998,151.52542372881356,16.617,152.54237288135593,16.488C153.5593220338983,16.358999999999998,154.5762711864407,16.177999999999997,155.59322033898306,16.177999999999997C156.61016949152543,16.177999999999997,157.6271186440678,16.497999999999998,158.64406779661016,16.497999999999998C159.66101694915253,16.497999999999998,160.67796610169492,16.494,161.6949152542373,16.494C162.71186440677965,16.494,163.72881355932205,16.575333333333333,164.74576271186442,16.738C165.76271186440678,16.900666666666666,166.77966101694915,17.454666666666665,167.79661016949152,17.503999999999998C168.81355932203388,17.55333333333333,169.83050847457628,17.528666666666666,170.84745762711864,17.578C171.864406779661,17.627333333333333,172.8813559322034,18.428,173.89830508474577,18.774C174.91525423728814,19.12,175.93220338983053,19.41833333333333,176.9491525423729,19.653999999999996C177.96610169491527,19.88966666666666,178.98305084745763,20.03883333333333,180,20.187999999999995"></path><path class="axis-ceiling" stroke-width="1" stroke="black" fill="none" d="M175,0L180,0"></path><text class="axis-ceiling-label" font-family="sans-serif" text-anchor="end" font-size="10px" x="170" y="2.5">20000</text></g></svg>