<svg xmlns="http://www.w3.org/2000/svg" viewBox="0 0 180 60"><g transform="translate(0,20)"><path class="area" fill="rgba(0, 0, 0, 0.2)" d="M0,27.849560000000004C1.0169491525423728,27.760372500000003,2.0338983050847457,27.671185,3.0508474576271185,27.57851C4.067796610169491,27.485835,5.084745762711864,27.39504166666667,6.101694915254237,27.293510000000005C7.11864406779661,27.19197833333334,8.135593220338983,27.077078333333336,9.152542372881356,26.969320000000003C10.169491525423728,26.86156166666667,11.186440677966102,26.754398333333334,12.203389830508474,26.64696C13.220338983050846,26.539521666666666,14.23728813559322,26.432993333333332,15.254237288135592,26.32469C16.271186440677965,26.21638666666667,17.28813559322034,26.1063,18.305084745762713,25.99714C19.322033898305087,25.887980000000002,20.338983050847457,25.776208333333333,21.35593220338983,25.66973C22.372881355932204,25.56325166666667,23.389830508474574,25.45810833333334,24.406779661016948,25.358270000000005C25.423728813559322,25.25843166666667,26.440677966101696,25.166519999999995,27.45762711864407,25.070699999999995C28.47457627118644,24.974879999999995,29.491525423728813,24.87765333333333,30.508474576271183,24.78335C31.525423728813557,24.689046666666666,32.54237288135593,24.59697166666667,33.559322033898304,24.50488C34.57627118644068,24.41278833333333,35.59322033898305,24.320499999999996,36.610169491525426,24.230799999999995C37.6271186440678,24.141099999999994,38.644067796610166,24.054355,39.66101694915254,23.96668C40.67796610169491,23.879005,41.69491525423729,23.79123,42.71186440677966,23.704749999999997C43.728813559322035,23.61827,44.7457627118644,23.533018333333334,45.762711864406775,23.4478C46.77966101694915,23.362581666666667,47.79661016949152,23.277085000000003,48.813559322033896,23.193440000000002C49.83050847457627,23.109795000000002,50.847457627118644,23.02867333333333,51.86440677966102,22.945929999999997C52.88135593220339,22.863186666666664,53.898305084745765,22.77993,54.91525423728814,22.69698C55.93220338983051,22.61403,56.94915254237288,22.531363333333335,57.96610169491525,22.448230000000002C58.983050847457626,22.36509666666667,59.99999999999999,22.281766666666666,61.01694915254237,22.19818C62.03389830508474,22.11459333333333,63.05084745762712,22.030261666666668,64.0677966101695,21.94671C65.08474576271186,21.86315833333333,66.10169491525424,21.78062166666666,67.11864406779661,21.696869999999997C68.13559322033899,21.61311833333333,69.15254237288136,21.528470000000002,70.16949152542374,21.444200000000002C71.1864406779661,21.359930000000002,72.20338983050848,21.27733166666667,73.22033898305085,21.19125C74.23728813559322,21.10516833333333,75.2542372881356,21.01768833333333,76.27118644067797,20.927709999999998C77.28813559322033,20.837731666666667,78.30508474576271,20.743935,79.32203389830508,20.651380000000003C80.33898305084746,20.558825000000002,81.35593220338983,20.467780000000005,82.37288135593221,20.372380000000003C83.38983050847457,20.276980000000002,84.40677966101696,20.177993333333333,85.42372881355932,20.07898C86.4406779661017,19.979966666666666,87.45762711864407,19.880713333333336,88.47457627118645,19.7783C89.49152542372882,19.675886666666667,90.50847457627118,19.575843333333335,91.52542372881355,19.4645C92.54237288135593,19.353156666666667,93.55932203389831,19.234358333333333,94.57627118644069,19.110239999999997C95.59322033898306,18.986121666666666,96.61016949152543,18.8522,97.62711864406779,18.71979C98.64406779661016,18.58738,99.66101694915254,18.461921666666665,100.6779661016949,18.31578C101.69491525423729,18.16963833333333,102.71186440677965,18.00619,103.72881355932203,17.84294C104.7457627118644,17.679689999999997,105.76271186440678,17.516078333333333,106.77966101694915,17.33628C107.79661016949153,17.156481666666664,108.8135593220339,16.963236666666667,109.83050847457628,16.76415C110.84745762711864,16.565063333333335,111.86440677966102,16.355273333333336,112.88135593220339,16.14176C113.89830508474576,15.928246666666668,114.91525423728814,15.710306666666664,115.9322033898305,15.483069999999998C116.94915254237289,15.25583333333333,117.96610169491525,15.025426666666668,118.98305084745763,14.77834C120,14.531253333333336,121.01694915254237,14.263901666666666,122.03389830508473,14.00055C123.05084745762711,13.737198333333332,124.0677966101695,13.466876666666668,125.08474576271188,13.198229999999999C126.10169491525424,12.929583333333333,127.11864406779662,12.65983,128.135593220339,12.38867C129.15254237288136,12.117510000000001,130.16949152542372,11.853523333333332,131.1864406779661,11.57127C132.20338983050846,11.289016666666665,133.22033898305085,10.985145,134.23728813559322,10.69515C135.25423728813558,10.405155,136.27118644067798,10.107408333333334,137.28813559322035,9.8313C138.3050847457627,9.555191666666667,139.3220338983051,9.287286666666667,140.33898305084747,9.038499999999999C141.35593220338984,8.789713333333333,142.3728813559322,8.553991666666668,143.38983050847457,8.338580000000002C144.40677966101694,8.123168333333334,145.42372881355934,7.934081666666668,146.4406779661017,7.746029999999999C147.45762711864407,7.557978333333333,148.47457627118644,7.375179999999998,149.4915254237288,7.210269999999999C150.50847457627117,7.045359999999998,151.52542372881356,6.889376666666668,152.54237288135593,6.756570000000002C153.5593220338983,6.6237633333333354,154.5762711864407,6.518113333333334,155.59322033898306,6.41343C156.61016949152543,6.308746666666667,157.6271186440678,6.222886666666665,158.64406779661016,6.128469999999999C159.66101694915253,6.034053333333333,160.67796610169492,5.944045000000002,161.6949152542373,5.846930000000001C162.71186440677965,5.749815000000001,163.72881355932205,5.649804999999999,164.74576271186442,5.545779999999998C165.76271186440678,5.441754999999998,166.77966101694915,5.334974999999999,167.79661016949152,5.22278C168.81355932203388,5.110585,169.83050847457628,4.991801666666669,170.84745762711864,4.872610000000002C171.864406779661,4.753418333333334,172.8813559322034,4.630146666666665,173.89830508474577,4.507629999999998C174.91525423728814,4.385113333333331,175.93220338983053,4.254283333333333,176.9491525423729,4.13751C177.96610169491527,4.020736666666667,178.98305084745763,3.913863333333333,180,3.806989999999999L180,40C178.98305084745763,40,177.96610169491527,40,176.9491525423729,40C175.93220338983053,40,174.91525423728814,40,173.89830508474577,40C172.8813559322034,40,171.864406779661,40,170.84745762711864,40C169.83050847457628,40,168.81355932203388,40,167.79661016949152,40C166.77966101694915,40,165.76271186440678,40,164.74576271186442,40C163.72881355932205,40,162.71186440677965,40,161.6949152542373,40C160.67796610169492,40,159.66101694915253,40,158.64406779661016,40C157.6271186440678,40,156.61016949152543,40,155.59322033898306,40C154.5762711864407,40,153.5593220338983,40,152.54237288135593,40C151.52542372881356,40,150.50847457627117,40,149.4915254237288,40C148.47457627118644,40,147.45762711864407,40,146.4406779661017,40C145.42372881355934,40,144.40677966101694,40,143.38983050847457,40C142.3728813559322,40,141.35593220338984,40,140.33898305084747,40C139.3220338983051,40,138.3050847457627,40,137.28813559322035,40C136.27118644067798,40,135.25423728813558,40,134.23728813559322,40C133.22033898305085,40,132.20338983050846,40,131.1864406779661,40C130.16949152542372,40,129.15254237288136,40,128.135593220339,40C127.11864406779662,40,126.10169491525424,40,125.08474576271188,40C124.0677966101695,40,123.05084745762711,40,122.03389830508473,40C121.01694915254237,40,120,40,118.98305084745763,40C117.96610169491525,40,116.94915254237289,40,115.9322033898305,40C114.91525423728814,40,113.89830508474576,40,112.88135593220339,40C111.86440677966102,40,110.84745762711864,40,109.83050847457628,40C108.8135593220339,40,107.79661016949153,40,106.77966101694915,40C105.76271186440678,40,104.7457627118644,40,103.72881355932203,40C102.71186440677965,40,101.69491525423729,40,100.6779661016949,40C99.66101694915254,40,98.64406779661016,40,97.62711864406779,40C96.61016949152543,40,95.59322033898306,40,94.57627118644069,40C93.55932203389831,40,92.54237288135593,40,91.52542372881355,40C90.50847457627118,40,89.49152542372882,40,88.47457627118645,40C87.45762711864407,40,86.4406779661017,40,85.42372881355932,40C84.40677966101696,40,83.38983050847457,40,82.37288135593221,40C81.35593220338983,40,80.33898305084746,40,79.32203389830508,40C78.30508474576271,40,77.28813559322033,40,76.27118644067797,40C75.2542372881356,40,74.23728813559322,40,73.22033898305085,40C72.20338983050848,40,71.1864406779661,40,70.16949152542374,40C69.15254237288136,40,68.13559322033899,40,67.11864406779661,40C66.10169491525424,40,65.08474576271186,40,64.0677966101695,40C63.05084745762712,40,62.03389830508474,40,61.01694915254237,40C59.99999999999999,40,58.983050847457626,40,57.96610169491525,40C56.94915254237288,40,55.93220338983051,40,54.91525423728814,40C53.898305084745765,40,52.88135593220339,40,51.86440677966102,40C50.847457627118644,40,49.83050847457627,40,48.813559322033896,40C47.79661016949152,40,46.77966101694915,40,45.762711864406775,40C44.7457627118644,40,43.728813559322035,40,42.71186440677966,40C41.69491525423729,40,40.67796610169491,40,39.66101694915254,40C38.644067796610166,40,37.6271186440678,40,36.610169491525426,40C35.59322033898305,40,34.57627118644068,40,33.559322033898304,40C32.54237288135593,40,31.525423728813557,40,30.508474576271183,40C29.491525423728813,40,28.47457627118644,40,27.45762711864407,40C26.440677966101696,40,25.423728813559322,40,24.406779661016948,40C23.389830508474574,40,22.372881355932204,40,21.35593220338983,40C20.338983050847457,40,19.322033898305087,40,18.305084745762713,40C17.28813559322034,40,16.271186440677965,40,15.254237288135592,40C14.23728813559322,40,13.220338983050846,40,12.203389830508474,40C11.186440677966102,40,10.169491525423728,40,9.152542372881356,40C8.135593220338983,40,7.11864406779661,40,6.101694915254237,40C5.084745762711864,40,4.067796610169491,40,3.0508474576271185,40C2.0338983050847457,40,1.0169491525423728,40,0,40Z"></path><path class="line" stroke="black" fill="none" d="M0,27.849560000000004C1.0169491525423728,27.760372500000003,2.0338983050847457,27.671185,3.0508474576271185,27.57851C4.067796610169491,27.485835,5.084745762711864,27.39504166666667,6.101694915254237,27.293510000000005C7.11864406779661,27.19197833333334,8.135593220338983,27.077078333333336,9.152542372881356,26.969320000000003C10.169491525423728,26.86156166666667,11.186440677966102,26.754398333333334,12.203389830508474,26.64696C13.220338983050846,26.539521666666666,14.23728813559322,26.432993333333332,15.254237288135592,26.32469C16.271186440677965,26.21638666666667,17.28813559322034,26.1063,18.305084745762713,25.99714C19.322033898305087,25.887980000000002,20.338983050847457,25.776208333333333,21.35593220338983,25.66973C22.372881355932204,25.56325166666667,23.389830508474574,25.45810833333334,24.406779661016948,25.358270000000005C25.423728813559322,25.25843166666667,26.440677966101696,25.166519999999995,27.45762711864407,25.070699999999995C28.47457627118644,24.974879999999995,29.491525423728813,24.87765333333333,30.508474576271183,24.78335C31.525423728813557,24.689046666666666,32.54237288135593,24.59697166666667,33.559322033898304,24.50488C34.57627118644068,24.41278833333333,35.59322033898305,24.320499999999996,36.610169491525426,24.230799999999995C37.6271186440678,24.141099999999994,38.644067796610166,24.054355,39.66101694915254,23.96668C40.67796610169491,23.879005,41.69491525423729,23.79123,42.71186440677966,23.704749999999997C43.728813559322035,23.61827,44.7457627118644,23.533018333333334,45.762711864406775,23.4478C46.77966101694915,23.362581666666667,47.79661016949152,23.277085000000003,48.813559322033896,23.193440000000002C49.83050847457627,23.109795000000002,50.847457627118644,23.02867333333333,51.86440677966102,22.945929999999997C52.88135593220339,22.863186666666664,53.898305084745765,22.77993,54.91525423728814,22.69698C55.93220338983051,22.61403,56.94915254237288,22.531363333333335,57.96610169491525,22.448230000000002C58.983050847457626,22.36509666666667,59.99999999999999,22.281766666666666,61.01694915254237,22.19818C62.03389830508474,22.11459333333333,63.05084745762712,22.030261666666668,64.0677966101695,21.94671C65.08474576271186,21.86315833333333,66.10169491525424,21.78062166666666,67.11864406779661,21.696869999999997C68.13559322033899,21.61311833333333,69.15254237288136,21.528470000000002,70.16949152542374,21.444200000000002C71.1864406779661,21.359930000000002,72.20338983050848,21.27733166666667,73.22033898305085,21.19125C74.23728813559322,21.10516833333333,75.2542372881356,21.01768833333333,76.27118644067797,20.927709999999998C77.28813559322033,20.837731666666667,78.30508474576271,20.743935,79.32203389830508,20.651380000000003C80.33898305084746,20.558825000000002,81.35593220338983,20.467780000000005,82.37288135593221,20.372380000000003C83.38983050847457,20.276980000000002,84.40677966101696,20.177993333333333,85.42372881355932,20.07898C86.4406779661017,19.979966666666666,87.45762711864407,19.880713333333336,88.47457627118645,19.7783C89.49152542372882,19.675886666666667,90.50847457627118,19.575843333333335,91.52542372881355,19.4645C92.54237288135593,19.353156666666667,93.55932203389831,19.234358333333333,94.57627118644069,19.110239999999997C95.59322033898306,18.986121666666666,96.61016949152543,18.8522,97.62711864406779,18.71979C98.64406779661016,18.58738,99.66101694915254,18.461921666666665,100.6779661016949,18.31578C101.69491525423729,18.16963833333333,102.71186440677965,18.00619,103.72881355932203,17.84294C104.7457627118644,17.679689999999997,105.76271186440678,17.516078333333333,106.77966101694915,17.33628C107.79661016949153,17.156481666666664,108.8135593220339,16.963236666666667,109.83050847457628,16.76415C110.84745762711864,16.565063333333335,111.86440677966102,16.355273333333336,112.88135593220339,16.14176C113.89830508474576,15.928246666666668,114.91525423728814,15.710306666666664,115.9322033898305,15.483069999999998C116.94915254237289,15.25583333333333,117.96610169491525,15.025426666666668,118.98305084745763,14.77834C120,14.531253333333336,121.01694915254237,14.263901666666666,122.03389830508473,14.00055C123.05084745762711,13.737198333333332,124.0677966101695,13.466876666666668,125.08474576271188,13.198229999999999C126.10169491525424,12.929583333333333,127.11864406779662,12.65983,128.135593220339,12.38867C129.15254237288136,12.117510000000001,130.16949152542372,11.853523333333332,131.1864406779661,11.57127C132.20338983050846,11.289016666666665,133.22033898305085,10.985145,134.23728813559322,10.69515C135.25423728813558,10.405155,136.27118644067798,10.107408333333334,137.28813559322035,9.8313C138.3050847457627,9.555191666666667,139.3220338983051,9.287286666666667,140.33898305084747,9.038499999999999C141.35593220338984,8.789713333333333,142.3728813559322,8.553991666666668,143.38983050847457,8.338580000000002C144.40677966101694,8.123168333333334,145.42372881355934,7.934081666666668,146.4406779661017,7.746029999999999C147.45762711864407,7.557978333333333,148.47457627118644,7.375179999999998,149.4915254237288,7.210269999999999C150.50847457627117,7.045359999999998,151.52542372881356,6.889376666666668,152.54237288135593,6.756570000000002C153.5593220338983,6.6237633333333354,154.5762711864407,6.518113333333334,155.59322033898306,6.41343C156.61016949152543,6.308746666666667,157.6271186440678,6.222886666666665,158.64406779661016,6.128469999999999C159.66101694915253,6.034053333333333,160.67796610169492,5.944045000000002,161.6949152542373,5.846930000000001C162.71186440677965,5.749815000000001,163.72881355932205,5.649804999999999,164.74576271186442,5.545779999999998C165.76271186440678,5.441754999999998,166.77966101694915,5.334974999999999,167.79661016949152,5.22278C168.81355932203388,5.110585,169.83050847457628,4.991801666666669,170.84745762711864,4.872610000000002C171.864406779661,4.753418333333334,172.8813559322034,4.630146666666665,173.89830508474577,4.507629999999998C174.91525423728814,4.385113333333331,175.93220338983053,4.254283333333333,176.9491525423729,4.13751C177.96610169491527,4.020736666666667,178.98305084745763,3.913863333333333,180,3.806989999999999"></path><path class="axis-ceiling" stroke-width="1" stroke="black" fill="none" d="M175,0L180,0"></path><text class="axis-ceiling-label" font-family="sans-serif" text-anchor="end" font-size="10px" x="170" y="2.5">4000000</text></g></svg>