<svg xmlns="http://www.w3.org/2000/svg" viewBox="0 0 180 60"><g transform="translate(0,20)"><path class="area" fill="rgba(0, 0, 0, 0.2)" d="M0,30.16C1.0169491525423728,30.47,2.0338983050847457,30.779999999999998,3.0508474576271185,30.779999999999998C4.067796610169491,30.779999999999998,5.084745762711864,28.406666666666666,6.101694915254237,27.94C7.11864406779661,27.473333333333336,8.135593220338983,27.240000000000002,9.152542372881356,27.240000000000002C10.169491525423728,27.240000000000002,11.186440677966102,30.18,12.203389830508474,30.18C13.220338983050846,30.18,14.23728813559322,28.48666666666667,15.254237288135592,28.380000000000003C16.271186440677965,28.273333333333333,17.28813559322034,28.326666666666668,18.305084745762713,28.22C19.322033898305087,28.11333333333333,20.338983050847457,27.32,21.35593220338983,27.32C22.372881355932204,27.32,23.389830508474574,27.5,24.406779661016948,27.5C25.423728813559322,27.5,26.440677966101696,25.419999999999998,27.45762711864407,25.419999999999998C28.47457627118644,25.419999999999998,29.491525423728813,26.38,30.508474576271183,26.38C31.525423728813557,26.38,32.54237288135593,23.28,33.559322033898304,23.28C34.57627118644068,23.28,35.59322033898305,23.326666666666668,36.610169491525426,23.42C37.6271186440678,23.513333333333335,38.644067796610166,26.38,39.66101694915254,26.38C40.67796610169491,26.38,41.69491525423729,18.96,42.71186440677966,18.96C43.728813559322035,18.96,44.7457627118644,22.34,45.762711864406775,22.34C46.77966101694915,22.34,47.79661016949152,20.91666666666667,48.813559322033896,20.220000000000002C49.83050847457627,19.523333333333333,50.847457627118644,18.159999999999997,51.86440677966102,18.159999999999997C52.88135593220339,18.159999999999997,53.898305084745765,18.709999999999997,54.91525423728814,19.46C55.93220338983051,20.21,56.94915254237288,22.66,57.96610169491525,22.66C58.983050847457626,22.66,59.99999999999999,20.866666666666667,61.01694915254237,20.76C62.03389830508474,20.653333333333336,63.05084745762712,20.6,64.0677966101695,20.6C65.08474576271186,20.6,66.10169491525424,20.9,67.11864406779661,20.9C68.13559322033899,20.9,69.15254237288136,19.083333333333336,70.16949152542374,18C71.1864406779661,16.916666666666668,72.20338983050848,15.726666666666665,73.22033898305085,14.399999999999999C74.23728813559322,13.073333333333332,75.2542372881356,11.273333333333332,76.27118644067797,10.04C77.28813559322033,8.806666666666667,78.30508474576271,7.333333333333336,79.32203389830508,7.000000000000002C80.33898305084746,6.666666666666667,81.35593220338983,6.833333333333334,82.37288135593221,6.499999999999999C83.38983050847457,6.166666666666665,84.40677966101696,5,85.42372881355932,5C86.4406779661017,5,87.45762711864407,5.339999999999998,88.47457627118645,5.339999999999998C89.49152542372882,5.339999999999998,90.50847457627118,2.4933333333333367,91.52542372881355,2.480000000000002C92.54237288135593,2.4666666666666672,93.55932203389831,2.46,94.57627118644069,2.46C95.59322033898306,2.46,96.61016949152543,7.283333333333335,97.62711864406779,8.860000000000001C98.64406779661016,10.436666666666675,99.66101694915254,11.026666666666669,100.6779661016949,11.920000000000002C101.69491525423729,12.813333333333338,102.71186440677965,13.47,103.72881355932203,14.220000000000002C104.7457627118644,14.97,105.76271186440678,16.419999999999998,106.77966101694915,16.419999999999998C107.79661016949153,16.419999999999998,108.8135593220339,10.36,109.83050847457628,10.36C110.84745762711864,10.36,111.86440677966102,15.326666666666666,112.88135593220339,15.379999999999999C113.89830508474576,15.433333333333332,114.91525423728814,15.459999999999997,115.9322033898305,15.459999999999997C116.94915254237289,15.459999999999997,117.96610169491525,9.620000000000001,118.98305084745763,9.620000000000001C120,9.620000000000001,121.01694915254237,19.68666666666667,122.03389830508473,20.339999999999996C123.05084745762711,20.99333333333333,124.0677966101695,21.319999999999997,125.08474576271188,21.319999999999997C126.10169491525424,21.319999999999997,127.11864406779662,14.326666666666675,128.135593220339,13.100000000000001C129.15254237288136,11.873333333333333,130.16949152542372,11.756666666666664,131.1864406779661,11.259999999999998C132.20338983050846,10.763333333333328,133.22033898305085,10.120000000000001,134.23728813559322,10.120000000000001C135.25423728813558,10.120000000000001,136.27118644067798,10.72,137.28813559322035,11.360000000000001C138.3050847457627,12.000000000000002,139.3220338983051,12.226666666666667,140.33898305084747,13.959999999999999C141.35593220338984,15.693333333333316,142.3728813559322,22.740000000000002,143.38983050847457,22.740000000000002C144.40677966101694,22.740000000000002,145.42372881355934,22.393333333333334,146.4406779661017,21.7C147.45762711864407,21.00666666666667,148.47457627118644,17.22,149.4915254237288,17.22C150.50847457627117,17.22,151.52542372881356,24.96,152.54237288135593,24.96C153.5593220338983,24.96,154.5762711864407,12.66,155.59322033898306,12.66C156.61016949152543,12.66,157.6271186440678,17.753333333333334,158.64406779661016,19.4C159.66101694915253,21.046666666666678,160.67796610169492,21.793333333333333,161.6949152542373,22.54C162.71186440677965,23.286666666666665,163.72881355932205,22.99999999999999,164.74576271186442,23.88C165.76271186440678,24.759999999999998,166.77966101694915,27.740000000000002,167.79661016949152,27.82C168.81355932203388,27.900000000000002,169.83050847457628,27.94,170.84745762711864,27.94C171.864406779661,27.94,172.8813559322034,22.9,173.89830508474577,22.9C174.91525423728814,22.9,175.93220338983053,23.923333333333325,176.9491525423729,24.619999999999997C177.96610169491527,25.316666666666663,178.98305084745763,26.19833333333333,180,27.080000000000002L180,40C178.98305084745763,40,177.96610169491527,40,176.9491525423729,40C175.93220338983053,40,174.91525423728814,40,173.89830508474577,40C172.8813559322034,40,171.864406779661,40,170.84745762711864,40C169.83050847457628,40,168.81355932203388,40,167.79661016949152,40C166.77966101694915,40,165.76271186440678,40,164.74576271186442,40C163.72881355932205,40,162.71186440677965,40,161.6949152542373,40C160.67796610169492,40,159.66101694915253,40,158.64406779661016,40C157.6271186440678,40,156.61016949152543,40,155.59322033898306,40C154.5762711864407,40,153.5593220338983,40,152.54237288135593,40C151.52542372881356,40,150.50847457627117,40,149.4915254237288,40C148.47457627118644,40,147.45762711864407,40,146.4406779661017,40C145.42372881355934,40,144.40677966101694,40,143.38983050847457,40C142.3728813559322,40,141.35593220338984,40,140.33898305084747,40C139.3220338983051,40,138.3050847457627,40,137.28813559322035,40C136.27118644067798,40,135.25423728813558,40,134.23728813559322,40C133.22033898305085,40,132.20338983050846,40,131.1864406779661,40C130.16949152542372,40,129.15254237288136,40,128.135593220339,40C127.11864406779662,40,126.10169491525424,40,125.08474576271188,40C124.0677966101695,40,123.05084745762711,40,122.03389830508473,40C121.01694915254237,40,120,40,118.98305084745763,40C117.96610169491525,40,116.94915254237289,40,115.9322033898305,40C114.91525423728814,40,113.89830508474576,40,112.88135593220339,40C111.86440677966102,40,110.84745762711864,40,109.83050847457628,40C108.8135593220339,40,107.79661016949153,40,106.77966101694915,40C105.76271186440678,40,104.7457627118644,40,103.72881355932203,40C102.71186440677965,40,101.69491525423729,40,100.6779661016949,40C99.66101694915254,40,98.64406779661016,40,97.62711864406779,40C96.61016949152543,40,95.59322033898306,40,94.57627118644069,40C93.55932203389831,40,92.54237288135593,40,91.52542372881355,40C90.50847457627118,40,89.49152542372882,40,88.47457627118645,40C87.45762711864407,40,86.4406779661017,40,85.42372881355932,40C84.40677966101696,40,83.38983050847457,40,82.37288135593221,40C81.35593220338983,40,80.33898305084746,40,79.32203389830508,40C78.30508474576271,40,77.28813559322033,40,76.27118644067797,40C75.2542372881356,40,74.23728813559322,40,73.22033898305085,40C72.20338983050848,40,71.1864406779661,40,70.16949152542374,40C69.15254237288136,40,68.13559322033899,40,67.11864406779661,40C66.10169491525424,40,65.08474576271186,40,64.0677966101695,40C63.05084745762712,40,62.03389830508474,40,61.01694915254237,40C59.99999999999999,40,58.983050847457626,40,57.96610169491525,40C56.94915254237288,40,55.93220338983051,40,54.91525423728814,40C53.898305084745765,40,52.88135593220339,40,51.86440677966102,40C50.847457627118644,40,49.83050847457627,40,48.813559322033896,40C47.79661016949152,40,46.77966101694915,40,45.762711864406775,40C44.7457627118644,40,43.728813559322035,40,42.71186440677966,40C41.69491525423729,40,40.67796610169491,40,39.66101694915254,40C38.644067796610166,40,37.6271186440678,40,36.610169491525426,40C35.59322033898305,40,34.57627118644068,40,33.559322033898304,40C32.54237288135593,40,31.525423728813557,40,30.508474576271183,40C29.491525423728813,40,28.47457627118644,40,27.45762711864407,40C26.440677966101696,40,25.423728813559322,40,24.406779661016948,40C23.389830508474574,40,22.372881355932204,40,21.35593220338983,40C20.338983050847457,40,19.322033898305087,40,18.305084745762713,40C17.28813559322034,40,16.271186440677965,40,15.254237288135592,40C14.23728813559322,40,13.220338983050846,40,12.203389830508474,40C11.186440677966102,40,10.169491525423728,40,9.152542372881356,40C8.135593220338983,40,7.11864406779661,40,6.101694915254237,40C5.084745762711864,40,4.067796610169491,40,3.0508474576271185,40C2.0338983050847457,40,1.0169491525423728,40,0,40Z"></path><path class="line" stroke="black" fill="none" d="M0,30.16C1.0169491525423728,30.47,2.0338983050847457,30.779999999999998,3.0508474576271185,30.779999999999998C4.067796610169491,30.779999999999998,5.084745762711864,28.406666666666666,6.101694915254237,27.94C7.11864406779661,27.473333333333336,8.135593220338983,27.240000000000002,9.152542372881356,27.240000000000002C10.169491525423728,27.240000000000002,11.186440677966102,30.18,12.203389830508474,30.18C13.220338983050846,30.18,14.23728813559322,28.48666666666667,15.254237288135592,28.380000000000003C16.271186440677965,28.273333333333333,17.28813559322034,28.326666666666668,18.305084745762713,28.22C19.322033898305087,28.11333333333333,20.338983050847457,27.32,21.35593220338983,27.32C22.372881355932204,27.32,23.389830508474574,27.5,24.406779661016948,27.5C25.423728813559322,27.5,26.440677966101696,25.419999999999998,27.45762711864407,25.419999999999998C28.47457627118644,25.419999999999998,29.491525423728813,26.38,30.508474576271183,26.38C31.525423728813557,26.38,32.54237288135593,23.28,33.559322033898304,23.28C34.57627118644068,23.28,35.59322033898305,23.326666666666668,36.610169491525426,23.42C37.6271186440678,23.513333333333335,38.644067796610166,26.38,39.66101694915254,26.38C40.67796610169491,26.38,41.69491525423729,18.96,42.71186440677966,18.96C43.728813559322035,18.96,44.7457627118644,22.34,45.762711864406775,22.34C46.77966101694915,22.34,47.79661016949152,20.91666666666667,48.813559322033896,20.220000000000002C49.83050847457627,19.523333333333333,50.847457627118644,18.159999999999997,51.86440677966102,18.159999999999997C52.88135593220339,18.159999999999997,53.898305084745765,18.709999999999997,54.91525423728814,19.46C55.93220338983051,20.21,56.94915254237288,22.66,57.96610169491525,22.66C58.983050847457626,22.66,59.99999999999999,20.866666666666667,61.01694915254237,20.76C62.03389830508474,20.653333333333336,63.05084745762712,20.6,64.0677966101695,20.6C65.08474576271186,20.6,66.10169491525424,20.9,67.11864406779661,20.9C68.13559322033899,20.9,69.15254237288136,19.083333333333336,70.16949152542374,18C71.1864406779661,16.916666666666668,72.20338983050848,15.726666666666665,73.22033898305085,14.399999999999999C74.23728813559322,13.073333333333332,75.2542372881356,11.273333333333332,76.27118644067797,10.04C77.28813559322033,8.806666666666667,78.30508474576271,7.333333333333336,79.32203389830508,7.000000000000002C80.33898305084746,6.666666666666667,81.35593220338983,6.833333333333334,82.37288135593221,6.499999999999999C83.38983050847457,6.166666666666665,84.40677966101696,5,85.42372881355932,5C86.4406779661017,5,87.45762711864407,5.339999999999998,88.47457627118645,5.339999999999998C89.49152542372882,5.339999999999998,90.50847457627118,2.4933333333333367,91.52542372881355,2.480000000000002C92.54237288135593,2.4666666666666672,93.55932203389831,2.46,94.57627118644069,2.46C95.59322033898306,2.46,96.61016949152543,7.283333333333335,97.62711864406779,8.860000000000001C98.64406779661016,10.436666666666675,99.66101694915254,11.026666666666669,100.6779661016949,11.920000000000002C101.69491525423729,12.813333333333338,102.71186440677965,13.47,103.72881355932203,14.220000000000002C104.7457627118644,14.97,105.76271186440678,16.419999999999998,106.77966101694915,16.419999999999998C107.79661016949153,16.419999999999998,108.8135593220339,10.36,109.83050847457628,10.36C110.84745762711864,10.36,111.86440677966102,15.326666666666666,112.88135593220339,15.379999999999999C113.89830508474576,15.433333333333332,114.91525423728814,15.459999999999997,115.9322033898305,15.459999999999997C116.94915254237289,15.459999999999997,117.96610169491525,9.620000000000001,118.98305084745763,9.620000000000001C120,9.620000000000001,121.01694915254237,19.68666666666667,122.03389830508473,20.339999999999996C123.05084745762711,20.99333333333333,124.0677966101695,21.319999999999997,125.08474576271188,21.319999999999997C126.10169491525424,21.319999999999997,127.11864406779662,14.326666666666675,128.135593220339,13.100000000000001C129.15254237288136,11.873333333333333,130.16949152542372,11.756666666666664,131.1864406779661,11.259999999999998C132.20338983050846,10.763333333333328,133.22033898305085,10.120000000000001,134.23728813559322,10.120000000000001C135.25423728813558,10.120000000000001,136.27118644067798,10.72,137.28813559322035,11.360000000000001C138.3050847457627,12.000000000000002,139.3220338983051,12.226666666666667,140.33898305084747,13.959999999999999C141.35593220338984,15.693333333333316,142.3728813559322,22.740000000000002,143.38983050847457,22.740000000000002C144.40677966101694,22.740000000000002,145.42372881355934,22.393333333333334,146.4406779661017,21.7C147.45762711864407,21.00666666666667,148.47457627118644,17.22,149.4915254237288,17.22C150.50847457627117,17.22,151.52542372881356,24.96,152.54237288135593,24.96C153.5593220338983,24.96,154.5762711864407,12.66,155.59322033898306,12.66C156.61016949152543,12.66,157.6271186440678,17.753333333333334,158.64406779661016,19.4C159.66101694915253,21.046666666666678,160.67796610169492,21.793333333333333,161.6949152542373,22.54C162.71186440677965,23.286666666666665,163.72881355932205,22.99999999999999,164.74576271186442,23.88C165.76271186440678,24.759999999999998,166.77966101694915,27.740000000000002,167.79661016949152,27.82C168.81355932203388,27.900000000000002,169.83050847457628,27.94,170.84745762711864,27.94C171.864406779661,27.94,172.8813559322034,22.9,173.89830508474577,22.9C174.91525423728814,22.9,175.93220338983053,23.923333333333325,176.9491525423729,24.619999999999997C177.96610169491527,25.316666666666663,178.98305084745763,26.19833333333333,180,27.080000000000002"></path><path class="axis-ceiling" stroke-width="1" stroke="black" fill="none" d="M175,0L180,0"></path><text class="axis-ceiling-label" font-family="sans-serif" text-anchor="end" font-size="10px" x="170" y="2.5">2000</text></g></svg>