<svg xmlns="http://www.w3.org/2000/svg" viewBox="0 0 180 60"><g transform="translate(0,20)"><path class="area" fill="rgba(0, 0, 0, 0.2)" d="M0,27.839999999999996C1.0344827586206897,27.906666666666666,2.068965517241379,27.973333333333336,3.103448275862069,27.973333333333336C4.137931034482759,27.973333333333336,5.172413793103448,23.200000000000003,6.206896551724138,23.200000000000003C7.241379310344827,23.200000000000003,8.275862068965516,23.520000000000003,9.310344827586206,23.520000000000003C10.344827586206897,23.520000000000003,11.379310344827585,19.6,12.413793103448276,19.6C13.448275862068966,19.6,14.482758620689655,24.05333333333333,15.517241379310345,24.05333333333333C16.551724137931036,24.05333333333333,17.586206896551722,19.91111111111111,18.620689655172413,17.706666666666667C19.655172413793103,15.502222222222223,20.689655172413794,10.826666666666668,21.724137931034484,10.826666666666668C22.758620689655174,10.826666666666668,23.79310344827586,22.560000000000002,24.82758620689655,22.560000000000002C25.862068965517242,22.560000000000002,26.896551724137932,12.799999999999997,27.931034482758623,12.799999999999997C28.965517241379313,12.799999999999997,30,16.133333333333333,31.03448275862069,16.133333333333333C32.06896551724138,16.133333333333333,33.103448275862064,7.466666666666666,34.137931034482754,7.466666666666666C35.172413793103445,7.466666666666666,36.206896551724135,19.546666666666667,37.241379310344826,19.546666666666667C38.275862068965516,19.546666666666667,39.310344827586206,7.626666666666666,40.3448275862069,7.626666666666666C41.37931034482759,7.626666666666666,42.41379310344828,12.293333333333333,43.44827586206897,12.293333333333333C44.48275862068966,12.293333333333333,45.51724137931035,6.800000000000002,46.55172413793104,6.800000000000002C47.58620689655173,6.800000000000002,48.62068965517241,10.58666666666667,49.6551724137931,10.58666666666667C50.689655172413794,10.58666666666667,51.72413793103448,9.493333333333332,52.75862068965517,9.493333333333332C53.79310344827586,9.493333333333332,54.827586206896555,9.644444444444444,55.862068965517246,9.946666666666669C56.896551724137936,10.248888888888892,57.93103448275862,20.16,58.96551724137931,20.16C60,20.16,61.03448275862069,16.026666666666667,62.06896551724138,14.48C63.10344827586207,12.933333333333337,64.13793103448276,10.88,65.17241379310344,10.88C66.20689655172413,10.88,67.24137931034483,16.96,68.27586206896551,16.96C69.3103448275862,16.96,70.34482758620689,8.266666666666666,71.37931034482759,8.266666666666666C72.41379310344827,8.266666666666666,73.44827586206897,8.293333333333333,74.48275862068965,8.346666666666668C75.51724137931033,8.400000000000002,76.55172413793103,10.14222222222223,77.58620689655172,11.760000000000002C78.62068965517241,13.37777777777778,79.6551724137931,18.053333333333335,80.6896551724138,18.053333333333335C81.72413793103448,18.053333333333335,82.75862068965517,17.106666666666662,83.79310344827586,16.133333333333333C84.82758620689656,15.159999999999998,85.86206896551724,12.213333333333335,86.89655172413794,12.213333333333335C87.93103448275862,12.213333333333335,88.96551724137932,16.315555555555555,90,17.919999999999998C91.0344827586207,19.52444444444445,92.06896551724138,21.840000000000003,93.10344827586208,21.840000000000003C94.13793103448276,21.840000000000003,95.17241379310344,21.288888888888888,96.20689655172413,21.04C97.24137931034483,20.791111111111107,98.27586206896551,20.346666666666664,99.3103448275862,20.346666666666664C100.3448275862069,20.346666666666664,101.37931034482759,22.902222222222218,102.41379310344828,24.186666666666667C103.44827586206897,25.471111111111107,104.48275862068965,28.053333333333335,105.51724137931033,28.053333333333335C106.55172413793103,28.053333333333335,107.58620689655172,27.759999999999998,108.62068965517241,27.626666666666665C109.65517241379311,27.493333333333332,110.6896551724138,27.253333333333334,111.72413793103449,27.253333333333334C112.75862068965517,27.253333333333334,113.79310344827587,27.413333333333334,114.82758620689656,27.413333333333334C115.86206896551724,27.413333333333334,116.89655172413794,26.240000000000002,117.93103448275862,26.240000000000002C118.96551724137932,26.240000000000002,120,26.284444444444446,121.0344827586207,26.373333333333335C122.06896551724138,26.462222222222223,123.10344827586208,26.506666666666668,124.13793103448276,26.773333333333333C125.17241379310344,27.04,126.20689655172414,31.520000000000003,127.24137931034483,31.520000000000003C128.27586206896552,31.520000000000003,129.3103448275862,26.879999999999995,130.3448275862069,26.879999999999995C131.3793103448276,26.879999999999995,132.41379310344828,27.706666666666667,133.44827586206898,27.706666666666667C134.48275862068965,27.706666666666667,135.51724137931035,24.542222222222208,136.55172413793102,23.919999999999998C137.58620689655172,23.297777777777775,138.6206896551724,22.986666666666665,139.6551724137931,22.986666666666665C140.6896551724138,22.986666666666665,141.72413793103448,26.90666666666667,142.75862068965517,26.90666666666667C143.79310344827587,26.90666666666667,144.82758620689654,24.648888888888894,145.86206896551724,24.506666666666668C146.89655172413794,24.36444444444444,147.9310344827586,24.435555555555556,148.9655172413793,24.29333333333333C150,24.151111111111103,151.0344827586207,23.09333333333333,152.0689655172414,23.09333333333333C153.10344827586206,23.09333333333333,154.13793103448276,23.33333333333333,155.17241379310343,23.33333333333333C156.20689655172413,23.33333333333333,157.24137931034483,20.560000000000002,158.27586206896552,20.560000000000002C159.31034482758622,20.560000000000002,160.3448275862069,21.840000000000003,161.3793103448276,21.840000000000003C162.41379310344828,21.840000000000003,163.44827586206895,17.706666666666667,164.48275862068965,17.706666666666667C165.51724137931035,17.706666666666667,166.55172413793102,17.76888888888889,167.58620689655172,17.893333333333334C168.6206896551724,18.01777777777778,169.6551724137931,21.840000000000003,170.6896551724138,21.840000000000003C171.7241379310345,21.840000000000003,172.75862068965517,11.946666666666665,173.79310344827587,11.946666666666665C174.82758620689657,11.946666666666665,175.86206896551724,16.453333333333333,176.89655172413794,16.453333333333333C177.93103448275863,16.453333333333333,178.9655172413793,15.04,180,13.626666666666667L180,40C178.9655172413793,40,177.93103448275863,40,176.89655172413794,40C175.86206896551724,40,174.82758620689657,40,173.79310344827587,40C172.75862068965517,40,171.7241379310345,40,170.6896551724138,40C169.6551724137931,40,168.6206896551724,40,167.58620689655172,40C166.55172413793102,40,165.51724137931035,40,164.48275862068965,40C163.44827586206895,40,162.41379310344828,40,161.3793103448276,40C160.3448275862069,40,159.31034482758622,40,158.27586206896552,40C157.24137931034483,40,156.20689655172413,40,155.17241379310343,40C154.13793103448276,40,153.10344827586206,40,152.0689655172414,40C151.0344827586207,40,150,40,148.9655172413793,40C147.9310344827586,40,146.89655172413794,40,145.86206896551724,40C144.82758620689654,40,143.79310344827587,40,142.75862068965517,40C141.72413793103448,40,140.6896551724138,40,139.6551724137931,40C138.6206896551724,40,137.58620689655172,40,136.55172413793102,40C135.51724137931035,40,134.48275862068965,40,133.44827586206898,40C132.41379310344828,40,131.3793103448276,40,130.3448275862069,40C129.3103448275862,40,128.27586206896552,40,127.24137931034483,40C126.20689655172414,40,125.17241379310344,40,124.13793103448276,40C123.10344827586208,40,122.06896551724138,40,121.0344827586207,40C120,40,118.96551724137932,40,117.93103448275862,40C116.89655172413794,40,115.86206896551724,40,114.82758620689656,40C113.79310344827587,40,112.75862068965517,40,111.72413793103449,40C110.6896551724138,40,109.65517241379311,40,108.62068965517241,40C107.58620689655172,40,106.55172413793103,40,105.51724137931033,40C104.48275862068965,40,103.44827586206897,40,102.41379310344828,40C101.37931034482759,40,100.3448275862069,40,99.3103448275862,40C98.27586206896551,40,97.24137931034483,40,96.20689655172413,40C95.17241379310344,40,94.13793103448276,40,93.10344827586208,40C92.06896551724138,40,91.0344827586207,40,90,40C88.96551724137932,40,87.93103448275862,40,86.89655172413794,40C85.86206896551724,40,84.82758620689656,40,83.79310344827586,40C82.75862068965517,40,81.72413793103448,40,80.6896551724138,40C79.6551724137931,40,78.62068965517241,40,77.58620689655172,40C76.55172413793103,40,75.51724137931033,40,74.48275862068965,40C73.44827586206897,40,72.41379310344827,40,71.37931034482759,40C70.34482758620689,40,69.3103448275862,40,68.27586206896551,40C67.24137931034483,40,66.20689655172413,40,65.17241379310344,40C64.13793103448276,40,63.10344827586207,40,62.06896551724138,40C61.03448275862069,40,60,40,58.96551724137931,40C57.93103448275862,40,56.896551724137936,40,55.862068965517246,40C54.827586206896555,40,53.79310344827586,40,52.75862068965517,40C51.72413793103448,40,50.689655172413794,40,49.6551724137931,40C48.62068965517241,40,47.58620689655173,40,46.55172413793104,40C45.51724137931035,40,44.48275862068966,40,43.44827586206897,40C42.41379310344828,40,41.37931034482759,40,40.3448275862069,40C39.310344827586206,40,38.275862068965516,40,37.241379310344826,40C36.206896551724135,40,35.172413793103445,40,34.137931034482754,40C33.103448275862064,40,32.06896551724138,40,31.03448275862069,40C30,40,28.965517241379313,40,27.931034482758623,40C26.896551724137932,40,25.862068965517242,40,24.82758620689655,40C23.79310344827586,40,22.758620689655174,40,21.724137931034484,40C20.689655172413794,40,19.655172413793103,40,18.620689655172413,40C17.586206896551722,40,16.551724137931036,40,15.517241379310345,40C14.482758620689655,40,13.448275862068966,40,12.413793103448276,40C11.379310344827585,40,10.344827586206897,40,9.310344827586206,40C8.275862068965516,40,7.241379310344827,40,6.206896551724138,40C5.172413793103448,40,4.137931034482759,40,3.103448275862069,40C2.068965517241379,40,1.0344827586206897,40,0,40Z"></path><path class="line" stroke="black" fill="none" d="M0,27.839999999999996C1.0344827586206897,27.906666666666666,2.068965517241379,27.973333333333336,3.103448275862069,27.973333333333336C4.137931034482759,27.973333333333336,5.172413793103448,23.200000000000003,6.206896551724138,23.200000000000003C7.241379310344827,23.200000000000003,8.275862068965516,23.520000000000003,9.310344827586206,23.520000000000003C10.344827586206897,23.520000000000003,11.379310344827585,19.6,12.413793103448276,19.6C13.448275862068966,19.6,14.482758620689655,24.05333333333333,15.517241379310345,24.05333333333333C16.551724137931036,24.05333333333333,17.586206896551722,19.91111111111111,18.620689655172413,17.706666666666667C19.655172413793103,15.502222222222223,20.689655172413794,10.826666666666668,21.724137931034484,10.826666666666668C22.758620689655174,10.826666666666668,23.79310344827586,22.560000000000002,24.82758620689655,22.560000000000002C25.862068965517242,22.560000000000002,26.896551724137932,12.799999999999997,27.931034482758623,12.799999999999997C28.965517241379313,12.799999999999997,30,16.133333333333333,31.03448275862069,16.133333333333333C32.06896551724138,16.133333333333333,33.103448275862064,7.466666666666666,34.137931034482754,7.466666666666666C35.172413793103445,7.466666666666666,36.206896551724135,19.546666666666667,37.241379310344826,19.546666666666667C38.275862068965516,19.546666666666667,39.310344827586206,7.626666666666666,40.3448275862069,7.626666666666666C41.37931034482759,7.626666666666666,42.41379310344828,12.293333333333333,43.44827586206897,12.293333333333333C44.48275862068966,12.293333333333333,45.51724137931035,6.800000000000002,46.55172413793104,6.800000000000002C47.58620689655173,6.800000000000002,48.62068965517241,10.58666666666667,49.6551724137931,10.58666666666667C50.689655172413794,10.58666666666667,51.72413793103448,9.493333333333332,52.75862068965517,9.493333333333332C53.79310344827586,9.493333333333332,54.827586206896555,9.644444444444444,55.862068965517246,9.946666666666669C56.896551724137936,10.248888888888892,57.93103448275862,20.16,58.96551724137931,20.16C60,20.16,61.03448275862069,16.026666666666667,62.06896551724138,14.48C63.10344827586207,12.933333333333337,64.13793103448276,10.88,65.17241379310344,10.88C66.20689655172413,10.88,67.24137931034483,16.96,68.27586206896551,16.96C69.3103448275862,16.96,70.34482758620689,8.266666666666666,71.37931034482759,8.266666666666666C72.41379310344827,8.266666666666666,73.44827586206897,8.293333333333333,74.48275862068965,8.346666666666668C75.51724137931033,8.400000000000002,76.55172413793103,10.14222222222223,77.58620689655172,11.760000000000002C78.62068965517241,13.37777777777778,79.6551724137931,18.053333333333335,80.6896551724138,18.053333333333335C81.72413793103448,18.053333333333335,82.75862068965517,17.106666666666662,83.79310344827586,16.133333333333333C84.82758620689656,15.159999999999998,85.86206896551724,12.213333333333335,86.89655172413794,12.213333333333335C87.93103448275862,12.213333333333335,88.96551724137932,16.315555555555555,90,17.919999999999998C91.0344827586207,19.52444444444445,92.06896551724138,21.840000000000003,93.10344827586208,21.840000000000003C94.13793103448276,21.840000000000003,95.17241379310344,21.288888888888888,96.20689655172413,21.04C97.24137931034483,20.791111111111107,98.27586206896551,20.346666666666664,99.3103448275862,20.346666666666664C100.3448275862069,20.346666666666664,101.37931034482759,22.902222222222218,102.41379310344828,24.186666666666667C103.44827586206897,25.471111111111107,104.48275862068965,28.053333333333335,105.51724137931033,28.053333333333335C106.55172413793103,28.053333333333335,107.58620689655172,27.759999999999998,108.62068965517241,27.626666666666665C109.65517241379311,27.493333333333332,110.6896551724138,27.253333333333334,111.72413793103449,27.253333333333334C112.75862068965517,27.253333333333334,113.79310344827587,27.413333333333334,114.82758620689656,27.413333333333334C115.86206896551724,27.413333333333334,116.89655172413794,26.240000000000002,117.93103448275862,26.240000000000002C118.96551724137932,26.240000000000002,120,26.284444444444446,121.0344827586207,26.373333333333335C122.06896551724138,26.462222222222223,123.10344827586208,26.506666666666668,124.13793103448276,26.773333333333333C125.17241379310344,27.04,126.20689655172414,31.520000000000003,127.24137931034483,31.520000000000003C128.27586206896552,31.520000000000003,129.3103448275862,26.879999999999995,130.3448275862069,26.879999999999995C131.3793103448276,26.879999999999995,132.41379310344828,27.706666666666667,133.44827586206898,27.706666666666667C134.48275862068965,27.706666666666667,135.51724137931035,24.542222222222208,136.55172413793102,23.919999999999998C137.58620689655172,23.297777777777775,138.6206896551724,22.986666666666665,139.6551724137931,22.986666666666665C140.6896551724138,22.986666666666665,141.72413793103448,26.90666666666667,142.75862068965517,26.90666666666667C143.79310344827587,26.90666666666667,144.82758620689654,24.648888888888894,145.86206896551724,24.506666666666668C146.89655172413794,24.36444444444444,147.9310344827586,24.435555555555556,148.9655172413793,24.29333333333333C150,24.151111111111103,151.0344827586207,23.09333333333333,152.0689655172414,23.09333333333333C153.10344827586206,23.09333333333333,154.13793103448276,23.33333333333333,155.17241379310343,23.33333333333333C156.20689655172413,23.33333333333333,157.24137931034483,20.560000000000002,158.27586206896552,20.560000000000002C159.31034482758622,20.560000000000002,160.3448275862069,21.840000000000003,161.3793103448276,21.840000000000003C162.41379310344828,21.840000000000003,163.44827586206895,17.706666666666667,164.48275862068965,17.706666666666667C165.51724137931035,17.706666666666667,166.55172413793102,17.76888888888889,167.58620689655172,17.893333333333334C168.6206896551724,18.01777777777778,169.6551724137931,21.840000000000003,170.6896551724138,21.840000000000003C171.7241379310345,21.840000000000003,172.75862068965517,11.946666666666665,173.79310344827587,11.946666666666665C174.82758620689657,11.946666666666665,175.86206896551724,16.453333333333333,176.89655172413794,16.453333333333333C177.93103448275863,16.453333333333333,178.9655172413793,15.04,180,13.626666666666667"></path><path class="axis-ceiling" stroke-width="1" stroke="black" fill="none" d="M175,0L180,0"></path><text class="axis-ceiling-label" font-family="sans-serif" text-anchor="end" font-size="10px" x="170" y="2.5">1500</text></g></svg>