<svg xmlns="http://www.w3.org/2000/svg" viewBox="0 0 180 60"><g transform="translate(0,20)"><path class="area" fill="rgba(0, 0, 0, 0.2)" d="M0,40C1.0344827586206897,40,2.068965517241379,40,3.103448275862069,40C4.137931034482759,40,5.172413793103448,40,6.206896551724138,40C7.241379310344827,40,8.275862068965516,40,9.310344827586206,40C10.344827586206897,40,11.379310344827585,40,12.413793103448276,40C13.448275862068966,40,14.482758620689655,40,15.517241379310345,40C16.551724137931036,40,17.586206896551722,40,18.620689655172413,40C19.655172413793103,40,20.689655172413794,38.13333333333333,21.724137931034484,38.13333333333333C22.758620689655174,38.13333333333333,23.79310344827586,38.96888888888889,24.82758620689655,39.14666666666667C25.862068965517242,39.324444444444445,26.896551724137932,39.413333333333334,27.931034482758623,39.413333333333334C28.965517241379313,39.413333333333334,30,39.31111111111111,31.03448275862069,39.25333333333333C32.06896551724138,39.19555555555555,33.103448275862064,39.18222222222222,34.137931034482754,39.06666666666667C35.172413793103445,38.95111111111112,36.206896551724135,38.67555555555556,37.241379310344826,38.56C38.275862068965516,38.44444444444444,39.310344827586206,38.49777777777778,40.3448275862069,38.373333333333335C41.37931034482759,38.24888888888889,42.41379310344828,36.63111111111111,43.44827586206897,36.18666666666667C44.48275862068966,35.742222222222225,45.51724137931035,35.52,46.55172413793104,35.52C47.58620689655173,35.52,48.62068965517241,38.88888888888888,49.6551724137931,39.33333333333333C50.689655172413794,39.77777777777778,51.72413793103448,40,52.75862068965517,40C53.79310344827586,40,54.827586206896555,40,55.862068965517246,40C56.896551724137936,40,57.93103448275862,40,58.96551724137931,40C60,40,61.03448275862069,40,62.06896551724138,40C63.10344827586207,40,64.13793103448276,31.493333333333332,65.17241379310344,31.493333333333332C66.20689655172413,31.493333333333332,67.24137931034483,39.57333333333333,68.27586206896551,39.57333333333333C69.3103448275862,39.57333333333333,70.34482758620689,29.404444444444447,71.37931034482759,29.333333333333336C72.41379310344827,29.262222222222224,73.44827586206897,29.226666666666667,74.48275862068965,29.226666666666667C75.51724137931033,29.226666666666667,76.55172413793103,30.64,77.58620689655172,31.253333333333334C78.62068965517241,31.866666666666667,79.6551724137931,32.906666666666666,80.6896551724138,32.906666666666666C81.72413793103448,32.906666666666666,82.75862068965517,29.573333333333338,83.79310344827586,29.573333333333338C84.82758620689656,29.573333333333338,85.86206896551724,33.81333333333333,86.89655172413794,33.81333333333333C87.93103448275862,33.81333333333333,88.96551724137932,26.782222222222227,90,26.58666666666667C91.0344827586207,26.391111111111112,92.06896551724138,26.48888888888889,93.10344827586208,26.293333333333333C94.13793103448276,26.09777777777778,95.17241379310344,20.506666666666664,96.20689655172413,20.506666666666664C97.24137931034483,20.506666666666664,98.27586206896551,27.751111111111104,99.3103448275862,27.839999999999996C100.3448275862069,27.92888888888889,101.37931034482759,27.973333333333336,102.41379310344828,27.973333333333336C103.44827586206897,27.973333333333336,104.48275862068965,23.200000000000003,105.51724137931033,23.200000000000003C106.55172413793103,23.200000000000003,107.58620689655172,23.520000000000003,108.62068965517241,23.520000000000003C109.65517241379311,23.520000000000003,110.6896551724138,19.6,111.72413793103449,19.6C112.75862068965517,19.6,113.79310344827587,24.05333333333333,114.82758620689656,24.05333333333333C115.86206896551724,24.05333333333333,116.89655172413794,19.911111111111104,117.93103448275862,17.706666666666667C118.96551724137932,15.502222222222219,120,10.826666666666668,121.0344827586207,10.826666666666668C122.06896551724138,10.826666666666668,123.10344827586208,22.560000000000002,124.13793103448276,22.560000000000002C125.17241379310344,22.560000000000002,126.20689655172414,12.799999999999997,127.24137931034483,12.799999999999997C128.27586206896552,12.799999999999997,129.3103448275862,16.133333333333333,130.3448275862069,16.133333333333333C131.3793103448276,16.133333333333333,132.41379310344828,7.466666666666666,133.44827586206898,7.466666666666666C134.48275862068965,7.466666666666666,135.51724137931035,19.546666666666667,136.55172413793102,19.546666666666667C137.58620689655172,19.546666666666667,138.6206896551724,7.626666666666666,139.6551724137931,7.626666666666666C140.6896551724138,7.626666666666666,141.72413793103448,12.293333333333333,142.75862068965517,12.293333333333333C143.79310344827587,12.293333333333333,144.82758620689654,6.800000000000002,145.86206896551724,6.800000000000002C146.89655172413794,6.800000000000002,147.9310344827586,10.58666666666667,148.9655172413793,10.58666666666667C150,10.58666666666667,151.0344827586207,9.493333333333332,152.0689655172414,9.493333333333332C153.10344827586206,9.493333333333332,154.13793103448276,9.644444444444444,155.17241379310343,9.946666666666669C156.20689655172413,10.2488888888889,157.24137931034483,20.16,158.27586206896552,20.16C159.31034482758622,20.16,160.3448275862069,16.026666666666667,161.3793103448276,14.48C162.41379310344828,12.933333333333334,163.44827586206895,10.88,164.48275862068965,10.88C165.51724137931035,10.88,166.55172413793102,16.96,167.58620689655172,16.96C168.6206896551724,16.96,169.6551724137931,8.266666666666666,170.6896551724138,8.266666666666666C171.7241379310345,8.266666666666666,172.75862068965517,8.293333333333333,173.79310344827587,8.346666666666668C174.82758620689657,8.400000000000002,175.86206896551724,10.142222222222223,176.89655172413794,11.760000000000002C177.93103448275863,13.37777777777778,178.9655172413793,15.715555555555557,180,18.053333333333335L180,40C178.9655172413793,40,177.93103448275863,40,176.89655172413794,40C175.86206896551724,40,174.82758620689657,40,173.79310344827587,40C172.75862068965517,40,171.7241379310345,40,170.6896551724138,40C169.6551724137931,40,168.6206896551724,40,167.58620689655172,40C166.55172413793102,40,165.51724137931035,40,164.48275862068965,40C163.44827586206895,40,162.41379310344828,40,161.3793103448276,40C160.3448275862069,40,159.31034482758622,40,158.27586206896552,40C157.24137931034483,40,156.20689655172413,40,155.17241379310343,40C154.13793103448276,40,153.10344827586206,40,152.0689655172414,40C151.0344827586207,40,150,40,148.9655172413793,40C147.9310344827586,40,146.89655172413794,40,145.86206896551724,40C144.82758620689654,40,143.79310344827587,40,142.75862068965517,40C141.72413793103448,40,140.6896551724138,40,139.6551724137931,40C138.6206896551724,40,137.58620689655172,40,136.55172413793102,40C135.51724137931035,40,134.48275862068965,40,133.44827586206898,40C132.41379310344828,40,131.3793103448276,40,130.3448275862069,40C129.3103448275862,40,128.27586206896552,40,127.24137931034483,40C126.20689655172414,40,125.17241379310344,40,124.13793103448276,40C123.10344827586208,40,122.06896551724138,40,121.0344827586207,40C120,40,118.96551724137932,40,117.93103448275862,40C116.89655172413794,40,115.86206896551724,40,114.82758620689656,40C113.79310344827587,40,112.75862068965517,40,111.72413793103449,40C110.6896551724138,40,109.65517241379311,40,108.62068965517241,40C107.58620689655172,40,106.55172413793103,40,105.51724137931033,40C104.48275862068965,40,103.44827586206897,40,102.41379310344828,40C101.37931034482759,40,100.3448275862069,40,99.3103448275862,40C98.27586206896551,40,97.24137931034483,40,96.20689655172413,40C95.17241379310344,40,94.13793103448276,40,93.10344827586208,40C92.06896551724138,40,91.0344827586207,40,90,40C88.96551724137932,40,87.93103448275862,40,86.89655172413794,40C85.86206896551724,40,84.82758620689656,40,83.79310344827586,40C82.75862068965517,40,81.72413793103448,40,80.6896551724138,40C79.6551724137931,40,78.62068965517241,40,77.58620689655172,40C76.55172413793103,40,75.51724137931033,40,74.48275862068965,40C73.44827586206897,40,72.41379310344827,40,71.37931034482759,40C70.34482758620689,40,69.3103448275862,40,68.27586206896551,40C67.24137931034483,40,66.20689655172413,40,65.17241379310344,40C64.13793103448276,40,63.10344827586207,40,62.06896551724138,40C61.03448275862069,40,60,40,58.96551724137931,40C57.93103448275862,40,56.896551724137936,40,55.862068965517246,40C54.827586206896555,40,53.79310344827586,40,52.75862068965517,40C51.72413793103448,40,50.689655172413794,40,49.6551724137931,40C48.62068965517241,40,47.58620689655173,40,46.55172413793104,40C45.51724137931035,40,44.48275862068966,40,43.44827586206897,40C42.41379310344828,40,41.37931034482759,40,40.3448275862069,40C39.310344827586206,40,38.275862068965516,40,37.241379310344826,40C36.206896551724135,40,35.172413793103445,40,34.137931034482754,40C33.103448275862064,40,32.06896551724138,40,31.03448275862069,40C30,40,28.965517241379313,40,27.931034482758623,40C26.896551724137932,40,25.862068965517242,40,24.82758620689655,40C23.79310344827586,40,22.758620689655174,40,21.724137931034484,40C20.689655172413794,40,19.655172413793103,40,18.620689655172413,40C17.586206896551722,40,16.551724137931036,40,15.517241379310345,40C14.482758620689655,40,13.448275862068966,40,12.413793103448276,40C11.379310344827585,40,10.344827586206897,40,9.310344827586206,40C8.275862068965516,40,7.241379310344827,40,6.206896551724138,40C5.172413793103448,40,4.137931034482759,40,3.103448275862069,40C2.068965517241379,40,1.0344827586206897,40,0,40Z"></path><path class="line" stroke="black" fill="none" d="M0,40C1.0344827586206897,40,2.068965517241379,40,3.103448275862069,40C4.137931034482759,40,5.172413793103448,40,6.206896551724138,40C7.241379310344827,40,8.275862068965516,40,9.310344827586206,40C10.344827586206897,40,11.379310344827585,40,12.413793103448276,40C13.448275862068966,40,14.482758620689655,40,15.517241379310345,40C16.551724137931036,40,17.586206896551722,40,18.620689655172413,40C19.655172413793103,40,20.689655172413794,38.13333333333333,21.724137931034484,38.13333333333333C22.758620689655174,38.13333333333333,23.79310344827586,38.96888888888889,24.82758620689655,39.14666666666667C25.862068965517242,39.324444444444445,26.896551724137932,39.413333333333334,27.931034482758623,39.413333333333334C28.965517241379313,39.413333333333334,30,39.31111111111111,31.03448275862069,39.25333333333333C32.06896551724138,39.19555555555555,33.103448275862064,39.18222222222222,34.137931034482754,39.06666666666667C35.172413793103445,38.95111111111112,36.206896551724135,38.67555555555556,37.241379310344826,38.56C38.275862068965516,38.44444444444444,39.310344827586206,38.49777777777778,40.3448275862069,38.373333333333335C41.37931034482759,38.24888888888889,42.41379310344828,36.63111111111111,43.44827586206897,36.18666666666667C44.48275862068966,35.742222222222225,45.51724137931035,35.52,46.55172413793104,35.52C47.58620689655173,35.52,48.62068965517241,38.88888888888888,49.6551724137931,39.33333333333333C50.689655172413794,39.77777777777778,51.72413793103448,40,52.75862068965517,40C53.79310344827586,40,54.827586206896555,40,55.862068965517246,40C56.896551724137936,40,57.93103448275862,40,58.96551724137931,40C60,40,61.03448275862069,40,62.06896551724138,40C63.10344827586207,40,64.13793103448276,31.493333333333332,65.17241379310344,31.493333333333332C66.20689655172413,31.493333333333332,67.24137931034483,39.57333333333333,68.27586206896551,39.57333333333333C69.3103448275862,39.57333333333333,70.34482758620689,29.404444444444447,71.37931034482759,29.333333333333336C72.41379310344827,29.262222222222224,73.44827586206897,29.226666666666667,74.48275862068965,29.226666666666667C75.51724137931033,29.226666666666667,76.55172413793103,30.64,77.58620689655172,31.253333333333334C78.62068965517241,31.866666666666667,79.6551724137931,32.906666666666666,80.6896551724138,32.906666666666666C81.72413793103448,32.906666666666666,82.75862068965517,29.573333333333338,83.79310344827586,29.573333333333338C84.82758620689656,29.573333333333338,85.86206896551724,33.81333333333333,86.89655172413794,33.81333333333333C87.93103448275862,33.81333333333333,88.96551724137932,26.782222222222227,90,26.58666666666667C91.0344827586207,26.391111111111112,92.06896551724138,26.48888888888889,93.10344827586208,26.293333333333333C94.13793103448276,26.09777777777778,95.17241379310344,20.506666666666664,96.20689655172413,20.506666666666664C97.24137931034483,20.506666666666664,98.27586206896551,27.751111111111104,99.3103448275862,27.839999999999996C100.3448275862069,27.92888888888889,101.37931034482759,27.973333333333336,102.41379310344828,27.973333333333336C103.44827586206897,27.973333333333336,104.48275862068965,23.200000000000003,105.51724137931033,23.200000000000003C106.55172413793103,23.200000000000003,107.58620689655172,23.520000000000003,108.62068965517241,23.520000000000003C109.65517241379311,23.520000000000003,110.6896551724138,19.6,111.72413793103449,19.6C112.75862068965517,19.6,113.79310344827587,24.05333333333333,114.82758620689656,24.05333333333333C115.86206896551724,24.05333333333333,116.89655172413794,19.911111111111104,117.93103448275862,17.706666666666667C118.96551724137932,15.502222222222219,120,10.826666666666668,121.0344827586207,10.826666666666668C122.06896551724138,10.826666666666668,123.10344827586208,22.560000000000002,124.13793103448276,22.560000000000002C125.17241379310344,22.560000000000002,126.20689655172414,12.799999999999997,127.24137931034483,12.799999999999997C128.27586206896552,12.799999999999997,129.3103448275862,16.133333333333333,130.3448275862069,16.133333333333333C131.3793103448276,16.133333333333333,132.41379310344828,7.466666666666666,133.44827586206898,7.466666666666666C134.48275862068965,7.466666666666666,135.51724137931035,19.546666666666667,136.55172413793102,19.546666666666667C137.58620689655172,19.546666666666667,138.6206896551724,7.626666666666666,139.6551724137931,7.626666666666666C140.6896551724138,7.626666666666666,141.72413793103448,12.293333333333333,142.75862068965517,12.293333333333333C143.79310344827587,12.293333333333333,144.82758620689654,6.800000000000002,145.86206896551724,6.800000000000002C146.89655172413794,6.800000000000002,147.9310344827586,10.58666666666667,148.9655172413793,10.58666666666667C150,10.58666666666667,151.0344827586207,9.493333333333332,152.0689655172414,9.493333333333332C153.10344827586206,9.493333333333332,154.13793103448276,9.644444444444444,155.17241379310343,9.946666666666669C156.20689655172413,10.2488888888889,157.24137931034483,20.16,158.27586206896552,20.16C159.31034482758622,20.16,160.3448275862069,16.026666666666667,161.3793103448276,14.48C162.41379310344828,12.933333333333334,163.44827586206895,10.88,164.48275862068965,10.88C165.51724137931035,10.88,166.55172413793102,16.96,167.58620689655172,16.96C168.6206896551724,16.96,169.6551724137931,8.266666666666666,170.6896551724138,8.266666666666666C171.7241379310345,8.266666666666666,172.75862068965517,8.293333333333333,173.79310344827587,8.346666666666668C174.82758620689657,8.400000000000002,175.86206896551724,10.142222222222223,176.89655172413794,11.760000000000002C177.93103448275863,13.37777777777778,178.9655172413793,15.715555555555557,180,18.053333333333335"></path><path class="axis-ceiling" stroke-width="1" stroke="black" fill="none" d="M175,0L180,0"></path><text class="axis-ceiling-label" font-family="sans-serif" text-anchor="end" font-size="10px" x="170" y="2.5">1500</text></g></svg>