<svg xmlns="http://www.w3.org/2000/svg" viewBox="0 0 180 60"><g transform="translate(0,20)"><path class="area" fill="rgba(0, 0, 0, 0.2)" d="M0,19.6C1.0169491525423728,21.826666666666668,2.0338983050847457,24.05333333333333,3.0508474576271185,24.05333333333333C4.067796610169491,24.05333333333333,5.084745762711864,19.91111111111111,6.101694915254237,17.706666666666667C7.11864406779661,15.502222222222223,8.135593220338983,10.826666666666668,9.152542372881356,10.826666666666668C10.169491525423728,10.826666666666668,11.186440677966102,22.560000000000002,12.203389830508474,22.560000000000002C13.220338983050846,22.560000000000002,14.23728813559322,12.799999999999997,15.254237288135592,12.799999999999997C16.271186440677965,12.799999999999997,17.28813559322034,16.133333333333333,18.305084745762713,16.133333333333333C19.322033898305087,16.133333333333333,20.338983050847457,7.466666666666666,21.35593220338983,7.466666666666666C22.372881355932204,7.466666666666666,23.389830508474574,19.546666666666667,24.406779661016948,19.546666666666667C25.423728813559322,19.546666666666667,26.440677966101696,7.626666666666666,27.45762711864407,7.626666666666666C28.47457627118644,7.626666666666666,29.491525423728813,12.293333333333333,30.508474576271183,12.293333333333333C31.525423728813557,12.293333333333333,32.54237288135593,6.800000000000002,33.559322033898304,6.800000000000002C34.57627118644068,6.800000000000002,35.59322033898305,10.58666666666667,36.610169491525426,10.58666666666667C37.6271186440678,10.58666666666667,38.644067796610166,9.493333333333332,39.66101694915254,9.493333333333332C40.67796610169491,9.493333333333332,41.69491525423729,9.644444444444444,42.71186440677966,9.946666666666669C43.728813559322035,10.248888888888892,44.7457627118644,20.16,45.762711864406775,20.16C46.77966101694915,20.16,47.79661016949152,16.026666666666667,48.813559322033896,14.48C49.83050847457627,12.933333333333334,50.847457627118644,10.88,51.86440677966102,10.88C52.88135593220339,10.88,53.898305084745765,16.96,54.91525423728814,16.96C55.93220338983051,16.96,56.94915254237288,8.266666666666666,57.96610169491525,8.266666666666666C58.983050847457626,8.266666666666666,59.99999999999999,8.293333333333333,61.01694915254237,8.346666666666668C62.03389830508474,8.400000000000002,63.05084745762712,10.142222222222218,64.0677966101695,11.760000000000002C65.08474576271186,13.377777777777778,66.10169491525424,18.053333333333335,67.11864406779661,18.053333333333335C68.13559322033899,18.053333333333335,69.15254237288136,17.10666666666667,70.16949152542374,16.133333333333333C71.1864406779661,15.16,72.20338983050848,12.213333333333335,73.22033898305085,12.213333333333335C74.23728813559322,12.213333333333335,75.2542372881356,16.315555555555555,76.27118644067797,17.919999999999998C77.28813559322033,19.52444444444444,78.30508474576271,21.840000000000003,79.32203389830508,21.840000000000003C80.33898305084746,21.840000000000003,81.35593220338983,21.288888888888888,82.37288135593221,21.04C83.38983050847457,20.79111111111111,84.40677966101696,20.346666666666664,85.42372881355932,20.346666666666664C86.4406779661017,20.346666666666664,87.45762711864407,22.902222222222218,88.47457627118645,24.186666666666667C89.49152542372882,25.471111111111107,90.50847457627118,28.053333333333335,91.52542372881355,28.053333333333335C92.54237288135593,28.053333333333335,93.55932203389831,27.759999999999998,94.57627118644069,27.626666666666665C95.59322033898306,27.493333333333332,96.61016949152543,27.253333333333334,97.62711864406779,27.253333333333334C98.64406779661016,27.253333333333334,99.66101694915254,27.413333333333334,100.6779661016949,27.413333333333334C101.69491525423729,27.413333333333334,102.71186440677965,26.240000000000002,103.72881355932203,26.240000000000002C104.7457627118644,26.240000000000002,105.76271186440678,26.284444444444446,106.77966101694915,26.373333333333335C107.79661016949153,26.462222222222223,108.8135593220339,26.506666666666668,109.83050847457628,26.773333333333333C110.84745762711864,27.04,111.86440677966102,31.520000000000003,112.88135593220339,31.520000000000003C113.89830508474576,31.520000000000003,114.91525423728814,26.879999999999995,115.9322033898305,26.879999999999995C116.94915254237289,26.879999999999995,117.96610169491525,27.706666666666667,118.98305084745763,27.706666666666667C120,27.706666666666667,121.01694915254237,24.54222222222221,122.03389830508473,23.919999999999998C123.05084745762711,23.297777777777775,124.0677966101695,22.986666666666665,125.08474576271188,22.986666666666665C126.10169491525424,22.986666666666665,127.11864406779662,26.90666666666667,128.135593220339,26.90666666666667C129.15254237288136,26.90666666666667,130.16949152542372,24.64888888888889,131.1864406779661,24.506666666666668C132.20338983050846,24.36444444444444,133.22033898305085,24.435555555555556,134.23728813559322,24.29333333333333C135.25423728813558,24.151111111111103,136.27118644067798,23.09333333333333,137.28813559322035,23.09333333333333C138.3050847457627,23.09333333333333,139.3220338983051,23.33333333333333,140.33898305084747,23.33333333333333C141.35593220338984,23.33333333333333,142.3728813559322,20.560000000000002,143.38983050847457,20.560000000000002C144.40677966101694,20.560000000000002,145.42372881355934,21.840000000000003,146.4406779661017,21.840000000000003C147.45762711864407,21.840000000000003,148.47457627118644,17.706666666666667,149.4915254237288,17.706666666666667C150.50847457627117,17.706666666666667,151.52542372881356,17.76888888888889,152.54237288135593,17.893333333333334C153.5593220338983,18.01777777777778,154.5762711864407,21.840000000000003,155.59322033898306,21.840000000000003C156.61016949152543,21.840000000000003,157.6271186440678,11.946666666666665,158.64406779661016,11.946666666666665C159.66101694915253,11.946666666666665,160.67796610169492,16.453333333333333,161.6949152542373,16.453333333333333C162.71186440677965,16.453333333333333,163.72881355932205,14.55555555555556,164.74576271186442,13.626666666666667C165.76271186440678,12.697777777777782,166.77966101694915,10.88,167.79661016949152,10.88C168.81355932203388,10.88,169.83050847457628,11.613333333333333,170.84745762711864,12.613333333333333C171.864406779661,13.613333333333333,172.8813559322034,16.880000000000003,173.89830508474577,16.880000000000003C174.91525423728814,16.880000000000003,175.93220338983053,14.488888888888889,176.9491525423729,14.346666666666668C177.96610169491527,14.204444444444446,178.98305084745763,14.168888888888892,180,14.133333333333336L180,40C178.98305084745763,40,177.96610169491527,40,176.9491525423729,40C175.93220338983053,40,174.91525423728814,40,173.89830508474577,40C172.8813559322034,40,171.864406779661,40,170.84745762711864,40C169.83050847457628,40,168.81355932203388,40,167.79661016949152,40C166.77966101694915,40,165.76271186440678,40,164.74576271186442,40C163.72881355932205,40,162.71186440677965,40,161.6949152542373,40C160.67796610169492,40,159.66101694915253,40,158.64406779661016,40C157.6271186440678,40,156.61016949152543,40,155.59322033898306,40C154.5762711864407,40,153.5593220338983,40,152.54237288135593,40C151.52542372881356,40,150.50847457627117,40,149.4915254237288,40C148.47457627118644,40,147.45762711864407,40,146.4406779661017,40C145.42372881355934,40,144.40677966101694,40,143.38983050847457,40C142.3728813559322,40,141.35593220338984,40,140.33898305084747,40C139.3220338983051,40,138.3050847457627,40,137.28813559322035,40C136.27118644067798,40,135.25423728813558,40,134.23728813559322,40C133.22033898305085,40,132.20338983050846,40,131.1864406779661,40C130.16949152542372,40,129.15254237288136,40,128.135593220339,40C127.11864406779662,40,126.10169491525424,40,125.08474576271188,40C124.0677966101695,40,123.05084745762711,40,122.03389830508473,40C121.01694915254237,40,120,40,118.98305084745763,40C117.96610169491525,40,116.94915254237289,40,115.9322033898305,40C114.91525423728814,40,113.89830508474576,40,112.88135593220339,40C111.86440677966102,40,110.84745762711864,40,109.83050847457628,40C108.8135593220339,40,107.79661016949153,40,106.77966101694915,40C105.76271186440678,40,104.7457627118644,40,103.72881355932203,40C102.71186440677965,40,101.69491525423729,40,100.6779661016949,40C99.66101694915254,40,98.64406779661016,40,97.62711864406779,40C96.61016949152543,40,95.59322033898306,40,94.57627118644069,40C93.55932203389831,40,92.54237288135593,40,91.52542372881355,40C90.50847457627118,40,89.49152542372882,40,88.47457627118645,40C87.45762711864407,40,86.4406779661017,40,85.42372881355932,40C84.40677966101696,40,83.38983050847457,40,82.37288135593221,40C81.35593220338983,40,80.33898305084746,40,79.32203389830508,40C78.30508474576271,40,77.28813559322033,40,76.27118644067797,40C75.2542372881356,40,74.23728813559322,40,73.22033898305085,40C72.20338983050848,40,71.1864406779661,40,70.16949152542374,40C69.15254237288136,40,68.13559322033899,40,67.11864406779661,40C66.10169491525424,40,65.08474576271186,40,64.0677966101695,40C63.05084745762712,40,62.03389830508474,40,61.01694915254237,40C59.99999999999999,40,58.983050847457626,40,57.96610169491525,40C56.94915254237288,40,55.93220338983051,40,54.91525423728814,40C53.898305084745765,40,52.88135593220339,40,51.86440677966102,40C50.847457627118644,40,49.83050847457627,40,48.813559322033896,40C47.79661016949152,40,46.77966101694915,40,45.762711864406775,40C44.7457627118644,40,43.728813559322035,40,42.71186440677966,40C41.69491525423729,40,40.67796610169491,40,39.66101694915254,40C38.644067796610166,40,37.6271186440678,40,36.610169491525426,40C35.59322033898305,40,34.57627118644068,40,33.559322033898304,40C32.54237288135593,40,31.525423728813557,40,30.508474576271183,40C29.491525423728813,40,28.47457627118644,40,27.45762711864407,40C26.440677966101696,40,25.423728813559322,40,24.406779661016948,40C23.389830508474574,40,22.372881355932204,40,21.35593220338983,40C20.338983050847457,40,19.322033898305087,40,18.305084745762713,40C17.28813559322034,40,16.271186440677965,40,15.254237288135592,40C14.23728813559322,40,13.220338983050846,40,12.203389830508474,40C11.186440677966102,40,10.169491525423728,40,9.152542372881356,40C8.135593220338983,40,7.11864406779661,40,6.101694915254237,40C5.084745762711864,40,4.067796610169491,40,3.0508474576271185,40C2.0338983050847457,40,1.0169491525423728,40,0,40Z"></path><path class="line" stroke="black" fill="none" d="M0,19.6C1.0169491525423728,21.826666666666668,2.0338983050847457,24.05333333333333,3.0508474576271185,24.05333333333333C4.067796610169491,24.05333333333333,5.084745762711864,19.91111111111111,6.101694915254237,17.706666666666667C7.11864406779661,15.502222222222223,8.135593220338983,10.826666666666668,9.152542372881356,10.826666666666668C10.169491525423728,10.826666666666668,11.186440677966102,22.560000000000002,12.203389830508474,22.560000000000002C13.220338983050846,22.560000000000002,14.23728813559322,12.799999999999997,15.254237288135592,12.799999999999997C16.271186440677965,12.799999999999997,17.28813559322034,16.133333333333333,18.305084745762713,16.133333333333333C19.322033898305087,16.133333333333333,20.338983050847457,7.466666666666666,21.35593220338983,7.466666666666666C22.372881355932204,7.466666666666666,23.389830508474574,19.546666666666667,24.406779661016948,19.546666666666667C25.423728813559322,19.546666666666667,26.440677966101696,7.626666666666666,27.45762711864407,7.626666666666666C28.47457627118644,7.626666666666666,29.491525423728813,12.293333333333333,30.508474576271183,12.293333333333333C31.525423728813557,12.293333333333333,32.54237288135593,6.800000000000002,33.559322033898304,6.800000000000002C34.57627118644068,6.800000000000002,35.59322033898305,10.58666666666667,36.610169491525426,10.58666666666667C37.6271186440678,10.58666666666667,38.644067796610166,9.493333333333332,39.66101694915254,9.493333333333332C40.67796610169491,9.493333333333332,41.69491525423729,9.644444444444444,42.71186440677966,9.946666666666669C43.728813559322035,10.248888888888892,44.7457627118644,20.16,45.762711864406775,20.16C46.77966101694915,20.16,47.79661016949152,16.026666666666667,48.813559322033896,14.48C49.83050847457627,12.933333333333334,50.847457627118644,10.88,51.86440677966102,10.88C52.88135593220339,10.88,53.898305084745765,16.96,54.91525423728814,16.96C55.93220338983051,16.96,56.94915254237288,8.266666666666666,57.96610169491525,8.266666666666666C58.983050847457626,8.266666666666666,59.99999999999999,8.293333333333333,61.01694915254237,8.346666666666668C62.03389830508474,8.400000000000002,63.05084745762712,10.142222222222218,64.0677966101695,11.760000000000002C65.08474576271186,13.377777777777778,66.10169491525424,18.053333333333335,67.11864406779661,18.053333333333335C68.13559322033899,18.053333333333335,69.15254237288136,17.10666666666667,70.16949152542374,16.133333333333333C71.1864406779661,15.16,72.20338983050848,12.213333333333335,73.22033898305085,12.213333333333335C74.23728813559322,12.213333333333335,75.2542372881356,16.315555555555555,76.27118644067797,17.919999999999998C77.28813559322033,19.52444444444444,78.30508474576271,21.840000000000003,79.32203389830508,21.840000000000003C80.33898305084746,21.840000000000003,81.35593220338983,21.288888888888888,82.37288135593221,21.04C83.38983050847457,20.79111111111111,84.40677966101696,20.346666666666664,85.42372881355932,20.346666666666664C86.4406779661017,20.346666666666664,87.45762711864407,22.902222222222218,88.47457627118645,24.186666666666667C89.49152542372882,25.471111111111107,90.50847457627118,28.053333333333335,91.52542372881355,28.053333333333335C92.54237288135593,28.053333333333335,93.55932203389831,27.759999999999998,94.57627118644069,27.626666666666665C95.59322033898306,27.493333333333332,96.61016949152543,27.253333333333334,97.62711864406779,27.253333333333334C98.64406779661016,27.253333333333334,99.66101694915254,27.413333333333334,100.6779661016949,27.413333333333334C101.69491525423729,27.413333333333334,102.71186440677965,26.240000000000002,103.72881355932203,26.240000000000002C104.7457627118644,26.240000000000002,105.76271186440678,26.284444444444446,106.77966101694915,26.373333333333335C107.79661016949153,26.462222222222223,108.8135593220339,26.506666666666668,109.83050847457628,26.773333333333333C110.84745762711864,27.04,111.86440677966102,31.520000000000003,112.88135593220339,31.520000000000003C113.89830508474576,31.520000000000003,114.91525423728814,26.879999999999995,115.9322033898305,26.879999999999995C116.94915254237289,26.879999999999995,117.96610169491525,27.706666666666667,118.98305084745763,27.706666666666667C120,27.706666666666667,121.01694915254237,24.54222222222221,122.03389830508473,23.919999999999998C123.05084745762711,23.297777777777775,124.0677966101695,22.986666666666665,125.08474576271188,22.986666666666665C126.10169491525424,22.986666666666665,127.11864406779662,26.90666666666667,128.135593220339,26.90666666666667C129.15254237288136,26.90666666666667,130.16949152542372,24.64888888888889,131.1864406779661,24.506666666666668C132.20338983050846,24.36444444444444,133.22033898305085,24.435555555555556,134.23728813559322,24.29333333333333C135.25423728813558,24.151111111111103,136.27118644067798,23.09333333333333,137.28813559322035,23.09333333333333C138.3050847457627,23.09333333333333,139.3220338983051,23.33333333333333,140.33898305084747,23.33333333333333C141.35593220338984,23.33333333333333,142.3728813559322,20.560000000000002,143.38983050847457,20.560000000000002C144.40677966101694,20.560000000000002,145.42372881355934,21.840000000000003,146.4406779661017,21.840000000000003C147.45762711864407,21.840000000000003,148.47457627118644,17.706666666666667,149.4915254237288,17.706666666666667C150.50847457627117,17.706666666666667,151.52542372881356,17.76888888888889,152.54237288135593,17.893333333333334C153.5593220338983,18.01777777777778,154.5762711864407,21.840000000000003,155.59322033898306,21.840000000000003C156.61016949152543,21.840000000000003,157.6271186440678,11.946666666666665,158.64406779661016,11.946666666666665C159.66101694915253,11.946666666666665,160.67796610169492,16.453333333333333,161.6949152542373,16.453333333333333C162.71186440677965,16.453333333333333,163.72881355932205,14.55555555555556,164.74576271186442,13.626666666666667C165.76271186440678,12.697777777777782,166.77966101694915,10.88,167.79661016949152,10.88C168.81355932203388,10.88,169.83050847457628,11.613333333333333,170.84745762711864,12.613333333333333C171.864406779661,13.613333333333333,172.8813559322034,16.880000000000003,173.89830508474577,16.880000000000003C174.91525423728814,16.880000000000003,175.93220338983053,14.488888888888889,176.9491525423729,14.346666666666668C177.96610169491527,14.204444444444446,178.98305084745763,14.168888888888892,180,14.133333333333336"></path><path class="axis-ceiling" stroke-width="1" stroke="black" fill="none" d="M175,0L180,0"></path><text class="axis-ceiling-label" font-family="sans-serif" text-anchor="end" font-size="10px" x="170" y="2.5">1500</text></g></svg>