<svg xmlns="http://www.w3.org/2000/svg" viewBox="0 0 180 60"><g transform="translate(0,20)"><path class="area" fill="rgba(0, 0, 0, 0.2)" d="M0,25.78C1.0169491525423728,25.52,2.0338983050847457,25.259999999999998,3.0508474576271185,25.259999999999998C4.067796610169491,25.259999999999998,5.084745762711864,27.176666666666666,6.101694915254237,28.14C7.11864406779661,29.103333333333335,8.135593220338983,31.04,9.152542372881356,31.04C10.169491525423728,31.04,11.186440677966102,30.82,12.203389830508474,30.72C13.220338983050846,30.619999999999997,14.23728813559322,30.44,15.254237288135592,30.44C16.271186440677965,30.44,17.28813559322034,30.560000000000002,18.305084745762713,30.560000000000002C19.322033898305087,30.560000000000002,20.338983050847457,29.68,21.35593220338983,29.68C22.372881355932204,29.68,23.389830508474574,29.71333333333333,24.406779661016948,29.779999999999998C25.423728813559322,29.846666666666664,26.440677966101696,29.88,27.45762711864407,30.08C28.47457627118644,30.279999999999998,29.491525423728813,33.64,30.508474576271183,33.64C31.525423728813557,33.64,32.54237288135593,30.16,33.559322033898304,30.16C34.57627118644068,30.16,35.59322033898305,30.779999999999998,36.610169491525426,30.779999999999998C37.6271186440678,30.779999999999998,38.644067796610166,28.406666666666666,39.66101694915254,27.94C40.67796610169491,27.473333333333336,41.69491525423729,27.240000000000002,42.71186440677966,27.240000000000002C43.728813559322035,27.240000000000002,44.7457627118644,30.18,45.762711864406775,30.18C46.77966101694915,30.18,47.79661016949152,28.48666666666667,48.813559322033896,28.380000000000003C49.83050847457627,28.273333333333333,50.847457627118644,28.326666666666668,51.86440677966102,28.22C52.88135593220339,28.11333333333333,53.898305084745765,27.32,54.91525423728814,27.32C55.93220338983051,27.32,56.94915254237288,27.5,57.96610169491525,27.5C58.983050847457626,27.5,59.99999999999999,25.419999999999998,61.01694915254237,25.419999999999998C62.03389830508474,25.419999999999998,63.05084745762712,26.38,64.0677966101695,26.38C65.08474576271186,26.38,66.10169491525424,23.28,67.11864406779661,23.28C68.13559322033899,23.28,69.15254237288136,23.326666666666668,70.16949152542374,23.42C71.1864406779661,23.513333333333335,72.20338983050848,26.38,73.22033898305085,26.38C74.23728813559322,26.38,75.2542372881356,18.96,76.27118644067797,18.96C77.28813559322033,18.96,78.30508474576271,22.34,79.32203389830508,22.34C80.33898305084746,22.34,81.35593220338983,20.91666666666667,82.37288135593221,20.220000000000002C83.38983050847457,19.523333333333337,84.40677966101696,18.159999999999997,85.42372881355932,18.159999999999997C86.4406779661017,18.159999999999997,87.45762711864407,18.709999999999994,88.47457627118645,19.46C89.49152542372882,20.21,90.50847457627118,22.66,91.52542372881355,22.66C92.54237288135593,22.66,93.55932203389831,20.86666666666667,94.57627118644069,20.76C95.59322033898306,20.653333333333336,96.61016949152543,20.6,97.62711864406779,20.6C98.64406779661016,20.6,99.66101694915254,20.9,100.6779661016949,20.9C101.69491525423729,20.9,102.71186440677965,19.083333333333336,103.72881355932203,18C104.7457627118644,16.916666666666668,105.76271186440678,15.726666666666661,106.77966101694915,14.399999999999999C107.79661016949153,13.073333333333329,108.8135593220339,11.273333333333333,109.83050847457628,10.04C110.84745762711864,8.80666666666667,111.86440677966102,7.333333333333337,112.88135593220339,7.000000000000002C113.89830508474576,6.666666666666667,114.91525423728814,6.833333333333331,115.9322033898305,6.499999999999999C116.94915254237289,6.166666666666665,117.96610169491525,5,118.98305084745763,5C120,5,121.01694915254237,5.339999999999998,122.03389830508473,5.339999999999998C123.05084745762711,5.339999999999998,124.0677966101695,2.493333333333337,125.08474576271188,2.480000000000002C126.10169491525424,2.4666666666666672,127.11864406779662,2.46,128.135593220339,2.46C129.15254237288136,2.46,130.16949152542372,7.283333333333337,131.1864406779661,8.860000000000001C132.20338983050846,10.436666666666682,133.22033898305085,11.026666666666667,134.23728813559322,11.920000000000002C135.25423728813558,12.813333333333336,136.27118644067798,13.470000000000002,137.28813559322035,14.220000000000002C138.3050847457627,14.970000000000002,139.3220338983051,16.419999999999998,140.33898305084747,16.419999999999998C141.35593220338984,16.419999999999998,142.3728813559322,10.36,143.38983050847457,10.36C144.40677966101694,10.36,145.42372881355934,15.326666666666666,146.4406779661017,15.379999999999999C147.45762711864407,15.433333333333332,148.47457627118644,15.459999999999997,149.4915254237288,15.459999999999997C150.50847457627117,15.459999999999997,151.52542372881356,9.620000000000001,152.54237288135593,9.620000000000001C153.5593220338983,9.620000000000001,154.5762711864407,19.686666666666657,155.59322033898306,20.339999999999996C156.61016949152543,20.99333333333333,157.6271186440678,21.319999999999997,158.64406779661016,21.319999999999997C159.66101694915253,21.319999999999997,160.67796610169492,14.326666666666672,161.6949152542373,13.100000000000001C162.71186440677965,11.873333333333331,163.72881355932205,11.756666666666666,164.74576271186442,11.259999999999998C165.76271186440678,10.763333333333335,166.77966101694915,10.120000000000001,167.79661016949152,10.120000000000001C168.81355932203388,10.120000000000001,169.83050847457628,10.72,170.84745762711864,11.360000000000001C171.864406779661,12.000000000000002,172.8813559322034,12.226666666666667,173.89830508474577,13.959999999999999C174.91525423728814,15.693333333333332,175.93220338983053,22.740000000000002,176.9491525423729,22.740000000000002C177.96610169491527,22.740000000000002,178.98305084745763,22.22,180,21.7L180,40C178.98305084745763,40,177.96610169491527,40,176.9491525423729,40C175.93220338983053,40,174.91525423728814,40,173.89830508474577,40C172.8813559322034,40,171.864406779661,40,170.84745762711864,40C169.83050847457628,40,168.81355932203388,40,167.79661016949152,40C166.77966101694915,40,165.76271186440678,40,164.74576271186442,40C163.72881355932205,40,162.71186440677965,40,161.6949152542373,40C160.67796610169492,40,159.66101694915253,40,158.64406779661016,40C157.6271186440678,40,156.61016949152543,40,155.59322033898306,40C154.5762711864407,40,153.5593220338983,40,152.54237288135593,40C151.52542372881356,40,150.50847457627117,40,149.4915254237288,40C148.47457627118644,40,147.45762711864407,40,146.4406779661017,40C145.42372881355934,40,144.40677966101694,40,143.38983050847457,40C142.3728813559322,40,141.35593220338984,40,140.33898305084747,40C139.3220338983051,40,138.3050847457627,40,137.28813559322035,40C136.27118644067798,40,135.25423728813558,40,134.23728813559322,40C133.22033898305085,40,132.20338983050846,40,131.1864406779661,40C130.16949152542372,40,129.15254237288136,40,128.135593220339,40C127.11864406779662,40,126.10169491525424,40,125.08474576271188,40C124.0677966101695,40,123.05084745762711,40,122.03389830508473,40C121.01694915254237,40,120,40,118.98305084745763,40C117.96610169491525,40,116.94915254237289,40,115.9322033898305,40C114.91525423728814,40,113.89830508474576,40,112.88135593220339,40C111.86440677966102,40,110.84745762711864,40,109.83050847457628,40C108.8135593220339,40,107.79661016949153,40,106.77966101694915,40C105.76271186440678,40,104.7457627118644,40,103.72881355932203,40C102.71186440677965,40,101.69491525423729,40,100.6779661016949,40C99.66101694915254,40,98.64406779661016,40,97.62711864406779,40C96.61016949152543,40,95.59322033898306,40,94.57627118644069,40C93.55932203389831,40,92.54237288135593,40,91.52542372881355,40C90.50847457627118,40,89.49152542372882,40,88.47457627118645,40C87.45762711864407,40,86.4406779661017,40,85.42372881355932,40C84.40677966101696,40,83.38983050847457,40,82.37288135593221,40C81.35593220338983,40,80.33898305084746,40,79.32203389830508,40C78.30508474576271,40,77.28813559322033,40,76.27118644067797,40C75.2542372881356,40,74.23728813559322,40,73.22033898305085,40C72.20338983050848,40,71.1864406779661,40,70.16949152542374,40C69.15254237288136,40,68.13559322033899,40,67.11864406779661,40C66.10169491525424,40,65.08474576271186,40,64.0677966101695,40C63.05084745762712,40,62.03389830508474,40,61.01694915254237,40C59.99999999999999,40,58.983050847457626,40,57.96610169491525,40C56.94915254237288,40,55.93220338983051,40,54.91525423728814,40C53.898305084745765,40,52.88135593220339,40,51.86440677966102,40C50.847457627118644,40,49.83050847457627,40,48.813559322033896,40C47.79661016949152,40,46.77966101694915,40,45.762711864406775,40C44.7457627118644,40,43.728813559322035,40,42.71186440677966,40C41.69491525423729,40,40.67796610169491,40,39.66101694915254,40C38.644067796610166,40,37.6271186440678,40,36.610169491525426,40C35.59322033898305,40,34.57627118644068,40,33.559322033898304,40C32.54237288135593,40,31.525423728813557,40,30.508474576271183,40C29.491525423728813,40,28.47457627118644,40,27.45762711864407,40C26.440677966101696,40,25.423728813559322,40,24.406779661016948,40C23.389830508474574,40,22.372881355932204,40,21.35593220338983,40C20.338983050847457,40,19.322033898305087,40,18.305084745762713,40C17.28813559322034,40,16.271186440677965,40,15.254237288135592,40C14.23728813559322,40,13.220338983050846,40,12.203389830508474,40C11.186440677966102,40,10.169491525423728,40,9.152542372881356,40C8.135593220338983,40,7.11864406779661,40,6.101694915254237,40C5.084745762711864,40,4.067796610169491,40,3.0508474576271185,40C2.0338983050847457,40,1.0169491525423728,40,0,40Z"></path><path class="line" stroke="black" fill="none" d="M0,25.78C1.0169491525423728,25.52,2.0338983050847457,25.259999999999998,3.0508474576271185,25.259999999999998C4.067796610169491,25.259999999999998,5.084745762711864,27.176666666666666,6.101694915254237,28.14C7.11864406779661,29.103333333333335,8.135593220338983,31.04,9.152542372881356,31.04C10.169491525423728,31.04,11.186440677966102,30.82,12.203389830508474,30.72C13.220338983050846,30.619999999999997,14.23728813559322,30.44,15.254237288135592,30.44C16.271186440677965,30.44,17.28813559322034,30.560000000000002,18.305084745762713,30.560000000000002C19.322033898305087,30.560000000000002,20.338983050847457,29.68,21.35593220338983,29.68C22.372881355932204,29.68,23.389830508474574,29.71333333333333,24.406779661016948,29.779999999999998C25.423728813559322,29.846666666666664,26.440677966101696,29.88,27.45762711864407,30.08C28.47457627118644,30.279999999999998,29.491525423728813,33.64,30.508474576271183,33.64C31.525423728813557,33.64,32.54237288135593,30.16,33.559322033898304,30.16C34.57627118644068,30.16,35.59322033898305,30.779999999999998,36.610169491525426,30.779999999999998C37.6271186440678,30.779999999999998,38.644067796610166,28.406666666666666,39.66101694915254,27.94C40.67796610169491,27.473333333333336,41.69491525423729,27.240000000000002,42.71186440677966,27.240000000000002C43.728813559322035,27.240000000000002,44.7457627118644,30.18,45.762711864406775,30.18C46.77966101694915,30.18,47.79661016949152,28.48666666666667,48.813559322033896,28.380000000000003C49.83050847457627,28.273333333333333,50.847457627118644,28.326666666666668,51.86440677966102,28.22C52.88135593220339,28.11333333333333,53.898305084745765,27.32,54.91525423728814,27.32C55.93220338983051,27.32,56.94915254237288,27.5,57.96610169491525,27.5C58.983050847457626,27.5,59.99999999999999,25.419999999999998,61.01694915254237,25.419999999999998C62.03389830508474,25.419999999999998,63.05084745762712,26.38,64.0677966101695,26.38C65.08474576271186,26.38,66.10169491525424,23.28,67.11864406779661,23.28C68.13559322033899,23.28,69.15254237288136,23.326666666666668,70.16949152542374,23.42C71.1864406779661,23.513333333333335,72.20338983050848,26.38,73.22033898305085,26.38C74.23728813559322,26.38,75.2542372881356,18.96,76.27118644067797,18.96C77.28813559322033,18.96,78.30508474576271,22.34,79.32203389830508,22.34C80.33898305084746,22.34,81.35593220338983,20.91666666666667,82.37288135593221,20.220000000000002C83.38983050847457,19.523333333333337,84.40677966101696,18.159999999999997,85.42372881355932,18.159999999999997C86.4406779661017,18.159999999999997,87.45762711864407,18.709999999999994,88.47457627118645,19.46C89.49152542372882,20.21,90.50847457627118,22.66,91.52542372881355,22.66C92.54237288135593,22.66,93.55932203389831,20.86666666666667,94.57627118644069,20.76C95.59322033898306,20.653333333333336,96.61016949152543,20.6,97.62711864406779,20.6C98.64406779661016,20.6,99.66101694915254,20.9,100.6779661016949,20.9C101.69491525423729,20.9,102.71186440677965,19.083333333333336,103.72881355932203,18C104.7457627118644,16.916666666666668,105.76271186440678,15.726666666666661,106.77966101694915,14.399999999999999C107.79661016949153,13.073333333333329,108.8135593220339,11.273333333333333,109.83050847457628,10.04C110.84745762711864,8.80666666666667,111.86440677966102,7.333333333333337,112.88135593220339,7.000000000000002C113.89830508474576,6.666666666666667,114.91525423728814,6.833333333333331,115.9322033898305,6.499999999999999C116.94915254237289,6.166666666666665,117.96610169491525,5,118.98305084745763,5C120,5,121.01694915254237,5.339999999999998,122.03389830508473,5.339999999999998C123.05084745762711,5.339999999999998,124.0677966101695,2.493333333333337,125.08474576271188,2.480000000000002C126.10169491525424,2.4666666666666672,127.11864406779662,2.46,128.135593220339,2.46C129.15254237288136,2.46,130.16949152542372,7.283333333333337,131.1864406779661,8.860000000000001C132.20338983050846,10.436666666666682,133.22033898305085,11.026666666666667,134.23728813559322,11.920000000000002C135.25423728813558,12.813333333333336,136.27118644067798,13.470000000000002,137.28813559322035,14.220000000000002C138.3050847457627,14.970000000000002,139.3220338983051,16.419999999999998,140.33898305084747,16.419999999999998C141.35593220338984,16.419999999999998,142.3728813559322,10.36,143.38983050847457,10.36C144.40677966101694,10.36,145.42372881355934,15.326666666666666,146.4406779661017,15.379999999999999C147.45762711864407,15.433333333333332,148.47457627118644,15.459999999999997,149.4915254237288,15.459999999999997C150.50847457627117,15.459999999999997,151.52542372881356,9.620000000000001,152.54237288135593,9.620000000000001C153.5593220338983,9.620000000000001,154.5762711864407,19.686666666666657,155.59322033898306,20.339999999999996C156.61016949152543,20.99333333333333,157.6271186440678,21.319999999999997,158.64406779661016,21.319999999999997C159.66101694915253,21.319999999999997,160.67796610169492,14.326666666666672,161.6949152542373,13.100000000000001C162.71186440677965,11.873333333333331,163.72881355932205,11.756666666666666,164.74576271186442,11.259999999999998C165.76271186440678,10.763333333333335,166.77966101694915,10.120000000000001,167.79661016949152,10.120000000000001C168.81355932203388,10.120000000000001,169.83050847457628,10.72,170.84745762711864,11.360000000000001C171.864406779661,12.000000000000002,172.8813559322034,12.226666666666667,173.89830508474577,13.959999999999999C174.91525423728814,15.693333333333332,175.93220338983053,22.740000000000002,176.9491525423729,22.740000000000002C177.96610169491527,22.740000000000002,178.98305084745763,22.22,180,21.7"></path><path class="axis-ceiling" stroke-width="1" stroke="black" fill="none" d="M175,0L180,0"></path><text class="axis-ceiling-label" font-family="sans-serif" text-anchor="end" font-size="10px" x="170" y="2.5">2000</text></g></svg>