<svg xmlns="http://www.w3.org/2000/svg" viewBox="0 0 180 60"><g transform="translate(0,20)"><path class="area" fill="rgba(0, 0, 0, 0.2)" d="M0,37.199999999999996C1.0169491525423728,36.67111111111111,2.0338983050847457,36.14222222222222,3.0508474576271185,35.68C4.067796610169491,35.217777777777776,5.084745762711864,34.80444444444445,6.101694915254237,34.42666666666667C7.11864406779661,34.04888888888889,8.135593220338983,33.83111111111111,9.152542372881356,33.413333333333334C10.169491525423728,32.995555555555555,11.186440677966102,31.92,12.203389830508474,31.92C13.220338983050846,31.92,14.23728813559322,32.24,15.254237288135592,32.24C16.271186440677965,32.24,17.28813559322034,30.68444444444444,18.305084745762713,30.4C19.322033898305087,30.115555555555556,20.338983050847457,30.253333333333337,21.35593220338983,29.973333333333336C22.372881355932204,29.693333333333335,23.389830508474574,29.00888888888889,24.406779661016948,28.72C25.423728813559322,28.431111111111107,26.440677966101696,28.439999999999998,27.45762711864407,28.24C28.47457627118644,28.04,29.491525423728813,27.791111111111107,30.508474576271183,27.519999999999996C31.525423728813557,27.248888888888885,32.54237288135593,27.008888888888887,33.559322033898304,26.613333333333333C34.57627118644068,26.21777777777778,35.59322033898305,25.560000000000002,36.610169491525426,25.14666666666667C37.6271186440678,24.733333333333334,38.644067796610166,24.346666666666668,39.66101694915254,24.133333333333333C40.67796610169491,23.919999999999998,41.69491525423729,23.933333333333334,42.71186440677966,23.813333333333333C43.728813559322035,23.69333333333333,44.7457627118644,23.68,45.762711864406775,23.41333333333333C46.77966101694915,23.14666666666666,47.79661016949152,21.502222222222215,48.813559322033896,20.986666666666665C49.83050847457627,20.471111111111114,50.847457627118644,20.586666666666673,51.86440677966102,20.21333333333334C52.88135593220339,19.840000000000003,53.898305084745765,19.16888888888889,54.91525423728814,18.746666666666666C55.93220338983051,18.324444444444445,56.94915254237288,18.146666666666665,57.96610169491525,17.68C58.983050847457626,17.213333333333335,59.99999999999999,16.34222222222222,61.01694915254237,15.946666666666665C62.03389830508474,15.551111111111108,63.05084745762712,15.653333333333336,64.0677966101695,15.306666666666668C65.08474576271186,14.960000000000003,66.10169491525424,13.866666666666667,67.11864406779661,13.866666666666667C68.13559322033899,13.866666666666667,69.15254237288136,14.079999999999998,70.16949152542374,14.079999999999998C71.1864406779661,14.079999999999998,72.20338983050848,12.026666666666666,73.22033898305085,11.813333333333333C74.23728813559322,11.6,75.2542372881356,11.70222222222222,76.27118644067797,11.493333333333332C77.28813559322033,11.284444444444444,78.30508474576271,10.56,79.32203389830508,10.56C80.33898305084746,10.56,81.35593220338983,10.853333333333332,82.37288135593221,10.906666666666665C83.38983050847457,10.959999999999997,84.40677966101696,10.933333333333332,85.42372881355932,10.986666666666665C86.4406779661017,11.039999999999997,87.45762711864407,11.973333333333333,88.47457627118645,11.973333333333333C89.49152542372882,11.973333333333333,90.50847457627118,11.786666666666665,91.52542372881355,11.786666666666665C92.54237288135593,11.786666666666665,93.55932203389831,13.226666666666667,94.57627118644069,13.226666666666667C95.59322033898306,13.226666666666667,96.61016949152543,12.991111111111111,97.62711864406779,12.906666666666666C98.64406779661016,12.822222222222221,99.66101694915254,12.719999999999999,100.6779661016949,12.719999999999999C101.69491525423729,12.719999999999999,102.71186440677965,12.986666666666666,103.72881355932203,12.986666666666666C104.7457627118644,12.986666666666666,105.76271186440678,12.693333333333335,106.77966101694915,12.693333333333335C107.79661016949153,12.693333333333335,108.8135593220339,12.862222222222224,109.83050847457628,12.933333333333334C110.84745762711864,13.004444444444443,111.86440677966102,13.066666666666665,112.88135593220339,13.119999999999997C113.89830508474576,13.17333333333333,114.91525423728814,13.164444444444444,115.9322033898305,13.253333333333334C116.94915254237289,13.342222222222226,117.96610169491525,14.573333333333329,118.98305084745763,15.2C120,15.826666666666663,121.01694915254237,16.50666666666667,122.03389830508473,17.013333333333335C123.05084745762711,17.520000000000007,124.0677966101695,17.888888888888886,125.08474576271188,18.24C126.10169491525424,18.591111111111108,127.11864406779662,18.693333333333328,128.135593220339,19.119999999999997C129.15254237288136,19.546666666666663,130.16949152542372,20.151111111111117,131.1864406779661,20.8C132.20338983050846,21.44888888888889,133.22033898305085,22.422222222222217,134.23728813559322,23.01333333333333C135.25423728813558,23.60444444444444,136.27118644067798,23.99111111111111,137.28813559322035,24.346666666666668C138.3050847457627,24.702222222222225,139.3220338983051,24.88888888888889,140.33898305084747,25.14666666666667C141.35593220338984,25.404444444444444,142.3728813559322,25.626666666666665,143.38983050847457,25.89333333333333C144.40677966101694,26.16,145.42372881355934,26.542222222222225,146.4406779661017,26.74666666666667C147.45762711864407,26.951111111111114,148.47457627118644,26.977777777777778,149.4915254237288,27.119999999999997C150.50847457627117,27.26222222222222,151.52542372881356,27.599999999999998,152.54237288135593,27.599999999999998C153.5593220338983,27.599999999999998,154.5762711864407,27.493333333333332,155.59322033898306,27.493333333333332C156.61016949152543,27.493333333333332,157.6271186440678,27.573333333333334,158.64406779661016,27.573333333333334C159.66101694915253,27.573333333333334,160.67796610169492,27.22666666666667,161.6949152542373,27.06666666666667C162.71186440677965,26.90666666666667,163.72881355932205,26.613333333333333,164.74576271186442,26.613333333333333C165.76271186440678,26.613333333333333,166.77966101694915,26.693333333333335,167.79661016949152,26.693333333333335C168.81355932203388,26.693333333333335,169.83050847457628,26.573333333333338,170.84745762711864,26.34666666666667C171.864406779661,26.120000000000005,172.8813559322034,25.595555555555556,173.89830508474577,25.333333333333332C174.91525423728814,25.071111111111108,175.93220338983053,24.773333333333333,176.9491525423729,24.773333333333333C177.96610169491527,24.773333333333333,178.98305084745763,25.653333333333332,180,26.53333333333333L180,40C178.98305084745763,40,177.96610169491527,40,176.9491525423729,40C175.93220338983053,40,174.91525423728814,40,173.89830508474577,40C172.8813559322034,40,171.864406779661,40,170.84745762711864,40C169.83050847457628,40,168.81355932203388,40,167.79661016949152,40C166.77966101694915,40,165.76271186440678,40,164.74576271186442,40C163.72881355932205,40,162.71186440677965,40,161.6949152542373,40C160.67796610169492,40,159.66101694915253,40,158.64406779661016,40C157.6271186440678,40,156.61016949152543,40,155.59322033898306,40C154.5762711864407,40,153.5593220338983,40,152.54237288135593,40C151.52542372881356,40,150.50847457627117,40,149.4915254237288,40C148.47457627118644,40,147.45762711864407,40,146.4406779661017,40C145.42372881355934,40,144.40677966101694,40,143.38983050847457,40C142.3728813559322,40,141.35593220338984,40,140.33898305084747,40C139.3220338983051,40,138.3050847457627,40,137.28813559322035,40C136.27118644067798,40,135.25423728813558,40,134.23728813559322,40C133.22033898305085,40,132.20338983050846,40,131.1864406779661,40C130.16949152542372,40,129.15254237288136,40,128.135593220339,40C127.11864406779662,40,126.10169491525424,40,125.08474576271188,40C124.0677966101695,40,123.05084745762711,40,122.03389830508473,40C121.01694915254237,40,120,40,118.98305084745763,40C117.96610169491525,40,116.94915254237289,40,115.9322033898305,40C114.91525423728814,40,113.89830508474576,40,112.88135593220339,40C111.86440677966102,40,110.84745762711864,40,109.83050847457628,40C108.8135593220339,40,107.79661016949153,40,106.77966101694915,40C105.76271186440678,40,104.7457627118644,40,103.72881355932203,40C102.71186440677965,40,101.69491525423729,40,100.6779661016949,40C99.66101694915254,40,98.64406779661016,40,97.62711864406779,40C96.61016949152543,40,95.59322033898306,40,94.57627118644069,40C93.55932203389831,40,92.54237288135593,40,91.52542372881355,40C90.50847457627118,40,89.49152542372882,40,88.47457627118645,40C87.45762711864407,40,86.4406779661017,40,85.42372881355932,40C84.40677966101696,40,83.38983050847457,40,82.37288135593221,40C81.35593220338983,40,80.33898305084746,40,79.32203389830508,40C78.30508474576271,40,77.28813559322033,40,76.27118644067797,40C75.2542372881356,40,74.23728813559322,40,73.22033898305085,40C72.20338983050848,40,71.1864406779661,40,70.16949152542374,40C69.15254237288136,40,68.13559322033899,40,67.11864406779661,40C66.10169491525424,40,65.08474576271186,40,64.0677966101695,40C63.05084745762712,40,62.03389830508474,40,61.01694915254237,40C59.99999999999999,40,58.983050847457626,40,57.96610169491525,40C56.94915254237288,40,55.93220338983051,40,54.91525423728814,40C53.898305084745765,40,52.88135593220339,40,51.86440677966102,40C50.847457627118644,40,49.83050847457627,40,48.813559322033896,40C47.79661016949152,40,46.77966101694915,40,45.762711864406775,40C44.7457627118644,40,43.728813559322035,40,42.71186440677966,40C41.69491525423729,40,40.67796610169491,40,39.66101694915254,40C38.644067796610166,40,37.6271186440678,40,36.610169491525426,40C35.59322033898305,40,34.57627118644068,40,33.559322033898304,40C32.54237288135593,40,31.525423728813557,40,30.508474576271183,40C29.491525423728813,40,28.47457627118644,40,27.45762711864407,40C26.440677966101696,40,25.423728813559322,40,24.406779661016948,40C23.389830508474574,40,22.372881355932204,40,21.35593220338983,40C20.338983050847457,40,19.322033898305087,40,18.305084745762713,40C17.28813559322034,40,16.271186440677965,40,15.254237288135592,40C14.23728813559322,40,13.220338983050846,40,12.203389830508474,40C11.186440677966102,40,10.169491525423728,40,9.152542372881356,40C8.135593220338983,40,7.11864406779661,40,6.101694915254237,40C5.084745762711864,40,4.067796610169491,40,3.0508474576271185,40C2.0338983050847457,40,1.0169491525423728,40,0,40Z"></path><path class="line" stroke="black" fill="none" d="M0,37.199999999999996C1.0169491525423728,36.67111111111111,2.0338983050847457,36.14222222222222,3.0508474576271185,35.68C4.067796610169491,35.217777777777776,5.084745762711864,34.80444444444445,6.101694915254237,34.42666666666667C7.11864406779661,34.04888888888889,8.135593220338983,33.83111111111111,9.152542372881356,33.413333333333334C10.169491525423728,32.995555555555555,11.186440677966102,31.92,12.203389830508474,31.92C13.220338983050846,31.92,14.23728813559322,32.24,15.254237288135592,32.24C16.271186440677965,32.24,17.28813559322034,30.68444444444444,18.305084745762713,30.4C19.322033898305087,30.115555555555556,20.338983050847457,30.253333333333337,21.35593220338983,29.973333333333336C22.372881355932204,29.693333333333335,23.389830508474574,29.00888888888889,24.406779661016948,28.72C25.423728813559322,28.431111111111107,26.440677966101696,28.439999999999998,27.45762711864407,28.24C28.47457627118644,28.04,29.491525423728813,27.791111111111107,30.508474576271183,27.519999999999996C31.525423728813557,27.248888888888885,32.54237288135593,27.008888888888887,33.559322033898304,26.613333333333333C34.57627118644068,26.21777777777778,35.59322033898305,25.560000000000002,36.610169491525426,25.14666666666667C37.6271186440678,24.733333333333334,38.644067796610166,24.346666666666668,39.66101694915254,24.133333333333333C40.67796610169491,23.919999999999998,41.69491525423729,23.933333333333334,42.71186440677966,23.813333333333333C43.728813559322035,23.69333333333333,44.7457627118644,23.68,45.762711864406775,23.41333333333333C46.77966101694915,23.14666666666666,47.79661016949152,21.502222222222215,48.813559322033896,20.986666666666665C49.83050847457627,20.471111111111114,50.847457627118644,20.586666666666673,51.86440677966102,20.21333333333334C52.88135593220339,19.840000000000003,53.898305084745765,19.16888888888889,54.91525423728814,18.746666666666666C55.93220338983051,18.324444444444445,56.94915254237288,18.146666666666665,57.96610169491525,17.68C58.983050847457626,17.213333333333335,59.99999999999999,16.34222222222222,61.01694915254237,15.946666666666665C62.03389830508474,15.551111111111108,63.05084745762712,15.653333333333336,64.0677966101695,15.306666666666668C65.08474576271186,14.960000000000003,66.10169491525424,13.866666666666667,67.11864406779661,13.866666666666667C68.13559322033899,13.866666666666667,69.15254237288136,14.079999999999998,70.16949152542374,14.079999999999998C71.1864406779661,14.079999999999998,72.20338983050848,12.026666666666666,73.22033898305085,11.813333333333333C74.23728813559322,11.6,75.2542372881356,11.70222222222222,76.27118644067797,11.493333333333332C77.28813559322033,11.284444444444444,78.30508474576271,10.56,79.32203389830508,10.56C80.33898305084746,10.56,81.35593220338983,10.853333333333332,82.37288135593221,10.906666666666665C83.38983050847457,10.959999999999997,84.40677966101696,10.933333333333332,85.42372881355932,10.986666666666665C86.4406779661017,11.039999999999997,87.45762711864407,11.973333333333333,88.47457627118645,11.973333333333333C89.49152542372882,11.973333333333333,90.50847457627118,11.786666666666665,91.52542372881355,11.786666666666665C92.54237288135593,11.786666666666665,93.55932203389831,13.226666666666667,94.57627118644069,13.226666666666667C95.59322033898306,13.226666666666667,96.61016949152543,12.991111111111111,97.62711864406779,12.906666666666666C98.64406779661016,12.822222222222221,99.66101694915254,12.719999999999999,100.6779661016949,12.719999999999999C101.69491525423729,12.719999999999999,102.71186440677965,12.986666666666666,103.72881355932203,12.986666666666666C104.7457627118644,12.986666666666666,105.76271186440678,12.693333333333335,106.77966101694915,12.693333333333335C107.79661016949153,12.693333333333335,108.8135593220339,12.862222222222224,109.83050847457628,12.933333333333334C110.84745762711864,13.004444444444443,111.86440677966102,13.066666666666665,112.88135593220339,13.119999999999997C113.89830508474576,13.17333333333333,114.91525423728814,13.164444444444444,115.9322033898305,13.253333333333334C116.94915254237289,13.342222222222226,117.96610169491525,14.573333333333329,118.98305084745763,15.2C120,15.826666666666663,121.01694915254237,16.50666666666667,122.03389830508473,17.013333333333335C123.05084745762711,17.520000000000007,124.0677966101695,17.888888888888886,125.08474576271188,18.24C126.10169491525424,18.591111111111108,127.11864406779662,18.693333333333328,128.135593220339,19.119999999999997C129.15254237288136,19.546666666666663,130.16949152542372,20.151111111111117,131.1864406779661,20.8C132.20338983050846,21.44888888888889,133.22033898305085,22.422222222222217,134.23728813559322,23.01333333333333C135.25423728813558,23.60444444444444,136.27118644067798,23.99111111111111,137.28813559322035,24.346666666666668C138.3050847457627,24.702222222222225,139.3220338983051,24.88888888888889,140.33898305084747,25.14666666666667C141.35593220338984,25.404444444444444,142.3728813559322,25.626666666666665,143.38983050847457,25.89333333333333C144.40677966101694,26.16,145.42372881355934,26.542222222222225,146.4406779661017,26.74666666666667C147.45762711864407,26.951111111111114,148.47457627118644,26.977777777777778,149.4915254237288,27.119999999999997C150.50847457627117,27.26222222222222,151.52542372881356,27.599999999999998,152.54237288135593,27.599999999999998C153.5593220338983,27.599999999999998,154.5762711864407,27.493333333333332,155.59322033898306,27.493333333333332C156.61016949152543,27.493333333333332,157.6271186440678,27.573333333333334,158.64406779661016,27.573333333333334C159.66101694915253,27.573333333333334,160.67796610169492,27.22666666666667,161.6949152542373,27.06666666666667C162.71186440677965,26.90666666666667,163.72881355932205,26.613333333333333,164.74576271186442,26.613333333333333C165.76271186440678,26.613333333333333,166.77966101694915,26.693333333333335,167.79661016949152,26.693333333333335C168.81355932203388,26.693333333333335,169.83050847457628,26.573333333333338,170.84745762711864,26.34666666666667C171.864406779661,26.120000000000005,172.8813559322034,25.595555555555556,173.89830508474577,25.333333333333332C174.91525423728814,25.071111111111108,175.93220338983053,24.773333333333333,176.9491525423729,24.773333333333333C177.96610169491527,24.773333333333333,178.98305084745763,25.653333333333332,180,26.53333333333333"></path><path class="axis-ceiling" stroke-width="1" stroke="black" fill="none" d="M175,0L180,0"></path><text class="axis-ceiling-label" font-family="sans-serif" text-anchor="end" font-size="10px" x="170" y="2.5">1500</text></g></svg>