<svg xmlns="http://www.w3.org/2000/svg" viewBox="0 0 180 60"><g transform="translate(0,20)"><path class="area" fill="rgba(0, 0, 0, 0.2)" d="M0,17.706666666666667C1.0344827586206897,14.266666666666667,2.068965517241379,10.826666666666668,3.103448275862069,10.826666666666668C4.137931034482759,10.826666666666668,5.172413793103448,22.560000000000002,6.206896551724138,22.560000000000002C7.241379310344827,22.560000000000002,8.275862068965516,12.799999999999997,9.310344827586206,12.799999999999997C10.344827586206897,12.799999999999997,11.379310344827585,16.133333333333333,12.413793103448276,16.133333333333333C13.448275862068966,16.133333333333333,14.482758620689655,7.466666666666666,15.517241379310345,7.466666666666666C16.551724137931036,7.466666666666666,17.586206896551722,19.546666666666667,18.620689655172413,19.546666666666667C19.655172413793103,19.546666666666667,20.689655172413794,7.626666666666666,21.724137931034484,7.626666666666666C22.758620689655174,7.626666666666666,23.79310344827586,12.293333333333333,24.82758620689655,12.293333333333333C25.862068965517242,12.293333333333333,26.896551724137932,6.800000000000002,27.931034482758623,6.800000000000002C28.965517241379313,6.800000000000002,30,10.58666666666667,31.03448275862069,10.58666666666667C32.06896551724138,10.58666666666667,33.103448275862064,9.493333333333332,34.137931034482754,9.493333333333332C35.172413793103445,9.493333333333332,36.206896551724135,9.644444444444444,37.241379310344826,9.946666666666669C38.275862068965516,10.248888888888894,39.310344827586206,20.16,40.3448275862069,20.16C41.37931034482759,20.16,42.41379310344828,16.026666666666667,43.44827586206897,14.48C44.48275862068966,12.933333333333334,45.51724137931035,10.88,46.55172413793104,10.88C47.58620689655173,10.88,48.62068965517241,16.96,49.6551724137931,16.96C50.689655172413794,16.96,51.72413793103448,8.266666666666666,52.75862068965517,8.266666666666666C53.79310344827586,8.266666666666666,54.827586206896555,8.293333333333333,55.862068965517246,8.346666666666668C56.896551724137936,8.400000000000002,57.93103448275862,10.142222222222227,58.96551724137931,11.760000000000002C60,13.37777777777778,61.03448275862069,18.053333333333335,62.06896551724138,18.053333333333335C63.10344827586207,18.053333333333335,64.13793103448276,17.106666666666666,65.17241379310344,16.133333333333333C66.20689655172413,15.16,67.24137931034483,12.213333333333335,68.27586206896551,12.213333333333335C69.3103448275862,12.213333333333335,70.34482758620689,16.31555555555555,71.37931034482759,17.919999999999998C72.41379310344827,19.524444444444438,73.44827586206897,21.840000000000003,74.48275862068965,21.840000000000003C75.51724137931033,21.840000000000003,76.55172413793103,21.288888888888888,77.58620689655172,21.04C78.62068965517241,20.791111111111107,79.6551724137931,20.346666666666664,80.6896551724138,20.346666666666664C81.72413793103448,20.346666666666664,82.75862068965517,22.902222222222225,83.79310344827586,24.186666666666667C84.82758620689656,25.471111111111117,85.86206896551724,28.053333333333335,86.89655172413794,28.053333333333335C87.93103448275862,28.053333333333335,88.96551724137932,27.759999999999998,90,27.626666666666665C91.0344827586207,27.493333333333332,92.06896551724138,27.253333333333334,93.10344827586208,27.253333333333334C94.13793103448276,27.253333333333334,95.17241379310344,27.413333333333334,96.20689655172413,27.413333333333334C97.24137931034483,27.413333333333334,98.27586206896551,26.240000000000002,99.3103448275862,26.240000000000002C100.3448275862069,26.240000000000002,101.37931034482759,26.284444444444446,102.41379310344828,26.373333333333335C103.44827586206897,26.462222222222223,104.48275862068965,26.506666666666668,105.51724137931033,26.773333333333333C106.55172413793103,27.040000000000003,107.58620689655172,31.520000000000003,108.62068965517241,31.520000000000003C109.65517241379311,31.520000000000003,110.6896551724138,26.879999999999995,111.72413793103449,26.879999999999995C112.75862068965517,26.879999999999995,113.79310344827587,27.706666666666667,114.82758620689656,27.706666666666667C115.86206896551724,27.706666666666667,116.89655172413794,24.542222222222218,117.93103448275862,23.919999999999998C118.96551724137932,23.297777777777775,120,22.986666666666665,121.0344827586207,22.986666666666665C122.06896551724138,22.986666666666665,123.10344827586208,26.90666666666667,124.13793103448276,26.90666666666667C125.17241379310344,26.90666666666667,126.20689655172414,24.648888888888894,127.24137931034483,24.506666666666668C128.27586206896552,24.36444444444444,129.3103448275862,24.435555555555556,130.3448275862069,24.29333333333333C131.3793103448276,24.151111111111103,132.41379310344828,23.09333333333333,133.44827586206898,23.09333333333333C134.48275862068965,23.09333333333333,135.51724137931035,23.33333333333333,136.55172413793102,23.33333333333333C137.58620689655172,23.33333333333333,138.6206896551724,20.560000000000002,139.6551724137931,20.560000000000002C140.6896551724138,20.560000000000002,141.72413793103448,21.840000000000003,142.75862068965517,21.840000000000003C143.79310344827587,21.840000000000003,144.82758620689654,17.706666666666667,145.86206896551724,17.706666666666667C146.89655172413794,17.706666666666667,147.9310344827586,17.76888888888889,148.9655172413793,17.893333333333334C150,18.01777777777778,151.0344827586207,21.840000000000003,152.0689655172414,21.840000000000003C153.10344827586206,21.840000000000003,154.13793103448276,11.946666666666665,155.17241379310343,11.946666666666665C156.20689655172413,11.946666666666665,157.24137931034483,16.453333333333333,158.27586206896552,16.453333333333333C159.31034482758622,16.453333333333333,160.3448275862069,14.555555555555555,161.3793103448276,13.626666666666667C162.41379310344828,12.697777777777778,163.44827586206895,10.88,164.48275862068965,10.88C165.51724137931035,10.88,166.55172413793102,11.613333333333342,167.58620689655172,12.613333333333333C168.6206896551724,13.613333333333335,169.6551724137931,16.880000000000003,170.6896551724138,16.880000000000003C171.7241379310345,16.880000000000003,172.75862068965517,14.488888888888889,173.79310344827587,14.346666666666668C174.82758620689657,14.204444444444446,175.86206896551724,14.133333333333336,176.89655172413794,14.133333333333336C177.93103448275863,14.133333333333336,178.9655172413793,14.333333333333334,180,14.533333333333331L180,40C178.9655172413793,40,177.93103448275863,40,176.89655172413794,40C175.86206896551724,40,174.82758620689657,40,173.79310344827587,40C172.75862068965517,40,171.7241379310345,40,170.6896551724138,40C169.6551724137931,40,168.6206896551724,40,167.58620689655172,40C166.55172413793102,40,165.51724137931035,40,164.48275862068965,40C163.44827586206895,40,162.41379310344828,40,161.3793103448276,40C160.3448275862069,40,159.31034482758622,40,158.27586206896552,40C157.24137931034483,40,156.20689655172413,40,155.17241379310343,40C154.13793103448276,40,153.10344827586206,40,152.0689655172414,40C151.0344827586207,40,150,40,148.9655172413793,40C147.9310344827586,40,146.89655172413794,40,145.86206896551724,40C144.82758620689654,40,143.79310344827587,40,142.75862068965517,40C141.72413793103448,40,140.6896551724138,40,139.6551724137931,40C138.6206896551724,40,137.58620689655172,40,136.55172413793102,40C135.51724137931035,40,134.48275862068965,40,133.44827586206898,40C132.41379310344828,40,131.3793103448276,40,130.3448275862069,40C129.3103448275862,40,128.27586206896552,40,127.24137931034483,40C126.20689655172414,40,125.17241379310344,40,124.13793103448276,40C123.10344827586208,40,122.06896551724138,40,121.0344827586207,40C120,40,118.96551724137932,40,117.93103448275862,40C116.89655172413794,40,115.86206896551724,40,114.82758620689656,40C113.79310344827587,40,112.75862068965517,40,111.72413793103449,40C110.6896551724138,40,109.65517241379311,40,108.62068965517241,40C107.58620689655172,40,106.55172413793103,40,105.51724137931033,40C104.48275862068965,40,103.44827586206897,40,102.41379310344828,40C101.37931034482759,40,100.3448275862069,40,99.3103448275862,40C98.27586206896551,40,97.24137931034483,40,96.20689655172413,40C95.17241379310344,40,94.13793103448276,40,93.10344827586208,40C92.06896551724138,40,91.0344827586207,40,90,40C88.96551724137932,40,87.93103448275862,40,86.89655172413794,40C85.86206896551724,40,84.82758620689656,40,83.79310344827586,40C82.75862068965517,40,81.72413793103448,40,80.6896551724138,40C79.6551724137931,40,78.62068965517241,40,77.58620689655172,40C76.55172413793103,40,75.51724137931033,40,74.48275862068965,40C73.44827586206897,40,72.41379310344827,40,71.37931034482759,40C70.34482758620689,40,69.3103448275862,40,68.27586206896551,40C67.24137931034483,40,66.20689655172413,40,65.17241379310344,40C64.13793103448276,40,63.10344827586207,40,62.06896551724138,40C61.03448275862069,40,60,40,58.96551724137931,40C57.93103448275862,40,56.896551724137936,40,55.862068965517246,40C54.827586206896555,40,53.79310344827586,40,52.75862068965517,40C51.72413793103448,40,50.689655172413794,40,49.6551724137931,40C48.62068965517241,40,47.58620689655173,40,46.55172413793104,40C45.51724137931035,40,44.48275862068966,40,43.44827586206897,40C42.41379310344828,40,41.37931034482759,40,40.3448275862069,40C39.310344827586206,40,38.275862068965516,40,37.241379310344826,40C36.206896551724135,40,35.172413793103445,40,34.137931034482754,40C33.103448275862064,40,32.06896551724138,40,31.03448275862069,40C30,40,28.965517241379313,40,27.931034482758623,40C26.896551724137932,40,25.862068965517242,40,24.82758620689655,40C23.79310344827586,40,22.758620689655174,40,21.724137931034484,40C20.689655172413794,40,19.655172413793103,40,18.620689655172413,40C17.586206896551722,40,16.551724137931036,40,15.517241379310345,40C14.482758620689655,40,13.448275862068966,40,12.413793103448276,40C11.379310344827585,40,10.344827586206897,40,9.310344827586206,40C8.275862068965516,40,7.241379310344827,40,6.206896551724138,40C5.172413793103448,40,4.137931034482759,40,3.103448275862069,40C2.068965517241379,40,1.0344827586206897,40,0,40Z"></path><path class="line" stroke="black" fill="none" d="M0,17.706666666666667C1.0344827586206897,14.266666666666667,2.068965517241379,10.826666666666668,3.103448275862069,10.826666666666668C4.137931034482759,10.826666666666668,5.172413793103448,22.560000000000002,6.206896551724138,22.560000000000002C7.241379310344827,22.560000000000002,8.275862068965516,12.799999999999997,9.310344827586206,12.799999999999997C10.344827586206897,12.799999999999997,11.379310344827585,16.133333333333333,12.413793103448276,16.133333333333333C13.448275862068966,16.133333333333333,14.482758620689655,7.466666666666666,15.517241379310345,7.466666666666666C16.551724137931036,7.466666666666666,17.586206896551722,19.546666666666667,18.620689655172413,19.546666666666667C19.655172413793103,19.546666666666667,20.689655172413794,7.626666666666666,21.724137931034484,7.626666666666666C22.758620689655174,7.626666666666666,23.79310344827586,12.293333333333333,24.82758620689655,12.293333333333333C25.862068965517242,12.293333333333333,26.896551724137932,6.800000000000002,27.931034482758623,6.800000000000002C28.965517241379313,6.800000000000002,30,10.58666666666667,31.03448275862069,10.58666666666667C32.06896551724138,10.58666666666667,33.103448275862064,9.493333333333332,34.137931034482754,9.493333333333332C35.172413793103445,9.493333333333332,36.206896551724135,9.644444444444444,37.241379310344826,9.946666666666669C38.275862068965516,10.248888888888894,39.310344827586206,20.16,40.3448275862069,20.16C41.37931034482759,20.16,42.41379310344828,16.026666666666667,43.44827586206897,14.48C44.48275862068966,12.933333333333334,45.51724137931035,10.88,46.55172413793104,10.88C47.58620689655173,10.88,48.62068965517241,16.96,49.6551724137931,16.96C50.689655172413794,16.96,51.72413793103448,8.266666666666666,52.75862068965517,8.266666666666666C53.79310344827586,8.266666666666666,54.827586206896555,8.293333333333333,55.862068965517246,8.346666666666668C56.896551724137936,8.400000000000002,57.93103448275862,10.142222222222227,58.96551724137931,11.760000000000002C60,13.37777777777778,61.03448275862069,18.053333333333335,62.06896551724138,18.053333333333335C63.10344827586207,18.053333333333335,64.13793103448276,17.106666666666666,65.17241379310344,16.133333333333333C66.20689655172413,15.16,67.24137931034483,12.213333333333335,68.27586206896551,12.213333333333335C69.3103448275862,12.213333333333335,70.34482758620689,16.31555555555555,71.37931034482759,17.919999999999998C72.41379310344827,19.524444444444438,73.44827586206897,21.840000000000003,74.48275862068965,21.840000000000003C75.51724137931033,21.840000000000003,76.55172413793103,21.288888888888888,77.58620689655172,21.04C78.62068965517241,20.791111111111107,79.6551724137931,20.346666666666664,80.6896551724138,20.346666666666664C81.72413793103448,20.346666666666664,82.75862068965517,22.902222222222225,83.79310344827586,24.186666666666667C84.82758620689656,25.471111111111117,85.86206896551724,28.053333333333335,86.89655172413794,28.053333333333335C87.93103448275862,28.053333333333335,88.96551724137932,27.759999999999998,90,27.626666666666665C91.0344827586207,27.493333333333332,92.06896551724138,27.253333333333334,93.10344827586208,27.253333333333334C94.13793103448276,27.253333333333334,95.17241379310344,27.413333333333334,96.20689655172413,27.413333333333334C97.24137931034483,27.413333333333334,98.27586206896551,26.240000000000002,99.3103448275862,26.240000000000002C100.3448275862069,26.240000000000002,101.37931034482759,26.284444444444446,102.41379310344828,26.373333333333335C103.44827586206897,26.462222222222223,104.48275862068965,26.506666666666668,105.51724137931033,26.773333333333333C106.55172413793103,27.040000000000003,107.58620689655172,31.520000000000003,108.62068965517241,31.520000000000003C109.65517241379311,31.520000000000003,110.6896551724138,26.879999999999995,111.72413793103449,26.879999999999995C112.75862068965517,26.879999999999995,113.79310344827587,27.706666666666667,114.82758620689656,27.706666666666667C115.86206896551724,27.706666666666667,116.89655172413794,24.542222222222218,117.93103448275862,23.919999999999998C118.96551724137932,23.297777777777775,120,22.986666666666665,121.0344827586207,22.986666666666665C122.06896551724138,22.986666666666665,123.10344827586208,26.90666666666667,124.13793103448276,26.90666666666667C125.17241379310344,26.90666666666667,126.20689655172414,24.648888888888894,127.24137931034483,24.506666666666668C128.27586206896552,24.36444444444444,129.3103448275862,24.435555555555556,130.3448275862069,24.29333333333333C131.3793103448276,24.151111111111103,132.41379310344828,23.09333333333333,133.44827586206898,23.09333333333333C134.48275862068965,23.09333333333333,135.51724137931035,23.33333333333333,136.55172413793102,23.33333333333333C137.58620689655172,23.33333333333333,138.6206896551724,20.560000000000002,139.6551724137931,20.560000000000002C140.6896551724138,20.560000000000002,141.72413793103448,21.840000000000003,142.75862068965517,21.840000000000003C143.79310344827587,21.840000000000003,144.82758620689654,17.706666666666667,145.86206896551724,17.706666666666667C146.89655172413794,17.706666666666667,147.9310344827586,17.76888888888889,148.9655172413793,17.893333333333334C150,18.01777777777778,151.0344827586207,21.840000000000003,152.0689655172414,21.840000000000003C153.10344827586206,21.840000000000003,154.13793103448276,11.946666666666665,155.17241379310343,11.946666666666665C156.20689655172413,11.946666666666665,157.24137931034483,16.453333333333333,158.27586206896552,16.453333333333333C159.31034482758622,16.453333333333333,160.3448275862069,14.555555555555555,161.3793103448276,13.626666666666667C162.41379310344828,12.697777777777778,163.44827586206895,10.88,164.48275862068965,10.88C165.51724137931035,10.88,166.55172413793102,11.613333333333342,167.58620689655172,12.613333333333333C168.6206896551724,13.613333333333335,169.6551724137931,16.880000000000003,170.6896551724138,16.880000000000003C171.7241379310345,16.880000000000003,172.75862068965517,14.488888888888889,173.79310344827587,14.346666666666668C174.82758620689657,14.204444444444446,175.86206896551724,14.133333333333336,176.89655172413794,14.133333333333336C177.93103448275863,14.133333333333336,178.9655172413793,14.333333333333334,180,14.533333333333331"></path><path class="axis-ceiling" stroke-width="1" stroke="black" fill="none" d="M175,0L180,0"></path><text class="axis-ceiling-label" font-family="sans-serif" text-anchor="end" font-size="10px" x="170" y="2.5">1500</text></g></svg>