<svg xmlns="http://www.w3.org/2000/svg" viewBox="0 0 180 60"><g transform="translate(0,20)"><path class="area" fill="rgba(0, 0, 0, 0.2)" d="M0,15.099999999999998C1.0169491525423728,16.52,2.0338983050847457,17.94,3.0508474576271185,17.94C4.067796610169491,17.94,5.084745762711864,17.12,6.101694915254237,17.12C7.11864406779661,17.12,8.135593220338983,17.233333333333334,9.152542372881356,17.46C10.169491525423728,17.686666666666667,11.186440677966102,25.12,12.203389830508474,25.12C13.220338983050846,25.12,14.23728813559322,22.020000000000003,15.254237288135592,20.860000000000003C16.271186440677965,19.700000000000003,17.28813559322034,18.159999999999997,18.305084745762713,18.159999999999997C19.322033898305087,18.159999999999997,20.338983050847457,22.720000000000002,21.35593220338983,22.720000000000002C22.372881355932204,22.720000000000002,23.389830508474574,16.200000000000003,24.406779661016948,16.200000000000003C25.423728813559322,16.200000000000003,26.440677966101696,16.220000000000002,27.45762711864407,16.259999999999998C28.47457627118644,16.299999999999994,29.491525423728813,17.60666666666667,30.508474576271183,18.82C31.525423728813557,20.033333333333335,32.54237288135593,23.54,33.559322033898304,23.54C34.57627118644068,23.54,35.59322033898305,22.830000000000002,36.610169491525426,22.1C37.6271186440678,21.37,38.644067796610166,19.16,39.66101694915254,19.16C40.67796610169491,19.16,41.69491525423729,22.23666666666667,42.71186440677966,23.440000000000005C43.728813559322035,24.643333333333338,44.7457627118644,26.38,45.762711864406775,26.38C46.77966101694915,26.38,47.79661016949152,25.96666666666667,48.813559322033896,25.78C49.83050847457627,25.593333333333334,50.847457627118644,25.259999999999998,51.86440677966102,25.259999999999998C52.88135593220339,25.259999999999998,53.898305084745765,27.176666666666666,54.91525423728814,28.14C55.93220338983051,29.10333333333333,56.94915254237288,31.04,57.96610169491525,31.04C58.983050847457626,31.04,59.99999999999999,30.819999999999997,61.01694915254237,30.72C62.03389830508474,30.619999999999997,63.05084745762712,30.44,64.0677966101695,30.44C65.08474576271186,30.44,66.10169491525424,30.560000000000002,67.11864406779661,30.560000000000002C68.13559322033899,30.560000000000002,69.15254237288136,29.68,70.16949152542374,29.68C71.1864406779661,29.68,72.20338983050848,29.71333333333333,73.22033898305085,29.779999999999998C74.23728813559322,29.846666666666664,75.2542372881356,29.88,76.27118644067797,30.08C77.28813559322033,30.279999999999998,78.30508474576271,33.64,79.32203389830508,33.64C80.33898305084746,33.64,81.35593220338983,30.16,82.37288135593221,30.16C83.38983050847457,30.16,84.40677966101696,30.779999999999998,85.42372881355932,30.779999999999998C86.4406779661017,30.779999999999998,87.45762711864407,28.406666666666673,88.47457627118645,27.94C89.49152542372882,27.473333333333336,90.50847457627118,27.240000000000002,91.52542372881355,27.240000000000002C92.54237288135593,27.240000000000002,93.55932203389831,30.18,94.57627118644069,30.18C95.59322033898306,30.18,96.61016949152543,28.48666666666667,97.62711864406779,28.380000000000003C98.64406779661016,28.273333333333333,99.66101694915254,28.326666666666668,100.6779661016949,28.22C101.69491525423729,28.11333333333333,102.71186440677965,27.32,103.72881355932203,27.32C104.7457627118644,27.32,105.76271186440678,27.5,106.77966101694915,27.5C107.79661016949153,27.5,108.8135593220339,25.419999999999998,109.83050847457628,25.419999999999998C110.84745762711864,25.419999999999998,111.86440677966102,26.38,112.88135593220339,26.38C113.89830508474576,26.38,114.91525423728814,23.28,115.9322033898305,23.28C116.94915254237289,23.28,117.96610169491525,23.326666666666668,118.98305084745763,23.42C120,23.513333333333335,121.01694915254237,26.38,122.03389830508473,26.38C123.05084745762711,26.38,124.0677966101695,18.96,125.08474576271188,18.96C126.10169491525424,18.96,127.11864406779662,22.34,128.135593220339,22.34C129.15254237288136,22.34,130.16949152542372,20.916666666666668,131.1864406779661,20.220000000000002C132.20338983050846,19.523333333333333,133.22033898305085,18.159999999999997,134.23728813559322,18.159999999999997C135.25423728813558,18.159999999999997,136.27118644067798,18.71,137.28813559322035,19.46C138.3050847457627,20.21,139.3220338983051,22.66,140.33898305084747,22.66C141.35593220338984,22.66,142.3728813559322,20.866666666666667,143.38983050847457,20.76C144.40677966101694,20.653333333333336,145.42372881355934,20.6,146.4406779661017,20.6C147.45762711864407,20.6,148.47457627118644,20.9,149.4915254237288,20.9C150.50847457627117,20.9,151.52542372881356,19.083333333333332,152.54237288135593,18C153.5593220338983,16.916666666666668,154.5762711864407,15.726666666666674,155.59322033898306,14.399999999999999C156.61016949152543,13.073333333333338,157.6271186440678,11.273333333333328,158.64406779661016,10.04C159.66101694915253,8.806666666666658,160.67796610169492,7.333333333333337,161.6949152542373,7.000000000000002C162.71186440677965,6.666666666666667,163.72881355932205,6.833333333333334,164.74576271186442,6.499999999999999C165.76271186440678,6.166666666666667,166.77966101694915,5,167.79661016949152,5C168.81355932203388,5,169.83050847457628,5.339999999999998,170.84745762711864,5.339999999999998C171.864406779661,5.339999999999998,172.8813559322034,2.493333333333337,173.89830508474577,2.480000000000002C174.91525423728814,2.4666666666666672,175.93220338983053,2.46,176.9491525423729,2.46C177.96610169491527,2.46,178.98305084745763,5.66,180,8.860000000000001L180,40C178.98305084745763,40,177.96610169491527,40,176.9491525423729,40C175.93220338983053,40,174.91525423728814,40,173.89830508474577,40C172.8813559322034,40,171.864406779661,40,170.84745762711864,40C169.83050847457628,40,168.81355932203388,40,167.79661016949152,40C166.77966101694915,40,165.76271186440678,40,164.74576271186442,40C163.72881355932205,40,162.71186440677965,40,161.6949152542373,40C160.67796610169492,40,159.66101694915253,40,158.64406779661016,40C157.6271186440678,40,156.61016949152543,40,155.59322033898306,40C154.5762711864407,40,153.5593220338983,40,152.54237288135593,40C151.52542372881356,40,150.50847457627117,40,149.4915254237288,40C148.47457627118644,40,147.45762711864407,40,146.4406779661017,40C145.42372881355934,40,144.40677966101694,40,143.38983050847457,40C142.3728813559322,40,141.35593220338984,40,140.33898305084747,40C139.3220338983051,40,138.3050847457627,40,137.28813559322035,40C136.27118644067798,40,135.25423728813558,40,134.23728813559322,40C133.22033898305085,40,132.20338983050846,40,131.1864406779661,40C130.16949152542372,40,129.15254237288136,40,128.135593220339,40C127.11864406779662,40,126.10169491525424,40,125.08474576271188,40C124.0677966101695,40,123.05084745762711,40,122.03389830508473,40C121.01694915254237,40,120,40,118.98305084745763,40C117.96610169491525,40,116.94915254237289,40,115.9322033898305,40C114.91525423728814,40,113.89830508474576,40,112.88135593220339,40C111.86440677966102,40,110.84745762711864,40,109.83050847457628,40C108.8135593220339,40,107.79661016949153,40,106.77966101694915,40C105.76271186440678,40,104.7457627118644,40,103.72881355932203,40C102.71186440677965,40,101.69491525423729,40,100.6779661016949,40C99.66101694915254,40,98.64406779661016,40,97.62711864406779,40C96.61016949152543,40,95.59322033898306,40,94.57627118644069,40C93.55932203389831,40,92.54237288135593,40,91.52542372881355,40C90.50847457627118,40,89.49152542372882,40,88.47457627118645,40C87.45762711864407,40,86.4406779661017,40,85.42372881355932,40C84.40677966101696,40,83.38983050847457,40,82.37288135593221,40C81.35593220338983,40,80.33898305084746,40,79.32203389830508,40C78.30508474576271,40,77.28813559322033,40,76.27118644067797,40C75.2542372881356,40,74.23728813559322,40,73.22033898305085,40C72.20338983050848,40,71.1864406779661,40,70.16949152542374,40C69.15254237288136,40,68.13559322033899,40,67.11864406779661,40C66.10169491525424,40,65.08474576271186,40,64.0677966101695,40C63.05084745762712,40,62.03389830508474,40,61.01694915254237,40C59.99999999999999,40,58.983050847457626,40,57.96610169491525,40C56.94915254237288,40,55.93220338983051,40,54.91525423728814,40C53.898305084745765,40,52.88135593220339,40,51.86440677966102,40C50.847457627118644,40,49.83050847457627,40,48.813559322033896,40C47.79661016949152,40,46.77966101694915,40,45.762711864406775,40C44.7457627118644,40,43.728813559322035,40,42.71186440677966,40C41.69491525423729,40,40.67796610169491,40,39.66101694915254,40C38.644067796610166,40,37.6271186440678,40,36.610169491525426,40C35.59322033898305,40,34.57627118644068,40,33.559322033898304,40C32.54237288135593,40,31.525423728813557,40,30.508474576271183,40C29.491525423728813,40,28.47457627118644,40,27.45762711864407,40C26.440677966101696,40,25.423728813559322,40,24.406779661016948,40C23.389830508474574,40,22.372881355932204,40,21.35593220338983,40C20.338983050847457,40,19.322033898305087,40,18.305084745762713,40C17.28813559322034,40,16.271186440677965,40,15.254237288135592,40C14.23728813559322,40,13.220338983050846,40,12.203389830508474,40C11.186440677966102,40,10.169491525423728,40,9.152542372881356,40C8.135593220338983,40,7.11864406779661,40,6.101694915254237,40C5.084745762711864,40,4.067796610169491,40,3.0508474576271185,40C2.0338983050847457,40,1.0169491525423728,40,0,40Z"></path><path class="line" stroke="black" fill="none" d="M0,15.099999999999998C1.0169491525423728,16.52,2.0338983050847457,17.94,3.0508474576271185,17.94C4.067796610169491,17.94,5.084745762711864,17.12,6.101694915254237,17.12C7.11864406779661,17.12,8.135593220338983,17.233333333333334,9.152542372881356,17.46C10.169491525423728,17.686666666666667,11.186440677966102,25.12,12.203389830508474,25.12C13.220338983050846,25.12,14.23728813559322,22.020000000000003,15.254237288135592,20.860000000000003C16.271186440677965,19.700000000000003,17.28813559322034,18.159999999999997,18.305084745762713,18.159999999999997C19.322033898305087,18.159999999999997,20.338983050847457,22.720000000000002,21.35593220338983,22.720000000000002C22.372881355932204,22.720000000000002,23.389830508474574,16.200000000000003,24.406779661016948,16.200000000000003C25.423728813559322,16.200000000000003,26.440677966101696,16.220000000000002,27.45762711864407,16.259999999999998C28.47457627118644,16.299999999999994,29.491525423728813,17.60666666666667,30.508474576271183,18.82C31.525423728813557,20.033333333333335,32.54237288135593,23.54,33.559322033898304,23.54C34.57627118644068,23.54,35.59322033898305,22.830000000000002,36.610169491525426,22.1C37.6271186440678,21.37,38.644067796610166,19.16,39.66101694915254,19.16C40.67796610169491,19.16,41.69491525423729,22.23666666666667,42.71186440677966,23.440000000000005C43.728813559322035,24.643333333333338,44.7457627118644,26.38,45.762711864406775,26.38C46.77966101694915,26.38,47.79661016949152,25.96666666666667,48.813559322033896,25.78C49.83050847457627,25.593333333333334,50.847457627118644,25.259999999999998,51.86440677966102,25.259999999999998C52.88135593220339,25.259999999999998,53.898305084745765,27.176666666666666,54.91525423728814,28.14C55.93220338983051,29.10333333333333,56.94915254237288,31.04,57.96610169491525,31.04C58.983050847457626,31.04,59.99999999999999,30.819999999999997,61.01694915254237,30.72C62.03389830508474,30.619999999999997,63.05084745762712,30.44,64.0677966101695,30.44C65.08474576271186,30.44,66.10169491525424,30.560000000000002,67.11864406779661,30.560000000000002C68.13559322033899,30.560000000000002,69.15254237288136,29.68,70.16949152542374,29.68C71.1864406779661,29.68,72.20338983050848,29.71333333333333,73.22033898305085,29.779999999999998C74.23728813559322,29.846666666666664,75.2542372881356,29.88,76.27118644067797,30.08C77.28813559322033,30.279999999999998,78.30508474576271,33.64,79.32203389830508,33.64C80.33898305084746,33.64,81.35593220338983,30.16,82.37288135593221,30.16C83.38983050847457,30.16,84.40677966101696,30.779999999999998,85.42372881355932,30.779999999999998C86.4406779661017,30.779999999999998,87.45762711864407,28.406666666666673,88.47457627118645,27.94C89.49152542372882,27.473333333333336,90.50847457627118,27.240000000000002,91.52542372881355,27.240000000000002C92.54237288135593,27.240000000000002,93.55932203389831,30.18,94.57627118644069,30.18C95.59322033898306,30.18,96.61016949152543,28.48666666666667,97.62711864406779,28.380000000000003C98.64406779661016,28.273333333333333,99.66101694915254,28.326666666666668,100.6779661016949,28.22C101.69491525423729,28.11333333333333,102.71186440677965,27.32,103.72881355932203,27.32C104.7457627118644,27.32,105.76271186440678,27.5,106.77966101694915,27.5C107.79661016949153,27.5,108.8135593220339,25.419999999999998,109.83050847457628,25.419999999999998C110.84745762711864,25.419999999999998,111.86440677966102,26.38,112.88135593220339,26.38C113.89830508474576,26.38,114.91525423728814,23.28,115.9322033898305,23.28C116.94915254237289,23.28,117.96610169491525,23.326666666666668,118.98305084745763,23.42C120,23.513333333333335,121.01694915254237,26.38,122.03389830508473,26.38C123.05084745762711,26.38,124.0677966101695,18.96,125.08474576271188,18.96C126.10169491525424,18.96,127.11864406779662,22.34,128.135593220339,22.34C129.15254237288136,22.34,130.16949152542372,20.916666666666668,131.1864406779661,20.220000000000002C132.20338983050846,19.523333333333333,133.22033898305085,18.159999999999997,134.23728813559322,18.159999999999997C135.25423728813558,18.159999999999997,136.27118644067798,18.71,137.28813559322035,19.46C138.3050847457627,20.21,139.3220338983051,22.66,140.33898305084747,22.66C141.35593220338984,22.66,142.3728813559322,20.866666666666667,143.38983050847457,20.76C144.40677966101694,20.653333333333336,145.42372881355934,20.6,146.4406779661017,20.6C147.45762711864407,20.6,148.47457627118644,20.9,149.4915254237288,20.9C150.50847457627117,20.9,151.52542372881356,19.083333333333332,152.54237288135593,18C153.5593220338983,16.916666666666668,154.5762711864407,15.726666666666674,155.59322033898306,14.399999999999999C156.61016949152543,13.073333333333338,157.6271186440678,11.273333333333328,158.64406779661016,10.04C159.66101694915253,8.806666666666658,160.67796610169492,7.333333333333337,161.6949152542373,7.000000000000002C162.71186440677965,6.666666666666667,163.72881355932205,6.833333333333334,164.74576271186442,6.499999999999999C165.76271186440678,6.166666666666667,166.77966101694915,5,167.79661016949152,5C168.81355932203388,5,169.83050847457628,5.339999999999998,170.84745762711864,5.339999999999998C171.864406779661,5.339999999999998,172.8813559322034,2.493333333333337,173.89830508474577,2.480000000000002C174.91525423728814,2.4666666666666672,175.93220338983053,2.46,176.9491525423729,2.46C177.96610169491527,2.46,178.98305084745763,5.66,180,8.860000000000001"></path><path class="axis-ceiling" stroke-width="1" stroke="black" fill="none" d="M175,0L180,0"></path><text class="axis-ceiling-label" font-family="sans-serif" text-anchor="end" font-size="10px" x="170" y="2.5">2000</text></g></svg>